<?xml version="1.0" encoding="UTF-8" standalone="no"?>
<!DOCTYPE svg PUBLIC "-//W3C//DTD SVG 1.1//EN"
 "http://www.w3.org/Graphics/SVG/1.1/DTD/svg11.dtd">
<!-- Generated by graphviz version 2.43.0 (0)
 -->
<!-- Title: %3 Pages: 1 -->
<svg width="936pt" height="343pt"
 viewBox="0.00 0.00 936.00 342.53" xmlns="http://www.w3.org/2000/svg" xmlns:xlink="http://www.w3.org/1999/xlink">
<g id="graph0" class="graph" transform="scale(1 1) rotate(0) translate(4 338.53)">
<title>%3</title>
<polygon fill="white" stroke="transparent" points="-4,4 -4,-338.53 932,-338.53 932,4 -4,4"/>
<!-- &#45;1 -->
<g id="node1" class="node">
<title>&#45;1</title>
<polygon fill="lightgray" stroke="black" points="26,-334.53 0,-334.53 0,-316.53 26,-316.53 26,-334.53"/>
<text text-anchor="middle" x="13" y="-323.33" font-family="Times,serif" font-size="9.00">&#45;1</text>
</g>
<!-- 1 -->
<g id="node22" class="node">
<title>1</title>
<ellipse fill="lightblue" stroke="black" cx="361" cy="-260.03" rx="16.03" ry="16.03"/>
<text text-anchor="middle" x="361" y="-257.83" font-family="Times,serif" font-size="9.00">1</text>
</g>
<!-- &#45;1&#45;&gt;1 -->
<g id="edge29" class="edge">
<title>&#45;1&#45;&gt;1</title>
<path fill="none" stroke="red" stroke-width="0.31" stroke-dasharray="1,5" d="M26.37,-319.24C29.19,-318.24 32.17,-317.28 35,-316.53 144.53,-287.55 278.92,-270.27 334.75,-263.87"/>
<polygon fill="red" stroke="red" stroke-width="0.31" points="335.29,-267.33 344.84,-262.73 334.51,-260.37 335.29,-267.33"/>
</g>
<!-- 2 -->
<g id="node23" class="node">
<title>2</title>
<ellipse fill="lightblue" stroke="black" cx="526" cy="-16.26" rx="16.03" ry="16.03"/>
<text text-anchor="middle" x="526" y="-14.06" font-family="Times,serif" font-size="9.00">2</text>
</g>
<!-- &#45;1&#45;&gt;2 -->
<g id="edge37" class="edge">
<title>&#45;1&#45;&gt;2</title>
<path fill="none" stroke="green" stroke-width="0.31" stroke-dasharray="1,5" d="M12.95,-316.31C13.22,-279.98 19.59,-132.79 103,-68.53 165.39,-20.46 416.66,-16.89 499.42,-17.05"/>
<polygon fill="green" stroke="green" stroke-width="0.31" points="499.5,-20.55 509.51,-17.09 499.53,-13.55 499.5,-20.55"/>
</g>
<!-- 3 -->
<g id="node24" class="node">
<title>3</title>
<ellipse fill="lightblue" stroke="black" cx="412" cy="-260.03" rx="16.03" ry="16.03"/>
<text text-anchor="middle" x="412" y="-257.83" font-family="Times,serif" font-size="9.00">3</text>
</g>
<!-- &#45;1&#45;&gt;3 -->
<g id="edge20" class="edge">
<title>&#45;1&#45;&gt;3</title>
<path fill="none" stroke="red" stroke-width="0.24" stroke-dasharray="1,5" d="M26.34,-319.09C29.16,-318.11 32.15,-317.19 35,-316.53 187.85,-281.47 239.96,-337.67 386,-280.53 387.93,-279.78 389.84,-278.84 391.7,-277.78"/>
<polygon fill="red" stroke="red" stroke-width="0.24" points="394.11,-280.37 400.4,-271.84 390.17,-274.59 394.11,-280.37"/>
</g>
<!-- &#45;2 -->
<g id="node2" class="node">
<title>&#45;2</title>
<polygon fill="lightgray" stroke="black" points="114,-334.53 88,-334.53 88,-316.53 114,-316.53 114,-334.53"/>
<text text-anchor="middle" x="101" y="-323.33" font-family="Times,serif" font-size="9.00">&#45;2</text>
</g>
<!-- 0 -->
<g id="node21" class="node">
<title>0</title>
<ellipse fill="lightblue" stroke="black" cx="551" cy="-260.03" rx="16.03" ry="16.03"/>
<text text-anchor="middle" x="551" y="-257.83" font-family="Times,serif" font-size="9.00">0</text>
</g>
<!-- &#45;2&#45;&gt;0 -->
<g id="edge1" class="edge">
<title>&#45;2&#45;&gt;0</title>
<path fill="none" stroke="green" stroke-width="0.11" stroke-dasharray="1,5" d="M114.34,-319.08C117.16,-318.1 120.15,-317.18 123,-316.53 281.95,-280.4 328.22,-312.8 488,-280.53 500.8,-277.95 514.71,-273.79 526.19,-269.98"/>
<polygon fill="green" stroke="green" stroke-width="0.11" points="527.62,-273.19 535.95,-266.63 525.35,-266.57 527.62,-273.19"/>
</g>
<!-- &#45;2&#45;&gt;1 -->
<g id="edge86" class="edge">
<title>&#45;2&#45;&gt;1</title>
<path fill="none" stroke="green" stroke-width="0.41" d="M114.41,-319.37C117.23,-318.37 120.2,-317.37 123,-316.53 199.08,-293.92 291.06,-274.71 335.08,-266.01"/>
<polygon fill="green" stroke="green" stroke-width="0.41" points="335.81,-269.44 344.95,-264.08 334.47,-262.57 335.81,-269.44"/>
</g>
<!-- &#45;2&#45;&gt;2 -->
<g id="edge36" class="edge">
<title>&#45;2&#45;&gt;2</title>
<path fill="none" stroke="red" stroke-width="0.35" d="M101.13,-316.11C102.22,-279.54 111.78,-133.51 195,-68.53 242.42,-31.5 429.45,-20.84 499.4,-18.11"/>
<polygon fill="red" stroke="red" stroke-width="0.35" points="499.72,-21.6 509.59,-17.74 499.47,-14.61 499.72,-21.6"/>
</g>
<!-- &#45;2&#45;&gt;3 -->
<g id="edge70" class="edge">
<title>&#45;2&#45;&gt;3</title>
<path fill="none" stroke="green" stroke-width="0.28" d="M114.36,-319.17C117.18,-318.18 120.16,-317.24 123,-316.53 237.53,-288.21 276.87,-325.37 386,-280.53 388.08,-279.68 390.14,-278.62 392.14,-277.44"/>
<polygon fill="green" stroke="green" stroke-width="0.28" points="394.13,-280.32 400.36,-271.75 390.14,-274.56 394.13,-280.32"/>
</g>
<!-- 4 -->
<g id="node25" class="node">
<title>4</title>
<ellipse fill="lightblue" stroke="black" cx="463" cy="-260.03" rx="16.03" ry="16.03"/>
<text text-anchor="middle" x="463" y="-257.83" font-family="Times,serif" font-size="9.00">4</text>
</g>
<!-- &#45;2&#45;&gt;4 -->
<g id="edge22" class="edge">
<title>&#45;2&#45;&gt;4</title>
<path fill="none" stroke="red" stroke-width="0.21" stroke-dasharray="1,5" d="M114.34,-319.12C117.17,-318.13 120.15,-317.21 123,-316.53 259.72,-284.31 306.49,-332.49 437,-280.53 438.93,-279.77 440.84,-278.82 442.69,-277.76"/>
<polygon fill="red" stroke="red" stroke-width="0.21" points="445.11,-280.34 451.38,-271.81 441.16,-274.57 445.11,-280.34"/>
</g>
<!-- &#45;3 -->
<g id="node3" class="node">
<title>&#45;3</title>
<polygon fill="lightgray" stroke="black" points="834,-334.53 808,-334.53 808,-316.53 834,-316.53 834,-334.53"/>
<text text-anchor="middle" x="821" y="-323.33" font-family="Times,serif" font-size="9.00">&#45;3</text>
</g>
<!-- &#45;3&#45;&gt;0 -->
<g id="edge42" class="edge">
<title>&#45;3&#45;&gt;0</title>
<path fill="none" stroke="red" stroke-width="0.49" d="M807.59,-319.35C804.78,-318.35 801.81,-317.36 799,-316.53 719.02,-293.15 622.08,-274.06 576.72,-265.65"/>
<polygon fill="red" stroke="red" stroke-width="0.49" points="577.31,-262.2 566.85,-263.84 576.05,-269.09 577.31,-262.2"/>
</g>
<!-- &#45;3&#45;&gt;2 -->
<g id="edge79" class="edge">
<title>&#45;3&#45;&gt;2</title>
<path fill="none" stroke="red" stroke-width="0.24" d="M822.32,-316.17C827.53,-279.85 842.78,-134.73 766,-68.53 734.01,-40.94 607.6,-25.34 552.22,-19.7"/>
<polygon fill="red" stroke="red" stroke-width="0.24" points="552.44,-16.2 542.14,-18.7 551.75,-23.17 552.44,-16.2"/>
</g>
<!-- &#45;3&#45;&gt;3 -->
<g id="edge50" class="edge">
<title>&#45;3&#45;&gt;3</title>
<path fill="none" stroke="green" stroke-width="0.34" stroke-dasharray="1,5" d="M807.66,-319.08C804.84,-318.1 801.85,-317.18 799,-316.53 641.79,-280.7 588.24,-339.07 438,-280.53 436.07,-279.78 434.15,-278.84 432.29,-277.79"/>
<polygon fill="green" stroke="green" stroke-width="0.34" points="433.83,-274.6 423.6,-271.85 429.89,-280.38 433.83,-274.6"/>
</g>
<!-- &#45;3&#45;&gt;4 -->
<g id="edge23" class="edge">
<title>&#45;3&#45;&gt;4</title>
<path fill="none" stroke="green" stroke-width="0.14" d="M807.65,-319.15C804.83,-318.17 801.84,-317.23 799,-316.53 680.12,-287.45 645.55,-306.73 526,-280.53 513.24,-277.74 499.34,-273.56 487.85,-269.79"/>
<polygon fill="green" stroke="green" stroke-width="0.14" points="488.68,-266.37 478.08,-266.49 486.44,-273 488.68,-266.37"/>
</g>
<!-- &#45;4 -->
<g id="node4" class="node">
<title>&#45;4</title>
<polygon fill="lightgray" stroke="black" points="928,-334.53 902,-334.53 902,-316.53 928,-316.53 928,-334.53"/>
<text text-anchor="middle" x="915" y="-323.33" font-family="Times,serif" font-size="9.00">&#45;4</text>
</g>
<!-- &#45;4&#45;&gt;0 -->
<g id="edge89" class="edge">
<title>&#45;4&#45;&gt;0</title>
<path fill="none" stroke="red" stroke-width="0.18" d="M901.63,-319.22C898.81,-318.23 895.83,-317.27 893,-316.53 832.77,-300.85 646.46,-274.25 577.24,-264.63"/>
<polygon fill="red" stroke="red" stroke-width="0.18" points="577.56,-261.15 567.18,-263.24 576.6,-268.08 577.56,-261.15"/>
</g>
<!-- &#45;4&#45;&gt;2 -->
<g id="edge49" class="edge">
<title>&#45;4&#45;&gt;2</title>
<path fill="none" stroke="red" stroke-width="0.21" d="M915.39,-316.48C916.67,-280.24 916.57,-131.34 833,-68.53 788.71,-35.23 618.36,-22.38 552.35,-18.59"/>
<polygon fill="red" stroke="red" stroke-width="0.21" points="552.51,-15.09 542.33,-18.04 552.12,-22.08 552.51,-15.09"/>
</g>
<!-- &#45;4&#45;&gt;3 -->
<g id="edge78" class="edge">
<title>&#45;4&#45;&gt;3</title>
<path fill="none" stroke="green" stroke-width="0.96" d="M901.67,-319.04C898.85,-318.06 895.86,-317.16 893,-316.53 694.77,-273.48 627.76,-352.24 438,-280.53 436.06,-279.8 434.14,-278.88 432.28,-277.83"/>
<polygon fill="green" stroke="green" stroke-width="0.96" points="433.81,-274.64 423.58,-271.91 429.88,-280.43 433.81,-274.64"/>
</g>
<!-- &#45;4&#45;&gt;4 -->
<g id="edge69" class="edge">
<title>&#45;4&#45;&gt;4</title>
<path fill="none" stroke="green" stroke-width="0.44" d="M901.66,-319.08C898.84,-318.1 895.85,-317.18 893,-316.53 733.17,-280.24 686.66,-312.94 526,-280.53 513.2,-277.95 499.29,-273.8 487.81,-269.98"/>
<polygon fill="green" stroke="green" stroke-width="0.44" points="488.65,-266.57 478.05,-266.63 486.38,-273.19 488.65,-266.57"/>
</g>
<!-- 288 -->
<g id="node27" class="node">
<title>288</title>
<ellipse fill="white" stroke="black" cx="650" cy="-178.77" rx="25" ry="25"/>
<text text-anchor="middle" x="650" y="-176.57" font-family="Times,serif" font-size="9.00">288</text>
</g>
<!-- &#45;4&#45;&gt;288 -->
<g id="edge21" class="edge">
<title>&#45;4&#45;&gt;288</title>
<path fill="none" stroke="red" stroke-width="0.12" d="M901.86,-317.36C861.4,-295.25 737.96,-227.82 680.29,-196.32"/>
<polygon fill="red" stroke="red" stroke-width="0.12" points="681.75,-193.13 671.29,-191.4 678.39,-199.27 681.75,-193.13"/>
</g>
<!-- &#45;5 -->
<g id="node5" class="node">
<title>&#45;5</title>
<polygon fill="lightgray" stroke="black" points="158,-334.53 132,-334.53 132,-316.53 158,-316.53 158,-334.53"/>
<text text-anchor="middle" x="145" y="-323.33" font-family="Times,serif" font-size="9.00">&#45;5</text>
</g>
<!-- &#45;5&#45;&gt;0 -->
<g id="edge35" class="edge">
<title>&#45;5&#45;&gt;0</title>
<path fill="none" stroke="red" stroke-width="0.54" d="M158.34,-319.11C161.16,-318.13 164.15,-317.2 167,-316.53 306.77,-283.77 347.47,-309.89 488,-280.53 500.79,-277.86 514.69,-273.7 526.17,-269.9"/>
<polygon fill="red" stroke="red" stroke-width="0.54" points="527.6,-273.11 535.93,-266.57 525.34,-266.49 527.6,-273.11"/>
</g>
<!-- &#45;5&#45;&gt;1 -->
<g id="edge9" class="edge">
<title>&#45;5&#45;&gt;1</title>
<path fill="none" stroke="green" stroke-width="0.71" d="M158.44,-319.48C161.26,-318.46 164.22,-317.44 167,-316.53 226.75,-297.15 297.97,-277.69 335.28,-267.77"/>
<polygon fill="green" stroke="green" stroke-width="0.71" points="336.52,-271.06 345.3,-265.12 334.73,-264.29 336.52,-271.06"/>
</g>
<!-- &#45;5&#45;&gt;2 -->
<g id="edge97" class="edge">
<title>&#45;5&#45;&gt;2</title>
<path fill="none" stroke="red" stroke-width="0.56" d="M145.26,-316.17C146.85,-279.84 158.37,-134.68 241,-68.53 280.8,-36.66 436.43,-23.11 499.37,-18.86"/>
<polygon fill="red" stroke="red" stroke-width="0.56" points="499.9,-22.33 509.66,-18.19 499.45,-15.34 499.9,-22.33"/>
</g>
<!-- &#45;5&#45;&gt;3 -->
<g id="edge67" class="edge">
<title>&#45;5&#45;&gt;3</title>
<path fill="none" stroke="red" stroke-width="0.25" d="M158.37,-319.22C161.19,-318.23 164.17,-317.27 167,-316.53 262.43,-291.57 295.27,-319.24 386,-280.53 388.07,-279.65 390.12,-278.57 392.11,-277.38"/>
<polygon fill="red" stroke="red" stroke-width="0.25" points="394.11,-280.25 400.33,-271.67 390.12,-274.5 394.11,-280.25"/>
</g>
<!-- &#45;5&#45;&gt;4 -->
<g id="edge58" class="edge">
<title>&#45;5&#45;&gt;4</title>
<path fill="none" stroke="green" stroke-width="0.15" d="M158.35,-319.16C161.17,-318.17 164.16,-317.23 167,-316.53 284.57,-287.68 324.94,-326.35 437,-280.53 439.08,-279.68 441.14,-278.63 443.14,-277.45"/>
<polygon fill="green" stroke="green" stroke-width="0.15" points="445.13,-280.32 451.36,-271.76 441.15,-274.57 445.13,-280.32"/>
</g>
<!-- &#45;6 -->
<g id="node6" class="node">
<title>&#45;6</title>
<polygon fill="lightgray" stroke="black" points="202,-334.53 176,-334.53 176,-316.53 202,-316.53 202,-334.53"/>
<text text-anchor="middle" x="189" y="-323.33" font-family="Times,serif" font-size="9.00">&#45;6</text>
</g>
<!-- &#45;6&#45;&gt;0 -->
<g id="edge77" class="edge">
<title>&#45;6&#45;&gt;0</title>
<path fill="none" stroke="red" stroke-width="0.56" stroke-dasharray="1,5" d="M202.35,-319.15C205.17,-318.16 208.16,-317.23 211,-316.53 331.62,-287.14 366.71,-306.99 488,-280.53 500.76,-277.75 514.66,-273.57 526.15,-269.8"/>
<polygon fill="red" stroke="red" stroke-width="0.56" points="527.57,-273.01 535.92,-266.5 525.32,-266.38 527.57,-273.01"/>
</g>
<!-- &#45;6&#45;&gt;1 -->
<g id="edge13" class="edge">
<title>&#45;6&#45;&gt;1</title>
<path fill="none" stroke="red" stroke-width="0.18" d="M202.21,-319.66C230.97,-309.04 299.63,-283.69 336.54,-270.06"/>
<polygon fill="red" stroke="red" stroke-width="0.18" points="337.88,-273.3 346.05,-266.55 335.45,-266.73 337.88,-273.3"/>
</g>
<!-- &#45;6&#45;&gt;2 -->
<g id="edge19" class="edge">
<title>&#45;6&#45;&gt;2</title>
<path fill="none" stroke="green" stroke-width="0.31" d="M189.3,-316.27C191.08,-280.36 203.18,-136.67 284,-68.53 316.55,-41.08 443.86,-25.4 499.61,-19.72"/>
<polygon fill="green" stroke="green" stroke-width="0.31" points="500.15,-23.18 509.75,-18.72 499.46,-16.22 500.15,-23.18"/>
</g>
<!-- &#45;6&#45;&gt;3 -->
<g id="edge47" class="edge">
<title>&#45;6&#45;&gt;3</title>
<path fill="none" stroke="green" stroke-width="0.35" d="M202.39,-319.31C205.21,-318.31 208.18,-317.33 211,-316.53 287.4,-294.91 313.6,-313.15 386,-280.53 388.05,-279.61 390.09,-278.5 392.07,-277.29"/>
<polygon fill="green" stroke="green" stroke-width="0.35" points="394.09,-280.15 400.28,-271.55 390.08,-274.42 394.09,-280.15"/>
</g>
<!-- &#45;6&#45;&gt;4 -->
<g id="edge59" class="edge">
<title>&#45;6&#45;&gt;4</title>
<path fill="none" stroke="red" stroke-width="0.25" d="M202.37,-319.21C205.19,-318.22 208.17,-317.27 211,-316.53 309.46,-291.04 343.35,-320.22 437,-280.53 439.07,-279.66 441.12,-278.58 443.12,-277.39"/>
<polygon fill="red" stroke="red" stroke-width="0.25" points="445.12,-280.26 451.33,-271.68 441.12,-274.51 445.12,-280.26"/>
</g>
<!-- &#45;7 -->
<g id="node7" class="node">
<title>&#45;7</title>
<polygon fill="lightgray" stroke="black" points="70,-334.53 44,-334.53 44,-316.53 70,-316.53 70,-334.53"/>
<text text-anchor="middle" x="57" y="-323.33" font-family="Times,serif" font-size="9.00">&#45;7</text>
</g>
<!-- &#45;7&#45;&gt;1 -->
<g id="edge96" class="edge">
<title>&#45;7&#45;&gt;1</title>
<path fill="none" stroke="green" stroke-width="0.11" d="M70.39,-319.29C73.21,-318.3 76.18,-317.32 79,-316.53 171.7,-290.72 284.77,-272.3 334.91,-264.78"/>
<polygon fill="green" stroke="green" stroke-width="0.11" points="335.52,-268.23 344.9,-263.31 334.49,-261.31 335.52,-268.23"/>
</g>
<!-- &#45;7&#45;&gt;2 -->
<g id="edge65" class="edge">
<title>&#45;7&#45;&gt;2</title>
<path fill="none" stroke="red" stroke-width="0.22" d="M57.04,-316.33C57.68,-280.06 65.53,-133.14 149,-68.53 203.89,-26.04 422.74,-18.76 499.35,-17.52"/>
<polygon fill="red" stroke="red" stroke-width="0.22" points="499.63,-21.02 509.58,-17.38 499.54,-14.02 499.63,-21.02"/>
</g>
<!-- &#45;7&#45;&gt;3 -->
<g id="edge33" class="edge">
<title>&#45;7&#45;&gt;3</title>
<path fill="none" stroke="green" stroke-width="1.06" d="M70.35,-319.12C73.17,-318.14 76.15,-317.21 79,-316.53 212.67,-284.85 258.43,-331.52 386,-280.53 387.93,-279.76 389.83,-278.81 391.69,-277.75"/>
<polygon fill="green" stroke="green" stroke-width="1.06" points="394.11,-280.34 400.38,-271.8 390.15,-274.56 394.11,-280.34"/>
</g>
<!-- &#45;7&#45;&gt;4 -->
<g id="edge44" class="edge">
<title>&#45;7&#45;&gt;4</title>
<path fill="none" stroke="green" stroke-width="0.41" d="M70.34,-319.09C73.16,-318.1 76.15,-317.19 79,-316.53 234.9,-280.93 288.02,-338.65 437,-280.53 438.93,-279.78 440.85,-278.84 442.7,-277.79"/>
<polygon fill="green" stroke="green" stroke-width="0.41" points="445.11,-280.38 451.4,-271.85 441.17,-274.6 445.11,-280.38"/>
</g>
<!-- &#45;8 -->
<g id="node8" class="node">
<title>&#45;8</title>
<polygon fill="lightgray" stroke="black" points="746,-334.53 720,-334.53 720,-316.53 746,-316.53 746,-334.53"/>
<text text-anchor="middle" x="733" y="-323.33" font-family="Times,serif" font-size="9.00">&#45;8</text>
</g>
<!-- &#45;8&#45;&gt;0 -->
<g id="edge74" class="edge">
<title>&#45;8&#45;&gt;0</title>
<path fill="none" stroke="green" stroke-width="0.24" stroke-dasharray="1,5" d="M719.98,-319.76C717.03,-318.69 713.91,-317.57 711,-316.53 663.46,-299.64 607.76,-280.46 576.2,-269.64"/>
<polygon fill="green" stroke="green" stroke-width="0.24" points="577.07,-266.24 566.47,-266.31 574.8,-272.86 577.07,-266.24"/>
</g>
<!-- &#45;8&#45;&gt;1 -->
<g id="edge6" class="edge">
<title>&#45;8&#45;&gt;1</title>
<path fill="none" stroke="green" stroke-width="0.53" d="M719.66,-319.11C716.84,-318.12 713.85,-317.2 711,-316.53 569.92,-283.54 521.7,-333.89 387,-280.53 385.07,-279.77 383.16,-278.82 381.3,-277.76"/>
<polygon fill="green" stroke="green" stroke-width="0.53" points="382.84,-274.57 372.61,-271.82 378.89,-280.35 382.84,-274.57"/>
</g>
<!-- &#45;8&#45;&gt;2 -->
<g id="edge32" class="edge">
<title>&#45;8&#45;&gt;2</title>
<path fill="none" stroke="green" stroke-width="1.46" d="M737.21,-316.37C741.41,-307.73 747.57,-293.58 750,-280.53 763.71,-207.02 718.28,-74.11 713,-68.53 670.6,-23.75 593.11,-16.81 552.48,-16.48"/>
<polygon fill="green" stroke="green" stroke-width="1.46" points="552.27,-12.98 542.28,-16.53 552.3,-19.98 552.27,-12.98"/>
</g>
<!-- &#45;8&#45;&gt;3 -->
<g id="edge64" class="edge">
<title>&#45;8&#45;&gt;3</title>
<path fill="none" stroke="red" stroke-width="0.12" d="M719.65,-319.15C716.83,-318.17 713.84,-317.23 711,-316.53 592.12,-287.45 551.32,-326.77 438,-280.53 435.92,-279.69 433.86,-278.63 431.86,-277.45"/>
<polygon fill="red" stroke="red" stroke-width="0.12" points="433.85,-274.57 423.64,-271.76 429.87,-280.33 433.85,-274.57"/>
</g>
<!-- &#45;8&#45;&gt;4 -->
<g id="edge95" class="edge">
<title>&#45;8&#45;&gt;4</title>
<path fill="none" stroke="green" stroke-width="0.3" d="M719.61,-319.29C716.79,-318.29 713.82,-317.32 711,-316.53 630.28,-294.15 607.24,-300.95 526,-280.53 513.33,-277.35 499.44,-273.13 487.94,-269.43"/>
<polygon fill="green" stroke="green" stroke-width="0.3" points="488.74,-266.01 478.15,-266.22 486.56,-272.66 488.74,-266.01"/>
</g>
<!-- 69 -->
<g id="node26" class="node">
<title>69</title>
<ellipse fill="white" stroke="black" cx="720" cy="-260.03" rx="20.51" ry="20.51"/>
<text text-anchor="middle" x="720" y="-257.83" font-family="Times,serif" font-size="9.00">69</text>
</g>
<!-- &#45;8&#45;&gt;69 -->
<g id="edge85" class="edge">
<title>&#45;8&#45;&gt;69</title>
<path fill="none" stroke="green" stroke-width="0.41" stroke-dasharray="1,5" d="M731.35,-316.49C729.97,-309.75 727.92,-299.71 725.93,-290.01"/>
<polygon fill="green" stroke="green" stroke-width="0.41" points="729.35,-289.27 723.92,-280.18 722.5,-290.68 729.35,-289.27"/>
</g>
<!-- &#45;9 -->
<g id="node9" class="node">
<title>&#45;9</title>
<polygon fill="lightgray" stroke="black" points="790,-334.53 764,-334.53 764,-316.53 790,-316.53 790,-334.53"/>
<text text-anchor="middle" x="777" y="-323.33" font-family="Times,serif" font-size="9.00">&#45;9</text>
</g>
<!-- &#45;9&#45;&gt;0 -->
<g id="edge88" class="edge">
<title>&#45;9&#45;&gt;0</title>
<path fill="none" stroke="green" stroke-width="0.45" d="M763.56,-319.45C760.75,-318.44 757.79,-317.42 755,-316.53 691.52,-296.39 615.55,-276.92 576.68,-267.29"/>
<polygon fill="green" stroke="green" stroke-width="0.45" points="577.29,-263.83 566.74,-264.84 575.61,-270.63 577.29,-263.83"/>
</g>
<!-- &#45;9&#45;&gt;1 -->
<g id="edge60" class="edge">
<title>&#45;9&#45;&gt;1</title>
<path fill="none" stroke="red" stroke-width="0.42" d="M763.66,-319.08C760.84,-318.1 757.85,-317.18 755,-316.53 594.74,-280.17 540.18,-340.05 387,-280.53 385.07,-279.78 383.15,-278.85 381.29,-277.79"/>
<polygon fill="red" stroke="red" stroke-width="0.42" points="382.83,-274.6 372.6,-271.86 378.88,-280.38 382.83,-274.6"/>
</g>
<!-- &#45;9&#45;&gt;2 -->
<g id="edge48" class="edge">
<title>&#45;9&#45;&gt;2</title>
<path fill="none" stroke="green" stroke-width="0.13" d="M778.71,-316.37C785.62,-280.87 807.8,-138.67 736,-68.53 709.93,-43.06 602.52,-26.72 552.21,-20.33"/>
<polygon fill="green" stroke="green" stroke-width="0.13" points="552.47,-16.83 542.12,-19.08 551.61,-23.78 552.47,-16.83"/>
</g>
<!-- &#45;9&#45;&gt;4 -->
<g id="edge68" class="edge">
<title>&#45;9&#45;&gt;4</title>
<path fill="none" stroke="green" stroke-width="0.48" d="M763.63,-319.21C760.81,-318.22 757.83,-317.26 755,-316.53 655.24,-290.81 626.36,-303.83 526,-280.53 513.28,-277.58 499.38,-273.39 487.89,-269.64"/>
<polygon fill="green" stroke="green" stroke-width="0.48" points="488.7,-266.22 478.11,-266.38 486.49,-272.87 488.7,-266.22"/>
</g>
<!-- &#45;10 -->
<g id="node10" class="node">
<title>&#45;10</title>
<polygon fill="lightgray" stroke="black" points="702,-334.53 670,-334.53 670,-316.53 702,-316.53 702,-334.53"/>
<text text-anchor="middle" x="686" y="-323.33" font-family="Times,serif" font-size="9.00">&#45;10</text>
</g>
<!-- &#45;10&#45;&gt;0 -->
<g id="edge34" class="edge">
<title>&#45;10&#45;&gt;0</title>
<path fill="none" stroke="red" stroke-width="0.18" d="M669.98,-317C646.35,-305.88 601.97,-285 574.6,-272.13"/>
<polygon fill="red" stroke="red" stroke-width="0.18" points="575.89,-268.87 565.36,-267.78 572.91,-275.2 575.89,-268.87"/>
</g>
<!-- &#45;10&#45;&gt;1 -->
<g id="edge66" class="edge">
<title>&#45;10&#45;&gt;1</title>
<path fill="none" stroke="green" stroke-width="0.16" d="M669.98,-318.94C667.02,-318.04 663.94,-317.19 661,-316.53 541.14,-289.71 500.73,-326.91 387,-280.53 384.92,-279.69 382.86,-278.63 380.86,-277.45"/>
<polygon fill="green" stroke="green" stroke-width="0.16" points="382.85,-274.57 372.63,-271.76 378.87,-280.33 382.85,-274.57"/>
</g>
<!-- &#45;10&#45;&gt;3 -->
<g id="edge8" class="edge">
<title>&#45;10&#45;&gt;3</title>
<path fill="none" stroke="red" stroke-width="0.15" d="M669.96,-319.01C667,-318.1 663.93,-317.23 661,-316.53 563.36,-293.17 530.4,-319.8 438,-280.53 435.93,-279.66 433.88,-278.58 431.89,-277.39"/>
<polygon fill="red" stroke="red" stroke-width="0.15" points="433.88,-274.51 423.67,-271.68 429.88,-280.26 433.88,-274.51"/>
</g>
<!-- &#45;10&#45;&gt;69 -->
<g id="edge14" class="edge">
<title>&#45;10&#45;&gt;69</title>
<path fill="none" stroke="red" stroke-width="0.16" d="M690.31,-316.49C694.26,-309.11 700.34,-297.75 705.97,-287.23"/>
<polygon fill="red" stroke="red" stroke-width="0.16" points="709.1,-288.8 710.74,-278.33 702.93,-285.49 709.1,-288.8"/>
</g>
<!-- &#45;11 -->
<g id="node11" class="node">
<title>&#45;11</title>
<polygon fill="lightgray" stroke="black" points="252,-334.53 220,-334.53 220,-316.53 252,-316.53 252,-334.53"/>
<text text-anchor="middle" x="236" y="-323.33" font-family="Times,serif" font-size="9.00">&#45;11</text>
</g>
<!-- &#45;11&#45;&gt;0 -->
<g id="edge76" class="edge">
<title>&#45;11&#45;&gt;0</title>
<path fill="none" stroke="red" stroke-width="0.52" d="M252.04,-319.01C254.99,-318.1 258.07,-317.23 261,-316.53 360.38,-292.9 388.51,-303.7 488,-280.53 500.72,-277.57 514.62,-273.38 526.11,-269.63"/>
<polygon fill="red" stroke="red" stroke-width="0.52" points="527.51,-272.86 535.89,-266.37 525.3,-266.22 527.51,-272.86"/>
</g>
<!-- &#45;11&#45;&gt;1 -->
<g id="edge46" class="edge">
<title>&#45;11&#45;&gt;1</title>
<path fill="none" stroke="green" stroke-width="0.19" d="M251.83,-316.49C273.52,-305.47 312.64,-285.6 337.68,-272.88"/>
<polygon fill="green" stroke="green" stroke-width="0.19" points="339.51,-275.87 346.84,-268.22 336.34,-269.63 339.51,-275.87"/>
</g>
<!-- &#45;11&#45;&gt;2 -->
<g id="edge18" class="edge">
<title>&#45;11&#45;&gt;2</title>
<path fill="none" stroke="green" stroke-width="0.38" d="M236.18,-316.38C237.42,-280.95 247.25,-139 325,-68.53 374.34,-23.81 457.26,-16.94 499.52,-16.58"/>
<polygon fill="green" stroke="green" stroke-width="0.38" points="499.57,-20.08 509.58,-16.61 499.59,-13.08 499.57,-20.08"/>
</g>
<!-- &#45;11&#45;&gt;3 -->
<g id="edge87" class="edge">
<title>&#45;11&#45;&gt;3</title>
<path fill="none" stroke="green" stroke-width="0.13" d="M252.12,-319.3C255.07,-318.36 258.12,-317.41 261,-316.53 316.32,-299.72 334.25,-306.31 386,-280.53 388.01,-279.53 390.03,-278.37 391.99,-277.12"/>
<polygon fill="green" stroke="green" stroke-width="0.13" points="394.03,-279.97 400.17,-271.33 389.99,-274.25 394.03,-279.97"/>
</g>
<!-- &#45;11&#45;&gt;4 -->
<g id="edge57" class="edge">
<title>&#45;11&#45;&gt;4</title>
<path fill="none" stroke="green" stroke-width="0.47" d="M252.06,-319.11C255.02,-318.2 258.09,-317.29 261,-316.53 338.25,-296.34 364.19,-313.29 437,-280.53 439.05,-279.61 441.09,-278.51 443.07,-277.29"/>
<polygon fill="green" stroke="green" stroke-width="0.47" points="445.09,-280.16 451.28,-271.55 441.08,-274.42 445.09,-280.16"/>
</g>
<!-- &#45;12 -->
<g id="node12" class="node">
<title>&#45;12</title>
<polygon fill="lightgray" stroke="black" points="302,-334.53 270,-334.53 270,-316.53 302,-316.53 302,-334.53"/>
<text text-anchor="middle" x="286" y="-323.33" font-family="Times,serif" font-size="9.00">&#45;12</text>
</g>
<!-- &#45;12&#45;&gt;0 -->
<g id="edge27" class="edge">
<title>&#45;12&#45;&gt;0</title>
<path fill="none" stroke="red" stroke-width="0.37" d="M302.06,-319.11C305.02,-318.19 308.09,-317.29 311,-316.53 388.68,-296.27 410.23,-300.43 488,-280.53 500.65,-277.3 514.54,-273.07 526.05,-269.38"/>
<polygon fill="red" stroke="red" stroke-width="0.37" points="527.42,-272.61 535.84,-266.19 525.25,-265.96 527.42,-272.61"/>
</g>
<!-- &#45;12&#45;&gt;1 -->
<g id="edge56" class="edge">
<title>&#45;12&#45;&gt;1</title>
<path fill="none" stroke="red" stroke-width="0.14" d="M295.5,-316.49C306.83,-306.89 326.1,-290.58 340.81,-278.12"/>
<polygon fill="red" stroke="red" stroke-width="0.14" points="343.48,-280.45 348.85,-271.32 338.96,-275.11 343.48,-280.45"/>
</g>
<!-- &#45;12&#45;&gt;2 -->
<g id="edge84" class="edge">
<title>&#45;12&#45;&gt;2</title>
<path fill="none" stroke="red" stroke-width="0.2" d="M285.75,-316.32C285.13,-280.63 287.73,-137.73 365,-68.53 403.25,-34.27 464.47,-22.89 499.36,-19.12"/>
<polygon fill="red" stroke="red" stroke-width="0.2" points="500.08,-22.57 509.7,-18.15 499.42,-15.6 500.08,-22.57"/>
</g>
<!-- &#45;12&#45;&gt;3 -->
<g id="edge17" class="edge">
<title>&#45;12&#45;&gt;3</title>
<path fill="none" stroke="red" stroke-width="0.45" d="M302.14,-318.75C322.38,-311.2 357.84,-297 386,-280.53 387.75,-279.51 389.53,-278.39 391.28,-277.21"/>
<polygon fill="red" stroke="red" stroke-width="0.45" points="393.63,-279.84 399.71,-271.16 389.54,-274.15 393.63,-279.84"/>
</g>
<!-- &#45;12&#45;&gt;4 -->
<g id="edge7" class="edge">
<title>&#45;12&#45;&gt;4</title>
<path fill="none" stroke="red" stroke-width="0.48" d="M302.11,-319.3C305.07,-318.36 308.12,-317.41 311,-316.53 366.74,-299.66 384.84,-306.44 437,-280.53 439.01,-279.53 441.03,-278.37 443,-277.13"/>
<polygon fill="red" stroke="red" stroke-width="0.48" points="445.04,-279.97 451.17,-271.34 440.99,-274.26 445.04,-279.97"/>
</g>
<!-- &#45;13 -->
<g id="node13" class="node">
<title>&#45;13</title>
<polygon fill="lightgray" stroke="black" points="352,-334.53 320,-334.53 320,-316.53 352,-316.53 352,-334.53"/>
<text text-anchor="middle" x="336" y="-323.33" font-family="Times,serif" font-size="9.00">&#45;13</text>
</g>
<!-- &#45;13&#45;&gt;0 -->
<g id="edge73" class="edge">
<title>&#45;13&#45;&gt;0</title>
<path fill="none" stroke="green" stroke-width="0.46" d="M352.11,-319.29C355.06,-318.36 358.12,-317.4 361,-316.53 417.17,-299.59 431.75,-297.21 488,-280.53 500.52,-276.82 514.4,-272.54 525.93,-268.94"/>
<polygon fill="green" stroke="green" stroke-width="0.46" points="527.26,-272.19 535.75,-265.86 525.17,-265.51 527.26,-272.19"/>
</g>
<!-- &#45;13&#45;&gt;1 -->
<g id="edge41" class="edge">
<title>&#45;13&#45;&gt;1</title>
<path fill="none" stroke="red" stroke-width="0.25" d="M339.17,-316.49C342.26,-308.62 347.14,-296.23 351.5,-285.16"/>
<polygon fill="red" stroke="red" stroke-width="0.25" points="354.88,-286.12 355.29,-275.53 348.37,-283.55 354.88,-286.12"/>
</g>
<!-- &#45;13&#45;&gt;2 -->
<g id="edge31" class="edge">
<title>&#45;13&#45;&gt;2</title>
<path fill="none" stroke="red" stroke-width="0.49" d="M333.85,-316.5C331.62,-307.74 328.29,-293.26 327,-280.53 321.24,-223.6 326.68,-205.83 351,-154.02 370.62,-112.23 374.44,-97.97 410,-68.53 437.01,-46.17 475.3,-31.79 500.39,-24.11"/>
<polygon fill="red" stroke="red" stroke-width="0.49" points="501.65,-27.39 510.26,-21.23 499.68,-20.68 501.65,-27.39"/>
</g>
<!-- &#45;13&#45;&gt;3 -->
<g id="edge5" class="edge">
<title>&#45;13&#45;&gt;3</title>
<path fill="none" stroke="red" stroke-width="0.11" d="M345.63,-316.49C357.29,-306.75 377.23,-290.08 392.22,-277.56"/>
<polygon fill="red" stroke="red" stroke-width="0.11" points="394.52,-280.19 399.95,-271.1 390.03,-274.82 394.52,-280.19"/>
</g>
<!-- &#45;13&#45;&gt;4 -->
<g id="edge93" class="edge">
<title>&#45;13&#45;&gt;4</title>
<path fill="none" stroke="red" stroke-width="0.26" d="M352.3,-318.78C372.75,-311.26 408.57,-297.09 437,-280.53 438.76,-279.51 440.53,-278.39 442.29,-277.22"/>
<polygon fill="red" stroke="red" stroke-width="0.26" points="444.63,-279.85 450.71,-271.17 440.55,-274.16 444.63,-279.85"/>
</g>
<!-- &#45;14 -->
<g id="node14" class="node">
<title>&#45;14</title>
<polygon fill="lightgray" stroke="black" points="402,-334.53 370,-334.53 370,-316.53 402,-316.53 402,-334.53"/>
<text text-anchor="middle" x="386" y="-323.33" font-family="Times,serif" font-size="9.00">&#45;14</text>
</g>
<!-- &#45;14&#45;&gt;0 -->
<g id="edge16" class="edge">
<title>&#45;14&#45;&gt;0</title>
<path fill="none" stroke="green" stroke-width="0.35" d="M402.12,-318.33C431.08,-307.19 492.05,-283.72 526.31,-270.53"/>
<polygon fill="green" stroke="green" stroke-width="0.35" points="527.94,-273.65 536.01,-266.8 525.42,-267.12 527.94,-273.65"/>
</g>
<!-- &#45;14&#45;&gt;1 -->
<g id="edge43" class="edge">
<title>&#45;14&#45;&gt;1</title>
<path fill="none" stroke="green" stroke-width="0.24" d="M382.83,-316.49C379.74,-308.62 374.86,-296.23 370.5,-285.16"/>
<polygon fill="green" stroke="green" stroke-width="0.24" points="373.63,-283.55 366.71,-275.53 367.12,-286.12 373.63,-283.55"/>
</g>
<!-- &#45;14&#45;&gt;2 -->
<g id="edge54" class="edge">
<title>&#45;14&#45;&gt;2</title>
<path fill="none" stroke="red" stroke-width="0.16" stroke-dasharray="1,5" d="M371.06,-316.28C359.08,-308.73 343.14,-296.34 336,-280.53 328.49,-263.92 329.69,-256.62 336,-239.52 370.47,-146.16 463.58,-65.44 505.29,-32.76"/>
<polygon fill="red" stroke="red" stroke-width="0.16" points="507.6,-35.4 513.38,-26.53 503.32,-29.86 507.6,-35.4"/>
</g>
<!-- &#45;14&#45;&gt;3 -->
<g id="edge82" class="edge">
<title>&#45;14&#45;&gt;3</title>
<path fill="none" stroke="green" stroke-width="0.19" d="M389.29,-316.49C392.55,-308.54 397.69,-295.98 402.26,-284.82"/>
<polygon fill="green" stroke="green" stroke-width="0.19" points="405.51,-286.11 406.06,-275.53 399.03,-283.46 405.51,-286.11"/>
</g>
<!-- &#45;14&#45;&gt;4 -->
<g id="edge94" class="edge">
<title>&#45;14&#45;&gt;4</title>
<path fill="none" stroke="red" stroke-width="0.16" d="M395.75,-316.49C407.57,-306.75 427.77,-290.08 442.96,-277.56"/>
<polygon fill="red" stroke="red" stroke-width="0.16" points="445.3,-280.16 450.79,-271.1 440.85,-274.76 445.3,-280.16"/>
</g>
<!-- &#45;15 -->
<g id="node15" class="node">
<title>&#45;15</title>
<polygon fill="lightgray" stroke="black" points="884,-334.53 852,-334.53 852,-316.53 884,-316.53 884,-334.53"/>
<text text-anchor="middle" x="868" y="-323.33" font-family="Times,serif" font-size="9.00">&#45;15</text>
</g>
<!-- &#45;15&#45;&gt;0 -->
<g id="edge63" class="edge">
<title>&#45;15&#45;&gt;0</title>
<path fill="none" stroke="red" stroke-width="0.23" d="M851.95,-319.08C848.99,-318.17 845.92,-317.27 843,-316.53 745.88,-291.86 628.09,-272.68 576.86,-264.86"/>
<polygon fill="red" stroke="red" stroke-width="0.23" points="577.39,-261.4 566.98,-263.36 576.34,-268.32 577.39,-261.4"/>
</g>
<!-- &#45;15&#45;&gt;2 -->
<g id="edge3" class="edge">
<title>&#45;15&#45;&gt;2</title>
<path fill="none" stroke="red" stroke-width="0.12" stroke-dasharray="1,5" d="M868.82,-316.33C871.92,-280.06 879.07,-133.13 799,-68.53 761.12,-37.96 613.21,-23.72 552.37,-19.07"/>
<polygon fill="red" stroke="red" stroke-width="0.12" points="552.62,-15.58 542.39,-18.33 552.11,-22.56 552.62,-15.58"/>
</g>
<!-- &#45;15&#45;&gt;3 -->
<g id="edge71" class="edge">
<title>&#45;15&#45;&gt;3</title>
<path fill="none" stroke="green" stroke-width="0.79" d="M851.73,-318.76C848.85,-317.9 845.86,-317.11 843,-316.53 665.86,-280.78 606.73,-345.23 438,-280.53 436.06,-279.79 434.15,-278.86 432.29,-277.81"/>
<polygon fill="green" stroke="green" stroke-width="0.79" points="433.82,-274.62 423.59,-271.88 429.88,-280.41 433.82,-274.62"/>
</g>
<!-- &#45;15&#45;&gt;4 -->
<g id="edge80" class="edge">
<title>&#45;15&#45;&gt;4</title>
<path fill="none" stroke="green" stroke-width="0.16" d="M851.99,-318.9C849.03,-318 845.94,-317.17 843,-316.53 704.36,-286.78 664.78,-309.63 526,-280.53 513.22,-277.85 499.32,-273.69 487.83,-269.89"/>
<polygon fill="green" stroke="green" stroke-width="0.16" points="488.66,-266.48 478.07,-266.57 486.4,-273.11 488.66,-266.48"/>
</g>
<!-- &#45;16 -->
<g id="node16" class="node">
<title>&#45;16</title>
<polygon fill="lightgray" stroke="black" points="452,-334.53 420,-334.53 420,-316.53 452,-316.53 452,-334.53"/>
<text text-anchor="middle" x="436" y="-323.33" font-family="Times,serif" font-size="9.00">&#45;16</text>
</g>
<!-- &#45;16&#45;&gt;0 -->
<g id="edge10" class="edge">
<title>&#45;16&#45;&gt;0</title>
<path fill="none" stroke="green" stroke-width="0.31" d="M450.56,-316.49C470.11,-305.7 505.04,-286.41 528.12,-273.66"/>
<polygon fill="green" stroke="green" stroke-width="0.31" points="529.85,-276.71 536.91,-268.81 526.47,-270.58 529.85,-276.71"/>
</g>
<!-- &#45;16&#45;&gt;1 -->
<g id="edge38" class="edge">
<title>&#45;16&#45;&gt;1</title>
<path fill="none" stroke="red" stroke-width="0.15" d="M426.5,-316.49C415.17,-306.89 395.9,-290.58 381.19,-278.12"/>
<polygon fill="red" stroke="red" stroke-width="0.15" points="383.04,-275.11 373.15,-271.32 378.52,-280.45 383.04,-275.11"/>
</g>
<!-- &#45;16&#45;&gt;3 -->
<g id="edge2" class="edge">
<title>&#45;16&#45;&gt;3</title>
<path fill="none" stroke="red" stroke-width="0.39" d="M432.96,-316.49C429.99,-308.62 425.31,-296.23 421.12,-285.16"/>
<polygon fill="red" stroke="red" stroke-width="0.39" points="424.29,-283.65 417.48,-275.53 417.74,-286.12 424.29,-283.65"/>
</g>
<!-- &#45;16&#45;&gt;4 -->
<g id="edge30" class="edge">
<title>&#45;16&#45;&gt;4</title>
<path fill="none" stroke="green" stroke-width="0.22" d="M439.42,-316.49C442.8,-308.54 448.14,-295.98 452.88,-284.82"/>
<polygon fill="green" stroke="green" stroke-width="0.22" points="456.14,-286.1 456.83,-275.53 449.7,-283.36 456.14,-286.1"/>
</g>
<!-- &#45;17 -->
<g id="node17" class="node">
<title>&#45;17</title>
<polygon fill="lightgray" stroke="black" points="502,-334.53 470,-334.53 470,-316.53 502,-316.53 502,-334.53"/>
<text text-anchor="middle" x="486" y="-323.33" font-family="Times,serif" font-size="9.00">&#45;17</text>
</g>
<!-- &#45;17&#45;&gt;0 -->
<g id="edge26" class="edge">
<title>&#45;17&#45;&gt;0</title>
<path fill="none" stroke="green" stroke-width="0.14" stroke-dasharray="1,5" d="M494.23,-316.49C503.74,-307.2 519.68,-291.63 532.25,-279.35"/>
<polygon fill="green" stroke="green" stroke-width="0.14" points="534.85,-281.7 539.56,-272.21 529.96,-276.69 534.85,-281.7"/>
</g>
<!-- &#45;17&#45;&gt;1 -->
<g id="edge75" class="edge">
<title>&#45;17&#45;&gt;1</title>
<path fill="none" stroke="red" stroke-width="0.42" d="M469.68,-318.59C449.59,-310.98 414.73,-296.82 387,-280.53 385.25,-279.51 383.47,-278.38 381.72,-277.21"/>
<polygon fill="red" stroke="red" stroke-width="0.42" points="383.46,-274.15 373.3,-271.15 379.37,-279.83 383.46,-274.15"/>
</g>
<!-- &#45;17&#45;&gt;2 -->
<g id="edge83" class="edge">
<title>&#45;17&#45;&gt;2</title>
<path fill="none" stroke="red" stroke-width="0.39" d="M487.07,-316.32C492.18,-277.07 514.19,-107.96 522.66,-42.9"/>
<polygon fill="red" stroke="red" stroke-width="0.39" points="526.17,-43.07 523.99,-32.7 519.23,-42.17 526.17,-43.07"/>
</g>
<!-- &#45;17&#45;&gt;3 -->
<g id="edge55" class="edge">
<title>&#45;17&#45;&gt;3</title>
<path fill="none" stroke="green" stroke-width="0.3" d="M476.63,-316.49C465.44,-306.89 446.44,-290.58 431.92,-278.12"/>
<polygon fill="green" stroke="green" stroke-width="0.3" points="433.86,-275.17 423.99,-271.32 429.3,-280.48 433.86,-275.17"/>
</g>
<!-- &#45;17&#45;&gt;4 -->
<g id="edge28" class="edge">
<title>&#45;17&#45;&gt;4</title>
<path fill="none" stroke="red" stroke-width="0.29" stroke-dasharray="1,5" d="M483.09,-316.49C480.24,-308.62 475.75,-296.23 471.74,-285.16"/>
<polygon fill="red" stroke="red" stroke-width="0.29" points="474.95,-283.74 468.25,-275.53 468.37,-286.12 474.95,-283.74"/>
</g>
<!-- &#45;18 -->
<g id="node18" class="node">
<title>&#45;18</title>
<polygon fill="lightgray" stroke="black" points="552,-334.53 520,-334.53 520,-316.53 552,-316.53 552,-334.53"/>
<text text-anchor="middle" x="536" y="-323.33" font-family="Times,serif" font-size="9.00">&#45;18</text>
</g>
<!-- &#45;18&#45;&gt;0 -->
<g id="edge72" class="edge">
<title>&#45;18&#45;&gt;0</title>
<path fill="none" stroke="red" stroke-width="0.4" stroke-dasharray="1,5" d="M537.9,-316.49C539.72,-308.8 542.55,-296.8 545.12,-285.93"/>
<polygon fill="red" stroke="red" stroke-width="0.4" points="548.56,-286.56 547.46,-276.03 541.75,-284.96 548.56,-286.56"/>
</g>
<!-- &#45;18&#45;&gt;1 -->
<g id="edge4" class="edge">
<title>&#45;18&#45;&gt;1</title>
<path fill="none" stroke="red" stroke-width="0.29" d="M519.88,-319.31C516.93,-318.37 513.88,-317.41 511,-316.53 456.11,-299.79 438.34,-306.17 387,-280.53 384.99,-279.53 382.98,-278.37 381.01,-277.12"/>
<polygon fill="red" stroke="red" stroke-width="0.29" points="383.02,-274.25 372.83,-271.32 378.97,-279.96 383.02,-274.25"/>
</g>
<!-- &#45;18&#45;&gt;2 -->
<g id="edge12" class="edge">
<title>&#45;18&#45;&gt;2</title>
<path fill="none" stroke="red" stroke-width="0.2" d="M546.88,-316.51C556.61,-308.61 570.19,-295.56 576,-280.53 582.57,-263.53 578.01,-257.64 576,-239.52 567.9,-166.63 545.3,-82.72 533.46,-42"/>
<polygon fill="red" stroke="red" stroke-width="0.2" points="536.74,-40.76 530.56,-32.16 530.03,-42.74 536.74,-40.76"/>
</g>
<!-- &#45;18&#45;&gt;3 -->
<g id="edge40" class="edge">
<title>&#45;18&#45;&gt;3</title>
<path fill="none" stroke="green" stroke-width="0.2" d="M519.85,-318.56C499.97,-310.92 465.47,-296.73 438,-280.53 436.25,-279.5 434.48,-278.37 432.73,-277.2"/>
<polygon fill="green" stroke="green" stroke-width="0.2" points="434.47,-274.14 424.31,-271.14 430.38,-279.82 434.47,-274.14"/>
</g>
<!-- &#45;18&#45;&gt;4 -->
<g id="edge91" class="edge">
<title>&#45;18&#45;&gt;4</title>
<path fill="none" stroke="red" stroke-width="0.41" d="M526.75,-316.49C515.72,-306.89 496.97,-290.58 482.65,-278.12"/>
<polygon fill="red" stroke="red" stroke-width="0.41" points="484.67,-275.24 474.83,-271.32 480.07,-280.52 484.67,-275.24"/>
</g>
<!-- &#45;19 -->
<g id="node19" class="node">
<title>&#45;19</title>
<polygon fill="lightgray" stroke="black" points="602,-334.53 570,-334.53 570,-316.53 602,-316.53 602,-334.53"/>
<text text-anchor="middle" x="586" y="-323.33" font-family="Times,serif" font-size="9.00">&#45;19</text>
</g>
<!-- &#45;19&#45;&gt;0 -->
<g id="edge15" class="edge">
<title>&#45;19&#45;&gt;0</title>
<path fill="none" stroke="green" stroke-width="0.52" stroke-dasharray="1,5" d="M581.57,-316.49C577.03,-308.25 569.76,-295.06 563.45,-283.61"/>
<polygon fill="green" stroke="green" stroke-width="0.52" points="566.35,-281.62 558.45,-274.55 560.21,-285 566.35,-281.62"/>
</g>
<!-- &#45;19&#45;&gt;1 -->
<g id="edge81" class="edge">
<title>&#45;19&#45;&gt;1</title>
<path fill="none" stroke="red" stroke-width="0.1" d="M569.94,-319.12C566.98,-318.2 563.91,-317.3 561,-316.53 484.62,-296.47 458.98,-313.01 387,-280.53 384.95,-279.61 382.91,-278.5 380.93,-277.29"/>
<polygon fill="red" stroke="red" stroke-width="0.1" points="382.93,-274.41 372.73,-271.55 378.91,-280.15 382.93,-274.41"/>
</g>
<!-- &#45;19&#45;&gt;2 -->
<g id="edge53" class="edge">
<title>&#45;19&#45;&gt;2</title>
<path fill="none" stroke="green" stroke-width="0.22" d="M587.44,-316.46C588.92,-307.66 591.14,-293.15 592,-280.53 593.23,-262.35 593.58,-257.68 592,-239.52 585.31,-162.65 591.55,-139.8 562,-68.53 557.33,-57.26 549.84,-46.03 542.9,-36.96"/>
<polygon fill="green" stroke="green" stroke-width="0.22" points="545.51,-34.61 536.52,-29 540.05,-38.99 545.51,-34.61"/>
</g>
<!-- &#45;19&#45;&gt;3 -->
<g id="edge25" class="edge">
<title>&#45;19&#45;&gt;3</title>
<path fill="none" stroke="green" stroke-width="0.16" stroke-dasharray="1,5" d="M569.88,-319.31C566.93,-318.37 563.88,-317.41 561,-316.53 506.54,-299.85 488.93,-306.04 438,-280.53 435.99,-279.53 433.98,-278.36 432.01,-277.11"/>
<polygon fill="green" stroke="green" stroke-width="0.16" points="434.02,-274.25 423.84,-271.32 429.97,-279.96 434.02,-274.25"/>
</g>
<!-- &#45;19&#45;&gt;4 -->
<g id="edge92" class="edge">
<title>&#45;19&#45;&gt;4</title>
<path fill="none" stroke="green" stroke-width="0.69" d="M570.42,-316.49C549.19,-305.53 511,-285.81 486.34,-273.08"/>
<polygon fill="green" stroke="green" stroke-width="0.69" points="487.8,-269.89 477.31,-268.42 484.59,-276.11 487.8,-269.89"/>
</g>
<!-- &#45;20 -->
<g id="node20" class="node">
<title>&#45;20</title>
<polygon fill="lightgray" stroke="black" points="652,-334.53 620,-334.53 620,-316.53 652,-316.53 652,-334.53"/>
<text text-anchor="middle" x="636" y="-323.33" font-family="Times,serif" font-size="9.00">&#45;20</text>
</g>
<!-- &#45;20&#45;&gt;0 -->
<g id="edge62" class="edge">
<title>&#45;20&#45;&gt;0</title>
<path fill="none" stroke="red" stroke-width="0.23" d="M625.23,-316.49C611.84,-306.49 588.69,-289.19 571.79,-276.56"/>
<polygon fill="red" stroke="red" stroke-width="0.23" points="573.72,-273.63 563.61,-270.45 569.53,-279.24 573.72,-273.63"/>
</g>
<!-- &#45;20&#45;&gt;1 -->
<g id="edge90" class="edge">
<title>&#45;20&#45;&gt;1</title>
<path fill="none" stroke="green" stroke-width="0.13" stroke-dasharray="1,5" d="M619.96,-319.01C617,-318.1 613.93,-317.23 611,-316.53 512.93,-293.1 479.81,-319.94 387,-280.53 384.93,-279.66 382.88,-278.58 380.88,-277.39"/>
<polygon fill="green" stroke="green" stroke-width="0.13" points="382.88,-274.51 372.67,-271.68 378.88,-280.26 382.88,-274.51"/>
</g>
<!-- &#45;20&#45;&gt;2 -->
<g id="edge24" class="edge">
<title>&#45;20&#45;&gt;2</title>
<path fill="none" stroke="red" stroke-width="0.15" d="M641.71,-316.49C664.98,-282.63 748.61,-149.76 689,-68.53 657.53,-25.64 590.18,-17.68 552.65,-16.76"/>
<polygon fill="red" stroke="red" stroke-width="0.15" points="552.51,-13.26 542.47,-16.67 552.44,-20.26 552.51,-13.26"/>
</g>
<!-- &#45;20&#45;&gt;3 -->
<g id="edge52" class="edge">
<title>&#45;20&#45;&gt;3</title>
<path fill="none" stroke="red" stroke-width="0.25" d="M619.93,-319.12C616.98,-318.2 613.91,-317.3 611,-316.53 535.05,-296.54 509.57,-312.87 438,-280.53 435.95,-279.61 433.91,-278.5 431.93,-277.29"/>
<polygon fill="red" stroke="red" stroke-width="0.25" points="433.93,-274.41 423.73,-271.54 429.91,-280.15 433.93,-274.41"/>
</g>
<!-- &#45;20&#45;&gt;4 -->
<g id="edge39" class="edge">
<title>&#45;20&#45;&gt;4</title>
<path fill="none" stroke="green" stroke-width="0.28" d="M619.72,-318.56C589.41,-307.43 524.11,-283.46 488.1,-270.24"/>
<polygon fill="green" stroke="green" stroke-width="0.28" points="488.95,-266.83 478.36,-266.67 486.54,-273.4 488.95,-266.83"/>
</g>
<!-- 1&#45;&gt;288 -->
<g id="edge11" class="edge">
<title>1&#45;&gt;288</title>
<path fill="none" stroke="red" stroke-width="0.27" d="M372.75,-248.56C377,-245.25 381.98,-241.84 387,-239.52 463.92,-203.92 563.57,-188.79 615.33,-182.98"/>
<polygon fill="red" stroke="red" stroke-width="0.27" points="615.76,-186.46 625.33,-181.91 615.01,-179.5 615.76,-186.46"/>
</g>
<!-- 288&#45;&gt;2 -->
<g id="edge51" class="edge">
<title>288&#45;&gt;2</title>
<path fill="none" stroke="green" stroke-width="0.37" stroke-dasharray="1,5" d="M662.3,-156.88C674.4,-133.31 688.56,-94.84 670,-68.53 643.36,-30.76 586.32,-20.66 552.58,-18.05"/>
<polygon fill="green" stroke="green" stroke-width="0.37" points="552.7,-14.55 542.51,-17.45 552.28,-21.54 552.7,-14.55"/>
</g>
<!-- 438 -->
<g id="node28" class="node">
<title>438</title>
<ellipse fill="white" stroke="black" cx="636" cy="-93.28" rx="25" ry="25"/>
<text text-anchor="middle" x="636" y="-91.08" font-family="Times,serif" font-size="9.00">438</text>
</g>
<!-- 288&#45;&gt;438 -->
<g id="edge45" class="edge">
<title>288&#45;&gt;438</title>
<path fill="none" stroke="green" stroke-width="0.27" d="M646.03,-154.07C644.65,-145.89 643.09,-136.57 641.61,-127.76"/>
<polygon fill="green" stroke="green" stroke-width="0.27" points="645.04,-127.03 639.94,-117.75 638.14,-128.19 645.04,-127.03"/>
</g>
<!-- 438&#45;&gt;2 -->
<g id="edge61" class="edge">
<title>438&#45;&gt;2</title>
<path fill="none" stroke="green" stroke-width="0.26" d="M615.82,-78.52C596.46,-65.31 567.32,-45.44 547.52,-31.94"/>
<polygon fill="green" stroke="green" stroke-width="0.26" points="549.38,-28.97 539.15,-26.23 545.44,-34.75 549.38,-28.97"/>
</g>
</g>
</svg>
