<?xml version="1.0" encoding="UTF-8" standalone="no"?>
<!DOCTYPE svg PUBLIC "-//W3C//DTD SVG 1.1//EN"
 "http://www.w3.org/Graphics/SVG/1.1/DTD/svg11.dtd">
<!-- Generated by graphviz version 2.43.0 (0)
 -->
<!-- Title: %3 Pages: 1 -->
<svg width="1295pt" height="180pt"
 viewBox="0.00 0.00 1295.45 180.02" xmlns="http://www.w3.org/2000/svg" xmlns:xlink="http://www.w3.org/1999/xlink">
<g id="graph0" class="graph" transform="scale(1 1) rotate(0) translate(4 176.02)">
<title>%3</title>
<polygon fill="white" stroke="transparent" points="-4,4 -4,-176.02 1291.45,-176.02 1291.45,4 -4,4"/>
<!-- &#45;1 -->
<g id="node1" class="node">
<title>&#45;1</title>
<polygon fill="lightgray" stroke="black" points="295.75,-102.28 269.75,-102.28 269.75,-84.28 295.75,-84.28 295.75,-102.28"/>
<text text-anchor="middle" x="282.75" y="-91.08" font-family="Times,serif" font-size="9.00">&#45;1</text>
</g>
<!-- 0 -->
<g id="node21" class="node">
<title>0</title>
<ellipse fill="lightblue" stroke="black" cx="525.75" cy="-16.26" rx="16.03" ry="16.03"/>
<text text-anchor="middle" x="525.75" y="-14.06" font-family="Times,serif" font-size="9.00">0</text>
</g>
<!-- &#45;1&#45;&gt;0 -->
<g id="edge1" class="edge">
<title>&#45;1&#45;&gt;0</title>
<path fill="none" stroke="red" stroke-width="0.16" d="M288.36,-84.04C292.34,-78.83 298.14,-72.36 304.75,-68.53 368.03,-31.81 455.84,-21.39 499.26,-18.43"/>
<polygon fill="red" stroke="red" stroke-width="0.16" points="499.53,-21.92 509.3,-17.83 499.11,-14.93 499.53,-21.92"/>
</g>
<!-- 1 -->
<g id="node22" class="node">
<title>1</title>
<ellipse fill="lightblue" stroke="black" cx="736.75" cy="-16.26" rx="16.03" ry="16.03"/>
<text text-anchor="middle" x="736.75" y="-14.06" font-family="Times,serif" font-size="9.00">1</text>
</g>
<!-- &#45;1&#45;&gt;1 -->
<g id="edge29" class="edge">
<title>&#45;1&#45;&gt;1</title>
<path fill="none" stroke="green" stroke-width="0.12" d="M287.86,-84.21C291.77,-78.79 297.69,-72.01 304.75,-68.53 458.86,7.53 521.44,-67.28 689.75,-32.53 697.09,-31.01 704.89,-28.75 711.98,-26.44"/>
<polygon fill="green" stroke="green" stroke-width="0.12" points="713.42,-29.64 721.74,-23.08 711.14,-23.02 713.42,-29.64"/>
</g>
<!-- 3 -->
<g id="node24" class="node">
<title>3</title>
<ellipse fill="lightblue" stroke="black" cx="576.75" cy="-16.26" rx="16.03" ry="16.03"/>
<text text-anchor="middle" x="576.75" y="-14.06" font-family="Times,serif" font-size="9.00">3</text>
</g>
<!-- &#45;1&#45;&gt;3 -->
<g id="edge69" class="edge">
<title>&#45;1&#45;&gt;3</title>
<path fill="none" stroke="red" stroke-width="1.51" d="M288.26,-83.86C292.2,-78.57 297.98,-72.09 304.75,-68.53 402.53,-17.06 446.51,-69.18 550.75,-32.53 552,-32.09 553.26,-31.59 554.51,-31.04"/>
<polygon fill="red" stroke="red" stroke-width="1.51" points="556.49,-33.95 563.74,-26.22 553.25,-27.75 556.49,-33.95"/>
</g>
<!-- 4 -->
<g id="node25" class="node">
<title>4</title>
<ellipse fill="lightblue" stroke="black" cx="664.75" cy="-16.26" rx="16.03" ry="16.03"/>
<text text-anchor="middle" x="664.75" y="-14.06" font-family="Times,serif" font-size="9.00">4</text>
</g>
<!-- &#45;1&#45;&gt;4 -->
<g id="edge22" class="edge">
<title>&#45;1&#45;&gt;4</title>
<path fill="none" stroke="red" stroke-width="0.26" d="M287.89,-84.27C291.82,-78.87 297.74,-72.11 304.75,-68.53 423.17,-8.06 470.91,-56.22 601.75,-32.53 614.3,-30.25 628.08,-27 639.55,-24.09"/>
<polygon fill="red" stroke="red" stroke-width="0.26" points="640.53,-27.45 649.32,-21.54 638.76,-20.67 640.53,-27.45"/>
</g>
<!-- &#45;2 -->
<g id="node2" class="node">
<title>&#45;2</title>
<polygon fill="lightgray" stroke="black" points="633.75,-102.28 607.75,-102.28 607.75,-84.28 633.75,-84.28 633.75,-102.28"/>
<text text-anchor="middle" x="620.75" y="-91.08" font-family="Times,serif" font-size="9.00">&#45;2</text>
</g>
<!-- &#45;2&#45;&gt;0 -->
<g id="edge8" class="edge">
<title>&#45;2&#45;&gt;0</title>
<path fill="none" stroke="red" stroke-width="0.34" d="M613.81,-83.95C609.67,-79.2 604.17,-73.26 598.75,-68.53 582.71,-54.52 562.85,-40.78 547.89,-31.05"/>
<polygon fill="red" stroke="red" stroke-width="0.34" points="549.6,-27.99 539.29,-25.55 545.83,-33.88 549.6,-27.99"/>
</g>
<!-- &#45;2&#45;&gt;1 -->
<g id="edge80" class="edge">
<title>&#45;2&#45;&gt;1</title>
<path fill="none" stroke="red" stroke-width="0.38" d="M627.11,-84.17C631.23,-79.26 636.89,-73.08 642.75,-68.53 664.58,-51.53 692.81,-36.97 712.61,-27.76"/>
<polygon fill="red" stroke="red" stroke-width="0.38" points="714.19,-30.88 721.85,-23.56 711.3,-24.51 714.19,-30.88"/>
</g>
<!-- 2 -->
<g id="node23" class="node">
<title>2</title>
<ellipse fill="lightblue" stroke="black" cx="799.75" cy="-16.26" rx="16.03" ry="16.03"/>
<text text-anchor="middle" x="799.75" y="-14.06" font-family="Times,serif" font-size="9.00">2</text>
</g>
<!-- &#45;2&#45;&gt;2 -->
<g id="edge36" class="edge">
<title>&#45;2&#45;&gt;2</title>
<path fill="none" stroke="red" stroke-width="0.31" d="M626.45,-84.18C630.46,-79.03 636.27,-72.58 642.75,-68.53 689.6,-39.24 709.62,-50.84 761.75,-32.53 766.25,-30.95 771,-29.15 775.56,-27.35"/>
<polygon fill="red" stroke="red" stroke-width="0.31" points="777.1,-30.5 785.07,-23.51 774.48,-24.01 777.1,-30.5"/>
</g>
<!-- &#45;2&#45;&gt;3 -->
<g id="edge20" class="edge">
<title>&#45;2&#45;&gt;3</title>
<path fill="none" stroke="green" stroke-width="0.51" stroke-dasharray="1,5" d="M616.04,-84.25C609.83,-73.67 598.67,-54.64 589.83,-39.56"/>
<polygon fill="green" stroke="green" stroke-width="0.51" points="592.76,-37.64 584.68,-30.79 586.72,-41.18 592.76,-37.64"/>
</g>
<!-- &#45;2&#45;&gt;4 -->
<g id="edge39" class="edge">
<title>&#45;2&#45;&gt;4</title>
<path fill="none" stroke="green" stroke-width="0.16" d="M625.46,-84.25C631.66,-73.67 642.83,-54.64 651.67,-39.56"/>
<polygon fill="green" stroke="green" stroke-width="0.16" points="654.78,-41.18 656.82,-30.79 648.74,-37.64 654.78,-41.18"/>
</g>
<!-- &#45;3 -->
<g id="node3" class="node">
<title>&#45;3</title>
<polygon fill="lightgray" stroke="black" points="589.75,-102.28 563.75,-102.28 563.75,-84.28 589.75,-84.28 589.75,-102.28"/>
<text text-anchor="middle" x="576.75" y="-91.08" font-family="Times,serif" font-size="9.00">&#45;3</text>
</g>
<!-- &#45;3&#45;&gt;0 -->
<g id="edge42" class="edge">
<title>&#45;3&#45;&gt;0</title>
<path fill="none" stroke="green" stroke-width="0.44" d="M571.29,-84.25C563.94,-73.44 550.6,-53.82 540.25,-38.59"/>
<polygon fill="green" stroke="green" stroke-width="0.44" points="543.09,-36.54 534.57,-30.24 537.3,-40.48 543.09,-36.54"/>
</g>
<!-- &#45;3&#45;&gt;1 -->
<g id="edge14" class="edge">
<title>&#45;3&#45;&gt;1</title>
<path fill="none" stroke="green" stroke-width="0.21" d="M582.89,-83.86C586.93,-78.84 592.58,-72.65 598.75,-68.53 608.46,-62.03 674.67,-38.67 711.74,-25.84"/>
<polygon fill="green" stroke="green" stroke-width="0.21" points="713.04,-29.1 721.35,-22.53 710.76,-22.48 713.04,-29.1"/>
</g>
<!-- &#45;3&#45;&gt;2 -->
<g id="edge79" class="edge">
<title>&#45;3&#45;&gt;2</title>
<path fill="none" stroke="green" stroke-width="0.17" d="M582.35,-84.02C586.32,-78.79 592.12,-72.33 598.75,-68.53 663.11,-31.63 690.86,-54.43 761.75,-32.53 766.3,-31.12 771.08,-29.4 775.65,-27.63"/>
<polygon fill="green" stroke="green" stroke-width="0.17" points="777.2,-30.78 785.15,-23.78 774.57,-24.29 777.2,-30.78"/>
</g>
<!-- &#45;3&#45;&gt;3 -->
<g id="edge50" class="edge">
<title>&#45;3&#45;&gt;3</title>
<path fill="none" stroke="green" stroke-width="0.26" d="M576.75,-84.25C576.75,-74.49 576.75,-57.54 576.75,-43.13"/>
<polygon fill="green" stroke="green" stroke-width="0.26" points="580.25,-42.77 576.75,-32.77 573.25,-42.77 580.25,-42.77"/>
</g>
<!-- &#45;3&#45;&gt;4 -->
<g id="edge23" class="edge">
<title>&#45;3&#45;&gt;4</title>
<path fill="none" stroke="red" stroke-width="0.55" d="M583.77,-84.05C587.95,-79.33 593.45,-73.39 598.75,-68.53 613.05,-55.42 630.42,-42.02 643.75,-32.21"/>
<polygon fill="red" stroke="red" stroke-width="0.55" points="645.82,-35.03 651.85,-26.32 641.7,-29.37 645.82,-35.03"/>
</g>
<!-- &#45;4 -->
<g id="node4" class="node">
<title>&#45;4</title>
<polygon fill="lightgray" stroke="black" points="677.75,-102.28 651.75,-102.28 651.75,-84.28 677.75,-84.28 677.75,-102.28"/>
<text text-anchor="middle" x="664.75" y="-91.08" font-family="Times,serif" font-size="9.00">&#45;4</text>
</g>
<!-- &#45;4&#45;&gt;0 -->
<g id="edge89" class="edge">
<title>&#45;4&#45;&gt;0</title>
<path fill="none" stroke="red" stroke-width="0.14" d="M658.57,-83.91C654.53,-78.9 648.87,-72.72 642.75,-68.53 606.86,-43.96 590.84,-51.59 551.75,-32.53 550.58,-31.96 549.4,-31.36 548.22,-30.74"/>
<polygon fill="red" stroke="red" stroke-width="0.14" points="549.73,-27.57 539.3,-25.75 546.31,-33.68 549.73,-27.57"/>
</g>
<!-- &#45;4&#45;&gt;1 -->
<g id="edge21" class="edge">
<title>&#45;4&#45;&gt;1</title>
<path fill="none" stroke="red" stroke-width="0.12" d="M672.45,-84.25C683.39,-72.85 703.74,-51.66 718.62,-36.15"/>
<polygon fill="red" stroke="red" stroke-width="0.12" points="721.43,-38.28 725.83,-28.64 716.38,-33.43 721.43,-38.28"/>
</g>
<!-- &#45;4&#45;&gt;2 -->
<g id="edge49" class="edge">
<title>&#45;4&#45;&gt;2</title>
<path fill="none" stroke="green" stroke-width="0.23" d="M678.19,-84.81C701.32,-71.96 748.88,-45.53 777.17,-29.81"/>
<polygon fill="green" stroke="green" stroke-width="0.23" points="778.92,-32.84 785.96,-24.92 775.52,-26.72 778.92,-32.84"/>
</g>
<!-- &#45;4&#45;&gt;3 -->
<g id="edge78" class="edge">
<title>&#45;4&#45;&gt;3</title>
<path fill="none" stroke="green" stroke-width="0.23" d="M657.73,-84.05C653.55,-79.33 648.05,-73.39 642.75,-68.53 628.45,-55.42 611.08,-42.02 597.75,-32.21"/>
<polygon fill="green" stroke="green" stroke-width="0.23" points="599.8,-29.37 589.65,-26.32 595.68,-35.03 599.8,-29.37"/>
</g>
<!-- &#45;4&#45;&gt;4 -->
<g id="edge68" class="edge">
<title>&#45;4&#45;&gt;4</title>
<path fill="none" stroke="green" stroke-width="0.17" d="M664.75,-84.25C664.75,-74.49 664.75,-57.54 664.75,-43.13"/>
<polygon fill="green" stroke="green" stroke-width="0.17" points="668.25,-42.77 664.75,-32.77 661.25,-42.77 668.25,-42.77"/>
</g>
<!-- &#45;5 -->
<g id="node5" class="node">
<title>&#45;5</title>
<polygon fill="lightgray" stroke="black" points="1223.75,-172.02 1197.75,-172.02 1197.75,-154.02 1223.75,-154.02 1223.75,-172.02"/>
<text text-anchor="middle" x="1210.75" y="-160.82" font-family="Times,serif" font-size="9.00">&#45;5</text>
</g>
<!-- &#45;5&#45;&gt;0 -->
<g id="edge35" class="edge">
<title>&#45;5&#45;&gt;0</title>
<path fill="none" stroke="red" stroke-width="0.13" stroke-dasharray="1,5" d="M1197.41,-161.7C1079.08,-158.81 212.95,-137.03 194.75,-118.02 104.43,-23.71 406.2,-16.92 499.27,-17.01"/>
<polygon fill="red" stroke="red" stroke-width="0.13" points="499.3,-20.51 509.31,-17.05 499.32,-13.51 499.3,-20.51"/>
</g>
<!-- &#45;5&#45;&gt;1 -->
<g id="edge10" class="edge">
<title>&#45;5&#45;&gt;1</title>
<path fill="none" stroke="red" stroke-width="0.19" d="M1219.72,-153.96C1228.02,-145.84 1239.82,-132.46 1244.75,-118.02 1251.86,-97.21 1259.7,-84.67 1244.75,-68.53 1209.16,-30.1 825.75,-44.43 774.75,-32.53 770.11,-31.44 765.29,-29.88 760.7,-28.16"/>
<polygon fill="red" stroke="red" stroke-width="0.19" points="761.79,-24.83 751.21,-24.28 759.14,-31.31 761.79,-24.83"/>
</g>
<!-- &#45;5&#45;&gt;2 -->
<g id="edge97" class="edge">
<title>&#45;5&#45;&gt;2</title>
<path fill="none" stroke="green" stroke-width="0.2" d="M1223.98,-157.72C1240.04,-151.71 1266.38,-139.09 1277.75,-118.02 1288.2,-98.66 1292.45,-84.89 1277.75,-68.53 1247.33,-34.68 921.81,-21.3 826.08,-18.08"/>
<polygon fill="green" stroke="green" stroke-width="0.2" points="826.18,-14.58 816.07,-17.75 825.95,-21.57 826.18,-14.58"/>
</g>
<!-- &#45;5&#45;&gt;3 -->
<g id="edge66" class="edge">
<title>&#45;5&#45;&gt;3</title>
<path fill="none" stroke="green" stroke-width="0.39" d="M1197.62,-161.7C1081.15,-158.77 228.66,-136.74 210.75,-118.02 195.54,-102.13 196.03,-84.88 210.75,-68.53 261.57,-12.04 478.58,-56.29 550.75,-32.53 552.01,-32.11 553.27,-31.63 554.53,-31.1"/>
<polygon fill="green" stroke="green" stroke-width="0.39" points="556.49,-34.03 563.77,-26.33 553.28,-27.8 556.49,-34.03"/>
</g>
<!-- 396 -->
<g id="node26" class="node">
<title>396</title>
<ellipse fill="white" stroke="black" cx="1210.75" cy="-93.28" rx="25" ry="25"/>
<text text-anchor="middle" x="1210.75" y="-91.08" font-family="Times,serif" font-size="9.00">396</text>
</g>
<!-- &#45;5&#45;&gt;396 -->
<g id="edge86" class="edge">
<title>&#45;5&#45;&gt;396</title>
<path fill="none" stroke="green" stroke-width="0.25" d="M1210.75,-153.99C1210.75,-147.55 1210.75,-138.05 1210.75,-128.52"/>
<polygon fill="green" stroke="green" stroke-width="0.25" points="1214.25,-128.3 1210.75,-118.3 1207.25,-128.3 1214.25,-128.3"/>
</g>
<!-- &#45;6 -->
<g id="node6" class="node">
<title>&#45;6</title>
<polygon fill="lightgray" stroke="black" points="759.75,-102.28 733.75,-102.28 733.75,-84.28 759.75,-84.28 759.75,-102.28"/>
<text text-anchor="middle" x="746.75" y="-91.08" font-family="Times,serif" font-size="9.00">&#45;6</text>
</g>
<!-- &#45;6&#45;&gt;0 -->
<g id="edge77" class="edge">
<title>&#45;6&#45;&gt;0</title>
<path fill="none" stroke="red" stroke-width="0.27" d="M733.57,-86.54C721.52,-81.43 703.13,-73.93 686.75,-68.53 627.78,-49.07 609.05,-56.46 551.75,-32.53 550.53,-32.02 549.29,-31.46 548.06,-30.86"/>
<polygon fill="red" stroke="red" stroke-width="0.27" points="549.35,-27.58 538.88,-25.9 546.02,-33.74 549.35,-27.58"/>
</g>
<!-- &#45;6&#45;&gt;1 -->
<g id="edge13" class="edge">
<title>&#45;6&#45;&gt;1</title>
<path fill="none" stroke="red" stroke-width="0.24" stroke-dasharray="1,5" d="M745.68,-84.25C744.36,-74.33 742.05,-56.99 740.11,-42.44"/>
<polygon fill="red" stroke="red" stroke-width="0.24" points="743.57,-41.93 738.78,-32.48 736.63,-42.86 743.57,-41.93"/>
</g>
<!-- &#45;6&#45;&gt;2 -->
<g id="edge19" class="edge">
<title>&#45;6&#45;&gt;2</title>
<path fill="none" stroke="red" stroke-width="0.37" d="M752.42,-84.25C760.1,-73.38 774.08,-53.59 784.87,-38.33"/>
<polygon fill="red" stroke="red" stroke-width="0.37" points="787.86,-40.15 790.77,-29.97 782.14,-36.11 787.86,-40.15"/>
</g>
<!-- &#45;6&#45;&gt;3 -->
<g id="edge47" class="edge">
<title>&#45;6&#45;&gt;3</title>
<path fill="none" stroke="red" stroke-width="0.57" d="M733.69,-86.51C705.26,-73.97 637.4,-44.03 600.93,-27.93"/>
<polygon fill="red" stroke="red" stroke-width="0.57" points="602.09,-24.62 591.53,-23.78 599.26,-31.02 602.09,-24.62"/>
</g>
<!-- &#45;6&#45;&gt;4 -->
<g id="edge59" class="edge">
<title>&#45;6&#45;&gt;4</title>
<path fill="none" stroke="red" stroke-width="0.34" d="M737.97,-84.25C725.19,-72.56 701.12,-50.54 684.07,-34.94"/>
<polygon fill="red" stroke="red" stroke-width="0.34" points="686.09,-32.04 676.35,-27.87 681.36,-37.2 686.09,-32.04"/>
</g>
<!-- &#45;7 -->
<g id="node7" class="node">
<title>&#45;7</title>
<polygon fill="lightgray" stroke="black" points="1129.75,-102.28 1103.75,-102.28 1103.75,-84.28 1129.75,-84.28 1129.75,-102.28"/>
<text text-anchor="middle" x="1116.75" y="-91.08" font-family="Times,serif" font-size="9.00">&#45;7</text>
</g>
<!-- &#45;7&#45;&gt;1 -->
<g id="edge96" class="edge">
<title>&#45;7&#45;&gt;1</title>
<path fill="none" stroke="red" stroke-width="0.65" d="M1110.06,-84.25C1105.06,-78.84 1097.74,-72.07 1089.75,-68.53 960.95,-11.38 911.35,-67.1 774.75,-32.53 770.13,-31.36 765.32,-29.75 760.74,-28.02"/>
<polygon fill="red" stroke="red" stroke-width="0.65" points="761.82,-24.68 751.24,-24.15 759.18,-31.17 761.82,-24.68"/>
</g>
<!-- &#45;7&#45;&gt;2 -->
<g id="edge64" class="edge">
<title>&#45;7&#45;&gt;2</title>
<path fill="none" stroke="green" stroke-width="0.56" d="M1109.56,-83.94C1104.54,-78.68 1097.4,-72.21 1089.75,-68.53 1000.06,-25.4 879.1,-18.22 826.27,-17.25"/>
<polygon fill="green" stroke="green" stroke-width="0.56" points="826.11,-13.75 816.07,-17.13 826.03,-20.75 826.11,-13.75"/>
</g>
<!-- &#45;7&#45;&gt;4 -->
<g id="edge45" class="edge">
<title>&#45;7&#45;&gt;4</title>
<path fill="none" stroke="green" stroke-width="0.32" d="M1103.74,-85.93C1091.81,-80.39 1073.51,-72.64 1056.75,-68.53 907.02,-31.82 862.56,-64.51 711.75,-32.53 704.42,-30.97 696.62,-28.7 689.52,-26.38"/>
<polygon fill="green" stroke="green" stroke-width="0.32" points="690.36,-22.97 679.77,-23.03 688.09,-29.59 690.36,-22.97"/>
</g>
<!-- &#45;8 -->
<g id="node8" class="node">
<title>&#45;8</title>
<polygon fill="lightgray" stroke="black" points="803.75,-102.28 777.75,-102.28 777.75,-84.28 803.75,-84.28 803.75,-102.28"/>
<text text-anchor="middle" x="790.75" y="-91.08" font-family="Times,serif" font-size="9.00">&#45;8</text>
</g>
<!-- &#45;8&#45;&gt;0 -->
<g id="edge73" class="edge">
<title>&#45;8&#45;&gt;0</title>
<path fill="none" stroke="red" stroke-width="0.53" d="M785.21,-83.9C781.27,-78.63 775.48,-72.15 768.75,-68.53 682.67,-22.17 643.66,-65.83 551.75,-32.53 550.5,-32.08 549.25,-31.56 548,-31.01"/>
<polygon fill="red" stroke="red" stroke-width="0.53" points="549.26,-27.72 538.78,-26.17 546.01,-33.92 549.26,-27.72"/>
</g>
<!-- &#45;8&#45;&gt;1 -->
<g id="edge6" class="edge">
<title>&#45;8&#45;&gt;1</title>
<path fill="none" stroke="green" stroke-width="0.28" d="M784.97,-84.25C777.15,-73.38 762.9,-53.59 751.91,-38.33"/>
<polygon fill="green" stroke="green" stroke-width="0.28" points="754.58,-36.04 745.89,-29.97 748.9,-40.13 754.58,-36.04"/>
</g>
<!-- &#45;8&#45;&gt;2 -->
<g id="edge33" class="edge">
<title>&#45;8&#45;&gt;2</title>
<path fill="none" stroke="green" stroke-width="0.87" d="M791.71,-84.25C792.9,-74.33 794.98,-56.99 796.73,-42.44"/>
<polygon fill="green" stroke="green" stroke-width="0.87" points="800.21,-42.83 797.92,-32.48 793.26,-41.99 800.21,-42.83"/>
</g>
<!-- &#45;8&#45;&gt;3 -->
<g id="edge63" class="edge">
<title>&#45;8&#45;&gt;3</title>
<path fill="none" stroke="red" stroke-width="0.2" d="M785.09,-84.11C781.1,-78.93 775.3,-72.47 768.75,-68.53 761.51,-64.16 652.75,-36.42 602.21,-23.66"/>
<polygon fill="red" stroke="red" stroke-width="0.2" points="602.92,-20.23 592.37,-21.18 601.21,-27.02 602.92,-20.23"/>
</g>
<!-- &#45;8&#45;&gt;4 -->
<g id="edge95" class="edge">
<title>&#45;8&#45;&gt;4</title>
<path fill="none" stroke="green" stroke-width="0.21" stroke-dasharray="1,5" d="M784.45,-84.08C780.36,-79.14 774.7,-72.96 768.75,-68.53 743.95,-50.03 711.45,-35.27 689.43,-26.42"/>
<polygon fill="green" stroke="green" stroke-width="0.21" points="690.42,-23.05 679.83,-22.67 687.87,-29.57 690.42,-23.05"/>
</g>
<!-- &#45;9 -->
<g id="node9" class="node">
<title>&#45;9</title>
<polygon fill="lightgray" stroke="black" points="997.75,-102.28 971.75,-102.28 971.75,-84.28 997.75,-84.28 997.75,-102.28"/>
<text text-anchor="middle" x="984.75" y="-91.08" font-family="Times,serif" font-size="9.00">&#45;9</text>
</g>
<!-- &#45;9&#45;&gt;0 -->
<g id="edge88" class="edge">
<title>&#45;9&#45;&gt;0</title>
<path fill="none" stroke="green" stroke-width="0.61" d="M979.64,-84.2C975.73,-78.77 969.81,-71.99 962.75,-68.53 798.08,12.14 726.42,-88.31 551.75,-32.53 550.49,-32.12 549.22,-31.65 547.96,-31.13"/>
<polygon fill="green" stroke="green" stroke-width="0.61" points="549.2,-27.83 538.71,-26.39 546.01,-34.06 549.2,-27.83"/>
</g>
<!-- &#45;9&#45;&gt;1 -->
<g id="edge60" class="edge">
<title>&#45;9&#45;&gt;1</title>
<path fill="none" stroke="red" stroke-width="0.75" d="M979.18,-83.96C975.22,-78.71 969.43,-72.23 962.75,-68.53 888.35,-27.26 856.38,-56.49 774.75,-32.53 770.17,-31.18 765.39,-29.5 760.82,-27.74"/>
<polygon fill="red" stroke="red" stroke-width="0.75" points="761.9,-24.4 751.31,-23.88 759.26,-30.89 761.9,-24.4"/>
</g>
<!-- &#45;9&#45;&gt;2 -->
<g id="edge48" class="edge">
<title>&#45;9&#45;&gt;2</title>
<path fill="none" stroke="red" stroke-width="0.64" d="M979.04,-84.21C975.01,-79.06 969.21,-72.61 962.75,-68.53 919.09,-40.9 859.4,-27.14 825.69,-21.16"/>
<polygon fill="red" stroke="red" stroke-width="0.64" points="826.16,-17.69 815.71,-19.49 825,-24.59 826.16,-17.69"/>
</g>
<!-- &#45;9&#45;&gt;4 -->
<g id="edge67" class="edge">
<title>&#45;9&#45;&gt;4</title>
<path fill="none" stroke="green" stroke-width="0.27" d="M979.24,-83.85C975.3,-78.56 969.52,-72.08 962.75,-68.53 862.95,-16.18 821.52,-58.03 711.75,-32.53 704.45,-30.83 696.66,-28.52 689.56,-26.2"/>
<polygon fill="green" stroke="green" stroke-width="0.27" points="690.4,-22.79 679.8,-22.88 688.14,-29.42 690.4,-22.79"/>
</g>
<!-- &#45;10 -->
<g id="node10" class="node">
<title>&#45;10</title>
<polygon fill="lightgray" stroke="black" points="853.75,-102.28 821.75,-102.28 821.75,-84.28 853.75,-84.28 853.75,-102.28"/>
<text text-anchor="middle" x="837.75" y="-91.08" font-family="Times,serif" font-size="9.00">&#45;10</text>
</g>
<!-- &#45;10&#45;&gt;0 -->
<g id="edge34" class="edge">
<title>&#45;10&#45;&gt;0</title>
<path fill="none" stroke="red" stroke-width="0.55" d="M831.26,-83.84C826.68,-78.54 820.09,-72.06 812.75,-68.53 707.23,-17.76 662.38,-70.91 551.75,-32.53 550.5,-32.09 549.24,-31.59 547.99,-31.05"/>
<polygon fill="red" stroke="red" stroke-width="0.55" points="549.24,-27.76 538.75,-26.25 546.01,-33.97 549.24,-27.76"/>
</g>
<!-- &#45;10&#45;&gt;1 -->
<g id="edge65" class="edge">
<title>&#45;10&#45;&gt;1</title>
<path fill="none" stroke="red" stroke-width="0.4" stroke-dasharray="1,5" d="M829.73,-84C824.97,-79.26 818.72,-73.32 812.75,-68.53 795.59,-54.75 774.79,-40.89 759.29,-31.07"/>
<polygon fill="red" stroke="red" stroke-width="0.4" points="760.74,-27.85 750.4,-25.51 757.02,-33.78 760.74,-27.85"/>
</g>
<!-- &#45;10&#45;&gt;2 -->
<g id="edge74" class="edge">
<title>&#45;10&#45;&gt;2</title>
<path fill="none" stroke="red" stroke-width="0.24" d="M833.68,-84.25C828.4,-73.83 818.98,-55.22 811.39,-40.25"/>
<polygon fill="red" stroke="red" stroke-width="0.24" points="814.38,-38.4 806.74,-31.07 808.14,-41.57 814.38,-38.4"/>
</g>
<!-- &#45;10&#45;&gt;3 -->
<g id="edge9" class="edge">
<title>&#45;10&#45;&gt;3</title>
<path fill="none" stroke="red" stroke-width="0.1" d="M831.17,-84C826.57,-78.77 819.96,-72.3 812.75,-68.53 743.18,-32.09 716.37,-49.78 639.75,-32.53 627.39,-29.75 613.72,-26.46 602.29,-23.65"/>
<polygon fill="red" stroke="red" stroke-width="0.1" points="603.06,-20.24 592.51,-21.23 601.38,-27.03 603.06,-20.24"/>
</g>
<!-- &#45;10&#45;&gt;4 -->
<g id="edge57" class="edge">
<title>&#45;10&#45;&gt;4</title>
<path fill="none" stroke="green" stroke-width="0.21" d="M830.59,-83.85C825.94,-78.82 819.5,-72.63 812.75,-68.53 807.3,-65.21 730.31,-39.21 689.59,-25.56"/>
<polygon fill="green" stroke="green" stroke-width="0.21" points="690.45,-22.16 679.85,-22.3 688.23,-28.8 690.45,-22.16"/>
</g>
<!-- &#45;11 -->
<g id="node11" class="node">
<title>&#45;11</title>
<polygon fill="lightgray" stroke="black" points="721.75,-172.02 689.75,-172.02 689.75,-154.02 721.75,-154.02 721.75,-172.02"/>
<text text-anchor="middle" x="705.75" y="-160.82" font-family="Times,serif" font-size="9.00">&#45;11</text>
</g>
<!-- &#45;11&#45;&gt;0 -->
<g id="edge76" class="edge">
<title>&#45;11&#45;&gt;0</title>
<path fill="none" stroke="green" stroke-width="0.19" stroke-dasharray="1,5" d="M689.6,-162.13C597.65,-162.53 142.91,-162.3 101.75,-118.02 86.77,-101.91 87.16,-84.99 101.75,-68.53 128.25,-38.63 410.62,-22.74 499.27,-18.46"/>
<polygon fill="green" stroke="green" stroke-width="0.19" points="499.5,-21.95 509.32,-17.99 499.17,-14.96 499.5,-21.95"/>
</g>
<!-- &#45;11&#45;&gt;1 -->
<g id="edge46" class="edge">
<title>&#45;11&#45;&gt;1</title>
<path fill="none" stroke="red" stroke-width="0.2" d="M721.93,-161.23C787.91,-157.84 1034.25,-143.52 1056.75,-118.02 1071.3,-101.53 1071.29,-85.04 1056.75,-68.53 1015,-21.11 835.89,-48.43 774.75,-32.53 770.13,-31.33 765.33,-29.71 760.75,-27.97"/>
<polygon fill="red" stroke="red" stroke-width="0.2" points="761.83,-24.63 751.25,-24.1 759.19,-31.12 761.83,-24.63"/>
</g>
<!-- &#45;11&#45;&gt;2 -->
<g id="edge18" class="edge">
<title>&#45;11&#45;&gt;2</title>
<path fill="none" stroke="red" stroke-width="0.2" stroke-dasharray="1,5" d="M722.01,-161.63C797.37,-159.65 1110.25,-149.56 1138.75,-118.02 1228.33,-18.88 920.6,-15.48 826.35,-16.69"/>
<polygon fill="red" stroke="red" stroke-width="0.2" points="826.14,-13.2 816.19,-16.85 826.25,-20.2 826.14,-13.2"/>
</g>
<!-- &#45;11&#45;&gt;3 -->
<g id="edge87" class="edge">
<title>&#45;11&#45;&gt;3</title>
<path fill="none" stroke="green" stroke-width="0.46" d="M689.73,-161.95C605.19,-161.38 213.29,-156.65 177.75,-118.02 162.85,-101.84 162.96,-84.81 177.75,-68.53 233.73,-6.88 471.53,-58.21 550.75,-32.53 552.01,-32.12 553.27,-31.64 554.53,-31.11"/>
<polygon fill="green" stroke="green" stroke-width="0.46" points="556.49,-34.04 563.78,-26.36 553.29,-27.82 556.49,-34.04"/>
</g>
<!-- &#45;11&#45;&gt;4 -->
<g id="edge58" class="edge">
<title>&#45;11&#45;&gt;4</title>
<path fill="none" stroke="green" stroke-width="0.17" d="M704.67,-153.88C702.36,-137.47 696.38,-99.36 686.75,-68.53 683.81,-59.12 679.73,-49.1 675.89,-40.43"/>
<polygon fill="green" stroke="green" stroke-width="0.17" points="679.06,-38.96 671.71,-31.33 672.7,-41.88 679.06,-38.96"/>
</g>
<!-- &#45;11&#45;&gt;396 -->
<g id="edge28" class="edge">
<title>&#45;11&#45;&gt;396</title>
<path fill="none" stroke="green" stroke-width="0.51" d="M722.21,-161.46C794.68,-158.83 1085.56,-146.64 1171.75,-118.02 1175.27,-116.86 1178.8,-115.32 1182.23,-113.6"/>
<polygon fill="green" stroke="green" stroke-width="0.51" points="1183.95,-116.64 1190.96,-108.69 1180.53,-110.54 1183.95,-116.64"/>
</g>
<!-- 473 -->
<g id="node27" class="node">
<title>473</title>
<ellipse fill="white" stroke="black" cx="24.75" cy="-93.28" rx="25" ry="25"/>
<text text-anchor="middle" x="24.75" y="-91.08" font-family="Times,serif" font-size="9.00">473</text>
</g>
<!-- &#45;11&#45;&gt;473 -->
<g id="edge44" class="edge">
<title>&#45;11&#45;&gt;473</title>
<path fill="none" stroke="green" stroke-width="0.28" d="M689.61,-161.95C602.27,-161.39 185.53,-156.72 63.75,-118.02 60.22,-116.9 56.67,-115.4 53.24,-113.69"/>
<polygon fill="green" stroke="green" stroke-width="0.28" points="54.94,-110.63 44.5,-108.81 51.53,-116.74 54.94,-110.63"/>
</g>
<!-- &#45;12 -->
<g id="node12" class="node">
<title>&#45;12</title>
<polygon fill="lightgray" stroke="black" points="903.75,-102.28 871.75,-102.28 871.75,-84.28 903.75,-84.28 903.75,-102.28"/>
<text text-anchor="middle" x="887.75" y="-91.08" font-family="Times,serif" font-size="9.00">&#45;12</text>
</g>
<!-- &#45;12&#45;&gt;0 -->
<g id="edge26" class="edge">
<title>&#45;12&#45;&gt;0</title>
<path fill="none" stroke="red" stroke-width="0.28" d="M881.68,-84.25C877.11,-78.85 870.34,-72.08 862.75,-68.53 736.71,-9.58 683.7,-76.7 551.75,-32.53 550.49,-32.11 549.23,-31.62 547.98,-31.08"/>
<polygon fill="red" stroke="red" stroke-width="0.28" points="549.22,-27.79 538.73,-26.31 546.01,-34.01 549.22,-27.79"/>
</g>
<!-- &#45;12&#45;&gt;1 -->
<g id="edge56" class="edge">
<title>&#45;12&#45;&gt;1</title>
<path fill="none" stroke="red" stroke-width="0.44" d="M880.51,-83.97C875.83,-78.99 869.39,-72.81 862.75,-68.53 860.48,-67.06 797.2,-41.55 761.2,-27.08"/>
<polygon fill="red" stroke="red" stroke-width="0.44" points="762.43,-23.8 751.84,-23.32 759.82,-30.3 762.43,-23.8"/>
</g>
<!-- &#45;12&#45;&gt;2 -->
<g id="edge85" class="edge">
<title>&#45;12&#45;&gt;2</title>
<path fill="none" stroke="green" stroke-width="0.4" d="M879.56,-84.2C874.75,-79.52 868.5,-73.59 862.75,-68.53 848.98,-56.42 832.95,-43.39 820.51,-33.5"/>
<polygon fill="green" stroke="green" stroke-width="0.4" points="822.55,-30.65 812.54,-27.2 818.21,-36.14 822.55,-30.65"/>
</g>
<!-- &#45;12&#45;&gt;3 -->
<g id="edge17" class="edge">
<title>&#45;12&#45;&gt;3</title>
<path fill="none" stroke="green" stroke-width="0.78" d="M881.23,-83.9C876.64,-78.62 870.04,-72.14 862.75,-68.53 772.79,-23.97 738.16,-52.36 639.75,-32.53 627.25,-30.01 613.47,-26.73 602,-23.85"/>
<polygon fill="green" stroke="green" stroke-width="0.78" points="602.76,-20.44 592.21,-21.36 601.04,-27.22 602.76,-20.44"/>
</g>
<!-- &#45;12&#45;&gt;4 -->
<g id="edge7" class="edge">
<title>&#45;12&#45;&gt;4</title>
<path fill="none" stroke="green" stroke-width="0.26" d="M881.14,-84.07C876.51,-78.87 869.91,-72.41 862.75,-68.53 802.1,-35.64 778.17,-51.2 711.75,-32.53 704.53,-30.5 696.77,-28.08 689.68,-25.77"/>
<polygon fill="green" stroke="green" stroke-width="0.26" points="690.49,-22.35 679.9,-22.52 688.28,-28.99 690.49,-22.35"/>
</g>
<!-- &#45;13 -->
<g id="node13" class="node">
<title>&#45;13</title>
<polygon fill="lightgray" stroke="black" points="953.75,-102.28 921.75,-102.28 921.75,-84.28 953.75,-84.28 953.75,-102.28"/>
<text text-anchor="middle" x="937.75" y="-91.08" font-family="Times,serif" font-size="9.00">&#45;13</text>
</g>
<!-- &#45;13&#45;&gt;0 -->
<g id="edge72" class="edge">
<title>&#45;13&#45;&gt;0</title>
<path fill="none" stroke="red" stroke-width="0.18" stroke-dasharray="1,5" d="M931.69,-84.22C927.13,-78.79 920.37,-72.02 912.75,-68.53 766.16,-1.37 705.05,-82.5 551.75,-32.53 550.49,-32.12 549.22,-31.64 547.97,-31.11"/>
<polygon fill="red" stroke="red" stroke-width="0.18" points="549.21,-27.81 538.72,-26.35 546.01,-34.04 549.21,-27.81"/>
</g>
<!-- &#45;13&#45;&gt;1 -->
<g id="edge41" class="edge">
<title>&#45;13&#45;&gt;1</title>
<path fill="none" stroke="red" stroke-width="0.53" d="M931.11,-84.12C926.48,-78.94 919.86,-72.48 912.75,-68.53 857.35,-37.72 834.95,-52.38 774.75,-32.53 770.22,-31.03 765.46,-29.28 760.89,-27.49"/>
<polygon fill="red" stroke="red" stroke-width="0.53" points="761.97,-24.15 751.39,-23.65 759.34,-30.64 761.97,-24.15"/>
</g>
<!-- &#45;13&#45;&gt;2 -->
<g id="edge32" class="edge">
<title>&#45;13&#45;&gt;2</title>
<path fill="none" stroke="green" stroke-width="0.65" d="M930.45,-84.07C925.74,-79.12 919.3,-72.94 912.75,-68.53 884.73,-49.66 848.65,-34.67 824.88,-25.89"/>
<polygon fill="green" stroke="green" stroke-width="0.65" points="825.8,-22.5 815.21,-22.41 823.43,-29.09 825.8,-22.5"/>
</g>
<!-- &#45;13&#45;&gt;3 -->
<g id="edge5" class="edge">
<title>&#45;13&#45;&gt;3</title>
<path fill="none" stroke="green" stroke-width="0.17" d="M931.26,-83.83C926.69,-78.52 920.1,-72.03 912.75,-68.53 802.31,-15.8 760.06,-54.97 639.75,-32.53 627.21,-30.19 613.43,-26.93 601.96,-24.02"/>
<polygon fill="green" stroke="green" stroke-width="0.17" points="602.74,-20.61 592.18,-21.49 600.99,-27.39 602.74,-20.61"/>
</g>
<!-- &#45;13&#45;&gt;4 -->
<g id="edge93" class="edge">
<title>&#45;13&#45;&gt;4</title>
<path fill="none" stroke="red" stroke-width="0.53" d="M931.21,-83.94C926.61,-78.68 920.01,-72.2 912.75,-68.53 831.77,-27.55 799.78,-54.59 711.75,-32.53 704.48,-30.7 696.7,-28.35 689.6,-26.04"/>
<polygon fill="red" stroke="red" stroke-width="0.53" points="690.43,-22.62 679.84,-22.75 688.2,-29.26 690.43,-22.62"/>
</g>
<!-- &#45;14 -->
<g id="node14" class="node">
<title>&#45;14</title>
<polygon fill="lightgray" stroke="black" points="395.75,-102.28 363.75,-102.28 363.75,-84.28 395.75,-84.28 395.75,-102.28"/>
<text text-anchor="middle" x="379.75" y="-91.08" font-family="Times,serif" font-size="9.00">&#45;14</text>
</g>
<!-- &#45;14&#45;&gt;0 -->
<g id="edge16" class="edge">
<title>&#45;14&#45;&gt;0</title>
<path fill="none" stroke="red" stroke-width="0.13" d="M387.01,-84.01C391.7,-79.04 398.14,-72.86 404.75,-68.53 435.44,-48.41 475.33,-33.34 500.74,-24.91"/>
<polygon fill="red" stroke="red" stroke-width="0.13" points="501.92,-28.21 510.36,-21.81 499.77,-21.54 501.92,-28.21"/>
</g>
<!-- &#45;14&#45;&gt;1 -->
<g id="edge43" class="edge">
<title>&#45;14&#45;&gt;1</title>
<path fill="none" stroke="red" stroke-width="0.22" d="M386.23,-83.81C390.8,-78.5 397.39,-72.01 404.75,-68.53 520.11,-13.83 565.15,-60.37 689.75,-32.53 697.06,-30.89 704.86,-28.6 711.95,-26.28"/>
<polygon fill="red" stroke="red" stroke-width="0.22" points="713.38,-29.49 721.71,-22.95 711.12,-22.87 713.38,-29.49"/>
</g>
<!-- &#45;14&#45;&gt;2 -->
<g id="edge54" class="edge">
<title>&#45;14&#45;&gt;2</title>
<path fill="none" stroke="red" stroke-width="0.31" d="M385.8,-84.22C390.37,-78.8 397.13,-72.02 404.75,-68.53 549.69,-2.03 606.89,-70.62 761.75,-32.53 766.38,-31.39 771.19,-29.8 775.77,-28.07"/>
<polygon fill="red" stroke="red" stroke-width="0.31" points="777.33,-31.22 785.27,-24.2 774.69,-24.73 777.33,-31.22"/>
</g>
<!-- &#45;14&#45;&gt;3 -->
<g id="edge83" class="edge">
<title>&#45;14&#45;&gt;3</title>
<path fill="none" stroke="red" stroke-width="0.45" d="M386.37,-84.09C391,-78.89 397.61,-72.44 404.75,-68.53 463.38,-36.44 488.84,-57.71 550.75,-32.53 551.98,-32.03 553.21,-31.48 554.45,-30.89"/>
<polygon fill="red" stroke="red" stroke-width="0.45" points="556.48,-33.77 563.63,-25.96 553.17,-27.61 556.48,-33.77"/>
</g>
<!-- &#45;14&#45;&gt;4 -->
<g id="edge94" class="edge">
<title>&#45;14&#45;&gt;4</title>
<path fill="none" stroke="green" stroke-width="0.32" d="M386.29,-83.94C390.89,-78.69 397.49,-72.22 404.75,-68.53 484.09,-28.2 514.68,-51.01 601.75,-32.53 614.22,-29.88 628,-26.58 639.48,-23.73"/>
<polygon fill="green" stroke="green" stroke-width="0.32" points="640.42,-27.11 649.27,-21.27 638.72,-20.32 640.42,-27.11"/>
</g>
<!-- &#45;15 -->
<g id="node15" class="node">
<title>&#45;15</title>
<polygon fill="lightgray" stroke="black" points="445.75,-102.28 413.75,-102.28 413.75,-84.28 445.75,-84.28 445.75,-102.28"/>
<text text-anchor="middle" x="429.75" y="-91.08" font-family="Times,serif" font-size="9.00">&#45;15</text>
</g>
<!-- &#45;15&#45;&gt;0 -->
<g id="edge62" class="edge">
<title>&#45;15&#45;&gt;0</title>
<path fill="none" stroke="green" stroke-width="0.17" stroke-dasharray="1,5" d="M437.83,-84.07C442.6,-79.36 448.85,-73.42 454.75,-68.53 470.74,-55.26 489.89,-41.55 504.26,-31.65"/>
<polygon fill="green" stroke="green" stroke-width="0.17" points="506.24,-34.54 512.53,-26.02 502.3,-28.76 506.24,-34.54"/>
</g>
<!-- &#45;15&#45;&gt;1 -->
<g id="edge31" class="edge">
<title>&#45;15&#45;&gt;1</title>
<path fill="none" stroke="red" stroke-width="0.14" d="M436.26,-83.88C440.84,-78.59 447.44,-72.11 454.75,-68.53 549.62,-22.01 586.94,-56.93 689.75,-32.53 697.04,-30.8 704.83,-28.47 711.92,-26.16"/>
<polygon fill="red" stroke="red" stroke-width="0.14" points="713.34,-29.37 721.69,-22.84 711.09,-22.74 713.34,-29.37"/>
</g>
<!-- &#45;15&#45;&gt;2 -->
<g id="edge3" class="edge">
<title>&#45;15&#45;&gt;2</title>
<path fill="none" stroke="red" stroke-width="0.17" d="M435.82,-84.26C440.39,-78.85 447.16,-72.08 454.75,-68.53 579.15,-10.23 628.62,-66.43 761.75,-32.53 766.37,-31.35 771.18,-29.74 775.76,-28.01"/>
<polygon fill="red" stroke="red" stroke-width="0.17" points="777.32,-31.15 785.26,-24.14 774.67,-24.67 777.32,-31.15"/>
</g>
<!-- &#45;15&#45;&gt;3 -->
<g id="edge71" class="edge">
<title>&#45;15&#45;&gt;3</title>
<path fill="none" stroke="red" stroke-width="0.19" stroke-dasharray="1,5" d="M436.95,-83.91C441.61,-78.9 448.05,-72.72 454.75,-68.53 493.37,-44.35 509.61,-52.13 550.75,-32.53 551.92,-31.97 553.1,-31.38 554.29,-30.76"/>
<polygon fill="red" stroke="red" stroke-width="0.19" points="556.19,-33.71 563.23,-25.8 552.78,-27.6 556.19,-33.71"/>
</g>
<!-- &#45;15&#45;&gt;4 -->
<g id="edge81" class="edge">
<title>&#45;15&#45;&gt;4</title>
<path fill="none" stroke="green" stroke-width="0.34" d="M436.37,-84.08C440.99,-78.89 447.6,-72.43 454.75,-68.53 455.78,-67.96 583.51,-36.96 639.23,-23.45"/>
<polygon fill="green" stroke="green" stroke-width="0.34" points="640.16,-26.82 649.06,-21.07 638.51,-20.02 640.16,-26.82"/>
</g>
<!-- &#45;16 -->
<g id="node16" class="node">
<title>&#45;16</title>
<polygon fill="lightgray" stroke="black" points="345.75,-102.28 313.75,-102.28 313.75,-84.28 345.75,-84.28 345.75,-102.28"/>
<text text-anchor="middle" x="329.75" y="-91.08" font-family="Times,serif" font-size="9.00">&#45;16</text>
</g>
<!-- &#45;16&#45;&gt;0 -->
<g id="edge11" class="edge">
<title>&#45;16&#45;&gt;0</title>
<path fill="none" stroke="green" stroke-width="0.13" d="M336.44,-84.21C341.09,-79.06 347.71,-72.61 354.75,-68.53 401.89,-41.19 464.93,-27.22 499.8,-21.16"/>
<polygon fill="green" stroke="green" stroke-width="0.13" points="500.38,-24.61 509.67,-19.52 499.23,-17.7 500.38,-24.61"/>
</g>
<!-- &#45;16&#45;&gt;1 -->
<g id="edge37" class="edge">
<title>&#45;16&#45;&gt;1</title>
<path fill="none" stroke="green" stroke-width="0.58" d="M335.81,-84.23C340.38,-78.82 347.14,-72.05 354.75,-68.53 490.65,-5.64 543.31,-63.82 689.75,-32.53 697.08,-30.96 704.88,-28.69 711.97,-26.37"/>
<polygon fill="green" stroke="green" stroke-width="0.58" points="713.4,-29.58 721.73,-23.02 711.13,-22.96 713.4,-29.58"/>
</g>
<!-- &#45;16&#45;&gt;3 -->
<g id="edge2" class="edge">
<title>&#45;16&#45;&gt;3</title>
<path fill="none" stroke="green" stroke-width="0.54" d="M336.3,-83.95C340.89,-78.69 347.49,-72.22 354.75,-68.53 433.69,-28.36 467.74,-63.42 550.75,-32.53 551.99,-32.06 553.24,-31.54 554.49,-30.98"/>
<polygon fill="green" stroke="green" stroke-width="0.54" points="556.49,-33.88 563.7,-26.12 553.22,-27.69 556.49,-33.88"/>
</g>
<!-- &#45;16&#45;&gt;4 -->
<g id="edge30" class="edge">
<title>&#45;16&#45;&gt;4</title>
<path fill="none" stroke="green" stroke-width="0.31" d="M336.25,-83.86C340.83,-78.56 347.43,-72.08 354.75,-68.53 454.53,-20.05 492.83,-53.61 601.75,-32.53 614.27,-30.1 628.05,-26.83 639.52,-23.94"/>
<polygon fill="green" stroke="green" stroke-width="0.31" points="640.49,-27.31 649.3,-21.43 638.75,-20.53 640.49,-27.31"/>
</g>
<!-- &#45;17 -->
<g id="node17" class="node">
<title>&#45;17</title>
<polygon fill="lightgray" stroke="black" points="495.75,-102.28 463.75,-102.28 463.75,-84.28 495.75,-84.28 495.75,-102.28"/>
<text text-anchor="middle" x="479.75" y="-91.08" font-family="Times,serif" font-size="9.00">&#45;17</text>
</g>
<!-- &#45;17&#45;&gt;0 -->
<g id="edge25" class="edge">
<title>&#45;17&#45;&gt;0</title>
<path fill="none" stroke="red" stroke-width="0.59" d="M484.67,-84.25C491.2,-73.61 502.97,-54.41 512.24,-39.29"/>
<polygon fill="red" stroke="red" stroke-width="0.59" points="515.38,-40.87 517.62,-30.51 509.41,-37.21 515.38,-40.87"/>
</g>
<!-- &#45;17&#45;&gt;1 -->
<g id="edge75" class="edge">
<title>&#45;17&#45;&gt;1</title>
<path fill="none" stroke="red" stroke-width="0.48" d="M486.31,-83.97C490.91,-78.73 497.51,-72.26 504.75,-68.53 579.2,-30.15 608.65,-53.5 689.75,-32.53 697,-30.65 704.78,-28.28 711.88,-25.97"/>
<polygon fill="red" stroke="red" stroke-width="0.48" points="713.28,-29.19 721.65,-22.69 711.05,-22.55 713.28,-29.19"/>
</g>
<!-- &#45;17&#45;&gt;2 -->
<g id="edge84" class="edge">
<title>&#45;17&#45;&gt;2</title>
<path fill="none" stroke="green" stroke-width="0.43" stroke-dasharray="1,5" d="M486.24,-83.84C490.82,-78.55 497.42,-72.06 504.75,-68.53 608.63,-18.42 650.3,-62.24 761.75,-32.53 766.36,-31.3 771.16,-29.67 775.73,-27.93"/>
<polygon fill="green" stroke="green" stroke-width="0.43" points="777.29,-31.07 785.23,-24.06 774.65,-24.59 777.29,-31.07"/>
</g>
<!-- &#45;17&#45;&gt;3 -->
<g id="edge55" class="edge">
<title>&#45;17&#45;&gt;3</title>
<path fill="none" stroke="green" stroke-width="0.68" d="M487.81,-84.06C492.59,-79.34 498.84,-73.4 504.75,-68.53 520.93,-55.19 540.35,-41.49 554.94,-31.61"/>
<polygon fill="green" stroke="green" stroke-width="0.68" points="556.97,-34.46 563.33,-25.99 553.07,-28.65 556.97,-34.46"/>
</g>
<!-- &#45;17&#45;&gt;4 -->
<g id="edge27" class="edge">
<title>&#45;17&#45;&gt;4</title>
<path fill="none" stroke="green" stroke-width="0.15" d="M486.46,-84.25C491.13,-79.12 497.74,-72.68 504.75,-68.53 527.8,-54.87 600.18,-34.41 639.2,-23.95"/>
<polygon fill="green" stroke="green" stroke-width="0.15" points="640.49,-27.23 649.26,-21.28 638.7,-20.46 640.49,-27.23"/>
</g>
<!-- &#45;18 -->
<g id="node18" class="node">
<title>&#45;18</title>
<polygon fill="lightgray" stroke="black" points="1047.75,-102.28 1015.75,-102.28 1015.75,-84.28 1047.75,-84.28 1047.75,-102.28"/>
<text text-anchor="middle" x="1031.75" y="-91.08" font-family="Times,serif" font-size="9.00">&#45;18</text>
</g>
<!-- &#45;18&#45;&gt;1 -->
<g id="edge4" class="edge">
<title>&#45;18&#45;&gt;1</title>
<path fill="none" stroke="red" stroke-width="0.38" d="M1025.24,-83.88C1020.65,-78.6 1014.06,-72.12 1006.75,-68.53 913.1,-22.5 875.37,-60.15 774.75,-32.53 770.15,-31.26 765.35,-29.62 760.78,-27.87"/>
<polygon fill="red" stroke="red" stroke-width="0.38" points="761.86,-24.53 751.28,-24.01 759.22,-31.02 761.86,-24.53"/>
</g>
<!-- &#45;18&#45;&gt;2 -->
<g id="edge12" class="edge">
<title>&#45;18&#45;&gt;2</title>
<path fill="none" stroke="green" stroke-width="0.31" d="M1025.13,-84.09C1020.5,-78.9 1013.89,-72.44 1006.75,-68.53 947.29,-35.95 866.97,-23.75 826.06,-19.44"/>
<polygon fill="green" stroke="green" stroke-width="0.31" points="826.37,-15.95 816.08,-18.47 825.69,-22.92 826.37,-15.95"/>
</g>
<!-- &#45;18&#45;&gt;3 -->
<g id="edge40" class="edge">
<title>&#45;18&#45;&gt;3</title>
<path fill="none" stroke="red" stroke-width="0.19" d="M1025.7,-84.21C1021.13,-78.79 1014.37,-72.01 1006.75,-68.53 857.69,-0.39 801.34,-59.89 639.75,-32.53 627.18,-30.4 613.39,-27.16 601.93,-24.22"/>
<polygon fill="red" stroke="red" stroke-width="0.19" points="602.72,-20.81 592.16,-21.64 600.93,-27.58 602.72,-20.81"/>
</g>
<!-- &#45;18&#45;&gt;4 -->
<g id="edge91" class="edge">
<title>&#45;18&#45;&gt;4</title>
<path fill="none" stroke="green" stroke-width="0.17" d="M1025.67,-84.27C1021.1,-78.87 1014.33,-72.1 1006.75,-68.53 887.28,-12.2 840.71,-61.06 711.75,-32.53 704.43,-30.91 696.64,-28.62 689.54,-26.3"/>
<polygon fill="green" stroke="green" stroke-width="0.17" points="690.38,-22.89 679.78,-22.97 688.11,-29.51 690.38,-22.89"/>
</g>
<!-- &#45;19 -->
<g id="node19" class="node">
<title>&#45;19</title>
<polygon fill="lightgray" stroke="black" points="545.75,-102.28 513.75,-102.28 513.75,-84.28 545.75,-84.28 545.75,-102.28"/>
<text text-anchor="middle" x="529.75" y="-91.08" font-family="Times,serif" font-size="9.00">&#45;19</text>
</g>
<!-- &#45;19&#45;&gt;0 -->
<g id="edge15" class="edge">
<title>&#45;19&#45;&gt;0</title>
<path fill="none" stroke="green" stroke-width="0.17" stroke-dasharray="1,5" d="M529.32,-84.25C528.8,-74.49 527.9,-57.54 527.13,-43.13"/>
<polygon fill="green" stroke="green" stroke-width="0.17" points="530.6,-42.57 526.58,-32.77 523.61,-42.94 530.6,-42.57"/>
</g>
<!-- &#45;19&#45;&gt;1 -->
<g id="edge82" class="edge">
<title>&#45;19&#45;&gt;1</title>
<path fill="none" stroke="red" stroke-width="0.16" d="M536.4,-84.13C541.03,-78.96 547.64,-72.5 554.75,-68.53 608.94,-38.2 630.2,-50.12 689.75,-32.53 696.94,-30.4 704.69,-27.95 711.79,-25.64"/>
<polygon fill="red" stroke="red" stroke-width="0.16" points="713.17,-28.87 721.57,-22.42 710.98,-22.22 713.17,-28.87"/>
</g>
<!-- &#45;19&#45;&gt;2 -->
<g id="edge53" class="edge">
<title>&#45;19&#45;&gt;2</title>
<path fill="none" stroke="green" stroke-width="0.36" d="M536.28,-83.92C540.87,-78.66 547.48,-72.18 554.75,-68.53 638.17,-26.57 671.93,-58.07 761.75,-32.53 766.33,-31.22 771.13,-29.55 775.7,-27.8"/>
<polygon fill="green" stroke="green" stroke-width="0.36" points="777.25,-30.95 785.2,-23.94 774.62,-24.46 777.25,-30.95"/>
</g>
<!-- &#45;19&#45;&gt;3 -->
<g id="edge24" class="edge">
<title>&#45;19&#45;&gt;3</title>
<path fill="none" stroke="red" stroke-width="0.2" d="M534.78,-84.25C541.45,-73.61 553.47,-54.41 562.95,-39.29"/>
<polygon fill="red" stroke="red" stroke-width="0.2" points="566.1,-40.84 568.45,-30.51 560.17,-37.13 566.1,-40.84"/>
</g>
<!-- &#45;19&#45;&gt;4 -->
<g id="edge92" class="edge">
<title>&#45;19&#45;&gt;4</title>
<path fill="none" stroke="red" stroke-width="0.46" d="M537.07,-84.09C541.77,-79.15 548.22,-72.98 554.75,-68.53 582.05,-49.93 617.18,-34.88 640.3,-26.01"/>
<polygon fill="red" stroke="red" stroke-width="0.46" points="641.57,-29.27 649.71,-22.49 639.12,-22.72 641.57,-29.27"/>
</g>
<!-- &#45;20 -->
<g id="node20" class="node">
<title>&#45;20</title>
<polygon fill="lightgray" stroke="black" points="251.75,-102.28 219.75,-102.28 219.75,-84.28 251.75,-84.28 251.75,-102.28"/>
<text text-anchor="middle" x="235.75" y="-91.08" font-family="Times,serif" font-size="9.00">&#45;20</text>
</g>
<!-- &#45;20&#45;&gt;0 -->
<g id="edge61" class="edge">
<title>&#45;20&#45;&gt;0</title>
<path fill="none" stroke="red" stroke-width="0.94" d="M242.31,-83.97C246.91,-78.72 253.51,-72.25 260.75,-68.53 340.73,-27.35 449.79,-19.1 499.33,-17.55"/>
<polygon fill="red" stroke="red" stroke-width="0.94" points="499.6,-21.05 509.51,-17.3 499.42,-14.05 499.6,-21.05"/>
</g>
<!-- &#45;20&#45;&gt;1 -->
<g id="edge90" class="edge">
<title>&#45;20&#45;&gt;1</title>
<path fill="none" stroke="red" stroke-width="0.15" d="M241.79,-84.18C246.34,-78.74 253.1,-71.96 260.75,-68.53 435.32,9.79 502.18,-70.33 689.75,-32.53 697.09,-31.05 704.9,-28.8 711.99,-26.48"/>
<polygon fill="red" stroke="red" stroke-width="0.15" points="713.43,-29.69 721.75,-23.12 711.15,-23.07 713.43,-29.69"/>
</g>
<!-- &#45;20&#45;&gt;3 -->
<g id="edge51" class="edge">
<title>&#45;20&#45;&gt;3</title>
<path fill="none" stroke="green" stroke-width="0.19" d="M241.83,-84.27C246.41,-78.88 253.17,-72.11 260.75,-68.53 378.17,-13.02 427.76,-74.27 550.75,-32.53 552,-32.1 553.26,-31.61 554.52,-31.07"/>
<polygon fill="green" stroke="green" stroke-width="0.19" points="556.49,-33.99 563.76,-26.28 553.27,-27.78 556.49,-33.99"/>
</g>
<!-- &#45;20&#45;&gt;4 -->
<g id="edge38" class="edge">
<title>&#45;20&#45;&gt;4</title>
<path fill="none" stroke="red" stroke-width="0.27" d="M241.81,-84.23C246.38,-78.81 253.14,-72.04 260.75,-68.53 399.12,-4.66 451.59,-58.53 601.75,-32.53 614.31,-30.35 628.1,-27.11 639.56,-24.18"/>
<polygon fill="red" stroke="red" stroke-width="0.27" points="640.55,-27.53 649.33,-21.6 638.77,-20.76 640.55,-27.53"/>
</g>
<!-- 396&#45;&gt;2 -->
<g id="edge52" class="edge">
<title>396&#45;&gt;2</title>
<path fill="none" stroke="green" stroke-width="0.2" d="M1190.9,-78.04C1184.98,-74.4 1178.32,-70.87 1171.75,-68.53 1048.05,-24.5 888.73,-18.02 826.41,-17.26"/>
<polygon fill="green" stroke="green" stroke-width="0.2" points="826.29,-13.75 816.26,-17.17 826.23,-20.75 826.29,-13.75"/>
</g>
<!-- 473&#45;&gt;0 -->
<g id="edge70" class="edge">
<title>473&#45;&gt;0</title>
<path fill="none" stroke="red" stroke-width="0.1" d="M44.56,-77.93C50.47,-74.29 57.15,-70.78 63.75,-68.53 145.52,-40.63 413.69,-23.54 499.26,-18.69"/>
<polygon fill="red" stroke="red" stroke-width="0.1" points="499.64,-22.18 509.43,-18.12 499.25,-15.19 499.64,-22.18"/>
</g>
</g>
</svg>
