<?xml version="1.0" encoding="UTF-8" standalone="no"?>
<!DOCTYPE svg PUBLIC "-//W3C//DTD SVG 1.1//EN"
 "http://www.w3.org/Graphics/SVG/1.1/DTD/svg11.dtd">
<!-- Generated by graphviz version 2.49.0 (20210828.1703)
 -->
<!-- Pages: 1 -->
<svg width="1835pt" height="334pt"
 viewBox="0.00 0.00 1835.47 334.05" xmlns="http://www.w3.org/2000/svg" xmlns:xlink="http://www.w3.org/1999/xlink">
<g id="graph0" class="graph" transform="scale(1 1) rotate(0) translate(4 330.05)">
<polygon fill="white" stroke="transparent" points="-4,4 -4,-330.05 1831.47,-330.05 1831.47,4 -4,4"/>
<!-- &#45;1 -->
<g id="node1" class="node">
<title>&#45;1</title>
<polygon fill="lightgray" stroke="black" points="1429.89,-256.3 1405.89,-256.3 1405.89,-238.3 1429.89,-238.3 1429.89,-256.3"/>
<text text-anchor="middle" x="1417.89" y="-245.1" font-family="Times New Roman,serif" font-size="9.00">&#45;1</text>
</g>
<!-- 101 -->
<g id="node26" class="node">
<title>101</title>
<ellipse fill="white" stroke="black" cx="846.89" cy="-86.91" rx="21.43" ry="21.43"/>
<text text-anchor="middle" x="846.89" y="-84.71" font-family="Times New Roman,serif" font-size="9.00">101</text>
</g>
<!-- &#45;1&#45;&gt;101 -->
<g id="edge1" class="edge">
<title>&#45;1&#45;&gt;101</title>
<path fill="none" stroke="red" stroke-width="0.21" stroke-dasharray="1,5" d="M1430.3,-244.5C1493.73,-235.29 1778.95,-193.54 1784.89,-186.55 1797.11,-172.19 1797.82,-157.85 1784.89,-144.12 1753.11,-110.39 1038.43,-92.25 878.46,-88.6"/>
<polygon fill="red" stroke="red" stroke-width="0.21" points="878.41,-85.1 868.33,-88.37 878.25,-92.1 878.41,-85.1"/>
</g>
<!-- 103 -->
<g id="node27" class="node">
<title>103</title>
<ellipse fill="white" stroke="black" cx="786.89" cy="-86.91" rx="21.43" ry="21.43"/>
<text text-anchor="middle" x="786.89" y="-84.71" font-family="Times New Roman,serif" font-size="9.00">103</text>
</g>
<!-- &#45;1&#45;&gt;103 -->
<g id="edge2" class="edge">
<title>&#45;1&#45;&gt;103</title>
<path fill="none" stroke="red" stroke-width="0.53" d="M1430.19,-241.85C1449.6,-234.07 1486.71,-215.97 1501.89,-186.55 1510.54,-169.79 1514.87,-157.8 1501.89,-144.12 1449.43,-88.84 889.17,-132.3 816.89,-108.12 815.21,-107.56 813.54,-106.88 811.89,-106.11"/>
<polygon fill="red" stroke="red" stroke-width="0.53" points="813.28,-102.87 802.86,-100.97 809.82,-108.96 813.28,-102.87"/>
</g>
<!-- 104 -->
<g id="node28" class="node">
<title>104</title>
<ellipse fill="white" stroke="black" cx="1417.89" cy="-165.34" rx="21.43" ry="21.43"/>
<text text-anchor="middle" x="1417.89" y="-163.14" font-family="Times New Roman,serif" font-size="9.00">104</text>
</g>
<!-- &#45;1&#45;&gt;104 -->
<g id="edge3" class="edge">
<title>&#45;1&#45;&gt;104</title>
<path fill="none" stroke="green" stroke-width="0.33" stroke-dasharray="1,5" d="M1417.89,-238.04C1417.89,-228.41 1417.89,-211.92 1417.89,-197.18"/>
<polygon fill="green" stroke="green" stroke-width="0.33" points="1421.39,-196.88 1417.89,-186.88 1414.39,-196.88 1421.39,-196.88"/>
</g>
<!-- 105 -->
<g id="node29" class="node">
<title>105</title>
<ellipse fill="white" stroke="black" cx="1183.89" cy="-165.34" rx="21.43" ry="21.43"/>
<text text-anchor="middle" x="1183.89" y="-163.14" font-family="Times New Roman,serif" font-size="9.00">105</text>
</g>
<!-- &#45;1&#45;&gt;105 -->
<g id="edge4" class="edge">
<title>&#45;1&#45;&gt;105</title>
<path fill="none" stroke="red" stroke-width="0.39" stroke-dasharray="1,5" d="M1412.58,-238.13C1408.79,-232.94 1403.26,-226.48 1396.89,-222.55 1366.28,-203.68 1265.71,-182.2 1214.48,-172.13"/>
<polygon fill="red" stroke="red" stroke-width="0.39" points="1215.12,-168.69 1204.63,-170.21 1213.78,-175.56 1215.12,-168.69"/>
</g>
<!-- 110 -->
<g id="node32" class="node">
<title>110</title>
<ellipse fill="white" stroke="black" cx="493.89" cy="-165.34" rx="21.43" ry="21.43"/>
<text text-anchor="middle" x="493.89" y="-163.14" font-family="Times New Roman,serif" font-size="9.00">110</text>
</g>
<!-- &#45;1&#45;&gt;110 -->
<g id="edge5" class="edge">
<title>&#45;1&#45;&gt;110</title>
<path fill="none" stroke="green" stroke-width="0.34" d="M1413.13,-238.17C1409.45,-232.72 1403.82,-225.93 1396.89,-222.55 1356.92,-203.02 680.43,-174.03 525.38,-167.62"/>
<polygon fill="green" stroke="green" stroke-width="0.34" points="525.27,-164.11 515.13,-167.2 524.98,-171.11 525.27,-164.11"/>
</g>
<!-- 111 -->
<g id="node33" class="node">
<title>111</title>
<ellipse fill="white" stroke="black" cx="971.89" cy="-165.34" rx="21.43" ry="21.43"/>
<text text-anchor="middle" x="971.89" y="-163.14" font-family="Times New Roman,serif" font-size="9.00">111</text>
</g>
<!-- &#45;1&#45;&gt;111 -->
<g id="edge6" class="edge">
<title>&#45;1&#45;&gt;111</title>
<path fill="none" stroke="red" stroke-width="0.32" d="M1412.73,-237.86C1409.01,-232.55 1403.5,-226.07 1396.89,-222.55 1379.46,-213.27 1098.61,-180.72 1003.27,-169.88"/>
<polygon fill="red" stroke="red" stroke-width="0.32" points="1003.43,-166.37 993.1,-168.73 1002.64,-173.33 1003.43,-166.37"/>
</g>
<!-- 112 -->
<g id="node34" class="node">
<title>112</title>
<ellipse fill="white" stroke="black" cx="1319.89" cy="-165.34" rx="21.43" ry="21.43"/>
<text text-anchor="middle" x="1319.89" y="-163.14" font-family="Times New Roman,serif" font-size="9.00">112</text>
</g>
<!-- &#45;1&#45;&gt;112 -->
<g id="edge7" class="edge">
<title>&#45;1&#45;&gt;112</title>
<path fill="none" stroke="red" stroke-width="0.24" d="M1411.3,-237.98C1407.35,-233.23 1402.1,-227.29 1396.89,-222.55 1381.04,-208.11 1361.51,-193.89 1346.08,-183.36"/>
<polygon fill="red" stroke="red" stroke-width="0.24" points="1347.79,-180.29 1337.53,-177.62 1343.88,-186.1 1347.79,-180.29"/>
</g>
<!-- &#45;2 -->
<g id="node2" class="node">
<title>&#45;2</title>
<polygon fill="lightgray" stroke="black" points="647.89,-256.3 623.89,-256.3 623.89,-238.3 647.89,-238.3 647.89,-256.3"/>
<text text-anchor="middle" x="635.89" y="-245.1" font-family="Times New Roman,serif" font-size="9.00">&#45;2</text>
</g>
<!-- &#45;2&#45;&gt;101 -->
<g id="edge8" class="edge">
<title>&#45;2&#45;&gt;101</title>
<path fill="none" stroke="green" stroke-width="1.4" d="M630.69,-237.94C626.95,-232.67 621.43,-226.19 614.89,-222.55 531.77,-176.29 465.24,-259.26 403.89,-186.55 391.73,-172.14 391.15,-158.03 403.89,-144.12 466.14,-76.21 730.04,-138.84 816.89,-108.12 818.56,-107.53 820.23,-106.83 821.87,-106.04"/>
<polygon fill="green" stroke="green" stroke-width="1.4" points="823.96,-108.87 830.88,-100.85 820.47,-102.81 823.96,-108.87"/>
</g>
<!-- &#45;2&#45;&gt;103 -->
<g id="edge9" class="edge">
<title>&#45;2&#45;&gt;103</title>
<path fill="none" stroke="green" stroke-width="0.73" d="M630.7,-237.92C626.97,-232.64 621.45,-226.16 614.89,-222.55 526.55,-173.94 456.29,-263.3 390.89,-186.55 378.66,-172.2 378.53,-158.36 390.89,-144.12 438.26,-89.56 670.29,-86.56 755.46,-87.35"/>
<polygon fill="green" stroke="green" stroke-width="0.73" points="755.52,-90.85 765.56,-87.47 755.6,-83.85 755.52,-90.85"/>
</g>
<!-- &#45;2&#45;&gt;104 -->
<g id="edge10" class="edge">
<title>&#45;2&#45;&gt;104</title>
<path fill="none" stroke="green" stroke-width="0.24" d="M640.64,-238.15C644.32,-232.69 649.95,-225.9 656.89,-222.55 795.79,-155.57 1197.92,-212.7 1349.89,-186.55 1362.75,-184.34 1376.62,-180.49 1388.45,-176.75"/>
<polygon fill="green" stroke="green" stroke-width="0.24" points="1389.85,-179.97 1398.25,-173.53 1387.66,-173.32 1389.85,-179.97"/>
</g>
<!-- &#45;2&#45;&gt;105 -->
<g id="edge11" class="edge">
<title>&#45;2&#45;&gt;105</title>
<path fill="none" stroke="red" stroke-width="0.68" stroke-dasharray="1,5" d="M640.7,-238.26C644.4,-232.85 650.04,-226.08 656.89,-222.55 725.43,-187.27 925.25,-194.81 1001.89,-186.55 1054.97,-180.83 1116.72,-173.92 1152.93,-169.84"/>
<polygon fill="red" stroke="red" stroke-width="0.68" points="1153.33,-173.32 1162.88,-168.72 1152.55,-166.36 1153.33,-173.32"/>
</g>
<!-- 108 -->
<g id="node31" class="node">
<title>108</title>
<ellipse fill="white" stroke="black" cx="433.89" cy="-165.34" rx="21.43" ry="21.43"/>
<text text-anchor="middle" x="433.89" y="-163.14" font-family="Times New Roman,serif" font-size="9.00">108</text>
</g>
<!-- &#45;2&#45;&gt;108 -->
<g id="edge12" class="edge">
<title>&#45;2&#45;&gt;108</title>
<path fill="none" stroke="red" stroke-width="0.33" d="M630.61,-238.08C626.84,-232.86 621.31,-226.4 614.89,-222.55 555.73,-187.06 527.07,-214.27 463.89,-186.55 462.31,-185.86 460.72,-185.08 459.15,-184.24"/>
<polygon fill="red" stroke="red" stroke-width="0.33" points="460.79,-181.14 450.41,-179 457.18,-187.15 460.79,-181.14"/>
</g>
<!-- &#45;2&#45;&gt;110 -->
<g id="edge13" class="edge">
<title>&#45;2&#45;&gt;110</title>
<path fill="none" stroke="red" stroke-width="0.4" stroke-dasharray="1,5" d="M630.04,-237.96C626.2,-232.96 620.8,-226.78 614.89,-222.55 581.21,-198.42 566.02,-204.95 528.89,-186.55 526.15,-185.19 523.33,-183.71 520.53,-182.19"/>
<polygon fill="red" stroke="red" stroke-width="0.4" points="522.25,-179.14 511.82,-177.28 518.81,-185.24 522.25,-179.14"/>
</g>
<!-- &#45;2&#45;&gt;111 -->
<g id="edge14" class="edge">
<title>&#45;2&#45;&gt;111</title>
<path fill="none" stroke="red" stroke-width="0.23" d="M641.11,-237.95C644.85,-232.69 650.37,-226.22 656.89,-222.55 705.4,-195.31 870.81,-176.29 940.52,-169.3"/>
<polygon fill="red" stroke="red" stroke-width="0.23" points="941.24,-172.74 950.85,-168.28 940.56,-165.78 941.24,-172.74"/>
</g>
<!-- &#45;2&#45;&gt;112 -->
<g id="edge15" class="edge">
<title>&#45;2&#45;&gt;112</title>
<path fill="none" stroke="red" stroke-width="0.31" d="M640.66,-238.18C644.34,-232.73 649.97,-225.94 656.89,-222.55 768.27,-167.97 1090.85,-202.2 1213.89,-186.55 1239.49,-183.3 1268.23,-177.69 1289.31,-173.21"/>
<polygon fill="red" stroke="red" stroke-width="0.31" points="1290.26,-176.59 1299.3,-171.05 1288.78,-169.74 1290.26,-176.59"/>
</g>
<!-- &#45;3 -->
<g id="node3" class="node">
<title>&#45;3</title>
<polygon fill="lightgray" stroke="black" points="1345.89,-256.3 1321.89,-256.3 1321.89,-238.3 1345.89,-238.3 1345.89,-256.3"/>
<text text-anchor="middle" x="1333.89" y="-245.1" font-family="Times New Roman,serif" font-size="9.00">&#45;3</text>
</g>
<!-- &#45;3&#45;&gt;101 -->
<g id="edge16" class="edge">
<title>&#45;3&#45;&gt;101</title>
<path fill="none" stroke="red" stroke-width="0.26" d="M1339.13,-237.99C1342.88,-232.75 1348.4,-226.28 1354.89,-222.55 1426.41,-181.51 1484.55,-250.26 1536.89,-186.55 1548.86,-171.98 1549.67,-157.99 1536.89,-144.12 1491.73,-95.13 1007.02,-88.84 878.19,-88.03"/>
<polygon fill="red" stroke="red" stroke-width="0.26" points="878.2,-84.53 868.18,-87.97 878.16,-91.53 878.2,-84.53"/>
</g>
<!-- &#45;3&#45;&gt;103 -->
<g id="edge17" class="edge">
<title>&#45;3&#45;&gt;103</title>
<path fill="none" stroke="green" stroke-width="0.12" stroke-dasharray="1,5" d="M1339.28,-238.24C1343.1,-233.1 1348.63,-226.65 1354.89,-222.55 1398.27,-194.12 1435.4,-228.5 1465.89,-186.55 1476.98,-171.3 1478.85,-157.82 1465.89,-144.12 1416.26,-91.66 885.35,-131.13 816.89,-108.12 815.21,-107.56 813.54,-106.88 811.89,-106.1"/>
<polygon fill="green" stroke="green" stroke-width="0.12" points="813.29,-102.87 802.86,-100.96 809.82,-108.95 813.29,-102.87"/>
</g>
<!-- &#45;3&#45;&gt;104 -->
<g id="edge18" class="edge">
<title>&#45;3&#45;&gt;104</title>
<path fill="none" stroke="green" stroke-width="0.13" d="M1340.66,-238.17C1344.67,-233.48 1349.92,-227.54 1354.89,-222.55 1367.33,-210.06 1381.98,-196.9 1394.03,-186.46"/>
<polygon fill="green" stroke="green" stroke-width="0.13" points="1396.58,-188.87 1401.89,-179.7 1392.02,-183.56 1396.58,-188.87"/>
</g>
<!-- &#45;3&#45;&gt;105 -->
<g id="edge19" class="edge">
<title>&#45;3&#45;&gt;105</title>
<path fill="none" stroke="green" stroke-width="0.42" d="M1328.02,-237.99C1324.17,-233.01 1318.77,-226.82 1312.89,-222.55 1282.23,-200.25 1241.35,-184.33 1213.89,-175.25"/>
<polygon fill="green" stroke="green" stroke-width="0.42" points="1214.67,-171.83 1204.08,-172.11 1212.53,-178.49 1214.67,-171.83"/>
</g>
<!-- &#45;3&#45;&gt;108 -->
<g id="edge20" class="edge">
<title>&#45;3&#45;&gt;108</title>
<path fill="none" stroke="green" stroke-width="0.2" d="M1329.15,-238.13C1325.48,-232.66 1319.85,-225.87 1312.89,-222.55 1142.41,-141.34 643.28,-245.53 463.89,-186.55 462.21,-186 460.54,-185.32 458.89,-184.56"/>
<polygon fill="green" stroke="green" stroke-width="0.2" points="460.27,-181.32 449.85,-179.43 456.82,-187.41 460.27,-181.32"/>
</g>
<!-- &#45;3&#45;&gt;111 -->
<g id="edge21" class="edge">
<title>&#45;3&#45;&gt;111</title>
<path fill="none" stroke="red" stroke-width="0.2" d="M1328.69,-237.92C1324.96,-232.65 1319.44,-226.17 1312.89,-222.55 1285.94,-207.65 1082.83,-180.49 1003.5,-170.32"/>
<polygon fill="red" stroke="red" stroke-width="0.2" points="1003.52,-166.79 993.16,-169 1002.64,-173.74 1003.52,-166.79"/>
</g>
<!-- &#45;3&#45;&gt;112 -->
<g id="edge22" class="edge">
<title>&#45;3&#45;&gt;112</title>
<path fill="none" stroke="green" stroke-width="0.42" d="M1332.45,-238.04C1330.73,-228.25 1327.78,-211.38 1325.17,-196.46"/>
<polygon fill="green" stroke="green" stroke-width="0.42" points="1328.6,-195.8 1323.43,-186.55 1321.71,-197 1328.6,-195.8"/>
</g>
<!-- &#45;4 -->
<g id="node4" class="node">
<title>&#45;4</title>
<polygon fill="lightgray" stroke="black" points="433.89,-256.3 409.89,-256.3 409.89,-238.3 433.89,-238.3 433.89,-256.3"/>
<text text-anchor="middle" x="421.89" y="-245.1" font-family="Times New Roman,serif" font-size="9.00">&#45;4</text>
</g>
<!-- 1 -->
<g id="node22" class="node">
<title>1</title>
<ellipse fill="lightblue" stroke="black" cx="792.89" cy="-14.85" rx="14.7" ry="14.7"/>
<text text-anchor="middle" x="792.89" y="-12.65" font-family="Times New Roman,serif" font-size="9.00">1</text>
</g>
<!-- &#45;4&#45;&gt;1 -->
<g id="edge195" class="edge">
<title>&#45;4&#45;&gt;1</title>
<path fill="none" stroke="red" stroke-width="0.23" stroke-dasharray="1,5" d="M409.7,-241.37C391.25,-233.15 356.91,-214.73 342.89,-186.55 315.91,-132.32 353.06,-95.33 405.89,-65.7 468.4,-30.64 691.96,-19.48 767.64,-16.66"/>
<polygon fill="red" stroke="red" stroke-width="0.23" points="767.83,-20.16 777.7,-16.31 767.58,-13.16 767.83,-20.16"/>
</g>
<!-- &#45;4&#45;&gt;101 -->
<g id="edge23" class="edge">
<title>&#45;4&#45;&gt;101</title>
<path fill="none" stroke="green" stroke-width="0.25" d="M411.09,-238.04C388.06,-219.49 338.45,-173.85 365.89,-144.12 434.1,-70.26 721.98,-141.3 816.89,-108.12 818.56,-107.54 820.23,-106.84 821.87,-106.06"/>
<polygon fill="green" stroke="green" stroke-width="0.25" points="823.96,-108.89 830.89,-100.88 820.48,-102.82 823.96,-108.89"/>
</g>
<!-- &#45;4&#45;&gt;103 -->
<g id="edge24" class="edge">
<title>&#45;4&#45;&gt;103</title>
<path fill="none" stroke="red" stroke-width="0.2" d="M409.74,-239.98C393.48,-230.75 365.36,-211.89 353.89,-186.55 346.12,-169.37 341.45,-158.29 353.89,-144.12 380.42,-113.93 660.16,-95.19 755.37,-89.64"/>
<polygon fill="red" stroke="red" stroke-width="0.2" points="755.75,-93.13 765.53,-89.06 755.35,-86.14 755.75,-93.13"/>
</g>
<!-- &#45;4&#45;&gt;105 -->
<g id="edge25" class="edge">
<title>&#45;4&#45;&gt;105</title>
<path fill="none" stroke="red" stroke-width="0.23" stroke-dasharray="1,5" d="M426.66,-238.18C430.34,-232.73 435.97,-225.94 442.89,-222.55 554.68,-167.79 877.89,-197.42 1001.89,-186.55 1055.07,-181.89 1116.8,-174.65 1152.97,-170.21"/>
<polygon fill="red" stroke="red" stroke-width="0.23" points="1153.41,-173.69 1162.9,-168.99 1152.55,-166.74 1153.41,-173.69"/>
</g>
<!-- &#45;4&#45;&gt;108 -->
<g id="edge26" class="edge">
<title>&#45;4&#45;&gt;108</title>
<path fill="none" stroke="green" stroke-width="0.24" d="M423.13,-238.04C424.6,-228.25 427.13,-211.38 429.37,-196.46"/>
<polygon fill="green" stroke="green" stroke-width="0.24" points="432.84,-196.96 430.86,-186.55 425.91,-195.92 432.84,-196.96"/>
</g>
<!-- &#45;4&#45;&gt;110 -->
<g id="edge27" class="edge">
<title>&#45;4&#45;&gt;110</title>
<path fill="none" stroke="red" stroke-width="0.38" d="M429.25,-237.92C433.27,-233.37 438.34,-227.63 442.89,-222.55 452.74,-211.55 463.74,-199.41 472.99,-189.24"/>
<polygon fill="red" stroke="red" stroke-width="0.38" points="475.84,-191.31 479.99,-181.56 470.67,-186.6 475.84,-191.31"/>
</g>
<!-- &#45;4&#45;&gt;111 -->
<g id="edge28" class="edge">
<title>&#45;4&#45;&gt;111</title>
<path fill="none" stroke="green" stroke-width="0.52" d="M426.7,-238.27C430.41,-232.86 436.04,-226.08 442.89,-222.55 530.6,-177.3 840.54,-168.43 940.54,-166.73"/>
<polygon fill="green" stroke="green" stroke-width="0.52" points="940.67,-170.23 950.61,-166.57 940.56,-163.23 940.67,-170.23"/>
</g>
<!-- &#45;4&#45;&gt;112 -->
<g id="edge29" class="edge">
<title>&#45;4&#45;&gt;112</title>
<path fill="none" stroke="red" stroke-width="0.4" d="M426.64,-238.14C430.31,-232.67 435.94,-225.88 442.89,-222.55 520.24,-185.5 1128.72,-196.61 1213.89,-186.55 1239.52,-183.53 1268.25,-177.9 1289.33,-173.36"/>
<polygon fill="red" stroke="red" stroke-width="0.4" points="1290.29,-176.73 1299.31,-171.16 1288.79,-169.89 1290.29,-176.73"/>
</g>
<!-- &#45;5 -->
<g id="node5" class="node">
<title>&#45;5</title>
<polygon fill="lightgray" stroke="black" points="1387.89,-256.3 1363.89,-256.3 1363.89,-238.3 1387.89,-238.3 1387.89,-256.3"/>
<text text-anchor="middle" x="1375.89" y="-245.1" font-family="Times New Roman,serif" font-size="9.00">&#45;5</text>
</g>
<!-- 4 -->
<g id="node25" class="node">
<title>4</title>
<ellipse fill="lightblue" stroke="black" cx="1047.89" cy="-14.85" rx="14.7" ry="14.7"/>
<text text-anchor="middle" x="1047.89" y="-12.65" font-family="Times New Roman,serif" font-size="9.00">4</text>
</g>
<!-- &#45;5&#45;&gt;4 -->
<g id="edge194" class="edge">
<title>&#45;5&#45;&gt;4</title>
<path fill="none" stroke="green" stroke-width="0.17" d="M1381.14,-238.01C1384.89,-232.77 1390.41,-226.3 1396.89,-222.55 1466.01,-182.59 1522.41,-248.41 1572.89,-186.55 1584.81,-171.94 1579.97,-161.6 1572.89,-144.12 1554.67,-99.14 1540.47,-87.07 1496.89,-65.7 1421.24,-28.61 1156.31,-18.66 1073.1,-16.42"/>
<polygon fill="green" stroke="green" stroke-width="0.17" points="1073.11,-12.92 1063.02,-16.17 1072.93,-19.92 1073.11,-12.92"/>
</g>
<!-- &#45;5&#45;&gt;101 -->
<g id="edge30" class="edge">
<title>&#45;5&#45;&gt;101</title>
<path fill="none" stroke="green" stroke-width="0.27" d="M1381.17,-238.05C1384.93,-232.83 1390.45,-226.37 1396.89,-222.55 1458.84,-185.81 1509.98,-242.85 1554.89,-186.55 1566.65,-171.81 1567.69,-157.98 1554.89,-144.12 1508.45,-93.85 1010.09,-88.5 878.57,-87.96"/>
<polygon fill="green" stroke="green" stroke-width="0.27" points="878.37,-84.46 868.36,-87.93 878.35,-91.46 878.37,-84.46"/>
</g>
<!-- &#45;5&#45;&gt;103 -->
<g id="edge31" class="edge">
<title>&#45;5&#45;&gt;103</title>
<path fill="none" stroke="green" stroke-width="0.18" d="M1381.74,-237.95C1385.58,-232.95 1390.98,-226.77 1396.89,-222.55 1430.96,-198.25 1460.64,-221.34 1483.89,-186.55 1494.37,-170.87 1496.86,-157.81 1483.89,-144.12 1432.84,-90.25 887.26,-131.71 816.89,-108.12 815.21,-107.56 813.54,-106.88 811.89,-106.11"/>
<polygon fill="green" stroke="green" stroke-width="0.18" points="813.28,-102.87 802.86,-100.96 809.82,-108.95 813.28,-102.87"/>
</g>
<!-- &#45;5&#45;&gt;104 -->
<g id="edge32" class="edge">
<title>&#45;5&#45;&gt;104</title>
<path fill="none" stroke="green" stroke-width="0.58" stroke-dasharray="1,5" d="M1380.23,-238.04C1385.68,-227.67 1395.31,-209.34 1403.46,-193.81"/>
<polygon fill="green" stroke="green" stroke-width="0.58" points="1406.75,-195.07 1408.3,-184.59 1400.55,-191.82 1406.75,-195.07"/>
</g>
<!-- &#45;5&#45;&gt;105 -->
<g id="edge33" class="edge">
<title>&#45;5&#45;&gt;105</title>
<path fill="none" stroke="red" stroke-width="0.23" d="M1370.5,-238.25C1366.68,-233.11 1361.14,-226.67 1354.89,-222.55 1310.94,-193.62 1250.83,-178.43 1214.83,-171.42"/>
<polygon fill="red" stroke="red" stroke-width="0.23" points="1215.38,-167.96 1204.91,-169.58 1214.11,-174.84 1215.38,-167.96"/>
</g>
<!-- &#45;5&#45;&gt;108 -->
<g id="edge34" class="edge">
<title>&#45;5&#45;&gt;108</title>
<path fill="none" stroke="green" stroke-width="0.28" d="M1371.15,-238.13C1367.48,-232.65 1361.85,-225.86 1354.89,-222.55 1175.91,-137.51 652.2,-248.25 463.89,-186.55 462.21,-186 460.53,-185.33 458.88,-184.56"/>
<polygon fill="green" stroke="green" stroke-width="0.28" points="460.27,-181.32 449.85,-179.44 456.82,-187.41 460.27,-181.32"/>
</g>
<!-- &#45;5&#45;&gt;110 -->
<g id="edge35" class="edge">
<title>&#45;5&#45;&gt;110</title>
<path fill="none" stroke="green" stroke-width="0.16" d="M1371.13,-238.18C1367.44,-232.73 1361.81,-225.94 1354.89,-222.55 1316.96,-203.95 677.21,-174.48 525.82,-167.74"/>
<polygon fill="green" stroke="green" stroke-width="0.16" points="525.53,-164.22 515.39,-167.28 525.22,-171.22 525.53,-164.22"/>
</g>
<!-- &#45;5&#45;&gt;111 -->
<g id="edge36" class="edge">
<title>&#45;5&#45;&gt;111</title>
<path fill="none" stroke="red" stroke-width="0.15" d="M1370.71,-237.89C1366.99,-232.59 1361.47,-226.12 1354.89,-222.55 1324.07,-205.87 1089.23,-179.05 1003.28,-169.69"/>
<polygon fill="red" stroke="red" stroke-width="0.15" points="1003.41,-166.19 993.09,-168.59 1002.66,-173.15 1003.41,-166.19"/>
</g>
<!-- &#45;5&#45;&gt;112 -->
<g id="edge37" class="edge">
<title>&#45;5&#45;&gt;112</title>
<path fill="none" stroke="red" stroke-width="0.52" d="M1370.11,-238.04C1362.52,-227.2 1348.84,-207.68 1337.68,-191.73"/>
<polygon fill="red" stroke="red" stroke-width="0.52" points="1340.39,-189.51 1331.79,-183.33 1334.66,-193.52 1340.39,-189.51"/>
</g>
<!-- &#45;6 -->
<g id="node6" class="node">
<title>&#45;6</title>
<polygon fill="lightgray" stroke="black" points="689.89,-256.3 665.89,-256.3 665.89,-238.3 689.89,-238.3 689.89,-256.3"/>
<text text-anchor="middle" x="677.89" y="-245.1" font-family="Times New Roman,serif" font-size="9.00">&#45;6</text>
</g>
<!-- &#45;6&#45;&gt;101 -->
<g id="edge38" class="edge">
<title>&#45;6&#45;&gt;101</title>
<path fill="none" stroke="red" stroke-width="0.55" d="M683.08,-238.12C695,-219.74 725.96,-174.42 759.89,-144.12 782.24,-124.17 791.8,-124.5 816.89,-108.12 818.34,-107.18 819.82,-106.21 821.31,-105.22"/>
<polygon fill="red" stroke="red" stroke-width="0.55" points="823.44,-108.01 829.82,-99.54 819.56,-102.18 823.44,-108.01"/>
</g>
<!-- &#45;6&#45;&gt;103 -->
<g id="edge39" class="edge">
<title>&#45;6&#45;&gt;103</title>
<path fill="none" stroke="green" stroke-width="0.48" d="M672.72,-237.88C669,-232.58 663.48,-226.1 656.89,-222.55 556.9,-168.69 478.33,-272.33 403.89,-186.55 391.53,-172.31 391.56,-158.39 403.89,-144.12 449.4,-91.45 672.08,-87.22 755.37,-87.52"/>
<polygon fill="green" stroke="green" stroke-width="0.48" points="755.47,-91.02 765.49,-87.58 755.52,-84.02 755.47,-91.02"/>
</g>
<!-- &#45;6&#45;&gt;104 -->
<g id="edge40" class="edge">
<title>&#45;6&#45;&gt;104</title>
<path fill="none" stroke="red" stroke-width="0.97" d="M682.96,-238.15C686.86,-232.69 692.77,-225.9 699.89,-222.55 830.81,-161 1207.36,-211.33 1349.89,-186.55 1362.75,-184.32 1376.61,-180.47 1388.45,-176.73"/>
<polygon fill="red" stroke="red" stroke-width="0.97" points="1389.84,-179.95 1398.25,-173.51 1387.66,-173.3 1389.84,-179.95"/>
</g>
<!-- &#45;6&#45;&gt;105 -->
<g id="edge41" class="edge">
<title>&#45;6&#45;&gt;105</title>
<path fill="none" stroke="red" stroke-width="0.69" d="M683.03,-238.28C686.95,-232.88 692.88,-226.11 699.89,-222.55 704.99,-219.97 1046.3,-181.7 1152.63,-169.82"/>
<polygon fill="red" stroke="red" stroke-width="0.69" points="1153.18,-173.28 1162.73,-168.7 1152.4,-166.33 1153.18,-173.28"/>
</g>
<!-- &#45;6&#45;&gt;108 -->
<g id="edge42" class="edge">
<title>&#45;6&#45;&gt;108</title>
<path fill="none" stroke="green" stroke-width="0.53" d="M672.67,-237.97C668.92,-232.71 663.4,-226.24 656.89,-222.55 580.98,-179.53 544.64,-219.62 463.89,-186.55 462.29,-185.9 460.69,-185.15 459.11,-184.34"/>
<polygon fill="green" stroke="green" stroke-width="0.53" points="460.73,-181.23 450.34,-179.16 457.17,-187.26 460.73,-181.23"/>
</g>
<!-- &#45;6&#45;&gt;110 -->
<g id="edge43" class="edge">
<title>&#45;6&#45;&gt;110</title>
<path fill="none" stroke="green" stroke-width="0.39" d="M672.55,-238.16C668.76,-232.98 663.23,-226.53 656.89,-222.55 606.84,-191.14 583.35,-209.51 528.89,-186.55 526.16,-185.4 523.38,-184.08 520.65,-182.68"/>
<polygon fill="green" stroke="green" stroke-width="0.39" points="522.07,-179.47 511.62,-177.72 518.69,-185.6 522.07,-179.47"/>
</g>
<!-- &#45;6&#45;&gt;111 -->
<g id="edge44" class="edge">
<title>&#45;6&#45;&gt;111</title>
<path fill="none" stroke="green" stroke-width="0.37" d="M683.47,-238.01C687.44,-232.78 693.23,-226.31 699.89,-222.55 778.47,-178.21 887.49,-168.66 940.47,-166.73"/>
<polygon fill="green" stroke="green" stroke-width="0.37" points="940.7,-170.22 950.6,-166.43 940.5,-163.23 940.7,-170.22"/>
</g>
<!-- &#45;6&#45;&gt;112 -->
<g id="edge45" class="edge">
<title>&#45;6&#45;&gt;112</title>
<path fill="none" stroke="red" stroke-width="0.18" d="M682.98,-238.18C686.88,-232.73 692.8,-225.95 699.89,-222.55 803.16,-173.08 1100.34,-201.3 1213.89,-186.55 1239.48,-183.23 1268.22,-177.63 1289.31,-173.17"/>
<polygon fill="red" stroke="red" stroke-width="0.18" points="1290.25,-176.54 1299.29,-171.02 1288.78,-169.7 1290.25,-176.54"/>
</g>
<!-- &#45;7 -->
<g id="node7" class="node">
<title>&#45;7</title>
<polygon fill="lightgray" stroke="black" points="1043.89,-256.3 1019.89,-256.3 1019.89,-238.3 1043.89,-238.3 1043.89,-256.3"/>
<text text-anchor="middle" x="1031.89" y="-245.1" font-family="Times New Roman,serif" font-size="9.00">&#45;7</text>
</g>
<!-- &#45;7&#45;&gt;101 -->
<g id="edge46" class="edge">
<title>&#45;7&#45;&gt;101</title>
<path fill="none" stroke="green" stroke-width="0.95" stroke-dasharray="1,5" d="M1035.31,-238.05C1042.56,-219.13 1057.04,-172.09 1034.89,-144.12 991.52,-89.36 946.83,-133.87 881.89,-108.12 878.99,-106.97 876.03,-105.61 873.13,-104.14"/>
<polygon fill="green" stroke="green" stroke-width="0.95" points="874.64,-100.98 864.19,-99.24 871.28,-107.12 874.64,-100.98"/>
</g>
<!-- &#45;7&#45;&gt;103 -->
<g id="edge47" class="edge">
<title>&#45;7&#45;&gt;103</title>
<path fill="none" stroke="green" stroke-width="0.3" d="M1032.13,-238.22C1032.25,-218.84 1029.64,-169.39 1001.89,-144.12 939.96,-87.72 894.29,-140.17 816.89,-108.12 815.3,-107.46 813.7,-106.71 812.11,-105.9"/>
<polygon fill="green" stroke="green" stroke-width="0.3" points="813.74,-102.79 803.35,-100.71 810.18,-108.82 813.74,-102.79"/>
</g>
<!-- &#45;7&#45;&gt;104 -->
<g id="edge48" class="edge">
<title>&#45;7&#45;&gt;104</title>
<path fill="none" stroke="green" stroke-width="0.35" d="M1036.72,-238.3C1040.43,-232.9 1046.07,-226.13 1052.89,-222.55 1170.61,-160.72 1219.7,-213.59 1349.89,-186.55 1362.58,-183.92 1376.32,-180.03 1388.11,-176.38"/>
<polygon fill="green" stroke="green" stroke-width="0.35" points="1389.42,-179.63 1397.89,-173.25 1387.29,-172.96 1389.42,-179.63"/>
</g>
<!-- &#45;7&#45;&gt;105 -->
<g id="edge49" class="edge">
<title>&#45;7&#45;&gt;105</title>
<path fill="none" stroke="green" stroke-width="0.1" d="M1037.76,-237.98C1041.61,-232.99 1047,-226.81 1052.89,-222.55 1084.15,-199.95 1125.9,-184.03 1153.79,-175.04"/>
<polygon fill="green" stroke="green" stroke-width="0.1" points="1154.89,-178.36 1163.39,-172.04 1152.8,-171.68 1154.89,-178.36"/>
</g>
<!-- &#45;7&#45;&gt;108 -->
<g id="edge50" class="edge">
<title>&#45;7&#45;&gt;108</title>
<path fill="none" stroke="red" stroke-width="0.25" d="M1019.77,-242.65C1001.54,-237.32 965.88,-227.5 934.89,-222.55 727.57,-189.48 662.19,-255.49 463.89,-186.55 462.22,-185.97 460.55,-185.27 458.91,-184.49"/>
<polygon fill="red" stroke="red" stroke-width="0.25" points="460.3,-181.25 449.89,-179.31 456.82,-187.33 460.3,-181.25"/>
</g>
<!-- &#45;7&#45;&gt;110 -->
<g id="edge51" class="edge">
<title>&#45;7&#45;&gt;110</title>
<path fill="none" stroke="green" stroke-width="1.15" d="M1019.74,-242.85C1001.46,-237.78 965.75,-228.28 934.89,-222.55 782.59,-194.29 598.04,-175.79 525.42,-169.12"/>
<polygon fill="green" stroke="green" stroke-width="1.15" points="525.41,-165.6 515.14,-168.18 524.78,-172.58 525.41,-165.6"/>
</g>
<!-- &#45;7&#45;&gt;111 -->
<g id="edge52" class="edge">
<title>&#45;7&#45;&gt;111</title>
<path fill="none" stroke="green" stroke-width="0.21" d="M1025.7,-238.04C1017.46,-227.07 1002.55,-207.19 990.5,-191.14"/>
<polygon fill="green" stroke="green" stroke-width="0.21" points="992.97,-188.6 984.17,-182.7 987.37,-192.8 992.97,-188.6"/>
</g>
<!-- &#45;7&#45;&gt;112 -->
<g id="edge53" class="edge">
<title>&#45;7&#45;&gt;112</title>
<path fill="none" stroke="green" stroke-width="0.69" stroke-dasharray="1,5" d="M1037.14,-238.02C1040.9,-232.78 1046.42,-226.32 1052.89,-222.55 1063.14,-216.59 1220.78,-185.55 1288.91,-172.32"/>
<polygon fill="green" stroke="green" stroke-width="0.69" points="1289.89,-175.69 1299.04,-170.36 1288.56,-168.82 1289.89,-175.69"/>
</g>
<!-- &#45;8 -->
<g id="node8" class="node">
<title>&#45;8</title>
<polygon fill="lightgray" stroke="black" points="1085.89,-256.3 1061.89,-256.3 1061.89,-238.3 1085.89,-238.3 1085.89,-256.3"/>
<text text-anchor="middle" x="1073.89" y="-245.1" font-family="Times New Roman,serif" font-size="9.00">&#45;8</text>
</g>
<!-- &#45;8&#45;&gt;101 -->
<g id="edge54" class="edge">
<title>&#45;8&#45;&gt;101</title>
<path fill="none" stroke="green" stroke-width="0.33" d="M1081.69,-238.17C1098.67,-219.5 1135.54,-172.95 1110.89,-144.12 1077.41,-104.97 930.46,-125.3 881.89,-108.12 878.94,-107.08 875.96,-105.79 873.05,-104.37"/>
<polygon fill="green" stroke="green" stroke-width="0.33" points="874.55,-101.2 864.09,-99.52 871.22,-107.36 874.55,-101.2"/>
</g>
<!-- &#45;8&#45;&gt;103 -->
<g id="edge55" class="edge">
<title>&#45;8&#45;&gt;103</title>
<path fill="none" stroke="red" stroke-width="0.11" stroke-dasharray="1,5" d="M1072.73,-238.08C1069.46,-218.37 1058.33,-168.26 1026.89,-144.12 951.78,-86.46 904.78,-143.37 816.89,-108.12 815.29,-107.48 813.68,-106.74 812.1,-105.94"/>
<polygon fill="red" stroke="red" stroke-width="0.11" points="813.72,-102.83 803.32,-100.79 810.17,-108.87 813.72,-102.83"/>
</g>
<!-- &#45;8&#45;&gt;104 -->
<g id="edge56" class="edge">
<title>&#45;8&#45;&gt;104</title>
<path fill="none" stroke="green" stroke-width="0.22" stroke-dasharray="1,5" d="M1085.93,-243.23C1104.38,-238.55 1140.79,-229.46 1171.89,-222.55 1250.68,-205.04 1271.57,-206.07 1349.89,-186.55 1362.46,-183.42 1376.18,-179.45 1387.99,-175.86"/>
<polygon fill="green" stroke="green" stroke-width="0.22" points="1389.27,-179.12 1397.79,-172.83 1387.2,-172.44 1389.27,-179.12"/>
</g>
<!-- &#45;8&#45;&gt;105 -->
<g id="edge57" class="edge">
<title>&#45;8&#45;&gt;105</title>
<path fill="none" stroke="red" stroke-width="0.2" d="M1082.27,-238.05C1087.23,-233.32 1093.73,-227.38 1099.89,-222.55 1118.3,-208.12 1140.32,-193.47 1157.19,-182.75"/>
<polygon fill="red" stroke="red" stroke-width="0.2" points="1159.38,-185.51 1165.98,-177.22 1155.65,-179.58 1159.38,-185.51"/>
</g>
<!-- &#45;8&#45;&gt;108 -->
<g id="edge58" class="edge">
<title>&#45;8&#45;&gt;108</title>
<path fill="none" stroke="red" stroke-width="0.13" d="M1069.13,-238.17C1065.45,-232.72 1059.82,-225.93 1052.89,-222.55 935.04,-165.05 588.08,-228.67 463.89,-186.55 462.22,-185.98 460.54,-185.29 458.9,-184.52"/>
<polygon fill="red" stroke="red" stroke-width="0.13" points="460.29,-181.28 449.87,-179.37 456.82,-187.36 460.29,-181.28"/>
</g>
<!-- &#45;8&#45;&gt;110 -->
<g id="edge59" class="edge">
<title>&#45;8&#45;&gt;110</title>
<path fill="none" stroke="green" stroke-width="0.24" stroke-dasharray="1,5" d="M1069.09,-238.25C1065.39,-232.84 1059.75,-226.06 1052.89,-222.55 959.62,-174.76 629.04,-167.59 525.29,-166.52"/>
<polygon fill="green" stroke="green" stroke-width="0.24" points="525.17,-163.02 515.14,-166.43 525.11,-170.02 525.17,-163.02"/>
</g>
<!-- &#45;8&#45;&gt;111 -->
<g id="edge60" class="edge">
<title>&#45;8&#45;&gt;111</title>
<path fill="none" stroke="red" stroke-width="0.17" d="M1067.34,-237.94C1063.41,-233.17 1058.16,-227.23 1052.89,-222.55 1035.95,-207.49 1014.85,-192.96 998.43,-182.45"/>
<polygon fill="red" stroke="red" stroke-width="0.17" points="1000.18,-179.41 989.85,-177.05 996.45,-185.34 1000.18,-179.41"/>
</g>
<!-- &#45;8&#45;&gt;112 -->
<g id="edge61" class="edge">
<title>&#45;8&#45;&gt;112</title>
<path fill="none" stroke="green" stroke-width="0.1" d="M1086.09,-242.33C1123.25,-230.26 1235.81,-193.67 1290.04,-176.04"/>
<polygon fill="green" stroke="green" stroke-width="0.1" points="1291.34,-179.3 1299.77,-172.88 1289.18,-172.64 1291.34,-179.3"/>
</g>
<!-- &#45;9 -->
<g id="node9" class="node">
<title>&#45;9</title>
<polygon fill="lightgray" stroke="black" points="521.89,-326.05 497.89,-326.05 497.89,-308.05 521.89,-308.05 521.89,-326.05"/>
<text text-anchor="middle" x="509.89" y="-314.85" font-family="Times New Roman,serif" font-size="9.00">&#45;9</text>
</g>
<!-- &#45;9&#45;&gt;101 -->
<g id="edge62" class="edge">
<title>&#45;9&#45;&gt;101</title>
<path fill="none" stroke="green" stroke-width="0.35" d="M497.85,-315.9C451.87,-315.07 288.39,-309.49 256.89,-272.05 242.73,-255.21 247.41,-242.4 256.89,-222.55 280.78,-172.52 302.38,-164.62 353.89,-144.12 545.66,-67.81 621.98,-176.03 816.89,-108.12 818.56,-107.54 820.23,-106.84 821.87,-106.06"/>
<polygon fill="green" stroke="green" stroke-width="0.35" points="823.96,-108.9 830.89,-100.88 820.48,-102.83 823.96,-108.9"/>
</g>
<!-- &#45;9&#45;&gt;103 -->
<g id="edge63" class="edge">
<title>&#45;9&#45;&gt;103</title>
<path fill="none" stroke="green" stroke-width="0.26" stroke-dasharray="1,5" d="M497.49,-315.89C425.33,-314.83 61.47,-307.74 28.89,-272.05 -9.44,-230.05 -9.8,-185.79 28.89,-144.12 79,-90.17 617.96,-87.57 755.23,-87.79"/>
<polygon fill="green" stroke="green" stroke-width="0.26" points="755.47,-91.29 765.48,-87.81 755.49,-84.29 755.47,-91.29"/>
</g>
<!-- &#45;9&#45;&gt;104 -->
<g id="edge64" class="edge">
<title>&#45;9&#45;&gt;104</title>
<path fill="none" stroke="green" stroke-width="0.82" d="M522.1,-315.96C630.43,-315.1 1423.97,-307.58 1457.89,-272.05 1479.95,-248.94 1457.78,-212.47 1438.71,-188.98"/>
<polygon fill="green" stroke="green" stroke-width="0.82" points="1441.3,-186.63 1432.17,-181.25 1435.96,-191.15 1441.3,-186.63"/>
</g>
<!-- &#45;9&#45;&gt;105 -->
<g id="edge65" class="edge">
<title>&#45;9&#45;&gt;105</title>
<path fill="none" stroke="red" stroke-width="0.24" d="M521.93,-315.7C600.8,-313.35 1042.08,-299.08 1094.89,-272.05 1128.56,-254.82 1154.51,-218.72 1169.48,-193.53"/>
<polygon fill="red" stroke="red" stroke-width="0.24" points="1172.55,-195.21 1174.5,-184.8 1166.48,-191.73 1172.55,-195.21"/>
</g>
<!-- 1674 -->
<g id="node30" class="node">
<title>1674</title>
<ellipse fill="white" stroke="black" cx="290.89" cy="-247.3" rx="25" ry="25"/>
<text text-anchor="middle" x="290.89" y="-245.1" font-family="Times New Roman,serif" font-size="9.00">1674</text>
</g>
<!-- &#45;9&#45;&gt;1674 -->
<g id="edge197" class="edge">
<title>&#45;9&#45;&gt;1674</title>
<path fill="none" stroke="green" stroke-width="0.15" d="M497.7,-314.39C468.05,-310.08 390.21,-297.08 329.89,-272.05 326.47,-270.63 323,-268.93 319.6,-267.11"/>
<polygon fill="green" stroke="green" stroke-width="0.15" points="321.32,-264.07 310.91,-262.1 317.83,-270.13 321.32,-264.07"/>
</g>
<!-- &#45;9&#45;&gt;108 -->
<g id="edge66" class="edge">
<title>&#45;9&#45;&gt;108</title>
<path fill="none" stroke="red" stroke-width="0.33" stroke-dasharray="1,5" d="M497.73,-316.6C469.35,-317.15 398.82,-314.02 367.89,-272.05 354.84,-254.34 358.67,-242.52 367.89,-222.55 375.94,-205.13 392.35,-191.11 406.79,-181.43"/>
<polygon fill="red" stroke="red" stroke-width="0.33" points="408.85,-184.27 415.44,-175.98 405.11,-178.35 408.85,-184.27"/>
</g>
<!-- &#45;9&#45;&gt;110 -->
<g id="edge67" class="edge">
<title>&#45;9&#45;&gt;110</title>
<path fill="none" stroke="red" stroke-width="0.42" d="M509.03,-308C506.83,-287.36 500.88,-231.71 497.13,-196.62"/>
<polygon fill="red" stroke="red" stroke-width="0.42" points="500.58,-196.02 496.04,-186.45 493.62,-196.76 500.58,-196.02"/>
</g>
<!-- &#45;9&#45;&gt;111 -->
<g id="edge68" class="edge">
<title>&#45;9&#45;&gt;111</title>
<path fill="none" stroke="red" stroke-width="0.2" d="M521.97,-315.56C587.78,-312.81 901.57,-298.38 934.89,-272.05 957.62,-254.09 966.42,-221.24 969.82,-196.91"/>
<polygon fill="red" stroke="red" stroke-width="0.2" points="973.32,-197.08 970.99,-186.74 966.37,-196.28 973.32,-197.08"/>
</g>
<!-- &#45;9&#45;&gt;112 -->
<g id="edge69" class="edge">
<title>&#45;9&#45;&gt;112</title>
<path fill="none" stroke="red" stroke-width="0.11" d="M522.19,-315.95C629.65,-314.98 1405.7,-306.85 1438.89,-272.05 1454.08,-256.13 1450.67,-241.13 1438.89,-222.55 1428.74,-206.53 1381.7,-187.64 1349.89,-176.35"/>
<polygon fill="red" stroke="red" stroke-width="0.11" points="1350.76,-172.95 1340.17,-172.96 1348.46,-179.56 1350.76,-172.95"/>
</g>
<!-- &#45;10 -->
<g id="node10" class="node">
<title>&#45;10</title>
<polygon fill="lightgray" stroke="black" points="737.39,-256.3 708.39,-256.3 708.39,-238.3 737.39,-238.3 737.39,-256.3"/>
<text text-anchor="middle" x="722.89" y="-245.1" font-family="Times New Roman,serif" font-size="9.00">&#45;10</text>
</g>
<!-- &#45;10&#45;&gt;101 -->
<g id="edge70" class="edge">
<title>&#45;10&#45;&gt;101</title>
<path fill="none" stroke="green" stroke-width="0.33" d="M728.14,-238.09C739.58,-220.38 767.87,-177.53 794.89,-144.12 804.35,-132.43 815.61,-120.09 825.23,-109.96"/>
<polygon fill="green" stroke="green" stroke-width="0.33" points="827.8,-112.33 832.2,-102.69 822.75,-107.48 827.8,-112.33"/>
</g>
<!-- &#45;10&#45;&gt;103 -->
<g id="edge71" class="edge">
<title>&#45;10&#45;&gt;103</title>
<path fill="none" stroke="red" stroke-width="0.48" d="M715.85,-238.19C711.33,-233.28 705.14,-227.11 698.89,-222.55 670.95,-202.16 647.82,-216.13 629.89,-186.55 620.12,-170.43 618.6,-159.23 629.89,-144.12 663.74,-98.84 699.94,-130.42 751.89,-108.12 754.61,-106.96 757.39,-105.63 760.12,-104.22"/>
<polygon fill="red" stroke="red" stroke-width="0.48" points="762.08,-107.14 769.15,-99.25 758.7,-101 762.08,-107.14"/>
</g>
<!-- &#45;10&#45;&gt;104 -->
<g id="edge72" class="edge">
<title>&#45;10&#45;&gt;104</title>
<path fill="none" stroke="red" stroke-width="0.64" d="M728.59,-238.15C732.92,-232.69 739.4,-225.9 746.89,-222.55 869.47,-167.83 1217.69,-209.83 1349.89,-186.55 1362.74,-184.29 1376.61,-180.44 1388.44,-176.7"/>
<polygon fill="red" stroke="red" stroke-width="0.64" points="1389.83,-179.92 1398.24,-173.48 1387.65,-173.27 1389.83,-179.92"/>
</g>
<!-- &#45;10&#45;&gt;105 -->
<g id="edge73" class="edge">
<title>&#45;10&#45;&gt;105</title>
<path fill="none" stroke="red" stroke-width="0.24" d="M729.05,-237.84C733.4,-232.53 739.73,-226.05 746.89,-222.55 765.2,-213.62 1055.61,-180.63 1152.62,-169.8"/>
<polygon fill="red" stroke="red" stroke-width="0.24" points="1153.13,-173.27 1162.69,-168.68 1152.36,-166.31 1153.13,-173.27"/>
</g>
<!-- &#45;10&#45;&gt;108 -->
<g id="edge74" class="edge">
<title>&#45;10&#45;&gt;108</title>
<path fill="none" stroke="green" stroke-width="0.18" d="M716.71,-237.9C712.34,-232.61 706.01,-226.13 698.89,-222.55 604.5,-175.07 562.31,-225 463.89,-186.55 462.28,-185.92 460.67,-185.2 459.08,-184.4"/>
<polygon fill="green" stroke="green" stroke-width="0.18" points="460.7,-181.29 450.3,-179.27 457.17,-187.34 460.7,-181.29"/>
</g>
<!-- &#45;10&#45;&gt;110 -->
<g id="edge75" class="edge">
<title>&#45;10&#45;&gt;110</title>
<path fill="none" stroke="red" stroke-width="0.1" d="M716.57,-238.16C712.14,-232.99 705.8,-226.53 698.89,-222.55 646.22,-192.17 625.53,-202.66 566.89,-186.55 552.88,-182.7 537.37,-178.41 524.26,-174.78"/>
<polygon fill="red" stroke="red" stroke-width="0.1" points="524.91,-171.32 514.34,-172.02 523.04,-178.07 524.91,-171.32"/>
</g>
<!-- &#45;10&#45;&gt;111 -->
<g id="edge76" class="edge">
<title>&#45;10&#45;&gt;111</title>
<path fill="none" stroke="red" stroke-width="0.69" d="M729.19,-238.11C733.6,-232.92 739.94,-226.46 746.89,-222.55 809.92,-187.09 895.25,-173.72 940.57,-168.9"/>
<polygon fill="red" stroke="red" stroke-width="0.69" points="941.07,-172.36 950.67,-167.89 940.37,-165.4 941.07,-172.36"/>
</g>
<!-- &#45;10&#45;&gt;112 -->
<g id="edge77" class="edge">
<title>&#45;10&#45;&gt;112</title>
<path fill="none" stroke="red" stroke-width="0.52" d="M728.61,-238.19C732.95,-232.74 739.43,-225.96 746.89,-222.55 841.57,-179.3 1110.72,-200.32 1213.89,-186.55 1239.47,-183.14 1268.21,-177.55 1289.3,-173.11"/>
<polygon fill="red" stroke="red" stroke-width="0.52" points="1290.24,-176.49 1299.29,-170.97 1288.77,-169.64 1290.24,-176.49"/>
</g>
<!-- &#45;11 -->
<g id="node11" class="node">
<title>&#45;11</title>
<polygon fill="lightgray" stroke="black" points="878.39,-256.3 849.39,-256.3 849.39,-238.3 878.39,-238.3 878.39,-256.3"/>
<text text-anchor="middle" x="863.89" y="-245.1" font-family="Times New Roman,serif" font-size="9.00">&#45;11</text>
</g>
<!-- &#45;11&#45;&gt;101 -->
<g id="edge78" class="edge">
<title>&#45;11&#45;&gt;101</title>
<path fill="none" stroke="red" stroke-width="0.4" stroke-dasharray="1,5" d="M863.03,-238.23C860.69,-216.48 854.18,-155.81 850.18,-118.53"/>
<polygon fill="red" stroke="red" stroke-width="0.4" points="853.62,-117.8 849.07,-108.23 846.66,-118.55 853.62,-117.8"/>
</g>
<!-- &#45;11&#45;&gt;103 -->
<g id="edge79" class="edge">
<title>&#45;11&#45;&gt;103</title>
<path fill="none" stroke="green" stroke-width="0.62" d="M859.97,-238.23C849.11,-215.89 818.28,-152.48 800.32,-115.54"/>
<polygon fill="green" stroke="green" stroke-width="0.62" points="803.36,-113.78 795.84,-106.32 797.07,-116.84 803.36,-113.78"/>
</g>
<!-- &#45;11&#45;&gt;104 -->
<g id="edge80" class="edge">
<title>&#45;11&#45;&gt;104</title>
<path fill="none" stroke="green" stroke-width="0.32" d="M869.61,-238.19C873.95,-232.75 880.43,-225.96 887.89,-222.55 981.54,-179.72 1248.64,-205.33 1349.89,-186.55 1362.72,-184.17 1376.58,-180.3 1388.42,-176.58"/>
<polygon fill="green" stroke="green" stroke-width="0.32" points="1389.8,-179.81 1398.23,-173.39 1387.63,-173.15 1389.8,-179.81"/>
</g>
<!-- &#45;11&#45;&gt;105 -->
<g id="edge81" class="edge">
<title>&#45;11&#45;&gt;105</title>
<path fill="none" stroke="green" stroke-width="0.21" d="M870.12,-237.98C874.5,-232.73 880.84,-226.26 887.89,-222.55 933.84,-198.4 1086.43,-177.91 1152.71,-169.92"/>
<polygon fill="green" stroke="green" stroke-width="0.21" points="1153.43,-173.36 1162.94,-168.71 1152.6,-166.41 1153.43,-173.36"/>
</g>
<!-- &#45;11&#45;&gt;108 -->
<g id="edge82" class="edge">
<title>&#45;11&#45;&gt;108</title>
<path fill="none" stroke="green" stroke-width="0.25" stroke-dasharray="1,5" d="M858.46,-238.24C854.33,-232.81 848.13,-226.03 840.89,-222.55 689.21,-149.6 622.35,-243.33 463.89,-186.55 462.23,-185.95 460.56,-185.24 458.92,-184.45"/>
<polygon fill="green" stroke="green" stroke-width="0.25" points="460.32,-181.22 449.91,-179.25 456.82,-187.28 460.32,-181.22"/>
</g>
<!-- &#45;11&#45;&gt;110 -->
<g id="edge83" class="edge">
<title>&#45;11&#45;&gt;110</title>
<path fill="none" stroke="green" stroke-width="0.6" stroke-dasharray="1,5" d="M858.03,-237.92C853.87,-232.64 847.81,-226.16 840.89,-222.55 785.97,-193.89 599.93,-175.33 525.27,-168.88"/>
<polygon fill="green" stroke="green" stroke-width="0.6" points="525.36,-165.38 515.1,-168.02 524.76,-172.35 525.36,-165.38"/>
</g>
<!-- &#45;11&#45;&gt;111 -->
<g id="edge84" class="edge">
<title>&#45;11&#45;&gt;111</title>
<path fill="none" stroke="red" stroke-width="0.38" d="M871.53,-237.99C876.08,-233.24 882.08,-227.3 887.89,-222.55 906.01,-207.75 928.04,-193.12 944.99,-182.5"/>
<polygon fill="red" stroke="red" stroke-width="0.38" points="947.16,-185.27 953.83,-177.03 943.48,-179.32 947.16,-185.27"/>
</g>
<!-- &#45;11&#45;&gt;112 -->
<g id="edge85" class="edge">
<title>&#45;11&#45;&gt;112</title>
<path fill="none" stroke="green" stroke-width="0.34" d="M869.65,-238.27C874,-232.86 880.48,-226.08 887.89,-222.55 1019.46,-159.8 1069.74,-208.22 1213.89,-186.55 1239.41,-182.72 1268.15,-177.16 1289.26,-172.84"/>
<polygon fill="green" stroke="green" stroke-width="0.34" points="1290.17,-176.22 1299.26,-170.77 1288.75,-169.37 1290.17,-176.22"/>
</g>
<!-- &#45;12 -->
<g id="node12" class="node">
<title>&#45;12</title>
<polygon fill="lightgray" stroke="black" points="1256.39,-256.3 1227.39,-256.3 1227.39,-238.3 1256.39,-238.3 1256.39,-256.3"/>
<text text-anchor="middle" x="1241.89" y="-245.1" font-family="Times New Roman,serif" font-size="9.00">&#45;12</text>
</g>
<!-- &#45;12&#45;&gt;101 -->
<g id="edge86" class="edge">
<title>&#45;12&#45;&gt;101</title>
<path fill="none" stroke="red" stroke-width="0.24" d="M1248.13,-238C1252.52,-232.76 1258.85,-226.29 1265.89,-222.55 1338.73,-183.91 1395.55,-250.26 1447.89,-186.55 1459.86,-171.98 1460.59,-158.07 1447.89,-144.12 1409.23,-101.68 996.3,-90.71 878.25,-88.43"/>
<polygon fill="red" stroke="red" stroke-width="0.24" points="878.14,-84.93 868.08,-88.24 878.01,-91.93 878.14,-84.93"/>
</g>
<!-- &#45;12&#45;&gt;103 -->
<g id="edge87" class="edge">
<title>&#45;12&#45;&gt;103</title>
<path fill="none" stroke="green" stroke-width="0.57" d="M1248.81,-238.02C1253.29,-233.05 1259.47,-226.87 1265.89,-222.55 1299.59,-199.87 1327.53,-220.46 1349.89,-186.55 1360.27,-170.81 1362.77,-157.9 1349.89,-144.12 1309.36,-100.76 873.04,-127.37 816.89,-108.12 815.22,-107.55 813.55,-106.86 811.9,-106.08"/>
<polygon fill="green" stroke="green" stroke-width="0.57" points="813.3,-102.85 802.88,-100.92 809.82,-108.92 813.3,-102.85"/>
</g>
<!-- &#45;12&#45;&gt;104 -->
<g id="edge88" class="edge">
<title>&#45;12&#45;&gt;104</title>
<path fill="none" stroke="red" stroke-width="0.17" d="M1248.26,-238.24C1252.71,-233.09 1259.05,-226.65 1265.89,-222.55 1312.58,-194.61 1333.02,-208.29 1382.89,-186.55 1385.61,-185.37 1388.38,-184.03 1391.11,-182.61"/>
<polygon fill="red" stroke="red" stroke-width="0.17" points="1393.07,-185.53 1400.13,-177.63 1389.68,-179.4 1393.07,-185.53"/>
</g>
<!-- &#45;12&#45;&gt;105 -->
<g id="edge89" class="edge">
<title>&#45;12&#45;&gt;105</title>
<path fill="none" stroke="red" stroke-width="0.11" d="M1235.9,-238.04C1227.99,-227.14 1213.7,-207.43 1202.1,-191.44"/>
<polygon fill="red" stroke="red" stroke-width="0.11" points="1204.69,-189.05 1195.99,-183.01 1199.03,-193.16 1204.69,-189.05"/>
</g>
<!-- &#45;12&#45;&gt;108 -->
<g id="edge90" class="edge">
<title>&#45;12&#45;&gt;108</title>
<path fill="none" stroke="green" stroke-width="0.3" d="M1236.51,-238.13C1232.41,-232.65 1226.21,-225.86 1218.89,-222.55 1065.83,-153.37 623.32,-239.43 463.89,-186.55 462.21,-185.99 460.54,-185.31 458.89,-184.55"/>
<polygon fill="green" stroke="green" stroke-width="0.3" points="460.28,-181.31 449.86,-179.41 456.82,-187.4 460.28,-181.31"/>
</g>
<!-- &#45;12&#45;&gt;110 -->
<g id="edge91" class="edge">
<title>&#45;12&#45;&gt;110</title>
<path fill="none" stroke="green" stroke-width="0.36" d="M1236.48,-238.2C1232.36,-232.75 1226.16,-225.97 1218.89,-222.55 1155.48,-192.74 656.8,-172.36 525.49,-167.47"/>
<polygon fill="green" stroke="green" stroke-width="0.36" points="525.43,-163.97 515.3,-167.1 525.17,-170.96 525.43,-163.97"/>
</g>
<!-- &#45;12&#45;&gt;111 -->
<g id="edge92" class="edge">
<title>&#45;12&#45;&gt;111</title>
<path fill="none" stroke="green" stroke-width="0.43" stroke-dasharray="1,5" d="M1235.95,-238.06C1231.76,-232.84 1225.69,-226.38 1218.89,-222.55 1148.55,-182.97 1052.11,-171.25 1003.15,-167.79"/>
<polygon fill="green" stroke="green" stroke-width="0.43" points="1003.37,-164.29 993.17,-167.15 1002.93,-171.28 1003.37,-164.29"/>
</g>
<!-- &#45;12&#45;&gt;112 -->
<g id="edge93" class="edge">
<title>&#45;12&#45;&gt;112</title>
<path fill="none" stroke="red" stroke-width="0.36" d="M1249.95,-238.04C1261.18,-226.52 1281.99,-205.19 1298,-188.78"/>
<polygon fill="red" stroke="red" stroke-width="0.36" points="1300.94,-190.78 1305.41,-181.18 1295.93,-185.89 1300.94,-190.78"/>
</g>
<!-- &#45;13 -->
<g id="node13" class="node">
<title>&#45;13</title>
<polygon fill="lightgray" stroke="black" points="784.39,-256.3 755.39,-256.3 755.39,-238.3 784.39,-238.3 784.39,-256.3"/>
<text text-anchor="middle" x="769.89" y="-245.1" font-family="Times New Roman,serif" font-size="9.00">&#45;13</text>
</g>
<!-- &#45;13&#45;&gt;101 -->
<g id="edge94" class="edge">
<title>&#45;13&#45;&gt;101</title>
<path fill="none" stroke="green" stroke-width="0.27" d="M773.82,-238.23C784.68,-215.89 815.5,-152.48 833.46,-115.54"/>
<polygon fill="green" stroke="green" stroke-width="0.27" points="836.72,-116.84 837.94,-106.32 830.42,-113.78 836.72,-116.84"/>
</g>
<!-- &#45;13&#45;&gt;103 -->
<g id="edge95" class="edge">
<title>&#45;13&#45;&gt;103</title>
<path fill="none" stroke="green" stroke-width="0.16" d="M763.43,-237.85C759.2,-232.81 753.28,-226.62 746.89,-222.55 705.64,-196.27 671.26,-226.4 642.89,-186.55 631.95,-171.19 631.85,-159.41 642.89,-144.12 672.78,-102.78 705.34,-128.99 751.89,-108.12 754.59,-106.91 757.35,-105.55 760.08,-104.13"/>
<polygon fill="green" stroke="green" stroke-width="0.16" points="762.05,-107.04 769.1,-99.13 758.65,-100.92 762.05,-107.04"/>
</g>
<!-- &#45;13&#45;&gt;104 -->
<g id="edge96" class="edge">
<title>&#45;13&#45;&gt;104</title>
<path fill="none" stroke="red" stroke-width="0.12" stroke-dasharray="1,5" d="M775.6,-238.16C779.93,-232.7 786.41,-225.92 793.89,-222.55 906.82,-171.79 1228.01,-208.33 1349.89,-186.55 1362.74,-184.26 1376.6,-180.4 1388.44,-176.66"/>
<polygon fill="red" stroke="red" stroke-width="0.12" points="1389.82,-179.89 1398.24,-173.46 1387.65,-173.24 1389.82,-179.89"/>
</g>
<!-- &#45;13&#45;&gt;105 -->
<g id="edge97" class="edge">
<title>&#45;13&#45;&gt;105</title>
<path fill="none" stroke="green" stroke-width="0.43" d="M776.06,-237.88C780.43,-232.58 786.75,-226.1 793.89,-222.55 825.94,-206.61 1066.21,-179.17 1152.86,-169.68"/>
<polygon fill="green" stroke="green" stroke-width="0.43" points="1153.31,-173.15 1162.87,-168.59 1152.55,-166.19 1153.31,-173.15"/>
</g>
<!-- &#45;13&#45;&gt;108 -->
<g id="edge98" class="edge">
<title>&#45;13&#45;&gt;108</title>
<path fill="none" stroke="green" stroke-width="0.43" stroke-dasharray="1,5" d="M764.07,-237.84C759.93,-232.53 753.87,-226.04 746.89,-222.55 633.5,-165.81 582.57,-231.18 463.89,-186.55 462.28,-185.94 460.66,-185.23 459.06,-184.45"/>
<polygon fill="green" stroke="green" stroke-width="0.43" points="460.67,-181.34 450.27,-179.36 457.17,-187.39 460.67,-181.34"/>
</g>
<!-- &#45;13&#45;&gt;110 -->
<g id="edge99" class="edge">
<title>&#45;13&#45;&gt;110</title>
<path fill="none" stroke="red" stroke-width="0.41" stroke-dasharray="1,5" d="M763.96,-238.05C759.77,-232.83 753.7,-226.36 746.89,-222.55 727.54,-211.73 588.02,-184.25 524.84,-172.18"/>
<polygon fill="red" stroke="red" stroke-width="0.41" points="525.15,-168.68 514.68,-170.24 523.85,-175.55 525.15,-168.68"/>
</g>
<!-- &#45;13&#45;&gt;111 -->
<g id="edge100" class="edge">
<title>&#45;13&#45;&gt;111</title>
<path fill="none" stroke="green" stroke-width="0.69" d="M776.27,-238.25C780.72,-233.12 787.07,-226.67 793.89,-222.55 840.99,-194.13 903.89,-178.68 940.93,-171.5"/>
<polygon fill="green" stroke="green" stroke-width="0.69" points="941.91,-174.88 951.1,-169.61 940.63,-168 941.91,-174.88"/>
</g>
<!-- &#45;13&#45;&gt;112 -->
<g id="edge101" class="edge">
<title>&#45;13&#45;&gt;112</title>
<path fill="none" stroke="red" stroke-width="0.43" stroke-dasharray="1,5" d="M775.62,-238.21C779.96,-232.77 786.44,-225.99 793.89,-222.55 878.93,-183.26 1121.09,-199.34 1213.89,-186.55 1239.45,-183.03 1268.19,-177.45 1289.29,-173.04"/>
<polygon fill="red" stroke="red" stroke-width="0.43" points="1290.22,-176.42 1299.28,-170.92 1288.77,-169.57 1290.22,-176.42"/>
</g>
<!-- &#45;14 -->
<g id="node14" class="node">
<title>&#45;14</title>
<polygon fill="lightgray" stroke="black" points="1338.39,-326.05 1309.39,-326.05 1309.39,-308.05 1338.39,-308.05 1338.39,-326.05"/>
<text text-anchor="middle" x="1323.89" y="-314.85" font-family="Times New Roman,serif" font-size="9.00">&#45;14</text>
</g>
<!-- &#45;14&#45;&gt;101 -->
<g id="edge102" class="edge">
<title>&#45;14&#45;&gt;101</title>
<path fill="none" stroke="green" stroke-width="0.38" d="M1338.52,-315.75C1432.57,-313.42 1943.97,-293.74 1802.89,-144.12 1770.45,-109.72 1040.54,-92.07 878.55,-88.57"/>
<polygon fill="green" stroke="green" stroke-width="0.38" points="878.37,-85.06 868.29,-88.35 878.22,-92.06 878.37,-85.06"/>
</g>
<!-- &#45;14&#45;&gt;104 -->
<g id="edge103" class="edge">
<title>&#45;14&#45;&gt;104</title>
<path fill="none" stroke="green" stroke-width="0.25" stroke-dasharray="1,5" d="M1338.46,-315.5C1383.81,-313.46 1521.08,-304.64 1547.89,-272.05 1561.87,-255.06 1559.97,-240.94 1547.89,-222.55 1526.06,-189.32 1479.93,-175.64 1448.92,-170.07"/>
<polygon fill="green" stroke="green" stroke-width="0.25" points="1449.46,-166.62 1439.04,-168.48 1448.35,-173.53 1449.46,-166.62"/>
</g>
<!-- &#45;14&#45;&gt;105 -->
<g id="edge104" class="edge">
<title>&#45;14&#45;&gt;105</title>
<path fill="none" stroke="red" stroke-width="0.47" stroke-dasharray="1,5" d="M1309.2,-314.04C1274.41,-308.95 1188.65,-294.34 1171.89,-272.05 1155.27,-249.93 1162.21,-217.49 1170.83,-194.39"/>
<polygon fill="red" stroke="red" stroke-width="0.47" points="1174.2,-195.39 1174.7,-184.81 1167.71,-192.77 1174.2,-195.39"/>
</g>
<!-- &#45;14&#45;&gt;108 -->
<g id="edge105" class="edge">
<title>&#45;14&#45;&gt;108</title>
<path fill="none" stroke="red" stroke-width="0.42" d="M1309.21,-315.92C1193.62,-314.83 433.62,-306.37 400.89,-272.05 379.62,-249.74 397.93,-213.92 414.59,-190.25"/>
<polygon fill="red" stroke="red" stroke-width="0.42" points="417.46,-192.26 420.58,-182.13 411.83,-188.11 417.46,-192.26"/>
</g>
<!-- &#45;14&#45;&gt;110 -->
<g id="edge106" class="edge">
<title>&#45;14&#45;&gt;110</title>
<path fill="none" stroke="green" stroke-width="1.18" stroke-dasharray="1,5" d="M1309.27,-315.96C1209.85,-315.24 634.98,-309.49 567.89,-272.05 537.67,-255.18 516.98,-220.17 505.31,-195.06"/>
<polygon fill="green" stroke="green" stroke-width="1.18" points="508.4,-193.38 501.15,-185.65 502,-196.21 508.4,-193.38"/>
</g>
<!-- &#45;14&#45;&gt;111 -->
<g id="edge107" class="edge">
<title>&#45;14&#45;&gt;111</title>
<path fill="none" stroke="red" stroke-width="0.44" stroke-dasharray="1,5" d="M1309.1,-315.92C1253.48,-315.15 1057.67,-309.76 1010.89,-272.05 988.21,-253.76 978.72,-220.96 974.75,-196.74"/>
<polygon fill="red" stroke="red" stroke-width="0.44" points="978.18,-196.03 973.32,-186.62 971.25,-197.01 978.18,-196.03"/>
</g>
<!-- &#45;14&#45;&gt;112 -->
<g id="edge108" class="edge">
<title>&#45;14&#45;&gt;112</title>
<path fill="none" stroke="red" stroke-width="0.75" stroke-dasharray="1,5" d="M1338.82,-316.86C1369.7,-317.62 1440.32,-314.38 1471.89,-272.05 1485.05,-254.42 1484.46,-240.6 1471.89,-222.55 1464.63,-212.13 1391.96,-188.43 1349.79,-175.38"/>
<polygon fill="red" stroke="red" stroke-width="0.75" points="1350.62,-171.97 1340.03,-172.38 1348.56,-178.67 1350.62,-171.97"/>
</g>
<!-- 1681 -->
<g id="node35" class="node">
<title>1681</title>
<ellipse fill="white" stroke="black" cx="1624.89" cy="-247.3" rx="25" ry="25"/>
<text text-anchor="middle" x="1624.89" y="-245.1" font-family="Times New Roman,serif" font-size="9.00">1681</text>
</g>
<!-- &#45;14&#45;&gt;1681 -->
<g id="edge199" class="edge">
<title>&#45;14&#45;&gt;1681</title>
<path fill="none" stroke="green" stroke-width="0.31" d="M1338.59,-315.52C1379.22,-313.66 1495.99,-305.55 1585.89,-272.05 1589.36,-270.75 1592.87,-269.14 1596.28,-267.37"/>
<polygon fill="green" stroke="green" stroke-width="0.31" points="1598.03,-270.4 1604.99,-262.41 1594.57,-264.31 1598.03,-270.4"/>
</g>
<!-- &#45;15 -->
<g id="node15" class="node">
<title>&#45;15</title>
<polygon fill="lightgray" stroke="black" points="831.39,-256.3 802.39,-256.3 802.39,-238.3 831.39,-238.3 831.39,-256.3"/>
<text text-anchor="middle" x="816.89" y="-245.1" font-family="Times New Roman,serif" font-size="9.00">&#45;15</text>
</g>
<!-- &#45;15&#45;&gt;101 -->
<g id="edge109" class="edge">
<title>&#45;15&#45;&gt;101</title>
<path fill="none" stroke="green" stroke-width="0.6" stroke-dasharray="1,5" d="M818.42,-238.23C822.55,-216.42 834.09,-155.49 841.15,-118.24"/>
<polygon fill="green" stroke="green" stroke-width="0.6" points="844.67,-118.43 843.1,-107.96 837.8,-117.13 844.67,-118.43"/>
</g>
<!-- &#45;15&#45;&gt;103 -->
<g id="edge110" class="edge">
<title>&#45;15&#45;&gt;103</title>
<path fill="none" stroke="green" stroke-width="1.38" d="M815.36,-238.23C811.23,-216.42 799.69,-155.49 792.64,-118.24"/>
<polygon fill="green" stroke="green" stroke-width="1.38" points="795.99,-117.13 790.69,-107.96 789.11,-118.43 795.99,-117.13"/>
</g>
<!-- &#45;15&#45;&gt;104 -->
<g id="edge111" class="edge">
<title>&#45;15&#45;&gt;104</title>
<path fill="none" stroke="red" stroke-width="0.24" d="M822.6,-238.18C826.94,-232.72 833.42,-225.94 840.89,-222.55 944.18,-175.76 1238.33,-206.83 1349.89,-186.55 1362.73,-184.22 1376.59,-180.35 1388.43,-176.62"/>
<polygon fill="red" stroke="red" stroke-width="0.24" points="1389.81,-179.85 1398.23,-173.42 1387.64,-173.2 1389.81,-179.85"/>
</g>
<!-- &#45;15&#45;&gt;105 -->
<g id="edge112" class="edge">
<title>&#45;15&#45;&gt;105</title>
<path fill="none" stroke="red" stroke-width="0.31" d="M823.09,-237.92C827.46,-232.65 833.79,-226.17 840.89,-222.55 868.49,-208.49 1072.5,-180.82 1152.16,-170.42"/>
<polygon fill="red" stroke="red" stroke-width="0.31" points="1153.07,-173.83 1162.54,-169.07 1152.17,-166.89 1153.07,-173.83"/>
</g>
<!-- &#45;15&#45;&gt;108 -->
<g id="edge113" class="edge">
<title>&#45;15&#45;&gt;108</title>
<path fill="none" stroke="green" stroke-width="0.47" d="M811.45,-238.27C807.31,-232.85 801.11,-226.08 793.89,-222.55 661.37,-157.71 602.44,-237.25 463.89,-186.55 462.27,-185.96 460.65,-185.26 459.05,-184.48"/>
<polygon fill="green" stroke="green" stroke-width="0.47" points="460.66,-181.37 450.24,-179.42 457.17,-187.44 460.66,-181.37"/>
</g>
<!-- &#45;15&#45;&gt;110 -->
<g id="edge114" class="edge">
<title>&#45;15&#45;&gt;110</title>
<path fill="none" stroke="red" stroke-width="0.11" d="M811,-237.97C806.83,-232.72 800.77,-226.25 793.89,-222.55 770.31,-209.87 596.95,-182.17 525.03,-171.07"/>
<polygon fill="red" stroke="red" stroke-width="0.11" points="525.2,-167.56 514.79,-169.5 524.14,-174.48 525.2,-167.56"/>
</g>
<!-- &#45;15&#45;&gt;111 -->
<g id="edge115" class="edge">
<title>&#45;15&#45;&gt;111</title>
<path fill="none" stroke="green" stroke-width="0.13" stroke-dasharray="1,5" d="M823.81,-238.02C828.29,-233.05 834.47,-226.87 840.89,-222.55 872.88,-201 914.48,-184.86 942.12,-175.52"/>
<polygon fill="green" stroke="green" stroke-width="0.13" points="943.23,-178.84 951.64,-172.39 941.04,-172.19 943.23,-178.84"/>
</g>
<!-- &#45;15&#45;&gt;112 -->
<g id="edge116" class="edge">
<title>&#45;15&#45;&gt;112</title>
<path fill="none" stroke="red" stroke-width="0.24" stroke-dasharray="1,5" d="M822.63,-238.24C826.98,-232.81 833.46,-226.03 840.89,-222.55 916.3,-187.22 1131.46,-198.36 1213.89,-186.55 1239.43,-182.89 1268.17,-177.32 1289.28,-172.95"/>
<polygon fill="red" stroke="red" stroke-width="0.24" points="1290.2,-176.33 1299.27,-170.86 1288.76,-169.48 1290.2,-176.33"/>
</g>
<!-- &#45;16 -->
<g id="node16" class="node">
<title>&#45;16</title>
<polygon fill="lightgray" stroke="black" points="925.39,-256.3 896.39,-256.3 896.39,-238.3 925.39,-238.3 925.39,-256.3"/>
<text text-anchor="middle" x="910.89" y="-245.1" font-family="Times New Roman,serif" font-size="9.00">&#45;16</text>
</g>
<!-- &#45;16&#45;&gt;101 -->
<g id="edge117" class="edge">
<title>&#45;16&#45;&gt;101</title>
<path fill="none" stroke="red" stroke-width="0.42" d="M911.58,-238.16C912.77,-220.24 913.76,-176.41 898.89,-144.12 892.51,-130.27 881.4,-117.54 871.08,-107.71"/>
<polygon fill="red" stroke="red" stroke-width="0.42" points="873.2,-104.91 863.44,-100.79 868.51,-110.1 873.2,-104.91"/>
</g>
<!-- &#45;16&#45;&gt;103 -->
<g id="edge118" class="edge">
<title>&#45;16&#45;&gt;103</title>
<path fill="none" stroke="red" stroke-width="0.19" d="M905.64,-238.09C894.21,-220.38 865.91,-177.53 838.89,-144.12 829.43,-132.43 818.17,-120.09 808.56,-109.96"/>
<polygon fill="red" stroke="red" stroke-width="0.19" points="811.03,-107.48 801.58,-102.69 805.98,-112.33 811.03,-107.48"/>
</g>
<!-- &#45;16&#45;&gt;104 -->
<g id="edge119" class="edge">
<title>&#45;16&#45;&gt;104</title>
<path fill="none" stroke="green" stroke-width="0.2" d="M925.68,-242.16C945.09,-236.88 980.29,-227.79 1010.89,-222.55 1160.23,-197 1201.32,-216.26 1349.89,-186.55 1362.69,-183.99 1376.54,-180.09 1388.38,-176.39"/>
<polygon fill="green" stroke="green" stroke-width="0.2" points="1389.75,-179.63 1398.2,-173.24 1387.61,-172.97 1389.75,-179.63"/>
</g>
<!-- &#45;16&#45;&gt;105 -->
<g id="edge120" class="edge">
<title>&#45;16&#45;&gt;105</title>
<path fill="none" stroke="red" stroke-width="0.23" d="M925.57,-242C968.72,-229.36 1095.78,-192.15 1154.06,-175.08"/>
<polygon fill="red" stroke="red" stroke-width="0.23" points="1155.17,-178.4 1163.78,-172.23 1153.2,-171.68 1155.17,-178.4"/>
</g>
<!-- &#45;16&#45;&gt;108 -->
<g id="edge121" class="edge">
<title>&#45;16&#45;&gt;108</title>
<path fill="none" stroke="green" stroke-width="0.32" d="M905.48,-238.21C901.35,-232.78 895.15,-226 887.89,-222.55 717.03,-141.47 642.26,-249.41 463.89,-186.55 462.22,-185.96 460.56,-185.26 458.91,-184.47"/>
<polygon fill="green" stroke="green" stroke-width="0.32" points="460.31,-181.24 449.9,-179.29 456.82,-187.31 460.31,-181.24"/>
</g>
<!-- &#45;16&#45;&gt;110 -->
<g id="edge122" class="edge">
<title>&#45;16&#45;&gt;110</title>
<path fill="none" stroke="green" stroke-width="0.31" d="M905.05,-237.87C900.9,-232.58 894.85,-226.1 887.89,-222.55 824.34,-190.15 606.99,-173.45 525.28,-168.2"/>
<polygon fill="green" stroke="green" stroke-width="0.31" points="525.32,-164.69 515.12,-167.56 524.89,-171.68 525.32,-164.69"/>
</g>
<!-- &#45;16&#45;&gt;111 -->
<g id="edge123" class="edge">
<title>&#45;16&#45;&gt;111</title>
<path fill="none" stroke="red" stroke-width="0.29" d="M917.19,-238.04C925.64,-226.97 941.01,-206.82 953.31,-190.7"/>
<polygon fill="red" stroke="red" stroke-width="0.29" points="956.13,-192.78 959.41,-182.7 950.56,-188.53 956.13,-192.78"/>
</g>
<!-- &#45;16&#45;&gt;112 -->
<g id="edge124" class="edge">
<title>&#45;16&#45;&gt;112</title>
<path fill="none" stroke="red" stroke-width="0.73" d="M925.41,-242.58C944.81,-237.66 980.31,-228.89 1010.89,-222.55 1100.62,-203.96 1123.77,-203.13 1213.89,-186.55 1239.27,-181.88 1268.02,-176.39 1289.17,-172.3"/>
<polygon fill="red" stroke="red" stroke-width="0.73" points="1290.04,-175.7 1299.19,-170.37 1288.71,-168.83 1290.04,-175.7"/>
</g>
<!-- &#45;17 -->
<g id="node17" class="node">
<title>&#45;17</title>
<polygon fill="lightgray" stroke="black" points="481.39,-256.3 452.39,-256.3 452.39,-238.3 481.39,-238.3 481.39,-256.3"/>
<text text-anchor="middle" x="466.89" y="-245.1" font-family="Times New Roman,serif" font-size="9.00">&#45;17</text>
</g>
<!-- &#45;17&#45;&gt;101 -->
<g id="edge125" class="edge">
<title>&#45;17&#45;&gt;101</title>
<path fill="none" stroke="red" stroke-width="0.13" d="M459.81,-238.25C455.27,-233.36 449.08,-227.19 442.89,-222.55 416.46,-202.75 394.66,-215 377.89,-186.55 368.32,-170.31 365.12,-157.99 377.89,-144.12 444.22,-72.14 724.53,-140.52 816.89,-108.12 818.56,-107.54 820.23,-106.84 821.87,-106.05"/>
<polygon fill="red" stroke="red" stroke-width="0.13" points="823.96,-108.89 830.89,-100.87 820.47,-102.82 823.96,-108.89"/>
</g>
<!-- &#45;17&#45;&gt;103 -->
<g id="edge126" class="edge">
<title>&#45;17&#45;&gt;103</title>
<path fill="none" stroke="red" stroke-width="0.2" d="M459.92,-238.1C455.42,-233.15 449.24,-226.98 442.89,-222.55 411.9,-200.95 386.17,-218.42 365.89,-186.55 355.77,-170.64 353.47,-158.31 365.89,-144.12 391.56,-114.8 661.87,-95.58 755.32,-89.77"/>
<polygon fill="red" stroke="red" stroke-width="0.2" points="755.8,-93.24 765.56,-89.14 755.37,-86.26 755.8,-93.24"/>
</g>
<!-- &#45;17&#45;&gt;104 -->
<g id="edge127" class="edge">
<title>&#45;17&#45;&gt;104</title>
<path fill="none" stroke="red" stroke-width="0.1" d="M481.45,-241.98C500.94,-236.4 536.67,-226.9 567.89,-222.55 912.49,-174.53 1006.84,-244.55 1349.89,-186.55 1362.76,-184.38 1376.62,-180.54 1388.46,-176.79"/>
<polygon fill="red" stroke="red" stroke-width="0.1" points="1389.86,-180.01 1398.26,-173.56 1387.66,-173.36 1389.86,-180.01"/>
</g>
<!-- &#45;17&#45;&gt;105 -->
<g id="edge128" class="edge">
<title>&#45;17&#45;&gt;105</title>
<path fill="none" stroke="green" stroke-width="0.99" d="M481.48,-242.15C500.99,-236.77 536.76,-227.48 567.89,-222.55 759.07,-192.32 809.24,-205.24 1001.89,-186.55 1055.03,-181.4 1116.76,-174.31 1152.96,-170.04"/>
<polygon fill="green" stroke="green" stroke-width="0.99" points="1153.37,-173.51 1162.89,-168.86 1152.55,-166.56 1153.37,-173.51"/>
</g>
<!-- &#45;17&#45;&gt;108 -->
<g id="edge129" class="edge">
<title>&#45;17&#45;&gt;108</title>
<path fill="none" stroke="red" stroke-width="0.66" d="M463.48,-238.04C459.3,-227.9 451.97,-210.14 445.65,-194.84"/>
<polygon fill="red" stroke="red" stroke-width="0.66" points="448.74,-193.15 441.69,-185.24 442.27,-195.82 448.74,-193.15"/>
</g>
<!-- &#45;17&#45;&gt;110 -->
<g id="edge130" class="edge">
<title>&#45;17&#45;&gt;110</title>
<path fill="none" stroke="green" stroke-width="0.24" d="M469.68,-238.04C473.08,-227.96 479.02,-210.37 484.17,-195.13"/>
<polygon fill="green" stroke="green" stroke-width="0.24" points="487.52,-196.16 487.4,-185.56 480.88,-193.92 487.52,-196.16"/>
</g>
<!-- &#45;17&#45;&gt;111 -->
<g id="edge131" class="edge">
<title>&#45;17&#45;&gt;111</title>
<path fill="none" stroke="green" stroke-width="0.43" stroke-dasharray="1,5" d="M481.52,-242.41C501.09,-237.31 536.9,-228.34 567.89,-222.55 705.99,-196.76 872.67,-177.19 940.7,-169.68"/>
<polygon fill="green" stroke="green" stroke-width="0.43" points="941.19,-173.15 950.75,-168.58 940.43,-166.19 941.19,-173.15"/>
</g>
<!-- &#45;18 -->
<g id="node18" class="node">
<title>&#45;18</title>
<polygon fill="lightgray" stroke="black" points="1209.39,-256.3 1180.39,-256.3 1180.39,-238.3 1209.39,-238.3 1209.39,-256.3"/>
<text text-anchor="middle" x="1194.89" y="-245.1" font-family="Times New Roman,serif" font-size="9.00">&#45;18</text>
</g>
<!-- &#45;18&#45;&gt;101 -->
<g id="edge132" class="edge">
<title>&#45;18&#45;&gt;101</title>
<path fill="none" stroke="red" stroke-width="0.42" d="M1203.42,-238.03C1216.99,-224.64 1242.41,-198.53 1246.89,-186.55 1253.5,-168.89 1259.26,-158.36 1246.89,-144.12 1245.37,-142.37 971.85,-104.94 878.04,-92.15"/>
<polygon fill="red" stroke="red" stroke-width="0.42" points="878.4,-88.67 868.02,-90.79 877.46,-95.61 878.4,-88.67"/>
</g>
<!-- &#45;18&#45;&gt;103 -->
<g id="edge133" class="edge">
<title>&#45;18&#45;&gt;103</title>
<path fill="none" stroke="green" stroke-width="0.47" d="M1200.35,-238.17C1212.43,-219.09 1238.47,-171.04 1213.89,-144.12 1154.15,-78.72 900.36,-137.81 816.89,-108.12 815.22,-107.53 813.56,-106.82 811.92,-106.03"/>
<polygon fill="green" stroke="green" stroke-width="0.47" points="813.32,-102.8 802.91,-100.84 809.82,-108.87 813.32,-102.8"/>
</g>
<!-- &#45;18&#45;&gt;104 -->
<g id="edge134" class="edge">
<title>&#45;18&#45;&gt;104</title>
<path fill="none" stroke="red" stroke-width="0.27" d="M1201.22,-238.17C1205.65,-232.99 1211.99,-226.54 1218.89,-222.55 1271.17,-192.33 1291.84,-203.15 1349.89,-186.55 1362.35,-182.99 1376.05,-178.94 1387.87,-175.41"/>
<polygon fill="red" stroke="red" stroke-width="0.27" points="1389.12,-178.69 1397.69,-172.46 1387.11,-171.98 1389.12,-178.69"/>
</g>
<!-- &#45;18&#45;&gt;105 -->
<g id="edge135" class="edge">
<title>&#45;18&#45;&gt;105</title>
<path fill="none" stroke="red" stroke-width="0.58" d="M1193.76,-238.04C1192.42,-228.35 1190.13,-211.7 1188.09,-196.89"/>
<polygon fill="red" stroke="red" stroke-width="0.58" points="1191.5,-195.98 1186.67,-186.55 1184.57,-196.93 1191.5,-195.98"/>
</g>
<!-- &#45;18&#45;&gt;108 -->
<g id="edge136" class="edge">
<title>&#45;18&#45;&gt;108</title>
<path fill="none" stroke="red" stroke-width="0.11" d="M1180.14,-241.93C1160.77,-236.4 1125.61,-227.04 1094.89,-222.55 955.92,-202.25 596.99,-231.39 463.89,-186.55 462.21,-185.99 460.54,-185.3 458.9,-184.53"/>
<polygon fill="red" stroke="red" stroke-width="0.11" points="460.29,-181.29 449.87,-179.38 456.82,-187.37 460.29,-181.29"/>
</g>
<!-- &#45;18&#45;&gt;110 -->
<g id="edge137" class="edge">
<title>&#45;18&#45;&gt;110</title>
<path fill="none" stroke="red" stroke-width="0.33" d="M1180.11,-242.1C1160.72,-236.75 1125.53,-227.6 1094.89,-222.55 878.53,-186.92 614.34,-171.98 525.06,-167.71"/>
<polygon fill="red" stroke="red" stroke-width="0.33" points="525.21,-164.22 515.05,-167.24 524.88,-171.21 525.21,-164.22"/>
</g>
<!-- &#45;18&#45;&gt;111 -->
<g id="edge138" class="edge">
<title>&#45;18&#45;&gt;111</title>
<path fill="none" stroke="green" stroke-width="0.38" d="M1180.26,-241.05C1143.98,-228.05 1049.36,-194.11 1001.1,-176.81"/>
<polygon fill="green" stroke="green" stroke-width="0.38" points="1002.14,-173.47 991.55,-173.39 999.78,-180.06 1002.14,-173.47"/>
</g>
<!-- &#45;18&#45;&gt;112 -->
<g id="edge139" class="edge">
<title>&#45;18&#45;&gt;112</title>
<path fill="none" stroke="red" stroke-width="0.58" d="M1201.96,-238.23C1206.5,-233.34 1212.68,-227.17 1218.89,-222.55 1245.7,-202.6 1255.76,-202.91 1284.89,-186.55 1287.56,-185.05 1290.33,-183.48 1293.1,-181.9"/>
<polygon fill="red" stroke="red" stroke-width="0.58" points="1294.85,-184.93 1301.77,-176.91 1291.36,-178.86 1294.85,-184.93"/>
</g>
<!-- &#45;19 -->
<g id="node19" class="node">
<title>&#45;19</title>
<polygon fill="lightgray" stroke="black" points="1303.39,-256.3 1274.39,-256.3 1274.39,-238.3 1303.39,-238.3 1303.39,-256.3"/>
<text text-anchor="middle" x="1288.89" y="-245.1" font-family="Times New Roman,serif" font-size="9.00">&#45;19</text>
</g>
<!-- &#45;19&#45;&gt;101 -->
<g id="edge140" class="edge">
<title>&#45;19&#45;&gt;101</title>
<path fill="none" stroke="green" stroke-width="0.32" d="M1295.1,-237.95C1299.48,-232.68 1305.81,-226.21 1312.89,-222.55 1395.48,-179.91 1459.1,-257.7 1518.89,-186.55 1531.02,-172.12 1531.66,-158 1518.89,-144.12 1475.09,-96.51 1005.86,-89.21 878.59,-88.11"/>
<polygon fill="green" stroke="green" stroke-width="0.32" points="878.38,-84.6 868.35,-88.02 878.32,-91.6 878.38,-84.6"/>
</g>
<!-- &#45;19&#45;&gt;103 -->
<g id="edge141" class="edge">
<title>&#45;19&#45;&gt;103</title>
<path fill="none" stroke="red" stroke-width="0.56" d="M1295.21,-238.15C1299.63,-232.97 1305.98,-226.51 1312.89,-222.55 1366.77,-191.68 1410.06,-235.79 1447.89,-186.55 1459.38,-171.6 1460.84,-157.83 1447.89,-144.12 1399.67,-93.07 883.44,-130.54 816.89,-108.12 815.21,-107.56 813.54,-106.87 811.9,-106.1"/>
<polygon fill="red" stroke="red" stroke-width="0.56" points="813.29,-102.87 802.87,-100.95 809.82,-108.95 813.29,-102.87"/>
</g>
<!-- &#45;19&#45;&gt;104 -->
<g id="edge142" class="edge">
<title>&#45;19&#45;&gt;104</title>
<path fill="none" stroke="red" stroke-width="0.12" d="M1295.92,-238.18C1300.44,-233.27 1306.63,-227.09 1312.89,-222.55 1341.21,-202.01 1352.18,-203.3 1382.89,-186.55 1385.58,-185.09 1388.36,-183.53 1391.14,-181.97"/>
<polygon fill="red" stroke="red" stroke-width="0.12" points="1392.88,-185 1399.82,-177 1389.4,-178.93 1392.88,-185"/>
</g>
<!-- &#45;19&#45;&gt;105 -->
<g id="edge143" class="edge">
<title>&#45;19&#45;&gt;105</title>
<path fill="none" stroke="green" stroke-width="0.42" d="M1281.6,-237.98C1277.26,-233.23 1271.51,-227.29 1265.89,-222.55 1248.42,-207.8 1227.08,-193.26 1210.54,-182.67"/>
<polygon fill="green" stroke="green" stroke-width="0.42" points="1212.23,-179.6 1201.91,-177.21 1208.49,-185.51 1212.23,-179.6"/>
</g>
<!-- &#45;19&#45;&gt;108 -->
<g id="edge144" class="edge">
<title>&#45;19&#45;&gt;108</title>
<path fill="none" stroke="green" stroke-width="0.14" stroke-dasharray="1,5" d="M1283.52,-238.12C1279.41,-232.64 1273.22,-225.85 1265.89,-222.55 1103.22,-149.3 633.3,-242.48 463.89,-186.55 462.21,-186 460.54,-185.32 458.89,-184.55"/>
<polygon fill="green" stroke="green" stroke-width="0.14" points="460.28,-181.32 449.85,-179.42 456.82,-187.4 460.28,-181.32"/>
</g>
<!-- &#45;19&#45;&gt;110 -->
<g id="edge145" class="edge">
<title>&#45;19&#45;&gt;110</title>
<path fill="none" stroke="red" stroke-width="0.32" d="M1283.49,-238.19C1279.37,-232.74 1273.17,-225.95 1265.89,-222.55 1231.78,-206.61 665.5,-175.49 525.16,-167.99"/>
<polygon fill="red" stroke="red" stroke-width="0.32" points="525.25,-164.49 515.08,-167.45 524.88,-171.48 525.25,-164.49"/>
</g>
<!-- &#45;19&#45;&gt;111 -->
<g id="edge146" class="edge">
<title>&#45;19&#45;&gt;111</title>
<path fill="none" stroke="green" stroke-width="0.37" d="M1283,-237.98C1278.82,-232.73 1272.76,-226.26 1265.89,-222.55 1220.63,-198.11 1069.54,-177.85 1003.38,-169.93"/>
<polygon fill="green" stroke="green" stroke-width="0.37" points="1003.49,-166.41 993.15,-168.72 1002.67,-173.37 1003.49,-166.41"/>
</g>
<!-- &#45;19&#45;&gt;112 -->
<g id="edge147" class="edge">
<title>&#45;19&#45;&gt;112</title>
<path fill="none" stroke="green" stroke-width="0.12" d="M1292.09,-238.04C1296,-227.96 1302.82,-210.37 1308.73,-195.13"/>
<polygon fill="green" stroke="green" stroke-width="0.12" points="1312.09,-196.15 1312.44,-185.56 1305.56,-193.62 1312.09,-196.15"/>
</g>
<!-- &#45;20 -->
<g id="node20" class="node">
<title>&#45;20</title>
<polygon fill="lightgray" stroke="black" points="605.39,-256.3 576.39,-256.3 576.39,-238.3 605.39,-238.3 605.39,-256.3"/>
<text text-anchor="middle" x="590.89" y="-245.1" font-family="Times New Roman,serif" font-size="9.00">&#45;20</text>
</g>
<!-- &#45;20&#45;&gt;101 -->
<g id="edge148" class="edge">
<title>&#45;20&#45;&gt;101</title>
<path fill="none" stroke="red" stroke-width="0.71" d="M576.22,-242.98C531.99,-232.82 402.37,-201.95 390.89,-186.55 379.63,-171.43 378.13,-158.01 390.89,-144.12 455.18,-74.18 727.28,-139.68 816.89,-108.12 818.56,-107.54 820.23,-106.83 821.87,-106.05"/>
<polygon fill="red" stroke="red" stroke-width="0.71" points="823.96,-108.88 830.89,-100.86 820.47,-102.81 823.96,-108.88"/>
</g>
<!-- &#45;20&#45;&gt;103 -->
<g id="edge149" class="edge">
<title>&#45;20&#45;&gt;103</title>
<path fill="none" stroke="green" stroke-width="0.86" d="M576.07,-242.66C528.77,-230.99 384.1,-194.74 377.89,-186.55 366.5,-171.52 365.5,-158.34 377.89,-144.12 427.12,-87.66 668.65,-85.93 755.61,-87.19"/>
<polygon fill="green" stroke="green" stroke-width="0.86" points="755.61,-90.69 765.66,-87.36 755.72,-83.69 755.61,-90.69"/>
</g>
<!-- &#45;20&#45;&gt;104 -->
<g id="edge150" class="edge">
<title>&#45;20&#45;&gt;104</title>
<path fill="none" stroke="red" stroke-width="0.15" d="M596.58,-238.13C600.91,-232.65 607.38,-225.86 614.89,-222.55 764.57,-156.69 1188.69,-214.05 1349.89,-186.55 1362.76,-184.36 1376.62,-180.52 1388.45,-176.77"/>
<polygon fill="red" stroke="red" stroke-width="0.15" points="1389.85,-179.99 1398.25,-173.54 1387.66,-173.34 1389.85,-179.99"/>
</g>
<!-- &#45;20&#45;&gt;105 -->
<g id="edge151" class="edge">
<title>&#45;20&#45;&gt;105</title>
<path fill="none" stroke="green" stroke-width="0.19" d="M596.63,-238.23C600.97,-232.8 607.45,-226.02 614.89,-222.55 693.17,-186.04 915.97,-195.32 1001.89,-186.55 1055,-181.13 1116.75,-174.13 1152.95,-169.95"/>
<polygon fill="green" stroke="green" stroke-width="0.19" points="1153.36,-173.42 1162.89,-168.79 1152.55,-166.47 1153.36,-173.42"/>
</g>
<!-- &#45;20&#45;&gt;108 -->
<g id="edge152" class="edge">
<title>&#45;20&#45;&gt;108</title>
<path fill="none" stroke="green" stroke-width="0.19" d="M576.05,-240.2C551.96,-230.1 503.09,-208.81 463.89,-186.55 462.39,-185.7 460.86,-184.8 459.34,-183.86"/>
<polygon fill="green" stroke="green" stroke-width="0.19" points="461.05,-180.8 450.74,-178.35 457.26,-186.69 461.05,-180.8"/>
</g>
<!-- &#45;20&#45;&gt;110 -->
<g id="edge153" class="edge">
<title>&#45;20&#45;&gt;110</title>
<path fill="none" stroke="red" stroke-width="0.72" d="M580.88,-238.04C566.07,-225.84 537.91,-202.63 517.64,-185.91"/>
<polygon fill="red" stroke="red" stroke-width="0.72" points="519.71,-183.08 509.76,-179.42 515.25,-188.48 519.71,-183.08"/>
</g>
<!-- &#45;20&#45;&gt;111 -->
<g id="edge154" class="edge">
<title>&#45;20&#45;&gt;111</title>
<path fill="none" stroke="red" stroke-width="0.15" d="M597.08,-237.91C601.45,-232.63 607.78,-226.15 614.89,-222.55 671.86,-193.74 863.83,-175.22 940.19,-168.83"/>
<polygon fill="red" stroke="red" stroke-width="0.15" points="940.9,-172.28 950.58,-167.97 940.33,-165.3 940.9,-172.28"/>
</g>
<!-- &#45;20&#45;&gt;112 -->
<g id="edge155" class="edge">
<title>&#45;20&#45;&gt;112</title>
<path fill="none" stroke="green" stroke-width="0.19" d="M596.59,-238.15C600.92,-232.69 607.4,-225.9 614.89,-222.55 736.65,-168.17 1081.57,-203.07 1213.89,-186.55 1239.5,-183.35 1268.23,-177.75 1289.32,-173.25"/>
<polygon fill="green" stroke="green" stroke-width="0.19" points="1290.27,-176.62 1299.3,-171.08 1288.78,-169.78 1290.27,-176.62"/>
</g>
<!-- 0 -->
<g id="node21" class="node">
<title>0</title>
<ellipse fill="lightblue" stroke="black" cx="939.89" cy="-14.85" rx="14.7" ry="14.7"/>
<text text-anchor="middle" x="939.89" y="-12.65" font-family="Times New Roman,serif" font-size="9.00">0</text>
</g>
<!-- 2 -->
<g id="node23" class="node">
<title>2</title>
<ellipse fill="lightblue" stroke="black" cx="891.89" cy="-14.85" rx="14.7" ry="14.7"/>
<text text-anchor="middle" x="891.89" y="-12.65" font-family="Times New Roman,serif" font-size="9.00">2</text>
</g>
<!-- 3 -->
<g id="node24" class="node">
<title>3</title>
<ellipse fill="lightblue" stroke="black" cx="843.89" cy="-14.85" rx="14.7" ry="14.7"/>
<text text-anchor="middle" x="843.89" y="-12.65" font-family="Times New Roman,serif" font-size="9.00">3</text>
</g>
<!-- 101&#45;&gt;0 -->
<g id="edge156" class="edge">
<title>101&#45;&gt;0</title>
<path fill="none" stroke="red" stroke-width="0.11" d="M863.52,-73.39C879.45,-61.39 903.48,-43.28 920.33,-30.59"/>
<polygon fill="red" stroke="red" stroke-width="0.11" points="922.52,-33.32 928.4,-24.51 918.3,-27.73 922.52,-33.32"/>
</g>
<!-- 101&#45;&gt;1 -->
<g id="edge157" class="edge">
<title>101&#45;&gt;1</title>
<path fill="none" stroke="green" stroke-width="0.31" d="M834.37,-69.66C826.4,-59.33 816.05,-45.9 807.68,-35.04"/>
<polygon fill="green" stroke="green" stroke-width="0.31" points="810.36,-32.77 801.48,-26.99 804.81,-37.05 810.36,-32.77"/>
</g>
<!-- 101&#45;&gt;2 -->
<g id="edge158" class="edge">
<title>101&#45;&gt;2</title>
<path fill="none" stroke="red" stroke-width="0.91" d="M858.02,-68.59C864.23,-58.91 872.02,-46.78 878.56,-36.6"/>
<polygon fill="red" stroke="red" stroke-width="0.91" points="881.68,-38.22 884.14,-27.92 875.79,-34.44 881.68,-38.22"/>
</g>
<!-- 101&#45;&gt;3 -->
<g id="edge159" class="edge">
<title>101&#45;&gt;3</title>
<path fill="none" stroke="red" stroke-width="0.37" d="M846.02,-65.65C845.68,-57.67 845.29,-48.43 844.93,-40.1"/>
<polygon fill="red" stroke="red" stroke-width="0.37" points="848.42,-39.69 844.49,-29.85 841.42,-39.99 848.42,-39.69"/>
</g>
<!-- 101&#45;&gt;4 -->
<g id="edge160" class="edge">
<title>101&#45;&gt;4</title>
<path fill="none" stroke="red" stroke-width="0.28" d="M866.9,-78.94C904.27,-65.91 984.5,-37.95 1024.39,-24.04"/>
<polygon fill="red" stroke="red" stroke-width="0.28" points="1025.76,-27.27 1034.05,-20.67 1023.46,-20.66 1025.76,-27.27"/>
</g>
<!-- 103&#45;&gt;0 -->
<g id="edge161" class="edge">
<title>103&#45;&gt;0</title>
<path fill="none" stroke="red" stroke-width="1.04" d="M803.58,-73.62C807.81,-70.81 812.41,-67.98 816.89,-65.7 858.62,-44.46 873.45,-49.47 915.89,-29.7 916.73,-29.31 917.58,-28.9 918.43,-28.47"/>
<polygon fill="red" stroke="red" stroke-width="1.04" points="920.29,-31.45 927.41,-23.6 916.95,-25.29 920.29,-31.45"/>
</g>
<!-- 103&#45;&gt;1 -->
<g id="edge162" class="edge">
<title>103&#45;&gt;1</title>
<path fill="none" stroke="green" stroke-width="0.42" d="M788.63,-65.65C789.32,-57.58 790.12,-48.23 790.84,-39.82"/>
<polygon fill="green" stroke="green" stroke-width="0.42" points="794.33,-40.11 791.69,-29.85 787.35,-39.52 794.33,-40.11"/>
</g>
<!-- 103&#45;&gt;2 -->
<g id="edge163" class="edge">
<title>103&#45;&gt;2</title>
<path fill="none" stroke="green" stroke-width="0.72" d="M804.01,-74.35C808.22,-71.51 812.72,-68.49 816.89,-65.7 835.29,-53.39 856.28,-39.44 871.37,-29.44"/>
<polygon fill="green" stroke="green" stroke-width="0.72" points="873.52,-32.21 879.93,-23.77 869.66,-26.38 873.52,-32.21"/>
</g>
<!-- 103&#45;&gt;3 -->
<g id="edge164" class="edge">
<title>103&#45;&gt;3</title>
<path fill="none" stroke="red" stroke-width="0.5" d="M799.83,-70.01C808.31,-59.59 819.44,-45.91 828.39,-34.9"/>
<polygon fill="red" stroke="red" stroke-width="0.5" points="831.14,-37.07 834.74,-27.1 825.71,-32.65 831.14,-37.07"/>
</g>
<!-- 103&#45;&gt;4 -->
<g id="edge165" class="edge">
<title>103&#45;&gt;4</title>
<path fill="none" stroke="red" stroke-width="0.24" stroke-dasharray="1,5" d="M803.38,-73.18C807.61,-70.38 812.27,-67.67 816.89,-65.7 854.24,-49.79 971.92,-28.68 1023.39,-19.93"/>
<polygon fill="red" stroke="red" stroke-width="0.24" points="1024.03,-23.37 1033.31,-18.25 1022.87,-16.46 1024.03,-23.37"/>
</g>
<!-- 104&#45;&gt;0 -->
<g id="edge166" class="edge">
<title>104&#45;&gt;0</title>
<path fill="none" stroke="green" stroke-width="0.11" d="M1421.57,-144.09C1424.38,-121.54 1424.79,-85.64 1403.89,-65.7 1342.53,-7.13 1108.01,-40.6 1023.89,-29.7 1003.81,-27.1 981.17,-23.31 964.46,-20.36"/>
<polygon fill="green" stroke="green" stroke-width="0.11" points="964.88,-16.88 954.41,-18.56 963.64,-23.77 964.88,-16.88"/>
</g>
<!-- 104&#45;&gt;1 -->
<g id="edge167" class="edge">
<title>104&#45;&gt;1</title>
<path fill="none" stroke="red" stroke-width="0.26" d="M1398.71,-155.65C1389.52,-151.73 1378.28,-147.28 1367.89,-144.12 1353.01,-139.6 834.55,-34.88 819.89,-29.7 818.22,-29.11 816.52,-28.43 814.83,-27.7"/>
<polygon fill="red" stroke="red" stroke-width="0.26" points="816.02,-24.39 805.49,-23.2 812.97,-30.7 816.02,-24.39"/>
</g>
<!-- 104&#45;&gt;2 -->
<g id="edge168" class="edge">
<title>104&#45;&gt;2</title>
<path fill="none" stroke="red" stroke-width="0.28" stroke-dasharray="1,5" d="M1398.56,-156.1C1389.34,-152.28 1378.12,-147.78 1367.89,-144.12 1257.85,-104.76 1230.42,-93.48 1116.89,-65.7 1028.74,-44.12 1001.14,-60.84 915.89,-29.7 915.02,-29.38 914.15,-29.03 913.27,-28.66"/>
<polygon fill="red" stroke="red" stroke-width="0.28" points="914.7,-25.46 904.2,-24.04 911.52,-31.69 914.7,-25.46"/>
</g>
<!-- 104&#45;&gt;3 -->
<g id="edge169" class="edge">
<title>104&#45;&gt;3</title>
<path fill="none" stroke="green" stroke-width="1.02" d="M1398.55,-156.52C1373.25,-146.14 1327.71,-126.93 1289.89,-108.12 1255.25,-90.9 1250.77,-77.37 1213.89,-65.7 1066.49,-19.06 1014.96,-77.38 867.89,-29.7 866.84,-29.36 865.78,-28.97 864.73,-28.54"/>
<polygon fill="green" stroke="green" stroke-width="1.02" points="866.14,-25.33 855.64,-23.94 862.98,-31.57 866.14,-25.33"/>
</g>
<!-- 104&#45;&gt;4 -->
<g id="edge170" class="edge">
<title>104&#45;&gt;4</title>
<path fill="none" stroke="red" stroke-width="0.56" d="M1436.14,-153.85C1451.03,-144.14 1471,-128.18 1479.89,-108.12 1487.53,-90.89 1492.44,-79.78 1479.89,-65.7 1452.67,-35.16 1161.91,-20.6 1073.35,-16.85"/>
<polygon fill="red" stroke="red" stroke-width="0.56" points="1073.27,-13.35 1063.13,-16.43 1072.98,-20.34 1073.27,-13.35"/>
</g>
<!-- 105&#45;&gt;0 -->
<g id="edge171" class="edge">
<title>105&#45;&gt;0</title>
<path fill="none" stroke="green" stroke-width="0.12" d="M1179.9,-144.15C1174.38,-121.65 1162.22,-85.8 1137.89,-65.7 1124.43,-54.58 1014.39,-31.04 964.42,-20.79"/>
<polygon fill="green" stroke="green" stroke-width="0.12" points="964.95,-17.33 954.45,-18.76 963.55,-24.19 964.95,-17.33"/>
</g>
<!-- 105&#45;&gt;1 -->
<g id="edge172" class="edge">
<title>105&#45;&gt;1</title>
<path fill="none" stroke="green" stroke-width="0.11" d="M1164.55,-156.34C1154.12,-152.26 1140.95,-147.46 1128.89,-144.12 1046.48,-121.3 1018.97,-140.67 939.89,-108.12 908.68,-95.28 905.42,-83.75 876.89,-65.7 855.85,-52.39 831.32,-37.95 814.22,-28.05"/>
<polygon fill="green" stroke="green" stroke-width="0.11" points="815.96,-25.02 805.55,-23.06 812.47,-31.09 815.96,-25.02"/>
</g>
<!-- 105&#45;&gt;2 -->
<g id="edge173" class="edge">
<title>105&#45;&gt;2</title>
<path fill="none" stroke="red" stroke-width="0.16" stroke-dasharray="1,5" d="M1164.85,-155.24C1120.69,-134.04 1008.02,-79.37 915.89,-29.7 915.08,-29.26 914.25,-28.81 913.41,-28.35"/>
<polygon fill="red" stroke="red" stroke-width="0.16" points="914.95,-25.19 904.52,-23.32 911.5,-31.29 914.95,-25.19"/>
</g>
<!-- 105&#45;&gt;3 -->
<g id="edge174" class="edge">
<title>105&#45;&gt;3</title>
<path fill="none" stroke="red" stroke-width="0.34" d="M1164.29,-156.94C1114.11,-137.79 977.27,-84.31 867.89,-29.7 867.06,-29.28 866.22,-28.86 865.38,-28.41"/>
<polygon fill="red" stroke="red" stroke-width="0.34" points="866.89,-25.25 856.44,-23.47 863.5,-31.37 866.89,-25.25"/>
</g>
<!-- 105&#45;&gt;4 -->
<g id="edge175" class="edge">
<title>105&#45;&gt;4</title>
<path fill="none" stroke="red" stroke-width="0.3" d="M1188,-144.43C1191.25,-122.84 1192.83,-88.43 1175.89,-65.7 1151.53,-32.99 1102.6,-21.74 1072.8,-17.87"/>
<polygon fill="red" stroke="red" stroke-width="0.3" points="1073.09,-14.38 1062.76,-16.75 1072.32,-21.34 1073.09,-14.38"/>
</g>
<!-- 1674&#45;&gt;108 -->
<g id="edge198" class="edge">
<title>1674&#45;&gt;108</title>
<path fill="none" stroke="green" stroke-width="0.2" d="M311.82,-233.28C317.64,-229.74 323.98,-225.95 329.89,-222.55 355.51,-207.84 385.21,-191.9 406.29,-180.76"/>
<polygon fill="green" stroke="green" stroke-width="0.2" points="408.1,-183.76 415.32,-176.01 404.84,-177.57 408.1,-183.76"/>
</g>
<!-- 108&#45;&gt;0 -->
<g id="edge176" class="edge">
<title>108&#45;&gt;0</title>
<path fill="none" stroke="green" stroke-width="0.26" d="M450.56,-152C454.79,-149.19 459.4,-146.38 463.89,-144.12 507.25,-122.4 525.74,-133.78 566.89,-108.12 589.67,-93.92 585.69,-77.33 609.89,-65.7 733.32,-6.39 785.92,-72.81 915.89,-29.7 916.77,-29.41 917.65,-29.08 918.53,-28.73"/>
<polygon fill="green" stroke="green" stroke-width="0.26" points="920.25,-31.78 927.64,-24.19 917.13,-25.52 920.25,-31.78"/>
</g>
<!-- 108&#45;&gt;1 -->
<g id="edge177" class="edge">
<title>108&#45;&gt;1</title>
<path fill="none" stroke="red" stroke-width="1.61" d="M423.84,-146.3C413.2,-124.49 400.41,-87.95 419.89,-65.7 442.91,-39.4 687.95,-22.24 767.86,-17.31"/>
<polygon fill="red" stroke="red" stroke-width="1.61" points="768.22,-20.8 777.99,-16.7 767.8,-13.81 768.22,-20.8"/>
</g>
<!-- 108&#45;&gt;2 -->
<g id="edge178" class="edge">
<title>108&#45;&gt;2</title>
<path fill="none" stroke="green" stroke-width="0.25" d="M450.8,-152.44C455.02,-149.61 459.57,-146.68 463.89,-144.12 494.01,-126.32 506.21,-129.51 533.89,-108.12 553.93,-92.65 549.45,-77.4 571.89,-65.7 689.4,-4.42 742.19,-71.66 867.89,-29.7 868.77,-29.41 869.65,-29.08 870.53,-28.72"/>
<polygon fill="green" stroke="green" stroke-width="0.25" points="872.25,-31.78 879.64,-24.18 869.13,-25.51 872.25,-31.78"/>
</g>
<!-- 108&#45;&gt;3 -->
<g id="edge179" class="edge">
<title>108&#45;&gt;3</title>
<path fill="none" stroke="red" stroke-width="0.24" d="M448.57,-149.75C471.86,-127.55 519.71,-85.78 568.89,-65.7 672.01,-23.6 710.79,-63.57 816.89,-29.7 818.77,-29.1 820.68,-28.38 822.57,-27.58"/>
<polygon fill="red" stroke="red" stroke-width="0.24" points="824.13,-30.72 831.62,-23.22 821.1,-24.41 824.13,-30.72"/>
</g>
<!-- 108&#45;&gt;4 -->
<g id="edge180" class="edge">
<title>108&#45;&gt;4</title>
<path fill="none" stroke="red" stroke-width="0.68" d="M450.44,-151.74C454.67,-148.94 459.31,-146.19 463.89,-144.12 521.66,-118.04 542,-128.89 601.89,-108.12 646.35,-92.71 653.59,-78.42 698.89,-65.7 813.33,-33.57 846.35,-47.37 963.89,-29.7 983.91,-26.69 1006.56,-22.93 1023.29,-20.09"/>
<polygon fill="red" stroke="red" stroke-width="0.68" points="1024.08,-23.51 1033.34,-18.38 1022.9,-16.61 1024.08,-23.51"/>
</g>
<!-- 110&#45;&gt;0 -->
<g id="edge181" class="edge">
<title>110&#45;&gt;0</title>
<path fill="none" stroke="green" stroke-width="0.28" d="M514.13,-158.7C545.01,-149.77 605.44,-131.02 653.89,-108.12 686.78,-92.58 689.91,-78.69 723.89,-65.7 804.99,-34.7 834.47,-59.82 915.89,-29.7 916.76,-29.38 917.63,-29.03 918.51,-28.65"/>
<polygon fill="green" stroke="green" stroke-width="0.28" points="920.27,-31.68 927.58,-24.02 917.08,-25.45 920.27,-31.68"/>
</g>
<!-- 110&#45;&gt;1 -->
<g id="edge182" class="edge">
<title>110&#45;&gt;1</title>
<path fill="none" stroke="red" stroke-width="0.17" d="M487.67,-144.71C482.04,-122.73 477.19,-87.35 495.89,-65.7 531.19,-24.83 702.87,-17.46 767.88,-16.14"/>
<polygon fill="red" stroke="red" stroke-width="0.17" points="768.11,-19.63 778.04,-15.96 767.99,-12.63 768.11,-19.63"/>
</g>
<!-- 110&#45;&gt;2 -->
<g id="edge183" class="edge">
<title>110&#45;&gt;2</title>
<path fill="none" stroke="red" stroke-width="0.21" d="M511.41,-153.2C544.3,-132.78 618.12,-89.29 685.89,-65.7 763.77,-38.59 790.7,-58.69 867.89,-29.7 868.76,-29.37 869.63,-29.02 870.5,-28.64"/>
<polygon fill="red" stroke="red" stroke-width="0.21" points="872.27,-31.67 879.57,-23.99 869.07,-25.44 872.27,-31.67"/>
</g>
<!-- 110&#45;&gt;3 -->
<g id="edge184" class="edge">
<title>110&#45;&gt;3</title>
<path fill="none" stroke="green" stroke-width="0.24" d="M509.89,-151.28C536.72,-130.04 593.27,-88.14 647.89,-65.7 718.93,-36.52 744.54,-55.45 816.89,-29.7 818.56,-29.1 820.26,-28.43 821.95,-27.7"/>
<polygon fill="green" stroke="green" stroke-width="0.24" points="823.81,-30.69 831.29,-23.19 820.76,-24.38 823.81,-30.69"/>
</g>
<!-- 110&#45;&gt;4 -->
<g id="edge185" class="edge">
<title>110&#45;&gt;4</title>
<path fill="none" stroke="red" stroke-width="0.25" d="M515.06,-161.52C553.97,-155.74 638.72,-140.26 702.89,-108.12 730.18,-94.46 729,-78.08 756.89,-65.7 763.03,-62.97 954.51,-31.24 1023.46,-19.87"/>
<polygon fill="red" stroke="red" stroke-width="0.25" points="1024.13,-23.31 1033.42,-18.23 1022.99,-16.4 1024.13,-23.31"/>
</g>
<!-- 110&#45;&gt;103 -->
<g id="edge196" class="edge">
<title>110&#45;&gt;103</title>
<path fill="none" stroke="red" stroke-width="0.3" d="M511.09,-152.74C516.58,-149.51 522.81,-146.29 528.89,-144.12 623.48,-110.47 657.31,-141.78 751.89,-108.12 754.84,-107.08 757.82,-105.78 760.73,-104.36"/>
<polygon fill="red" stroke="red" stroke-width="0.3" points="762.56,-107.34 769.69,-99.5 759.23,-101.19 762.56,-107.34"/>
</g>
<!-- 111&#45;&gt;2 -->
<g id="edge186" class="edge">
<title>111&#45;&gt;2</title>
<path fill="none" stroke="green" stroke-width="0.29" d="M962.24,-146.43C947.46,-118.98 919.25,-66.63 903.41,-37.24"/>
<polygon fill="green" stroke="green" stroke-width="0.29" points="906.38,-35.36 898.55,-28.22 900.22,-38.68 906.38,-35.36"/>
</g>
<!-- 111&#45;&gt;4 -->
<g id="edge187" class="edge">
<title>111&#45;&gt;4</title>
<path fill="none" stroke="red" stroke-width="0.13" d="M981.21,-146.13C995.24,-118.72 1021.75,-66.93 1036.77,-37.58"/>
<polygon fill="red" stroke="red" stroke-width="0.13" points="1039.95,-39.05 1041.39,-28.56 1033.72,-35.86 1039.95,-39.05"/>
</g>
<!-- 111&#45;&gt;101 -->
<g id="edge193" class="edge">
<title>111&#45;&gt;101</title>
<path fill="none" stroke="red" stroke-width="0.2" d="M954.25,-153.55C933.24,-140.71 897.95,-119.13 873.6,-104.24"/>
<polygon fill="red" stroke="red" stroke-width="0.2" points="875.21,-101.12 864.85,-98.89 871.56,-107.09 875.21,-101.12"/>
</g>
<!-- 112&#45;&gt;0 -->
<g id="edge188" class="edge">
<title>112&#45;&gt;0</title>
<path fill="none" stroke="green" stroke-width="0.28" d="M1328.56,-145.81C1337.4,-123.87 1347.29,-87.53 1327.89,-65.7 1282.71,-14.85 1091.25,-39.23 1023.89,-29.7 1003.84,-26.86 981.2,-23.09 964.48,-20.21"/>
<polygon fill="green" stroke="green" stroke-width="0.28" points="964.88,-16.72 954.43,-18.45 963.68,-23.62 964.88,-16.72"/>
</g>
<!-- 112&#45;&gt;1 -->
<g id="edge189" class="edge">
<title>112&#45;&gt;1</title>
<path fill="none" stroke="red" stroke-width="0.11" d="M1300.49,-156.26C1289.84,-152.11 1276.32,-147.27 1263.89,-144.12 1159.32,-117.69 1127.8,-137.05 1023.89,-108.12 976.59,-94.96 967.73,-83.3 921.89,-65.7 877.01,-48.46 864.05,-48.71 819.89,-29.7 818.26,-29 816.59,-28.24 814.92,-27.45"/>
<polygon fill="red" stroke="red" stroke-width="0.11" points="816.14,-24.15 805.63,-22.83 813.03,-30.42 816.14,-24.15"/>
</g>
<!-- 112&#45;&gt;2 -->
<g id="edge190" class="edge">
<title>112&#45;&gt;2</title>
<path fill="none" stroke="red" stroke-width="0.37" stroke-dasharray="1,5" d="M1300.21,-157.2C1289.48,-153.31 1275.96,-148.44 1263.89,-144.12 1165.34,-108.93 1141.58,-97.52 1041.89,-65.7 986.41,-47.99 969.52,-52.42 915.89,-29.7 915.04,-29.34 914.18,-28.95 913.32,-28.55"/>
<polygon fill="red" stroke="red" stroke-width="0.37" points="914.77,-25.36 904.3,-23.78 911.5,-31.55 914.77,-25.36"/>
</g>
<!-- 112&#45;&gt;3 -->
<g id="edge191" class="edge">
<title>112&#45;&gt;3</title>
<path fill="none" stroke="red" stroke-width="0.59" d="M1300.25,-157.08C1289.53,-153.16 1276.01,-148.29 1263.89,-144.12 1157.77,-107.64 1132,-95.77 1023.89,-65.7 955.34,-46.63 934.1,-55.77 867.89,-29.7 867.03,-29.36 866.16,-28.99 865.29,-28.6"/>
<polygon fill="red" stroke="red" stroke-width="0.59" points="866.73,-25.41 856.24,-23.91 863.51,-31.62 866.73,-25.41"/>
</g>
<!-- 112&#45;&gt;4 -->
<g id="edge192" class="edge">
<title>112&#45;&gt;4</title>
<path fill="none" stroke="red" stroke-width="0.81" d="M1335.15,-150.59C1355.92,-130.24 1388.12,-91.69 1365.89,-65.7 1328.13,-21.55 1141.93,-16.23 1073.33,-15.79"/>
<polygon fill="red" stroke="red" stroke-width="0.81" points="1073.02,-12.29 1063.01,-15.76 1073,-19.29 1073.02,-12.29"/>
</g>
<!-- 1681&#45;&gt;104 -->
<g id="edge200" class="edge">
<title>1681&#45;&gt;104</title>
<path fill="none" stroke="green" stroke-width="0.17" d="M1604.72,-232.84C1598.8,-229.22 1592.22,-225.49 1585.89,-222.55 1539.51,-201 1482.49,-183.73 1448.23,-174.27"/>
<polygon fill="green" stroke="green" stroke-width="0.17" points="1448.94,-170.83 1438.37,-171.59 1447.1,-177.59 1448.94,-170.83"/>
</g>
</g>
</svg>
