<?xml version="1.0" encoding="UTF-8" standalone="no"?>
<!DOCTYPE svg PUBLIC "-//W3C//DTD SVG 1.1//EN"
 "http://www.w3.org/Graphics/SVG/1.1/DTD/svg11.dtd">
<!-- Generated by graphviz version 2.49.0 (20210828.1703)
 -->
<!-- Pages: 1 -->
<svg width="888pt" height="92pt"
 viewBox="0.00 0.00 888.00 91.70" xmlns="http://www.w3.org/2000/svg" xmlns:xlink="http://www.w3.org/1999/xlink">
<g id="graph0" class="graph" transform="scale(1 1) rotate(0) translate(4 87.7)">
<polygon fill="white" stroke="transparent" points="-4,4 -4,-87.7 884,-87.7 884,4 -4,4"/>
<!-- &#45;1 -->
<g id="node1" class="node">
<title>&#45;1</title>
<polygon fill="lightgray" stroke="black" points="443,-83.7 419,-83.7 419,-65.7 443,-65.7 443,-83.7"/>
<text text-anchor="middle" x="431" y="-72.5" font-family="Times New Roman,serif" font-size="9.00">&#45;1</text>
</g>
<!-- 0 -->
<g id="node21" class="node">
<title>0</title>
<ellipse fill="lightblue" stroke="black" cx="338" cy="-14.85" rx="14.7" ry="14.7"/>
<text text-anchor="middle" x="338" y="-12.65" font-family="Times New Roman,serif" font-size="9.00">0</text>
</g>
<!-- &#45;1&#45;&gt;0 -->
<g id="edge1" class="edge">
<title>&#45;1&#45;&gt;0</title>
<path fill="none" stroke="green" stroke-width="0.18" d="M418.84,-66.14C403.59,-56.65 377.22,-40.24 358.75,-28.76"/>
<polygon fill="green" stroke="green" stroke-width="0.18" points="360.5,-25.72 350.16,-23.41 356.8,-31.67 360.5,-25.72"/>
</g>
<!-- 1 -->
<g id="node22" class="node">
<title>1</title>
<ellipse fill="lightblue" stroke="black" cx="386" cy="-14.85" rx="14.7" ry="14.7"/>
<text text-anchor="middle" x="386" y="-12.65" font-family="Times New Roman,serif" font-size="9.00">1</text>
</g>
<!-- &#45;1&#45;&gt;1 -->
<g id="edge2" class="edge">
<title>&#45;1&#45;&gt;1</title>
<path fill="none" stroke="green" stroke-width="0.17" d="M424.74,-65.65C418.63,-57.8 409.09,-45.53 401.01,-35.14"/>
<polygon fill="green" stroke="green" stroke-width="0.17" points="403.57,-32.74 394.67,-26.99 398.05,-37.04 403.57,-32.74"/>
</g>
<!-- 2 -->
<g id="node23" class="node">
<title>2</title>
<ellipse fill="lightblue" stroke="black" cx="530" cy="-14.85" rx="14.7" ry="14.7"/>
<text text-anchor="middle" x="530" y="-12.65" font-family="Times New Roman,serif" font-size="9.00">2</text>
</g>
<!-- &#45;1&#45;&gt;2 -->
<g id="edge3" class="edge">
<title>&#45;1&#45;&gt;2</title>
<path fill="none" stroke="red" stroke-width="0.55" d="M443.14,-66.61C459.45,-57.07 488.71,-39.98 508.72,-28.28"/>
<polygon fill="red" stroke="red" stroke-width="0.55" points="510.58,-31.25 517.45,-23.18 507.05,-25.21 510.58,-31.25"/>
</g>
<!-- 3 -->
<g id="node24" class="node">
<title>3</title>
<ellipse fill="lightblue" stroke="black" cx="482" cy="-14.85" rx="14.7" ry="14.7"/>
<text text-anchor="middle" x="482" y="-12.65" font-family="Times New Roman,serif" font-size="9.00">3</text>
</g>
<!-- &#45;1&#45;&gt;3 -->
<g id="edge4" class="edge">
<title>&#45;1&#45;&gt;3</title>
<path fill="none" stroke="green" stroke-width="0.64" d="M438.09,-65.65C445.25,-57.54 456.54,-44.73 465.88,-34.13"/>
<polygon fill="green" stroke="green" stroke-width="0.64" points="468.55,-36.39 472.54,-26.58 463.3,-31.76 468.55,-36.39"/>
</g>
<!-- 4 -->
<g id="node25" class="node">
<title>4</title>
<ellipse fill="lightblue" stroke="black" cx="434" cy="-14.85" rx="14.7" ry="14.7"/>
<text text-anchor="middle" x="434" y="-12.65" font-family="Times New Roman,serif" font-size="9.00">4</text>
</g>
<!-- &#45;1&#45;&gt;4 -->
<g id="edge5" class="edge">
<title>&#45;1&#45;&gt;4</title>
<path fill="none" stroke="red" stroke-width="0.45" d="M431.42,-65.65C431.76,-59.05 432.26,-49.33 432.74,-40.23"/>
<polygon fill="red" stroke="red" stroke-width="0.45" points="436.24,-40.22 433.26,-30.06 429.25,-39.86 436.24,-40.22"/>
</g>
<!-- &#45;2 -->
<g id="node2" class="node">
<title>&#45;2</title>
<polygon fill="lightgray" stroke="black" points="880,-83.7 856,-83.7 856,-65.7 880,-65.7 880,-83.7"/>
<text text-anchor="middle" x="868" y="-72.5" font-family="Times New Roman,serif" font-size="9.00">&#45;2</text>
</g>
<!-- &#45;2&#45;&gt;1 -->
<g id="edge6" class="edge">
<title>&#45;2&#45;&gt;1</title>
<path fill="none" stroke="green" stroke-width="0.56" d="M855.74,-68.37C852.92,-67.33 849.89,-66.35 847,-65.7 656.95,-22.58 596.02,-87.81 410,-29.7 408.94,-29.37 407.88,-28.99 406.83,-28.56"/>
<polygon fill="green" stroke="green" stroke-width="0.56" points="408.24,-25.35 397.73,-23.99 405.09,-31.61 408.24,-25.35"/>
</g>
<!-- &#45;2&#45;&gt;2 -->
<g id="edge7" class="edge">
<title>&#45;2&#45;&gt;2</title>
<path fill="none" stroke="green" stroke-width="0.29" d="M855.7,-68.53C852.88,-67.48 849.87,-66.46 847,-65.7 740.22,-37.29 608.62,-22.98 554.75,-17.97"/>
<polygon fill="green" stroke="green" stroke-width="0.29" points="555.03,-14.49 544.76,-17.07 554.4,-21.46 555.03,-14.49"/>
</g>
<!-- &#45;2&#45;&gt;3 -->
<g id="edge8" class="edge">
<title>&#45;2&#45;&gt;3</title>
<path fill="none" stroke="green" stroke-width="0.31" d="M855.73,-68.42C852.91,-67.37 849.88,-66.39 847,-65.7 698.78,-30.28 650.93,-76.81 506,-29.7 504.95,-29.36 503.89,-28.96 502.84,-28.53"/>
<polygon fill="green" stroke="green" stroke-width="0.31" points="504.25,-25.32 493.75,-23.93 501.09,-31.57 504.25,-25.32"/>
</g>
<!-- &#45;2&#45;&gt;4 -->
<g id="edge9" class="edge">
<title>&#45;2&#45;&gt;4</title>
<path fill="none" stroke="green" stroke-width="0.39" d="M855.74,-68.39C852.91,-67.35 849.89,-66.37 847,-65.7 677.87,-26.43 623.47,-82.31 458,-29.7 456.95,-29.36 455.89,-28.98 454.83,-28.55"/>
<polygon fill="green" stroke="green" stroke-width="0.39" points="456.24,-25.34 445.74,-23.97 453.09,-31.59 456.24,-25.34"/>
</g>
<!-- &#45;3 -->
<g id="node3" class="node">
<title>&#45;3</title>
<polygon fill="lightgray" stroke="black" points="485,-83.7 461,-83.7 461,-65.7 485,-65.7 485,-83.7"/>
<text text-anchor="middle" x="473" y="-72.5" font-family="Times New Roman,serif" font-size="9.00">&#45;3</text>
</g>
<!-- &#45;3&#45;&gt;0 -->
<g id="edge10" class="edge">
<title>&#45;3&#45;&gt;0</title>
<path fill="none" stroke="green" stroke-width="0.12" d="M460.73,-68.95C433.83,-58.53 371.33,-34.21 362,-29.7 361.17,-29.3 360.32,-28.87 359.47,-28.44"/>
<polygon fill="green" stroke="green" stroke-width="0.12" points="360.97,-25.27 350.52,-23.53 357.61,-31.41 360.97,-25.27"/>
</g>
<!-- &#45;3&#45;&gt;1 -->
<g id="edge11" class="edge">
<title>&#45;3&#45;&gt;1</title>
<path fill="none" stroke="green" stroke-width="0.28" d="M460.9,-65.65C446.88,-56.33 423.53,-40.8 406.62,-29.56"/>
<polygon fill="green" stroke="green" stroke-width="0.28" points="408.26,-26.45 397.99,-23.82 404.38,-32.28 408.26,-26.45"/>
</g>
<!-- &#45;3&#45;&gt;2 -->
<g id="edge12" class="edge">
<title>&#45;3&#45;&gt;2</title>
<path fill="none" stroke="red" stroke-width="0.16" d="M480.93,-65.65C489.1,-57.36 502.1,-44.16 512.67,-33.44"/>
<polygon fill="red" stroke="red" stroke-width="0.16" points="515.31,-35.75 519.83,-26.17 510.32,-30.83 515.31,-35.75"/>
</g>
<!-- &#45;3&#45;&gt;3 -->
<g id="edge13" class="edge">
<title>&#45;3&#45;&gt;3</title>
<path fill="none" stroke="green" stroke-width="0.56" d="M474.25,-65.65C475.3,-58.89 476.86,-48.86 478.31,-39.57"/>
<polygon fill="green" stroke="green" stroke-width="0.56" points="481.78,-40.02 479.86,-29.6 474.86,-38.95 481.78,-40.02"/>
</g>
<!-- &#45;3&#45;&gt;4 -->
<g id="edge14" class="edge">
<title>&#45;3&#45;&gt;4</title>
<path fill="none" stroke="green" stroke-width="0.27" d="M467.58,-65.65C462.46,-58.07 454.58,-46.37 447.74,-36.22"/>
<polygon fill="green" stroke="green" stroke-width="0.27" points="450.58,-34.18 442.09,-27.84 444.77,-38.09 450.58,-34.18"/>
</g>
<!-- &#45;4 -->
<g id="node4" class="node">
<title>&#45;4</title>
<polygon fill="lightgray" stroke="black" points="527,-83.7 503,-83.7 503,-65.7 527,-65.7 527,-83.7"/>
<text text-anchor="middle" x="515" y="-72.5" font-family="Times New Roman,serif" font-size="9.00">&#45;4</text>
</g>
<!-- &#45;4&#45;&gt;0 -->
<g id="edge15" class="edge">
<title>&#45;4&#45;&gt;0</title>
<path fill="none" stroke="red" stroke-width="0.58" d="M502.63,-68.76C499.82,-67.7 496.82,-66.62 494,-65.7 436.18,-46.85 418.13,-53.09 362,-29.7 361.15,-29.34 360.28,-28.96 359.42,-28.56"/>
<polygon fill="red" stroke="red" stroke-width="0.58" points="360.87,-25.37 350.39,-23.81 357.61,-31.57 360.87,-25.37"/>
</g>
<!-- &#45;4&#45;&gt;1 -->
<g id="edge16" class="edge">
<title>&#45;4&#45;&gt;1</title>
<path fill="none" stroke="green" stroke-width="0.38" d="M502.9,-68.85C479.15,-59.31 427.27,-38.26 410,-29.7 409.17,-29.29 408.33,-28.86 407.48,-28.42"/>
<polygon fill="green" stroke="green" stroke-width="0.38" points="408.99,-25.25 398.54,-23.49 405.61,-31.38 408.99,-25.25"/>
</g>
<!-- &#45;4&#45;&gt;2 -->
<g id="edge17" class="edge">
<title>&#45;4&#45;&gt;2</title>
<path fill="none" stroke="green" stroke-width="0.35" d="M517.09,-65.65C518.84,-58.89 521.44,-48.86 523.85,-39.57"/>
<polygon fill="green" stroke="green" stroke-width="0.35" points="527.31,-40.16 526.43,-29.6 520.54,-38.41 527.31,-40.16"/>
</g>
<!-- &#45;4&#45;&gt;3 -->
<g id="edge18" class="edge">
<title>&#45;4&#45;&gt;3</title>
<path fill="none" stroke="green" stroke-width="0.27" d="M510.41,-65.65C506.22,-58.31 499.85,-47.13 494.19,-37.22"/>
<polygon fill="green" stroke="green" stroke-width="0.27" points="497.08,-35.23 489.09,-28.28 491,-38.7 497.08,-35.23"/>
</g>
<!-- &#45;4&#45;&gt;4 -->
<g id="edge19" class="edge">
<title>&#45;4&#45;&gt;4</title>
<path fill="none" stroke="green" stroke-width="0.27" d="M503.74,-65.65C490.95,-56.52 469.82,-41.43 454.17,-30.26"/>
<polygon fill="green" stroke="green" stroke-width="0.27" points="455.86,-27.16 445.69,-24.2 451.8,-32.86 455.86,-27.16"/>
</g>
<!-- &#45;5 -->
<g id="node5" class="node">
<title>&#45;5</title>
<polygon fill="lightgray" stroke="black" points="790,-83.7 766,-83.7 766,-65.7 790,-65.7 790,-83.7"/>
<text text-anchor="middle" x="778" y="-72.5" font-family="Times New Roman,serif" font-size="9.00">&#45;5</text>
</g>
<!-- &#45;5&#45;&gt;0 -->
<g id="edge20" class="edge">
<title>&#45;5&#45;&gt;0</title>
<path fill="none" stroke="green" stroke-width="0.13" d="M765.74,-68.39C762.91,-67.34 759.89,-66.37 757,-65.7 585.26,-25.95 530.03,-82.99 362,-29.7 360.95,-29.36 359.89,-28.98 358.83,-28.55"/>
<polygon fill="green" stroke="green" stroke-width="0.13" points="360.24,-25.34 349.73,-23.97 357.09,-31.59 360.24,-25.34"/>
</g>
<!-- &#45;5&#45;&gt;2 -->
<g id="edge21" class="edge">
<title>&#45;5&#45;&gt;2</title>
<path fill="none" stroke="green" stroke-width="0.61" stroke-dasharray="1,5" d="M765.67,-68.65C762.85,-67.6 759.84,-66.55 757,-65.7 684.6,-44.09 596.65,-27.42 554.65,-20.03"/>
<polygon fill="green" stroke="green" stroke-width="0.61" points="554.98,-16.53 544.53,-18.27 553.78,-23.43 554.98,-16.53"/>
</g>
<!-- &#45;5&#45;&gt;3 -->
<g id="edge22" class="edge">
<title>&#45;5&#45;&gt;3</title>
<path fill="none" stroke="red" stroke-width="0.33" d="M765.71,-68.5C762.89,-67.45 759.87,-66.44 757,-65.7 647.9,-37.47 612.51,-66.53 506,-29.7 505.12,-29.4 504.25,-29.06 503.37,-28.7"/>
<polygon fill="red" stroke="red" stroke-width="0.33" points="504.78,-25.49 494.27,-24.13 501.64,-31.75 504.78,-25.49"/>
</g>
<!-- &#45;5&#45;&gt;4 -->
<g id="edge23" class="edge">
<title>&#45;5&#45;&gt;4</title>
<path fill="none" stroke="red" stroke-width="0.34" d="M765.72,-68.45C762.9,-67.4 759.88,-66.41 757,-65.7 627.05,-33.64 584.99,-72.01 458,-29.7 457.12,-29.41 456.24,-29.08 455.36,-28.72"/>
<polygon fill="red" stroke="red" stroke-width="0.34" points="456.76,-25.51 446.25,-24.19 453.64,-31.78 456.76,-25.51"/>
</g>
<!-- &#45;6 -->
<g id="node6" class="node">
<title>&#45;6</title>
<polygon fill="lightgray" stroke="black" points="569,-83.7 545,-83.7 545,-65.7 569,-65.7 569,-83.7"/>
<text text-anchor="middle" x="557" y="-72.5" font-family="Times New Roman,serif" font-size="9.00">&#45;6</text>
</g>
<!-- &#45;6&#45;&gt;0 -->
<g id="edge24" class="edge">
<title>&#45;6&#45;&gt;0</title>
<path fill="none" stroke="green" stroke-width="0.54" d="M544.68,-68.63C541.85,-67.57 538.85,-66.53 536,-65.7 460.19,-43.57 435.81,-57.79 362,-29.7 361.13,-29.37 360.26,-29.01 359.39,-28.63"/>
<polygon fill="green" stroke="green" stroke-width="0.54" points="360.82,-25.43 350.33,-23.97 357.62,-31.66 360.82,-25.43"/>
</g>
<!-- &#45;6&#45;&gt;1 -->
<g id="edge25" class="edge">
<title>&#45;6&#45;&gt;1</title>
<path fill="none" stroke="green" stroke-width="0.36" d="M544.63,-68.78C541.81,-67.72 538.81,-66.63 536,-65.7 480.74,-47.31 463.62,-52.42 410,-29.7 409.15,-29.34 408.29,-28.95 407.43,-28.55"/>
<polygon fill="green" stroke="green" stroke-width="0.36" points="408.88,-25.36 398.41,-23.78 405.61,-31.55 408.88,-25.36"/>
</g>
<!-- &#45;6&#45;&gt;2 -->
<g id="edge26" class="edge">
<title>&#45;6&#45;&gt;2</title>
<path fill="none" stroke="green" stroke-width="0.16" d="M553.25,-65.65C549.9,-58.48 544.84,-47.64 540.3,-37.91"/>
<polygon fill="green" stroke="green" stroke-width="0.16" points="543.41,-36.3 536,-28.71 537.06,-39.26 543.41,-36.3"/>
</g>
<!-- &#45;6&#45;&gt;3 -->
<g id="edge27" class="edge">
<title>&#45;6&#45;&gt;3</title>
<path fill="none" stroke="red" stroke-width="0.26" d="M546.57,-65.65C534.97,-56.71 515.97,-42.05 501.58,-30.95"/>
<polygon fill="red" stroke="red" stroke-width="0.26" points="503.38,-27.92 493.32,-24.58 499.1,-33.46 503.38,-27.92"/>
</g>
<!-- &#45;6&#45;&gt;4 -->
<g id="edge28" class="edge">
<title>&#45;6&#45;&gt;4</title>
<path fill="none" stroke="red" stroke-width="0.18" d="M544.92,-68.81C526.08,-61.09 488.68,-45.31 458,-29.7 457.17,-29.28 456.34,-28.84 455.5,-28.4"/>
<polygon fill="red" stroke="red" stroke-width="0.18" points="457.01,-25.23 446.57,-23.43 453.61,-31.35 457.01,-25.23"/>
</g>
<!-- &#45;7 -->
<g id="node7" class="node">
<title>&#45;7</title>
<polygon fill="lightgray" stroke="black" points="611,-83.7 587,-83.7 587,-65.7 611,-65.7 611,-83.7"/>
<text text-anchor="middle" x="599" y="-72.5" font-family="Times New Roman,serif" font-size="9.00">&#45;7</text>
</g>
<!-- &#45;7&#45;&gt;0 -->
<g id="edge29" class="edge">
<title>&#45;7&#45;&gt;0</title>
<path fill="none" stroke="red" stroke-width="0.47" d="M586.7,-68.55C583.88,-67.49 580.86,-66.47 578,-65.7 484.06,-40.25 453.61,-62.55 362,-29.7 361.13,-29.39 360.25,-29.04 359.38,-28.67"/>
<polygon fill="red" stroke="red" stroke-width="0.47" points="360.8,-25.47 350.29,-24.07 357.63,-31.71 360.8,-25.47"/>
</g>
<!-- &#45;7&#45;&gt;1 -->
<g id="edge30" class="edge">
<title>&#45;7&#45;&gt;1</title>
<path fill="none" stroke="red" stroke-width="0.26" d="M586.67,-68.64C583.85,-67.59 580.84,-66.54 578,-65.7 504.77,-44.04 481.27,-57.12 410,-29.7 409.14,-29.37 408.27,-29.01 407.4,-28.62"/>
<polygon fill="red" stroke="red" stroke-width="0.26" points="408.83,-25.42 398.34,-23.95 405.62,-31.64 408.83,-25.42"/>
</g>
<!-- &#45;7&#45;&gt;2 -->
<g id="edge31" class="edge">
<title>&#45;7&#45;&gt;2</title>
<path fill="none" stroke="red" stroke-width="0.4" d="M589.41,-65.65C578.96,-56.89 561.98,-42.66 548.85,-31.65"/>
<polygon fill="red" stroke="red" stroke-width="0.4" points="550.79,-28.71 540.88,-24.97 546.29,-34.07 550.79,-28.71"/>
</g>
<!-- &#45;7&#45;&gt;3 -->
<g id="edge32" class="edge">
<title>&#45;7&#45;&gt;3</title>
<path fill="none" stroke="green" stroke-width="0.31" d="M586.81,-68.31C568.89,-60.31 534.48,-44.62 506,-29.7 505.18,-29.27 504.35,-28.83 503.51,-28.37"/>
<polygon fill="green" stroke="green" stroke-width="0.31" points="505.03,-25.21 494.6,-23.38 501.61,-31.32 505.03,-25.21"/>
</g>
<!-- &#45;7&#45;&gt;4 -->
<g id="edge33" class="edge">
<title>&#45;7&#45;&gt;4</title>
<path fill="none" stroke="green" stroke-width="0.34" d="M586.62,-68.81C583.8,-67.75 580.81,-66.65 578,-65.7 525.28,-47.78 509.12,-51.76 458,-29.7 457.15,-29.33 456.29,-28.94 455.43,-28.53"/>
<polygon fill="green" stroke="green" stroke-width="0.34" points="456.89,-25.35 446.42,-23.75 453.61,-31.53 456.89,-25.35"/>
</g>
<!-- &#45;8 -->
<g id="node8" class="node">
<title>&#45;8</title>
<polygon fill="lightgray" stroke="black" points="24,-83.7 0,-83.7 0,-65.7 24,-65.7 24,-83.7"/>
<text text-anchor="middle" x="12" y="-72.5" font-family="Times New Roman,serif" font-size="9.00">&#45;8</text>
</g>
<!-- &#45;8&#45;&gt;0 -->
<g id="edge34" class="edge">
<title>&#45;8&#45;&gt;0</title>
<path fill="none" stroke="red" stroke-width="0.64" d="M24.3,-68.54C27.12,-67.49 30.14,-66.47 33,-65.7 135.06,-38.22 260.64,-23.51 313.12,-18.19"/>
<polygon fill="red" stroke="red" stroke-width="0.64" points="313.57,-21.67 323.17,-17.2 312.88,-14.7 313.57,-21.67"/>
</g>
<!-- &#45;8&#45;&gt;1 -->
<g id="edge35" class="edge">
<title>&#45;8&#45;&gt;1</title>
<path fill="none" stroke="red" stroke-width="0.3" d="M24.27,-68.43C27.1,-67.38 30.12,-66.39 33,-65.7 176,-31.24 222.2,-75.44 362,-29.7 362.88,-29.41 363.76,-29.09 364.64,-28.74"/>
<polygon fill="red" stroke="red" stroke-width="0.3" points="366.36,-31.79 373.76,-24.21 363.24,-25.52 366.36,-31.79"/>
</g>
<!-- &#45;8&#45;&gt;3 -->
<g id="edge36" class="edge">
<title>&#45;8&#45;&gt;3</title>
<path fill="none" stroke="green" stroke-width="0.22" d="M24.26,-68.37C27.08,-67.33 30.11,-66.36 33,-65.7 217.82,-23.55 277.12,-86.43 458,-29.7 459.06,-29.37 460.12,-28.98 461.17,-28.56"/>
<polygon fill="green" stroke="green" stroke-width="0.22" points="462.91,-31.6 470.27,-23.99 459.76,-25.35 462.91,-31.6"/>
</g>
<!-- &#45;8&#45;&gt;4 -->
<g id="edge37" class="edge">
<title>&#45;8&#45;&gt;4</title>
<path fill="none" stroke="red" stroke-width="0.14" d="M24.26,-68.4C27.09,-67.35 30.11,-66.37 33,-65.7 196.9,-27.39 249.67,-80.93 410,-29.7 411.05,-29.36 412.11,-28.97 413.17,-28.55"/>
<polygon fill="red" stroke="red" stroke-width="0.14" points="414.91,-31.59 422.26,-23.96 411.76,-25.34 414.91,-31.59"/>
</g>
<!-- &#45;9 -->
<g id="node9" class="node">
<title>&#45;9</title>
<polygon fill="lightgray" stroke="black" points="653,-83.7 629,-83.7 629,-65.7 653,-65.7 653,-83.7"/>
<text text-anchor="middle" x="641" y="-72.5" font-family="Times New Roman,serif" font-size="9.00">&#45;9</text>
</g>
<!-- &#45;9&#45;&gt;0 -->
<g id="edge38" class="edge">
<title>&#45;9&#45;&gt;0</title>
<path fill="none" stroke="red" stroke-width="0.13" d="M628.71,-68.49C625.89,-67.44 622.87,-66.44 620,-65.7 507.86,-36.91 471.49,-67.33 362,-29.7 361.12,-29.4 360.24,-29.06 359.37,-28.7"/>
<polygon fill="red" stroke="red" stroke-width="0.13" points="360.78,-25.49 350.27,-24.14 357.64,-31.75 360.78,-25.49"/>
</g>
<!-- &#45;9&#45;&gt;1 -->
<g id="edge39" class="edge">
<title>&#45;9&#45;&gt;1</title>
<path fill="none" stroke="red" stroke-width="0.19" d="M628.7,-68.55C625.87,-67.5 622.86,-66.48 620,-65.7 528.66,-40.73 499.06,-61.86 410,-29.7 409.13,-29.38 408.25,-29.04 407.38,-28.67"/>
<polygon fill="red" stroke="red" stroke-width="0.19" points="408.8,-25.46 398.3,-24.06 405.63,-31.71 408.8,-25.46"/>
</g>
<!-- &#45;9&#45;&gt;2 -->
<g id="edge40" class="edge">
<title>&#45;9&#45;&gt;2</title>
<path fill="none" stroke="green" stroke-width="0.16" d="M628.7,-67.29C610.23,-57.66 575.05,-39.33 552.06,-27.35"/>
<polygon fill="green" stroke="green" stroke-width="0.16" points="553.53,-24.17 543.04,-22.65 550.29,-30.37 553.53,-24.17"/>
</g>
<!-- &#45;9&#45;&gt;3 -->
<g id="edge41" class="edge">
<title>&#45;9&#45;&gt;3</title>
<path fill="none" stroke="red" stroke-width="0.2" d="M628.61,-68.84C625.79,-67.77 622.8,-66.67 620,-65.7 569.82,-48.23 554.63,-51.1 506,-29.7 505.15,-29.33 504.3,-28.93 503.44,-28.52"/>
<polygon fill="red" stroke="red" stroke-width="0.2" points="504.91,-25.33 494.44,-23.71 501.61,-31.51 504.91,-25.33"/>
</g>
<!-- &#45;9&#45;&gt;4 -->
<g id="edge42" class="edge">
<title>&#45;9&#45;&gt;4</title>
<path fill="none" stroke="red" stroke-width="0.38" d="M628.67,-68.66C625.84,-67.6 622.84,-66.55 620,-65.7 549.35,-44.51 526.74,-56.44 458,-29.7 457.14,-29.36 456.27,-29 455.4,-28.61"/>
<polygon fill="red" stroke="red" stroke-width="0.38" points="456.83,-25.42 446.34,-23.93 453.62,-31.63 456.83,-25.42"/>
</g>
<!-- &#45;10 -->
<g id="node10" class="node">
<title>&#45;10</title>
<polygon fill="lightgray" stroke="black" points="700.5,-83.7 671.5,-83.7 671.5,-65.7 700.5,-65.7 700.5,-83.7"/>
<text text-anchor="middle" x="686" y="-72.5" font-family="Times New Roman,serif" font-size="9.00">&#45;10</text>
</g>
<!-- &#45;10&#45;&gt;0 -->
<g id="edge43" class="edge">
<title>&#45;10&#45;&gt;0</title>
<path fill="none" stroke="green" stroke-width="0.28" d="M671.41,-68.31C668.33,-67.33 665.09,-66.39 662,-65.7 530.96,-36.32 489.41,-72.12 362,-29.7 361.12,-29.41 360.24,-29.08 359.36,-28.72"/>
<polygon fill="green" stroke="green" stroke-width="0.28" points="360.76,-25.51 350.25,-24.19 357.64,-31.78 360.76,-25.51"/>
</g>
<!-- &#45;10&#45;&gt;1 -->
<g id="edge44" class="edge">
<title>&#45;10&#45;&gt;1</title>
<path fill="none" stroke="green" stroke-width="0.65" d="M671.4,-68.37C668.32,-67.38 665.08,-66.43 662,-65.7 551.89,-39.7 516.94,-66.64 410,-29.7 409.12,-29.4 408.25,-29.06 407.37,-28.7"/>
<polygon fill="green" stroke="green" stroke-width="0.65" points="408.78,-25.49 398.27,-24.13 405.64,-31.75 408.78,-25.49"/>
</g>
<!-- &#45;10&#45;&gt;2 -->
<g id="edge45" class="edge">
<title>&#45;10&#45;&gt;2</title>
<path fill="none" stroke="green" stroke-width="0.74" d="M671.32,-68.26C644.22,-58.21 586.11,-36.66 553.48,-24.56"/>
<polygon fill="green" stroke="green" stroke-width="0.74" points="554.44,-21.18 543.85,-20.99 552.01,-27.74 554.44,-21.18"/>
</g>
<!-- &#45;10&#45;&gt;3 -->
<g id="edge46" class="edge">
<title>&#45;10&#45;&gt;3</title>
<path fill="none" stroke="green" stroke-width="0.42" d="M671.35,-68.57C668.27,-67.56 665.04,-66.55 662,-65.7 593.5,-46.43 572.21,-55.77 506,-29.7 505.14,-29.36 504.27,-28.99 503.4,-28.6"/>
<polygon fill="green" stroke="green" stroke-width="0.42" points="504.84,-25.41 494.35,-23.91 501.62,-31.62 504.84,-25.41"/>
</g>
<!-- &#45;10&#45;&gt;4 -->
<g id="edge47" class="edge">
<title>&#45;10&#45;&gt;4</title>
<path fill="none" stroke="green" stroke-width="0.22" d="M671.38,-68.44C668.3,-67.45 665.07,-66.48 662,-65.7 572.75,-43.08 544.52,-61.18 458,-29.7 457.13,-29.38 456.25,-29.03 455.38,-28.66"/>
<polygon fill="green" stroke="green" stroke-width="0.22" points="456.8,-25.46 446.3,-24.04 453.63,-31.7 456.8,-25.46"/>
</g>
<!-- &#45;11 -->
<g id="node11" class="node">
<title>&#45;11</title>
<polygon fill="lightgray" stroke="black" points="747.5,-83.7 718.5,-83.7 718.5,-65.7 747.5,-65.7 747.5,-83.7"/>
<text text-anchor="middle" x="733" y="-72.5" font-family="Times New Roman,serif" font-size="9.00">&#45;11</text>
</g>
<!-- &#45;11&#45;&gt;0 -->
<g id="edge48" class="edge">
<title>&#45;11&#45;&gt;0</title>
<path fill="none" stroke="red" stroke-width="0.13" d="M718.05,-67.94C715.4,-67.08 712.64,-66.29 710,-65.7 558.22,-31.93 509.93,-77.61 362,-29.7 360.95,-29.36 359.89,-28.97 358.84,-28.54"/>
<polygon fill="red" stroke="red" stroke-width="0.13" points="360.25,-25.33 349.75,-23.94 357.09,-31.57 360.25,-25.33"/>
</g>
<!-- &#45;11&#45;&gt;1 -->
<g id="edge49" class="edge">
<title>&#45;11&#45;&gt;1</title>
<path fill="none" stroke="green" stroke-width="0.47" stroke-dasharray="1,5" d="M718.04,-67.98C715.39,-67.11 712.64,-66.31 710,-65.7 579.16,-35.46 537.41,-72.12 410,-29.7 409.12,-29.41 408.24,-29.08 407.36,-28.72"/>
<polygon fill="green" stroke="green" stroke-width="0.47" points="408.76,-25.51 398.25,-24.19 405.64,-31.78 408.76,-25.51"/>
</g>
<!-- &#45;11&#45;&gt;2 -->
<g id="edge50" class="edge">
<title>&#45;11&#45;&gt;2</title>
<path fill="none" stroke="red" stroke-width="0.83" d="M718.45,-68.48C715.65,-67.52 712.74,-66.55 710,-65.7 654.74,-48.45 589.01,-31.02 554.29,-22.04"/>
<polygon fill="red" stroke="red" stroke-width="0.83" points="555.12,-18.64 544.56,-19.54 553.37,-25.42 555.12,-18.64"/>
</g>
<!-- &#45;11&#45;&gt;3 -->
<g id="edge51" class="edge">
<title>&#45;11&#45;&gt;3</title>
<path fill="none" stroke="green" stroke-width="0.3" d="M718.01,-68.1C715.37,-67.22 712.62,-66.38 710,-65.7 620.9,-42.5 592.52,-61.18 506,-29.7 505.13,-29.38 504.25,-29.03 503.38,-28.66"/>
<polygon fill="green" stroke="green" stroke-width="0.3" points="504.8,-25.46 494.3,-24.04 501.63,-31.7 504.8,-25.46"/>
</g>
<!-- &#45;11&#45;&gt;4 -->
<g id="edge52" class="edge">
<title>&#45;11&#45;&gt;4</title>
<path fill="none" stroke="green" stroke-width="0.34" d="M718.03,-68.03C715.38,-67.16 712.63,-66.34 710,-65.7 600.06,-38.99 564.94,-66.64 458,-29.7 457.12,-29.4 456.25,-29.06 455.37,-28.7"/>
<polygon fill="green" stroke="green" stroke-width="0.34" points="456.78,-25.49 446.27,-24.13 453.64,-31.75 456.78,-25.49"/>
</g>
<!-- &#45;12 -->
<g id="node12" class="node">
<title>&#45;12</title>
<polygon fill="lightgray" stroke="black" points="71.5,-83.7 42.5,-83.7 42.5,-65.7 71.5,-65.7 71.5,-83.7"/>
<text text-anchor="middle" x="57" y="-72.5" font-family="Times New Roman,serif" font-size="9.00">&#45;12</text>
</g>
<!-- &#45;12&#45;&gt;0 -->
<g id="edge53" class="edge">
<title>&#45;12&#45;&gt;0</title>
<path fill="none" stroke="red" stroke-width="0.22" d="M71.5,-68.3C74.3,-67.36 77.22,-66.45 80,-65.7 164.42,-42.99 267.03,-26.34 313.28,-19.41"/>
<polygon fill="red" stroke="red" stroke-width="0.22" points="313.9,-22.86 323.28,-17.93 312.88,-15.93 313.9,-22.86"/>
</g>
<!-- &#45;12&#45;&gt;1 -->
<g id="edge54" class="edge">
<title>&#45;12&#45;&gt;1</title>
<path fill="none" stroke="red" stroke-width="0.18" d="M71.96,-67.99C74.61,-67.13 77.37,-66.32 80,-65.7 203,-36.79 242.27,-70.06 362,-29.7 362.88,-29.4 363.76,-29.07 364.64,-28.72"/>
<polygon fill="red" stroke="red" stroke-width="0.18" points="366.36,-31.77 373.74,-24.17 363.23,-25.51 366.36,-31.77"/>
</g>
<!-- &#45;12&#45;&gt;2 -->
<g id="edge55" class="edge">
<title>&#45;12&#45;&gt;2</title>
<path fill="none" stroke="red" stroke-width="0.34" d="M71.94,-67.9C74.59,-67.04 77.35,-66.26 80,-65.7 265.85,-26.18 324.7,-86.55 506,-29.7 507.06,-29.37 508.12,-28.98 509.17,-28.56"/>
<polygon fill="red" stroke="red" stroke-width="0.34" points="510.91,-31.61 518.27,-23.99 507.76,-25.35 510.91,-31.61"/>
</g>
<!-- &#45;12&#45;&gt;3 -->
<g id="edge56" class="edge">
<title>&#45;12&#45;&gt;3</title>
<path fill="none" stroke="green" stroke-width="0.35" d="M71.95,-67.92C74.6,-67.06 77.36,-66.28 80,-65.7 244.88,-29.72 297.24,-81.05 458,-29.7 459.05,-29.36 460.11,-28.97 461.17,-28.55"/>
<polygon fill="green" stroke="green" stroke-width="0.35" points="462.91,-31.59 470.26,-23.96 459.76,-25.34 462.91,-31.59"/>
</g>
<!-- &#45;12&#45;&gt;4 -->
<g id="edge57" class="edge">
<title>&#45;12&#45;&gt;4</title>
<path fill="none" stroke="green" stroke-width="0.44" d="M71.95,-67.95C74.6,-67.09 77.36,-66.29 80,-65.7 223.93,-33.26 269.77,-75.55 410,-29.7 410.88,-29.41 411.76,-29.09 412.65,-28.74"/>
<polygon fill="green" stroke="green" stroke-width="0.44" points="414.36,-31.8 421.76,-24.21 411.24,-25.53 414.36,-31.8"/>
</g>
<!-- &#45;13 -->
<g id="node13" class="node">
<title>&#45;13</title>
<polygon fill="lightgray" stroke="black" points="118.5,-83.7 89.5,-83.7 89.5,-65.7 118.5,-65.7 118.5,-83.7"/>
<text text-anchor="middle" x="104" y="-72.5" font-family="Times New Roman,serif" font-size="9.00">&#45;13</text>
</g>
<!-- &#45;13&#45;&gt;0 -->
<g id="edge58" class="edge">
<title>&#45;13&#45;&gt;0</title>
<path fill="none" stroke="green" stroke-width="0.28" d="M118.53,-68.39C121.32,-67.44 124.24,-66.5 127,-65.7 193.73,-46.27 273.96,-28.93 313.51,-20.78"/>
<polygon fill="green" stroke="green" stroke-width="0.28" points="314.44,-24.16 323.54,-18.73 313.04,-17.3 314.44,-24.16"/>
</g>
<!-- &#45;13&#45;&gt;1 -->
<g id="edge59" class="edge">
<title>&#45;13&#45;&gt;1</title>
<path fill="none" stroke="green" stroke-width="0.1" d="M118.97,-68.05C121.62,-67.18 124.37,-66.35 127,-65.7 229.55,-40.24 262.3,-64.71 362,-29.7 362.87,-29.39 363.75,-29.05 364.63,-28.69"/>
<polygon fill="green" stroke="green" stroke-width="0.1" points="366.37,-31.73 373.72,-24.1 363.21,-25.48 366.37,-31.73"/>
</g>
<!-- &#45;13&#45;&gt;2 -->
<g id="edge60" class="edge">
<title>&#45;13&#45;&gt;2</title>
<path fill="none" stroke="green" stroke-width="0.12" d="M118.95,-67.92C121.6,-67.06 124.36,-66.28 127,-65.7 292.32,-29.65 344.81,-81.16 506,-29.7 507.05,-29.36 508.11,-28.97 509.17,-28.55"/>
<polygon fill="green" stroke="green" stroke-width="0.12" points="510.91,-31.59 518.26,-23.96 507.76,-25.34 510.91,-31.59"/>
</g>
<!-- &#45;13&#45;&gt;3 -->
<g id="edge61" class="edge">
<title>&#45;13&#45;&gt;3</title>
<path fill="none" stroke="red" stroke-width="0.27" d="M118.95,-67.95C121.6,-67.09 124.36,-66.29 127,-65.7 271.36,-33.18 317.34,-75.67 458,-29.7 458.88,-29.41 459.76,-29.09 460.65,-28.74"/>
<polygon fill="red" stroke="red" stroke-width="0.27" points="462.36,-31.8 469.76,-24.22 459.24,-25.53 462.36,-31.8"/>
</g>
<!-- &#45;13&#45;&gt;4 -->
<g id="edge62" class="edge">
<title>&#45;13&#45;&gt;4</title>
<path fill="none" stroke="green" stroke-width="0.11" d="M118.96,-67.99C121.61,-67.13 124.37,-66.32 127,-65.7 250.43,-36.71 289.84,-70.18 410,-29.7 410.88,-29.4 411.76,-29.07 412.64,-28.72"/>
<polygon fill="green" stroke="green" stroke-width="0.11" points="414.36,-31.77 421.74,-24.17 411.23,-25.51 414.36,-31.77"/>
</g>
<!-- &#45;14 -->
<g id="node14" class="node">
<title>&#45;14</title>
<polygon fill="lightgray" stroke="black" points="165.5,-83.7 136.5,-83.7 136.5,-65.7 165.5,-65.7 165.5,-83.7"/>
<text text-anchor="middle" x="151" y="-72.5" font-family="Times New Roman,serif" font-size="9.00">&#45;14</text>
</g>
<!-- &#45;14&#45;&gt;0 -->
<g id="edge63" class="edge">
<title>&#45;14&#45;&gt;0</title>
<path fill="none" stroke="green" stroke-width="0.17" d="M165.57,-68.53C168.36,-67.57 171.27,-66.59 174,-65.7 223.57,-49.55 282.1,-32.16 314.11,-22.79"/>
<polygon fill="green" stroke="green" stroke-width="0.17" points="315.28,-26.09 323.9,-19.93 313.32,-19.37 315.28,-26.09"/>
</g>
<!-- &#45;14&#45;&gt;1 -->
<g id="edge64" class="edge">
<title>&#45;14&#45;&gt;1</title>
<path fill="none" stroke="red" stroke-width="0.16" d="M165.5,-68.3C168.3,-67.36 171.22,-66.44 174,-65.7 256.17,-43.67 282.27,-59.37 362,-29.7 362.87,-29.38 363.74,-29.02 364.61,-28.65"/>
<polygon fill="red" stroke="red" stroke-width="0.16" points="366.38,-31.68 373.68,-24.01 363.19,-25.44 366.38,-31.68"/>
</g>
<!-- &#45;14&#45;&gt;2 -->
<g id="edge65" class="edge">
<title>&#45;14&#45;&gt;2</title>
<path fill="none" stroke="green" stroke-width="0.32" d="M165.95,-67.95C168.6,-67.09 171.36,-66.29 174,-65.7 318.8,-33.11 364.91,-75.78 506,-29.7 506.88,-29.41 507.76,-29.09 508.65,-28.74"/>
<polygon fill="green" stroke="green" stroke-width="0.32" points="510.36,-31.8 517.76,-24.22 507.24,-25.53 510.36,-31.8"/>
</g>
<!-- &#45;14&#45;&gt;3 -->
<g id="edge66" class="edge">
<title>&#45;14&#45;&gt;3</title>
<path fill="none" stroke="red" stroke-width="0.29" d="M165.96,-67.99C168.61,-67.13 171.37,-66.32 174,-65.7 297.87,-36.64 337.42,-70.29 458,-29.7 458.88,-29.4 459.76,-29.07 460.64,-28.72"/>
<polygon fill="red" stroke="red" stroke-width="0.29" points="462.36,-31.77 469.74,-24.17 459.23,-25.51 462.36,-31.77"/>
</g>
<!-- &#45;14&#45;&gt;4 -->
<g id="edge67" class="edge">
<title>&#45;14&#45;&gt;4</title>
<path fill="none" stroke="red" stroke-width="0.13" d="M165.97,-68.05C168.62,-67.18 171.37,-66.35 174,-65.7 276.98,-40.16 309.88,-64.82 410,-29.7 410.87,-29.39 411.75,-29.05 412.63,-28.69"/>
<polygon fill="red" stroke="red" stroke-width="0.13" points="414.37,-31.73 421.72,-24.1 411.21,-25.48 414.37,-31.73"/>
</g>
<!-- &#45;15 -->
<g id="node15" class="node">
<title>&#45;15</title>
<polygon fill="lightgray" stroke="black" points="212.5,-83.7 183.5,-83.7 183.5,-65.7 212.5,-65.7 212.5,-83.7"/>
<text text-anchor="middle" x="198" y="-72.5" font-family="Times New Roman,serif" font-size="9.00">&#45;15</text>
</g>
<!-- &#45;15&#45;&gt;0 -->
<g id="edge68" class="edge">
<title>&#45;15&#45;&gt;0</title>
<path fill="none" stroke="red" stroke-width="0.23" d="M212.72,-67.62C237.08,-57.55 285.99,-37.34 314.96,-25.37"/>
<polygon fill="red" stroke="red" stroke-width="0.23" points="316.4,-28.56 324.31,-21.51 313.73,-22.09 316.4,-28.56"/>
</g>
<!-- &#45;15&#45;&gt;1 -->
<g id="edge69" class="edge">
<title>&#45;15&#45;&gt;1</title>
<path fill="none" stroke="green" stroke-width="0.34" d="M212.54,-68.43C215.33,-67.48 218.25,-66.53 221,-65.7 282.93,-47.06 302.1,-54.09 362,-29.7 362.86,-29.35 363.72,-28.97 364.59,-28.58"/>
<polygon fill="green" stroke="green" stroke-width="0.34" points="366.39,-31.59 373.62,-23.85 363.14,-25.39 366.39,-31.59"/>
</g>
<!-- &#45;15&#45;&gt;2 -->
<g id="edge70" class="edge">
<title>&#45;15&#45;&gt;2</title>
<path fill="none" stroke="green" stroke-width="0.47" d="M212.96,-67.99C215.61,-67.12 218.37,-66.32 221,-65.7 345.31,-36.57 384.99,-70.41 506,-29.7 506.88,-29.4 507.76,-29.07 508.64,-28.72"/>
<polygon fill="green" stroke="green" stroke-width="0.47" points="510.36,-31.77 517.74,-24.17 507.23,-25.51 510.36,-31.77"/>
</g>
<!-- &#45;15&#45;&gt;3 -->
<g id="edge71" class="edge">
<title>&#45;15&#45;&gt;3</title>
<path fill="none" stroke="red" stroke-width="0.29" d="M212.97,-68.05C215.62,-67.17 218.37,-66.35 221,-65.7 324.42,-40.09 357.45,-64.93 458,-29.7 458.87,-29.39 459.75,-29.05 460.63,-28.69"/>
<polygon fill="red" stroke="red" stroke-width="0.29" points="462.37,-31.73 469.72,-24.11 459.21,-25.48 462.37,-31.73"/>
</g>
<!-- &#45;15&#45;&gt;4 -->
<g id="edge72" class="edge">
<title>&#45;15&#45;&gt;4</title>
<path fill="none" stroke="red" stroke-width="0.12" d="M212.5,-68.29C215.3,-67.35 218.22,-66.44 221,-65.7 303.6,-43.59 329.85,-59.49 410,-29.7 410.87,-29.38 411.74,-29.02 412.61,-28.65"/>
<polygon fill="red" stroke="red" stroke-width="0.12" points="414.38,-31.68 421.69,-24.01 411.19,-25.45 414.38,-31.68"/>
</g>
<!-- &#45;16 -->
<g id="node16" class="node">
<title>&#45;16</title>
<polygon fill="lightgray" stroke="black" points="259.5,-83.7 230.5,-83.7 230.5,-65.7 259.5,-65.7 259.5,-83.7"/>
<text text-anchor="middle" x="245" y="-72.5" font-family="Times New Roman,serif" font-size="9.00">&#45;16</text>
</g>
<!-- &#45;16&#45;&gt;0 -->
<g id="edge73" class="edge">
<title>&#45;16&#45;&gt;0</title>
<path fill="none" stroke="green" stroke-width="0.41" d="M257.93,-65.65C273.23,-56.14 298.91,-40.16 317.06,-28.87"/>
<polygon fill="green" stroke="green" stroke-width="0.41" points="319.13,-31.71 325.77,-23.46 315.43,-25.77 319.13,-31.71"/>
</g>
<!-- &#45;16&#45;&gt;1 -->
<g id="edge74" class="edge">
<title>&#45;16&#45;&gt;1</title>
<path fill="none" stroke="green" stroke-width="0.57" d="M259.75,-68.49C286.77,-58.9 343.16,-38.6 362,-29.7 362.84,-29.3 363.68,-28.89 364.53,-28.46"/>
<polygon fill="green" stroke="green" stroke-width="0.57" points="366.39,-31.43 373.5,-23.58 363.05,-25.29 366.39,-31.43"/>
</g>
<!-- &#45;16&#45;&gt;2 -->
<g id="edge75" class="edge">
<title>&#45;16&#45;&gt;2</title>
<path fill="none" stroke="red" stroke-width="0.43" d="M259.97,-68.04C262.62,-67.17 265.37,-66.35 268,-65.7 371.85,-40.02 405.03,-65.05 506,-29.7 506.87,-29.39 507.75,-29.05 508.63,-28.69"/>
<polygon fill="red" stroke="red" stroke-width="0.43" points="510.37,-31.73 517.72,-24.11 507.22,-25.48 510.37,-31.73"/>
</g>
<!-- &#45;16&#45;&gt;3 -->
<g id="edge76" class="edge">
<title>&#45;16&#45;&gt;3</title>
<path fill="none" stroke="green" stroke-width="0.19" d="M259.99,-68.13C262.64,-67.25 265.39,-66.4 268,-65.7 351.04,-43.52 377.42,-59.6 458,-29.7 458.87,-29.38 459.74,-29.02 460.61,-28.65"/>
<polygon fill="green" stroke="green" stroke-width="0.19" points="462.38,-31.68 469.69,-24.01 459.19,-25.45 462.38,-31.68"/>
</g>
<!-- &#45;16&#45;&gt;4 -->
<g id="edge77" class="edge">
<title>&#45;16&#45;&gt;4</title>
<path fill="none" stroke="red" stroke-width="0.35" d="M259.54,-68.43C262.33,-67.48 265.25,-66.52 268,-65.7 330.36,-46.99 349.68,-54.2 410,-29.7 410.86,-29.35 411.72,-28.98 412.59,-28.58"/>
<polygon fill="red" stroke="red" stroke-width="0.35" points="414.39,-31.59 421.63,-23.86 411.14,-25.39 414.39,-31.59"/>
</g>
<!-- &#45;17 -->
<g id="node17" class="node">
<title>&#45;17</title>
<polygon fill="lightgray" stroke="black" points="306.5,-83.7 277.5,-83.7 277.5,-65.7 306.5,-65.7 306.5,-83.7"/>
<text text-anchor="middle" x="292" y="-72.5" font-family="Times New Roman,serif" font-size="9.00">&#45;17</text>
</g>
<!-- &#45;17&#45;&gt;0 -->
<g id="edge78" class="edge">
<title>&#45;17&#45;&gt;0</title>
<path fill="none" stroke="red" stroke-width="0.56" d="M298.4,-65.65C304.71,-57.72 314.59,-45.29 322.9,-34.83"/>
<polygon fill="red" stroke="red" stroke-width="0.56" points="325.65,-37 329.14,-26.99 320.17,-32.64 325.65,-37"/>
</g>
<!-- &#45;17&#45;&gt;1 -->
<g id="edge79" class="edge">
<title>&#45;17&#45;&gt;1</title>
<path fill="none" stroke="red" stroke-width="0.52" d="M305.07,-65.65C320.61,-56.09 346.73,-40.01 365.09,-28.72"/>
<polygon fill="red" stroke="red" stroke-width="0.52" points="366.96,-31.68 373.64,-23.46 363.29,-25.72 366.96,-31.68"/>
</g>
<!-- &#45;17&#45;&gt;2 -->
<g id="edge80" class="edge">
<title>&#45;17&#45;&gt;2</title>
<path fill="none" stroke="green" stroke-width="0.35" d="M306.99,-68.12C309.64,-67.24 312.39,-66.4 315,-65.7 398.47,-43.45 425,-59.71 506,-29.7 506.87,-29.38 507.74,-29.03 508.61,-28.65"/>
<polygon fill="green" stroke="green" stroke-width="0.35" points="510.37,-31.68 517.69,-24.01 507.19,-25.45 510.37,-31.68"/>
</g>
<!-- &#45;17&#45;&gt;3 -->
<g id="edge81" class="edge">
<title>&#45;17&#45;&gt;3</title>
<path fill="none" stroke="red" stroke-width="0.3" d="M306.54,-68.43C309.33,-67.47 312.25,-66.52 315,-65.7 377.79,-46.91 397.26,-54.31 458,-29.7 458.86,-29.35 459.72,-28.98 460.59,-28.58"/>
<polygon fill="red" stroke="red" stroke-width="0.3" points="462.39,-31.59 469.63,-23.86 459.14,-25.39 462.39,-31.59"/>
</g>
<!-- &#45;17&#45;&gt;4 -->
<g id="edge82" class="edge">
<title>&#45;17&#45;&gt;4</title>
<path fill="none" stroke="green" stroke-width="0.16" d="M306.88,-68.5C334.13,-58.92 391.01,-38.64 410,-29.7 410.84,-29.3 411.69,-28.89 412.54,-28.46"/>
<polygon fill="green" stroke="green" stroke-width="0.16" points="414.39,-31.44 421.51,-23.58 411.05,-25.29 414.39,-31.44"/>
</g>
<!-- &#45;18 -->
<g id="node18" class="node">
<title>&#45;18</title>
<polygon fill="lightgray" stroke="black" points="353.5,-83.7 324.5,-83.7 324.5,-65.7 353.5,-65.7 353.5,-83.7"/>
<text text-anchor="middle" x="339" y="-72.5" font-family="Times New Roman,serif" font-size="9.00">&#45;18</text>
</g>
<!-- &#45;18&#45;&gt;0 -->
<g id="edge83" class="edge">
<title>&#45;18&#45;&gt;0</title>
<path fill="none" stroke="green" stroke-width="0.33" d="M338.86,-65.65C338.75,-59.05 338.58,-49.33 338.42,-40.23"/>
<polygon fill="green" stroke="green" stroke-width="0.33" points="341.92,-39.99 338.25,-30.06 334.92,-40.12 341.92,-39.99"/>
</g>
<!-- &#45;18&#45;&gt;1 -->
<g id="edge84" class="edge">
<title>&#45;18&#45;&gt;1</title>
<path fill="none" stroke="green" stroke-width="0.37" d="M345.54,-65.65C351.98,-57.72 362.08,-45.29 370.58,-34.83"/>
<polygon fill="green" stroke="green" stroke-width="0.37" points="373.36,-36.96 376.94,-26.99 367.92,-32.55 373.36,-36.96"/>
</g>
<!-- &#45;18&#45;&gt;2 -->
<g id="edge85" class="edge">
<title>&#45;18&#45;&gt;2</title>
<path fill="none" stroke="green" stroke-width="0.29" d="M353.54,-68.42C356.33,-67.47 359.25,-66.52 362,-65.7 425.22,-46.84 444.84,-54.42 506,-29.7 506.86,-29.35 507.72,-28.98 508.59,-28.58"/>
<polygon fill="green" stroke="green" stroke-width="0.29" points="510.39,-31.6 517.63,-23.86 507.14,-25.39 510.39,-31.6"/>
</g>
<!-- &#45;18&#45;&gt;3 -->
<g id="edge86" class="edge">
<title>&#45;18&#45;&gt;3</title>
<path fill="none" stroke="red" stroke-width="0.2" d="M353.94,-68.34C383.66,-57.64 448.23,-34.28 458,-29.7 458.84,-29.31 459.69,-28.89 460.54,-28.47"/>
<polygon fill="red" stroke="red" stroke-width="0.2" points="462.39,-31.44 469.51,-23.59 459.05,-25.29 462.39,-31.44"/>
</g>
<!-- &#45;18&#45;&gt;4 -->
<g id="edge87" class="edge">
<title>&#45;18&#45;&gt;4</title>
<path fill="none" stroke="red" stroke-width="0.23" d="M352.21,-65.65C367.91,-56.09 394.32,-40.01 412.87,-28.72"/>
<polygon fill="red" stroke="red" stroke-width="0.23" points="414.79,-31.65 421.51,-23.46 411.15,-25.67 414.79,-31.65"/>
</g>
<!-- &#45;19 -->
<g id="node19" class="node">
<title>&#45;19</title>
<polygon fill="lightgray" stroke="black" points="837.5,-83.7 808.5,-83.7 808.5,-65.7 837.5,-65.7 837.5,-83.7"/>
<text text-anchor="middle" x="823" y="-72.5" font-family="Times New Roman,serif" font-size="9.00">&#45;19</text>
</g>
<!-- &#45;19&#45;&gt;1 -->
<g id="edge88" class="edge">
<title>&#45;19&#45;&gt;1</title>
<path fill="none" stroke="green" stroke-width="0.32" d="M808.42,-68.25C805.35,-67.27 802.09,-66.35 799,-65.7 629.08,-30.01 575.47,-82.31 410,-29.7 408.95,-29.36 407.89,-28.98 406.83,-28.55"/>
<polygon fill="green" stroke="green" stroke-width="0.32" points="408.24,-25.34 397.74,-23.97 405.09,-31.59 408.24,-25.34"/>
</g>
<!-- &#45;19&#45;&gt;2 -->
<g id="edge89" class="edge">
<title>&#45;19&#45;&gt;2</title>
<path fill="none" stroke="red" stroke-width="0.14" d="M808.37,-68.47C805.3,-67.47 802.06,-66.49 799,-65.7 710.25,-42.8 602.45,-26.1 554.75,-19.26"/>
<polygon fill="red" stroke="red" stroke-width="0.14" points="555.13,-15.78 544.74,-17.85 554.15,-22.71 555.13,-15.78"/>
</g>
<!-- &#45;19&#45;&gt;3 -->
<g id="edge90" class="edge">
<title>&#45;19&#45;&gt;3</title>
<path fill="none" stroke="green" stroke-width="0.28" d="M808.41,-68.32C805.33,-67.33 802.08,-66.39 799,-65.7 671.02,-36.81 630.42,-71.32 506,-29.7 505.12,-29.4 504.24,-29.08 503.36,-28.72"/>
<polygon fill="green" stroke="green" stroke-width="0.28" points="504.77,-25.51 494.25,-24.18 501.64,-31.78 504.77,-25.51"/>
</g>
<!-- &#45;19&#45;&gt;4 -->
<g id="edge91" class="edge">
<title>&#45;19&#45;&gt;4</title>
<path fill="none" stroke="green" stroke-width="0.42" d="M808.42,-68.28C805.34,-67.29 802.09,-66.37 799,-65.7 650.06,-33.41 602.93,-76.81 458,-29.7 456.95,-29.36 455.89,-28.96 454.84,-28.53"/>
<polygon fill="green" stroke="green" stroke-width="0.42" points="456.25,-25.32 445.75,-23.93 453.09,-31.57 456.25,-25.32"/>
</g>
<!-- &#45;20 -->
<g id="node20" class="node">
<title>&#45;20</title>
<polygon fill="lightgray" stroke="black" points="400.5,-83.7 371.5,-83.7 371.5,-65.7 400.5,-65.7 400.5,-83.7"/>
<text text-anchor="middle" x="386" y="-72.5" font-family="Times New Roman,serif" font-size="9.00">&#45;20</text>
</g>
<!-- &#45;20&#45;&gt;0 -->
<g id="edge92" class="edge">
<title>&#45;20&#45;&gt;0</title>
<path fill="none" stroke="red" stroke-width="0.37" d="M379.33,-65.65C372.74,-57.72 362.43,-45.29 353.75,-34.83"/>
<polygon fill="red" stroke="red" stroke-width="0.37" points="356.33,-32.46 347.25,-26.99 350.94,-36.93 356.33,-32.46"/>
</g>
<!-- &#45;20&#45;&gt;1 -->
<g id="edge93" class="edge">
<title>&#45;20&#45;&gt;1</title>
<path fill="none" stroke="red" stroke-width="0.24" d="M386,-65.65C386,-59.05 386,-49.33 386,-40.23"/>
<polygon fill="red" stroke="red" stroke-width="0.24" points="389.5,-40.06 386,-30.06 382.5,-40.06 389.5,-40.06"/>
</g>
<!-- &#45;20&#45;&gt;2 -->
<g id="edge94" class="edge">
<title>&#45;20&#45;&gt;2</title>
<path fill="none" stroke="green" stroke-width="0.44" d="M400.7,-68.66C428.25,-59.17 486.6,-38.77 506,-29.7 506.84,-29.31 507.69,-28.89 508.54,-28.47"/>
<polygon fill="green" stroke="green" stroke-width="0.44" points="510.39,-31.44 517.51,-23.6 507.05,-25.29 510.39,-31.44"/>
</g>
<!-- &#45;20&#45;&gt;3 -->
<g id="edge95" class="edge">
<title>&#45;20&#45;&gt;3</title>
<path fill="none" stroke="green" stroke-width="0.53" stroke-dasharray="1,5" d="M399.35,-65.65C415.3,-56.04 442.19,-39.84 460.96,-28.53"/>
<polygon fill="green" stroke="green" stroke-width="0.53" points="462.92,-31.43 469.68,-23.28 459.31,-25.44 462.92,-31.43"/>
</g>
<!-- &#45;20&#45;&gt;4 -->
<g id="edge96" class="edge">
<title>&#45;20&#45;&gt;4</title>
<path fill="none" stroke="green" stroke-width="0.25" d="M392.67,-65.65C399.26,-57.72 409.57,-45.29 418.25,-34.83"/>
<polygon fill="green" stroke="green" stroke-width="0.25" points="421.06,-36.93 424.75,-26.99 415.67,-32.46 421.06,-36.93"/>
</g>
</g>
</svg>
