<?xml version="1.0" encoding="UTF-8" standalone="no"?>
<!DOCTYPE svg PUBLIC "-//W3C//DTD SVG 1.1//EN"
 "http://www.w3.org/Graphics/SVG/1.1/DTD/svg11.dtd">
<!-- Generated by graphviz version 2.43.0 (0)
 -->
<!-- Title: %3 Pages: 1 -->
<svg width="1359pt" height="411pt"
 viewBox="0.00 0.00 1358.51 411.06" xmlns="http://www.w3.org/2000/svg" xmlns:xlink="http://www.w3.org/1999/xlink">
<g id="graph0" class="graph" transform="scale(1 1) rotate(0) translate(4 407.06)">
<title>%3</title>
<polygon fill="white" stroke="transparent" points="-4,4 -4,-407.06 1354.51,-407.06 1354.51,4 -4,4"/>
<!-- &#45;1 -->
<g id="node1" class="node">
<title>&#45;1</title>
<polygon fill="lightgray" stroke="black" points="456.51,-256.3 430.51,-256.3 430.51,-238.3 456.51,-238.3 456.51,-256.3"/>
<text text-anchor="middle" x="443.51" y="-245.1" font-family="Times,serif" font-size="9.00">&#45;1</text>
</g>
<!-- 0 -->
<g id="node21" class="node">
<title>0</title>
<ellipse fill="lightblue" stroke="black" cx="554.51" cy="-170.29" rx="16.03" ry="16.03"/>
<text text-anchor="middle" x="554.51" y="-168.09" font-family="Times,serif" font-size="9.00">0</text>
</g>
<!-- &#45;1&#45;&gt;0 -->
<g id="edge1" class="edge">
<title>&#45;1&#45;&gt;0</title>
<path fill="none" stroke="green" stroke-width="0.3" d="M449.91,-238.24C454.04,-233.35 459.71,-227.18 465.51,-222.55 486.05,-206.17 512.42,-191.67 531.11,-182.31"/>
<polygon fill="green" stroke="green" stroke-width="0.3" points="532.67,-185.44 540.11,-177.9 529.59,-179.15 532.67,-185.44"/>
</g>
<!-- 1 -->
<g id="node22" class="node">
<title>1</title>
<ellipse fill="lightblue" stroke="black" cx="642.51" cy="-170.29" rx="16.03" ry="16.03"/>
<text text-anchor="middle" x="642.51" y="-168.09" font-family="Times,serif" font-size="9.00">1</text>
</g>
<!-- &#45;1&#45;&gt;1 -->
<g id="edge35" class="edge">
<title>&#45;1&#45;&gt;1</title>
<path fill="none" stroke="green" stroke-width="0.19" stroke-dasharray="1,5" d="M449.19,-238.18C453.2,-233.02 459,-226.56 465.51,-222.55 478.55,-214.51 571.19,-189.79 617,-177.86"/>
<polygon fill="green" stroke="green" stroke-width="0.19" points="617.99,-181.22 626.79,-175.32 616.23,-174.45 617.99,-181.22"/>
</g>
<!-- 2 -->
<g id="node23" class="node">
<title>2</title>
<ellipse fill="lightblue" stroke="black" cx="793.51" cy="-16.26" rx="16.03" ry="16.03"/>
<text text-anchor="middle" x="793.51" y="-14.06" font-family="Times,serif" font-size="9.00">2</text>
</g>
<!-- &#45;1&#45;&gt;2 -->
<g id="edge45" class="edge">
<title>&#45;1&#45;&gt;2</title>
<path fill="none" stroke="red" stroke-width="0.13" d="M441.14,-238.22C433.55,-210.36 412.83,-117.41 458.51,-68.53 500.25,-23.86 695.01,-17.93 766.82,-17.28"/>
<polygon fill="red" stroke="red" stroke-width="0.13" points="766.89,-20.78 776.87,-17.22 766.85,-13.78 766.89,-20.78"/>
</g>
<!-- 3 -->
<g id="node24" class="node">
<title>3</title>
<ellipse fill="lightblue" stroke="black" cx="730.51" cy="-170.29" rx="16.03" ry="16.03"/>
<text text-anchor="middle" x="730.51" y="-168.09" font-family="Times,serif" font-size="9.00">3</text>
</g>
<!-- &#45;1&#45;&gt;3 -->
<g id="edge77" class="edge">
<title>&#45;1&#45;&gt;3</title>
<path fill="none" stroke="green" stroke-width="0.89" d="M449.05,-237.95C453.01,-232.69 458.8,-226.22 465.51,-222.55 545.54,-178.83 578.26,-205.3 667.51,-186.55 679.99,-183.93 693.76,-180.64 705.24,-177.78"/>
<polygon fill="green" stroke="green" stroke-width="0.89" points="706.19,-181.15 715.03,-175.32 704.48,-174.37 706.19,-181.15"/>
</g>
<!-- 4 -->
<g id="node25" class="node">
<title>4</title>
<ellipse fill="lightblue" stroke="black" cx="856.51" cy="-170.29" rx="16.03" ry="16.03"/>
<text text-anchor="middle" x="856.51" y="-168.09" font-family="Times,serif" font-size="9.00">4</text>
</g>
<!-- &#45;1&#45;&gt;4 -->
<g id="edge48" class="edge">
<title>&#45;1&#45;&gt;4</title>
<path fill="none" stroke="green" stroke-width="0.26" d="M448.99,-237.84C452.92,-232.52 458.7,-226.04 465.51,-222.55 581.09,-163.32 626.84,-204.26 755.51,-186.55 780.97,-183.05 809.98,-178.62 830.35,-175.43"/>
<polygon fill="green" stroke="green" stroke-width="0.26" points="831.1,-178.86 840.43,-173.85 830.01,-171.95 831.1,-178.86"/>
</g>
<!-- &#45;2 -->
<g id="node2" class="node">
<title>&#45;2</title>
<polygon fill="lightgray" stroke="black" points="500.51,-256.3 474.51,-256.3 474.51,-238.3 500.51,-238.3 500.51,-256.3"/>
<text text-anchor="middle" x="487.51" y="-245.1" font-family="Times,serif" font-size="9.00">&#45;2</text>
</g>
<!-- &#45;2&#45;&gt;0 -->
<g id="edge9" class="edge">
<title>&#45;2&#45;&gt;0</title>
<path fill="none" stroke="red" stroke-width="0.57" d="M494.68,-238.27C504.8,-226.94 523.57,-205.92 537.4,-190.44"/>
<polygon fill="red" stroke="red" stroke-width="0.57" points="540.06,-192.72 544.11,-182.93 534.84,-188.05 540.06,-192.72"/>
</g>
<!-- &#45;2&#45;&gt;1 -->
<g id="edge91" class="edge">
<title>&#45;2&#45;&gt;1</title>
<path fill="none" stroke="red" stroke-width="0.48" d="M493.67,-237.91C497.71,-232.9 503.37,-226.71 509.51,-222.55 543.29,-199.65 588.75,-184.98 616.81,-177.44"/>
<polygon fill="red" stroke="red" stroke-width="0.48" points="617.85,-180.79 626.66,-174.9 616.1,-174.01 617.85,-180.79"/>
</g>
<!-- &#45;2&#45;&gt;2 -->
<g id="edge44" class="edge">
<title>&#45;2&#45;&gt;2</title>
<path fill="none" stroke="green" stroke-width="0.17" d="M483.93,-237.98C472.58,-210.13 440.57,-119.14 483.51,-68.53 519.86,-25.67 698.49,-18.59 766.84,-17.46"/>
<polygon fill="green" stroke="green" stroke-width="0.17" points="767.23,-20.96 777.18,-17.32 767.14,-13.96 767.23,-20.96"/>
</g>
<!-- &#45;2&#45;&gt;3 -->
<g id="edge24" class="edge">
<title>&#45;2&#45;&gt;3</title>
<path fill="none" stroke="red" stroke-width="0.42" d="M493.11,-238.06C497.09,-232.84 502.89,-226.37 509.51,-222.55 571.87,-186.53 597.39,-203.03 667.51,-186.55 679.84,-183.65 693.5,-180.35 704.94,-177.56"/>
<polygon fill="red" stroke="red" stroke-width="0.42" points="705.84,-180.95 714.73,-175.17 704.18,-174.15 705.84,-180.95"/>
</g>
<!-- &#45;2&#45;&gt;4 -->
<g id="edge27" class="edge">
<title>&#45;2&#45;&gt;4</title>
<path fill="none" stroke="green" stroke-width="0.49" d="M493.02,-237.88C496.96,-232.59 502.74,-226.11 509.51,-222.55 607.29,-171.09 646.21,-202.81 755.51,-186.55 780.93,-182.77 809.94,-178.38 830.33,-175.28"/>
<polygon fill="green" stroke="green" stroke-width="0.49" points="831.06,-178.71 840.42,-173.74 830,-171.79 831.06,-178.71"/>
</g>
<!-- &#45;3 -->
<g id="node3" class="node">
<title>&#45;3</title>
<polygon fill="lightgray" stroke="black" points="732.51,-256.3 706.51,-256.3 706.51,-238.3 732.51,-238.3 732.51,-256.3"/>
<text text-anchor="middle" x="719.51" y="-245.1" font-family="Times,serif" font-size="9.00">&#45;3</text>
</g>
<!-- &#45;3&#45;&gt;0 -->
<g id="edge51" class="edge">
<title>&#45;3&#45;&gt;0</title>
<path fill="none" stroke="green" stroke-width="0.44" d="M713.38,-237.86C709.35,-232.83 703.7,-226.64 697.51,-222.55 660.66,-198.21 610.84,-183.78 580.78,-176.71"/>
<polygon fill="green" stroke="green" stroke-width="0.44" points="581.18,-173.21 570.66,-174.43 579.65,-180.04 581.18,-173.21"/>
</g>
<!-- &#45;3&#45;&gt;1 -->
<g id="edge16" class="edge">
<title>&#45;3&#45;&gt;1</title>
<path fill="none" stroke="red" stroke-width="0.56" d="M712.32,-238.25C708.09,-233.58 702.59,-227.65 697.51,-222.55 686.05,-211.06 672.75,-198.64 662.1,-188.9"/>
<polygon fill="red" stroke="red" stroke-width="0.56" points="664.3,-186.18 654.55,-182.04 659.59,-191.36 664.3,-186.18"/>
</g>
<!-- &#45;3&#45;&gt;3 -->
<g id="edge58" class="edge">
<title>&#45;3&#45;&gt;3</title>
<path fill="none" stroke="green" stroke-width="0.31" d="M720.68,-238.27C722.14,-228.36 724.68,-211.02 726.81,-196.47"/>
<polygon fill="green" stroke="green" stroke-width="0.31" points="730.29,-196.91 728.27,-186.51 723.36,-195.89 730.29,-196.91"/>
</g>
<!-- &#45;3&#45;&gt;4 -->
<g id="edge28" class="edge">
<title>&#45;3&#45;&gt;4</title>
<path fill="none" stroke="green" stroke-width="0.43" d="M725.75,-238.02C729.81,-233.05 735.47,-226.87 741.51,-222.55 769.65,-202.39 806.99,-187.56 831.37,-179.17"/>
<polygon fill="green" stroke="green" stroke-width="0.43" points="832.58,-182.46 840.96,-175.98 830.37,-175.82 832.58,-182.46"/>
</g>
<!-- &#45;4 -->
<g id="node4" class="node">
<title>&#45;4</title>
<polygon fill="lightgray" stroke="black" points="268.51,-256.3 242.51,-256.3 242.51,-238.3 268.51,-238.3 268.51,-256.3"/>
<text text-anchor="middle" x="255.51" y="-245.1" font-family="Times,serif" font-size="9.00">&#45;4</text>
</g>
<!-- &#45;4&#45;&gt;0 -->
<g id="edge99" class="edge">
<title>&#45;4&#45;&gt;0</title>
<path fill="none" stroke="green" stroke-width="0.26" stroke-dasharray="1,5" d="M262.71,-237.99C267.73,-232.74 274.88,-226.27 282.51,-222.55 325.91,-201.38 468.82,-181.85 528.24,-174.44"/>
<polygon fill="green" stroke="green" stroke-width="0.26" points="528.82,-177.89 538.32,-173.2 527.96,-170.95 528.82,-177.89"/>
</g>
<!-- &#45;4&#45;&gt;1 -->
<g id="edge26" class="edge">
<title>&#45;4&#45;&gt;1</title>
<path fill="none" stroke="red" stroke-width="0.46" d="M262.2,-238.29C267.2,-232.89 274.53,-226.12 282.51,-222.55 403.86,-168.21 448.67,-210.25 579.51,-186.55 592.05,-184.28 605.84,-181.03 617.3,-178.11"/>
<polygon fill="red" stroke="red" stroke-width="0.46" points="618.29,-181.47 627.08,-175.56 616.52,-174.7 618.29,-181.47"/>
</g>
<!-- &#45;4&#45;&gt;2 -->
<g id="edge20" class="edge">
<title>&#45;4&#45;&gt;2</title>
<path fill="none" stroke="red" stroke-width="0.35" d="M260.57,-238.12C279,-209.14 345.87,-110.8 429.51,-68.53 488.96,-38.47 693.55,-23.34 766.99,-18.78"/>
<polygon fill="red" stroke="red" stroke-width="0.35" points="767.46,-22.26 777.23,-18.17 767.04,-15.28 767.46,-22.26"/>
</g>
<!-- &#45;4&#45;&gt;3 -->
<g id="edge90" class="edge">
<title>&#45;4&#45;&gt;3</title>
<path fill="none" stroke="green" stroke-width="0.65" d="M268.71,-242.55C287.43,-237.36 322.83,-228.01 353.51,-222.55 491.81,-197.96 529.2,-211.14 667.51,-186.55 680.06,-184.32 693.84,-181.07 705.31,-178.15"/>
<polygon fill="green" stroke="green" stroke-width="0.65" points="706.3,-181.51 715.08,-175.59 704.52,-174.73 706.3,-181.51"/>
</g>
<!-- &#45;4&#45;&gt;4 -->
<g id="edge76" class="edge">
<title>&#45;4&#45;&gt;4</title>
<path fill="none" stroke="red" stroke-width="0.7" stroke-dasharray="1,5" d="M268.69,-242.44C287.39,-237.12 322.76,-227.62 353.51,-222.55 530.49,-193.35 577.41,-207.96 755.51,-186.55 781.03,-183.48 810.03,-179 830.39,-175.68"/>
<polygon fill="red" stroke="red" stroke-width="0.7" points="831.16,-179.1 840.45,-174.02 830.02,-172.19 831.16,-179.1"/>
</g>
<!-- 161 -->
<g id="node26" class="node">
<title>161</title>
<ellipse fill="white" stroke="black" cx="563.51" cy="-93.28" rx="25" ry="25"/>
<text text-anchor="middle" x="563.51" y="-91.08" font-family="Times,serif" font-size="9.00">161</text>
</g>
<!-- &#45;4&#45;&gt;161 -->
<g id="edge85" class="edge">
<title>&#45;4&#45;&gt;161</title>
<path fill="none" stroke="green" stroke-width="0.22" d="M263.51,-238.14C268.63,-233.21 275.59,-227.03 282.51,-222.55 366.19,-168.34 476.54,-125.21 530.68,-105.66"/>
<polygon fill="green" stroke="green" stroke-width="0.22" points="531.88,-108.95 540.12,-102.29 529.52,-102.36 531.88,-108.95"/>
</g>
<!-- &#45;5 -->
<g id="node5" class="node">
<title>&#45;5</title>
<polygon fill="lightgray" stroke="black" points="544.51,-256.3 518.51,-256.3 518.51,-238.3 544.51,-238.3 544.51,-256.3"/>
<text text-anchor="middle" x="531.51" y="-245.1" font-family="Times,serif" font-size="9.00">&#45;5</text>
</g>
<!-- &#45;5&#45;&gt;0 -->
<g id="edge43" class="edge">
<title>&#45;5&#45;&gt;0</title>
<path fill="none" stroke="red" stroke-width="0.2" d="M533.97,-238.27C537.07,-228.14 542.56,-210.25 547.08,-195.5"/>
<polygon fill="red" stroke="red" stroke-width="0.2" points="550.43,-196.52 550.02,-185.93 543.74,-194.47 550.43,-196.52"/>
</g>
<!-- &#45;5&#45;&gt;1 -->
<g id="edge11" class="edge">
<title>&#45;5&#45;&gt;1</title>
<path fill="none" stroke="red" stroke-width="0.73" d="M537.91,-238.24C542.04,-233.35 547.71,-227.18 553.51,-222.55 574.05,-206.17 600.42,-191.67 619.11,-182.31"/>
<polygon fill="red" stroke="red" stroke-width="0.73" points="620.67,-185.44 628.11,-177.9 617.59,-179.15 620.67,-185.44"/>
</g>
<!-- &#45;5&#45;&gt;2 -->
<g id="edge106" class="edge">
<title>&#45;5&#45;&gt;2</title>
<path fill="none" stroke="red" stroke-width="0.61" d="M526.41,-238.04C510.05,-210.38 462.44,-119.93 505.51,-68.53 538.8,-28.78 702.2,-19.83 766.98,-17.83"/>
<polygon fill="red" stroke="red" stroke-width="0.61" points="767.29,-21.32 777.19,-17.55 767.1,-14.32 767.29,-21.32"/>
</g>
<!-- &#45;5&#45;&gt;3 -->
<g id="edge74" class="edge">
<title>&#45;5&#45;&gt;3</title>
<path fill="none" stroke="red" stroke-width="0.16" d="M537.19,-238.18C541.2,-233.02 547,-226.56 553.51,-222.55 566.55,-214.51 659.19,-189.79 705,-177.86"/>
<polygon fill="red" stroke="red" stroke-width="0.16" points="705.99,-181.22 714.79,-175.32 704.23,-174.45 705.99,-181.22"/>
</g>
<!-- &#45;5&#45;&gt;4 -->
<g id="edge65" class="edge">
<title>&#45;5&#45;&gt;4</title>
<path fill="none" stroke="green" stroke-width="0.12" d="M537.04,-237.93C540.99,-232.66 546.78,-226.19 553.51,-222.55 565.75,-215.93 759.56,-186.01 830.63,-175.2"/>
<polygon fill="green" stroke="green" stroke-width="0.12" points="831.21,-178.65 840.57,-173.69 830.16,-171.73 831.21,-178.65"/>
</g>
<!-- &#45;6 -->
<g id="node6" class="node">
<title>&#45;6</title>
<polygon fill="lightgray" stroke="black" points="641.51,-403.06 615.51,-403.06 615.51,-385.06 641.51,-385.06 641.51,-403.06"/>
<text text-anchor="middle" x="628.51" y="-391.86" font-family="Times,serif" font-size="9.00">&#45;6</text>
</g>
<!-- &#45;6&#45;&gt;0 -->
<g id="edge89" class="edge">
<title>&#45;6&#45;&gt;0</title>
<path fill="none" stroke="green" stroke-width="0.35" d="M615.34,-392.39C538.61,-388.2 150.23,-362.61 85.51,-272.05 72.71,-254.15 70.82,-238.93 85.51,-222.55 115.26,-189.37 433.38,-175.56 528.07,-172.16"/>
<polygon fill="green" stroke="green" stroke-width="0.35" points="528.36,-175.65 538.23,-171.81 528.11,-168.66 528.36,-175.65"/>
</g>
<!-- &#45;6&#45;&gt;1 -->
<g id="edge15" class="edge">
<title>&#45;6&#45;&gt;1</title>
<path fill="none" stroke="red" stroke-width="0.33" d="M615.16,-393.18C563.33,-393.33 376.44,-390.93 339.51,-349.06 302.31,-306.89 300.78,-265.14 337.51,-222.55 373.01,-181.37 526.14,-196.96 579.51,-186.55 592.02,-184.11 605.8,-180.84 617.27,-177.95"/>
<polygon fill="red" stroke="red" stroke-width="0.33" points="618.24,-181.32 627.06,-175.44 616.5,-174.54 618.24,-181.32"/>
</g>
<!-- &#45;6&#45;&gt;2 -->
<g id="edge23" class="edge">
<title>&#45;6&#45;&gt;2</title>
<path fill="none" stroke="red" stroke-width="0.21" stroke-dasharray="1,5" d="M641.65,-393.32C739.51,-394.91 1350.51,-398.83 1350.51,-248.3 1350.51,-248.3 1350.51,-248.3 1350.51,-169.29 1350.51,-91.9 1280.65,-96.51 1208.51,-68.53 1136.91,-40.76 900.25,-23.88 820.22,-18.85"/>
<polygon fill="red" stroke="red" stroke-width="0.21" points="820.2,-15.34 810,-18.22 819.77,-22.33 820.2,-15.34"/>
</g>
<!-- &#45;6&#45;&gt;3 -->
<g id="edge55" class="edge">
<title>&#45;6&#45;&gt;3</title>
<path fill="none" stroke="red" stroke-width="0.43" d="M641.71,-392.8C691.59,-391.03 869.36,-377.29 941.51,-272.05 953.94,-253.9 955.1,-239.85 941.51,-222.55 930.01,-207.93 810.78,-185.37 756.8,-175.82"/>
<polygon fill="red" stroke="red" stroke-width="0.43" points="757.09,-172.31 746.63,-174.03 755.88,-179.21 757.09,-172.31"/>
</g>
<!-- &#45;6&#45;&gt;4 -->
<g id="edge66" class="edge">
<title>&#45;6&#45;&gt;4</title>
<path fill="none" stroke="red" stroke-width="0.3" d="M641.74,-392.63C723.46,-389.66 1158.52,-369.37 1236.51,-272.05 1250.26,-254.88 1250.98,-239.11 1236.51,-222.55 1213.18,-195.87 965.74,-178.11 883.16,-172.89"/>
<polygon fill="red" stroke="red" stroke-width="0.3" points="883.27,-169.39 873.07,-172.26 882.84,-176.37 883.27,-169.39"/>
</g>
<!-- 80 -->
<g id="node28" class="node">
<title>80</title>
<ellipse fill="white" stroke="black" cx="20.51" cy="-328.55" rx="20.51" ry="20.51"/>
<text text-anchor="middle" x="20.51" y="-326.35" font-family="Times,serif" font-size="9.00">80</text>
</g>
<!-- &#45;6&#45;&gt;80 -->
<g id="edge40" class="edge">
<title>&#45;6&#45;&gt;80</title>
<path fill="none" stroke="green" stroke-width="0.14" d="M615.37,-392.82C540.34,-391.3 165.37,-382.15 55.51,-349.06 52.47,-348.15 49.41,-346.94 46.43,-345.58"/>
<polygon fill="green" stroke="green" stroke-width="0.14" points="47.78,-342.34 37.29,-340.84 44.56,-348.55 47.78,-342.34"/>
</g>
<!-- &#45;7 -->
<g id="node7" class="node">
<title>&#45;7</title>
<polygon fill="lightgray" stroke="black" points="1114.51,-256.3 1088.51,-256.3 1088.51,-238.3 1114.51,-238.3 1114.51,-256.3"/>
<text text-anchor="middle" x="1101.51" y="-245.1" font-family="Times,serif" font-size="9.00">&#45;7</text>
</g>
<!-- &#45;7&#45;&gt;1 -->
<g id="edge105" class="edge">
<title>&#45;7&#45;&gt;1</title>
<path fill="none" stroke="green" stroke-width="0.5" d="M1096.39,-238.24C1092.48,-232.82 1086.56,-226.04 1079.51,-222.55 1004.68,-185.5 787.84,-200.42 705.51,-186.55 692.93,-184.43 679.15,-181.2 667.68,-178.25"/>
<polygon fill="green" stroke="green" stroke-width="0.5" points="668.48,-174.84 657.91,-175.67 666.69,-181.61 668.48,-174.84"/>
</g>
<!-- &#45;7&#45;&gt;2 -->
<g id="edge72" class="edge">
<title>&#45;7&#45;&gt;2</title>
<path fill="none" stroke="green" stroke-width="0.14" stroke-dasharray="1,5" d="M1103.83,-238.25C1111.3,-210.51 1131.66,-117.89 1086.51,-68.53 1050.92,-29.62 885.7,-20.17 820.28,-17.93"/>
<polygon fill="green" stroke="green" stroke-width="0.14" points="820.08,-14.42 809.97,-17.61 819.86,-21.42 820.08,-14.42"/>
</g>
<!-- &#45;7&#45;&gt;3 -->
<g id="edge41" class="edge">
<title>&#45;7&#45;&gt;3</title>
<path fill="none" stroke="green" stroke-width="0.24" d="M1096,-237.88C1092.06,-232.59 1086.27,-226.11 1079.51,-222.55 980.92,-170.74 941.68,-202.87 831.51,-186.55 806.08,-182.78 777.07,-178.39 756.68,-175.29"/>
<polygon fill="green" stroke="green" stroke-width="0.24" points="757.01,-171.8 746.59,-173.75 755.95,-178.72 757.01,-171.8"/>
</g>
<!-- &#45;7&#45;&gt;4 -->
<g id="edge53" class="edge">
<title>&#45;7&#45;&gt;4</title>
<path fill="none" stroke="green" stroke-width="0.37" d="M1095.9,-238.06C1091.92,-232.84 1086.12,-226.38 1079.51,-222.55 1015.49,-185.49 926.61,-175.22 882.91,-172.38"/>
<polygon fill="green" stroke="green" stroke-width="0.37" points="883,-168.88 872.82,-171.8 882.6,-175.86 883,-168.88"/>
</g>
<!-- &#45;8 -->
<g id="node8" class="node">
<title>&#45;8</title>
<polygon fill="lightgray" stroke="black" points="588.51,-256.3 562.51,-256.3 562.51,-238.3 588.51,-238.3 588.51,-256.3"/>
<text text-anchor="middle" x="575.51" y="-245.1" font-family="Times,serif" font-size="9.00">&#45;8</text>
</g>
<!-- &#45;8&#45;&gt;0 -->
<g id="edge82" class="edge">
<title>&#45;8&#45;&gt;0</title>
<path fill="none" stroke="green" stroke-width="0.15" d="M573.26,-238.27C570.47,-228.3 565.57,-210.81 561.48,-196.2"/>
<polygon fill="green" stroke="green" stroke-width="0.15" points="564.75,-194.91 558.69,-186.22 558.01,-196.79 564.75,-194.91"/>
</g>
<!-- &#45;8&#45;&gt;1 -->
<g id="edge6" class="edge">
<title>&#45;8&#45;&gt;1</title>
<path fill="none" stroke="red" stroke-width="0.66" d="M582.68,-238.27C592.8,-226.94 611.57,-205.92 625.4,-190.44"/>
<polygon fill="red" stroke="red" stroke-width="0.66" points="628.06,-192.72 632.11,-182.93 622.84,-188.05 628.06,-192.72"/>
</g>
<!-- &#45;8&#45;&gt;2 -->
<g id="edge39" class="edge">
<title>&#45;8&#45;&gt;2</title>
<path fill="none" stroke="green" stroke-width="0.48" d="M567.95,-237.93C555.93,-224.4 533.43,-198.08 529.51,-186.55 512.6,-136.89 496.14,-109 529.51,-68.53 559.42,-32.24 705.75,-21.32 766.74,-18.31"/>
<polygon fill="green" stroke="green" stroke-width="0.48" points="767.26,-21.79 777.09,-17.84 766.94,-14.8 767.26,-21.79"/>
</g>
<!-- &#45;8&#45;&gt;3 -->
<g id="edge71" class="edge">
<title>&#45;8&#45;&gt;3</title>
<path fill="none" stroke="green" stroke-width="0.16" d="M581.67,-237.91C585.71,-232.9 591.37,-226.71 597.51,-222.55 631.29,-199.65 676.75,-184.98 704.81,-177.44"/>
<polygon fill="green" stroke="green" stroke-width="0.16" points="705.85,-180.79 714.66,-174.9 704.1,-174.01 705.85,-180.79"/>
</g>
<!-- &#45;8&#45;&gt;4 -->
<g id="edge87" class="edge">
<title>&#45;8&#45;&gt;4</title>
<path fill="none" stroke="green" stroke-width="0.42" d="M581.08,-237.99C585.04,-232.75 590.83,-226.28 597.51,-222.55 617.8,-211.22 768.51,-185.66 830.25,-175.54"/>
<polygon fill="green" stroke="green" stroke-width="0.42" points="831.05,-178.95 840.36,-173.89 829.93,-172.04 831.05,-178.95"/>
</g>
<!-- &#45;9 -->
<g id="node9" class="node">
<title>&#45;9</title>
<polygon fill="lightgray" stroke="black" points="1158.51,-256.3 1132.51,-256.3 1132.51,-238.3 1158.51,-238.3 1158.51,-256.3"/>
<text text-anchor="middle" x="1145.51" y="-245.1" font-family="Times,serif" font-size="9.00">&#45;9</text>
</g>
<!-- &#45;9&#45;&gt;1 -->
<g id="edge67" class="edge">
<title>&#45;9&#45;&gt;1</title>
<path fill="none" stroke="green" stroke-width="0.35" d="M1140.4,-238.22C1136.49,-232.79 1130.57,-226.01 1123.51,-222.55 1039.75,-181.6 797.52,-201.57 705.51,-186.55 692.92,-184.5 679.13,-181.27 667.67,-178.31"/>
<polygon fill="green" stroke="green" stroke-width="0.35" points="668.47,-174.9 657.91,-175.71 666.67,-181.67 668.47,-174.9"/>
</g>
<!-- &#45;9&#45;&gt;2 -->
<g id="edge56" class="edge">
<title>&#45;9&#45;&gt;2</title>
<path fill="none" stroke="green" stroke-width="0.42" d="M1146.84,-238.1C1150.93,-209.86 1160.19,-115.82 1111.51,-68.53 1070.1,-28.31 888.66,-19.62 819.98,-17.76"/>
<polygon fill="green" stroke="green" stroke-width="0.42" points="820.04,-14.26 809.96,-17.52 819.87,-21.26 820.04,-14.26"/>
</g>
<!-- &#45;9&#45;&gt;3 -->
<g id="edge25" class="edge">
<title>&#45;9&#45;&gt;3</title>
<path fill="none" stroke="red" stroke-width="0.51" d="M1140.36,-238.3C1136.43,-232.9 1130.51,-226.14 1123.51,-222.55 1007.11,-162.97 961.05,-204.32 831.51,-186.55 806.04,-183.06 777.03,-178.63 756.66,-175.44"/>
<polygon fill="red" stroke="red" stroke-width="0.51" points="757,-171.95 746.58,-173.86 755.91,-178.87 757,-171.95"/>
</g>
<!-- &#45;9&#45;&gt;4 -->
<g id="edge75" class="edge">
<title>&#45;9&#45;&gt;4</title>
<path fill="none" stroke="green" stroke-width="0.3" stroke-dasharray="1,5" d="M1139.94,-237.98C1135.98,-232.73 1130.19,-226.26 1123.51,-222.55 1044.11,-178.49 933.26,-171.7 883.07,-171.05"/>
<polygon fill="green" stroke="green" stroke-width="0.3" points="883.05,-167.55 873.03,-170.99 883.01,-174.55 883.05,-167.55"/>
</g>
<!-- &#45;10 -->
<g id="node10" class="node">
<title>&#45;10</title>
<polygon fill="lightgray" stroke="black" points="638.51,-256.3 606.51,-256.3 606.51,-238.3 638.51,-238.3 638.51,-256.3"/>
<text text-anchor="middle" x="622.51" y="-245.1" font-family="Times,serif" font-size="9.00">&#45;10</text>
</g>
<!-- &#45;10&#45;&gt;0 -->
<g id="edge42" class="edge">
<title>&#45;10&#45;&gt;0</title>
<path fill="none" stroke="green" stroke-width="0.41" d="M615.23,-238.27C604.96,-226.94 585.9,-205.92 571.87,-190.44"/>
<polygon fill="green" stroke="green" stroke-width="0.41" points="574.37,-187.98 565.06,-182.93 569.18,-192.69 574.37,-187.98"/>
</g>
<!-- &#45;10&#45;&gt;1 -->
<g id="edge73" class="edge">
<title>&#45;10&#45;&gt;1</title>
<path fill="none" stroke="red" stroke-width="0.58" d="M624.65,-238.27C627.31,-228.3 631.97,-210.81 635.86,-196.2"/>
<polygon fill="red" stroke="red" stroke-width="0.58" points="639.33,-196.78 638.52,-186.22 632.57,-194.98 639.33,-196.78"/>
</g>
<!-- &#45;10&#45;&gt;2 -->
<g id="edge83" class="edge">
<title>&#45;10&#45;&gt;2</title>
<path fill="none" stroke="green" stroke-width="0.43" d="M619.61,-238.16C614.17,-221.46 604.14,-182.49 617.51,-154.02 648.36,-88.31 728.51,-45.47 769.14,-27.26"/>
<polygon fill="green" stroke="green" stroke-width="0.43" points="770.78,-30.36 778.56,-23.17 767.99,-23.94 770.78,-30.36"/>
</g>
<!-- &#45;10&#45;&gt;3 -->
<g id="edge10" class="edge">
<title>&#45;10&#45;&gt;3</title>
<path fill="none" stroke="green" stroke-width="0.13" stroke-dasharray="1,5" d="M630.45,-237.93C635.19,-233.17 641.44,-227.23 647.51,-222.55 666.75,-207.72 690.49,-193.42 707.64,-183.71"/>
<polygon fill="green" stroke="green" stroke-width="0.13" points="709.39,-186.73 716.42,-178.81 705.98,-180.62 709.39,-186.73"/>
</g>
<!-- &#45;10&#45;&gt;4 -->
<g id="edge63" class="edge">
<title>&#45;10&#45;&gt;4</title>
<path fill="none" stroke="green" stroke-width="0.28" d="M629.13,-238.11C633.75,-232.91 640.36,-226.46 647.51,-222.55 679.13,-205.27 781.77,-184.92 830.44,-175.95"/>
<polygon fill="green" stroke="green" stroke-width="0.28" points="831.3,-179.35 840.51,-174.11 830.04,-172.46 831.3,-179.35"/>
</g>
<!-- &#45;11 -->
<g id="node11" class="node">
<title>&#45;11</title>
<polygon fill="lightgray" stroke="black" points="688.51,-256.3 656.51,-256.3 656.51,-238.3 688.51,-238.3 688.51,-256.3"/>
<text text-anchor="middle" x="672.51" y="-245.1" font-family="Times,serif" font-size="9.00">&#45;11</text>
</g>
<!-- &#45;11&#45;&gt;0 -->
<g id="edge88" class="edge">
<title>&#45;11&#45;&gt;0</title>
<path fill="none" stroke="red" stroke-width="0.2" d="M665.08,-238.27C660.33,-233.39 653.88,-227.22 647.51,-222.55 625.36,-206.34 597.53,-191.65 578.11,-182.19"/>
<polygon fill="red" stroke="red" stroke-width="0.2" points="579.58,-179.02 569.05,-177.87 576.56,-185.34 579.58,-179.02"/>
</g>
<!-- &#45;11&#45;&gt;1 -->
<g id="edge54" class="edge">
<title>&#45;11&#45;&gt;1</title>
<path fill="none" stroke="green" stroke-width="0.37" d="M669.3,-238.27C665.22,-228.08 658,-210.03 652.08,-195.24"/>
<polygon fill="green" stroke="green" stroke-width="0.37" points="655.21,-193.64 648.25,-185.65 648.71,-196.24 655.21,-193.64"/>
</g>
<!-- &#45;11&#45;&gt;2 -->
<g id="edge22" class="edge">
<title>&#45;11&#45;&gt;2</title>
<path fill="none" stroke="red" stroke-width="0.29" d="M674.74,-238.15C679.37,-221.75 690.85,-183.79 705.51,-154.02 726.82,-110.75 758.88,-64.32 777.85,-38.22"/>
<polygon fill="red" stroke="red" stroke-width="0.29" points="780.88,-40.01 783.98,-29.88 775.24,-35.87 780.88,-40.01"/>
</g>
<!-- &#45;11&#45;&gt;3 -->
<g id="edge98" class="edge">
<title>&#45;11&#45;&gt;3</title>
<path fill="none" stroke="green" stroke-width="0.74" d="M678.71,-238.27C687.24,-227.24 702.89,-207.01 714.76,-191.66"/>
<polygon fill="green" stroke="green" stroke-width="0.74" points="717.54,-193.77 720.89,-183.72 712.01,-189.49 717.54,-193.77"/>
</g>
<!-- &#45;11&#45;&gt;4 -->
<g id="edge64" class="edge">
<title>&#45;11&#45;&gt;4</title>
<path fill="none" stroke="red" stroke-width="0.18" d="M679.22,-238.28C683.89,-233.15 690.51,-226.71 697.51,-222.55 740.53,-197.01 797.76,-182.61 830.52,-175.94"/>
<polygon fill="red" stroke="red" stroke-width="0.18" points="831.49,-179.32 840.64,-173.97 830.16,-172.45 831.49,-179.32"/>
</g>
<!-- &#45;12 -->
<g id="node12" class="node">
<title>&#45;12</title>
<polygon fill="lightgray" stroke="black" points="1070.51,-256.3 1038.51,-256.3 1038.51,-238.3 1070.51,-238.3 1070.51,-256.3"/>
<text text-anchor="middle" x="1054.51" y="-245.1" font-family="Times,serif" font-size="9.00">&#45;12</text>
</g>
<!-- &#45;12&#45;&gt;0 -->
<g id="edge32" class="edge">
<title>&#45;12&#45;&gt;0</title>
<path fill="none" stroke="red" stroke-width="0.56" d="M1048.47,-238.21C1043.91,-232.77 1037.15,-226 1029.51,-222.55 945.72,-184.79 708.2,-201.41 617.51,-186.55 604.92,-184.49 591.13,-181.26 579.68,-178.31"/>
<polygon fill="red" stroke="red" stroke-width="0.56" points="580.47,-174.9 569.91,-175.71 578.67,-181.66 580.47,-174.9"/>
</g>
<!-- &#45;12&#45;&gt;1 -->
<g id="edge62" class="edge">
<title>&#45;12&#45;&gt;1</title>
<path fill="none" stroke="green" stroke-width="0.13" d="M1048.44,-238.27C1043.87,-232.86 1037.11,-226.08 1029.51,-222.55 898.13,-161.47 848.2,-211.66 705.51,-186.55 692.95,-184.34 679.16,-181.1 667.7,-178.17"/>
<polygon fill="green" stroke="green" stroke-width="0.13" points="668.49,-174.76 657.92,-175.6 666.71,-181.53 668.49,-174.76"/>
</g>
<!-- &#45;12&#45;&gt;2 -->
<g id="edge96" class="edge">
<title>&#45;12&#45;&gt;2</title>
<path fill="none" stroke="red" stroke-width="0.14" stroke-dasharray="1,5" d="M1058.39,-238.02C1070.73,-210.31 1105.88,-119.7 1063.51,-68.53 1032.72,-31.35 881.91,-20.91 820.05,-18.18"/>
<polygon fill="red" stroke="red" stroke-width="0.14" points="820.05,-14.67 809.92,-17.76 819.77,-21.67 820.05,-14.67"/>
</g>
<!-- &#45;12&#45;&gt;3 -->
<g id="edge19" class="edge">
<title>&#45;12&#45;&gt;3</title>
<path fill="none" stroke="red" stroke-width="0.4" d="M1047.97,-237.94C1043.38,-232.67 1036.78,-226.2 1029.51,-222.55 1017.27,-216.42 827.75,-186.44 756.93,-175.39"/>
<polygon fill="red" stroke="red" stroke-width="0.4" points="757.05,-171.87 746.63,-173.79 755.97,-178.78 757.05,-171.87"/>
</g>
<!-- &#45;12&#45;&gt;4 -->
<g id="edge7" class="edge">
<title>&#45;12&#45;&gt;4</title>
<path fill="none" stroke="green" stroke-width="0.13" d="M1047.82,-238.22C1043.17,-233.07 1036.56,-226.62 1029.51,-222.55 981.82,-195 918.04,-181.11 882.76,-175.12"/>
<polygon fill="green" stroke="green" stroke-width="0.13" points="883.2,-171.64 872.77,-173.5 882.09,-178.55 883.2,-171.64"/>
</g>
<!-- 121 -->
<g id="node30" class="node">
<title>121</title>
<ellipse fill="white" stroke="black" cx="1029.51" cy="-93.28" rx="25" ry="25"/>
<text text-anchor="middle" x="1029.51" y="-91.08" font-family="Times,serif" font-size="9.00">121</text>
</g>
<!-- &#45;12&#45;&gt;121 -->
<g id="edge84" class="edge">
<title>&#45;12&#45;&gt;121</title>
<path fill="none" stroke="green" stroke-width="0.48" d="M1053.16,-238.13C1049.8,-217.69 1040.89,-163.47 1035.01,-127.75"/>
<polygon fill="green" stroke="green" stroke-width="0.48" points="1038.44,-127.06 1033.37,-117.76 1031.54,-128.19 1038.44,-127.06"/>
</g>
<!-- &#45;13 -->
<g id="node13" class="node">
<title>&#45;13</title>
<polygon fill="lightgray" stroke="black" points="224.51,-256.3 192.51,-256.3 192.51,-238.3 224.51,-238.3 224.51,-256.3"/>
<text text-anchor="middle" x="208.51" y="-245.1" font-family="Times,serif" font-size="9.00">&#45;13</text>
</g>
<!-- &#45;13&#45;&gt;0 -->
<g id="edge81" class="edge">
<title>&#45;13&#45;&gt;0</title>
<path fill="none" stroke="red" stroke-width="0.53" d="M215.02,-237.92C219.61,-232.64 226.21,-226.16 233.51,-222.55 285.5,-196.85 460.96,-179.37 528.08,-173.48"/>
<polygon fill="red" stroke="red" stroke-width="0.53" points="528.59,-176.95 538.25,-172.61 527.98,-169.98 528.59,-176.95"/>
</g>
<!-- &#45;13&#45;&gt;1 -->
<g id="edge50" class="edge">
<title>&#45;13&#45;&gt;1</title>
<path fill="none" stroke="red" stroke-width="0.61" d="M214.56,-238.25C219.13,-232.83 225.89,-226.06 233.51,-222.55 373.93,-157.86 427.14,-212.81 579.51,-186.55 592.07,-184.39 605.86,-181.15 617.32,-178.21"/>
<polygon fill="red" stroke="red" stroke-width="0.61" points="618.31,-181.57 627.09,-175.63 616.53,-174.8 618.31,-181.57"/>
</g>
<!-- &#45;13&#45;&gt;2 -->
<g id="edge38" class="edge">
<title>&#45;13&#45;&gt;2</title>
<path fill="none" stroke="red" stroke-width="0.24" d="M212.47,-238.07C227.02,-208.91 280.61,-110.05 357.51,-68.53 428.91,-29.97 683.19,-20.09 766.71,-17.85"/>
<polygon fill="red" stroke="red" stroke-width="0.24" points="766.99,-21.35 776.89,-17.6 766.81,-14.35 766.99,-21.35"/>
</g>
<!-- &#45;13&#45;&gt;3 -->
<g id="edge5" class="edge">
<title>&#45;13&#45;&gt;3</title>
<path fill="none" stroke="red" stroke-width="0.19" d="M214.54,-238.2C219.1,-232.76 225.86,-225.98 233.51,-222.55 321.82,-182.98 571.97,-201.99 667.51,-186.55 680.09,-184.52 693.88,-181.29 705.34,-178.33"/>
<polygon fill="red" stroke="red" stroke-width="0.19" points="706.35,-181.69 715.11,-175.73 704.54,-174.92 706.35,-181.69"/>
</g>
<!-- &#45;14 -->
<g id="node14" class="node">
<title>&#45;14</title>
<polygon fill="lightgray" stroke="black" points="782.51,-256.3 750.51,-256.3 750.51,-238.3 782.51,-238.3 782.51,-256.3"/>
<text text-anchor="middle" x="766.51" y="-245.1" font-family="Times,serif" font-size="9.00">&#45;14</text>
</g>
<!-- &#45;14&#45;&gt;0 -->
<g id="edge18" class="edge">
<title>&#45;14&#45;&gt;0</title>
<path fill="none" stroke="red" stroke-width="0.33" d="M759.85,-238.17C755.21,-233 748.6,-226.55 741.51,-222.55 727.33,-214.55 627.87,-189.39 580.06,-177.55"/>
<polygon fill="red" stroke="red" stroke-width="0.33" points="580.7,-174.11 570.16,-175.11 579.03,-180.9 580.7,-174.11"/>
</g>
<!-- &#45;14&#45;&gt;1 -->
<g id="edge52" class="edge">
<title>&#45;14&#45;&gt;1</title>
<path fill="none" stroke="green" stroke-width="0.29" d="M759.12,-238.21C754.39,-233.31 747.94,-227.13 741.51,-222.55 717.66,-205.57 687.43,-190.76 666.69,-181.48"/>
<polygon fill="green" stroke="green" stroke-width="0.29" points="667.9,-178.19 657.34,-177.39 665.09,-184.61 667.9,-178.19"/>
</g>
<!-- &#45;14&#45;&gt;2 -->
<g id="edge60" class="edge">
<title>&#45;14&#45;&gt;2</title>
<path fill="none" stroke="green" stroke-width="0.48" d="M767.47,-238.15C771.15,-206.89 784.47,-93.9 790.5,-42.74"/>
<polygon fill="green" stroke="green" stroke-width="0.48" points="794.01,-42.88 791.71,-32.54 787.06,-42.06 794.01,-42.88"/>
</g>
<!-- &#45;14&#45;&gt;3 -->
<g id="edge94" class="edge">
<title>&#45;14&#45;&gt;3</title>
<path fill="none" stroke="green" stroke-width="0.31" d="M762.65,-238.27C757.68,-227.92 748.83,-209.46 741.67,-194.54"/>
<polygon fill="green" stroke="green" stroke-width="0.31" points="744.75,-192.87 737.26,-185.37 738.44,-195.9 744.75,-192.87"/>
</g>
<!-- &#45;14&#45;&gt;4 -->
<g id="edge103" class="edge">
<title>&#45;14&#45;&gt;4</title>
<path fill="none" stroke="green" stroke-width="0.7" d="M774.66,-238.19C779.46,-233.51 785.71,-227.57 791.51,-222.55 805.81,-210.17 822.58,-196.97 835.51,-187.06"/>
<polygon fill="green" stroke="green" stroke-width="0.7" points="837.93,-189.62 843.77,-180.78 833.69,-184.05 837.93,-189.62"/>
</g>
<!-- &#45;15 -->
<g id="node15" class="node">
<title>&#45;15</title>
<polygon fill="lightgray" stroke="black" points="832.51,-256.3 800.51,-256.3 800.51,-238.3 832.51,-238.3 832.51,-256.3"/>
<text text-anchor="middle" x="816.51" y="-245.1" font-family="Times,serif" font-size="9.00">&#45;15</text>
</g>
<!-- &#45;15&#45;&gt;0 -->
<g id="edge69" class="edge">
<title>&#45;15&#45;&gt;0</title>
<path fill="none" stroke="red" stroke-width="0.12" d="M809.93,-238.02C805.33,-232.79 798.72,-226.32 791.51,-222.55 721.53,-185.95 694.56,-203.85 617.51,-186.55 605.15,-183.78 591.48,-180.49 580.04,-177.68"/>
<polygon fill="red" stroke="red" stroke-width="0.12" points="580.81,-174.27 570.27,-175.26 579.13,-181.06 580.81,-174.27"/>
</g>
<!-- &#45;15&#45;&gt;1 -->
<g id="edge37" class="edge">
<title>&#45;15&#45;&gt;1</title>
<path fill="none" stroke="red" stroke-width="0.53" d="M809.35,-237.87C804.7,-232.84 798.26,-226.65 791.51,-222.55 770.33,-209.7 704.53,-189.37 667.86,-178.58"/>
<polygon fill="red" stroke="red" stroke-width="0.53" points="668.5,-175.12 657.92,-175.68 666.54,-181.84 668.5,-175.12"/>
</g>
<!-- &#45;15&#45;&gt;2 -->
<g id="edge3" class="edge">
<title>&#45;15&#45;&gt;2</title>
<path fill="none" stroke="red" stroke-width="0.15" d="M815.69,-238.15C812.55,-206.89 801.2,-93.9 796.06,-42.74"/>
<polygon fill="red" stroke="red" stroke-width="0.15" points="799.52,-42.14 795.04,-32.54 792.56,-42.84 799.52,-42.14"/>
</g>
<!-- &#45;15&#45;&gt;3 -->
<g id="edge79" class="edge">
<title>&#45;15&#45;&gt;3</title>
<path fill="none" stroke="green" stroke-width="0.12" d="M808.29,-238.26C803.47,-233.59 797.22,-227.66 791.51,-222.55 778.23,-210.68 762.87,-197.79 750.89,-187.9"/>
<polygon fill="green" stroke="green" stroke-width="0.12" points="752.79,-184.93 742.84,-181.29 748.35,-190.34 752.79,-184.93"/>
</g>
<!-- &#45;15&#45;&gt;4 -->
<g id="edge92" class="edge">
<title>&#45;15&#45;&gt;4</title>
<path fill="none" stroke="green" stroke-width="0.47" d="M820.79,-238.27C826.34,-227.86 836.27,-209.24 844.25,-194.28"/>
<polygon fill="green" stroke="green" stroke-width="0.47" points="847.53,-195.56 849.15,-185.09 841.35,-192.27 847.53,-195.56"/>
</g>
<!-- &#45;16 -->
<g id="node16" class="node">
<title>&#45;16</title>
<polygon fill="lightgray" stroke="black" points="1208.51,-256.3 1176.51,-256.3 1176.51,-238.3 1208.51,-238.3 1208.51,-256.3"/>
<text text-anchor="middle" x="1192.51" y="-245.1" font-family="Times,serif" font-size="9.00">&#45;16</text>
</g>
<!-- &#45;16&#45;&gt;1 -->
<g id="edge46" class="edge">
<title>&#45;16&#45;&gt;1</title>
<path fill="none" stroke="green" stroke-width="0.1" d="M1186.48,-238.19C1181.92,-232.74 1175.16,-225.96 1167.51,-222.55 1073.43,-180.68 807.21,-202.73 705.51,-186.55 692.91,-184.55 679.12,-181.33 667.67,-178.36"/>
<polygon fill="green" stroke="green" stroke-width="0.1" points="668.47,-174.95 657.9,-175.75 666.66,-181.71 668.47,-174.95"/>
</g>
<!-- &#45;16&#45;&gt;2 -->
<g id="edge78" class="edge">
<title>&#45;16&#45;&gt;2</title>
<path fill="none" stroke="red" stroke-width="0.28" d="M1192.88,-237.97C1193.67,-209.32 1192.08,-114.09 1139.51,-68.53 1091.71,-27.11 892.61,-19.15 820.08,-17.63"/>
<polygon fill="red" stroke="red" stroke-width="0.28" points="820.01,-14.12 809.95,-17.44 819.88,-21.12 820.01,-14.12"/>
</g>
<!-- &#45;16&#45;&gt;3 -->
<g id="edge2" class="edge">
<title>&#45;16&#45;&gt;3</title>
<path fill="none" stroke="red" stroke-width="0.33" d="M1186.44,-238.26C1181.88,-232.84 1175.11,-226.07 1167.51,-222.55 1031.19,-159.5 980.46,-205.78 831.51,-186.55 806.01,-183.26 777.01,-178.8 756.64,-175.56"/>
<polygon fill="red" stroke="red" stroke-width="0.33" points="757,-172.07 746.57,-173.93 755.89,-178.98 757,-172.07"/>
</g>
<!-- &#45;16&#45;&gt;4 -->
<g id="edge36" class="edge">
<title>&#45;16&#45;&gt;4</title>
<path fill="none" stroke="green" stroke-width="0.18" d="M1185.98,-237.93C1181.4,-232.65 1174.8,-226.18 1167.51,-222.55 1071.05,-174.57 939.02,-170.07 883.17,-170.55"/>
<polygon fill="green" stroke="green" stroke-width="0.18" points="883,-167.05 873.06,-170.7 883.11,-174.05 883,-167.05"/>
</g>
<!-- &#45;17 -->
<g id="node17" class="node">
<title>&#45;17</title>
<polygon fill="lightgray" stroke="black" points="882.51,-256.3 850.51,-256.3 850.51,-238.3 882.51,-238.3 882.51,-256.3"/>
<text text-anchor="middle" x="866.51" y="-245.1" font-family="Times,serif" font-size="9.00">&#45;17</text>
</g>
<!-- &#45;17&#45;&gt;0 -->
<g id="edge31" class="edge">
<title>&#45;17&#45;&gt;0</title>
<path fill="none" stroke="red" stroke-width="0.29" d="M859.99,-237.92C855.4,-232.64 848.8,-226.16 841.51,-222.55 751.13,-177.83 716.36,-206.44 617.51,-186.55 605,-184.04 591.23,-180.76 579.75,-177.88"/>
<polygon fill="red" stroke="red" stroke-width="0.29" points="580.52,-174.47 569.96,-175.39 578.79,-181.25 580.52,-174.47"/>
</g>
<!-- &#45;17&#45;&gt;1 -->
<g id="edge104" class="edge">
<title>&#45;17&#45;&gt;1</title>
<path fill="none" stroke="red" stroke-width="0.38" d="M859.87,-238.14C855.24,-232.95 848.63,-226.5 841.51,-222.55 833.82,-218.3 720.2,-190.25 668.17,-177.54"/>
<polygon fill="red" stroke="red" stroke-width="0.38" points="668.9,-174.11 658.35,-175.14 667.24,-180.91 668.9,-174.11"/>
</g>
<!-- &#45;17&#45;&gt;2 -->
<g id="edge95" class="edge">
<title>&#45;17&#45;&gt;2</title>
<path fill="none" stroke="red" stroke-width="0.38" d="M870.28,-238C877.19,-221.65 890.39,-184.23 881.51,-154.02 867.77,-107.3 832.59,-61.45 811.1,-36.51"/>
<polygon fill="red" stroke="red" stroke-width="0.38" points="813.62,-34.08 804.39,-28.88 808.37,-38.7 813.62,-34.08"/>
</g>
<!-- &#45;17&#45;&gt;3 -->
<g id="edge61" class="edge">
<title>&#45;17&#45;&gt;3</title>
<path fill="none" stroke="green" stroke-width="0.39" d="M859.19,-238.11C854.49,-233.16 848.04,-226.99 841.51,-222.55 813.97,-203.86 778.52,-188.84 755.19,-180"/>
<polygon fill="green" stroke="green" stroke-width="0.39" points="756.28,-176.67 745.69,-176.49 753.85,-183.24 756.28,-176.67"/>
</g>
<!-- &#45;17&#45;&gt;4 -->
<g id="edge33" class="edge">
<title>&#45;17&#45;&gt;4</title>
<path fill="none" stroke="red" stroke-width="0.21" d="M865.44,-238.27C864.11,-228.36 861.8,-211.02 859.86,-196.47"/>
<polygon fill="red" stroke="red" stroke-width="0.21" points="863.33,-195.96 858.54,-186.51 856.39,-196.88 863.33,-195.96"/>
</g>
<!-- &#45;18 -->
<g id="node18" class="node">
<title>&#45;18</title>
<polygon fill="lightgray" stroke="black" points="932.51,-256.3 900.51,-256.3 900.51,-238.3 932.51,-238.3 932.51,-256.3"/>
<text text-anchor="middle" x="916.51" y="-245.1" font-family="Times,serif" font-size="9.00">&#45;18</text>
</g>
<!-- &#45;18&#45;&gt;0 -->
<g id="edge80" class="edge">
<title>&#45;18&#45;&gt;0</title>
<path fill="none" stroke="red" stroke-width="0.35" d="M910.02,-237.85C905.45,-232.54 898.85,-226.06 891.51,-222.55 780.65,-169.66 738.25,-209.04 617.51,-186.55 604.97,-184.22 591.19,-180.96 579.72,-178.05"/>
<polygon fill="red" stroke="red" stroke-width="0.35" points="580.5,-174.64 569.94,-175.52 578.74,-181.41 580.5,-174.64"/>
</g>
<!-- &#45;18&#45;&gt;1 -->
<g id="edge4" class="edge">
<title>&#45;18&#45;&gt;1</title>
<path fill="none" stroke="red" stroke-width="0.16" d="M909.95,-237.99C905.35,-232.75 898.74,-226.28 891.51,-222.55 816.64,-184.01 787.78,-204.47 705.51,-186.55 693.05,-183.84 679.27,-180.54 667.79,-177.7"/>
<polygon fill="red" stroke="red" stroke-width="0.16" points="668.54,-174.28 657.99,-175.25 666.85,-181.07 668.54,-174.28"/>
</g>
<!-- &#45;18&#45;&gt;2 -->
<g id="edge12" class="edge">
<title>&#45;18&#45;&gt;2</title>
<path fill="none" stroke="red" stroke-width="0.25" d="M916.14,-237.93C914.54,-210.7 906.25,-123.23 864.51,-68.53 851.75,-51.81 832.06,-38.2 816.64,-29.21"/>
<polygon fill="red" stroke="red" stroke-width="0.25" points="818.14,-26.03 807.7,-24.22 814.73,-32.15 818.14,-26.03"/>
</g>
<!-- &#45;18&#45;&gt;3 -->
<g id="edge49" class="edge">
<title>&#45;18&#45;&gt;3</title>
<path fill="none" stroke="green" stroke-width="0.28" d="M909.8,-238.27C905.13,-233.14 898.51,-226.7 891.51,-222.55 847.95,-196.8 789.99,-182.47 756.82,-175.87"/>
<polygon fill="green" stroke="green" stroke-width="0.28" points="757.05,-172.35 746.57,-173.92 755.74,-179.23 757.05,-172.35"/>
</g>
<!-- &#45;18&#45;&gt;4 -->
<g id="edge101" class="edge">
<title>&#45;18&#45;&gt;4</title>
<path fill="none" stroke="green" stroke-width="0.44" d="M910.09,-238.27C901.21,-227.17 884.89,-206.78 872.59,-191.39"/>
<polygon fill="green" stroke="green" stroke-width="0.44" points="875.22,-189.08 866.24,-183.45 869.75,-193.45 875.22,-189.08"/>
</g>
<!-- &#45;19 -->
<g id="node19" class="node">
<title>&#45;19</title>
<polygon fill="lightgray" stroke="black" points="1020.51,-256.3 988.51,-256.3 988.51,-238.3 1020.51,-238.3 1020.51,-256.3"/>
<text text-anchor="middle" x="1004.51" y="-245.1" font-family="Times,serif" font-size="9.00">&#45;19</text>
</g>
<!-- &#45;19&#45;&gt;0 -->
<g id="edge17" class="edge">
<title>&#45;19&#45;&gt;0</title>
<path fill="none" stroke="red" stroke-width="0.32" d="M988.28,-238.9C975.76,-233.5 957.87,-226.48 941.51,-222.55 800.62,-188.73 760.2,-211.66 617.51,-186.55 604.95,-184.34 591.16,-181.1 579.7,-178.17"/>
<polygon fill="red" stroke="red" stroke-width="0.32" points="580.49,-174.76 569.92,-175.6 578.71,-181.53 580.49,-174.76"/>
</g>
<!-- &#45;19&#45;&gt;1 -->
<g id="edge93" class="edge">
<title>&#45;19&#45;&gt;1</title>
<path fill="none" stroke="red" stroke-width="0.33" d="M988.49,-239.2C975.94,-233.89 957.9,-226.84 941.51,-222.55 838.86,-195.69 809.61,-207.06 705.51,-186.55 692.99,-184.09 679.22,-180.81 667.74,-177.93"/>
<polygon fill="red" stroke="red" stroke-width="0.33" points="668.51,-174.51 657.96,-175.43 666.78,-181.3 668.51,-174.51"/>
</g>
<!-- &#45;19&#45;&gt;2 -->
<g id="edge59" class="edge">
<title>&#45;19&#45;&gt;2</title>
<path fill="none" stroke="red" stroke-width="0.23" d="M1001.14,-238.19C989.5,-211.01 948.54,-121.88 890.51,-68.53 869.3,-49.03 839.29,-34.68 818.28,-26.2"/>
<polygon fill="red" stroke="red" stroke-width="0.23" points="819.36,-22.86 808.77,-22.51 816.83,-29.39 819.36,-22.86"/>
</g>
<!-- &#45;19&#45;&gt;3 -->
<g id="edge30" class="edge">
<title>&#45;19&#45;&gt;3</title>
<path fill="none" stroke="green" stroke-width="0.24" d="M996.3,-238.07C990.64,-232.85 982.69,-226.39 974.51,-222.55 935.74,-204.38 811.2,-183.68 756.58,-175.21"/>
<polygon fill="green" stroke="green" stroke-width="0.24" points="757.06,-171.74 746.64,-173.69 755.99,-178.66 757.06,-171.74"/>
</g>
<!-- &#45;19&#45;&gt;4 -->
<g id="edge102" class="edge">
<title>&#45;19&#45;&gt;4</title>
<path fill="none" stroke="red" stroke-width="0.39" d="M995.5,-238.15C989.77,-233.23 982.03,-227.06 974.51,-222.55 943.99,-204.27 905.78,-188.9 881.25,-179.89"/>
<polygon fill="red" stroke="red" stroke-width="0.39" points="882.24,-176.52 871.64,-176.43 879.87,-183.11 882.24,-176.52"/>
</g>
<!-- &#45;20 -->
<g id="node20" class="node">
<title>&#45;20</title>
<polygon fill="lightgray" stroke="black" points="380.51,-337.55 348.51,-337.55 348.51,-319.55 380.51,-319.55 380.51,-337.55"/>
<text text-anchor="middle" x="364.51" y="-326.35" font-family="Times,serif" font-size="9.00">&#45;20</text>
</g>
<!-- &#45;20&#45;&gt;0 -->
<g id="edge68" class="edge">
<title>&#45;20&#45;&gt;0</title>
<path fill="none" stroke="green" stroke-width="0.24" d="M348.47,-328.33C311.96,-329.09 222.78,-325.17 183.51,-272.05 170.43,-254.36 169.05,-239.14 183.51,-222.55 228.49,-170.92 450.62,-169.55 527.93,-170.68"/>
<polygon fill="green" stroke="green" stroke-width="0.24" points="528.19,-174.19 538.24,-170.86 528.31,-167.19 528.19,-174.19"/>
</g>
<!-- &#45;20&#45;&gt;1 -->
<g id="edge100" class="edge">
<title>&#45;20&#45;&gt;1</title>
<path fill="none" stroke="red" stroke-width="0.15" d="M360.04,-319.27C350.22,-299.81 329.47,-250.72 353.51,-222.55 386.52,-183.87 529.64,-196.55 579.51,-186.55 592.01,-184.04 605.79,-180.77 617.26,-177.89"/>
<polygon fill="red" stroke="red" stroke-width="0.15" points="618.22,-181.26 627.05,-175.4 616.49,-174.48 618.22,-181.26"/>
</g>
<!-- &#45;20&#45;&gt;2 -->
<g id="edge29" class="edge">
<title>&#45;20&#45;&gt;2</title>
<path fill="none" stroke="red" stroke-width="0.31" d="M380.53,-327.15C496.7,-324.15 1206.01,-304.54 1236.51,-272.05 1289.21,-215.88 1250.26,-129.66 1169.51,-68.53 1114.31,-26.74 896.33,-19.01 820.04,-17.59"/>
<polygon fill="red" stroke="red" stroke-width="0.31" points="819.91,-14.08 809.85,-17.42 819.79,-21.08 819.91,-14.08"/>
</g>
<!-- &#45;20&#45;&gt;4 -->
<g id="edge47" class="edge">
<title>&#45;20&#45;&gt;4</title>
<path fill="none" stroke="red" stroke-width="0.49" d="M380.55,-327.13C495.3,-324 1187.73,-303.83 1217.51,-272.05 1232.55,-256 1231.93,-239.16 1217.51,-222.55 1173.9,-172.32 958.59,-170.01 882.89,-170.8"/>
<polygon fill="red" stroke="red" stroke-width="0.49" points="882.72,-167.3 872.77,-170.93 882.81,-174.3 882.72,-167.3"/>
</g>
<!-- 104 -->
<g id="node27" class="node">
<title>104</title>
<ellipse fill="white" stroke="black" cx="387.51" cy="-247.3" rx="25" ry="25"/>
<text text-anchor="middle" x="387.51" y="-245.1" font-family="Times,serif" font-size="9.00">104</text>
</g>
<!-- &#45;20&#45;&gt;104 -->
<g id="edge107" class="edge">
<title>&#45;20&#45;&gt;104</title>
<path fill="none" stroke="green" stroke-width="0.14" d="M366.88,-319.37C369.5,-310.33 373.89,-295.2 377.95,-281.22"/>
<polygon fill="green" stroke="green" stroke-width="0.14" points="381.39,-281.93 380.82,-271.35 374.67,-279.98 381.39,-281.93"/>
</g>
<!-- 19 -->
<g id="node29" class="node">
<title>19</title>
<ellipse fill="white" stroke="black" cx="115.51" cy="-247.3" rx="20.51" ry="20.51"/>
<text text-anchor="middle" x="115.51" y="-245.1" font-family="Times,serif" font-size="9.00">19</text>
</g>
<!-- &#45;20&#45;&gt;19 -->
<g id="edge70" class="edge">
<title>&#45;20&#45;&gt;19</title>
<path fill="none" stroke="green" stroke-width="0.59" d="M348.31,-325.29C311.72,-319.77 220.44,-303.7 150.51,-272.05 146.85,-270.39 143.15,-268.36 139.61,-266.19"/>
<polygon fill="green" stroke="green" stroke-width="0.59" points="141.48,-263.23 131.2,-260.64 137.62,-269.07 141.48,-263.23"/>
</g>
<!-- 1&#45;&gt;161 -->
<g id="edge8" class="edge">
<title>1&#45;&gt;161</title>
<path fill="none" stroke="green" stroke-width="0.12" d="M631.19,-158.54C620.17,-148.08 603.06,-131.83 588.79,-118.29"/>
<polygon fill="green" stroke="green" stroke-width="0.12" points="590.88,-115.44 581.22,-111.09 586.06,-120.52 590.88,-115.44"/>
</g>
<!-- 161&#45;&gt;2 -->
<g id="edge13" class="edge">
<title>161&#45;&gt;2</title>
<path fill="none" stroke="red" stroke-width="0.48" d="M583.56,-78.56C589.48,-74.94 596.09,-71.27 602.51,-68.53 659.1,-44.29 730.11,-28.86 767.58,-21.79"/>
<polygon fill="red" stroke="red" stroke-width="0.48" points="768.45,-25.18 777.65,-19.93 767.19,-18.3 768.45,-25.18"/>
</g>
<!-- 104&#45;&gt;0 -->
<g id="edge21" class="edge">
<title>104&#45;&gt;0</title>
<path fill="none" stroke="red" stroke-width="0.23" d="M406.77,-231.65C411.45,-228.42 416.55,-225.19 421.51,-222.55 457.35,-203.49 501.87,-187.81 529.23,-179"/>
<polygon fill="red" stroke="red" stroke-width="0.23" points="530.34,-182.32 538.82,-175.97 528.23,-175.65 530.34,-182.32"/>
</g>
<!-- 104&#45;&gt;3 -->
<g id="edge14" class="edge">
<title>104&#45;&gt;3</title>
<path fill="none" stroke="red" stroke-width="0.13" d="M406.39,-230.82C411.09,-227.63 416.29,-224.62 421.51,-222.55 524.22,-181.82 559.03,-207.58 667.51,-186.55 680.03,-184.12 693.8,-180.86 705.28,-177.97"/>
<polygon fill="red" stroke="red" stroke-width="0.13" points="706.24,-181.33 715.06,-175.45 704.5,-174.55 706.24,-181.33"/>
</g>
<!-- 80&#45;&gt;2 -->
<g id="edge97" class="edge">
<title>80&#45;&gt;2</title>
<path fill="none" stroke="green" stroke-width="0.14" d="M26.32,-308.83C33.96,-286.44 49.1,-248.72 71.51,-222.55 149.62,-131.34 180.88,-110.2 293.51,-68.53 381.79,-35.86 676.4,-21.84 766.86,-18.24"/>
<polygon fill="green" stroke="green" stroke-width="0.14" points="767.23,-21.73 777.08,-17.85 766.96,-14.74 767.23,-21.73"/>
</g>
<!-- 80&#45;&gt;19 -->
<g id="edge34" class="edge">
<title>80&#45;&gt;19</title>
<path fill="none" stroke="red" stroke-width="0.44" d="M35.77,-314.82C50.91,-302.19 74.34,-282.65 91.88,-268.01"/>
<polygon fill="red" stroke="red" stroke-width="0.44" points="94.53,-270.36 99.96,-261.27 90.04,-264.98 94.53,-270.36"/>
</g>
<!-- 19&#45;&gt;0 -->
<g id="edge86" class="edge">
<title>19&#45;&gt;0</title>
<path fill="none" stroke="green" stroke-width="0.33" d="M131,-233.48C136.79,-229.34 143.64,-225.15 150.51,-222.55 220.31,-196.18 449.65,-178.45 527.99,-173.03"/>
<polygon fill="green" stroke="green" stroke-width="0.33" points="528.28,-176.52 538.01,-172.35 527.8,-169.54 528.28,-176.52"/>
</g>
<!-- 121&#45;&gt;2 -->
<g id="edge57" class="edge">
<title>121&#45;&gt;2</title>
<path fill="none" stroke="red" stroke-width="0.49" d="M1009.46,-78.53C1003.55,-74.91 996.93,-71.25 990.51,-68.53 931.76,-43.64 857.9,-28.36 819.46,-21.51"/>
<polygon fill="red" stroke="red" stroke-width="0.49" points="820.05,-18.06 809.6,-19.81 818.85,-24.96 820.05,-18.06"/>
</g>
</g>
</svg>
