<?xml version="1.0" encoding="UTF-8" standalone="no"?>
<!DOCTYPE svg PUBLIC "-//W3C//DTD SVG 1.1//EN"
 "http://www.w3.org/Graphics/SVG/1.1/DTD/svg11.dtd">
<!-- Generated by graphviz version 2.49.0 (20210828.1703)
 -->
<!-- Pages: 1 -->
<svg width="1274pt" height="170pt"
 viewBox="0.00 0.00 1273.51 170.12" xmlns="http://www.w3.org/2000/svg" xmlns:xlink="http://www.w3.org/1999/xlink">
<g id="graph0" class="graph" transform="scale(1 1) rotate(0) translate(4 166.12)">
<polygon fill="white" stroke="transparent" points="-4,4 -4,-166.12 1269.51,-166.12 1269.51,4 -4,4"/>
<!-- &#45;1 -->
<g id="node1" class="node">
<title>&#45;1</title>
<polygon fill="lightgray" stroke="black" points="458.21,-95.91 434.21,-95.91 434.21,-77.91 458.21,-77.91 458.21,-95.91"/>
<text text-anchor="middle" x="446.21" y="-84.71" font-family="Times New Roman,serif" font-size="9.00">&#45;1</text>
</g>
<!-- 0 -->
<g id="node21" class="node">
<title>0</title>
<ellipse fill="lightblue" stroke="black" cx="675.21" cy="-14.85" rx="14.7" ry="14.7"/>
<text text-anchor="middle" x="675.21" y="-12.65" font-family="Times New Roman,serif" font-size="9.00">0</text>
</g>
<!-- &#45;1&#45;&gt;0 -->
<g id="edge1" class="edge">
<title>&#45;1&#45;&gt;0</title>
<path fill="none" stroke="green" stroke-width="0.41" d="M452.77,-77.64C456.55,-73.43 461.65,-68.59 467.21,-65.7 541.13,-27.24 573.18,-58.92 651.21,-29.7 652.08,-29.37 652.95,-29.02 653.83,-28.64"/>
<polygon fill="green" stroke="green" stroke-width="0.41" points="655.59,-31.67 662.89,-24 652.4,-25.44 655.59,-31.67"/>
</g>
<!-- 1 -->
<g id="node22" class="node">
<title>1</title>
<ellipse fill="lightblue" stroke="black" cx="579.21" cy="-14.85" rx="14.7" ry="14.7"/>
<text text-anchor="middle" x="579.21" y="-12.65" font-family="Times New Roman,serif" font-size="9.00">1</text>
</g>
<!-- &#45;1&#45;&gt;1 -->
<g id="edge2" class="edge">
<title>&#45;1&#45;&gt;1</title>
<path fill="none" stroke="green" stroke-width="0.18" d="M453.39,-77.66C457.19,-73.66 462.12,-69.01 467.21,-65.7 502.62,-42.64 517.27,-48.3 555.21,-29.7 556.04,-29.29 556.89,-28.87 557.73,-28.43"/>
<polygon fill="green" stroke="green" stroke-width="0.18" points="559.61,-31.39 566.68,-23.51 556.23,-25.26 559.61,-31.39"/>
</g>
<!-- 2 -->
<g id="node23" class="node">
<title>2</title>
<ellipse fill="lightblue" stroke="black" cx="531.21" cy="-14.85" rx="14.7" ry="14.7"/>
<text text-anchor="middle" x="531.21" y="-12.65" font-family="Times New Roman,serif" font-size="9.00">2</text>
</g>
<!-- &#45;1&#45;&gt;2 -->
<g id="edge3" class="edge">
<title>&#45;1&#45;&gt;2</title>
<path fill="none" stroke="green" stroke-width="0.19" d="M454.21,-77.84C458.05,-74.05 462.78,-69.54 467.21,-65.7 481.57,-53.26 498.56,-40.09 511.43,-30.41"/>
<polygon fill="green" stroke="green" stroke-width="0.19" points="513.67,-33.11 519.6,-24.32 509.49,-27.5 513.67,-33.11"/>
</g>
<!-- 3 -->
<g id="node24" class="node">
<title>3</title>
<ellipse fill="lightblue" stroke="black" cx="627.21" cy="-14.85" rx="14.7" ry="14.7"/>
<text text-anchor="middle" x="627.21" y="-12.65" font-family="Times New Roman,serif" font-size="9.00">3</text>
</g>
<!-- &#45;1&#45;&gt;3 -->
<g id="edge4" class="edge">
<title>&#45;1&#45;&gt;3</title>
<path fill="none" stroke="green" stroke-width="0.35" d="M452.84,-77.79C456.65,-73.61 461.74,-68.78 467.21,-65.7 521.7,-35.04 545.41,-53.53 603.21,-29.7 604.07,-29.35 604.93,-28.97 605.8,-28.57"/>
<polygon fill="green" stroke="green" stroke-width="0.35" points="607.6,-31.58 614.83,-23.83 604.35,-25.38 607.6,-31.58"/>
</g>
<!-- 4 -->
<g id="node25" class="node">
<title>4</title>
<ellipse fill="lightblue" stroke="black" cx="723.21" cy="-14.85" rx="14.7" ry="14.7"/>
<text text-anchor="middle" x="723.21" y="-12.65" font-family="Times New Roman,serif" font-size="9.00">4</text>
</g>
<!-- &#45;1&#45;&gt;4 -->
<g id="edge5" class="edge">
<title>&#45;1&#45;&gt;4</title>
<path fill="none" stroke="red" stroke-width="0.54" d="M452.72,-77.55C456.49,-73.31 461.59,-68.48 467.21,-65.7 560.71,-19.36 600.79,-64.36 699.21,-29.7 700.09,-29.39 700.96,-29.05 701.84,-28.69"/>
<polygon fill="red" stroke="red" stroke-width="0.54" points="703.58,-31.73 710.93,-24.1 700.43,-25.48 703.58,-31.73"/>
</g>
<!-- &#45;2 -->
<g id="node2" class="node">
<title>&#45;2</title>
<polygon fill="lightgray" stroke="black" points="500.21,-95.91 476.21,-95.91 476.21,-77.91 500.21,-77.91 500.21,-95.91"/>
<text text-anchor="middle" x="488.21" y="-84.71" font-family="Times New Roman,serif" font-size="9.00">&#45;2</text>
</g>
<!-- &#45;2&#45;&gt;0 -->
<g id="edge6" class="edge">
<title>&#45;2&#45;&gt;0</title>
<path fill="none" stroke="red" stroke-width="0.67" d="M495.22,-77.78C499.22,-73.6 504.56,-68.76 510.21,-65.7 567.08,-34.89 591.31,-54.09 651.21,-29.7 652.07,-29.35 652.94,-28.97 653.8,-28.58"/>
<polygon fill="red" stroke="red" stroke-width="0.67" points="655.6,-31.59 662.84,-23.85 652.35,-25.39 655.6,-31.59"/>
</g>
<!-- &#45;2&#45;&gt;1 -->
<g id="edge7" class="edge">
<title>&#45;2&#45;&gt;1</title>
<path fill="none" stroke="green" stroke-width="0.7" d="M496.57,-77.8C500.6,-74.01 505.55,-69.5 510.21,-65.7 525.99,-52.82 544.78,-39.36 558.76,-29.68"/>
<polygon fill="green" stroke="green" stroke-width="0.7" points="560.91,-32.45 567.18,-23.91 556.95,-26.68 560.91,-32.45"/>
</g>
<!-- &#45;2&#45;&gt;2 -->
<g id="edge8" class="edge">
<title>&#45;2&#45;&gt;2</title>
<path fill="none" stroke="green" stroke-width="0.39" d="M493.15,-77.87C499.24,-67.95 509.84,-50.67 518.31,-36.87"/>
<polygon fill="green" stroke="green" stroke-width="0.39" points="521.5,-38.36 523.75,-28.01 515.54,-34.7 521.5,-38.36"/>
</g>
<!-- &#45;2&#45;&gt;3 -->
<g id="edge9" class="edge">
<title>&#45;2&#45;&gt;3</title>
<path fill="none" stroke="red" stroke-width="0.13" d="M495.77,-77.64C499.76,-73.63 504.93,-68.98 510.21,-65.7 547.85,-42.3 563.23,-48.83 603.21,-29.7 604.05,-29.3 604.89,-28.88 605.74,-28.45"/>
<polygon fill="red" stroke="red" stroke-width="0.13" points="607.61,-31.42 614.7,-23.55 604.25,-25.28 607.61,-31.42"/>
</g>
<!-- &#45;2&#45;&gt;4 -->
<g id="edge10" class="edge">
<title>&#45;2&#45;&gt;4</title>
<path fill="none" stroke="red" stroke-width="0.41" d="M495.14,-77.63C499.13,-73.42 504.47,-68.59 510.21,-65.7 586.62,-27.3 619.06,-59.49 699.21,-29.7 700.08,-29.38 700.95,-29.02 701.83,-28.65"/>
<polygon fill="red" stroke="red" stroke-width="0.41" points="703.59,-31.68 710.9,-24.01 700.4,-25.45 703.59,-31.68"/>
</g>
<!-- &#45;3 -->
<g id="node3" class="node">
<title>&#45;3</title>
<polygon fill="lightgray" stroke="black" points="236.21,-95.91 212.21,-95.91 212.21,-77.91 236.21,-77.91 236.21,-95.91"/>
<text text-anchor="middle" x="224.21" y="-84.71" font-family="Times New Roman,serif" font-size="9.00">&#45;3</text>
</g>
<!-- &#45;3&#45;&gt;1 -->
<g id="edge11" class="edge">
<title>&#45;3&#45;&gt;1</title>
<path fill="none" stroke="green" stroke-width="0.85" d="M230.69,-77.88C234.68,-73.52 240.18,-68.46 246.21,-65.7 371.92,-8.12 423.96,-73.15 555.21,-29.7 556.09,-29.41 556.97,-29.08 557.86,-28.73"/>
<polygon fill="green" stroke="green" stroke-width="0.85" points="559.57,-31.78 566.96,-24.2 556.45,-25.52 559.57,-31.78"/>
</g>
<!-- &#45;3&#45;&gt;2 -->
<g id="edge12" class="edge">
<title>&#45;3&#45;&gt;2</title>
<path fill="none" stroke="green" stroke-width="0.29" d="M231.13,-77.6C235.1,-73.37 240.44,-68.54 246.21,-65.7 334.35,-22.24 454.23,-16.09 505.86,-15.61"/>
<polygon fill="green" stroke="green" stroke-width="0.29" points="506.09,-19.11 516.08,-15.58 506.07,-12.11 506.09,-19.11"/>
</g>
<!-- &#45;3&#45;&gt;3 -->
<g id="edge13" class="edge">
<title>&#45;3&#45;&gt;3</title>
<path fill="none" stroke="green" stroke-width="0.22" d="M230.67,-77.84C234.66,-73.47 240.16,-68.42 246.21,-65.7 391.71,-0.41 451.44,-78.64 603.21,-29.7 604.27,-29.36 605.32,-28.97 606.38,-28.54"/>
<polygon fill="green" stroke="green" stroke-width="0.22" points="608.12,-31.58 615.47,-23.95 604.97,-25.33 608.12,-31.58"/>
</g>
<!-- &#45;4 -->
<g id="node4" class="node">
<title>&#45;4</title>
<polygon fill="lightgray" stroke="black" points="915.21,-95.91 891.21,-95.91 891.21,-77.91 915.21,-77.91 915.21,-95.91"/>
<text text-anchor="middle" x="903.21" y="-84.71" font-family="Times New Roman,serif" font-size="9.00">&#45;4</text>
</g>
<!-- &#45;4&#45;&gt;0 -->
<g id="edge14" class="edge">
<title>&#45;4&#45;&gt;0</title>
<path fill="none" stroke="red" stroke-width="0.46" d="M896.66,-77.64C892.88,-73.43 887.78,-68.6 882.21,-65.7 808.7,-27.4 776.83,-58.81 699.21,-29.7 698.35,-29.37 697.47,-29.02 696.6,-28.64"/>
<polygon fill="red" stroke="red" stroke-width="0.46" points="698.03,-25.44 687.53,-23.99 694.84,-31.67 698.03,-25.44"/>
</g>
<!-- &#45;4&#45;&gt;1 -->
<g id="edge15" class="edge">
<title>&#45;4&#45;&gt;1</title>
<path fill="none" stroke="green" stroke-width="0.21" d="M897.09,-77.91C893.3,-73.55 888.05,-68.5 882.21,-65.7 769.49,-11.62 721.66,-69.72 603.21,-29.7 602.34,-29.4 601.45,-29.07 600.58,-28.71"/>
<polygon fill="green" stroke="green" stroke-width="0.21" points="601.98,-25.51 591.47,-24.16 598.85,-31.77 601.98,-25.51"/>
</g>
<!-- &#45;4&#45;&gt;2 -->
<g id="edge16" class="edge">
<title>&#45;4&#45;&gt;2</title>
<path fill="none" stroke="green" stroke-width="0.45" d="M897.11,-77.87C893.33,-73.5 888.08,-68.45 882.21,-65.7 749.8,-3.69 694.16,-75.21 555.21,-29.7 554.33,-29.41 553.45,-29.09 552.57,-28.74"/>
<polygon fill="green" stroke="green" stroke-width="0.45" points="553.97,-25.52 543.46,-24.21 550.86,-31.79 553.97,-25.52"/>
</g>
<!-- &#45;4&#45;&gt;3 -->
<g id="edge17" class="edge">
<title>&#45;4&#45;&gt;3</title>
<path fill="none" stroke="red" stroke-width="0.17" d="M896.7,-77.56C892.94,-73.32 887.83,-68.49 882.21,-65.7 789.13,-19.53 749.21,-64.25 651.21,-29.7 650.34,-29.39 649.46,-29.05 648.59,-28.69"/>
<polygon fill="red" stroke="red" stroke-width="0.17" points="650,-25.48 639.5,-24.1 646.85,-31.73 650,-25.48"/>
</g>
<!-- &#45;4&#45;&gt;4 -->
<g id="edge18" class="edge">
<title>&#45;4&#45;&gt;4</title>
<path fill="none" stroke="red" stroke-width="0.33" d="M896.53,-77.88C892.71,-73.74 887.61,-68.9 882.21,-65.7 838.61,-39.86 780.22,-26.04 747.71,-19.89"/>
<polygon fill="red" stroke="red" stroke-width="0.33" points="748.19,-16.42 737.73,-18.09 746.95,-23.31 748.19,-16.42"/>
</g>
<!-- &#45;5 -->
<g id="node5" class="node">
<title>&#45;5</title>
<polygon fill="lightgray" stroke="black" points="684.21,-95.91 660.21,-95.91 660.21,-77.91 684.21,-77.91 684.21,-95.91"/>
<text text-anchor="middle" x="672.21" y="-84.71" font-family="Times New Roman,serif" font-size="9.00">&#45;5</text>
</g>
<!-- &#45;5&#45;&gt;0 -->
<g id="edge19" class="edge">
<title>&#45;5&#45;&gt;0</title>
<path fill="none" stroke="green" stroke-width="0.31" d="M672.56,-77.87C672.95,-68.72 673.61,-53.33 674.17,-40.16"/>
<polygon fill="green" stroke="green" stroke-width="0.31" points="677.68,-39.96 674.62,-29.82 670.69,-39.66 677.68,-39.96"/>
</g>
<!-- &#45;5&#45;&gt;1 -->
<g id="edge20" class="edge">
<title>&#45;5&#45;&gt;1</title>
<path fill="none" stroke="green" stroke-width="0.3" d="M664.32,-77.72C660.49,-73.92 655.76,-69.42 651.21,-65.7 634.65,-52.14 614.53,-38.42 599.77,-28.81"/>
<polygon fill="green" stroke="green" stroke-width="0.3" points="601.66,-25.87 591.36,-23.4 597.88,-31.76 601.66,-25.87"/>
</g>
<!-- &#45;5&#45;&gt;2 -->
<g id="edge21" class="edge">
<title>&#45;5&#45;&gt;2</title>
<path fill="none" stroke="red" stroke-width="0.23" d="M665.08,-77.6C661.29,-73.58 656.35,-68.94 651.21,-65.7 612.67,-41.4 596.42,-49.15 555.21,-29.7 554.38,-29.3 553.53,-28.89 552.68,-28.46"/>
<polygon fill="red" stroke="red" stroke-width="0.23" points="554.17,-25.29 543.71,-23.58 550.82,-31.43 554.17,-25.29"/>
</g>
<!-- &#45;5&#45;&gt;3 -->
<g id="edge22" class="edge">
<title>&#45;5&#45;&gt;3</title>
<path fill="none" stroke="green" stroke-width="0.16" d="M667.05,-77.87C660.57,-67.79 649.23,-50.14 640.31,-36.23"/>
<polygon fill="green" stroke="green" stroke-width="0.16" points="643.21,-34.28 634.86,-27.76 637.32,-38.06 643.21,-34.28"/>
</g>
<!-- &#45;5&#45;&gt;4 -->
<g id="edge23" class="edge">
<title>&#45;5&#45;&gt;4</title>
<path fill="none" stroke="red" stroke-width="0.5" d="M678.06,-77.87C685.52,-67.64 698.65,-49.59 708.84,-35.59"/>
<polygon fill="red" stroke="red" stroke-width="0.5" points="711.67,-37.65 714.73,-27.51 706.01,-33.53 711.67,-37.65"/>
</g>
<!-- &#45;6 -->
<g id="node6" class="node">
<title>&#45;6</title>
<polygon fill="lightgray" stroke="black" points="368.21,-95.91 344.21,-95.91 344.21,-77.91 368.21,-77.91 368.21,-95.91"/>
<text text-anchor="middle" x="356.21" y="-84.71" font-family="Times New Roman,serif" font-size="9.00">&#45;6</text>
</g>
<!-- &#45;6&#45;&gt;0 -->
<g id="edge24" class="edge">
<title>&#45;6&#45;&gt;0</title>
<path fill="none" stroke="green" stroke-width="0.64" d="M363.08,-77.5C367.04,-73.25 372.39,-68.42 378.21,-65.7 489.09,-13.89 535.32,-69.04 651.21,-29.7 652.09,-29.4 652.97,-29.07 653.85,-28.71"/>
<polygon fill="green" stroke="green" stroke-width="0.64" points="655.57,-31.76 662.95,-24.16 652.44,-25.5 655.57,-31.76"/>
</g>
<!-- &#45;6&#45;&gt;1 -->
<g id="edge25" class="edge">
<title>&#45;6&#45;&gt;1</title>
<path fill="none" stroke="green" stroke-width="0.51" d="M363.16,-77.66C367.14,-73.46 372.48,-68.62 378.21,-65.7 449.72,-29.21 480.14,-58.13 555.21,-29.7 556.08,-29.37 556.95,-29.01 557.82,-28.63"/>
<polygon fill="green" stroke="green" stroke-width="0.51" points="559.59,-31.66 566.89,-23.98 556.39,-25.43 559.59,-31.66"/>
</g>
<!-- &#45;6&#45;&gt;2 -->
<g id="edge26" class="edge">
<title>&#45;6&#45;&gt;2</title>
<path fill="none" stroke="green" stroke-width="0.16" d="M363.69,-77.52C367.67,-73.48 372.84,-68.84 378.21,-65.7 419.85,-41.36 474.91,-27.17 506.36,-20.52"/>
<polygon fill="green" stroke="green" stroke-width="0.16" points="507.33,-23.89 516.43,-18.48 505.94,-17.03 507.33,-23.89"/>
</g>
<!-- &#45;6&#45;&gt;3 -->
<g id="edge27" class="edge">
<title>&#45;6&#45;&gt;3</title>
<path fill="none" stroke="green" stroke-width="0.31" stroke-dasharray="1,5" d="M363.11,-77.57C367.08,-73.33 372.42,-68.5 378.21,-65.7 469.36,-21.57 507.77,-63.57 603.21,-29.7 604.09,-29.39 604.96,-29.05 605.84,-28.68"/>
<polygon fill="green" stroke="green" stroke-width="0.31" points="607.58,-31.72 614.93,-24.08 604.42,-25.47 607.58,-31.72"/>
</g>
<!-- &#45;6&#45;&gt;4 -->
<g id="edge28" class="edge">
<title>&#45;6&#45;&gt;4</title>
<path fill="none" stroke="green" stroke-width="0.6" stroke-dasharray="1,5" d="M362.68,-77.87C366.67,-73.5 372.17,-68.45 378.21,-65.7 508.86,-6.19 562.83,-74.52 699.21,-29.7 700.09,-29.41 700.98,-29.09 701.86,-28.73"/>
<polygon fill="green" stroke="green" stroke-width="0.6" points="703.57,-31.79 710.97,-24.21 700.45,-25.52 703.57,-31.79"/>
</g>
<!-- &#45;7 -->
<g id="node7" class="node">
<title>&#45;7</title>
<polygon fill="lightgray" stroke="black" points="576.21,-162.12 552.21,-162.12 552.21,-144.12 576.21,-144.12 576.21,-162.12"/>
<text text-anchor="middle" x="564.21" y="-150.92" font-family="Times New Roman,serif" font-size="9.00">&#45;7</text>
</g>
<!-- &#45;7&#45;&gt;0 -->
<g id="edge29" class="edge">
<title>&#45;7&#45;&gt;0</title>
<path fill="none" stroke="red" stroke-width="0.64" d="M576.45,-152.17C656.56,-152.33 1104.22,-151.26 1144.21,-108.12 1157.03,-94.3 1157,-79.56 1144.21,-65.7 1076.95,7.23 793.93,-59.21 699.21,-29.7 698.16,-29.37 697.1,-28.99 696.04,-28.57"/>
<polygon fill="red" stroke="red" stroke-width="0.64" points="697.45,-25.35 686.94,-24 694.31,-31.61 697.45,-25.35"/>
</g>
<!-- &#45;7&#45;&gt;1 -->
<g id="edge30" class="edge">
<title>&#45;7&#45;&gt;1</title>
<path fill="none" stroke="red" stroke-width="0.87" d="M552.04,-151.71C488.46,-149.42 196.37,-137.37 170.21,-108.12 157.64,-94.07 157.52,-79.64 170.21,-65.7 228.08,-2.17 473.34,-55.77 555.21,-29.7 556.27,-29.36 557.33,-28.98 558.38,-28.55"/>
<polygon fill="red" stroke="red" stroke-width="0.87" points="560.12,-31.59 567.48,-23.96 556.97,-25.34 560.12,-31.59"/>
</g>
<!-- &#45;7&#45;&gt;2 -->
<g id="edge31" class="edge">
<title>&#45;7&#45;&gt;2</title>
<path fill="none" stroke="green" stroke-width="0.11" stroke-dasharray="1,5" d="M552.1,-151.94C481.58,-150.75 126.01,-143.04 94.21,-108.12 81.52,-94.18 81.66,-79.77 94.21,-65.7 121.82,-34.76 417.18,-20.44 506.06,-16.81"/>
<polygon fill="green" stroke="green" stroke-width="0.11" points="506.44,-20.29 516.29,-16.4 506.16,-13.3 506.44,-20.29"/>
</g>
<!-- &#45;7&#45;&gt;3 -->
<g id="edge32" class="edge">
<title>&#45;7&#45;&gt;3</title>
<path fill="none" stroke="red" stroke-width="0.13" d="M576.51,-151.57C636.95,-148.72 900.58,-134.82 924.21,-108.12 936.71,-94.01 936.64,-79.88 924.21,-65.7 883.87,-19.69 709.16,-49.37 651.21,-29.7 650.34,-29.4 649.46,-29.07 648.58,-28.71"/>
<polygon fill="red" stroke="red" stroke-width="0.13" points="649.98,-25.5 639.48,-24.16 646.85,-31.76 649.98,-25.5"/>
</g>
<!-- &#45;7&#45;&gt;4 -->
<g id="edge33" class="edge">
<title>&#45;7&#45;&gt;4</title>
<path fill="none" stroke="red" stroke-width="0.18" d="M576.3,-152.2C657.44,-152.56 1120.85,-152.64 1162.21,-108.12 1175.05,-94.31 1174.77,-79.76 1162.21,-65.7 1134.44,-34.6 837.16,-20.37 748.21,-16.78"/>
<polygon fill="red" stroke="red" stroke-width="0.18" points="748.34,-13.29 738.21,-16.39 748.06,-20.28 748.34,-13.29"/>
</g>
<!-- 264 -->
<g id="node27" class="node">
<title>264</title>
<ellipse fill="white" stroke="black" cx="21.21" cy="-86.91" rx="21.43" ry="21.43"/>
<text text-anchor="middle" x="21.21" y="-84.71" font-family="Times New Roman,serif" font-size="9.00">264</text>
</g>
<!-- &#45;7&#45;&gt;264 -->
<g id="edge100" class="edge">
<title>&#45;7&#45;&gt;264</title>
<path fill="none" stroke="green" stroke-width="0.41" d="M552.12,-151.79C484.54,-149.8 153.11,-138.64 56.21,-108.12 53.23,-107.19 50.23,-105.96 47.3,-104.58"/>
<polygon fill="green" stroke="green" stroke-width="0.41" points="48.79,-101.41 38.32,-99.78 45.49,-107.58 48.79,-101.41"/>
</g>
<!-- &#45;8 -->
<g id="node8" class="node">
<title>&#45;8</title>
<polygon fill="lightgray" stroke="black" points="1087.21,-95.91 1063.21,-95.91 1063.21,-77.91 1087.21,-77.91 1087.21,-95.91"/>
<text text-anchor="middle" x="1075.21" y="-84.71" font-family="Times New Roman,serif" font-size="9.00">&#45;8</text>
</g>
<!-- &#45;8&#45;&gt;0 -->
<g id="edge34" class="edge">
<title>&#45;8&#45;&gt;0</title>
<path fill="none" stroke="red" stroke-width="0.13" d="M1069.12,-77.85C1065.34,-73.47 1060.09,-68.42 1054.21,-65.7 910.31,0.94 850.13,-78.41 699.21,-29.7 698.16,-29.36 697.1,-28.97 696.05,-28.54"/>
<polygon fill="red" stroke="red" stroke-width="0.13" points="697.46,-25.33 686.96,-23.94 694.3,-31.58 697.46,-25.33"/>
</g>
<!-- &#45;8&#45;&gt;1 -->
<g id="edge35" class="edge">
<title>&#45;8&#45;&gt;1</title>
<path fill="none" stroke="red" stroke-width="0.23" d="M1069.14,-77.8C1065.37,-73.41 1060.12,-68.36 1054.21,-65.7 870.85,16.84 795.22,-89.41 603.21,-29.7 602.16,-29.37 601.1,-28.99 600.04,-28.57"/>
<polygon fill="red" stroke="red" stroke-width="0.23" points="601.45,-25.36 590.94,-24 598.31,-31.61 601.45,-25.36"/>
</g>
<!-- &#45;8&#45;&gt;2 -->
<g id="edge36" class="edge">
<title>&#45;8&#45;&gt;2</title>
<path fill="none" stroke="red" stroke-width="0.15" d="M1069.15,-77.78C1065.38,-73.39 1060.13,-68.33 1054.21,-65.7 851.11,24.8 767.79,-94.92 555.21,-29.7 554.16,-29.37 553.09,-29 552.04,-28.58"/>
<polygon fill="red" stroke="red" stroke-width="0.15" points="553.44,-25.37 542.93,-24.02 550.31,-31.63 553.44,-25.37"/>
</g>
<!-- &#45;8&#45;&gt;3 -->
<g id="edge37" class="edge">
<title>&#45;8&#45;&gt;3</title>
<path fill="none" stroke="green" stroke-width="0.25" stroke-dasharray="1,5" d="M1069.13,-77.82C1065.36,-73.44 1060.11,-68.39 1054.21,-65.7 890.59,8.89 822.67,-83.91 651.21,-29.7 650.16,-29.36 649.1,-28.98 648.05,-28.55"/>
<polygon fill="green" stroke="green" stroke-width="0.25" points="649.45,-25.34 638.95,-23.98 646.31,-31.6 649.45,-25.34"/>
</g>
<!-- &#45;8&#45;&gt;4 -->
<g id="edge38" class="edge">
<title>&#45;8&#45;&gt;4</title>
<path fill="none" stroke="green" stroke-width="0.39" d="M1068.71,-77.54C1064.94,-73.3 1059.84,-68.47 1054.21,-65.7 1000.02,-38.99 815.51,-22.78 748.12,-17.64"/>
<polygon fill="green" stroke="green" stroke-width="0.39" points="748.22,-14.14 737.99,-16.88 747.7,-21.12 748.22,-14.14"/>
</g>
<!-- &#45;9 -->
<g id="node9" class="node">
<title>&#45;9</title>
<polygon fill="lightgray" stroke="black" points="326.21,-95.91 302.21,-95.91 302.21,-77.91 326.21,-77.91 326.21,-95.91"/>
<text text-anchor="middle" x="314.21" y="-84.71" font-family="Times New Roman,serif" font-size="9.00">&#45;9</text>
</g>
<!-- &#45;9&#45;&gt;0 -->
<g id="edge39" class="edge">
<title>&#45;9&#45;&gt;0</title>
<path fill="none" stroke="green" stroke-width="0.31" d="M320.32,-77.87C324.1,-73.51 329.35,-68.46 335.21,-65.7 463.11,-5.51 516.97,-73.95 651.21,-29.7 652.09,-29.41 652.98,-29.08 653.86,-28.73"/>
<polygon fill="green" stroke="green" stroke-width="0.31" points="655.57,-31.79 662.97,-24.2 652.45,-25.52 655.57,-31.79"/>
</g>
<!-- &#45;9&#45;&gt;1 -->
<g id="edge40" class="edge">
<title>&#45;9&#45;&gt;1</title>
<path fill="none" stroke="green" stroke-width="0.37" d="M320.73,-77.57C324.5,-73.34 329.6,-68.51 335.21,-65.7 423.8,-21.34 461.9,-63 555.21,-29.7 556.09,-29.39 556.96,-29.04 557.84,-28.68"/>
<polygon fill="green" stroke="green" stroke-width="0.37" points="559.58,-31.72 566.92,-24.08 556.42,-25.47 559.58,-31.72"/>
</g>
<!-- &#45;9&#45;&gt;2 -->
<g id="edge41" class="edge">
<title>&#45;9&#45;&gt;2</title>
<path fill="none" stroke="green" stroke-width="0.28" d="M320.83,-77.76C324.63,-73.59 329.73,-68.75 335.21,-65.7 391.34,-34.47 467.34,-22.42 506.15,-18.08"/>
<polygon fill="green" stroke="green" stroke-width="0.28" points="506.91,-21.52 516.5,-17.01 506.19,-14.56 506.91,-21.52"/>
</g>
<!-- &#45;9&#45;&gt;3 -->
<g id="edge42" class="edge">
<title>&#45;9&#45;&gt;3</title>
<path fill="none" stroke="green" stroke-width="0.31" d="M320.7,-77.51C324.46,-73.26 329.56,-68.43 335.21,-65.7 443.43,-13.43 489.46,-68.47 603.21,-29.7 604.09,-29.4 604.97,-29.07 605.85,-28.71"/>
<polygon fill="green" stroke="green" stroke-width="0.31" points="607.58,-31.76 614.95,-24.15 604.44,-25.5 607.58,-31.76"/>
</g>
<!-- &#45;10 -->
<g id="node10" class="node">
<title>&#45;10</title>
<polygon fill="lightgray" stroke="black" points="415.71,-95.91 386.71,-95.91 386.71,-77.91 415.71,-77.91 415.71,-95.91"/>
<text text-anchor="middle" x="401.21" y="-84.71" font-family="Times New Roman,serif" font-size="9.00">&#45;10</text>
</g>
<!-- &#45;10&#45;&gt;0 -->
<g id="edge43" class="edge">
<title>&#45;10&#45;&gt;0</title>
<path fill="none" stroke="red" stroke-width="0.11" d="M408.88,-77.57C413.25,-73.34 419.07,-68.51 425.21,-65.7 517.71,-23.39 555.35,-63.68 651.21,-29.7 652.09,-29.39 652.96,-29.05 653.84,-28.68"/>
<polygon fill="red" stroke="red" stroke-width="0.11" points="655.58,-31.72 662.93,-24.09 652.42,-25.48 655.58,-31.72"/>
</g>
<!-- &#45;10&#45;&gt;1 -->
<g id="edge44" class="edge">
<title>&#45;10&#45;&gt;1</title>
<path fill="none" stroke="green" stroke-width="0.64" stroke-dasharray="1,5" d="M409.01,-77.84C413.42,-73.69 419.24,-68.85 425.21,-65.7 478.25,-37.75 499.92,-52.87 555.21,-29.7 556.07,-29.34 556.93,-28.96 557.79,-28.56"/>
<polygon fill="green" stroke="green" stroke-width="0.64" points="559.6,-31.56 566.82,-23.8 556.34,-25.37 559.6,-31.56"/>
</g>
<!-- &#45;10&#45;&gt;2 -->
<g id="edge45" class="edge">
<title>&#45;10&#45;&gt;2</title>
<path fill="none" stroke="green" stroke-width="0.16" d="M409.68,-77.84C414.09,-73.89 419.71,-69.22 425.21,-65.7 452.12,-48.46 485.92,-33.61 508.03,-24.7"/>
<polygon fill="green" stroke="green" stroke-width="0.16" points="509.56,-27.86 517.57,-20.93 506.99,-21.35 509.56,-27.86"/>
</g>
<!-- &#45;10&#45;&gt;3 -->
<g id="edge46" class="edge">
<title>&#45;10&#45;&gt;3</title>
<path fill="none" stroke="green" stroke-width="0.17" d="M408.92,-77.67C413.31,-73.47 419.13,-68.64 425.21,-65.7 497.9,-30.61 527.72,-58.24 603.21,-29.7 604.08,-29.37 604.95,-29.01 605.82,-28.64"/>
<polygon fill="green" stroke="green" stroke-width="0.17" points="607.59,-31.66 614.89,-23.98 604.39,-25.43 607.59,-31.66"/>
</g>
<!-- &#45;10&#45;&gt;4 -->
<g id="edge47" class="edge">
<title>&#45;10&#45;&gt;4</title>
<path fill="none" stroke="red" stroke-width="0.12" d="M408.85,-77.51C413.21,-73.25 419.03,-68.42 425.21,-65.7 537.6,-16.14 582.9,-69.15 699.21,-29.7 700.09,-29.4 700.97,-29.07 701.85,-28.71"/>
<polygon fill="red" stroke="red" stroke-width="0.12" points="703.57,-31.76 710.95,-24.16 700.44,-25.5 703.57,-31.76"/>
</g>
<!-- &#45;11 -->
<g id="node11" class="node">
<title>&#45;11</title>
<polygon fill="lightgray" stroke="black" points="1018.71,-162.12 989.71,-162.12 989.71,-144.12 1018.71,-144.12 1018.71,-162.12"/>
<text text-anchor="middle" x="1004.21" y="-150.92" font-family="Times New Roman,serif" font-size="9.00">&#45;11</text>
</g>
<!-- &#45;11&#45;&gt;0 -->
<g id="edge48" class="edge">
<title>&#45;11&#45;&gt;0</title>
<path fill="none" stroke="red" stroke-width="0.62" d="M1018.95,-150.28C1054.74,-145.46 1144.65,-131.25 1162.21,-108.12 1173.62,-93.11 1175.02,-79.54 1162.21,-65.7 1127.17,-27.82 748.5,-44.97 699.21,-29.7 698.16,-29.37 697.1,-28.99 696.04,-28.57"/>
<polygon fill="red" stroke="red" stroke-width="0.62" points="697.45,-25.36 686.94,-24.01 694.31,-31.62 697.45,-25.36"/>
</g>
<!-- &#45;11&#45;&gt;1 -->
<g id="edge49" class="edge">
<title>&#45;11&#45;&gt;1</title>
<path fill="none" stroke="green" stroke-width="0.19" d="M989.5,-151.89C882.8,-150.08 231.34,-137.84 203.21,-108.12 190.25,-94.43 190.58,-79.69 203.21,-65.7 255.91,-7.34 480.39,-53.88 555.21,-29.7 556.27,-29.36 557.32,-28.97 558.38,-28.54"/>
<polygon fill="green" stroke="green" stroke-width="0.19" points="560.12,-31.58 567.47,-23.94 556.97,-25.33 560.12,-31.58"/>
</g>
<!-- &#45;11&#45;&gt;2 -->
<g id="edge50" class="edge">
<title>&#45;11&#45;&gt;2</title>
<path fill="none" stroke="red" stroke-width="0.38" d="M989.58,-151.9C882.09,-150.18 217.87,-138.37 189.21,-108.12 176.24,-94.44 176.88,-79.96 189.21,-65.7 230.38,-18.09 433.73,-15.04 505.82,-15.48"/>
<polygon fill="red" stroke="red" stroke-width="0.38" points="506.18,-18.99 516.22,-15.58 506.25,-11.99 506.18,-18.99"/>
</g>
<!-- &#45;11&#45;&gt;3 -->
<g id="edge51" class="edge">
<title>&#45;11&#45;&gt;3</title>
<path fill="none" stroke="red" stroke-width="0.17" stroke-dasharray="1,5" d="M1001.06,-143.97C993.75,-126.28 973.81,-84.46 942.21,-65.7 830.16,0.83 774.78,-71.09 651.21,-29.7 650.34,-29.4 649.45,-29.08 648.57,-28.72"/>
<polygon fill="red" stroke="red" stroke-width="0.17" points="649.98,-25.51 639.47,-24.18 646.85,-31.77 649.98,-25.51"/>
</g>
<!-- &#45;11&#45;&gt;4 -->
<g id="edge52" class="edge">
<title>&#45;11&#45;&gt;4</title>
<path fill="none" stroke="red" stroke-width="0.1" d="M1018.98,-151.95C1081.98,-150.73 1321.91,-141.16 1253.21,-65.7 1218.84,-27.95 848.94,-18.23 748.34,-16.27"/>
<polygon fill="red" stroke="red" stroke-width="0.1" points="748.26,-12.77 738.2,-16.09 748.13,-19.77 748.26,-12.77"/>
</g>
<!-- 44 -->
<g id="node28" class="node">
<title>44</title>
<ellipse fill="white" stroke="black" cx="1027.21" cy="-86.91" rx="18.27" ry="18.27"/>
<text text-anchor="middle" x="1027.21" y="-84.71" font-family="Times New Roman,serif" font-size="9.00">44</text>
</g>
<!-- &#45;11&#45;&gt;44 -->
<g id="edge98" class="edge">
<title>&#45;11&#45;&gt;44</title>
<path fill="none" stroke="green" stroke-width="0.34" d="M1007.13,-143.99C1009.85,-136.4 1014.06,-124.64 1017.92,-113.85"/>
<polygon fill="green" stroke="green" stroke-width="0.34" points="1021.25,-114.95 1021.32,-104.36 1014.66,-112.59 1021.25,-114.95"/>
</g>
<!-- &#45;12 -->
<g id="node12" class="node">
<title>&#45;12</title>
<polygon fill="lightgray" stroke="black" points="547.71,-95.91 518.71,-95.91 518.71,-77.91 547.71,-77.91 547.71,-95.91"/>
<text text-anchor="middle" x="533.21" y="-84.71" font-family="Times New Roman,serif" font-size="9.00">&#45;12</text>
</g>
<!-- &#45;12&#45;&gt;0 -->
<g id="edge53" class="edge">
<title>&#45;12&#45;&gt;0</title>
<path fill="none" stroke="red" stroke-width="0.21" d="M541.57,-77.67C545.96,-73.67 551.58,-69.02 557.21,-65.7 595.75,-42.97 610.82,-48.94 651.21,-29.7 652.05,-29.3 652.9,-28.88 653.74,-28.45"/>
<polygon fill="red" stroke="red" stroke-width="0.21" points="655.61,-31.42 662.71,-23.56 652.25,-25.28 655.61,-31.42"/>
</g>
<!-- &#45;12&#45;&gt;1 -->
<g id="edge54" class="edge">
<title>&#45;12&#45;&gt;1</title>
<path fill="none" stroke="red" stroke-width="0.43" d="M538.49,-77.87C545.11,-67.79 556.7,-50.14 565.83,-36.23"/>
<polygon fill="red" stroke="red" stroke-width="0.43" points="568.83,-38.04 571.4,-27.76 562.98,-34.2 568.83,-38.04"/>
</g>
<!-- &#45;12&#45;&gt;2 -->
<g id="edge55" class="edge">
<title>&#45;12&#45;&gt;2</title>
<path fill="none" stroke="green" stroke-width="0.39" d="M532.98,-77.87C532.72,-68.72 532.28,-53.33 531.91,-40.16"/>
<polygon fill="green" stroke="green" stroke-width="0.39" points="535.4,-39.72 531.61,-29.82 528.4,-39.92 535.4,-39.72"/>
</g>
<!-- &#45;12&#45;&gt;3 -->
<g id="edge56" class="edge">
<title>&#45;12&#45;&gt;3</title>
<path fill="none" stroke="red" stroke-width="0.44" stroke-dasharray="1,5" d="M542.41,-77.86C546.82,-74.08 552.22,-69.57 557.21,-65.7 573.46,-53.1 592.5,-39.62 606.62,-29.86"/>
<polygon fill="red" stroke="red" stroke-width="0.44" points="608.85,-32.58 615.11,-24.03 604.88,-26.81 608.85,-32.58"/>
</g>
<!-- &#45;12&#45;&gt;4 -->
<g id="edge57" class="edge">
<title>&#45;12&#45;&gt;4</title>
<path fill="none" stroke="green" stroke-width="0.24" d="M540.98,-77.79C545.38,-73.62 551.2,-68.78 557.21,-65.7 615.14,-35.97 638.89,-54.2 699.21,-29.7 700.07,-29.35 700.94,-28.98 701.8,-28.58"/>
<polygon fill="green" stroke="green" stroke-width="0.24" points="703.6,-31.59 710.84,-23.86 700.36,-25.39 703.6,-31.59"/>
</g>
<!-- &#45;13 -->
<g id="node13" class="node">
<title>&#45;13</title>
<polygon fill="lightgray" stroke="black" points="594.71,-95.91 565.71,-95.91 565.71,-77.91 594.71,-77.91 594.71,-95.91"/>
<text text-anchor="middle" x="580.21" y="-84.71" font-family="Times New Roman,serif" font-size="9.00">&#45;13</text>
</g>
<!-- &#45;13&#45;&gt;0 -->
<g id="edge58" class="edge">
<title>&#45;13&#45;&gt;0</title>
<path fill="none" stroke="green" stroke-width="0.23" d="M589.4,-77.85C593.81,-74.06 599.21,-69.55 604.21,-65.7 620.66,-53.04 639.98,-39.56 654.3,-29.82"/>
<polygon fill="green" stroke="green" stroke-width="0.23" points="656.59,-32.5 662.92,-24 652.67,-26.7 656.59,-32.5"/>
</g>
<!-- &#45;13&#45;&gt;1 -->
<g id="edge59" class="edge">
<title>&#45;13&#45;&gt;1</title>
<path fill="none" stroke="green" stroke-width="0.21" stroke-dasharray="1,5" d="M580.1,-77.87C579.97,-68.72 579.75,-53.33 579.56,-40.16"/>
<polygon fill="green" stroke="green" stroke-width="0.21" points="583.06,-39.77 579.41,-29.82 576.06,-39.87 583.06,-39.77"/>
</g>
<!-- &#45;13&#45;&gt;2 -->
<g id="edge60" class="edge">
<title>&#45;13&#45;&gt;2</title>
<path fill="none" stroke="green" stroke-width="0.13" d="M574.59,-77.87C567.5,-67.73 555.05,-49.93 545.3,-35.99"/>
<polygon fill="green" stroke="green" stroke-width="0.13" points="547.97,-33.7 539.37,-27.51 542.23,-37.71 547.97,-33.7"/>
</g>
<!-- &#45;13&#45;&gt;3 -->
<g id="edge61" class="edge">
<title>&#45;13&#45;&gt;3</title>
<path fill="none" stroke="green" stroke-width="0.46" d="M585.6,-77.87C592.41,-67.73 604.35,-49.93 613.7,-35.99"/>
<polygon fill="green" stroke="green" stroke-width="0.46" points="616.73,-37.76 619.39,-27.51 610.92,-33.86 616.73,-37.76"/>
</g>
<!-- &#45;13&#45;&gt;4 -->
<g id="edge62" class="edge">
<title>&#45;13&#45;&gt;4</title>
<path fill="none" stroke="green" stroke-width="0.15" d="M588.56,-77.66C592.95,-73.66 598.58,-69.01 604.21,-65.7 643.15,-42.83 658.42,-49.04 699.21,-29.7 700.05,-29.3 700.9,-28.89 701.75,-28.46"/>
<polygon fill="green" stroke="green" stroke-width="0.15" points="703.61,-31.43 710.71,-23.57 700.26,-25.28 703.61,-31.43"/>
</g>
<!-- &#45;14 -->
<g id="node14" class="node">
<title>&#45;14</title>
<polygon fill="lightgray" stroke="black" points="641.71,-95.91 612.71,-95.91 612.71,-77.91 641.71,-77.91 641.71,-95.91"/>
<text text-anchor="middle" x="627.21" y="-84.71" font-family="Times New Roman,serif" font-size="9.00">&#45;14</text>
</g>
<!-- &#45;14&#45;&gt;0 -->
<g id="edge63" class="edge">
<title>&#45;14&#45;&gt;0</title>
<path fill="none" stroke="red" stroke-width="0.59" d="M632.72,-77.87C639.67,-67.73 651.87,-49.93 661.42,-35.99"/>
<polygon fill="red" stroke="red" stroke-width="0.59" points="664.46,-37.73 667.23,-27.51 658.69,-33.78 664.46,-37.73"/>
</g>
<!-- &#45;14&#45;&gt;1 -->
<g id="edge64" class="edge">
<title>&#45;14&#45;&gt;1</title>
<path fill="none" stroke="green" stroke-width="0.21" d="M621.71,-77.87C614.76,-67.73 602.56,-49.93 593.01,-35.99"/>
<polygon fill="green" stroke="green" stroke-width="0.21" points="595.74,-33.78 587.2,-27.51 589.96,-37.73 595.74,-33.78"/>
</g>
<!-- &#45;14&#45;&gt;2 -->
<g id="edge65" class="edge">
<title>&#45;14&#45;&gt;2</title>
<path fill="none" stroke="red" stroke-width="0.7" d="M618.47,-77.78C614.26,-73.98 609.08,-69.48 604.21,-65.7 587.15,-52.45 566.77,-38.7 551.89,-29"/>
<polygon fill="red" stroke="red" stroke-width="0.7" points="553.72,-26.01 543.42,-23.53 549.92,-31.89 553.72,-26.01"/>
</g>
<!-- &#45;14&#45;&gt;3 -->
<g id="edge66" class="edge">
<title>&#45;14&#45;&gt;3</title>
<path fill="none" stroke="red" stroke-width="0.12" d="M627.21,-77.87C627.21,-68.72 627.21,-53.33 627.21,-40.16"/>
<polygon fill="red" stroke="red" stroke-width="0.12" points="630.71,-39.82 627.21,-29.82 623.71,-39.82 630.71,-39.82"/>
</g>
<!-- &#45;14&#45;&gt;4 -->
<g id="edge67" class="edge">
<title>&#45;14&#45;&gt;4</title>
<path fill="none" stroke="red" stroke-width="0.32" d="M636.39,-77.83C640.79,-74.05 646.19,-69.54 651.21,-65.7 667.96,-52.9 687.68,-39.34 702.25,-29.6"/>
<polygon fill="red" stroke="red" stroke-width="0.32" points="704.59,-32.25 710.99,-23.8 700.72,-26.41 704.59,-32.25"/>
</g>
<!-- &#45;15 -->
<g id="node15" class="node">
<title>&#45;15</title>
<polygon fill="lightgray" stroke="black" points="283.71,-95.91 254.71,-95.91 254.71,-77.91 283.71,-77.91 283.71,-95.91"/>
<text text-anchor="middle" x="269.21" y="-84.71" font-family="Times New Roman,serif" font-size="9.00">&#45;15</text>
</g>
<!-- &#45;15&#45;&gt;0 -->
<g id="edge68" class="edge">
<title>&#45;15&#45;&gt;0</title>
<path fill="none" stroke="red" stroke-width="0.35" d="M276.4,-77.84C280.79,-73.47 286.79,-68.41 293.21,-65.7 440.5,-3.41 499.01,-78.76 651.21,-29.7 652.27,-29.36 653.32,-28.97 654.38,-28.54"/>
<polygon fill="red" stroke="red" stroke-width="0.35" points="656.12,-31.58 663.47,-23.95 652.97,-25.33 656.12,-31.58"/>
</g>
<!-- &#45;15&#45;&gt;1 -->
<g id="edge69" class="edge">
<title>&#45;15&#45;&gt;1</title>
<path fill="none" stroke="green" stroke-width="0.82" d="M276.85,-77.52C281.22,-73.27 287.04,-68.44 293.21,-65.7 400.62,-17.96 444.02,-67.78 555.21,-29.7 556.09,-29.4 556.97,-29.07 557.85,-28.71"/>
<polygon fill="green" stroke="green" stroke-width="0.82" points="559.58,-31.75 566.95,-24.14 556.44,-25.5 559.58,-31.75"/>
</g>
<!-- &#45;15&#45;&gt;2 -->
<g id="edge70" class="edge">
<title>&#45;15&#45;&gt;2</title>
<path fill="none" stroke="green" stroke-width="0.59" d="M276.93,-77.69C281.32,-73.49 287.14,-68.66 293.21,-65.7 365.27,-30.61 461.34,-20.15 506.18,-17.09"/>
<polygon fill="green" stroke="green" stroke-width="0.59" points="506.42,-20.58 516.19,-16.47 505.99,-13.59 506.42,-20.58"/>
</g>
<!-- &#45;15&#45;&gt;3 -->
<g id="edge71" class="edge">
<title>&#45;15&#45;&gt;3</title>
<path fill="none" stroke="green" stroke-width="0.3" d="M276.41,-77.88C280.81,-73.52 286.81,-68.46 293.21,-65.7 420.54,-10.69 471.53,-73.26 603.21,-29.7 604.09,-29.41 604.98,-29.08 605.86,-28.73"/>
<polygon fill="green" stroke="green" stroke-width="0.3" points="607.57,-31.79 614.96,-24.2 604.45,-25.52 607.57,-31.79"/>
</g>
<!-- &#45;16 -->
<g id="node16" class="node">
<title>&#45;16</title>
<polygon fill="lightgray" stroke="black" points="731.71,-95.91 702.71,-95.91 702.71,-77.91 731.71,-77.91 731.71,-95.91"/>
<text text-anchor="middle" x="717.21" y="-84.71" font-family="Times New Roman,serif" font-size="9.00">&#45;16</text>
</g>
<!-- &#45;16&#45;&gt;0 -->
<g id="edge72" class="edge">
<title>&#45;16&#45;&gt;0</title>
<path fill="none" stroke="green" stroke-width="0.75" d="M712.4,-77.87C706.44,-67.95 696.09,-50.67 687.82,-36.87"/>
<polygon fill="green" stroke="green" stroke-width="0.75" points="690.65,-34.79 682.5,-28.01 684.64,-38.38 690.65,-34.79"/>
</g>
<!-- &#45;16&#45;&gt;1 -->
<g id="edge73" class="edge">
<title>&#45;16&#45;&gt;1</title>
<path fill="none" stroke="green" stroke-width="0.41" d="M708.84,-77.71C704.44,-73.71 698.82,-69.06 693.21,-65.7 656.27,-43.54 641.97,-48.51 603.21,-29.7 602.38,-29.29 601.54,-28.87 600.69,-28.44"/>
<polygon fill="green" stroke="green" stroke-width="0.41" points="602.19,-25.27 591.73,-23.53 598.82,-31.4 602.19,-25.27"/>
</g>
<!-- &#45;16&#45;&gt;2 -->
<g id="edge74" class="edge">
<title>&#45;16&#45;&gt;2</title>
<path fill="none" stroke="green" stroke-width="0.45" stroke-dasharray="1,5" d="M709.44,-77.81C705.03,-73.64 699.21,-68.8 693.21,-65.7 636.92,-36.56 613.86,-53.75 555.21,-29.7 554.36,-29.35 553.49,-28.97 552.63,-28.57"/>
<polygon fill="green" stroke="green" stroke-width="0.45" points="554.08,-25.38 543.59,-23.84 550.83,-31.58 554.08,-25.38"/>
</g>
<!-- &#45;16&#45;&gt;3 -->
<g id="edge75" class="edge">
<title>&#45;16&#45;&gt;3</title>
<path fill="none" stroke="red" stroke-width="0.22" d="M707.5,-77.53C703.17,-73.85 697.98,-69.5 693.21,-65.7 678.07,-53.62 660.57,-40.43 647.39,-30.66"/>
<polygon fill="red" stroke="red" stroke-width="0.22" points="649.16,-27.61 639.04,-24.49 645,-33.25 649.16,-27.61"/>
</g>
<!-- &#45;16&#45;&gt;4 -->
<g id="edge76" class="edge">
<title>&#45;16&#45;&gt;4</title>
<path fill="none" stroke="red" stroke-width="0.39" d="M717.9,-77.87C718.69,-68.72 720,-53.33 721.13,-40.16"/>
<polygon fill="red" stroke="red" stroke-width="0.39" points="724.65,-40.08 722.02,-29.82 717.68,-39.48 724.65,-40.08"/>
</g>
<!-- &#45;17 -->
<g id="node17" class="node">
<title>&#45;17</title>
<polygon fill="lightgray" stroke="black" points="778.71,-95.91 749.71,-95.91 749.71,-77.91 778.71,-77.91 778.71,-95.91"/>
<text text-anchor="middle" x="764.21" y="-84.71" font-family="Times New Roman,serif" font-size="9.00">&#45;17</text>
</g>
<!-- &#45;17&#45;&gt;0 -->
<g id="edge77" class="edge">
<title>&#45;17&#45;&gt;0</title>
<path fill="none" stroke="green" stroke-width="0.66" d="M755.39,-77.88C751.16,-74.11 745.99,-69.59 741.21,-65.7 726.2,-53.46 708.69,-40.28 695.48,-30.55"/>
<polygon fill="green" stroke="green" stroke-width="0.66" points="697.24,-27.5 687.1,-24.42 693.1,-33.15 697.24,-27.5"/>
</g>
<!-- &#45;17&#45;&gt;1 -->
<g id="edge78" class="edge">
<title>&#45;17&#45;&gt;1</title>
<path fill="none" stroke="red" stroke-width="0.92" d="M756.82,-77.8C752.61,-73.63 747.04,-68.79 741.21,-65.7 685.23,-35.97 661.86,-53.75 603.21,-29.7 602.36,-29.35 601.49,-28.97 600.63,-28.57"/>
<polygon fill="red" stroke="red" stroke-width="0.92" points="602.08,-25.38 591.59,-23.84 598.83,-31.58 602.08,-25.38"/>
</g>
<!-- &#45;17&#45;&gt;2 -->
<g id="edge79" class="edge">
<title>&#45;17&#45;&gt;2</title>
<path fill="none" stroke="green" stroke-width="0.17" stroke-dasharray="1,5" d="M756.89,-77.65C752.71,-73.43 747.13,-68.6 741.21,-65.7 665.62,-28.61 634.1,-59.15 555.21,-29.7 554.35,-29.37 553.47,-29.02 552.6,-28.64"/>
<polygon fill="green" stroke="green" stroke-width="0.17" points="554.03,-25.44 543.53,-24 550.84,-31.67 554.03,-25.44"/>
</g>
<!-- &#45;17&#45;&gt;3 -->
<g id="edge80" class="edge">
<title>&#45;17&#45;&gt;3</title>
<path fill="none" stroke="red" stroke-width="0.16" d="M756.24,-77.69C752.04,-73.69 746.65,-69.04 741.21,-65.7 704.5,-43.15 689.97,-48.51 651.21,-29.7 650.38,-29.29 649.54,-28.87 648.69,-28.44"/>
<polygon fill="red" stroke="red" stroke-width="0.16" points="650.19,-25.27 639.73,-23.53 646.82,-31.4 650.19,-25.27"/>
</g>
<!-- &#45;17&#45;&gt;4 -->
<g id="edge81" class="edge">
<title>&#45;17&#45;&gt;4</title>
<path fill="none" stroke="green" stroke-width="0.26" d="M759.51,-77.87C753.7,-67.95 743.59,-50.67 735.52,-36.87"/>
<polygon fill="green" stroke="green" stroke-width="0.26" points="738.4,-34.87 730.33,-28.01 732.36,-38.41 738.4,-34.87"/>
</g>
<!-- &#45;18 -->
<g id="node18" class="node">
<title>&#45;18</title>
<polygon fill="lightgray" stroke="black" points="825.71,-95.91 796.71,-95.91 796.71,-77.91 825.71,-77.91 825.71,-95.91"/>
<text text-anchor="middle" x="811.21" y="-84.71" font-family="Times New Roman,serif" font-size="9.00">&#45;18</text>
</g>
<!-- &#45;18&#45;&gt;0 -->
<g id="edge82" class="edge">
<title>&#45;18&#45;&gt;0</title>
<path fill="none" stroke="red" stroke-width="0.13" d="M803.23,-77.69C799.04,-73.7 793.64,-69.05 788.21,-65.7 751.9,-43.3 737.56,-48.41 699.21,-29.7 698.38,-29.29 697.54,-28.87 696.69,-28.43"/>
<polygon fill="red" stroke="red" stroke-width="0.13" points="698.19,-25.26 687.74,-23.52 694.82,-31.4 698.19,-25.26"/>
</g>
<!-- &#45;18&#45;&gt;1 -->
<g id="edge83" class="edge">
<title>&#45;18&#45;&gt;1</title>
<path fill="none" stroke="green" stroke-width="0.2" d="M803.89,-77.65C799.71,-73.44 794.13,-68.6 788.21,-65.7 713.03,-28.77 681.67,-59.03 603.21,-29.7 602.35,-29.37 601.47,-29.02 600.6,-28.64"/>
<polygon fill="green" stroke="green" stroke-width="0.2" points="602.03,-25.44 591.53,-24 598.84,-31.67 602.03,-25.44"/>
</g>
<!-- &#45;18&#45;&gt;2 -->
<g id="edge84" class="edge">
<title>&#45;18&#45;&gt;2</title>
<path fill="none" stroke="red" stroke-width="0.1" d="M803.94,-77.56C799.77,-73.32 794.19,-68.49 788.21,-65.7 693.28,-21.34 654.06,-64.48 555.21,-29.7 554.34,-29.39 553.46,-29.05 552.59,-28.69"/>
<polygon fill="red" stroke="red" stroke-width="0.1" points="554,-25.48 543.5,-24.1 550.85,-31.73 554,-25.48"/>
</g>
<!-- &#45;18&#45;&gt;3 -->
<g id="edge85" class="edge">
<title>&#45;18&#45;&gt;3</title>
<path fill="none" stroke="green" stroke-width="0.58" d="M803.82,-77.8C799.61,-73.63 794.03,-68.79 788.21,-65.7 732.63,-36.13 709.44,-53.64 651.21,-29.7 650.36,-29.35 649.49,-28.97 648.63,-28.57"/>
<polygon fill="green" stroke="green" stroke-width="0.58" points="650.08,-25.38 639.6,-23.83 646.83,-31.58 650.08,-25.38"/>
</g>
<!-- &#45;18&#45;&gt;4 -->
<g id="edge86" class="edge">
<title>&#45;18&#45;&gt;4</title>
<path fill="none" stroke="green" stroke-width="0.22" d="M802.38,-77.9C798.15,-74.13 792.98,-69.61 788.21,-65.7 773.39,-53.52 756.14,-40.34 743.14,-30.59"/>
<polygon fill="green" stroke="green" stroke-width="0.22" points="745.01,-27.62 734.9,-24.44 740.82,-33.23 745.01,-27.62"/>
</g>
<!-- &#45;19 -->
<g id="node19" class="node">
<title>&#45;19</title>
<polygon fill="lightgray" stroke="black" points="1134.71,-95.91 1105.71,-95.91 1105.71,-77.91 1134.71,-77.91 1134.71,-95.91"/>
<text text-anchor="middle" x="1120.21" y="-84.71" font-family="Times New Roman,serif" font-size="9.00">&#45;19</text>
</g>
<!-- &#45;19&#45;&gt;0 -->
<g id="edge87" class="edge">
<title>&#45;19&#45;&gt;0</title>
<path fill="none" stroke="red" stroke-width="0.36" d="M1113.04,-77.82C1108.65,-73.44 1102.65,-68.38 1096.21,-65.7 932.7,2.51 868.1,-83.22 699.21,-29.7 698.16,-29.36 697.1,-28.98 696.05,-28.55"/>
<polygon fill="red" stroke="red" stroke-width="0.36" points="697.45,-25.34 686.95,-23.97 694.31,-31.6 697.45,-25.34"/>
</g>
<!-- &#45;19&#45;&gt;1 -->
<g id="edge88" class="edge">
<title>&#45;19&#45;&gt;1</title>
<path fill="none" stroke="red" stroke-width="0.58" d="M1113.06,-77.78C1108.67,-73.38 1102.67,-68.33 1096.21,-65.7 892.72,17.1 813.22,-94.23 603.21,-29.7 602.16,-29.37 601.09,-29 600.04,-28.58"/>
<polygon fill="red" stroke="red" stroke-width="0.58" points="601.44,-25.36 590.93,-24.02 598.31,-31.62 601.44,-25.36"/>
</g>
<!-- &#45;19&#45;&gt;2 -->
<g id="edge89" class="edge">
<title>&#45;19&#45;&gt;2</title>
<path fill="none" stroke="green" stroke-width="0.22" d="M1113.06,-77.76C1108.68,-73.36 1102.68,-68.31 1096.21,-65.7 872.71,24.4 785.79,-99.74 555.21,-29.7 554.15,-29.38 553.09,-29 552.04,-28.58"/>
<polygon fill="green" stroke="green" stroke-width="0.22" points="553.44,-25.37 542.93,-24.03 550.31,-31.63 553.44,-25.37"/>
</g>
<!-- &#45;19&#45;&gt;3 -->
<g id="edge90" class="edge">
<title>&#45;19&#45;&gt;3</title>
<path fill="none" stroke="green" stroke-width="0.13" d="M1113.05,-77.79C1108.66,-73.4 1102.66,-68.35 1096.21,-65.7 912.71,9.8 840.65,-88.73 651.21,-29.7 650.16,-29.37 649.1,-28.99 648.04,-28.57"/>
<polygon fill="green" stroke="green" stroke-width="0.13" points="649.45,-25.35 638.94,-24 646.31,-31.61 649.45,-25.35"/>
</g>
<!-- &#45;19&#45;&gt;4 -->
<g id="edge91" class="edge">
<title>&#45;19&#45;&gt;4</title>
<path fill="none" stroke="green" stroke-width="0.35" d="M1112.58,-77.51C1108.21,-73.26 1102.39,-68.43 1096.21,-65.7 1033.27,-37.86 821.29,-22.08 748.22,-17.37"/>
<polygon fill="green" stroke="green" stroke-width="0.35" points="748.31,-13.86 738.1,-16.73 747.86,-20.85 748.31,-13.86"/>
</g>
<!-- 7 -->
<g id="node26" class="node">
<title>7</title>
<ellipse fill="white" stroke="black" cx="1120.21" cy="-14.85" rx="14.7" ry="14.7"/>
<text text-anchor="middle" x="1120.21" y="-12.65" font-family="Times New Roman,serif" font-size="9.00">7</text>
</g>
<!-- &#45;19&#45;&gt;7 -->
<g id="edge97" class="edge">
<title>&#45;19&#45;&gt;7</title>
<path fill="none" stroke="red" stroke-width="0.47" d="M1120.21,-77.87C1120.21,-68.72 1120.21,-53.33 1120.21,-40.16"/>
<polygon fill="red" stroke="red" stroke-width="0.47" points="1123.71,-39.82 1120.21,-29.82 1116.71,-39.82 1123.71,-39.82"/>
</g>
<!-- &#45;20 -->
<g id="node20" class="node">
<title>&#45;20</title>
<polygon fill="lightgray" stroke="black" points="872.71,-95.91 843.71,-95.91 843.71,-77.91 872.71,-77.91 872.71,-95.91"/>
<text text-anchor="middle" x="858.21" y="-84.71" font-family="Times New Roman,serif" font-size="9.00">&#45;20</text>
</g>
<!-- &#45;20&#45;&gt;0 -->
<g id="edge92" class="edge">
<title>&#45;20&#45;&gt;0</title>
<path fill="none" stroke="green" stroke-width="0.49" d="M850.81,-77.81C846.61,-73.64 841.03,-68.8 835.21,-65.7 780.04,-36.28 757.02,-53.53 699.21,-29.7 698.36,-29.35 697.49,-28.97 696.63,-28.57"/>
<polygon fill="green" stroke="green" stroke-width="0.49" points="698.08,-25.38 687.6,-23.83 694.83,-31.58 698.08,-25.38"/>
</g>
<!-- &#45;20&#45;&gt;1 -->
<g id="edge93" class="edge">
<title>&#45;20&#45;&gt;1</title>
<path fill="none" stroke="red" stroke-width="0.16" d="M850.94,-77.56C846.77,-73.32 841.18,-68.49 835.21,-65.7 740.69,-21.49 701.63,-64.36 603.21,-29.7 602.34,-29.39 601.46,-29.05 600.59,-28.69"/>
<polygon fill="red" stroke="red" stroke-width="0.16" points="602,-25.48 591.5,-24.1 598.85,-31.73 602,-25.48"/>
</g>
<!-- &#45;20&#45;&gt;2 -->
<g id="edge94" class="edge">
<title>&#45;20&#45;&gt;2</title>
<path fill="none" stroke="green" stroke-width="0.23" d="M851.36,-77.91C847.16,-73.55 841.41,-68.5 835.21,-65.7 720.88,-14.03 674.09,-69.84 555.21,-29.7 554.34,-29.4 553.45,-29.07 552.58,-28.72"/>
<polygon fill="green" stroke="green" stroke-width="0.23" points="553.98,-25.51 543.47,-24.16 550.85,-31.77 553.98,-25.51"/>
</g>
<!-- &#45;20&#45;&gt;3 -->
<g id="edge95" class="edge">
<title>&#45;20&#45;&gt;3</title>
<path fill="none" stroke="red" stroke-width="0.2" d="M850.89,-77.65C846.71,-73.44 841.13,-68.61 835.21,-65.7 760.44,-28.92 729.25,-58.92 651.21,-29.7 650.35,-29.37 649.47,-29.02 648.6,-28.64"/>
<polygon fill="red" stroke="red" stroke-width="0.2" points="650.03,-25.44 639.53,-24 646.84,-31.67 650.03,-25.44"/>
</g>
<!-- &#45;20&#45;&gt;4 -->
<g id="edge96" class="edge">
<title>&#45;20&#45;&gt;4</title>
<path fill="none" stroke="red" stroke-width="0.16" d="M850.18,-77.77C845.97,-73.8 840.58,-69.14 835.21,-65.7 806.49,-47.29 769.83,-32.39 746.43,-23.83"/>
<polygon fill="red" stroke="red" stroke-width="0.16" points="747.58,-20.52 736.98,-20.45 745.22,-27.11 747.58,-20.52"/>
</g>
<!-- 264&#45;&gt;2 -->
<g id="edge101" class="edge">
<title>264&#45;&gt;2</title>
<path fill="none" stroke="green" stroke-width="0.59" d="M38.34,-74.11C43.83,-70.86 50.07,-67.69 56.21,-65.7 141.39,-38.02 421.07,-21.56 506.32,-17.09"/>
<polygon fill="green" stroke="green" stroke-width="0.59" points="506.57,-20.58 516.38,-16.57 506.21,-13.59 506.57,-20.58"/>
</g>
<!-- 44&#45;&gt;3 -->
<g id="edge99" class="edge">
<title>44&#45;&gt;3</title>
<path fill="none" stroke="red" stroke-width="0.52" d="M1012.96,-74.94C1007.66,-71.41 1001.42,-67.85 995.21,-65.7 849.98,-15.33 797.43,-77.15 651.21,-29.7 650.16,-29.36 649.1,-28.96 648.05,-28.53"/>
<polygon fill="red" stroke="red" stroke-width="0.52" points="649.46,-25.33 638.96,-23.94 646.3,-31.57 649.46,-25.33"/>
</g>
</g>
</svg>
