<?xml version="1.0" encoding="UTF-8" standalone="no"?>
<!DOCTYPE svg PUBLIC "-//W3C//DTD SVG 1.1//EN"
 "http://www.w3.org/Graphics/SVG/1.1/DTD/svg11.dtd">
<!-- Generated by graphviz version 2.49.0 (20210828.1703)
 -->
<!-- Pages: 1 -->
<svg width="1086pt" height="334pt"
 viewBox="0.00 0.00 1085.89 334.05" xmlns="http://www.w3.org/2000/svg" xmlns:xlink="http://www.w3.org/1999/xlink">
<g id="graph0" class="graph" transform="scale(1 1) rotate(0) translate(4 330.05)">
<polygon fill="white" stroke="transparent" points="-4,4 -4,-330.05 1081.89,-330.05 1081.89,4 -4,4"/>
<!-- &#45;1 -->
<g id="node1" class="node">
<title>&#45;1</title>
<polygon fill="lightgray" stroke="black" points="820.21,-326.05 796.21,-326.05 796.21,-308.05 820.21,-308.05 820.21,-326.05"/>
<text text-anchor="middle" x="808.21" y="-314.85" font-family="Times New Roman,serif" font-size="9.00">&#45;1</text>
</g>
<!-- 609 -->
<g id="node26" class="node">
<title>609</title>
<ellipse fill="white" stroke="black" cx="643.21" cy="-250.84" rx="21.43" ry="21.43"/>
<text text-anchor="middle" x="643.21" y="-248.64" font-family="Times New Roman,serif" font-size="9.00">609</text>
</g>
<!-- &#45;1&#45;&gt;609 -->
<g id="edge4" class="edge">
<title>&#45;1&#45;&gt;609</title>
<path fill="none" stroke="green" stroke-width="0.68" d="M796.08,-311.33C770.22,-301.27 709.09,-277.48 672.45,-263.22"/>
<polygon fill="green" stroke="green" stroke-width="0.68" points="673.4,-259.83 662.81,-259.46 670.86,-266.35 673.4,-259.83"/>
</g>
<!-- 610 -->
<g id="node27" class="node">
<title>610</title>
<ellipse fill="white" stroke="black" cx="267.21" cy="-250.84" rx="21.43" ry="21.43"/>
<text text-anchor="middle" x="267.21" y="-248.64" font-family="Times New Roman,serif" font-size="9.00">610</text>
</g>
<!-- &#45;1&#45;&gt;610 -->
<g id="edge5" class="edge">
<title>&#45;1&#45;&gt;610</title>
<path fill="none" stroke="red" stroke-width="0.12" d="M795.95,-310.7C793.13,-309.66 790.1,-308.69 787.21,-308.05 574.04,-260.68 503.57,-343.45 297.21,-272.05 295.54,-271.47 293.87,-270.77 292.22,-269.99"/>
<polygon fill="red" stroke="red" stroke-width="0.12" points="293.62,-266.76 283.2,-264.82 290.14,-272.83 293.62,-266.76"/>
</g>
<!-- 612 -->
<g id="node28" class="node">
<title>612</title>
<ellipse fill="white" stroke="black" cx="545.21" cy="-250.84" rx="21.43" ry="21.43"/>
<text text-anchor="middle" x="545.21" y="-248.64" font-family="Times New Roman,serif" font-size="9.00">612</text>
</g>
<!-- &#45;1&#45;&gt;612 -->
<g id="edge6" class="edge">
<title>&#45;1&#45;&gt;612</title>
<path fill="none" stroke="green" stroke-width="0.71" d="M795.88,-310.98C793.06,-309.92 790.05,-308.88 787.21,-308.05 711.4,-285.92 689.79,-291.32 613.21,-272.05 600.64,-268.89 586.93,-264.91 575.12,-261.32"/>
<polygon fill="green" stroke="green" stroke-width="0.71" points="575.9,-257.9 565.32,-258.3 573.84,-264.59 575.9,-257.9"/>
</g>
<!-- 614 -->
<g id="node29" class="node">
<title>614</title>
<ellipse fill="white" stroke="black" cx="425.21" cy="-250.84" rx="21.43" ry="21.43"/>
<text text-anchor="middle" x="425.21" y="-248.64" font-family="Times New Roman,serif" font-size="9.00">614</text>
</g>
<!-- &#45;1&#45;&gt;614 -->
<g id="edge7" class="edge">
<title>&#45;1&#45;&gt;614</title>
<path fill="none" stroke="red" stroke-width="0.17" d="M795.94,-310.77C793.11,-309.73 790.09,-308.74 787.21,-308.05 642.9,-273.35 594.61,-323.01 455.21,-272.05 453.59,-271.46 451.97,-270.76 450.37,-269.98"/>
<polygon fill="red" stroke="red" stroke-width="0.17" points="451.97,-266.87 441.56,-264.91 448.48,-272.94 451.97,-266.87"/>
</g>
<!-- 605 -->
<g id="node32" class="node">
<title>605</title>
<ellipse fill="white" stroke="black" cx="823.21" cy="-172.41" rx="21.43" ry="21.43"/>
<text text-anchor="middle" x="823.21" y="-170.21" font-family="Times New Roman,serif" font-size="9.00">605</text>
</g>
<!-- &#45;1&#45;&gt;605 -->
<g id="edge1" class="edge">
<title>&#45;1&#45;&gt;605</title>
<path fill="none" stroke="green" stroke-width="0.24" d="M820.54,-311C823.36,-309.94 826.37,-308.89 829.21,-308.05 901.15,-286.63 947.13,-330.51 994.21,-272.05 1006.04,-257.36 1005.27,-244.9 994.21,-229.62 962.25,-185.47 894.46,-175.39 854.5,-173.45"/>
<polygon fill="green" stroke="green" stroke-width="0.24" points="854.62,-169.95 844.5,-173.1 854.38,-176.94 854.62,-169.95"/>
</g>
<!-- 606 -->
<g id="node33" class="node">
<title>606</title>
<ellipse fill="white" stroke="black" cx="485.21" cy="-250.84" rx="21.43" ry="21.43"/>
<text text-anchor="middle" x="485.21" y="-248.64" font-family="Times New Roman,serif" font-size="9.00">606</text>
</g>
<!-- &#45;1&#45;&gt;606 -->
<g id="edge2" class="edge">
<title>&#45;1&#45;&gt;606</title>
<path fill="none" stroke="red" stroke-width="0.79" d="M795.92,-310.82C793.1,-309.78 790.08,-308.78 787.21,-308.05 668.99,-278.14 629.24,-315.26 515.21,-272.05 513.59,-271.44 511.98,-270.72 510.38,-269.94"/>
<polygon fill="red" stroke="red" stroke-width="0.79" points="511.99,-266.82 501.59,-264.84 508.48,-272.88 511.99,-266.82"/>
</g>
<!-- 607 -->
<g id="node34" class="node">
<title>607</title>
<ellipse fill="white" stroke="black" cx="817.21" cy="-250.84" rx="21.43" ry="21.43"/>
<text text-anchor="middle" x="817.21" y="-248.64" font-family="Times New Roman,serif" font-size="9.00">607</text>
</g>
<!-- &#45;1&#45;&gt;607 -->
<g id="edge3" class="edge">
<title>&#45;1&#45;&gt;607</title>
<path fill="none" stroke="red" stroke-width="0.45" d="M809.35,-307.92C810.27,-301.32 811.63,-291.6 812.97,-282.09"/>
<polygon fill="red" stroke="red" stroke-width="0.45" points="816.46,-282.41 814.38,-272.02 809.53,-281.43 816.46,-282.41"/>
</g>
<!-- &#45;2 -->
<g id="node2" class="node">
<title>&#45;2</title>
<polygon fill="lightgray" stroke="black" points="96.21,-326.05 72.21,-326.05 72.21,-308.05 96.21,-308.05 96.21,-326.05"/>
<text text-anchor="middle" x="84.21" y="-314.85" font-family="Times New Roman,serif" font-size="9.00">&#45;2</text>
</g>
<!-- 0 -->
<g id="node21" class="node">
<title>0</title>
<ellipse fill="lightblue" stroke="black" cx="399.21" cy="-90.45" rx="14.7" ry="14.7"/>
<text text-anchor="middle" x="399.21" y="-88.25" font-family="Times New Roman,serif" font-size="9.00">0</text>
</g>
<!-- &#45;2&#45;&gt;0 -->
<g id="edge194" class="edge">
<title>&#45;2&#45;&gt;0</title>
<path fill="none" stroke="red" stroke-width="0.56" d="M75.22,-307.92C47.85,-282.25 -29.99,-201.59 13.21,-151.2 60.11,-96.48 295.21,-91.43 373.67,-91.3"/>
<polygon fill="red" stroke="red" stroke-width="0.56" points="374.07,-94.8 384.07,-91.31 374.08,-87.8 374.07,-94.8"/>
</g>
<!-- &#45;2&#45;&gt;609 -->
<g id="edge10" class="edge">
<title>&#45;2&#45;&gt;609</title>
<path fill="none" stroke="red" stroke-width="0.12" d="M96.46,-310.71C99.29,-309.66 102.31,-308.7 105.21,-308.05 309.65,-262.29 369.19,-310.11 575.21,-272.05 588.04,-269.68 601.9,-265.81 613.74,-262.08"/>
<polygon fill="red" stroke="red" stroke-width="0.12" points="615.12,-265.31 623.54,-258.89 612.95,-258.66 615.12,-265.31"/>
</g>
<!-- &#45;2&#45;&gt;610 -->
<g id="edge11" class="edge">
<title>&#45;2&#45;&gt;610</title>
<path fill="none" stroke="green" stroke-width="0.13" d="M96.62,-311.25C99.44,-310.18 102.42,-309.06 105.21,-308.05 151.15,-291.33 204.82,-272.93 237.39,-261.88"/>
<polygon fill="green" stroke="green" stroke-width="0.13" points="238.84,-265.09 247.19,-258.57 236.59,-258.46 238.84,-265.09"/>
</g>
<!-- &#45;2&#45;&gt;612 -->
<g id="edge12" class="edge">
<title>&#45;2&#45;&gt;612</title>
<path fill="none" stroke="red" stroke-width="0.33" d="M96.47,-310.73C99.29,-309.69 102.32,-308.71 105.21,-308.05 283.49,-267.1 342.77,-333.09 515.21,-272.05 516.88,-271.46 518.54,-270.75 520.18,-269.96"/>
<polygon fill="red" stroke="red" stroke-width="0.33" points="522.28,-272.8 529.2,-264.77 518.79,-266.73 522.28,-272.8"/>
</g>
<!-- &#45;2&#45;&gt;614 -->
<g id="edge13" class="edge">
<title>&#45;2&#45;&gt;614</title>
<path fill="none" stroke="red" stroke-width="0.3" d="M96.5,-310.85C99.32,-309.8 102.34,-308.79 105.21,-308.05 214.75,-279.74 246.69,-296.23 357.21,-272.05 369.86,-269.28 383.6,-265.37 395.39,-261.73"/>
<polygon fill="red" stroke="red" stroke-width="0.3" points="396.7,-264.99 405.18,-258.64 394.59,-258.32 396.7,-264.99"/>
</g>
<!-- 616 -->
<g id="node30" class="node">
<title>616</title>
<ellipse fill="white" stroke="black" cx="327.21" cy="-250.84" rx="21.43" ry="21.43"/>
<text text-anchor="middle" x="327.21" y="-248.64" font-family="Times New Roman,serif" font-size="9.00">616</text>
</g>
<!-- &#45;2&#45;&gt;616 -->
<g id="edge14" class="edge">
<title>&#45;2&#45;&gt;616</title>
<path fill="none" stroke="red" stroke-width="0.39" d="M96.52,-310.94C99.34,-309.88 102.35,-308.85 105.21,-308.05 188.77,-284.5 216.88,-304.99 297.21,-272.05 298.81,-271.39 300.41,-270.65 301.99,-269.83"/>
<polygon fill="red" stroke="red" stroke-width="0.39" points="303.93,-272.76 310.76,-264.66 300.37,-266.73 303.93,-272.76"/>
</g>
<!-- &#45;2&#45;&gt;605 -->
<g id="edge8" class="edge">
<title>&#45;2&#45;&gt;605</title>
<path fill="none" stroke="green" stroke-width="0.11" d="M86.11,-307.85C90.72,-290.07 104.28,-248.09 133.21,-229.62 189.26,-193.84 664.03,-177.92 791.7,-174.26"/>
<polygon fill="green" stroke="green" stroke-width="0.11" points="792.06,-177.75 801.96,-173.97 791.87,-170.75 792.06,-177.75"/>
</g>
<!-- &#45;2&#45;&gt;606 -->
<g id="edge9" class="edge">
<title>&#45;2&#45;&gt;606</title>
<path fill="none" stroke="red" stroke-width="0.14" d="M96.48,-310.76C99.3,-309.72 102.32,-308.73 105.21,-308.05 257.35,-271.91 308.19,-325.33 455.21,-272.05 456.83,-271.46 458.45,-270.76 460.05,-269.99"/>
<polygon fill="red" stroke="red" stroke-width="0.14" points="461.93,-272.95 468.86,-264.93 458.45,-266.88 461.93,-272.95"/>
</g>
<!-- &#45;3 -->
<g id="node3" class="node">
<title>&#45;3</title>
<polygon fill="lightgray" stroke="black" points="862.21,-326.05 838.21,-326.05 838.21,-308.05 862.21,-308.05 862.21,-326.05"/>
<text text-anchor="middle" x="850.21" y="-314.85" font-family="Times New Roman,serif" font-size="9.00">&#45;3</text>
</g>
<!-- &#45;3&#45;&gt;609 -->
<g id="edge18" class="edge">
<title>&#45;3&#45;&gt;609</title>
<path fill="none" stroke="red" stroke-width="0.26" d="M837.82,-311.17C835.01,-310.1 832.01,-309.01 829.21,-308.05 774.63,-289.43 710.02,-270.62 673.1,-260.17"/>
<polygon fill="red" stroke="red" stroke-width="0.26" points="674.02,-256.79 663.45,-257.45 672.12,-263.53 674.02,-256.79"/>
</g>
<!-- &#45;3&#45;&gt;612 -->
<g id="edge19" class="edge">
<title>&#45;3&#45;&gt;612</title>
<path fill="none" stroke="red" stroke-width="0.15" d="M837.91,-310.9C835.08,-309.84 832.07,-308.82 829.21,-308.05 735.27,-282.6 708.03,-293.96 613.21,-272.05 600.59,-269.13 586.86,-265.2 575.06,-261.58"/>
<polygon fill="red" stroke="red" stroke-width="0.15" points="575.86,-258.16 565.27,-258.51 573.76,-264.84 575.86,-258.16"/>
</g>
<!-- &#45;3&#45;&gt;614 -->
<g id="edge20" class="edge">
<title>&#45;3&#45;&gt;614</title>
<path fill="none" stroke="green" stroke-width="0.27" d="M837.94,-310.75C835.12,-309.7 832.1,-308.72 829.21,-308.05 666.61,-269.98 612.39,-328.44 455.21,-272.05 453.54,-271.45 451.88,-270.74 450.24,-269.95"/>
<polygon fill="green" stroke="green" stroke-width="0.27" points="451.64,-266.71 441.23,-264.75 448.14,-272.78 451.64,-266.71"/>
</g>
<!-- &#45;3&#45;&gt;616 -->
<g id="edge21" class="edge">
<title>&#45;3&#45;&gt;616</title>
<path fill="none" stroke="green" stroke-width="0.78" d="M837.95,-310.72C835.12,-309.68 832.1,-308.71 829.21,-308.05 640.47,-265.17 585.43,-307.81 395.21,-272.05 382.38,-269.64 368.52,-265.76 356.69,-262.04"/>
<polygon fill="green" stroke="green" stroke-width="0.78" points="357.47,-258.62 346.88,-258.86 355.31,-265.27 357.47,-258.62"/>
</g>
<!-- &#45;3&#45;&gt;605 -->
<g id="edge15" class="edge">
<title>&#45;3&#45;&gt;605</title>
<path fill="none" stroke="red" stroke-width="0.24" d="M862.56,-311.07C865.38,-310.01 868.38,-308.94 871.21,-308.05 933.29,-288.43 973.22,-323.43 1013.21,-272.05 1024.79,-257.17 1024.49,-244.73 1013.21,-229.62 994.12,-204.08 903.03,-186.05 854.24,-178.05"/>
<polygon fill="red" stroke="red" stroke-width="0.24" points="854.65,-174.57 844.23,-176.45 853.55,-181.48 854.65,-174.57"/>
</g>
<!-- &#45;3&#45;&gt;606 -->
<g id="edge16" class="edge">
<title>&#45;3&#45;&gt;606</title>
<path fill="none" stroke="red" stroke-width="0.54" d="M837.93,-310.79C835.11,-309.74 832.09,-308.75 829.21,-308.05 692.73,-274.79 646.99,-320.68 515.21,-272.05 513.59,-271.45 511.97,-270.75 510.37,-269.97"/>
<polygon fill="red" stroke="red" stroke-width="0.54" points="511.98,-266.86 501.57,-264.89 508.48,-272.92 511.98,-266.86"/>
</g>
<!-- &#45;3&#45;&gt;607 -->
<g id="edge17" class="edge">
<title>&#45;3&#45;&gt;607</title>
<path fill="none" stroke="green" stroke-width="0.13" d="M846.03,-307.92C842.31,-300.68 836.65,-289.67 831.33,-279.32"/>
<polygon fill="green" stroke="green" stroke-width="0.13" points="834.29,-277.42 826.61,-270.12 828.06,-280.62 834.29,-277.42"/>
</g>
<!-- &#45;4 -->
<g id="node4" class="node">
<title>&#45;4</title>
<polygon fill="lightgray" stroke="black" points="411.21,-326.05 387.21,-326.05 387.21,-308.05 411.21,-308.05 411.21,-326.05"/>
<text text-anchor="middle" x="399.21" y="-314.85" font-family="Times New Roman,serif" font-size="9.00">&#45;4</text>
</g>
<!-- &#45;4&#45;&gt;609 -->
<g id="edge25" class="edge">
<title>&#45;4&#45;&gt;609</title>
<path fill="none" stroke="red" stroke-width="0.23" d="M411.55,-311.03C414.37,-309.97 417.37,-308.91 420.21,-308.05 487.85,-287.41 506.84,-290.13 575.21,-272.05 587.73,-268.74 601.44,-264.73 613.25,-261.17"/>
<polygon fill="red" stroke="red" stroke-width="0.23" points="614.52,-264.44 623.07,-258.17 612.48,-257.74 614.52,-264.44"/>
</g>
<!-- &#45;4&#45;&gt;610 -->
<g id="edge26" class="edge">
<title>&#45;4&#45;&gt;610</title>
<path fill="none" stroke="red" stroke-width="0.24" d="M386.93,-311.6C367.42,-304.35 328.35,-289.06 297.21,-272.05 295.69,-271.22 294.16,-270.34 292.62,-269.42"/>
<polygon fill="red" stroke="red" stroke-width="0.24" points="294.32,-266.35 284,-263.94 290.56,-272.26 294.32,-266.35"/>
</g>
<!-- &#45;4&#45;&gt;612 -->
<g id="edge27" class="edge">
<title>&#45;4&#45;&gt;612</title>
<path fill="none" stroke="green" stroke-width="0.35" d="M411.64,-311.31C414.46,-310.23 417.44,-309.1 420.21,-308.05 462.42,-292.01 475.11,-292.8 515.21,-272.05 516.74,-271.25 518.29,-270.4 519.84,-269.5"/>
<polygon fill="green" stroke="green" stroke-width="0.35" points="521.87,-272.36 528.49,-264.09 518.16,-266.42 521.87,-272.36"/>
</g>
<!-- &#45;4&#45;&gt;614 -->
<g id="edge28" class="edge">
<title>&#45;4&#45;&gt;614</title>
<path fill="none" stroke="red" stroke-width="0.23" d="M402.5,-307.92C405.36,-300.86 409.67,-290.21 413.77,-280.08"/>
<polygon fill="red" stroke="red" stroke-width="0.23" points="417.08,-281.24 417.59,-270.66 410.59,-278.62 417.08,-281.24"/>
</g>
<!-- &#45;4&#45;&gt;616 -->
<g id="edge29" class="edge">
<title>&#45;4&#45;&gt;616</title>
<path fill="none" stroke="green" stroke-width="0.52" d="M390.09,-307.92C380.09,-299 363.67,-284.36 350.12,-272.27"/>
<polygon fill="green" stroke="green" stroke-width="0.52" points="352.33,-269.55 342.54,-265.51 347.67,-274.78 352.33,-269.55"/>
</g>
<!-- &#45;4&#45;&gt;605 -->
<g id="edge22" class="edge">
<title>&#45;4&#45;&gt;605</title>
<path fill="none" stroke="green" stroke-width="0.57" d="M395.56,-307.94C388.58,-291.06 375.69,-251.87 395.21,-229.62 421.41,-199.75 697.93,-180.79 792.05,-175.17"/>
<polygon fill="green" stroke="green" stroke-width="0.57" points="792.31,-178.66 802.09,-174.58 791.9,-171.67 792.31,-178.66"/>
</g>
<!-- &#45;4&#45;&gt;606 -->
<g id="edge23" class="edge">
<title>&#45;4&#45;&gt;606</title>
<path fill="none" stroke="red" stroke-width="0.39" d="M410.1,-307.92C422.65,-298.55 443.67,-282.85 460.29,-270.44"/>
<polygon fill="red" stroke="red" stroke-width="0.39" points="462.59,-273.09 468.51,-264.31 458.4,-267.48 462.59,-273.09"/>
</g>
<!-- &#45;4&#45;&gt;607 -->
<g id="edge24" class="edge">
<title>&#45;4&#45;&gt;607</title>
<path fill="none" stroke="red" stroke-width="0.94" d="M411.5,-310.84C414.32,-309.79 417.34,-308.79 420.21,-308.05 422.44,-307.47 693.43,-269.27 786.35,-256.18"/>
<polygon fill="red" stroke="red" stroke-width="0.94" points="786.87,-259.64 796.28,-254.78 785.89,-252.71 786.87,-259.64"/>
</g>
<!-- &#45;5 -->
<g id="node5" class="node">
<title>&#45;5</title>
<polygon fill="lightgray" stroke="black" points="736.21,-326.05 712.21,-326.05 712.21,-308.05 736.21,-308.05 736.21,-326.05"/>
<text text-anchor="middle" x="724.21" y="-314.85" font-family="Times New Roman,serif" font-size="9.00">&#45;5</text>
</g>
<!-- &#45;5&#45;&gt;609 -->
<g id="edge33" class="edge">
<title>&#45;5&#45;&gt;609</title>
<path fill="none" stroke="red" stroke-width="0.55" stroke-dasharray="1,5" d="M713.95,-307.92C702.38,-298.75 683.17,-283.52 667.69,-271.24"/>
<polygon fill="red" stroke="red" stroke-width="0.55" points="669.55,-268.25 659.54,-264.78 665.2,-273.74 669.55,-268.25"/>
</g>
<!-- &#45;5&#45;&gt;610 -->
<g id="edge34" class="edge">
<title>&#45;5&#45;&gt;610</title>
<path fill="none" stroke="green" stroke-width="0.46" d="M711.81,-310.9C708.72,-309.8 705.38,-308.75 702.21,-308.05 525.8,-268.84 467.53,-332.45 297.21,-272.05 295.54,-271.46 293.87,-270.75 292.23,-269.96"/>
<polygon fill="green" stroke="green" stroke-width="0.46" points="293.63,-266.73 283.22,-264.77 290.14,-272.79 293.63,-266.73"/>
</g>
<!-- &#45;5&#45;&gt;612 -->
<g id="edge35" class="edge">
<title>&#45;5&#45;&gt;612</title>
<path fill="none" stroke="red" stroke-width="0.15" d="M712.11,-311.64C708.89,-310.47 705.42,-309.21 702.21,-308.05 657.73,-292 606.1,-273.55 574.55,-262.29"/>
<polygon fill="red" stroke="red" stroke-width="0.15" points="575.64,-258.97 565.05,-258.9 573.29,-265.56 575.64,-258.97"/>
</g>
<!-- &#45;5&#45;&gt;614 -->
<g id="edge36" class="edge">
<title>&#45;5&#45;&gt;614</title>
<path fill="none" stroke="red" stroke-width="0.19" d="M711.78,-311.03C708.69,-309.92 705.36,-308.84 702.21,-308.05 594.63,-280.95 558.69,-312.04 455.21,-272.05 453.6,-271.43 451.99,-270.7 450.39,-269.91"/>
<polygon fill="red" stroke="red" stroke-width="0.19" points="452.01,-266.8 441.6,-264.79 448.48,-272.85 452.01,-266.8"/>
</g>
<!-- &#45;5&#45;&gt;616 -->
<g id="edge37" class="edge">
<title>&#45;5&#45;&gt;616</title>
<path fill="none" stroke="red" stroke-width="0.13" stroke-dasharray="1,5" d="M711.8,-310.97C708.71,-309.86 705.37,-308.8 702.21,-308.05 568.53,-276.36 529.77,-299.72 395.21,-272.05 382.52,-269.44 368.78,-265.56 356.99,-261.9"/>
<polygon fill="red" stroke="red" stroke-width="0.13" points="357.8,-258.48 347.21,-258.77 355.67,-265.15 357.8,-258.48"/>
</g>
<!-- &#45;5&#45;&gt;605 -->
<g id="edge30" class="edge">
<title>&#45;5&#45;&gt;605</title>
<path fill="none" stroke="green" stroke-width="0.41" d="M736.53,-310.98C739.36,-309.92 742.36,-308.88 745.21,-308.05 820.59,-286 868.65,-332.98 918.21,-272.05 930.11,-257.42 927.55,-246 918.21,-229.62 904.38,-205.37 875.52,-190.51 853.22,-182.22"/>
<polygon fill="green" stroke="green" stroke-width="0.41" points="854.11,-178.82 843.51,-178.86 851.82,-185.43 854.11,-178.82"/>
</g>
<!-- &#45;5&#45;&gt;606 -->
<g id="edge31" class="edge">
<title>&#45;5&#45;&gt;606</title>
<path fill="none" stroke="green" stroke-width="0.34" d="M711.75,-311.13C708.67,-310.02 705.34,-308.91 702.21,-308.05 620.63,-285.52 593.44,-304.35 515.21,-272.05 513.61,-271.39 512.01,-270.64 510.43,-269.82"/>
<polygon fill="green" stroke="green" stroke-width="0.34" points="512.05,-266.72 501.67,-264.64 508.49,-272.74 512.05,-266.72"/>
</g>
<!-- &#45;5&#45;&gt;607 -->
<g id="edge32" class="edge">
<title>&#45;5&#45;&gt;607</title>
<path fill="none" stroke="green" stroke-width="0.36" d="M735.99,-307.92C749.93,-298.29 773.56,-281.98 791.74,-269.42"/>
<polygon fill="green" stroke="green" stroke-width="0.36" points="793.93,-272.16 800.17,-263.6 789.95,-266.4 793.93,-272.16"/>
</g>
<!-- &#45;6 -->
<g id="node6" class="node">
<title>&#45;6</title>
<polygon fill="lightgray" stroke="black" points="180.21,-326.05 156.21,-326.05 156.21,-308.05 180.21,-308.05 180.21,-326.05"/>
<text text-anchor="middle" x="168.21" y="-314.85" font-family="Times New Roman,serif" font-size="9.00">&#45;6</text>
</g>
<!-- 4 -->
<g id="node25" class="node">
<title>4</title>
<ellipse fill="lightblue" stroke="black" cx="313.21" cy="-172.41" rx="14.7" ry="14.7"/>
<text text-anchor="middle" x="313.21" y="-170.21" font-family="Times New Roman,serif" font-size="9.00">4</text>
</g>
<!-- &#45;6&#45;&gt;4 -->
<g id="edge195" class="edge">
<title>&#45;6&#45;&gt;4</title>
<path fill="none" stroke="green" stroke-width="0.32" d="M156.08,-310.97C132.57,-301.01 82.7,-279.24 78.21,-272.05 68.22,-256.05 66.53,-244.43 78.21,-229.62 104.21,-196.66 233.21,-180.88 288.25,-175.56"/>
<polygon fill="green" stroke="green" stroke-width="0.32" points="288.59,-179.05 298.22,-174.64 287.94,-172.08 288.59,-179.05"/>
</g>
<!-- &#45;6&#45;&gt;609 -->
<g id="edge41" class="edge">
<title>&#45;6&#45;&gt;609</title>
<path fill="none" stroke="green" stroke-width="0.75" d="M180.47,-310.74C183.3,-309.7 186.32,-308.72 189.21,-308.05 357.03,-269.02 406.04,-304.75 575.21,-272.05 588.02,-269.57 601.88,-265.68 613.72,-261.97"/>
<polygon fill="green" stroke="green" stroke-width="0.75" points="615.09,-265.21 623.53,-258.8 612.94,-258.55 615.09,-265.21"/>
</g>
<!-- &#45;6&#45;&gt;610 -->
<g id="edge42" class="edge">
<title>&#45;6&#45;&gt;610</title>
<path fill="none" stroke="green" stroke-width="0.18" d="M180.35,-308.17C195.39,-298.42 221.44,-281.52 241.1,-268.77"/>
<polygon fill="green" stroke="green" stroke-width="0.18" points="243.14,-271.62 249.62,-263.24 239.33,-265.75 243.14,-271.62"/>
</g>
<!-- &#45;6&#45;&gt;612 -->
<g id="edge43" class="edge">
<title>&#45;6&#45;&gt;612</title>
<path fill="none" stroke="green" stroke-width="0.25" d="M180.48,-310.78C183.3,-309.73 186.33,-308.74 189.21,-308.05 330.9,-273.83 378.35,-322.23 515.21,-272.05 516.83,-271.45 518.45,-270.75 520.05,-269.98"/>
<polygon fill="green" stroke="green" stroke-width="0.25" points="521.93,-272.93 528.85,-264.91 518.44,-266.86 521.93,-272.93"/>
</g>
<!-- &#45;6&#45;&gt;614 -->
<g id="edge44" class="edge">
<title>&#45;6&#45;&gt;614</title>
<path fill="none" stroke="green" stroke-width="0.43" d="M180.54,-310.99C183.36,-309.94 186.36,-308.89 189.21,-308.05 262.43,-286.39 283.22,-290.94 357.21,-272.05 369.76,-268.84 383.48,-264.86 395.28,-261.28"/>
<polygon fill="green" stroke="green" stroke-width="0.43" points="396.56,-264.55 405.09,-258.26 394.5,-257.86 396.56,-264.55"/>
</g>
<!-- &#45;6&#45;&gt;616 -->
<g id="edge45" class="edge">
<title>&#45;6&#45;&gt;616</title>
<path fill="none" stroke="green" stroke-width="0.33" d="M180.61,-311.22C183.43,-310.16 186.42,-309.05 189.21,-308.05 236.86,-291.04 251.81,-294.39 297.21,-272.05 298.76,-271.29 300.32,-270.45 301.88,-269.58"/>
<polygon fill="green" stroke="green" stroke-width="0.33" points="303.89,-272.45 310.56,-264.21 300.21,-266.49 303.89,-272.45"/>
</g>
<!-- &#45;6&#45;&gt;605 -->
<g id="edge38" class="edge">
<title>&#45;6&#45;&gt;605</title>
<path fill="none" stroke="green" stroke-width="0.11" d="M167.38,-307.82C166.14,-290.36 166.03,-249.56 189.21,-229.62 235.25,-190.01 669.85,-176.98 791.63,-174.09"/>
<polygon fill="green" stroke="green" stroke-width="0.11" points="791.86,-177.58 801.78,-173.85 791.7,-170.58 791.86,-177.58"/>
</g>
<!-- &#45;6&#45;&gt;606 -->
<g id="edge39" class="edge">
<title>&#45;6&#45;&gt;606</title>
<path fill="none" stroke="red" stroke-width="0.32" d="M180.49,-310.83C183.32,-309.78 186.33,-308.78 189.21,-308.05 304.82,-278.62 343.71,-314.49 455.21,-272.05 456.82,-271.43 458.44,-270.72 460.03,-269.93"/>
<polygon fill="red" stroke="red" stroke-width="0.32" points="461.93,-272.87 468.82,-264.83 458.42,-266.82 461.93,-272.87"/>
</g>
<!-- &#45;6&#45;&gt;607 -->
<g id="edge40" class="edge">
<title>&#45;6&#45;&gt;607</title>
<path fill="none" stroke="green" stroke-width="0.42" d="M180.46,-310.7C183.29,-309.66 186.31,-308.69 189.21,-308.05 399.76,-261.16 458.73,-295.05 673.21,-272.05 712.33,-267.85 757.19,-261.27 786.3,-256.77"/>
<polygon fill="green" stroke="green" stroke-width="0.42" points="786.93,-260.21 796.28,-255.21 785.85,-253.3 786.93,-260.21"/>
</g>
<!-- &#45;7 -->
<g id="node7" class="node">
<title>&#45;7</title>
<polygon fill="lightgray" stroke="black" points="138.21,-326.05 114.21,-326.05 114.21,-308.05 138.21,-308.05 138.21,-326.05"/>
<text text-anchor="middle" x="126.21" y="-314.85" font-family="Times New Roman,serif" font-size="9.00">&#45;7</text>
</g>
<!-- &#45;7&#45;&gt;609 -->
<g id="edge48" class="edge">
<title>&#45;7&#45;&gt;609</title>
<path fill="none" stroke="red" stroke-width="0.38" d="M138.47,-310.72C141.29,-309.68 144.32,-308.71 147.21,-308.05 333.34,-265.66 387.62,-307.43 575.21,-272.05 588.03,-269.63 601.89,-265.75 613.73,-262.03"/>
<polygon fill="red" stroke="red" stroke-width="0.38" points="615.11,-265.27 623.54,-258.85 612.94,-258.61 615.11,-265.27"/>
</g>
<!-- &#45;7&#45;&gt;610 -->
<g id="edge49" class="edge">
<title>&#45;7&#45;&gt;610</title>
<path fill="none" stroke="green" stroke-width="0.15" d="M138.23,-310.57C160.34,-300.5 208.03,-278.79 238.81,-264.77"/>
<polygon fill="green" stroke="green" stroke-width="0.15" points="240.51,-267.84 248.16,-260.51 237.6,-261.47 240.51,-267.84"/>
</g>
<!-- &#45;7&#45;&gt;612 -->
<g id="edge50" class="edge">
<title>&#45;7&#45;&gt;612</title>
<path fill="none" stroke="red" stroke-width="0.67" d="M138.47,-310.75C141.3,-309.71 144.32,-308.73 147.21,-308.05 307.19,-270.46 360.57,-327.66 515.21,-272.05 516.87,-271.45 518.54,-270.74 520.18,-269.94"/>
<polygon fill="red" stroke="red" stroke-width="0.67" points="522.28,-272.77 529.19,-264.74 518.78,-266.71 522.28,-272.77"/>
</g>
<!-- &#45;7&#45;&gt;614 -->
<g id="edge51" class="edge">
<title>&#45;7&#45;&gt;614</title>
<path fill="none" stroke="green" stroke-width="0.38" d="M138.51,-310.91C141.34,-309.85 144.35,-308.83 147.21,-308.05 238.55,-283.08 264.99,-293.58 357.21,-272.05 369.82,-269.1 383.55,-265.17 395.35,-261.55"/>
<polygon fill="green" stroke="green" stroke-width="0.38" points="396.64,-264.81 405.14,-258.49 394.55,-258.13 396.64,-264.81"/>
</g>
<!-- &#45;7&#45;&gt;616 -->
<g id="edge52" class="edge">
<title>&#45;7&#45;&gt;616</title>
<path fill="none" stroke="red" stroke-width="0.18" d="M138.55,-311.04C141.37,-309.99 144.38,-308.92 147.21,-308.05 212.71,-287.8 234.45,-299.64 297.21,-272.05 298.79,-271.35 300.38,-270.57 301.95,-269.74"/>
<polygon fill="red" stroke="red" stroke-width="0.18" points="303.92,-272.64 310.69,-264.49 300.31,-266.64 303.92,-272.64"/>
</g>
<!-- &#45;7&#45;&gt;605 -->
<g id="edge46" class="edge">
<title>&#45;7&#45;&gt;605</title>
<path fill="none" stroke="green" stroke-width="0.37" stroke-dasharray="1,5" d="M127.17,-307.92C129.74,-290.28 138.47,-248.55 165.21,-229.62 216.76,-193.13 667.06,-177.81 791.48,-174.25"/>
<polygon fill="green" stroke="green" stroke-width="0.37" points="791.94,-177.74 801.83,-173.96 791.74,-170.74 791.94,-177.74"/>
</g>
<!-- &#45;7&#45;&gt;606 -->
<g id="edge47" class="edge">
<title>&#45;7&#45;&gt;606</title>
<path fill="none" stroke="red" stroke-width="0.51" d="M138.48,-310.79C141.31,-309.75 144.33,-308.75 147.21,-308.05 281.07,-275.27 325.96,-319.91 455.21,-272.05 456.83,-271.45 458.45,-270.74 460.04,-269.97"/>
<polygon fill="red" stroke="red" stroke-width="0.51" points="461.93,-272.92 468.85,-264.89 458.44,-266.85 461.93,-272.92"/>
</g>
<!-- &#45;8 -->
<g id="node8" class="node">
<title>&#45;8</title>
<polygon fill="lightgray" stroke="black" points="952.21,-326.05 928.21,-326.05 928.21,-308.05 952.21,-308.05 952.21,-326.05"/>
<text text-anchor="middle" x="940.21" y="-314.85" font-family="Times New Roman,serif" font-size="9.00">&#45;8</text>
</g>
<!-- 1 -->
<g id="node22" class="node">
<title>1</title>
<ellipse fill="lightblue" stroke="black" cx="698.21" cy="-90.45" rx="14.7" ry="14.7"/>
<text text-anchor="middle" x="698.21" y="-88.25" font-family="Times New Roman,serif" font-size="9.00">1</text>
</g>
<!-- &#45;8&#45;&gt;1 -->
<g id="edge196" class="edge">
<title>&#45;8&#45;&gt;1</title>
<path fill="none" stroke="green" stroke-width="0.23" d="M952.56,-316.21C979.35,-315.79 1042.57,-310.58 1070.21,-272.05 1081.2,-256.73 1079.39,-246.09 1070.21,-229.62 1001.7,-106.81 911.28,-150.69 775.21,-115.2 757.06,-110.46 736.8,-104.17 721.62,-99.26"/>
<polygon fill="green" stroke="green" stroke-width="0.23" points="722.61,-95.9 712.01,-96.11 720.43,-102.55 722.61,-95.9"/>
</g>
<!-- &#45;8&#45;&gt;609 -->
<g id="edge56" class="edge">
<title>&#45;8&#45;&gt;609</title>
<path fill="none" stroke="red" stroke-width="0.34" d="M927.75,-311.16C924.66,-310.04 921.34,-308.93 918.21,-308.05 831.08,-283.45 725.58,-264.95 674.26,-256.65"/>
<polygon fill="red" stroke="red" stroke-width="0.34" points="674.58,-253.16 664.16,-255.04 673.48,-260.07 674.58,-253.16"/>
</g>
<!-- &#45;8&#45;&gt;610 -->
<g id="edge57" class="edge">
<title>&#45;8&#45;&gt;610</title>
<path fill="none" stroke="green" stroke-width="0.19" d="M927.83,-310.84C924.73,-309.73 921.39,-308.71 918.21,-308.05 782.82,-280.13 428.19,-316.24 297.21,-272.05 295.53,-271.48 293.86,-270.8 292.21,-270.02"/>
<polygon fill="green" stroke="green" stroke-width="0.19" points="293.6,-266.79 283.18,-264.87 290.14,-272.87 293.6,-266.79"/>
</g>
<!-- &#45;8&#45;&gt;612 -->
<g id="edge58" class="edge">
<title>&#45;8&#45;&gt;612</title>
<path fill="none" stroke="green" stroke-width="0.33" d="M927.8,-310.97C924.71,-309.86 921.37,-308.8 918.21,-308.05 785.4,-276.51 746.9,-299.6 613.21,-272.05 600.52,-269.43 586.78,-265.56 574.99,-261.89"/>
<polygon fill="green" stroke="green" stroke-width="0.33" points="575.8,-258.48 565.21,-258.77 573.67,-265.15 575.8,-258.48"/>
</g>
<!-- &#45;8&#45;&gt;614 -->
<g id="edge59" class="edge">
<title>&#45;8&#45;&gt;614</title>
<path fill="none" stroke="green" stroke-width="0.54" d="M927.82,-310.88C924.73,-309.78 921.39,-308.74 918.21,-308.05 716.48,-264.38 650.12,-339.96 455.21,-272.05 453.54,-271.47 451.87,-270.77 450.23,-269.98"/>
<polygon fill="green" stroke="green" stroke-width="0.54" points="451.62,-266.75 441.21,-264.81 448.14,-272.82 451.62,-266.75"/>
</g>
<!-- &#45;8&#45;&gt;616 -->
<g id="edge60" class="edge">
<title>&#45;8&#45;&gt;616</title>
<path fill="none" stroke="green" stroke-width="0.24" d="M927.82,-310.86C924.73,-309.76 921.39,-308.72 918.21,-308.05 690.27,-259.76 624.49,-313.49 395.21,-272.05 382.37,-269.73 368.5,-265.86 356.67,-262.13"/>
<polygon fill="green" stroke="green" stroke-width="0.24" points="357.46,-258.71 346.86,-258.93 355.28,-265.36 357.46,-258.71"/>
</g>
<!-- &#45;8&#45;&gt;605 -->
<g id="edge53" class="edge">
<title>&#45;8&#45;&gt;605</title>
<path fill="none" stroke="green" stroke-width="0.12" d="M952.24,-315.44C975.98,-313.51 1028.49,-305.49 1051.21,-272.05 1061.8,-256.45 1062.84,-244.47 1051.21,-229.62 1027.12,-198.87 911.32,-182.66 854.62,-176.45"/>
<polygon fill="green" stroke="green" stroke-width="0.12" points="854.75,-172.94 844.43,-175.37 854.01,-179.91 854.75,-172.94"/>
</g>
<!-- &#45;8&#45;&gt;606 -->
<g id="edge54" class="edge">
<title>&#45;8&#45;&gt;606</title>
<path fill="none" stroke="red" stroke-width="0.44" d="M927.81,-310.91C924.72,-309.8 921.38,-308.75 918.21,-308.05 742.68,-268.99 684.68,-332.19 515.21,-272.05 513.54,-271.46 511.88,-270.75 510.23,-269.96"/>
<polygon fill="red" stroke="red" stroke-width="0.44" points="511.63,-266.73 501.22,-264.77 508.14,-272.79 511.63,-266.73"/>
</g>
<!-- &#45;8&#45;&gt;607 -->
<g id="edge55" class="edge">
<title>&#45;8&#45;&gt;607</title>
<path fill="none" stroke="red" stroke-width="0.31" d="M927.96,-309.66C908.7,-299.6 870.82,-279.82 844.77,-266.22"/>
<polygon fill="red" stroke="red" stroke-width="0.31" points="846.25,-263.05 835.76,-261.52 843.01,-269.25 846.25,-263.05"/>
</g>
<!-- &#45;9 -->
<g id="node9" class="node">
<title>&#45;9</title>
<polygon fill="lightgray" stroke="black" points="778.21,-326.05 754.21,-326.05 754.21,-308.05 778.21,-308.05 778.21,-326.05"/>
<text text-anchor="middle" x="766.21" y="-314.85" font-family="Times New Roman,serif" font-size="9.00">&#45;9</text>
</g>
<!-- &#45;9&#45;&gt;609 -->
<g id="edge64" class="edge">
<title>&#45;9&#45;&gt;609</title>
<path fill="none" stroke="red" stroke-width="0.41" stroke-dasharray="1,5" d="M753.96,-309.66C734.7,-299.6 696.82,-279.82 670.77,-266.22"/>
<polygon fill="red" stroke="red" stroke-width="0.41" points="672.25,-263.05 661.76,-261.52 669.01,-269.25 672.25,-263.05"/>
</g>
<!-- &#45;9&#45;&gt;610 -->
<g id="edge65" class="edge">
<title>&#45;9&#45;&gt;610</title>
<path fill="none" stroke="red" stroke-width="0.21" d="M753.95,-310.71C751.13,-309.67 748.1,-308.7 745.21,-308.05 550.36,-264.05 485.76,-338.01 297.21,-272.05 295.54,-271.46 293.87,-270.76 292.23,-269.98"/>
<polygon fill="red" stroke="red" stroke-width="0.21" points="293.62,-266.74 283.21,-264.8 290.14,-272.81 293.62,-266.74"/>
</g>
<!-- &#45;9&#45;&gt;612 -->
<g id="edge66" class="edge">
<title>&#45;9&#45;&gt;612</title>
<path fill="none" stroke="red" stroke-width="0.45" d="M753.84,-311.11C751.02,-310.05 748.03,-308.97 745.21,-308.05 687.39,-289.2 671.69,-288.71 613.21,-272.05 600.75,-268.5 587.05,-264.45 575.23,-260.92"/>
<polygon fill="red" stroke="red" stroke-width="0.45" points="575.99,-257.49 565.41,-257.97 573.98,-264.2 575.99,-257.49"/>
</g>
<!-- &#45;9&#45;&gt;614 -->
<g id="edge67" class="edge">
<title>&#45;9&#45;&gt;614</title>
<path fill="none" stroke="green" stroke-width="0.16" d="M753.93,-310.81C751.11,-309.76 748.09,-308.76 745.21,-308.05 619.17,-276.7 576.84,-317.58 455.21,-272.05 453.59,-271.44 451.97,-270.73 450.38,-269.95"/>
<polygon fill="green" stroke="green" stroke-width="0.16" points="451.99,-266.84 441.58,-264.86 448.48,-272.9 451.99,-266.84"/>
</g>
<!-- &#45;9&#45;&gt;616 -->
<g id="edge68" class="edge">
<title>&#45;9&#45;&gt;616</title>
<path fill="none" stroke="red" stroke-width="0.46" d="M753.94,-310.76C751.12,-309.72 748.09,-308.73 745.21,-308.05 593.07,-271.91 548.6,-302.46 395.21,-272.05 382.41,-269.51 368.55,-265.61 356.71,-261.91"/>
<polygon fill="red" stroke="red" stroke-width="0.46" points="357.49,-258.49 346.9,-258.75 355.34,-265.15 357.49,-258.49"/>
</g>
<!-- &#45;9&#45;&gt;605 -->
<g id="edge61" class="edge">
<title>&#45;9&#45;&gt;605</title>
<path fill="none" stroke="red" stroke-width="0.57" d="M778.54,-310.99C781.36,-309.93 784.36,-308.89 787.21,-308.05 860.86,-286.31 907.89,-331.74 956.21,-272.05 968.07,-257.39 966.63,-245.34 956.21,-229.62 933.68,-195.65 886.11,-182.15 854.4,-176.83"/>
<polygon fill="red" stroke="red" stroke-width="0.57" points="854.72,-173.34 844.31,-175.32 853.68,-180.26 854.72,-173.34"/>
</g>
<!-- &#45;9&#45;&gt;606 -->
<g id="edge62" class="edge">
<title>&#45;9&#45;&gt;606</title>
<path fill="none" stroke="red" stroke-width="0.15" d="M753.91,-310.87C751.09,-309.82 748.07,-308.81 745.21,-308.05 645.21,-281.49 611.52,-309.86 515.21,-272.05 513.6,-271.42 511.99,-270.69 510.4,-269.89"/>
<polygon fill="red" stroke="red" stroke-width="0.15" points="512.02,-266.78 501.62,-264.76 508.49,-272.83 512.02,-266.78"/>
</g>
<!-- &#45;9&#45;&gt;607 -->
<g id="edge63" class="edge">
<title>&#45;9&#45;&gt;607</title>
<path fill="none" stroke="red" stroke-width="0.73" d="M772.67,-307.92C779.05,-299.88 789.14,-287.18 798.09,-275.9"/>
<polygon fill="red" stroke="red" stroke-width="0.73" points="800.87,-278.03 804.35,-268.02 795.39,-273.68 800.87,-278.03"/>
</g>
<!-- &#45;10 -->
<g id="node10" class="node">
<title>&#45;10</title>
<polygon fill="lightgray" stroke="black" points="909.71,-326.05 880.71,-326.05 880.71,-308.05 909.71,-308.05 909.71,-326.05"/>
<text text-anchor="middle" x="895.21" y="-314.85" font-family="Times New Roman,serif" font-size="9.00">&#45;10</text>
</g>
<!-- &#45;10&#45;&gt;609 -->
<g id="edge72" class="edge">
<title>&#45;10&#45;&gt;609</title>
<path fill="none" stroke="green" stroke-width="0.15" d="M880.54,-310.95C877.47,-309.95 874.25,-308.93 871.21,-308.05 801.06,-287.74 717.44,-268.33 673.55,-258.5"/>
<polygon fill="green" stroke="green" stroke-width="0.15" points="674.31,-255.09 663.79,-256.33 672.79,-261.92 674.31,-255.09"/>
</g>
<!-- &#45;10&#45;&gt;612 -->
<g id="edge73" class="edge">
<title>&#45;10&#45;&gt;612</title>
<path fill="none" stroke="red" stroke-width="0.23" d="M880.61,-310.71C877.53,-309.72 874.29,-308.77 871.21,-308.05 758.48,-281.63 726.35,-296.61 613.21,-272.05 600.55,-269.3 586.81,-265.4 575.02,-261.75"/>
<polygon fill="red" stroke="red" stroke-width="0.23" points="575.83,-258.34 565.23,-258.65 573.71,-265.01 575.83,-258.34"/>
</g>
<!-- &#45;10&#45;&gt;614 -->
<g id="edge74" class="edge">
<title>&#45;10&#45;&gt;614</title>
<path fill="none" stroke="green" stroke-width="0.16" d="M880.63,-310.58C877.56,-309.6 874.3,-308.69 871.21,-308.05 689.48,-270.45 630.19,-333.87 455.21,-272.05 453.54,-271.46 451.87,-270.75 450.23,-269.97"/>
<polygon fill="green" stroke="green" stroke-width="0.16" points="451.63,-266.73 441.22,-264.78 448.14,-272.8 451.63,-266.73"/>
</g>
<!-- &#45;10&#45;&gt;616 -->
<g id="edge75" class="edge">
<title>&#45;10&#45;&gt;616</title>
<path fill="none" stroke="red" stroke-width="0.33" d="M880.64,-310.56C877.56,-309.58 874.31,-308.67 871.21,-308.05 663.22,-266.19 603.86,-310.49 395.21,-272.05 382.37,-269.68 368.51,-265.81 356.68,-262.09"/>
<polygon fill="red" stroke="red" stroke-width="0.33" points="357.46,-258.67 346.87,-258.9 355.3,-265.32 357.46,-258.67"/>
</g>
<!-- &#45;10&#45;&gt;605 -->
<g id="edge69" class="edge">
<title>&#45;10&#45;&gt;605</title>
<path fill="none" stroke="red" stroke-width="0.57" d="M909.92,-311.11C912.99,-310.09 916.2,-309.03 919.21,-308.05 969.32,-291.71 1001.1,-314.6 1032.21,-272.05 1043.34,-256.83 1043.68,-244.59 1032.21,-229.62 1010.66,-201.51 907.52,-184.32 854.63,-177.21"/>
<polygon fill="red" stroke="red" stroke-width="0.57" points="854.83,-173.71 844.46,-175.88 853.92,-180.65 854.83,-173.71"/>
</g>
<!-- &#45;10&#45;&gt;606 -->
<g id="edge70" class="edge">
<title>&#45;10&#45;&gt;606</title>
<path fill="none" stroke="green" stroke-width="0.31" stroke-dasharray="1,5" d="M880.63,-310.62C877.55,-309.63 874.3,-308.71 871.21,-308.05 715.71,-274.7 664.77,-326.11 515.21,-272.05 513.58,-271.46 511.96,-270.77 510.36,-270"/>
<polygon fill="green" stroke="green" stroke-width="0.31" points="511.97,-266.88 501.55,-264.94 508.48,-272.95 511.97,-266.88"/>
</g>
<!-- &#45;10&#45;&gt;607 -->
<g id="edge71" class="edge">
<title>&#45;10&#45;&gt;607</title>
<path fill="none" stroke="red" stroke-width="0.61" d="M885.33,-307.92C874.26,-298.8 855.92,-283.71 841.06,-271.47"/>
<polygon fill="red" stroke="red" stroke-width="0.61" points="843.17,-268.68 833.23,-265.02 838.72,-274.08 843.17,-268.68"/>
</g>
<!-- &#45;11 -->
<g id="node11" class="node">
<title>&#45;11</title>
<polygon fill="lightgray" stroke="black" points="368.71,-326.05 339.71,-326.05 339.71,-308.05 368.71,-308.05 368.71,-326.05"/>
<text text-anchor="middle" x="354.21" y="-314.85" font-family="Times New Roman,serif" font-size="9.00">&#45;11</text>
</g>
<!-- &#45;11&#45;&gt;609 -->
<g id="edge79" class="edge">
<title>&#45;11&#45;&gt;609</title>
<path fill="none" stroke="green" stroke-width="0.36" d="M368.83,-310.81C371.91,-309.81 375.15,-308.83 378.21,-308.05 464.42,-285.92 488.65,-292.76 575.21,-272.05 587.81,-269.03 601.53,-265.08 613.33,-261.48"/>
<polygon fill="green" stroke="green" stroke-width="0.36" points="614.62,-264.74 623.13,-258.43 612.54,-258.06 614.62,-264.74"/>
</g>
<!-- &#45;11&#45;&gt;610 -->
<g id="edge80" class="edge">
<title>&#45;11&#45;&gt;610</title>
<path fill="none" stroke="green" stroke-width="1.08" d="M343.19,-307.92C330.5,-298.55 309.23,-282.85 292.42,-270.44"/>
<polygon fill="green" stroke="green" stroke-width="1.08" points="294.23,-267.43 284.1,-264.31 290.07,-273.06 294.23,-267.43"/>
</g>
<!-- &#45;11&#45;&gt;612 -->
<g id="edge81" class="edge">
<title>&#45;11&#45;&gt;612</title>
<path fill="none" stroke="red" stroke-width="0.21" d="M368.88,-310.99C371.95,-309.98 375.18,-308.95 378.21,-308.05 438.55,-290.09 457.85,-298 515.21,-272.05 516.78,-271.34 518.36,-270.54 519.93,-269.7"/>
<polygon fill="red" stroke="red" stroke-width="0.21" points="521.91,-272.59 528.66,-264.42 518.29,-266.6 521.91,-272.59"/>
</g>
<!-- &#45;11&#45;&gt;614 -->
<g id="edge82" class="edge">
<title>&#45;11&#45;&gt;614</title>
<path fill="none" stroke="green" stroke-width="0.22" d="M363.2,-307.92C372.99,-299.06 389.04,-284.54 402.36,-272.5"/>
<polygon fill="green" stroke="green" stroke-width="0.22" points="404.75,-275.06 409.82,-265.76 400.05,-269.87 404.75,-275.06"/>
</g>
<!-- &#45;11&#45;&gt;616 -->
<g id="edge83" class="edge">
<title>&#45;11&#45;&gt;616</title>
<path fill="none" stroke="red" stroke-width="0.17" d="M350.79,-307.92C347.82,-300.86 343.34,-290.21 339.08,-280.08"/>
<polygon fill="red" stroke="red" stroke-width="0.17" points="342.23,-278.52 335.12,-270.66 335.77,-281.23 342.23,-278.52"/>
</g>
<!-- &#45;11&#45;&gt;605 -->
<g id="edge76" class="edge">
<title>&#45;11&#45;&gt;605</title>
<path fill="none" stroke="red" stroke-width="0.1" d="M339.38,-310.98C308.58,-300.37 240.27,-276.46 237.21,-272.05 226.47,-256.55 224.53,-243.58 237.21,-229.62 274.78,-188.27 675.74,-176.55 791.86,-174.01"/>
<polygon fill="red" stroke="red" stroke-width="0.1" points="791.96,-177.51 801.89,-173.8 791.81,-170.51 791.96,-177.51"/>
</g>
<!-- &#45;11&#45;&gt;606 -->
<g id="edge77" class="edge">
<title>&#45;11&#45;&gt;606</title>
<path fill="none" stroke="green" stroke-width="0.12" d="M368.99,-310.59C389.03,-302.97 425.7,-288.24 455.21,-272.05 456.72,-271.22 458.26,-270.33 459.79,-269.41"/>
<polygon fill="green" stroke="green" stroke-width="0.12" points="461.85,-272.25 468.41,-263.93 458.09,-266.34 461.85,-272.25"/>
</g>
<!-- &#45;11&#45;&gt;607 -->
<g id="edge78" class="edge">
<title>&#45;11&#45;&gt;607</title>
<path fill="none" stroke="green" stroke-width="0.69" d="M368.8,-310.67C371.87,-309.68 375.12,-308.74 378.21,-308.05 507.06,-279.02 542.25,-289.23 673.21,-272.05 712.22,-266.93 757.11,-260.55 786.25,-256.35"/>
<polygon fill="green" stroke="green" stroke-width="0.69" points="786.84,-259.8 796.24,-254.9 785.84,-252.87 786.84,-259.8"/>
</g>
<!-- &#45;12 -->
<g id="node12" class="node">
<title>&#45;12</title>
<polygon fill="lightgray" stroke="black" points="458.71,-326.05 429.71,-326.05 429.71,-308.05 458.71,-308.05 458.71,-326.05"/>
<text text-anchor="middle" x="444.21" y="-314.85" font-family="Times New Roman,serif" font-size="9.00">&#45;12</text>
</g>
<!-- &#45;12&#45;&gt;609 -->
<g id="edge87" class="edge">
<title>&#45;12&#45;&gt;609</title>
<path fill="none" stroke="red" stroke-width="0.13" d="M458.75,-310.78C461.54,-309.83 464.46,-308.88 467.21,-308.05 529.14,-289.41 548.31,-296.45 608.21,-272.05 611.1,-270.87 614.05,-269.49 616.95,-268.01"/>
<polygon fill="red" stroke="red" stroke-width="0.13" points="618.81,-270.98 625.88,-263.09 615.43,-264.85 618.81,-270.98"/>
</g>
<!-- &#45;12&#45;&gt;610 -->
<g id="edge88" class="edge">
<title>&#45;12&#45;&gt;610</title>
<path fill="none" stroke="red" stroke-width="0.31" d="M429.51,-311.05C426.44,-310.04 423.23,-308.99 420.21,-308.05 365.85,-291.04 348.77,-296.25 297.21,-272.05 295.64,-271.31 294.07,-270.51 292.51,-269.65"/>
<polygon fill="red" stroke="red" stroke-width="0.31" points="294.16,-266.55 283.8,-264.33 290.51,-272.53 294.16,-266.55"/>
</g>
<!-- &#45;12&#45;&gt;612 -->
<g id="edge89" class="edge">
<title>&#45;12&#45;&gt;612</title>
<path fill="none" stroke="green" stroke-width="0.29" d="M457.65,-307.93C472,-299.21 495.36,-284.88 515.21,-272.05 516.66,-271.11 518.14,-270.14 519.64,-269.16"/>
<polygon fill="green" stroke="green" stroke-width="0.29" points="521.76,-271.95 528.15,-263.49 517.89,-266.12 521.76,-271.95"/>
</g>
<!-- &#45;12&#45;&gt;614 -->
<g id="edge90" class="edge">
<title>&#45;12&#45;&gt;614</title>
<path fill="none" stroke="red" stroke-width="0.25" stroke-dasharray="1,5" d="M441.8,-307.92C439.8,-301.15 436.82,-291.09 433.94,-281.35"/>
<polygon fill="red" stroke="red" stroke-width="0.25" points="437.21,-280.07 431.02,-271.47 430.5,-282.05 437.21,-280.07"/>
</g>
<!-- &#45;12&#45;&gt;616 -->
<g id="edge91" class="edge">
<title>&#45;12&#45;&gt;616</title>
<path fill="none" stroke="green" stroke-width="0.11" d="M429.39,-307.92C410.69,-297.65 378.16,-279.8 354.82,-266.99"/>
<polygon fill="green" stroke="green" stroke-width="0.11" points="356.21,-263.76 345.76,-262.02 352.84,-269.9 356.21,-263.76"/>
</g>
<!-- &#45;12&#45;&gt;605 -->
<g id="edge84" class="edge">
<title>&#45;12&#45;&gt;605</title>
<path fill="none" stroke="red" stroke-width="0.34" d="M458.8,-310.94C461.59,-309.97 464.49,-308.98 467.21,-308.05 515.1,-291.74 532.92,-299.82 575.21,-272.05 596.37,-258.15 591.64,-242.87 613.21,-229.62 670.13,-194.65 748.73,-181.17 791.82,-176.17"/>
<polygon fill="red" stroke="red" stroke-width="0.34" points="792.4,-179.63 801.97,-175.08 791.65,-172.67 792.4,-179.63"/>
</g>
<!-- &#45;12&#45;&gt;606 -->
<g id="edge85" class="edge">
<title>&#45;12&#45;&gt;606</title>
<path fill="none" stroke="red" stroke-width="0.38" d="M449.4,-307.92C454.25,-300.32 461.75,-288.57 468.64,-277.79"/>
<polygon fill="red" stroke="red" stroke-width="0.38" points="471.78,-279.38 474.21,-269.06 465.88,-275.61 471.78,-279.38"/>
</g>
<!-- &#45;12&#45;&gt;607 -->
<g id="edge86" class="edge">
<title>&#45;12&#45;&gt;607</title>
<path fill="none" stroke="green" stroke-width="0.24" d="M459.19,-310.42C461.84,-309.54 464.58,-308.71 467.21,-308.05 527.78,-292.78 712.4,-266.37 786.22,-256.1"/>
<polygon fill="green" stroke="green" stroke-width="0.24" points="786.86,-259.55 796.28,-254.7 785.89,-252.61 786.86,-259.55"/>
</g>
<!-- &#45;13 -->
<g id="node13" class="node">
<title>&#45;13</title>
<polygon fill="lightgray" stroke="black" points="552.71,-326.05 523.71,-326.05 523.71,-308.05 552.71,-308.05 552.71,-326.05"/>
<text text-anchor="middle" x="538.21" y="-314.85" font-family="Times New Roman,serif" font-size="9.00">&#45;13</text>
</g>
<!-- &#45;13&#45;&gt;609 -->
<g id="edge95" class="edge">
<title>&#45;13&#45;&gt;609</title>
<path fill="none" stroke="green" stroke-width="0.11" d="M551.51,-307.92C567.85,-297.92 595.97,-280.72 616.77,-268"/>
<polygon fill="green" stroke="green" stroke-width="0.11" points="618.76,-270.89 625.47,-262.69 615.11,-264.92 618.76,-270.89"/>
</g>
<!-- &#45;13&#45;&gt;610 -->
<g id="edge96" class="edge">
<title>&#45;13&#45;&gt;610</title>
<path fill="none" stroke="green" stroke-width="0.31" d="M523.59,-310.77C520.52,-309.78 517.28,-308.81 514.21,-308.05 419.32,-284.52 388.05,-308.19 297.21,-272.05 295.6,-271.41 294,-270.68 292.41,-269.87"/>
<polygon fill="green" stroke="green" stroke-width="0.31" points="294.03,-266.77 283.63,-264.73 290.49,-272.8 294.03,-266.77"/>
</g>
<!-- &#45;13&#45;&gt;612 -->
<g id="edge97" class="edge">
<title>&#45;13&#45;&gt;612</title>
<path fill="none" stroke="green" stroke-width="0.33" d="M539.09,-307.92C539.81,-301.32 540.87,-291.6 541.91,-282.09"/>
<polygon fill="green" stroke="green" stroke-width="0.33" points="545.4,-282.34 543.01,-272.02 538.44,-281.58 545.4,-282.34"/>
</g>
<!-- &#45;13&#45;&gt;614 -->
<g id="edge98" class="edge">
<title>&#45;13&#45;&gt;614</title>
<path fill="none" stroke="green" stroke-width="0.54" d="M523.56,-308.87C506.77,-300.51 478.57,-286.06 455.21,-272.05 453.73,-271.16 452.22,-270.23 450.7,-269.28"/>
<polygon fill="green" stroke="green" stroke-width="0.54" points="452.43,-266.22 442.14,-263.7 448.61,-272.09 452.43,-266.22"/>
</g>
<!-- &#45;13&#45;&gt;616 -->
<g id="edge99" class="edge">
<title>&#45;13&#45;&gt;616</title>
<path fill="none" stroke="red" stroke-width="0.21" d="M523.51,-311.07C520.44,-310.05 517.22,-309 514.21,-308.05 484.68,-298.69 402,-274.04 357.11,-260.71"/>
<polygon fill="red" stroke="red" stroke-width="0.21" points="357.94,-257.3 347.36,-257.81 355.95,-264.01 357.94,-257.3"/>
</g>
<!-- &#45;13&#45;&gt;605 -->
<g id="edge92" class="edge">
<title>&#45;13&#45;&gt;605</title>
<path fill="none" stroke="red" stroke-width="0.21" d="M552.74,-310.77C555.54,-309.82 558.45,-308.87 561.21,-308.05 624.85,-289.12 649.32,-306.29 706.21,-272.05 727.9,-258.99 725.33,-246.49 744.21,-229.62 760.57,-214.99 780.77,-200.68 796.64,-190.16"/>
<polygon fill="red" stroke="red" stroke-width="0.21" points="798.96,-192.82 805.42,-184.43 795.14,-186.96 798.96,-192.82"/>
</g>
<!-- &#45;13&#45;&gt;606 -->
<g id="edge93" class="edge">
<title>&#45;13&#45;&gt;606</title>
<path fill="none" stroke="green" stroke-width="0.26" d="M531.5,-307.92C524.82,-299.82 514.24,-287.01 504.88,-275.67"/>
<polygon fill="green" stroke="green" stroke-width="0.26" points="507.42,-273.25 498.36,-267.77 502.02,-277.71 507.42,-273.25"/>
</g>
<!-- &#45;13&#45;&gt;607 -->
<g id="edge94" class="edge">
<title>&#45;13&#45;&gt;607</title>
<path fill="none" stroke="red" stroke-width="0.26" d="M552.71,-310.66C555.51,-309.72 558.43,-308.8 561.21,-308.05 641.22,-286.38 663.54,-291.12 744.21,-272.05 758.45,-268.68 774.1,-264.42 787.24,-260.69"/>
<polygon fill="red" stroke="red" stroke-width="0.26" points="788.53,-263.96 797.17,-257.82 786.6,-257.23 788.53,-263.96"/>
</g>
<!-- &#45;14 -->
<g id="node14" class="node">
<title>&#45;14</title>
<polygon fill="lightgray" stroke="black" points="646.71,-326.05 617.71,-326.05 617.71,-308.05 646.71,-308.05 646.71,-326.05"/>
<text text-anchor="middle" x="632.21" y="-314.85" font-family="Times New Roman,serif" font-size="9.00">&#45;14</text>
</g>
<!-- &#45;14&#45;&gt;609 -->
<g id="edge103" class="edge">
<title>&#45;14&#45;&gt;609</title>
<path fill="none" stroke="red" stroke-width="0.34" d="M633.6,-307.92C634.73,-301.32 636.4,-291.6 638.03,-282.09"/>
<polygon fill="red" stroke="red" stroke-width="0.34" points="641.51,-282.46 639.75,-272.02 634.61,-281.28 641.51,-282.46"/>
</g>
<!-- &#45;14&#45;&gt;610 -->
<g id="edge104" class="edge">
<title>&#45;14&#45;&gt;610</title>
<path fill="none" stroke="red" stroke-width="0.27" d="M617.62,-310.65C614.54,-309.67 611.3,-308.73 608.21,-308.05 472.37,-277.89 427.72,-320.29 297.21,-272.05 295.59,-271.45 293.97,-270.75 292.37,-269.97"/>
<polygon fill="red" stroke="red" stroke-width="0.27" points="293.98,-266.85 283.57,-264.89 290.48,-272.92 293.98,-266.85"/>
</g>
<!-- &#45;14&#45;&gt;612 -->
<g id="edge105" class="edge">
<title>&#45;14&#45;&gt;612</title>
<path fill="none" stroke="red" stroke-width="0.5" d="M621.19,-307.92C608.5,-298.55 587.23,-282.85 570.42,-270.44"/>
<polygon fill="red" stroke="red" stroke-width="0.5" points="572.23,-267.43 562.1,-264.31 568.07,-273.06 572.23,-267.43"/>
</g>
<!-- &#45;14&#45;&gt;614 -->
<g id="edge106" class="edge">
<title>&#45;14&#45;&gt;614</title>
<path fill="none" stroke="green" stroke-width="0.41" d="M617.55,-310.93C614.48,-309.92 611.25,-308.91 608.21,-308.05 541,-288.98 519.22,-300.02 455.21,-272.05 453.63,-271.36 452.04,-270.58 450.46,-269.75"/>
<polygon fill="green" stroke="green" stroke-width="0.41" points="452.1,-266.65 441.72,-264.51 448.5,-272.65 452.1,-266.65"/>
</g>
<!-- &#45;14&#45;&gt;616 -->
<g id="edge107" class="edge">
<title>&#45;14&#45;&gt;616</title>
<path fill="none" stroke="green" stroke-width="0.24" d="M617.59,-310.78C614.52,-309.78 611.28,-308.81 608.21,-308.05 515.06,-284.8 488.73,-293.77 395.21,-272.05 382.59,-269.12 368.86,-265.18 357.06,-261.56"/>
<polygon fill="green" stroke="green" stroke-width="0.24" points="357.86,-258.15 347.27,-258.5 355.77,-264.83 357.86,-258.15"/>
</g>
<!-- &#45;14&#45;&gt;605 -->
<g id="edge100" class="edge">
<title>&#45;14&#45;&gt;605</title>
<path fill="none" stroke="red" stroke-width="0.42" d="M647.2,-310.47C649.85,-309.59 652.59,-308.74 655.21,-308.05 739.11,-285.73 791.76,-338.86 847.21,-272.05 864.34,-251.4 852.61,-220.42 840.28,-198.71"/>
<polygon fill="red" stroke="red" stroke-width="0.42" points="843.21,-196.78 835.05,-190.02 837.21,-200.39 843.21,-196.78"/>
</g>
<!-- &#45;14&#45;&gt;606 -->
<g id="edge101" class="edge">
<title>&#45;14&#45;&gt;606</title>
<path fill="none" stroke="red" stroke-width="0.25" d="M617.4,-310.96C590.28,-301.57 533.72,-281.6 515.21,-272.05 513.67,-271.26 512.12,-270.4 510.58,-269.51"/>
<polygon fill="red" stroke="red" stroke-width="0.25" points="512.25,-266.43 501.92,-264.09 508.54,-272.36 512.25,-266.43"/>
</g>
<!-- &#45;14&#45;&gt;607 -->
<g id="edge102" class="edge">
<title>&#45;14&#45;&gt;607</title>
<path fill="none" stroke="green" stroke-width="0.46" d="M646.77,-310.84C649.56,-309.88 652.47,-308.91 655.21,-308.05 711.16,-290.4 728.17,-294.89 782.21,-272.05 784.93,-270.9 787.71,-269.57 790.45,-268.17"/>
<polygon fill="green" stroke="green" stroke-width="0.46" points="792.4,-271.09 799.48,-263.21 789.03,-264.96 792.4,-271.09"/>
</g>
<!-- &#45;15 -->
<g id="node15" class="node">
<title>&#45;15</title>
<polygon fill="lightgray" stroke="black" points="321.71,-326.05 292.71,-326.05 292.71,-308.05 321.71,-308.05 321.71,-326.05"/>
<text text-anchor="middle" x="307.21" y="-314.85" font-family="Times New Roman,serif" font-size="9.00">&#45;15</text>
</g>
<!-- &#45;15&#45;&gt;609 -->
<g id="edge111" class="edge">
<title>&#45;15&#45;&gt;609</title>
<path fill="none" stroke="red" stroke-width="0.18" d="M322.18,-310.39C324.83,-309.51 327.58,-308.69 330.21,-308.05 437.1,-281.85 467.74,-295.79 575.21,-272.05 587.86,-269.25 601.59,-265.34 613.39,-261.71"/>
<polygon fill="red" stroke="red" stroke-width="0.18" points="614.69,-264.96 623.17,-258.61 612.58,-258.29 614.69,-264.96"/>
</g>
<!-- &#45;15&#45;&gt;610 -->
<g id="edge112" class="edge">
<title>&#45;15&#45;&gt;610</title>
<path fill="none" stroke="red" stroke-width="0.46" d="M302.14,-307.92C297.44,-300.38 290.19,-288.74 283.51,-278.01"/>
<polygon fill="red" stroke="red" stroke-width="0.46" points="286.36,-275.97 278.1,-269.33 280.42,-279.67 286.36,-275.97"/>
</g>
<!-- &#45;15&#45;&gt;612 -->
<g id="edge113" class="edge">
<title>&#45;15&#45;&gt;612</title>
<path fill="none" stroke="red" stroke-width="0.28" d="M321.71,-310.65C324.51,-309.71 327.43,-308.8 330.21,-308.05 411.08,-286.23 437.81,-304.09 515.21,-272.05 516.8,-271.39 518.4,-270.64 519.99,-269.82"/>
<polygon fill="red" stroke="red" stroke-width="0.28" points="521.92,-272.74 528.75,-264.64 518.36,-266.72 521.92,-272.74"/>
</g>
<!-- &#45;15&#45;&gt;614 -->
<g id="edge114" class="edge">
<title>&#45;15&#45;&gt;614</title>
<path fill="none" stroke="green" stroke-width="0.23" d="M322.15,-307.92C341.21,-297.55 374.5,-279.43 398.08,-266.6"/>
<polygon fill="green" stroke="green" stroke-width="0.23" points="399.79,-269.65 406.9,-261.8 396.45,-263.5 399.79,-269.65"/>
</g>
<!-- &#45;15&#45;&gt;616 -->
<g id="edge115" class="edge">
<title>&#45;15&#45;&gt;616</title>
<path fill="none" stroke="red" stroke-width="0.18" d="M309.74,-307.92C311.89,-301.03 315.09,-290.73 318.18,-280.83"/>
<polygon fill="red" stroke="red" stroke-width="0.18" points="321.54,-281.79 321.18,-271.2 314.86,-279.71 321.54,-281.79"/>
</g>
<!-- &#45;15&#45;&gt;605 -->
<g id="edge108" class="edge">
<title>&#45;15&#45;&gt;605</title>
<path fill="none" stroke="green" stroke-width="0.28" d="M292.51,-310.31C271.02,-301.58 232.76,-284.67 225.21,-272.05 215.53,-255.87 212.51,-243.57 225.21,-229.62 263.63,-187.42 673.63,-176.29 791.62,-173.95"/>
<polygon fill="green" stroke="green" stroke-width="0.28" points="791.86,-177.45 801.79,-173.76 791.73,-170.45 791.86,-177.45"/>
</g>
<!-- &#45;15&#45;&gt;606 -->
<g id="edge109" class="edge">
<title>&#45;15&#45;&gt;606</title>
<path fill="none" stroke="green" stroke-width="0.23" d="M321.77,-310.85C324.56,-309.89 327.47,-308.92 330.21,-308.05 385.31,-290.55 402.82,-296.5 455.21,-272.05 456.77,-271.32 458.35,-270.51 459.91,-269.65"/>
<polygon fill="green" stroke="green" stroke-width="0.23" points="461.9,-272.54 468.62,-264.35 458.26,-266.56 461.9,-272.54"/>
</g>
<!-- &#45;15&#45;&gt;607 -->
<g id="edge110" class="edge">
<title>&#45;15&#45;&gt;607</title>
<path fill="none" stroke="green" stroke-width="0.1" d="M322.16,-310.29C324.81,-309.43 327.57,-308.64 330.21,-308.05 479.81,-274.65 521.07,-290.71 673.21,-272.05 712.26,-267.26 757.14,-260.81 786.27,-256.5"/>
<polygon fill="green" stroke="green" stroke-width="0.1" points="786.88,-259.94 796.25,-255.01 785.85,-253.02 786.88,-259.94"/>
</g>
<!-- &#45;16 -->
<g id="node16" class="node">
<title>&#45;16</title>
<polygon fill="lightgray" stroke="black" points="505.71,-326.05 476.71,-326.05 476.71,-308.05 505.71,-308.05 505.71,-326.05"/>
<text text-anchor="middle" x="491.21" y="-314.85" font-family="Times New Roman,serif" font-size="9.00">&#45;16</text>
</g>
<!-- &#45;16&#45;&gt;609 -->
<g id="edge119" class="edge">
<title>&#45;16&#45;&gt;609</title>
<path fill="none" stroke="red" stroke-width="0.13" d="M505.96,-310.84C532.98,-301.25 589.37,-280.95 608.21,-272.05 610.97,-270.74 613.81,-269.29 616.62,-267.79"/>
<polygon fill="red" stroke="red" stroke-width="0.13" points="618.33,-270.84 625.35,-262.91 614.91,-264.73 618.33,-270.84"/>
</g>
<!-- &#45;16&#45;&gt;610 -->
<g id="edge120" class="edge">
<title>&#45;16&#45;&gt;610</title>
<path fill="none" stroke="red" stroke-width="0.13" d="M476.57,-310.88C473.49,-309.87 470.26,-308.88 467.21,-308.05 392.68,-287.81 368.32,-302.18 297.21,-272.05 295.62,-271.37 294.02,-270.61 292.44,-269.79"/>
<polygon fill="red" stroke="red" stroke-width="0.13" points="294.07,-266.69 283.69,-264.58 290.49,-272.7 294.07,-266.69"/>
</g>
<!-- &#45;16&#45;&gt;612 -->
<g id="edge121" class="edge">
<title>&#45;16&#45;&gt;612</title>
<path fill="none" stroke="red" stroke-width="0.38" d="M498.05,-307.92C504.9,-299.77 515.77,-286.84 525.35,-275.44"/>
<polygon fill="red" stroke="red" stroke-width="0.38" points="528.27,-277.42 532.03,-267.51 522.91,-272.91 528.27,-277.42"/>
</g>
<!-- &#45;16&#45;&gt;614 -->
<g id="edge122" class="edge">
<title>&#45;16&#45;&gt;614</title>
<path fill="none" stroke="green" stroke-width="0.19" d="M482.85,-307.92C473.94,-299.25 459.48,-285.18 447.27,-273.3"/>
<polygon fill="green" stroke="green" stroke-width="0.19" points="449.63,-270.71 440.02,-266.25 444.75,-275.73 449.63,-270.71"/>
</g>
<!-- &#45;16&#45;&gt;616 -->
<g id="edge123" class="edge">
<title>&#45;16&#45;&gt;616</title>
<path fill="none" stroke="red" stroke-width="0.12" d="M476.65,-310.35C449.76,-299.82 391.79,-277.12 356.48,-263.3"/>
<polygon fill="red" stroke="red" stroke-width="0.12" points="357.32,-259.87 346.73,-259.48 354.77,-266.39 357.32,-259.87"/>
</g>
<!-- &#45;16&#45;&gt;605 -->
<g id="edge116" class="edge">
<title>&#45;16&#45;&gt;605</title>
<path fill="none" stroke="red" stroke-width="0.22" d="M505.73,-310.72C508.53,-309.77 511.44,-308.84 514.21,-308.05 583.87,-288.12 612.06,-310.92 673.21,-272.05 693.37,-259.23 687.62,-244.62 706.21,-229.62 732.57,-208.36 768.3,-192.69 793.32,-183.37"/>
<polygon fill="red" stroke="red" stroke-width="0.22" points="794.78,-186.57 803,-179.88 792.4,-179.98 794.78,-186.57"/>
</g>
<!-- &#45;16&#45;&gt;606 -->
<g id="edge117" class="edge">
<title>&#45;16&#45;&gt;606</title>
<path fill="none" stroke="green" stroke-width="0.2" d="M490.45,-307.92C489.83,-301.32 488.92,-291.6 488.04,-282.09"/>
<polygon fill="green" stroke="green" stroke-width="0.2" points="491.51,-281.65 487.09,-272.02 484.54,-282.3 491.51,-281.65"/>
</g>
<!-- &#45;16&#45;&gt;607 -->
<g id="edge118" class="edge">
<title>&#45;16&#45;&gt;607</title>
<path fill="none" stroke="red" stroke-width="0.24" d="M506.2,-310.47C508.85,-309.59 511.59,-308.74 514.21,-308.05 520.83,-306.29 710.9,-271.35 786.56,-257.46"/>
<polygon fill="red" stroke="red" stroke-width="0.24" points="787.24,-260.89 796.45,-255.64 785.98,-254.01 787.24,-260.89"/>
</g>
<!-- &#45;17 -->
<g id="node17" class="node">
<title>&#45;17</title>
<polygon fill="lightgray" stroke="black" points="599.71,-326.05 570.71,-326.05 570.71,-308.05 599.71,-308.05 599.71,-326.05"/>
<text text-anchor="middle" x="585.21" y="-314.85" font-family="Times New Roman,serif" font-size="9.00">&#45;17</text>
</g>
<!-- &#45;17&#45;&gt;609 -->
<g id="edge127" class="edge">
<title>&#45;17&#45;&gt;609</title>
<path fill="none" stroke="red" stroke-width="0.31" d="M592.55,-307.92C600.03,-299.64 611.98,-286.41 622.39,-274.88"/>
<polygon fill="red" stroke="red" stroke-width="0.31" points="625.17,-277.02 629.28,-267.26 619.98,-272.33 625.17,-277.02"/>
</g>
<!-- &#45;17&#45;&gt;610 -->
<g id="edge128" class="edge">
<title>&#45;17&#45;&gt;610</title>
<path fill="none" stroke="green" stroke-width="0.18" d="M570.61,-310.7C567.53,-309.71 564.29,-308.77 561.21,-308.05 445.87,-281.21 407.86,-314.23 297.21,-272.05 295.59,-271.43 293.98,-270.72 292.39,-269.93"/>
<polygon fill="green" stroke="green" stroke-width="0.18" points="294,-266.82 283.59,-264.82 290.48,-272.87 294,-266.82"/>
</g>
<!-- &#45;17&#45;&gt;612 -->
<g id="edge129" class="edge">
<title>&#45;17&#45;&gt;612</title>
<path fill="none" stroke="red" stroke-width="0.12" d="M580.14,-307.92C575.44,-300.38 568.19,-288.74 561.51,-278.01"/>
<polygon fill="red" stroke="red" stroke-width="0.12" points="564.36,-275.97 556.1,-269.33 558.42,-279.67 564.36,-275.97"/>
</g>
<!-- &#45;17&#45;&gt;614 -->
<g id="edge130" class="edge">
<title>&#45;17&#45;&gt;614</title>
<path fill="none" stroke="green" stroke-width="0.39" d="M570.66,-311.18C537.29,-300.01 457.9,-273.38 455.21,-272.05 453.66,-271.28 452.1,-270.45 450.54,-269.57"/>
<polygon fill="green" stroke="green" stroke-width="0.39" points="452.21,-266.48 441.87,-264.2 448.53,-272.44 452.21,-266.48"/>
</g>
<!-- &#45;17&#45;&gt;616 -->
<g id="edge131" class="edge">
<title>&#45;17&#45;&gt;616</title>
<path fill="none" stroke="green" stroke-width="0.47" d="M570.56,-310.89C567.49,-309.88 564.26,-308.89 561.21,-308.05 488.4,-288.08 468.33,-290.82 395.21,-272.05 382.66,-268.83 368.94,-264.84 357.14,-261.26"/>
<polygon fill="green" stroke="green" stroke-width="0.47" points="357.92,-257.84 347.33,-258.25 355.86,-264.53 357.92,-257.84"/>
</g>
<!-- &#45;17&#45;&gt;605 -->
<g id="edge124" class="edge">
<title>&#45;17&#45;&gt;605</title>
<path fill="none" stroke="red" stroke-width="0.27" d="M599.75,-310.8C602.55,-309.85 605.46,-308.89 608.21,-308.05 668,-289.77 691.81,-306.16 744.21,-272.05 759.24,-262.26 787.3,-224.73 805.61,-198.9"/>
<polygon fill="red" stroke="red" stroke-width="0.27" points="808.53,-200.83 811.42,-190.64 802.8,-196.81 808.53,-200.83"/>
</g>
<!-- &#45;17&#45;&gt;606 -->
<g id="edge125" class="edge">
<title>&#45;17&#45;&gt;606</title>
<path fill="none" stroke="red" stroke-width="0.49" d="M571.97,-307.9C557.83,-299.16 534.82,-284.81 515.21,-272.05 513.76,-271.11 512.28,-270.13 510.78,-269.15"/>
<polygon fill="red" stroke="red" stroke-width="0.49" points="512.54,-266.11 502.28,-263.47 508.66,-271.93 512.54,-266.11"/>
</g>
<!-- &#45;17&#45;&gt;607 -->
<g id="edge126" class="edge">
<title>&#45;17&#45;&gt;607</title>
<path fill="none" stroke="green" stroke-width="0.19" d="M599.72,-310.68C602.52,-309.74 605.44,-308.81 608.21,-308.05 684.33,-287.03 708.41,-300.15 782.21,-272.05 785.13,-270.94 788.1,-269.6 791,-268.15"/>
<polygon fill="green" stroke="green" stroke-width="0.19" points="792.85,-271.13 799.95,-263.26 789.49,-264.98 792.85,-271.13"/>
</g>
<!-- &#45;18 -->
<g id="node18" class="node">
<title>&#45;18</title>
<polygon fill="lightgray" stroke="black" points="227.71,-326.05 198.71,-326.05 198.71,-308.05 227.71,-308.05 227.71,-326.05"/>
<text text-anchor="middle" x="213.21" y="-314.85" font-family="Times New Roman,serif" font-size="9.00">&#45;18</text>
</g>
<!-- &#45;18&#45;&gt;4 -->
<g id="edge197" class="edge">
<title>&#45;18&#45;&gt;4</title>
<path fill="none" stroke="green" stroke-width="0.23" d="M198.36,-310.99C166,-299.92 91.84,-274.37 90.21,-272.05 79.35,-256.63 78.62,-244.5 90.21,-229.62 114.55,-198.38 235.09,-181.8 288.11,-175.92"/>
<polygon fill="green" stroke="green" stroke-width="0.23" points="288.77,-179.37 298.34,-174.83 288.02,-172.41 288.77,-179.37"/>
</g>
<!-- &#45;18&#45;&gt;609 -->
<g id="edge135" class="edge">
<title>&#45;18&#45;&gt;609</title>
<path fill="none" stroke="red" stroke-width="0.14" d="M228.16,-310.3C230.81,-309.44 233.57,-308.64 236.21,-308.05 384.06,-274.94 426.64,-301.76 575.21,-272.05 588,-269.49 601.86,-265.59 613.7,-261.89"/>
<polygon fill="red" stroke="red" stroke-width="0.14" points="615.07,-265.13 623.51,-258.73 612.92,-258.46 615.07,-265.13"/>
</g>
<!-- &#45;18&#45;&gt;610 -->
<g id="edge136" class="edge">
<title>&#45;18&#45;&gt;610</title>
<path fill="none" stroke="green" stroke-width="0.21" d="M220.05,-307.92C226.9,-299.77 237.77,-286.84 247.35,-275.44"/>
<polygon fill="green" stroke="green" stroke-width="0.21" points="250.27,-277.42 254.03,-267.51 244.91,-272.91 250.27,-277.42"/>
</g>
<!-- &#45;18&#45;&gt;612 -->
<g id="edge137" class="edge">
<title>&#45;18&#45;&gt;612</title>
<path fill="none" stroke="red" stroke-width="0.47" d="M228.17,-310.35C230.82,-309.48 233.57,-308.67 236.21,-308.05 357.9,-279.36 398.22,-316.16 515.21,-272.05 516.82,-271.44 518.44,-270.73 520.03,-269.94"/>
<polygon fill="red" stroke="red" stroke-width="0.47" points="521.93,-272.89 528.83,-264.85 518.42,-266.83 521.93,-272.89"/>
</g>
<!-- &#45;18&#45;&gt;614 -->
<g id="edge138" class="edge">
<title>&#45;18&#45;&gt;614</title>
<path fill="none" stroke="red" stroke-width="0.45" d="M227.77,-310.87C230.57,-309.91 233.47,-308.93 236.21,-308.05 238.15,-307.42 342.16,-276.51 395.04,-260.8"/>
<polygon fill="red" stroke="red" stroke-width="0.45" points="396.29,-264.08 404.88,-257.87 394.3,-257.37 396.29,-264.08"/>
</g>
<!-- &#45;18&#45;&gt;616 -->
<g id="edge139" class="edge">
<title>&#45;18&#45;&gt;616</title>
<path fill="none" stroke="green" stroke-width="0.35" d="M227.74,-309.05C244.7,-300.74 273.45,-286.21 297.21,-272.05 298.69,-271.16 300.2,-270.24 301.72,-269.28"/>
<polygon fill="green" stroke="green" stroke-width="0.35" points="303.81,-272.1 310.28,-263.71 299.99,-266.23 303.81,-272.1"/>
</g>
<!-- &#45;18&#45;&gt;605 -->
<g id="edge132" class="edge">
<title>&#45;18&#45;&gt;605</title>
<path fill="none" stroke="red" stroke-width="0.29" d="M208.52,-307.9C199.46,-290.94 182.11,-251.62 202.21,-229.62 242.34,-185.69 671.6,-175.76 791.98,-173.83"/>
<polygon fill="red" stroke="red" stroke-width="0.29" points="792.07,-177.33 802.02,-173.67 791.96,-170.33 792.07,-177.33"/>
</g>
<!-- &#45;18&#45;&gt;606 -->
<g id="edge133" class="edge">
<title>&#45;18&#45;&gt;606</title>
<path fill="none" stroke="green" stroke-width="0.62" d="M228.19,-310.42C230.84,-309.55 233.59,-308.72 236.21,-308.05 331.81,-283.76 363.53,-308.45 455.21,-272.05 456.81,-271.41 458.42,-270.68 460.01,-269.88"/>
<polygon fill="green" stroke="green" stroke-width="0.62" points="461.93,-272.81 468.79,-264.73 458.39,-266.77 461.93,-272.81"/>
</g>
<!-- &#45;18&#45;&gt;607 -->
<g id="edge134" class="edge">
<title>&#45;18&#45;&gt;607</title>
<path fill="none" stroke="green" stroke-width="0.4" d="M228.15,-310.24C230.8,-309.39 233.56,-308.61 236.21,-308.05 426.87,-267.72 479.52,-293.6 673.21,-272.05 712.31,-267.7 757.18,-261.15 786.29,-256.7"/>
<polygon fill="green" stroke="green" stroke-width="0.4" points="786.92,-260.14 796.27,-255.16 785.85,-253.22 786.92,-260.14"/>
</g>
<!-- &#45;19 -->
<g id="node19" class="node">
<title>&#45;19</title>
<polygon fill="lightgray" stroke="black" points="693.71,-326.05 664.71,-326.05 664.71,-308.05 693.71,-308.05 693.71,-326.05"/>
<text text-anchor="middle" x="679.21" y="-314.85" font-family="Times New Roman,serif" font-size="9.00">&#45;19</text>
</g>
<!-- &#45;19&#45;&gt;609 -->
<g id="edge143" class="edge">
<title>&#45;19&#45;&gt;609</title>
<path fill="none" stroke="green" stroke-width="0.28" d="M674.65,-307.92C670.49,-300.5 664.12,-289.13 658.19,-278.56"/>
<polygon fill="green" stroke="green" stroke-width="0.28" points="661.11,-276.6 653.16,-269.59 655,-280.03 661.11,-276.6"/>
</g>
<!-- &#45;19&#45;&gt;610 -->
<g id="edge144" class="edge">
<title>&#45;19&#45;&gt;610</title>
<path fill="none" stroke="green" stroke-width="0.52" d="M664.63,-310.62C661.55,-309.63 658.3,-308.71 655.21,-308.05 498.84,-274.56 447.61,-326.37 297.21,-272.05 295.58,-271.46 293.96,-270.77 292.36,-270"/>
<polygon fill="green" stroke="green" stroke-width="0.52" points="293.96,-266.88 283.55,-264.94 290.48,-272.95 293.96,-266.88"/>
</g>
<!-- &#45;19&#45;&gt;612 -->
<g id="edge145" class="edge">
<title>&#45;19&#45;&gt;612</title>
<path fill="none" stroke="red" stroke-width="0.2" d="M664.61,-309.05C642.77,-298.59 601.17,-278.65 573.3,-265.3"/>
<polygon fill="red" stroke="red" stroke-width="0.2" points="574.6,-262.04 564.07,-260.88 571.58,-268.35 574.6,-262.04"/>
</g>
<!-- &#45;19&#45;&gt;614 -->
<g id="edge146" class="edge">
<title>&#45;19&#45;&gt;614</title>
<path fill="none" stroke="red" stroke-width="0.8" d="M664.58,-310.8C661.51,-309.81 658.27,-308.83 655.21,-308.05 567.7,-285.71 538.9,-306.01 455.21,-272.05 453.61,-271.4 452.01,-270.66 450.42,-269.85"/>
<polygon fill="red" stroke="red" stroke-width="0.8" points="452.04,-266.74 441.65,-264.68 448.49,-272.77 452.04,-266.74"/>
</g>
<!-- &#45;19&#45;&gt;616 -->
<g id="edge147" class="edge">
<title>&#45;19&#45;&gt;616</title>
<path fill="none" stroke="red" stroke-width="0.21" d="M664.61,-310.71C661.53,-309.72 658.29,-308.77 655.21,-308.05 541.61,-281.49 509.22,-296.74 395.21,-272.05 382.55,-269.31 368.81,-265.41 357.02,-261.76"/>
<polygon fill="red" stroke="red" stroke-width="0.21" points="357.82,-258.34 347.23,-258.66 355.71,-265.02 357.82,-258.34"/>
</g>
<!-- &#45;19&#45;&gt;605 -->
<g id="edge140" class="edge">
<title>&#45;19&#45;&gt;605</title>
<path fill="none" stroke="red" stroke-width="0.48" stroke-dasharray="1,5" d="M693.85,-310.86C696.92,-309.86 700.15,-308.87 703.21,-308.05 780.76,-287.32 829.41,-334.21 880.21,-272.05 892.14,-257.45 887.48,-247.02 880.21,-229.62 873.72,-214.1 860.62,-200.69 848.61,-190.86"/>
<polygon fill="red" stroke="red" stroke-width="0.48" points="850.62,-187.99 840.57,-184.65 846.34,-193.53 850.62,-187.99"/>
</g>
<!-- &#45;19&#45;&gt;606 -->
<g id="edge141" class="edge">
<title>&#45;19&#45;&gt;606</title>
<path fill="none" stroke="red" stroke-width="0.42" d="M664.54,-310.98C661.47,-309.97 658.24,-308.94 655.21,-308.05 593.58,-289.88 573.81,-298.38 515.21,-272.05 513.63,-271.34 512.05,-270.55 510.48,-269.71"/>
<polygon fill="red" stroke="red" stroke-width="0.42" points="512.12,-266.61 501.75,-264.44 508.51,-272.6 512.12,-266.61"/>
</g>
<!-- &#45;19&#45;&gt;607 -->
<g id="edge142" class="edge">
<title>&#45;19&#45;&gt;607</title>
<path fill="none" stroke="red" stroke-width="0.11" d="M693.79,-310.46C713.97,-302.58 751.42,-287.44 782.21,-272.05 784.94,-270.68 787.76,-269.19 790.56,-267.66"/>
<polygon fill="red" stroke="red" stroke-width="0.11" points="792.28,-270.71 799.27,-262.75 788.84,-264.61 792.28,-270.71"/>
</g>
<!-- &#45;20 -->
<g id="node20" class="node">
<title>&#45;20</title>
<polygon fill="lightgray" stroke="black" points="274.71,-326.05 245.71,-326.05 245.71,-308.05 274.71,-308.05 274.71,-326.05"/>
<text text-anchor="middle" x="260.21" y="-314.85" font-family="Times New Roman,serif" font-size="9.00">&#45;20</text>
</g>
<!-- &#45;20&#45;&gt;610 -->
<g id="edge151" class="edge">
<title>&#45;20&#45;&gt;610</title>
<path fill="none" stroke="red" stroke-width="0.88" d="M261.09,-307.92C261.81,-301.32 262.87,-291.6 263.91,-282.09"/>
<polygon fill="red" stroke="red" stroke-width="0.88" points="267.4,-282.34 265.01,-272.02 260.44,-281.58 267.4,-282.34"/>
</g>
<!-- &#45;20&#45;&gt;612 -->
<g id="edge152" class="edge">
<title>&#45;20&#45;&gt;612</title>
<path fill="none" stroke="red" stroke-width="0.43" d="M275.18,-310.4C277.83,-309.53 280.58,-308.7 283.21,-308.05 384.45,-282.81 418.05,-310.11 515.21,-272.05 516.82,-271.42 518.42,-270.69 520.02,-269.89"/>
<polygon fill="red" stroke="red" stroke-width="0.43" points="521.93,-272.83 528.8,-264.76 518.4,-266.78 521.93,-272.83"/>
</g>
<!-- &#45;20&#45;&gt;614 -->
<g id="edge153" class="edge">
<title>&#45;20&#45;&gt;614</title>
<path fill="none" stroke="green" stroke-width="0.31" d="M274.85,-310.35C302.03,-299.77 360.73,-276.93 396.22,-263.12"/>
<polygon fill="green" stroke="green" stroke-width="0.31" points="397.51,-266.37 405.56,-259.48 394.97,-259.85 397.51,-266.37"/>
</g>
<!-- &#45;20&#45;&gt;616 -->
<g id="edge154" class="edge">
<title>&#45;20&#45;&gt;616</title>
<path fill="none" stroke="green" stroke-width="0.31" d="M268.69,-307.92C277.73,-299.25 292.42,-285.18 304.82,-273.3"/>
<polygon fill="green" stroke="green" stroke-width="0.31" points="307.37,-275.7 312.17,-266.25 302.53,-270.64 307.37,-275.7"/>
</g>
<!-- &#45;20&#45;&gt;605 -->
<g id="edge148" class="edge">
<title>&#45;20&#45;&gt;605</title>
<path fill="none" stroke="red" stroke-width="0.15" d="M246.59,-307.88C235.27,-300.23 219.97,-287.64 213.21,-272.05 205.71,-254.75 200.5,-243.55 213.21,-229.62 252.47,-186.57 671.57,-176.03 791.38,-173.89"/>
<polygon fill="red" stroke="red" stroke-width="0.15" points="791.77,-177.39 801.71,-173.72 791.65,-170.39 791.77,-177.39"/>
</g>
<!-- &#45;20&#45;&gt;606 -->
<g id="edge149" class="edge">
<title>&#45;20&#45;&gt;606</title>
<path fill="none" stroke="green" stroke-width="0.59" d="M274.72,-310.69C277.52,-309.74 280.44,-308.82 283.21,-308.05 358.47,-287.18 383.26,-302.44 455.21,-272.05 456.8,-271.38 458.39,-270.62 459.97,-269.79"/>
<polygon fill="green" stroke="green" stroke-width="0.59" points="461.92,-272.71 468.73,-264.59 458.34,-266.69 461.92,-272.71"/>
</g>
<!-- &#45;20&#45;&gt;607 -->
<g id="edge150" class="edge">
<title>&#45;20&#45;&gt;607</title>
<path fill="none" stroke="red" stroke-width="0.38" d="M275.15,-310.27C277.8,-309.41 280.56,-308.62 283.21,-308.05 453.33,-271.18 500.3,-292.15 673.21,-272.05 712.29,-267.5 757.16,-261 786.28,-256.61"/>
<polygon fill="red" stroke="red" stroke-width="0.38" points="786.9,-260.06 796.26,-255.09 785.85,-253.13 786.9,-260.06"/>
</g>
<!-- 2 -->
<g id="node23" class="node">
<title>2</title>
<ellipse fill="lightblue" stroke="black" cx="524.21" cy="-90.45" rx="14.7" ry="14.7"/>
<text text-anchor="middle" x="524.21" y="-88.25" font-family="Times New Roman,serif" font-size="9.00">2</text>
</g>
<!-- 3 -->
<g id="node24" class="node">
<title>3</title>
<ellipse fill="lightblue" stroke="black" cx="622.21" cy="-14.85" rx="14.7" ry="14.7"/>
<text text-anchor="middle" x="622.21" y="-12.65" font-family="Times New Roman,serif" font-size="9.00">3</text>
</g>
<!-- 609&#45;&gt;0 -->
<g id="edge169" class="edge">
<title>609&#45;&gt;0</title>
<path fill="none" stroke="red" stroke-width="0.12" d="M625.66,-238.44C581.71,-209.92 467.08,-135.5 419.93,-104.9"/>
<polygon fill="red" stroke="red" stroke-width="0.12" points="421.73,-101.89 411.44,-99.38 417.92,-107.77 421.73,-101.89"/>
</g>
<!-- 609&#45;&gt;1 -->
<g id="edge170" class="edge">
<title>609&#45;&gt;1</title>
<path fill="none" stroke="red" stroke-width="0.32" d="M661.26,-239.14C666.67,-236 672.65,-232.62 678.21,-229.62 709.71,-212.67 731.4,-224.06 750.21,-193.62 768.29,-164.37 738.28,-128.06 716.85,-107.54"/>
<polygon fill="red" stroke="red" stroke-width="0.32" points="719.18,-104.93 709.45,-100.74 714.45,-110.09 719.18,-104.93"/>
</g>
<!-- 609&#45;&gt;2 -->
<g id="edge171" class="edge">
<title>609&#45;&gt;2</title>
<path fill="none" stroke="red" stroke-width="0.11" d="M630.92,-233.48C608.88,-204.15 562.73,-142.72 539,-111.13"/>
<polygon fill="red" stroke="red" stroke-width="0.11" points="541.74,-108.96 532.94,-103.06 536.14,-113.16 541.74,-108.96"/>
</g>
<!-- 609&#45;&gt;3 -->
<g id="edge172" class="edge">
<title>609&#45;&gt;3</title>
<path fill="none" stroke="green" stroke-width="0.52" stroke-dasharray="1,5" d="M664.2,-247.42C712.67,-241.38 830,-223.86 853.21,-193.62 864.69,-178.66 854.31,-170.02 853.21,-151.2 850.98,-113 868.8,-94.14 843.21,-65.7 817.17,-36.76 699.3,-22.77 647.15,-17.91"/>
<polygon fill="green" stroke="green" stroke-width="0.52" points="647.35,-14.42 637.08,-17.01 646.73,-21.39 647.35,-14.42"/>
</g>
<!-- 609&#45;&gt;4 -->
<g id="edge173" class="edge">
<title>609&#45;&gt;4</title>
<path fill="none" stroke="red" stroke-width="0.5" d="M623.09,-243.41C609.61,-239.21 591.44,-233.77 575.21,-229.62 488.62,-207.5 384.45,-186.93 337.85,-178.03"/>
<polygon fill="red" stroke="red" stroke-width="0.5" points="338.26,-174.55 327.79,-176.12 336.96,-181.43 338.26,-174.55"/>
</g>
<!-- 609&#45;&gt;605 -->
<g id="edge200" class="edge">
<title>609&#45;&gt;605</title>
<path fill="none" stroke="red" stroke-width="0.33" d="M661,-238.61C666.4,-235.46 672.44,-232.2 678.21,-229.62 725.18,-208.65 741.24,-214.6 788.21,-193.62 790.91,-192.42 793.67,-191.06 796.4,-189.63"/>
<polygon fill="red" stroke="red" stroke-width="0.33" points="798.37,-192.54 805.42,-184.64 794.97,-186.42 798.37,-192.54"/>
</g>
<!-- 610&#45;&gt;0 -->
<g id="edge174" class="edge">
<title>610&#45;&gt;0</title>
<path fill="none" stroke="red" stroke-width="0.31" d="M245.96,-248.71C176.74,-244.3 -34.37,-224.66 28.21,-151.2 73.07,-98.54 298.2,-92.12 374.15,-91.47"/>
<polygon fill="red" stroke="red" stroke-width="0.31" points="374.25,-94.97 384.23,-91.41 374.21,-87.97 374.25,-94.97"/>
</g>
<!-- 610&#45;&gt;1 -->
<g id="edge175" class="edge">
<title>610&#45;&gt;1</title>
<path fill="none" stroke="red" stroke-width="0.35" d="M262.97,-229.82C259.53,-207.47 258.08,-171.76 278.21,-151.2 320.55,-107.94 488.31,-123.93 548.21,-115.2 592.59,-108.72 644.22,-100.37 673.87,-95.49"/>
<polygon fill="red" stroke="red" stroke-width="0.35" points="674.45,-98.94 683.75,-93.86 673.31,-92.03 674.45,-98.94"/>
</g>
<!-- 610&#45;&gt;2 -->
<g id="edge176" class="edge">
<title>610&#45;&gt;2</title>
<path fill="none" stroke="red" stroke-width="0.23" d="M245.87,-247.26C216.66,-242.47 165.21,-229.19 142.21,-193.62 131.97,-177.79 129.75,-165.35 142.21,-151.2 183.8,-103.94 361.26,-126.42 423.21,-115.2 449.77,-110.38 479.85,-103.07 500.22,-97.83"/>
<polygon fill="red" stroke="red" stroke-width="0.23" points="501.13,-101.21 509.92,-95.3 499.36,-94.43 501.13,-101.21"/>
</g>
<!-- 610&#45;&gt;3 -->
<g id="edge177" class="edge">
<title>610&#45;&gt;3</title>
<path fill="none" stroke="green" stroke-width="0.51" d="M247.43,-242.67C227.62,-234.3 198.24,-218.36 185.21,-193.62 170.75,-166.19 193.89,-71.67 200.21,-65.7 229.22,-38.27 511.01,-21.58 597.25,-17.08"/>
<polygon fill="green" stroke="green" stroke-width="0.51" points="597.62,-20.57 607.43,-16.56 597.26,-13.58 597.62,-20.57"/>
</g>
<!-- 610&#45;&gt;4 -->
<g id="edge178" class="edge">
<title>610&#45;&gt;4</title>
<path fill="none" stroke="green" stroke-width="0.18" stroke-dasharray="1,5" d="M277.88,-232.11C284.66,-220.84 293.48,-206.19 300.61,-194.34"/>
<polygon fill="green" stroke="green" stroke-width="0.18" points="303.74,-195.93 305.89,-185.56 297.74,-192.32 303.74,-195.93"/>
</g>
<!-- 612&#45;&gt;0 -->
<g id="edge179" class="edge">
<title>612&#45;&gt;0</title>
<path fill="none" stroke="green" stroke-width="0.36" d="M531.21,-234.65C504.22,-205.36 445.08,-141.21 416.01,-109.67"/>
<polygon fill="green" stroke="green" stroke-width="0.36" points="418.33,-107.03 408.98,-102.05 413.19,-111.78 418.33,-107.03"/>
</g>
<!-- 612&#45;&gt;1 -->
<g id="edge180" class="edge">
<title>612&#45;&gt;1</title>
<path fill="none" stroke="red" stroke-width="0.42" stroke-dasharray="1,5" d="M563.08,-238.79C568.49,-235.64 574.51,-232.34 580.21,-229.62 620.59,-210.38 644.78,-227.32 674.21,-193.62 693.06,-172.04 697.81,-138.41 698.66,-115.69"/>
<polygon fill="red" stroke="red" stroke-width="0.42" points="702.17,-115.56 698.82,-105.51 695.17,-115.45 702.17,-115.56"/>
</g>
<!-- 612&#45;&gt;2 -->
<g id="edge181" class="edge">
<title>612&#45;&gt;2</title>
<path fill="none" stroke="green" stroke-width="0.44" d="M542.55,-229.78C538.68,-200.59 531.51,-146.5 527.37,-115.3"/>
<polygon fill="green" stroke="green" stroke-width="0.44" points="530.83,-114.76 526.05,-105.3 523.89,-115.68 530.83,-114.76"/>
</g>
<!-- 612&#45;&gt;3 -->
<g id="edge182" class="edge">
<title>612&#45;&gt;3</title>
<path fill="none" stroke="green" stroke-width="0.36" d="M551.64,-230.29C565.79,-187.29 599.56,-84.67 614.67,-38.75"/>
<polygon fill="green" stroke="green" stroke-width="0.36" points="618.05,-39.69 617.85,-29.1 611.4,-37.51 618.05,-39.69"/>
</g>
<!-- 612&#45;&gt;4 -->
<g id="edge183" class="edge">
<title>612&#45;&gt;4</title>
<path fill="none" stroke="red" stroke-width="0.71" d="M528.64,-237.29C524.41,-234.49 519.77,-231.73 515.21,-229.62 454.33,-201.54 376.49,-184.77 337.61,-177.57"/>
<polygon fill="red" stroke="red" stroke-width="0.71" points="338.18,-174.12 327.72,-175.79 336.94,-181.01 338.18,-174.12"/>
</g>
<!-- 614&#45;&gt;0 -->
<g id="edge184" class="edge">
<title>614&#45;&gt;0</title>
<path fill="none" stroke="green" stroke-width="0.13" d="M405.03,-243.63C391.53,-239.53 373.35,-234.11 357.21,-229.62 295.72,-212.53 257.27,-244.09 218.21,-193.62 206.67,-178.71 207.16,-166.48 218.21,-151.2 254.26,-101.33 333.44,-92.38 374.07,-91.22"/>
<polygon fill="green" stroke="green" stroke-width="0.13" points="374.26,-94.72 384.21,-91.07 374.16,-87.72 374.26,-94.72"/>
</g>
<!-- 614&#45;&gt;1 -->
<g id="edge185" class="edge">
<title>614&#45;&gt;1</title>
<path fill="none" stroke="green" stroke-width="0.18" d="M441.47,-236.53C466.55,-216.41 516.66,-177.76 563.21,-151.2 600.71,-129.79 647.32,-110.68 674.81,-100.12"/>
<polygon fill="green" stroke="green" stroke-width="0.18" points="676.24,-103.32 684.35,-96.5 673.76,-96.77 676.24,-103.32"/>
</g>
<!-- 614&#45;&gt;2 -->
<g id="edge186" class="edge">
<title>614&#45;&gt;2</title>
<path fill="none" stroke="red" stroke-width="0.37" d="M404.9,-244.42C370.36,-234.77 302.63,-213.69 289.21,-193.62 278.73,-177.95 277.63,-166.08 289.21,-151.2 292.51,-146.95 440.19,-111.43 499.72,-97.26"/>
<polygon fill="red" stroke="red" stroke-width="0.37" points="500.83,-100.59 509.75,-94.87 499.21,-93.78 500.83,-100.59"/>
</g>
<!-- 614&#45;&gt;3 -->
<g id="edge187" class="edge">
<title>614&#45;&gt;3</title>
<path fill="none" stroke="red" stroke-width="0.35" d="M405.06,-243.53C391.57,-239.39 373.39,-233.95 357.21,-229.62 290.56,-211.79 248.96,-247.77 206.21,-193.62 194.52,-178.82 196.78,-167.53 206.21,-151.2 244.18,-85.4 282.95,-92.02 354.21,-65.7 439.87,-34.05 548.67,-21.79 597.05,-17.67"/>
<polygon fill="red" stroke="red" stroke-width="0.35" points="597.53,-21.14 607.21,-16.85 596.97,-14.17 597.53,-21.14"/>
</g>
<!-- 614&#45;&gt;4 -->
<g id="edge188" class="edge">
<title>614&#45;&gt;4</title>
<path fill="none" stroke="red" stroke-width="0.21" d="M407.99,-238.28C391.18,-226.96 364.87,-209.19 342.21,-193.62 339.38,-191.68 336.39,-189.61 333.47,-187.58"/>
<polygon fill="red" stroke="red" stroke-width="0.21" points="335.24,-184.55 325.04,-181.71 331.24,-190.29 335.24,-184.55"/>
</g>
<!-- 616&#45;&gt;0 -->
<g id="edge189" class="edge">
<title>616&#45;&gt;0</title>
<path fill="none" stroke="green" stroke-width="0.17" d="M310.47,-237.63C306.25,-234.82 301.65,-231.96 297.21,-229.62 258.73,-209.35 230.66,-229.59 206.21,-193.62 195.61,-178.03 195.02,-166.37 206.21,-151.2 245.46,-97.95 331.62,-90.73 374.27,-90.62"/>
<polygon fill="green" stroke="green" stroke-width="0.17" points="374.32,-94.12 384.36,-90.73 374.4,-87.12 374.32,-94.12"/>
</g>
<!-- 616&#45;&gt;1 -->
<g id="edge190" class="edge">
<title>616&#45;&gt;1</title>
<path fill="none" stroke="green" stroke-width="0.3" d="M312.8,-234.81C294.51,-213.9 267.76,-175.83 289.21,-151.2 327.36,-107.37 490.73,-123.74 548.21,-115.2 592.57,-108.6 644.21,-100.28 673.86,-95.45"/>
<polygon fill="green" stroke="green" stroke-width="0.3" points="674.44,-98.9 683.74,-93.83 673.31,-91.99 674.44,-98.9"/>
</g>
<!-- 616&#45;&gt;2 -->
<g id="edge191" class="edge">
<title>616&#45;&gt;2</title>
<path fill="none" stroke="green" stroke-width="1.06" d="M311.31,-236.43C289.61,-216.51 255.72,-178.5 277.21,-151.2 278.09,-150.08 437.68,-112.03 499.83,-97.24"/>
<polygon fill="green" stroke="green" stroke-width="1.06" points="501,-100.56 509.92,-94.84 499.38,-93.75 501,-100.56"/>
</g>
<!-- 616&#45;&gt;3 -->
<g id="edge192" class="edge">
<title>616&#45;&gt;3</title>
<path fill="none" stroke="green" stroke-width="0.44" d="M310.53,-237.51C306.31,-234.7 301.7,-231.88 297.21,-229.62 254.26,-208.02 222.97,-232.87 195.21,-193.62 169.01,-156.59 229.24,-67.19 231.21,-65.7 288.99,-21.81 519.36,-16.43 596.72,-15.87"/>
<polygon fill="green" stroke="green" stroke-width="0.44" points="597.01,-19.37 606.99,-15.82 596.97,-12.37 597.01,-19.37"/>
</g>
<!-- 616&#45;&gt;4 -->
<g id="edge193" class="edge">
<title>616&#45;&gt;4</title>
<path fill="none" stroke="green" stroke-width="0.27" d="M323.53,-229.76C321.7,-219.78 319.48,-207.65 317.57,-197.21"/>
<polygon fill="green" stroke="green" stroke-width="0.27" points="320.96,-196.3 315.72,-187.09 314.07,-197.56 320.96,-196.3"/>
</g>
<!-- 1425 -->
<g id="node31" class="node">
<title>1425</title>
<ellipse fill="white" stroke="black" cx="809.21" cy="-90.45" rx="25" ry="25"/>
<text text-anchor="middle" x="809.21" y="-88.25" font-family="Times New Roman,serif" font-size="9.00">1425</text>
</g>
<!-- 1425&#45;&gt;3 -->
<g id="edge199" class="edge">
<title>1425&#45;&gt;3</title>
<path fill="none" stroke="red" stroke-width="0.58" d="M787.97,-77.71C780.28,-73.67 771.46,-69.27 763.21,-65.7 723.06,-48.33 674.69,-32.23 646.3,-23.26"/>
<polygon fill="red" stroke="red" stroke-width="0.58" points="647.05,-19.82 636.46,-20.18 644.96,-26.5 647.05,-19.82"/>
</g>
<!-- 605&#45;&gt;0 -->
<g id="edge155" class="edge">
<title>605&#45;&gt;0</title>
<path fill="none" stroke="red" stroke-width="0.21" stroke-dasharray="1,5" d="M802.34,-168.21C750.86,-160.23 613.69,-138.39 500.21,-115.2 473.76,-109.79 443.66,-102.57 423.25,-97.52"/>
<polygon fill="red" stroke="red" stroke-width="0.21" points="424.08,-94.12 413.53,-95.1 422.39,-100.91 424.08,-94.12"/>
</g>
<!-- 605&#45;&gt;1 -->
<g id="edge156" class="edge">
<title>605&#45;&gt;1</title>
<path fill="none" stroke="red" stroke-width="1.07" d="M805.67,-160.22C787.9,-148.89 759.64,-130.84 735.21,-115.2 730.07,-111.9 724.52,-108.35 719.33,-105.02"/>
<polygon fill="red" stroke="red" stroke-width="1.07" points="720.84,-101.83 710.54,-99.37 717.06,-107.72 720.84,-101.83"/>
</g>
<!-- 605&#45;&gt;2 -->
<g id="edge157" class="edge">
<title>605&#45;&gt;2</title>
<path fill="none" stroke="red" stroke-width="0.44" d="M802.77,-165.68C788.15,-161.6 767.98,-156.01 750.21,-151.2 676.69,-131.3 589.51,-108.47 548.21,-97.69"/>
<polygon fill="red" stroke="red" stroke-width="0.44" points="549.06,-94.3 538.5,-95.16 547.3,-101.07 549.06,-94.3"/>
</g>
<!-- 605&#45;&gt;3 -->
<g id="edge158" class="edge">
<title>605&#45;&gt;3</title>
<path fill="none" stroke="red" stroke-width="0.61" d="M809.68,-155.99C786.88,-130.23 741.41,-79.86 722.21,-65.7 698.06,-47.89 666.58,-33.4 645.45,-24.72"/>
<polygon fill="red" stroke="red" stroke-width="0.61" points="646.57,-21.4 635.98,-20.94 643.97,-27.9 646.57,-21.4"/>
</g>
<!-- 605&#45;&gt;1425 -->
<g id="edge198" class="edge">
<title>605&#45;&gt;1425</title>
<path fill="none" stroke="green" stroke-width="0.32" d="M819.68,-151.23C818.29,-143.32 816.66,-134.02 815.11,-125.14"/>
<polygon fill="green" stroke="green" stroke-width="0.32" points="818.51,-124.27 813.34,-115.03 811.61,-125.48 818.51,-124.27"/>
</g>
<!-- 606&#45;&gt;0 -->
<g id="edge159" class="edge">
<title>606&#45;&gt;0</title>
<path fill="none" stroke="red" stroke-width="0.57" d="M468.22,-237.68C450.53,-224.67 424.52,-204.44 418.21,-193.62 404.13,-169.49 400.13,-137.17 399.17,-115.4"/>
<polygon fill="red" stroke="red" stroke-width="0.57" points="402.66,-115.26 398.91,-105.36 395.67,-115.44 402.66,-115.26"/>
</g>
<!-- 606&#45;&gt;1 -->
<g id="edge160" class="edge">
<title>606&#45;&gt;1</title>
<path fill="none" stroke="green" stroke-width="0.18" d="M501.92,-237.41C540.66,-208.6 636.46,-137.36 678.22,-106.31"/>
<polygon fill="green" stroke="green" stroke-width="0.18" points="680.55,-108.94 686.49,-100.16 676.38,-103.32 680.55,-108.94"/>
</g>
<!-- 606&#45;&gt;2 -->
<g id="edge161" class="edge">
<title>606&#45;&gt;2</title>
<path fill="none" stroke="red" stroke-width="0.45" d="M490.07,-230.1C497.27,-200.87 510.73,-146.18 518.42,-114.93"/>
<polygon fill="red" stroke="red" stroke-width="0.45" points="521.89,-115.49 520.89,-104.94 515.1,-113.81 521.89,-115.49"/>
</g>
<!-- 606&#45;&gt;3 -->
<g id="edge162" class="edge">
<title>606&#45;&gt;3</title>
<path fill="none" stroke="green" stroke-width="0.22" d="M468.1,-238.25C463.89,-235.42 459.39,-232.4 455.21,-229.62 430.87,-213.46 417.89,-216.88 400.21,-193.62 365.15,-147.5 338.52,-110.53 375.21,-65.7 403.06,-31.66 539.57,-20.34 596.84,-17.05"/>
<polygon fill="green" stroke="green" stroke-width="0.22" points="597.38,-20.52 607.18,-16.49 597.01,-13.53 597.38,-20.52"/>
</g>
<!-- 606&#45;&gt;4 -->
<g id="edge163" class="edge">
<title>606&#45;&gt;4</title>
<path fill="none" stroke="green" stroke-width="0.51" stroke-dasharray="1,5" d="M468.58,-237.41C464.36,-234.61 459.73,-231.81 455.21,-229.62 407.76,-206.66 389.47,-216.95 342.21,-193.62 338.97,-192.03 335.7,-190.1 332.56,-188.07"/>
<polygon fill="green" stroke="green" stroke-width="0.51" points="334.49,-185.15 324.29,-182.31 330.49,-190.89 334.49,-185.15"/>
</g>
<!-- 607&#45;&gt;0 -->
<g id="edge164" class="edge">
<title>607&#45;&gt;0</title>
<path fill="none" stroke="green" stroke-width="0.15" stroke-dasharray="1,5" d="M831.26,-234.65C849.06,-213.56 874.96,-175.28 853.21,-151.2 800.36,-92.68 577.97,-128.25 500.21,-115.2 473.58,-110.73 443.52,-103.35 423.16,-98"/>
<polygon fill="green" stroke="green" stroke-width="0.15" points="424.04,-94.61 413.47,-95.42 422.23,-101.38 424.04,-94.61"/>
</g>
<!-- 607&#45;&gt;1 -->
<g id="edge165" class="edge">
<title>607&#45;&gt;1</title>
<path fill="none" stroke="green" stroke-width="0.4" d="M838.18,-245.63C863.66,-239.27 905.54,-224.51 924.21,-193.62 933.96,-177.48 935.87,-166.01 924.21,-151.2 882.07,-97.66 840.9,-133.24 775.21,-115.2 757.12,-110.23 736.86,-103.95 721.67,-99.1"/>
<polygon fill="green" stroke="green" stroke-width="0.4" points="722.63,-95.73 712.04,-96 720.49,-102.39 722.63,-95.73"/>
</g>
<!-- 607&#45;&gt;2 -->
<g id="edge166" class="edge">
<title>607&#45;&gt;2</title>
<path fill="none" stroke="red" stroke-width="0.42" stroke-dasharray="1,5" d="M836.15,-240.59C852.8,-231.3 875.93,-215.25 886.21,-193.62 894.3,-176.59 898.41,-165.57 886.21,-151.2 884.82,-149.57 630.69,-108.57 549.11,-95.45"/>
<polygon fill="red" stroke="red" stroke-width="0.42" points="549.21,-91.92 538.78,-93.79 548.1,-98.83 549.21,-91.92"/>
</g>
<!-- 607&#45;&gt;3 -->
<g id="edge167" class="edge">
<title>607&#45;&gt;3</title>
<path fill="none" stroke="green" stroke-width="0.11" d="M838.21,-247.4C867.57,-242.74 919.87,-229.59 943.21,-193.62 953.47,-177.8 950.08,-168.76 943.21,-151.2 924.36,-103.02 909.26,-91.14 864.21,-65.7 792.95,-25.46 693.51,-17.51 647.46,-16.07"/>
<polygon fill="green" stroke="green" stroke-width="0.11" points="647.28,-12.57 637.2,-15.83 647.12,-19.57 647.28,-12.57"/>
</g>
<!-- 607&#45;&gt;4 -->
<g id="edge168" class="edge">
<title>607&#45;&gt;4</title>
<path fill="none" stroke="green" stroke-width="0.28" d="M796.19,-246.65C715.44,-234.4 425.25,-190.4 338.12,-177.19"/>
<polygon fill="green" stroke="green" stroke-width="0.28" points="338.49,-173.7 328.08,-175.66 337.44,-180.62 338.49,-173.7"/>
</g>
</g>
</svg>
