<?xml version="1.0" encoding="UTF-8" standalone="no"?>
<!DOCTYPE svg PUBLIC "-//W3C//DTD SVG 1.1//EN"
 "http://www.w3.org/Graphics/SVG/1.1/DTD/svg11.dtd">
<!-- Generated by graphviz version 2.49.0 (20210828.1703)
 -->
<!-- Pages: 1 -->
<svg width="886pt" height="92pt"
 viewBox="0.00 0.00 886.00 91.70" xmlns="http://www.w3.org/2000/svg" xmlns:xlink="http://www.w3.org/1999/xlink">
<g id="graph0" class="graph" transform="scale(1 1) rotate(0) translate(4 87.7)">
<polygon fill="white" stroke="transparent" points="-4,4 -4,-87.7 882,-87.7 882,4 -4,4"/>
<!-- &#45;1 -->
<g id="node1" class="node">
<title>&#45;1</title>
<polygon fill="lightgray" stroke="black" points="306.5,-83.7 282.5,-83.7 282.5,-65.7 306.5,-65.7 306.5,-83.7"/>
<text text-anchor="middle" x="294.5" y="-72.5" font-family="Times New Roman,serif" font-size="9.00">&#45;1</text>
</g>
<!-- 0 -->
<g id="node21" class="node">
<title>0</title>
<ellipse fill="lightblue" stroke="black" cx="525.5" cy="-14.85" rx="14.7" ry="14.7"/>
<text text-anchor="middle" x="525.5" y="-12.65" font-family="Times New Roman,serif" font-size="9.00">0</text>
</g>
<!-- &#45;1&#45;&gt;0 -->
<g id="edge1" class="edge">
<title>&#45;1&#45;&gt;0</title>
<path fill="none" stroke="green" stroke-width="0.29" d="M306.82,-68.6C309.64,-67.55 312.65,-66.51 315.5,-65.7 396.48,-42.62 422.62,-59.15 501.5,-29.7 502.37,-29.37 503.24,-29.02 504.11,-28.64"/>
<polygon fill="green" stroke="green" stroke-width="0.29" points="505.88,-31.67 513.18,-24 502.69,-25.44 505.88,-31.67"/>
</g>
<!-- 1 -->
<g id="node22" class="node">
<title>1</title>
<ellipse fill="lightblue" stroke="black" cx="381.5" cy="-14.85" rx="14.7" ry="14.7"/>
<text text-anchor="middle" x="381.5" y="-12.65" font-family="Times New Roman,serif" font-size="9.00">1</text>
</g>
<!-- &#45;1&#45;&gt;1 -->
<g id="edge2" class="edge">
<title>&#45;1&#45;&gt;1</title>
<path fill="none" stroke="red" stroke-width="0.34" d="M306.6,-65.65C320.62,-56.33 343.97,-40.8 360.88,-29.56"/>
<polygon fill="red" stroke="red" stroke-width="0.34" points="363.12,-32.28 369.51,-23.82 359.24,-26.45 363.12,-32.28"/>
</g>
<!-- 2 -->
<g id="node23" class="node">
<title>2</title>
<ellipse fill="lightblue" stroke="black" cx="429.5" cy="-14.85" rx="14.7" ry="14.7"/>
<text text-anchor="middle" x="429.5" y="-12.65" font-family="Times New Roman,serif" font-size="9.00">2</text>
</g>
<!-- &#45;1&#45;&gt;2 -->
<g id="edge3" class="edge">
<title>&#45;1&#45;&gt;2</title>
<path fill="none" stroke="red" stroke-width="0.29" d="M306.77,-68.95C333.67,-58.53 396.17,-34.21 405.5,-29.7 406.33,-29.3 407.18,-28.87 408.03,-28.44"/>
<polygon fill="red" stroke="red" stroke-width="0.29" points="409.89,-31.41 416.98,-23.53 406.53,-25.27 409.89,-31.41"/>
</g>
<!-- 3 -->
<g id="node24" class="node">
<title>3</title>
<ellipse fill="lightblue" stroke="black" cx="333.5" cy="-14.85" rx="14.7" ry="14.7"/>
<text text-anchor="middle" x="333.5" y="-12.65" font-family="Times New Roman,serif" font-size="9.00">3</text>
</g>
<!-- &#45;1&#45;&gt;3 -->
<g id="edge4" class="edge">
<title>&#45;1&#45;&gt;3</title>
<path fill="none" stroke="green" stroke-width="0.13" d="M299.92,-65.65C305.04,-58.07 312.92,-46.37 319.76,-36.22"/>
<polygon fill="green" stroke="green" stroke-width="0.13" points="322.73,-38.09 325.41,-27.84 316.92,-34.18 322.73,-38.09"/>
</g>
<!-- 4 -->
<g id="node25" class="node">
<title>4</title>
<ellipse fill="lightblue" stroke="black" cx="477.5" cy="-14.85" rx="14.7" ry="14.7"/>
<text text-anchor="middle" x="477.5" y="-12.65" font-family="Times New Roman,serif" font-size="9.00">4</text>
</g>
<!-- &#45;1&#45;&gt;4 -->
<g id="edge5" class="edge">
<title>&#45;1&#45;&gt;4</title>
<path fill="none" stroke="red" stroke-width="0.47" d="M306.86,-68.73C309.68,-67.67 312.68,-66.6 315.5,-65.7 375.87,-46.39 394.86,-53.75 453.5,-29.7 454.36,-29.35 455.22,-28.97 456.08,-28.57"/>
<polygon fill="red" stroke="red" stroke-width="0.47" points="457.89,-31.58 465.12,-23.84 454.64,-25.38 457.89,-31.58"/>
</g>
<!-- &#45;2 -->
<g id="node2" class="node">
<title>&#45;2</title>
<polygon fill="lightgray" stroke="black" points="348.5,-83.7 324.5,-83.7 324.5,-65.7 348.5,-65.7 348.5,-83.7"/>
<text text-anchor="middle" x="336.5" y="-72.5" font-family="Times New Roman,serif" font-size="9.00">&#45;2</text>
</g>
<!-- &#45;2&#45;&gt;0 -->
<g id="edge6" class="edge">
<title>&#45;2&#45;&gt;0</title>
<path fill="none" stroke="red" stroke-width="0.48" d="M348.85,-68.71C351.67,-67.65 354.67,-66.59 357.5,-65.7 420.44,-45.92 440.34,-54.42 501.5,-29.7 502.36,-29.35 503.22,-28.98 504.09,-28.58"/>
<polygon fill="red" stroke="red" stroke-width="0.48" points="505.89,-31.6 513.13,-23.86 502.64,-25.39 505.89,-31.6"/>
</g>
<!-- &#45;2&#45;&gt;1 -->
<g id="edge7" class="edge">
<title>&#45;2&#45;&gt;1</title>
<path fill="none" stroke="red" stroke-width="0.29" d="M342.76,-65.65C348.87,-57.8 358.41,-45.53 366.49,-35.14"/>
<polygon fill="red" stroke="red" stroke-width="0.29" points="369.45,-37.04 372.83,-26.99 363.93,-32.74 369.45,-37.04"/>
</g>
<!-- &#45;2&#45;&gt;2 -->
<g id="edge8" class="edge">
<title>&#45;2&#45;&gt;2</title>
<path fill="none" stroke="green" stroke-width="0.17" d="M348.66,-66.14C363.91,-56.65 390.28,-40.24 408.75,-28.76"/>
<polygon fill="green" stroke="green" stroke-width="0.17" points="410.7,-31.67 417.34,-23.41 407,-25.72 410.7,-31.67"/>
</g>
<!-- &#45;2&#45;&gt;3 -->
<g id="edge9" class="edge">
<title>&#45;2&#45;&gt;3</title>
<path fill="none" stroke="red" stroke-width="0.23" d="M336.08,-65.65C335.74,-59.05 335.24,-49.33 334.76,-40.23"/>
<polygon fill="red" stroke="red" stroke-width="0.23" points="338.25,-39.86 334.24,-30.06 331.26,-40.22 338.25,-39.86"/>
</g>
<!-- &#45;2&#45;&gt;4 -->
<g id="edge10" class="edge">
<title>&#45;2&#45;&gt;4</title>
<path fill="none" stroke="red" stroke-width="0.16" d="M348.93,-68.95C351.75,-67.88 354.73,-66.75 357.5,-65.7 400.12,-49.59 412.29,-49.15 453.5,-29.7 454.34,-29.3 455.18,-28.89 456.04,-28.46"/>
<polygon fill="red" stroke="red" stroke-width="0.16" points="457.89,-31.43 465,-23.58 454.55,-25.29 457.89,-31.43"/>
</g>
<!-- &#45;3 -->
<g id="node3" class="node">
<title>&#45;3</title>
<polygon fill="lightgray" stroke="black" points="390.5,-83.7 366.5,-83.7 366.5,-65.7 390.5,-65.7 390.5,-83.7"/>
<text text-anchor="middle" x="378.5" y="-72.5" font-family="Times New Roman,serif" font-size="9.00">&#45;3</text>
</g>
<!-- &#45;3&#45;&gt;0 -->
<g id="edge11" class="edge">
<title>&#45;3&#45;&gt;0</title>
<path fill="none" stroke="green" stroke-width="0.31" d="M390.92,-68.91C393.73,-67.84 396.72,-66.72 399.5,-65.7 444.63,-49.14 457.83,-49.8 501.5,-29.7 502.34,-29.31 503.19,-28.9 504.05,-28.48"/>
<polygon fill="green" stroke="green" stroke-width="0.31" points="505.89,-31.46 513.03,-23.63 502.57,-25.3 505.89,-31.46"/>
</g>
<!-- &#45;3&#45;&gt;1 -->
<g id="edge12" class="edge">
<title>&#45;3&#45;&gt;1</title>
<path fill="none" stroke="red" stroke-width="0.12" d="M378.92,-65.65C379.26,-59.05 379.76,-49.33 380.24,-40.23"/>
<polygon fill="red" stroke="red" stroke-width="0.12" points="383.74,-40.22 380.76,-30.06 376.75,-39.86 383.74,-40.22"/>
</g>
<!-- &#45;3&#45;&gt;2 -->
<g id="edge13" class="edge">
<title>&#45;3&#45;&gt;2</title>
<path fill="none" stroke="green" stroke-width="0.23" d="M385.59,-65.65C392.75,-57.54 404.04,-44.73 413.38,-34.13"/>
<polygon fill="green" stroke="green" stroke-width="0.23" points="416.05,-36.39 420.04,-26.58 410.8,-31.76 416.05,-36.39"/>
</g>
<!-- &#45;3&#45;&gt;3 -->
<g id="edge14" class="edge">
<title>&#45;3&#45;&gt;3</title>
<path fill="none" stroke="green" stroke-width="0.18" d="M372.24,-65.65C366.13,-57.8 356.59,-45.53 348.51,-35.14"/>
<polygon fill="green" stroke="green" stroke-width="0.18" points="351.07,-32.74 342.17,-26.99 345.55,-37.04 351.07,-32.74"/>
</g>
<!-- &#45;3&#45;&gt;4 -->
<g id="edge15" class="edge">
<title>&#45;3&#45;&gt;4</title>
<path fill="none" stroke="red" stroke-width="0.25" d="M390.64,-66.61C406.95,-57.07 436.21,-39.98 456.22,-28.28"/>
<polygon fill="red" stroke="red" stroke-width="0.25" points="458.08,-31.25 464.95,-23.18 454.55,-25.21 458.08,-31.25"/>
</g>
<!-- &#45;4 -->
<g id="node4" class="node">
<title>&#45;4</title>
<polygon fill="lightgray" stroke="black" points="432.5,-83.7 408.5,-83.7 408.5,-65.7 432.5,-65.7 432.5,-83.7"/>
<text text-anchor="middle" x="420.5" y="-72.5" font-family="Times New Roman,serif" font-size="9.00">&#45;4</text>
</g>
<!-- &#45;4&#45;&gt;0 -->
<g id="edge16" class="edge">
<title>&#45;4&#45;&gt;0</title>
<path fill="none" stroke="green" stroke-width="0.12" d="M432.63,-67.24C448.52,-58.74 477.2,-43.3 501.5,-29.7 502.31,-29.25 503.13,-28.78 503.96,-28.31"/>
<polygon fill="green" stroke="green" stroke-width="0.12" points="505.89,-31.24 512.83,-23.24 502.41,-25.17 505.89,-31.24"/>
</g>
<!-- &#45;4&#45;&gt;1 -->
<g id="edge17" class="edge">
<title>&#45;4&#45;&gt;1</title>
<path fill="none" stroke="green" stroke-width="0.44" d="M415.08,-65.65C409.96,-58.07 402.08,-46.37 395.24,-36.22"/>
<polygon fill="green" stroke="green" stroke-width="0.44" points="398.08,-34.18 389.59,-27.84 392.27,-38.09 398.08,-34.18"/>
</g>
<!-- &#45;4&#45;&gt;2 -->
<g id="edge18" class="edge">
<title>&#45;4&#45;&gt;2</title>
<path fill="none" stroke="red" stroke-width="0.43" d="M421.75,-65.65C422.8,-58.89 424.36,-48.86 425.81,-39.57"/>
<polygon fill="red" stroke="red" stroke-width="0.43" points="429.28,-40.02 427.36,-29.6 422.36,-38.95 429.28,-40.02"/>
</g>
<!-- &#45;4&#45;&gt;3 -->
<g id="edge19" class="edge">
<title>&#45;4&#45;&gt;3</title>
<path fill="none" stroke="green" stroke-width="0.34" d="M408.4,-65.65C394.38,-56.33 371.03,-40.8 354.12,-29.56"/>
<polygon fill="green" stroke="green" stroke-width="0.34" points="355.76,-26.45 345.49,-23.82 351.88,-32.28 355.76,-26.45"/>
</g>
<!-- &#45;4&#45;&gt;4 -->
<g id="edge20" class="edge">
<title>&#45;4&#45;&gt;4</title>
<path fill="none" stroke="red" stroke-width="0.25" d="M428.43,-65.65C436.6,-57.36 449.6,-44.16 460.17,-33.44"/>
<polygon fill="red" stroke="red" stroke-width="0.25" points="462.81,-35.75 467.33,-26.17 457.82,-30.83 462.81,-35.75"/>
</g>
<!-- &#45;5 -->
<g id="node5" class="node">
<title>&#45;5</title>
<polygon fill="lightgray" stroke="black" points="474.5,-83.7 450.5,-83.7 450.5,-65.7 474.5,-65.7 474.5,-83.7"/>
<text text-anchor="middle" x="462.5" y="-72.5" font-family="Times New Roman,serif" font-size="9.00">&#45;5</text>
</g>
<!-- &#45;5&#45;&gt;0 -->
<g id="edge21" class="edge">
<title>&#45;5&#45;&gt;0</title>
<path fill="none" stroke="green" stroke-width="0.15" d="M471.26,-65.65C480.49,-57.18 495.3,-43.58 507.11,-32.73"/>
<polygon fill="green" stroke="green" stroke-width="0.15" points="509.71,-35.1 514.71,-25.76 504.97,-29.95 509.71,-35.1"/>
</g>
<!-- &#45;5&#45;&gt;1 -->
<g id="edge22" class="edge">
<title>&#45;5&#45;&gt;1</title>
<path fill="none" stroke="red" stroke-width="0.23" d="M451.24,-65.65C438.45,-56.52 417.32,-41.43 401.67,-30.26"/>
<polygon fill="red" stroke="red" stroke-width="0.23" points="403.36,-27.16 393.19,-24.2 399.3,-32.86 403.36,-27.16"/>
</g>
<!-- &#45;5&#45;&gt;2 -->
<g id="edge23" class="edge">
<title>&#45;5&#45;&gt;2</title>
<path fill="none" stroke="red" stroke-width="0.14" d="M457.91,-65.65C453.72,-58.31 447.35,-47.13 441.69,-37.22"/>
<polygon fill="red" stroke="red" stroke-width="0.14" points="444.58,-35.23 436.59,-28.28 438.5,-38.7 444.58,-35.23"/>
</g>
<!-- &#45;5&#45;&gt;3 -->
<g id="edge24" class="edge">
<title>&#45;5&#45;&gt;3</title>
<path fill="none" stroke="green" stroke-width="0.49" d="M450.4,-68.85C426.65,-59.31 374.77,-38.26 357.5,-29.7 356.67,-29.29 355.83,-28.86 354.98,-28.42"/>
<polygon fill="green" stroke="green" stroke-width="0.49" points="356.49,-25.25 346.04,-23.49 353.11,-31.38 356.49,-25.25"/>
</g>
<!-- &#45;5&#45;&gt;4 -->
<g id="edge25" class="edge">
<title>&#45;5&#45;&gt;4</title>
<path fill="none" stroke="green" stroke-width="0.38" d="M464.59,-65.65C466.34,-58.89 468.94,-48.86 471.35,-39.57"/>
<polygon fill="green" stroke="green" stroke-width="0.38" points="474.81,-40.16 473.93,-29.6 468.04,-38.41 474.81,-40.16"/>
</g>
<!-- &#45;6 -->
<g id="node6" class="node">
<title>&#45;6</title>
<polygon fill="lightgray" stroke="black" points="516.5,-83.7 492.5,-83.7 492.5,-65.7 516.5,-65.7 516.5,-83.7"/>
<text text-anchor="middle" x="504.5" y="-72.5" font-family="Times New Roman,serif" font-size="9.00">&#45;6</text>
</g>
<!-- &#45;6&#45;&gt;0 -->
<g id="edge26" class="edge">
<title>&#45;6&#45;&gt;0</title>
<path fill="none" stroke="red" stroke-width="0.27" d="M507.42,-65.65C509.96,-58.65 513.78,-48.15 517.25,-38.59"/>
<polygon fill="red" stroke="red" stroke-width="0.27" points="520.55,-39.75 520.67,-29.16 513.97,-37.36 520.55,-39.75"/>
</g>
<!-- &#45;6&#45;&gt;1 -->
<g id="edge27" class="edge">
<title>&#45;6&#45;&gt;1</title>
<path fill="none" stroke="green" stroke-width="0.2" d="M492.42,-68.81C473.58,-61.09 436.18,-45.31 405.5,-29.7 404.67,-29.28 403.84,-28.84 403,-28.4"/>
<polygon fill="green" stroke="green" stroke-width="0.2" points="404.51,-25.23 394.07,-23.43 401.11,-31.35 404.51,-25.23"/>
</g>
<!-- &#45;6&#45;&gt;2 -->
<g id="edge28" class="edge">
<title>&#45;6&#45;&gt;2</title>
<path fill="none" stroke="green" stroke-width="0.33" d="M494.07,-65.65C482.47,-56.71 463.47,-42.05 449.08,-30.95"/>
<polygon fill="green" stroke="green" stroke-width="0.33" points="450.88,-27.92 440.82,-24.58 446.6,-33.46 450.88,-27.92"/>
</g>
<!-- &#45;6&#45;&gt;3 -->
<g id="edge29" class="edge">
<title>&#45;6&#45;&gt;3</title>
<path fill="none" stroke="red" stroke-width="0.32" d="M492.13,-68.78C489.31,-67.72 486.31,-66.63 483.5,-65.7 428.24,-47.31 411.12,-52.42 357.5,-29.7 356.65,-29.34 355.79,-28.95 354.93,-28.55"/>
<polygon fill="red" stroke="red" stroke-width="0.32" points="356.38,-25.36 345.91,-23.78 353.11,-31.55 356.38,-25.36"/>
</g>
<!-- &#45;6&#45;&gt;4 -->
<g id="edge30" class="edge">
<title>&#45;6&#45;&gt;4</title>
<path fill="none" stroke="green" stroke-width="0.53" d="M500.75,-65.65C497.4,-58.48 492.34,-47.64 487.8,-37.91"/>
<polygon fill="green" stroke="green" stroke-width="0.53" points="490.91,-36.3 483.5,-28.71 484.56,-39.26 490.91,-36.3"/>
</g>
<!-- &#45;7 -->
<g id="node7" class="node">
<title>&#45;7</title>
<polygon fill="lightgray" stroke="black" points="558.5,-83.7 534.5,-83.7 534.5,-65.7 558.5,-65.7 558.5,-83.7"/>
<text text-anchor="middle" x="546.5" y="-72.5" font-family="Times New Roman,serif" font-size="9.00">&#45;7</text>
</g>
<!-- &#45;7&#45;&gt;0 -->
<g id="edge31" class="edge">
<title>&#45;7&#45;&gt;0</title>
<path fill="none" stroke="green" stroke-width="0.11" d="M543.58,-65.65C541.04,-58.65 537.22,-48.15 533.75,-38.59"/>
<polygon fill="green" stroke="green" stroke-width="0.11" points="537.03,-37.36 530.33,-29.16 530.45,-39.75 537.03,-37.36"/>
</g>
<!-- &#45;7&#45;&gt;1 -->
<g id="edge32" class="edge">
<title>&#45;7&#45;&gt;1</title>
<path fill="none" stroke="green" stroke-width="0.7" d="M534.12,-68.81C531.3,-67.75 528.31,-66.65 525.5,-65.7 472.78,-47.78 456.62,-51.76 405.5,-29.7 404.65,-29.33 403.79,-28.94 402.93,-28.53"/>
<polygon fill="green" stroke="green" stroke-width="0.7" points="404.39,-25.35 393.92,-23.75 401.11,-31.53 404.39,-25.35"/>
</g>
<!-- &#45;7&#45;&gt;2 -->
<g id="edge33" class="edge">
<title>&#45;7&#45;&gt;2</title>
<path fill="none" stroke="green" stroke-width="0.12" d="M534.31,-68.31C516.39,-60.31 481.98,-44.62 453.5,-29.7 452.68,-29.27 451.85,-28.83 451.01,-28.37"/>
<polygon fill="green" stroke="green" stroke-width="0.12" points="452.53,-25.21 442.1,-23.38 449.11,-31.32 452.53,-25.21"/>
</g>
<!-- &#45;7&#45;&gt;3 -->
<g id="edge34" class="edge">
<title>&#45;7&#45;&gt;3</title>
<path fill="none" stroke="green" stroke-width="0.24" d="M534.17,-68.64C531.35,-67.59 528.34,-66.54 525.5,-65.7 452.27,-44.04 428.77,-57.12 357.5,-29.7 356.64,-29.37 355.77,-29.01 354.9,-28.62"/>
<polygon fill="green" stroke="green" stroke-width="0.24" points="356.33,-25.42 345.84,-23.95 353.12,-31.64 356.33,-25.42"/>
</g>
<!-- &#45;7&#45;&gt;4 -->
<g id="edge35" class="edge">
<title>&#45;7&#45;&gt;4</title>
<path fill="none" stroke="red" stroke-width="0.26" d="M536.91,-65.65C526.46,-56.89 509.48,-42.66 496.35,-31.65"/>
<polygon fill="red" stroke="red" stroke-width="0.26" points="498.29,-28.71 488.38,-24.97 493.79,-34.07 498.29,-28.71"/>
</g>
<!-- &#45;8 -->
<g id="node8" class="node">
<title>&#45;8</title>
<polygon fill="lightgray" stroke="black" points="600.5,-83.7 576.5,-83.7 576.5,-65.7 600.5,-65.7 600.5,-83.7"/>
<text text-anchor="middle" x="588.5" y="-72.5" font-family="Times New Roman,serif" font-size="9.00">&#45;8</text>
</g>
<!-- &#45;8&#45;&gt;0 -->
<g id="edge36" class="edge">
<title>&#45;8&#45;&gt;0</title>
<path fill="none" stroke="red" stroke-width="0.2" d="M579.74,-65.65C570.51,-57.18 555.7,-43.58 543.89,-32.73"/>
<polygon fill="red" stroke="red" stroke-width="0.2" points="546.03,-29.95 536.29,-25.76 541.29,-35.1 546.03,-29.95"/>
</g>
<!-- &#45;8&#45;&gt;1 -->
<g id="edge37" class="edge">
<title>&#45;8&#45;&gt;1</title>
<path fill="none" stroke="green" stroke-width="0.58" d="M576.17,-68.66C573.34,-67.6 570.34,-66.55 567.5,-65.7 496.85,-44.51 474.24,-56.44 405.5,-29.7 404.64,-29.36 403.77,-29 402.9,-28.61"/>
<polygon fill="green" stroke="green" stroke-width="0.58" points="404.33,-25.42 393.84,-23.93 401.12,-31.63 404.33,-25.42"/>
</g>
<!-- &#45;8&#45;&gt;2 -->
<g id="edge38" class="edge">
<title>&#45;8&#45;&gt;2</title>
<path fill="none" stroke="green" stroke-width="0.34" d="M576.11,-68.84C573.29,-67.77 570.3,-66.67 567.5,-65.7 517.32,-48.23 502.13,-51.1 453.5,-29.7 452.65,-29.33 451.8,-28.93 450.94,-28.52"/>
<polygon fill="green" stroke="green" stroke-width="0.34" points="452.41,-25.33 441.94,-23.71 449.11,-31.51 452.41,-25.33"/>
</g>
<!-- &#45;8&#45;&gt;3 -->
<g id="edge39" class="edge">
<title>&#45;8&#45;&gt;3</title>
<path fill="none" stroke="green" stroke-width="0.37" d="M576.2,-68.55C573.37,-67.5 570.36,-66.48 567.5,-65.7 476.16,-40.73 446.56,-61.86 357.5,-29.7 356.63,-29.38 355.75,-29.04 354.88,-28.67"/>
<polygon fill="green" stroke="green" stroke-width="0.37" points="356.3,-25.46 345.8,-24.06 353.13,-31.71 356.3,-25.46"/>
</g>
<!-- &#45;8&#45;&gt;4 -->
<g id="edge40" class="edge">
<title>&#45;8&#45;&gt;4</title>
<path fill="none" stroke="green" stroke-width="0.6" d="M576.29,-67.79C559.35,-59.53 527.85,-43.95 501.5,-29.7 500.69,-29.26 499.86,-28.81 499.02,-28.34"/>
<polygon fill="green" stroke="green" stroke-width="0.6" points="500.56,-25.19 490.13,-23.31 497.11,-31.28 500.56,-25.19"/>
</g>
<!-- &#45;9 -->
<g id="node9" class="node">
<title>&#45;9</title>
<polygon fill="lightgray" stroke="black" points="642.5,-83.7 618.5,-83.7 618.5,-65.7 642.5,-65.7 642.5,-83.7"/>
<text text-anchor="middle" x="630.5" y="-72.5" font-family="Times New Roman,serif" font-size="9.00">&#45;9</text>
</g>
<!-- &#45;9&#45;&gt;0 -->
<g id="edge41" class="edge">
<title>&#45;9&#45;&gt;0</title>
<path fill="none" stroke="red" stroke-width="0.4" d="M618.46,-67.06C601.09,-57.5 568.75,-39.68 547.17,-27.79"/>
<polygon fill="red" stroke="red" stroke-width="0.4" points="548.83,-24.71 538.38,-22.95 545.45,-30.84 548.83,-24.71"/>
</g>
<!-- &#45;9&#45;&gt;1 -->
<g id="edge42" class="edge">
<title>&#45;9&#45;&gt;1</title>
<path fill="none" stroke="green" stroke-width="0.53" d="M618.19,-68.57C615.37,-67.51 612.36,-66.49 609.5,-65.7 520.75,-41.2 492.02,-61.18 405.5,-29.7 404.63,-29.38 403.75,-29.03 402.88,-28.66"/>
<polygon fill="green" stroke="green" stroke-width="0.53" points="404.3,-25.46 393.8,-24.04 401.13,-31.7 404.3,-25.46"/>
</g>
<!-- &#45;9&#45;&gt;2 -->
<g id="edge43" class="edge">
<title>&#45;9&#45;&gt;2</title>
<path fill="none" stroke="green" stroke-width="0.58" d="M618.16,-68.68C615.34,-67.62 612.34,-66.56 609.5,-65.7 541.43,-44.98 519.71,-55.77 453.5,-29.7 452.64,-29.36 451.77,-28.99 450.9,-28.6"/>
<polygon fill="green" stroke="green" stroke-width="0.58" points="452.34,-25.41 441.85,-23.91 449.12,-31.62 452.34,-25.41"/>
</g>
<!-- &#45;9&#45;&gt;3 -->
<g id="edge44" class="edge">
<title>&#45;9&#45;&gt;3</title>
<path fill="none" stroke="green" stroke-width="0.31" d="M618.21,-68.5C615.39,-67.45 612.37,-66.44 609.5,-65.7 499.96,-37.39 464.44,-66.64 357.5,-29.7 356.62,-29.4 355.75,-29.06 354.87,-28.7"/>
<polygon fill="green" stroke="green" stroke-width="0.31" points="356.28,-25.49 345.77,-24.13 353.14,-31.75 356.28,-25.49"/>
</g>
<!-- &#45;9&#45;&gt;4 -->
<g id="edge45" class="edge">
<title>&#45;9&#45;&gt;4</title>
<path fill="none" stroke="green" stroke-width="0.29" d="M618.1,-68.87C615.28,-67.81 612.29,-66.7 609.5,-65.7 561.85,-48.69 547.65,-50.45 501.5,-29.7 500.66,-29.32 499.8,-28.92 498.95,-28.5"/>
<polygon fill="green" stroke="green" stroke-width="0.29" points="500.42,-25.32 489.95,-23.67 497.11,-31.49 500.42,-25.32"/>
</g>
<!-- &#45;10 -->
<g id="node10" class="node">
<title>&#45;10</title>
<polygon fill="lightgray" stroke="black" points="690,-83.7 661,-83.7 661,-65.7 690,-65.7 690,-83.7"/>
<text text-anchor="middle" x="675.5" y="-72.5" font-family="Times New Roman,serif" font-size="9.00">&#45;10</text>
</g>
<!-- &#45;10&#45;&gt;0 -->
<g id="edge46" class="edge">
<title>&#45;10&#45;&gt;0</title>
<path fill="none" stroke="red" stroke-width="0.8" d="M660.84,-68.05C634.75,-57.98 580.04,-36.88 548.76,-24.82"/>
<polygon fill="red" stroke="red" stroke-width="0.8" points="549.71,-21.44 539.12,-21.1 547.2,-27.97 549.71,-21.44"/>
</g>
<!-- &#45;10&#45;&gt;1 -->
<g id="edge47" class="edge">
<title>&#45;10&#45;&gt;1</title>
<path fill="none" stroke="green" stroke-width="0.27" d="M660.9,-68.38C657.82,-67.38 654.58,-66.43 651.5,-65.7 544,-40.13 509.88,-65.96 405.5,-29.7 404.63,-29.39 403.75,-29.06 402.87,-28.7"/>
<polygon fill="green" stroke="green" stroke-width="0.27" points="404.28,-25.49 393.78,-24.12 401.13,-31.74 404.28,-25.49"/>
</g>
<!-- &#45;10&#45;&gt;2 -->
<g id="edge48" class="edge">
<title>&#45;10&#45;&gt;2</title>
<path fill="none" stroke="red" stroke-width="0.18" d="M660.88,-68.46C657.8,-67.46 654.56,-66.48 651.5,-65.7 564.86,-43.5 537.47,-60.5 453.5,-29.7 452.63,-29.38 451.76,-29.03 450.88,-28.66"/>
<polygon fill="red" stroke="red" stroke-width="0.18" points="452.31,-25.45 441.81,-24.03 449.13,-31.69 452.31,-25.45"/>
</g>
<!-- &#45;10&#45;&gt;3 -->
<g id="edge49" class="edge">
<title>&#45;10&#45;&gt;3</title>
<path fill="none" stroke="green" stroke-width="0.29" d="M660.91,-68.32C657.83,-67.33 654.58,-66.39 651.5,-65.7 523.08,-36.74 482.35,-71.43 357.5,-29.7 356.62,-29.4 355.74,-29.08 354.86,-28.72"/>
<polygon fill="green" stroke="green" stroke-width="0.29" points="356.27,-25.51 345.75,-24.18 353.14,-31.78 356.27,-25.51"/>
</g>
<!-- &#45;10&#45;&gt;4 -->
<g id="edge50" class="edge">
<title>&#45;10&#45;&gt;4</title>
<path fill="none" stroke="green" stroke-width="0.53" d="M660.84,-68.59C657.77,-67.58 654.54,-66.57 651.5,-65.7 585.58,-46.84 565.18,-55.09 501.5,-29.7 500.64,-29.36 499.77,-28.99 498.91,-28.6"/>
<polygon fill="green" stroke="green" stroke-width="0.53" points="500.35,-25.4 489.86,-23.89 497.12,-31.61 500.35,-25.4"/>
</g>
<!-- &#45;11 -->
<g id="node11" class="node">
<title>&#45;11</title>
<polygon fill="lightgray" stroke="black" points="831,-83.7 802,-83.7 802,-65.7 831,-65.7 831,-83.7"/>
<text text-anchor="middle" x="816.5" y="-72.5" font-family="Times New Roman,serif" font-size="9.00">&#45;11</text>
</g>
<!-- &#45;11&#45;&gt;0 -->
<g id="edge51" class="edge">
<title>&#45;11&#45;&gt;0</title>
<path fill="none" stroke="red" stroke-width="0.25" d="M801.51,-68.12C798.86,-67.24 796.12,-66.39 793.5,-65.7 705.23,-42.28 597.76,-25.84 550.19,-19.17"/>
<polygon fill="red" stroke="red" stroke-width="0.25" points="550.58,-15.69 540.2,-17.79 549.62,-22.62 550.58,-15.69"/>
</g>
<!-- &#45;11&#45;&gt;1 -->
<g id="edge52" class="edge">
<title>&#45;11&#45;&gt;1</title>
<path fill="none" stroke="green" stroke-width="0.2" d="M801.56,-67.92C798.9,-67.06 796.14,-66.27 793.5,-65.7 624.25,-28.98 570.54,-82.19 405.5,-29.7 404.45,-29.36 403.39,-28.98 402.33,-28.55"/>
<polygon fill="green" stroke="green" stroke-width="0.2" points="403.74,-25.34 393.24,-23.97 400.59,-31.59 403.74,-25.34"/>
</g>
<!-- &#45;11&#45;&gt;2 -->
<g id="edge53" class="edge">
<title>&#45;11&#45;&gt;2</title>
<path fill="none" stroke="green" stroke-width="0.11" d="M801.55,-67.95C798.9,-67.08 796.14,-66.29 793.5,-65.7 645.21,-32.52 598.01,-76.69 453.5,-29.7 452.45,-29.36 451.39,-28.96 450.34,-28.53"/>
<polygon fill="green" stroke="green" stroke-width="0.11" points="451.75,-25.32 441.25,-23.93 448.59,-31.57 451.75,-25.32"/>
</g>
<!-- &#45;11&#45;&gt;4 -->
<g id="edge54" class="edge">
<title>&#45;11&#45;&gt;4</title>
<path fill="none" stroke="green" stroke-width="0.18" d="M801.54,-67.98C798.89,-67.12 796.14,-66.31 793.5,-65.7 666.14,-36.05 625.5,-71.21 501.5,-29.7 500.62,-29.4 499.74,-29.08 498.86,-28.72"/>
<polygon fill="green" stroke="green" stroke-width="0.18" points="500.27,-25.51 489.76,-24.18 497.14,-31.77 500.27,-25.51"/>
</g>
<!-- &#45;12 -->
<g id="node12" class="node">
<title>&#45;12</title>
<polygon fill="lightgray" stroke="black" points="737,-83.7 708,-83.7 708,-65.7 737,-65.7 737,-83.7"/>
<text text-anchor="middle" x="722.5" y="-72.5" font-family="Times New Roman,serif" font-size="9.00">&#45;12</text>
</g>
<!-- &#45;12&#45;&gt;0 -->
<g id="edge55" class="edge">
<title>&#45;12&#45;&gt;0</title>
<path fill="none" stroke="red" stroke-width="0.23" d="M707.94,-68.5C705.15,-67.54 702.24,-66.57 699.5,-65.7 646.52,-48.91 583.7,-31.53 549.92,-22.38"/>
<polygon fill="red" stroke="red" stroke-width="0.23" points="550.58,-18.94 540.02,-19.71 548.76,-25.7 550.58,-18.94"/>
</g>
<!-- &#45;12&#45;&gt;1 -->
<g id="edge56" class="edge">
<title>&#45;12&#45;&gt;1</title>
<path fill="none" stroke="red" stroke-width="0.39" d="M707.54,-67.98C704.89,-67.12 702.14,-66.31 699.5,-65.7 571.27,-35.91 530.35,-71.43 405.5,-29.7 404.62,-29.4 403.74,-29.08 402.86,-28.72"/>
<polygon fill="red" stroke="red" stroke-width="0.39" points="404.27,-25.51 393.75,-24.18 401.14,-31.78 404.27,-25.51"/>
</g>
<!-- &#45;12&#45;&gt;2 -->
<g id="edge57" class="edge">
<title>&#45;12&#45;&gt;2</title>
<path fill="none" stroke="red" stroke-width="0.2" d="M707.53,-68.03C704.88,-67.16 702.13,-66.34 699.5,-65.7 592.17,-39.43 557.88,-65.96 453.5,-29.7 452.63,-29.39 451.75,-29.06 450.87,-28.7"/>
<polygon fill="red" stroke="red" stroke-width="0.2" points="452.28,-25.49 441.78,-24.12 449.13,-31.74 452.28,-25.49"/>
</g>
<!-- &#45;12&#45;&gt;3 -->
<g id="edge58" class="edge">
<title>&#45;12&#45;&gt;3</title>
<path fill="none" stroke="red" stroke-width="0.47" d="M707.55,-67.94C704.9,-67.08 702.14,-66.29 699.5,-65.7 550.34,-32.37 502.86,-76.92 357.5,-29.7 356.45,-29.36 355.39,-28.96 354.34,-28.53"/>
<polygon fill="red" stroke="red" stroke-width="0.47" points="355.75,-25.33 345.25,-23.93 352.59,-31.57 355.75,-25.33"/>
</g>
<!-- &#45;12&#45;&gt;4 -->
<g id="edge59" class="edge">
<title>&#45;12&#45;&gt;4</title>
<path fill="none" stroke="green" stroke-width="0.35" d="M707.51,-68.11C704.86,-67.23 702.12,-66.39 699.5,-65.7 613,-42.94 585.47,-60.5 501.5,-29.7 500.63,-29.38 499.76,-29.03 498.88,-28.66"/>
<polygon fill="green" stroke="green" stroke-width="0.35" points="500.31,-25.45 489.81,-24.03 497.13,-31.69 500.31,-25.45"/>
</g>
<!-- &#45;13 -->
<g id="node13" class="node">
<title>&#45;13</title>
<polygon fill="lightgray" stroke="black" points="784,-83.7 755,-83.7 755,-65.7 784,-65.7 784,-83.7"/>
<text text-anchor="middle" x="769.5" y="-72.5" font-family="Times New Roman,serif" font-size="9.00">&#45;13</text>
</g>
<!-- &#45;13&#45;&gt;0 -->
<g id="edge60" class="edge">
<title>&#45;13&#45;&gt;0</title>
<path fill="none" stroke="green" stroke-width="0.37" d="M754.98,-68.37C752.18,-67.42 749.26,-66.49 746.5,-65.7 676.03,-45.56 591.05,-28.33 550.03,-20.44"/>
<polygon fill="green" stroke="green" stroke-width="0.37" points="550.6,-16.99 540.12,-18.55 549.29,-23.86 550.6,-16.99"/>
</g>
<!-- &#45;13&#45;&gt;1 -->
<g id="edge61" class="edge">
<title>&#45;13&#45;&gt;1</title>
<path fill="none" stroke="green" stroke-width="0.24" d="M754.55,-67.94C751.9,-67.08 749.14,-66.29 746.5,-65.7 597.77,-32.45 550.43,-76.81 405.5,-29.7 404.45,-29.36 403.39,-28.96 402.34,-28.53"/>
<polygon fill="green" stroke="green" stroke-width="0.24" points="403.75,-25.32 393.25,-23.93 400.59,-31.57 403.75,-25.32"/>
</g>
<!-- &#45;13&#45;&gt;2 -->
<g id="edge62" class="edge">
<title>&#45;13&#45;&gt;2</title>
<path fill="none" stroke="red" stroke-width="0.12" d="M754.54,-67.98C751.89,-67.12 749.14,-66.31 746.5,-65.7 618.71,-35.98 577.92,-71.32 453.5,-29.7 452.62,-29.4 451.74,-29.08 450.86,-28.72"/>
<polygon fill="red" stroke="red" stroke-width="0.12" points="452.27,-25.51 441.75,-24.18 449.14,-31.78 452.27,-25.51"/>
</g>
<!-- &#45;13&#45;&gt;3 -->
<g id="edge63" class="edge">
<title>&#45;13&#45;&gt;3</title>
<path fill="none" stroke="red" stroke-width="0.14" d="M754.56,-67.92C751.9,-67.06 749.14,-66.27 746.5,-65.7 576.81,-28.91 522.97,-82.31 357.5,-29.7 356.45,-29.36 355.39,-28.98 354.33,-28.55"/>
<polygon fill="red" stroke="red" stroke-width="0.14" points="355.74,-25.34 345.24,-23.97 352.59,-31.59 355.74,-25.34"/>
</g>
<!-- &#45;13&#45;&gt;4 -->
<g id="edge64" class="edge">
<title>&#45;13&#45;&gt;4</title>
<path fill="none" stroke="green" stroke-width="0.33" d="M754.53,-68.04C751.88,-67.16 749.13,-66.34 746.5,-65.7 639.6,-39.5 605.45,-65.84 501.5,-29.7 500.63,-29.39 499.75,-29.06 498.87,-28.69"/>
<polygon fill="green" stroke="green" stroke-width="0.33" points="500.28,-25.49 489.78,-24.12 497.13,-31.74 500.28,-25.49"/>
</g>
<!-- &#45;14 -->
<g id="node14" class="node">
<title>&#45;14</title>
<polygon fill="lightgray" stroke="black" points="29,-83.7 0,-83.7 0,-65.7 29,-65.7 29,-83.7"/>
<text text-anchor="middle" x="14.5" y="-72.5" font-family="Times New Roman,serif" font-size="9.00">&#45;14</text>
</g>
<!-- &#45;14&#45;&gt;0 -->
<g id="edge65" class="edge">
<title>&#45;14&#45;&gt;0</title>
<path fill="none" stroke="red" stroke-width="0.34" d="M29.44,-67.88C32.09,-67.03 34.85,-66.25 37.5,-65.7 239.97,-23.37 303.92,-90.9 501.5,-29.7 502.56,-29.37 503.62,-28.99 504.67,-28.57"/>
<polygon fill="red" stroke="red" stroke-width="0.34" points="506.41,-31.62 513.78,-24.01 503.27,-25.36 506.41,-31.62"/>
</g>
<!-- &#45;14&#45;&gt;1 -->
<g id="edge66" class="edge">
<title>&#45;14&#45;&gt;1</title>
<path fill="none" stroke="red" stroke-width="0.58" d="M29.45,-67.96C32.1,-67.1 34.86,-66.3 37.5,-65.7 177.06,-33.99 221.54,-74.41 357.5,-29.7 358.38,-29.41 359.26,-29.09 360.14,-28.73"/>
<polygon fill="red" stroke="red" stroke-width="0.58" points="361.86,-31.79 369.25,-24.21 358.74,-25.52 361.86,-31.79"/>
</g>
<!-- &#45;14&#45;&gt;2 -->
<g id="edge67" class="edge">
<title>&#45;14&#45;&gt;2</title>
<path fill="none" stroke="red" stroke-width="0.19" d="M29.45,-67.93C32.1,-67.07 34.86,-66.28 37.5,-65.7 198.01,-30.46 249.02,-79.9 405.5,-29.7 406.55,-29.36 407.61,-28.97 408.66,-28.54"/>
<polygon fill="red" stroke="red" stroke-width="0.19" points="410.41,-31.58 417.76,-23.95 407.26,-25.33 410.41,-31.58"/>
</g>
<!-- &#45;14&#45;&gt;3 -->
<g id="edge68" class="edge">
<title>&#45;14&#45;&gt;3</title>
<path fill="none" stroke="green" stroke-width="0.53" d="M29.48,-68.08C32.13,-67.21 34.88,-66.37 37.5,-65.7 136.5,-40.34 257.53,-24.58 308.73,-18.59"/>
<polygon fill="green" stroke="green" stroke-width="0.53" points="309.31,-22.05 318.84,-17.43 308.51,-15.1 309.31,-22.05"/>
</g>
<!-- &#45;14&#45;&gt;4 -->
<g id="edge69" class="edge">
<title>&#45;14&#45;&gt;4</title>
<path fill="none" stroke="red" stroke-width="0.22" d="M29.44,-67.9C32.09,-67.05 34.85,-66.26 37.5,-65.7 218.98,-26.92 276.48,-85.4 453.5,-29.7 454.56,-29.37 455.61,-28.98 456.67,-28.56"/>
<polygon fill="red" stroke="red" stroke-width="0.22" points="458.41,-31.6 465.77,-23.98 455.26,-25.35 458.41,-31.6"/>
</g>
<!-- &#45;15 -->
<g id="node15" class="node">
<title>&#45;15</title>
<polygon fill="lightgray" stroke="black" points="76,-83.7 47,-83.7 47,-65.7 76,-65.7 76,-83.7"/>
<text text-anchor="middle" x="61.5" y="-72.5" font-family="Times New Roman,serif" font-size="9.00">&#45;15</text>
</g>
<!-- &#45;15&#45;&gt;0 -->
<g id="edge70" class="edge">
<title>&#45;15&#45;&gt;0</title>
<path fill="none" stroke="red" stroke-width="0.7" d="M76.44,-67.9C79.09,-67.05 81.85,-66.26 84.5,-65.7 266.42,-26.84 324.05,-85.51 501.5,-29.7 502.56,-29.37 503.61,-28.98 504.67,-28.56"/>
<polygon fill="red" stroke="red" stroke-width="0.7" points="506.41,-31.6 513.77,-23.98 503.26,-25.35 506.41,-31.6"/>
</g>
<!-- &#45;15&#45;&gt;1 -->
<g id="edge71" class="edge">
<title>&#45;15&#45;&gt;1</title>
<path fill="none" stroke="green" stroke-width="0.61" d="M76.46,-68C79.11,-67.14 81.87,-66.32 84.5,-65.7 203.58,-37.45 241.61,-69.04 357.5,-29.7 358.38,-29.4 359.26,-29.07 360.14,-28.71"/>
<polygon fill="green" stroke="green" stroke-width="0.61" points="361.86,-31.76 369.24,-24.16 358.73,-25.5 361.86,-31.76"/>
</g>
<!-- &#45;15&#45;&gt;2 -->
<g id="edge72" class="edge">
<title>&#45;15&#45;&gt;2</title>
<path fill="none" stroke="red" stroke-width="0.76" d="M76.45,-67.96C79.1,-67.1 81.86,-66.3 84.5,-65.7 224.5,-33.92 269.12,-74.52 405.5,-29.7 406.38,-29.41 407.26,-29.09 408.14,-28.73"/>
<polygon fill="red" stroke="red" stroke-width="0.76" points="409.86,-31.79 417.25,-24.21 406.74,-25.52 409.86,-31.79"/>
</g>
<!-- &#45;15&#45;&gt;3 -->
<g id="edge73" class="edge">
<title>&#45;15&#45;&gt;3</title>
<path fill="none" stroke="green" stroke-width="0.13" d="M76.01,-68.32C78.8,-67.37 81.73,-66.45 84.5,-65.7 165.45,-43.63 263.65,-26.82 308.72,-19.65"/>
<polygon fill="green" stroke="green" stroke-width="0.13" points="309.41,-23.09 318.74,-18.08 308.32,-16.17 309.41,-23.09"/>
</g>
<!-- &#45;15&#45;&gt;4 -->
<g id="edge74" class="edge">
<title>&#45;15&#45;&gt;4</title>
<path fill="none" stroke="red" stroke-width="0.37" d="M76.45,-67.93C79.1,-67.07 81.86,-66.28 84.5,-65.7 245.45,-30.38 296.59,-80.01 453.5,-29.7 454.55,-29.36 455.61,-28.97 456.66,-28.54"/>
<polygon fill="red" stroke="red" stroke-width="0.37" points="458.41,-31.58 465.76,-23.95 455.26,-25.33 458.41,-31.58"/>
</g>
<!-- &#45;16 -->
<g id="node16" class="node">
<title>&#45;16</title>
<polygon fill="lightgray" stroke="black" points="123,-83.7 94,-83.7 94,-65.7 123,-65.7 123,-83.7"/>
<text text-anchor="middle" x="108.5" y="-72.5" font-family="Times New Roman,serif" font-size="9.00">&#45;16</text>
</g>
<!-- &#45;16&#45;&gt;0 -->
<g id="edge75" class="edge">
<title>&#45;16&#45;&gt;0</title>
<path fill="none" stroke="red" stroke-width="0.51" d="M123.08,-68.26C126.16,-67.28 129.41,-66.36 132.5,-65.7 293.68,-31.43 344.59,-80.01 501.5,-29.7 502.55,-29.36 503.61,-28.97 504.66,-28.54"/>
<polygon fill="red" stroke="red" stroke-width="0.51" points="506.41,-31.58 513.76,-23.95 503.26,-25.33 506.41,-31.58"/>
</g>
<!-- &#45;16&#45;&gt;1 -->
<g id="edge76" class="edge">
<title>&#45;16&#45;&gt;1</title>
<path fill="none" stroke="green" stroke-width="0.56" d="M123.11,-68.41C126.19,-67.41 129.43,-66.45 132.5,-65.7 230.86,-41.61 262.06,-63.57 357.5,-29.7 358.37,-29.39 359.25,-29.05 360.13,-28.68"/>
<polygon fill="green" stroke="green" stroke-width="0.56" points="361.87,-31.72 369.21,-24.08 358.71,-25.47 361.87,-31.72"/>
</g>
<!-- &#45;16&#45;&gt;2 -->
<g id="edge77" class="edge">
<title>&#45;16&#45;&gt;2</title>
<path fill="none" stroke="green" stroke-width="0.39" d="M123.1,-68.34C126.17,-67.35 129.42,-66.41 132.5,-65.7 251.76,-38.22 289.61,-69.04 405.5,-29.7 406.38,-29.4 407.26,-29.07 408.14,-28.71"/>
<polygon fill="green" stroke="green" stroke-width="0.39" points="409.86,-31.76 417.24,-24.16 406.73,-25.5 409.86,-31.76"/>
</g>
<!-- &#45;16&#45;&gt;3 -->
<g id="edge78" class="edge">
<title>&#45;16&#45;&gt;3</title>
<path fill="none" stroke="green" stroke-width="0.51" d="M123.17,-68.61C126.24,-67.6 129.46,-66.58 132.5,-65.7 195.35,-47.46 270.45,-29.95 308.6,-21.36"/>
<polygon fill="green" stroke="green" stroke-width="0.51" points="309.77,-24.68 318.77,-19.09 308.24,-17.85 309.77,-24.68"/>
</g>
<!-- &#45;16&#45;&gt;4 -->
<g id="edge79" class="edge">
<title>&#45;16&#45;&gt;4</title>
<path fill="none" stroke="red" stroke-width="0.45" d="M123.09,-68.29C126.16,-67.31 129.41,-66.38 132.5,-65.7 272.7,-34.83 317.12,-74.52 453.5,-29.7 454.38,-29.41 455.26,-29.09 456.14,-28.73"/>
<polygon fill="red" stroke="red" stroke-width="0.45" points="457.86,-31.79 465.25,-24.21 454.74,-25.52 457.86,-31.79"/>
</g>
<!-- &#45;17 -->
<g id="node17" class="node">
<title>&#45;17</title>
<polygon fill="lightgray" stroke="black" points="170,-83.7 141,-83.7 141,-65.7 170,-65.7 170,-83.7"/>
<text text-anchor="middle" x="155.5" y="-72.5" font-family="Times New Roman,serif" font-size="9.00">&#45;17</text>
</g>
<!-- &#45;17&#45;&gt;0 -->
<g id="edge80" class="edge">
<title>&#45;17&#45;&gt;0</title>
<path fill="none" stroke="red" stroke-width="0.13" d="M170.09,-68.29C173.16,-67.31 176.41,-66.38 179.5,-65.7 320.14,-34.76 364.69,-74.64 501.5,-29.7 502.38,-29.41 503.26,-29.09 504.14,-28.73"/>
<polygon fill="red" stroke="red" stroke-width="0.13" points="505.86,-31.79 513.25,-24.21 502.74,-25.52 505.86,-31.79"/>
</g>
<!-- &#45;17&#45;&gt;1 -->
<g id="edge81" class="edge">
<title>&#45;17&#45;&gt;1</title>
<path fill="none" stroke="red" stroke-width="0.2" d="M170.14,-68.5C173.21,-67.5 176.44,-66.51 179.5,-65.7 257.49,-44.9 282,-58.24 357.5,-29.7 358.37,-29.37 359.24,-29.01 360.11,-28.64"/>
<polygon fill="red" stroke="red" stroke-width="0.2" points="361.88,-31.66 369.17,-23.98 358.68,-25.43 361.88,-31.66"/>
</g>
<!-- &#45;17&#45;&gt;2 -->
<g id="edge82" class="edge">
<title>&#45;17&#45;&gt;2</title>
<path fill="none" stroke="green" stroke-width="0.51" d="M170.11,-68.41C173.19,-67.41 176.43,-66.45 179.5,-65.7 278.3,-41.54 309.63,-63.68 405.5,-29.7 406.37,-29.39 407.25,-29.05 408.13,-28.68"/>
<polygon fill="green" stroke="green" stroke-width="0.51" points="409.87,-31.72 417.21,-24.09 406.71,-25.48 409.87,-31.72"/>
</g>
<!-- &#45;17&#45;&gt;3 -->
<g id="edge83" class="edge">
<title>&#45;17&#45;&gt;3</title>
<path fill="none" stroke="green" stroke-width="0.14" d="M170.22,-68.77C173.28,-67.75 176.5,-66.69 179.5,-65.7 225.59,-50.56 279.56,-33.17 309.81,-23.45"/>
<polygon fill="green" stroke="green" stroke-width="0.14" points="311.02,-26.73 319.47,-20.34 308.88,-20.07 311.02,-26.73"/>
</g>
<!-- &#45;17&#45;&gt;4 -->
<g id="edge84" class="edge">
<title>&#45;17&#45;&gt;4</title>
<path fill="none" stroke="green" stroke-width="0.27" d="M170.1,-68.34C173.17,-67.35 176.42,-66.41 179.5,-65.7 299.2,-38.15 337.18,-69.15 453.5,-29.7 454.38,-29.4 455.26,-29.07 456.14,-28.71"/>
<polygon fill="green" stroke="green" stroke-width="0.27" points="457.86,-31.76 465.24,-24.16 454.73,-25.5 457.86,-31.76"/>
</g>
<!-- &#45;18 -->
<g id="node18" class="node">
<title>&#45;18</title>
<polygon fill="lightgray" stroke="black" points="878,-83.7 849,-83.7 849,-65.7 878,-65.7 878,-83.7"/>
<text text-anchor="middle" x="863.5" y="-72.5" font-family="Times New Roman,serif" font-size="9.00">&#45;18</text>
</g>
<!-- &#45;18&#45;&gt;0 -->
<g id="edge85" class="edge">
<title>&#45;18&#45;&gt;0</title>
<path fill="none" stroke="green" stroke-width="0.31" d="M848.52,-68.06C845.87,-67.19 843.12,-66.36 840.5,-65.7 734.24,-39.04 604.06,-23.81 550.41,-18.27"/>
<polygon fill="green" stroke="green" stroke-width="0.31" points="550.75,-14.78 540.45,-17.26 550.05,-21.75 550.75,-14.78"/>
</g>
<!-- &#45;18&#45;&gt;1 -->
<g id="edge86" class="edge">
<title>&#45;18&#45;&gt;1</title>
<path fill="none" stroke="red" stroke-width="0.27" d="M848.56,-67.89C845.91,-67.04 843.15,-66.26 840.5,-65.7 650.71,-25.51 590.66,-87.58 405.5,-29.7 404.44,-29.37 403.38,-28.99 402.33,-28.56"/>
<polygon fill="red" stroke="red" stroke-width="0.27" points="403.74,-25.35 393.23,-23.99 400.59,-31.61 403.74,-25.35"/>
</g>
<!-- &#45;18&#45;&gt;2 -->
<g id="edge87" class="edge">
<title>&#45;18&#45;&gt;2</title>
<path fill="none" stroke="green" stroke-width="0.13" d="M848.56,-67.92C845.9,-67.06 843.14,-66.27 840.5,-65.7 671.69,-29.06 618.11,-82.08 453.5,-29.7 452.45,-29.36 451.39,-28.98 450.33,-28.55"/>
<polygon fill="green" stroke="green" stroke-width="0.13" points="451.74,-25.34 441.24,-23.97 448.59,-31.59 451.74,-25.34"/>
</g>
<!-- &#45;18&#45;&gt;4 -->
<g id="edge88" class="edge">
<title>&#45;18&#45;&gt;4</title>
<path fill="none" stroke="green" stroke-width="0.27" d="M848.55,-67.95C845.9,-67.09 843.14,-66.29 840.5,-65.7 692.65,-32.59 645.58,-76.58 501.5,-29.7 500.62,-29.41 499.74,-29.09 498.85,-28.74"/>
<polygon fill="green" stroke="green" stroke-width="0.27" points="500.25,-25.53 489.74,-24.22 497.15,-31.8 500.25,-25.53"/>
</g>
<!-- &#45;19 -->
<g id="node19" class="node">
<title>&#45;19</title>
<polygon fill="lightgray" stroke="black" points="217,-83.7 188,-83.7 188,-65.7 217,-65.7 217,-83.7"/>
<text text-anchor="middle" x="202.5" y="-72.5" font-family="Times New Roman,serif" font-size="9.00">&#45;19</text>
</g>
<!-- &#45;19&#45;&gt;0 -->
<g id="edge89" class="edge">
<title>&#45;19&#45;&gt;0</title>
<path fill="none" stroke="green" stroke-width="0.22" d="M217.1,-68.34C220.17,-67.35 223.42,-66.41 226.5,-65.7 346.63,-38.08 384.76,-69.27 501.5,-29.7 502.38,-29.4 503.26,-29.07 504.14,-28.71"/>
<polygon fill="green" stroke="green" stroke-width="0.22" points="505.86,-31.76 513.24,-24.16 502.73,-25.5 505.86,-31.76"/>
</g>
<!-- &#45;19&#45;&gt;1 -->
<g id="edge90" class="edge">
<title>&#45;19&#45;&gt;1</title>
<path fill="none" stroke="red" stroke-width="0.25" d="M217.18,-68.67C220.25,-67.65 223.47,-66.62 226.5,-65.7 284.27,-48.15 301.79,-52.98 357.5,-29.7 358.35,-29.34 359.22,-28.96 360.08,-28.56"/>
<polygon fill="red" stroke="red" stroke-width="0.25" points="361.89,-31.56 369.1,-23.81 358.63,-25.37 361.89,-31.56"/>
</g>
<!-- &#45;19&#45;&gt;2 -->
<g id="edge91" class="edge">
<title>&#45;19&#45;&gt;2</title>
<path fill="none" stroke="green" stroke-width="0.23" d="M217.14,-68.5C220.21,-67.5 223.44,-66.51 226.5,-65.7 304.92,-44.83 329.58,-58.36 405.5,-29.7 406.37,-29.37 407.24,-29.02 408.11,-28.64"/>
<polygon fill="green" stroke="green" stroke-width="0.23" points="409.88,-31.66 417.18,-23.98 406.68,-25.44 409.88,-31.66"/>
</g>
<!-- &#45;19&#45;&gt;3 -->
<g id="edge92" class="edge">
<title>&#45;19&#45;&gt;3</title>
<path fill="none" stroke="red" stroke-width="0.58" d="M217.02,-67.29C239.7,-57.27 283.73,-37.83 310.68,-25.93"/>
<polygon fill="red" stroke="red" stroke-width="0.58" points="312.36,-29.01 320.1,-21.77 309.53,-22.61 312.36,-29.01"/>
</g>
<!-- &#45;19&#45;&gt;4 -->
<g id="edge93" class="edge">
<title>&#45;19&#45;&gt;4</title>
<path fill="none" stroke="green" stroke-width="0.16" d="M217.11,-68.4C220.19,-67.41 223.43,-66.45 226.5,-65.7 325.73,-41.47 357.21,-63.8 453.5,-29.7 454.37,-29.39 455.25,-29.05 456.13,-28.68"/>
<polygon fill="green" stroke="green" stroke-width="0.16" points="457.87,-31.72 465.21,-24.09 454.71,-25.48 457.87,-31.72"/>
</g>
<!-- &#45;20 -->
<g id="node20" class="node">
<title>&#45;20</title>
<polygon fill="lightgray" stroke="black" points="264,-83.7 235,-83.7 235,-65.7 264,-65.7 264,-83.7"/>
<text text-anchor="middle" x="249.5" y="-72.5" font-family="Times New Roman,serif" font-size="9.00">&#45;20</text>
</g>
<!-- &#45;20&#45;&gt;0 -->
<g id="edge94" class="edge">
<title>&#45;20&#45;&gt;0</title>
<path fill="none" stroke="green" stroke-width="0.3" d="M264.11,-68.4C267.19,-67.41 270.43,-66.45 273.5,-65.7 373.17,-41.39 404.78,-63.91 501.5,-29.7 502.37,-29.39 503.25,-29.05 504.13,-28.68"/>
<polygon fill="green" stroke="green" stroke-width="0.3" points="505.87,-31.72 513.21,-24.09 502.71,-25.48 505.87,-31.72"/>
</g>
<!-- &#45;20&#45;&gt;1 -->
<g id="edge95" class="edge">
<title>&#45;20&#45;&gt;1</title>
<path fill="none" stroke="red" stroke-width="0.2" d="M264.1,-68.47C285.12,-60.79 324.95,-45.63 357.5,-29.7 358.33,-29.29 359.17,-28.87 360.02,-28.43"/>
<polygon fill="red" stroke="red" stroke-width="0.2" points="361.89,-31.39 368.97,-23.51 358.52,-25.26 361.89,-31.39"/>
</g>
<!-- &#45;20&#45;&gt;2 -->
<g id="edge96" class="edge">
<title>&#45;20&#45;&gt;2</title>
<path fill="none" stroke="green" stroke-width="0.42" d="M264.18,-68.66C267.25,-67.65 270.47,-66.61 273.5,-65.7 331.7,-48.08 349.37,-53.09 405.5,-29.7 406.35,-29.34 407.22,-28.96 408.08,-28.56"/>
<polygon fill="green" stroke="green" stroke-width="0.42" points="409.89,-31.57 417.11,-23.81 406.63,-25.37 409.89,-31.57"/>
</g>
<!-- &#45;20&#45;&gt;3 -->
<g id="edge97" class="edge">
<title>&#45;20&#45;&gt;3</title>
<path fill="none" stroke="red" stroke-width="0.2" d="M261.18,-65.65C274.64,-56.38 297.01,-40.98 313.31,-29.75"/>
<polygon fill="red" stroke="red" stroke-width="0.2" points="315.4,-32.57 321.65,-24.01 311.43,-26.8 315.4,-32.57"/>
</g>
<!-- &#45;20&#45;&gt;4 -->
<g id="edge98" class="edge">
<title>&#45;20&#45;&gt;4</title>
<path fill="none" stroke="red" stroke-width="0.53" d="M264.14,-68.5C267.21,-67.5 270.44,-66.51 273.5,-65.7 352.35,-44.76 377.16,-58.47 453.5,-29.7 454.37,-29.37 455.24,-29.02 456.11,-28.64"/>
<polygon fill="red" stroke="red" stroke-width="0.53" points="457.88,-31.66 465.18,-23.99 454.68,-25.44 457.88,-31.66"/>
</g>
</g>
</svg>
