<?xml version="1.0" encoding="UTF-8" standalone="no"?>
<!DOCTYPE svg PUBLIC "-//W3C//DTD SVG 1.1//EN"
 "http://www.w3.org/Graphics/SVG/1.1/DTD/svg11.dtd">
<!-- Generated by graphviz version 2.49.0 (20210828.1703)
 -->
<!-- Pages: 1 -->
<svg width="1589pt" height="170pt"
 viewBox="0.00 0.00 1589.39 170.12" xmlns="http://www.w3.org/2000/svg" xmlns:xlink="http://www.w3.org/1999/xlink">
<g id="graph0" class="graph" transform="scale(1 1) rotate(0) translate(4 166.12)">
<polygon fill="white" stroke="transparent" points="-4,4 -4,-166.12 1585.39,-166.12 1585.39,4 -4,4"/>
<!-- &#45;1 -->
<g id="node1" class="node">
<title>&#45;1</title>
<polygon fill="lightgray" stroke="black" points="1530.21,-162.12 1506.21,-162.12 1506.21,-144.12 1530.21,-144.12 1530.21,-162.12"/>
<text text-anchor="middle" x="1518.21" y="-150.92" font-family="Times New Roman,serif" font-size="9.00">&#45;1</text>
</g>
<!-- 1 -->
<g id="node22" class="node">
<title>1</title>
<ellipse fill="lightblue" stroke="black" cx="525.21" cy="-14.85" rx="14.7" ry="14.7"/>
<text text-anchor="middle" x="525.21" y="-12.65" font-family="Times New Roman,serif" font-size="9.00">1</text>
</g>
<!-- &#45;1&#45;&gt;1 -->
<g id="edge1" class="edge">
<title>&#45;1&#45;&gt;1</title>
<path fill="none" stroke="red" stroke-width="0.54" d="M1506.05,-151.8C1380.69,-148.39 328.11,-119.43 317.21,-108.12 260.07,-48.85 433.8,-24.93 500.39,-18.09"/>
<polygon fill="red" stroke="red" stroke-width="0.54" points="500.84,-21.56 510.45,-17.1 500.16,-14.59 500.84,-21.56"/>
</g>
<!-- 2 -->
<g id="node23" class="node">
<title>2</title>
<ellipse fill="lightblue" stroke="black" cx="794.21" cy="-14.85" rx="14.7" ry="14.7"/>
<text text-anchor="middle" x="794.21" y="-12.65" font-family="Times New Roman,serif" font-size="9.00">2</text>
</g>
<!-- &#45;1&#45;&gt;2 -->
<g id="edge2" class="edge">
<title>&#45;1&#45;&gt;2</title>
<path fill="none" stroke="red" stroke-width="0.26" d="M1513.63,-144.04C1502.94,-126.1 1474.44,-83.18 1437.21,-65.7 1316.91,-9.21 971.06,-53.01 840.21,-29.7 832.82,-28.38 824.94,-26.28 817.83,-24.1"/>
<polygon fill="red" stroke="red" stroke-width="0.26" points="818.69,-20.71 808.1,-20.95 816.53,-27.36 818.69,-20.71"/>
</g>
<!-- 4 -->
<g id="node25" class="node">
<title>4</title>
<ellipse fill="lightblue" stroke="black" cx="864.21" cy="-14.85" rx="14.7" ry="14.7"/>
<text text-anchor="middle" x="864.21" y="-12.65" font-family="Times New Roman,serif" font-size="9.00">4</text>
</g>
<!-- &#45;1&#45;&gt;4 -->
<g id="edge3" class="edge">
<title>&#45;1&#45;&gt;4</title>
<path fill="none" stroke="green" stroke-width="0.27" stroke-dasharray="1,5" d="M1530.57,-146.42C1543.9,-139.49 1564.42,-126.42 1573.21,-108.12 1581.38,-91.13 1586.07,-79.49 1573.21,-65.7 1525.69,-14.71 1009.75,-14.9 889.27,-15.64"/>
<polygon fill="green" stroke="green" stroke-width="0.27" points="889.14,-12.14 879.17,-15.71 889.19,-19.14 889.14,-12.14"/>
</g>
<!-- 224 -->
<g id="node27" class="node">
<title>224</title>
<ellipse fill="white" stroke="black" cx="1543.21" cy="-86.91" rx="21.43" ry="21.43"/>
<text text-anchor="middle" x="1543.21" y="-84.71" font-family="Times New Roman,serif" font-size="9.00">224</text>
</g>
<!-- &#45;1&#45;&gt;224 -->
<g id="edge96" class="edge">
<title>&#45;1&#45;&gt;224</title>
<path fill="none" stroke="red" stroke-width="0.56" d="M1521.38,-143.99C1524.11,-136.98 1528.21,-126.44 1532.13,-116.37"/>
<polygon fill="red" stroke="red" stroke-width="0.56" points="1535.41,-117.59 1535.78,-107.01 1528.89,-115.05 1535.41,-117.59"/>
</g>
<!-- &#45;2 -->
<g id="node2" class="node">
<title>&#45;2</title>
<polygon fill="lightgray" stroke="black" points="582.21,-95.91 558.21,-95.91 558.21,-77.91 582.21,-77.91 582.21,-95.91"/>
<text text-anchor="middle" x="570.21" y="-84.71" font-family="Times New Roman,serif" font-size="9.00">&#45;2</text>
</g>
<!-- 0 -->
<g id="node21" class="node">
<title>0</title>
<ellipse fill="lightblue" stroke="black" cx="746.21" cy="-14.85" rx="14.7" ry="14.7"/>
<text text-anchor="middle" x="746.21" y="-12.65" font-family="Times New Roman,serif" font-size="9.00">0</text>
</g>
<!-- &#45;2&#45;&gt;0 -->
<g id="edge4" class="edge">
<title>&#45;2&#45;&gt;0</title>
<path fill="none" stroke="green" stroke-width="0.12" d="M577.69,-77.51C581.67,-73.47 586.84,-68.83 592.21,-65.7 634.34,-41.13 690.12,-26.96 721.68,-20.39"/>
<polygon fill="green" stroke="green" stroke-width="0.12" points="722.65,-23.76 731.78,-18.37 721.28,-16.9 722.65,-23.76"/>
</g>
<!-- &#45;2&#45;&gt;1 -->
<g id="edge5" class="edge">
<title>&#45;2&#45;&gt;1</title>
<path fill="none" stroke="green" stroke-width="0.44" d="M565.05,-77.87C558.57,-67.79 547.23,-50.14 538.31,-36.23"/>
<polygon fill="green" stroke="green" stroke-width="0.44" points="541.21,-34.28 532.86,-27.76 535.32,-38.06 541.21,-34.28"/>
</g>
<!-- &#45;2&#45;&gt;2 -->
<g id="edge6" class="edge">
<title>&#45;2&#45;&gt;2</title>
<path fill="none" stroke="green" stroke-width="0.28" d="M577.16,-77.66C581.14,-73.45 586.48,-68.62 592.21,-65.7 664.13,-29.05 694.72,-58.24 770.21,-29.7 771.08,-29.37 771.95,-29.01 772.82,-28.64"/>
<polygon fill="green" stroke="green" stroke-width="0.28" points="774.59,-31.66 781.89,-23.98 771.39,-25.43 774.59,-31.66"/>
</g>
<!-- 3 -->
<g id="node24" class="node">
<title>3</title>
<ellipse fill="lightblue" stroke="black" cx="594.21" cy="-14.85" rx="14.7" ry="14.7"/>
<text text-anchor="middle" x="594.21" y="-12.65" font-family="Times New Roman,serif" font-size="9.00">3</text>
</g>
<!-- &#45;2&#45;&gt;3 -->
<g id="edge7" class="edge">
<title>&#45;2&#45;&gt;3</title>
<path fill="none" stroke="green" stroke-width="0.41" d="M572.97,-77.87C576.22,-68.37 581.79,-52.12 586.4,-38.64"/>
<polygon fill="green" stroke="green" stroke-width="0.41" points="589.77,-39.63 589.7,-29.03 583.15,-37.36 589.77,-39.63"/>
</g>
<!-- &#45;2&#45;&gt;4 -->
<g id="edge8" class="edge">
<title>&#45;2&#45;&gt;4</title>
<path fill="none" stroke="red" stroke-width="0.97" d="M577.11,-77.57C581.08,-73.33 586.42,-68.5 592.21,-65.7 683.77,-21.41 719.07,-52.41 818.21,-29.7 825.53,-28.02 833.39,-25.81 840.51,-23.65"/>
<polygon fill="red" stroke="red" stroke-width="0.97" points="841.76,-26.93 850.25,-20.59 839.66,-20.25 841.76,-26.93"/>
</g>
<!-- &#45;3 -->
<g id="node3" class="node">
<title>&#45;3</title>
<polygon fill="lightgray" stroke="black" points="719.21,-95.91 695.21,-95.91 695.21,-77.91 719.21,-77.91 719.21,-95.91"/>
<text text-anchor="middle" x="707.21" y="-84.71" font-family="Times New Roman,serif" font-size="9.00">&#45;3</text>
</g>
<!-- &#45;3&#45;&gt;0 -->
<g id="edge9" class="edge">
<title>&#45;3&#45;&gt;0</title>
<path fill="none" stroke="red" stroke-width="0.54" d="M711.69,-77.87C717.18,-68 726.72,-50.88 734.37,-37.12"/>
<polygon fill="red" stroke="red" stroke-width="0.54" points="737.5,-38.7 739.3,-28.26 731.38,-35.3 737.5,-38.7"/>
</g>
<!-- &#45;3&#45;&gt;1 -->
<g id="edge10" class="edge">
<title>&#45;3&#45;&gt;1</title>
<path fill="none" stroke="red" stroke-width="0.58" d="M700.53,-77.88C696.71,-73.73 691.62,-68.89 686.21,-65.7 685.45,-65.25 593.43,-36.87 548.87,-23.14"/>
<polygon fill="red" stroke="red" stroke-width="0.58" points="549.72,-19.74 539.14,-20.14 547.66,-26.43 549.72,-19.74"/>
</g>
<!-- &#45;3&#45;&gt;2 -->
<g id="edge11" class="edge">
<title>&#45;3&#45;&gt;2</title>
<path fill="none" stroke="green" stroke-width="0.31" d="M715.18,-77.81C719.02,-74.02 723.75,-69.51 728.21,-65.7 742.94,-53.12 760.47,-39.96 773.76,-30.32"/>
<polygon fill="green" stroke="green" stroke-width="0.31" points="776.12,-32.94 782.2,-24.26 772.04,-27.25 776.12,-32.94"/>
</g>
<!-- &#45;3&#45;&gt;3 -->
<g id="edge12" class="edge">
<title>&#45;3&#45;&gt;3</title>
<path fill="none" stroke="red" stroke-width="0.16" d="M699.88,-77.89C696.04,-73.95 691.11,-69.28 686.21,-65.7 664.11,-49.54 636.14,-35.12 616.88,-26.01"/>
<polygon fill="red" stroke="red" stroke-width="0.16" points="618.22,-22.77 607.67,-21.74 615.27,-29.12 618.22,-22.77"/>
</g>
<!-- &#45;3&#45;&gt;4 -->
<g id="edge13" class="edge">
<title>&#45;3&#45;&gt;4</title>
<path fill="none" stroke="green" stroke-width="0.38" d="M714.34,-77.58C718.13,-73.56 723.06,-68.92 728.21,-65.7 747.36,-53.73 806.56,-34.02 840.2,-23.33"/>
<polygon fill="green" stroke="green" stroke-width="0.38" points="841.66,-26.54 850.14,-20.19 839.55,-19.86 841.66,-26.54"/>
</g>
<!-- &#45;4 -->
<g id="node4" class="node">
<title>&#45;4</title>
<polygon fill="lightgray" stroke="black" points="1144.21,-162.12 1120.21,-162.12 1120.21,-144.12 1144.21,-144.12 1144.21,-162.12"/>
<text text-anchor="middle" x="1132.21" y="-150.92" font-family="Times New Roman,serif" font-size="9.00">&#45;4</text>
</g>
<!-- &#45;4&#45;&gt;1 -->
<g id="edge14" class="edge">
<title>&#45;4&#45;&gt;1</title>
<path fill="none" stroke="green" stroke-width="0.25" d="M1119.98,-152C1014.74,-150.89 265.27,-141.79 233.21,-108.12 154.09,-25.03 415.88,-16.46 500.03,-15.81"/>
<polygon fill="green" stroke="green" stroke-width="0.25" points="500.26,-19.31 510.25,-15.77 500.23,-12.31 500.26,-19.31"/>
</g>
<!-- &#45;4&#45;&gt;2 -->
<g id="edge15" class="edge">
<title>&#45;4&#45;&gt;2</title>
<path fill="none" stroke="green" stroke-width="0.43" d="M1131.53,-143.86C1129.6,-126.33 1122.48,-85.42 1097.21,-65.7 1051.75,-30.22 896.54,-42.05 840.21,-29.7 832.88,-28.09 825.01,-25.9 817.9,-23.74"/>
<polygon fill="green" stroke="green" stroke-width="0.43" points="818.75,-20.34 808.16,-20.66 816.64,-27.01 818.75,-20.34"/>
</g>
<!-- &#45;4&#45;&gt;3 -->
<g id="edge16" class="edge">
<title>&#45;4&#45;&gt;3</title>
<path fill="none" stroke="green" stroke-width="0.12" stroke-dasharray="1,5" d="M1120.16,-152C1016.44,-150.82 277.8,-141.32 246.21,-108.12 233.21,-94.46 233.69,-79.8 246.21,-65.7 291.24,-15 482.87,-43.73 549.21,-29.7 556.14,-28.23 563.53,-26.17 570.28,-24.09"/>
<polygon fill="green" stroke="green" stroke-width="0.12" points="571.76,-27.29 580.2,-20.88 569.61,-20.63 571.76,-27.29"/>
</g>
<!-- &#45;4&#45;&gt;4 -->
<g id="edge17" class="edge">
<title>&#45;4&#45;&gt;4</title>
<path fill="none" stroke="red" stroke-width="0.27" stroke-dasharray="1,5" d="M1144.59,-147.23C1147.41,-146.17 1150.4,-145.08 1153.21,-144.12 1206.36,-126.13 1240.67,-153.1 1274.21,-108.12 1285.49,-93.01 1286.72,-79.81 1274.21,-65.7 1248.54,-36.71 974.23,-21.15 889.2,-17"/>
<polygon fill="red" stroke="red" stroke-width="0.27" points="889.3,-13.5 879.14,-16.51 888.97,-20.49 889.3,-13.5"/>
</g>
<!-- 192 -->
<g id="node26" class="node">
<title>192</title>
<ellipse fill="white" stroke="black" cx="1347.21" cy="-86.91" rx="21.43" ry="21.43"/>
<text text-anchor="middle" x="1347.21" y="-84.71" font-family="Times New Roman,serif" font-size="9.00">192</text>
</g>
<!-- &#45;4&#45;&gt;192 -->
<g id="edge94" class="edge">
<title>&#45;4&#45;&gt;192</title>
<path fill="none" stroke="green" stroke-width="0.11" d="M1144.55,-147.09C1147.37,-146.04 1150.37,-144.98 1153.21,-144.12 1222.57,-123.18 1244.75,-134.54 1312.21,-108.12 1315.12,-106.98 1318.08,-105.63 1320.98,-104.17"/>
<polygon fill="green" stroke="green" stroke-width="0.11" points="1322.84,-107.14 1329.93,-99.27 1319.47,-101 1322.84,-107.14"/>
</g>
<!-- &#45;5 -->
<g id="node5" class="node">
<title>&#45;5</title>
<polygon fill="lightgray" stroke="black" points="1186.21,-162.12 1162.21,-162.12 1162.21,-144.12 1186.21,-144.12 1186.21,-162.12"/>
<text text-anchor="middle" x="1174.21" y="-150.92" font-family="Times New Roman,serif" font-size="9.00">&#45;5</text>
</g>
<!-- &#45;5&#45;&gt;0 -->
<g id="edge18" class="edge">
<title>&#45;5&#45;&gt;0</title>
<path fill="none" stroke="green" stroke-width="0.21" d="M1161.83,-147.23C1159.01,-146.17 1156.02,-145.08 1153.21,-144.12 1100.07,-126.13 1079.8,-137.85 1032.21,-108.12 1010.49,-94.56 1015.77,-77.84 993.21,-65.7 904.81,-18.12 864.8,-63.34 770.21,-29.7 769.34,-29.39 768.46,-29.05 767.59,-28.68"/>
<polygon fill="green" stroke="green" stroke-width="0.21" points="769,-25.47 758.5,-24.08 765.84,-31.72 769,-25.47"/>
</g>
<!-- &#45;5&#45;&gt;1 -->
<g id="edge19" class="edge">
<title>&#45;5&#45;&gt;1</title>
<path fill="none" stroke="red" stroke-width="0.23" d="M1161.97,-146.71C1159.15,-145.67 1156.12,-144.72 1153.21,-144.12 1106.98,-134.6 336.88,-142.21 304.21,-108.12 243.86,-45.16 430.82,-23.42 500.3,-17.63"/>
<polygon fill="red" stroke="red" stroke-width="0.23" points="500.69,-21.11 510.38,-16.83 500.14,-14.13 500.69,-21.11"/>
</g>
<!-- &#45;5&#45;&gt;2 -->
<g id="edge20" class="edge">
<title>&#45;5&#45;&gt;2</title>
<path fill="none" stroke="red" stroke-width="0.33" d="M1172.15,-144.02C1167.22,-126.42 1152.95,-84.78 1124.21,-65.7 1018.22,4.69 964.67,-56.13 840.21,-29.7 832.87,-28.14 825,-25.96 817.89,-23.8"/>
<polygon fill="red" stroke="red" stroke-width="0.33" points="818.74,-20.4 808.15,-20.71 816.62,-27.07 818.74,-20.4"/>
</g>
<!-- &#45;5&#45;&gt;3 -->
<g id="edge21" class="edge">
<title>&#45;5&#45;&gt;3</title>
<path fill="none" stroke="green" stroke-width="0.74" d="M1161.97,-146.71C1159.15,-145.67 1156.12,-144.72 1153.21,-144.12 1107.69,-134.73 349.37,-141.7 317.21,-108.12 304.17,-94.51 304.94,-80.02 317.21,-65.7 351.16,-26.08 498.37,-41.4 549.21,-29.7 556.11,-28.11 563.5,-26.01 570.25,-23.93"/>
<polygon fill="green" stroke="green" stroke-width="0.74" points="571.72,-27.13 580.17,-20.75 569.58,-20.47 571.72,-27.13"/>
</g>
<!-- &#45;5&#45;&gt;4 -->
<g id="edge22" class="edge">
<title>&#45;5&#45;&gt;4</title>
<path fill="none" stroke="green" stroke-width="0.19" d="M1186.41,-152.14C1247.13,-151.87 1510.94,-146.12 1437.21,-65.7 1399.7,-24.78 994.98,-17.33 889.32,-16.09"/>
<polygon fill="green" stroke="green" stroke-width="0.19" points="889.3,-12.59 879.26,-15.97 889.22,-19.58 889.3,-12.59"/>
</g>
<!-- 171 -->
<g id="node28" class="node">
<title>171</title>
<ellipse fill="white" stroke="black" cx="1407.21" cy="-86.91" rx="21.43" ry="21.43"/>
<text text-anchor="middle" x="1407.21" y="-84.71" font-family="Times New Roman,serif" font-size="9.00">171</text>
</g>
<!-- &#45;5&#45;&gt;171 -->
<g id="edge92" class="edge">
<title>&#45;5&#45;&gt;171</title>
<path fill="none" stroke="green" stroke-width="0.49" d="M1186.6,-151.08C1219.07,-148 1308.88,-137.27 1377.21,-108.12 1378.8,-107.45 1380.4,-106.68 1381.97,-105.86"/>
<polygon fill="green" stroke="green" stroke-width="0.49" points="1383.93,-108.77 1390.72,-100.64 1380.34,-102.75 1383.93,-108.77"/>
</g>
<!-- &#45;6 -->
<g id="node6" class="node">
<title>&#45;6</title>
<polygon fill="lightgray" stroke="black" points="761.21,-95.91 737.21,-95.91 737.21,-77.91 761.21,-77.91 761.21,-95.91"/>
<text text-anchor="middle" x="749.21" y="-84.71" font-family="Times New Roman,serif" font-size="9.00">&#45;6</text>
</g>
<!-- &#45;6&#45;&gt;0 -->
<g id="edge23" class="edge">
<title>&#45;6&#45;&gt;0</title>
<path fill="none" stroke="red" stroke-width="0.27" d="M748.87,-77.87C748.48,-68.72 747.82,-53.33 747.25,-40.16"/>
<polygon fill="red" stroke="red" stroke-width="0.27" points="750.74,-39.66 746.81,-29.82 743.74,-39.96 750.74,-39.66"/>
</g>
<!-- &#45;6&#45;&gt;1 -->
<g id="edge24" class="edge">
<title>&#45;6&#45;&gt;1</title>
<path fill="none" stroke="red" stroke-width="0.4" d="M742.62,-77.71C738.83,-73.52 733.73,-68.68 728.21,-65.7 664.84,-31.48 639.79,-48.3 570.21,-29.7 563.37,-27.87 556.01,-25.69 549.26,-23.61"/>
<polygon fill="red" stroke="red" stroke-width="0.4" points="549.91,-20.15 539.32,-20.49 547.81,-26.83 549.91,-20.15"/>
</g>
<!-- &#45;6&#45;&gt;2 -->
<g id="edge25" class="edge">
<title>&#45;6&#45;&gt;2</title>
<path fill="none" stroke="green" stroke-width="0.49" d="M754.38,-77.87C760.85,-67.79 772.19,-50.14 781.12,-36.23"/>
<polygon fill="green" stroke="green" stroke-width="0.49" points="784.11,-38.06 786.57,-27.76 778.22,-34.28 784.11,-38.06"/>
</g>
<!-- &#45;6&#45;&gt;3 -->
<g id="edge26" class="edge">
<title>&#45;6&#45;&gt;3</title>
<path fill="none" stroke="green" stroke-width="0.16" d="M742.08,-77.6C738.29,-73.57 733.35,-68.93 728.21,-65.7 693,-43.56 646.46,-29.04 618.52,-21.66"/>
<polygon fill="green" stroke="green" stroke-width="0.16" points="619.34,-18.25 608.78,-19.17 617.61,-25.04 619.34,-18.25"/>
</g>
<!-- &#45;6&#45;&gt;4 -->
<g id="edge27" class="edge">
<title>&#45;6&#45;&gt;4</title>
<path fill="none" stroke="green" stroke-width="0.26" d="M756.53,-77.88C760.37,-73.93 765.3,-69.26 770.21,-65.7 792.99,-49.2 821.93,-34.69 841.64,-25.64"/>
<polygon fill="green" stroke="green" stroke-width="0.26" points="843.08,-28.83 850.77,-21.54 840.21,-22.45 843.08,-28.83"/>
</g>
<!-- &#45;7 -->
<g id="node7" class="node">
<title>&#45;7</title>
<polygon fill="lightgray" stroke="black" points="803.21,-95.91 779.21,-95.91 779.21,-77.91 803.21,-77.91 803.21,-95.91"/>
<text text-anchor="middle" x="791.21" y="-84.71" font-family="Times New Roman,serif" font-size="9.00">&#45;7</text>
</g>
<!-- &#45;7&#45;&gt;0 -->
<g id="edge28" class="edge">
<title>&#45;7&#45;&gt;0</title>
<path fill="none" stroke="red" stroke-width="0.45" d="M786.05,-77.87C779.57,-67.79 768.23,-50.14 759.31,-36.23"/>
<polygon fill="red" stroke="red" stroke-width="0.45" points="762.21,-34.28 753.86,-27.76 756.32,-38.06 762.21,-34.28"/>
</g>
<!-- &#45;7&#45;&gt;1 -->
<g id="edge29" class="edge">
<title>&#45;7&#45;&gt;1</title>
<path fill="none" stroke="red" stroke-width="0.12" d="M784.68,-77.61C780.9,-73.38 775.8,-68.55 770.21,-65.7 689.78,-24.62 657.98,-51.02 570.21,-29.7 563.33,-28.03 555.96,-25.9 549.21,-23.82"/>
<polygon fill="red" stroke="red" stroke-width="0.12" points="549.87,-20.36 539.28,-20.66 547.74,-27.03 549.87,-20.36"/>
</g>
<!-- &#45;7&#45;&gt;2 -->
<g id="edge30" class="edge">
<title>&#45;7&#45;&gt;2</title>
<path fill="none" stroke="red" stroke-width="0.59" stroke-dasharray="1,5" d="M791.56,-77.87C791.95,-68.72 792.61,-53.33 793.17,-40.16"/>
<polygon fill="red" stroke="red" stroke-width="0.59" points="796.68,-39.96 793.62,-29.82 789.69,-39.66 796.68,-39.96"/>
</g>
<!-- &#45;7&#45;&gt;3 -->
<g id="edge31" class="edge">
<title>&#45;7&#45;&gt;3</title>
<path fill="none" stroke="green" stroke-width="0.64" d="M784.56,-77.82C780.75,-73.66 775.65,-68.82 770.21,-65.7 720.79,-37.33 654.18,-24.24 618.76,-18.95"/>
<polygon fill="green" stroke="green" stroke-width="0.64" points="619.22,-15.47 608.82,-17.55 618.24,-22.41 619.22,-15.47"/>
</g>
<!-- &#45;7&#45;&gt;4 -->
<g id="edge32" class="edge">
<title>&#45;7&#45;&gt;4</title>
<path fill="none" stroke="red" stroke-width="0.28" d="M799.59,-77.87C810.84,-67.08 831.13,-47.6 845.98,-33.35"/>
<polygon fill="red" stroke="red" stroke-width="0.28" points="848.79,-35.5 853.58,-26.05 843.95,-30.45 848.79,-35.5"/>
</g>
<!-- &#45;8 -->
<g id="node8" class="node">
<title>&#45;8</title>
<polygon fill="lightgray" stroke="black" points="445.21,-95.91 421.21,-95.91 421.21,-77.91 445.21,-77.91 445.21,-95.91"/>
<text text-anchor="middle" x="433.21" y="-84.71" font-family="Times New Roman,serif" font-size="9.00">&#45;8</text>
</g>
<!-- &#45;8&#45;&gt;0 -->
<g id="edge33" class="edge">
<title>&#45;8&#45;&gt;0</title>
<path fill="none" stroke="green" stroke-width="0.15" d="M440.12,-77.59C444.1,-73.36 449.44,-68.53 455.21,-65.7 502.31,-42.58 660.16,-24.56 721.52,-18.27"/>
<polygon fill="green" stroke="green" stroke-width="0.15" points="721.89,-21.75 731.49,-17.26 721.18,-14.78 721.89,-21.75"/>
</g>
<!-- &#45;8&#45;&gt;1 -->
<g id="edge34" class="edge">
<title>&#45;8&#45;&gt;1</title>
<path fill="none" stroke="green" stroke-width="0.39" d="M441.56,-77.79C445.58,-73.99 450.54,-69.49 455.21,-65.7 471.19,-52.75 490.25,-39.3 504.44,-29.64"/>
<polygon fill="green" stroke="green" stroke-width="0.39" points="506.65,-32.37 512.99,-23.88 502.74,-26.56 506.65,-32.37"/>
</g>
<!-- &#45;8&#45;&gt;3 -->
<g id="edge35" class="edge">
<title>&#45;8&#45;&gt;3</title>
<path fill="none" stroke="green" stroke-width="0.54" stroke-dasharray="1,5" d="M440.73,-77.59C444.72,-73.56 449.89,-68.92 455.21,-65.7 475,-53.74 535.89,-33.89 570.15,-23.2"/>
<polygon fill="green" stroke="green" stroke-width="0.54" points="571.34,-26.5 579.86,-20.2 569.27,-19.81 571.34,-26.5"/>
</g>
<!-- &#45;8&#45;&gt;4 -->
<g id="edge36" class="edge">
<title>&#45;8&#45;&gt;4</title>
<path fill="none" stroke="red" stroke-width="0.13" d="M439.67,-77.84C443.65,-73.46 449.15,-68.41 455.21,-65.7 603.18,0.55 659.18,-61.22 818.21,-29.7 825.58,-28.24 833.45,-26.09 840.57,-23.92"/>
<polygon fill="red" stroke="red" stroke-width="0.13" points="841.84,-27.19 850.3,-20.81 839.71,-20.52 841.84,-27.19"/>
</g>
<!-- &#45;9 -->
<g id="node9" class="node">
<title>&#45;9</title>
<polygon fill="lightgray" stroke="black" points="548.21,-162.12 524.21,-162.12 524.21,-144.12 548.21,-144.12 548.21,-162.12"/>
<text text-anchor="middle" x="536.21" y="-150.92" font-family="Times New Roman,serif" font-size="9.00">&#45;9</text>
</g>
<!-- &#45;9&#45;&gt;0 -->
<g id="edge37" class="edge">
<title>&#45;9&#45;&gt;0</title>
<path fill="none" stroke="green" stroke-width="0.28" d="M548.48,-151.62C609.97,-148.96 882.77,-135.64 907.21,-108.12 919.74,-94.03 918.73,-80.63 907.21,-65.7 868.77,-15.84 828.44,-53.64 770.21,-29.7 769.36,-29.35 768.49,-28.97 767.63,-28.57"/>
<polygon fill="green" stroke="green" stroke-width="0.28" points="769.08,-25.38 758.6,-23.83 765.83,-31.58 769.08,-25.38"/>
</g>
<!-- &#45;9&#45;&gt;1 -->
<g id="edge38" class="edge">
<title>&#45;9&#45;&gt;1</title>
<path fill="none" stroke="red" stroke-width="0.67" d="M523.94,-151.86C455.59,-150.28 123.91,-140.92 94.21,-108.12 81.56,-94.15 81.67,-79.78 94.21,-65.7 121.36,-35.23 411.46,-20.62 499.82,-16.86"/>
<polygon fill="red" stroke="red" stroke-width="0.67" points="500.16,-20.35 510.01,-16.43 499.87,-13.35 500.16,-20.35"/>
</g>
<!-- &#45;9&#45;&gt;2 -->
<g id="edge39" class="edge">
<title>&#45;9&#45;&gt;2</title>
<path fill="none" stroke="green" stroke-width="0.23" stroke-dasharray="1,5" d="M548.66,-152.1C626.28,-151.82 1042.02,-148.45 1079.21,-108.12 1092,-94.26 1091.51,-79.99 1079.21,-65.7 1044.18,-24.99 892.62,-41.47 840.21,-29.7 832.89,-28.05 825.02,-25.85 817.91,-23.69"/>
<polygon fill="green" stroke="green" stroke-width="0.23" points="818.76,-20.29 808.17,-20.62 816.65,-26.96 818.76,-20.29"/>
</g>
<!-- &#45;9&#45;&gt;3 -->
<g id="edge40" class="edge">
<title>&#45;9&#45;&gt;3</title>
<path fill="none" stroke="red" stroke-width="0.44" stroke-dasharray="1,5" d="M524.11,-151.6C463.45,-148.88 194.31,-135.3 170.21,-108.12 157.7,-94.02 157.53,-79.65 170.21,-65.7 227.14,-3.11 466.24,-46.23 549.21,-29.7 556.43,-28.26 564.14,-26.12 571.1,-23.95"/>
<polygon fill="red" stroke="red" stroke-width="0.44" points="572.2,-27.27 580.61,-20.83 570.02,-20.62 572.2,-27.27"/>
</g>
<!-- &#45;9&#45;&gt;4 -->
<g id="edge41" class="edge">
<title>&#45;9&#45;&gt;4</title>
<path fill="none" stroke="green" stroke-width="0.24" d="M548.28,-151.84C639.42,-149.61 1216.47,-134.46 1241.21,-108.12 1254.12,-94.38 1253.64,-79.88 1241.21,-65.7 1217.94,-39.14 970.27,-22.16 889.52,-17.29"/>
<polygon fill="green" stroke="green" stroke-width="0.24" points="889.46,-13.78 879.27,-16.69 889.05,-20.77 889.46,-13.78"/>
</g>
<!-- 152 -->
<g id="node29" class="node">
<title>152</title>
<ellipse fill="white" stroke="black" cx="21.21" cy="-86.91" rx="21.43" ry="21.43"/>
<text text-anchor="middle" x="21.21" y="-84.71" font-family="Times New Roman,serif" font-size="9.00">152</text>
</g>
<!-- &#45;9&#45;&gt;152 -->
<g id="edge90" class="edge">
<title>&#45;9&#45;&gt;152</title>
<path fill="none" stroke="green" stroke-width="0.31" d="M523.94,-151.71C458.2,-149.4 147.33,-137.07 56.21,-108.12 53.23,-107.18 50.23,-105.95 47.3,-104.56"/>
<polygon fill="green" stroke="green" stroke-width="0.31" points="48.8,-101.39 38.33,-99.76 45.49,-107.57 48.8,-101.39"/>
</g>
<!-- &#45;10 -->
<g id="node10" class="node">
<title>&#45;10</title>
<polygon fill="lightgray" stroke="black" points="850.71,-95.91 821.71,-95.91 821.71,-77.91 850.71,-77.91 850.71,-95.91"/>
<text text-anchor="middle" x="836.21" y="-84.71" font-family="Times New Roman,serif" font-size="9.00">&#45;10</text>
</g>
<!-- &#45;10&#45;&gt;0 -->
<g id="edge42" class="edge">
<title>&#45;10&#45;&gt;0</title>
<path fill="none" stroke="green" stroke-width="0.31" d="M826.5,-77.53C822.17,-73.85 816.98,-69.5 812.21,-65.7 797.07,-53.62 779.57,-40.43 766.39,-30.66"/>
<polygon fill="green" stroke="green" stroke-width="0.31" points="768.16,-27.61 758.04,-24.49 764,-33.25 768.16,-27.61"/>
</g>
<!-- &#45;10&#45;&gt;1 -->
<g id="edge43" class="edge">
<title>&#45;10&#45;&gt;1</title>
<path fill="none" stroke="red" stroke-width="1.04" d="M828.56,-77.55C824.19,-73.31 818.37,-68.48 812.21,-65.7 713.09,-20.98 676.26,-53.76 570.21,-29.7 563.31,-28.13 555.92,-26.04 549.17,-23.96"/>
<polygon fill="red" stroke="red" stroke-width="1.04" points="549.84,-20.5 539.25,-20.77 547.7,-27.16 549.84,-20.5"/>
</g>
<!-- &#45;10&#45;&gt;2 -->
<g id="edge44" class="edge">
<title>&#45;10&#45;&gt;2</title>
<path fill="none" stroke="green" stroke-width="0.16" d="M831.4,-77.87C825.44,-67.95 815.09,-50.67 806.82,-36.87"/>
<polygon fill="green" stroke="green" stroke-width="0.16" points="809.65,-34.79 801.5,-28.01 803.64,-38.38 809.65,-34.79"/>
</g>
<!-- &#45;10&#45;&gt;3 -->
<g id="edge45" class="edge">
<title>&#45;10&#45;&gt;3</title>
<path fill="none" stroke="red" stroke-width="0.29" stroke-dasharray="1,5" d="M828.47,-77.73C824.08,-73.55 818.26,-68.71 812.21,-65.7 747.3,-33.35 661.04,-21.67 619.16,-17.72"/>
<polygon fill="red" stroke="red" stroke-width="0.29" points="619.3,-14.21 609.04,-16.83 618.69,-21.19 619.3,-14.21"/>
</g>
<!-- &#45;10&#45;&gt;4 -->
<g id="edge46" class="edge">
<title>&#45;10&#45;&gt;4</title>
<path fill="none" stroke="green" stroke-width="0.15" d="M839.43,-77.87C843.25,-68.31 849.8,-51.93 855.2,-38.4"/>
<polygon fill="green" stroke="green" stroke-width="0.15" points="858.59,-39.36 859.05,-28.77 852.09,-36.76 858.59,-39.36"/>
</g>
<!-- &#45;11 -->
<g id="node11" class="node">
<title>&#45;11</title>
<polygon fill="lightgray" stroke="black" points="676.71,-95.91 647.71,-95.91 647.71,-77.91 676.71,-77.91 676.71,-95.91"/>
<text text-anchor="middle" x="662.21" y="-84.71" font-family="Times New Roman,serif" font-size="9.00">&#45;11</text>
</g>
<!-- &#45;11&#45;&gt;0 -->
<g id="edge47" class="edge">
<title>&#45;11&#45;&gt;0</title>
<path fill="none" stroke="green" stroke-width="0.2" d="M672.01,-77.64C676.35,-73.97 681.53,-69.61 686.21,-65.7 699.92,-54.23 715.44,-41.34 727.26,-31.54"/>
<polygon fill="green" stroke="green" stroke-width="0.2" points="729.67,-34.09 735.14,-25.01 725.2,-28.7 729.67,-34.09"/>
</g>
<!-- &#45;11&#45;&gt;1 -->
<g id="edge48" class="edge">
<title>&#45;11&#45;&gt;1</title>
<path fill="none" stroke="red" stroke-width="0.31" d="M654.19,-77.76C649.99,-73.78 644.6,-69.12 639.21,-65.7 610,-47.11 572.68,-32.26 548.86,-23.75"/>
<polygon fill="red" stroke="red" stroke-width="0.31" points="549.83,-20.38 539.24,-20.4 547.53,-26.99 549.83,-20.38"/>
</g>
<!-- &#45;11&#45;&gt;2 -->
<g id="edge49" class="edge">
<title>&#45;11&#45;&gt;2</title>
<path fill="none" stroke="green" stroke-width="0.28" d="M670.63,-77.76C675.03,-73.78 680.65,-69.13 686.21,-65.7 720.79,-44.38 733.89,-47.88 770.21,-29.7 771.04,-29.28 771.88,-28.85 772.72,-28.41"/>
<polygon fill="green" stroke="green" stroke-width="0.28" points="774.61,-31.37 781.66,-23.47 771.22,-25.25 774.61,-31.37"/>
</g>
<!-- &#45;11&#45;&gt;3 -->
<g id="edge50" class="edge">
<title>&#45;11&#45;&gt;3</title>
<path fill="none" stroke="green" stroke-width="0.12" d="M654.41,-77.87C643.93,-67.08 625.03,-47.6 611.19,-33.35"/>
<polygon fill="green" stroke="green" stroke-width="0.12" points="613.59,-30.79 604.11,-26.05 608.57,-35.66 613.59,-30.79"/>
</g>
<!-- &#45;11&#45;&gt;4 -->
<g id="edge51" class="edge">
<title>&#45;11&#45;&gt;4</title>
<path fill="none" stroke="red" stroke-width="0.23" d="M670,-77.83C674.41,-73.68 680.23,-68.84 686.21,-65.7 740.06,-37.45 759.76,-46.47 818.21,-29.7 825.43,-27.63 833.26,-25.3 840.38,-23.15"/>
<polygon fill="red" stroke="red" stroke-width="0.23" points="841.6,-26.44 850.15,-20.19 839.56,-19.74 841.6,-26.44"/>
</g>
<!-- &#45;12 -->
<g id="node12" class="node">
<title>&#45;12</title>
<polygon fill="lightgray" stroke="black" points="1231.71,-95.91 1202.71,-95.91 1202.71,-77.91 1231.71,-77.91 1231.71,-95.91"/>
<text text-anchor="middle" x="1217.21" y="-84.71" font-family="Times New Roman,serif" font-size="9.00">&#45;12</text>
</g>
<!-- &#45;12&#45;&gt;0 -->
<g id="edge52" class="edge">
<title>&#45;12&#45;&gt;0</title>
<path fill="none" stroke="red" stroke-width="0.21" d="M1202.33,-83.58C1177.05,-79.67 1124.11,-71.6 1079.21,-65.7 942.13,-47.68 901.47,-73.15 770.21,-29.7 769.33,-29.41 768.45,-29.08 767.57,-28.73"/>
<polygon fill="red" stroke="red" stroke-width="0.21" points="768.97,-25.52 758.46,-24.2 765.86,-31.78 768.97,-25.52"/>
</g>
<!-- &#45;12&#45;&gt;4 -->
<g id="edge53" class="edge">
<title>&#45;12&#45;&gt;4</title>
<path fill="none" stroke="green" stroke-width="0.49" d="M1207.93,-77.79C1202.53,-73.51 1195.39,-68.57 1188.21,-65.7 1082.92,-23.56 945.23,-16.82 889.38,-15.9"/>
<polygon fill="green" stroke="green" stroke-width="0.49" points="889.08,-12.4 879.04,-15.78 889,-19.4 889.08,-12.4"/>
</g>
<!-- &#45;13 -->
<g id="node13" class="node">
<title>&#45;13</title>
<polygon fill="lightgray" stroke="black" points="897.71,-95.91 868.71,-95.91 868.71,-77.91 897.71,-77.91 897.71,-95.91"/>
<text text-anchor="middle" x="883.21" y="-84.71" font-family="Times New Roman,serif" font-size="9.00">&#45;13</text>
</g>
<!-- &#45;13&#45;&gt;0 -->
<g id="edge54" class="edge">
<title>&#45;13&#45;&gt;0</title>
<path fill="none" stroke="red" stroke-width="0.29" d="M875.24,-77.69C871.04,-73.69 865.65,-69.04 860.21,-65.7 823.5,-43.15 808.97,-48.51 770.21,-29.7 769.38,-29.29 768.54,-28.87 767.69,-28.44"/>
<polygon fill="red" stroke="red" stroke-width="0.29" points="769.19,-25.27 758.73,-23.53 765.82,-31.4 769.19,-25.27"/>
</g>
<!-- &#45;13&#45;&gt;1 -->
<g id="edge55" class="edge">
<title>&#45;13&#45;&gt;1</title>
<path fill="none" stroke="red" stroke-width="0.42" d="M876.37,-77.9C872.17,-73.54 866.42,-68.49 860.21,-65.7 741.74,-12.47 697.21,-56.9 570.21,-29.7 563.29,-28.22 555.9,-26.15 549.15,-24.07"/>
<polygon fill="red" stroke="red" stroke-width="0.42" points="549.82,-20.61 539.23,-20.86 547.67,-27.27 549.82,-20.61"/>
</g>
<!-- &#45;13&#45;&gt;2 -->
<g id="edge56" class="edge">
<title>&#45;13&#45;&gt;2</title>
<path fill="none" stroke="green" stroke-width="0.58" d="M874.39,-77.88C870.16,-74.11 864.99,-69.59 860.21,-65.7 845.2,-53.46 827.69,-40.28 814.48,-30.55"/>
<polygon fill="green" stroke="green" stroke-width="0.58" points="816.24,-27.5 806.1,-24.42 812.1,-33.15 816.24,-27.5"/>
</g>
<!-- &#45;13&#45;&gt;3 -->
<g id="edge57" class="edge">
<title>&#45;13&#45;&gt;3</title>
<path fill="none" stroke="red" stroke-width="0.54" d="M875.9,-77.63C871.72,-73.42 866.14,-68.58 860.21,-65.7 817.55,-44.93 676.62,-25.9 619.05,-18.8"/>
<polygon fill="red" stroke="red" stroke-width="0.54" points="619.35,-15.31 609,-17.57 618.51,-22.26 619.35,-15.31"/>
</g>
<!-- &#45;13&#45;&gt;4 -->
<g id="edge58" class="edge">
<title>&#45;13&#45;&gt;4</title>
<path fill="none" stroke="green" stroke-width="0.31" d="M881.03,-77.87C878.5,-68.52 874.19,-52.63 870.57,-39.28"/>
<polygon fill="green" stroke="green" stroke-width="0.31" points="873.85,-38.03 867.86,-29.29 867.1,-39.86 873.85,-38.03"/>
</g>
<!-- &#45;14 -->
<g id="node14" class="node">
<title>&#45;14</title>
<polygon fill="lightgray" stroke="black" points="1069.71,-95.91 1040.71,-95.91 1040.71,-77.91 1069.71,-77.91 1069.71,-95.91"/>
<text text-anchor="middle" x="1055.21" y="-84.71" font-family="Times New Roman,serif" font-size="9.00">&#45;14</text>
</g>
<!-- &#45;14&#45;&gt;0 -->
<g id="edge59" class="edge">
<title>&#45;14&#45;&gt;0</title>
<path fill="none" stroke="red" stroke-width="0.44" d="M1045.94,-77.75C1040.55,-73.47 1033.41,-68.53 1026.21,-65.7 919.27,-23.7 878.85,-67.1 770.21,-29.7 769.34,-29.4 768.46,-29.06 767.58,-28.7"/>
<polygon fill="red" stroke="red" stroke-width="0.44" points="768.99,-25.49 758.48,-24.13 765.85,-31.75 768.99,-25.49"/>
</g>
<!-- &#45;14&#45;&gt;2 -->
<g id="edge60" class="edge">
<title>&#45;14&#45;&gt;2</title>
<path fill="none" stroke="red" stroke-width="0.34" d="M1045.88,-77.9C1040.47,-73.65 1033.34,-68.71 1026.21,-65.7 948.66,-32.91 921.96,-49.86 840.21,-29.7 832.92,-27.9 825.07,-25.65 817.95,-23.5"/>
<polygon fill="red" stroke="red" stroke-width="0.34" points="818.79,-20.09 808.2,-20.46 816.71,-26.78 818.79,-20.09"/>
</g>
<!-- &#45;14&#45;&gt;3 -->
<g id="edge61" class="edge">
<title>&#45;14&#45;&gt;3</title>
<path fill="none" stroke="green" stroke-width="0.18" d="M1040.65,-80.29C1028.22,-75.7 1009.79,-69.4 993.21,-65.7 956.66,-57.53 700.93,-28.02 619.24,-18.69"/>
<polygon fill="green" stroke="green" stroke-width="0.18" points="619.44,-15.19 609.11,-17.54 618.65,-22.15 619.44,-15.19"/>
</g>
<!-- &#45;14&#45;&gt;4 -->
<g id="edge62" class="edge">
<title>&#45;14&#45;&gt;4</title>
<path fill="none" stroke="green" stroke-width="0.15" d="M1045.23,-77.79C1039.84,-73.72 1032.94,-68.98 1026.21,-65.7 979.87,-43.11 921.09,-28.09 888.59,-20.86"/>
<polygon fill="green" stroke="green" stroke-width="0.15" points="889.15,-17.4 878.64,-18.71 887.67,-24.24 889.15,-17.4"/>
</g>
<!-- &#45;15 -->
<g id="node15" class="node">
<title>&#45;15</title>
<polygon fill="lightgray" stroke="black" points="629.71,-95.91 600.71,-95.91 600.71,-77.91 629.71,-77.91 629.71,-95.91"/>
<text text-anchor="middle" x="615.21" y="-84.71" font-family="Times New Roman,serif" font-size="9.00">&#45;15</text>
</g>
<!-- &#45;15&#45;&gt;0 -->
<g id="edge63" class="edge">
<title>&#45;15&#45;&gt;0</title>
<path fill="none" stroke="red" stroke-width="0.34" d="M623.67,-77.84C628.08,-73.88 633.7,-69.21 639.21,-65.7 666.48,-48.3 700.8,-33.41 723.1,-24.54"/>
<polygon fill="red" stroke="red" stroke-width="0.34" points="724.39,-27.8 732.44,-20.91 721.85,-21.27 724.39,-27.8"/>
</g>
<!-- &#45;15&#45;&gt;1 -->
<g id="edge64" class="edge">
<title>&#45;15&#45;&gt;1</title>
<path fill="none" stroke="red" stroke-width="0.77" stroke-dasharray="1,5" d="M605.5,-77.53C601.17,-73.85 595.98,-69.5 591.21,-65.7 576.07,-53.62 558.57,-40.43 545.39,-30.66"/>
<polygon fill="red" stroke="red" stroke-width="0.77" points="547.16,-27.61 537.04,-24.49 543,-33.25 547.16,-27.61"/>
</g>
<!-- &#45;15&#45;&gt;2 -->
<g id="edge65" class="edge">
<title>&#45;15&#45;&gt;2</title>
<path fill="none" stroke="green" stroke-width="0.13" d="M623.01,-77.84C627.42,-73.68 633.23,-68.84 639.21,-65.7 692.66,-37.6 714.5,-52.98 770.21,-29.7 771.07,-29.34 771.93,-28.96 772.79,-28.56"/>
<polygon fill="green" stroke="green" stroke-width="0.13" points="774.6,-31.56 781.82,-23.81 771.34,-25.37 774.6,-31.56"/>
</g>
<!-- &#45;15&#45;&gt;3 -->
<g id="edge66" class="edge">
<title>&#45;15&#45;&gt;3</title>
<path fill="none" stroke="red" stroke-width="0.53" d="M612.8,-77.87C609.97,-68.42 605.14,-52.32 601.12,-38.89"/>
<polygon fill="red" stroke="red" stroke-width="0.53" points="604.47,-37.87 598.24,-29.29 597.76,-39.88 604.47,-37.87"/>
</g>
<!-- &#45;15&#45;&gt;4 -->
<g id="edge67" class="edge">
<title>&#45;15&#45;&gt;4</title>
<path fill="none" stroke="red" stroke-width="0.33" d="M622.92,-77.67C627.31,-73.47 633.13,-68.63 639.21,-65.7 712.31,-30.46 739.5,-49.42 818.21,-29.7 825.5,-27.87 833.35,-25.62 840.46,-23.46"/>
<polygon fill="red" stroke="red" stroke-width="0.33" points="841.7,-26.74 850.22,-20.44 839.63,-20.06 841.7,-26.74"/>
</g>
<!-- &#45;16 -->
<g id="node16" class="node">
<title>&#45;16</title>
<polygon fill="lightgray" stroke="black" points="402.71,-95.91 373.71,-95.91 373.71,-77.91 402.71,-77.91 402.71,-95.91"/>
<text text-anchor="middle" x="388.21" y="-84.71" font-family="Times New Roman,serif" font-size="9.00">&#45;16</text>
</g>
<!-- &#45;16&#45;&gt;1 -->
<g id="edge68" class="edge">
<title>&#45;16&#45;&gt;1</title>
<path fill="none" stroke="green" stroke-width="0.24" d="M396.64,-77.79C401.05,-73.82 406.67,-69.16 412.21,-65.7 441.37,-47.51 478.32,-32.56 501.86,-23.92"/>
<polygon fill="green" stroke="green" stroke-width="0.24" points="503.14,-27.18 511.37,-20.51 500.77,-20.59 503.14,-27.18"/>
</g>
<!-- &#45;16&#45;&gt;3 -->
<g id="edge69" class="edge">
<title>&#45;16&#45;&gt;3</title>
<path fill="none" stroke="green" stroke-width="0.41" d="M395.99,-77.81C400.4,-73.65 406.22,-68.81 412.21,-65.7 468.1,-36.71 488.67,-46.96 549.21,-29.7 556.02,-27.76 563.38,-25.54 570.13,-23.46"/>
<polygon fill="green" stroke="green" stroke-width="0.41" points="571.56,-26.68 580.07,-20.37 569.48,-20 571.56,-26.68"/>
</g>
<!-- &#45;16&#45;&gt;4 -->
<g id="edge70" class="edge">
<title>&#45;16&#45;&gt;4</title>
<path fill="none" stroke="red" stroke-width="0.35" d="M395.38,-77.81C399.78,-73.43 405.78,-68.38 412.21,-65.7 579.47,3.88 640.34,-63.99 818.21,-29.7 825.59,-28.28 833.46,-26.14 840.58,-23.97"/>
<polygon fill="red" stroke="red" stroke-width="0.35" points="841.86,-27.24 850.31,-20.85 839.71,-20.57 841.86,-27.24"/>
</g>
<!-- &#45;17 -->
<g id="node17" class="node">
<title>&#45;17</title>
<polygon fill="lightgray" stroke="black" points="539.71,-95.91 510.71,-95.91 510.71,-77.91 539.71,-77.91 539.71,-95.91"/>
<text text-anchor="middle" x="525.21" y="-84.71" font-family="Times New Roman,serif" font-size="9.00">&#45;17</text>
</g>
<!-- &#45;17&#45;&gt;0 -->
<g id="edge71" class="edge">
<title>&#45;17&#45;&gt;0</title>
<path fill="none" stroke="red" stroke-width="0.19" d="M532.98,-77.79C537.38,-73.62 543.2,-68.78 549.21,-65.7 606.5,-36.32 682.22,-23.49 720.98,-18.55"/>
<polygon fill="red" stroke="red" stroke-width="0.19" points="721.81,-21.98 731.33,-17.31 720.98,-15.03 721.81,-21.98"/>
</g>
<!-- &#45;17&#45;&gt;1 -->
<g id="edge72" class="edge">
<title>&#45;17&#45;&gt;1</title>
<path fill="none" stroke="red" stroke-width="0.64" d="M525.21,-77.87C525.21,-68.72 525.21,-53.33 525.21,-40.16"/>
<polygon fill="red" stroke="red" stroke-width="0.64" points="528.71,-39.82 525.21,-29.82 521.71,-39.82 528.71,-39.82"/>
</g>
<!-- &#45;17&#45;&gt;2 -->
<g id="edge73" class="edge">
<title>&#45;17&#45;&gt;2</title>
<path fill="none" stroke="green" stroke-width="0.45" d="M532.88,-77.58C537.25,-73.35 543.08,-68.52 549.21,-65.7 639.64,-24.15 676.47,-63.11 770.21,-29.7 771.09,-29.39 771.96,-29.05 772.84,-28.68"/>
<polygon fill="green" stroke="green" stroke-width="0.45" points="774.58,-31.72 781.92,-24.08 771.42,-25.47 774.58,-31.72"/>
</g>
<!-- &#45;17&#45;&gt;3 -->
<g id="edge74" class="edge">
<title>&#45;17&#45;&gt;3</title>
<path fill="none" stroke="green" stroke-width="0.93" d="M533.13,-77.87C543.76,-67.08 562.94,-47.6 576.98,-33.35"/>
<polygon fill="green" stroke="green" stroke-width="0.93" points="579.64,-35.63 584.17,-26.05 574.66,-30.72 579.64,-35.63"/>
</g>
<!-- &#45;17&#45;&gt;4 -->
<g id="edge75" class="edge">
<title>&#45;17&#45;&gt;4</title>
<path fill="none" stroke="green" stroke-width="0.12" d="M532.85,-77.51C537.21,-73.26 543.04,-68.43 549.21,-65.7 659.52,-16.9 700.31,-55.17 818.21,-29.7 825.55,-28.11 833.42,-25.93 840.53,-23.77"/>
<polygon fill="green" stroke="green" stroke-width="0.12" points="841.8,-27.04 850.27,-20.68 839.68,-20.36 841.8,-27.04"/>
</g>
<!-- &#45;18 -->
<g id="node18" class="node">
<title>&#45;18</title>
<polygon fill="lightgray" stroke="black" points="983.71,-95.91 954.71,-95.91 954.71,-77.91 983.71,-77.91 983.71,-95.91"/>
<text text-anchor="middle" x="969.21" y="-84.71" font-family="Times New Roman,serif" font-size="9.00">&#45;18</text>
</g>
<!-- &#45;18&#45;&gt;0 -->
<g id="edge76" class="edge">
<title>&#45;18&#45;&gt;0</title>
<path fill="none" stroke="green" stroke-width="0.18" d="M959.6,-77.74C954.22,-73.56 947.2,-68.72 940.21,-65.7 869.34,-35.01 842.33,-57.34 770.21,-29.7 769.35,-29.37 768.48,-29.01 767.61,-28.62"/>
<polygon fill="green" stroke="green" stroke-width="0.18" points="769.04,-25.43 758.55,-23.96 765.83,-31.65 769.04,-25.43"/>
</g>
<!-- &#45;18&#45;&gt;1 -->
<g id="edge77" class="edge">
<title>&#45;18&#45;&gt;1</title>
<path fill="none" stroke="red" stroke-width="0.21" d="M954.67,-80.21C942.25,-75.58 923.82,-69.25 907.21,-65.7 759.92,-34.18 717.77,-59.99 570.21,-29.7 563.28,-28.27 555.88,-26.23 549.13,-24.14"/>
<polygon fill="red" stroke="red" stroke-width="0.21" points="549.81,-20.68 539.22,-20.92 547.65,-27.34 549.81,-20.68"/>
</g>
<!-- &#45;18&#45;&gt;2 -->
<g id="edge78" class="edge">
<title>&#45;18&#45;&gt;2</title>
<path fill="none" stroke="green" stroke-width="0.26" d="M959.18,-77.88C953.79,-73.83 946.89,-69.08 940.21,-65.7 918.45,-54.68 853.74,-34.1 818.22,-23.15"/>
<polygon fill="green" stroke="green" stroke-width="0.26" points="818.8,-19.66 808.21,-20.08 816.74,-26.36 818.8,-19.66"/>
</g>
<!-- &#45;18&#45;&gt;3 -->
<g id="edge79" class="edge">
<title>&#45;18&#45;&gt;3</title>
<path fill="none" stroke="red" stroke-width="0.45" stroke-dasharray="1,5" d="M954.62,-80.43C942.17,-75.93 923.72,-69.68 907.21,-65.7 801.59,-40.24 672.69,-24.4 619.26,-18.48"/>
<polygon fill="red" stroke="red" stroke-width="0.45" points="619.36,-14.97 609.04,-17.37 618.61,-21.93 619.36,-14.97"/>
</g>
<!-- &#45;18&#45;&gt;4 -->
<g id="edge80" class="edge">
<title>&#45;18&#45;&gt;4</title>
<path fill="none" stroke="green" stroke-width="0.12" d="M957.69,-77.77C952.39,-74.05 946.01,-69.62 940.21,-65.7 921.7,-53.18 900.42,-39.26 885.09,-29.32"/>
<polygon fill="green" stroke="green" stroke-width="0.12" points="886.69,-26.18 876.39,-23.69 882.89,-32.06 886.69,-26.18"/>
</g>
<!-- &#45;19 -->
<g id="node19" class="node">
<title>&#45;19</title>
<polygon fill="lightgray" stroke="black" points="492.71,-95.91 463.71,-95.91 463.71,-77.91 492.71,-77.91 492.71,-95.91"/>
<text text-anchor="middle" x="478.21" y="-84.71" font-family="Times New Roman,serif" font-size="9.00">&#45;19</text>
</g>
<!-- &#45;19&#45;&gt;0 -->
<g id="edge81" class="edge">
<title>&#45;19&#45;&gt;0</title>
<path fill="none" stroke="red" stroke-width="0.19" d="M485.93,-77.68C490.31,-73.48 496.13,-68.64 502.21,-65.7 540.99,-46.93 667.24,-27.18 721.29,-19.34"/>
<polygon fill="red" stroke="red" stroke-width="0.19" points="721.98,-22.78 731.38,-17.9 720.99,-15.85 721.98,-22.78"/>
</g>
<!-- &#45;19&#45;&gt;1 -->
<g id="edge82" class="edge">
<title>&#45;19&#45;&gt;1</title>
<path fill="none" stroke="red" stroke-width="0.22" d="M483.6,-77.87C490.41,-67.73 502.35,-49.93 511.7,-35.99"/>
<polygon fill="red" stroke="red" stroke-width="0.22" points="514.73,-37.76 517.39,-27.51 508.92,-33.86 514.73,-37.76"/>
</g>
<!-- &#45;19&#45;&gt;2 -->
<g id="edge83" class="edge">
<title>&#45;19&#45;&gt;2</title>
<path fill="none" stroke="green" stroke-width="0.74" d="M485.85,-77.51C490.21,-73.26 496.04,-68.43 502.21,-65.7 612.11,-17.05 656.46,-68.47 770.21,-29.7 771.09,-29.4 771.97,-29.07 772.85,-28.71"/>
<polygon fill="green" stroke="green" stroke-width="0.74" points="774.58,-31.76 781.95,-24.15 771.44,-25.5 774.58,-31.76"/>
</g>
<!-- &#45;19&#45;&gt;3 -->
<g id="edge84" class="edge">
<title>&#45;19&#45;&gt;3</title>
<path fill="none" stroke="red" stroke-width="0.24" d="M487.21,-77.58C491.57,-73.74 496.99,-69.26 502.21,-65.7 524.84,-50.28 552.71,-35.73 571.81,-26.38"/>
<polygon fill="red" stroke="red" stroke-width="0.24" points="573.44,-29.48 580.93,-21.99 570.4,-23.18 573.44,-29.48"/>
</g>
<!-- &#45;19&#45;&gt;4 -->
<g id="edge85" class="edge">
<title>&#45;19&#45;&gt;4</title>
<path fill="none" stroke="green" stroke-width="0.26" d="M485.41,-77.87C489.81,-73.51 495.81,-68.46 502.21,-65.7 632.04,-9.78 679.76,-58.19 818.21,-29.7 825.57,-28.19 833.44,-26.02 840.55,-23.86"/>
<polygon fill="green" stroke="green" stroke-width="0.26" points="841.82,-27.13 850.29,-20.75 839.7,-20.46 841.82,-27.13"/>
</g>
<!-- &#45;20 -->
<g id="node20" class="node">
<title>&#45;20</title>
<polygon fill="lightgray" stroke="black" points="355.71,-95.91 326.71,-95.91 326.71,-77.91 355.71,-77.91 355.71,-95.91"/>
<text text-anchor="middle" x="341.21" y="-84.71" font-family="Times New Roman,serif" font-size="9.00">&#45;20</text>
</g>
<!-- &#45;20&#45;&gt;0 -->
<g id="edge86" class="edge">
<title>&#45;20&#45;&gt;0</title>
<path fill="none" stroke="green" stroke-width="0.5" d="M348.06,-77.91C352.27,-73.56 358.02,-68.51 364.21,-65.7 380.59,-58.28 639.17,-28.13 721.35,-18.69"/>
<polygon fill="green" stroke="green" stroke-width="0.5" points="721.98,-22.14 731.52,-17.52 721.19,-15.19 721.98,-22.14"/>
</g>
<!-- &#45;20&#45;&gt;1 -->
<g id="edge87" class="edge">
<title>&#45;20&#45;&gt;1</title>
<path fill="none" stroke="green" stroke-width="0.1" d="M348.67,-77.9C352.89,-73.76 358.46,-68.92 364.21,-65.7 408.94,-40.64 467.85,-26.54 500.59,-20.13"/>
<polygon fill="green" stroke="green" stroke-width="0.1" points="501.44,-23.53 510.62,-18.24 500.15,-16.65 501.44,-23.53"/>
</g>
<!-- &#45;20&#45;&gt;2 -->
<g id="edge88" class="edge">
<title>&#45;20&#45;&gt;2</title>
<path fill="none" stroke="red" stroke-width="0.31" d="M348.02,-77.81C352.21,-73.43 357.96,-68.38 364.21,-65.7 530.73,5.63 597.47,-84.25 770.21,-29.7 771.27,-29.37 772.33,-28.98 773.38,-28.56"/>
<polygon fill="red" stroke="red" stroke-width="0.31" points="775.12,-31.6 782.48,-23.98 771.97,-25.35 775.12,-31.6"/>
</g>
<!-- &#45;20&#45;&gt;3 -->
<g id="edge89" class="edge">
<title>&#45;20&#45;&gt;3</title>
<path fill="none" stroke="red" stroke-width="0.54" d="M348.53,-77.65C352.72,-73.44 358.3,-68.6 364.21,-65.7 439.4,-28.77 467.96,-50.05 549.21,-29.7 556.08,-27.98 563.45,-25.84 570.2,-23.76"/>
<polygon fill="red" stroke="red" stroke-width="0.54" points="571.66,-26.97 580.13,-20.6 569.54,-20.29 571.66,-26.97"/>
</g>
<!-- 192&#45;&gt;4 -->
<g id="edge95" class="edge">
<title>192&#45;&gt;4</title>
<path fill="none" stroke="red" stroke-width="0.12" d="M1330.08,-74.13C1324.59,-70.89 1318.35,-67.71 1312.21,-65.7 1232.42,-39.5 971.51,-22.19 889.27,-17.28"/>
<polygon fill="red" stroke="red" stroke-width="0.12" points="889.29,-13.78 879.1,-16.68 888.88,-20.76 889.29,-13.78"/>
</g>
<!-- 224&#45;&gt;4 -->
<g id="edge97" class="edge">
<title>224&#45;&gt;4</title>
<path fill="none" stroke="green" stroke-width="0.34" d="M1526.12,-74.01C1520.63,-70.76 1514.38,-67.61 1508.21,-65.7 1389.49,-28.91 993.5,-18.46 889.44,-16.31"/>
<polygon fill="green" stroke="green" stroke-width="0.34" points="889.32,-12.81 879.26,-16.11 889.19,-19.81 889.32,-12.81"/>
</g>
<!-- 171&#45;&gt;4 -->
<g id="edge93" class="edge">
<title>171&#45;&gt;4</title>
<path fill="none" stroke="green" stroke-width="0.44" d="M1391.19,-73C1386.88,-70.14 1382.06,-67.44 1377.21,-65.7 1285.66,-32.81 979.56,-19.83 889.4,-16.66"/>
<polygon fill="green" stroke="green" stroke-width="0.44" points="889.39,-13.16 879.28,-16.32 889.16,-20.16 889.39,-13.16"/>
</g>
<!-- 152&#45;&gt;1 -->
<g id="edge91" class="edge">
<title>152&#45;&gt;1</title>
<path fill="none" stroke="red" stroke-width="0.52" d="M38.34,-74.11C43.83,-70.87 50.07,-67.7 56.21,-65.7 140.13,-38.37 415.23,-21.72 500.07,-17.14"/>
<polygon fill="red" stroke="red" stroke-width="0.52" points="500.3,-20.64 510.1,-16.61 499.93,-13.65 500.3,-20.64"/>
</g>
</g>
</svg>
