<?xml version="1.0" encoding="UTF-8" standalone="no"?>
<!DOCTYPE svg PUBLIC "-//W3C//DTD SVG 1.1//EN"
 "http://www.w3.org/Graphics/SVG/1.1/DTD/svg11.dtd">
<!-- Generated by graphviz version 2.43.0 (0)
 -->
<!-- Title: %3 Pages: 1 -->
<svg width="1944pt" height="368pt"
 viewBox="0.00 0.00 1943.99 367.99" xmlns="http://www.w3.org/2000/svg" xmlns:xlink="http://www.w3.org/1999/xlink">
<g id="graph0" class="graph" transform="scale(1 1) rotate(0) translate(4 363.99)">
<title>%3</title>
<polygon fill="white" stroke="transparent" points="-4,4 -4,-363.99 1939.99,-363.99 1939.99,4 -4,4"/>
<!-- &#45;1 -->
<g id="node1" class="node">
<title>&#45;1</title>
<polygon fill="lightgray" stroke="black" points="1304,-286 1278,-286 1278,-268 1304,-268 1304,-286"/>
<text text-anchor="middle" x="1291" y="-274.8" font-family="Times,serif" font-size="9.00">&#45;1</text>
</g>
<!-- 3 -->
<g id="node24" class="node">
<title>3</title>
<ellipse fill="lightblue" stroke="black" cx="1118" cy="-16.26" rx="16.03" ry="16.03"/>
<text text-anchor="middle" x="1118" y="-14.06" font-family="Times,serif" font-size="9.00">3</text>
</g>
<!-- &#45;1&#45;&gt;3 -->
<g id="edge114" class="edge">
<title>&#45;1&#45;&gt;3</title>
<path fill="none" stroke="green" stroke-width="0.13" d="M1290.64,-267.75C1288.91,-237.43 1279.08,-130.69 1225,-68.53 1203.68,-44.03 1168.03,-30.26 1143.8,-23.3"/>
<polygon fill="green" stroke="green" stroke-width="0.13" points="1144.43,-19.85 1133.87,-20.64 1142.62,-26.61 1144.43,-19.85"/>
</g>
<!-- 389 -->
<g id="node26" class="node">
<title>389</title>
<ellipse fill="white" stroke="black" cx="564" cy="-183.02" rx="25" ry="25"/>
<text text-anchor="middle" x="564" y="-180.82" font-family="Times,serif" font-size="9.00">389</text>
</g>
<!-- &#45;1&#45;&gt;389 -->
<g id="edge44" class="edge">
<title>&#45;1&#45;&gt;389</title>
<path fill="none" stroke="red" stroke-width="0.35" d="M1277.88,-271.35C1259.26,-264.97 1223.99,-253.64 1193,-248.01 998.64,-212.71 946.23,-234.72 750,-212.01 697,-205.87 635.9,-196.17 598.61,-189.95"/>
<polygon fill="red" stroke="red" stroke-width="0.35" points="598.74,-186.42 588.3,-188.22 597.58,-193.32 598.74,-186.42"/>
</g>
<!-- 396 -->
<g id="node27" class="node">
<title>396</title>
<ellipse fill="white" stroke="black" cx="875" cy="-93.28" rx="25" ry="25"/>
<text text-anchor="middle" x="875" y="-91.08" font-family="Times,serif" font-size="9.00">396</text>
</g>
<!-- &#45;1&#45;&gt;396 -->
<g id="edge2" class="edge">
<title>&#45;1&#45;&gt;396</title>
<path fill="none" stroke="red" stroke-width="0.27" d="M1286.74,-267.81C1274.66,-245.46 1237.77,-183.12 1188,-154.02 1098.12,-101.47 971.23,-93.9 910.32,-93.57"/>
<polygon fill="red" stroke="red" stroke-width="0.27" points="910.08,-90.07 900.08,-93.58 910.09,-97.07 910.08,-90.07"/>
</g>
<!-- 397 -->
<g id="node28" class="node">
<title>397</title>
<ellipse fill="white" stroke="black" cx="1042" cy="-183.02" rx="25" ry="25"/>
<text text-anchor="middle" x="1042" y="-180.82" font-family="Times,serif" font-size="9.00">397</text>
</g>
<!-- &#45;1&#45;&gt;397 -->
<g id="edge118" class="edge">
<title>&#45;1&#45;&gt;397</title>
<path fill="none" stroke="green" stroke-width="0.13" d="M1285.26,-267.93C1280.32,-261.58 1272.65,-253.01 1264,-248.01 1206.89,-214.99 1183.12,-231.17 1120,-212.01 1104.93,-207.43 1088.49,-201.65 1074.61,-196.54"/>
<polygon fill="green" stroke="green" stroke-width="0.13" points="1075.6,-193.17 1065,-192.95 1073.15,-199.73 1075.6,-193.17"/>
</g>
<!-- 398 -->
<g id="node29" class="node">
<title>398</title>
<ellipse fill="white" stroke="black" cx="497" cy="-183.02" rx="25" ry="25"/>
<text text-anchor="middle" x="497" y="-180.82" font-family="Times,serif" font-size="9.00">398</text>
</g>
<!-- &#45;1&#45;&gt;398 -->
<g id="edge150" class="edge">
<title>&#45;1&#45;&gt;398</title>
<path fill="none" stroke="green" stroke-width="0.12" d="M1277.9,-271.24C1259.31,-264.72 1224.06,-253.22 1193,-248.01 1047.48,-223.59 667.09,-266.58 530,-212.01 527.25,-210.91 524.57,-209.49 521.99,-207.87"/>
<polygon fill="green" stroke="green" stroke-width="0.12" points="523.86,-204.9 513.73,-201.78 519.7,-210.53 523.86,-204.9"/>
</g>
<!-- 399 -->
<g id="node30" class="node">
<title>399</title>
<ellipse fill="white" stroke="black" cx="1154" cy="-183.02" rx="25" ry="25"/>
<text text-anchor="middle" x="1154" y="-180.82" font-family="Times,serif" font-size="9.00">399</text>
</g>
<!-- &#45;1&#45;&gt;399 -->
<g id="edge127" class="edge">
<title>&#45;1&#45;&gt;399</title>
<path fill="none" stroke="red" stroke-width="0.4" d="M1284.19,-267.81C1279.02,-261.89 1271.54,-253.92 1264,-248.01 1250.33,-237.29 1211.96,-215.6 1184.38,-200.46"/>
<polygon fill="red" stroke="red" stroke-width="0.4" points="1185.95,-197.32 1175.5,-195.6 1182.59,-203.47 1185.95,-197.32"/>
</g>
<!-- 400 -->
<g id="node31" class="node">
<title>400</title>
<ellipse fill="white" stroke="black" cx="784" cy="-183.02" rx="25" ry="25"/>
<text text-anchor="middle" x="784" y="-180.82" font-family="Times,serif" font-size="9.00">400</text>
</g>
<!-- &#45;1&#45;&gt;400 -->
<g id="edge136" class="edge">
<title>&#45;1&#45;&gt;400</title>
<path fill="none" stroke="green" stroke-width="0.54" stroke-dasharray="1,5" d="M1277.82,-271.67C1259.12,-265.67 1223.76,-254.78 1193,-248.01 1055.8,-217.8 889.67,-196.42 818.78,-187.99"/>
<polygon fill="green" stroke="green" stroke-width="0.54" points="818.97,-184.49 808.63,-186.8 818.15,-191.44 818.97,-184.49"/>
</g>
<!-- &#45;2 -->
<g id="node2" class="node">
<title>&#45;2</title>
<polygon fill="lightgray" stroke="black" points="642,-286 616,-286 616,-268 642,-268 642,-286"/>
<text text-anchor="middle" x="629" y="-274.8" font-family="Times,serif" font-size="9.00">&#45;2</text>
</g>
<!-- &#45;2&#45;&gt;389 -->
<g id="edge123" class="edge">
<title>&#45;2&#45;&gt;389</title>
<path fill="none" stroke="red" stroke-width="0.29" d="M623.23,-267.84C614.5,-255.48 597.51,-231.44 583.96,-212.27"/>
<polygon fill="red" stroke="red" stroke-width="0.29" points="586.65,-210 578.02,-203.86 580.93,-214.04 586.65,-210"/>
</g>
<!-- &#45;2&#45;&gt;396 -->
<g id="edge68" class="edge">
<title>&#45;2&#45;&gt;396</title>
<path fill="none" stroke="red" stroke-width="0.33" d="M636.19,-267.76C641.42,-261.96 648.82,-254.16 656,-248.01 677.06,-229.94 687.15,-231.39 707,-212.01 729.95,-189.59 725.24,-174.43 750,-154.02 777.48,-131.37 815,-114.93 841.74,-105.1"/>
<polygon fill="red" stroke="red" stroke-width="0.33" points="843.17,-108.31 851.42,-101.66 840.82,-101.71 843.17,-108.31"/>
</g>
<!-- &#45;2&#45;&gt;397 -->
<g id="edge47" class="edge">
<title>&#45;2&#45;&gt;397</title>
<path fill="none" stroke="green" stroke-width="0.45" d="M642.27,-273.04C699,-260.41 922.09,-210.72 1008.01,-191.59"/>
<polygon fill="green" stroke="green" stroke-width="0.45" points="1009.02,-194.95 1018.02,-189.36 1007.5,-188.11 1009.02,-194.95"/>
</g>
<!-- &#45;2&#45;&gt;398 -->
<g id="edge132" class="edge">
<title>&#45;2&#45;&gt;398</title>
<path fill="none" stroke="red" stroke-width="0.13" d="M624.05,-267.79C620.06,-261.71 613.97,-253.54 607,-248.01 577.41,-224.52 561.79,-232.41 530,-212.01 527.57,-210.45 525.12,-208.73 522.72,-206.93"/>
<polygon fill="red" stroke="red" stroke-width="0.13" points="524.82,-204.12 514.82,-200.62 520.46,-209.59 524.82,-204.12"/>
</g>
<!-- &#45;2&#45;&gt;399 -->
<g id="edge21" class="edge">
<title>&#45;2&#45;&gt;399</title>
<path fill="none" stroke="green" stroke-width="0.14" d="M642.07,-273.76C671.03,-268.85 742.75,-256.82 803,-248.01 924.09,-230.29 957.06,-240.84 1076,-212.01 1091.41,-208.27 1108.02,-202.56 1121.93,-197.27"/>
<polygon fill="green" stroke="green" stroke-width="0.14" points="1123.48,-200.42 1131.52,-193.53 1120.93,-193.9 1123.48,-200.42"/>
</g>
<!-- &#45;2&#45;&gt;400 -->
<g id="edge64" class="edge">
<title>&#45;2&#45;&gt;400</title>
<path fill="none" stroke="green" stroke-width="0.2" d="M635.35,-267.74C640.4,-261.62 647.94,-253.45 656,-248.01 691.36,-224.13 707.62,-232.59 745,-212.01 748.78,-209.93 752.62,-207.54 756.35,-205.06"/>
<polygon fill="green" stroke="green" stroke-width="0.2" points="758.55,-207.79 764.76,-199.21 754.55,-202.05 758.55,-207.79"/>
</g>
<!-- &#45;3 -->
<g id="node3" class="node">
<title>&#45;3</title>
<polygon fill="lightgray" stroke="black" points="498,-286 472,-286 472,-268 498,-268 498,-286"/>
<text text-anchor="middle" x="485" y="-274.8" font-family="Times,serif" font-size="9.00">&#45;3</text>
</g>
<!-- &#45;3&#45;&gt;389 -->
<g id="edge26" class="edge">
<title>&#45;3&#45;&gt;389</title>
<path fill="none" stroke="red" stroke-width="0.59" d="M491.41,-267.56C495.73,-261.95 501.6,-254.45 507,-248.01 517.86,-235.03 530.32,-220.95 540.82,-209.31"/>
<polygon fill="red" stroke="red" stroke-width="0.59" points="543.61,-211.45 547.73,-201.69 538.42,-206.75 543.61,-211.45"/>
</g>
<!-- &#45;3&#45;&gt;396 -->
<g id="edge6" class="edge">
<title>&#45;3&#45;&gt;396</title>
<path fill="none" stroke="red" stroke-width="0.32" d="M489.85,-267.67C493.79,-261.52 499.86,-253.33 507,-248.01 541.87,-222.01 565.16,-240.52 598,-212.01 620.39,-192.57 607.33,-171.89 631,-154.02 663.91,-129.17 781.39,-108.43 840.5,-99.29"/>
<polygon fill="red" stroke="red" stroke-width="0.32" points="841.13,-102.73 850.49,-97.77 840.07,-95.81 841.13,-102.73"/>
</g>
<!-- &#45;3&#45;&gt;397 -->
<g id="edge117" class="edge">
<title>&#45;3&#45;&gt;397</title>
<path fill="none" stroke="red" stroke-width="0.26" stroke-dasharray="1,5" d="M489.03,-267.9C492.74,-261.37 498.91,-252.53 507,-248.01 567.72,-214.05 748.92,-220.32 818,-212.01 885.04,-203.94 963.3,-194.05 1007.32,-188.45"/>
<polygon fill="red" stroke="red" stroke-width="0.26" points="1008,-191.89 1017.48,-187.15 1007.12,-184.95 1008,-191.89"/>
</g>
<!-- &#45;3&#45;&gt;398 -->
<g id="edge63" class="edge">
<title>&#45;3&#45;&gt;398</title>
<path fill="none" stroke="green" stroke-width="0.31" d="M486.06,-267.84C487.53,-256.61 490.25,-235.74 492.61,-217.63"/>
<polygon fill="green" stroke="green" stroke-width="0.31" points="496.09,-218.03 493.91,-207.66 489.15,-217.12 496.09,-218.03"/>
</g>
<!-- &#45;3&#45;&gt;399 -->
<g id="edge18" class="edge">
<title>&#45;3&#45;&gt;399</title>
<path fill="none" stroke="green" stroke-width="0.61" d="M488.97,-267.79C492.65,-261.19 498.79,-252.32 507,-248.01 619.15,-189.06 951.92,-237.66 1076,-212.01 1091.53,-208.8 1108.15,-203.16 1122.04,-197.78"/>
<polygon fill="green" stroke="green" stroke-width="0.61" points="1123.63,-200.91 1131.62,-193.95 1121.03,-194.42 1123.63,-200.91"/>
</g>
<!-- &#45;3&#45;&gt;400 -->
<g id="edge102" class="edge">
<title>&#45;3&#45;&gt;400</title>
<path fill="none" stroke="green" stroke-width="0.29" d="M489.32,-267.88C493.13,-261.5 499.28,-252.91 507,-248.01 527.51,-234.98 680.32,-204.14 749.8,-190.59"/>
<polygon fill="green" stroke="green" stroke-width="0.29" points="750.66,-193.99 759.81,-188.65 749.32,-187.12 750.66,-193.99"/>
</g>
<!-- &#45;4 -->
<g id="node4" class="node">
<title>&#45;4</title>
<polygon fill="lightgray" stroke="black" points="882,-286 856,-286 856,-268 882,-268 882,-286"/>
<text text-anchor="middle" x="869" y="-274.8" font-family="Times,serif" font-size="9.00">&#45;4</text>
</g>
<!-- &#45;4&#45;&gt;389 -->
<g id="edge36" class="edge">
<title>&#45;4&#45;&gt;389</title>
<path fill="none" stroke="green" stroke-width="0.26" d="M864.68,-267.87C860.88,-261.49 854.73,-252.89 847,-248.01 805.67,-221.89 664.3,-198.59 598.37,-188.85"/>
<polygon fill="green" stroke="green" stroke-width="0.26" points="598.86,-185.38 588.46,-187.4 597.85,-192.31 598.86,-185.38"/>
</g>
<!-- &#45;4&#45;&gt;396 -->
<g id="edge78" class="edge">
<title>&#45;4&#45;&gt;396</title>
<path fill="none" stroke="green" stroke-width="0.17" d="M869.27,-267.72C870.07,-243.47 872.44,-171.62 873.87,-128.37"/>
<polygon fill="green" stroke="green" stroke-width="0.17" points="877.37,-128.41 874.2,-118.3 870.38,-128.18 877.37,-128.41"/>
</g>
<!-- &#45;4&#45;&gt;397 -->
<g id="edge126" class="edge">
<title>&#45;4&#45;&gt;397</title>
<path fill="none" stroke="green" stroke-width="0.24" d="M873.89,-267.72C877.85,-261.59 883.93,-253.41 891,-248.01 926.72,-220.7 975.82,-202.73 1008.21,-192.97"/>
<polygon fill="green" stroke="green" stroke-width="0.24" points="1009.48,-196.25 1018.1,-190.09 1007.52,-189.53 1009.48,-196.25"/>
</g>
<!-- &#45;4&#45;&gt;398 -->
<g id="edge15" class="edge">
<title>&#45;4&#45;&gt;398</title>
<path fill="none" stroke="green" stroke-width="0.9" d="M864.97,-267.9C861.26,-261.36 855.09,-252.52 847,-248.01 723.17,-178.93 660.14,-268.3 530,-212.01 527.28,-210.83 524.62,-209.36 522.06,-207.7"/>
<polygon fill="green" stroke="green" stroke-width="0.9" points="523.93,-204.73 513.83,-201.55 519.75,-210.34 523.93,-204.73"/>
</g>
<!-- &#45;4&#45;&gt;399 -->
<g id="edge61" class="edge">
<title>&#45;4&#45;&gt;399</title>
<path fill="none" stroke="green" stroke-width="0.26" stroke-dasharray="1,5" d="M873.27,-267.8C877.06,-261.39 883.19,-252.78 891,-248.01 962.48,-204.34 995.23,-234.22 1076,-212.01 1091.18,-207.83 1107.64,-202.11 1121.5,-196.93"/>
<polygon fill="green" stroke="green" stroke-width="0.26" points="1122.99,-200.11 1131.09,-193.28 1120.49,-193.57 1122.99,-200.11"/>
</g>
<!-- &#45;4&#45;&gt;400 -->
<g id="edge14" class="edge">
<title>&#45;4&#45;&gt;400</title>
<path fill="none" stroke="green" stroke-width="0.26" d="M863.06,-267.97C858.76,-262.26 852.72,-254.5 847,-248.01 835,-234.38 820.88,-219.9 809.05,-208.17"/>
<polygon fill="green" stroke="green" stroke-width="0.26" points="811.23,-205.41 801.65,-200.9 806.32,-210.41 811.23,-205.41"/>
</g>
<!-- &#45;5 -->
<g id="node5" class="node">
<title>&#45;5</title>
<polygon fill="lightgray" stroke="black" points="838,-286 812,-286 812,-268 838,-268 838,-286"/>
<text text-anchor="middle" x="825" y="-274.8" font-family="Times,serif" font-size="9.00">&#45;5</text>
</g>
<!-- &#45;5&#45;&gt;389 -->
<g id="edge9" class="edge">
<title>&#45;5&#45;&gt;389</title>
<path fill="none" stroke="green" stroke-width="0.6" d="M811.7,-271.31C772.2,-257.39 654.79,-216.01 596.95,-195.63"/>
<polygon fill="green" stroke="green" stroke-width="0.6" points="597.8,-192.22 587.2,-192.19 595.47,-198.82 597.8,-192.22"/>
</g>
<!-- &#45;5&#45;&gt;396 -->
<g id="edge144" class="edge">
<title>&#45;5&#45;&gt;396</title>
<path fill="none" stroke="red" stroke-width="0.31" d="M827.28,-267.72C834.01,-243.23 854.12,-170.16 865.97,-127.08"/>
<polygon fill="red" stroke="red" stroke-width="0.31" points="869.38,-127.9 868.65,-117.33 862.63,-126.05 869.38,-127.9"/>
</g>
<!-- &#45;5&#45;&gt;397 -->
<g id="edge97" class="edge">
<title>&#45;5&#45;&gt;397</title>
<path fill="none" stroke="green" stroke-width="0.59" d="M829.6,-267.8C833.49,-261.56 839.61,-253.18 847,-248.01 896.53,-213.32 966.1,-196.5 1007.36,-189.1"/>
<polygon fill="green" stroke="green" stroke-width="0.59" points="1008.19,-192.51 1017.46,-187.38 1007.02,-185.61 1008.19,-192.51"/>
</g>
<!-- &#45;5&#45;&gt;398 -->
<g id="edge81" class="edge">
<title>&#45;5&#45;&gt;398</title>
<path fill="none" stroke="red" stroke-width="0.58" d="M811.86,-274.02C761.58,-266.31 581.57,-237.47 530,-212.01 527.35,-210.7 524.73,-209.13 522.2,-207.41"/>
<polygon fill="red" stroke="red" stroke-width="0.58" points="524.08,-204.45 514.01,-201.16 519.83,-210.01 524.08,-204.45"/>
</g>
<!-- &#45;5&#45;&gt;399 -->
<g id="edge31" class="edge">
<title>&#45;5&#45;&gt;399</title>
<path fill="none" stroke="red" stroke-width="0.76" d="M829.08,-267.99C832.82,-261.5 839,-252.7 847,-248.01 935.88,-195.9 976.18,-237.52 1076,-212.01 1091.36,-208.08 1107.96,-202.34 1121.88,-197.09"/>
<polygon fill="red" stroke="red" stroke-width="0.76" points="1123.42,-200.24 1131.48,-193.37 1120.89,-193.71 1123.42,-200.24"/>
</g>
<!-- &#45;5&#45;&gt;400 -->
<g id="edge4" class="edge">
<title>&#45;5&#45;&gt;400</title>
<path fill="none" stroke="green" stroke-width="0.34" d="M821.36,-267.84C816.15,-256.15 806.29,-234.03 798,-215.44"/>
<polygon fill="green" stroke="green" stroke-width="0.34" points="801.12,-213.82 793.85,-206.11 794.72,-216.67 801.12,-213.82"/>
</g>
<!-- &#45;6 -->
<g id="node6" class="node">
<title>&#45;6</title>
<polygon fill="lightgray" stroke="black" points="926,-286 900,-286 900,-268 926,-268 926,-286"/>
<text text-anchor="middle" x="913" y="-274.8" font-family="Times,serif" font-size="9.00">&#45;6</text>
</g>
<!-- &#45;6&#45;&gt;389 -->
<g id="edge107" class="edge">
<title>&#45;6&#45;&gt;389</title>
<path fill="none" stroke="green" stroke-width="0.61" d="M908.72,-267.81C904.94,-261.39 898.8,-252.78 891,-248.01 866.09,-232.77 677.01,-201.75 598.26,-189.33"/>
<polygon fill="green" stroke="green" stroke-width="0.61" points="598.77,-185.87 588.34,-187.78 597.68,-192.79 598.77,-185.87"/>
</g>
<!-- &#45;6&#45;&gt;396 -->
<g id="edge129" class="edge">
<title>&#45;6&#45;&gt;396</title>
<path fill="none" stroke="green" stroke-width="0.13" d="M911.27,-267.72C906.17,-243.34 891.01,-170.85 881.99,-127.69"/>
<polygon fill="green" stroke="green" stroke-width="0.13" points="885.36,-126.73 879.89,-117.65 878.51,-128.16 885.36,-126.73"/>
</g>
<!-- &#45;6&#45;&gt;397 -->
<g id="edge17" class="edge">
<title>&#45;6&#45;&gt;397</title>
<path fill="none" stroke="red" stroke-width="0.29" d="M918.11,-267.99C922.19,-262.01 928.32,-253.89 935,-248.01 957.89,-227.86 987.99,-210.51 1010.43,-198.98"/>
<polygon fill="red" stroke="red" stroke-width="0.29" points="1012.17,-202.02 1019.54,-194.4 1009.03,-195.76 1012.17,-202.02"/>
</g>
<!-- &#45;6&#45;&gt;398 -->
<g id="edge28" class="edge">
<title>&#45;6&#45;&gt;398</title>
<path fill="none" stroke="green" stroke-width="0.48" d="M908.99,-267.87C905.28,-261.31 899.13,-252.47 891,-248.01 749.65,-170.42 678.42,-275.01 530,-212.01 527.27,-210.85 524.61,-209.39 522.05,-207.74"/>
<polygon fill="green" stroke="green" stroke-width="0.48" points="523.92,-204.77 513.8,-201.6 519.73,-210.38 523.92,-204.77"/>
</g>
<!-- &#45;6&#45;&gt;399 -->
<g id="edge80" class="edge">
<title>&#45;6&#45;&gt;399</title>
<path fill="none" stroke="green" stroke-width="0.11" d="M917.35,-267.92C921.18,-261.58 927.33,-253 935,-248.01 989.19,-212.71 1014.16,-230.95 1076,-212.01 1091.05,-207.4 1107.49,-201.61 1121.38,-196.5"/>
<polygon fill="green" stroke="green" stroke-width="0.11" points="1122.83,-199.69 1130.98,-192.92 1120.39,-193.13 1122.83,-199.69"/>
</g>
<!-- &#45;6&#45;&gt;400 -->
<g id="edge77" class="edge">
<title>&#45;6&#45;&gt;400</title>
<path fill="none" stroke="green" stroke-width="0.3" stroke-dasharray="1,5" d="M907.89,-267.99C903.8,-262.01 897.68,-253.89 891,-248.01 868.11,-227.86 838.01,-210.51 815.57,-198.98"/>
<polygon fill="green" stroke="green" stroke-width="0.3" points="816.97,-195.76 806.46,-194.4 813.82,-202.02 816.97,-195.76"/>
</g>
<!-- &#45;7 -->
<g id="node7" class="node">
<title>&#45;7</title>
<polygon fill="lightgray" stroke="black" points="1124,-359.99 1098,-359.99 1098,-341.99 1124,-341.99 1124,-359.99"/>
<text text-anchor="middle" x="1111" y="-348.79" font-family="Times,serif" font-size="9.00">&#45;7</text>
</g>
<!-- &#45;7&#45;&gt;389 -->
<g id="edge72" class="edge">
<title>&#45;7&#45;&gt;389</title>
<path fill="none" stroke="red" stroke-width="0.63" d="M1097.96,-349.76C998.18,-347.93 358.48,-335.07 331,-305.99 313.3,-287.26 314.47,-267.78 331,-248.01 388.93,-178.72 449.31,-250.54 531,-212.01 533.67,-210.75 536.31,-209.21 538.85,-207.51"/>
<polygon fill="red" stroke="red" stroke-width="0.63" points="541.2,-210.13 547.05,-201.3 536.97,-204.54 541.2,-210.13"/>
</g>
<!-- &#45;7&#45;&gt;396 -->
<g id="edge33" class="edge">
<title>&#45;7&#45;&gt;396</title>
<path fill="none" stroke="green" stroke-width="0.25" d="M1124.14,-349.03C1209.04,-342.84 1676.55,-308.63 1679,-305.99 1696.5,-287.08 1693.63,-269.22 1679,-248.01 1589.77,-118.58 1054.3,-98.04 910.51,-94.85"/>
<polygon fill="green" stroke="green" stroke-width="0.25" points="910.16,-91.34 900.09,-94.63 910.01,-98.34 910.16,-91.34"/>
</g>
<!-- &#45;7&#45;&gt;397 -->
<g id="edge146" class="edge">
<title>&#45;7&#45;&gt;397</title>
<path fill="none" stroke="red" stroke-width="0.28" stroke-dasharray="1,5" d="M1124.12,-347.33C1143.21,-342.69 1177.98,-331.08 1193,-305.99 1206.23,-283.88 1207.23,-269.49 1193,-248.01 1186.07,-237.54 1117.02,-211.13 1074.73,-195.7"/>
<polygon fill="red" stroke="red" stroke-width="0.28" points="1075.72,-192.34 1065.12,-192.22 1073.33,-198.92 1075.72,-192.34"/>
</g>
<!-- &#45;7&#45;&gt;398 -->
<g id="edge99" class="edge">
<title>&#45;7&#45;&gt;398</title>
<path fill="none" stroke="green" stroke-width="0.2" d="M1097.87,-349.89C986.66,-348.94 205.48,-341.08 172,-305.99 84.29,-214.07 361.44,-190.83 462,-185.48"/>
<polygon fill="green" stroke="green" stroke-width="0.2" points="462.46,-188.97 472.27,-184.97 462.1,-181.97 462.46,-188.97"/>
</g>
<!-- &#45;7&#45;&gt;399 -->
<g id="edge45" class="edge">
<title>&#45;7&#45;&gt;399</title>
<path fill="none" stroke="red" stroke-width="0.1" d="M1124.34,-348.94C1198.54,-343.09 1557.36,-314.4 1565,-305.99 1582.32,-286.91 1581.78,-267.57 1565,-248.01 1530.74,-208.08 1382.98,-220.12 1331,-212.01 1281.34,-204.26 1223.87,-195.14 1188.22,-189.47"/>
<polygon fill="red" stroke="red" stroke-width="0.1" points="1188.75,-186.01 1178.33,-187.9 1187.65,-192.93 1188.75,-186.01"/>
</g>
<!-- &#45;7&#45;&gt;400 -->
<g id="edge69" class="edge">
<title>&#45;7&#45;&gt;400</title>
<path fill="none" stroke="green" stroke-width="0.27" d="M1097.63,-349.47C1033.21,-346.83 756.89,-333.94 732,-305.99 706.64,-277.51 735.87,-234.82 759.66,-208.23"/>
<polygon fill="green" stroke="green" stroke-width="0.27" points="762.26,-210.57 766.49,-200.86 757.13,-205.82 762.26,-210.57"/>
</g>
<!-- 1527 -->
<g id="node35" class="node">
<title>1527</title>
<ellipse fill="white" stroke="black" cx="1111" cy="-277" rx="28.98" ry="28.98"/>
<text text-anchor="middle" x="1111" y="-274.8" font-family="Times,serif" font-size="9.00">1527</text>
</g>
<!-- &#45;7&#45;&gt;1527 -->
<g id="edge86" class="edge">
<title>&#45;7&#45;&gt;1527</title>
<path fill="none" stroke="red" stroke-width="0.39" d="M1111,-341.73C1111,-335.26 1111,-325.76 1111,-316.06"/>
<polygon fill="red" stroke="red" stroke-width="0.39" points="1114.5,-315.99 1111,-305.99 1107.5,-315.99 1114.5,-315.99"/>
</g>
<!-- &#45;8 -->
<g id="node8" class="node">
<title>&#45;8</title>
<polygon fill="lightgray" stroke="black" points="366,-286 340,-286 340,-268 366,-268 366,-286"/>
<text text-anchor="middle" x="353" y="-274.8" font-family="Times,serif" font-size="9.00">&#45;8</text>
</g>
<!-- 2 -->
<g id="node23" class="node">
<title>2</title>
<ellipse fill="lightblue" stroke="black" cx="702" cy="-93.28" rx="16.03" ry="16.03"/>
<text text-anchor="middle" x="702" y="-91.08" font-family="Times,serif" font-size="9.00">2</text>
</g>
<!-- &#45;8&#45;&gt;2 -->
<g id="edge51" class="edge">
<title>&#45;8&#45;&gt;2</title>
<path fill="none" stroke="red" stroke-width="0.44" d="M352.95,-267.98C353.28,-246.06 357.41,-184.72 392,-154.02 434.13,-116.63 608.47,-100.77 675.54,-95.97"/>
<polygon fill="red" stroke="red" stroke-width="0.44" points="675.97,-99.44 685.7,-95.26 675.49,-92.46 675.97,-99.44"/>
</g>
<!-- &#45;8&#45;&gt;389 -->
<g id="edge84" class="edge">
<title>&#45;8&#45;&gt;389</title>
<path fill="none" stroke="green" stroke-width="0.21" d="M357.32,-267.87C361.13,-261.5 367.28,-252.91 375,-248.01 435.07,-209.86 467.4,-243.92 531,-212.01 533.73,-210.64 536.43,-208.99 539.03,-207.2"/>
<polygon fill="green" stroke="green" stroke-width="0.21" points="541.16,-209.98 546.96,-201.11 536.9,-204.42 541.16,-209.98"/>
</g>
<!-- &#45;8&#45;&gt;396 -->
<g id="edge110" class="edge">
<title>&#45;8&#45;&gt;396</title>
<path fill="none" stroke="red" stroke-width="0.63" d="M356.58,-267.69C367.57,-242.58 401.4,-168.29 423,-154.02 479.76,-116.53 659.62,-127.42 727,-118.02 766.08,-112.58 810.78,-105.25 840.74,-100.18"/>
<polygon fill="red" stroke="red" stroke-width="0.63" points="841.42,-103.62 850.69,-98.49 840.24,-96.72 841.42,-103.62"/>
</g>
<!-- &#45;8&#45;&gt;397 -->
<g id="edge151" class="edge">
<title>&#45;8&#45;&gt;397</title>
<path fill="none" stroke="green" stroke-width="0.33" d="M356.99,-267.83C360.68,-261.25 366.83,-252.39 375,-248.01 462.01,-201.27 719.75,-222.13 818,-212.01 885.17,-205.08 963.39,-194.8 1007.36,-188.82"/>
<polygon fill="green" stroke="green" stroke-width="0.33" points="1008.08,-192.25 1017.51,-187.43 1007.13,-185.32 1008.08,-192.25"/>
</g>
<!-- &#45;8&#45;&gt;398 -->
<g id="edge42" class="edge">
<title>&#45;8&#45;&gt;398</title>
<path fill="none" stroke="red" stroke-width="0.11" d="M358.02,-267.88C362.05,-261.84 368.16,-253.7 375,-248.01 402.23,-225.36 438.78,-207.5 464.75,-196.47"/>
<polygon fill="red" stroke="red" stroke-width="0.11" points="466.25,-199.64 474.15,-192.58 463.57,-193.17 466.25,-199.64"/>
</g>
<!-- &#45;8&#45;&gt;399 -->
<g id="edge96" class="edge">
<title>&#45;8&#45;&gt;399</title>
<path fill="none" stroke="red" stroke-width="0.41" d="M356.96,-267.77C360.63,-261.15 366.77,-252.27 375,-248.01 513.5,-176.26 923.06,-242.68 1076,-212.01 1091.55,-208.89 1108.17,-203.26 1122.06,-197.87"/>
<polygon fill="red" stroke="red" stroke-width="0.41" points="1123.66,-201 1131.63,-194.03 1121.05,-194.51 1123.66,-201"/>
</g>
<!-- &#45;8&#45;&gt;400 -->
<g id="edge143" class="edge">
<title>&#45;8&#45;&gt;400</title>
<path fill="none" stroke="red" stroke-width="0.16" d="M357.08,-267.99C360.82,-261.5 367,-252.69 375,-248.01 379.07,-245.62 651.93,-204.05 749.65,-189.22"/>
<polygon fill="red" stroke="red" stroke-width="0.16" points="750.25,-192.67 759.62,-187.71 749.2,-185.75 750.25,-192.67"/>
</g>
<!-- &#45;9 -->
<g id="node9" class="node">
<title>&#45;9</title>
<polygon fill="lightgray" stroke="black" points="1184,-286 1158,-286 1158,-268 1184,-268 1184,-286"/>
<text text-anchor="middle" x="1171" y="-274.8" font-family="Times,serif" font-size="9.00">&#45;9</text>
</g>
<!-- &#45;9&#45;&gt;396 -->
<g id="edge155" class="edge">
<title>&#45;9&#45;&gt;396</title>
<path fill="none" stroke="red" stroke-width="0.42" d="M1164.48,-267.65C1160.11,-262.07 1154.23,-254.58 1149,-248.01 1136.21,-231.93 1132.65,-228.19 1120,-212.01 1100.07,-186.52 1102.6,-172.43 1076,-154.02 1048.82,-135.22 959.07,-113.03 909.19,-101.72"/>
<polygon fill="red" stroke="red" stroke-width="0.42" points="909.71,-98.25 899.18,-99.48 908.18,-105.08 909.71,-98.25"/>
</g>
<!-- &#45;9&#45;&gt;397 -->
<g id="edge112" class="edge">
<title>&#45;9&#45;&gt;397</title>
<path fill="none" stroke="green" stroke-width="0.35" d="M1165.93,-267.94C1161.87,-261.93 1155.76,-253.8 1149,-248.01 1124.22,-226.77 1112.91,-228.92 1085,-212.01 1080.45,-209.25 1075.68,-206.26 1071.05,-203.29"/>
<polygon fill="green" stroke="green" stroke-width="0.35" points="1072.68,-200.18 1062.39,-197.67 1068.87,-206.05 1072.68,-200.18"/>
</g>
<!-- &#45;9&#45;&gt;398 -->
<g id="edge98" class="edge">
<title>&#45;9&#45;&gt;398</title>
<path fill="none" stroke="red" stroke-width="0.13" d="M1167.03,-267.78C1163.36,-261.17 1157.22,-252.3 1149,-248.01 1026.87,-184.21 657.92,-263.21 530,-212.01 527.25,-210.91 524.57,-209.48 522,-207.86"/>
<polygon fill="red" stroke="red" stroke-width="0.13" points="523.86,-204.89 513.74,-201.77 519.71,-210.52 523.86,-204.89"/>
</g>
<!-- &#45;9&#45;&gt;399 -->
<g id="edge43" class="edge">
<title>&#45;9&#45;&gt;399</title>
<path fill="none" stroke="red" stroke-width="0.15" d="M1169.49,-267.84C1167.41,-256.61 1163.56,-235.74 1160.21,-217.63"/>
<polygon fill="red" stroke="red" stroke-width="0.15" points="1163.63,-216.86 1158.37,-207.66 1156.74,-218.13 1163.63,-216.86"/>
</g>
<!-- &#45;9&#45;&gt;400 -->
<g id="edge91" class="edge">
<title>&#45;9&#45;&gt;400</title>
<path fill="none" stroke="red" stroke-width="0.35" d="M1166.75,-267.76C1162.97,-261.33 1156.85,-252.7 1149,-248.01 1120.71,-231.08 903.77,-200.24 818.38,-188.62"/>
<polygon fill="red" stroke="red" stroke-width="0.35" points="818.78,-185.14 808.4,-187.26 817.84,-192.08 818.78,-185.14"/>
</g>
<!-- &#45;10 -->
<g id="node10" class="node">
<title>&#45;10</title>
<polygon fill="lightgray" stroke="black" points="598,-286 566,-286 566,-268 598,-268 598,-286"/>
<text text-anchor="middle" x="582" y="-274.8" font-family="Times,serif" font-size="9.00">&#45;10</text>
</g>
<!-- &#45;10&#45;&gt;389 -->
<g id="edge106" class="edge">
<title>&#45;10&#45;&gt;389</title>
<path fill="none" stroke="red" stroke-width="0.76" d="M580.4,-267.84C578.2,-256.61 574.12,-235.74 570.58,-217.63"/>
<polygon fill="red" stroke="red" stroke-width="0.76" points="573.98,-216.8 568.62,-207.66 567.11,-218.14 573.98,-216.8"/>
</g>
<!-- &#45;10&#45;&gt;396 -->
<g id="edge142" class="edge">
<title>&#45;10&#45;&gt;396</title>
<path fill="none" stroke="red" stroke-width="0.11" stroke-dasharray="1,5" d="M588.19,-267.77C592.92,-261.83 599.83,-253.85 607,-248.01 631.7,-227.87 645.87,-233.92 669,-212.01 691.37,-190.82 682.77,-173.07 707,-154.02 746.76,-122.77 804.19,-107.07 840.55,-99.81"/>
<polygon fill="red" stroke="red" stroke-width="0.11" points="841.49,-103.19 850.66,-97.89 840.18,-96.31 841.49,-103.19"/>
</g>
<!-- &#45;10&#45;&gt;397 -->
<g id="edge30" class="edge">
<title>&#45;10&#45;&gt;397</title>
<path fill="none" stroke="green" stroke-width="0.88" d="M586.88,-267.96C591.29,-261.45 598.39,-252.64 607,-248.01 624.67,-238.49 906.96,-201.41 1007.1,-188.49"/>
<polygon fill="green" stroke="green" stroke-width="0.88" points="1007.83,-191.92 1017.3,-187.18 1006.93,-184.98 1007.83,-191.92"/>
</g>
<!-- &#45;10&#45;&gt;398 -->
<g id="edge128" class="edge">
<title>&#45;10&#45;&gt;398</title>
<path fill="none" stroke="green" stroke-width="0.79" stroke-dasharray="1,5" d="M574.61,-267.62C569.66,-262.04 562.98,-254.54 557,-248.01 545.11,-235.01 531.71,-220.7 520.6,-208.91"/>
<polygon fill="green" stroke="green" stroke-width="0.79" points="523.08,-206.43 513.67,-201.56 517.99,-211.24 523.08,-206.43"/>
</g>
<!-- &#45;10&#45;&gt;399 -->
<g id="edge95" class="edge">
<title>&#45;10&#45;&gt;399</title>
<path fill="none" stroke="green" stroke-width="0.2" d="M586.8,-267.8C591.16,-261.2 598.24,-252.34 607,-248.01 700.7,-201.68 973.78,-233.86 1076,-212.01 1091.51,-208.69 1108.12,-203.04 1122.02,-197.68"/>
<polygon fill="green" stroke="green" stroke-width="0.2" points="1123.6,-200.82 1131.6,-193.87 1121.01,-194.31 1123.6,-200.82"/>
</g>
<!-- &#45;10&#45;&gt;400 -->
<g id="edge3" class="edge">
<title>&#45;10&#45;&gt;400</title>
<path fill="none" stroke="green" stroke-width="0.11" d="M587.7,-267.63C592.28,-261.46 599.22,-253.26 607,-248.01 646.15,-221.58 662.58,-228.08 707,-212.01 721.53,-206.75 737.59,-200.91 751.27,-195.94"/>
<polygon fill="green" stroke="green" stroke-width="0.11" points="752.56,-199.2 760.76,-192.49 750.16,-192.62 752.56,-199.2"/>
</g>
<!-- &#45;11 -->
<g id="node11" class="node">
<title>&#45;11</title>
<polygon fill="lightgray" stroke="black" points="246,-286 214,-286 214,-268 246,-268 246,-286"/>
<text text-anchor="middle" x="230" y="-274.8" font-family="Times,serif" font-size="9.00">&#45;11</text>
</g>
<!-- &#45;11&#45;&gt;389 -->
<g id="edge87" class="edge">
<title>&#45;11&#45;&gt;389</title>
<path fill="none" stroke="green" stroke-width="0.8" d="M236.2,-267.92C241.7,-261.4 250.34,-252.57 260,-248.01 369.85,-196.1 419.94,-261.3 531,-212.01 533.7,-210.81 536.35,-209.31 538.91,-207.65"/>
<polygon fill="green" stroke="green" stroke-width="0.8" points="541.24,-210.28 547.14,-201.48 537.04,-204.68 541.24,-210.28"/>
</g>
<!-- &#45;11&#45;&gt;396 -->
<g id="edge46" class="edge">
<title>&#45;11&#45;&gt;396</title>
<path fill="none" stroke="green" stroke-width="0.14" d="M236.87,-267.89C256.67,-245.2 316.6,-180.92 382,-154.02 524.58,-95.4 574.16,-138.24 727,-118.02 766.11,-112.85 810.81,-105.47 840.76,-100.32"/>
<polygon fill="green" stroke="green" stroke-width="0.14" points="841.45,-103.75 850.7,-98.6 840.25,-96.85 841.45,-103.75"/>
</g>
<!-- &#45;11&#45;&gt;397 -->
<g id="edge158" class="edge">
<title>&#45;11&#45;&gt;397</title>
<path fill="none" stroke="green" stroke-width="0.16" d="M246.22,-270.44C265.98,-263.91 300.52,-253.3 331,-248.01 544.83,-210.85 602.03,-233.47 818,-212.01 885.19,-205.33 963.4,-194.96 1007.36,-188.89"/>
<polygon fill="green" stroke="green" stroke-width="0.16" points="1008.09,-192.33 1017.52,-187.49 1007.13,-185.39 1008.09,-192.33"/>
</g>
<!-- &#45;11&#45;&gt;398 -->
<g id="edge113" class="edge">
<title>&#45;11&#45;&gt;398</title>
<path fill="none" stroke="red" stroke-width="0.82" d="M236.59,-267.99C242.2,-261.68 250.78,-253.13 260,-248.01 277.87,-238.07 402.12,-207.08 463.22,-192.17"/>
<polygon fill="red" stroke="red" stroke-width="0.82" points="464.27,-195.52 473.16,-189.76 462.62,-188.72 464.27,-195.52"/>
</g>
<!-- &#45;11&#45;&gt;399 -->
<g id="edge57" class="edge">
<title>&#45;11&#45;&gt;399</title>
<path fill="none" stroke="green" stroke-width="0.12" d="M246.19,-270.31C265.94,-263.65 300.46,-252.91 331,-248.01 658.3,-195.42 750.87,-276.7 1076,-212.01 1091.55,-208.91 1108.18,-203.29 1122.06,-197.89"/>
<polygon fill="green" stroke="green" stroke-width="0.12" points="1123.66,-201.02 1131.64,-194.04 1121.05,-194.53 1123.66,-201.02"/>
</g>
<!-- &#45;11&#45;&gt;400 -->
<g id="edge153" class="edge">
<title>&#45;11&#45;&gt;400</title>
<path fill="none" stroke="red" stroke-width="0.14" d="M246.28,-270.75C266.1,-264.52 300.7,-254.22 331,-248.01 448.3,-223.96 479.46,-228.92 598,-212.01 650.81,-204.47 711.97,-195.15 749.31,-189.4"/>
<polygon fill="red" stroke="red" stroke-width="0.14" points="750.29,-192.79 759.64,-187.8 749.22,-185.87 750.29,-192.79"/>
</g>
<!-- 1491 -->
<g id="node34" class="node">
<title>1491</title>
<ellipse fill="white" stroke="black" cx="123" cy="-183.02" rx="28.98" ry="28.98"/>
<text text-anchor="middle" x="123" y="-180.82" font-family="Times,serif" font-size="9.00">1491</text>
</g>
<!-- &#45;11&#45;&gt;1491 -->
<g id="edge67" class="edge">
<title>&#45;11&#45;&gt;1491</title>
<path fill="none" stroke="red" stroke-width="0.22" d="M220.5,-267.84C205.4,-254.86 175.3,-228.98 152.52,-209.39"/>
<polygon fill="red" stroke="red" stroke-width="0.22" points="154.67,-206.62 144.8,-202.76 150.1,-211.93 154.67,-206.62"/>
</g>
<!-- &#45;12 -->
<g id="node12" class="node">
<title>&#45;12</title>
<polygon fill="lightgray" stroke="black" points="976,-286 944,-286 944,-268 976,-268 976,-286"/>
<text text-anchor="middle" x="960" y="-274.8" font-family="Times,serif" font-size="9.00">&#45;12</text>
</g>
<!-- &#45;12&#45;&gt;389 -->
<g id="edge100" class="edge">
<title>&#45;12&#45;&gt;389</title>
<path fill="none" stroke="green" stroke-width="0.37" d="M954.91,-267.75C950.47,-261.31 943.43,-252.68 935,-248.01 920.24,-239.82 687.67,-203.17 598.46,-189.33"/>
<polygon fill="green" stroke="green" stroke-width="0.37" points="598.73,-185.83 588.32,-187.76 597.66,-192.75 598.73,-185.83"/>
</g>
<!-- &#45;12&#45;&gt;396 -->
<g id="edge122" class="edge">
<title>&#45;12&#45;&gt;396</title>
<path fill="none" stroke="green" stroke-width="0.12" d="M956.75,-267.9C948.78,-248.19 927.42,-196.21 907,-154.02 902.27,-144.25 896.79,-133.77 891.72,-124.35"/>
<polygon fill="green" stroke="green" stroke-width="0.12" points="894.68,-122.46 886.83,-115.35 888.53,-125.81 894.68,-122.46"/>
</g>
<!-- &#45;12&#45;&gt;397 -->
<g id="edge12" class="edge">
<title>&#45;12&#45;&gt;397</title>
<path fill="none" stroke="red" stroke-width="0.22" d="M967.27,-267.84C978.78,-254.93 1001.66,-229.27 1019.08,-209.72"/>
<polygon fill="red" stroke="red" stroke-width="0.22" points="1021.89,-211.83 1025.93,-202.04 1016.66,-207.17 1021.89,-211.83"/>
</g>
<!-- &#45;12&#45;&gt;398 -->
<g id="edge56" class="edge">
<title>&#45;12&#45;&gt;398</title>
<path fill="none" stroke="red" stroke-width="0.57" d="M955.18,-267.83C950.81,-261.25 943.73,-252.39 935,-248.01 773.49,-166.94 696.72,-281.72 530,-212.01 527.27,-210.87 524.6,-209.41 522.03,-207.77"/>
<polygon fill="red" stroke="red" stroke-width="0.57" points="523.9,-204.8 513.79,-201.65 519.73,-210.42 523.9,-204.8"/>
</g>
<!-- &#45;12&#45;&gt;399 -->
<g id="edge111" class="edge">
<title>&#45;12&#45;&gt;399</title>
<path fill="none" stroke="red" stroke-width="0.26" d="M965.73,-267.66C970.32,-261.51 977.26,-253.32 985,-248.01 990.88,-243.96 1073.86,-213.31 1121.31,-195.94"/>
<polygon fill="red" stroke="red" stroke-width="0.26" points="1122.67,-199.17 1130.86,-192.45 1120.26,-192.59 1122.67,-199.17"/>
</g>
<!-- &#45;12&#45;&gt;400 -->
<g id="edge101" class="edge">
<title>&#45;12&#45;&gt;400</title>
<path fill="none" stroke="red" stroke-width="0.51" d="M954.21,-267.75C949.58,-261.64 942.63,-253.47 935,-248.01 898.44,-221.84 849.53,-203.6 817.41,-193.47"/>
<polygon fill="red" stroke="red" stroke-width="0.51" points="818.2,-190.05 807.61,-190.47 816.15,-196.75 818.2,-190.05"/>
</g>
<!-- &#45;13 -->
<g id="node13" class="node">
<title>&#45;13</title>
<polygon fill="lightgray" stroke="black" points="1026,-286 994,-286 994,-268 1026,-268 1026,-286"/>
<text text-anchor="middle" x="1010" y="-274.8" font-family="Times,serif" font-size="9.00">&#45;13</text>
</g>
<!-- &#45;13&#45;&gt;389 -->
<g id="edge60" class="edge">
<title>&#45;13&#45;&gt;389</title>
<path fill="none" stroke="green" stroke-width="0.23" d="M1005.11,-267.97C1000.7,-261.47 993.59,-252.66 985,-248.01 983.93,-247.43 698.53,-204.32 598.31,-189.19"/>
<polygon fill="green" stroke="green" stroke-width="0.23" points="598.79,-185.73 588.38,-187.69 597.75,-192.65 598.79,-185.73"/>
</g>
<!-- &#45;13&#45;&gt;396 -->
<g id="edge25" class="edge">
<title>&#45;13&#45;&gt;396</title>
<path fill="none" stroke="red" stroke-width="0.17" d="M1005.67,-267.91C994.73,-247.79 964.59,-194.17 933,-154.02 923.07,-141.41 910.84,-128.5 900.18,-117.92"/>
<polygon fill="red" stroke="red" stroke-width="0.17" points="902.34,-115.14 892.74,-110.66 897.46,-120.15 902.34,-115.14"/>
</g>
<!-- &#45;13&#45;&gt;397 -->
<g id="edge138" class="edge">
<title>&#45;13&#45;&gt;397</title>
<path fill="none" stroke="red" stroke-width="0.44" stroke-dasharray="1,5" d="M1012.84,-267.84C1016.86,-256.28 1024.43,-234.51 1030.85,-216.05"/>
<polygon fill="red" stroke="red" stroke-width="0.44" points="1034.2,-217.09 1034.18,-206.5 1027.59,-214.79 1034.2,-217.09"/>
</g>
<!-- &#45;13&#45;&gt;398 -->
<g id="edge125" class="edge">
<title>&#45;13&#45;&gt;398</title>
<path fill="none" stroke="green" stroke-width="0.36" d="M1005.19,-267.81C1000.83,-261.21 993.75,-252.35 985,-248.01 803.26,-157.88 717.53,-289.36 530,-212.01 527.26,-210.88 524.59,-209.44 522.02,-207.8"/>
<polygon fill="green" stroke="green" stroke-width="0.36" points="523.89,-204.83 513.77,-201.69 519.72,-210.45 523.89,-204.83"/>
</g>
<!-- &#45;13&#45;&gt;399 -->
<g id="edge73" class="edge">
<title>&#45;13&#45;&gt;399</title>
<path fill="none" stroke="red" stroke-width="0.18" d="M1022.53,-268C1045.13,-253.56 1093.31,-222.78 1124.64,-202.77"/>
<polygon fill="red" stroke="red" stroke-width="0.18" points="1126.84,-205.51 1133.39,-197.18 1123.07,-199.62 1126.84,-205.51"/>
</g>
<!-- &#45;13&#45;&gt;400 -->
<g id="edge59" class="edge">
<title>&#45;13&#45;&gt;400</title>
<path fill="none" stroke="red" stroke-width="0.23" d="M1004.54,-267.8C999.99,-261.56 992.98,-253.18 985,-248.01 932.44,-213.95 860.41,-196.84 818.37,-189.23"/>
<polygon fill="red" stroke="red" stroke-width="0.23" points="818.81,-185.75 808.36,-187.5 817.62,-192.65 818.81,-185.75"/>
</g>
<!-- &#45;14 -->
<g id="node14" class="node">
<title>&#45;14</title>
<polygon fill="lightgray" stroke="black" points="397,-359.99 365,-359.99 365,-341.99 397,-341.99 397,-359.99"/>
<text text-anchor="middle" x="381" y="-348.79" font-family="Times,serif" font-size="9.00">&#45;14</text>
</g>
<!-- &#45;14&#45;&gt;396 -->
<g id="edge38" class="edge">
<title>&#45;14&#45;&gt;396</title>
<path fill="none" stroke="red" stroke-width="0.46" d="M364.82,-349.26C297.65,-346.05 43.23,-332.22 20,-305.99 -28.7,-250.99 20.92,-189.94 85,-154.02 147.32,-119.09 655.97,-125.69 727,-118.02 766.23,-113.79 810.9,-106.24 840.81,-100.79"/>
<polygon fill="red" stroke="red" stroke-width="0.46" points="841.55,-104.21 850.75,-98.96 840.28,-97.33 841.55,-104.21"/>
</g>
<!-- &#45;14&#45;&gt;397 -->
<g id="edge90" class="edge">
<title>&#45;14&#45;&gt;397</title>
<path fill="none" stroke="green" stroke-width="0.54" d="M397.17,-350.15C493.46,-350.94 988.76,-352.69 1035,-305.99 1057.63,-283.14 1055.91,-244.56 1050.74,-216.91"/>
<polygon fill="green" stroke="green" stroke-width="0.54" points="1054.12,-215.97 1048.64,-206.9 1047.27,-217.41 1054.12,-215.97"/>
</g>
<!-- &#45;14&#45;&gt;398 -->
<g id="edge105" class="edge">
<title>&#45;14&#45;&gt;398</title>
<path fill="none" stroke="red" stroke-width="0.12" d="M364.91,-350.31C287.95,-351.36 -35.24,-349.88 53,-248.01 79.81,-217.05 362.29,-193.77 462.22,-186.44"/>
<polygon fill="red" stroke="red" stroke-width="0.12" points="462.67,-189.92 472.39,-185.71 462.16,-182.94 462.67,-189.92"/>
</g>
<!-- &#45;14&#45;&gt;399 -->
<g id="edge149" class="edge">
<title>&#45;14&#45;&gt;399</title>
<path fill="none" stroke="red" stroke-width="0.2" d="M397.17,-349.96C528.27,-349.6 1412.86,-345.73 1451,-305.99 1468.84,-287.4 1467.19,-268.06 1451,-248.01 1434.5,-227.57 1263.84,-200.19 1188.93,-189.05"/>
<polygon fill="red" stroke="red" stroke-width="0.2" points="1189.01,-185.52 1178.6,-187.53 1187.99,-192.45 1189.01,-185.52"/>
</g>
<!-- &#45;14&#45;&gt;400 -->
<g id="edge5" class="edge">
<title>&#45;14&#45;&gt;400</title>
<path fill="none" stroke="green" stroke-width="0.16" d="M397.17,-350.49C440.61,-351.19 562.55,-348.92 651,-305.99 663.71,-299.82 724.52,-241.8 759.35,-208.05"/>
<polygon fill="green" stroke="green" stroke-width="0.16" points="762.04,-210.32 766.78,-200.85 757.17,-205.3 762.04,-210.32"/>
</g>
<!-- 1586 -->
<g id="node33" class="node">
<title>1586</title>
<ellipse fill="white" stroke="black" cx="1527" cy="-277" rx="28.98" ry="28.98"/>
<text text-anchor="middle" x="1527" y="-274.8" font-family="Times,serif" font-size="9.00">1586</text>
</g>
<!-- &#45;14&#45;&gt;1586 -->
<g id="edge76" class="edge">
<title>&#45;14&#45;&gt;1586</title>
<path fill="none" stroke="red" stroke-width="0.11" d="M397.34,-349.86C526.19,-348.78 1376.04,-340.39 1484,-305.99 1488.01,-304.71 1492,-302.95 1495.85,-300.93"/>
<polygon fill="red" stroke="red" stroke-width="0.11" points="1497.65,-303.93 1504.5,-295.85 1494.11,-297.9 1497.65,-303.93"/>
</g>
<!-- &#45;14&#45;&gt;1491 -->
<g id="edge50" class="edge">
<title>&#45;14&#45;&gt;1491</title>
<path fill="none" stroke="red" stroke-width="0.13" d="M364.56,-349.16C298.67,-345.66 56.18,-331.16 34,-305.99 16.96,-286.66 22.24,-270.94 34,-248.01 45.17,-226.22 67.58,-210.18 87.12,-199.6"/>
<polygon fill="red" stroke="red" stroke-width="0.13" points="88.82,-202.66 96.13,-194.98 85.63,-196.43 88.82,-202.66"/>
</g>
<!-- 1244 -->
<g id="node37" class="node">
<title>1244</title>
<ellipse fill="white" stroke="black" cx="91" cy="-277" rx="28.98" ry="28.98"/>
<text text-anchor="middle" x="91" y="-274.8" font-family="Times,serif" font-size="9.00">1244</text>
</g>
<!-- &#45;14&#45;&gt;1244 -->
<g id="edge75" class="edge">
<title>&#45;14&#45;&gt;1244</title>
<path fill="none" stroke="red" stroke-width="0.6" d="M364.79,-349.33C324.41,-347.21 216.62,-338.67 134,-305.99 130.08,-304.44 126.15,-302.51 122.34,-300.39"/>
<polygon fill="red" stroke="red" stroke-width="0.6" points="124.1,-297.37 113.72,-295.2 120.48,-303.36 124.1,-297.37"/>
</g>
<!-- &#45;15 -->
<g id="node15" class="node">
<title>&#45;15</title>
<polygon fill="lightgray" stroke="black" points="548,-286 516,-286 516,-268 548,-268 548,-286"/>
<text text-anchor="middle" x="532" y="-274.8" font-family="Times,serif" font-size="9.00">&#45;15</text>
</g>
<!-- &#45;15&#45;&gt;389 -->
<g id="edge130" class="edge">
<title>&#45;15&#45;&gt;389</title>
<path fill="none" stroke="green" stroke-width="0.28" d="M534.84,-267.84C538.86,-256.28 546.43,-234.51 552.85,-216.05"/>
<polygon fill="green" stroke="green" stroke-width="0.28" points="556.2,-217.09 556.18,-206.5 549.59,-214.79 556.2,-217.09"/>
</g>
<!-- &#45;15&#45;&gt;396 -->
<g id="edge109" class="edge">
<title>&#45;15&#45;&gt;396</title>
<path fill="none" stroke="green" stroke-width="0.27" d="M537.87,-267.86C542.54,-261.81 549.51,-253.67 557,-248.01 586.17,-225.95 603.54,-236.17 631,-212.01 654.13,-191.65 644.22,-172.34 669,-154.02 720.73,-115.79 796.45,-101.95 840.23,-96.99"/>
<polygon fill="green" stroke="green" stroke-width="0.27" points="840.79,-100.45 850.37,-95.94 840.07,-93.49 840.79,-100.45"/>
</g>
<!-- &#45;15&#45;&gt;397 -->
<g id="edge54" class="edge">
<title>&#45;15&#45;&gt;397</title>
<path fill="none" stroke="green" stroke-width="0.59" d="M536.86,-267.93C541.26,-261.4 548.36,-252.58 557,-248.01 562.02,-245.35 897.18,-202.47 1007.33,-188.43"/>
<polygon fill="green" stroke="green" stroke-width="0.59" points="1008.09,-191.86 1017.57,-187.12 1007.21,-184.92 1008.09,-191.86"/>
</g>
<!-- &#45;15&#45;&gt;398 -->
<g id="edge10" class="edge">
<title>&#45;15&#45;&gt;398</title>
<path fill="none" stroke="red" stroke-width="0.22" d="M528.89,-267.84C524.5,-256.28 516.21,-234.51 509.19,-216.05"/>
<polygon fill="red" stroke="red" stroke-width="0.22" points="512.38,-214.6 505.55,-206.5 505.84,-217.09 512.38,-214.6"/>
</g>
<!-- &#45;15&#45;&gt;399 -->
<g id="edge119" class="edge">
<title>&#45;15&#45;&gt;399</title>
<path fill="none" stroke="red" stroke-width="0.68" stroke-dasharray="1,5" d="M536.79,-267.79C541.15,-261.18 548.22,-252.31 557,-248.01 660.82,-197.15 962.85,-235.76 1076,-212.01 1091.52,-208.75 1108.14,-203.11 1122.03,-197.74"/>
<polygon fill="red" stroke="red" stroke-width="0.68" points="1123.62,-200.87 1131.61,-193.91 1121.02,-194.37 1123.62,-200.87"/>
</g>
<!-- &#45;15&#45;&gt;400 -->
<g id="edge156" class="edge">
<title>&#45;15&#45;&gt;400</title>
<path fill="none" stroke="red" stroke-width="0.45" d="M537.23,-267.98C541.74,-261.67 548.82,-253.12 557,-248.01 573.5,-237.7 690.65,-207.42 749.88,-192.51"/>
<polygon fill="red" stroke="red" stroke-width="0.45" points="751.05,-195.82 759.89,-190 749.34,-189.04 751.05,-195.82"/>
</g>
<!-- &#45;16 -->
<g id="node16" class="node">
<title>&#45;16</title>
<polygon fill="lightgray" stroke="black" points="1442,-286 1410,-286 1410,-268 1442,-268 1442,-286"/>
<text text-anchor="middle" x="1426" y="-274.8" font-family="Times,serif" font-size="9.00">&#45;16</text>
</g>
<!-- &#45;16&#45;&gt;396 -->
<g id="edge19" class="edge">
<title>&#45;16&#45;&gt;396</title>
<path fill="none" stroke="red" stroke-width="1.22" d="M1427.64,-267.99C1431.61,-246.11 1439.18,-184.87 1407,-154.02 1371.04,-119.57 1022.37,-100.93 909.83,-95.77"/>
<polygon fill="red" stroke="red" stroke-width="1.22" points="909.84,-92.27 899.69,-95.31 909.52,-99.26 909.84,-92.27"/>
</g>
<!-- &#45;16&#45;&gt;397 -->
<g id="edge66" class="edge">
<title>&#45;16&#45;&gt;397</title>
<path fill="none" stroke="green" stroke-width="0.31" d="M1421.14,-267.92C1416.74,-261.39 1409.65,-252.56 1401,-248.01 1289.59,-189.35 1242.42,-241.44 1120,-212.01 1104.58,-208.3 1087.97,-202.59 1074.06,-197.3"/>
<polygon fill="green" stroke="green" stroke-width="0.31" points="1075.06,-193.93 1064.47,-193.55 1072.51,-200.45 1075.06,-193.93"/>
</g>
<!-- &#45;16&#45;&gt;399 -->
<g id="edge8" class="edge">
<title>&#45;16&#45;&gt;399</title>
<path fill="none" stroke="red" stroke-width="0.17" d="M1420.8,-267.94C1416.3,-261.6 1409.23,-253.03 1401,-248.01 1333.03,-206.56 1238.76,-191.77 1188.62,-186.63"/>
<polygon fill="red" stroke="red" stroke-width="0.17" points="1188.9,-183.14 1178.61,-185.68 1188.23,-190.11 1188.9,-183.14"/>
</g>
<!-- &#45;16&#45;&gt;400 -->
<g id="edge70" class="edge">
<title>&#45;16&#45;&gt;400</title>
<path fill="none" stroke="red" stroke-width="0.18" d="M1421.18,-267.84C1416.81,-261.26 1409.73,-252.4 1401,-248.01 1322.67,-208.56 1095.19,-221.45 1008,-212.01 940.87,-204.74 862.63,-194.58 818.65,-188.71"/>
<polygon fill="red" stroke="red" stroke-width="0.18" points="818.87,-185.2 808.5,-187.35 817.94,-192.14 818.87,-185.2"/>
</g>
<!-- &#45;17 -->
<g id="node17" class="node">
<title>&#45;17</title>
<polygon fill="lightgray" stroke="black" points="1392,-286 1360,-286 1360,-268 1392,-268 1392,-286"/>
<text text-anchor="middle" x="1376" y="-274.8" font-family="Times,serif" font-size="9.00">&#45;17</text>
</g>
<!-- &#45;17&#45;&gt;389 -->
<g id="edge157" class="edge">
<title>&#45;17&#45;&gt;389</title>
<path fill="none" stroke="green" stroke-width="0.15" d="M1361.75,-267.91C1349.31,-261.28 1330.55,-252.32 1313,-248.01 1069.51,-188.17 999.31,-238.69 750,-212.01 696.95,-206.33 635.86,-196.5 598.59,-190.13"/>
<polygon fill="green" stroke="green" stroke-width="0.15" points="598.74,-186.6 588.29,-188.35 597.55,-193.5 598.74,-186.6"/>
</g>
<!-- &#45;17&#45;&gt;396 -->
<g id="edge120" class="edge">
<title>&#45;17&#45;&gt;396</title>
<path fill="none" stroke="red" stroke-width="0.43" d="M1369.25,-267.72C1350.31,-245.14 1294.01,-182.29 1232,-154.02 1122.31,-104.03 976.56,-95.41 910.38,-94.23"/>
<polygon fill="red" stroke="red" stroke-width="0.43" points="910.13,-90.73 900.08,-94.1 910.04,-97.73 910.13,-90.73"/>
</g>
<!-- &#45;17&#45;&gt;397 -->
<g id="edge108" class="edge">
<title>&#45;17&#45;&gt;397</title>
<path fill="none" stroke="red" stroke-width="1.13" d="M1369.77,-267.99C1364.25,-261.5 1355.6,-252.7 1346,-248.01 1254.61,-203.37 1218.52,-237.29 1120,-212.01 1104.64,-208.06 1088.04,-202.33 1074.12,-197.07"/>
<polygon fill="red" stroke="red" stroke-width="1.13" points="1075.1,-193.7 1064.52,-193.36 1072.58,-200.23 1075.1,-193.7"/>
</g>
<!-- &#45;17&#45;&gt;398 -->
<g id="edge55" class="edge">
<title>&#45;17&#45;&gt;398</title>
<path fill="none" stroke="green" stroke-width="0.16" d="M1362.02,-267.96C1349.59,-261.27 1330.7,-252.19 1313,-248.01 1143.48,-207.95 692.1,-275.76 530,-212.01 527.25,-210.92 524.56,-209.51 521.98,-207.9"/>
<polygon fill="green" stroke="green" stroke-width="0.16" points="523.85,-204.92 513.72,-201.82 519.7,-210.56 523.85,-204.92"/>
</g>
<!-- &#45;17&#45;&gt;399 -->
<g id="edge11" class="edge">
<title>&#45;17&#45;&gt;399</title>
<path fill="none" stroke="green" stroke-width="1.13" d="M1368.86,-267.62C1363.21,-261.45 1354.82,-253.25 1346,-248.01 1295.12,-217.77 1228.07,-199.62 1188.16,-190.74"/>
<polygon fill="green" stroke="green" stroke-width="1.13" points="1188.65,-187.27 1178.14,-188.58 1187.18,-194.11 1188.65,-187.27"/>
</g>
<!-- &#45;17&#45;&gt;400 -->
<g id="edge94" class="edge">
<title>&#45;17&#45;&gt;400</title>
<path fill="none" stroke="red" stroke-width="0.14" d="M1361.19,-267.89C1348.72,-261.43 1330.2,-252.73 1313,-248.01 1181.37,-211.89 1143.5,-228.47 1008,-212.01 940.97,-203.86 862.7,-194 818.68,-188.42"/>
<polygon fill="red" stroke="red" stroke-width="0.14" points="818.88,-184.92 808.52,-187.14 818,-191.87 818.88,-184.92"/>
</g>
<!-- 1434 -->
<g id="node38" class="node">
<title>1434</title>
<ellipse fill="white" stroke="black" cx="1369" cy="-183.02" rx="28.98" ry="28.98"/>
<text text-anchor="middle" x="1369" y="-180.82" font-family="Times,serif" font-size="9.00">1434</text>
</g>
<!-- &#45;17&#45;&gt;1434 -->
<g id="edge79" class="edge">
<title>&#45;17&#45;&gt;1434</title>
<path fill="none" stroke="green" stroke-width="0.35" d="M1375.38,-267.84C1374.6,-257.57 1373.2,-239.23 1371.91,-222.32"/>
<polygon fill="green" stroke="green" stroke-width="0.35" points="1375.38,-221.76 1371.13,-212.06 1368.4,-222.29 1375.38,-221.76"/>
</g>
<!-- &#45;18 -->
<g id="node18" class="node">
<title>&#45;18</title>
<polygon fill="lightgray" stroke="black" points="416,-286 384,-286 384,-268 416,-268 416,-286"/>
<text text-anchor="middle" x="400" y="-274.8" font-family="Times,serif" font-size="9.00">&#45;18</text>
</g>
<!-- &#45;18&#45;&gt;389 -->
<g id="edge1" class="edge">
<title>&#45;18&#45;&gt;389</title>
<path fill="none" stroke="green" stroke-width="0.14" stroke-dasharray="1,5" d="M407.17,-267.67C412.84,-261.53 421.23,-253.34 430,-248.01 470.71,-223.24 489.71,-235.81 531,-212.01 533.5,-210.56 535.99,-208.92 538.43,-207.18"/>
<polygon fill="green" stroke="green" stroke-width="0.14" points="540.65,-209.88 546.38,-200.97 536.35,-204.36 540.65,-209.88"/>
</g>
<!-- &#45;18&#45;&gt;396 -->
<g id="edge24" class="edge">
<title>&#45;18&#45;&gt;396</title>
<path fill="none" stroke="red" stroke-width="0.16" d="M403.11,-267.72C412.7,-242.68 442.36,-168.6 463,-154.02 511.37,-119.87 668.43,-126.72 727,-118.02 766.03,-112.23 810.74,-104.97 840.72,-100.01"/>
<polygon fill="red" stroke="red" stroke-width="0.16" points="841.38,-103.45 850.67,-98.36 840.23,-96.54 841.38,-103.45"/>
</g>
<!-- &#45;18&#45;&gt;398 -->
<g id="edge88" class="edge">
<title>&#45;18&#45;&gt;398</title>
<path fill="none" stroke="green" stroke-width="0.45" d="M408.61,-267.84C422.73,-254.44 451.33,-227.32 472.19,-207.54"/>
<polygon fill="green" stroke="green" stroke-width="0.45" points="474.63,-210.05 479.48,-200.63 469.81,-204.97 474.63,-210.05"/>
</g>
<!-- &#45;18&#45;&gt;399 -->
<g id="edge16" class="edge">
<title>&#45;18&#45;&gt;399</title>
<path fill="none" stroke="green" stroke-width="0.7" d="M414.24,-267.89C426.67,-261.25 445.44,-252.27 463,-248.01 728.19,-183.56 808.61,-266.66 1076,-212.01 1091.54,-208.83 1108.16,-203.2 1122.05,-197.82"/>
<polygon fill="green" stroke="green" stroke-width="0.7" points="1123.64,-200.95 1131.62,-193.98 1121.04,-194.45 1123.64,-200.95"/>
</g>
<!-- &#45;18&#45;&gt;400 -->
<g id="edge58" class="edge">
<title>&#45;18&#45;&gt;400</title>
<path fill="none" stroke="red" stroke-width="0.11" d="M415.42,-267.99C427.95,-261.77 446.23,-253.33 463,-248.01 564.67,-215.72 689.85,-196.38 749.38,-188.35"/>
<polygon fill="red" stroke="red" stroke-width="0.11" points="749.92,-191.81 759.37,-187.03 749,-184.87 749.92,-191.81"/>
</g>
<!-- &#45;19 -->
<g id="node19" class="node">
<title>&#45;19</title>
<polygon fill="lightgray" stroke="black" points="1266,-359.99 1234,-359.99 1234,-341.99 1266,-341.99 1266,-359.99"/>
<text text-anchor="middle" x="1250" y="-348.79" font-family="Times,serif" font-size="9.00">&#45;19</text>
</g>
<!-- &#45;19&#45;&gt;389 -->
<g id="edge145" class="edge">
<title>&#45;19&#45;&gt;389</title>
<path fill="none" stroke="green" stroke-width="0.2" d="M1233.73,-348.8C1211.13,-347.17 1168.97,-344.19 1133,-341.99 1095.79,-339.72 488.64,-333.05 463,-305.99 445.27,-287.29 449.71,-270.08 463,-248.01 480.64,-218.71 502.68,-231.18 531,-212.01 533.39,-210.39 535.81,-208.62 538.19,-206.8"/>
<polygon fill="green" stroke="green" stroke-width="0.2" points="540.47,-209.45 546.06,-200.44 536.08,-204 540.47,-209.45"/>
</g>
<!-- &#45;19&#45;&gt;396 -->
<g id="edge121" class="edge">
<title>&#45;19&#45;&gt;396</title>
<path fill="none" stroke="green" stroke-width="0.41" d="M1266.08,-349.66C1342.82,-347.94 1669.3,-338.74 1699,-305.99 1716.31,-286.9 1710.51,-271.06 1699,-248.01 1667.95,-185.82 1638.93,-178.83 1574,-154.02 1450.46,-106.82 1033.49,-96.71 909.84,-94.72"/>
<polygon fill="green" stroke="green" stroke-width="0.41" points="909.84,-91.22 899.79,-94.57 909.73,-98.22 909.84,-91.22"/>
</g>
<!-- &#45;19&#45;&gt;397 -->
<g id="edge71" class="edge">
<title>&#45;19&#45;&gt;397</title>
<path fill="none" stroke="red" stroke-width="0.12" d="M1249.24,-341.9C1247.02,-322.91 1238.94,-275.04 1212,-248.01 1209.45,-245.45 1123.33,-213.72 1074.67,-195.93"/>
<polygon fill="red" stroke="red" stroke-width="0.12" points="1075.78,-192.61 1065.19,-192.46 1073.38,-199.18 1075.78,-192.61"/>
</g>
<!-- &#45;19&#45;&gt;398 -->
<g id="edge22" class="edge">
<title>&#45;19&#45;&gt;398</title>
<path fill="none" stroke="red" stroke-width="0.98" d="M1233.73,-348.73C1211.14,-347 1168.98,-343.92 1133,-341.99 1081.48,-339.23 240.77,-343.17 205,-305.99 125.69,-223.55 368.58,-194.52 462,-186.56"/>
<polygon fill="red" stroke="red" stroke-width="0.98" points="462.43,-190.04 472.11,-185.73 461.85,-183.06 462.43,-190.04"/>
</g>
<!-- &#45;19&#45;&gt;399 -->
<g id="edge134" class="edge">
<title>&#45;19&#45;&gt;399</title>
<path fill="none" stroke="red" stroke-width="0.25" stroke-dasharray="1,5" d="M1266.11,-349.59C1340.77,-347.55 1650.78,-337.25 1679,-305.99 1696.27,-286.86 1696.26,-267.14 1679,-248.01 1626.93,-190.27 1408.09,-222.08 1331,-212.01 1281.16,-205.49 1223.74,-196.05 1188.15,-189.97"/>
<polygon fill="red" stroke="red" stroke-width="0.25" points="1188.72,-186.52 1178.27,-188.28 1187.54,-193.42 1188.72,-186.52"/>
</g>
<!-- &#45;19&#45;&gt;400 -->
<g id="edge85" class="edge">
<title>&#45;19&#45;&gt;400</title>
<path fill="none" stroke="red" stroke-width="0.26" d="M1233.77,-348.8C1150.86,-342.7 778.02,-314.78 770,-305.99 747.86,-281.73 757.44,-242.49 768.58,-215.09"/>
<polygon fill="red" stroke="red" stroke-width="0.26" points="771.94,-216.14 772.7,-205.58 765.51,-213.36 771.94,-216.14"/>
</g>
<!-- 1485 -->
<g id="node36" class="node">
<title>1485</title>
<ellipse fill="white" stroke="black" cx="1641" cy="-277" rx="28.98" ry="28.98"/>
<text text-anchor="middle" x="1641" y="-274.8" font-family="Times,serif" font-size="9.00">1485</text>
</g>
<!-- &#45;19&#45;&gt;1485 -->
<g id="edge131" class="edge">
<title>&#45;19&#45;&gt;1485</title>
<path fill="none" stroke="red" stroke-width="0.11" d="M1266.2,-350.47C1316.92,-351.45 1476.5,-350.53 1598,-305.99 1601.95,-304.54 1605.91,-302.67 1609.73,-300.59"/>
<polygon fill="red" stroke="red" stroke-width="0.11" points="1611.57,-303.57 1618.36,-295.44 1607.98,-297.56 1611.57,-303.57"/>
</g>
<!-- &#45;20 -->
<g id="node20" class="node">
<title>&#45;20</title>
<polygon fill="lightgray" stroke="black" points="1569,-359.99 1537,-359.99 1537,-341.99 1569,-341.99 1569,-359.99"/>
<text text-anchor="middle" x="1553" y="-348.79" font-family="Times,serif" font-size="9.00">&#45;20</text>
</g>
<!-- &#45;20&#45;&gt;396 -->
<g id="edge32" class="edge">
<title>&#45;20&#45;&gt;396</title>
<path fill="none" stroke="green" stroke-width="0.18" d="M1569.21,-348.15C1607.11,-343.47 1699.71,-329.79 1718,-305.99 1764.37,-245.63 1706.69,-188.83 1639,-154.02 1573.63,-120.41 1051.78,-100.31 910.28,-95.44"/>
<polygon fill="green" stroke="green" stroke-width="0.18" points="910.13,-91.93 900.01,-95.09 909.89,-98.93 910.13,-91.93"/>
</g>
<!-- &#45;20&#45;&gt;397 -->
<g id="edge82" class="edge">
<title>&#45;20&#45;&gt;397</title>
<path fill="none" stroke="green" stroke-width="0.18" d="M1536.99,-350.43C1500.61,-350.66 1410.29,-346.78 1351,-305.99 1325.61,-288.53 1338.64,-265.09 1313,-248.01 1240.37,-199.64 1204.22,-234.82 1120,-212.01 1104.69,-207.86 1088.1,-202.09 1074.17,-196.87"/>
<polygon fill="green" stroke="green" stroke-width="0.18" points="1075.15,-193.5 1064.56,-193.2 1072.65,-200.04 1075.15,-193.5"/>
</g>
<!-- &#45;20&#45;&gt;398 -->
<g id="edge139" class="edge">
<title>&#45;20&#45;&gt;398</title>
<path fill="none" stroke="red" stroke-width="0.29" d="M1536.72,-349.48C1392.39,-344.96 336.49,-311.68 331,-305.99 313.11,-287.44 316.42,-269.26 331,-248.01 360.44,-205.11 423.01,-190.96 462.36,-186.3"/>
<polygon fill="red" stroke="red" stroke-width="0.29" points="462.73,-189.78 472.31,-185.26 462,-182.82 462.73,-189.78"/>
</g>
<!-- &#45;20&#45;&gt;399 -->
<g id="edge20" class="edge">
<title>&#45;20&#45;&gt;399</title>
<path fill="none" stroke="green" stroke-width="0.29" d="M1569.15,-350.75C1600.32,-351.23 1668.37,-347.21 1699,-305.99 1714.37,-285.31 1716.31,-267.1 1699,-248.01 1671.4,-217.57 1371.75,-217.22 1331,-212.01 1281.14,-205.63 1223.72,-196.16 1188.14,-190.03"/>
<polygon fill="green" stroke="green" stroke-width="0.29" points="1188.72,-186.58 1178.27,-188.32 1187.52,-193.48 1188.72,-186.58"/>
</g>
<!-- &#45;20&#45;&gt;400 -->
<g id="edge154" class="edge">
<title>&#45;20&#45;&gt;400</title>
<path fill="none" stroke="red" stroke-width="0.3" stroke-dasharray="1,5" d="M1536.95,-349.62C1430.62,-347.06 831.15,-331.56 803,-305.99 779.08,-284.27 776.75,-245.84 778.86,-217.9"/>
<polygon fill="red" stroke="red" stroke-width="0.3" points="782.37,-218.06 779.86,-207.77 775.4,-217.38 782.37,-218.06"/>
</g>
<!-- 1649 -->
<g id="node32" class="node">
<title>1649</title>
<ellipse fill="white" stroke="black" cx="1907" cy="-277" rx="28.98" ry="28.98"/>
<text text-anchor="middle" x="1907" y="-274.8" font-family="Times,serif" font-size="9.00">1649</text>
</g>
<!-- &#45;20&#45;&gt;1649 -->
<g id="edge135" class="edge">
<title>&#45;20&#45;&gt;1649</title>
<path fill="none" stroke="red" stroke-width="0.11" d="M1569.13,-350.13C1616.19,-350.05 1756.78,-346.2 1864,-305.99 1867.94,-304.51 1871.89,-302.63 1875.71,-300.53"/>
<polygon fill="red" stroke="red" stroke-width="0.11" points="1877.56,-303.51 1884.34,-295.37 1873.96,-297.5 1877.56,-303.51"/>
</g>
<!-- 0 -->
<g id="node21" class="node">
<title>0</title>
<ellipse fill="lightblue" stroke="black" cx="808" cy="-16.26" rx="16.03" ry="16.03"/>
<text text-anchor="middle" x="808" y="-14.06" font-family="Times,serif" font-size="9.00">0</text>
</g>
<!-- 1 -->
<g id="node22" class="node">
<title>1</title>
<ellipse fill="lightblue" stroke="black" cx="750" cy="-16.26" rx="16.03" ry="16.03"/>
<text text-anchor="middle" x="750" y="-14.06" font-family="Times,serif" font-size="9.00">1</text>
</g>
<!-- 4 -->
<g id="node25" class="node">
<title>4</title>
<ellipse fill="lightblue" stroke="black" cx="862" cy="-16.26" rx="16.03" ry="16.03"/>
<text text-anchor="middle" x="862" y="-14.06" font-family="Times,serif" font-size="9.00">4</text>
</g>
<!-- 389&#45;&gt;0 -->
<g id="edge137" class="edge">
<title>389&#45;&gt;0</title>
<path fill="none" stroke="green" stroke-width="0.2" d="M566.14,-158.26C569.79,-132.29 579.62,-91.34 606,-68.53 664.08,-18.29 702.14,-56.8 775,-32.53 778.17,-31.47 781.45,-30.2 784.64,-28.84"/>
<polygon fill="green" stroke="green" stroke-width="0.2" points="786.17,-31.99 793.82,-24.67 783.27,-25.62 786.17,-31.99"/>
</g>
<!-- 389&#45;&gt;1 -->
<g id="edge89" class="edge">
<title>389&#45;&gt;1</title>
<path fill="none" stroke="green" stroke-width="0.31" d="M548.92,-163.17C531.45,-138.91 507.75,-96.56 530,-68.53 553.95,-38.35 670.71,-24.3 723.72,-19.4"/>
<polygon fill="green" stroke="green" stroke-width="0.31" points="724.07,-22.88 733.72,-18.51 723.45,-15.91 724.07,-22.88"/>
</g>
<!-- 389&#45;&gt;2 -->
<g id="edge34" class="edge">
<title>389&#45;&gt;2</title>
<path fill="none" stroke="red" stroke-width="0.26" d="M583.47,-167.22C589.59,-162.79 596.47,-158.04 603,-154.02 632.46,-135.89 642.98,-136.84 672,-118.02 675.41,-115.81 678.91,-113.3 682.26,-110.75"/>
<polygon fill="red" stroke="red" stroke-width="0.26" points="684.46,-113.47 690.13,-104.52 680.11,-107.99 684.46,-113.47"/>
</g>
<!-- 389&#45;&gt;3 -->
<g id="edge147" class="edge">
<title>389&#45;&gt;3</title>
<path fill="none" stroke="red" stroke-width="0.27" d="M581.72,-165.39C585.74,-161.63 590.01,-157.68 594,-154.02 611.63,-137.87 617.23,-135.08 634,-118.02 654.42,-97.24 651.23,-82.13 677,-68.53 713.81,-49.1 1002.43,-25.96 1091.75,-19.2"/>
<polygon fill="red" stroke="red" stroke-width="0.27" points="1092.14,-22.69 1101.85,-18.45 1091.62,-15.7 1092.14,-22.69"/>
</g>
<!-- 389&#45;&gt;4 -->
<g id="edge103" class="edge">
<title>389&#45;&gt;4</title>
<path fill="none" stroke="red" stroke-width="0.46" d="M573.35,-159.71C585.58,-133.49 609.55,-90.73 644,-68.53 715.87,-22.2 752.28,-60.75 833,-32.53 835.14,-31.78 837.31,-30.9 839.46,-29.93"/>
<polygon fill="red" stroke="red" stroke-width="0.46" points="841.12,-33.02 848.51,-25.43 838,-26.75 841.12,-33.02"/>
</g>
<!-- 389&#45;&gt;396 -->
<g id="edge133" class="edge">
<title>389&#45;&gt;396</title>
<path fill="none" stroke="red" stroke-width="0.11" d="M582.49,-166.41C588.68,-161.84 595.84,-157.21 603,-154.02 645.46,-135.1 777.6,-110.89 840.74,-100.02"/>
<polygon fill="red" stroke="red" stroke-width="0.11" points="841.35,-103.46 850.61,-98.33 840.17,-96.56 841.35,-103.46"/>
</g>
<!-- 396&#45;&gt;0 -->
<g id="edge148" class="edge">
<title>396&#45;&gt;0</title>
<path fill="none" stroke="green" stroke-width="0.45" d="M858.78,-74.12C848.68,-62.81 835.7,-48.28 825.39,-36.74"/>
<polygon fill="green" stroke="green" stroke-width="0.45" points="827.71,-34.07 818.43,-28.95 822.49,-38.74 827.71,-34.07"/>
</g>
<!-- 396&#45;&gt;1 -->
<g id="edge37" class="edge">
<title>396&#45;&gt;1</title>
<path fill="none" stroke="red" stroke-width="0.14" stroke-dasharray="1,5" d="M854.08,-79.72C831.47,-66.16 795.6,-44.63 772.43,-30.72"/>
<polygon fill="red" stroke="red" stroke-width="0.14" points="774.02,-27.59 763.64,-25.45 770.41,-33.6 774.02,-27.59"/>
</g>
<!-- 396&#45;&gt;3 -->
<g id="edge140" class="edge">
<title>396&#45;&gt;3</title>
<path fill="none" stroke="red" stroke-width="0.29" stroke-dasharray="1,5" d="M898.74,-84.95C944.82,-70.72 1045.96,-39.5 1093.01,-24.98"/>
<polygon fill="red" stroke="red" stroke-width="0.29" points="1094.18,-28.28 1102.71,-21.98 1092.12,-21.59 1094.18,-28.28"/>
</g>
<!-- 396&#45;&gt;4 -->
<g id="edge116" class="edge">
<title>396&#45;&gt;4</title>
<path fill="none" stroke="green" stroke-width="0.31" d="M870.88,-68.54C869.44,-60.21 867.82,-50.83 866.35,-42.39"/>
<polygon fill="green" stroke="green" stroke-width="0.31" points="869.77,-41.61 864.61,-32.35 862.87,-42.8 869.77,-41.61"/>
</g>
<!-- 397&#45;&gt;0 -->
<g id="edge152" class="edge">
<title>397&#45;&gt;0</title>
<path fill="none" stroke="red" stroke-width="0.15" d="M1028.89,-161.49C1011.78,-136.23 979.55,-93.63 942,-68.53 900.99,-41.1 882.29,-52.07 837,-32.53 835.12,-31.72 833.19,-30.83 831.27,-29.91"/>
<polygon fill="red" stroke="red" stroke-width="0.15" points="832.45,-26.58 821.95,-25.16 829.27,-32.82 832.45,-26.58"/>
</g>
<!-- 397&#45;&gt;1 -->
<g id="edge27" class="edge">
<title>397&#45;&gt;1</title>
<path fill="none" stroke="green" stroke-width="0.24" d="M1025.74,-163.94C1002.31,-138.96 956.61,-94.07 909,-68.53 857.67,-41 837.59,-52.81 783,-32.53 779.86,-31.36 776.61,-30.02 773.42,-28.64"/>
<polygon fill="green" stroke="green" stroke-width="0.24" points="774.8,-25.42 764.25,-24.44 771.89,-31.78 774.8,-25.42"/>
</g>
<!-- 397&#45;&gt;2 -->
<g id="edge141" class="edge">
<title>397&#45;&gt;2</title>
<path fill="none" stroke="red" stroke-width="1.31" stroke-dasharray="1,5" d="M1018.09,-175.85C956.22,-159.88 791.25,-117.31 727.57,-100.88"/>
<polygon fill="red" stroke="red" stroke-width="1.31" points="728.13,-97.41 717.58,-98.3 726.39,-104.18 728.13,-97.41"/>
</g>
<!-- 397&#45;&gt;3 -->
<g id="edge92" class="edge">
<title>397&#45;&gt;3</title>
<path fill="none" stroke="green" stroke-width="0.28" d="M1059.39,-165.06C1070.83,-152.95 1085.26,-135.74 1094,-118.02 1105.85,-93.99 1112.04,-63.79 1115.14,-42.75"/>
<polygon fill="green" stroke="green" stroke-width="0.28" points="1118.63,-43.04 1116.49,-32.67 1111.69,-42.11 1118.63,-43.04"/>
</g>
<!-- 397&#45;&gt;4 -->
<g id="edge40" class="edge">
<title>397&#45;&gt;4</title>
<path fill="none" stroke="green" stroke-width="0.24" stroke-dasharray="1,5" d="M1053.04,-160.37C1063.96,-135.57 1076.35,-94.95 1056,-68.53 1035.55,-41.97 936.21,-26.37 888.15,-20.26"/>
<polygon fill="green" stroke="green" stroke-width="0.24" points="888.53,-16.78 878.18,-19.04 887.68,-23.73 888.53,-16.78"/>
</g>
<!-- 398&#45;&gt;0 -->
<g id="edge7" class="edge">
<title>398&#45;&gt;0</title>
<path fill="none" stroke="red" stroke-width="0.45" d="M505.34,-159.66C516.38,-133.38 538.44,-90.57 572,-68.53 648.58,-18.22 687.58,-59.99 775,-32.53 778.19,-31.52 781.47,-30.28 784.68,-28.94"/>
<polygon fill="red" stroke="red" stroke-width="0.45" points="786.2,-32.1 793.86,-24.78 783.31,-25.72 786.2,-32.1"/>
</g>
<!-- 398&#45;&gt;1 -->
<g id="edge49" class="edge">
<title>398&#45;&gt;1</title>
<path fill="none" stroke="red" stroke-width="0.24" d="M480.38,-164.41C459.73,-140.39 429.98,-97.06 454,-68.53 488.44,-27.61 657.66,-19.35 723.61,-17.68"/>
<polygon fill="red" stroke="red" stroke-width="0.24" points="723.71,-21.18 733.63,-17.46 723.55,-14.19 723.71,-21.18"/>
</g>
<!-- 398&#45;&gt;2 -->
<g id="edge65" class="edge">
<title>398&#45;&gt;2</title>
<path fill="none" stroke="red" stroke-width="0.2" d="M514.6,-165.03C519.34,-161.05 524.65,-157.08 530,-154.02 578.26,-126.46 641.36,-108.58 676.15,-100.08"/>
<polygon fill="red" stroke="red" stroke-width="0.2" points="677.07,-103.46 685.99,-97.74 675.45,-96.65 677.07,-103.46"/>
</g>
<!-- 398&#45;&gt;4 -->
<g id="edge39" class="edge">
<title>398&#45;&gt;4</title>
<path fill="none" stroke="red" stroke-width="0.16" stroke-dasharray="1,5" d="M515.48,-166.49C529.61,-154.14 549.13,-136 564,-118.02 580.7,-97.84 574,-82.75 596,-68.53 685.48,-10.69 731.79,-65.8 833,-32.53 835.15,-31.82 837.33,-30.96 839.49,-30.02"/>
<polygon fill="red" stroke="red" stroke-width="0.16" points="841.14,-33.11 848.55,-25.54 838.03,-26.84 841.14,-33.11"/>
</g>
<!-- 399&#45;&gt;0 -->
<g id="edge83" class="edge">
<title>399&#45;&gt;0</title>
<path fill="none" stroke="red" stroke-width="0.38" d="M1133.52,-168.31C1126.68,-163.75 1119.02,-158.66 1112,-154.02 1053.96,-115.75 1044.72,-96.34 981,-68.53 920.54,-42.13 898.63,-56.06 837,-32.53 834.88,-31.72 832.72,-30.79 830.58,-29.81"/>
<polygon fill="red" stroke="red" stroke-width="0.38" points="832.06,-26.63 821.55,-25.26 828.91,-32.88 832.06,-26.63"/>
</g>
<!-- 399&#45;&gt;1 -->
<g id="edge41" class="edge">
<title>399&#45;&gt;1</title>
<path fill="none" stroke="green" stroke-width="0.12" d="M1134.47,-167.69C1127.57,-162.99 1119.63,-157.97 1112,-154.02 1072.25,-133.49 1056.83,-140.24 1018,-118.02 987.39,-100.51 987.91,-83.53 956,-68.53 884.92,-35.11 857.57,-57.17 783,-32.53 779.82,-31.48 776.55,-30.21 773.35,-28.85"/>
<polygon fill="green" stroke="green" stroke-width="0.12" points="774.72,-25.63 764.17,-24.68 771.82,-32.01 774.72,-25.63"/>
</g>
<!-- 399&#45;&gt;2 -->
<g id="edge29" class="edge">
<title>399&#45;&gt;2</title>
<path fill="none" stroke="green" stroke-width="0.23" d="M1131.49,-172.63C1116.1,-166.54 1095.1,-158.87 1076,-154.02 973.58,-128.06 945.3,-134.92 841,-118.02 801.53,-111.63 755.85,-103.73 727.94,-98.85"/>
<polygon fill="green" stroke="green" stroke-width="0.23" points="728.28,-95.35 717.83,-97.07 727.07,-102.25 728.28,-95.35"/>
</g>
<!-- 399&#45;&gt;3 -->
<g id="edge52" class="edge">
<title>399&#45;&gt;3</title>
<path fill="none" stroke="green" stroke-width="0.87" d="M1172.64,-166.53C1185.29,-154.73 1200.96,-137.28 1208,-118.02 1215.55,-97.36 1219.05,-87.55 1208,-68.53 1194.25,-44.88 1165.07,-31.24 1143.64,-24.06"/>
<polygon fill="green" stroke="green" stroke-width="0.87" points="1144.44,-20.64 1133.85,-21.03 1142.37,-27.33 1144.44,-20.64"/>
</g>
<!-- 399&#45;&gt;4 -->
<g id="edge53" class="edge">
<title>399&#45;&gt;4</title>
<path fill="none" stroke="green" stroke-width="0.54" d="M1165.61,-160.94C1177.63,-135.91 1191.87,-94.33 1170,-68.53 1133.98,-26.02 957.22,-18.72 888.97,-17.5"/>
<polygon fill="green" stroke="green" stroke-width="0.54" points="888.67,-13.99 878.62,-17.35 888.56,-20.99 888.67,-13.99"/>
</g>
<!-- 400&#45;&gt;0 -->
<g id="edge62" class="edge">
<title>400&#45;&gt;0</title>
<path fill="none" stroke="green" stroke-width="0.1" d="M787.44,-158.41C791.91,-127.69 799.7,-74.21 804.3,-42.64"/>
<polygon fill="green" stroke="green" stroke-width="0.1" points="807.81,-42.86 805.78,-32.46 800.88,-41.85 807.81,-42.86"/>
</g>
<!-- 400&#45;&gt;1 -->
<g id="edge115" class="edge">
<title>400&#45;&gt;1</title>
<path fill="none" stroke="red" stroke-width="0.78" d="M779.13,-158.41C772.79,-127.69 761.75,-74.21 755.23,-42.64"/>
<polygon fill="red" stroke="red" stroke-width="0.78" points="758.58,-41.55 753.13,-32.46 751.73,-42.96 758.58,-41.55"/>
</g>
<!-- 400&#45;&gt;2 -->
<g id="edge23" class="edge">
<title>400&#45;&gt;2</title>
<path fill="none" stroke="red" stroke-width="0.65" d="M767.4,-164.26C753.54,-149.42 733.81,-128.31 719.65,-113.17"/>
<polygon fill="red" stroke="red" stroke-width="0.65" points="722.2,-110.77 712.82,-105.85 717.09,-115.55 722.2,-110.77"/>
</g>
<!-- 400&#45;&gt;3 -->
<g id="edge48" class="edge">
<title>400&#45;&gt;3</title>
<path fill="none" stroke="green" stroke-width="0.47" d="M805.91,-171.21C865.98,-141.58 1032.85,-59.27 1094.61,-28.8"/>
<polygon fill="green" stroke="green" stroke-width="0.47" points="1096.17,-31.93 1103.59,-24.37 1093.08,-25.65 1096.17,-31.93"/>
</g>
<!-- 400&#45;&gt;4 -->
<g id="edge104" class="edge">
<title>400&#45;&gt;4</title>
<path fill="none" stroke="red" stroke-width="0.18" d="M794.36,-160.14C809.01,-129.18 835.7,-72.8 850.8,-40.91"/>
<polygon fill="red" stroke="red" stroke-width="0.18" points="854.15,-42.01 855.27,-31.48 847.83,-39.02 854.15,-42.01"/>
</g>
<!-- 1649&#45;&gt;3 -->
<g id="edge74" class="edge">
<title>1649&#45;&gt;3</title>
<path fill="none" stroke="green" stroke-width="0.1" d="M1883.36,-259.79C1844.61,-233.9 1764.44,-183.19 1690,-154.02 1487.56,-74.72 1226.14,-32.72 1143.92,-20.84"/>
<polygon fill="green" stroke="green" stroke-width="0.1" points="1144.35,-17.36 1133.95,-19.42 1143.36,-24.29 1144.35,-17.36"/>
</g>
<!-- 1649&#45;&gt;399 -->
<g id="edge159" class="edge">
<title>1649&#45;&gt;399</title>
<path fill="none" stroke="red" stroke-width="0.52" d="M1879.34,-268.23C1855.37,-261.8 1819.66,-252.95 1788,-248.01 1586.69,-216.59 1533.33,-235.94 1331,-212.01 1281.09,-206.1 1223.68,-196.5 1188.12,-190.22"/>
<polygon fill="red" stroke="red" stroke-width="0.52" points="1188.71,-186.77 1178.25,-188.47 1187.48,-193.67 1188.71,-186.77"/>
</g>
<!-- 1586&#45;&gt;399 -->
<g id="edge93" class="edge">
<title>1586&#45;&gt;399</title>
<path fill="none" stroke="red" stroke-width="0.13" d="M1504.24,-258.87C1497.95,-254.79 1490.93,-250.81 1484,-248.01 1430.37,-226.32 1261.9,-199.85 1188.61,-189"/>
<polygon fill="red" stroke="red" stroke-width="0.13" points="1188.92,-185.51 1178.52,-187.52 1187.9,-192.44 1188.92,-185.51"/>
</g>
<!-- 1527&#45;&gt;397 -->
<g id="edge13" class="edge">
<title>1527&#45;&gt;397</title>
<path fill="none" stroke="red" stroke-width="0.74" d="M1093.94,-253.26C1084.51,-240.69 1072.73,-224.98 1062.77,-211.7"/>
<polygon fill="red" stroke="red" stroke-width="0.74" points="1065.33,-209.28 1056.53,-203.38 1059.73,-213.48 1065.33,-209.28"/>
</g>
<!-- 1485&#45;&gt;399 -->
<g id="edge124" class="edge">
<title>1485&#45;&gt;399</title>
<path fill="none" stroke="red" stroke-width="0.48" d="M1618.35,-258.6C1612.05,-254.52 1605.01,-250.61 1598,-248.01 1485.75,-206.33 1449.47,-229.36 1331,-212.01 1281.27,-204.72 1223.81,-195.49 1188.19,-189.66"/>
<polygon fill="red" stroke="red" stroke-width="0.48" points="1188.74,-186.2 1178.31,-188.04 1187.61,-193.11 1188.74,-186.2"/>
</g>
<!-- 1244&#45;&gt;398 -->
<g id="edge35" class="edge">
<title>1244&#45;&gt;398</title>
<path fill="none" stroke="green" stroke-width="0.23" d="M113.72,-258.79C120.02,-254.71 127.04,-250.75 134,-248.01 248.47,-202.85 395.78,-189.43 462.01,-185.54"/>
<polygon fill="green" stroke="green" stroke-width="0.23" points="462.51,-189.02 472.3,-184.98 462.13,-182.03 462.51,-189.02"/>
</g>
</g>
</svg>
