<?xml version="1.0" encoding="UTF-8" standalone="no"?>
<!DOCTYPE svg PUBLIC "-//W3C//DTD SVG 1.1//EN"
 "http://www.w3.org/Graphics/SVG/1.1/DTD/svg11.dtd">
<!-- Generated by graphviz version 2.49.0 (20210828.1703)
 -->
<!-- Pages: 1 -->
<svg width="1468pt" height="327pt"
 viewBox="0.00 0.00 1467.79 326.98" xmlns="http://www.w3.org/2000/svg" xmlns:xlink="http://www.w3.org/1999/xlink">
<g id="graph0" class="graph" transform="scale(1 1) rotate(0) translate(4 322.98)">
<polygon fill="white" stroke="transparent" points="-4,4 -4,-322.98 1463.79,-322.98 1463.79,4 -4,4"/>
<!-- &#45;1 -->
<g id="node1" class="node">
<title>&#45;1</title>
<polygon fill="lightgray" stroke="black" points="460.42,-252.76 436.42,-252.76 436.42,-234.76 460.42,-234.76 460.42,-252.76"/>
<text text-anchor="middle" x="448.42" y="-241.56" font-family="Times New Roman,serif" font-size="9.00">&#45;1</text>
</g>
<!-- 0 -->
<g id="node21" class="node">
<title>0</title>
<ellipse fill="lightblue" stroke="black" cx="940.42" cy="-86.91" rx="14.7" ry="14.7"/>
<text text-anchor="middle" x="940.42" y="-84.71" font-family="Times New Roman,serif" font-size="9.00">0</text>
</g>
<!-- &#45;1&#45;&gt;0 -->
<g id="edge1" class="edge">
<title>&#45;1&#45;&gt;0</title>
<path fill="none" stroke="green" stroke-width="0.28" d="M460.48,-242.06C554.02,-236.54 1160.76,-200.23 1173.42,-186.55 1186.23,-172.71 1185.09,-158.94 1173.42,-144.12 1160.39,-127.58 1022.25,-102.05 965.03,-92.09"/>
<polygon fill="green" stroke="green" stroke-width="0.28" points="965.48,-88.62 955.03,-90.36 964.29,-95.51 965.48,-88.62"/>
</g>
<!-- 1 -->
<g id="node22" class="node">
<title>1</title>
<ellipse fill="lightblue" stroke="black" cx="632.42" cy="-86.91" rx="14.7" ry="14.7"/>
<text text-anchor="middle" x="632.42" y="-84.71" font-family="Times New Roman,serif" font-size="9.00">1</text>
</g>
<!-- &#45;1&#45;&gt;1 -->
<g id="edge2" class="edge">
<title>&#45;1&#45;&gt;1</title>
<path fill="none" stroke="green" stroke-width="0.14" d="M460.43,-239.96C484.38,-233.87 538.76,-217.4 573.42,-186.55 597.1,-165.48 614.11,-132.58 623.61,-110.65"/>
<polygon fill="green" stroke="green" stroke-width="0.14" points="626.96,-111.72 627.56,-101.14 620.49,-109.03 626.96,-111.72"/>
</g>
<!-- 2 -->
<g id="node23" class="node">
<title>2</title>
<ellipse fill="lightblue" stroke="black" cx="848.42" cy="-86.91" rx="14.7" ry="14.7"/>
<text text-anchor="middle" x="848.42" y="-84.71" font-family="Times New Roman,serif" font-size="9.00">2</text>
</g>
<!-- &#45;1&#45;&gt;2 -->
<g id="edge3" class="edge">
<title>&#45;1&#45;&gt;2</title>
<path fill="none" stroke="green" stroke-width="0.17" d="M460.55,-242.26C531.13,-239.18 886.99,-221.97 918.42,-186.55 930.94,-172.45 926.58,-161.13 918.42,-144.12 908.62,-123.68 887.36,-108.32 870.83,-98.87"/>
<polygon fill="green" stroke="green" stroke-width="0.17" points="872.22,-95.65 861.76,-93.99 868.91,-101.81 872.22,-95.65"/>
</g>
<!-- 3 -->
<g id="node24" class="node">
<title>3</title>
<ellipse fill="lightblue" stroke="black" cx="757.42" cy="-14.85" rx="14.7" ry="14.7"/>
<text text-anchor="middle" x="757.42" y="-12.65" font-family="Times New Roman,serif" font-size="9.00">3</text>
</g>
<!-- &#45;1&#45;&gt;3 -->
<g id="edge4" class="edge">
<title>&#45;1&#45;&gt;3</title>
<path fill="none" stroke="red" stroke-width="0.52" d="M436.19,-242.15C368.09,-238.59 37.62,-219.71 8.42,-186.55 -4.04,-172.4 -1.09,-160.41 8.42,-144.12 44.19,-82.87 79.61,-86.5 147.42,-65.7 259.53,-31.31 631.8,-19.16 732.26,-16.47"/>
<polygon fill="red" stroke="red" stroke-width="0.52" points="732.47,-19.96 742.38,-16.21 732.29,-12.97 732.47,-19.96"/>
</g>
<!-- 4 -->
<g id="node25" class="node">
<title>4</title>
<ellipse fill="lightblue" stroke="black" cx="474.42" cy="-86.91" rx="14.7" ry="14.7"/>
<text text-anchor="middle" x="474.42" y="-84.71" font-family="Times New Roman,serif" font-size="9.00">4</text>
</g>
<!-- &#45;1&#45;&gt;4 -->
<g id="edge5" class="edge">
<title>&#45;1&#45;&gt;4</title>
<path fill="none" stroke="red" stroke-width="0.21" stroke-dasharray="1,5" d="M436.28,-242.46C377.05,-240.56 124,-227.53 192.42,-144.12 224.9,-104.53 386.47,-92.29 449.34,-89"/>
<polygon fill="red" stroke="red" stroke-width="0.21" points="449.73,-92.48 459.54,-88.5 449.38,-85.49 449.73,-92.48"/>
</g>
<!-- 308 -->
<g id="node31" class="node">
<title>308</title>
<ellipse fill="white" stroke="black" cx="448.42" cy="-165.34" rx="21.43" ry="21.43"/>
<text text-anchor="middle" x="448.42" y="-163.14" font-family="Times New Roman,serif" font-size="9.00">308</text>
</g>
<!-- &#45;1&#45;&gt;308 -->
<g id="edge90" class="edge">
<title>&#45;1&#45;&gt;308</title>
<path fill="none" stroke="red" stroke-width="0.22" stroke-dasharray="1,5" d="M448.42,-234.59C448.42,-225.56 448.42,-210.51 448.42,-196.83"/>
<polygon fill="red" stroke="red" stroke-width="0.22" points="451.92,-196.76 448.42,-186.76 444.92,-196.76 451.92,-196.76"/>
</g>
<!-- 406 -->
<g id="node32" class="node">
<title>406</title>
<ellipse fill="white" stroke="black" cx="124.42" cy="-165.34" rx="21.43" ry="21.43"/>
<text text-anchor="middle" x="124.42" y="-163.14" font-family="Times New Roman,serif" font-size="9.00">406</text>
</g>
<!-- &#45;1&#45;&gt;406 -->
<g id="edge96" class="edge">
<title>&#45;1&#45;&gt;406</title>
<path fill="none" stroke="red" stroke-width="0.33" d="M436.2,-241.84C395.61,-238.47 262.11,-224.96 159.42,-186.55 156.49,-185.46 153.52,-184.13 150.62,-182.69"/>
<polygon fill="red" stroke="red" stroke-width="0.33" points="152.12,-179.52 141.67,-177.81 148.77,-185.67 152.12,-179.52"/>
</g>
<!-- &#45;2 -->
<g id="node2" class="node">
<title>&#45;2</title>
<polygon fill="lightgray" stroke="black" points="989.42,-174.34 965.42,-174.34 965.42,-156.34 989.42,-156.34 989.42,-174.34"/>
<text text-anchor="middle" x="977.42" y="-163.14" font-family="Times New Roman,serif" font-size="9.00">&#45;2</text>
</g>
<!-- &#45;2&#45;&gt;0 -->
<g id="edge6" class="edge">
<title>&#45;2&#45;&gt;0</title>
<path fill="none" stroke="red" stroke-width="0.73" d="M973.46,-156.16C968.17,-145.23 958.59,-125.44 951.11,-109.98"/>
<polygon fill="red" stroke="red" stroke-width="0.73" points="954.06,-108.06 946.56,-100.58 947.76,-111.11 954.06,-108.06"/>
</g>
<!-- &#45;2&#45;&gt;1 -->
<g id="edge7" class="edge">
<title>&#45;2&#45;&gt;1</title>
<path fill="none" stroke="red" stroke-width="0.26" d="M965.37,-159.67C953.55,-155.22 934.95,-148.56 918.42,-144.12 823.23,-118.59 707.34,-99.37 657.34,-91.64"/>
<polygon fill="red" stroke="red" stroke-width="0.26" points="657.58,-88.13 647.17,-90.08 656.52,-95.05 657.58,-88.13"/>
</g>
<!-- &#45;2&#45;&gt;2 -->
<g id="edge8" class="edge">
<title>&#45;2&#45;&gt;2</title>
<path fill="none" stroke="green" stroke-width="0.66" d="M967.58,-156.08C962.83,-152.25 956.97,-147.76 951.42,-144.12 924.65,-126.58 891.95,-109.4 870.67,-98.74"/>
<polygon fill="green" stroke="green" stroke-width="0.66" points="872.01,-95.5 861.49,-94.19 868.9,-101.77 872.01,-95.5"/>
</g>
<!-- &#45;3 -->
<g id="node3" class="node">
<title>&#45;3</title>
<polygon fill="lightgray" stroke="black" points="724.42,-174.34 700.42,-174.34 700.42,-156.34 724.42,-156.34 724.42,-174.34"/>
<text text-anchor="middle" x="712.42" y="-163.14" font-family="Times New Roman,serif" font-size="9.00">&#45;3</text>
</g>
<!-- &#45;3&#45;&gt;0 -->
<g id="edge9" class="edge">
<title>&#45;3&#45;&gt;0</title>
<path fill="none" stroke="red" stroke-width="0.68" stroke-dasharray="1,5" d="M719.43,-156.21C723.44,-152.04 728.78,-147.2 734.42,-144.12 790.08,-113.78 811.37,-125.16 872.42,-108.12 887.21,-104 903.72,-99.1 916.77,-95.15"/>
<polygon fill="red" stroke="red" stroke-width="0.68" points="917.85,-98.49 926.4,-92.23 915.81,-91.79 917.85,-98.49"/>
</g>
<!-- &#45;3&#45;&gt;1 -->
<g id="edge10" class="edge">
<title>&#45;3&#45;&gt;1</title>
<path fill="none" stroke="red" stroke-width="0.36" d="M703.85,-156.07C700.05,-152.4 695.52,-148.04 691.42,-144.12 677.64,-130.93 662,-116.03 650.29,-104.89"/>
<polygon fill="red" stroke="red" stroke-width="0.36" points="652.54,-102.2 642.88,-97.85 647.72,-107.27 652.54,-102.2"/>
</g>
<!-- &#45;3&#45;&gt;2 -->
<g id="edge11" class="edge">
<title>&#45;3&#45;&gt;2</title>
<path fill="none" stroke="green" stroke-width="0.88" d="M720.11,-156.26C724.13,-152.3 729.29,-147.64 734.42,-144.12 763.89,-123.94 801.67,-106.8 825.47,-96.93"/>
<polygon fill="green" stroke="green" stroke-width="0.88" points="826.81,-100.17 834.75,-93.16 824.17,-93.69 826.81,-100.17"/>
</g>
<!-- &#45;3&#45;&gt;3 -->
<g id="edge12" class="edge">
<title>&#45;3&#45;&gt;3</title>
<path fill="none" stroke="green" stroke-width="0.21" d="M714.97,-155.93C721.68,-133.79 740.03,-73.25 750.27,-39.45"/>
<polygon fill="green" stroke="green" stroke-width="0.21" points="753.73,-40.09 753.28,-29.5 747.04,-38.06 753.73,-40.09"/>
</g>
<!-- &#45;3&#45;&gt;4 -->
<g id="edge13" class="edge">
<title>&#45;3&#45;&gt;4</title>
<path fill="none" stroke="red" stroke-width="0.3" d="M705.88,-156.05C702.1,-151.83 697,-147 691.42,-144.12 613.84,-104.19 577.29,-145.46 498.42,-108.12 496.34,-107.14 494.3,-105.93 492.33,-104.6"/>
<polygon fill="red" stroke="red" stroke-width="0.3" points="494.35,-101.73 484.34,-98.26 490,-107.22 494.35,-101.73"/>
</g>
<!-- &#45;4 -->
<g id="node4" class="node">
<title>&#45;4</title>
<polygon fill="lightgray" stroke="black" points="814.42,-174.34 790.42,-174.34 790.42,-156.34 814.42,-156.34 814.42,-174.34"/>
<text text-anchor="middle" x="802.42" y="-163.14" font-family="Times New Roman,serif" font-size="9.00">&#45;4</text>
</g>
<!-- &#45;4&#45;&gt;0 -->
<g id="edge14" class="edge">
<title>&#45;4&#45;&gt;0</title>
<path fill="none" stroke="red" stroke-width="0.13" d="M810.09,-156.25C814.12,-152.28 819.28,-147.62 824.42,-144.12 854.38,-123.75 892.83,-106.67 917.06,-96.86"/>
<polygon fill="red" stroke="red" stroke-width="0.13" points="918.5,-100.05 926.5,-93.11 915.92,-93.55 918.5,-100.05"/>
</g>
<!-- &#45;4&#45;&gt;1 -->
<g id="edge15" class="edge">
<title>&#45;4&#45;&gt;1</title>
<path fill="none" stroke="red" stroke-width="0.26" d="M795.29,-156.03C791.49,-152.01 786.56,-147.37 781.42,-144.12 741.07,-118.63 687.38,-101.95 656.69,-93.8"/>
<polygon fill="red" stroke="red" stroke-width="0.26" points="657.41,-90.37 646.86,-91.27 655.67,-97.15 657.41,-90.37"/>
</g>
<!-- &#45;4&#45;&gt;2 -->
<g id="edge16" class="edge">
<title>&#45;4&#45;&gt;2</title>
<path fill="none" stroke="green" stroke-width="0.36" d="M807.35,-156.16C814.06,-145 826.34,-124.6 835.73,-109"/>
<polygon fill="green" stroke="green" stroke-width="0.36" points="838.97,-110.41 841.12,-100.04 832.97,-106.8 838.97,-110.41"/>
</g>
<!-- &#45;4&#45;&gt;4 -->
<g id="edge17" class="edge">
<title>&#45;4&#45;&gt;4</title>
<path fill="none" stroke="green" stroke-width="0.41" d="M796.3,-156.33C792.52,-151.97 787.27,-146.92 781.42,-144.12 667.06,-89.38 614.54,-159.04 498.42,-108.12 496.31,-107.2 494.25,-106.03 492.27,-104.72"/>
<polygon fill="green" stroke="green" stroke-width="0.41" points="494.29,-101.86 484.27,-98.42 489.96,-107.36 494.29,-101.86"/>
</g>
<!-- &#45;5 -->
<g id="node5" class="node">
<title>&#45;5</title>
<polygon fill="lightgray" stroke="black" points="682.42,-174.34 658.42,-174.34 658.42,-156.34 682.42,-156.34 682.42,-174.34"/>
<text text-anchor="middle" x="670.42" y="-163.14" font-family="Times New Roman,serif" font-size="9.00">&#45;5</text>
</g>
<!-- &#45;5&#45;&gt;0 -->
<g id="edge18" class="edge">
<title>&#45;5&#45;&gt;0</title>
<path fill="none" stroke="red" stroke-width="0.43" d="M676.98,-156.07C680.76,-151.86 685.86,-147.03 691.42,-144.12 764.12,-106.15 792.81,-127.83 872.42,-108.12 887.33,-104.44 903.84,-99.55 916.86,-95.5"/>
<polygon fill="red" stroke="red" stroke-width="0.43" points="917.98,-98.82 926.46,-92.47 915.87,-92.14 917.98,-98.82"/>
</g>
<!-- &#45;5&#45;&gt;1 -->
<g id="edge19" class="edge">
<title>&#45;5&#45;&gt;1</title>
<path fill="none" stroke="green" stroke-width="0.37" d="M666.36,-156.16C660.87,-145.13 650.9,-125.07 643.18,-109.54"/>
<polygon fill="green" stroke="green" stroke-width="0.37" points="646.31,-107.98 638.72,-100.58 640.04,-111.09 646.31,-107.98"/>
</g>
<!-- &#45;5&#45;&gt;2 -->
<g id="edge20" class="edge">
<title>&#45;5&#45;&gt;2</title>
<path fill="none" stroke="green" stroke-width="0.18" d="M677.54,-155.99C681.33,-151.97 686.26,-147.33 691.42,-144.12 734.53,-117.39 792.17,-100.92 824.26,-93.19"/>
<polygon fill="green" stroke="green" stroke-width="0.18" points="825.15,-96.57 834.1,-90.9 823.57,-89.75 825.15,-96.57"/>
</g>
<!-- &#45;5&#45;&gt;3 -->
<g id="edge21" class="edge">
<title>&#45;5&#45;&gt;3</title>
<path fill="none" stroke="red" stroke-width="0.24" d="M674.68,-156.32C683.7,-139.38 705.57,-98.83 725.42,-65.7 731.31,-55.88 738.12,-45.17 743.95,-36.21"/>
<polygon fill="red" stroke="red" stroke-width="0.24" points="747.03,-37.89 749.58,-27.6 741.18,-34.05 747.03,-37.89"/>
</g>
<!-- &#45;5&#45;&gt;4 -->
<g id="edge22" class="edge">
<title>&#45;5&#45;&gt;4</title>
<path fill="none" stroke="red" stroke-width="0.11" d="M658.09,-162.01C628.91,-156.15 553.87,-138.99 498.42,-108.12 496.41,-107.01 494.41,-105.71 492.47,-104.31"/>
<polygon fill="red" stroke="red" stroke-width="0.11" points="494.51,-101.46 484.52,-97.91 490.12,-106.91 494.51,-101.46"/>
</g>
<!-- &#45;6 -->
<g id="node6" class="node">
<title>&#45;6</title>
<polygon fill="lightgray" stroke="black" points="371.42,-174.34 347.42,-174.34 347.42,-156.34 371.42,-156.34 371.42,-174.34"/>
<text text-anchor="middle" x="359.42" y="-163.14" font-family="Times New Roman,serif" font-size="9.00">&#45;6</text>
</g>
<!-- &#45;6&#45;&gt;0 -->
<g id="edge23" class="edge">
<title>&#45;6&#45;&gt;0</title>
<path fill="none" stroke="red" stroke-width="0.7" d="M371.83,-159.07C383.59,-154.31 401.88,-147.56 418.42,-144.12 616.61,-103 673.43,-145.17 872.42,-108.12 887.52,-105.32 904.04,-100.45 917.01,-96.19"/>
<polygon fill="red" stroke="red" stroke-width="0.7" points="918.22,-99.48 926.57,-92.96 915.97,-92.85 918.22,-99.48"/>
</g>
<!-- &#45;6&#45;&gt;1 -->
<g id="edge24" class="edge">
<title>&#45;6&#45;&gt;1</title>
<path fill="none" stroke="red" stroke-width="0.37" d="M367.91,-156.15C372.7,-151.96 379,-147.12 385.42,-144.12 454.23,-112.02 478.49,-125.43 552.42,-108.12 571.24,-103.72 592.43,-98.35 608.28,-94.25"/>
<polygon fill="red" stroke="red" stroke-width="0.37" points="609.5,-97.55 618.3,-91.64 607.74,-90.77 609.5,-97.55"/>
</g>
<!-- &#45;6&#45;&gt;2 -->
<g id="edge25" class="edge">
<title>&#45;6&#45;&gt;2</title>
<path fill="none" stroke="green" stroke-width="0.53" d="M371.87,-159.26C383.67,-154.64 401.98,-147.98 418.42,-144.12 496.66,-125.8 743.39,-98.95 823.23,-90.53"/>
<polygon fill="green" stroke="green" stroke-width="0.53" points="823.77,-94 833.35,-89.47 823.04,-87.04 823.77,-94"/>
</g>
<!-- &#45;6&#45;&gt;3 -->
<g id="edge26" class="edge">
<title>&#45;6&#45;&gt;3</title>
<path fill="none" stroke="red" stroke-width="0.22" d="M364.15,-156.29C375.95,-137 408.76,-88.1 450.42,-65.7 499.43,-39.35 668.47,-23.12 732.54,-17.79"/>
<polygon fill="red" stroke="red" stroke-width="0.22" points="732.88,-21.28 742.56,-16.98 732.31,-14.3 732.88,-21.28"/>
</g>
<!-- &#45;6&#45;&gt;4 -->
<g id="edge27" class="edge">
<title>&#45;6&#45;&gt;4</title>
<path fill="none" stroke="green" stroke-width="0.35" d="M369.38,-156.23C374.15,-152.44 379.99,-147.94 385.42,-144.12 408.1,-128.21 435.12,-111.43 453.4,-100.4"/>
<polygon fill="green" stroke="green" stroke-width="0.35" points="455.31,-103.33 462.09,-95.18 451.71,-97.33 455.31,-103.33"/>
</g>
<!-- 78 -->
<g id="node30" class="node">
<title>78</title>
<ellipse fill="white" stroke="black" cx="525.42" cy="-86.91" rx="18.27" ry="18.27"/>
<text text-anchor="middle" x="525.42" y="-84.71" font-family="Times New Roman,serif" font-size="9.00">78</text>
</g>
<!-- &#45;6&#45;&gt;78 -->
<g id="edge87" class="edge">
<title>&#45;6&#45;&gt;78</title>
<path fill="none" stroke="green" stroke-width="0.29" d="M368.5,-155.99C373.26,-151.96 379.35,-147.32 385.42,-144.12 432.06,-119.57 451.56,-132.26 498.42,-108.12 500,-107.31 501.58,-106.41 503.14,-105.45"/>
<polygon fill="green" stroke="green" stroke-width="0.29" points="505.46,-108.1 511.72,-99.55 501.5,-102.33 505.46,-108.1"/>
</g>
<!-- &#45;7 -->
<g id="node7" class="node">
<title>&#45;7</title>
<polygon fill="lightgray" stroke="black" points="1282.42,-174.34 1258.42,-174.34 1258.42,-156.34 1282.42,-156.34 1282.42,-174.34"/>
<text text-anchor="middle" x="1270.42" y="-163.14" font-family="Times New Roman,serif" font-size="9.00">&#45;7</text>
</g>
<!-- &#45;7&#45;&gt;0 -->
<g id="edge28" class="edge">
<title>&#45;7&#45;&gt;0</title>
<path fill="none" stroke="red" stroke-width="0.2" d="M1261.97,-156.07C1257.19,-151.86 1250.89,-147.03 1244.42,-144.12 1218.91,-132.68 1033.48,-102.62 965.4,-91.83"/>
<polygon fill="red" stroke="red" stroke-width="0.2" points="965.59,-88.32 955.17,-90.22 964.5,-95.23 965.59,-88.32"/>
</g>
<!-- &#45;7&#45;&gt;2 -->
<g id="edge29" class="edge">
<title>&#45;7&#45;&gt;2</title>
<path fill="none" stroke="red" stroke-width="0.45" d="M1258.22,-161.52C1239.89,-157.36 1204.1,-149.46 1173.42,-144.12 1059.79,-124.35 1029.13,-132.63 916.42,-108.12 901.42,-104.86 884.9,-99.98 871.9,-95.84"/>
<polygon fill="red" stroke="red" stroke-width="0.45" points="872.92,-92.49 862.33,-92.71 870.75,-99.14 872.92,-92.49"/>
</g>
<!-- &#45;7&#45;&gt;3 -->
<g id="edge30" class="edge">
<title>&#45;7&#45;&gt;3</title>
<path fill="none" stroke="green" stroke-width="0.19" d="M1264.03,-156.18C1248.2,-136.67 1204.96,-87.3 1156.42,-65.7 1088.8,-35.6 859.4,-21.16 782.66,-17.09"/>
<polygon fill="green" stroke="green" stroke-width="0.19" points="782.65,-13.58 772.49,-16.56 782.29,-20.58 782.65,-13.58"/>
</g>
<!-- &#45;8 -->
<g id="node8" class="node">
<title>&#45;8</title>
<polygon fill="lightgray" stroke="black" points="1419.42,-318.98 1395.42,-318.98 1395.42,-300.98 1419.42,-300.98 1419.42,-318.98"/>
<text text-anchor="middle" x="1407.42" y="-307.78" font-family="Times New Roman,serif" font-size="9.00">&#45;8</text>
</g>
<!-- &#45;8&#45;&gt;0 -->
<g id="edge31" class="edge">
<title>&#45;8&#45;&gt;0</title>
<path fill="none" stroke="red" stroke-width="0.22" d="M1415.35,-300.71C1422.7,-292.43 1433.12,-278.94 1437.42,-264.98 1453.41,-213.15 1460.83,-180.31 1420.42,-144.12 1362.67,-92.41 1150.32,-117.95 1073.42,-108.12 1035.55,-103.29 991.81,-96.38 965.14,-92.03"/>
<polygon fill="red" stroke="red" stroke-width="0.22" points="965.59,-88.55 955.15,-90.38 964.45,-95.46 965.59,-88.55"/>
</g>
<!-- &#45;8&#45;&gt;1 -->
<g id="edge32" class="edge">
<title>&#45;8&#45;&gt;1</title>
<path fill="none" stroke="green" stroke-width="0.24" stroke-dasharray="1,5" d="M1395.18,-308.88C1284.81,-307.92 464.59,-299.65 427.42,-264.98 388.04,-228.24 385.53,-186.77 418.42,-144.12 419.91,-142.2 552.88,-108.16 608.45,-94.01"/>
<polygon fill="green" stroke="green" stroke-width="0.24" points="609.34,-97.39 618.17,-91.53 607.61,-90.61 609.34,-97.39"/>
</g>
<!-- &#45;8&#45;&gt;3 -->
<g id="edge33" class="edge">
<title>&#45;8&#45;&gt;3</title>
<path fill="none" stroke="green" stroke-width="0.33" d="M1419.78,-302.1C1431.69,-294.7 1448.97,-281.68 1456.42,-264.98 1466.21,-243.03 1451.49,-150.52 1447.42,-144.12 1411.85,-88.13 1383.38,-86.61 1320.42,-65.7 1218.31,-31.77 877.95,-19.39 782.5,-16.54"/>
<polygon fill="green" stroke="green" stroke-width="0.33" points="782.44,-13.03 772.34,-16.24 782.24,-20.03 782.44,-13.03"/>
</g>
<!-- &#45;8&#45;&gt;4 -->
<g id="edge34" class="edge">
<title>&#45;8&#45;&gt;4</title>
<path fill="none" stroke="red" stroke-width="0.24" stroke-dasharray="1,5" d="M1395.24,-308.8C1294.72,-307.33 600.91,-296.09 394.42,-264.98 258.15,-244.44 178.65,-295.63 94.42,-186.55 82.9,-171.63 82.1,-158.4 94.42,-144.12 106.15,-130.53 367.01,-100.04 449.59,-90.69"/>
<polygon fill="red" stroke="red" stroke-width="0.24" points="450.05,-94.16 459.59,-89.56 449.27,-87.2 450.05,-94.16"/>
</g>
<!-- 237 -->
<g id="node29" class="node">
<title>237</title>
<ellipse fill="white" stroke="black" cx="1407.42" cy="-243.76" rx="21.43" ry="21.43"/>
<text text-anchor="middle" x="1407.42" y="-241.56" font-family="Times New Roman,serif" font-size="9.00">237</text>
</g>
<!-- &#45;8&#45;&gt;237 -->
<g id="edge88" class="edge">
<title>&#45;8&#45;&gt;237</title>
<path fill="none" stroke="green" stroke-width="0.25" d="M1407.42,-300.85C1407.42,-294.3 1407.42,-284.67 1407.42,-275.23"/>
<polygon fill="green" stroke="green" stroke-width="0.25" points="1410.92,-275.22 1407.42,-265.22 1403.92,-275.22 1410.92,-275.22"/>
</g>
<!-- &#45;9 -->
<g id="node9" class="node">
<title>&#45;9</title>
<polygon fill="lightgray" stroke="black" points="1164.42,-174.34 1140.42,-174.34 1140.42,-156.34 1164.42,-156.34 1164.42,-174.34"/>
<text text-anchor="middle" x="1152.42" y="-163.14" font-family="Times New Roman,serif" font-size="9.00">&#45;9</text>
</g>
<!-- &#45;9&#45;&gt;0 -->
<g id="edge35" class="edge">
<title>&#45;9&#45;&gt;0</title>
<path fill="none" stroke="green" stroke-width="0.29" d="M1145.76,-156.27C1141.95,-152.12 1136.85,-147.28 1131.42,-144.12 1077.02,-112.52 1003.41,-97.44 965.42,-91.36"/>
<polygon fill="green" stroke="green" stroke-width="0.29" points="965.67,-87.86 955.26,-89.82 964.62,-94.78 965.67,-87.86"/>
</g>
<!-- &#45;9&#45;&gt;1 -->
<g id="edge36" class="edge">
<title>&#45;9&#45;&gt;1</title>
<path fill="none" stroke="green" stroke-width="0.5" d="M1146.32,-156.3C1142.54,-151.93 1137.29,-146.88 1131.42,-144.12 1120.53,-139 756.67,-100.84 657.29,-90.49"/>
<polygon fill="green" stroke="green" stroke-width="0.5" points="657.57,-87 647.26,-89.45 656.84,-93.97 657.57,-87"/>
</g>
<!-- &#45;9&#45;&gt;2 -->
<g id="edge37" class="edge">
<title>&#45;9&#45;&gt;2</title>
<path fill="none" stroke="green" stroke-width="0.13" d="M1145.9,-156.01C1142.13,-151.78 1137.03,-146.94 1131.42,-144.12 1044.87,-100.58 1010.81,-129.97 916.42,-108.12 901.46,-104.66 884.95,-99.78 871.94,-95.68"/>
<polygon fill="green" stroke="green" stroke-width="0.13" points="872.94,-92.33 862.35,-92.6 870.8,-98.99 872.94,-92.33"/>
</g>
<!-- &#45;9&#45;&gt;3 -->
<g id="edge38" class="edge">
<title>&#45;9&#45;&gt;3</title>
<path fill="none" stroke="red" stroke-width="0.16" d="M1153.66,-156.25C1156.06,-137.31 1159.05,-89.87 1133.42,-65.7 1082.63,-17.79 857.96,-15.05 782.35,-15.52"/>
<polygon fill="red" stroke="red" stroke-width="0.16" points="782.28,-12.02 772.32,-15.6 782.35,-19.02 782.28,-12.02"/>
</g>
<!-- &#45;10 -->
<g id="node10" class="node">
<title>&#45;10</title>
<polygon fill="lightgray" stroke="black" points="908.92,-174.34 879.92,-174.34 879.92,-156.34 908.92,-156.34 908.92,-174.34"/>
<text text-anchor="middle" x="894.42" y="-163.14" font-family="Times New Roman,serif" font-size="9.00">&#45;10</text>
</g>
<!-- &#45;10&#45;&gt;0 -->
<g id="edge39" class="edge">
<title>&#45;10&#45;&gt;0</title>
<path fill="none" stroke="green" stroke-width="0.45" d="M899.35,-156.16C906.06,-145 918.34,-124.6 927.73,-109"/>
<polygon fill="green" stroke="green" stroke-width="0.45" points="930.97,-110.41 933.12,-100.04 924.97,-106.8 930.97,-110.41"/>
</g>
<!-- &#45;10&#45;&gt;1 -->
<g id="edge40" class="edge">
<title>&#45;10&#45;&gt;1</title>
<path fill="none" stroke="red" stroke-width="0.52" d="M887.06,-156.17C882.86,-151.98 877.28,-147.15 871.42,-144.12 799.32,-106.95 702.34,-93.98 657.32,-89.77"/>
<polygon fill="red" stroke="red" stroke-width="0.52" points="657.55,-86.28 647.28,-88.9 656.94,-93.25 657.55,-86.28"/>
</g>
<!-- &#45;10&#45;&gt;2 -->
<g id="edge41" class="edge">
<title>&#45;10&#45;&gt;2</title>
<path fill="none" stroke="green" stroke-width="0.49" stroke-dasharray="1,5" d="M889.5,-156.16C882.78,-145 870.51,-124.6 861.12,-109"/>
<polygon fill="green" stroke="green" stroke-width="0.49" points="863.88,-106.8 855.72,-100.04 857.88,-110.41 863.88,-106.8"/>
</g>
<!-- &#45;10&#45;&gt;3 -->
<g id="edge42" class="edge">
<title>&#45;10&#45;&gt;3</title>
<path fill="none" stroke="green" stroke-width="0.36" d="M894.93,-156.13C895.63,-137.74 894.78,-92.75 872.42,-65.7 849.64,-38.13 808.71,-25.41 782.33,-19.84"/>
<polygon fill="green" stroke="green" stroke-width="0.36" points="782.81,-16.37 772.33,-17.92 781.5,-23.25 782.81,-16.37"/>
</g>
<!-- &#45;10&#45;&gt;4 -->
<g id="edge43" class="edge">
<title>&#45;10&#45;&gt;4</title>
<path fill="none" stroke="red" stroke-width="0.28" d="M887.61,-156.26C883.42,-151.88 877.67,-146.83 871.42,-144.12 718.59,-77.95 651.95,-172.69 498.42,-108.12 496.3,-107.23 494.23,-106.08 492.24,-104.79"/>
<polygon fill="red" stroke="red" stroke-width="0.28" points="494.26,-101.93 484.23,-98.5 489.94,-107.43 494.26,-101.93"/>
</g>
<!-- &#45;11 -->
<g id="node11" class="node">
<title>&#45;11</title>
<polygon fill="lightgray" stroke="black" points="328.92,-174.34 299.92,-174.34 299.92,-156.34 328.92,-156.34 328.92,-174.34"/>
<text text-anchor="middle" x="314.42" y="-163.14" font-family="Times New Roman,serif" font-size="9.00">&#45;11</text>
</g>
<!-- &#45;11&#45;&gt;0 -->
<g id="edge44" class="edge">
<title>&#45;11&#45;&gt;0</title>
<path fill="none" stroke="red" stroke-width="0.16" d="M321.57,-156.19C325.96,-151.79 331.96,-146.73 338.42,-144.12 448.71,-99.61 755.37,-129.2 872.42,-108.12 887.63,-105.39 904.26,-100.48 917.27,-96.18"/>
<polygon fill="red" stroke="red" stroke-width="0.16" points="918.5,-99.46 926.83,-92.92 916.24,-92.84 918.5,-99.46"/>
</g>
<!-- &#45;11&#45;&gt;1 -->
<g id="edge45" class="edge">
<title>&#45;11&#45;&gt;1</title>
<path fill="none" stroke="red" stroke-width="0.22" d="M322.1,-156.02C326.47,-151.79 332.29,-146.96 338.42,-144.12 425.96,-103.63 458.04,-127.95 552.42,-108.12 571.33,-104.15 592.52,-98.76 608.34,-94.54"/>
<polygon fill="red" stroke="red" stroke-width="0.22" points="609.6,-97.82 618.34,-91.84 607.77,-91.06 609.6,-97.82"/>
</g>
<!-- &#45;11&#45;&gt;2 -->
<g id="edge46" class="edge">
<title>&#45;11&#45;&gt;2</title>
<path fill="none" stroke="green" stroke-width="0.25" stroke-dasharray="1,5" d="M321.62,-156.29C326.01,-151.92 332.01,-146.87 338.42,-144.12 344.09,-141.7 721.58,-101.41 823.37,-90.57"/>
<polygon fill="green" stroke="green" stroke-width="0.25" points="824.05,-94.02 833.62,-89.48 823.31,-87.06 824.05,-94.02"/>
</g>
<!-- &#45;11&#45;&gt;3 -->
<g id="edge47" class="edge">
<title>&#45;11&#45;&gt;3</title>
<path fill="none" stroke="red" stroke-width="0.19" d="M318.35,-156.23C328.24,-136.82 356.17,-87.66 395.42,-65.7 453.61,-33.14 660.32,-20.44 732.41,-16.94"/>
<polygon fill="red" stroke="red" stroke-width="0.19" points="732.58,-20.43 742.4,-16.47 732.25,-13.44 732.58,-20.43"/>
</g>
<!-- &#45;11&#45;&gt;4 -->
<g id="edge48" class="edge">
<title>&#45;11&#45;&gt;4</title>
<path fill="none" stroke="red" stroke-width="0.32" d="M322.82,-156.16C327.21,-152.17 332.84,-147.52 338.42,-144.12 375.21,-121.78 422.48,-104.5 450.5,-95.29"/>
<polygon fill="red" stroke="red" stroke-width="0.32" points="451.79,-98.56 460.24,-92.17 449.65,-91.89 451.79,-98.56"/>
</g>
<!-- &#45;11&#45;&gt;78 -->
<g id="edge93" class="edge">
<title>&#45;11&#45;&gt;78</title>
<path fill="none" stroke="green" stroke-width="0.27" d="M322.16,-156.15C326.55,-151.96 332.37,-147.13 338.42,-144.12 403.71,-111.72 432.23,-138.64 498.42,-108.12 500.03,-107.38 501.64,-106.53 503.22,-105.61"/>
<polygon fill="green" stroke="green" stroke-width="0.27" points="505.5,-108.3 511.85,-99.81 501.59,-102.49 505.5,-108.3"/>
</g>
<!-- &#45;12 -->
<g id="node12" class="node">
<title>&#45;12</title>
<polygon fill="lightgray" stroke="black" points="837.92,-252.76 808.92,-252.76 808.92,-234.76 837.92,-234.76 837.92,-252.76"/>
<text text-anchor="middle" x="823.42" y="-241.56" font-family="Times New Roman,serif" font-size="9.00">&#45;12</text>
</g>
<!-- &#45;12&#45;&gt;0 -->
<g id="edge49" class="edge">
<title>&#45;12&#45;&gt;0</title>
<path fill="none" stroke="green" stroke-width="0.99" d="M838,-243.02C902.03,-243.83 1157.32,-243.38 1206.42,-186.55 1218.75,-172.28 1218.3,-158.77 1206.42,-144.12 1191.14,-125.27 1028.75,-100.43 965.47,-91.39"/>
<polygon fill="green" stroke="green" stroke-width="0.99" points="965.59,-87.87 955.19,-89.94 964.61,-94.8 965.59,-87.87"/>
</g>
<!-- &#45;12&#45;&gt;1 -->
<g id="edge50" class="edge">
<title>&#45;12&#45;&gt;1</title>
<path fill="none" stroke="red" stroke-width="0.33" d="M808.82,-242.78C775.07,-241.95 691.34,-234.87 649.42,-186.55 631.69,-166.11 629.24,-134.05 630.04,-112.06"/>
<polygon fill="red" stroke="red" stroke-width="0.33" points="633.55,-112.08 630.67,-101.88 626.56,-111.65 633.55,-112.08"/>
</g>
<!-- &#45;12&#45;&gt;2 -->
<g id="edge51" class="edge">
<title>&#45;12&#45;&gt;2</title>
<path fill="none" stroke="red" stroke-width="0.2" d="M838.17,-243.27C873.01,-243.55 960.35,-238.77 998.42,-186.55 1009.53,-171.31 1009.16,-159.62 998.42,-144.12 990.92,-133.3 912.33,-107.7 872.01,-95.13"/>
<polygon fill="red" stroke="red" stroke-width="0.2" points="873.01,-91.77 862.42,-92.16 870.94,-98.46 873.01,-91.77"/>
</g>
<!-- &#45;12&#45;&gt;3 -->
<g id="edge52" class="edge">
<title>&#45;12&#45;&gt;3</title>
<path fill="none" stroke="green" stroke-width="0.19" d="M837.99,-242.48C923.76,-240.69 1360.48,-229.48 1399.42,-186.55 1412.09,-172.59 1409.3,-160.19 1399.42,-144.12 1358.99,-78.35 1318.51,-87.42 1244.42,-65.7 1073.37,-15.55 855.72,-14.11 782.63,-15.23"/>
<polygon fill="green" stroke="green" stroke-width="0.19" points="782.48,-11.73 772.55,-15.42 782.61,-18.73 782.48,-11.73"/>
</g>
<!-- &#45;12&#45;&gt;4 -->
<g id="edge53" class="edge">
<title>&#45;12&#45;&gt;4</title>
<path fill="none" stroke="green" stroke-width="0.21" stroke-dasharray="1,5" d="M808.9,-241.78C725.38,-236.02 309.3,-206.42 291.42,-186.55 278.81,-172.53 280.22,-159.29 291.42,-144.12 328.24,-94.3 408.47,-87.23 449.37,-87.07"/>
<polygon fill="green" stroke="green" stroke-width="0.21" points="449.53,-90.57 459.56,-87.17 449.6,-83.57 449.53,-90.57"/>
</g>
<!-- 391 -->
<g id="node28" class="node">
<title>391</title>
<ellipse fill="white" stroke="black" cx="222.42" cy="-165.34" rx="21.43" ry="21.43"/>
<text text-anchor="middle" x="222.42" y="-163.14" font-family="Times New Roman,serif" font-size="9.00">391</text>
</g>
<!-- &#45;12&#45;&gt;391 -->
<g id="edge94" class="edge">
<title>&#45;12&#45;&gt;391</title>
<path fill="none" stroke="green" stroke-width="0.52" d="M808.69,-242.14C730.62,-238.72 364.7,-221.08 257.42,-186.55 254.45,-185.59 251.45,-184.36 248.52,-182.97"/>
<polygon fill="green" stroke="green" stroke-width="0.52" points="250.01,-179.8 239.54,-178.16 246.71,-185.97 250.01,-179.8"/>
</g>
<!-- &#45;13 -->
<g id="node13" class="node">
<title>&#45;13</title>
<polygon fill="lightgray" stroke="black" points="563.92,-174.34 534.92,-174.34 534.92,-156.34 563.92,-156.34 563.92,-174.34"/>
<text text-anchor="middle" x="549.42" y="-163.14" font-family="Times New Roman,serif" font-size="9.00">&#45;13</text>
</g>
<!-- &#45;13&#45;&gt;0 -->
<g id="edge54" class="edge">
<title>&#45;13&#45;&gt;0</title>
<path fill="none" stroke="red" stroke-width="0.27" d="M563.96,-161.21C583.39,-157.08 618.93,-149.67 649.42,-144.12 748.2,-126.18 774.55,-130.47 872.42,-108.12 887.39,-104.71 903.91,-99.82 916.92,-95.71"/>
<polygon fill="red" stroke="red" stroke-width="0.27" points="918.05,-99.02 926.5,-92.63 915.91,-92.36 918.05,-99.02"/>
</g>
<!-- &#45;13&#45;&gt;1 -->
<g id="edge55" class="edge">
<title>&#45;13&#45;&gt;1</title>
<path fill="none" stroke="green" stroke-width="0.34" d="M558.31,-156.16C571.53,-143.98 596.7,-120.81 614,-104.87"/>
<polygon fill="green" stroke="green" stroke-width="0.34" points="616.8,-107.06 621.78,-97.71 612.06,-101.91 616.8,-107.06"/>
</g>
<!-- &#45;13&#45;&gt;2 -->
<g id="edge56" class="edge">
<title>&#45;13&#45;&gt;2</title>
<path fill="none" stroke="red" stroke-width="1.69" stroke-dasharray="1,5" d="M564.25,-160.55C612.39,-148.24 764.66,-109.32 824.21,-94.1"/>
<polygon fill="red" stroke="red" stroke-width="1.69" points="825.39,-97.41 834.21,-91.55 823.65,-90.63 825.39,-97.41"/>
</g>
<!-- &#45;13&#45;&gt;3 -->
<g id="edge57" class="edge">
<title>&#45;13&#45;&gt;3</title>
<path fill="none" stroke="red" stroke-width="0.13" d="M552.09,-156.12C558.62,-137.31 577.17,-90.83 608.42,-65.7 645.31,-36.03 700.66,-23.68 732.49,-18.8"/>
<polygon fill="red" stroke="red" stroke-width="0.13" points="733.28,-22.22 742.69,-17.37 732.3,-15.29 733.28,-22.22"/>
</g>
<!-- &#45;13&#45;&gt;4 -->
<g id="edge58" class="edge">
<title>&#45;13&#45;&gt;4</title>
<path fill="none" stroke="green" stroke-width="0.47" d="M541.4,-156.16C529.58,-144.11 507.2,-121.31 491.58,-105.39"/>
<polygon fill="green" stroke="green" stroke-width="0.47" points="494.03,-102.89 484.53,-98.21 489.03,-107.8 494.03,-102.89"/>
</g>
<!-- &#45;14 -->
<g id="node14" class="node">
<title>&#45;14</title>
<polygon fill="lightgray" stroke="black" points="771.92,-174.34 742.92,-174.34 742.92,-156.34 771.92,-156.34 771.92,-174.34"/>
<text text-anchor="middle" x="757.42" y="-163.14" font-family="Times New Roman,serif" font-size="9.00">&#45;14</text>
</g>
<!-- &#45;14&#45;&gt;0 -->
<g id="edge59" class="edge">
<title>&#45;14&#45;&gt;0</title>
<path fill="none" stroke="green" stroke-width="0.12" d="M765.74,-156.03C770.12,-152.02 775.75,-147.37 781.42,-144.12 805.06,-130.6 878.29,-107.05 916.57,-95.19"/>
<polygon fill="green" stroke="green" stroke-width="0.12" points="917.84,-98.46 926.37,-92.17 915.78,-91.77 917.84,-98.46"/>
</g>
<!-- &#45;14&#45;&gt;1 -->
<g id="edge60" class="edge">
<title>&#45;14&#45;&gt;1</title>
<path fill="none" stroke="green" stroke-width="0.43" d="M748.41,-156.03C744.04,-152.2 738.62,-147.71 733.42,-144.12 707.61,-126.32 675.68,-109.31 654.72,-98.75"/>
<polygon fill="green" stroke="green" stroke-width="0.43" points="656.16,-95.56 645.65,-94.25 653.05,-101.83 656.16,-95.56"/>
</g>
<!-- &#45;14&#45;&gt;2 -->
<g id="edge61" class="edge">
<title>&#45;14&#45;&gt;2</title>
<path fill="none" stroke="green" stroke-width="0.1" d="M767.23,-156.07C771.57,-152.41 776.75,-148.05 781.42,-144.12 797.63,-130.5 816.06,-115.04 829.49,-103.78"/>
<polygon fill="green" stroke="green" stroke-width="0.1" points="832.09,-106.16 837.51,-97.06 827.6,-100.8 832.09,-106.16"/>
</g>
<!-- &#45;14&#45;&gt;3 -->
<g id="edge62" class="edge">
<title>&#45;14&#45;&gt;3</title>
<path fill="none" stroke="green" stroke-width="0.15" d="M757.42,-155.93C757.42,-133.9 757.42,-73.85 757.42,-39.96"/>
<polygon fill="green" stroke="green" stroke-width="0.15" points="760.92,-39.96 757.42,-29.96 753.92,-39.96 760.92,-39.96"/>
</g>
<!-- &#45;14&#45;&gt;4 -->
<g id="edge63" class="edge">
<title>&#45;14&#45;&gt;4</title>
<path fill="none" stroke="red" stroke-width="0.27" d="M749.77,-155.98C745.4,-151.75 739.57,-146.92 733.42,-144.12 637.2,-100.46 594.64,-151.79 498.42,-108.12 496.33,-107.17 494.27,-105.99 492.29,-104.67"/>
<polygon fill="red" stroke="red" stroke-width="0.27" points="494.32,-101.8 484.3,-98.35 489.98,-107.3 494.32,-101.8"/>
</g>
<!-- &#45;15 -->
<g id="node15" class="node">
<title>&#45;15</title>
<polygon fill="lightgray" stroke="black" points="46.92,-174.34 17.92,-174.34 17.92,-156.34 46.92,-156.34 46.92,-174.34"/>
<text text-anchor="middle" x="32.42" y="-163.14" font-family="Times New Roman,serif" font-size="9.00">&#45;15</text>
</g>
<!-- &#45;15&#45;&gt;1 -->
<g id="edge64" class="edge">
<title>&#45;15&#45;&gt;1</title>
<path fill="none" stroke="red" stroke-width="0.4" d="M46.94,-158.52C59.34,-153.81 77.77,-147.45 94.42,-144.12 294.66,-104.2 350.94,-141.25 552.42,-108.12 571.49,-104.99 592.67,-99.55 608.45,-95.1"/>
<polygon fill="red" stroke="red" stroke-width="0.4" points="609.78,-98.36 618.41,-92.22 607.83,-91.63 609.78,-98.36"/>
</g>
<!-- &#45;15&#45;&gt;3 -->
<g id="edge65" class="edge">
<title>&#45;15&#45;&gt;3</title>
<path fill="none" stroke="red" stroke-width="0.1" d="M42.37,-156.14C47.74,-152.05 54.65,-147.31 61.42,-144.12 179.95,-88.46 216.96,-91.06 345.42,-65.7 490.76,-37.01 668.4,-22.25 732.71,-17.55"/>
<polygon fill="red" stroke="red" stroke-width="0.1" points="732.98,-21.04 742.7,-16.83 732.48,-14.06 732.98,-21.04"/>
</g>
<!-- &#45;15&#45;&gt;4 -->
<g id="edge66" class="edge">
<title>&#45;15&#45;&gt;4</title>
<path fill="none" stroke="green" stroke-width="0.24" d="M41.69,-156.17C47.08,-151.88 54.22,-146.94 61.42,-144.12 200.35,-89.92 383.23,-86.56 449.28,-87.31"/>
<polygon fill="green" stroke="green" stroke-width="0.24" points="449.48,-90.81 459.54,-87.47 449.6,-83.81 449.48,-90.81"/>
</g>
<!-- &#45;16 -->
<g id="node16" class="node">
<title>&#45;16</title>
<polygon fill="lightgray" stroke="black" points="1074.92,-174.34 1045.92,-174.34 1045.92,-156.34 1074.92,-156.34 1074.92,-174.34"/>
<text text-anchor="middle" x="1060.42" y="-163.14" font-family="Times New Roman,serif" font-size="9.00">&#45;16</text>
</g>
<!-- &#45;16&#45;&gt;0 -->
<g id="edge67" class="edge">
<title>&#45;16&#45;&gt;0</title>
<path fill="none" stroke="green" stroke-width="0.36" d="M1049.23,-156.32C1043.89,-152.55 1037.37,-148.03 1031.42,-144.12 1007.89,-128.67 980.32,-111.81 961.75,-100.63"/>
<polygon fill="green" stroke="green" stroke-width="0.36" points="963.3,-97.48 952.92,-95.33 959.7,-103.48 963.3,-97.48"/>
</g>
<!-- &#45;16&#45;&gt;2 -->
<g id="edge68" class="edge">
<title>&#45;16&#45;&gt;2</title>
<path fill="none" stroke="green" stroke-width="0.26" d="M1050.44,-156.22C1045.06,-152.15 1038.15,-147.4 1031.42,-144.12 1024.08,-140.55 920.06,-109.3 872.2,-95"/>
<polygon fill="green" stroke="green" stroke-width="0.26" points="872.96,-91.58 862.37,-92.07 870.95,-98.28 872.96,-91.58"/>
</g>
<!-- &#45;16&#45;&gt;3 -->
<g id="edge69" class="edge">
<title>&#45;16&#45;&gt;3</title>
<path fill="none" stroke="green" stroke-width="0.37" d="M1055.01,-156.21C1041.89,-137.19 1006.37,-89.58 964.42,-65.7 904.84,-31.77 822.92,-20.84 782.32,-17.39"/>
<polygon fill="green" stroke="green" stroke-width="0.37" points="782.48,-13.89 772.24,-16.62 781.95,-20.87 782.48,-13.89"/>
</g>
<!-- &#45;16&#45;&gt;4 -->
<g id="edge70" class="edge">
<title>&#45;16&#45;&gt;4</title>
<path fill="none" stroke="green" stroke-width="0.19" d="M1045.91,-158.49C1033.51,-153.77 1015.09,-147.39 998.42,-144.12 889.1,-122.7 601.63,-150.06 498.42,-108.12 496.29,-107.26 494.21,-106.13 492.22,-104.84"/>
<polygon fill="green" stroke="green" stroke-width="0.19" points="494.24,-101.98 484.21,-98.57 489.92,-107.49 494.24,-101.98"/>
</g>
<!-- &#45;17 -->
<g id="node17" class="node">
<title>&#45;17</title>
<polygon fill="lightgray" stroke="black" points="516.92,-174.34 487.92,-174.34 487.92,-156.34 516.92,-156.34 516.92,-174.34"/>
<text text-anchor="middle" x="502.42" y="-163.14" font-family="Times New Roman,serif" font-size="9.00">&#45;17</text>
</g>
<!-- &#45;17&#45;&gt;0 -->
<g id="edge71" class="edge">
<title>&#45;17&#45;&gt;0</title>
<path fill="none" stroke="green" stroke-width="0.27" d="M509.61,-156.28C514.01,-151.91 520.01,-146.85 526.42,-144.12 668.72,-83.66 720.78,-138.28 872.42,-108.12 887.48,-105.13 904,-100.26 916.99,-96.05"/>
<polygon fill="green" stroke="green" stroke-width="0.27" points="918.17,-99.34 926.55,-92.86 915.95,-92.7 918.17,-99.34"/>
</g>
<!-- &#45;17&#45;&gt;1 -->
<g id="edge72" class="edge">
<title>&#45;17&#45;&gt;1</title>
<path fill="none" stroke="red" stroke-width="0.23" d="M511.41,-155.99C515.77,-152.14 521.19,-147.66 526.42,-144.12 553.82,-125.63 587.98,-108.46 610,-98.09"/>
<polygon fill="red" stroke="red" stroke-width="0.23" points="611.59,-101.2 619.19,-93.81 608.64,-94.85 611.59,-101.2"/>
</g>
<!-- &#45;17&#45;&gt;2 -->
<g id="edge73" class="edge">
<title>&#45;17&#45;&gt;2</title>
<path fill="none" stroke="green" stroke-width="0.43" d="M510.1,-156.04C514.48,-151.81 520.3,-146.98 526.42,-144.12 579.66,-119.3 757.37,-97.86 823.42,-90.57"/>
<polygon fill="green" stroke="green" stroke-width="0.43" points="824.16,-94.01 833.72,-89.45 823.4,-87.05 824.16,-94.01"/>
</g>
<!-- &#45;17&#45;&gt;4 -->
<g id="edge74" class="edge">
<title>&#45;17&#45;&gt;4</title>
<path fill="none" stroke="red" stroke-width="0.56" d="M499.43,-156.16C495.51,-145.46 488.48,-126.27 482.87,-110.96"/>
<polygon fill="red" stroke="red" stroke-width="0.56" points="485.99,-109.32 479.27,-101.13 479.42,-111.73 485.99,-109.32"/>
</g>
<!-- &#45;17&#45;&gt;78 -->
<g id="edge85" class="edge">
<title>&#45;17&#45;&gt;78</title>
<path fill="none" stroke="green" stroke-width="0.37" d="M504.88,-156.16C507.88,-146.21 513.08,-128.92 517.5,-114.24"/>
<polygon fill="green" stroke="green" stroke-width="0.37" points="520.87,-115.19 520.4,-104.61 514.17,-113.17 520.87,-115.19"/>
</g>
<!-- &#45;18 -->
<g id="node18" class="node">
<title>&#45;18</title>
<polygon fill="lightgray" stroke="black" points="861.92,-174.34 832.92,-174.34 832.92,-156.34 861.92,-156.34 861.92,-174.34"/>
<text text-anchor="middle" x="847.42" y="-163.14" font-family="Times New Roman,serif" font-size="9.00">&#45;18</text>
</g>
<!-- &#45;18&#45;&gt;0 -->
<g id="edge75" class="edge">
<title>&#45;18&#45;&gt;0</title>
<path fill="none" stroke="red" stroke-width="0.14" d="M857.2,-156.04C861.54,-152.37 866.72,-148.02 871.42,-144.12 888.17,-130.25 907.37,-114.63 921.25,-103.39"/>
<polygon fill="red" stroke="red" stroke-width="0.14" points="923.57,-106.02 929.14,-97.01 919.17,-100.58 923.57,-106.02"/>
</g>
<!-- &#45;18&#45;&gt;1 -->
<g id="edge76" class="edge">
<title>&#45;18&#45;&gt;1</title>
<path fill="none" stroke="green" stroke-width="0.67" d="M839.61,-156.31C835.19,-152.16 829.37,-147.32 823.42,-144.12 768,-114.34 694.82,-98.49 657.16,-91.82"/>
<polygon fill="green" stroke="green" stroke-width="0.67" points="657.55,-88.33 647.1,-90.11 656.37,-95.23 657.55,-88.33"/>
</g>
<!-- &#45;18&#45;&gt;2 -->
<g id="edge77" class="edge">
<title>&#45;18&#45;&gt;2</title>
<path fill="none" stroke="red" stroke-width="0.14" d="M847.53,-156.16C847.67,-145.75 847.91,-127.3 848.1,-112.21"/>
<polygon fill="red" stroke="red" stroke-width="0.14" points="851.61,-112.02 848.24,-101.97 844.61,-111.93 851.61,-112.02"/>
</g>
<!-- &#45;18&#45;&gt;4 -->
<g id="edge78" class="edge">
<title>&#45;18&#45;&gt;4</title>
<path fill="none" stroke="red" stroke-width="0.22" d="M840.23,-156.29C835.83,-151.93 829.83,-146.87 823.42,-144.12 689.86,-86.84 631.99,-165.41 498.42,-108.12 496.31,-107.22 494.24,-106.06 492.25,-104.76"/>
<polygon fill="red" stroke="red" stroke-width="0.22" points="494.28,-101.9 484.25,-98.47 489.95,-107.4 494.28,-101.9"/>
</g>
<!-- &#45;19 -->
<g id="node19" class="node">
<title>&#45;19</title>
<polygon fill="lightgray" stroke="black" points="1329.92,-174.34 1300.92,-174.34 1300.92,-156.34 1329.92,-156.34 1329.92,-174.34"/>
<text text-anchor="middle" x="1315.42" y="-163.14" font-family="Times New Roman,serif" font-size="9.00">&#45;19</text>
</g>
<!-- &#45;19&#45;&gt;2 -->
<g id="edge79" class="edge">
<title>&#45;19&#45;&gt;2</title>
<path fill="none" stroke="green" stroke-width="0.12" stroke-dasharray="1,5" d="M1308.24,-156.26C1303.85,-151.88 1297.85,-146.83 1291.42,-144.12 1137.07,-79.26 1080.77,-140.13 916.42,-108.12 901.35,-105.19 884.83,-100.32 871.85,-96.1"/>
<polygon fill="green" stroke="green" stroke-width="0.12" points="872.88,-92.75 862.29,-92.9 870.66,-99.39 872.88,-92.75"/>
</g>
<!-- &#45;19&#45;&gt;3 -->
<g id="edge80" class="edge">
<title>&#45;19&#45;&gt;3</title>
<path fill="none" stroke="green" stroke-width="0.25" d="M1308.97,-156.15C1293.01,-136.55 1249.38,-87.01 1200.42,-65.7 1124.27,-32.55 864.41,-19.95 782.42,-16.74"/>
<polygon fill="green" stroke="green" stroke-width="0.25" points="782.4,-13.23 772.28,-16.35 782.14,-20.23 782.4,-13.23"/>
</g>
<!-- &#45;20 -->
<g id="node20" class="node">
<title>&#45;20</title>
<polygon fill="lightgray" stroke="black" points="1121.92,-174.34 1092.92,-174.34 1092.92,-156.34 1121.92,-156.34 1121.92,-174.34"/>
<text text-anchor="middle" x="1107.42" y="-163.14" font-family="Times New Roman,serif" font-size="9.00">&#45;20</text>
</g>
<!-- &#45;20&#45;&gt;0 -->
<g id="edge81" class="edge">
<title>&#45;20&#45;&gt;0</title>
<path fill="none" stroke="red" stroke-width="0.17" d="M1099.46,-156.09C1095.27,-152.09 1089.87,-147.44 1084.42,-144.12 1045.22,-120.27 994.14,-103.2 964.54,-94.5"/>
<polygon fill="red" stroke="red" stroke-width="0.17" points="965.25,-91.06 954.67,-91.67 963.32,-97.79 965.25,-91.06"/>
</g>
<!-- &#45;20&#45;&gt;1 -->
<g id="edge82" class="edge">
<title>&#45;20&#45;&gt;1</title>
<path fill="none" stroke="green" stroke-width="0.46" d="M1100.58,-156.32C1096.38,-151.97 1090.63,-146.91 1084.42,-144.12 1064.71,-135.27 749.05,-100.54 657.27,-90.59"/>
<polygon fill="green" stroke="green" stroke-width="0.46" points="657.54,-87.1 647.22,-89.5 656.78,-94.06 657.54,-87.1"/>
</g>
<!-- &#45;20&#45;&gt;2 -->
<g id="edge83" class="edge">
<title>&#45;20&#45;&gt;2</title>
<path fill="none" stroke="red" stroke-width="0.46" d="M1100.08,-156.12C1095.89,-151.92 1090.31,-147.09 1084.42,-144.12 1016.2,-109.81 990.41,-127.02 916.42,-108.12 901.55,-104.33 885.03,-99.43 872,-95.41"/>
<polygon fill="red" stroke="red" stroke-width="0.46" points="872.99,-92.05 862.4,-92.41 870.9,-98.74 872.99,-92.05"/>
</g>
<!-- &#45;20&#45;&gt;3 -->
<g id="edge84" class="edge">
<title>&#45;20&#45;&gt;3</title>
<path fill="none" stroke="green" stroke-width="0.21" d="M1101.37,-156.12C1086.73,-136.91 1047.3,-88.91 1002.42,-65.7 928.88,-27.65 828.89,-18.63 782.71,-16.5"/>
<polygon fill="green" stroke="green" stroke-width="0.21" points="782.56,-12.99 772.43,-16.1 782.29,-19.98 782.56,-12.99"/>
</g>
<!-- 327 -->
<g id="node27" class="node">
<title>327</title>
<ellipse fill="white" stroke="black" cx="1103.42" cy="-86.91" rx="21.43" ry="21.43"/>
<text text-anchor="middle" x="1103.42" y="-84.71" font-family="Times New Roman,serif" font-size="9.00">327</text>
</g>
<!-- &#45;20&#45;&gt;327 -->
<g id="edge92" class="edge">
<title>&#45;20&#45;&gt;327</title>
<path fill="none" stroke="red" stroke-width="0.22" d="M1106.99,-156.16C1106.52,-147.14 1105.73,-132.08 1105.02,-118.4"/>
<polygon fill="red" stroke="red" stroke-width="0.22" points="1108.51,-118.14 1104.49,-108.34 1101.52,-118.51 1108.51,-118.14"/>
</g>
<!-- &#45;20&#45;&gt;78 -->
<g id="edge100" class="edge">
<title>&#45;20&#45;&gt;78</title>
<path fill="none" stroke="red" stroke-width="0.12" d="M1100.63,-156.21C1096.44,-151.82 1090.69,-146.76 1084.42,-144.12 986.64,-102.99 713.19,-124.73 608.42,-108.12 589.68,-105.15 568.93,-100.1 552.87,-95.79"/>
<polygon fill="red" stroke="red" stroke-width="0.12" points="553.63,-92.37 543.06,-93.1 551.78,-99.12 553.63,-92.37"/>
</g>
<!-- 454 -->
<g id="node26" class="node">
<title>454</title>
<ellipse fill="white" stroke="black" cx="1369.42" cy="-165.34" rx="21.43" ry="21.43"/>
<text text-anchor="middle" x="1369.42" y="-163.14" font-family="Times New Roman,serif" font-size="9.00">454</text>
</g>
<!-- 454&#45;&gt;0 -->
<g id="edge99" class="edge">
<title>454&#45;&gt;0</title>
<path fill="none" stroke="red" stroke-width="0.92" d="M1353.04,-151.35C1348.81,-148.56 1344.12,-145.91 1339.42,-144.12 1227.93,-101.68 1191.51,-125.09 1073.42,-108.12 1035.63,-102.7 991.87,-95.96 965.17,-91.8"/>
<polygon fill="red" stroke="red" stroke-width="0.92" points="965.59,-88.32 955.17,-90.23 964.51,-95.24 965.59,-88.32"/>
</g>
<!-- 391&#45;&gt;4 -->
<g id="edge95" class="edge">
<title>391&#45;&gt;4</title>
<path fill="none" stroke="red" stroke-width="0.44" d="M239.76,-153.09C245.25,-149.87 251.45,-146.57 257.42,-144.12 324.54,-116.65 408.92,-99.39 449.88,-92.03"/>
<polygon fill="red" stroke="red" stroke-width="0.44" points="450.53,-95.47 459.77,-90.29 449.32,-88.57 450.53,-95.47"/>
</g>
<!-- 237&#45;&gt;0 -->
<g id="edge89" class="edge">
<title>237&#45;&gt;0</title>
<path fill="none" stroke="red" stroke-width="0.89" stroke-dasharray="1,5" d="M1412.44,-222.75C1416.73,-200.41 1419.41,-164.71 1399.42,-144.12 1348.64,-91.84 1145.69,-117.6 1073.42,-108.12 1035.57,-103.16 991.82,-96.29 965.15,-91.98"/>
<polygon fill="red" stroke="red" stroke-width="0.89" points="965.59,-88.5 955.16,-90.35 964.46,-95.41 965.59,-88.5"/>
</g>
<!-- 237&#45;&gt;454 -->
<g id="edge98" class="edge">
<title>237&#45;&gt;454</title>
<path fill="none" stroke="green" stroke-width="0.4" d="M1398.22,-224.26C1393.7,-215.16 1388.15,-204 1383.13,-193.91"/>
<polygon fill="green" stroke="green" stroke-width="0.4" points="1386.12,-192.06 1378.54,-184.67 1379.85,-195.18 1386.12,-192.06"/>
</g>
<!-- 78&#45;&gt;3 -->
<g id="edge86" class="edge">
<title>78&#45;&gt;3</title>
<path fill="none" stroke="green" stroke-width="0.7" d="M541.44,-77.75C549.67,-73.76 559.93,-69.11 569.42,-65.7 626.73,-45.11 696.6,-28.79 732.88,-20.94"/>
<polygon fill="green" stroke="green" stroke-width="0.7" points="733.97,-24.29 743.02,-18.78 732.51,-17.44 733.97,-24.29"/>
</g>
<!-- 308&#45;&gt;1 -->
<g id="edge91" class="edge">
<title>308&#45;&gt;1</title>
<path fill="none" stroke="red" stroke-width="0.31" d="M465.39,-152.29C469.84,-149.41 474.71,-146.49 479.42,-144.12 523.09,-122.22 577.45,-104.29 608.21,-94.94"/>
<polygon fill="red" stroke="red" stroke-width="0.31" points="609.48,-98.22 618.05,-92 607.47,-91.51 609.48,-98.22"/>
</g>
<!-- 406&#45;&gt;4 -->
<g id="edge97" class="edge">
<title>406&#45;&gt;4</title>
<path fill="none" stroke="red" stroke-width="0.44" d="M141.65,-152.81C147.13,-149.57 153.36,-146.34 159.42,-144.12 262.92,-106.33 395.12,-93.36 449.43,-89.43"/>
<polygon fill="red" stroke="red" stroke-width="0.44" points="449.77,-92.91 459.51,-88.74 449.29,-85.93 449.77,-92.91"/>
</g>
</g>
</svg>
