<?xml version="1.0" encoding="UTF-8" standalone="no"?>
<!DOCTYPE svg PUBLIC "-//W3C//DTD SVG 1.1//EN"
 "http://www.w3.org/Graphics/SVG/1.1/DTD/svg11.dtd">
<!-- Generated by graphviz version 2.43.0 (0)
 -->
<!-- Title: %3 Pages: 1 -->
<svg width="1321pt" height="180pt"
 viewBox="0.00 0.00 1320.93 180.02" xmlns="http://www.w3.org/2000/svg" xmlns:xlink="http://www.w3.org/1999/xlink">
<g id="graph0" class="graph" transform="scale(1 1) rotate(0) translate(4 176.02)">
<title>%3</title>
<polygon fill="white" stroke="transparent" points="-4,4 -4,-176.02 1316.93,-176.02 1316.93,4 -4,4"/>
<!-- &#45;1 -->
<g id="node1" class="node">
<title>&#45;1</title>
<polygon fill="lightgray" stroke="black" points="983.18,-102.28 957.18,-102.28 957.18,-84.28 983.18,-84.28 983.18,-102.28"/>
<text text-anchor="middle" x="970.18" y="-91.08" font-family="Times,serif" font-size="9.00">&#45;1</text>
</g>
<!-- 0 -->
<g id="node21" class="node">
<title>0</title>
<ellipse fill="lightblue" stroke="black" cx="615.18" cy="-16.26" rx="16.03" ry="16.03"/>
<text text-anchor="middle" x="615.18" y="-14.06" font-family="Times,serif" font-size="9.00">0</text>
</g>
<!-- &#45;1&#45;&gt;0 -->
<g id="edge1" class="edge">
<title>&#45;1&#45;&gt;0</title>
<path fill="none" stroke="red" stroke-width="0.3" d="M964.69,-83.82C960.76,-78.51 954.97,-72.03 948.18,-68.53 837.05,-11.24 791.67,-57.6 669.18,-32.53 659.71,-30.59 649.47,-27.86 640.48,-25.25"/>
<polygon fill="red" stroke="red" stroke-width="0.3" points="641.21,-21.81 630.63,-22.28 639.2,-28.51 641.21,-21.81"/>
</g>
<!-- 1 -->
<g id="node22" class="node">
<title>1</title>
<ellipse fill="lightblue" stroke="black" cx="694.18" cy="-16.26" rx="16.03" ry="16.03"/>
<text text-anchor="middle" x="694.18" y="-14.06" font-family="Times,serif" font-size="9.00">1</text>
</g>
<!-- &#45;1&#45;&gt;1 -->
<g id="edge30" class="edge">
<title>&#45;1&#45;&gt;1</title>
<path fill="none" stroke="red" stroke-width="0.11" d="M964.65,-83.88C960.71,-78.6 954.92,-72.12 948.18,-68.53 857.67,-20.24 816.77,-67.1 720.18,-32.53 718.93,-32.08 717.68,-31.57 716.43,-31.02"/>
<polygon fill="red" stroke="red" stroke-width="0.11" points="717.69,-27.73 707.2,-26.19 714.44,-33.93 717.69,-27.73"/>
</g>
<!-- 2 -->
<g id="node23" class="node">
<title>2</title>
<ellipse fill="lightblue" stroke="black" cx="745.18" cy="-16.26" rx="16.03" ry="16.03"/>
<text text-anchor="middle" x="745.18" y="-14.06" font-family="Times,serif" font-size="9.00">2</text>
</g>
<!-- &#45;1&#45;&gt;2 -->
<g id="edge39" class="edge">
<title>&#45;1&#45;&gt;2</title>
<path fill="none" stroke="red" stroke-width="0.16" d="M964.54,-84.08C960.55,-78.89 954.75,-72.43 948.18,-68.53 891.05,-34.63 812.04,-23.01 771.5,-19.13"/>
<polygon fill="red" stroke="red" stroke-width="0.16" points="771.63,-15.63 761.36,-18.25 771.02,-22.6 771.63,-15.63"/>
</g>
<!-- 4 -->
<g id="node25" class="node">
<title>4</title>
<ellipse fill="lightblue" stroke="black" cx="487.18" cy="-16.26" rx="16.03" ry="16.03"/>
<text text-anchor="middle" x="487.18" y="-14.06" font-family="Times,serif" font-size="9.00">4</text>
</g>
<!-- &#45;1&#45;&gt;4 -->
<g id="edge22" class="edge">
<title>&#45;1&#45;&gt;4</title>
<path fill="none" stroke="red" stroke-width="0.18" d="M965.06,-84.23C961.14,-78.81 955.22,-72.03 948.18,-68.53 876.6,-32.89 669.52,-42.39 590.18,-32.53 563.9,-29.26 533.98,-24.74 513.18,-21.46"/>
<polygon fill="red" stroke="red" stroke-width="0.18" points="513.63,-17.99 503.2,-19.88 512.53,-24.9 513.63,-17.99"/>
</g>
<!-- &#45;2 -->
<g id="node2" class="node">
<title>&#45;2</title>
<polygon fill="lightgray" stroke="black" points="449.18,-102.28 423.18,-102.28 423.18,-84.28 449.18,-84.28 449.18,-102.28"/>
<text text-anchor="middle" x="436.18" y="-91.08" font-family="Times,serif" font-size="9.00">&#45;2</text>
</g>
<!-- &#45;2&#45;&gt;0 -->
<g id="edge8" class="edge">
<title>&#45;2&#45;&gt;0</title>
<path fill="none" stroke="red" stroke-width="0.56" d="M441.91,-84.23C445.94,-79.09 451.74,-72.65 458.18,-68.53 499.61,-41.99 556.04,-28 588.75,-21.65"/>
<polygon fill="red" stroke="red" stroke-width="0.56" points="589.67,-25.04 598.87,-19.79 588.4,-18.16 589.67,-25.04"/>
</g>
<!-- &#45;2&#45;&gt;1 -->
<g id="edge89" class="edge">
<title>&#45;2&#45;&gt;1</title>
<path fill="none" stroke="red" stroke-width="0.14" d="M441.75,-83.97C445.71,-78.72 451.51,-72.25 458.18,-68.53 530.16,-28.31 560,-51.76 640.18,-32.53 649.58,-30.27 659.8,-27.47 668.79,-24.89"/>
<polygon fill="red" stroke="red" stroke-width="0.14" points="670.05,-28.17 678.67,-22 668.09,-21.45 670.05,-28.17"/>
</g>
<!-- &#45;2&#45;&gt;2 -->
<g id="edge38" class="edge">
<title>&#45;2&#45;&gt;2</title>
<path fill="none" stroke="green" stroke-width="0.42" d="M441.68,-83.84C445.61,-78.54 451.4,-72.06 458.18,-68.53 562.03,-14.42 608.55,-70.91 719.18,-32.53 720.43,-32.09 721.69,-31.59 722.94,-31.05"/>
<polygon fill="green" stroke="green" stroke-width="0.42" points="724.92,-33.97 732.17,-26.25 721.69,-27.76 724.92,-33.97"/>
</g>
<!-- 3 -->
<g id="node24" class="node">
<title>3</title>
<ellipse fill="lightblue" stroke="black" cx="436.18" cy="-16.26" rx="16.03" ry="16.03"/>
<text text-anchor="middle" x="436.18" y="-14.06" font-family="Times,serif" font-size="9.00">3</text>
</g>
<!-- &#45;2&#45;&gt;3 -->
<g id="edge72" class="edge">
<title>&#45;2&#45;&gt;3</title>
<path fill="none" stroke="red" stroke-width="0.3" d="M436.18,-84.25C436.18,-74.49 436.18,-57.54 436.18,-43.13"/>
<polygon fill="red" stroke="red" stroke-width="0.3" points="439.68,-42.77 436.18,-32.77 432.68,-42.77 439.68,-42.77"/>
</g>
<!-- &#45;2&#45;&gt;4 -->
<g id="edge42" class="edge">
<title>&#45;2&#45;&gt;4</title>
<path fill="none" stroke="green" stroke-width="0.41" d="M441.64,-84.25C448.98,-73.44 462.32,-53.82 472.68,-38.59"/>
<polygon fill="green" stroke="green" stroke-width="0.41" points="475.63,-40.48 478.36,-30.24 469.84,-36.54 475.63,-40.48"/>
</g>
<!-- &#45;3 -->
<g id="node3" class="node">
<title>&#45;3</title>
<polygon fill="lightgray" stroke="black" points="493.18,-102.28 467.18,-102.28 467.18,-84.28 493.18,-84.28 493.18,-102.28"/>
<text text-anchor="middle" x="480.18" y="-91.08" font-family="Times,serif" font-size="9.00">&#45;3</text>
</g>
<!-- &#45;3&#45;&gt;0 -->
<g id="edge47" class="edge">
<title>&#45;3&#45;&gt;0</title>
<path fill="none" stroke="red" stroke-width="0.22" d="M486.43,-84.01C490.5,-79.04 496.16,-72.87 502.18,-68.53 529.73,-48.66 566.21,-33.82 590.16,-25.35"/>
<polygon fill="red" stroke="red" stroke-width="0.22" points="591.58,-28.56 599.91,-22.01 589.31,-21.94 591.58,-28.56"/>
</g>
<!-- &#45;3&#45;&gt;1 -->
<g id="edge14" class="edge">
<title>&#45;3&#45;&gt;1</title>
<path fill="none" stroke="green" stroke-width="0.29" d="M485.83,-84.1C489.82,-78.91 495.62,-72.45 502.18,-68.53 556.56,-35.97 579.01,-49.15 640.18,-32.53 649.5,-29.99 659.71,-27.13 668.71,-24.58"/>
<polygon fill="green" stroke="green" stroke-width="0.29" points="669.95,-27.86 678.61,-21.76 668.03,-21.13 669.95,-27.86"/>
</g>
<!-- &#45;3&#45;&gt;2 -->
<g id="edge83" class="edge">
<title>&#45;3&#45;&gt;2</title>
<path fill="none" stroke="green" stroke-width="0.28" d="M485.71,-83.9C489.66,-78.63 495.45,-72.15 502.18,-68.53 588.25,-22.17 627.26,-65.83 719.18,-32.53 720.42,-32.08 721.68,-31.56 722.93,-31.01"/>
<polygon fill="green" stroke="green" stroke-width="0.28" points="724.92,-33.92 732.15,-26.17 721.67,-27.72 724.92,-33.92"/>
</g>
<!-- &#45;3&#45;&gt;3 -->
<g id="edge54" class="edge">
<title>&#45;3&#45;&gt;3</title>
<path fill="none" stroke="red" stroke-width="0.6" d="M475.47,-84.25C469.26,-73.67 458.1,-54.64 449.25,-39.56"/>
<polygon fill="red" stroke="red" stroke-width="0.6" points="452.19,-37.64 444.11,-30.79 446.15,-41.18 452.19,-37.64"/>
</g>
<!-- &#45;3&#45;&gt;4 -->
<g id="edge23" class="edge">
<title>&#45;3&#45;&gt;4</title>
<path fill="none" stroke="red" stroke-width="0.35" d="M480.93,-84.25C481.85,-74.33 483.47,-56.99 484.83,-42.44"/>
<polygon fill="red" stroke="red" stroke-width="0.35" points="488.31,-42.76 485.76,-32.48 481.34,-42.11 488.31,-42.76"/>
</g>
<!-- &#45;4 -->
<g id="node4" class="node">
<title>&#45;4</title>
<polygon fill="lightgray" stroke="black" points="587.18,-102.28 561.18,-102.28 561.18,-84.28 587.18,-84.28 587.18,-102.28"/>
<text text-anchor="middle" x="574.18" y="-91.08" font-family="Times,serif" font-size="9.00">&#45;4</text>
</g>
<!-- &#45;4&#45;&gt;0 -->
<g id="edge92" class="edge">
<title>&#45;4&#45;&gt;0</title>
<path fill="none" stroke="red" stroke-width="0.11" stroke-dasharray="1,5" d="M578.57,-84.25C584.29,-73.77 594.56,-55 602.76,-39.98"/>
<polygon fill="red" stroke="red" stroke-width="0.11" points="606.06,-41.24 607.79,-30.79 599.92,-37.88 606.06,-41.24"/>
</g>
<!-- &#45;4&#45;&gt;1 -->
<g id="edge21" class="edge">
<title>&#45;4&#45;&gt;1</title>
<path fill="none" stroke="red" stroke-width="0.22" d="M587.02,-84.25C607.29,-71.58 646.94,-46.79 671.92,-31.18"/>
<polygon fill="red" stroke="red" stroke-width="0.22" points="674.07,-33.96 680.7,-25.69 670.36,-28.02 674.07,-33.96"/>
</g>
<!-- &#45;4&#45;&gt;2 -->
<g id="edge53" class="edge">
<title>&#45;4&#45;&gt;2</title>
<path fill="none" stroke="green" stroke-width="0.57" d="M587.25,-87.59C612.99,-78.22 671.87,-56.02 719.18,-32.53 720.34,-31.95 721.52,-31.34 722.7,-30.72"/>
<polygon fill="green" stroke="green" stroke-width="0.57" points="724.61,-33.66 731.61,-25.71 721.18,-27.56 724.61,-33.66"/>
</g>
<!-- &#45;4&#45;&gt;3 -->
<g id="edge82" class="edge">
<title>&#45;4&#45;&gt;3</title>
<path fill="none" stroke="red" stroke-width="0.16" d="M568,-83.91C563.95,-78.91 558.29,-72.73 552.18,-68.53 516.67,-44.13 500.86,-51.49 462.18,-32.53 461.02,-31.96 459.83,-31.35 458.65,-30.73"/>
<polygon fill="red" stroke="red" stroke-width="0.16" points="460.17,-27.57 449.73,-25.74 456.75,-33.68 460.17,-27.57"/>
</g>
<!-- &#45;4&#45;&gt;4 -->
<g id="edge71" class="edge">
<title>&#45;4&#45;&gt;4</title>
<path fill="none" stroke="red" stroke-width="0.35" d="M567.14,-84.06C562.96,-79.35 557.46,-73.41 552.18,-68.53 538.28,-55.69 521.49,-42.5 508.46,-32.72"/>
<polygon fill="red" stroke="red" stroke-width="0.35" points="510.23,-29.68 500.12,-26.53 506.06,-35.3 510.23,-29.68"/>
</g>
<!-- &#45;5 -->
<g id="node5" class="node">
<title>&#45;5</title>
<polygon fill="lightgray" stroke="black" points="707.18,-102.28 681.18,-102.28 681.18,-84.28 707.18,-84.28 707.18,-102.28"/>
<text text-anchor="middle" x="694.18" y="-91.08" font-family="Times,serif" font-size="9.00">&#45;5</text>
</g>
<!-- &#45;5&#45;&gt;0 -->
<g id="edge37" class="edge">
<title>&#45;5&#45;&gt;0</title>
<path fill="none" stroke="green" stroke-width="0.15" d="M685.72,-84.25C673.48,-72.62 650.48,-50.78 634.07,-35.2"/>
<polygon fill="green" stroke="green" stroke-width="0.15" points="636.28,-32.47 626.62,-28.13 631.46,-37.55 636.28,-32.47"/>
</g>
<!-- &#45;5&#45;&gt;1 -->
<g id="edge10" class="edge">
<title>&#45;5&#45;&gt;1</title>
<path fill="none" stroke="green" stroke-width="0.3" d="M694.18,-84.25C694.18,-74.49 694.18,-57.54 694.18,-43.13"/>
<polygon fill="green" stroke="green" stroke-width="0.3" points="697.68,-42.77 694.18,-32.77 690.68,-42.77 697.68,-42.77"/>
</g>
<!-- &#45;5&#45;&gt;2 -->
<g id="edge99" class="edge">
<title>&#45;5&#45;&gt;2</title>
<path fill="none" stroke="green" stroke-width="0.24" d="M699.64,-84.25C706.98,-73.44 720.32,-53.82 730.68,-38.59"/>
<polygon fill="green" stroke="green" stroke-width="0.24" points="733.63,-40.48 736.36,-30.24 727.84,-36.54 733.63,-40.48"/>
</g>
<!-- &#45;5&#45;&gt;3 -->
<g id="edge69" class="edge">
<title>&#45;5&#45;&gt;3</title>
<path fill="none" stroke="green" stroke-width="0.37" d="M681.12,-89.14C635.23,-78.08 483.04,-41.14 462.18,-32.53 460.95,-32.02 459.72,-31.47 458.48,-30.88"/>
<polygon fill="green" stroke="green" stroke-width="0.37" points="459.77,-27.59 449.3,-25.93 456.44,-33.75 459.77,-27.59"/>
</g>
<!-- &#45;5&#45;&gt;4 -->
<g id="edge63" class="edge">
<title>&#45;5&#45;&gt;4</title>
<path fill="none" stroke="red" stroke-width="0.18" d="M680.91,-87.47C646.88,-75.14 556.04,-42.22 511.91,-26.23"/>
<polygon fill="red" stroke="red" stroke-width="0.18" points="512.85,-22.84 502.26,-22.73 510.46,-29.42 512.85,-22.84"/>
</g>
<!-- &#45;6 -->
<g id="node6" class="node">
<title>&#45;6</title>
<polygon fill="lightgray" stroke="black" points="751.18,-102.28 725.18,-102.28 725.18,-84.28 751.18,-84.28 751.18,-102.28"/>
<text text-anchor="middle" x="738.18" y="-91.08" font-family="Times,serif" font-size="9.00">&#45;6</text>
</g>
<!-- &#45;6&#45;&gt;0 -->
<g id="edge81" class="edge">
<title>&#45;6&#45;&gt;0</title>
<path fill="none" stroke="green" stroke-width="0.59" d="M731.86,-84.1C727.76,-79.17 722.1,-73 716.18,-68.53 692.2,-50.42 660.86,-35.67 639.49,-26.71"/>
<polygon fill="green" stroke="green" stroke-width="0.59" points="640.74,-23.44 630.16,-22.9 638.1,-29.92 640.74,-23.44"/>
</g>
<!-- &#45;6&#45;&gt;1 -->
<g id="edge13" class="edge">
<title>&#45;6&#45;&gt;1</title>
<path fill="none" stroke="red" stroke-width="0.63" d="M733.47,-84.25C727.26,-73.67 716.1,-54.64 707.25,-39.56"/>
<polygon fill="red" stroke="red" stroke-width="0.63" points="710.19,-37.64 702.11,-30.79 704.15,-41.18 710.19,-37.64"/>
</g>
<!-- &#45;6&#45;&gt;2 -->
<g id="edge19" class="edge">
<title>&#45;6&#45;&gt;2</title>
<path fill="none" stroke="green" stroke-width="0.19" d="M738.93,-84.25C739.85,-74.33 741.47,-56.99 742.83,-42.44"/>
<polygon fill="green" stroke="green" stroke-width="0.19" points="746.31,-42.76 743.76,-32.48 739.34,-42.11 746.31,-42.76"/>
</g>
<!-- &#45;6&#45;&gt;3 -->
<g id="edge51" class="edge">
<title>&#45;6&#45;&gt;3</title>
<path fill="none" stroke="green" stroke-width="0.27" d="M732.67,-83.85C728.74,-78.55 722.95,-72.07 716.18,-68.53 615.16,-15.65 569.83,-70.1 462.18,-32.53 460.93,-32.09 459.67,-31.59 458.42,-31.05"/>
<polygon fill="green" stroke="green" stroke-width="0.27" points="459.67,-27.75 449.19,-26.24 456.44,-33.96 459.67,-27.75"/>
</g>
<!-- &#45;6&#45;&gt;4 -->
<g id="edge64" class="edge">
<title>&#45;6&#45;&gt;4</title>
<path fill="none" stroke="red" stroke-width="0.33" d="M732.58,-84.02C728.6,-78.8 722.8,-72.34 716.18,-68.53 681.56,-48.62 565.65,-29.14 513.27,-21.1"/>
<polygon fill="red" stroke="red" stroke-width="0.33" points="513.52,-17.6 503.11,-19.57 512.48,-24.52 513.52,-17.6"/>
</g>
<!-- &#45;7 -->
<g id="node7" class="node">
<title>&#45;7</title>
<polygon fill="lightgray" stroke="black" points="155.18,-102.28 129.18,-102.28 129.18,-84.28 155.18,-84.28 155.18,-102.28"/>
<text text-anchor="middle" x="142.18" y="-91.08" font-family="Times,serif" font-size="9.00">&#45;7</text>
</g>
<!-- &#45;7&#45;&gt;0 -->
<g id="edge29" class="edge">
<title>&#45;7&#45;&gt;0</title>
<path fill="none" stroke="green" stroke-width="0.32" d="M147.3,-84.23C151.22,-78.82 157.14,-72.04 164.18,-68.53 233.73,-33.78 435.04,-42.23 512.18,-32.53 538.45,-29.22 568.38,-24.7 589.17,-21.44"/>
<polygon fill="green" stroke="green" stroke-width="0.32" points="589.82,-24.88 599.15,-19.86 588.73,-17.97 589.82,-24.88"/>
</g>
<!-- &#45;7&#45;&gt;1 -->
<g id="edge98" class="edge">
<title>&#45;7&#45;&gt;1</title>
<path fill="none" stroke="red" stroke-width="0.16" d="M147.27,-84.17C151.18,-78.73 157.09,-71.95 164.18,-68.53 259.72,-22.43 535.73,-51.05 640.18,-32.53 649.69,-30.84 659.94,-28.17 668.93,-25.53"/>
<polygon fill="red" stroke="red" stroke-width="0.16" points="670.24,-28.79 678.77,-22.51 668.19,-22.1 670.24,-28.79"/>
</g>
<!-- &#45;7&#45;&gt;3 -->
<g id="edge35" class="edge">
<title>&#45;7&#45;&gt;3</title>
<path fill="none" stroke="green" stroke-width="0.15" d="M147.74,-83.95C151.7,-78.7 157.49,-72.22 164.18,-68.53 245.28,-23.7 358.55,-17.32 409.5,-16.9"/>
<polygon fill="green" stroke="green" stroke-width="0.15" points="409.67,-20.4 419.67,-16.89 409.66,-13.4 409.67,-20.4"/>
</g>
<!-- &#45;7&#45;&gt;4 -->
<g id="edge49" class="edge">
<title>&#45;7&#45;&gt;4</title>
<path fill="none" stroke="green" stroke-width="0.21" d="M147.32,-84.27C151.25,-78.87 157.17,-72.11 164.18,-68.53 282.6,-8.06 335.2,-75.08 461.18,-32.53 462.43,-32.1 463.69,-31.61 464.95,-31.08"/>
<polygon fill="green" stroke="green" stroke-width="0.21" points="466.92,-34 474.19,-26.29 463.7,-27.78 466.92,-34"/>
</g>
<!-- &#45;8 -->
<g id="node8" class="node">
<title>&#45;8</title>
<polygon fill="lightgray" stroke="black" points="795.18,-102.28 769.18,-102.28 769.18,-84.28 795.18,-84.28 795.18,-102.28"/>
<text text-anchor="middle" x="782.18" y="-91.08" font-family="Times,serif" font-size="9.00">&#45;8</text>
</g>
<!-- &#45;8&#45;&gt;0 -->
<g id="edge77" class="edge">
<title>&#45;8&#45;&gt;0</title>
<path fill="none" stroke="red" stroke-width="0.32" d="M776.06,-83.83C772.03,-78.79 766.38,-72.6 760.18,-68.53 740.08,-55.31 676.42,-35.3 640.49,-24.61"/>
<polygon fill="red" stroke="red" stroke-width="0.32" points="641.32,-21.2 630.73,-21.73 639.34,-27.91 641.32,-21.2"/>
</g>
<!-- &#45;8&#45;&gt;1 -->
<g id="edge6" class="edge">
<title>&#45;8&#45;&gt;1</title>
<path fill="none" stroke="green" stroke-width="0.41" d="M775.16,-84.05C770.98,-79.33 765.48,-73.39 760.18,-68.53 745.88,-55.42 728.51,-42.02 715.18,-32.21"/>
<polygon fill="green" stroke="green" stroke-width="0.41" points="717.23,-29.37 707.08,-26.32 713.11,-35.03 717.23,-29.37"/>
</g>
<!-- &#45;8&#45;&gt;2 -->
<g id="edge34" class="edge">
<title>&#45;8&#45;&gt;2</title>
<path fill="none" stroke="green" stroke-width="0.82" d="M778.22,-84.25C773.08,-73.83 763.9,-55.22 756.52,-40.25"/>
<polygon fill="green" stroke="green" stroke-width="0.82" points="759.55,-38.49 751.99,-31.07 753.27,-41.58 759.55,-38.49"/>
</g>
<!-- &#45;8&#45;&gt;3 -->
<g id="edge68" class="edge">
<title>&#45;8&#45;&gt;3</title>
<path fill="none" stroke="green" stroke-width="0.54" d="M777.04,-84.27C773.11,-78.87 767.19,-72.1 760.18,-68.53 641.35,-7.88 588.58,-75.19 462.18,-32.53 460.92,-32.1 459.66,-31.61 458.41,-31.08"/>
<polygon fill="green" stroke="green" stroke-width="0.54" points="459.66,-27.78 449.17,-26.29 456.44,-34 459.66,-27.78"/>
</g>
<!-- &#45;8&#45;&gt;4 -->
<g id="edge97" class="edge">
<title>&#45;8&#45;&gt;4</title>
<path fill="none" stroke="green" stroke-width="0.13" d="M776.62,-83.95C772.66,-78.69 766.87,-72.22 760.18,-68.53 738.63,-56.63 577.78,-31.1 513.55,-21.25"/>
<polygon fill="green" stroke="green" stroke-width="0.13" points="513.83,-17.75 503.42,-19.7 512.78,-24.67 513.83,-17.75"/>
</g>
<!-- &#45;9 -->
<g id="node9" class="node">
<title>&#45;9</title>
<polygon fill="lightgray" stroke="black" points="839.18,-102.28 813.18,-102.28 813.18,-84.28 839.18,-84.28 839.18,-102.28"/>
<text text-anchor="middle" x="826.18" y="-91.08" font-family="Times,serif" font-size="9.00">&#45;9</text>
</g>
<!-- &#45;9&#45;&gt;0 -->
<g id="edge91" class="edge">
<title>&#45;9&#45;&gt;0</title>
<path fill="none" stroke="green" stroke-width="0.32" d="M820.52,-84.11C816.53,-78.93 810.73,-72.47 804.18,-68.53 750.98,-36.49 729.06,-48.97 669.18,-32.53 659.86,-29.97 649.66,-27.1 640.65,-24.55"/>
<polygon fill="green" stroke="green" stroke-width="0.32" points="641.33,-21.1 630.76,-21.73 639.42,-27.84 641.33,-21.1"/>
</g>
<!-- &#45;9&#45;&gt;1 -->
<g id="edge65" class="edge">
<title>&#45;9&#45;&gt;1</title>
<path fill="none" stroke="red" stroke-width="0.27" d="M819.96,-83.97C815.9,-78.98 810.24,-72.8 804.18,-68.53 770.99,-45.12 756.43,-50.84 720.18,-32.53 719.02,-31.94 717.85,-31.33 716.67,-30.7"/>
<polygon fill="red" stroke="red" stroke-width="0.27" points="718.19,-27.54 707.76,-25.67 714.75,-33.63 718.19,-27.54"/>
</g>
<!-- &#45;9&#45;&gt;2 -->
<g id="edge52" class="edge">
<title>&#45;9&#45;&gt;2</title>
<path fill="none" stroke="red" stroke-width="0.51" d="M819.05,-84.16C814.85,-79.47 809.35,-73.53 804.18,-68.53 791.79,-56.52 777.15,-43.8 765.56,-34.03"/>
<polygon fill="red" stroke="red" stroke-width="0.51" points="767.65,-31.21 757.73,-27.49 763.16,-36.59 767.65,-31.21"/>
</g>
<!-- &#45;9&#45;&gt;3 -->
<g id="edge20" class="edge">
<title>&#45;9&#45;&gt;3</title>
<path fill="none" stroke="green" stroke-width="0.55" d="M821.05,-84.24C817.13,-78.82 811.21,-72.05 804.18,-68.53 667.51,-0.09 607.36,-80.29 462.18,-32.53 460.92,-32.11 459.66,-31.63 458.4,-31.1"/>
<polygon fill="green" stroke="green" stroke-width="0.55" points="459.65,-27.8 449.15,-26.34 456.44,-34.03 459.65,-27.8"/>
</g>
<!-- &#45;9&#45;&gt;4 -->
<g id="edge70" class="edge">
<title>&#45;9&#45;&gt;4</title>
<path fill="none" stroke="red" stroke-width="0.18" d="M820.65,-83.89C816.7,-78.61 810.92,-72.14 804.18,-68.53 797.72,-65.07 588.22,-32.74 513.41,-21.27"/>
<polygon fill="red" stroke="red" stroke-width="0.18" points="513.8,-17.79 503.38,-19.74 512.74,-24.71 513.8,-17.79"/>
</g>
<!-- &#45;10 -->
<g id="node10" class="node">
<title>&#45;10</title>
<polygon fill="lightgray" stroke="black" points="205.18,-102.28 173.18,-102.28 173.18,-84.28 205.18,-84.28 205.18,-102.28"/>
<text text-anchor="middle" x="189.18" y="-91.08" font-family="Times,serif" font-size="9.00">&#45;10</text>
</g>
<!-- &#45;10&#45;&gt;0 -->
<g id="edge36" class="edge">
<title>&#45;10&#45;&gt;0</title>
<path fill="none" stroke="green" stroke-width="0.2" d="M195.26,-84.27C199.83,-78.86 206.6,-72.1 214.18,-68.53 334.88,-11.71 379.96,-50.31 512.18,-32.53 538.42,-29 568.35,-24.51 589.16,-21.32"/>
<polygon fill="green" stroke="green" stroke-width="0.2" points="589.79,-24.76 599.14,-19.78 588.72,-17.84 589.79,-24.76"/>
</g>
<!-- &#45;10&#45;&gt;2 -->
<g id="edge78" class="edge">
<title>&#45;10&#45;&gt;2</title>
<path fill="none" stroke="green" stroke-width="0.36" d="M195.2,-84.15C199.75,-78.69 206.51,-71.91 214.18,-68.53 420.05,22.29 504.28,-99.24 719.18,-32.53 720.44,-32.13 721.71,-31.67 722.97,-31.15"/>
<polygon fill="green" stroke="green" stroke-width="0.36" points="724.91,-34.09 732.23,-26.43 721.74,-27.85 724.91,-34.09"/>
</g>
<!-- &#45;10&#45;&gt;3 -->
<g id="edge9" class="edge">
<title>&#45;10&#45;&gt;3</title>
<path fill="none" stroke="green" stroke-width="0.44" d="M195.78,-84.05C200.4,-78.84 207.01,-72.38 214.18,-68.53 278.89,-33.73 366.58,-22.44 409.83,-18.86"/>
<polygon fill="green" stroke="green" stroke-width="0.44" points="410.11,-22.35 419.82,-18.11 409.59,-15.37 410.11,-22.35"/>
</g>
<!-- &#45;10&#45;&gt;4 -->
<g id="edge61" class="edge">
<title>&#45;10&#45;&gt;4</title>
<path fill="none" stroke="green" stroke-width="0.35" d="M195.68,-83.86C200.26,-78.56 206.86,-72.08 214.18,-68.53 313.96,-20.05 356.51,-69.29 461.18,-32.53 462.43,-32.09 463.69,-31.59 464.94,-31.04"/>
<polygon fill="green" stroke="green" stroke-width="0.35" points="466.92,-33.95 474.17,-26.22 463.68,-27.75 466.92,-33.95"/>
</g>
<!-- &#45;11 -->
<g id="node11" class="node">
<title>&#45;11</title>
<polygon fill="lightgray" stroke="black" points="889.18,-102.28 857.18,-102.28 857.18,-84.28 889.18,-84.28 889.18,-102.28"/>
<text text-anchor="middle" x="873.18" y="-91.08" font-family="Times,serif" font-size="9.00">&#45;11</text>
</g>
<!-- &#45;11&#45;&gt;0 -->
<g id="edge80" class="edge">
<title>&#45;11&#45;&gt;0</title>
<path fill="none" stroke="green" stroke-width="0.34" d="M866.61,-83.99C862.01,-78.75 855.4,-72.28 848.18,-68.53 776.17,-31.12 748.06,-51.58 669.18,-32.53 659.79,-30.26 649.56,-27.46 640.57,-24.87"/>
<polygon fill="green" stroke="green" stroke-width="0.34" points="641.27,-21.43 630.69,-21.99 639.31,-28.15 641.27,-21.43"/>
</g>
<!-- &#45;11&#45;&gt;1 -->
<g id="edge50" class="edge">
<title>&#45;11&#45;&gt;1</title>
<path fill="none" stroke="red" stroke-width="0.38" d="M866.51,-84.17C861.87,-79 855.26,-72.55 848.18,-68.53 796.8,-39.32 774.55,-55.68 720.18,-32.53 718.96,-32.01 717.73,-31.44 716.5,-30.84"/>
<polygon fill="red" stroke="red" stroke-width="0.38" points="717.79,-27.56 707.33,-25.87 714.45,-33.71 717.79,-27.56"/>
</g>
<!-- &#45;11&#45;&gt;2 -->
<g id="edge18" class="edge">
<title>&#45;11&#45;&gt;2</title>
<path fill="none" stroke="green" stroke-width="0.22" d="M865.82,-84.15C861.1,-79.23 854.65,-73.06 848.18,-68.53 823.18,-51.02 791.32,-36.15 769.71,-27.01"/>
<polygon fill="green" stroke="green" stroke-width="0.22" points="770.85,-23.69 760.28,-23.1 768.18,-30.16 770.85,-23.69"/>
</g>
<!-- &#45;11&#45;&gt;3 -->
<g id="edge90" class="edge">
<title>&#45;11&#45;&gt;3</title>
<path fill="none" stroke="red" stroke-width="0.18" stroke-dasharray="1,5" d="M867.13,-84.2C862.57,-78.77 855.81,-71.99 848.18,-68.53 691.3,2.73 626.16,-85.4 462.18,-32.53 460.92,-32.12 459.65,-31.64 458.39,-31.12"/>
<polygon fill="red" stroke="red" stroke-width="0.18" points="459.64,-27.82 449.14,-26.37 456.44,-34.05 459.64,-27.82"/>
</g>
<!-- &#45;11&#45;&gt;4 -->
<g id="edge62" class="edge">
<title>&#45;11&#45;&gt;4</title>
<path fill="none" stroke="green" stroke-width="1.03" d="M866.68,-83.84C862.11,-78.54 855.51,-72.06 848.18,-68.53 743.89,-18.25 704.78,-49.01 590.18,-32.53 563.97,-28.76 534.04,-24.3 513.22,-21.18"/>
<polygon fill="green" stroke="green" stroke-width="1.03" points="513.64,-17.71 503.23,-19.69 512.6,-24.63 513.64,-17.71"/>
</g>
<!-- &#45;12 -->
<g id="node12" class="node">
<title>&#45;12</title>
<polygon fill="lightgray" stroke="black" points="543.18,-102.28 511.18,-102.28 511.18,-84.28 543.18,-84.28 543.18,-102.28"/>
<text text-anchor="middle" x="527.18" y="-91.08" font-family="Times,serif" font-size="9.00">&#45;12</text>
</g>
<!-- &#45;12&#45;&gt;1 -->
<g id="edge60" class="edge">
<title>&#45;12&#45;&gt;1</title>
<path fill="none" stroke="green" stroke-width="0.11" d="M534.36,-83.88C539.02,-78.86 545.45,-72.68 552.18,-68.53 572.17,-56.18 633.82,-35.98 668.96,-24.99"/>
<polygon fill="green" stroke="green" stroke-width="0.11" points="670.02,-28.32 678.53,-22.02 667.94,-21.64 670.02,-28.32"/>
</g>
<!-- &#45;12&#45;&gt;2 -->
<g id="edge88" class="edge">
<title>&#45;12&#45;&gt;2</title>
<path fill="none" stroke="green" stroke-width="0.28" d="M533.76,-84.02C538.37,-78.79 544.98,-72.33 552.18,-68.53 619.31,-33.06 648.43,-60.1 719.18,-32.53 720.41,-32.05 721.66,-31.51 722.9,-30.94"/>
<polygon fill="green" stroke="green" stroke-width="0.28" points="724.92,-33.83 732.1,-26.04 721.62,-27.65 724.92,-33.83"/>
</g>
<!-- &#45;12&#45;&gt;3 -->
<g id="edge17" class="edge">
<title>&#45;12&#45;&gt;3</title>
<path fill="none" stroke="green" stroke-width="0.39" d="M519.04,-84.15C514.24,-79.46 507.99,-73.52 502.18,-68.53 487.56,-55.96 470.33,-42.62 457.14,-32.71"/>
<polygon fill="green" stroke="green" stroke-width="0.39" points="459.24,-29.9 449.13,-26.73 455.05,-35.51 459.24,-29.9"/>
</g>
<!-- &#45;12&#45;&gt;4 -->
<g id="edge7" class="edge">
<title>&#45;12&#45;&gt;4</title>
<path fill="none" stroke="red" stroke-width="0.58" d="M522.9,-84.25C517.34,-73.83 507.42,-55.22 499.44,-40.25"/>
<polygon fill="red" stroke="red" stroke-width="0.58" points="502.33,-38.24 494.54,-31.07 496.16,-41.54 502.33,-38.24"/>
</g>
<!-- &#45;13 -->
<g id="node13" class="node">
<title>&#45;13</title>
<polygon fill="lightgray" stroke="black" points="255.18,-102.28 223.18,-102.28 223.18,-84.28 255.18,-84.28 255.18,-102.28"/>
<text text-anchor="middle" x="239.18" y="-91.08" font-family="Times,serif" font-size="9.00">&#45;13</text>
</g>
<!-- &#45;13&#45;&gt;0 -->
<g id="edge76" class="edge">
<title>&#45;13&#45;&gt;0</title>
<path fill="none" stroke="red" stroke-width="0.2" d="M245.68,-83.86C250.26,-78.56 256.85,-72.08 264.18,-68.53 364.37,-19.89 401.98,-48.69 512.18,-32.53 538.38,-28.68 568.31,-24.24 589.13,-21.14"/>
<polygon fill="red" stroke="red" stroke-width="0.2" points="589.75,-24.59 599.12,-19.66 588.72,-17.67 589.75,-24.59"/>
</g>
<!-- &#45;13&#45;&gt;1 -->
<g id="edge44" class="edge">
<title>&#45;13&#45;&gt;1</title>
<path fill="none" stroke="red" stroke-width="0.28" d="M245.23,-84.21C249.79,-78.78 256.55,-72 264.18,-68.53 416.94,1.09 475.18,-63.48 640.18,-32.53 649.68,-30.75 659.92,-28.05 668.91,-25.42"/>
<polygon fill="red" stroke="red" stroke-width="0.28" points="670.21,-28.68 678.76,-22.42 668.17,-21.99 670.21,-28.68"/>
</g>
<!-- &#45;13&#45;&gt;2 -->
<g id="edge33" class="edge">
<title>&#45;13&#45;&gt;2</title>
<path fill="none" stroke="red" stroke-width="0.19" d="M245.21,-84.17C249.76,-78.72 256.52,-71.94 264.18,-68.53 449.46,14.07 525.68,-93.42 719.18,-32.53 720.44,-32.13 721.71,-31.66 722.97,-31.14"/>
<polygon fill="red" stroke="red" stroke-width="0.19" points="724.91,-34.08 732.23,-26.41 721.73,-27.84 724.91,-34.08"/>
</g>
<!-- &#45;13&#45;&gt;3 -->
<g id="edge5" class="edge">
<title>&#45;13&#45;&gt;3</title>
<path fill="none" stroke="red" stroke-width="0.49" d="M245.86,-84.2C250.52,-79.05 257.13,-72.61 264.18,-68.53 311.59,-41.08 375,-27.16 410.08,-21.12"/>
<polygon fill="red" stroke="red" stroke-width="0.49" points="410.7,-24.57 420.01,-19.5 409.57,-17.66 410.7,-24.57"/>
</g>
<!-- &#45;13&#45;&gt;4 -->
<g id="edge96" class="edge">
<title>&#45;13&#45;&gt;4</title>
<path fill="none" stroke="red" stroke-width="0.86" d="M245.72,-83.94C250.32,-78.69 256.92,-72.22 264.18,-68.53 343.52,-28.2 377.75,-63.53 461.18,-32.53 462.42,-32.07 463.67,-31.55 464.92,-30.98"/>
<polygon fill="red" stroke="red" stroke-width="0.86" points="466.92,-33.89 474.13,-26.12 463.65,-27.69 466.92,-33.89"/>
</g>
<!-- &#45;14 -->
<g id="node14" class="node">
<title>&#45;14</title>
<polygon fill="lightgray" stroke="black" points="1131.18,-102.28 1099.18,-102.28 1099.18,-84.28 1131.18,-84.28 1131.18,-102.28"/>
<text text-anchor="middle" x="1115.18" y="-91.08" font-family="Times,serif" font-size="9.00">&#45;14</text>
</g>
<!-- &#45;14&#45;&gt;0 -->
<g id="edge16" class="edge">
<title>&#45;14&#45;&gt;0</title>
<path fill="none" stroke="green" stroke-width="0.28" d="M1098.97,-84.79C1086.46,-79.36 1068.58,-72.32 1052.18,-68.53 885.6,-30.03 837.25,-63.91 669.18,-32.53 659.68,-30.75 649.43,-28.06 640.45,-25.43"/>
<polygon fill="green" stroke="green" stroke-width="0.28" points="641.18,-22 630.6,-22.43 639.14,-28.69 641.18,-22"/>
</g>
<!-- &#45;14&#45;&gt;1 -->
<g id="edge48" class="edge">
<title>&#45;14&#45;&gt;1</title>
<path fill="none" stroke="green" stroke-width="0.49" d="M1107.59,-84.21C1101.96,-78.79 1093.8,-72.01 1085.18,-68.53 934.04,-7.46 875.19,-82.96 720.18,-32.53 718.92,-32.12 717.65,-31.64 716.4,-31.11"/>
<polygon fill="green" stroke="green" stroke-width="0.49" points="717.64,-27.81 707.15,-26.36 714.44,-34.04 717.64,-27.81"/>
</g>
<!-- &#45;14&#45;&gt;2 -->
<g id="edge58" class="edge">
<title>&#45;14&#45;&gt;2</title>
<path fill="none" stroke="green" stroke-width="0.25" d="M1107.05,-83.88C1101.41,-78.6 1093.47,-72.12 1085.18,-68.53 976.12,-21.18 830.97,-16.47 771.89,-16.72"/>
<polygon fill="green" stroke="green" stroke-width="0.25" points="771.54,-13.22 761.57,-16.82 771.6,-20.22 771.54,-13.22"/>
</g>
<!-- &#45;15 -->
<g id="node15" class="node">
<title>&#45;15</title>
<polygon fill="lightgray" stroke="black" points="305.18,-102.28 273.18,-102.28 273.18,-84.28 305.18,-84.28 305.18,-102.28"/>
<text text-anchor="middle" x="289.18" y="-91.08" font-family="Times,serif" font-size="9.00">&#45;15</text>
</g>
<!-- &#45;15&#45;&gt;0 -->
<g id="edge67" class="edge">
<title>&#45;15&#45;&gt;0</title>
<path fill="none" stroke="green" stroke-width="0.16" d="M295.71,-83.92C300.3,-78.65 306.9,-72.17 314.18,-68.53 326.52,-62.35 518.07,-32.28 589.01,-21.29"/>
<polygon fill="green" stroke="green" stroke-width="0.16" points="589.6,-24.75 598.95,-19.76 588.53,-17.83 589.6,-24.75"/>
</g>
<!-- &#45;15&#45;&gt;1 -->
<g id="edge32" class="edge">
<title>&#45;15&#45;&gt;1</title>
<path fill="none" stroke="red" stroke-width="0.38" d="M295.24,-84.24C299.81,-78.83 306.58,-72.06 314.18,-68.53 446.38,-7.12 497.11,-60.45 640.18,-32.53 649.66,-30.68 659.9,-27.97 668.89,-25.35"/>
<polygon fill="red" stroke="red" stroke-width="0.38" points="670.19,-28.61 678.75,-22.36 668.16,-21.91 670.19,-28.61"/>
</g>
<!-- &#45;15&#45;&gt;2 -->
<g id="edge3" class="edge">
<title>&#45;15&#45;&gt;2</title>
<path fill="none" stroke="green" stroke-width="0.29" d="M295.22,-84.19C299.78,-78.76 306.54,-71.98 314.18,-68.53 478.87,5.85 547.07,-87.61 719.18,-32.53 720.44,-32.12 721.71,-31.65 722.96,-31.12"/>
<polygon fill="green" stroke="green" stroke-width="0.29" points="724.92,-34.06 732.22,-26.38 721.72,-27.83 724.92,-34.06"/>
</g>
<!-- &#45;15&#45;&gt;3 -->
<g id="edge74" class="edge">
<title>&#45;15&#45;&gt;3</title>
<path fill="none" stroke="green" stroke-width="0.56" d="M296.44,-84C301.12,-79.03 307.56,-72.85 314.18,-68.53 345.11,-48.31 385.33,-33.26 410.96,-24.87"/>
<polygon fill="green" stroke="green" stroke-width="0.56" points="412.19,-28.15 420.66,-21.78 410.07,-21.48 412.19,-28.15"/>
</g>
<!-- &#45;15&#45;&gt;4 -->
<g id="edge85" class="edge">
<title>&#45;15&#45;&gt;4</title>
<path fill="none" stroke="red" stroke-width="0.12" d="M295.8,-84.09C300.42,-78.89 307.03,-72.43 314.18,-68.53 373.21,-36.28 398.85,-57.82 461.18,-32.53 462.41,-32.03 463.65,-31.48 464.88,-30.9"/>
<polygon fill="red" stroke="red" stroke-width="0.12" points="466.91,-33.78 474.07,-25.96 463.6,-27.61 466.91,-33.78"/>
</g>
<!-- &#45;16 -->
<g id="node16" class="node">
<title>&#45;16</title>
<polygon fill="lightgray" stroke="black" points="834.18,-172.02 802.18,-172.02 802.18,-154.02 834.18,-154.02 834.18,-172.02"/>
<text text-anchor="middle" x="818.18" y="-160.82" font-family="Times,serif" font-size="9.00">&#45;16</text>
</g>
<!-- &#45;16&#45;&gt;0 -->
<g id="edge11" class="edge">
<title>&#45;16&#45;&gt;0</title>
<path fill="none" stroke="red" stroke-width="0.33" d="M802.16,-160.22C762.68,-155.44 662.23,-141.25 639.18,-118.02 619.58,-98.28 614.9,-65.61 614.27,-42.84"/>
<polygon fill="red" stroke="red" stroke-width="0.33" points="617.77,-42.55 614.24,-32.56 610.77,-42.57 617.77,-42.55"/>
</g>
<!-- &#45;16&#45;&gt;1 -->
<g id="edge40" class="edge">
<title>&#45;16&#45;&gt;1</title>
<path fill="none" stroke="red" stroke-width="0.47" d="M834.4,-161.55C882.76,-159.75 1024.27,-151.67 1052.18,-118.02 1066.22,-101.09 1066.87,-84.9 1052.18,-68.53 1002.61,-13.3 790.63,-55.83 720.18,-32.53 718.92,-32.11 717.66,-31.63 716.4,-31.1"/>
<polygon fill="red" stroke="red" stroke-width="0.47" points="717.65,-27.8 707.16,-26.33 714.44,-34.02 717.65,-27.8"/>
</g>
<!-- &#45;16&#45;&gt;2 -->
<g id="edge73" class="edge">
<title>&#45;16&#45;&gt;2</title>
<path fill="none" stroke="green" stroke-width="0.12" d="M834.28,-161.05C896.63,-157.1 1119.77,-141.41 1140.18,-118.02 1154.64,-101.45 1154.7,-85.05 1140.18,-68.53 1115.75,-40.72 855.86,-23.57 771.48,-18.7"/>
<polygon fill="green" stroke="green" stroke-width="0.12" points="771.61,-15.2 761.43,-18.13 771.21,-22.19 771.61,-15.2"/>
</g>
<!-- &#45;16&#45;&gt;3 -->
<g id="edge2" class="edge">
<title>&#45;16&#45;&gt;3</title>
<path fill="none" stroke="green" stroke-width="0.47" d="M801.95,-161.77C690.29,-159.91 39.4,-147.82 11.18,-118.02 -3.95,-102.05 -3.42,-84.99 11.18,-68.53 37.74,-38.57 320.78,-22.72 409.64,-18.46"/>
<polygon fill="green" stroke="green" stroke-width="0.47" points="409.89,-21.95 419.71,-17.98 409.56,-14.96 409.89,-21.95"/>
</g>
<!-- &#45;16&#45;&gt;4 -->
<g id="edge31" class="edge">
<title>&#45;16&#45;&gt;4</title>
<path fill="none" stroke="green" stroke-width="0.54" d="M802.15,-161.68C697.29,-159.32 112.56,-144.98 87.18,-118.02 72.1,-102.01 72.39,-84.81 87.18,-68.53 143.32,-6.72 381.75,-58.27 461.18,-32.53 462.44,-32.12 463.7,-31.64 464.96,-31.11"/>
<polygon fill="green" stroke="green" stroke-width="0.54" points="466.92,-34.04 474.21,-26.36 463.72,-27.82 466.92,-34.04"/>
</g>
<!-- 37 -->
<g id="node26" class="node">
<title>37</title>
<ellipse fill="white" stroke="black" cx="1022.18" cy="-93.28" rx="20.51" ry="20.51"/>
<text text-anchor="middle" x="1022.18" y="-91.08" font-family="Times,serif" font-size="9.00">37</text>
</g>
<!-- &#45;16&#45;&gt;37 -->
<g id="edge46" class="edge">
<title>&#45;16&#45;&gt;37</title>
<path fill="none" stroke="green" stroke-width="0.45" d="M834.32,-160.24C866,-156.26 937.98,-144.79 992.18,-118.02 994.52,-116.87 996.86,-115.5 999.13,-114.02"/>
<polygon fill="green" stroke="green" stroke-width="0.45" points="1001.44,-116.67 1007.46,-107.94 997.32,-111.01 1001.44,-116.67"/>
</g>
<!-- &#45;17 -->
<g id="node17" class="node">
<title>&#45;17</title>
<polygon fill="lightgray" stroke="black" points="355.18,-102.28 323.18,-102.28 323.18,-84.28 355.18,-84.28 355.18,-102.28"/>
<text text-anchor="middle" x="339.18" y="-91.08" font-family="Times,serif" font-size="9.00">&#45;17</text>
</g>
<!-- &#45;17&#45;&gt;0 -->
<g id="edge27" class="edge">
<title>&#45;17&#45;&gt;0</title>
<path fill="none" stroke="red" stroke-width="0.11" d="M345.75,-83.99C350.35,-78.76 356.96,-72.29 364.18,-68.53 384.09,-58.15 528.76,-32.25 588.98,-21.77"/>
<polygon fill="red" stroke="red" stroke-width="0.11" points="589.94,-25.15 599.2,-20 588.75,-18.26 589.94,-25.15"/>
</g>
<!-- &#45;17&#45;&gt;1 -->
<g id="edge79" class="edge">
<title>&#45;17&#45;&gt;1</title>
<path fill="none" stroke="red" stroke-width="0.61" d="M345.66,-83.82C350.23,-78.51 356.83,-72.03 364.18,-68.53 475.85,-15.31 519,-57.42 640.18,-32.53 649.64,-30.58 659.88,-27.85 668.87,-25.24"/>
<polygon fill="red" stroke="red" stroke-width="0.61" points="670.16,-28.51 678.73,-22.28 668.15,-21.8 670.16,-28.51"/>
</g>
<!-- &#45;17&#45;&gt;2 -->
<g id="edge87" class="edge">
<title>&#45;17&#45;&gt;2</title>
<path fill="none" stroke="green" stroke-width="0.59" d="M345.23,-84.22C349.8,-78.8 356.56,-72.02 364.18,-68.53 508.3,-2.36 568.44,-81.8 719.18,-32.53 720.44,-32.12 721.7,-31.64 722.96,-31.11"/>
<polygon fill="green" stroke="green" stroke-width="0.59" points="724.92,-34.03 732.21,-26.35 721.71,-27.81 724.92,-34.03"/>
</g>
<!-- &#45;17&#45;&gt;3 -->
<g id="edge59" class="edge">
<title>&#45;17&#45;&gt;3</title>
<path fill="none" stroke="green" stroke-width="0.89" d="M347.24,-84.06C352.01,-79.34 358.26,-73.4 364.18,-68.53 380.36,-55.19 399.78,-41.49 414.37,-31.61"/>
<polygon fill="green" stroke="green" stroke-width="0.89" points="416.4,-34.46 422.76,-25.99 412.5,-28.65 416.4,-34.46"/>
</g>
<!-- &#45;17&#45;&gt;4 -->
<g id="edge28" class="edge">
<title>&#45;17&#45;&gt;4</title>
<path fill="none" stroke="green" stroke-width="0.13" d="M346.37,-83.9C351.04,-78.89 357.47,-72.71 364.18,-68.53 403.2,-44.2 419.64,-52.24 461.18,-32.53 462.35,-31.97 463.54,-31.38 464.73,-30.77"/>
<polygon fill="green" stroke="green" stroke-width="0.13" points="466.62,-33.72 473.66,-25.8 463.22,-27.6 466.62,-33.72"/>
</g>
<!-- &#45;18 -->
<g id="node18" class="node">
<title>&#45;18</title>
<polygon fill="lightgray" stroke="black" points="939.18,-102.28 907.18,-102.28 907.18,-84.28 939.18,-84.28 939.18,-102.28"/>
<text text-anchor="middle" x="923.18" y="-91.08" font-family="Times,serif" font-size="9.00">&#45;18</text>
</g>
<!-- &#45;18&#45;&gt;0 -->
<g id="edge75" class="edge">
<title>&#45;18&#45;&gt;0</title>
<path fill="none" stroke="red" stroke-width="0.54" d="M916.66,-83.89C912.08,-78.6 905.48,-72.13 898.18,-68.53 805.76,-22.99 769.82,-54.58 669.18,-32.53 659.74,-30.46 649.51,-27.7 640.52,-25.1"/>
<polygon fill="red" stroke="red" stroke-width="0.54" points="641.23,-21.66 630.65,-22.17 639.24,-28.37 641.23,-21.66"/>
</g>
<!-- &#45;18&#45;&gt;1 -->
<g id="edge4" class="edge">
<title>&#45;18&#45;&gt;1</title>
<path fill="none" stroke="red" stroke-width="0.19" d="M916.61,-83.99C912.01,-78.75 905.4,-72.28 898.18,-68.53 826.57,-31.28 795.57,-61.35 720.18,-32.53 718.94,-32.05 717.69,-31.52 716.45,-30.96"/>
<polygon fill="red" stroke="red" stroke-width="0.19" points="717.72,-27.67 707.25,-26.07 714.44,-33.85 717.72,-27.67"/>
</g>
<!-- &#45;18&#45;&gt;2 -->
<g id="edge12" class="edge">
<title>&#45;18&#45;&gt;2</title>
<path fill="none" stroke="green" stroke-width="0.64" d="M916.03,-83.82C911.39,-78.79 904.95,-72.6 898.18,-68.53 857.2,-43.88 802.84,-29.31 771.17,-22.34"/>
<polygon fill="green" stroke="green" stroke-width="0.64" points="771.86,-18.9 761.35,-20.26 770.41,-25.75 771.86,-18.9"/>
</g>
<!-- &#45;18&#45;&gt;3 -->
<g id="edge43" class="edge">
<title>&#45;18&#45;&gt;3</title>
<path fill="none" stroke="green" stroke-width="0.68" d="M917.14,-84.18C912.59,-78.73 905.83,-71.95 898.18,-68.53 720.72,10.94 647.55,-91.21 462.18,-32.53 460.92,-32.13 459.65,-31.66 458.39,-31.13"/>
<polygon fill="green" stroke="green" stroke-width="0.68" points="459.63,-27.84 449.13,-26.4 456.44,-34.07 459.63,-27.84"/>
</g>
<!-- &#45;19 -->
<g id="node19" class="node">
<title>&#45;19</title>
<polygon fill="lightgray" stroke="black" points="405.18,-102.28 373.18,-102.28 373.18,-84.28 405.18,-84.28 405.18,-102.28"/>
<text text-anchor="middle" x="389.18" y="-91.08" font-family="Times,serif" font-size="9.00">&#45;19</text>
</g>
<!-- &#45;19&#45;&gt;0 -->
<g id="edge15" class="edge">
<title>&#45;19&#45;&gt;0</title>
<path fill="none" stroke="red" stroke-width="0.2" d="M395.81,-84.11C400.44,-78.92 407.05,-72.46 414.18,-68.53 471.64,-36.78 549.18,-24.25 589.07,-19.67"/>
<polygon fill="red" stroke="red" stroke-width="0.2" points="589.48,-23.15 599.05,-18.6 588.74,-16.19 589.48,-23.15"/>
</g>
<!-- &#45;19&#45;&gt;1 -->
<g id="edge86" class="edge">
<title>&#45;19&#45;&gt;1</title>
<path fill="none" stroke="red" stroke-width="0.43" d="M395.7,-83.89C400.28,-78.61 406.88,-72.13 414.18,-68.53 505.37,-23.48 540.85,-54.4 640.18,-32.53 649.62,-30.45 659.85,-27.69 668.84,-25.09"/>
<polygon fill="red" stroke="red" stroke-width="0.43" points="670.11,-28.36 678.7,-22.16 668.12,-21.65 670.11,-28.36"/>
</g>
<!-- &#45;19&#45;&gt;2 -->
<g id="edge57" class="edge">
<title>&#45;19&#45;&gt;2</title>
<path fill="none" stroke="green" stroke-width="0.63" d="M395.25,-84.26C399.83,-78.86 406.59,-72.09 414.18,-68.53 537.75,-10.56 589.79,-76 719.18,-32.53 720.43,-32.1 721.7,-31.62 722.95,-31.08"/>
<polygon fill="green" stroke="green" stroke-width="0.63" points="724.92,-34 732.19,-26.3 721.7,-27.79 724.92,-34"/>
</g>
<!-- &#45;19&#45;&gt;3 -->
<g id="edge25" class="edge">
<title>&#45;19&#45;&gt;3</title>
<path fill="none" stroke="red" stroke-width="0.33" d="M394.21,-84.25C400.88,-73.61 412.9,-54.41 422.38,-39.29"/>
<polygon fill="red" stroke="red" stroke-width="0.33" points="425.53,-40.84 427.88,-30.51 419.6,-37.13 425.53,-40.84"/>
</g>
<!-- &#45;19&#45;&gt;4 -->
<g id="edge95" class="edge">
<title>&#45;19&#45;&gt;4</title>
<path fill="none" stroke="green" stroke-width="0.79" d="M397.23,-84.04C402,-79.32 408.25,-73.38 414.18,-68.53 430.65,-55.04 450.48,-41.26 465.32,-31.38"/>
<polygon fill="green" stroke="green" stroke-width="0.79" points="467.4,-34.2 473.83,-25.78 463.55,-28.35 467.4,-34.2"/>
</g>
<!-- &#45;20 -->
<g id="node20" class="node">
<title>&#45;20</title>
<polygon fill="lightgray" stroke="black" points="1029.18,-172.02 997.18,-172.02 997.18,-154.02 1029.18,-154.02 1029.18,-172.02"/>
<text text-anchor="middle" x="1013.18" y="-160.82" font-family="Times,serif" font-size="9.00">&#45;20</text>
</g>
<!-- &#45;20&#45;&gt;0 -->
<g id="edge66" class="edge">
<title>&#45;20&#45;&gt;0</title>
<path fill="none" stroke="red" stroke-width="0.18" d="M996.9,-160.78C932.73,-155.76 699.48,-136.39 672.18,-118.02 664.94,-113.16 641.32,-68.59 626.86,-40.38"/>
<polygon fill="red" stroke="red" stroke-width="0.18" points="629.83,-38.49 622.17,-31.17 623.59,-41.67 629.83,-38.49"/>
</g>
<!-- &#45;20&#45;&gt;1 -->
<g id="edge94" class="edge">
<title>&#45;20&#45;&gt;1</title>
<path fill="none" stroke="red" stroke-width="0.46" d="M1029.47,-161.94C1057.57,-160.81 1114.6,-153.95 1140.18,-118.02 1152.94,-100.1 1155.05,-84.73 1140.18,-68.53 1076.83,0.48 809.44,-60.94 720.18,-32.53 718.92,-32.13 717.65,-31.65 716.39,-31.13"/>
<polygon fill="red" stroke="red" stroke-width="0.46" points="717.63,-27.83 707.14,-26.39 714.44,-34.06 717.63,-27.83"/>
</g>
<!-- &#45;20&#45;&gt;2 -->
<g id="edge24" class="edge">
<title>&#45;20&#45;&gt;2</title>
<path fill="none" stroke="green" stroke-width="0.14" stroke-dasharray="1,5" d="M1029.33,-162.79C1060.5,-163.26 1128.55,-159.25 1159.18,-118.02 1172.3,-100.37 1173.75,-85.01 1159.18,-68.53 1133.42,-39.38 859.39,-23.05 771.88,-18.55"/>
<polygon fill="green" stroke="green" stroke-width="0.14" points="771.87,-15.05 761.71,-18.04 771.52,-22.04 771.87,-15.05"/>
</g>
<!-- &#45;20&#45;&gt;3 -->
<g id="edge56" class="edge">
<title>&#45;20&#45;&gt;3</title>
<path fill="none" stroke="green" stroke-width="0.29" d="M997.05,-161.26C875.37,-155.51 106.18,-119.08 105.18,-118.02 15.1,-23.48 316.7,-16.85 409.72,-17"/>
<polygon fill="green" stroke="green" stroke-width="0.29" points="409.73,-20.5 419.75,-17.04 409.76,-13.5 409.73,-20.5"/>
</g>
<!-- &#45;20&#45;&gt;4 -->
<g id="edge41" class="edge">
<title>&#45;20&#45;&gt;4</title>
<path fill="none" stroke="red" stroke-width="0.38" d="M996.95,-161.26C876.2,-155.59 122.15,-120.09 120.18,-118.02 105.01,-102.09 105.46,-84.88 120.18,-68.53 171.15,-11.89 388.8,-56.35 461.18,-32.53 462.44,-32.11 463.7,-31.63 464.96,-31.1"/>
<polygon fill="red" stroke="red" stroke-width="0.38" points="466.92,-34.03 474.2,-26.34 463.71,-27.8 466.92,-34.03"/>
</g>
<!-- 180 -->
<g id="node27" class="node">
<title>180</title>
<ellipse fill="white" stroke="black" cx="1288.18" cy="-93.28" rx="25" ry="25"/>
<text text-anchor="middle" x="1288.18" y="-91.08" font-family="Times,serif" font-size="9.00">180</text>
</g>
<!-- &#45;20&#45;&gt;180 -->
<g id="edge45" class="edge">
<title>&#45;20&#45;&gt;180</title>
<path fill="none" stroke="green" stroke-width="0.58" d="M1029.46,-161.02C1068.57,-158.17 1170.36,-148.2 1249.18,-118.02 1252.64,-116.7 1256.14,-115.07 1259.54,-113.28"/>
<polygon fill="green" stroke="green" stroke-width="0.58" points="1261.3,-116.31 1268.25,-108.31 1257.83,-110.23 1261.3,-116.31"/>
</g>
<!-- 37&#45;&gt;1 -->
<g id="edge84" class="edge">
<title>37&#45;&gt;1</title>
<path fill="none" stroke="green" stroke-width="0.37" d="M1007.95,-78.46C1003.26,-74.65 997.81,-70.91 992.18,-68.53 879.89,-20.97 835.49,-72.18 720.18,-32.53 718.93,-32.1 717.67,-31.6 716.41,-31.06"/>
<polygon fill="green" stroke="green" stroke-width="0.37" points="717.67,-27.77 707.18,-26.26 714.44,-33.98 717.67,-27.77"/>
</g>
<!-- 37&#45;&gt;2 -->
<g id="edge55" class="edge">
<title>37&#45;&gt;2</title>
<path fill="none" stroke="green" stroke-width="0.5" d="M1007.53,-78.46C1002.91,-74.74 997.59,-71.06 992.18,-68.53 917.24,-33.51 818.44,-22.26 771.77,-18.77"/>
<polygon fill="green" stroke="green" stroke-width="0.5" points="771.81,-15.26 761.59,-18.07 771.33,-22.24 771.81,-15.26"/>
</g>
<!-- 37&#45;&gt;4 -->
<g id="edge93" class="edge">
<title>37&#45;&gt;4</title>
<path fill="none" stroke="red" stroke-width="0.24" d="M1008.01,-78.31C1003.33,-74.49 997.86,-70.79 992.18,-68.53 825.56,-2.08 768.31,-53.68 590.18,-32.53 563.89,-29.4 533.96,-24.86 513.17,-21.54"/>
<polygon fill="red" stroke="red" stroke-width="0.24" points="513.63,-18.07 503.2,-19.93 512.51,-24.98 513.63,-18.07"/>
</g>
<!-- 180&#45;&gt;2 -->
<g id="edge26" class="edge">
<title>180&#45;&gt;2</title>
<path fill="none" stroke="green" stroke-width="0.12" d="M1268.38,-77.89C1262.47,-74.25 1255.79,-70.75 1249.18,-68.53 1159.14,-38.27 862.26,-22.58 771.66,-18.41"/>
<polygon fill="green" stroke="green" stroke-width="0.12" points="771.58,-14.9 761.43,-17.95 771.27,-21.9 771.58,-14.9"/>
</g>
</g>
</svg>
