<?xml version="1.0" encoding="UTF-8" standalone="no"?>
<!DOCTYPE svg PUBLIC "-//W3C//DTD SVG 1.1//EN"
 "http://www.w3.org/Graphics/SVG/1.1/DTD/svg11.dtd">
<!-- Generated by graphviz version 2.49.0 (20210828.1703)
 -->
<!-- Pages: 1 -->
<svg width="887pt" height="92pt"
 viewBox="0.00 0.00 887.00 91.70" xmlns="http://www.w3.org/2000/svg" xmlns:xlink="http://www.w3.org/1999/xlink">
<g id="graph0" class="graph" transform="scale(1 1) rotate(0) translate(4 87.7)">
<polygon fill="white" stroke="transparent" points="-4,4 -4,-87.7 883,-87.7 883,4 -4,4"/>
<!-- &#45;1 -->
<g id="node1" class="node">
<title>&#45;1</title>
<polygon fill="lightgray" stroke="black" points="879,-83.7 855,-83.7 855,-65.7 879,-65.7 879,-83.7"/>
<text text-anchor="middle" x="867" y="-72.5" font-family="Times New Roman,serif" font-size="9.00">&#45;1</text>
</g>
<!-- 1 -->
<g id="node22" class="node">
<title>1</title>
<ellipse fill="lightblue" stroke="black" cx="357" cy="-14.85" rx="14.7" ry="14.7"/>
<text text-anchor="middle" x="357" y="-12.65" font-family="Times New Roman,serif" font-size="9.00">1</text>
</g>
<!-- &#45;1&#45;&gt;1 -->
<g id="edge1" class="edge">
<title>&#45;1&#45;&gt;1</title>
<path fill="none" stroke="green" stroke-width="0.37" d="M854.74,-68.36C851.92,-67.32 848.89,-66.35 846,-65.7 643.74,-20.34 579.01,-91.02 381,-29.7 379.94,-29.37 378.88,-28.99 377.83,-28.57"/>
<polygon fill="green" stroke="green" stroke-width="0.37" points="379.23,-25.36 368.72,-24.01 376.09,-31.62 379.23,-25.36"/>
</g>
<!-- 2 -->
<g id="node23" class="node">
<title>2</title>
<ellipse fill="lightblue" stroke="black" cx="501" cy="-14.85" rx="14.7" ry="14.7"/>
<text text-anchor="middle" x="501" y="-12.65" font-family="Times New Roman,serif" font-size="9.00">2</text>
</g>
<!-- &#45;1&#45;&gt;2 -->
<g id="edge2" class="edge">
<title>&#45;1&#45;&gt;2</title>
<path fill="none" stroke="green" stroke-width="0.27" d="M854.71,-68.5C851.89,-67.45 848.87,-66.44 846,-65.7 728.75,-35.29 583.95,-21.96 526.35,-17.59"/>
<polygon fill="green" stroke="green" stroke-width="0.27" points="526.26,-14.07 516.03,-16.83 525.74,-21.06 526.26,-14.07"/>
</g>
<!-- 3 -->
<g id="node24" class="node">
<title>3</title>
<ellipse fill="lightblue" stroke="black" cx="405" cy="-14.85" rx="14.7" ry="14.7"/>
<text text-anchor="middle" x="405" y="-12.65" font-family="Times New Roman,serif" font-size="9.00">3</text>
</g>
<!-- &#45;1&#45;&gt;3 -->
<g id="edge3" class="edge">
<title>&#45;1&#45;&gt;3</title>
<path fill="none" stroke="red" stroke-width="0.13" d="M854.74,-68.38C851.92,-67.33 848.89,-66.36 846,-65.7 664.67,-24.19 606.45,-85.51 429,-29.7 427.94,-29.37 426.89,-28.98 425.83,-28.56"/>
<polygon fill="red" stroke="red" stroke-width="0.13" points="427.24,-25.35 416.73,-23.98 424.09,-31.6 427.24,-25.35"/>
</g>
<!-- 4 -->
<g id="node25" class="node">
<title>4</title>
<ellipse fill="lightblue" stroke="black" cx="453" cy="-14.85" rx="14.7" ry="14.7"/>
<text text-anchor="middle" x="453" y="-12.65" font-family="Times New Roman,serif" font-size="9.00">4</text>
</g>
<!-- &#45;1&#45;&gt;4 -->
<g id="edge4" class="edge">
<title>&#45;1&#45;&gt;4</title>
<path fill="none" stroke="red" stroke-width="0.33" d="M854.73,-68.4C851.91,-67.36 848.89,-66.38 846,-65.7 685.58,-28.03 633.91,-80.01 477,-29.7 475.95,-29.36 474.89,-28.97 473.84,-28.54"/>
<polygon fill="red" stroke="red" stroke-width="0.33" points="475.24,-25.33 464.74,-23.95 472.09,-31.58 475.24,-25.33"/>
</g>
<!-- &#45;2 -->
<g id="node2" class="node">
<title>&#45;2</title>
<polygon fill="lightgray" stroke="black" points="789,-83.7 765,-83.7 765,-65.7 789,-65.7 789,-83.7"/>
<text text-anchor="middle" x="777" y="-72.5" font-family="Times New Roman,serif" font-size="9.00">&#45;2</text>
</g>
<!-- 0 -->
<g id="node21" class="node">
<title>0</title>
<ellipse fill="lightblue" stroke="black" cx="309" cy="-14.85" rx="14.7" ry="14.7"/>
<text text-anchor="middle" x="309" y="-12.65" font-family="Times New Roman,serif" font-size="9.00">0</text>
</g>
<!-- &#45;2&#45;&gt;0 -->
<g id="edge5" class="edge">
<title>&#45;2&#45;&gt;0</title>
<path fill="none" stroke="red" stroke-width="0.36" d="M764.74,-68.37C761.92,-67.33 758.89,-66.36 756,-65.7 572.05,-23.71 513.02,-86.2 333,-29.7 331.94,-29.37 330.88,-28.98 329.83,-28.56"/>
<polygon fill="red" stroke="red" stroke-width="0.36" points="331.24,-25.35 320.73,-23.99 328.09,-31.6 331.24,-25.35"/>
</g>
<!-- &#45;2&#45;&gt;1 -->
<g id="edge6" class="edge">
<title>&#45;2&#45;&gt;1</title>
<path fill="none" stroke="green" stroke-width="0.16" d="M764.74,-68.4C761.91,-67.35 758.89,-66.37 756,-65.7 592.97,-27.55 540.48,-80.7 381,-29.7 379.95,-29.36 378.89,-28.97 377.83,-28.55"/>
<polygon fill="green" stroke="green" stroke-width="0.16" points="379.24,-25.34 368.74,-23.96 376.09,-31.59 379.24,-25.34"/>
</g>
<!-- &#45;2&#45;&gt;2 -->
<g id="edge7" class="edge">
<title>&#45;2&#45;&gt;2</title>
<path fill="none" stroke="green" stroke-width="0.39" d="M764.68,-68.6C761.86,-67.55 758.85,-66.51 756,-65.7 672.89,-41.93 571.31,-25.81 525.49,-19.21"/>
<polygon fill="green" stroke="green" stroke-width="0.39" points="525.98,-15.74 515.58,-17.81 524.99,-22.68 525.98,-15.74"/>
</g>
<!-- &#45;2&#45;&gt;3 -->
<g id="edge8" class="edge">
<title>&#45;2&#45;&gt;3</title>
<path fill="none" stroke="green" stroke-width="0.14" d="M764.73,-68.43C761.9,-67.38 758.88,-66.39 756,-65.7 613.87,-31.4 567.95,-75.21 429,-29.7 428.12,-29.41 427.24,-29.09 426.36,-28.74"/>
<polygon fill="green" stroke="green" stroke-width="0.14" points="427.76,-25.52 417.24,-24.21 424.64,-31.79 427.76,-25.52"/>
</g>
<!-- &#45;2&#45;&gt;4 -->
<g id="edge9" class="edge">
<title>&#45;2&#45;&gt;4</title>
<path fill="none" stroke="green" stroke-width="0.47" d="M764.72,-68.47C761.89,-67.42 758.88,-66.42 756,-65.7 634.74,-35.23 595.45,-69.72 477,-29.7 476.12,-29.4 475.24,-29.07 474.36,-28.71"/>
<polygon fill="green" stroke="green" stroke-width="0.47" points="475.77,-25.51 465.26,-24.16 472.64,-31.77 475.77,-25.51"/>
</g>
<!-- &#45;3 -->
<g id="node3" class="node">
<title>&#45;3</title>
<polygon fill="lightgray" stroke="black" points="66,-83.7 42,-83.7 42,-65.7 66,-65.7 66,-83.7"/>
<text text-anchor="middle" x="54" y="-72.5" font-family="Times New Roman,serif" font-size="9.00">&#45;3</text>
</g>
<!-- &#45;3&#45;&gt;0 -->
<g id="edge10" class="edge">
<title>&#45;3&#45;&gt;0</title>
<path fill="none" stroke="red" stroke-width="0.17" d="M66.33,-68.64C69.15,-67.58 72.16,-66.54 75,-65.7 149.95,-43.58 241.11,-27.05 284.18,-19.84"/>
<polygon fill="red" stroke="red" stroke-width="0.17" points="284.99,-23.25 294.29,-18.17 283.85,-16.35 284.99,-23.25"/>
</g>
<!-- &#45;3&#45;&gt;1 -->
<g id="edge11" class="edge">
<title>&#45;3&#45;&gt;1</title>
<path fill="none" stroke="red" stroke-width="0.12" d="M66.29,-68.49C69.11,-67.44 72.13,-66.44 75,-65.7 187.14,-36.91 223.51,-67.33 333,-29.7 333.88,-29.4 334.76,-29.06 335.63,-28.7"/>
<polygon fill="red" stroke="red" stroke-width="0.12" points="337.36,-31.75 344.73,-24.14 334.22,-25.49 337.36,-31.75"/>
</g>
<!-- &#45;3&#45;&gt;2 -->
<g id="edge12" class="edge">
<title>&#45;3&#45;&gt;2</title>
<path fill="none" stroke="red" stroke-width="0.19" d="M66.26,-68.38C69.09,-67.34 72.11,-66.36 75,-65.7 249.79,-25.39 305.97,-83.8 477,-29.7 478.05,-29.36 479.11,-28.98 480.17,-28.55"/>
<polygon fill="red" stroke="red" stroke-width="0.19" points="481.91,-31.6 489.27,-23.97 478.76,-25.34 481.91,-31.6"/>
</g>
<!-- &#45;3&#45;&gt;3 -->
<g id="edge13" class="edge">
<title>&#45;3&#45;&gt;3</title>
<path fill="none" stroke="red" stroke-width="0.31" d="M66.28,-68.44C69.1,-67.4 72.12,-66.4 75,-65.7 208,-33.08 251.02,-72.81 381,-29.7 381.88,-29.41 382.76,-29.08 383.64,-28.73"/>
<polygon fill="red" stroke="red" stroke-width="0.31" points="385.36,-31.78 392.75,-24.19 382.24,-25.52 385.36,-31.78"/>
</g>
<!-- &#45;3&#45;&gt;4 -->
<g id="edge14" class="edge">
<title>&#45;3&#45;&gt;4</title>
<path fill="none" stroke="red" stroke-width="0.29" d="M66.27,-68.41C69.09,-67.36 72.11,-66.38 75,-65.7 228.88,-29.24 278.51,-78.3 429,-29.7 430.05,-29.36 431.11,-28.97 432.16,-28.54"/>
<polygon fill="red" stroke="red" stroke-width="0.29" points="433.91,-31.58 441.26,-23.94 430.75,-25.33 433.91,-31.58"/>
</g>
<!-- &#45;4 -->
<g id="node4" class="node">
<title>&#45;4</title>
<polygon fill="lightgray" stroke="black" points="108,-83.7 84,-83.7 84,-65.7 108,-65.7 108,-83.7"/>
<text text-anchor="middle" x="96" y="-72.5" font-family="Times New Roman,serif" font-size="9.00">&#45;4</text>
</g>
<!-- &#45;4&#45;&gt;0 -->
<g id="edge15" class="edge">
<title>&#45;4&#45;&gt;0</title>
<path fill="none" stroke="red" stroke-width="0.33" d="M108.36,-68.73C111.18,-67.67 114.18,-66.6 117,-65.7 176.42,-46.73 247.87,-29.65 284.58,-21.28"/>
<polygon fill="red" stroke="red" stroke-width="0.33" points="285.41,-24.68 294.39,-19.06 283.87,-17.85 285.41,-24.68"/>
</g>
<!-- &#45;4&#45;&gt;1 -->
<g id="edge16" class="edge">
<title>&#45;4&#45;&gt;1</title>
<path fill="none" stroke="red" stroke-width="0.19" d="M108.3,-68.55C111.12,-67.49 114.14,-66.47 117,-65.7 210.94,-40.25 241.39,-62.55 333,-29.7 333.87,-29.39 334.75,-29.04 335.62,-28.67"/>
<polygon fill="red" stroke="red" stroke-width="0.19" points="337.37,-31.71 344.71,-24.07 334.2,-25.47 337.37,-31.71"/>
</g>
<!-- &#45;4&#45;&gt;2 -->
<g id="edge17" class="edge">
<title>&#45;4&#45;&gt;2</title>
<path fill="none" stroke="green" stroke-width="0.32" d="M108.27,-68.41C111.09,-67.36 114.11,-66.38 117,-65.7 273.5,-28.75 323.94,-78.98 477,-29.7 478.05,-29.36 479.11,-28.97 480.16,-28.54"/>
<polygon fill="green" stroke="green" stroke-width="0.32" points="481.91,-31.58 489.26,-23.95 478.75,-25.33 481.91,-31.58"/>
</g>
<!-- &#45;4&#45;&gt;3 -->
<g id="edge18" class="edge">
<title>&#45;4&#45;&gt;3</title>
<path fill="none" stroke="red" stroke-width="0.42" d="M108.29,-68.48C111.11,-67.43 114.13,-66.43 117,-65.7 231.75,-36.43 268.95,-68.01 381,-29.7 381.88,-29.4 382.76,-29.07 383.63,-28.71"/>
<polygon fill="red" stroke="red" stroke-width="0.42" points="385.36,-31.76 392.73,-24.14 382.23,-25.5 385.36,-31.76"/>
</g>
<!-- &#45;4&#45;&gt;4 -->
<g id="edge19" class="edge">
<title>&#45;4&#45;&gt;4</title>
<path fill="none" stroke="green" stroke-width="0.33" d="M108.27,-68.44C111.1,-67.39 114.12,-66.4 117,-65.7 252.6,-32.6 296.46,-73.49 429,-29.7 429.88,-29.41 430.76,-29.08 431.64,-28.73"/>
<polygon fill="green" stroke="green" stroke-width="0.33" points="433.36,-31.79 440.75,-24.2 430.24,-25.52 433.36,-31.79"/>
</g>
<!-- &#45;5 -->
<g id="node5" class="node">
<title>&#45;5</title>
<polygon fill="lightgray" stroke="black" points="150,-83.7 126,-83.7 126,-65.7 150,-65.7 150,-83.7"/>
<text text-anchor="middle" x="138" y="-72.5" font-family="Times New Roman,serif" font-size="9.00">&#45;5</text>
</g>
<!-- &#45;5&#45;&gt;0 -->
<g id="edge20" class="edge">
<title>&#45;5&#45;&gt;0</title>
<path fill="none" stroke="green" stroke-width="0.27" d="M150.4,-68.87C153.22,-67.8 156.21,-66.69 159,-65.7 203.2,-49.94 255.28,-32.99 284.99,-23.48"/>
<polygon fill="green" stroke="green" stroke-width="0.27" points="286.41,-26.7 294.87,-20.32 284.28,-20.03 286.41,-26.7"/>
</g>
<!-- &#45;5&#45;&gt;1 -->
<g id="edge21" class="edge">
<title>&#45;5&#45;&gt;1</title>
<path fill="none" stroke="red" stroke-width="0.43" d="M150.32,-68.63C153.15,-67.57 156.15,-66.53 159,-65.7 234.81,-43.57 259.19,-57.79 333,-29.7 333.87,-29.37 334.74,-29.01 335.61,-28.63"/>
<polygon fill="red" stroke="red" stroke-width="0.43" points="337.38,-31.66 344.67,-23.97 334.18,-25.43 337.38,-31.66"/>
</g>
<!-- &#45;5&#45;&gt;2 -->
<g id="edge22" class="edge">
<title>&#45;5&#45;&gt;2</title>
<path fill="none" stroke="green" stroke-width="0.49" d="M150.27,-68.43C153.1,-67.39 156.12,-66.4 159,-65.7 297.21,-32.12 341.9,-74.18 477,-29.7 477.88,-29.41 478.76,-29.08 479.64,-28.73"/>
<polygon fill="green" stroke="green" stroke-width="0.49" points="481.36,-31.79 488.75,-24.2 478.24,-25.52 481.36,-31.79"/>
</g>
<!-- &#45;5&#45;&gt;3 -->
<g id="edge23" class="edge">
<title>&#45;5&#45;&gt;3</title>
<path fill="none" stroke="green" stroke-width="0.43" d="M150.3,-68.54C153.12,-67.49 156.14,-66.47 159,-65.7 255.53,-39.77 286.84,-63.23 381,-29.7 381.87,-29.39 382.75,-29.05 383.63,-28.68"/>
<polygon fill="green" stroke="green" stroke-width="0.43" points="385.37,-31.72 392.71,-24.08 382.21,-25.47 385.37,-31.72"/>
</g>
<!-- &#45;5&#45;&gt;4 -->
<g id="edge24" class="edge">
<title>&#45;5&#45;&gt;4</title>
<path fill="none" stroke="green" stroke-width="0.16" d="M150.28,-68.48C153.11,-67.43 156.13,-66.43 159,-65.7 276.35,-35.95 314.39,-68.69 429,-29.7 429.88,-29.4 430.76,-29.07 431.64,-28.71"/>
<polygon fill="green" stroke="green" stroke-width="0.16" points="433.36,-31.76 440.74,-24.15 430.23,-25.5 433.36,-31.76"/>
</g>
<!-- &#45;6 -->
<g id="node6" class="node">
<title>&#45;6</title>
<polygon fill="lightgray" stroke="black" points="24,-83.7 0,-83.7 0,-65.7 24,-65.7 24,-83.7"/>
<text text-anchor="middle" x="12" y="-72.5" font-family="Times New Roman,serif" font-size="9.00">&#45;6</text>
</g>
<!-- &#45;6&#45;&gt;0 -->
<g id="edge25" class="edge">
<title>&#45;6&#45;&gt;0</title>
<path fill="none" stroke="red" stroke-width="0.23" d="M24.31,-68.57C27.13,-67.52 30.14,-66.49 33,-65.7 123.93,-40.4 235.4,-24.83 284.17,-18.76"/>
<polygon fill="red" stroke="red" stroke-width="0.23" points="284.62,-22.24 294.12,-17.55 283.77,-15.29 284.62,-22.24"/>
</g>
<!-- &#45;6&#45;&gt;1 -->
<g id="edge26" class="edge">
<title>&#45;6&#45;&gt;1</title>
<path fill="none" stroke="red" stroke-width="0.25" d="M24.28,-68.45C27.1,-67.4 30.12,-66.41 33,-65.7 163.39,-33.56 205.59,-72.12 333,-29.7 333.88,-29.41 334.76,-29.08 335.64,-28.72"/>
<polygon fill="red" stroke="red" stroke-width="0.25" points="337.36,-31.78 344.75,-24.19 334.24,-25.51 337.36,-31.78"/>
</g>
<!-- &#45;6&#45;&gt;3 -->
<g id="edge27" class="edge">
<title>&#45;6&#45;&gt;3</title>
<path fill="none" stroke="red" stroke-width="0.42" d="M24.27,-68.41C27.09,-67.37 30.12,-66.38 33,-65.7 184.27,-29.72 233.07,-77.61 381,-29.7 382.05,-29.36 383.11,-28.97 384.16,-28.54"/>
<polygon fill="red" stroke="red" stroke-width="0.42" points="385.91,-31.57 393.25,-23.94 382.75,-25.33 385.91,-31.57"/>
</g>
<!-- &#45;6&#45;&gt;4 -->
<g id="edge28" class="edge">
<title>&#45;6&#45;&gt;4</title>
<path fill="none" stroke="red" stroke-width="0.65" d="M24.26,-68.39C27.09,-67.34 30.11,-66.37 33,-65.7 205.18,-25.87 260.54,-83.11 429,-29.7 430.05,-29.36 431.11,-28.98 432.17,-28.55"/>
<polygon fill="red" stroke="red" stroke-width="0.65" points="433.91,-31.59 441.27,-23.97 430.76,-25.34 433.91,-31.59"/>
</g>
<!-- &#45;7 -->
<g id="node7" class="node">
<title>&#45;7</title>
<polygon fill="lightgray" stroke="black" points="192,-83.7 168,-83.7 168,-65.7 192,-65.7 192,-83.7"/>
<text text-anchor="middle" x="180" y="-72.5" font-family="Times New Roman,serif" font-size="9.00">&#45;7</text>
</g>
<!-- &#45;7&#45;&gt;0 -->
<g id="edge29" class="edge">
<title>&#45;7&#45;&gt;0</title>
<path fill="none" stroke="red" stroke-width="0.45" d="M192.37,-68.15C214.05,-58.43 259.2,-38.18 286.52,-25.93"/>
<polygon fill="red" stroke="red" stroke-width="0.45" points="288.02,-29.1 295.71,-21.81 285.15,-22.71 288.02,-29.1"/>
</g>
<!-- &#45;7&#45;&gt;1 -->
<g id="edge30" class="edge">
<title>&#45;7&#45;&gt;1</title>
<path fill="none" stroke="green" stroke-width="0.15" d="M192.37,-68.76C195.18,-67.7 198.18,-66.62 201,-65.7 258.82,-46.85 276.87,-53.09 333,-29.7 333.85,-29.34 334.72,-28.96 335.58,-28.56"/>
<polygon fill="green" stroke="green" stroke-width="0.15" points="337.39,-31.57 344.61,-23.81 334.13,-25.37 337.39,-31.57"/>
</g>
<!-- &#45;7&#45;&gt;2 -->
<g id="edge31" class="edge">
<title>&#45;7&#45;&gt;2</title>
<path fill="none" stroke="green" stroke-width="0.11" d="M192.28,-68.47C195.11,-67.42 198.12,-66.42 201,-65.7 320.96,-35.47 359.83,-69.38 477,-29.7 477.88,-29.4 478.76,-29.07 479.64,-28.71"/>
<polygon fill="green" stroke="green" stroke-width="0.11" points="481.36,-31.76 488.74,-24.16 478.23,-25.5 481.36,-31.76"/>
</g>
<!-- &#45;7&#45;&gt;3 -->
<g id="edge32" class="edge">
<title>&#45;7&#45;&gt;3</title>
<path fill="none" stroke="red" stroke-width="0.26" d="M192.32,-68.61C195.14,-67.56 198.15,-66.52 201,-65.7 279.39,-43.1 304.66,-58.47 381,-29.7 381.87,-29.37 382.74,-29.02 383.61,-28.64"/>
<polygon fill="red" stroke="red" stroke-width="0.26" points="385.38,-31.66 392.68,-23.99 382.18,-25.44 385.38,-31.66"/>
</g>
<!-- &#45;7&#45;&gt;4 -->
<g id="edge33" class="edge">
<title>&#45;7&#45;&gt;4</title>
<path fill="none" stroke="red" stroke-width="0.22" d="M192.3,-68.53C195.12,-67.48 198.13,-66.46 201,-65.7 300.13,-39.3 332.28,-63.91 429,-29.7 429.87,-29.39 430.75,-29.05 431.63,-28.68"/>
<polygon fill="red" stroke="red" stroke-width="0.22" points="433.37,-31.72 440.71,-24.09 430.21,-25.48 433.37,-31.72"/>
</g>
<!-- &#45;8 -->
<g id="node8" class="node">
<title>&#45;8</title>
<polygon fill="lightgray" stroke="black" points="234,-83.7 210,-83.7 210,-65.7 234,-65.7 234,-83.7"/>
<text text-anchor="middle" x="222" y="-72.5" font-family="Times New Roman,serif" font-size="9.00">&#45;8</text>
</g>
<!-- &#45;8&#45;&gt;0 -->
<g id="edge34" class="edge">
<title>&#45;8&#45;&gt;0</title>
<path fill="none" stroke="red" stroke-width="0.15" d="M234.1,-65.65C248.12,-56.33 271.47,-40.8 288.38,-29.56"/>
<polygon fill="red" stroke="red" stroke-width="0.15" points="290.62,-32.28 297.01,-23.82 286.74,-26.45 290.62,-32.28"/>
</g>
<!-- &#45;8&#45;&gt;1 -->
<g id="edge35" class="edge">
<title>&#45;8&#45;&gt;1</title>
<path fill="none" stroke="red" stroke-width="0.42" d="M234.27,-68.95C261.17,-58.53 323.67,-34.21 333,-29.7 333.83,-29.3 334.68,-28.87 335.53,-28.44"/>
<polygon fill="red" stroke="red" stroke-width="0.42" points="337.39,-31.41 344.48,-23.53 334.03,-25.27 337.39,-31.41"/>
</g>
<!-- &#45;8&#45;&gt;2 -->
<g id="edge36" class="edge">
<title>&#45;8&#45;&gt;2</title>
<path fill="none" stroke="red" stroke-width="0.33" d="M234.29,-68.52C237.12,-67.47 240.13,-66.46 243,-65.7 344.73,-38.82 377.73,-64.59 477,-29.7 477.87,-29.39 478.75,-29.05 479.63,-28.69"/>
<polygon fill="red" stroke="red" stroke-width="0.33" points="481.37,-31.73 488.72,-24.1 478.21,-25.48 481.37,-31.73"/>
</g>
<!-- &#45;8&#45;&gt;3 -->
<g id="edge37" class="edge">
<title>&#45;8&#45;&gt;3</title>
<path fill="none" stroke="red" stroke-width="0.4" d="M234.36,-68.73C237.18,-67.67 240.18,-66.6 243,-65.7 303.37,-46.39 322.36,-53.75 381,-29.7 381.86,-29.35 382.72,-28.97 383.58,-28.57"/>
<polygon fill="red" stroke="red" stroke-width="0.4" points="385.39,-31.58 392.62,-23.84 382.14,-25.38 385.39,-31.58"/>
</g>
<!-- &#45;8&#45;&gt;4 -->
<g id="edge38" class="edge">
<title>&#45;8&#45;&gt;4</title>
<path fill="none" stroke="red" stroke-width="0.24" d="M234.32,-68.6C237.14,-67.55 240.15,-66.51 243,-65.7 323.98,-42.62 350.12,-59.15 429,-29.7 429.87,-29.37 430.74,-29.02 431.61,-28.64"/>
<polygon fill="red" stroke="red" stroke-width="0.24" points="433.38,-31.67 440.68,-24 430.19,-25.44 433.38,-31.67"/>
</g>
<!-- &#45;9 -->
<g id="node9" class="node">
<title>&#45;9</title>
<polygon fill="lightgray" stroke="black" points="276,-83.7 252,-83.7 252,-65.7 276,-65.7 276,-83.7"/>
<text text-anchor="middle" x="264" y="-72.5" font-family="Times New Roman,serif" font-size="9.00">&#45;9</text>
</g>
<!-- &#45;9&#45;&gt;0 -->
<g id="edge39" class="edge">
<title>&#45;9&#45;&gt;0</title>
<path fill="none" stroke="red" stroke-width="0.67" d="M270.26,-65.65C276.37,-57.8 285.91,-45.53 293.99,-35.14"/>
<polygon fill="red" stroke="red" stroke-width="0.67" points="296.95,-37.04 300.33,-26.99 291.43,-32.74 296.95,-37.04"/>
</g>
<!-- &#45;9&#45;&gt;1 -->
<g id="edge40" class="edge">
<title>&#45;9&#45;&gt;1</title>
<path fill="none" stroke="green" stroke-width="0.16" d="M276.16,-66.14C291.41,-56.65 317.78,-40.24 336.25,-28.76"/>
<polygon fill="green" stroke="green" stroke-width="0.16" points="338.2,-31.67 344.84,-23.41 334.5,-25.72 338.2,-31.67"/>
</g>
<!-- &#45;9&#45;&gt;2 -->
<g id="edge41" class="edge">
<title>&#45;9&#45;&gt;2</title>
<path fill="none" stroke="red" stroke-width="0.15" d="M276.31,-68.59C279.14,-67.53 282.15,-66.5 285,-65.7 368.57,-42.15 395.57,-59.82 477,-29.7 477.87,-29.38 478.74,-29.03 479.62,-28.65"/>
<polygon fill="red" stroke="red" stroke-width="0.15" points="481.37,-31.68 488.69,-24.02 478.19,-25.45 481.37,-31.68"/>
</g>
<!-- &#45;9&#45;&gt;3 -->
<g id="edge42" class="edge">
<title>&#45;9&#45;&gt;3</title>
<path fill="none" stroke="red" stroke-width="0.53" d="M276.43,-68.95C279.25,-67.88 282.23,-66.75 285,-65.7 327.62,-49.59 339.79,-49.15 381,-29.7 381.84,-29.3 382.68,-28.89 383.54,-28.46"/>
<polygon fill="red" stroke="red" stroke-width="0.53" points="385.39,-31.43 392.5,-23.58 382.05,-25.29 385.39,-31.43"/>
</g>
<!-- &#45;9&#45;&gt;4 -->
<g id="edge43" class="edge">
<title>&#45;9&#45;&gt;4</title>
<path fill="none" stroke="green" stroke-width="0.17" d="M276.35,-68.71C279.17,-67.65 282.17,-66.59 285,-65.7 347.94,-45.92 367.84,-54.42 429,-29.7 429.86,-29.35 430.72,-28.98 431.59,-28.58"/>
<polygon fill="green" stroke="green" stroke-width="0.17" points="433.39,-31.6 440.63,-23.86 430.14,-25.39 433.39,-31.6"/>
</g>
<!-- &#45;10 -->
<g id="node10" class="node">
<title>&#45;10</title>
<polygon fill="lightgray" stroke="black" points="323.5,-83.7 294.5,-83.7 294.5,-65.7 323.5,-65.7 323.5,-83.7"/>
<text text-anchor="middle" x="309" y="-72.5" font-family="Times New Roman,serif" font-size="9.00">&#45;10</text>
</g>
<!-- &#45;10&#45;&gt;0 -->
<g id="edge44" class="edge">
<title>&#45;10&#45;&gt;0</title>
<path fill="none" stroke="red" stroke-width="0.52" d="M309,-65.65C309,-59.05 309,-49.33 309,-40.23"/>
<polygon fill="red" stroke="red" stroke-width="0.52" points="312.5,-40.06 309,-30.06 305.5,-40.06 312.5,-40.06"/>
</g>
<!-- &#45;10&#45;&gt;1 -->
<g id="edge45" class="edge">
<title>&#45;10&#45;&gt;1</title>
<path fill="none" stroke="red" stroke-width="0.38" d="M315.67,-65.65C322.26,-57.72 332.57,-45.29 341.25,-34.83"/>
<polygon fill="red" stroke="red" stroke-width="0.38" points="344.06,-36.93 347.75,-26.99 338.67,-32.46 344.06,-36.93"/>
</g>
<!-- &#45;10&#45;&gt;2 -->
<g id="edge46" class="edge">
<title>&#45;10&#45;&gt;2</title>
<path fill="none" stroke="red" stroke-width="0.3" d="M323.54,-68.42C326.33,-67.47 329.24,-66.52 332,-65.7 395.65,-46.77 415.42,-54.54 477,-29.7 477.86,-29.35 478.72,-28.98 479.59,-28.59"/>
<polygon fill="red" stroke="red" stroke-width="0.3" points="481.38,-31.6 488.63,-23.87 478.15,-25.39 481.38,-31.6"/>
</g>
<!-- &#45;10&#45;&gt;3 -->
<g id="edge47" class="edge">
<title>&#45;10&#45;&gt;3</title>
<path fill="none" stroke="red" stroke-width="0.12" d="M322.35,-65.65C338.3,-56.04 365.19,-39.84 383.96,-28.53"/>
<polygon fill="red" stroke="red" stroke-width="0.12" points="385.92,-31.43 392.68,-23.28 382.31,-25.44 385.92,-31.43"/>
</g>
<!-- &#45;10&#45;&gt;4 -->
<g id="edge48" class="edge">
<title>&#45;10&#45;&gt;4</title>
<path fill="none" stroke="green" stroke-width="0.14" d="M323.61,-68.5C353.38,-57.89 419.1,-34.33 429,-29.7 429.84,-29.31 430.69,-28.89 431.54,-28.47"/>
<polygon fill="green" stroke="green" stroke-width="0.14" points="433.39,-31.44 440.51,-23.6 430.05,-25.29 433.39,-31.44"/>
</g>
<!-- &#45;11 -->
<g id="node11" class="node">
<title>&#45;11</title>
<polygon fill="lightgray" stroke="black" points="370.5,-83.7 341.5,-83.7 341.5,-65.7 370.5,-65.7 370.5,-83.7"/>
<text text-anchor="middle" x="356" y="-72.5" font-family="Times New Roman,serif" font-size="9.00">&#45;11</text>
</g>
<!-- &#45;11&#45;&gt;0 -->
<g id="edge49" class="edge">
<title>&#45;11&#45;&gt;0</title>
<path fill="none" stroke="green" stroke-width="0.47" d="M349.46,-65.65C343.02,-57.72 332.92,-45.29 324.42,-34.83"/>
<polygon fill="green" stroke="green" stroke-width="0.47" points="327.08,-32.55 318.06,-26.99 321.64,-36.96 327.08,-32.55"/>
</g>
<!-- &#45;11&#45;&gt;1 -->
<g id="edge50" class="edge">
<title>&#45;11&#45;&gt;1</title>
<path fill="none" stroke="red" stroke-width="0.19" d="M356.14,-65.65C356.25,-59.05 356.42,-49.33 356.58,-40.23"/>
<polygon fill="red" stroke="red" stroke-width="0.19" points="360.08,-40.12 356.75,-30.06 353.08,-39.99 360.08,-40.12"/>
</g>
<!-- &#45;11&#45;&gt;2 -->
<g id="edge51" class="edge">
<title>&#45;11&#45;&gt;2</title>
<path fill="none" stroke="green" stroke-width="0.42" d="M370.73,-68.51C400.75,-57.9 467.02,-34.35 477,-29.7 477.84,-29.31 478.69,-28.9 479.54,-28.47"/>
<polygon fill="green" stroke="green" stroke-width="0.42" points="481.39,-31.45 488.52,-23.6 478.06,-25.29 481.39,-31.45"/>
</g>
<!-- &#45;11&#45;&gt;3 -->
<g id="edge52" class="edge">
<title>&#45;11&#45;&gt;3</title>
<path fill="none" stroke="green" stroke-width="0.34" d="M362.81,-65.65C369.54,-57.72 380.06,-45.29 388.92,-34.83"/>
<polygon fill="green" stroke="green" stroke-width="0.34" points="391.77,-36.89 395.56,-26.99 386.43,-32.36 391.77,-36.89"/>
</g>
<!-- &#45;11&#45;&gt;4 -->
<g id="edge53" class="edge">
<title>&#45;11&#45;&gt;4</title>
<path fill="none" stroke="green" stroke-width="0.22" d="M369.49,-65.65C385.61,-56.04 412.78,-39.84 431.74,-28.53"/>
<polygon fill="green" stroke="green" stroke-width="0.22" points="433.75,-31.4 440.55,-23.28 430.17,-25.39 433.75,-31.4"/>
</g>
<!-- &#45;12 -->
<g id="node12" class="node">
<title>&#45;12</title>
<polygon fill="lightgray" stroke="black" points="417.5,-83.7 388.5,-83.7 388.5,-65.7 417.5,-65.7 417.5,-83.7"/>
<text text-anchor="middle" x="403" y="-72.5" font-family="Times New Roman,serif" font-size="9.00">&#45;12</text>
</g>
<!-- &#45;12&#45;&gt;0 -->
<g id="edge54" class="edge">
<title>&#45;12&#45;&gt;0</title>
<path fill="none" stroke="green" stroke-width="0.27" d="M389.93,-65.65C374.39,-56.09 348.27,-40.01 329.91,-28.72"/>
<polygon fill="green" stroke="green" stroke-width="0.27" points="331.71,-25.72 321.36,-23.46 328.04,-31.68 331.71,-25.72"/>
</g>
<!-- &#45;12&#45;&gt;1 -->
<g id="edge55" class="edge">
<title>&#45;12&#45;&gt;1</title>
<path fill="none" stroke="red" stroke-width="0.73" d="M396.6,-65.65C390.29,-57.72 380.41,-45.29 372.1,-34.83"/>
<polygon fill="red" stroke="red" stroke-width="0.73" points="374.83,-32.64 365.86,-26.99 369.35,-37 374.83,-32.64"/>
</g>
<!-- &#45;12&#45;&gt;2 -->
<g id="edge56" class="edge">
<title>&#45;12&#45;&gt;2</title>
<path fill="none" stroke="red" stroke-width="0.21" d="M416.63,-65.65C432.99,-56 460.62,-39.69 479.78,-28.38"/>
<polygon fill="red" stroke="red" stroke-width="0.21" points="481.59,-31.37 488.42,-23.28 478.03,-25.34 481.59,-31.37"/>
</g>
<!-- &#45;12&#45;&gt;3 -->
<g id="edge57" class="edge">
<title>&#45;12&#45;&gt;3</title>
<path fill="none" stroke="green" stroke-width="0.14" d="M403.28,-65.65C403.51,-59.05 403.84,-49.33 404.16,-40.23"/>
<polygon fill="green" stroke="green" stroke-width="0.14" points="407.66,-40.17 404.51,-30.06 400.67,-39.93 407.66,-40.17"/>
</g>
<!-- &#45;12&#45;&gt;4 -->
<g id="edge58" class="edge">
<title>&#45;12&#45;&gt;4</title>
<path fill="none" stroke="green" stroke-width="0.57" d="M409.95,-65.65C416.9,-57.62 427.82,-44.98 436.93,-34.45"/>
<polygon fill="green" stroke="green" stroke-width="0.57" points="439.84,-36.43 443.73,-26.58 434.54,-31.85 439.84,-36.43"/>
</g>
<!-- &#45;13 -->
<g id="node13" class="node">
<title>&#45;13</title>
<polygon fill="lightgray" stroke="black" points="464.5,-83.7 435.5,-83.7 435.5,-65.7 464.5,-65.7 464.5,-83.7"/>
<text text-anchor="middle" x="450" y="-72.5" font-family="Times New Roman,serif" font-size="9.00">&#45;13</text>
</g>
<!-- &#45;13&#45;&gt;0 -->
<g id="edge59" class="edge">
<title>&#45;13&#45;&gt;0</title>
<path fill="none" stroke="green" stroke-width="0.16" d="M435.25,-68.49C408.23,-58.9 351.84,-38.6 333,-29.7 332.16,-29.3 331.32,-28.89 330.47,-28.46"/>
<polygon fill="green" stroke="green" stroke-width="0.16" points="331.95,-25.29 321.5,-23.58 328.61,-31.43 331.95,-25.29"/>
</g>
<!-- &#45;13&#45;&gt;1 -->
<g id="edge60" class="edge">
<title>&#45;13&#45;&gt;1</title>
<path fill="none" stroke="red" stroke-width="0.51" d="M437.07,-65.65C421.77,-56.14 396.09,-40.16 377.94,-28.87"/>
<polygon fill="red" stroke="red" stroke-width="0.51" points="379.57,-25.77 369.23,-23.46 375.87,-31.71 379.57,-25.77"/>
</g>
<!-- &#45;13&#45;&gt;2 -->
<g id="edge61" class="edge">
<title>&#45;13&#45;&gt;2</title>
<path fill="none" stroke="green" stroke-width="0.22" d="M457.09,-65.65C464.25,-57.54 475.54,-44.73 484.88,-34.13"/>
<polygon fill="green" stroke="green" stroke-width="0.22" points="487.55,-36.39 491.54,-26.58 482.3,-31.76 487.55,-36.39"/>
</g>
<!-- &#45;13&#45;&gt;3 -->
<g id="edge62" class="edge">
<title>&#45;13&#45;&gt;3</title>
<path fill="none" stroke="green" stroke-width="0.47" d="M443.74,-65.65C437.63,-57.8 428.09,-45.53 420.01,-35.14"/>
<polygon fill="green" stroke="green" stroke-width="0.47" points="422.57,-32.74 413.67,-26.99 417.05,-37.04 422.57,-32.74"/>
</g>
<!-- &#45;13&#45;&gt;4 -->
<g id="edge63" class="edge">
<title>&#45;13&#45;&gt;4</title>
<path fill="none" stroke="red" stroke-width="0.38" d="M450.42,-65.65C450.76,-59.05 451.26,-49.33 451.74,-40.23"/>
<polygon fill="red" stroke="red" stroke-width="0.38" points="455.24,-40.22 452.26,-30.06 448.25,-39.86 455.24,-40.22"/>
</g>
<!-- &#45;14 -->
<g id="node14" class="node">
<title>&#45;14</title>
<polygon fill="lightgray" stroke="black" points="511.5,-83.7 482.5,-83.7 482.5,-65.7 511.5,-65.7 511.5,-83.7"/>
<text text-anchor="middle" x="497" y="-72.5" font-family="Times New Roman,serif" font-size="9.00">&#45;14</text>
</g>
<!-- &#45;14&#45;&gt;0 -->
<g id="edge64" class="edge">
<title>&#45;14&#45;&gt;0</title>
<path fill="none" stroke="green" stroke-width="0.3" d="M482.46,-68.43C479.67,-67.48 476.75,-66.53 474,-65.7 412.07,-47.06 392.9,-54.09 333,-29.7 332.14,-29.35 331.28,-28.97 330.41,-28.58"/>
<polygon fill="green" stroke="green" stroke-width="0.3" points="331.86,-25.39 321.38,-23.85 328.61,-31.59 331.86,-25.39"/>
</g>
<!-- &#45;14&#45;&gt;1 -->
<g id="edge65" class="edge">
<title>&#45;14&#45;&gt;1</title>
<path fill="none" stroke="green" stroke-width="0.45" d="M482.38,-68.49C455.59,-58.88 399.68,-38.56 381,-29.7 380.16,-29.3 379.32,-28.89 378.47,-28.46"/>
<polygon fill="green" stroke="green" stroke-width="0.45" points="379.96,-25.28 369.5,-23.57 376.61,-31.43 379.96,-25.28"/>
</g>
<!-- &#45;14&#45;&gt;2 -->
<g id="edge66" class="edge">
<title>&#45;14&#45;&gt;2</title>
<path fill="none" stroke="red" stroke-width="0.62" d="M497.56,-65.65C498.01,-59.05 498.68,-49.33 499.31,-40.23"/>
<polygon fill="red" stroke="red" stroke-width="0.62" points="502.82,-40.27 500.02,-30.06 495.84,-39.79 502.82,-40.27"/>
</g>
<!-- &#45;14&#45;&gt;3 -->
<g id="edge67" class="edge">
<title>&#45;14&#45;&gt;3</title>
<path fill="none" stroke="green" stroke-width="0.22" d="M484.21,-65.65C469.16,-56.19 443.95,-40.34 426.01,-29.06"/>
<polygon fill="green" stroke="green" stroke-width="0.22" points="427.72,-26 417.39,-23.64 423.99,-31.93 427.72,-26"/>
</g>
<!-- &#45;14&#45;&gt;4 -->
<g id="edge68" class="edge">
<title>&#45;14&#45;&gt;4</title>
<path fill="none" stroke="red" stroke-width="0.71" d="M490.88,-65.65C484.98,-57.89 475.81,-45.84 467.97,-35.53"/>
<polygon fill="red" stroke="red" stroke-width="0.71" points="470.64,-33.26 461.8,-27.42 465.07,-37.5 470.64,-33.26"/>
</g>
<!-- &#45;15 -->
<g id="node15" class="node">
<title>&#45;15</title>
<polygon fill="lightgray" stroke="black" points="558.5,-83.7 529.5,-83.7 529.5,-65.7 558.5,-65.7 558.5,-83.7"/>
<text text-anchor="middle" x="544" y="-72.5" font-family="Times New Roman,serif" font-size="9.00">&#45;15</text>
</g>
<!-- &#45;15&#45;&gt;0 -->
<g id="edge69" class="edge">
<title>&#45;15&#45;&gt;0</title>
<path fill="none" stroke="red" stroke-width="0.1" d="M529.5,-68.3C526.7,-67.36 523.78,-66.44 521,-65.7 438.83,-43.67 412.73,-59.37 333,-29.7 332.13,-29.38 331.26,-29.02 330.39,-28.65"/>
<polygon fill="red" stroke="red" stroke-width="0.1" points="331.81,-25.44 321.32,-24.01 328.62,-31.68 331.81,-25.44"/>
</g>
<!-- &#45;15&#45;&gt;1 -->
<g id="edge70" class="edge">
<title>&#45;15&#45;&gt;1</title>
<path fill="none" stroke="red" stroke-width="0.19" d="M529.46,-68.44C526.67,-67.48 523.75,-66.53 521,-65.7 459.5,-47.13 440.48,-53.98 381,-29.7 380.14,-29.35 379.28,-28.97 378.41,-28.58"/>
<polygon fill="red" stroke="red" stroke-width="0.19" points="379.86,-25.38 369.38,-23.85 376.61,-31.59 379.86,-25.38"/>
</g>
<!-- &#45;15&#45;&gt;2 -->
<g id="edge71" class="edge">
<title>&#45;15&#45;&gt;2</title>
<path fill="none" stroke="green" stroke-width="0.21" d="M538.02,-65.65C532.25,-57.89 523.29,-45.84 515.63,-35.53"/>
<polygon fill="green" stroke="green" stroke-width="0.21" points="518.37,-33.35 509.6,-27.42 512.75,-37.53 518.37,-33.35"/>
</g>
<!-- &#45;15&#45;&gt;3 -->
<g id="edge72" class="edge">
<title>&#45;15&#45;&gt;3</title>
<path fill="none" stroke="green" stroke-width="0.51" d="M529.09,-68.33C502.38,-58.65 447.43,-38.48 429,-29.7 428.16,-29.3 427.32,-28.88 426.47,-28.45"/>
<polygon fill="green" stroke="green" stroke-width="0.51" points="427.96,-25.28 417.5,-23.56 424.61,-31.42 427.96,-25.28"/>
</g>
<!-- &#45;15&#45;&gt;4 -->
<g id="edge73" class="edge">
<title>&#45;15&#45;&gt;4</title>
<path fill="none" stroke="green" stroke-width="0.52" d="M531.35,-65.65C516.46,-56.19 491.52,-40.34 473.78,-29.06"/>
<polygon fill="green" stroke="green" stroke-width="0.52" points="475.57,-26.05 465.25,-23.64 471.82,-31.96 475.57,-26.05"/>
</g>
<!-- &#45;16 -->
<g id="node16" class="node">
<title>&#45;16</title>
<polygon fill="lightgray" stroke="black" points="605.5,-83.7 576.5,-83.7 576.5,-65.7 605.5,-65.7 605.5,-83.7"/>
<text text-anchor="middle" x="591" y="-72.5" font-family="Times New Roman,serif" font-size="9.00">&#45;16</text>
</g>
<!-- &#45;16&#45;&gt;0 -->
<g id="edge74" class="edge">
<title>&#45;16&#45;&gt;0</title>
<path fill="none" stroke="green" stroke-width="0.12" d="M576.03,-68.05C573.38,-67.18 570.63,-66.35 568,-65.7 465.45,-40.24 432.7,-64.71 333,-29.7 332.13,-29.39 331.25,-29.05 330.37,-28.69"/>
<polygon fill="green" stroke="green" stroke-width="0.12" points="331.79,-25.48 321.28,-24.1 328.63,-31.73 331.79,-25.48"/>
</g>
<!-- &#45;16&#45;&gt;1 -->
<g id="edge75" class="edge">
<title>&#45;16&#45;&gt;1</title>
<path fill="none" stroke="red" stroke-width="0.57" d="M576.5,-68.3C573.7,-67.36 570.78,-66.44 568,-65.7 486.26,-43.74 460.31,-59.26 381,-29.7 380.13,-29.38 379.26,-29.02 378.39,-28.65"/>
<polygon fill="red" stroke="red" stroke-width="0.57" points="379.81,-25.44 369.32,-24 376.62,-31.68 379.81,-25.44"/>
</g>
<!-- &#45;16&#45;&gt;2 -->
<g id="edge76" class="edge">
<title>&#45;16&#45;&gt;2</title>
<path fill="none" stroke="red" stroke-width="0.23" d="M578.49,-65.65C563.76,-56.19 539.1,-40.34 521.56,-29.06"/>
<polygon fill="red" stroke="red" stroke-width="0.23" points="523.42,-26.1 513.12,-23.64 519.64,-31.99 523.42,-26.1"/>
</g>
<!-- &#45;16&#45;&gt;3 -->
<g id="edge77" class="edge">
<title>&#45;16&#45;&gt;3</title>
<path fill="none" stroke="green" stroke-width="0.18" d="M576.46,-68.44C573.66,-67.49 570.75,-66.53 568,-65.7 506.92,-47.2 488.06,-53.87 429,-29.7 428.14,-29.35 427.28,-28.97 426.41,-28.58"/>
<polygon fill="green" stroke="green" stroke-width="0.18" points="427.86,-25.38 417.38,-23.84 424.61,-31.58 427.86,-25.38"/>
</g>
<!-- &#45;16&#45;&gt;4 -->
<g id="edge78" class="edge">
<title>&#45;16&#45;&gt;4</title>
<path fill="none" stroke="red" stroke-width="0.38" d="M576.22,-68.32C549.74,-58.63 495.28,-38.44 477,-29.7 476.16,-29.3 475.32,-28.88 474.47,-28.45"/>
<polygon fill="red" stroke="red" stroke-width="0.38" points="475.96,-25.28 465.51,-23.56 472.61,-31.42 475.96,-25.28"/>
</g>
<!-- &#45;17 -->
<g id="node17" class="node">
<title>&#45;17</title>
<polygon fill="lightgray" stroke="black" points="652.5,-83.7 623.5,-83.7 623.5,-65.7 652.5,-65.7 652.5,-83.7"/>
<text text-anchor="middle" x="638" y="-72.5" font-family="Times New Roman,serif" font-size="9.00">&#45;17</text>
</g>
<!-- &#45;17&#45;&gt;0 -->
<g id="edge79" class="edge">
<title>&#45;17&#45;&gt;0</title>
<path fill="none" stroke="red" stroke-width="0.1" d="M623.04,-67.99C620.39,-67.13 617.63,-66.32 615,-65.7 492,-36.79 452.73,-70.06 333,-29.7 332.12,-29.4 331.24,-29.07 330.36,-28.72"/>
<polygon fill="red" stroke="red" stroke-width="0.1" points="331.77,-25.51 321.26,-24.17 328.64,-31.77 331.77,-25.51"/>
</g>
<!-- &#45;17&#45;&gt;1 -->
<g id="edge80" class="edge">
<title>&#45;17&#45;&gt;1</title>
<path fill="none" stroke="green" stroke-width="0.62" d="M623.02,-68.05C620.38,-67.18 617.63,-66.35 615,-65.7 512.89,-40.31 480.27,-64.59 381,-29.7 380.13,-29.39 379.25,-29.05 378.37,-28.69"/>
<polygon fill="green" stroke="green" stroke-width="0.62" points="379.79,-25.48 369.28,-24.1 376.63,-31.73 379.79,-25.48"/>
</g>
<!-- &#45;17&#45;&gt;2 -->
<g id="edge81" class="edge">
<title>&#45;17&#45;&gt;2</title>
<path fill="none" stroke="green" stroke-width="0.57" d="M623.34,-67.51C599.49,-57.44 552.1,-37.43 523.82,-25.48"/>
<polygon fill="green" stroke="green" stroke-width="0.57" points="524.91,-22.15 514.34,-21.48 522.19,-28.6 524.91,-22.15"/>
</g>
<!-- &#45;17&#45;&gt;3 -->
<g id="edge82" class="edge">
<title>&#45;17&#45;&gt;3</title>
<path fill="none" stroke="red" stroke-width="0.34" d="M623.5,-68.3C620.7,-67.36 617.78,-66.45 615,-65.7 533.69,-43.81 507.88,-59.15 429,-29.7 428.13,-29.37 427.26,-29.02 426.39,-28.64"/>
<polygon fill="red" stroke="red" stroke-width="0.34" points="427.81,-25.44 417.32,-24 424.62,-31.67 427.81,-25.44"/>
</g>
<!-- &#45;17&#45;&gt;4 -->
<g id="edge83" class="edge">
<title>&#45;17&#45;&gt;4</title>
<path fill="none" stroke="green" stroke-width="0.71" d="M623.46,-68.44C620.66,-67.49 617.75,-66.53 615,-65.7 554.35,-47.27 535.64,-53.75 477,-29.7 476.14,-29.35 475.28,-28.97 474.42,-28.57"/>
<polygon fill="green" stroke="green" stroke-width="0.71" points="475.86,-25.38 465.38,-23.84 472.61,-31.58 475.86,-25.38"/>
</g>
<!-- &#45;18 -->
<g id="node18" class="node">
<title>&#45;18</title>
<polygon fill="lightgray" stroke="black" points="836.5,-83.7 807.5,-83.7 807.5,-65.7 836.5,-65.7 836.5,-83.7"/>
<text text-anchor="middle" x="822" y="-72.5" font-family="Times New Roman,serif" font-size="9.00">&#45;18</text>
</g>
<!-- &#45;18&#45;&gt;0 -->
<g id="edge84" class="edge">
<title>&#45;18&#45;&gt;0</title>
<path fill="none" stroke="red" stroke-width="0.33" d="M807.43,-68.21C804.35,-67.23 801.1,-66.33 798,-65.7 594.83,-24.62 531.01,-91.02 333,-29.7 331.94,-29.37 330.88,-28.99 329.83,-28.57"/>
<polygon fill="red" stroke="red" stroke-width="0.33" points="331.23,-25.36 320.72,-24.01 328.09,-31.62 331.23,-25.36"/>
</g>
<!-- &#45;18&#45;&gt;2 -->
<g id="edge85" class="edge">
<title>&#45;18&#45;&gt;2</title>
<path fill="none" stroke="red" stroke-width="0.23" d="M807.38,-68.43C804.31,-67.43 801.07,-66.46 798,-65.7 698.5,-40.93 577.15,-24.85 525.82,-18.69"/>
<polygon fill="red" stroke="red" stroke-width="0.23" points="526.03,-15.19 515.69,-17.49 525.21,-22.14 526.03,-15.19"/>
</g>
<!-- &#45;18&#45;&gt;3 -->
<g id="edge86" class="edge">
<title>&#45;18&#45;&gt;3</title>
<path fill="none" stroke="green" stroke-width="0.22" d="M807.42,-68.26C804.34,-67.28 801.09,-66.36 798,-65.7 636.82,-31.43 585.91,-80.01 429,-29.7 427.95,-29.36 426.89,-28.97 425.84,-28.54"/>
<polygon fill="green" stroke="green" stroke-width="0.22" points="427.24,-25.33 416.74,-23.95 424.09,-31.58 427.24,-25.33"/>
</g>
<!-- &#45;18&#45;&gt;4 -->
<g id="edge87" class="edge">
<title>&#45;18&#45;&gt;4</title>
<path fill="none" stroke="red" stroke-width="0.98" d="M807.41,-68.29C804.34,-67.31 801.09,-66.38 798,-65.7 657.8,-34.83 613.38,-74.52 477,-29.7 476.12,-29.41 475.24,-29.09 474.36,-28.73"/>
<polygon fill="red" stroke="red" stroke-width="0.98" points="475.76,-25.52 465.25,-24.21 472.64,-31.79 475.76,-25.52"/>
</g>
<!-- &#45;19 -->
<g id="node19" class="node">
<title>&#45;19</title>
<polygon fill="lightgray" stroke="black" points="699.5,-83.7 670.5,-83.7 670.5,-65.7 699.5,-65.7 699.5,-83.7"/>
<text text-anchor="middle" x="685" y="-72.5" font-family="Times New Roman,serif" font-size="9.00">&#45;19</text>
</g>
<!-- &#45;19&#45;&gt;0 -->
<g id="edge88" class="edge">
<title>&#45;19&#45;&gt;0</title>
<path fill="none" stroke="red" stroke-width="0.26" d="M670.05,-67.95C667.4,-67.09 664.64,-66.29 662,-65.7 518.51,-33.33 472.8,-75.44 333,-29.7 332.12,-29.41 331.24,-29.09 330.36,-28.74"/>
<polygon fill="red" stroke="red" stroke-width="0.26" points="331.76,-25.52 321.24,-24.21 328.64,-31.79 331.76,-25.52"/>
</g>
<!-- &#45;19&#45;&gt;1 -->
<g id="edge89" class="edge">
<title>&#45;19&#45;&gt;1</title>
<path fill="none" stroke="green" stroke-width="0.25" d="M670.04,-67.99C667.39,-67.13 664.63,-66.32 662,-65.7 539.44,-36.86 500.3,-69.95 381,-29.7 380.12,-29.4 379.24,-29.07 378.36,-28.72"/>
<polygon fill="green" stroke="green" stroke-width="0.25" points="379.77,-25.51 369.26,-24.17 376.64,-31.77 379.77,-25.51"/>
</g>
<!-- &#45;19&#45;&gt;2 -->
<g id="edge90" class="edge">
<title>&#45;19&#45;&gt;2</title>
<path fill="none" stroke="green" stroke-width="0.16" d="M670.43,-68.54C667.63,-67.58 664.73,-66.6 662,-65.7 613.55,-49.78 556.44,-32.43 524.92,-22.98"/>
<polygon fill="green" stroke="green" stroke-width="0.16" points="525.85,-19.6 515.27,-20.09 523.84,-26.31 525.85,-19.6"/>
</g>
<!-- &#45;19&#45;&gt;3 -->
<g id="edge91" class="edge">
<title>&#45;19&#45;&gt;3</title>
<path fill="none" stroke="green" stroke-width="0.33" stroke-dasharray="1,5" d="M670.02,-68.05C667.38,-67.18 664.63,-66.35 662,-65.7 560.32,-40.38 527.84,-64.48 429,-29.7 428.13,-29.39 427.25,-29.05 426.37,-28.69"/>
<polygon fill="green" stroke="green" stroke-width="0.33" points="427.79,-25.48 417.28,-24.1 424.63,-31.73 427.79,-25.48"/>
</g>
<!-- &#45;19&#45;&gt;4 -->
<g id="edge92" class="edge">
<title>&#45;19&#45;&gt;4</title>
<path fill="none" stroke="red" stroke-width="0.6" d="M670.5,-68.3C667.7,-67.36 664.78,-66.45 662,-65.7 581.13,-43.88 555.46,-59.03 477,-29.7 476.13,-29.37 475.26,-29.02 474.39,-28.64"/>
<polygon fill="red" stroke="red" stroke-width="0.6" points="475.81,-25.44 465.32,-24 472.62,-31.67 475.81,-25.44"/>
</g>
<!-- &#45;20 -->
<g id="node20" class="node">
<title>&#45;20</title>
<polygon fill="lightgray" stroke="black" points="746.5,-83.7 717.5,-83.7 717.5,-65.7 746.5,-65.7 746.5,-83.7"/>
<text text-anchor="middle" x="732" y="-72.5" font-family="Times New Roman,serif" font-size="9.00">&#45;20</text>
</g>
<!-- &#45;20&#45;&gt;0 -->
<g id="edge93" class="edge">
<title>&#45;20&#45;&gt;0</title>
<path fill="none" stroke="green" stroke-width="0.33" d="M717.05,-67.92C714.4,-67.06 711.64,-66.28 709,-65.7 544.99,-29.87 492.9,-80.82 333,-29.7 331.95,-29.36 330.89,-28.97 329.83,-28.55"/>
<polygon fill="green" stroke="green" stroke-width="0.33" points="331.24,-25.34 320.74,-23.96 328.09,-31.59 331.24,-25.34"/>
</g>
<!-- &#45;20&#45;&gt;1 -->
<g id="edge94" class="edge">
<title>&#45;20&#45;&gt;1</title>
<path fill="none" stroke="red" stroke-width="0.24" d="M717.05,-67.95C714.4,-67.09 711.64,-66.29 709,-65.7 565.95,-33.4 520.38,-75.32 381,-29.7 380.12,-29.41 379.24,-29.09 378.36,-28.74"/>
<polygon fill="red" stroke="red" stroke-width="0.24" points="379.76,-25.52 369.24,-24.21 376.64,-31.79 379.76,-25.52"/>
</g>
<!-- &#45;20&#45;&gt;2 -->
<g id="edge95" class="edge">
<title>&#45;20&#45;&gt;2</title>
<path fill="none" stroke="red" stroke-width="0.17" d="M717.47,-68.4C714.67,-67.45 711.76,-66.51 709,-65.7 643.36,-46.47 564.51,-29.11 525.43,-20.88"/>
<polygon fill="red" stroke="red" stroke-width="0.17" points="526.01,-17.42 515.5,-18.8 524.58,-24.28 526.01,-17.42"/>
</g>
<!-- &#45;20&#45;&gt;3 -->
<g id="edge96" class="edge">
<title>&#45;20&#45;&gt;3</title>
<path fill="none" stroke="green" stroke-width="0.13" d="M717.04,-68C714.39,-67.13 711.63,-66.32 709,-65.7 586.87,-36.94 547.88,-69.84 429,-29.7 428.12,-29.4 427.24,-29.07 426.36,-28.72"/>
<polygon fill="green" stroke="green" stroke-width="0.13" points="427.77,-25.51 417.26,-24.16 424.64,-31.77 427.77,-25.51"/>
</g>
<!-- &#45;20&#45;&gt;4 -->
<g id="edge97" class="edge">
<title>&#45;20&#45;&gt;4</title>
<path fill="none" stroke="red" stroke-width="0.53" d="M717.02,-68.05C714.38,-67.18 711.63,-66.35 709,-65.7 607.75,-40.46 575.42,-64.36 477,-29.7 476.13,-29.39 475.25,-29.05 474.37,-28.69"/>
<polygon fill="red" stroke="red" stroke-width="0.53" points="475.79,-25.48 465.28,-24.1 472.63,-31.73 475.79,-25.48"/>
</g>
</g>
</svg>
