<?xml version="1.0" encoding="UTF-8" standalone="no"?>
<!DOCTYPE svg PUBLIC "-//W3C//DTD SVG 1.1//EN"
 "http://www.w3.org/Graphics/SVG/1.1/DTD/svg11.dtd">
<!-- Generated by graphviz version 2.49.0 (20210828.1703)
 -->
<!-- Pages: 1 -->
<svg width="1789pt" height="348pt"
 viewBox="0.00 0.00 1789.47 348.19" xmlns="http://www.w3.org/2000/svg" xmlns:xlink="http://www.w3.org/1999/xlink">
<g id="graph0" class="graph" transform="scale(1 1) rotate(0) translate(4 344.19)">
<polygon fill="white" stroke="transparent" points="-4,4 -4,-344.19 1785.47,-344.19 1785.47,4 -4,4"/>
<!-- &#45;1 -->
<g id="node1" class="node">
<title>&#45;1</title>
<polygon fill="lightgray" stroke="black" points="686.75,-270.44 662.75,-270.44 662.75,-252.44 686.75,-252.44 686.75,-270.44"/>
<text text-anchor="middle" x="674.75" y="-259.24" font-family="Times New Roman,serif" font-size="9.00">&#45;1</text>
</g>
<!-- 864 -->
<g id="node26" class="node">
<title>864</title>
<ellipse fill="white" stroke="black" cx="687.75" cy="-90.45" rx="21.43" ry="21.43"/>
<text text-anchor="middle" x="687.75" y="-88.25" font-family="Times New Roman,serif" font-size="9.00">864</text>
</g>
<!-- &#45;1&#45;&gt;864 -->
<g id="edge4" class="edge">
<title>&#45;1&#45;&gt;864</title>
<path fill="none" stroke="red" stroke-width="0.88" d="M675.38,-252.29C677.16,-229.1 682.33,-161.86 685.4,-122.04"/>
<polygon fill="red" stroke="red" stroke-width="0.88" points="688.9,-122.07 686.18,-111.83 681.92,-121.53 688.9,-122.07"/>
</g>
<!-- 866 -->
<g id="node28" class="node">
<title>866</title>
<ellipse fill="white" stroke="black" cx="642.75" cy="-175.94" rx="21.43" ry="21.43"/>
<text text-anchor="middle" x="642.75" y="-173.74" font-family="Times New Roman,serif" font-size="9.00">866</text>
</g>
<!-- &#45;1&#45;&gt;866 -->
<g id="edge5" class="edge">
<title>&#45;1&#45;&gt;866</title>
<path fill="none" stroke="red" stroke-width="0.17" stroke-dasharray="1,5" d="M671.68,-252.44C667.59,-241.75 660.12,-222.27 653.8,-205.77"/>
<polygon fill="red" stroke="red" stroke-width="0.17" points="656.9,-204.08 650.05,-195.99 650.36,-206.58 656.9,-204.08"/>
</g>
<!-- 868 -->
<g id="node29" class="node">
<title>868</title>
<ellipse fill="white" stroke="black" cx="1050.75" cy="-175.94" rx="21.43" ry="21.43"/>
<text text-anchor="middle" x="1050.75" y="-173.74" font-family="Times New Roman,serif" font-size="9.00">868</text>
</g>
<!-- &#45;1&#45;&gt;868 -->
<g id="edge6" class="edge">
<title>&#45;1&#45;&gt;868</title>
<path fill="none" stroke="green" stroke-width="0.29" d="M680.26,-252.02C684.2,-246.73 689.98,-240.25 696.75,-236.69 795.34,-184.88 835.22,-220.88 944.75,-200.69 970.29,-195.98 999.03,-189.47 1020.14,-184.45"/>
<polygon fill="green" stroke="green" stroke-width="0.29" points="1021.22,-187.79 1030.13,-182.05 1019.59,-180.99 1021.22,-187.79"/>
</g>
<!-- 860 -->
<g id="node35" class="node">
<title>860</title>
<ellipse fill="white" stroke="black" cx="914.75" cy="-175.94" rx="21.43" ry="21.43"/>
<text text-anchor="middle" x="914.75" y="-173.74" font-family="Times New Roman,serif" font-size="9.00">860</text>
</g>
<!-- &#45;1&#45;&gt;860 -->
<g id="edge1" class="edge">
<title>&#45;1&#45;&gt;860</title>
<path fill="none" stroke="red" stroke-width="0.25" d="M680.41,-252.29C684.41,-247.11 690.21,-240.66 696.75,-236.69 712.93,-226.87 828.61,-197.9 884.57,-184.24"/>
<polygon fill="red" stroke="red" stroke-width="0.25" points="885.4,-187.64 894.29,-181.87 883.74,-180.84 885.4,-187.64"/>
</g>
<!-- 861 -->
<g id="node36" class="node">
<title>861</title>
<ellipse fill="white" stroke="black" cx="544.75" cy="-175.94" rx="21.43" ry="21.43"/>
<text text-anchor="middle" x="544.75" y="-173.74" font-family="Times New Roman,serif" font-size="9.00">861</text>
</g>
<!-- &#45;1&#45;&gt;861 -->
<g id="edge2" class="edge">
<title>&#45;1&#45;&gt;861</title>
<path fill="none" stroke="green" stroke-width="0.21" d="M668.74,-252.32C664.83,-247.4 659.42,-241.23 653.75,-236.69 628.82,-216.77 596.32,-199.93 573.31,-189.26"/>
<polygon fill="green" stroke="green" stroke-width="0.21" points="574.64,-186.01 564.09,-185.07 571.75,-192.39 574.64,-186.01"/>
</g>
<!-- 862 -->
<g id="node37" class="node">
<title>862</title>
<ellipse fill="white" stroke="black" cx="778.75" cy="-175.94" rx="21.43" ry="21.43"/>
<text text-anchor="middle" x="778.75" y="-173.74" font-family="Times New Roman,serif" font-size="9.00">862</text>
</g>
<!-- &#45;1&#45;&gt;862 -->
<g id="edge3" class="edge">
<title>&#45;1&#45;&gt;862</title>
<path fill="none" stroke="red" stroke-width="0.18" d="M681.72,-252.15C685.87,-247.41 691.37,-241.47 696.75,-236.69 714.41,-220.99 736.08,-205.34 752.71,-194"/>
<polygon fill="red" stroke="red" stroke-width="0.18" points="755.03,-196.65 761.37,-188.16 751.12,-190.85 755.03,-196.65"/>
</g>
<!-- &#45;2 -->
<g id="node2" class="node">
<title>&#45;2</title>
<polygon fill="lightgray" stroke="black" points="522.75,-270.44 498.75,-270.44 498.75,-252.44 522.75,-252.44 522.75,-270.44"/>
<text text-anchor="middle" x="510.75" y="-259.24" font-family="Times New Roman,serif" font-size="9.00">&#45;2</text>
</g>
<!-- &#45;2&#45;&gt;864 -->
<g id="edge10" class="edge">
<title>&#45;2&#45;&gt;864</title>
<path fill="none" stroke="green" stroke-width="0.19" d="M506.94,-252.35C498.37,-232.81 480.03,-182.41 502.75,-151.2 538,-102.77 613.28,-92.77 656.15,-91.19"/>
<polygon fill="green" stroke="green" stroke-width="0.19" points="656.39,-94.69 666.31,-90.96 656.23,-87.69 656.39,-94.69"/>
</g>
<!-- 865 -->
<g id="node27" class="node">
<title>865</title>
<ellipse fill="white" stroke="black" cx="1271.75" cy="-90.45" rx="21.43" ry="21.43"/>
<text text-anchor="middle" x="1271.75" y="-88.25" font-family="Times New Roman,serif" font-size="9.00">865</text>
</g>
<!-- &#45;2&#45;&gt;865 -->
<g id="edge11" class="edge">
<title>&#45;2&#45;&gt;865</title>
<path fill="none" stroke="red" stroke-width="0.22" d="M507.86,-252.21C501.32,-231.92 487.95,-179.14 514.75,-151.2 527.53,-137.86 1098.34,-102.07 1240.12,-93.37"/>
<polygon fill="red" stroke="red" stroke-width="0.22" points="1240.55,-96.85 1250.32,-92.75 1240.12,-89.87 1240.55,-96.85"/>
</g>
<!-- &#45;2&#45;&gt;866 -->
<g id="edge12" class="edge">
<title>&#45;2&#45;&gt;866</title>
<path fill="none" stroke="red" stroke-width="0.11" d="M519,-252.01C523.91,-247.22 530.41,-241.28 536.75,-236.69 561.79,-218.56 592.84,-201.64 614.85,-190.46"/>
<polygon fill="red" stroke="red" stroke-width="0.11" points="616.6,-193.5 623.97,-185.89 613.46,-187.24 616.6,-193.5"/>
</g>
<!-- &#45;2&#45;&gt;860 -->
<g id="edge7" class="edge">
<title>&#45;2&#45;&gt;860</title>
<path fill="none" stroke="red" stroke-width="0.39" d="M523.12,-254.48C534.86,-249.05 553.13,-241.22 569.75,-236.69 673.39,-208.45 703.16,-220.45 808.75,-200.69 834.28,-195.92 863.02,-189.41 884.13,-184.41"/>
<polygon fill="red" stroke="red" stroke-width="0.39" points="885.21,-187.75 894.12,-182.02 883.58,-180.94 885.21,-187.75"/>
</g>
<!-- &#45;2&#45;&gt;861 -->
<g id="edge8" class="edge">
<title>&#45;2&#45;&gt;861</title>
<path fill="none" stroke="green" stroke-width="0.12" d="M514.01,-252.44C518.4,-241.65 526.44,-221.9 533.2,-205.31"/>
<polygon fill="green" stroke="green" stroke-width="0.12" points="536.46,-206.57 536.99,-195.99 529.98,-203.93 536.46,-206.57"/>
</g>
<!-- &#45;2&#45;&gt;862 -->
<g id="edge9" class="edge">
<title>&#45;2&#45;&gt;862</title>
<path fill="none" stroke="green" stroke-width="0.75" d="M522.81,-255.16C534.64,-250.08 553.25,-242.36 569.75,-236.69 632.47,-215.17 707.55,-195.05 748.47,-184.54"/>
<polygon fill="green" stroke="green" stroke-width="0.75" points="749.53,-187.88 758.36,-182.02 747.8,-181.1 749.53,-187.88"/>
</g>
<!-- &#45;3 -->
<g id="node3" class="node">
<title>&#45;3</title>
<polygon fill="lightgray" stroke="black" points="385.75,-270.44 361.75,-270.44 361.75,-252.44 385.75,-252.44 385.75,-270.44"/>
<text text-anchor="middle" x="373.75" y="-259.24" font-family="Times New Roman,serif" font-size="9.00">&#45;3</text>
</g>
<!-- &#45;3&#45;&gt;864 -->
<g id="edge14" class="edge">
<title>&#45;3&#45;&gt;864</title>
<path fill="none" stroke="green" stroke-width="0.52" d="M368.1,-252.28C364.1,-247.09 358.3,-240.63 351.75,-236.69 298.16,-204.48 253.89,-250.24 215.75,-200.69 202.33,-183.26 201.2,-167.7 215.75,-151.2 244.99,-118.01 555.73,-98.53 656.44,-93.05"/>
<polygon fill="green" stroke="green" stroke-width="0.52" points="656.79,-96.54 666.59,-92.51 656.41,-89.55 656.79,-96.54"/>
</g>
<!-- &#45;3&#45;&gt;865 -->
<g id="edge15" class="edge">
<title>&#45;3&#45;&gt;865</title>
<path fill="none" stroke="green" stroke-width="0.61" d="M374.98,-252.35C378.65,-231.42 391.56,-175.49 427.75,-151.2 444.96,-139.64 1088.7,-101.97 1240.1,-93.26"/>
<polygon fill="green" stroke="green" stroke-width="0.61" points="1240.74,-96.73 1250.52,-92.66 1240.34,-89.74 1240.74,-96.73"/>
</g>
<!-- &#45;3&#45;&gt;866 -->
<g id="edge16" class="edge">
<title>&#45;3&#45;&gt;866</title>
<path fill="none" stroke="green" stroke-width="0.28" d="M378.99,-252.14C382.74,-246.9 388.26,-240.43 394.75,-236.69 465.47,-196.01 496.05,-222.19 574.75,-200.69 587.75,-197.14 601.87,-192.37 613.85,-188.03"/>
<polygon fill="green" stroke="green" stroke-width="0.28" points="615.17,-191.28 623.34,-184.53 612.74,-184.71 615.17,-191.28"/>
</g>
<!-- &#45;3&#45;&gt;868 -->
<g id="edge17" class="edge">
<title>&#45;3&#45;&gt;868</title>
<path fill="none" stroke="green" stroke-width="0.12" d="M378.52,-252.32C382.2,-246.87 387.83,-240.09 394.75,-236.69 504.71,-182.75 823.51,-218.13 944.75,-200.69 970.46,-196.99 999.19,-190.4 1020.24,-185.1"/>
<polygon fill="green" stroke="green" stroke-width="0.12" points="1021.39,-188.42 1030.21,-182.54 1019.65,-181.64 1021.39,-188.42"/>
</g>
<!-- &#45;3&#45;&gt;861 -->
<g id="edge13" class="edge">
<title>&#45;3&#45;&gt;861</title>
<path fill="none" stroke="red" stroke-width="0.25" d="M379.57,-252.07C383.41,-247.06 388.81,-240.87 394.75,-236.69 432.04,-210.47 482.48,-193.45 514.32,-184.53"/>
<polygon fill="red" stroke="red" stroke-width="0.25" points="515.62,-187.8 524.36,-181.81 513.79,-181.05 515.62,-187.8"/>
</g>
<!-- &#45;4 -->
<g id="node4" class="node">
<title>&#45;4</title>
<polygon fill="lightgray" stroke="black" points="602.75,-270.44 578.75,-270.44 578.75,-252.44 602.75,-252.44 602.75,-270.44"/>
<text text-anchor="middle" x="590.75" y="-259.24" font-family="Times New Roman,serif" font-size="9.00">&#45;4</text>
</g>
<!-- &#45;4&#45;&gt;864 -->
<g id="edge20" class="edge">
<title>&#45;4&#45;&gt;864</title>
<path fill="none" stroke="red" stroke-width="0.41" d="M578.72,-255.24C560.88,-246.78 528.1,-228.17 514.75,-200.69 505.13,-180.91 501.98,-169.11 514.75,-151.2 547,-105.94 615.91,-94.63 656.35,-92.01"/>
<polygon fill="red" stroke="red" stroke-width="0.41" points="656.66,-95.5 666.47,-91.5 656.3,-88.51 656.66,-95.5"/>
</g>
<!-- &#45;4&#45;&gt;866 -->
<g id="edge21" class="edge">
<title>&#45;4&#45;&gt;866</title>
<path fill="none" stroke="red" stroke-width="0.27" d="M595.73,-252.44C602.73,-241.21 615.78,-220.26 626.35,-203.27"/>
<polygon fill="red" stroke="red" stroke-width="0.27" points="629.61,-204.66 631.92,-194.33 623.67,-200.96 629.61,-204.66"/>
</g>
<!-- &#45;4&#45;&gt;868 -->
<g id="edge22" class="edge">
<title>&#45;4&#45;&gt;868</title>
<path fill="none" stroke="red" stroke-width="0.16" d="M595.56,-252.41C599.27,-247 604.9,-240.23 611.75,-236.69 743.98,-168.32 797.88,-225 944.75,-200.69 970.37,-196.45 999.11,-189.9 1020.19,-184.75"/>
<polygon fill="red" stroke="red" stroke-width="0.16" points="1021.3,-188.08 1030.17,-182.28 1019.62,-181.29 1021.3,-188.08"/>
</g>
<!-- &#45;4&#45;&gt;861 -->
<g id="edge18" class="edge">
<title>&#45;4&#45;&gt;861</title>
<path fill="none" stroke="green" stroke-width="0.64" stroke-dasharray="1,5" d="M586.34,-252.44C580.23,-241.35 568.89,-220.77 559.6,-203.9"/>
<polygon fill="green" stroke="green" stroke-width="0.64" points="562.58,-202.06 554.69,-194.99 556.45,-205.43 562.58,-202.06"/>
</g>
<!-- &#45;4&#45;&gt;862 -->
<g id="edge19" class="edge">
<title>&#45;4&#45;&gt;862</title>
<path fill="none" stroke="green" stroke-width="0.41" d="M596.52,-251.99C600.34,-246.95 605.73,-240.77 611.75,-236.69 654.38,-207.83 712.57,-191.18 747.8,-183.1"/>
<polygon fill="green" stroke="green" stroke-width="0.41" points="748.94,-186.44 757.95,-180.87 747.43,-179.6 748.94,-186.44"/>
</g>
<!-- &#45;5 -->
<g id="node5" class="node">
<title>&#45;5</title>
<polygon fill="lightgray" stroke="black" points="1193.75,-270.44 1169.75,-270.44 1169.75,-252.44 1193.75,-252.44 1193.75,-270.44"/>
<text text-anchor="middle" x="1181.75" y="-259.24" font-family="Times New Roman,serif" font-size="9.00">&#45;5</text>
</g>
<!-- 1 -->
<g id="node22" class="node">
<title>1</title>
<ellipse fill="lightblue" stroke="black" cx="842.75" cy="-14.85" rx="14.7" ry="14.7"/>
<text text-anchor="middle" x="842.75" y="-12.65" font-family="Times New Roman,serif" font-size="9.00">1</text>
</g>
<!-- &#45;5&#45;&gt;1 -->
<g id="edge163" class="edge">
<title>&#45;5&#45;&gt;1</title>
<path fill="none" stroke="red" stroke-width="0.8" d="M1187.27,-252.05C1191.21,-246.76 1197,-240.28 1203.75,-236.69 1295.88,-187.7 1367.86,-279.93 1435.75,-200.69 1450.06,-183.99 1446.32,-170.49 1435.75,-151.2 1401.79,-89.25 1368.45,-88.99 1301.75,-65.7 1156.2,-14.88 1109.94,-47 956.75,-29.7 925.96,-26.22 890.55,-21.86 867.47,-18.97"/>
<polygon fill="red" stroke="red" stroke-width="0.8" points="867.85,-15.5 857.5,-17.72 866.98,-22.44 867.85,-15.5"/>
</g>
<!-- &#45;5&#45;&gt;865 -->
<g id="edge25" class="edge">
<title>&#45;5&#45;&gt;865</title>
<path fill="none" stroke="green" stroke-width="0.16" d="M1187.29,-252.07C1191.23,-246.8 1197.02,-240.33 1203.75,-236.69 1288.61,-190.87 1355.46,-274.33 1417.75,-200.69 1431.96,-183.9 1430.01,-169.46 1417.75,-151.2 1392.23,-113.17 1337.76,-99.33 1303.05,-94.3"/>
<polygon fill="green" stroke="green" stroke-width="0.16" points="1303.33,-90.81 1292.96,-93.01 1302.44,-97.75 1303.33,-90.81"/>
</g>
<!-- &#45;5&#45;&gt;866 -->
<g id="edge26" class="edge">
<title>&#45;5&#45;&gt;866</title>
<path fill="none" stroke="green" stroke-width="0.17" d="M1176.96,-252.37C1173.26,-246.94 1167.63,-240.16 1160.75,-236.69 1078.68,-195.32 839.57,-214.77 748.75,-200.69 723.08,-196.71 694.35,-190.14 673.28,-184.92"/>
<polygon fill="green" stroke="green" stroke-width="0.17" points="673.86,-181.46 663.31,-182.41 672.15,-188.25 673.86,-181.46"/>
</g>
<!-- &#45;5&#45;&gt;868 -->
<g id="edge27" class="edge">
<title>&#45;5&#45;&gt;868</title>
<path fill="none" stroke="red" stroke-width="0.37" d="M1175.74,-252.31C1171.84,-247.39 1166.43,-241.22 1160.75,-236.69 1135.6,-216.68 1102.8,-199.85 1079.58,-189.21"/>
<polygon fill="red" stroke="red" stroke-width="0.37" points="1080.83,-185.93 1070.27,-185.03 1077.96,-192.32 1080.83,-185.93"/>
</g>
<!-- &#45;5&#45;&gt;860 -->
<g id="edge23" class="edge">
<title>&#45;5&#45;&gt;860</title>
<path fill="none" stroke="green" stroke-width="0.16" d="M1176.46,-252.23C1172.69,-247.02 1167.16,-240.56 1160.75,-236.69 1151.43,-231.08 1009.4,-198.41 945.5,-183.9"/>
<polygon fill="green" stroke="green" stroke-width="0.16" points="946.11,-180.45 935.59,-181.65 944.56,-187.27 946.11,-180.45"/>
</g>
<!-- &#45;5&#45;&gt;862 -->
<g id="edge24" class="edge">
<title>&#45;5&#45;&gt;862</title>
<path fill="none" stroke="red" stroke-width="0.17" d="M1176.59,-251.99C1172.87,-246.69 1167.36,-240.2 1160.75,-236.69 1051.5,-178.67 1006.56,-222.24 884.75,-200.69 859.17,-196.17 830.43,-189.64 809.34,-184.57"/>
<polygon fill="red" stroke="red" stroke-width="0.17" points="809.9,-181.11 799.35,-182.14 808.24,-187.91 809.9,-181.11"/>
</g>
<!-- &#45;6 -->
<g id="node6" class="node">
<title>&#45;6</title>
<polygon fill="lightgray" stroke="black" points="967.75,-270.44 943.75,-270.44 943.75,-252.44 967.75,-252.44 967.75,-270.44"/>
<text text-anchor="middle" x="955.75" y="-259.24" font-family="Times New Roman,serif" font-size="9.00">&#45;6</text>
</g>
<!-- &#45;6&#45;&gt;864 -->
<g id="edge31" class="edge">
<title>&#45;6&#45;&gt;864</title>
<path fill="none" stroke="red" stroke-width="0.11" d="M957.82,-252.3C962.4,-232.22 971.01,-179.87 944.75,-151.2 887,-88.13 838.34,-137.35 755.75,-115.2 742.73,-111.7 728.61,-106.94 716.64,-102.6"/>
<polygon fill="red" stroke="red" stroke-width="0.11" points="717.74,-99.27 707.15,-99.08 715.31,-105.84 717.74,-99.27"/>
</g>
<!-- &#45;6&#45;&gt;865 -->
<g id="edge32" class="edge">
<title>&#45;6&#45;&gt;865</title>
<path fill="none" stroke="green" stroke-width="0.55" d="M961.17,-252.42C964.99,-247.3 970.53,-240.86 976.75,-236.69 1017.39,-209.48 1037.47,-223.49 1080.75,-200.69 1113.51,-183.44 1116.04,-170.31 1147.75,-151.2 1164.83,-140.9 1212.36,-118.62 1243.37,-104.37"/>
<polygon fill="green" stroke="green" stroke-width="0.55" points="1245.16,-107.4 1252.79,-100.05 1242.24,-101.04 1245.16,-107.4"/>
</g>
<!-- &#45;6&#45;&gt;866 -->
<g id="edge33" class="edge">
<title>&#45;6&#45;&gt;866</title>
<path fill="none" stroke="red" stroke-width="0.15" d="M943.74,-254.98C931.96,-249.77 913.38,-241.96 896.75,-236.69 875.47,-229.95 736.39,-198.17 673.52,-183.91"/>
<polygon fill="red" stroke="red" stroke-width="0.15" points="673.94,-180.41 663.41,-181.62 672.39,-187.24 673.94,-180.41"/>
</g>
<!-- &#45;6&#45;&gt;868 -->
<g id="edge34" class="edge">
<title>&#45;6&#45;&gt;868</title>
<path fill="none" stroke="red" stroke-width="0.53" d="M962.43,-252.22C966.41,-247.5 971.66,-241.56 976.75,-236.69 992.21,-221.91 1010.98,-206.78 1025.74,-195.45"/>
<polygon fill="red" stroke="red" stroke-width="0.53" points="1028.07,-198.08 1033.92,-189.25 1023.84,-192.5 1028.07,-198.08"/>
</g>
<!-- &#45;6&#45;&gt;860 -->
<g id="edge28" class="edge">
<title>&#45;6&#45;&gt;860</title>
<path fill="none" stroke="green" stroke-width="0.14" d="M951.82,-252.44C946.46,-241.52 936.58,-221.4 928.37,-204.68"/>
<polygon fill="green" stroke="green" stroke-width="0.14" points="931.32,-202.75 923.77,-195.32 925.04,-205.84 931.32,-202.75"/>
</g>
<!-- &#45;6&#45;&gt;861 -->
<g id="edge29" class="edge">
<title>&#45;6&#45;&gt;861</title>
<path fill="none" stroke="red" stroke-width="0.56" stroke-dasharray="1,5" d="M943.41,-254.39C931.68,-248.9 913.42,-241.03 896.75,-236.69 773.61,-204.68 736.6,-229.83 612.75,-200.69 599.63,-197.61 585.49,-192.91 573.53,-188.5"/>
<polygon fill="red" stroke="red" stroke-width="0.56" points="574.66,-185.18 564.07,-184.91 572.18,-191.73 574.66,-185.18"/>
</g>
<!-- &#45;6&#45;&gt;862 -->
<g id="edge30" class="edge">
<title>&#45;6&#45;&gt;862</title>
<path fill="none" stroke="green" stroke-width="0.23" d="M943.58,-254.7C915.65,-241.52 846.3,-208.81 807.03,-190.29"/>
<polygon fill="green" stroke="green" stroke-width="0.23" points="808.28,-187 797.74,-185.9 805.29,-193.33 808.28,-187"/>
</g>
<!-- &#45;7 -->
<g id="node7" class="node">
<title>&#45;7</title>
<polygon fill="lightgray" stroke="black" points="644.75,-270.44 620.75,-270.44 620.75,-252.44 644.75,-252.44 644.75,-270.44"/>
<text text-anchor="middle" x="632.75" y="-259.24" font-family="Times New Roman,serif" font-size="9.00">&#45;7</text>
</g>
<!-- &#45;7&#45;&gt;864 -->
<g id="edge38" class="edge">
<title>&#45;7&#45;&gt;864</title>
<path fill="none" stroke="green" stroke-width="0.49" d="M628.05,-252.32C617.85,-233.54 595.92,-186.11 612.75,-151.2 622.51,-130.95 642.83,-115.44 659.86,-105.3"/>
<polygon fill="green" stroke="green" stroke-width="0.49" points="661.89,-108.18 668.9,-100.23 658.46,-102.07 661.89,-108.18"/>
</g>
<!-- &#45;7&#45;&gt;866 -->
<g id="edge39" class="edge">
<title>&#45;7&#45;&gt;866</title>
<path fill="none" stroke="green" stroke-width="0.2" d="M633.71,-252.44C634.94,-242.12 637.16,-223.61 639.09,-207.49"/>
<polygon fill="green" stroke="green" stroke-width="0.2" points="642.59,-207.71 640.3,-197.36 635.64,-206.87 642.59,-207.71"/>
</g>
<!-- &#45;7&#45;&gt;868 -->
<g id="edge40" class="edge">
<title>&#45;7&#45;&gt;868</title>
<path fill="none" stroke="green" stroke-width="0.38" stroke-dasharray="1,5" d="M637.9,-251.98C641.61,-246.67 647.13,-240.18 653.75,-236.69 769.04,-175.95 816.35,-222.97 944.75,-200.69 970.34,-196.25 999.08,-189.72 1020.17,-184.63"/>
<polygon fill="green" stroke="green" stroke-width="0.38" points="1021.27,-187.96 1030.15,-182.18 1019.6,-181.16 1021.27,-187.96"/>
</g>
<!-- &#45;7&#45;&gt;860 -->
<g id="edge35" class="edge">
<title>&#45;7&#45;&gt;860</title>
<path fill="none" stroke="green" stroke-width="0.7" d="M638.02,-252.2C641.79,-246.98 647.31,-240.52 653.75,-236.69 656.26,-235.2 816,-199.16 884.31,-183.79"/>
<polygon fill="green" stroke="green" stroke-width="0.7" points="885.08,-187.2 894.07,-181.59 883.55,-180.37 885.08,-187.2"/>
</g>
<!-- &#45;7&#45;&gt;861 -->
<g id="edge36" class="edge">
<title>&#45;7&#45;&gt;861</title>
<path fill="none" stroke="green" stroke-width="0.14" d="M625.98,-252.31C621.97,-247.62 616.72,-241.69 611.75,-236.69 597.91,-222.79 581.48,-208.12 568.35,-196.79"/>
<polygon fill="green" stroke="green" stroke-width="0.14" points="570.53,-194.05 560.66,-190.2 565.98,-199.37 570.53,-194.05"/>
</g>
<!-- &#45;7&#45;&gt;862 -->
<g id="edge37" class="edge">
<title>&#45;7&#45;&gt;862</title>
<path fill="none" stroke="green" stroke-width="0.24" d="M638.67,-252.2C642.55,-247.25 647.95,-241.07 653.75,-236.69 683.37,-214.34 722.69,-197.23 749.26,-187.16"/>
<polygon fill="green" stroke="green" stroke-width="0.24" points="750.6,-190.4 758.77,-183.65 748.18,-183.83 750.6,-190.4"/>
</g>
<!-- &#45;8 -->
<g id="node8" class="node">
<title>&#45;8</title>
<polygon fill="lightgray" stroke="black" points="1009.75,-270.44 985.75,-270.44 985.75,-252.44 1009.75,-252.44 1009.75,-270.44"/>
<text text-anchor="middle" x="997.75" y="-259.24" font-family="Times New Roman,serif" font-size="9.00">&#45;8</text>
</g>
<!-- &#45;8&#45;&gt;864 -->
<g id="edge44" class="edge">
<title>&#45;8&#45;&gt;864</title>
<path fill="none" stroke="red" stroke-width="0.16" stroke-dasharray="1,5" d="M1004.17,-252.4C1008.3,-247.52 1013.97,-241.35 1019.75,-236.69 1044.26,-216.94 1065.14,-228.03 1080.75,-200.69 1091.66,-181.59 1095.42,-167.59 1080.75,-151.2 1032.28,-97.06 826.61,-131.28 755.75,-115.2 742.6,-112.21 728.47,-107.53 716.51,-103.11"/>
<polygon fill="red" stroke="red" stroke-width="0.16" points="717.64,-99.79 707.05,-99.5 715.14,-106.33 717.64,-99.79"/>
</g>
<!-- &#45;8&#45;&gt;865 -->
<g id="edge45" class="edge">
<title>&#45;8&#45;&gt;865</title>
<path fill="none" stroke="green" stroke-width="0.64" d="M1003.41,-252.29C1007.41,-247.11 1013.21,-240.66 1019.75,-236.69 1071.75,-205.17 1098.45,-229.97 1151.75,-200.69 1192.12,-178.51 1229.88,-140.1 1251.89,-115.23"/>
<polygon fill="green" stroke="green" stroke-width="0.64" points="1254.81,-117.21 1258.73,-107.37 1249.53,-112.62 1254.81,-117.21"/>
</g>
<!-- &#45;8&#45;&gt;866 -->
<g id="edge46" class="edge">
<title>&#45;8&#45;&gt;866</title>
<path fill="none" stroke="red" stroke-width="0.86" stroke-dasharray="1,5" d="M992.56,-252.05C988.83,-246.77 983.31,-240.29 976.75,-236.69 886.8,-187.36 849.52,-219.92 748.75,-200.69 723.23,-195.83 694.49,-189.32 673.38,-184.35"/>
<polygon fill="red" stroke="red" stroke-width="0.86" points="673.92,-180.88 663.39,-181.98 672.31,-187.69 673.92,-180.88"/>
</g>
<!-- &#45;8&#45;&gt;868 -->
<g id="edge47" class="edge">
<title>&#45;8&#45;&gt;868</title>
<path fill="none" stroke="green" stroke-width="0.52" d="M1002.83,-252.44C1010.02,-241.1 1023.5,-219.87 1034.34,-202.8"/>
<polygon fill="green" stroke="green" stroke-width="0.52" points="1037.31,-204.64 1039.72,-194.33 1031.4,-200.89 1037.31,-204.64"/>
</g>
<!-- &#45;8&#45;&gt;860 -->
<g id="edge41" class="edge">
<title>&#45;8&#45;&gt;860</title>
<path fill="none" stroke="green" stroke-width="0.41" d="M990.9,-252.38C986.87,-247.72 981.62,-241.78 976.75,-236.69 964.02,-223.41 949.21,-209.09 937.25,-197.8"/>
<polygon fill="green" stroke="green" stroke-width="0.41" points="939.54,-195.16 929.86,-190.86 934.75,-200.26 939.54,-195.16"/>
</g>
<!-- &#45;8&#45;&gt;861 -->
<g id="edge42" class="edge">
<title>&#45;8&#45;&gt;861</title>
<path fill="none" stroke="green" stroke-width="0.21" d="M992.95,-252.39C989.25,-246.98 983.61,-240.2 976.75,-236.69 832.01,-162.68 771.49,-235.74 612.75,-200.69 599.58,-197.79 585.45,-193.12 573.49,-188.68"/>
<polygon fill="green" stroke="green" stroke-width="0.21" points="574.62,-185.37 564.03,-185.06 572.12,-191.9 574.62,-185.37"/>
</g>
<!-- &#45;8&#45;&gt;862 -->
<g id="edge43" class="edge">
<title>&#45;8&#45;&gt;862</title>
<path fill="none" stroke="green" stroke-width="0.28" d="M992.39,-252.34C988.58,-247.18 983.05,-240.73 976.75,-236.69 948.73,-218.73 857.45,-195.45 809.23,-183.97"/>
<polygon fill="green" stroke="green" stroke-width="0.28" points="809.89,-180.53 799.35,-181.64 808.28,-187.35 809.89,-180.53"/>
</g>
<!-- &#45;9 -->
<g id="node9" class="node">
<title>&#45;9</title>
<polygon fill="lightgray" stroke="black" points="841.75,-340.19 817.75,-340.19 817.75,-322.19 841.75,-322.19 841.75,-340.19"/>
<text text-anchor="middle" x="829.75" y="-328.99" font-family="Times New Roman,serif" font-size="9.00">&#45;9</text>
</g>
<!-- &#45;9&#45;&gt;864 -->
<g id="edge51" class="edge">
<title>&#45;9&#45;&gt;864</title>
<path fill="none" stroke="green" stroke-width="0.18" d="M841.88,-329.79C958.33,-325.79 1871.42,-289.86 1737.75,-151.2 1699.86,-111.89 809.4,-125.31 755.75,-115.2 742.5,-112.7 728.35,-108.09 716.41,-103.6"/>
<polygon fill="green" stroke="green" stroke-width="0.18" points="717.55,-100.29 706.96,-99.9 715,-106.8 717.55,-100.29"/>
</g>
<!-- &#45;9&#45;&gt;865 -->
<g id="edge52" class="edge">
<title>&#45;9&#45;&gt;865</title>
<path fill="none" stroke="red" stroke-width="1.08" d="M841.8,-329.51C947.14,-323.44 1708.88,-276.98 1770.75,-200.69 1784.6,-183.61 1785.35,-167.65 1770.75,-151.2 1739.57,-116.06 1407.65,-97.75 1303.1,-92.83"/>
<polygon fill="red" stroke="red" stroke-width="1.08" points="1303.03,-89.32 1292.88,-92.36 1302.7,-96.31 1303.03,-89.32"/>
</g>
<!-- &#45;9&#45;&gt;866 -->
<g id="edge53" class="edge">
<title>&#45;9&#45;&gt;866</title>
<path fill="none" stroke="red" stroke-width="0.39" d="M817.7,-330.11C770.91,-329.5 602.25,-324.66 569.75,-286.19 555.55,-269.39 560.33,-256.57 569.75,-236.69 579.16,-216.84 598.75,-201.38 615.27,-191.17"/>
<polygon fill="red" stroke="red" stroke-width="0.39" points="617.18,-194.11 624.05,-186.04 613.65,-188.07 617.18,-194.11"/>
</g>
<!-- &#45;9&#45;&gt;868 -->
<g id="edge54" class="edge">
<title>&#45;9&#45;&gt;868</title>
<path fill="none" stroke="green" stroke-width="0.26" d="M842.03,-330.11C916.88,-329.49 1309.62,-324.45 1344.75,-286.19 1422.43,-201.59 1172.52,-182.24 1082.11,-178.04"/>
<polygon fill="green" stroke="green" stroke-width="0.26" points="1082.05,-174.54 1071.9,-177.6 1081.74,-181.53 1082.05,-174.54"/>
</g>
<!-- 1694 -->
<g id="node32" class="node">
<title>1694</title>
<ellipse fill="white" stroke="black" cx="232.75" cy="-261.44" rx="25" ry="25"/>
<text text-anchor="middle" x="232.75" y="-259.24" font-family="Times New Roman,serif" font-size="9.00">1694</text>
</g>
<!-- &#45;9&#45;&gt;1694 -->
<g id="edge168" class="edge">
<title>&#45;9&#45;&gt;1694</title>
<path fill="none" stroke="green" stroke-width="0.23" d="M817.41,-329.99C745.35,-328.73 378.31,-320.66 271.75,-286.19 268.22,-285.05 264.68,-283.53 261.25,-281.82"/>
<polygon fill="green" stroke="green" stroke-width="0.23" points="262.95,-278.76 252.52,-276.93 259.53,-284.87 262.95,-278.76"/>
</g>
<!-- 1242 -->
<g id="node33" class="node">
<title>1242</title>
<ellipse fill="white" stroke="black" cx="776.75" cy="-261.44" rx="25" ry="25"/>
<text text-anchor="middle" x="776.75" y="-259.24" font-family="Times New Roman,serif" font-size="9.00">1242</text>
</g>
<!-- &#45;9&#45;&gt;1242 -->
<g id="edge162" class="edge">
<title>&#45;9&#45;&gt;1242</title>
<path fill="none" stroke="green" stroke-width="0.66" d="M823.46,-322.15C817.13,-314.07 807.02,-301.14 797.82,-289.38"/>
<polygon fill="green" stroke="green" stroke-width="0.66" points="800.57,-287.22 791.66,-281.5 795.06,-291.53 800.57,-287.22"/>
</g>
<!-- &#45;9&#45;&gt;860 -->
<g id="edge48" class="edge">
<title>&#45;9&#45;&gt;860</title>
<path fill="none" stroke="green" stroke-width="0.19" d="M841.9,-325.79C857.34,-319.52 883.55,-306.49 896.75,-286.19 912.01,-262.71 915.73,-230.58 916.11,-207.24"/>
<polygon fill="green" stroke="green" stroke-width="0.19" points="919.61,-207.19 916.07,-197.2 912.61,-207.21 919.61,-207.19"/>
</g>
<!-- &#45;9&#45;&gt;861 -->
<g id="edge49" class="edge">
<title>&#45;9&#45;&gt;861</title>
<path fill="none" stroke="green" stroke-width="0.22" d="M817.72,-330.13C742.66,-329.65 340.66,-325.24 304.75,-286.19 240.96,-216.84 434.88,-188.39 513.35,-179.9"/>
<polygon fill="green" stroke="green" stroke-width="0.22" points="514.03,-183.35 523.61,-178.83 513.31,-176.38 514.03,-183.35"/>
</g>
<!-- &#45;9&#45;&gt;862 -->
<g id="edge50" class="edge">
<title>&#45;9&#45;&gt;862</title>
<path fill="none" stroke="red" stroke-width="0.22" d="M828.89,-321.97C826.99,-305.42 821.71,-267.08 810.75,-236.69 806.62,-225.25 800.61,-213.31 794.91,-203.14"/>
<polygon fill="red" stroke="red" stroke-width="0.22" points="797.87,-201.25 789.83,-194.36 791.81,-204.76 797.87,-201.25"/>
</g>
<!-- &#45;10 -->
<g id="node10" class="node">
<title>&#45;10</title>
<polygon fill="lightgray" stroke="black" points="887.25,-270.44 858.25,-270.44 858.25,-252.44 887.25,-252.44 887.25,-270.44"/>
<text text-anchor="middle" x="872.75" y="-259.24" font-family="Times New Roman,serif" font-size="9.00">&#45;10</text>
</g>
<!-- &#45;10&#45;&gt;864 -->
<g id="edge58" class="edge">
<title>&#45;10&#45;&gt;864</title>
<path fill="none" stroke="green" stroke-width="0.13" stroke-dasharray="1,5" d="M869.85,-252.24C862.51,-232.48 841.41,-181.6 808.75,-151.2 782.29,-126.56 743.78,-109.92 717.34,-100.58"/>
<polygon fill="green" stroke="green" stroke-width="0.13" points="718.45,-97.26 707.86,-97.36 716.2,-103.89 718.45,-97.26"/>
</g>
<!-- &#45;10&#45;&gt;865 -->
<g id="edge59" class="edge">
<title>&#45;10&#45;&gt;865</title>
<path fill="none" stroke="red" stroke-width="0.47" d="M882.82,-252.17C910.99,-229.17 990.48,-165.25 1020.75,-151.2 1095.31,-116.57 1191.97,-100.88 1240.72,-94.78"/>
<polygon fill="red" stroke="red" stroke-width="0.47" points="1241.14,-98.25 1250.65,-93.58 1240.3,-91.3 1241.14,-98.25"/>
</g>
<!-- &#45;10&#45;&gt;866 -->
<g id="edge60" class="edge">
<title>&#45;10&#45;&gt;866</title>
<path fill="none" stroke="red" stroke-width="0.37" d="M858,-254.68C845.47,-249.81 826.97,-242.68 810.75,-236.69 762.33,-218.81 705.71,-198.87 672.11,-187.15"/>
<polygon fill="red" stroke="red" stroke-width="0.37" points="673.06,-183.77 662.46,-183.78 670.75,-190.38 673.06,-183.77"/>
</g>
<!-- &#45;10&#45;&gt;868 -->
<g id="edge61" class="edge">
<title>&#45;10&#45;&gt;868</title>
<path fill="none" stroke="green" stroke-width="0.16" d="M887.32,-253.61C916.86,-239.75 984.28,-208.12 1022.66,-190.12"/>
<polygon fill="green" stroke="green" stroke-width="0.16" points="1024.18,-193.27 1031.75,-185.86 1021.21,-186.94 1024.18,-193.27"/>
</g>
<!-- &#45;10&#45;&gt;860 -->
<g id="edge55" class="edge">
<title>&#45;10&#45;&gt;860</title>
<path fill="none" stroke="red" stroke-width="0.4" d="M876.78,-252.44C882.27,-241.52 892.39,-221.4 900.8,-204.68"/>
<polygon fill="red" stroke="red" stroke-width="0.4" points="904.14,-205.83 905.51,-195.32 897.89,-202.68 904.14,-205.83"/>
</g>
<!-- &#45;10&#45;&gt;861 -->
<g id="edge56" class="edge">
<title>&#45;10&#45;&gt;861</title>
<path fill="none" stroke="green" stroke-width="0.23" d="M858.23,-254C845.82,-248.71 827.4,-241.35 810.75,-236.69 724.61,-212.59 699.23,-223.51 612.75,-200.69 599.71,-197.25 585.6,-192.5 573.62,-188.15"/>
<polygon fill="green" stroke="green" stroke-width="0.23" points="574.73,-184.83 564.14,-184.62 572.29,-191.39 574.73,-184.83"/>
</g>
<!-- &#45;10&#45;&gt;862 -->
<g id="edge57" class="edge">
<title>&#45;10&#45;&gt;862</title>
<path fill="none" stroke="green" stroke-width="1.12" d="M863.74,-252.44C849.62,-239.9 821.84,-215.22 801.88,-197.5"/>
<polygon fill="green" stroke="green" stroke-width="1.12" points="804.2,-194.87 794.4,-190.85 799.55,-200.1 804.2,-194.87"/>
</g>
<!-- &#45;11 -->
<g id="node11" class="node">
<title>&#45;11</title>
<polygon fill="lightgray" stroke="black" points="1241.25,-270.44 1212.25,-270.44 1212.25,-252.44 1241.25,-252.44 1241.25,-270.44"/>
<text text-anchor="middle" x="1226.75" y="-259.24" font-family="Times New Roman,serif" font-size="9.00">&#45;11</text>
</g>
<!-- &#45;11&#45;&gt;864 -->
<g id="edge64" class="edge">
<title>&#45;11&#45;&gt;864</title>
<path fill="none" stroke="red" stroke-width="0.33" d="M1224.32,-252.32C1217.57,-231.34 1196.42,-175.26 1156.75,-151.2 1080.25,-104.79 843.2,-134.09 755.75,-115.2 742.57,-112.35 728.43,-107.69 716.48,-103.25"/>
<polygon fill="red" stroke="red" stroke-width="0.33" points="717.61,-99.93 707.02,-99.61 715.1,-106.47 717.61,-99.93"/>
</g>
<!-- &#45;11&#45;&gt;865 -->
<g id="edge65" class="edge">
<title>&#45;11&#45;&gt;865</title>
<path fill="none" stroke="green" stroke-width="0.17" d="M1232.9,-251.98C1237.26,-246.67 1243.58,-240.19 1250.75,-236.69 1307.33,-209.1 1490.16,-247.95 1531.75,-200.69 1598.99,-124.28 1385.57,-99.93 1302.97,-93.48"/>
<polygon fill="green" stroke="green" stroke-width="0.17" points="1303.13,-89.98 1292.9,-92.73 1302.61,-96.96 1303.13,-89.98"/>
</g>
<!-- &#45;11&#45;&gt;866 -->
<g id="edge66" class="edge">
<title>&#45;11&#45;&gt;866</title>
<path fill="none" stroke="green" stroke-width="0.73" d="M1221.03,-252.34C1216.69,-246.89 1210.21,-240.11 1202.75,-236.69 1110.74,-194.54 848.82,-215.79 748.75,-200.69 723.06,-196.82 694.34,-190.24 673.27,-184.99"/>
<polygon fill="green" stroke="green" stroke-width="0.73" points="673.86,-181.52 663.3,-182.46 672.14,-188.31 673.86,-181.52"/>
</g>
<!-- &#45;11&#45;&gt;868 -->
<g id="edge67" class="edge">
<title>&#45;11&#45;&gt;868</title>
<path fill="none" stroke="red" stroke-width="0.8" d="M1219.87,-252.1C1215.41,-247.1 1209.23,-240.92 1202.75,-236.69 1163.94,-211.42 1112.79,-194.07 1080.83,-184.83"/>
<polygon fill="red" stroke="red" stroke-width="0.8" points="1081.74,-181.45 1071.17,-182.11 1079.85,-188.19 1081.74,-181.45"/>
</g>
<!-- &#45;11&#45;&gt;860 -->
<g id="edge62" class="edge">
<title>&#45;11&#45;&gt;860</title>
<path fill="none" stroke="green" stroke-width="0.29" d="M1220.51,-252.14C1216.12,-246.9 1209.79,-240.43 1202.75,-236.69 1129.91,-198.05 1101.43,-217.71 1020.75,-200.69 995.33,-195.33 966.58,-188.87 945.44,-184.04"/>
<polygon fill="green" stroke="green" stroke-width="0.29" points="945.96,-180.56 935.43,-181.74 944.4,-187.39 945.96,-180.56"/>
</g>
<!-- &#45;11&#45;&gt;862 -->
<g id="edge63" class="edge">
<title>&#45;11&#45;&gt;862</title>
<path fill="none" stroke="red" stroke-width="0.64" d="M1220.99,-252.42C1216.63,-247.01 1210.15,-240.24 1202.75,-236.69 1074.45,-175.28 1025.02,-224.28 884.75,-200.69 859.13,-196.39 830.4,-189.84 809.32,-184.71"/>
<polygon fill="red" stroke="red" stroke-width="0.64" points="809.88,-181.25 799.34,-182.25 808.21,-188.04 809.88,-181.25"/>
</g>
<!-- &#45;12 -->
<g id="node12" class="node">
<title>&#45;12</title>
<polygon fill="lightgray" stroke="black" points="1057.25,-270.44 1028.25,-270.44 1028.25,-252.44 1057.25,-252.44 1057.25,-270.44"/>
<text text-anchor="middle" x="1042.75" y="-259.24" font-family="Times New Roman,serif" font-size="9.00">&#45;12</text>
</g>
<!-- &#45;12&#45;&gt;864 -->
<g id="edge71" class="edge">
<title>&#45;12&#45;&gt;864</title>
<path fill="none" stroke="red" stroke-width="0.24" d="M1051.03,-252.3C1065.99,-237.48 1096.24,-207.04 1098.75,-200.69 1106.84,-180.24 1113.47,-167.54 1098.75,-151.2 1047.46,-94.24 830.54,-131.94 755.75,-115.2 742.59,-112.25 728.46,-107.57 716.5,-103.15"/>
<polygon fill="red" stroke="red" stroke-width="0.24" points="717.63,-99.83 707.04,-99.53 715.13,-106.37 717.63,-99.83"/>
</g>
<!-- &#45;12&#45;&gt;865 -->
<g id="edge72" class="edge">
<title>&#45;12&#45;&gt;865</title>
<path fill="none" stroke="green" stroke-width="0.56" d="M1049.01,-252.2C1053.42,-246.98 1059.75,-240.52 1066.75,-236.69 1131.09,-201.54 1171.86,-248.15 1227.75,-200.69 1251.21,-180.78 1262.29,-146.52 1267.44,-121.67"/>
<polygon fill="green" stroke="green" stroke-width="0.56" points="1270.91,-122.13 1269.3,-111.66 1264.03,-120.85 1270.91,-122.13"/>
</g>
<!-- &#45;12&#45;&gt;866 -->
<g id="edge73" class="edge">
<title>&#45;12&#45;&gt;866</title>
<path fill="none" stroke="red" stroke-width="0.49" d="M1036.59,-252C1032.23,-246.69 1025.9,-240.21 1018.75,-236.69 910.08,-183.35 867.93,-221.95 748.75,-200.69 723.18,-196.13 694.44,-189.61 673.34,-184.55"/>
<polygon fill="red" stroke="red" stroke-width="0.49" points="673.9,-181.08 663.36,-182.13 672.25,-187.88 673.9,-181.08"/>
</g>
<!-- &#45;12&#45;&gt;868 -->
<g id="edge74" class="edge">
<title>&#45;12&#45;&gt;868</title>
<path fill="none" stroke="red" stroke-width="0.21" d="M1043.52,-252.44C1044.5,-242.12 1046.28,-223.61 1047.82,-207.49"/>
<polygon fill="red" stroke="red" stroke-width="0.21" points="1051.32,-207.65 1048.79,-197.36 1044.35,-206.98 1051.32,-207.65"/>
</g>
<!-- &#45;12&#45;&gt;860 -->
<g id="edge68" class="edge">
<title>&#45;12&#45;&gt;860</title>
<path fill="none" stroke="green" stroke-width="0.54" d="M1035.64,-252.42C1031.09,-247.55 1024.9,-241.38 1018.75,-236.69 994.65,-218.34 964.36,-201.55 942.69,-190.48"/>
<polygon fill="green" stroke="green" stroke-width="0.54" points="944.19,-187.32 933.69,-185.95 941.05,-193.57 944.19,-187.32"/>
</g>
<!-- &#45;12&#45;&gt;861 -->
<g id="edge69" class="edge">
<title>&#45;12&#45;&gt;861</title>
<path fill="none" stroke="red" stroke-width="0.14" d="M1037.02,-252.36C1032.67,-246.93 1026.19,-240.15 1018.75,-236.69 854.41,-160.47 789.84,-238.85 612.75,-200.69 599.57,-197.85 585.43,-193.19 573.48,-188.75"/>
<polygon fill="red" stroke="red" stroke-width="0.14" points="574.61,-185.44 564.02,-185.11 572.1,-191.97 574.61,-185.44"/>
</g>
<!-- &#45;12&#45;&gt;862 -->
<g id="edge70" class="edge">
<title>&#45;12&#45;&gt;862</title>
<path fill="none" stroke="red" stroke-width="0.36" d="M1036.45,-252.25C1032.04,-247.06 1025.7,-240.6 1018.75,-236.69 1009.53,-231.51 872.24,-198.89 809.55,-184.16"/>
<polygon fill="red" stroke="red" stroke-width="0.36" points="810,-180.66 799.46,-181.79 808.4,-187.48 810,-180.66"/>
</g>
<!-- &#45;13 -->
<g id="node13" class="node">
<title>&#45;13</title>
<polygon fill="lightgray" stroke="black" points="433.25,-270.44 404.25,-270.44 404.25,-252.44 433.25,-252.44 433.25,-270.44"/>
<text text-anchor="middle" x="418.75" y="-259.24" font-family="Times New Roman,serif" font-size="9.00">&#45;13</text>
</g>
<!-- &#45;13&#45;&gt;864 -->
<g id="edge78" class="edge">
<title>&#45;13&#45;&gt;864</title>
<path fill="none" stroke="red" stroke-width="0.1" stroke-dasharray="1,5" d="M411.93,-252.01C407.49,-246.98 401.31,-240.79 394.75,-236.69 353.62,-211.01 319.82,-240.24 291.75,-200.69 279.02,-182.75 277.4,-167.87 291.75,-151.2 338.93,-96.36 571.08,-91.19 656.3,-91.18"/>
<polygon fill="red" stroke="red" stroke-width="0.1" points="656.39,-94.68 666.4,-91.2 656.41,-87.68 656.39,-94.68"/>
</g>
<!-- &#45;13&#45;&gt;865 -->
<g id="edge79" class="edge">
<title>&#45;13&#45;&gt;865</title>
<path fill="none" stroke="red" stroke-width="0.54" stroke-dasharray="1,5" d="M419.39,-252.4C421.51,-231.6 430.32,-175.93 464.75,-151.2 480.82,-139.65 1093.98,-102.13 1240.53,-93.31"/>
<polygon fill="red" stroke="red" stroke-width="0.54" points="1240.86,-96.8 1250.63,-92.71 1240.44,-89.81 1240.86,-96.8"/>
</g>
<!-- &#45;13&#45;&gt;866 -->
<g id="edge80" class="edge">
<title>&#45;13&#45;&gt;866</title>
<path fill="none" stroke="green" stroke-width="0.46" d="M424.74,-252.29C428.95,-247.11 435.03,-240.66 441.75,-236.69 494.5,-205.58 516.25,-218.8 574.75,-200.69 587.53,-196.74 601.52,-191.94 613.46,-187.69"/>
<polygon fill="green" stroke="green" stroke-width="0.46" points="614.71,-190.96 622.94,-184.29 612.34,-184.37 614.71,-190.96"/>
</g>
<!-- &#45;13&#45;&gt;860 -->
<g id="edge75" class="edge">
<title>&#45;13&#45;&gt;860</title>
<path fill="none" stroke="green" stroke-width="0.14" d="M424.18,-252.38C428.31,-246.96 434.51,-240.19 441.75,-236.69 589.36,-165.46 646.92,-226.66 808.75,-200.69 834.4,-196.58 863.13,-190.02 884.2,-184.83"/>
<polygon fill="green" stroke="green" stroke-width="0.14" points="885.32,-188.16 894.18,-182.34 883.63,-181.37 885.32,-188.16"/>
</g>
<!-- &#45;13&#45;&gt;861 -->
<g id="edge76" class="edge">
<title>&#45;13&#45;&gt;861</title>
<path fill="none" stroke="green" stroke-width="0.14" stroke-dasharray="1,5" d="M425.51,-252.41C429.85,-247.53 435.78,-241.36 441.75,-236.69 465.44,-218.17 495.47,-201.41 516.98,-190.38"/>
<polygon fill="green" stroke="green" stroke-width="0.14" points="518.56,-193.5 525.92,-185.88 515.41,-187.25 518.56,-193.5"/>
</g>
<!-- &#45;13&#45;&gt;862 -->
<g id="edge77" class="edge">
<title>&#45;13&#45;&gt;862</title>
<path fill="none" stroke="red" stroke-width="0.78" d="M424.6,-252.05C428.76,-246.76 434.82,-240.28 441.75,-236.69 534.01,-188.9 570.66,-220.06 672.75,-200.69 698.27,-195.85 727.01,-189.35 748.12,-184.37"/>
<polygon fill="red" stroke="red" stroke-width="0.78" points="749.2,-187.71 758.11,-181.99 747.58,-180.9 749.2,-187.71"/>
</g>
<!-- &#45;14 -->
<g id="node14" class="node">
<title>&#45;14</title>
<polygon fill="lightgray" stroke="black" points="1335.25,-270.44 1306.25,-270.44 1306.25,-252.44 1335.25,-252.44 1335.25,-270.44"/>
<text text-anchor="middle" x="1320.75" y="-259.24" font-family="Times New Roman,serif" font-size="9.00">&#45;14</text>
</g>
<!-- &#45;14&#45;&gt;864 -->
<g id="edge84" class="edge">
<title>&#45;14&#45;&gt;864</title>
<path fill="none" stroke="green" stroke-width="0.89" d="M1335.46,-260.65C1401.26,-261.26 1667.69,-259.99 1718.75,-200.69 1733.1,-184.02 1734.01,-167.04 1718.75,-151.2 1681.61,-112.64 808.36,-125.13 755.75,-115.2 742.5,-112.69 728.35,-108.09 716.41,-103.59"/>
<polygon fill="green" stroke="green" stroke-width="0.89" points="717.55,-100.28 706.96,-99.89 715,-106.8 717.55,-100.28"/>
</g>
<!-- &#45;14&#45;&gt;865 -->
<g id="edge85" class="edge">
<title>&#45;14&#45;&gt;865</title>
<path fill="none" stroke="green" stroke-width="0.19" d="M1335.26,-260.84C1404,-262.36 1695.81,-264.92 1751.75,-200.69 1766.2,-184.1 1766.31,-167.68 1751.75,-151.2 1721.95,-117.45 1405.28,-98.32 1303.24,-92.99"/>
<polygon fill="green" stroke="green" stroke-width="0.19" points="1303.13,-89.48 1292.97,-92.47 1302.77,-96.47 1303.13,-89.48"/>
</g>
<!-- &#45;14&#45;&gt;868 -->
<g id="edge86" class="edge">
<title>&#45;14&#45;&gt;868</title>
<path fill="none" stroke="green" stroke-width="0.95" d="M1314.79,-252.23C1310.59,-247.03 1304.53,-240.57 1297.75,-236.69 1227.45,-196.5 1131,-183.23 1082.02,-178.94"/>
<polygon fill="green" stroke="green" stroke-width="0.95" points="1082.29,-175.45 1072.04,-178.13 1081.72,-182.42 1082.29,-175.45"/>
</g>
<!-- &#45;14&#45;&gt;860 -->
<g id="edge81" class="edge">
<title>&#45;14&#45;&gt;860</title>
<path fill="none" stroke="green" stroke-width="0.36" d="M1314.92,-251.99C1310.78,-246.68 1304.72,-240.2 1297.75,-236.69 1186.8,-180.99 1143,-222.29 1020.75,-200.69 995.17,-196.18 966.43,-189.64 945.34,-184.57"/>
<polygon fill="green" stroke="green" stroke-width="0.36" points="945.9,-181.11 935.35,-182.15 944.24,-187.91 945.9,-181.11"/>
</g>
<!-- &#45;14&#45;&gt;861 -->
<g id="edge82" class="edge">
<title>&#45;14&#45;&gt;861</title>
<path fill="none" stroke="red" stroke-width="0.34" d="M1315.37,-252.28C1311.26,-246.81 1305.06,-240.02 1297.75,-236.69 1159,-173.57 762.31,-230.12 612.75,-200.69 599.52,-198.09 585.37,-193.47 573.43,-188.99"/>
<polygon fill="red" stroke="red" stroke-width="0.34" points="574.57,-185.68 563.98,-185.31 572.03,-192.2 574.57,-185.68"/>
</g>
<!-- &#45;14&#45;&gt;862 -->
<g id="edge83" class="edge">
<title>&#45;14&#45;&gt;862</title>
<path fill="none" stroke="green" stroke-width="0.63" d="M1315.33,-252.36C1311.2,-246.93 1305,-240.15 1297.75,-236.69 1214.56,-197.11 975.79,-214.8 884.75,-200.69 859.08,-196.72 830.35,-190.15 809.28,-184.92"/>
<polygon fill="green" stroke="green" stroke-width="0.63" points="809.86,-181.46 799.31,-182.41 808.15,-188.25 809.86,-181.46"/>
</g>
<!-- &#45;15 -->
<g id="node15" class="node">
<title>&#45;15</title>
<polygon fill="lightgray" stroke="black" points="1104.25,-270.44 1075.25,-270.44 1075.25,-252.44 1104.25,-252.44 1104.25,-270.44"/>
<text text-anchor="middle" x="1089.75" y="-259.24" font-family="Times New Roman,serif" font-size="9.00">&#45;15</text>
</g>
<!-- &#45;15&#45;&gt;864 -->
<g id="edge90" class="edge">
<title>&#45;15&#45;&gt;864</title>
<path fill="none" stroke="red" stroke-width="0.2" d="M1095.95,-252.41C1110.47,-232.57 1143.5,-180.74 1116.75,-151.2 1062.64,-91.43 834.47,-132.61 755.75,-115.2 742.59,-112.28 728.45,-107.61 716.49,-103.18"/>
<polygon fill="red" stroke="red" stroke-width="0.2" points="717.62,-99.87 707.03,-99.56 715.12,-106.4 717.62,-99.87"/>
</g>
<!-- &#45;15&#45;&gt;865 -->
<g id="edge91" class="edge">
<title>&#45;15&#45;&gt;865</title>
<path fill="none" stroke="green" stroke-width="0.31" d="M1095.97,-252.12C1100.36,-246.87 1106.69,-240.4 1113.75,-236.69 1189.84,-196.72 1248.92,-266.88 1303.75,-200.69 1323.85,-176.43 1306.5,-140.02 1290.56,-116"/>
<polygon fill="green" stroke="green" stroke-width="0.31" points="1293.4,-113.96 1284.82,-107.76 1287.66,-117.96 1293.4,-113.96"/>
</g>
<!-- &#45;15&#45;&gt;866 -->
<g id="edge92" class="edge">
<title>&#45;15&#45;&gt;866</title>
<path fill="none" stroke="red" stroke-width="0.3" d="M1084.3,-252.42C1080.16,-247.01 1073.96,-240.24 1066.75,-236.69 939.11,-173.92 889.02,-224.28 748.75,-200.69 723.13,-196.39 694.4,-189.84 673.32,-184.71"/>
<polygon fill="red" stroke="red" stroke-width="0.3" points="673.88,-181.25 663.34,-182.25 672.21,-188.04 673.88,-181.25"/>
</g>
<!-- &#45;15&#45;&gt;868 -->
<g id="edge93" class="edge">
<title>&#45;15&#45;&gt;868</title>
<path fill="none" stroke="green" stroke-width="0.18" d="M1086.01,-252.44C1080.94,-241.59 1071.63,-221.65 1063.85,-204.99"/>
<polygon fill="green" stroke="green" stroke-width="0.18" points="1066.89,-203.23 1059.49,-195.66 1060.55,-206.2 1066.89,-203.23"/>
</g>
<!-- &#45;15&#45;&gt;860 -->
<g id="edge87" class="edge">
<title>&#45;15&#45;&gt;860</title>
<path fill="none" stroke="red" stroke-width="0.48" d="M1083.22,-252.08C1078.97,-247.08 1073.05,-240.9 1066.75,-236.69 1028.22,-211.01 976.98,-193.78 944.94,-184.67"/>
<polygon fill="red" stroke="red" stroke-width="0.48" points="945.82,-181.28 935.25,-181.99 943.96,-188.03 945.82,-181.28"/>
</g>
<!-- &#45;15&#45;&gt;861 -->
<g id="edge88" class="edge">
<title>&#45;15&#45;&gt;861</title>
<path fill="none" stroke="red" stroke-width="0.28" stroke-dasharray="1,5" d="M1084.34,-252.34C1080.22,-246.9 1074.02,-240.12 1066.75,-236.69 975.19,-193.56 711.78,-221.55 612.75,-200.69 599.56,-197.92 585.42,-193.26 573.46,-188.81"/>
<polygon fill="red" stroke="red" stroke-width="0.28" points="574.6,-185.5 564.01,-185.16 572.08,-192.03 574.6,-185.5"/>
</g>
<!-- &#45;15&#45;&gt;862 -->
<g id="edge89" class="edge">
<title>&#45;15&#45;&gt;862</title>
<path fill="none" stroke="red" stroke-width="0.26" d="M1083.85,-252.14C1079.67,-246.89 1073.61,-240.42 1066.75,-236.69 994.32,-197.28 965.43,-217.71 884.75,-200.69 859.33,-195.33 830.58,-188.87 809.44,-184.04"/>
<polygon fill="red" stroke="red" stroke-width="0.26" points="809.96,-180.56 799.43,-181.74 808.4,-187.39 809.96,-180.56"/>
</g>
<!-- &#45;16 -->
<g id="node16" class="node">
<title>&#45;16</title>
<polygon fill="lightgray" stroke="black" points="734.25,-270.44 705.25,-270.44 705.25,-252.44 734.25,-252.44 734.25,-270.44"/>
<text text-anchor="middle" x="719.75" y="-259.24" font-family="Times New Roman,serif" font-size="9.00">&#45;16</text>
</g>
<!-- &#45;16&#45;&gt;864 -->
<g id="edge97" class="edge">
<title>&#45;16&#45;&gt;864</title>
<path fill="none" stroke="green" stroke-width="0.22" stroke-dasharray="1,5" d="M718.21,-252.29C713.79,-228.99 700.96,-161.22 693.43,-121.47"/>
<polygon fill="green" stroke="green" stroke-width="0.22" points="696.85,-120.72 691.55,-111.54 689.98,-122.02 696.85,-120.72"/>
</g>
<!-- &#45;16&#45;&gt;865 -->
<g id="edge98" class="edge">
<title>&#45;16&#45;&gt;865</title>
<path fill="none" stroke="green" stroke-width="0.2" d="M726.47,-252.35C730.79,-247.45 736.72,-241.28 742.75,-236.69 769.34,-216.46 780.06,-217.82 808.75,-200.69 843.36,-180.03 847.1,-165.59 884.75,-151.2 1010.16,-103.24 1172.41,-93.72 1240.01,-91.87"/>
<polygon fill="green" stroke="green" stroke-width="0.2" points="1240.48,-95.36 1250.4,-91.63 1240.32,-88.36 1240.48,-95.36"/>
</g>
<!-- &#45;16&#45;&gt;866 -->
<g id="edge99" class="edge">
<title>&#45;16&#45;&gt;866</title>
<path fill="none" stroke="red" stroke-width="0.39" d="M712.37,-252.44C701.27,-240.4 679.86,-217.19 663.71,-199.67"/>
<polygon fill="red" stroke="red" stroke-width="0.39" points="666.06,-197.06 656.71,-192.08 660.91,-201.8 666.06,-197.06"/>
</g>
<!-- &#45;16&#45;&gt;868 -->
<g id="edge100" class="edge">
<title>&#45;16&#45;&gt;868</title>
<path fill="none" stroke="green" stroke-width="0.22" d="M725.63,-252.1C729.8,-246.83 735.86,-240.36 742.75,-236.69 823.26,-193.87 855.35,-218.67 944.75,-200.69 970.21,-195.57 998.96,-189.09 1020.09,-184.19"/>
<polygon fill="green" stroke="green" stroke-width="0.22" points="1021.15,-187.54 1030.09,-181.86 1019.55,-180.72 1021.15,-187.54"/>
</g>
<!-- &#45;16&#45;&gt;860 -->
<g id="edge94" class="edge">
<title>&#45;16&#45;&gt;860</title>
<path fill="none" stroke="green" stroke-width="0.23" d="M726.21,-251.99C730.45,-246.96 736.36,-240.77 742.75,-236.69 748.97,-232.72 837.69,-202.74 885.2,-186.81"/>
<polygon fill="green" stroke="green" stroke-width="0.23" points="886.57,-190.04 894.94,-183.55 884.35,-183.41 886.57,-190.04"/>
</g>
<!-- &#45;16&#45;&gt;861 -->
<g id="edge95" class="edge">
<title>&#45;16&#45;&gt;861</title>
<path fill="none" stroke="red" stroke-width="0.24" d="M712.87,-252.1C708.41,-247.11 702.23,-240.92 695.75,-236.69 675.05,-223.18 611.88,-200.15 574.12,-186.98"/>
<polygon fill="red" stroke="red" stroke-width="0.24" points="575.24,-183.67 564.65,-183.7 572.95,-190.28 575.24,-183.67"/>
</g>
<!-- &#45;16&#45;&gt;862 -->
<g id="edge96" class="edge">
<title>&#45;16&#45;&gt;862</title>
<path fill="none" stroke="red" stroke-width="0.48" stroke-dasharray="1,5" d="M725.41,-252.44C733.51,-240.97 748.79,-219.35 760.92,-202.17"/>
<polygon fill="red" stroke="red" stroke-width="0.48" points="764.02,-203.86 766.93,-193.67 758.3,-199.82 764.02,-203.86"/>
</g>
<!-- &#45;17 -->
<g id="node17" class="node">
<title>&#45;17</title>
<polygon fill="lightgray" stroke="black" points="343.25,-270.44 314.25,-270.44 314.25,-252.44 343.25,-252.44 343.25,-270.44"/>
<text text-anchor="middle" x="328.75" y="-259.24" font-family="Times New Roman,serif" font-size="9.00">&#45;17</text>
</g>
<!-- 4 -->
<g id="node25" class="node">
<title>4</title>
<ellipse fill="lightblue" stroke="black" cx="620.75" cy="-14.85" rx="14.7" ry="14.7"/>
<text text-anchor="middle" x="620.75" y="-12.65" font-family="Times New Roman,serif" font-size="9.00">4</text>
</g>
<!-- &#45;17&#45;&gt;4 -->
<g id="edge167" class="edge">
<title>&#45;17&#45;&gt;4</title>
<path fill="none" stroke="red" stroke-width="0.54" d="M314.14,-254.29C301.68,-249.19 283.23,-241.93 266.75,-236.69 205.11,-217.09 165.42,-251.77 125.75,-200.69 112.25,-183.32 114.95,-170.36 125.75,-151.2 161.71,-87.34 197.72,-90.31 266.75,-65.7 384.55,-23.7 536.24,-16.93 595.48,-15.95"/>
<polygon fill="red" stroke="red" stroke-width="0.54" points="595.79,-19.45 605.74,-15.83 595.7,-12.45 595.79,-19.45"/>
</g>
<!-- &#45;17&#45;&gt;864 -->
<g id="edge104" class="edge">
<title>&#45;17&#45;&gt;864</title>
<path fill="none" stroke="green" stroke-width="0.22" stroke-dasharray="1,5" d="M314.1,-254.4C301.62,-249.36 283.16,-242.15 266.75,-236.69 211.08,-218.18 175.13,-247.49 139.75,-200.69 126.48,-183.14 125.06,-167.57 139.75,-151.2 174.46,-112.5 544.96,-96.45 656.29,-92.48"/>
<polygon fill="green" stroke="green" stroke-width="0.22" points="656.66,-95.97 666.53,-92.12 656.41,-88.97 656.66,-95.97"/>
</g>
<!-- &#45;17&#45;&gt;865 -->
<g id="edge105" class="edge">
<title>&#45;17&#45;&gt;865</title>
<path fill="none" stroke="green" stroke-width="0.41" d="M330.27,-252.32C334.69,-231.33 349.63,-175.26 386.75,-151.2 405.05,-139.34 1084.13,-101.67 1240.06,-93.17"/>
<polygon fill="green" stroke="green" stroke-width="0.41" points="1240.57,-96.64 1250.37,-92.6 1240.19,-89.65 1240.57,-96.64"/>
</g>
<!-- &#45;17&#45;&gt;866 -->
<g id="edge106" class="edge">
<title>&#45;17&#45;&gt;866</title>
<path fill="none" stroke="red" stroke-width="0.27" stroke-dasharray="1,5" d="M334.94,-252.06C339.31,-246.78 345.64,-240.31 352.75,-236.69 441.85,-191.38 477.86,-225.27 574.75,-200.69 587.82,-197.38 601.94,-192.64 613.91,-188.27"/>
<polygon fill="red" stroke="red" stroke-width="0.27" points="615.25,-191.51 623.39,-184.73 612.79,-184.95 615.25,-191.51"/>
</g>
<!-- &#45;17&#45;&gt;868 -->
<g id="edge107" class="edge">
<title>&#45;17&#45;&gt;868</title>
<path fill="none" stroke="red" stroke-width="0.23" d="M334.45,-252.3C338.78,-246.83 345.26,-240.04 352.75,-236.69 473.07,-182.9 814.25,-219.16 944.75,-200.69 970.47,-197.05 999.19,-190.46 1020.25,-185.14"/>
<polygon fill="red" stroke="red" stroke-width="0.23" points="1021.4,-188.46 1030.21,-182.57 1019.65,-181.68 1021.4,-188.46"/>
</g>
<!-- 1755 -->
<g id="node34" class="node">
<title>1755</title>
<ellipse fill="white" stroke="black" cx="24.75" cy="-175.94" rx="25" ry="25"/>
<text text-anchor="middle" x="24.75" y="-173.74" font-family="Times New Roman,serif" font-size="9.00">1755</text>
</g>
<!-- &#45;17&#45;&gt;1755 -->
<g id="edge171" class="edge">
<title>&#45;17&#45;&gt;1755</title>
<path fill="none" stroke="green" stroke-width="0.3" d="M314.23,-253.98C301.83,-248.68 283.41,-241.32 266.75,-236.69 178.45,-212.19 149.46,-233.08 63.75,-200.69 60.28,-199.38 56.78,-197.76 53.37,-195.98"/>
<polygon fill="green" stroke="green" stroke-width="0.3" points="55.08,-192.93 44.66,-191.02 51.62,-199.01 55.08,-192.93"/>
</g>
<!-- &#45;17&#45;&gt;860 -->
<g id="edge101" class="edge">
<title>&#45;17&#45;&gt;860</title>
<path fill="none" stroke="red" stroke-width="0.19" d="M334.47,-252.34C338.81,-246.89 345.29,-240.11 352.75,-236.69 445.17,-194.37 708.24,-215.84 808.75,-200.69 834.43,-196.82 863.16,-190.24 884.23,-184.99"/>
<polygon fill="red" stroke="red" stroke-width="0.19" points="885.36,-188.31 894.19,-182.46 883.64,-181.53 885.36,-188.31"/>
</g>
<!-- &#45;17&#45;&gt;861 -->
<g id="edge102" class="edge">
<title>&#45;17&#45;&gt;861</title>
<path fill="none" stroke="red" stroke-width="0.64" d="M335.12,-252.39C339.57,-247.24 345.91,-240.8 352.75,-236.69 404.67,-205.51 474.4,-189.15 513.95,-181.84"/>
<polygon fill="red" stroke="red" stroke-width="0.64" points="514.57,-185.29 523.8,-180.1 513.34,-178.4 514.57,-185.29"/>
</g>
<!-- &#45;17&#45;&gt;862 -->
<g id="edge103" class="edge">
<title>&#45;17&#45;&gt;862</title>
<path fill="none" stroke="green" stroke-width="0.16" d="M334.51,-252.41C338.86,-247 345.35,-240.23 352.75,-236.69 481.86,-174.95 531.6,-224.37 672.75,-200.69 698.37,-196.4 727.1,-189.85 748.18,-184.72"/>
<polygon fill="green" stroke="green" stroke-width="0.16" points="749.29,-188.05 758.16,-182.25 747.61,-181.25 749.29,-188.05"/>
</g>
<!-- &#45;18 -->
<g id="node18" class="node">
<title>&#45;18</title>
<polygon fill="lightgray" stroke="black" points="480.25,-270.44 451.25,-270.44 451.25,-252.44 480.25,-252.44 480.25,-270.44"/>
<text text-anchor="middle" x="465.75" y="-259.24" font-family="Times New Roman,serif" font-size="9.00">&#45;18</text>
</g>
<!-- &#45;18&#45;&gt;864 -->
<g id="edge111" class="edge">
<title>&#45;18&#45;&gt;864</title>
<path fill="none" stroke="red" stroke-width="0.3" d="M458.75,-252.27C454.25,-247.34 448.06,-241.17 441.75,-236.69 411.91,-215.55 387.15,-231.7 367.75,-200.69 356.08,-182.04 353.69,-168.12 367.75,-151.2 404.32,-107.17 583.32,-95.41 656.5,-92.42"/>
<polygon fill="red" stroke="red" stroke-width="0.3" points="656.63,-95.91 666.49,-92.04 656.37,-88.92 656.63,-95.91"/>
</g>
<!-- &#45;18&#45;&gt;865 -->
<g id="edge112" class="edge">
<title>&#45;18&#45;&gt;865</title>
<path fill="none" stroke="green" stroke-width="0.19" d="M465.06,-252.23C463.83,-231.5 463.83,-176.93 494.75,-151.2 523.89,-126.95 1097.74,-99.35 1240.03,-92.86"/>
<polygon fill="green" stroke="green" stroke-width="0.19" points="1240.43,-96.35 1250.26,-92.4 1240.11,-89.36 1240.43,-96.35"/>
</g>
<!-- &#45;18&#45;&gt;866 -->
<g id="edge113" class="edge">
<title>&#45;18&#45;&gt;866</title>
<path fill="none" stroke="red" stroke-width="0.12" d="M472.62,-252.09C477.08,-247.09 483.26,-240.91 489.75,-236.69 500.55,-229.68 572.26,-202.82 613.56,-187.61"/>
<polygon fill="red" stroke="red" stroke-width="0.12" points="614.93,-190.84 623.11,-184.11 612.52,-184.27 614.93,-190.84"/>
</g>
<!-- &#45;18&#45;&gt;860 -->
<g id="edge108" class="edge">
<title>&#45;18&#45;&gt;860</title>
<path fill="none" stroke="green" stroke-width="0.15" d="M471.51,-252.41C475.86,-247.01 482.35,-240.24 489.75,-236.69 618.45,-175.11 668.04,-224.32 808.75,-200.69 834.36,-196.39 863.1,-189.84 884.18,-184.71"/>
<polygon fill="green" stroke="green" stroke-width="0.15" points="885.29,-188.04 894.16,-182.25 883.61,-181.25 885.29,-188.04"/>
</g>
<!-- &#45;18&#45;&gt;861 -->
<g id="edge109" class="edge">
<title>&#45;18&#45;&gt;861</title>
<path fill="none" stroke="red" stroke-width="0.44" d="M473.32,-252.44C484.71,-240.4 506.67,-217.19 523.25,-199.67"/>
<polygon fill="red" stroke="red" stroke-width="0.44" points="526.1,-201.75 530.43,-192.08 521.01,-196.94 526.1,-201.75"/>
</g>
<!-- &#45;18&#45;&gt;862 -->
<g id="edge110" class="edge">
<title>&#45;18&#45;&gt;862</title>
<path fill="none" stroke="green" stroke-width="0.41" d="M471.98,-252.14C476.37,-246.89 482.7,-240.43 489.75,-236.69 563,-197.89 591.63,-217.76 672.75,-200.69 698.17,-195.35 726.92,-188.88 748.06,-184.04"/>
<polygon fill="green" stroke="green" stroke-width="0.41" points="749.1,-187.4 758.07,-181.75 747.54,-180.57 749.1,-187.4"/>
</g>
<!-- &#45;19 -->
<g id="node19" class="node">
<title>&#45;19</title>
<polygon fill="lightgray" stroke="black" points="1288.25,-270.44 1259.25,-270.44 1259.25,-252.44 1288.25,-252.44 1288.25,-270.44"/>
<text text-anchor="middle" x="1273.75" y="-259.24" font-family="Times New Roman,serif" font-size="9.00">&#45;19</text>
</g>
<!-- &#45;19&#45;&gt;864 -->
<g id="edge117" class="edge">
<title>&#45;19&#45;&gt;864</title>
<path fill="none" stroke="green" stroke-width="0.12" d="M1270.55,-252.27C1261.8,-231.17 1235.26,-174.83 1192.75,-151.2 1107.59,-103.84 851.07,-135.42 755.75,-115.2 742.56,-112.4 728.42,-107.74 716.47,-103.29"/>
<polygon fill="green" stroke="green" stroke-width="0.12" points="717.6,-99.98 707.01,-99.65 715.08,-106.51 717.6,-99.98"/>
</g>
<!-- &#45;19&#45;&gt;865 -->
<g id="edge118" class="edge">
<title>&#45;19&#45;&gt;865</title>
<path fill="none" stroke="green" stroke-width="0.3" d="M1279.51,-252.42C1283.87,-247.02 1290.35,-240.25 1297.75,-236.69 1360.26,-206.66 1561.62,-252.48 1607.75,-200.69 1622.38,-184.27 1621.88,-168.06 1607.75,-151.2 1569.03,-104.99 1379.56,-94.49 1303.47,-92.13"/>
<polygon fill="green" stroke="green" stroke-width="0.3" points="1303.19,-88.62 1293.1,-91.83 1302.99,-95.61 1303.19,-88.62"/>
</g>
<!-- &#45;19&#45;&gt;866 -->
<g id="edge119" class="edge">
<title>&#45;19&#45;&gt;866</title>
<path fill="none" stroke="green" stroke-width="0.24" d="M1268.35,-252.33C1264.23,-246.87 1258.03,-240.09 1250.75,-236.69 1149.39,-189.41 859.4,-216.96 748.75,-200.69 723.05,-196.91 694.32,-190.33 673.26,-185.05"/>
<polygon fill="green" stroke="green" stroke-width="0.24" points="673.85,-181.59 663.3,-182.5 672.12,-188.37 673.85,-181.59"/>
</g>
<!-- &#45;19&#45;&gt;868 -->
<g id="edge120" class="edge">
<title>&#45;19&#45;&gt;868</title>
<path fill="none" stroke="red" stroke-width="0.12" d="M1267.72,-252.35C1263.49,-247.2 1257.42,-240.75 1250.75,-236.69 1196.47,-203.72 1122.78,-187.89 1081.69,-181.19"/>
<polygon fill="red" stroke="red" stroke-width="0.12" points="1082.16,-177.72 1071.74,-179.64 1081.08,-184.63 1082.16,-177.72"/>
</g>
<!-- 1513 -->
<g id="node31" class="node">
<title>1513</title>
<ellipse fill="white" stroke="black" cx="1684.75" cy="-175.94" rx="25" ry="25"/>
<text text-anchor="middle" x="1684.75" y="-173.74" font-family="Times New Roman,serif" font-size="9.00">1513</text>
</g>
<!-- &#45;19&#45;&gt;1513 -->
<g id="edge166" class="edge">
<title>&#45;19&#45;&gt;1513</title>
<path fill="none" stroke="green" stroke-width="0.12" d="M1279.5,-252.39C1283.85,-246.97 1290.33,-240.2 1297.75,-236.69 1438.32,-170.24 1498.4,-250.35 1645.75,-200.69 1649.26,-199.51 1652.79,-197.97 1656.21,-196.23"/>
<polygon fill="green" stroke="green" stroke-width="0.12" points="1657.94,-199.28 1664.95,-191.33 1654.51,-193.18 1657.94,-199.28"/>
</g>
<!-- &#45;19&#45;&gt;860 -->
<g id="edge114" class="edge">
<title>&#45;19&#45;&gt;860</title>
<path fill="none" stroke="red" stroke-width="0.21" d="M1267.89,-252.05C1263.74,-246.76 1257.68,-240.29 1250.75,-236.69 1158.89,-189.07 1122.4,-220.01 1020.75,-200.69 995.23,-195.84 966.49,-189.34 945.38,-184.36"/>
<polygon fill="red" stroke="red" stroke-width="0.21" points="945.92,-180.89 935.38,-181.99 944.3,-187.7 945.92,-180.89"/>
</g>
<!-- &#45;19&#45;&gt;861 -->
<g id="edge115" class="edge">
<title>&#45;19&#45;&gt;861</title>
<path fill="none" stroke="red" stroke-width="0.2" d="M1268.36,-252.29C1264.25,-246.82 1258.06,-240.04 1250.75,-236.69 1121.61,-177.64 752.03,-228.37 612.75,-200.69 599.53,-198.07 585.38,-193.44 573.43,-188.96"/>
<polygon fill="red" stroke="red" stroke-width="0.2" points="574.57,-185.65 563.98,-185.29 572.03,-192.17 574.57,-185.65"/>
</g>
<!-- &#45;19&#45;&gt;862 -->
<g id="edge116" class="edge">
<title>&#45;19&#45;&gt;862</title>
<path fill="none" stroke="green" stroke-width="0.26" d="M1268.32,-252.38C1264.19,-246.96 1257.99,-240.19 1250.75,-236.69 1103.55,-165.64 1046.13,-226.61 884.75,-200.69 859.1,-196.58 830.37,-190.01 809.3,-184.83"/>
<polygon fill="green" stroke="green" stroke-width="0.26" points="809.87,-181.37 799.32,-182.34 808.18,-188.16 809.87,-181.37"/>
</g>
<!-- &#45;20 -->
<g id="node20" class="node">
<title>&#45;20</title>
<polygon fill="lightgray" stroke="black" points="1151.25,-270.44 1122.25,-270.44 1122.25,-252.44 1151.25,-252.44 1151.25,-270.44"/>
<text text-anchor="middle" x="1136.75" y="-259.24" font-family="Times New Roman,serif" font-size="9.00">&#45;20</text>
</g>
<!-- &#45;20&#45;&gt;864 -->
<g id="edge124" class="edge">
<title>&#45;20&#45;&gt;864</title>
<path fill="none" stroke="red" stroke-width="0.56" d="M1139.88,-252.28C1147.01,-232.15 1161.92,-179.7 1135.75,-151.2 1078.38,-88.71 838.61,-133.31 755.75,-115.2 742.58,-112.32 728.44,-107.65 716.49,-103.21"/>
<polygon fill="red" stroke="red" stroke-width="0.56" points="717.62,-99.9 707.03,-99.58 715.11,-106.43 717.62,-99.9"/>
</g>
<!-- &#45;20&#45;&gt;865 -->
<g id="edge125" class="edge">
<title>&#45;20&#45;&gt;865</title>
<path fill="none" stroke="green" stroke-width="0.18" d="M1142.94,-252.07C1147.32,-246.79 1153.65,-240.31 1160.75,-236.69 1248.62,-191.89 1315.91,-275.89 1379.75,-200.69 1393.99,-183.92 1390.92,-170.15 1379.75,-151.2 1363.13,-123 1327.9,-107.19 1302.18,-99.01"/>
<polygon fill="green" stroke="green" stroke-width="0.18" points="1303.09,-95.63 1292.51,-96.15 1301.1,-102.34 1303.09,-95.63"/>
</g>
<!-- &#45;20&#45;&gt;866 -->
<g id="edge126" class="edge">
<title>&#45;20&#45;&gt;866</title>
<path fill="none" stroke="green" stroke-width="0.8" d="M1131.32,-252.39C1127.19,-246.96 1120.98,-240.19 1113.75,-236.69 966.96,-165.81 909.69,-226.56 748.75,-200.69 723.1,-196.57 694.37,-190.01 673.3,-184.83"/>
<polygon fill="green" stroke="green" stroke-width="0.8" points="673.87,-181.36 663.32,-182.34 672.18,-188.16 673.87,-181.36"/>
</g>
<!-- &#45;20&#45;&gt;868 -->
<g id="edge127" class="edge">
<title>&#45;20&#45;&gt;868</title>
<path fill="none" stroke="red" stroke-width="0.81" d="M1128.74,-252C1124.36,-247.43 1118.81,-241.7 1113.75,-236.69 1100.56,-223.65 1085.5,-209.34 1073.41,-198"/>
<polygon fill="red" stroke="red" stroke-width="0.81" points="1075.64,-195.29 1065.94,-191.01 1070.85,-200.4 1075.64,-195.29"/>
</g>
<!-- &#45;20&#45;&gt;860 -->
<g id="edge121" class="edge">
<title>&#45;20&#45;&gt;860</title>
<path fill="none" stroke="red" stroke-width="0.32" d="M1130.72,-252.35C1126.49,-247.2 1120.42,-240.75 1113.75,-236.69 1085.18,-219.31 993.62,-195.77 945.29,-184.11"/>
<polygon fill="red" stroke="red" stroke-width="0.32" points="945.93,-180.66 935.39,-181.74 944.3,-187.47 945.93,-180.66"/>
</g>
<!-- &#45;20&#45;&gt;861 -->
<g id="edge122" class="edge">
<title>&#45;20&#45;&gt;861</title>
<path fill="none" stroke="green" stroke-width="0.32" d="M1131.35,-252.33C1127.23,-246.88 1121.03,-240.09 1113.75,-236.69 1012.6,-189.5 722.06,-223.29 612.75,-200.69 599.55,-197.96 585.4,-193.32 573.45,-188.86"/>
<polygon fill="green" stroke="green" stroke-width="0.32" points="574.59,-185.55 564,-185.2 572.06,-192.08 574.59,-185.55"/>
</g>
<!-- &#45;20&#45;&gt;862 -->
<g id="edge123" class="edge">
<title>&#45;20&#45;&gt;862</title>
<path fill="none" stroke="green" stroke-width="1.07" d="M1130.89,-252.05C1126.74,-246.77 1120.68,-240.29 1113.75,-236.69 1022.3,-189.24 985.96,-219.97 884.75,-200.69 859.23,-195.83 830.49,-189.33 809.38,-184.36"/>
<polygon fill="green" stroke="green" stroke-width="1.07" points="809.92,-180.89 799.38,-181.98 808.3,-187.7 809.92,-180.89"/>
</g>
<!-- 0 -->
<g id="node21" class="node">
<title>0</title>
<ellipse fill="lightblue" stroke="black" cx="980.75" cy="-14.85" rx="14.7" ry="14.7"/>
<text text-anchor="middle" x="980.75" y="-12.65" font-family="Times New Roman,serif" font-size="9.00">0</text>
</g>
<!-- 2 -->
<g id="node23" class="node">
<title>2</title>
<ellipse fill="lightblue" stroke="black" cx="736.75" cy="-14.85" rx="14.7" ry="14.7"/>
<text text-anchor="middle" x="736.75" y="-12.65" font-family="Times New Roman,serif" font-size="9.00">2</text>
</g>
<!-- 3 -->
<g id="node24" class="node">
<title>3</title>
<ellipse fill="lightblue" stroke="black" cx="687.75" cy="-14.85" rx="14.7" ry="14.7"/>
<text text-anchor="middle" x="687.75" y="-12.65" font-family="Times New Roman,serif" font-size="9.00">3</text>
</g>
<!-- 864&#45;&gt;0 -->
<g id="edge143" class="edge">
<title>864&#45;&gt;0</title>
<path fill="none" stroke="red" stroke-width="0.28" d="M707.49,-81.86C720.95,-76.86 739.27,-70.38 755.75,-65.7 827.64,-45.26 914.42,-28.11 956.08,-20.33"/>
<polygon fill="red" stroke="red" stroke-width="0.28" points="956.93,-23.73 966.12,-18.47 955.65,-16.85 956.93,-23.73"/>
</g>
<!-- 864&#45;&gt;1 -->
<g id="edge144" class="edge">
<title>864&#45;&gt;1</title>
<path fill="none" stroke="red" stroke-width="0.19" stroke-dasharray="1,5" d="M706.75,-80.42C735.37,-66.84 789.42,-41.17 820.06,-26.62"/>
<polygon fill="red" stroke="red" stroke-width="0.19" points="821.95,-29.6 829.48,-22.15 818.95,-23.28 821.95,-29.6"/>
</g>
<!-- 864&#45;&gt;2 -->
<g id="edge145" class="edge">
<title>864&#45;&gt;2</title>
<path fill="none" stroke="red" stroke-width="0.63" stroke-dasharray="1,5" d="M699.11,-72.38C706.34,-61.52 715.73,-47.41 723.33,-36.01"/>
<polygon fill="red" stroke="red" stroke-width="0.63" points="726.33,-37.82 728.96,-27.55 720.5,-33.94 726.33,-37.82"/>
</g>
<!-- 864&#45;&gt;3 -->
<g id="edge146" class="edge">
<title>864&#45;&gt;3</title>
<path fill="none" stroke="green" stroke-width="1.02" stroke-dasharray="1,5" d="M687.75,-68.95C687.75,-60.02 687.75,-49.49 687.75,-40.17"/>
<polygon fill="green" stroke="green" stroke-width="1.02" points="691.25,-39.96 687.75,-29.96 684.25,-39.96 691.25,-39.96"/>
</g>
<!-- 864&#45;&gt;4 -->
<g id="edge147" class="edge">
<title>864&#45;&gt;4</title>
<path fill="none" stroke="green" stroke-width="0.15" d="M673.87,-74.2C663.18,-62.45 648.37,-46.19 637.11,-33.82"/>
<polygon fill="green" stroke="green" stroke-width="0.15" points="639.61,-31.37 630.29,-26.33 634.44,-36.08 639.61,-31.37"/>
</g>
<!-- 865&#45;&gt;0 -->
<g id="edge148" class="edge">
<title>865&#45;&gt;0</title>
<path fill="none" stroke="red" stroke-width="0.58" d="M1255.45,-76.39C1249.81,-72.42 1243.26,-68.41 1236.75,-65.7 1156.44,-32.29 1052.51,-20.95 1005.63,-17.37"/>
<polygon fill="red" stroke="red" stroke-width="0.58" points="1005.71,-13.87 995.49,-16.65 1005.22,-20.85 1005.71,-13.87"/>
</g>
<!-- 865&#45;&gt;1 -->
<g id="edge149" class="edge">
<title>865&#45;&gt;1</title>
<path fill="none" stroke="green" stroke-width="0.84" d="M1255.55,-76.13C1249.91,-72.15 1243.34,-68.19 1236.75,-65.7 1232.38,-64.05 953.58,-29.53 867.67,-18.92"/>
<polygon fill="green" stroke="green" stroke-width="0.84" points="867.88,-15.42 857.53,-17.67 867.02,-22.37 867.88,-15.42"/>
</g>
<!-- 865&#45;&gt;2 -->
<g id="edge150" class="edge">
<title>865&#45;&gt;2</title>
<path fill="none" stroke="red" stroke-width="0.33" d="M1252.24,-81.8C1237.71,-76.43 1217.28,-69.54 1198.75,-65.7 1032.64,-31.25 986.94,-51.84 818.75,-29.7 799.44,-27.16 777.72,-23.45 761.48,-20.51"/>
<polygon fill="red" stroke="red" stroke-width="0.33" points="761.69,-16.99 751.22,-18.62 760.42,-23.87 761.69,-16.99"/>
</g>
<!-- 865&#45;&gt;3 -->
<g id="edge151" class="edge">
<title>865&#45;&gt;3</title>
<path fill="none" stroke="green" stroke-width="1.04" d="M1251.44,-84.27C1229.29,-78.81 1192.73,-70.38 1160.75,-65.7 963.11,-36.74 903.99,-87.4 712.75,-29.7 711.49,-29.32 710.23,-28.87 708.97,-28.37"/>
<polygon fill="green" stroke="green" stroke-width="1.04" points="710.27,-25.11 699.75,-23.85 707.19,-31.39 710.27,-25.11"/>
</g>
<!-- 865&#45;&gt;4 -->
<g id="edge152" class="edge">
<title>865&#45;&gt;4</title>
<path fill="none" stroke="green" stroke-width="0.27" d="M1251.09,-85.62C1222.39,-80.42 1168.79,-71.16 1122.75,-65.7 919.55,-41.58 864.5,-69.33 663.75,-29.7 657.34,-28.43 650.55,-26.53 644.31,-24.53"/>
<polygon fill="green" stroke="green" stroke-width="0.27" points="645.07,-21.09 634.48,-21.18 642.81,-27.72 645.07,-21.09"/>
</g>
<!-- 866&#45;&gt;1 -->
<g id="edge153" class="edge">
<title>866&#45;&gt;1</title>
<path fill="none" stroke="red" stroke-width="0.34" d="M639.46,-154.94C636.69,-130.76 636.11,-90.27 657.75,-65.7 668.5,-53.49 770.93,-30.81 818.58,-20.81"/>
<polygon fill="red" stroke="red" stroke-width="0.34" points="819.31,-24.23 828.39,-18.77 817.89,-17.38 819.31,-24.23"/>
</g>
<!-- 866&#45;&gt;2 -->
<g id="edge154" class="edge">
<title>866&#45;&gt;2</title>
<path fill="none" stroke="green" stroke-width="0.44" d="M622.61,-168.71C599.98,-160.5 564.39,-143.67 548.75,-115.2 538.16,-95.91 534.97,-82.85 548.75,-65.7 595.21,-7.86 642.36,-55.95 711.75,-29.7 712.98,-29.23 714.22,-28.72 715.45,-28.17"/>
<polygon fill="green" stroke="green" stroke-width="0.44" points="717.31,-31.15 724.63,-23.49 714.13,-24.91 717.31,-31.15"/>
</g>
<!-- 866&#45;&gt;3 -->
<g id="edge155" class="edge">
<title>866&#45;&gt;3</title>
<path fill="none" stroke="red" stroke-width="0.23" d="M623.08,-167.4C587.9,-153.73 517.28,-125.32 510.75,-115.2 498.82,-96.71 497.36,-83.16 510.75,-65.7 548.27,-16.76 585.6,-47.16 644.75,-29.7 651.01,-27.85 657.75,-25.74 663.99,-23.73"/>
<polygon fill="red" stroke="red" stroke-width="0.23" points="665.44,-26.94 673.86,-20.51 663.27,-20.29 665.44,-26.94"/>
</g>
<!-- 866&#45;&gt;4 -->
<g id="edge156" class="edge">
<title>866&#45;&gt;4</title>
<path fill="none" stroke="green" stroke-width="0.17" d="M622.95,-168.03C578.19,-152.38 473.03,-115.6 472.75,-115.2 460.03,-97.25 459.91,-83.57 472.75,-65.7 500.87,-26.56 561.3,-17.74 595.61,-16"/>
<polygon fill="green" stroke="green" stroke-width="0.17" points="595.88,-19.5 605.75,-15.66 595.64,-12.5 595.88,-19.5"/>
</g>
<!-- 868&#45;&gt;0 -->
<g id="edge157" class="edge">
<title>868&#45;&gt;0</title>
<path fill="none" stroke="green" stroke-width="0.17" d="M1072.11,-173.49C1143.93,-167.83 1368.53,-143.66 1301.75,-65.7 1263.52,-21.07 1074.81,-16.07 1005.95,-15.75"/>
<polygon fill="green" stroke="green" stroke-width="0.17" points="1005.62,-12.25 995.61,-15.73 1005.61,-19.25 1005.62,-12.25"/>
</g>
<!-- 868&#45;&gt;1 -->
<g id="edge158" class="edge">
<title>868&#45;&gt;1</title>
<path fill="none" stroke="red" stroke-width="0.43" d="M1067.24,-162.32C1072.9,-158.39 1079.41,-154.28 1085.75,-151.2 1133.16,-128.16 1167.64,-157.75 1198.75,-115.2 1211.73,-97.44 1213.19,-82.3 1198.75,-65.7 1193.27,-59.4 948.32,-28.82 867.98,-18.93"/>
<polygon fill="red" stroke="red" stroke-width="0.43" points="868.13,-15.43 857.78,-17.68 867.28,-22.37 868.13,-15.43"/>
</g>
<!-- 868&#45;&gt;2 -->
<g id="edge159" class="edge">
<title>868&#45;&gt;2</title>
<path fill="none" stroke="green" stroke-width="0.12" d="M1067.51,-162.83C1073.19,-158.93 1079.64,-154.71 1085.75,-151.2 1117.8,-132.76 1141.06,-146.49 1160.75,-115.2 1172.46,-96.58 1175.47,-82.05 1160.75,-65.7 1109.62,-8.9 894.46,-40.07 818.75,-29.7 799.46,-27.06 777.73,-23.35 761.49,-20.44"/>
<polygon fill="green" stroke="green" stroke-width="0.12" points="761.69,-16.92 751.22,-18.58 760.44,-23.81 761.69,-16.92"/>
</g>
<!-- 868&#45;&gt;3 -->
<g id="edge160" class="edge">
<title>868&#45;&gt;3</title>
<path fill="none" stroke="red" stroke-width="0.14" d="M1065.97,-160.68C1069.47,-157.51 1073.2,-154.2 1076.75,-151.2 1096.57,-134.43 1111.38,-138.53 1122.75,-115.2 1132.38,-95.42 1137.61,-81.92 1122.75,-65.7 1060.97,1.74 800.21,-56.44 712.75,-29.7 711.49,-29.31 710.23,-28.86 708.98,-28.36"/>
<polygon fill="red" stroke="red" stroke-width="0.14" points="710.27,-25.1 699.75,-23.83 707.19,-31.38 710.27,-25.1"/>
</g>
<!-- 868&#45;&gt;4 -->
<g id="edge161" class="edge">
<title>868&#45;&gt;4</title>
<path fill="none" stroke="green" stroke-width="1.13" d="M1034.13,-162.57C1002.51,-139.67 930.77,-90.73 862.75,-65.7 778.4,-34.65 750.94,-51.52 663.75,-29.7 657.41,-28.11 650.65,-26.09 644.4,-24.09"/>
<polygon fill="green" stroke="green" stroke-width="1.13" points="645.15,-20.65 634.56,-20.81 642.94,-27.29 645.15,-20.65"/>
</g>
<!-- 868&#45;&gt;865 -->
<g id="edge165" class="edge">
<title>868&#45;&gt;865</title>
<path fill="none" stroke="red" stroke-width="0.18" d="M1067.12,-162.04C1072.76,-158.09 1079.3,-154.04 1085.75,-151.2 1148.88,-123.37 1173.62,-143.02 1236.75,-115.2 1240.18,-113.69 1243.63,-111.83 1246.96,-109.84"/>
<polygon fill="red" stroke="red" stroke-width="0.18" points="1248.91,-112.74 1255.38,-104.35 1245.09,-106.87 1248.91,-112.74"/>
</g>
<!-- 1443 -->
<g id="node30" class="node">
<title>1443</title>
<ellipse fill="white" stroke="black" cx="789.75" cy="-90.45" rx="25" ry="25"/>
<text text-anchor="middle" x="789.75" y="-88.25" font-family="Times New Roman,serif" font-size="9.00">1443</text>
</g>
<!-- 1443&#45;&gt;1 -->
<g id="edge164" class="edge">
<title>1443&#45;&gt;1</title>
<path fill="none" stroke="red" stroke-width="0.56" d="M803.95,-69.72C811.52,-59.21 820.81,-46.31 828.4,-35.77"/>
<polygon fill="red" stroke="red" stroke-width="0.56" points="831.3,-37.73 834.3,-27.57 825.62,-33.64 831.3,-37.73"/>
</g>
<!-- 1694&#45;&gt;1755 -->
<g id="edge173" class="edge">
<title>1694&#45;&gt;1755</title>
<path fill="none" stroke="red" stroke-width="0.3" d="M209.18,-253.8C175.94,-244.06 113.79,-224.46 63.75,-200.69 60.4,-199.1 56.98,-197.3 53.61,-195.42"/>
<polygon fill="red" stroke="red" stroke-width="0.3" points="55.35,-192.38 44.95,-190.34 51.8,-198.42 55.35,-192.38"/>
</g>
<!-- 1694&#45;&gt;862 -->
<g id="edge169" class="edge">
<title>1694&#45;&gt;862</title>
<path fill="none" stroke="green" stroke-width="0.14" d="M255.74,-251.41C269.7,-246.3 288.01,-240.23 304.75,-236.69 465.54,-202.75 510.48,-226.71 672.75,-200.69 698.4,-196.58 727.13,-190.02 748.2,-184.83"/>
<polygon fill="green" stroke="green" stroke-width="0.14" points="749.32,-188.16 758.18,-182.34 747.63,-181.37 749.32,-188.16"/>
</g>
<!-- 1242&#45;&gt;862 -->
<g id="edge170" class="edge">
<title>1242&#45;&gt;862</title>
<path fill="none" stroke="green" stroke-width="0.21" d="M777.33,-236.29C777.54,-227.33 777.79,-217.05 778.01,-207.59"/>
<polygon fill="green" stroke="green" stroke-width="0.21" points="781.52,-207.45 778.26,-197.37 774.52,-207.28 781.52,-207.45"/>
</g>
<!-- 1755&#45;&gt;864 -->
<g id="edge172" class="edge">
<title>1755&#45;&gt;864</title>
<path fill="none" stroke="green" stroke-width="0.24" d="M47.69,-166.56C62.84,-161.35 83.24,-154.96 101.75,-151.2 310.75,-108.74 568.13,-95.81 656.36,-92.47"/>
<polygon fill="green" stroke="green" stroke-width="0.24" points="656.63,-95.96 666.5,-92.1 656.38,-88.97 656.63,-95.96"/>
</g>
<!-- 860&#45;&gt;0 -->
<g id="edge128" class="edge">
<title>860&#45;&gt;0</title>
<path fill="none" stroke="red" stroke-width="0.84" d="M931.33,-162.49C936.99,-158.57 943.48,-154.42 949.75,-151.2 990.63,-130.13 1020.49,-152.95 1046.75,-115.2 1059.31,-97.14 1056.55,-85.39 1046.75,-65.7 1037.69,-47.5 1018.45,-34.18 1003.08,-25.91"/>
<polygon fill="red" stroke="red" stroke-width="0.84" points="1004.63,-22.78 994.13,-21.42 1001.49,-29.03 1004.63,-22.78"/>
</g>
<!-- 860&#45;&gt;1 -->
<g id="edge129" class="edge">
<title>860&#45;&gt;1</title>
<path fill="none" stroke="red" stroke-width="0.39" d="M931.73,-163.18C937.42,-159.31 943.82,-155.01 949.75,-151.2 975.58,-134.57 993.71,-141.98 1008.75,-115.2 1019.52,-96.01 1021.88,-83.35 1008.75,-65.7 991.77,-42.88 909.35,-26.58 867.39,-19.61"/>
<polygon fill="red" stroke="red" stroke-width="0.39" points="867.85,-16.14 857.43,-18.01 866.74,-23.05 867.85,-16.14"/>
</g>
<!-- 860&#45;&gt;2 -->
<g id="edge130" class="edge">
<title>860&#45;&gt;2</title>
<path fill="none" stroke="green" stroke-width="0.71" d="M931.57,-162.9C945.03,-152.13 962.91,-135.03 970.75,-115.2 978.84,-94.74 984.59,-82.8 970.75,-65.7 964.09,-57.47 819.71,-30.75 761.13,-20.19"/>
<polygon fill="green" stroke="green" stroke-width="0.71" points="761.7,-16.74 751.24,-18.42 760.46,-23.63 761.7,-16.74"/>
</g>
<!-- 860&#45;&gt;3 -->
<g id="edge131" class="edge">
<title>860&#45;&gt;3</title>
<path fill="none" stroke="green" stroke-width="0.16" d="M925.34,-157.16C937.93,-133.45 954.65,-91.48 932.75,-65.7 900.67,-27.95 759.55,-45.94 712.75,-29.7 711.51,-29.27 710.26,-28.78 709.01,-28.25"/>
<polygon fill="green" stroke="green" stroke-width="0.16" points="710.33,-24.99 699.82,-23.63 707.18,-31.25 710.33,-24.99"/>
</g>
<!-- 860&#45;&gt;4 -->
<g id="edge132" class="edge">
<title>860&#45;&gt;4</title>
<path fill="none" stroke="green" stroke-width="0.61" d="M904.99,-157.08C890.59,-132.48 861.23,-88.62 823.75,-65.7 761.56,-27.68 734.07,-48.89 663.75,-29.7 657.45,-27.98 650.7,-25.91 644.45,-23.91"/>
<polygon fill="green" stroke="green" stroke-width="0.61" points="645.19,-20.46 634.6,-20.66 643,-27.11 645.19,-20.46"/>
</g>
<!-- 861&#45;&gt;0 -->
<g id="edge133" class="edge">
<title>861&#45;&gt;0</title>
<path fill="none" stroke="red" stroke-width="0.21" stroke-dasharray="1,5" d="M556.77,-157.96C575.34,-133.18 613.51,-87.66 657.75,-65.7 684.4,-52.47 884.26,-27.45 955.57,-18.84"/>
<polygon fill="red" stroke="red" stroke-width="0.21" points="956.35,-22.27 965.86,-17.61 955.52,-15.32 956.35,-22.27"/>
</g>
<!-- 861&#45;&gt;1 -->
<g id="edge134" class="edge">
<title>861&#45;&gt;1</title>
<path fill="none" stroke="green" stroke-width="0.32" d="M523.53,-173.51C489.94,-169.97 425.42,-157.69 396.75,-115.2 384.44,-96.96 381.98,-82 396.75,-65.7 424.04,-35.58 720.47,-35.09 760.75,-29.7 780.05,-27.12 801.77,-23.41 818.01,-20.48"/>
<polygon fill="green" stroke="green" stroke-width="0.32" points="819.07,-23.85 828.28,-18.6 817.81,-16.96 819.07,-23.85"/>
</g>
<!-- 861&#45;&gt;2 -->
<g id="edge135" class="edge">
<title>861&#45;&gt;2</title>
<path fill="none" stroke="green" stroke-width="1.33" stroke-dasharray="1,5" d="M523.51,-175.48C483.45,-175.19 397.31,-168.09 358.75,-115.2 345.79,-97.42 344,-82.02 358.75,-65.7 411.6,-7.18 636.51,-53.28 711.75,-29.7 713,-29.31 714.26,-28.85 715.51,-28.34"/>
<polygon fill="green" stroke="green" stroke-width="1.33" points="717.31,-31.35 724.73,-23.79 714.22,-25.08 717.31,-31.35"/>
</g>
<!-- 861&#45;&gt;3 -->
<g id="edge136" class="edge">
<title>861&#45;&gt;3</title>
<path fill="none" stroke="red" stroke-width="0.33" d="M523.5,-172.53C472.53,-166.27 345.7,-147.67 320.75,-115.2 307.35,-97.75 306.08,-82.09 320.75,-65.7 369.06,-11.72 573.91,-44.88 644.75,-29.7 651.14,-28.33 657.92,-26.39 664.16,-24.39"/>
<polygon fill="red" stroke="red" stroke-width="0.33" points="665.65,-27.58 674,-21.06 663.4,-20.95 665.65,-27.58"/>
</g>
<!-- 861&#45;&gt;4 -->
<g id="edge137" class="edge">
<title>861&#45;&gt;4</title>
<path fill="none" stroke="red" stroke-width="0.27" d="M523.49,-173.75C449.71,-168.86 212.86,-146.65 282.75,-65.7 323.31,-18.71 523.48,-15.24 595.16,-15.53"/>
<polygon fill="red" stroke="red" stroke-width="0.27" points="595.49,-19.03 605.52,-15.6 595.54,-12.03 595.49,-19.03"/>
</g>
<!-- 862&#45;&gt;0 -->
<g id="edge138" class="edge">
<title>862&#45;&gt;0</title>
<path fill="none" stroke="red" stroke-width="0.41" d="M794.94,-162.19C831.67,-133.27 921.21,-62.74 961.06,-31.36"/>
<polygon fill="red" stroke="red" stroke-width="0.41" points="963.51,-33.88 969.21,-24.94 959.18,-28.38 963.51,-33.88"/>
</g>
<!-- 862&#45;&gt;1 -->
<g id="edge139" class="edge">
<title>862&#45;&gt;1</title>
<path fill="none" stroke="green" stroke-width="0.67" d="M793.13,-159.98C803.25,-148.59 816.28,-132.05 823.75,-115.2 834.49,-90.97 839.17,-60.79 841.2,-40.09"/>
<polygon fill="green" stroke="green" stroke-width="0.67" points="844.7,-40.2 842.06,-29.94 837.73,-39.61 844.7,-40.2"/>
</g>
<!-- 862&#45;&gt;2 -->
<g id="edge140" class="edge">
<title>862&#45;&gt;2</title>
<path fill="none" stroke="green" stroke-width="0.17" d="M770.51,-156.13C765.68,-144.51 759.75,-129.2 755.75,-115.2 748.51,-89.86 743.23,-60.1 740.1,-39.8"/>
<polygon fill="green" stroke="green" stroke-width="0.17" points="743.55,-39.23 738.62,-29.85 736.63,-40.26 743.55,-39.23"/>
</g>
<!-- 862&#45;&gt;3 -->
<g id="edge141" class="edge">
<title>862&#45;&gt;3</title>
<path fill="none" stroke="green" stroke-width="0.37" d="M757.55,-171.45C729.1,-165.5 679.64,-150.42 657.75,-115.2 642.17,-90.14 658.8,-56.48 672.81,-35.49"/>
<polygon fill="green" stroke="green" stroke-width="0.37" points="675.84,-37.26 678.74,-27.06 670.12,-33.22 675.84,-37.26"/>
</g>
<!-- 862&#45;&gt;4 -->
<g id="edge142" class="edge">
<title>862&#45;&gt;4</title>
<path fill="none" stroke="red" stroke-width="0.27" d="M757.99,-171.32C728.75,-165.11 675.79,-149.61 646.75,-115.2 628.85,-93.98 623.1,-61.82 621.35,-39.88"/>
<polygon fill="red" stroke="red" stroke-width="0.27" points="624.84,-39.52 620.76,-29.74 617.85,-39.92 624.84,-39.52"/>
</g>
</g>
</svg>
