<?xml version="1.0" encoding="UTF-8" standalone="no"?>
<!DOCTYPE svg PUBLIC "-//W3C//DTD SVG 1.1//EN"
 "http://www.w3.org/Graphics/SVG/1.1/DTD/svg11.dtd">
<!-- Generated by graphviz version 2.49.0 (20210828.1703)
 -->
<!-- Pages: 1 -->
<svg width="1613pt" height="408pt"
 viewBox="0.00 0.00 1613.20 408.23" xmlns="http://www.w3.org/2000/svg" xmlns:xlink="http://www.w3.org/1999/xlink">
<g id="graph0" class="graph" transform="scale(1 1) rotate(0) translate(4 404.23)">
<polygon fill="white" stroke="transparent" points="-4,4 -4,-404.23 1609.2,-404.23 1609.2,4 -4,4"/>
<!-- &#45;1 -->
<g id="node1" class="node">
<title>&#45;1</title>
<polygon fill="lightgray" stroke="black" points="315.7,-330.48 291.7,-330.48 291.7,-312.48 315.7,-312.48 315.7,-330.48"/>
<text text-anchor="middle" x="303.7" y="-319.28" font-family="Times New Roman,serif" font-size="9.00">&#45;1</text>
</g>
<!-- 2 -->
<g id="node23" class="node">
<title>2</title>
<ellipse fill="lightblue" stroke="black" cx="141.7" cy="-14.85" rx="14.7" ry="14.7"/>
<text text-anchor="middle" x="141.7" y="-12.65" font-family="Times New Roman,serif" font-size="9.00">2</text>
</g>
<!-- &#45;1&#45;&gt;2 -->
<g id="edge151" class="edge">
<title>&#45;1&#45;&gt;2</title>
<path fill="none" stroke="green" stroke-width="0.17" d="M291.42,-318.97C244.26,-312.43 74.16,-281.87 7.7,-175.24 -1.05,-161.2 -4.51,-85.66 9.7,-65.7 34.22,-31.24 85.7,-20.59 116.63,-17.3"/>
<polygon fill="green" stroke="green" stroke-width="0.17" points="116.98,-20.79 126.63,-16.42 116.36,-13.81 116.98,-20.79"/>
</g>
<!-- 65 -->
<g id="node26" class="node">
<title>65</title>
<ellipse fill="white" stroke="black" cx="1141.7" cy="-235.99" rx="18.27" ry="18.27"/>
<text text-anchor="middle" x="1141.7" y="-233.79" font-family="Times New Roman,serif" font-size="9.00">65</text>
</g>
<!-- &#45;1&#45;&gt;65 -->
<g id="edge1" class="edge">
<title>&#45;1&#45;&gt;65</title>
<path fill="none" stroke="green" stroke-width="0.47" d="M315.76,-314.46C327.64,-308.83 346.45,-300.71 363.7,-296.74 437.93,-279.61 982.31,-246.45 1113.38,-238.66"/>
<polygon fill="green" stroke="green" stroke-width="0.47" points="1113.65,-242.15 1123.43,-238.06 1113.24,-235.16 1113.65,-242.15"/>
</g>
<!-- 66 -->
<g id="node27" class="node">
<title>66</title>
<ellipse fill="white" stroke="black" cx="757.7" cy="-84.08" rx="18.27" ry="18.27"/>
<text text-anchor="middle" x="757.7" y="-81.88" font-family="Times New Roman,serif" font-size="9.00">66</text>
</g>
<!-- &#45;1&#45;&gt;66 -->
<g id="edge2" class="edge">
<title>&#45;1&#45;&gt;66</title>
<path fill="none" stroke="red" stroke-width="0.26" d="M303.88,-312.29C304.99,-283.22 312.98,-184.32 369.7,-138.47 424.87,-93.87 647.92,-86.51 728.49,-85.31"/>
<polygon fill="red" stroke="red" stroke-width="0.26" points="728.93,-88.8 738.88,-85.18 728.84,-81.8 728.93,-88.8"/>
</g>
<!-- 67 -->
<g id="node28" class="node">
<title>67</title>
<ellipse fill="white" stroke="black" cx="484.7" cy="-235.99" rx="18.27" ry="18.27"/>
<text text-anchor="middle" x="484.7" y="-233.79" font-family="Times New Roman,serif" font-size="9.00">67</text>
</g>
<!-- &#45;1&#45;&gt;67 -->
<g id="edge3" class="edge">
<title>&#45;1&#45;&gt;67</title>
<path fill="none" stroke="red" stroke-width="0.26" d="M311.26,-312.15C316.14,-307.16 322.84,-300.98 329.7,-296.74 370.9,-271.24 424.78,-253.48 456.96,-244.28"/>
<polygon fill="red" stroke="red" stroke-width="0.26" points="458.29,-247.54 466.98,-241.48 456.41,-240.79 458.29,-247.54"/>
</g>
<!-- 68 -->
<g id="node29" class="node">
<title>68</title>
<ellipse fill="white" stroke="black" cx="707.7" cy="-235.99" rx="18.27" ry="18.27"/>
<text text-anchor="middle" x="707.7" y="-233.79" font-family="Times New Roman,serif" font-size="9.00">68</text>
</g>
<!-- &#45;1&#45;&gt;68 -->
<g id="edge4" class="edge">
<title>&#45;1&#45;&gt;68</title>
<path fill="none" stroke="red" stroke-width="0.34" d="M315.8,-314.6C327.7,-309.07 346.53,-301.03 363.7,-296.74 500.83,-262.43 549.97,-316.88 679.7,-260.74 682.39,-259.57 685.01,-258.06 687.51,-256.37"/>
<polygon fill="red" stroke="red" stroke-width="0.34" points="689.74,-259.07 695.42,-250.12 685.4,-253.57 689.74,-259.07"/>
</g>
<!-- 69 -->
<g id="node30" class="node">
<title>69</title>
<ellipse fill="white" stroke="black" cx="652.7" cy="-235.99" rx="18.27" ry="18.27"/>
<text text-anchor="middle" x="652.7" y="-233.79" font-family="Times New Roman,serif" font-size="9.00">69</text>
</g>
<!-- &#45;1&#45;&gt;69 -->
<g id="edge5" class="edge">
<title>&#45;1&#45;&gt;69</title>
<path fill="none" stroke="green" stroke-width="0.34" d="M315.89,-314.94C327.86,-309.66 346.74,-301.8 363.7,-296.74 457.42,-268.73 572.09,-249.26 624.34,-241.18"/>
<polygon fill="green" stroke="green" stroke-width="0.34" points="625.15,-244.59 634.51,-239.63 624.09,-237.67 625.15,-244.59"/>
</g>
<!-- 74 -->
<g id="node31" class="node">
<title>74</title>
<ellipse fill="white" stroke="black" cx="928.7" cy="-156.85" rx="18.27" ry="18.27"/>
<text text-anchor="middle" x="928.7" y="-154.65" font-family="Times New Roman,serif" font-size="9.00">74</text>
</g>
<!-- &#45;1&#45;&gt;74 -->
<g id="edge6" class="edge">
<title>&#45;1&#45;&gt;74</title>
<path fill="none" stroke="green" stroke-width="0.25" d="M306.28,-312.37C313.42,-291.41 335.62,-235.38 375.7,-211.24 465.28,-157.28 799.89,-156.43 900.14,-157.43"/>
<polygon fill="green" stroke="green" stroke-width="0.25" points="900.1,-160.93 910.14,-157.54 900.18,-153.93 900.1,-160.93"/>
</g>
<!-- &#45;2 -->
<g id="node2" class="node">
<title>&#45;2</title>
<polygon fill="lightgray" stroke="black" points="938.7,-330.48 914.7,-330.48 914.7,-312.48 938.7,-312.48 938.7,-330.48"/>
<text text-anchor="middle" x="926.7" y="-319.28" font-family="Times New Roman,serif" font-size="9.00">&#45;2</text>
</g>
<!-- &#45;2&#45;&gt;65 -->
<g id="edge7" class="edge">
<title>&#45;2&#45;&gt;65</title>
<path fill="none" stroke="green" stroke-width="0.39" d="M932.07,-312.4C935.88,-307.24 941.41,-300.79 947.7,-296.74 975.58,-278.76 1067.37,-254.91 1114,-243.55"/>
<polygon fill="green" stroke="green" stroke-width="0.39" points="1114.85,-246.94 1123.75,-241.19 1113.21,-240.14 1114.85,-246.94"/>
</g>
<!-- &#45;2&#45;&gt;66 -->
<g id="edge8" class="edge">
<title>&#45;2&#45;&gt;66</title>
<path fill="none" stroke="green" stroke-width="0.24" d="M934.26,-312.11C946.27,-298.58 968.78,-272.26 972.7,-260.74 990.38,-208.8 993.83,-177.91 955.7,-138.47 910.65,-91.86 829.53,-84.55 786.43,-84.21"/>
<polygon fill="green" stroke="green" stroke-width="0.24" points="786.32,-80.71 776.34,-84.25 786.35,-87.71 786.32,-80.71"/>
</g>
<!-- &#45;2&#45;&gt;67 -->
<g id="edge9" class="edge">
<title>&#45;2&#45;&gt;67</title>
<path fill="none" stroke="red" stroke-width="0.16" d="M921.54,-312.03C917.83,-306.72 912.31,-300.24 905.7,-296.74 794.84,-237.98 749.81,-279.16 625.7,-260.74 586.51,-254.92 541.38,-247.12 512.95,-242.08"/>
<polygon fill="red" stroke="red" stroke-width="0.16" points="513.38,-238.6 502.92,-240.29 512.15,-245.49 513.38,-238.6"/>
</g>
<!-- &#45;2&#45;&gt;68 -->
<g id="edge10" class="edge">
<title>&#45;2&#45;&gt;68</title>
<path fill="none" stroke="green" stroke-width="0.25" d="M921.34,-312.38C917.53,-307.22 912,-300.77 905.7,-296.74 851.59,-262.06 776.34,-246.66 735.97,-240.54"/>
<polygon fill="green" stroke="green" stroke-width="0.25" points="736.42,-237.07 726.03,-239.11 735.43,-244 736.42,-237.07"/>
</g>
<!-- &#45;2&#45;&gt;69 -->
<g id="edge11" class="edge">
<title>&#45;2&#45;&gt;69</title>
<path fill="none" stroke="red" stroke-width="0.12" d="M921.51,-312.1C917.78,-306.82 912.26,-300.34 905.7,-296.74 816.96,-247.94 772.71,-303.05 680.7,-260.74 678.04,-259.51 675.43,-257.96 672.95,-256.24"/>
<polygon fill="red" stroke="red" stroke-width="0.12" points="675.06,-253.45 665.05,-249.98 670.7,-258.93 675.06,-253.45"/>
</g>
<!-- &#45;2&#45;&gt;74 -->
<g id="edge12" class="edge">
<title>&#45;2&#45;&gt;74</title>
<path fill="none" stroke="green" stroke-width="0.22" d="M932.46,-312.48C940,-301.46 952.82,-280.72 957.7,-260.74 962.91,-239.36 963.12,-232.56 957.7,-211.24 955.04,-200.77 949.87,-190.13 944.62,-181.14"/>
<polygon fill="green" stroke="green" stroke-width="0.22" points="947.46,-179.09 939.22,-172.43 941.51,-182.78 947.46,-179.09"/>
</g>
<!-- &#45;3 -->
<g id="node3" class="node">
<title>&#45;3</title>
<polygon fill="lightgray" stroke="black" points="980.7,-330.48 956.7,-330.48 956.7,-312.48 980.7,-312.48 980.7,-330.48"/>
<text text-anchor="middle" x="968.7" y="-319.28" font-family="Times New Roman,serif" font-size="9.00">&#45;3</text>
</g>
<!-- &#45;3&#45;&gt;65 -->
<g id="edge13" class="edge">
<title>&#45;3&#45;&gt;65</title>
<path fill="none" stroke="green" stroke-width="0.16" d="M974.06,-312.38C977.86,-307.22 983.39,-300.77 989.7,-296.74 1036.61,-266.73 1059.93,-285.7 1109.7,-260.74 1113.12,-259.02 1116.55,-256.94 1119.83,-254.73"/>
<polygon fill="green" stroke="green" stroke-width="0.16" points="1122.03,-257.46 1128.05,-248.75 1117.91,-251.8 1122.03,-257.46"/>
</g>
<!-- &#45;3&#45;&gt;66 -->
<g id="edge14" class="edge">
<title>&#45;3&#45;&gt;66</title>
<path fill="none" stroke="green" stroke-width="0.17" stroke-dasharray="1,5" d="M972.87,-312.3C986.6,-284.08 1026.98,-189.77 981.7,-138.47 956.03,-109.39 840.56,-93.72 786.18,-87.84"/>
<polygon fill="green" stroke="green" stroke-width="0.17" points="786.48,-84.35 776.17,-86.79 785.75,-91.31 786.48,-84.35"/>
</g>
<!-- &#45;3&#45;&gt;67 -->
<g id="edge15" class="edge">
<title>&#45;3&#45;&gt;67</title>
<path fill="none" stroke="green" stroke-width="0.68" d="M963.88,-312.46C960.18,-307.06 954.54,-300.29 947.7,-296.74 819.91,-230.36 768.31,-280.7 625.7,-260.74 586.46,-255.24 541.34,-247.37 512.93,-242.22"/>
<polygon fill="green" stroke="green" stroke-width="0.68" points="513.37,-238.74 502.9,-240.38 512.11,-245.62 513.37,-238.74"/>
</g>
<!-- &#45;3&#45;&gt;68 -->
<g id="edge16" class="edge">
<title>&#45;3&#45;&gt;68</title>
<path fill="none" stroke="red" stroke-width="0.25" d="M963.4,-312.28C959.63,-307.08 954.1,-300.62 947.7,-296.74 879.42,-255.3 783.65,-242.54 736.4,-238.65"/>
<polygon fill="red" stroke="red" stroke-width="0.25" points="736.5,-235.15 726.27,-237.9 735.98,-242.13 736.5,-235.15"/>
</g>
<!-- &#45;3&#45;&gt;69 -->
<g id="edge17" class="edge">
<title>&#45;3&#45;&gt;69</title>
<path fill="none" stroke="red" stroke-width="0.51" d="M963.54,-312.04C959.82,-306.74 954.3,-300.26 947.7,-296.74 842.07,-240.34 790.1,-309.42 680.7,-260.74 678.02,-259.54 675.41,-258.02 672.92,-256.31"/>
<polygon fill="red" stroke="red" stroke-width="0.51" points="675.02,-253.52 665.01,-250.06 670.68,-259.01 675.02,-253.52"/>
</g>
<!-- &#45;3&#45;&gt;74 -->
<g id="edge18" class="edge">
<title>&#45;3&#45;&gt;74</title>
<path fill="none" stroke="green" stroke-width="0.41" d="M971.03,-312.22C975.87,-293.55 985.53,-246.96 972.7,-211.24 968.01,-198.17 958.58,-186.01 949.65,-176.61"/>
<polygon fill="green" stroke="green" stroke-width="0.41" points="951.94,-173.96 942.38,-169.41 947.02,-178.93 951.94,-173.96"/>
</g>
<!-- &#45;4 -->
<g id="node4" class="node">
<title>&#45;4</title>
<polygon fill="lightgray" stroke="black" points="1064.7,-330.48 1040.7,-330.48 1040.7,-312.48 1064.7,-312.48 1064.7,-330.48"/>
<text text-anchor="middle" x="1052.7" y="-319.28" font-family="Times New Roman,serif" font-size="9.00">&#45;4</text>
</g>
<!-- &#45;4&#45;&gt;65 -->
<g id="edge19" class="edge">
<title>&#45;4&#45;&gt;65</title>
<path fill="none" stroke="green" stroke-width="0.3" stroke-dasharray="1,5" d="M1059.46,-312.34C1063.46,-307.65 1068.71,-301.71 1073.7,-296.74 1088.45,-282.03 1106.14,-266.55 1119.79,-255.02"/>
<polygon fill="green" stroke="green" stroke-width="0.3" points="1122.28,-257.5 1127.7,-248.4 1117.78,-252.14 1122.28,-257.5"/>
</g>
<!-- &#45;4&#45;&gt;66 -->
<g id="edge20" class="edge">
<title>&#45;4&#45;&gt;66</title>
<path fill="none" stroke="green" stroke-width="0.12" d="M1058.03,-312.33C1061.81,-307.14 1067.34,-300.69 1073.7,-296.74 1125.33,-264.61 1168.79,-309.06 1205.7,-260.74 1219.05,-243.25 1217.01,-230.11 1205.7,-211.24 1170.47,-152.43 1134.55,-160.71 1069.7,-138.47 969.07,-103.96 842.21,-91.11 786.34,-86.9"/>
<polygon fill="green" stroke="green" stroke-width="0.12" points="786.37,-83.39 776.14,-86.17 785.87,-90.38 786.37,-83.39"/>
</g>
<!-- &#45;4&#45;&gt;67 -->
<g id="edge21" class="edge">
<title>&#45;4&#45;&gt;67</title>
<path fill="none" stroke="green" stroke-width="0.45" d="M1047.91,-312.41C1044.21,-306.99 1038.58,-300.21 1031.7,-296.74 950.85,-255.91 715.54,-272.27 625.7,-260.74 586.4,-255.69 541.3,-247.71 512.9,-242.41"/>
<polygon fill="green" stroke="green" stroke-width="0.45" points="513.36,-238.93 502.88,-240.52 512.06,-245.81 513.36,-238.93"/>
</g>
<!-- &#45;4&#45;&gt;68 -->
<g id="edge22" class="edge">
<title>&#45;4&#45;&gt;68</title>
<path fill="none" stroke="green" stroke-width="0.36" d="M1047.48,-312.15C1043.74,-306.89 1038.22,-300.42 1031.7,-296.74 933.97,-241.48 795.63,-235.83 736.41,-236.2"/>
<polygon fill="green" stroke="green" stroke-width="0.36" points="736.26,-232.7 726.3,-236.33 736.35,-239.7 736.26,-232.7"/>
</g>
<!-- &#45;4&#45;&gt;69 -->
<g id="edge23" class="edge">
<title>&#45;4&#45;&gt;69</title>
<path fill="none" stroke="green" stroke-width="0.92" d="M1047.89,-312.44C1044.19,-307.03 1038.55,-300.26 1031.7,-296.74 892.21,-225.09 824.97,-322.21 680.7,-260.74 678.01,-259.59 675.38,-258.09 672.88,-256.4"/>
<polygon fill="green" stroke="green" stroke-width="0.92" points="674.99,-253.6 664.96,-250.16 670.65,-259.1 674.99,-253.6"/>
</g>
<!-- &#45;4&#45;&gt;74 -->
<g id="edge24" class="edge">
<title>&#45;4&#45;&gt;74</title>
<path fill="none" stroke="green" stroke-width="0.38" stroke-dasharray="1,5" d="M1058.08,-312.41C1061.89,-307.26 1067.42,-300.81 1073.7,-296.74 1118.25,-267.78 1156.29,-303.59 1187.7,-260.74 1200.7,-242.99 1201.6,-228.29 1187.7,-211.24 1158.84,-175.82 1018.28,-163.2 957.17,-159.34"/>
<polygon fill="green" stroke="green" stroke-width="0.38" points="957.25,-155.84 947.06,-158.74 956.83,-162.83 957.25,-155.84"/>
</g>
<!-- &#45;5 -->
<g id="node5" class="node">
<title>&#45;5</title>
<polygon fill="lightgray" stroke="black" points="1106.7,-330.48 1082.7,-330.48 1082.7,-312.48 1106.7,-312.48 1106.7,-330.48"/>
<text text-anchor="middle" x="1094.7" y="-319.28" font-family="Times New Roman,serif" font-size="9.00">&#45;5</text>
</g>
<!-- &#45;5&#45;&gt;65 -->
<g id="edge25" class="edge">
<title>&#45;5&#45;&gt;65</title>
<path fill="none" stroke="green" stroke-width="0.23" stroke-dasharray="1,5" d="M1099.21,-312.48C1105.76,-300.84 1118.2,-278.74 1127.93,-261.45"/>
<polygon fill="green" stroke="green" stroke-width="0.23" points="1131.15,-262.87 1133,-252.44 1125.05,-259.43 1131.15,-262.87"/>
</g>
<!-- &#45;5&#45;&gt;66 -->
<g id="edge26" class="edge">
<title>&#45;5&#45;&gt;66</title>
<path fill="none" stroke="green" stroke-width="0.38" d="M1100.1,-312.44C1103.92,-307.31 1109.46,-300.86 1115.7,-296.74 1157.9,-268.83 1194.12,-301.78 1223.7,-260.74 1236.56,-242.89 1233.07,-231.14 1223.7,-211.24 1202.09,-165.32 1182.13,-158.96 1135.7,-138.47 1072.85,-110.73 863.92,-92.91 786.71,-87.13"/>
<polygon fill="green" stroke="green" stroke-width="0.38" points="786.53,-83.61 776.3,-86.37 786.02,-90.59 786.53,-83.61"/>
</g>
<!-- &#45;5&#45;&gt;67 -->
<g id="edge27" class="edge">
<title>&#45;5&#45;&gt;67</title>
<path fill="none" stroke="green" stroke-width="0.29" d="M1089.92,-312.4C1086.23,-306.96 1080.59,-300.18 1073.7,-296.74 984.36,-252.09 724.82,-273.04 625.7,-260.74 586.38,-255.85 541.28,-247.83 512.89,-242.48"/>
<polygon fill="green" stroke="green" stroke-width="0.29" points="513.36,-239 502.88,-240.57 512.05,-245.88 513.36,-239"/>
</g>
<!-- &#45;5&#45;&gt;68 -->
<g id="edge28" class="edge">
<title>&#45;5&#45;&gt;68</title>
<path fill="none" stroke="green" stroke-width="0.29" d="M1089.5,-312.11C1085.77,-306.83 1080.25,-300.35 1073.7,-296.74 1015.41,-264.56 812.4,-245.38 736.57,-239.19"/>
<polygon fill="green" stroke="green" stroke-width="0.29" points="736.58,-235.68 726.34,-238.37 736.03,-242.66 736.58,-235.68"/>
</g>
<!-- &#45;5&#45;&gt;69 -->
<g id="edge29" class="edge">
<title>&#45;5&#45;&gt;69</title>
<path fill="none" stroke="green" stroke-width="0.68" d="M1089.91,-312.42C1086.21,-306.99 1080.57,-300.22 1073.7,-296.74 917.25,-217.45 842.43,-328.62 680.7,-260.74 677.94,-259.58 675.26,-258.05 672.71,-256.32"/>
<polygon fill="green" stroke="green" stroke-width="0.68" points="674.68,-253.42 664.67,-249.95 670.33,-258.9 674.68,-253.42"/>
</g>
<!-- &#45;5&#45;&gt;74 -->
<g id="edge30" class="edge">
<title>&#45;5&#45;&gt;74</title>
<path fill="none" stroke="red" stroke-width="0.29" d="M1100.52,-312.1C1104.36,-307.09 1109.75,-300.91 1115.7,-296.74 1151.31,-271.76 1182.25,-296.7 1206.7,-260.74 1219.07,-242.54 1220.71,-228.2 1206.7,-211.24 1175.26,-173.18 1021.99,-161.98 957.44,-158.92"/>
<polygon fill="red" stroke="red" stroke-width="0.29" points="957.32,-155.41 947.17,-158.47 957.01,-162.4 957.32,-155.41"/>
</g>
<!-- &#45;6 -->
<g id="node6" class="node">
<title>&#45;6</title>
<polygon fill="lightgray" stroke="black" points="678.7,-330.48 654.7,-330.48 654.7,-312.48 678.7,-312.48 678.7,-330.48"/>
<text text-anchor="middle" x="666.7" y="-319.28" font-family="Times New Roman,serif" font-size="9.00">&#45;6</text>
</g>
<!-- &#45;6&#45;&gt;65 -->
<g id="edge31" class="edge">
<title>&#45;6&#45;&gt;65</title>
<path fill="none" stroke="red" stroke-width="0.52" d="M678.7,-317.24C697.11,-312.35 733.46,-302.99 764.7,-296.74 894.31,-270.8 1050.81,-249.01 1113.62,-240.65"/>
<polygon fill="red" stroke="red" stroke-width="0.52" points="1114.1,-244.11 1123.56,-239.33 1113.19,-237.17 1114.1,-244.11"/>
</g>
<!-- &#45;6&#45;&gt;66 -->
<g id="edge32" class="edge">
<title>&#45;6&#45;&gt;66</title>
<path fill="none" stroke="red" stroke-width="0.18" d="M660.3,-312.47C649.67,-298.96 629.2,-272.03 625.7,-260.74 619.18,-239.72 617.05,-231.47 625.7,-211.24 647.59,-160.04 701.59,-119.7 733.33,-99.43"/>
<polygon fill="red" stroke="red" stroke-width="0.18" points="735.38,-102.28 742.02,-94.02 731.68,-96.33 735.38,-102.28"/>
</g>
<!-- &#45;6&#45;&gt;67 -->
<g id="edge33" class="edge">
<title>&#45;6&#45;&gt;67</title>
<path fill="none" stroke="red" stroke-width="0.31" d="M660.91,-312.06C657.09,-307.03 651.69,-300.84 645.7,-296.74 634.23,-288.87 553.99,-260.74 511.29,-246.06"/>
<polygon fill="red" stroke="red" stroke-width="0.31" points="512.39,-242.74 501.8,-242.8 510.12,-249.36 512.39,-242.74"/>
</g>
<!-- &#45;6&#45;&gt;68 -->
<g id="edge34" class="edge">
<title>&#45;6&#45;&gt;68</title>
<path fill="none" stroke="red" stroke-width="0.11" d="M670.63,-312.48C676.31,-300.91 687.07,-279 695.54,-261.76"/>
<polygon fill="red" stroke="red" stroke-width="0.11" points="698.69,-263.27 699.96,-252.75 692.41,-260.19 698.69,-263.27"/>
</g>
<!-- &#45;6&#45;&gt;69 -->
<g id="edge35" class="edge">
<title>&#45;6&#45;&gt;69</title>
<path fill="none" stroke="red" stroke-width="0.2" d="M665.36,-312.48C663.51,-301.46 660.09,-281.07 657.27,-264.26"/>
<polygon fill="red" stroke="red" stroke-width="0.2" points="660.72,-263.65 655.61,-254.37 653.82,-264.81 660.72,-263.65"/>
</g>
<!-- &#45;7 -->
<g id="node7" class="node">
<title>&#45;7</title>
<polygon fill="lightgray" stroke="black" points="1228.7,-330.48 1204.7,-330.48 1204.7,-312.48 1228.7,-312.48 1228.7,-330.48"/>
<text text-anchor="middle" x="1216.7" y="-319.28" font-family="Times New Roman,serif" font-size="9.00">&#45;7</text>
</g>
<!-- &#45;7&#45;&gt;65 -->
<g id="edge36" class="edge">
<title>&#45;7&#45;&gt;65</title>
<path fill="none" stroke="green" stroke-width="0.86" d="M1209.51,-312.48C1198.32,-300.02 1176.37,-275.58 1160.47,-257.88"/>
<polygon fill="green" stroke="green" stroke-width="0.86" points="1162.93,-255.39 1153.65,-250.29 1157.72,-260.06 1162.93,-255.39"/>
</g>
<!-- &#45;7&#45;&gt;66 -->
<g id="edge37" class="edge">
<title>&#45;7&#45;&gt;66</title>
<path fill="none" stroke="green" stroke-width="0.44" d="M1221.52,-312.46C1225.22,-307.06 1230.86,-300.29 1237.7,-296.74 1301.6,-263.55 1511.7,-314.4 1559.7,-260.74 1574.37,-244.34 1573.53,-228.34 1559.7,-211.24 1460.14,-88.11 917.56,-83.94 786.3,-84.76"/>
<polygon fill="green" stroke="green" stroke-width="0.44" points="786.2,-81.26 776.22,-84.84 786.25,-88.26 786.2,-81.26"/>
</g>
<!-- &#45;7&#45;&gt;67 -->
<g id="edge38" class="edge">
<title>&#45;7&#45;&gt;67</title>
<path fill="none" stroke="red" stroke-width="0.21" d="M1204.41,-314.2C1192.73,-308.56 1174.49,-300.58 1157.7,-296.74 926.69,-243.83 861.06,-288.45 625.7,-260.74 586.35,-256.1 541.26,-248.01 512.88,-242.58"/>
<polygon fill="red" stroke="red" stroke-width="0.21" points="513.35,-239.11 502.87,-240.64 512.02,-245.98 513.35,-239.11"/>
</g>
<!-- &#45;7&#45;&gt;68 -->
<g id="edge39" class="edge">
<title>&#45;7&#45;&gt;68</title>
<path fill="none" stroke="red" stroke-width="0.34" d="M1204.35,-314.45C1192.62,-308.98 1174.36,-301.12 1157.7,-296.74 1001.84,-255.72 807.83,-242.1 736.08,-238.29"/>
<polygon fill="red" stroke="red" stroke-width="0.34" points="736.19,-234.79 726.02,-237.77 735.83,-241.78 736.19,-234.79"/>
</g>
<!-- &#45;7&#45;&gt;69 -->
<g id="edge40" class="edge">
<title>&#45;7&#45;&gt;69</title>
<path fill="none" stroke="red" stroke-width="0.84" d="M1204.4,-314.23C1192.71,-308.61 1174.48,-300.65 1157.7,-296.74 950.65,-248.47 877.39,-341.44 680.7,-260.74 677.94,-259.6 675.25,-258.09 672.69,-256.37"/>
<polygon fill="red" stroke="red" stroke-width="0.84" points="674.66,-253.46 664.65,-250 670.32,-258.95 674.66,-253.46"/>
</g>
<!-- &#45;7&#45;&gt;74 -->
<g id="edge41" class="edge">
<title>&#45;7&#45;&gt;74</title>
<path fill="none" stroke="red" stroke-width="0.22" d="M1221.52,-312.48C1225.23,-307.08 1230.87,-300.31 1237.7,-296.74 1297.77,-265.27 1495.67,-311.43 1540.7,-260.74 1555.31,-244.29 1555.56,-227.45 1540.7,-211.24 1500.86,-167.77 1073.26,-159.57 957.47,-158.14"/>
<polygon fill="red" stroke="red" stroke-width="0.22" points="957.3,-154.63 947.26,-158.02 957.22,-161.63 957.3,-154.63"/>
</g>
<!-- 1384 -->
<g id="node32" class="node">
<title>1384</title>
<ellipse fill="white" stroke="black" cx="1506.7" cy="-235.99" rx="25" ry="25"/>
<text text-anchor="middle" x="1506.7" y="-233.79" font-family="Times New Roman,serif" font-size="9.00">1384</text>
</g>
<!-- &#45;7&#45;&gt;1384 -->
<g id="edge152" class="edge">
<title>&#45;7&#45;&gt;1384</title>
<path fill="none" stroke="red" stroke-width="0.37" d="M1221.89,-312.09C1225.62,-306.81 1231.13,-300.33 1237.7,-296.74 1328.45,-247.04 1370.55,-296.32 1467.7,-260.74 1471.18,-259.46 1474.69,-257.86 1478.1,-256.09"/>
<polygon fill="red" stroke="red" stroke-width="0.37" points="1479.85,-259.13 1486.82,-251.15 1476.4,-253.04 1479.85,-259.13"/>
</g>
<!-- &#45;8 -->
<g id="node8" class="node">
<title>&#45;8</title>
<polygon fill="lightgray" stroke="black" points="1022.7,-330.48 998.7,-330.48 998.7,-312.48 1022.7,-312.48 1022.7,-330.48"/>
<text text-anchor="middle" x="1010.7" y="-319.28" font-family="Times New Roman,serif" font-size="9.00">&#45;8</text>
</g>
<!-- &#45;8&#45;&gt;65 -->
<g id="edge42" class="edge">
<title>&#45;8&#45;&gt;65</title>
<path fill="none" stroke="red" stroke-width="0.35" d="M1016.61,-312.22C1020.47,-307.25 1025.87,-301.07 1031.7,-296.74 1062.33,-273.95 1076.86,-280.22 1109.7,-260.74 1112.99,-258.78 1116.35,-256.57 1119.59,-254.3"/>
<polygon fill="red" stroke="red" stroke-width="0.35" points="1121.8,-257.02 1127.8,-248.28 1117.66,-251.37 1121.8,-257.02"/>
</g>
<!-- &#45;8&#45;&gt;66 -->
<g id="edge43" class="edge">
<title>&#45;8&#45;&gt;66</title>
<path fill="none" stroke="green" stroke-width="0.14" d="M1015.98,-312.24C1019.74,-307.03 1025.27,-300.56 1031.7,-296.74 1092.85,-260.35 1143.4,-316.42 1187.7,-260.74 1201.4,-243.52 1200.07,-229.43 1187.7,-211.24 1175.34,-193.06 1024.73,-144.86 1003.7,-138.47 926.28,-114.93 832.17,-97.51 786,-89.68"/>
<polygon fill="green" stroke="green" stroke-width="0.14" points="786.3,-86.18 775.86,-87.98 785.14,-93.08 786.3,-86.18"/>
</g>
<!-- &#45;8&#45;&gt;67 -->
<g id="edge44" class="edge">
<title>&#45;8&#45;&gt;67</title>
<path fill="none" stroke="green" stroke-width="0.24" d="M1005.9,-312.44C1002.2,-307.02 996.56,-300.24 989.7,-296.74 917.33,-259.73 706.27,-271.49 625.7,-260.74 586.43,-255.49 541.32,-247.56 512.91,-242.32"/>
<polygon fill="green" stroke="green" stroke-width="0.24" points="513.36,-238.85 502.89,-240.46 512.08,-245.73 513.36,-238.85"/>
</g>
<!-- &#45;8&#45;&gt;68 -->
<g id="edge45" class="edge">
<title>&#45;8&#45;&gt;68</title>
<path fill="none" stroke="green" stroke-width="0.51" d="M1005.45,-312.21C1001.69,-306.97 996.17,-300.5 989.7,-296.74 906.78,-248.4 789.83,-238.95 736.38,-237.25"/>
<polygon fill="green" stroke="green" stroke-width="0.51" points="736.35,-233.75 726.26,-237 736.17,-240.75 736.35,-233.75"/>
</g>
<!-- &#45;8&#45;&gt;69 -->
<g id="edge46" class="edge">
<title>&#45;8&#45;&gt;69</title>
<path fill="none" stroke="green" stroke-width="0.61" d="M1005.88,-312.47C1002.17,-307.07 996.53,-300.3 989.7,-296.74 867.15,-232.72 807.52,-315.81 680.7,-260.74 678.01,-259.57 675.39,-258.06 672.89,-256.36"/>
<polygon fill="green" stroke="green" stroke-width="0.61" points="675,-253.56 664.98,-250.12 670.66,-259.06 675,-253.56"/>
</g>
<!-- &#45;8&#45;&gt;74 -->
<g id="edge47" class="edge">
<title>&#45;8&#45;&gt;74</title>
<path fill="none" stroke="green" stroke-width="0.21" d="M1016.02,-312.31C1019.8,-307.12 1025.33,-300.66 1031.7,-296.74 1085.31,-263.73 1130.25,-310.59 1168.7,-260.74 1182.13,-243.31 1182.46,-228.4 1168.7,-211.24 1142.48,-178.55 1015.3,-164.6 957.45,-159.87"/>
<polygon fill="green" stroke="green" stroke-width="0.21" points="957.42,-156.36 947.18,-159.07 956.87,-163.34 957.42,-156.36"/>
</g>
<!-- &#45;9 -->
<g id="node9" class="node">
<title>&#45;9</title>
<polygon fill="lightgray" stroke="black" points="1148.7,-330.48 1124.7,-330.48 1124.7,-312.48 1148.7,-312.48 1148.7,-330.48"/>
<text text-anchor="middle" x="1136.7" y="-319.28" font-family="Times New Roman,serif" font-size="9.00">&#45;9</text>
</g>
<!-- &#45;9&#45;&gt;65 -->
<g id="edge48" class="edge">
<title>&#45;9&#45;&gt;65</title>
<path fill="none" stroke="green" stroke-width="0.5" d="M1137.18,-312.48C1137.83,-301.56 1139.04,-281.45 1140.04,-264.74"/>
<polygon fill="green" stroke="green" stroke-width="0.5" points="1143.56,-264.56 1140.66,-254.37 1136.57,-264.14 1143.56,-264.56"/>
</g>
<!-- &#45;9&#45;&gt;66 -->
<g id="edge49" class="edge">
<title>&#45;9&#45;&gt;66</title>
<path fill="none" stroke="green" stroke-width="0.25" d="M1148.82,-315.44C1174.16,-304.61 1231.26,-278.68 1241.7,-260.74 1272.13,-208.41 1234.73,-167.66 1181.7,-138.47 1113.21,-100.76 870.11,-88.96 786.33,-85.96"/>
<polygon fill="green" stroke="green" stroke-width="0.25" points="786.37,-82.46 776.25,-85.62 786.13,-89.46 786.37,-82.46"/>
</g>
<!-- &#45;9&#45;&gt;67 -->
<g id="edge50" class="edge">
<title>&#45;9&#45;&gt;67</title>
<path fill="none" stroke="green" stroke-width="0.4" stroke-dasharray="1,5" d="M1131.92,-312.38C1128.24,-306.94 1122.6,-300.16 1115.7,-296.74 1017.87,-248.26 734.1,-273.82 625.7,-260.74 586.36,-255.99 541.27,-247.93 512.89,-242.53"/>
<polygon fill="green" stroke="green" stroke-width="0.4" points="513.35,-239.06 502.87,-240.61 512.03,-245.93 513.35,-239.06"/>
</g>
<!-- &#45;9&#45;&gt;68 -->
<g id="edge51" class="edge">
<title>&#45;9&#45;&gt;68</title>
<path fill="none" stroke="green" stroke-width="0.47" d="M1131.52,-312.07C1127.8,-306.78 1122.28,-300.3 1115.7,-296.74 1049.57,-260.94 817.24,-243.66 736,-238.61"/>
<polygon fill="green" stroke="green" stroke-width="0.47" points="736.2,-235.12 726,-238 735.77,-242.1 736.2,-235.12"/>
</g>
<!-- &#45;9&#45;&gt;69 -->
<g id="edge52" class="edge">
<title>&#45;9&#45;&gt;69</title>
<path fill="none" stroke="red" stroke-width="0.15" d="M1131.92,-312.4C1128.22,-306.97 1122.59,-300.19 1115.7,-296.74 942.27,-209.8 859.9,-335.03 680.7,-260.74 677.94,-259.59 675.25,-258.07 672.7,-256.35"/>
<polygon fill="red" stroke="red" stroke-width="0.15" points="674.67,-253.44 664.66,-249.98 670.32,-258.93 674.67,-253.44"/>
</g>
<!-- &#45;9&#45;&gt;74 -->
<g id="edge53" class="edge">
<title>&#45;9&#45;&gt;74</title>
<path fill="none" stroke="red" stroke-width="0.24" d="M1148.91,-316.45C1169.03,-309.07 1208.53,-291.25 1224.7,-260.74 1235,-241.3 1238.81,-228.12 1224.7,-211.24 1190.76,-170.63 1024.97,-160.86 957.42,-158.55"/>
<polygon fill="red" stroke="red" stroke-width="0.24" points="957.2,-155.04 947.09,-158.23 956.98,-162.04 957.2,-155.04"/>
</g>
<!-- &#45;9&#45;&gt;1384 -->
<g id="edge147" class="edge">
<title>&#45;9&#45;&gt;1384</title>
<path fill="none" stroke="green" stroke-width="0.11" d="M1149.05,-314.45C1160.78,-308.98 1179.04,-301.12 1195.7,-296.74 1313.63,-265.72 1352.71,-301.32 1467.7,-260.74 1471.19,-259.5 1474.71,-257.93 1478.13,-256.18"/>
<polygon fill="green" stroke="green" stroke-width="0.11" points="1479.87,-259.21 1486.86,-251.25 1476.43,-253.12 1479.87,-259.21"/>
</g>
<!-- &#45;10 -->
<g id="node10" class="node">
<title>&#45;10</title>
<polygon fill="lightgray" stroke="black" points="1343.2,-330.48 1314.2,-330.48 1314.2,-312.48 1343.2,-312.48 1343.2,-330.48"/>
<text text-anchor="middle" x="1328.7" y="-319.28" font-family="Times New Roman,serif" font-size="9.00">&#45;10</text>
</g>
<!-- &#45;10&#45;&gt;65 -->
<g id="edge54" class="edge">
<title>&#45;10&#45;&gt;65</title>
<path fill="none" stroke="red" stroke-width="0.23" d="M1322.21,-312.07C1317.97,-307.04 1312.06,-300.86 1305.7,-296.74 1262.15,-268.49 1203.46,-251.29 1169.39,-243.01"/>
<polygon fill="red" stroke="red" stroke-width="0.23" points="1170.18,-239.6 1159.65,-240.72 1168.58,-246.41 1170.18,-239.6"/>
</g>
<!-- &#45;10&#45;&gt;66 -->
<g id="edge55" class="edge">
<title>&#45;10&#45;&gt;66</title>
<path fill="none" stroke="red" stroke-width="0.15" d="M1343.25,-319.3C1392.12,-315.02 1548.91,-298.48 1578.7,-260.74 1592.33,-243.47 1588.68,-230.84 1578.7,-211.24 1553.76,-162.25 1530.31,-157.39 1478.7,-138.47 1348.14,-90.59 903.43,-85.6 786.21,-85.12"/>
<polygon fill="red" stroke="red" stroke-width="0.15" points="786.22,-81.62 776.21,-85.09 786.2,-88.62 786.22,-81.62"/>
</g>
<!-- &#45;10&#45;&gt;68 -->
<g id="edge56" class="edge">
<title>&#45;10&#45;&gt;68</title>
<path fill="none" stroke="green" stroke-width="0.16" d="M1323.27,-312.43C1319.13,-307.01 1312.93,-300.23 1305.7,-296.74 1253.94,-271.7 848.02,-245.48 736.16,-238.68"/>
<polygon fill="green" stroke="green" stroke-width="0.16" points="736.18,-235.17 725.99,-238.06 735.76,-242.16 736.18,-235.17"/>
</g>
<!-- &#45;10&#45;&gt;69 -->
<g id="edge57" class="edge">
<title>&#45;10&#45;&gt;69</title>
<path fill="none" stroke="red" stroke-width="0.2" d="M1323.31,-312.34C1319.2,-306.87 1313.01,-300.08 1305.7,-296.74 1179.22,-238.81 809.87,-312.4 680.7,-260.74 677.93,-259.63 675.23,-258.13 672.67,-256.42"/>
<polygon fill="red" stroke="red" stroke-width="0.2" points="674.64,-253.51 664.63,-250.06 670.3,-259 674.64,-253.51"/>
</g>
<!-- &#45;10&#45;&gt;74 -->
<g id="edge58" class="edge">
<title>&#45;10&#45;&gt;74</title>
<path fill="none" stroke="red" stroke-width="0.51" d="M1343.45,-318.98C1390.04,-313.9 1532.63,-295.7 1559.7,-260.74 1573.17,-243.34 1574.59,-227.44 1559.7,-211.24 1518.45,-166.35 1074.91,-159.17 957.23,-158.05"/>
<polygon fill="red" stroke="red" stroke-width="0.51" points="957.21,-154.55 947.18,-157.97 957.15,-161.55 957.21,-154.55"/>
</g>
<!-- &#45;11 -->
<g id="node11" class="node">
<title>&#45;11</title>
<polygon fill="lightgray" stroke="black" points="401.2,-330.48 372.2,-330.48 372.2,-312.48 401.2,-312.48 401.2,-330.48"/>
<text text-anchor="middle" x="386.7" y="-319.28" font-family="Times New Roman,serif" font-size="9.00">&#45;11</text>
</g>
<!-- &#45;11&#45;&gt;65 -->
<g id="edge59" class="edge">
<title>&#45;11&#45;&gt;65</title>
<path fill="none" stroke="red" stroke-width="0.3" d="M392.42,-312.39C396.76,-306.94 403.24,-300.16 410.7,-296.74 443.19,-281.8 981.74,-247.06 1113.02,-238.78"/>
<polygon fill="red" stroke="red" stroke-width="0.3" points="1113.34,-242.27 1123.1,-238.15 1112.9,-235.28 1113.34,-242.27"/>
</g>
<!-- &#45;11&#45;&gt;66 -->
<g id="edge60" class="edge">
<title>&#45;11&#45;&gt;66</title>
<path fill="none" stroke="red" stroke-width="0.17" d="M383.82,-312.26C374.45,-283.93 348.06,-189.29 393.7,-138.47 438.13,-89 651.07,-84.69 729.02,-84.8"/>
<polygon fill="red" stroke="red" stroke-width="0.17" points="729.08,-88.3 739.1,-84.84 729.11,-81.3 729.08,-88.3"/>
</g>
<!-- &#45;11&#45;&gt;67 -->
<g id="edge61" class="edge">
<title>&#45;11&#45;&gt;67</title>
<path fill="none" stroke="red" stroke-width="0.35" d="M394.51,-312.36C399.11,-307.67 405.11,-301.74 410.7,-296.74 427.47,-281.74 447.35,-265.78 462.28,-254.13"/>
<polygon fill="red" stroke="red" stroke-width="0.35" points="464.68,-256.7 470.44,-247.81 460.39,-251.17 464.68,-256.7"/>
</g>
<!-- &#45;11&#45;&gt;68 -->
<g id="edge62" class="edge">
<title>&#45;11&#45;&gt;68</title>
<path fill="none" stroke="green" stroke-width="0.27" d="M392.86,-312.04C397.22,-306.73 403.54,-300.25 410.7,-296.74 518.97,-243.55 569.48,-309.73 679.7,-260.74 682.38,-259.55 684.99,-258.02 687.49,-256.31"/>
<polygon fill="green" stroke="green" stroke-width="0.27" points="689.72,-259.01 695.39,-250.06 685.38,-253.52 689.72,-259.01"/>
</g>
<!-- &#45;11&#45;&gt;69 -->
<g id="edge63" class="edge">
<title>&#45;11&#45;&gt;69</title>
<path fill="none" stroke="green" stroke-width="0.54" d="M392.99,-312.29C397.41,-307.09 403.75,-300.63 410.7,-296.74 447.58,-276.05 569.16,-252.13 624.64,-241.97"/>
<polygon fill="green" stroke="green" stroke-width="0.54" points="625.29,-245.41 634.51,-240.18 624.04,-238.52 625.29,-245.41"/>
</g>
<!-- &#45;11&#45;&gt;74 -->
<g id="edge64" class="edge">
<title>&#45;11&#45;&gt;74</title>
<path fill="none" stroke="green" stroke-width="0.32" d="M384.72,-312.47C380.23,-292.22 371.77,-238.68 399.7,-211.24 435.63,-175.94 794.87,-162.02 899.96,-158.69"/>
<polygon fill="green" stroke="green" stroke-width="0.32" points="900.25,-162.18 910.14,-158.37 900.04,-155.19 900.25,-162.18"/>
</g>
<!-- &#45;12 -->
<g id="node12" class="node">
<title>&#45;12</title>
<polygon fill="lightgray" stroke="black" points="448.2,-330.48 419.2,-330.48 419.2,-312.48 448.2,-312.48 448.2,-330.48"/>
<text text-anchor="middle" x="433.7" y="-319.28" font-family="Times New Roman,serif" font-size="9.00">&#45;12</text>
</g>
<!-- &#45;12&#45;&gt;65 -->
<g id="edge65" class="edge">
<title>&#45;12&#45;&gt;65</title>
<path fill="none" stroke="green" stroke-width="0.23" d="M439.43,-312.4C443.77,-306.96 450.25,-300.18 457.7,-296.74 517.94,-268.84 991.32,-244.25 1113.17,-238.33"/>
<polygon fill="green" stroke="green" stroke-width="0.23" points="1113.4,-241.83 1123.22,-237.85 1113.07,-234.84 1113.4,-241.83"/>
</g>
<!-- &#45;12&#45;&gt;66 -->
<g id="edge66" class="edge">
<title>&#45;12&#45;&gt;66</title>
<path fill="none" stroke="red" stroke-width="0.29" d="M428.49,-312.39C421.67,-301.28 410.08,-280.41 405.7,-260.74 393.77,-207.18 382.54,-175.85 422.7,-138.47 466.98,-97.24 655.96,-87.8 728.86,-85.68"/>
<polygon fill="red" stroke="red" stroke-width="0.29" points="729.23,-89.18 739.13,-85.41 729.04,-82.18 729.23,-89.18"/>
</g>
<!-- &#45;12&#45;&gt;67 -->
<g id="edge67" class="edge">
<title>&#45;12&#45;&gt;67</title>
<path fill="none" stroke="green" stroke-width="0.7" d="M438.59,-312.48C445.81,-300.66 459.61,-278.07 470.24,-260.66"/>
<polygon fill="green" stroke="green" stroke-width="0.7" points="473.23,-262.48 475.46,-252.12 467.26,-258.83 473.23,-262.48"/>
</g>
<!-- &#45;12&#45;&gt;68 -->
<g id="edge68" class="edge">
<title>&#45;12&#45;&gt;68</title>
<path fill="none" stroke="red" stroke-width="0.97" d="M439.89,-312.1C444.26,-306.83 450.59,-300.35 457.7,-296.74 546.8,-251.43 588.93,-302.59 679.7,-260.74 682.36,-259.51 684.97,-257.96 687.45,-256.24"/>
<polygon fill="red" stroke="red" stroke-width="0.97" points="689.69,-258.93 695.35,-249.97 685.34,-253.44 689.69,-258.93"/>
</g>
<!-- &#45;12&#45;&gt;69 -->
<g id="edge69" class="edge">
<title>&#45;12&#45;&gt;69</title>
<path fill="none" stroke="red" stroke-width="0.74" d="M440.07,-312.42C444.51,-307.27 450.86,-300.83 457.7,-296.74 511.85,-264.37 585.08,-248.11 624.6,-241.22"/>
<polygon fill="red" stroke="red" stroke-width="0.74" points="625.29,-244.65 634.58,-239.56 624.14,-237.75 625.29,-244.65"/>
</g>
<!-- &#45;12&#45;&gt;74 -->
<g id="edge70" class="edge">
<title>&#45;12&#45;&gt;74</title>
<path fill="none" stroke="red" stroke-width="0.11" d="M428.52,-312.4C416.46,-292.44 389.45,-240.37 415.7,-211.24 448.35,-175.02 796.81,-161.79 900.04,-158.64"/>
<polygon fill="red" stroke="red" stroke-width="0.11" points="900.43,-162.13 910.32,-158.34 900.22,-155.14 900.43,-162.13"/>
</g>
<!-- &#45;13 -->
<g id="node13" class="node">
<title>&#45;13</title>
<polygon fill="lightgray" stroke="black" points="495.2,-330.48 466.2,-330.48 466.2,-312.48 495.2,-312.48 495.2,-330.48"/>
<text text-anchor="middle" x="480.7" y="-319.28" font-family="Times New Roman,serif" font-size="9.00">&#45;13</text>
</g>
<!-- &#45;13&#45;&gt;65 -->
<g id="edge71" class="edge">
<title>&#45;13&#45;&gt;65</title>
<path fill="none" stroke="green" stroke-width="0.2" d="M486.44,-312.41C490.78,-306.98 497.26,-300.21 504.7,-296.74 560.4,-270.73 996.05,-245.02 1112.93,-238.54"/>
<polygon fill="green" stroke="green" stroke-width="0.2" points="1113.43,-242.02 1123.22,-237.98 1113.04,-235.03 1113.43,-242.02"/>
</g>
<!-- &#45;13&#45;&gt;66 -->
<g id="edge72" class="edge">
<title>&#45;13&#45;&gt;66</title>
<path fill="none" stroke="red" stroke-width="0.19" d="M473.21,-312.39C468.8,-307.71 463.05,-301.77 457.7,-296.74 439.8,-279.89 425.97,-283.07 415.7,-260.74 406.51,-240.75 409.79,-232.43 415.7,-211.24 425.85,-174.83 428.55,-159.87 459.7,-138.47 503.4,-108.44 663.33,-92.58 729.13,-87.21"/>
<polygon fill="red" stroke="red" stroke-width="0.19" points="729.51,-90.69 739.21,-86.41 728.96,-83.71 729.51,-90.69"/>
</g>
<!-- &#45;13&#45;&gt;67 -->
<g id="edge73" class="edge">
<title>&#45;13&#45;&gt;67</title>
<path fill="none" stroke="red" stroke-width="0.62" d="M481.08,-312.48C481.61,-301.56 482.57,-281.45 483.37,-264.74"/>
<polygon fill="red" stroke="red" stroke-width="0.62" points="486.88,-264.52 483.87,-254.37 479.89,-264.19 486.88,-264.52"/>
</g>
<!-- &#45;13&#45;&gt;68 -->
<g id="edge74" class="edge">
<title>&#45;13&#45;&gt;68</title>
<path fill="none" stroke="green" stroke-width="0.18" d="M486.94,-312.2C491.34,-306.96 497.67,-300.5 504.7,-296.74 574.71,-259.26 608.31,-295.5 679.7,-260.74 682.33,-259.45 684.92,-257.87 687.4,-256.13"/>
<polygon fill="green" stroke="green" stroke-width="0.18" points="689.65,-258.81 695.29,-249.83 685.29,-253.33 689.65,-258.81"/>
</g>
<!-- &#45;13&#45;&gt;69 -->
<g id="edge75" class="edge">
<title>&#45;13&#45;&gt;69</title>
<path fill="none" stroke="green" stroke-width="0.21" d="M487.59,-312.16C492.06,-307.17 498.24,-300.99 504.7,-296.74 543.18,-271.42 594.08,-253.79 625.05,-244.54"/>
<polygon fill="green" stroke="green" stroke-width="0.21" points="626.12,-247.87 634.74,-241.72 624.17,-241.15 626.12,-247.87"/>
</g>
<!-- &#45;13&#45;&gt;74 -->
<g id="edge76" class="edge">
<title>&#45;13&#45;&gt;74</title>
<path fill="none" stroke="red" stroke-width="0.37" d="M473.01,-312.31C459.11,-297.43 431.01,-266.92 428.7,-260.74 420.99,-240.13 413.99,-227.6 428.7,-211.24 460.41,-175.96 798.64,-162.11 900.09,-158.72"/>
<polygon fill="red" stroke="red" stroke-width="0.37" points="900.33,-162.22 910.21,-158.4 900.11,-155.22 900.33,-162.22"/>
</g>
<!-- &#45;14 -->
<g id="node14" class="node">
<title>&#45;14</title>
<polygon fill="lightgray" stroke="black" points="542.2,-330.48 513.2,-330.48 513.2,-312.48 542.2,-312.48 542.2,-330.48"/>
<text text-anchor="middle" x="527.7" y="-319.28" font-family="Times New Roman,serif" font-size="9.00">&#45;14</text>
</g>
<!-- &#45;14&#45;&gt;65 -->
<g id="edge77" class="edge">
<title>&#45;14&#45;&gt;65</title>
<path fill="none" stroke="green" stroke-width="0.8" d="M533.45,-312.43C537.8,-307.01 544.28,-300.23 551.7,-296.74 602.96,-272.57 1002.45,-245.78 1113.27,-238.75"/>
<polygon fill="green" stroke="green" stroke-width="0.8" points="1113.6,-242.24 1123.36,-238.11 1113.16,-235.25 1113.6,-242.24"/>
</g>
<!-- &#45;14&#45;&gt;66 -->
<g id="edge78" class="edge">
<title>&#45;14&#45;&gt;66</title>
<path fill="none" stroke="red" stroke-width="0.14" d="M521.07,-312.27C516.78,-307.33 510.86,-301.15 504.7,-296.74 474.32,-274.96 448.69,-292.32 428.7,-260.74 416.94,-242.15 420.06,-231.47 428.7,-211.24 433.29,-200.49 494.36,-143.93 504.7,-138.47 579.06,-99.2 680.07,-88.82 728.91,-86.07"/>
<polygon fill="red" stroke="red" stroke-width="0.14" points="729.24,-89.56 739.06,-85.57 728.9,-82.57 729.24,-89.56"/>
</g>
<!-- &#45;14&#45;&gt;67 -->
<g id="edge79" class="edge">
<title>&#45;14&#45;&gt;67</title>
<path fill="none" stroke="red" stroke-width="0.16" d="M523.58,-312.48C517.62,-300.91 506.34,-279 497.46,-261.76"/>
<polygon fill="red" stroke="red" stroke-width="0.16" points="500.51,-260.04 492.82,-252.75 494.29,-263.25 500.51,-260.04"/>
</g>
<!-- &#45;14&#45;&gt;68 -->
<g id="edge80" class="edge">
<title>&#45;14&#45;&gt;68</title>
<path fill="none" stroke="red" stroke-width="0.36" d="M534.03,-312.36C538.47,-307.2 544.81,-300.75 551.7,-296.74 602.77,-267.01 627.52,-288.48 679.7,-260.74 682.29,-259.36 684.84,-257.71 687.3,-255.94"/>
<polygon fill="red" stroke="red" stroke-width="0.36" points="689.57,-258.6 695.17,-249.61 685.19,-253.15 689.57,-258.6"/>
</g>
<!-- &#45;14&#45;&gt;69 -->
<g id="edge81" class="edge">
<title>&#45;14&#45;&gt;69</title>
<path fill="none" stroke="green" stroke-width="0.77" d="M535.24,-312.05C539.76,-307.26 545.76,-301.32 551.7,-296.74 575.9,-278.06 606.42,-260.76 627.55,-249.63"/>
<polygon fill="green" stroke="green" stroke-width="0.77" points="629.27,-252.68 636.53,-244.97 626.05,-246.46 629.27,-252.68"/>
</g>
<!-- &#45;14&#45;&gt;74 -->
<g id="edge82" class="edge">
<title>&#45;14&#45;&gt;74</title>
<path fill="none" stroke="green" stroke-width="0.45" d="M520.94,-312.45C516.6,-307.57 510.67,-301.4 504.7,-296.74 479.6,-277.1 458.6,-288.35 442.7,-260.74 431.72,-241.67 428.02,-227.62 442.7,-211.24 473.38,-177 800.15,-162.48 899.93,-158.82"/>
<polygon fill="green" stroke="green" stroke-width="0.45" points="900.3,-162.31 910.17,-158.46 900.05,-155.32 900.3,-162.31"/>
</g>
<!-- &#45;15 -->
<g id="node15" class="node">
<title>&#45;15</title>
<polygon fill="lightgray" stroke="black" points="589.2,-330.48 560.2,-330.48 560.2,-312.48 589.2,-312.48 589.2,-330.48"/>
<text text-anchor="middle" x="574.7" y="-319.28" font-family="Times New Roman,serif" font-size="9.00">&#45;15</text>
</g>
<!-- &#45;15&#45;&gt;65 -->
<g id="edge83" class="edge">
<title>&#45;15&#45;&gt;65</title>
<path fill="none" stroke="red" stroke-width="0.43" d="M580.45,-312.45C584.81,-307.04 591.29,-300.27 598.7,-296.74 691.22,-252.63 1014.6,-240.41 1113.05,-237.67"/>
<polygon fill="red" stroke="red" stroke-width="0.43" points="1113.24,-241.17 1123.14,-237.4 1113.05,-234.17 1113.24,-241.17"/>
</g>
<!-- &#45;15&#45;&gt;66 -->
<g id="edge84" class="edge">
<title>&#45;15&#45;&gt;66</title>
<path fill="none" stroke="red" stroke-width="0.7" d="M568.64,-312.46C564.39,-307.33 558.31,-300.88 551.7,-296.74 508.48,-269.63 472.59,-302.08 442.7,-260.74 429.81,-242.91 430.51,-229.55 442.7,-211.24 459.66,-185.76 656.6,-118.54 730.19,-94.11"/>
<polygon fill="red" stroke="red" stroke-width="0.7" points="731.72,-97.29 740.11,-90.83 729.52,-90.65 731.72,-97.29"/>
</g>
<!-- &#45;15&#45;&gt;67 -->
<g id="edge85" class="edge">
<title>&#45;15&#45;&gt;67</title>
<path fill="none" stroke="red" stroke-width="0.12" d="M567.18,-312.42C562.75,-307.76 557,-301.82 551.7,-296.74 536.8,-282.44 519.38,-266.93 506.03,-255.3"/>
<polygon fill="red" stroke="red" stroke-width="0.12" points="508.16,-252.51 498.31,-248.61 503.57,-257.8 508.16,-252.51"/>
</g>
<!-- &#45;15&#45;&gt;68 -->
<g id="edge86" class="edge">
<title>&#45;15&#45;&gt;68</title>
<path fill="none" stroke="red" stroke-width="0.15" d="M581.64,-312.24C586.13,-307.28 592.31,-301.1 598.7,-296.74 631.23,-274.52 646.34,-281.69 679.7,-260.74 681.97,-259.31 684.24,-257.72 686.47,-256.04"/>
<polygon fill="red" stroke="red" stroke-width="0.15" points="689.08,-258.43 694.63,-249.41 684.66,-253 689.08,-258.43"/>
</g>
<!-- &#45;15&#45;&gt;69 -->
<g id="edge87" class="edge">
<title>&#45;15&#45;&gt;69</title>
<path fill="none" stroke="red" stroke-width="0.31" d="M582.18,-312.48C593.88,-299.95 616.91,-275.3 633.46,-257.58"/>
<polygon fill="red" stroke="red" stroke-width="0.31" points="636.29,-259.69 640.55,-249.99 631.17,-254.91 636.29,-259.69"/>
</g>
<!-- &#45;15&#45;&gt;74 -->
<g id="edge88" class="edge">
<title>&#45;15&#45;&gt;74</title>
<path fill="none" stroke="green" stroke-width="0.16" d="M568.19,-312.1C563.94,-307.09 558.02,-300.91 551.7,-296.74 514.37,-272.08 483.05,-297.59 457.7,-260.74 445.23,-242.61 443.05,-227.65 457.7,-211.24 487.32,-178.07 802.69,-162.85 900.16,-158.92"/>
<polygon fill="green" stroke="green" stroke-width="0.16" points="900.33,-162.42 910.18,-158.52 900.05,-155.42 900.33,-162.42"/>
</g>
<!-- &#45;16 -->
<g id="node16" class="node">
<title>&#45;16</title>
<polygon fill="lightgray" stroke="black" points="1191.2,-400.23 1162.2,-400.23 1162.2,-382.23 1191.2,-382.23 1191.2,-400.23"/>
<text text-anchor="middle" x="1176.7" y="-389.03" font-family="Times New Roman,serif" font-size="9.00">&#45;16</text>
</g>
<!-- &#45;16&#45;&gt;65 -->
<g id="edge89" class="edge">
<title>&#45;16&#45;&gt;65</title>
<path fill="none" stroke="green" stroke-width="0.41" d="M1175.19,-381.94C1172.18,-365.58 1165.06,-328.02 1157.7,-296.74 1155.14,-285.84 1152.01,-273.91 1149.2,-263.59"/>
<polygon fill="green" stroke="green" stroke-width="0.41" points="1152.56,-262.62 1146.53,-253.91 1145.81,-264.48 1152.56,-262.62"/>
</g>
<!-- &#45;16&#45;&gt;66 -->
<g id="edge90" class="edge">
<title>&#45;16&#45;&gt;66</title>
<path fill="none" stroke="green" stroke-width="0.37" d="M1191.55,-389.94C1251.36,-388.55 1474.13,-381.07 1533.7,-346.23 1590.85,-312.81 1620.77,-272.92 1596.7,-211.24 1580.72,-170.28 1569.33,-157.51 1529.7,-138.47 1461.68,-105.79 918.38,-89.35 786.48,-85.82"/>
<polygon fill="green" stroke="green" stroke-width="0.37" points="786.44,-82.32 776.35,-85.55 786.25,-89.31 786.44,-82.32"/>
</g>
<!-- &#45;16&#45;&gt;67 -->
<g id="edge91" class="edge">
<title>&#45;16&#45;&gt;67</title>
<path fill="none" stroke="red" stroke-width="0.21" d="M1162.11,-390.01C1054.88,-388.28 392.29,-376.41 363.7,-346.23 348.57,-330.26 352.09,-315.42 363.7,-296.74 383.86,-264.3 427.39,-248.95 456.37,-242.07"/>
<polygon fill="red" stroke="red" stroke-width="0.21" points="457.29,-245.46 466.31,-239.91 455.8,-238.62 457.29,-245.46"/>
</g>
<!-- &#45;16&#45;&gt;68 -->
<g id="edge92" class="edge">
<title>&#45;16&#45;&gt;68</title>
<path fill="none" stroke="red" stroke-width="0.31" stroke-dasharray="1,5" d="M1162.12,-390.47C1096.78,-391.26 831.28,-391.6 764.7,-346.23 736.73,-327.17 721.56,-289.95 714.05,-264.29"/>
<polygon fill="red" stroke="red" stroke-width="0.31" points="717.37,-263.15 711.37,-254.42 710.62,-264.99 717.37,-263.15"/>
</g>
<!-- &#45;16&#45;&gt;69 -->
<g id="edge93" class="edge">
<title>&#45;16&#45;&gt;69</title>
<path fill="none" stroke="green" stroke-width="1.28" d="M1162.11,-390.51C1092.9,-391.55 797.89,-393.15 721.7,-346.23 717.46,-343.62 685.94,-292.12 667,-260.78"/>
<polygon fill="green" stroke="green" stroke-width="1.28" points="669.95,-258.91 661.79,-252.15 663.96,-262.52 669.95,-258.91"/>
</g>
<!-- &#45;16&#45;&gt;74 -->
<g id="edge94" class="edge">
<title>&#45;16&#45;&gt;74</title>
<path fill="none" stroke="green" stroke-width="0.66" d="M1191.42,-389.11C1276.57,-382.15 1698.01,-340.75 1578.7,-211.24 1536.06,-164.95 1077.3,-158.8 957.29,-157.98"/>
<polygon fill="green" stroke="green" stroke-width="0.66" points="957.09,-154.48 947.07,-157.92 957.05,-161.48 957.09,-154.48"/>
</g>
<!-- 1437 -->
<g id="node33" class="node">
<title>1437</title>
<ellipse fill="white" stroke="black" cx="1271.7" cy="-321.48" rx="25" ry="25"/>
<text text-anchor="middle" x="1271.7" y="-319.28" font-family="Times New Roman,serif" font-size="9.00">1437</text>
</g>
<!-- &#45;16&#45;&gt;1437 -->
<g id="edge148" class="edge">
<title>&#45;16&#45;&gt;1437</title>
<path fill="none" stroke="red" stroke-width="0.15" d="M1187.97,-382.19C1201.61,-372.47 1225.06,-355.74 1243.68,-342.47"/>
<polygon fill="red" stroke="red" stroke-width="0.15" points="1245.73,-345.3 1251.84,-336.64 1241.67,-339.6 1245.73,-345.3"/>
</g>
<!-- &#45;17 -->
<g id="node17" class="node">
<title>&#45;17</title>
<polygon fill="lightgray" stroke="black" points="636.2,-330.48 607.2,-330.48 607.2,-312.48 636.2,-312.48 636.2,-330.48"/>
<text text-anchor="middle" x="621.7" y="-319.28" font-family="Times New Roman,serif" font-size="9.00">&#45;17</text>
</g>
<!-- &#45;17&#45;&gt;65 -->
<g id="edge95" class="edge">
<title>&#45;17&#45;&gt;65</title>
<path fill="none" stroke="red" stroke-width="0.31" d="M627.47,-312.47C631.83,-307.07 638.31,-300.3 645.7,-296.74 729.37,-256.32 1020.44,-241.7 1113.12,-238.01"/>
<polygon fill="red" stroke="red" stroke-width="0.31" points="1113.32,-241.51 1123.17,-237.62 1113.05,-234.51 1113.32,-241.51"/>
</g>
<!-- &#45;17&#45;&gt;66 -->
<g id="edge96" class="edge">
<title>&#45;17&#45;&gt;66</title>
<path fill="none" stroke="green" stroke-width="0.1" d="M619.66,-312.24C613.18,-283.82 596.08,-188.94 642.7,-138.47 666.07,-113.17 703.82,-98.86 729.65,-91.55"/>
<polygon fill="green" stroke="green" stroke-width="0.1" points="730.81,-94.86 739.58,-88.92 729.02,-88.09 730.81,-94.86"/>
</g>
<!-- &#45;17&#45;&gt;67 -->
<g id="edge97" class="edge">
<title>&#45;17&#45;&gt;67</title>
<path fill="none" stroke="red" stroke-width="0.16" d="M615.12,-312.21C610.84,-307.24 604.92,-301.06 598.7,-296.74 566.02,-274.01 551.12,-280.72 516.7,-260.74 513.39,-258.82 510.03,-256.62 506.77,-254.35"/>
<polygon fill="red" stroke="red" stroke-width="0.16" points="508.7,-251.43 498.57,-248.34 504.56,-257.07 508.7,-251.43"/>
</g>
<!-- &#45;17&#45;&gt;68 -->
<g id="edge98" class="edge">
<title>&#45;17&#45;&gt;68</title>
<path fill="none" stroke="red" stroke-width="0.54" d="M630.11,-312.1C634.71,-307.54 640.5,-301.81 645.7,-296.74 659.56,-283.2 675.28,-268.05 687.42,-256.4"/>
<polygon fill="red" stroke="red" stroke-width="0.54" points="690.03,-258.74 694.83,-249.3 685.19,-253.69 690.03,-258.74"/>
</g>
<!-- &#45;17&#45;&gt;69 -->
<g id="edge99" class="edge">
<title>&#45;17&#45;&gt;69</title>
<path fill="none" stroke="green" stroke-width="0.35" d="M624.67,-312.48C628.88,-301.15 636.76,-279.92 643.1,-262.85"/>
<polygon fill="green" stroke="green" stroke-width="0.35" points="646.41,-263.99 646.61,-253.39 639.85,-261.55 646.41,-263.99"/>
</g>
<!-- &#45;17&#45;&gt;74 -->
<g id="edge100" class="edge">
<title>&#45;17&#45;&gt;74</title>
<path fill="none" stroke="green" stroke-width="0.25" d="M618.98,-312.41C612.83,-292.47 600.27,-240.43 625.7,-211.24 661.41,-170.23 831.99,-160.68 900.31,-158.49"/>
<polygon fill="green" stroke="green" stroke-width="0.25" points="900.47,-161.99 910.36,-158.2 900.26,-154.99 900.47,-161.99"/>
</g>
<!-- &#45;18 -->
<g id="node18" class="node">
<title>&#45;18</title>
<polygon fill="lightgray" stroke="black" points="802.2,-330.48 773.2,-330.48 773.2,-312.48 802.2,-312.48 802.2,-330.48"/>
<text text-anchor="middle" x="787.7" y="-319.28" font-family="Times New Roman,serif" font-size="9.00">&#45;18</text>
</g>
<!-- &#45;18&#45;&gt;65 -->
<g id="edge101" class="edge">
<title>&#45;18&#45;&gt;65</title>
<path fill="none" stroke="red" stroke-width="0.34" d="M793.91,-312.15C798.3,-306.89 804.63,-300.41 811.7,-296.74 913.09,-244 1053,-237.01 1112.76,-236.61"/>
<polygon fill="red" stroke="red" stroke-width="0.34" points="1112.96,-240.11 1122.96,-236.61 1112.95,-233.11 1112.96,-240.11"/>
</g>
<!-- &#45;18&#45;&gt;66 -->
<g id="edge102" class="edge">
<title>&#45;18&#45;&gt;66</title>
<path fill="none" stroke="green" stroke-width="0.43" d="M786.67,-312.38C782.66,-280.92 768.01,-165.95 761.21,-112.61"/>
<polygon fill="green" stroke="green" stroke-width="0.43" points="764.66,-111.99 759.92,-102.51 757.71,-112.87 764.66,-111.99"/>
</g>
<!-- &#45;18&#45;&gt;67 -->
<g id="edge103" class="edge">
<title>&#45;18&#45;&gt;67</title>
<path fill="none" stroke="red" stroke-width="0.4" d="M773.09,-316.46C725.59,-303.37 575.07,-261.89 512.45,-244.63"/>
<polygon fill="red" stroke="red" stroke-width="0.4" points="513.07,-241.17 502.5,-241.89 511.21,-247.92 513.07,-241.17"/>
</g>
<!-- &#45;18&#45;&gt;68 -->
<g id="edge104" class="edge">
<title>&#45;18&#45;&gt;68</title>
<path fill="none" stroke="green" stroke-width="0.1" d="M780.03,-312.48C768.02,-299.95 744.41,-275.3 727.43,-257.58"/>
<polygon fill="green" stroke="green" stroke-width="0.1" points="729.6,-254.79 720.16,-249.99 724.55,-259.63 729.6,-254.79"/>
</g>
<!-- &#45;18&#45;&gt;69 -->
<g id="edge105" class="edge">
<title>&#45;18&#45;&gt;69</title>
<path fill="none" stroke="green" stroke-width="0.34" d="M772.98,-313.41C751.84,-303 712,-282.44 680.7,-260.74 678.5,-259.21 676.27,-257.55 674.07,-255.83"/>
<polygon fill="green" stroke="green" stroke-width="0.34" points="675.89,-252.79 665.95,-249.13 671.44,-258.19 675.89,-252.79"/>
</g>
<!-- &#45;18&#45;&gt;74 -->
<g id="edge106" class="edge">
<title>&#45;18&#45;&gt;74</title>
<path fill="none" stroke="red" stroke-width="0.3" d="M792.56,-312.3C803.99,-293.39 833.98,-245.7 865.7,-211.24 878.01,-197.87 893.57,-184.65 906.15,-174.71"/>
<polygon fill="red" stroke="red" stroke-width="0.3" points="908.54,-177.28 914.3,-168.39 904.26,-171.75 908.54,-177.28"/>
</g>
<!-- &#45;19 -->
<g id="node19" class="node">
<title>&#45;19</title>
<polygon fill="lightgray" stroke="black" points="849.2,-330.48 820.2,-330.48 820.2,-312.48 849.2,-312.48 849.2,-330.48"/>
<text text-anchor="middle" x="834.7" y="-319.28" font-family="Times New Roman,serif" font-size="9.00">&#45;19</text>
</g>
<!-- &#45;19&#45;&gt;65 -->
<g id="edge107" class="edge">
<title>&#45;19&#45;&gt;65</title>
<path fill="none" stroke="green" stroke-width="0.25" d="M840.95,-312.21C845.35,-306.98 851.68,-300.52 858.7,-296.74 943.49,-251.06 1060.07,-240.29 1113.22,-237.76"/>
<polygon fill="green" stroke="green" stroke-width="0.25" points="1113.42,-241.25 1123.27,-237.34 1113.13,-234.26 1113.42,-241.25"/>
</g>
<!-- &#45;19&#45;&gt;66 -->
<g id="edge108" class="edge">
<title>&#45;19&#45;&gt;66</title>
<path fill="none" stroke="green" stroke-width="0.14" stroke-dasharray="1,5" d="M832.67,-312.39C826.12,-286.65 804.62,-204.48 780.7,-138.47 777.35,-129.23 773.23,-119.3 769.39,-110.53"/>
<polygon fill="green" stroke="green" stroke-width="0.14" points="772.52,-108.95 765.25,-101.24 766.13,-111.8 772.52,-108.95"/>
</g>
<!-- &#45;19&#45;&gt;67 -->
<g id="edge109" class="edge">
<title>&#45;19&#45;&gt;67</title>
<path fill="none" stroke="green" stroke-width="0.63" d="M828.81,-312.15C824.64,-306.89 818.58,-300.42 811.7,-296.74 798.42,-289.64 589.5,-254.41 512.72,-241.63"/>
<polygon fill="green" stroke="green" stroke-width="0.63" points="513.24,-238.17 502.8,-239.98 512.09,-245.07 513.24,-238.17"/>
</g>
<!-- &#45;19&#45;&gt;68 -->
<g id="edge110" class="edge">
<title>&#45;19&#45;&gt;68</title>
<path fill="none" stroke="red" stroke-width="0.18" d="M827.95,-312.44C823.61,-307.56 817.68,-301.39 811.7,-296.74 786.79,-277.35 754.92,-259.97 733.07,-249.02"/>
<polygon fill="red" stroke="red" stroke-width="0.18" points="734.59,-245.87 724.08,-244.6 731.5,-252.16 734.59,-245.87"/>
</g>
<!-- &#45;19&#45;&gt;69 -->
<g id="edge111" class="edge">
<title>&#45;19&#45;&gt;69</title>
<path fill="none" stroke="green" stroke-width="0.45" d="M828.7,-312.34C824.49,-307.17 818.42,-300.71 811.7,-296.74 759.75,-265.96 734.09,-288.93 680.7,-260.74 678.11,-259.37 675.55,-257.73 673.09,-255.95"/>
<polygon fill="green" stroke="green" stroke-width="0.45" points="675.21,-253.16 665.22,-249.63 670.82,-258.62 675.21,-253.16"/>
</g>
<!-- &#45;19&#45;&gt;74 -->
<g id="edge112" class="edge">
<title>&#45;19&#45;&gt;74</title>
<path fill="none" stroke="red" stroke-width="1.26" d="M839.49,-312.2C853.29,-288.33 893.48,-218.78 914.9,-181.73"/>
<polygon fill="red" stroke="red" stroke-width="1.26" points="917.94,-183.47 919.91,-173.06 911.87,-179.97 917.94,-183.47"/>
</g>
<!-- &#45;20 -->
<g id="node20" class="node">
<title>&#45;20</title>
<polygon fill="lightgray" stroke="black" points="896.2,-330.48 867.2,-330.48 867.2,-312.48 896.2,-312.48 896.2,-330.48"/>
<text text-anchor="middle" x="881.7" y="-319.28" font-family="Times New Roman,serif" font-size="9.00">&#45;20</text>
</g>
<!-- &#45;20&#45;&gt;65 -->
<g id="edge113" class="edge">
<title>&#45;20&#45;&gt;65</title>
<path fill="none" stroke="green" stroke-width="0.23" d="M888,-312.31C892.42,-307.11 898.76,-300.65 905.7,-296.74 973.84,-258.26 1066.87,-244.18 1113.14,-239.34"/>
<polygon fill="green" stroke="green" stroke-width="0.23" points="1113.72,-242.8 1123.33,-238.35 1113.04,-235.83 1113.72,-242.8"/>
</g>
<!-- &#45;20&#45;&gt;66 -->
<g id="edge114" class="edge">
<title>&#45;20&#45;&gt;66</title>
<path fill="none" stroke="red" stroke-width="0.11" d="M878.86,-312.12C869.68,-285.59 839.11,-201.34 800.7,-138.47 793.79,-127.16 784.75,-115.58 776.75,-106.12"/>
<polygon fill="red" stroke="red" stroke-width="0.11" points="779.25,-103.66 770.06,-98.4 773.96,-108.25 779.25,-103.66"/>
</g>
<!-- &#45;20&#45;&gt;67 -->
<g id="edge115" class="edge">
<title>&#45;20&#45;&gt;67</title>
<path fill="none" stroke="green" stroke-width="0.74" d="M875.85,-312.09C871.69,-306.8 865.63,-300.32 858.7,-296.74 765.63,-248.59 729.14,-277.44 625.7,-260.74 586.59,-254.42 541.43,-246.75 512.98,-241.87"/>
<polygon fill="green" stroke="green" stroke-width="0.74" points="513.39,-238.38 502.94,-240.14 512.2,-245.28 513.39,-238.38"/>
</g>
<!-- &#45;20&#45;&gt;68 -->
<g id="edge116" class="edge">
<title>&#45;20&#45;&gt;68</title>
<path fill="none" stroke="red" stroke-width="0.55" d="M875.17,-312.13C870.92,-307.13 865,-300.94 858.7,-296.74 819.53,-270.56 767.15,-253.1 735.51,-244.13"/>
<polygon fill="red" stroke="red" stroke-width="0.55" points="736.19,-240.68 725.62,-241.41 734.33,-247.43 736.19,-240.68"/>
</g>
<!-- &#45;20&#45;&gt;69 -->
<g id="edge117" class="edge">
<title>&#45;20&#45;&gt;69</title>
<path fill="none" stroke="red" stroke-width="0.13" stroke-dasharray="1,5" d="M875.79,-312.19C871.61,-306.95 865.55,-300.48 858.7,-296.74 787.89,-258 753.33,-295.95 680.7,-260.74 678.07,-259.46 675.47,-257.87 673,-256.13"/>
<polygon fill="red" stroke="red" stroke-width="0.13" points="675.11,-253.34 665.11,-249.84 670.74,-258.82 675.11,-253.34"/>
</g>
<!-- &#45;20&#45;&gt;74 -->
<g id="edge118" class="edge">
<title>&#45;20&#45;&gt;74</title>
<path fill="none" stroke="red" stroke-width="0.44" d="M888.78,-312.26C897.75,-301.32 912.83,-280.99 919.7,-260.74 927.98,-236.3 929.8,-206.82 929.8,-185.7"/>
<polygon fill="red" stroke="red" stroke-width="0.44" points="933.3,-185.43 929.66,-175.48 926.3,-185.53 933.3,-185.43"/>
</g>
<!-- 0 -->
<g id="node21" class="node">
<title>0</title>
<ellipse fill="lightblue" stroke="black" cx="250.7" cy="-14.85" rx="14.7" ry="14.7"/>
<text text-anchor="middle" x="250.7" y="-12.65" font-family="Times New Roman,serif" font-size="9.00">0</text>
</g>
<!-- 1 -->
<g id="node22" class="node">
<title>1</title>
<ellipse fill="lightblue" stroke="black" cx="477.7" cy="-14.85" rx="14.7" ry="14.7"/>
<text text-anchor="middle" x="477.7" y="-12.65" font-family="Times New Roman,serif" font-size="9.00">1</text>
</g>
<!-- 3 -->
<g id="node24" class="node">
<title>3</title>
<ellipse fill="lightblue" stroke="black" cx="672.7" cy="-14.85" rx="14.7" ry="14.7"/>
<text text-anchor="middle" x="672.7" y="-12.65" font-family="Times New Roman,serif" font-size="9.00">3</text>
</g>
<!-- 4 -->
<g id="node25" class="node">
<title>4</title>
<ellipse fill="lightblue" stroke="black" cx="757.7" cy="-14.85" rx="14.7" ry="14.7"/>
<text text-anchor="middle" x="757.7" y="-12.65" font-family="Times New Roman,serif" font-size="9.00">4</text>
</g>
<!-- 65&#45;&gt;0 -->
<g id="edge119" class="edge">
<title>65&#45;&gt;0</title>
<path fill="none" stroke="green" stroke-width="0.28" d="M1154.56,-222.63C1165.22,-211.42 1179.59,-193.84 1185.7,-175.24 1200.89,-128.98 1219.27,-100.96 1185.7,-65.7 1157.63,-36.21 494.35,-32.08 453.7,-29.7 389.51,-25.93 313.97,-20.52 275.67,-17.71"/>
<polygon fill="green" stroke="green" stroke-width="0.28" points="275.7,-14.2 265.47,-16.95 275.18,-21.18 275.7,-14.2"/>
</g>
<!-- 65&#45;&gt;1 -->
<g id="edge120" class="edge">
<title>65&#45;&gt;1</title>
<path fill="none" stroke="red" stroke-width="0.11" d="M1158.65,-228.32C1178.42,-219.52 1210.12,-201.93 1223.7,-175.24 1245.77,-131.84 1257.03,-101.18 1223.7,-65.7 1179.87,-19.04 712.55,-34.28 648.7,-29.7 596.92,-25.98 536.38,-20.91 503.01,-18.04"/>
<polygon fill="red" stroke="red" stroke-width="0.11" points="503.05,-14.54 492.79,-17.16 502.45,-21.51 503.05,-14.54"/>
</g>
<!-- 65&#45;&gt;2 -->
<g id="edge121" class="edge">
<title>65&#45;&gt;2</title>
<path fill="none" stroke="green" stroke-width="0.48" stroke-dasharray="1,5" d="M1128.06,-223.4C1104.22,-203.63 1052.81,-163.14 1003.7,-138.47 692.11,18.07 573.18,-69.01 226.7,-29.7 206.23,-27.38 183.16,-23.54 166.23,-20.49"/>
<polygon fill="green" stroke="green" stroke-width="0.48" points="166.55,-16.99 156.08,-18.63 165.28,-23.88 166.55,-16.99"/>
</g>
<!-- 65&#45;&gt;3 -->
<g id="edge122" class="edge">
<title>65&#45;&gt;3</title>
<path fill="none" stroke="green" stroke-width="1.11" d="M1159.94,-232.02C1187.59,-226.42 1239.28,-211.45 1261.7,-175.24 1287.33,-133.85 1294.93,-101.27 1261.7,-65.7 1221.56,-22.73 791.88,-38.23 733.7,-29.7 721.49,-27.91 708.09,-24.98 696.97,-22.27"/>
<polygon fill="green" stroke="green" stroke-width="1.11" points="697.68,-18.84 687.12,-19.79 695.97,-25.63 697.68,-18.84"/>
</g>
<!-- 65&#45;&gt;4 -->
<g id="edge123" class="edge">
<title>65&#45;&gt;4</title>
<path fill="none" stroke="red" stroke-width="0.14" d="M1159.61,-231.8C1209.16,-222.22 1341.74,-191.08 1299.7,-138.47 1233.38,-55.46 879.95,-24.52 782.56,-17.5"/>
<polygon fill="red" stroke="red" stroke-width="0.14" points="782.69,-14 772.47,-16.79 782.21,-20.98 782.69,-14"/>
</g>
<!-- 66&#45;&gt;0 -->
<g id="edge124" class="edge">
<title>66&#45;&gt;0</title>
<path fill="none" stroke="green" stroke-width="0.11" d="M739.36,-80.65C662.23,-70.42 364.19,-30.9 275.65,-19.16"/>
<polygon fill="green" stroke="green" stroke-width="0.11" points="275.84,-15.65 265.47,-17.81 274.92,-22.59 275.84,-15.65"/>
</g>
<!-- 66&#45;&gt;1 -->
<g id="edge125" class="edge">
<title>66&#45;&gt;1</title>
<path fill="none" stroke="red" stroke-width="0.1" d="M739.76,-78.78C691.21,-67.12 557.23,-34.95 501.99,-21.68"/>
<polygon fill="red" stroke="red" stroke-width="0.1" points="502.59,-18.23 492.05,-19.29 500.95,-25.03 502.59,-18.23"/>
</g>
<!-- 66&#45;&gt;2 -->
<g id="edge126" class="edge">
<title>66&#45;&gt;2</title>
<path fill="none" stroke="red" stroke-width="0.52" stroke-dasharray="1,5" d="M739.31,-81.65C671.21,-76.24 426.95,-56.05 226.7,-29.7 206.39,-27.03 183.48,-23.25 166.56,-20.31"/>
<polygon fill="red" stroke="red" stroke-width="0.52" points="166.86,-16.81 156.4,-18.53 165.64,-23.7 166.86,-16.81"/>
</g>
<!-- 66&#45;&gt;3 -->
<g id="edge127" class="edge">
<title>66&#45;&gt;3</title>
<path fill="none" stroke="red" stroke-width="0.32" d="M743.66,-71.98C729.58,-60.84 707.78,-43.6 692.06,-31.16"/>
<polygon fill="red" stroke="red" stroke-width="0.32" points="694.05,-28.27 684.03,-24.81 689.71,-33.76 694.05,-28.27"/>
</g>
<!-- 66&#45;&gt;4 -->
<g id="edge128" class="edge">
<title>66&#45;&gt;4</title>
<path fill="none" stroke="red" stroke-width="0.36" d="M757.7,-65.42C757.7,-57.74 757.7,-48.61 757.7,-40.29"/>
<polygon fill="red" stroke="red" stroke-width="0.36" points="761.2,-40.01 757.7,-30.01 754.2,-40.01 761.2,-40.01"/>
</g>
<!-- 67&#45;&gt;0 -->
<g id="edge129" class="edge">
<title>67&#45;&gt;0</title>
<path fill="none" stroke="red" stroke-width="0.22" d="M466.22,-233.98C384.47,-229.34 58.16,-208.81 28.7,-175.24 12.21,-156.44 28.75,-79.41 41.7,-65.7 54.43,-52.21 173.49,-29.6 226.01,-20.18"/>
<polygon fill="red" stroke="red" stroke-width="0.22" points="226.91,-23.57 236.15,-18.37 225.69,-16.68 226.91,-23.57"/>
</g>
<!-- 67&#45;&gt;1 -->
<g id="edge130" class="edge">
<title>67&#45;&gt;1</title>
<path fill="none" stroke="red" stroke-width="0.43" d="M466.24,-235.48C390.74,-237.04 106.92,-238.6 51.7,-175.24 -64.05,-42.42 345.51,-20.05 452.67,-16.49"/>
<polygon fill="red" stroke="red" stroke-width="0.43" points="452.99,-19.98 462.88,-16.18 452.77,-12.98 452.99,-19.98"/>
</g>
<!-- 67&#45;&gt;2 -->
<g id="edge131" class="edge">
<title>67&#45;&gt;2</title>
<path fill="none" stroke="red" stroke-width="0.57" d="M466.37,-234.04C383.77,-229.6 48.91,-209.57 18.7,-175.24 6.95,-161.89 8.18,-87.45 23.7,-65.7 45.26,-35.5 88.84,-23.49 116.58,-18.79"/>
<polygon fill="red" stroke="red" stroke-width="0.57" points="117.33,-22.21 126.7,-17.28 116.29,-15.29 117.33,-22.21"/>
</g>
<!-- 67&#45;&gt;3 -->
<g id="edge132" class="edge">
<title>67&#45;&gt;3</title>
<path fill="none" stroke="red" stroke-width="0.12" d="M493.48,-219.81C511.92,-188.73 557.06,-116.47 606.7,-65.7 620.32,-51.77 638.05,-38.6 651.7,-29.3"/>
<polygon fill="red" stroke="red" stroke-width="0.12" points="654,-31.97 660.39,-23.52 650.13,-26.14 654,-31.97"/>
</g>
<!-- 67&#45;&gt;4 -->
<g id="edge133" class="edge">
<title>67&#45;&gt;4</title>
<path fill="none" stroke="red" stroke-width="0.22" stroke-dasharray="1,5" d="M498.61,-223.82C543.81,-187.54 686.56,-72.95 738.53,-31.23"/>
<polygon fill="red" stroke="red" stroke-width="0.22" points="741,-33.74 746.61,-24.75 736.62,-28.28 741,-33.74"/>
</g>
<!-- 68&#45;&gt;0 -->
<g id="edge134" class="edge">
<title>68&#45;&gt;0</title>
<path fill="none" stroke="red" stroke-width="0.2" d="M694.61,-222.59C690.1,-218.68 684.87,-214.52 679.7,-211.24 670.21,-205.21 360.77,-65.5 273.44,-26.11"/>
<polygon fill="red" stroke="red" stroke-width="0.2" points="274.7,-22.83 264.15,-21.91 271.82,-29.21 274.7,-22.83"/>
</g>
<!-- 68&#45;&gt;1 -->
<g id="edge135" class="edge">
<title>68&#45;&gt;1</title>
<path fill="none" stroke="red" stroke-width="0.4" d="M694.68,-222.58C655.76,-185.5 540.29,-75.48 495.62,-32.93"/>
<polygon fill="red" stroke="red" stroke-width="0.4" points="497.8,-30.16 488.14,-25.8 492.97,-35.23 497.8,-30.16"/>
</g>
<!-- 68&#45;&gt;2 -->
<g id="edge136" class="edge">
<title>68&#45;&gt;2</title>
<path fill="none" stroke="green" stroke-width="0.1" d="M695.26,-222.2C690.7,-218.16 685.29,-214.02 679.7,-211.24 614.46,-178.72 589.11,-197.49 519.7,-175.24 380.54,-130.63 221.63,-55.14 164.02,-26.93"/>
<polygon fill="green" stroke="green" stroke-width="0.1" points="165.29,-23.65 154.77,-22.37 162.19,-29.93 165.29,-23.65"/>
</g>
<!-- 68&#45;&gt;3 -->
<g id="edge137" class="edge">
<title>68&#45;&gt;3</title>
<path fill="none" stroke="red" stroke-width="0.44" d="M704.77,-217.74C702.75,-205.81 700.02,-189.56 697.7,-175.24 689.92,-127.26 681.2,-71.08 676.39,-39.87"/>
<polygon fill="red" stroke="red" stroke-width="0.44" points="679.84,-39.28 674.86,-29.93 672.92,-40.35 679.84,-39.28"/>
</g>
<!-- 68&#45;&gt;4 -->
<g id="edge138" class="edge">
<title>68&#45;&gt;4</title>
<path fill="none" stroke="red" stroke-width="0.2" d="M708.02,-217.22C709.05,-185.86 713.29,-118.99 730.7,-65.7 734.02,-55.53 739.39,-45.01 744.47,-36.27"/>
<polygon fill="red" stroke="red" stroke-width="0.2" points="747.54,-37.95 749.75,-27.59 741.56,-34.31 747.54,-37.95"/>
</g>
<!-- 68&#45;&gt;74 -->
<g id="edge150" class="edge">
<title>68&#45;&gt;74</title>
<path fill="none" stroke="green" stroke-width="0.19" d="M725.04,-228.93C763.45,-215.53 855.91,-183.26 901.86,-167.22"/>
<polygon fill="green" stroke="green" stroke-width="0.19" points="903.15,-170.48 911.44,-163.88 900.84,-163.87 903.15,-170.48"/>
</g>
<!-- 69&#45;&gt;1 -->
<g id="edge139" class="edge">
<title>69&#45;&gt;1</title>
<path fill="none" stroke="red" stroke-width="0.11" d="M634.84,-230.71C571.02,-215.04 355.94,-158.72 317.7,-102.47 308.51,-88.95 308.01,-78.86 317.7,-65.7 348.8,-23.44 415.49,-15.98 452.19,-15.26"/>
<polygon fill="red" stroke="red" stroke-width="0.11" points="452.55,-18.76 462.54,-15.23 452.53,-11.76 452.55,-18.76"/>
</g>
<!-- 69&#45;&gt;2 -->
<g id="edge140" class="edge">
<title>69&#45;&gt;2</title>
<path fill="none" stroke="green" stroke-width="0.66" d="M634.65,-231.82C545.94,-216.09 159.21,-145.37 127.7,-102.47 113.8,-83.54 121.71,-56.01 130.21,-37.09"/>
<polygon fill="green" stroke="green" stroke-width="0.66" points="133.37,-38.6 134.6,-28.07 127.08,-35.54 133.37,-38.6"/>
</g>
<!-- 69&#45;&gt;3 -->
<g id="edge141" class="edge">
<title>69&#45;&gt;3</title>
<path fill="none" stroke="green" stroke-width="0.36" d="M642.69,-220.55C635.26,-208.92 625.74,-191.81 621.7,-175.24 610.16,-127.94 602.81,-110.57 621.7,-65.7 627.9,-50.97 640.82,-38.42 652.1,-29.59"/>
<polygon fill="green" stroke="green" stroke-width="0.36" points="654.28,-32.34 660.27,-23.6 650.14,-26.69 654.28,-32.34"/>
</g>
<!-- 74&#45;&gt;1 -->
<g id="edge142" class="edge">
<title>74&#45;&gt;1</title>
<path fill="none" stroke="green" stroke-width="0.14" d="M912.76,-147.15C887.43,-133.31 840.11,-107.33 832.7,-102.47 810.23,-87.73 809.37,-76.34 784.7,-65.7 733.72,-43.7 566.53,-24.88 502.74,-18.32"/>
<polygon fill="green" stroke="green" stroke-width="0.14" points="502.71,-14.8 492.41,-17.28 502.01,-21.77 502.71,-14.8"/>
</g>
<!-- 74&#45;&gt;2 -->
<g id="edge143" class="edge">
<title>74&#45;&gt;2</title>
<path fill="none" stroke="red" stroke-width="0.25" d="M910.78,-152.67C807.28,-134.25 286.28,-41.57 166.35,-20.23"/>
<polygon fill="red" stroke="red" stroke-width="0.25" points="166.77,-16.75 156.31,-18.45 165.55,-23.65 166.77,-16.75"/>
</g>
<!-- 74&#45;&gt;3 -->
<g id="edge144" class="edge">
<title>74&#45;&gt;3</title>
<path fill="none" stroke="red" stroke-width="0.32" d="M917.46,-141.89C900.9,-122.18 868.05,-86.32 832.7,-65.7 809.33,-52.07 735.45,-31.93 696.8,-21.93"/>
<polygon fill="red" stroke="red" stroke-width="0.32" points="697.46,-18.49 686.9,-19.4 695.72,-25.27 697.46,-18.49"/>
</g>
<!-- 74&#45;&gt;4 -->
<g id="edge145" class="edge">
<title>74&#45;&gt;4</title>
<path fill="none" stroke="green" stroke-width="0.34" d="M933.04,-138.9C937.02,-119.13 940.09,-86.51 923.7,-65.7 889.8,-22.67 820.18,-15.63 782.78,-15.15"/>
<polygon fill="green" stroke="green" stroke-width="0.34" points="782.7,-11.65 772.71,-15.18 782.72,-18.65 782.7,-11.65"/>
</g>
<!-- 74&#45;&gt;66 -->
<g id="edge146" class="edge">
<title>74&#45;&gt;66</title>
<path fill="none" stroke="red" stroke-width="0.37" d="M912.96,-146.77C907.84,-143.96 902.1,-140.96 896.7,-138.47 886.13,-133.59 821.66,-109.16 784.34,-95.1"/>
<polygon fill="red" stroke="red" stroke-width="0.37" points="785.2,-91.68 774.6,-91.43 782.73,-98.23 785.2,-91.68"/>
</g>
<!-- 1437&#45;&gt;65 -->
<g id="edge149" class="edge">
<title>1437&#45;&gt;65</title>
<path fill="none" stroke="green" stroke-width="0.46" d="M1251.68,-306.24C1247.12,-303.07 1242.27,-299.75 1237.7,-296.74 1213.51,-280.78 1185.3,-263.35 1165.74,-251.46"/>
<polygon fill="green" stroke="green" stroke-width="0.46" points="1167.52,-248.45 1157.16,-246.26 1163.89,-254.44 1167.52,-248.45"/>
</g>
</g>
</svg>
