<?xml version="1.0" encoding="UTF-8" standalone="no"?>
<!DOCTYPE svg PUBLIC "-//W3C//DTD SVG 1.1//EN"
 "http://www.w3.org/Graphics/SVG/1.1/DTD/svg11.dtd">
<!-- Generated by graphviz version 2.49.0 (20210828.1703)
 -->
<!-- Pages: 1 -->
<svg width="889pt" height="92pt"
 viewBox="0.00 0.00 889.00 91.70" xmlns="http://www.w3.org/2000/svg" xmlns:xlink="http://www.w3.org/1999/xlink">
<g id="graph0" class="graph" transform="scale(1 1) rotate(0) translate(4 87.7)">
<polygon fill="white" stroke="transparent" points="-4,4 -4,-87.7 885,-87.7 885,4 -4,4"/>
<!-- &#45;1 -->
<g id="node1" class="node">
<title>&#45;1</title>
<polygon fill="lightgray" stroke="black" points="533.5,-83.7 509.5,-83.7 509.5,-65.7 533.5,-65.7 533.5,-83.7"/>
<text text-anchor="middle" x="521.5" y="-72.5" font-family="Times New Roman,serif" font-size="9.00">&#45;1</text>
</g>
<!-- 0 -->
<g id="node21" class="node">
<title>0</title>
<ellipse fill="lightblue" stroke="black" cx="339.5" cy="-14.85" rx="14.7" ry="14.7"/>
<text text-anchor="middle" x="339.5" y="-12.65" font-family="Times New Roman,serif" font-size="9.00">0</text>
</g>
<!-- &#45;1&#45;&gt;0 -->
<g id="edge1" class="edge">
<title>&#45;1&#45;&gt;0</title>
<path fill="none" stroke="red" stroke-width="0.17" stroke-dasharray="1,5" d="M509.14,-68.74C506.32,-67.68 503.32,-66.6 500.5,-65.7 440.55,-46.46 421.72,-53.64 363.5,-29.7 362.64,-29.35 361.78,-28.97 360.92,-28.57"/>
<polygon fill="red" stroke="red" stroke-width="0.17" points="362.36,-25.38 351.88,-23.83 359.11,-31.58 362.36,-25.38"/>
</g>
<!-- 1 -->
<g id="node22" class="node">
<title>1</title>
<ellipse fill="lightblue" stroke="black" cx="435.5" cy="-14.85" rx="14.7" ry="14.7"/>
<text text-anchor="middle" x="435.5" y="-12.65" font-family="Times New Roman,serif" font-size="9.00">1</text>
</g>
<!-- &#45;1&#45;&gt;1 -->
<g id="edge2" class="edge">
<title>&#45;1&#45;&gt;1</title>
<path fill="none" stroke="red" stroke-width="0.38" d="M509.54,-65.65C495.68,-56.33 472.6,-40.8 455.89,-29.56"/>
<polygon fill="red" stroke="red" stroke-width="0.38" points="457.61,-26.5 447.36,-23.82 453.7,-32.31 457.61,-26.5"/>
</g>
<!-- 2 -->
<g id="node23" class="node">
<title>2</title>
<ellipse fill="lightblue" stroke="black" cx="387.5" cy="-14.85" rx="14.7" ry="14.7"/>
<text text-anchor="middle" x="387.5" y="-12.65" font-family="Times New Roman,serif" font-size="9.00">2</text>
</g>
<!-- &#45;1&#45;&gt;2 -->
<g id="edge3" class="edge">
<title>&#45;1&#45;&gt;2</title>
<path fill="none" stroke="green" stroke-width="0.4" d="M509.19,-69.03C484.48,-59.62 429.63,-38.5 411.5,-29.7 410.67,-29.29 409.82,-28.87 408.98,-28.44"/>
<polygon fill="green" stroke="green" stroke-width="0.4" points="410.47,-25.27 400.02,-23.53 407.11,-31.4 410.47,-25.27"/>
</g>
<!-- 3 -->
<g id="node24" class="node">
<title>3</title>
<ellipse fill="lightblue" stroke="black" cx="531.5" cy="-14.85" rx="14.7" ry="14.7"/>
<text text-anchor="middle" x="531.5" y="-12.65" font-family="Times New Roman,serif" font-size="9.00">3</text>
</g>
<!-- &#45;1&#45;&gt;3 -->
<g id="edge4" class="edge">
<title>&#45;1&#45;&gt;3</title>
<path fill="none" stroke="green" stroke-width="0.48" d="M522.89,-65.65C524.06,-58.89 525.79,-48.86 527.4,-39.57"/>
<polygon fill="green" stroke="green" stroke-width="0.48" points="530.87,-40.05 529.12,-29.6 523.97,-38.86 530.87,-40.05"/>
</g>
<!-- 4 -->
<g id="node25" class="node">
<title>4</title>
<ellipse fill="lightblue" stroke="black" cx="483.5" cy="-14.85" rx="14.7" ry="14.7"/>
<text text-anchor="middle" x="483.5" y="-12.65" font-family="Times New Roman,serif" font-size="9.00">4</text>
</g>
<!-- &#45;1&#45;&gt;4 -->
<g id="edge5" class="edge">
<title>&#45;1&#45;&gt;4</title>
<path fill="none" stroke="red" stroke-width="0.19" d="M516.22,-65.65C511.23,-58.07 503.55,-46.37 496.88,-36.22"/>
<polygon fill="red" stroke="red" stroke-width="0.19" points="499.8,-34.28 491.38,-27.84 493.94,-38.12 499.8,-34.28"/>
</g>
<!-- &#45;2 -->
<g id="node2" class="node">
<title>&#45;2</title>
<polygon fill="lightgray" stroke="black" points="791.5,-83.7 767.5,-83.7 767.5,-65.7 791.5,-65.7 791.5,-83.7"/>
<text text-anchor="middle" x="779.5" y="-72.5" font-family="Times New Roman,serif" font-size="9.00">&#45;2</text>
</g>
<!-- &#45;2&#45;&gt;1 -->
<g id="edge6" class="edge">
<title>&#45;2&#45;&gt;1</title>
<path fill="none" stroke="red" stroke-width="0.2" d="M767.22,-68.45C764.4,-67.4 761.38,-66.41 758.5,-65.7 628.55,-33.64 586.49,-72.01 459.5,-29.7 458.62,-29.41 457.74,-29.08 456.86,-28.72"/>
<polygon fill="red" stroke="red" stroke-width="0.2" points="458.26,-25.51 447.75,-24.19 455.14,-31.78 458.26,-25.51"/>
</g>
<!-- &#45;2&#45;&gt;2 -->
<g id="edge7" class="edge">
<title>&#45;2&#45;&gt;2</title>
<path fill="none" stroke="red" stroke-width="0.23" d="M767.23,-68.41C764.41,-67.37 761.38,-66.39 758.5,-65.7 607.66,-29.8 559,-77.5 411.5,-29.7 410.45,-29.36 409.39,-28.97 408.34,-28.54"/>
<polygon fill="red" stroke="red" stroke-width="0.23" points="409.75,-25.33 399.25,-23.94 406.59,-31.57 409.75,-25.33"/>
</g>
<!-- &#45;2&#45;&gt;3 -->
<g id="edge8" class="edge">
<title>&#45;2&#45;&gt;3</title>
<path fill="none" stroke="red" stroke-width="0.35" d="M767.17,-68.65C764.35,-67.6 761.34,-66.55 758.5,-65.7 686.1,-44.09 598.15,-27.42 556.15,-20.03"/>
<polygon fill="red" stroke="red" stroke-width="0.35" points="556.48,-16.53 546.03,-18.27 555.28,-23.43 556.48,-16.53"/>
</g>
<!-- &#45;2&#45;&gt;4 -->
<g id="edge9" class="edge">
<title>&#45;2&#45;&gt;4</title>
<path fill="none" stroke="red" stroke-width="0.46" d="M767.21,-68.5C764.39,-67.45 761.37,-66.44 758.5,-65.7 649.4,-37.47 614.01,-66.53 507.5,-29.7 506.62,-29.4 505.75,-29.06 504.87,-28.7"/>
<polygon fill="red" stroke="red" stroke-width="0.46" points="506.28,-25.49 495.77,-24.13 503.14,-31.75 506.28,-25.49"/>
</g>
<!-- &#45;3 -->
<g id="node3" class="node">
<title>&#45;3</title>
<polygon fill="lightgray" stroke="black" points="575.5,-83.7 551.5,-83.7 551.5,-65.7 575.5,-65.7 575.5,-83.7"/>
<text text-anchor="middle" x="563.5" y="-72.5" font-family="Times New Roman,serif" font-size="9.00">&#45;3</text>
</g>
<!-- &#45;3&#45;&gt;0 -->
<g id="edge10" class="edge">
<title>&#45;3&#45;&gt;0</title>
<path fill="none" stroke="green" stroke-width="0.17" d="M551.18,-68.62C548.36,-67.56 545.35,-66.52 542.5,-65.7 464.54,-43.18 439.42,-58.36 363.5,-29.7 362.63,-29.37 361.76,-29.02 360.89,-28.64"/>
<polygon fill="green" stroke="green" stroke-width="0.17" points="362.32,-25.44 351.82,-23.98 359.12,-31.66 362.32,-25.44"/>
</g>
<!-- &#45;3&#45;&gt;1 -->
<g id="edge11" class="edge">
<title>&#45;3&#45;&gt;1</title>
<path fill="none" stroke="green" stroke-width="0.17" d="M551.43,-69.15C531.82,-61.64 491.97,-45.86 459.5,-29.7 458.67,-29.29 457.83,-28.86 456.99,-28.42"/>
<polygon fill="green" stroke="green" stroke-width="0.17" points="458.49,-25.25 448.05,-23.48 455.11,-31.38 458.49,-25.25"/>
</g>
<!-- &#45;3&#45;&gt;2 -->
<g id="edge12" class="edge">
<title>&#45;3&#45;&gt;2</title>
<path fill="none" stroke="green" stroke-width="0.3" d="M551.13,-68.76C548.31,-67.7 545.32,-66.62 542.5,-65.7 485.11,-46.93 467.21,-52.98 411.5,-29.7 410.65,-29.34 409.78,-28.96 408.92,-28.56"/>
<polygon fill="green" stroke="green" stroke-width="0.3" points="410.37,-25.37 399.9,-23.81 407.11,-31.56 410.37,-25.37"/>
</g>
<!-- &#45;3&#45;&gt;3 -->
<g id="edge13" class="edge">
<title>&#45;3&#45;&gt;3</title>
<path fill="none" stroke="red" stroke-width="0.25" d="M559.05,-65.65C554.99,-58.31 548.8,-47.13 543.32,-37.22"/>
<polygon fill="red" stroke="red" stroke-width="0.25" points="546.28,-35.33 538.37,-28.28 540.15,-38.72 546.28,-35.33"/>
</g>
<!-- &#45;3&#45;&gt;4 -->
<g id="edge14" class="edge">
<title>&#45;3&#45;&gt;4</title>
<path fill="none" stroke="red" stroke-width="0.2" d="M552.38,-65.65C539.74,-56.52 518.88,-41.43 503.42,-30.26"/>
<polygon fill="red" stroke="red" stroke-width="0.2" points="505.2,-27.22 495.05,-24.2 501.1,-32.9 505.2,-27.22"/>
</g>
<!-- &#45;4 -->
<g id="node4" class="node">
<title>&#45;4</title>
<polygon fill="lightgray" stroke="black" points="617.5,-83.7 593.5,-83.7 593.5,-65.7 617.5,-65.7 617.5,-83.7"/>
<text text-anchor="middle" x="605.5" y="-72.5" font-family="Times New Roman,serif" font-size="9.00">&#45;4</text>
</g>
<!-- &#45;4&#45;&gt;0 -->
<g id="edge15" class="edge">
<title>&#45;4&#45;&gt;0</title>
<path fill="none" stroke="green" stroke-width="0.69" d="M593.2,-68.54C590.38,-67.49 587.36,-66.47 584.5,-65.7 488.4,-39.85 457.24,-63.11 363.5,-29.7 362.63,-29.39 361.75,-29.05 360.88,-28.68"/>
<polygon fill="green" stroke="green" stroke-width="0.69" points="362.29,-25.47 351.79,-24.08 359.13,-31.72 362.29,-25.47"/>
</g>
<!-- &#45;4&#45;&gt;1 -->
<g id="edge16" class="edge">
<title>&#45;4&#45;&gt;1</title>
<path fill="none" stroke="green" stroke-width="0.14" d="M593.12,-68.79C590.31,-67.72 587.31,-66.64 584.5,-65.7 529.66,-47.39 512.71,-52.31 459.5,-29.7 458.65,-29.34 457.79,-28.95 456.93,-28.55"/>
<polygon fill="green" stroke="green" stroke-width="0.14" points="458.38,-25.36 447.91,-23.77 455.11,-31.54 458.38,-25.36"/>
</g>
<!-- &#45;4&#45;&gt;2 -->
<g id="edge17" class="edge">
<title>&#45;4&#45;&gt;2</title>
<path fill="none" stroke="green" stroke-width="0.22" d="M593.17,-68.63C590.35,-67.57 587.35,-66.53 584.5,-65.7 509.12,-43.65 484.88,-57.68 411.5,-29.7 410.63,-29.37 409.76,-29.01 408.89,-28.63"/>
<polygon fill="green" stroke="green" stroke-width="0.22" points="410.32,-25.43 399.83,-23.97 407.12,-31.65 410.32,-25.43"/>
</g>
<!-- &#45;4&#45;&gt;3 -->
<g id="edge18" class="edge">
<title>&#45;4&#45;&gt;3</title>
<path fill="none" stroke="red" stroke-width="0.25" d="M595.21,-65.65C583.9,-56.81 565.45,-42.39 551.31,-31.34"/>
<polygon fill="red" stroke="red" stroke-width="0.25" points="553.2,-28.37 543.16,-24.97 548.89,-33.88 553.2,-28.37"/>
</g>
<!-- &#45;4&#45;&gt;4 -->
<g id="edge19" class="edge">
<title>&#45;4&#45;&gt;4</title>
<path fill="none" stroke="green" stroke-width="0.5" d="M593.24,-68.67C574.5,-60.87 537.72,-45.15 507.5,-29.7 506.68,-29.28 505.84,-28.84 505,-28.39"/>
<polygon fill="green" stroke="green" stroke-width="0.5" points="506.51,-25.23 496.07,-23.42 503.11,-31.35 506.51,-25.23"/>
</g>
<!-- &#45;5 -->
<g id="node5" class="node">
<title>&#45;5</title>
<polygon fill="lightgray" stroke="black" points="396.5,-83.7 372.5,-83.7 372.5,-65.7 396.5,-65.7 396.5,-83.7"/>
<text text-anchor="middle" x="384.5" y="-72.5" font-family="Times New Roman,serif" font-size="9.00">&#45;5</text>
</g>
<!-- &#45;5&#45;&gt;0 -->
<g id="edge20" class="edge">
<title>&#45;5&#45;&gt;0</title>
<path fill="none" stroke="red" stroke-width="0.73" d="M378.24,-65.65C372.13,-57.8 362.59,-45.53 354.51,-35.14"/>
<polygon fill="red" stroke="red" stroke-width="0.73" points="357.07,-32.74 348.17,-26.99 351.55,-37.04 357.07,-32.74"/>
</g>
<!-- &#45;5&#45;&gt;2 -->
<g id="edge21" class="edge">
<title>&#45;5&#45;&gt;2</title>
<path fill="none" stroke="red" stroke-width="0.1" d="M384.92,-65.65C385.26,-59.05 385.76,-49.33 386.24,-40.23"/>
<polygon fill="red" stroke="red" stroke-width="0.1" points="389.74,-40.22 386.76,-30.06 382.75,-39.86 389.74,-40.22"/>
</g>
<!-- &#45;5&#45;&gt;3 -->
<g id="edge22" class="edge">
<title>&#45;5&#45;&gt;3</title>
<path fill="none" stroke="green" stroke-width="0.61" d="M396.6,-69.28C399.82,-68.11 403.29,-66.85 406.5,-65.7 451.34,-49.56 464.24,-49.69 507.5,-29.7 508.34,-29.31 509.19,-28.9 510.04,-28.48"/>
<polygon fill="green" stroke="green" stroke-width="0.61" points="511.89,-31.46 519.02,-23.62 508.56,-25.3 511.89,-31.46"/>
</g>
<!-- &#45;5&#45;&gt;4 -->
<g id="edge23" class="edge">
<title>&#45;5&#45;&gt;4</title>
<path fill="none" stroke="red" stroke-width="0.46" d="M396.64,-66.61C412.95,-57.07 442.21,-39.98 462.22,-28.28"/>
<polygon fill="red" stroke="red" stroke-width="0.46" points="464.08,-31.25 470.95,-23.18 460.55,-25.21 464.08,-31.25"/>
</g>
<!-- &#45;6 -->
<g id="node6" class="node">
<title>&#45;6</title>
<polygon fill="lightgray" stroke="black" points="659.5,-83.7 635.5,-83.7 635.5,-65.7 659.5,-65.7 659.5,-83.7"/>
<text text-anchor="middle" x="647.5" y="-72.5" font-family="Times New Roman,serif" font-size="9.00">&#45;6</text>
</g>
<!-- &#45;6&#45;&gt;0 -->
<g id="edge24" class="edge">
<title>&#45;6&#45;&gt;0</title>
<path fill="none" stroke="green" stroke-width="0.3" d="M635.21,-68.48C632.39,-67.44 629.37,-66.43 626.5,-65.7 512.19,-36.51 475.12,-67.9 363.5,-29.7 362.62,-29.4 361.74,-29.07 360.87,-28.71"/>
<polygon fill="green" stroke="green" stroke-width="0.3" points="362.27,-25.5 351.77,-24.14 359.14,-31.75 362.27,-25.5"/>
</g>
<!-- &#45;6&#45;&gt;1 -->
<g id="edge25" class="edge">
<title>&#45;6&#45;&gt;1</title>
<path fill="none" stroke="red" stroke-width="0.22" d="M635.17,-68.64C632.35,-67.59 629.34,-66.54 626.5,-65.7 553.7,-44.12 530.35,-57 459.5,-29.7 458.64,-29.37 457.77,-29 456.9,-28.62"/>
<polygon fill="red" stroke="red" stroke-width="0.22" points="458.33,-25.42 447.84,-23.95 455.12,-31.64 458.33,-25.42"/>
</g>
<!-- &#45;6&#45;&gt;2 -->
<g id="edge26" class="edge">
<title>&#45;6&#45;&gt;2</title>
<path fill="none" stroke="red" stroke-width="0.44" d="M635.2,-68.55C632.37,-67.5 629.36,-66.47 626.5,-65.7 532.99,-40.33 502.69,-62.43 411.5,-29.7 410.63,-29.39 409.75,-29.04 408.88,-28.67"/>
<polygon fill="red" stroke="red" stroke-width="0.44" points="410.3,-25.47 399.79,-24.07 407.13,-31.71 410.3,-25.47"/>
</g>
<!-- &#45;6&#45;&gt;3 -->
<g id="edge27" class="edge">
<title>&#45;6&#45;&gt;3</title>
<path fill="none" stroke="red" stroke-width="0.16" d="M635.09,-67.51C615.67,-57.82 577.84,-38.96 553.66,-26.9"/>
<polygon fill="red" stroke="red" stroke-width="0.16" points="555.04,-23.68 544.53,-22.35 551.92,-29.94 555.04,-23.68"/>
</g>
<!-- &#45;6&#45;&gt;4 -->
<g id="edge28" class="edge">
<title>&#45;6&#45;&gt;4</title>
<path fill="none" stroke="red" stroke-width="0.62" d="M635.12,-68.82C632.3,-67.75 629.31,-66.66 626.5,-65.7 574.21,-47.85 558.21,-51.65 507.5,-29.7 506.65,-29.33 505.79,-28.94 504.93,-28.53"/>
<polygon fill="red" stroke="red" stroke-width="0.62" points="506.4,-25.35 495.92,-23.74 503.11,-31.53 506.4,-25.35"/>
</g>
<!-- &#45;7 -->
<g id="node7" class="node">
<title>&#45;7</title>
<polygon fill="lightgray" stroke="black" points="701.5,-83.7 677.5,-83.7 677.5,-65.7 701.5,-65.7 701.5,-83.7"/>
<text text-anchor="middle" x="689.5" y="-72.5" font-family="Times New Roman,serif" font-size="9.00">&#45;7</text>
</g>
<!-- &#45;7&#45;&gt;0 -->
<g id="edge29" class="edge">
<title>&#45;7&#45;&gt;0</title>
<path fill="none" stroke="green" stroke-width="0.25" d="M677.22,-68.44C674.4,-67.4 671.38,-66.41 668.5,-65.7 535.94,-33.16 493.05,-72.69 363.5,-29.7 362.62,-29.41 361.74,-29.08 360.86,-28.73"/>
<polygon fill="green" stroke="green" stroke-width="0.25" points="362.26,-25.52 351.75,-24.19 359.14,-31.78 362.26,-25.52"/>
</g>
<!-- &#45;7&#45;&gt;1 -->
<g id="edge30" class="edge">
<title>&#45;7&#45;&gt;1</title>
<path fill="none" stroke="red" stroke-width="0.71" d="M677.2,-68.56C674.37,-67.5 671.36,-66.48 668.5,-65.7 577.59,-40.8 548.14,-61.75 459.5,-29.7 458.63,-29.38 457.75,-29.04 456.88,-28.67"/>
<polygon fill="red" stroke="red" stroke-width="0.71" points="458.3,-25.46 447.8,-24.05 455.13,-31.7 458.3,-25.46"/>
</g>
<!-- &#45;7&#45;&gt;2 -->
<g id="edge31" class="edge">
<title>&#45;7&#45;&gt;2</title>
<path fill="none" stroke="red" stroke-width="0.61" stroke-dasharray="1,5" d="M677.21,-68.49C674.39,-67.44 671.37,-66.44 668.5,-65.7 556.79,-36.99 520.57,-67.21 411.5,-29.7 410.62,-29.4 409.74,-29.06 408.87,-28.7"/>
<polygon fill="red" stroke="red" stroke-width="0.61" points="410.28,-25.49 399.77,-24.14 407.14,-31.75 410.28,-25.49"/>
</g>
<!-- &#45;7&#45;&gt;3 -->
<g id="edge32" class="edge">
<title>&#45;7&#45;&gt;3</title>
<path fill="none" stroke="red" stroke-width="0.38" d="M677.07,-68.93C674.26,-67.86 671.28,-66.73 668.5,-65.7 628.54,-50.82 581.84,-33.93 554.58,-24.13"/>
<polygon fill="red" stroke="red" stroke-width="0.38" points="555.73,-20.82 545.14,-20.73 553.36,-27.41 555.73,-20.82"/>
</g>
<!-- &#45;7&#45;&gt;4 -->
<g id="edge33" class="edge">
<title>&#45;7&#45;&gt;4</title>
<path fill="none" stroke="red" stroke-width="0.11" d="M677.17,-68.66C674.34,-67.6 671.34,-66.55 668.5,-65.7 598.28,-44.59 575.82,-56.33 507.5,-29.7 506.64,-29.36 505.77,-29 504.9,-28.61"/>
<polygon fill="red" stroke="red" stroke-width="0.11" points="506.34,-25.41 495.85,-23.93 503.12,-31.63 506.34,-25.41"/>
</g>
<!-- &#45;8 -->
<g id="node8" class="node">
<title>&#45;8</title>
<polygon fill="lightgray" stroke="black" points="71.5,-83.7 47.5,-83.7 47.5,-65.7 71.5,-65.7 71.5,-83.7"/>
<text text-anchor="middle" x="59.5" y="-72.5" font-family="Times New Roman,serif" font-size="9.00">&#45;8</text>
</g>
<!-- &#45;8&#45;&gt;0 -->
<g id="edge34" class="edge">
<title>&#45;8&#45;&gt;0</title>
<path fill="none" stroke="red" stroke-width="0.53" d="M71.95,-68.78C75.04,-67.67 78.37,-66.57 81.5,-65.7 165.76,-42.39 268.45,-26.05 314.75,-19.3"/>
<polygon fill="red" stroke="red" stroke-width="0.53" points="315.36,-22.75 324.77,-17.86 314.37,-15.82 315.36,-22.75"/>
</g>
<!-- &#45;8&#45;&gt;1 -->
<g id="edge35" class="edge">
<title>&#45;8&#45;&gt;1</title>
<path fill="none" stroke="red" stroke-width="0.42" d="M71.91,-68.6C75,-67.49 78.33,-66.44 81.5,-65.7 225.19,-32.25 271.27,-75.55 411.5,-29.7 412.38,-29.41 413.26,-29.09 414.15,-28.74"/>
<polygon fill="red" stroke="red" stroke-width="0.42" points="415.86,-31.8 423.26,-24.21 412.74,-25.53 415.86,-31.8"/>
</g>
<!-- &#45;8&#45;&gt;2 -->
<g id="edge36" class="edge">
<title>&#45;8&#45;&gt;2</title>
<path fill="none" stroke="green" stroke-width="0.4" d="M71.92,-68.64C75.01,-67.53 78.34,-66.46 81.5,-65.7 204.29,-35.93 243.77,-70.06 363.5,-29.7 364.38,-29.4 365.26,-29.07 366.14,-28.72"/>
<polygon fill="green" stroke="green" stroke-width="0.4" points="367.86,-31.77 375.24,-24.17 364.73,-25.51 367.86,-31.77"/>
</g>
<!-- &#45;8&#45;&gt;3 -->
<g id="edge37" class="edge">
<title>&#45;8&#45;&gt;3</title>
<path fill="none" stroke="green" stroke-width="0.29" d="M71.89,-68.54C74.99,-67.44 78.32,-66.4 81.5,-65.7 267.07,-24.88 326.2,-86.55 507.5,-29.7 508.56,-29.37 509.62,-28.98 510.67,-28.56"/>
<polygon fill="green" stroke="green" stroke-width="0.29" points="512.41,-31.61 519.77,-23.99 509.26,-25.35 512.41,-31.61"/>
</g>
<!-- &#45;9 -->
<g id="node9" class="node">
<title>&#45;9</title>
<polygon fill="lightgray" stroke="black" points="833.5,-83.7 809.5,-83.7 809.5,-65.7 833.5,-65.7 833.5,-83.7"/>
<text text-anchor="middle" x="821.5" y="-72.5" font-family="Times New Roman,serif" font-size="9.00">&#45;9</text>
</g>
<!-- &#45;9&#45;&gt;1 -->
<g id="edge38" class="edge">
<title>&#45;9&#45;&gt;1</title>
<path fill="none" stroke="red" stroke-width="0.22" d="M809.23,-68.42C806.41,-67.37 803.38,-66.39 800.5,-65.7 652.28,-30.28 604.43,-76.81 459.5,-29.7 458.45,-29.36 457.39,-28.96 456.34,-28.53"/>
<polygon fill="red" stroke="red" stroke-width="0.22" points="457.75,-25.32 447.25,-23.93 454.59,-31.57 457.75,-25.32"/>
</g>
<!-- &#45;9&#45;&gt;2 -->
<g id="edge39" class="edge">
<title>&#45;9&#45;&gt;2</title>
<path fill="none" stroke="green" stroke-width="0.19" d="M809.24,-68.39C806.41,-67.35 803.39,-66.37 800.5,-65.7 631.37,-26.43 576.97,-82.31 411.5,-29.7 410.45,-29.36 409.39,-28.98 408.33,-28.55"/>
<polygon fill="green" stroke="green" stroke-width="0.19" points="409.74,-25.34 399.24,-23.97 406.59,-31.59 409.74,-25.34"/>
</g>
<!-- &#45;9&#45;&gt;3 -->
<g id="edge40" class="edge">
<title>&#45;9&#45;&gt;3</title>
<path fill="none" stroke="red" stroke-width="0.18" d="M809.19,-68.58C806.37,-67.53 803.35,-66.5 800.5,-65.7 712.26,-40.93 604.2,-25.18 556.34,-18.92"/>
<polygon fill="red" stroke="red" stroke-width="0.18" points="556.66,-15.43 546.29,-17.63 555.77,-22.38 556.66,-15.43"/>
</g>
<!-- &#45;9&#45;&gt;4 -->
<g id="edge41" class="edge">
<title>&#45;9&#45;&gt;4</title>
<path fill="none" stroke="green" stroke-width="0.22" d="M809.22,-68.45C806.4,-67.41 803.38,-66.41 800.5,-65.7 673.16,-34.11 631.92,-71.32 507.5,-29.7 506.62,-29.4 505.74,-29.08 504.86,-28.72"/>
<polygon fill="green" stroke="green" stroke-width="0.22" points="506.27,-25.51 495.75,-24.18 503.14,-31.78 506.27,-25.51"/>
</g>
<!-- &#45;10 -->
<g id="node10" class="node">
<title>&#45;10</title>
<polygon fill="lightgray" stroke="black" points="881,-83.7 852,-83.7 852,-65.7 881,-65.7 881,-83.7"/>
<text text-anchor="middle" x="866.5" y="-72.5" font-family="Times New Roman,serif" font-size="9.00">&#45;10</text>
</g>
<!-- &#45;10&#45;&gt;1 -->
<g id="edge42" class="edge">
<title>&#45;10&#45;&gt;1</title>
<path fill="none" stroke="green" stroke-width="0.15" d="M851.92,-68.25C848.85,-67.27 845.59,-66.35 842.5,-65.7 675.2,-30.44 622.4,-81.62 459.5,-29.7 458.45,-29.36 457.39,-28.98 456.33,-28.55"/>
<polygon fill="green" stroke="green" stroke-width="0.15" points="457.74,-25.34 447.24,-23.96 454.59,-31.59 457.74,-25.34"/>
</g>
<!-- &#45;10&#45;&gt;2 -->
<g id="edge43" class="edge">
<title>&#45;10&#45;&gt;2</title>
<path fill="none" stroke="green" stroke-width="0.35" d="M851.93,-68.23C848.85,-67.25 845.6,-66.33 842.5,-65.7 654.21,-27.03 594.95,-87.12 411.5,-29.7 410.44,-29.37 409.38,-28.99 408.33,-28.56"/>
<polygon fill="green" stroke="green" stroke-width="0.35" points="409.74,-25.35 399.23,-23.99 406.59,-31.61 409.74,-25.35"/>
</g>
<!-- &#45;10&#45;&gt;3 -->
<g id="edge44" class="edge">
<title>&#45;10&#45;&gt;3</title>
<path fill="none" stroke="green" stroke-width="0.48" d="M851.89,-68.41C848.81,-67.41 845.57,-66.45 842.5,-65.7 737.63,-40 609.52,-24.29 556.4,-18.45"/>
<polygon fill="green" stroke="green" stroke-width="0.48" points="556.56,-14.94 546.24,-17.35 555.81,-21.9 556.56,-14.94"/>
</g>
<!-- &#45;10&#45;&gt;4 -->
<g id="edge45" class="edge">
<title>&#45;10&#45;&gt;4</title>
<path fill="none" stroke="green" stroke-width="0.41" d="M851.92,-68.28C848.84,-67.3 845.59,-66.37 842.5,-65.7 696.18,-33.84 649.87,-76.12 507.5,-29.7 506.62,-29.41 505.74,-29.09 504.85,-28.74"/>
<polygon fill="green" stroke="green" stroke-width="0.41" points="506.26,-25.53 495.74,-24.22 503.14,-31.8 506.26,-25.53"/>
</g>
<!-- &#45;11 -->
<g id="node11" class="node">
<title>&#45;11</title>
<polygon fill="lightgray" stroke="black" points="29,-83.7 0,-83.7 0,-65.7 29,-65.7 29,-83.7"/>
<text text-anchor="middle" x="14.5" y="-72.5" font-family="Times New Roman,serif" font-size="9.00">&#45;11</text>
</g>
<!-- &#45;11&#45;&gt;0 -->
<g id="edge46" class="edge">
<title>&#45;11&#45;&gt;0</title>
<path fill="none" stroke="green" stroke-width="0.17" d="M29.12,-68.42C32.19,-67.42 35.43,-66.46 38.5,-65.7 139.54,-40.66 262.83,-24.69 314.67,-18.62"/>
<polygon fill="green" stroke="green" stroke-width="0.17" points="315.08,-22.09 324.61,-17.47 314.28,-15.14 315.08,-22.09"/>
</g>
<!-- &#45;11&#45;&gt;1 -->
<g id="edge47" class="edge">
<title>&#45;11&#45;&gt;1</title>
<path fill="none" stroke="green" stroke-width="0.44" d="M29.08,-68.26C32.15,-67.27 35.41,-66.35 38.5,-65.7 201.42,-31.15 252.88,-80.47 411.5,-29.7 412.55,-29.36 413.61,-28.97 414.67,-28.54"/>
<polygon fill="green" stroke="green" stroke-width="0.44" points="416.41,-31.59 423.76,-23.96 413.26,-25.34 416.41,-31.59"/>
</g>
<!-- &#45;11&#45;&gt;2 -->
<g id="edge48" class="edge">
<title>&#45;11&#45;&gt;2</title>
<path fill="none" stroke="green" stroke-width="0.26" d="M29.09,-68.29C32.16,-67.31 35.41,-66.38 38.5,-65.7 180.45,-34.55 225.41,-74.98 363.5,-29.7 364.38,-29.41 365.26,-29.09 366.14,-28.74"/>
<polygon fill="green" stroke="green" stroke-width="0.26" points="367.86,-31.79 375.26,-24.21 364.74,-25.52 367.86,-31.79"/>
</g>
<!-- &#45;11&#45;&gt;4 -->
<g id="edge49" class="edge">
<title>&#45;11&#45;&gt;4</title>
<path fill="none" stroke="green" stroke-width="0.42" d="M29.07,-68.23C32.15,-67.25 35.4,-66.34 38.5,-65.7 222.42,-27.74 280.34,-85.97 459.5,-29.7 460.56,-29.37 461.62,-28.98 462.67,-28.56"/>
<polygon fill="green" stroke="green" stroke-width="0.42" points="464.41,-31.6 471.77,-23.99 461.26,-25.35 464.41,-31.6"/>
</g>
<!-- &#45;12 -->
<g id="node12" class="node">
<title>&#45;12</title>
<polygon fill="lightgray" stroke="black" points="119,-83.7 90,-83.7 90,-65.7 119,-65.7 119,-83.7"/>
<text text-anchor="middle" x="104.5" y="-72.5" font-family="Times New Roman,serif" font-size="9.00">&#45;12</text>
</g>
<!-- &#45;12&#45;&gt;0 -->
<g id="edge50" class="edge">
<title>&#45;12&#45;&gt;0</title>
<path fill="none" stroke="red" stroke-width="0.4" d="M119.16,-68.58C122.23,-67.57 125.46,-66.56 128.5,-65.7 195.35,-46.7 275.53,-29.18 315.04,-20.88"/>
<polygon fill="red" stroke="red" stroke-width="0.4" points="315.98,-24.26 325.06,-18.79 314.55,-17.41 315.98,-24.26"/>
</g>
<!-- &#45;12&#45;&gt;1 -->
<g id="edge51" class="edge">
<title>&#45;12&#45;&gt;1</title>
<path fill="none" stroke="red" stroke-width="0.47" d="M119.09,-68.33C122.17,-67.34 125.42,-66.4 128.5,-65.7 252.12,-37.52 291.34,-70.18 411.5,-29.7 412.38,-29.4 413.26,-29.07 414.14,-28.72"/>
<polygon fill="red" stroke="red" stroke-width="0.47" points="415.86,-31.77 423.24,-24.17 412.73,-25.51 415.86,-31.77"/>
</g>
<!-- &#45;12&#45;&gt;2 -->
<g id="edge52" class="edge">
<title>&#45;12&#45;&gt;2</title>
<path fill="none" stroke="red" stroke-width="0.34" d="M119.11,-68.39C122.18,-67.4 125.43,-66.44 128.5,-65.7 231.21,-40.9 263.8,-64.71 363.5,-29.7 364.37,-29.39 365.25,-29.05 366.13,-28.69"/>
<polygon fill="red" stroke="red" stroke-width="0.34" points="367.87,-31.73 375.22,-24.1 364.71,-25.48 367.87,-31.73"/>
</g>
<!-- &#45;12&#45;&gt;3 -->
<g id="edge53" class="edge">
<title>&#45;12&#45;&gt;3</title>
<path fill="none" stroke="green" stroke-width="0.2" d="M119.08,-68.25C122.15,-67.27 125.41,-66.35 128.5,-65.7 294.05,-30.72 346.31,-81.16 507.5,-29.7 508.55,-29.36 509.61,-28.97 510.67,-28.55"/>
<polygon fill="green" stroke="green" stroke-width="0.2" points="512.41,-31.59 519.76,-23.96 509.26,-25.34 512.41,-31.59"/>
</g>
<!-- &#45;12&#45;&gt;4 -->
<g id="edge54" class="edge">
<title>&#45;12&#45;&gt;4</title>
<path fill="none" stroke="green" stroke-width="0.46" d="M119.08,-68.29C122.16,-67.3 125.41,-66.37 128.5,-65.7 273.07,-34.12 318.84,-75.67 459.5,-29.7 460.38,-29.41 461.26,-29.09 462.15,-28.74"/>
<polygon fill="green" stroke="green" stroke-width="0.46" points="463.86,-31.8 471.26,-24.22 460.74,-25.53 463.86,-31.8"/>
</g>
<!-- &#45;13 -->
<g id="node13" class="node">
<title>&#45;13</title>
<polygon fill="lightgray" stroke="black" points="166,-83.7 137,-83.7 137,-65.7 166,-65.7 166,-83.7"/>
<text text-anchor="middle" x="151.5" y="-72.5" font-family="Times New Roman,serif" font-size="9.00">&#45;13</text>
</g>
<!-- &#45;13&#45;&gt;0 -->
<g id="edge55" class="edge">
<title>&#45;13&#45;&gt;0</title>
<path fill="none" stroke="red" stroke-width="0.15" d="M166.2,-68.73C169.27,-67.71 172.49,-66.66 175.5,-65.7 225.18,-49.87 283.67,-32.36 315.64,-22.88"/>
<polygon fill="red" stroke="red" stroke-width="0.15" points="316.82,-26.18 325.42,-19.99 314.84,-19.47 316.82,-26.18"/>
</g>
<!-- &#45;13&#45;&gt;1 -->
<g id="edge56" class="edge">
<title>&#45;13&#45;&gt;1</title>
<path fill="none" stroke="red" stroke-width="0.25" d="M166.11,-68.39C169.18,-67.4 172.43,-66.44 175.5,-65.7 278.65,-40.83 311.38,-64.82 411.5,-29.7 412.37,-29.39 413.25,-29.05 414.13,-28.69"/>
<polygon fill="red" stroke="red" stroke-width="0.25" points="415.87,-31.73 423.22,-24.1 412.71,-25.48 415.87,-31.73"/>
</g>
<!-- &#45;13&#45;&gt;2 -->
<g id="edge57" class="edge">
<title>&#45;13&#45;&gt;2</title>
<path fill="none" stroke="green" stroke-width="0.21" d="M166.13,-68.48C169.2,-67.48 172.44,-66.5 175.5,-65.7 257.81,-44.2 283.77,-59.37 363.5,-29.7 364.37,-29.38 365.24,-29.02 366.11,-28.65"/>
<polygon fill="green" stroke="green" stroke-width="0.21" points="367.88,-31.68 375.18,-24.01 364.69,-25.44 367.88,-31.68"/>
</g>
<!-- &#45;13&#45;&gt;3 -->
<g id="edge58" class="edge">
<title>&#45;13&#45;&gt;3</title>
<path fill="none" stroke="red" stroke-width="0.17" d="M166.08,-68.29C169.16,-67.3 172.41,-66.37 175.5,-65.7 320.51,-34.05 366.41,-75.78 507.5,-29.7 508.38,-29.41 509.26,-29.09 510.15,-28.74"/>
<polygon fill="red" stroke="red" stroke-width="0.17" points="511.86,-31.8 519.26,-24.22 508.74,-25.53 511.86,-31.8"/>
</g>
<!-- &#45;13&#45;&gt;4 -->
<g id="edge59" class="edge">
<title>&#45;13&#45;&gt;4</title>
<path fill="none" stroke="green" stroke-width="0.39" d="M166.09,-68.33C169.17,-67.34 172.42,-66.4 175.5,-65.7 299.56,-37.45 338.92,-70.29 459.5,-29.7 460.38,-29.4 461.26,-29.07 462.14,-28.72"/>
<polygon fill="green" stroke="green" stroke-width="0.39" points="463.86,-31.77 471.24,-24.17 460.73,-25.51 463.86,-31.77"/>
</g>
<!-- &#45;14 -->
<g id="node14" class="node">
<title>&#45;14</title>
<polygon fill="lightgray" stroke="black" points="213,-83.7 184,-83.7 184,-65.7 213,-65.7 213,-83.7"/>
<text text-anchor="middle" x="198.5" y="-72.5" font-family="Times New Roman,serif" font-size="9.00">&#45;14</text>
</g>
<!-- &#45;14&#45;&gt;0 -->
<g id="edge60" class="edge">
<title>&#45;14&#45;&gt;0</title>
<path fill="none" stroke="green" stroke-width="0.13" d="M213.06,-67.73C237.61,-57.65 287.4,-37.22 316.65,-25.23"/>
<polygon fill="green" stroke="green" stroke-width="0.13" points="318.14,-28.4 326.06,-21.36 315.48,-21.92 318.14,-28.4"/>
</g>
<!-- &#45;14&#45;&gt;1 -->
<g id="edge61" class="edge">
<title>&#45;14&#45;&gt;1</title>
<path fill="none" stroke="red" stroke-width="0.57" d="M213.13,-68.48C216.2,-67.48 219.44,-66.5 222.5,-65.7 305.25,-44.13 331.35,-59.49 411.5,-29.7 412.37,-29.38 413.24,-29.02 414.11,-28.65"/>
<polygon fill="red" stroke="red" stroke-width="0.57" points="415.88,-31.68 423.19,-24.01 412.69,-25.45 415.88,-31.68"/>
</g>
<!-- &#45;14&#45;&gt;2 -->
<g id="edge62" class="edge">
<title>&#45;14&#45;&gt;2</title>
<path fill="none" stroke="green" stroke-width="0.59" d="M213.17,-68.62C216.24,-67.61 219.47,-66.59 222.5,-65.7 284.55,-47.46 303.6,-54.09 363.5,-29.7 364.36,-29.35 365.22,-28.97 366.09,-28.58"/>
<polygon fill="green" stroke="green" stroke-width="0.59" points="367.89,-31.59 375.12,-23.85 364.64,-25.39 367.89,-31.59"/>
</g>
<!-- &#45;14&#45;&gt;3 -->
<g id="edge63" class="edge">
<title>&#45;14&#45;&gt;3</title>
<path fill="none" stroke="green" stroke-width="0.21" stroke-dasharray="1,5" d="M213.09,-68.33C216.17,-67.34 219.42,-66.4 222.5,-65.7 346.99,-37.38 386.49,-70.41 507.5,-29.7 508.38,-29.4 509.26,-29.07 510.14,-28.72"/>
<polygon fill="green" stroke="green" stroke-width="0.21" points="511.86,-31.77 519.24,-24.17 508.73,-25.51 511.86,-31.77"/>
</g>
<!-- &#45;14&#45;&gt;4 -->
<g id="edge64" class="edge">
<title>&#45;14&#45;&gt;4</title>
<path fill="none" stroke="red" stroke-width="0.51" d="M213.11,-68.39C216.18,-67.4 219.43,-66.44 222.5,-65.7 326.08,-40.76 358.95,-64.93 459.5,-29.7 460.37,-29.39 461.25,-29.05 462.13,-28.69"/>
<polygon fill="red" stroke="red" stroke-width="0.51" points="463.87,-31.73 471.22,-24.11 460.71,-25.48 463.87,-31.73"/>
</g>
<!-- &#45;15 -->
<g id="node15" class="node">
<title>&#45;15</title>
<polygon fill="lightgray" stroke="black" points="260,-83.7 231,-83.7 231,-65.7 260,-65.7 260,-83.7"/>
<text text-anchor="middle" x="245.5" y="-72.5" font-family="Times New Roman,serif" font-size="9.00">&#45;15</text>
</g>
<!-- &#45;15&#45;&gt;0 -->
<g id="edge65" class="edge">
<title>&#45;15&#45;&gt;0</title>
<path fill="none" stroke="green" stroke-width="0.13" d="M258.57,-65.65C274.11,-56.09 300.23,-40.01 318.59,-28.72"/>
<polygon fill="green" stroke="green" stroke-width="0.13" points="320.46,-31.68 327.14,-23.46 316.79,-25.72 320.46,-31.68"/>
</g>
<!-- &#45;15&#45;&gt;1 -->
<g id="edge66" class="edge">
<title>&#45;15&#45;&gt;1</title>
<path fill="none" stroke="red" stroke-width="0.29" d="M260.17,-68.62C263.24,-67.61 266.47,-66.59 269.5,-65.7 331.98,-47.39 351.18,-54.2 411.5,-29.7 412.36,-29.35 413.22,-28.98 414.09,-28.58"/>
<polygon fill="red" stroke="red" stroke-width="0.29" points="415.89,-31.59 423.13,-23.86 412.64,-25.39 415.89,-31.59"/>
</g>
<!-- &#45;15&#45;&gt;2 -->
<g id="edge67" class="edge">
<title>&#45;15&#45;&gt;2</title>
<path fill="none" stroke="green" stroke-width="0.15" d="M260.38,-68.5C287.63,-58.92 344.51,-38.64 363.5,-29.7 364.34,-29.3 365.19,-28.89 366.04,-28.46"/>
<polygon fill="green" stroke="green" stroke-width="0.15" points="367.89,-31.44 375.01,-23.58 364.55,-25.29 367.89,-31.44"/>
</g>
<!-- &#45;15&#45;&gt;3 -->
<g id="edge68" class="edge">
<title>&#45;15&#45;&gt;3</title>
<path fill="none" stroke="green" stroke-width="0.11" d="M260.11,-68.39C263.18,-67.39 266.43,-66.44 269.5,-65.7 373.52,-40.69 406.53,-65.05 507.5,-29.7 508.37,-29.39 509.25,-29.05 510.13,-28.69"/>
<polygon fill="green" stroke="green" stroke-width="0.11" points="511.87,-31.73 519.22,-24.11 508.72,-25.48 511.87,-31.73"/>
</g>
<!-- &#45;15&#45;&gt;4 -->
<g id="edge69" class="edge">
<title>&#45;15&#45;&gt;4</title>
<path fill="none" stroke="red" stroke-width="0.13" d="M260.13,-68.47C263.2,-67.48 266.44,-66.49 269.5,-65.7 352.68,-44.06 378.92,-59.6 459.5,-29.7 460.37,-29.38 461.24,-29.02 462.11,-28.65"/>
<polygon fill="red" stroke="red" stroke-width="0.13" points="463.88,-31.68 471.19,-24.01 460.69,-25.45 463.88,-31.68"/>
</g>
<!-- &#45;16 -->
<g id="node16" class="node">
<title>&#45;16</title>
<polygon fill="lightgray" stroke="black" points="307,-83.7 278,-83.7 278,-65.7 307,-65.7 307,-83.7"/>
<text text-anchor="middle" x="292.5" y="-72.5" font-family="Times New Roman,serif" font-size="9.00">&#45;16</text>
</g>
<!-- &#45;16&#45;&gt;0 -->
<g id="edge70" class="edge">
<title>&#45;16&#45;&gt;0</title>
<path fill="none" stroke="red" stroke-width="0.73" d="M299.04,-65.65C305.48,-57.72 315.58,-45.29 324.08,-34.83"/>
<polygon fill="red" stroke="red" stroke-width="0.73" points="326.86,-36.96 330.44,-26.99 321.42,-32.55 326.86,-36.96"/>
</g>
<!-- &#45;16&#45;&gt;1 -->
<g id="edge71" class="edge">
<title>&#45;16&#45;&gt;1</title>
<path fill="none" stroke="green" stroke-width="0.24" d="M307.08,-68.66C334.39,-59.15 392.26,-38.73 411.5,-29.7 412.34,-29.31 413.19,-28.89 414.04,-28.47"/>
<polygon fill="green" stroke="green" stroke-width="0.24" points="415.89,-31.44 423.01,-23.59 412.55,-25.29 415.89,-31.44"/>
</g>
<!-- &#45;16&#45;&gt;2 -->
<g id="edge72" class="edge">
<title>&#45;16&#45;&gt;2</title>
<path fill="none" stroke="green" stroke-width="0.24" d="M305.71,-65.65C321.41,-56.09 347.82,-40.01 366.37,-28.72"/>
<polygon fill="green" stroke="green" stroke-width="0.24" points="368.29,-31.65 375.01,-23.46 364.65,-25.67 368.29,-31.65"/>
</g>
<!-- &#45;16&#45;&gt;3 -->
<g id="edge73" class="edge">
<title>&#45;16&#45;&gt;3</title>
<path fill="none" stroke="green" stroke-width="0.14" d="M307.13,-68.47C310.2,-67.47 313.44,-66.49 316.5,-65.7 400.11,-43.99 426.5,-59.71 507.5,-29.7 508.37,-29.38 509.24,-29.03 510.11,-28.65"/>
<polygon fill="green" stroke="green" stroke-width="0.14" points="511.87,-31.68 519.19,-24.01 508.69,-25.45 511.87,-31.68"/>
</g>
<!-- &#45;16&#45;&gt;4 -->
<g id="edge74" class="edge">
<title>&#45;16&#45;&gt;4</title>
<path fill="none" stroke="red" stroke-width="0.34" d="M307.17,-68.62C310.24,-67.61 313.46,-66.59 316.5,-65.7 379.41,-47.32 398.76,-54.31 459.5,-29.7 460.36,-29.35 461.22,-28.98 462.09,-28.58"/>
<polygon fill="red" stroke="red" stroke-width="0.34" points="463.89,-31.59 471.13,-23.86 460.64,-25.39 463.89,-31.59"/>
</g>
<!-- &#45;17 -->
<g id="node17" class="node">
<title>&#45;17</title>
<polygon fill="lightgray" stroke="black" points="354,-83.7 325,-83.7 325,-65.7 354,-65.7 354,-83.7"/>
<text text-anchor="middle" x="339.5" y="-72.5" font-family="Times New Roman,serif" font-size="9.00">&#45;17</text>
</g>
<!-- &#45;17&#45;&gt;0 -->
<g id="edge75" class="edge">
<title>&#45;17&#45;&gt;0</title>
<path fill="none" stroke="red" stroke-width="0.29" d="M339.5,-65.65C339.5,-59.05 339.5,-49.33 339.5,-40.23"/>
<polygon fill="red" stroke="red" stroke-width="0.29" points="343,-40.06 339.5,-30.06 336,-40.06 343,-40.06"/>
</g>
<!-- &#45;17&#45;&gt;1 -->
<g id="edge76" class="edge">
<title>&#45;17&#45;&gt;1</title>
<path fill="none" stroke="red" stroke-width="0.34" d="M352.85,-65.65C368.8,-56.04 395.69,-39.84 414.46,-28.53"/>
<polygon fill="red" stroke="red" stroke-width="0.34" points="416.42,-31.43 423.18,-23.28 412.81,-25.44 416.42,-31.43"/>
</g>
<!-- &#45;17&#45;&gt;2 -->
<g id="edge77" class="edge">
<title>&#45;17&#45;&gt;2</title>
<path fill="none" stroke="red" stroke-width="0.11" d="M346.17,-65.65C352.76,-57.72 363.07,-45.29 371.75,-34.83"/>
<polygon fill="red" stroke="red" stroke-width="0.11" points="374.56,-36.93 378.25,-26.99 369.17,-32.46 374.56,-36.93"/>
</g>
<!-- &#45;17&#45;&gt;3 -->
<g id="edge78" class="edge">
<title>&#45;17&#45;&gt;3</title>
<path fill="none" stroke="green" stroke-width="0.89" d="M354.17,-68.61C357.24,-67.6 360.46,-66.58 363.5,-65.7 426.84,-47.25 446.34,-54.42 507.5,-29.7 508.36,-29.35 509.22,-28.98 510.09,-28.58"/>
<polygon fill="green" stroke="green" stroke-width="0.89" points="511.89,-31.6 519.13,-23.86 508.64,-25.39 511.89,-31.6"/>
</g>
<!-- &#45;17&#45;&gt;4 -->
<g id="edge79" class="edge">
<title>&#45;17&#45;&gt;4</title>
<path fill="none" stroke="red" stroke-width="0.47" d="M354.2,-68.66C381.75,-59.17 440.1,-38.77 459.5,-29.7 460.34,-29.31 461.19,-28.89 462.04,-28.47"/>
<polygon fill="red" stroke="red" stroke-width="0.47" points="463.89,-31.44 471.01,-23.6 460.55,-25.29 463.89,-31.44"/>
</g>
<!-- &#45;18 -->
<g id="node18" class="node">
<title>&#45;18</title>
<polygon fill="lightgray" stroke="black" points="444,-83.7 415,-83.7 415,-65.7 444,-65.7 444,-83.7"/>
<text text-anchor="middle" x="429.5" y="-72.5" font-family="Times New Roman,serif" font-size="9.00">&#45;18</text>
</g>
<!-- &#45;18&#45;&gt;0 -->
<g id="edge80" class="edge">
<title>&#45;18&#45;&gt;0</title>
<path fill="none" stroke="green" stroke-width="0.32" d="M416.99,-65.65C402.26,-56.19 377.6,-40.34 360.06,-29.06"/>
<polygon fill="green" stroke="green" stroke-width="0.32" points="361.92,-26.1 351.62,-23.64 358.14,-31.99 361.92,-26.1"/>
</g>
<!-- &#45;18&#45;&gt;1 -->
<g id="edge81" class="edge">
<title>&#45;18&#45;&gt;1</title>
<path fill="none" stroke="green" stroke-width="0.46" d="M430.33,-65.65C431.02,-59.05 432.03,-49.33 432.97,-40.23"/>
<polygon fill="green" stroke="green" stroke-width="0.46" points="436.48,-40.36 434.03,-30.06 429.51,-39.64 436.48,-40.36"/>
</g>
<!-- &#45;18&#45;&gt;2 -->
<g id="edge82" class="edge">
<title>&#45;18&#45;&gt;2</title>
<path fill="none" stroke="green" stroke-width="0.66" d="M423.66,-65.65C418.03,-57.89 409.27,-45.84 401.79,-35.53"/>
<polygon fill="green" stroke="green" stroke-width="0.66" points="404.61,-33.45 395.9,-27.42 398.94,-37.57 404.61,-33.45"/>
</g>
<!-- &#45;18&#45;&gt;3 -->
<g id="edge83" class="edge">
<title>&#45;18&#45;&gt;3</title>
<path fill="none" stroke="green" stroke-width="0.17" d="M443.9,-65.63C459.57,-56.84 485.35,-42.33 507.5,-29.7 508.3,-29.24 509.12,-28.77 509.95,-28.3"/>
<polygon fill="green" stroke="green" stroke-width="0.17" points="511.88,-31.22 518.81,-23.2 508.4,-25.15 511.88,-31.22"/>
</g>
<!-- &#45;18&#45;&gt;4 -->
<g id="edge84" class="edge">
<title>&#45;18&#45;&gt;4</title>
<path fill="none" stroke="green" stroke-width="0.14" d="M437.01,-65.65C444.68,-57.44 456.83,-44.42 466.79,-33.75"/>
<polygon fill="green" stroke="green" stroke-width="0.14" points="469.6,-35.86 473.87,-26.17 464.49,-31.09 469.6,-35.86"/>
</g>
<!-- &#45;19 -->
<g id="node19" class="node">
<title>&#45;19</title>
<polygon fill="lightgray" stroke="black" points="491,-83.7 462,-83.7 462,-65.7 491,-65.7 491,-83.7"/>
<text text-anchor="middle" x="476.5" y="-72.5" font-family="Times New Roman,serif" font-size="9.00">&#45;19</text>
</g>
<!-- &#45;19&#45;&gt;0 -->
<g id="edge85" class="edge">
<title>&#45;19&#45;&gt;0</title>
<path fill="none" stroke="red" stroke-width="0.5" d="M461.85,-68.31C435.61,-58.61 381.63,-38.4 363.5,-29.7 362.67,-29.3 361.82,-28.88 360.97,-28.45"/>
<polygon fill="red" stroke="red" stroke-width="0.5" points="362.46,-25.27 352.01,-23.55 359.11,-31.42 362.46,-25.27"/>
</g>
<!-- &#45;19&#45;&gt;1 -->
<g id="edge86" class="edge">
<title>&#45;19&#45;&gt;1</title>
<path fill="none" stroke="green" stroke-width="0.31" d="M470.8,-65.65C465.35,-57.97 456.92,-46.08 449.67,-35.84"/>
<polygon fill="green" stroke="green" stroke-width="0.31" points="452.34,-33.55 443.7,-27.42 446.63,-37.6 452.34,-33.55"/>
</g>
<!-- &#45;19&#45;&gt;2 -->
<g id="edge87" class="edge">
<title>&#45;19&#45;&gt;2</title>
<path fill="none" stroke="green" stroke-width="0.36" d="M464.12,-65.65C449.7,-56.28 425.62,-40.63 408.31,-29.37"/>
<polygon fill="green" stroke="green" stroke-width="0.36" points="409.78,-26.16 399.49,-23.64 405.96,-32.02 409.78,-26.16"/>
</g>
<!-- &#45;19&#45;&gt;3 -->
<g id="edge88" class="edge">
<title>&#45;19&#45;&gt;3</title>
<path fill="none" stroke="red" stroke-width="0.34" d="M484.15,-65.65C492.03,-57.36 504.58,-44.16 514.78,-33.44"/>
<polygon fill="red" stroke="red" stroke-width="0.34" points="517.34,-35.83 521.69,-26.17 512.26,-31 517.34,-35.83"/>
</g>
<!-- &#45;19&#45;&gt;4 -->
<g id="edge89" class="edge">
<title>&#45;19&#45;&gt;4</title>
<path fill="none" stroke="green" stroke-width="0.38" d="M477.47,-65.65C478.27,-59.05 479.45,-49.33 480.55,-40.23"/>
<polygon fill="green" stroke="green" stroke-width="0.38" points="484.05,-40.4 481.78,-30.06 477.1,-39.56 484.05,-40.4"/>
</g>
<!-- &#45;20 -->
<g id="node20" class="node">
<title>&#45;20</title>
<polygon fill="lightgray" stroke="black" points="749,-83.7 720,-83.7 720,-65.7 749,-65.7 749,-83.7"/>
<text text-anchor="middle" x="734.5" y="-72.5" font-family="Times New Roman,serif" font-size="9.00">&#45;20</text>
</g>
<!-- &#45;20&#45;&gt;0 -->
<g id="edge90" class="edge">
<title>&#45;20&#45;&gt;0</title>
<path fill="none" stroke="green" stroke-width="0.43" d="M719.92,-68.27C716.84,-67.29 713.59,-66.37 710.5,-65.7 558.94,-32.99 511,-77.5 363.5,-29.7 362.45,-29.36 361.39,-28.97 360.34,-28.54"/>
<polygon fill="green" stroke="green" stroke-width="0.43" points="361.75,-25.33 351.25,-23.94 358.59,-31.57 361.75,-25.33"/>
</g>
<!-- &#45;20&#45;&gt;1 -->
<g id="edge91" class="edge">
<title>&#45;20&#45;&gt;1</title>
<path fill="none" stroke="red" stroke-width="0.86" d="M719.9,-68.37C716.82,-67.38 713.58,-66.43 710.5,-65.7 600.82,-39.78 566.01,-66.53 459.5,-29.7 458.62,-29.4 457.75,-29.06 456.87,-28.7"/>
<polygon fill="red" stroke="red" stroke-width="0.86" points="458.28,-25.49 447.77,-24.13 455.14,-31.75 458.28,-25.49"/>
</g>
<!-- &#45;20&#45;&gt;3 -->
<g id="edge92" class="edge">
<title>&#45;20&#45;&gt;3</title>
<path fill="none" stroke="red" stroke-width="0.48" d="M719.81,-68.67C716.75,-67.66 713.52,-66.62 710.5,-65.7 655.66,-48.93 590.67,-31.42 556.07,-22.27"/>
<polygon fill="red" stroke="red" stroke-width="0.48" points="556.52,-18.77 545.96,-19.61 554.74,-25.54 556.52,-18.77"/>
</g>
<!-- &#45;20&#45;&gt;4 -->
<g id="edge93" class="edge">
<title>&#45;20&#45;&gt;4</title>
<path fill="none" stroke="green" stroke-width="0.5" d="M719.88,-68.45C716.8,-67.45 713.57,-66.48 710.5,-65.7 621.69,-43.15 593.59,-61.07 507.5,-29.7 506.63,-29.38 505.75,-29.03 504.88,-28.66"/>
<polygon fill="green" stroke="green" stroke-width="0.5" points="506.3,-25.46 495.8,-24.04 503.13,-31.7 506.3,-25.46"/>
</g>
</g>
</svg>
