<?xml version="1.0" encoding="UTF-8" standalone="no"?>
<!DOCTYPE svg PUBLIC "-//W3C//DTD SVG 1.1//EN"
 "http://www.w3.org/Graphics/SVG/1.1/DTD/svg11.dtd">
<!-- Generated by graphviz version 2.49.0 (20210828.1703)
 -->
<!-- Pages: 1 -->
<svg width="1295pt" height="393pt"
 viewBox="0.00 0.00 1294.95 392.68" xmlns="http://www.w3.org/2000/svg" xmlns:xlink="http://www.w3.org/1999/xlink">
<g id="graph0" class="graph" transform="scale(1 1) rotate(0) translate(4 388.68)">
<polygon fill="white" stroke="transparent" points="-4,4 -4,-388.68 1290.95,-388.68 1290.95,4 -4,4"/>
<!-- &#45;1 -->
<g id="node1" class="node">
<title>&#45;1</title>
<polygon fill="lightgray" stroke="black" points="629.95,-318.46 605.95,-318.46 605.95,-300.46 629.95,-300.46 629.95,-318.46"/>
<text text-anchor="middle" x="617.95" y="-307.26" font-family="Times New Roman,serif" font-size="9.00">&#45;1</text>
</g>
<!-- 0 -->
<g id="node21" class="node">
<title>0</title>
<ellipse fill="lightblue" stroke="black" cx="799.95" cy="-158.97" rx="14.7" ry="14.7"/>
<text text-anchor="middle" x="799.95" y="-156.77" font-family="Times New Roman,serif" font-size="9.00">0</text>
</g>
<!-- &#45;1&#45;&gt;0 -->
<g id="edge1" class="edge">
<title>&#45;1&#45;&gt;0</title>
<path fill="none" stroke="green" stroke-width="0.3" d="M630.13,-304.67C645.53,-300.02 672.94,-292.29 696.95,-288.25 744.78,-280.21 1099.1,-287.93 1131.95,-252.25 1144.72,-238.38 1144.25,-224.11 1131.95,-209.82 1092.15,-163.6 895.5,-159.64 825.09,-159.73"/>
<polygon fill="green" stroke="green" stroke-width="0.3" points="824.9,-156.23 814.91,-159.77 824.93,-163.23 824.9,-156.23"/>
</g>
<!-- 1 -->
<g id="node22" class="node">
<title>1</title>
<ellipse fill="lightblue" stroke="black" cx="427.95" cy="-158.97" rx="14.7" ry="14.7"/>
<text text-anchor="middle" x="427.95" y="-156.77" font-family="Times New Roman,serif" font-size="9.00">1</text>
</g>
<!-- &#45;1&#45;&gt;1 -->
<g id="edge2" class="edge">
<title>&#45;1&#45;&gt;1</title>
<path fill="none" stroke="red" stroke-width="0.1" d="M605.82,-307.78C539.69,-303.93 224.75,-284.01 196.95,-252.25 184.53,-238.06 184.84,-224.28 196.95,-209.82 255.5,-139.91 312.13,-201.72 398.95,-173.82 401.28,-173.07 403.66,-172.18 406.01,-171.2"/>
<polygon fill="red" stroke="red" stroke-width="0.1" points="407.64,-174.3 415.26,-166.95 404.71,-167.94 407.64,-174.3"/>
</g>
<!-- 2 -->
<g id="node23" class="node">
<title>2</title>
<ellipse fill="lightblue" stroke="black" cx="632.95" cy="-14.85" rx="14.7" ry="14.7"/>
<text text-anchor="middle" x="632.95" y="-12.65" font-family="Times New Roman,serif" font-size="9.00">2</text>
</g>
<!-- &#45;1&#45;&gt;2 -->
<g id="edge3" class="edge">
<title>&#45;1&#45;&gt;2</title>
<path fill="none" stroke="green" stroke-width="0.8" d="M605.82,-308.26C525.39,-306.77 71.1,-296.43 30.95,-252.25 -38.41,-175.93 15.07,-137.94 149.95,-65.7 230.48,-22.57 520.84,-16.74 608.03,-15.96"/>
<polygon fill="green" stroke="green" stroke-width="0.8" points="608.09,-19.46 618.06,-15.89 608.04,-12.46 608.09,-19.46"/>
</g>
<!-- 3 -->
<g id="node24" class="node">
<title>3</title>
<ellipse fill="lightblue" stroke="black" cx="551.95" cy="-158.97" rx="14.7" ry="14.7"/>
<text text-anchor="middle" x="551.95" y="-156.77" font-family="Times New Roman,serif" font-size="9.00">3</text>
</g>
<!-- &#45;1&#45;&gt;3 -->
<g id="edge4" class="edge">
<title>&#45;1&#45;&gt;3</title>
<path fill="none" stroke="green" stroke-width="0.15" d="M605.82,-307.17C564.46,-302.49 430.16,-284.97 404.95,-252.25 393.44,-237.31 393.96,-225.15 404.95,-209.82 432.86,-170.89 492.89,-161.99 526.97,-160.19"/>
<polygon fill="green" stroke="green" stroke-width="0.15" points="527.19,-163.68 537.05,-159.82 526.93,-156.69 527.19,-163.68"/>
</g>
<!-- 4 -->
<g id="node25" class="node">
<title>4</title>
<ellipse fill="lightblue" stroke="black" cx="713.95" cy="-158.97" rx="14.7" ry="14.7"/>
<text text-anchor="middle" x="713.95" y="-156.77" font-family="Times New Roman,serif" font-size="9.00">4</text>
</g>
<!-- &#45;1&#45;&gt;4 -->
<g id="edge5" class="edge">
<title>&#45;1&#45;&gt;4</title>
<path fill="none" stroke="red" stroke-width="0.28" d="M630.08,-305.3C673.24,-294.01 816.96,-256.19 819.95,-252.25 831.36,-237.24 830.05,-225.74 819.95,-209.82 802.21,-181.88 764.19,-169.32 738.84,-163.88"/>
<polygon fill="red" stroke="red" stroke-width="0.28" points="739.33,-160.41 728.84,-161.95 738,-167.28 739.33,-160.41"/>
</g>
<!-- 302 -->
<g id="node28" class="node">
<title>302</title>
<ellipse fill="white" stroke="black" cx="789.95" cy="-231.04" rx="21.43" ry="21.43"/>
<text text-anchor="middle" x="789.95" y="-228.84" font-family="Times New Roman,serif" font-size="9.00">302</text>
</g>
<!-- &#45;1&#45;&gt;302 -->
<g id="edge95" class="edge">
<title>&#45;1&#45;&gt;302</title>
<path fill="none" stroke="green" stroke-width="0.24" d="M630.12,-304.64C655.16,-296.56 713.97,-276.47 759.95,-252.25 761.48,-251.44 763.02,-250.58 764.57,-249.68"/>
<polygon fill="green" stroke="green" stroke-width="0.24" points="766.61,-252.53 773.21,-244.24 762.88,-246.6 766.61,-252.53"/>
</g>
<!-- &#45;2 -->
<g id="node2" class="node">
<title>&#45;2</title>
<polygon fill="lightgray" stroke="black" points="271.95,-240.04 247.95,-240.04 247.95,-222.04 271.95,-222.04 271.95,-240.04"/>
<text text-anchor="middle" x="259.95" y="-228.84" font-family="Times New Roman,serif" font-size="9.00">&#45;2</text>
</g>
<!-- &#45;2&#45;&gt;1 -->
<g id="edge6" class="edge">
<title>&#45;2&#45;&gt;1</title>
<path fill="none" stroke="green" stroke-width="0.34" d="M266.63,-221.99C270.44,-217.84 275.54,-213 280.95,-209.82 328.22,-182.05 347.85,-193.69 398.95,-173.82 401.23,-172.94 403.58,-171.95 405.91,-170.92"/>
<polygon fill="green" stroke="green" stroke-width="0.34" points="407.56,-174.01 415.14,-166.6 404.6,-167.67 407.56,-174.01"/>
</g>
<!-- &#45;2&#45;&gt;2 -->
<g id="edge7" class="edge">
<title>&#45;2&#45;&gt;2</title>
<path fill="none" stroke="red" stroke-width="0.49" d="M263.07,-221.88C273.93,-194.67 312.89,-106.46 375.95,-65.7 414.33,-40.89 550.99,-24.3 607.85,-18.32"/>
<polygon fill="red" stroke="red" stroke-width="0.49" points="608.51,-21.77 618.11,-17.27 607.8,-14.81 608.51,-21.77"/>
</g>
<!-- &#45;2&#45;&gt;3 -->
<g id="edge8" class="edge">
<title>&#45;2&#45;&gt;3</title>
<path fill="none" stroke="green" stroke-width="0.23" d="M266.49,-221.74C270.27,-217.52 275.37,-212.69 280.95,-209.82 302.83,-198.59 464.44,-173.24 527.17,-163.7"/>
<polygon fill="green" stroke="green" stroke-width="0.23" points="527.98,-167.11 537.34,-162.16 526.93,-160.19 527.98,-167.11"/>
</g>
<!-- &#45;2&#45;&gt;4 -->
<g id="edge9" class="edge">
<title>&#45;2&#45;&gt;4</title>
<path fill="none" stroke="red" stroke-width="0.41" d="M266.06,-222C269.84,-217.64 275.09,-212.59 280.95,-209.82 290.28,-205.42 598.09,-172.33 688.94,-162.63"/>
<polygon fill="red" stroke="red" stroke-width="0.41" points="689.34,-166.11 698.91,-161.57 688.6,-159.15 689.34,-166.11"/>
</g>
<!-- &#45;3 -->
<g id="node3" class="node">
<title>&#45;3</title>
<polygon fill="lightgray" stroke="black" points="527.95,-240.04 503.95,-240.04 503.95,-222.04 527.95,-222.04 527.95,-240.04"/>
<text text-anchor="middle" x="515.95" y="-228.84" font-family="Times New Roman,serif" font-size="9.00">&#45;3</text>
</g>
<!-- &#45;3&#45;&gt;0 -->
<g id="edge10" class="edge">
<title>&#45;3&#45;&gt;0</title>
<path fill="none" stroke="red" stroke-width="0.2" d="M528.03,-225.45C539.86,-221.06 558.48,-214.45 574.95,-209.82 646.38,-189.77 665.52,-189.91 737.95,-173.82 750.35,-171.07 764.15,-167.99 775.57,-165.43"/>
<polygon fill="red" stroke="red" stroke-width="0.2" points="776.67,-168.77 785.67,-163.17 775.15,-161.94 776.67,-168.77"/>
</g>
<!-- &#45;3&#45;&gt;1 -->
<g id="edge11" class="edge">
<title>&#45;3&#45;&gt;1</title>
<path fill="none" stroke="green" stroke-width="0.28" d="M507.55,-221.97C503.52,-218.19 498.57,-213.68 493.95,-209.82 479.07,-197.42 461.55,-184.25 448.3,-174.56"/>
<polygon fill="green" stroke="green" stroke-width="0.28" points="450.05,-171.5 439.9,-168.47 445.94,-177.17 450.05,-171.5"/>
</g>
<!-- &#45;3&#45;&gt;2 -->
<g id="edge12" class="edge">
<title>&#45;3&#45;&gt;2</title>
<path fill="none" stroke="green" stroke-width="0.68" d="M515.65,-221.58C515.41,-205.7 516.36,-170.62 527.95,-144.12 548.26,-97.69 590.31,-54.44 614.58,-31.97"/>
<polygon fill="green" stroke="green" stroke-width="0.68" points="617.02,-34.48 622.08,-25.17 612.32,-29.3 617.02,-34.48"/>
</g>
<!-- &#45;3&#45;&gt;3 -->
<g id="edge13" class="edge">
<title>&#45;3&#45;&gt;3</title>
<path fill="none" stroke="green" stroke-width="0.33" d="M520.08,-222C525.1,-212.22 533.78,-195.33 540.82,-181.64"/>
<polygon fill="green" stroke="green" stroke-width="0.33" points="544.11,-182.88 545.57,-172.39 537.89,-179.68 544.11,-182.88"/>
</g>
<!-- &#45;3&#45;&gt;4 -->
<g id="edge14" class="edge">
<title>&#45;3&#45;&gt;4</title>
<path fill="none" stroke="red" stroke-width="0.32" d="M528.04,-225.76C560.23,-214.37 648.45,-183.15 690.74,-168.19"/>
<polygon fill="red" stroke="red" stroke-width="0.32" points="691.95,-171.47 700.21,-164.84 689.62,-164.87 691.95,-171.47"/>
</g>
<!-- &#45;4 -->
<g id="node4" class="node">
<title>&#45;4</title>
<polygon fill="lightgray" stroke="black" points="229.95,-240.04 205.95,-240.04 205.95,-222.04 229.95,-222.04 229.95,-240.04"/>
<text text-anchor="middle" x="217.95" y="-228.84" font-family="Times New Roman,serif" font-size="9.00">&#45;4</text>
</g>
<!-- &#45;4&#45;&gt;1 -->
<g id="edge15" class="edge">
<title>&#45;4&#45;&gt;1</title>
<path fill="none" stroke="red" stroke-width="0.88" d="M224.53,-221.83C228.32,-217.63 233.42,-212.8 238.95,-209.82 303.13,-175.28 330.07,-197.68 398.95,-173.82 401.26,-173.02 403.63,-172.09 405.98,-171.09"/>
<polygon fill="red" stroke="red" stroke-width="0.88" points="407.61,-174.19 415.22,-166.81 404.67,-167.84 407.61,-174.19"/>
</g>
<!-- &#45;4&#45;&gt;2 -->
<g id="edge16" class="edge">
<title>&#45;4&#45;&gt;2</title>
<path fill="none" stroke="red" stroke-width="0.5" d="M220.63,-221.81C230.04,-194.4 264.36,-105.63 325.95,-65.7 372.63,-35.43 543.1,-21.59 607.81,-17.34"/>
<polygon fill="red" stroke="red" stroke-width="0.5" points="608.17,-20.83 617.93,-16.7 607.73,-13.84 608.17,-20.83"/>
</g>
<!-- &#45;4&#45;&gt;3 -->
<g id="edge17" class="edge">
<title>&#45;4&#45;&gt;3</title>
<path fill="none" stroke="red" stroke-width="0.39" d="M224.46,-221.69C228.23,-217.45 233.33,-212.62 238.95,-209.82 251.92,-203.36 455.54,-173.77 527.22,-163.5"/>
<polygon fill="red" stroke="red" stroke-width="0.39" points="527.77,-166.96 537.17,-162.08 526.78,-160.03 527.77,-166.96"/>
</g>
<!-- &#45;4&#45;&gt;4 -->
<g id="edge18" class="edge">
<title>&#45;4&#45;&gt;4</title>
<path fill="none" stroke="green" stroke-width="0.26" d="M224.04,-221.98C227.83,-217.61 233.08,-212.56 238.95,-209.82 244.12,-207.42 592.03,-172.25 689.06,-162.48"/>
<polygon fill="green" stroke="green" stroke-width="0.26" points="689.53,-165.95 699.13,-161.46 688.83,-158.98 689.53,-165.95"/>
</g>
<!-- &#45;5 -->
<g id="node5" class="node">
<title>&#45;5</title>
<polygon fill="lightgray" stroke="black" points="437.95,-240.04 413.95,-240.04 413.95,-222.04 437.95,-222.04 437.95,-240.04"/>
<text text-anchor="middle" x="425.95" y="-228.84" font-family="Times New Roman,serif" font-size="9.00">&#45;5</text>
</g>
<!-- &#45;5&#45;&gt;0 -->
<g id="edge19" class="edge">
<title>&#45;5&#45;&gt;0</title>
<path fill="none" stroke="red" stroke-width="0.43" d="M432.06,-222.02C435.85,-217.66 441.1,-212.61 446.95,-209.82 564.59,-153.76 609.54,-196.05 737.95,-173.82 750.47,-171.66 764.27,-168.64 775.67,-165.97"/>
<polygon fill="red" stroke="red" stroke-width="0.43" points="776.83,-169.29 785.74,-163.56 775.2,-162.48 776.83,-169.29"/>
</g>
<!-- &#45;5&#45;&gt;1 -->
<g id="edge20" class="edge">
<title>&#45;5&#45;&gt;1</title>
<path fill="none" stroke="red" stroke-width="0.7" d="M426.18,-222C426.44,-212.85 426.88,-197.45 427.26,-184.29"/>
<polygon fill="red" stroke="red" stroke-width="0.7" points="430.76,-184.04 427.55,-173.94 423.77,-183.84 430.76,-184.04"/>
</g>
<!-- &#45;5&#45;&gt;2 -->
<g id="edge21" class="edge">
<title>&#45;5&#45;&gt;2</title>
<path fill="none" stroke="green" stroke-width="0.87" d="M419.98,-221.55C409.58,-205.6 390.47,-170.43 403.95,-144.12 444.8,-64.4 557.94,-31.48 608.26,-20.49"/>
<polygon fill="green" stroke="green" stroke-width="0.87" points="609.19,-23.87 618.27,-18.41 607.77,-17.02 609.19,-23.87"/>
</g>
<!-- &#45;5&#45;&gt;3 -->
<g id="edge22" class="edge">
<title>&#45;5&#45;&gt;3</title>
<path fill="none" stroke="red" stroke-width="0.36" d="M433.2,-221.91C437.03,-217.93 441.95,-213.28 446.95,-209.82 473.03,-191.8 506.65,-177.12 528.73,-168.47"/>
<polygon fill="red" stroke="red" stroke-width="0.36" points="530.18,-171.66 538.27,-164.83 527.68,-165.12 530.18,-171.66"/>
</g>
<!-- &#45;5&#45;&gt;4 -->
<g id="edge23" class="edge">
<title>&#45;5&#45;&gt;4</title>
<path fill="none" stroke="red" stroke-width="0.12" d="M432.49,-221.75C436.27,-217.53 441.37,-212.7 446.95,-209.82 489.29,-188.02 631.03,-169.59 688.96,-162.78"/>
<polygon fill="red" stroke="red" stroke-width="0.12" points="689.53,-166.24 699.07,-161.61 688.73,-159.29 689.53,-166.24"/>
</g>
<!-- &#45;6 -->
<g id="node6" class="node">
<title>&#45;6</title>
<polygon fill="lightgray" stroke="black" points="655.95,-240.04 631.95,-240.04 631.95,-222.04 655.95,-222.04 655.95,-240.04"/>
<text text-anchor="middle" x="643.95" y="-228.84" font-family="Times New Roman,serif" font-size="9.00">&#45;6</text>
</g>
<!-- &#45;6&#45;&gt;0 -->
<g id="edge24" class="edge">
<title>&#45;6&#45;&gt;0</title>
<path fill="none" stroke="red" stroke-width="0.29" d="M651.08,-221.71C654.87,-217.69 659.8,-213.05 664.95,-209.82 700.61,-187.46 747.8,-172.94 775.91,-165.63"/>
<polygon fill="red" stroke="red" stroke-width="0.29" points="776.83,-169.01 785.68,-163.18 775.13,-162.22 776.83,-169.01"/>
</g>
<!-- &#45;6&#45;&gt;1 -->
<g id="edge25" class="edge">
<title>&#45;6&#45;&gt;1</title>
<path fill="none" stroke="green" stroke-width="0.5" d="M636.94,-221.9C632.94,-217.73 627.6,-212.89 621.95,-209.82 566.32,-179.63 491.71,-167.17 453.25,-162.49"/>
<polygon fill="green" stroke="green" stroke-width="0.5" points="453.29,-158.97 442.96,-161.32 452.5,-165.93 453.29,-158.97"/>
</g>
<!-- &#45;6&#45;&gt;2 -->
<g id="edge26" class="edge">
<title>&#45;6&#45;&gt;2</title>
<path fill="none" stroke="green" stroke-width="0.6" stroke-dasharray="1,5" d="M643.53,-221.9C642,-191.99 636.62,-87.34 634.18,-39.74"/>
<polygon fill="green" stroke="green" stroke-width="0.6" points="637.67,-39.53 633.66,-29.72 630.68,-39.89 637.67,-39.53"/>
</g>
<!-- &#45;6&#45;&gt;3 -->
<g id="edge27" class="edge">
<title>&#45;6&#45;&gt;3</title>
<path fill="none" stroke="green" stroke-width="0.11" d="M635.6,-221.91C631.58,-218.12 626.62,-213.61 621.95,-209.82 605.97,-196.88 586.91,-183.43 572.72,-173.76"/>
<polygon fill="green" stroke="green" stroke-width="0.11" points="574.42,-170.69 564.17,-168 570.51,-176.49 574.42,-170.69"/>
</g>
<!-- &#45;6&#45;&gt;4 -->
<g id="edge28" class="edge">
<title>&#45;6&#45;&gt;4</title>
<path fill="none" stroke="red" stroke-width="0.21" d="M651.98,-222C662.77,-211.2 682.23,-191.73 696.47,-177.47"/>
<polygon fill="red" stroke="red" stroke-width="0.21" points="699.16,-179.72 703.76,-170.18 694.21,-174.78 699.16,-179.72"/>
</g>
<!-- &#45;7 -->
<g id="node7" class="node">
<title>&#45;7</title>
<polygon fill="lightgray" stroke="black" points="111.95,-240.04 87.95,-240.04 87.95,-222.04 111.95,-222.04 111.95,-240.04"/>
<text text-anchor="middle" x="99.95" y="-228.84" font-family="Times New Roman,serif" font-size="9.00">&#45;7</text>
</g>
<!-- &#45;7&#45;&gt;0 -->
<g id="edge29" class="edge">
<title>&#45;7&#45;&gt;0</title>
<path fill="none" stroke="green" stroke-width="0.3" stroke-dasharray="1,5" d="M112.1,-226.93C130.38,-222.4 166.1,-214.04 196.95,-209.82 435.7,-177.16 499.44,-208.19 737.95,-173.82 750.65,-171.99 764.62,-168.96 776.08,-166.21"/>
<polygon fill="green" stroke="green" stroke-width="0.3" points="776.92,-169.6 785.78,-163.79 775.23,-162.81 776.92,-169.6"/>
</g>
<!-- &#45;7&#45;&gt;1 -->
<g id="edge30" class="edge">
<title>&#45;7&#45;&gt;1</title>
<path fill="none" stroke="red" stroke-width="0.29" d="M108.34,-221.64C113.1,-217.39 119.41,-212.56 125.95,-209.82 238.86,-162.62 281.62,-208.62 398.95,-173.82 401.3,-173.13 403.69,-172.26 406.05,-171.31"/>
<polygon fill="red" stroke="red" stroke-width="0.29" points="407.66,-174.42 415.3,-167.08 404.75,-168.05 407.66,-174.42"/>
</g>
<!-- &#45;7&#45;&gt;2 -->
<g id="edge31" class="edge">
<title>&#45;7&#45;&gt;2</title>
<path fill="none" stroke="green" stroke-width="0.48" d="M105.9,-221.72C126.22,-194.02 196.23,-104.42 277.95,-65.7 336.81,-37.81 536.72,-22.2 607.7,-17.44"/>
<polygon fill="green" stroke="green" stroke-width="0.48" points="608.19,-20.91 617.94,-16.76 607.73,-13.93 608.19,-20.91"/>
</g>
<!-- &#45;7&#45;&gt;3 -->
<g id="edge32" class="edge">
<title>&#45;7&#45;&gt;3</title>
<path fill="none" stroke="green" stroke-width="0.48" stroke-dasharray="1,5" d="M112.15,-227.22C130.49,-223.06 166.28,-215.17 196.95,-209.82 213.31,-206.97 449.21,-174.22 527.15,-163.41"/>
<polygon fill="green" stroke="green" stroke-width="0.48" points="527.64,-166.88 537.07,-162.04 526.68,-159.94 527.64,-166.88"/>
</g>
<!-- 147 -->
<g id="node29" class="node">
<title>147</title>
<ellipse fill="white" stroke="black" cx="824.95" cy="-86.91" rx="21.43" ry="21.43"/>
<text text-anchor="middle" x="824.95" y="-84.71" font-family="Times New Roman,serif" font-size="9.00">147</text>
</g>
<!-- &#45;7&#45;&gt;147 -->
<g id="edge92" class="edge">
<title>&#45;7&#45;&gt;147</title>
<path fill="none" stroke="green" stroke-width="0.25" d="M108.46,-221.9C113.25,-217.72 119.55,-212.88 125.95,-209.82 240.46,-155.01 279.1,-167.15 403.95,-144.12 548.5,-117.46 723.19,-98.24 793.45,-91.04"/>
<polygon fill="green" stroke="green" stroke-width="0.25" points="794.21,-94.48 803.81,-89.98 793.5,-87.51 794.21,-94.48"/>
</g>
<!-- &#45;8 -->
<g id="node8" class="node">
<title>&#45;8</title>
<polygon fill="lightgray" stroke="black" points="1027.95,-240.04 1003.95,-240.04 1003.95,-222.04 1027.95,-222.04 1027.95,-240.04"/>
<text text-anchor="middle" x="1015.95" y="-228.84" font-family="Times New Roman,serif" font-size="9.00">&#45;8</text>
</g>
<!-- &#45;8&#45;&gt;0 -->
<g id="edge33" class="edge">
<title>&#45;8&#45;&gt;0</title>
<path fill="none" stroke="red" stroke-width="0.19" d="M1009.33,-221.89C1005.53,-217.72 1000.43,-212.88 994.95,-209.82 939.25,-178.79 863.87,-166.67 825.17,-162.27"/>
<polygon fill="red" stroke="red" stroke-width="0.19" points="825.15,-158.75 814.84,-161.18 824.42,-165.71 825.15,-158.75"/>
</g>
<!-- &#45;8&#45;&gt;2 -->
<g id="edge34" class="edge">
<title>&#45;8&#45;&gt;2</title>
<path fill="none" stroke="green" stroke-width="0.28" d="M1014.76,-221.88C1010.35,-194.68 992.22,-106.51 937.95,-65.7 893.77,-32.47 723.07,-20.44 658.18,-17.01"/>
<polygon fill="green" stroke="green" stroke-width="0.28" points="658.19,-13.5 648.03,-16.49 657.84,-20.49 658.19,-13.5"/>
</g>
<!-- &#45;8&#45;&gt;3 -->
<g id="edge35" class="edge">
<title>&#45;8&#45;&gt;3</title>
<path fill="none" stroke="green" stroke-width="0.63" d="M1009.85,-222C1006.06,-217.63 1000.81,-212.58 994.95,-209.82 985.38,-205.33 669.1,-172.16 576.92,-162.57"/>
<polygon fill="green" stroke="green" stroke-width="0.63" points="577.14,-159.07 566.83,-161.52 576.41,-166.03 577.14,-159.07"/>
</g>
<!-- &#45;8&#45;&gt;4 -->
<g id="edge36" class="edge">
<title>&#45;8&#45;&gt;4</title>
<path fill="none" stroke="green" stroke-width="0.62" stroke-dasharray="1,5" d="M1009.43,-221.7C1005.66,-217.47 1000.56,-212.63 994.95,-209.82 906.77,-165.62 872.79,-192.58 775.95,-173.82 763.48,-171.41 749.68,-168.36 738.27,-165.74"/>
<polygon fill="green" stroke="green" stroke-width="0.62" points="738.72,-162.25 728.18,-163.4 737.13,-169.07 738.72,-162.25"/>
</g>
<!-- &#45;9 -->
<g id="node9" class="node">
<title>&#45;9</title>
<polygon fill="lightgray" stroke="black" points="985.95,-240.04 961.95,-240.04 961.95,-222.04 985.95,-222.04 985.95,-240.04"/>
<text text-anchor="middle" x="973.95" y="-228.84" font-family="Times New Roman,serif" font-size="9.00">&#45;9</text>
</g>
<!-- &#45;9&#45;&gt;0 -->
<g id="edge37" class="edge">
<title>&#45;9&#45;&gt;0</title>
<path fill="none" stroke="green" stroke-width="0.64" d="M967.25,-222.03C963.42,-217.9 958.33,-213.05 952.95,-209.82 911.6,-185 856.43,-170.99 824.9,-164.49"/>
<polygon fill="green" stroke="green" stroke-width="0.64" points="825.28,-161 814.79,-162.5 823.92,-167.87 825.28,-161"/>
</g>
<!-- &#45;9&#45;&gt;1 -->
<g id="edge38" class="edge">
<title>&#45;9&#45;&gt;1</title>
<path fill="none" stroke="red" stroke-width="0.41" d="M967.87,-221.93C964.1,-217.55 958.85,-212.5 952.95,-209.82 866.61,-170.71 622.15,-184.33 527.95,-173.82 502.11,-170.94 472.64,-166.75 452.42,-163.73"/>
<polygon fill="red" stroke="red" stroke-width="0.41" points="452.9,-160.27 442.49,-162.24 451.86,-167.19 452.9,-160.27"/>
</g>
<!-- &#45;9&#45;&gt;2 -->
<g id="edge39" class="edge">
<title>&#45;9&#45;&gt;2</title>
<path fill="none" stroke="red" stroke-width="0.1" d="M973.36,-221.96C970.91,-194.99 959.18,-107.47 907.95,-65.7 869.72,-34.52 718.72,-21.42 658.21,-17.35"/>
<polygon fill="red" stroke="red" stroke-width="0.1" points="658.22,-13.84 648.02,-16.69 657.77,-20.83 658.22,-13.84"/>
</g>
<!-- &#45;9&#45;&gt;3 -->
<g id="edge40" class="edge">
<title>&#45;9&#45;&gt;3</title>
<path fill="none" stroke="green" stroke-width="0.65" stroke-dasharray="1,5" d="M967.83,-222.02C964.05,-217.66 958.8,-212.61 952.95,-209.82 935.85,-201.67 662.05,-171.78 576.97,-162.64"/>
<polygon fill="green" stroke="green" stroke-width="0.65" points="577.22,-159.15 566.91,-161.57 576.48,-166.11 577.22,-159.15"/>
</g>
<!-- &#45;9&#45;&gt;4 -->
<g id="edge41" class="edge">
<title>&#45;9&#45;&gt;4</title>
<path fill="none" stroke="green" stroke-width="0.47" d="M967.39,-221.78C963.61,-217.57 958.51,-212.74 952.95,-209.82 881.87,-172.51 854.46,-190.57 775.95,-173.82 763.52,-171.17 749.73,-168.1 738.31,-165.53"/>
<polygon fill="green" stroke="green" stroke-width="0.47" points="738.74,-162.04 728.22,-163.24 737.19,-168.86 738.74,-162.04"/>
</g>
<!-- &#45;9&#45;&gt;147 -->
<g id="edge98" class="edge">
<title>&#45;9&#45;&gt;147</title>
<path fill="none" stroke="red" stroke-width="0.28" d="M965.38,-221.77C961.57,-218.1 957.04,-213.74 952.95,-209.82 915.99,-174.43 872.87,-133.42 847.3,-109.13"/>
<polygon fill="red" stroke="red" stroke-width="0.28" points="849.61,-106.5 839.95,-102.15 844.79,-111.57 849.61,-106.5"/>
</g>
<!-- &#45;10 -->
<g id="node10" class="node">
<title>&#45;10</title>
<polygon fill="lightgray" stroke="black" points="485.45,-240.04 456.45,-240.04 456.45,-222.04 485.45,-222.04 485.45,-240.04"/>
<text text-anchor="middle" x="470.95" y="-228.84" font-family="Times New Roman,serif" font-size="9.00">&#45;10</text>
</g>
<!-- &#45;10&#45;&gt;0 -->
<g id="edge42" class="edge">
<title>&#45;10&#45;&gt;0</title>
<path fill="none" stroke="green" stroke-width="0.25" stroke-dasharray="1,5" d="M478.6,-221.67C482.97,-217.43 488.79,-212.6 494.95,-209.82 594.48,-164.95 630.6,-193.74 737.95,-173.82 750.44,-171.51 764.24,-168.47 775.65,-165.83"/>
<polygon fill="green" stroke="green" stroke-width="0.25" points="776.79,-169.16 785.73,-163.46 775.19,-162.34 776.79,-169.16"/>
</g>
<!-- &#45;10&#45;&gt;1 -->
<g id="edge43" class="edge">
<title>&#45;10&#45;&gt;1</title>
<path fill="none" stroke="red" stroke-width="0.1" d="M466.02,-222C459.92,-212.07 449.32,-194.8 440.85,-181"/>
<polygon fill="red" stroke="red" stroke-width="0.1" points="443.63,-178.83 435.41,-172.13 437.66,-182.49 443.63,-178.83"/>
</g>
<!-- &#45;10&#45;&gt;2 -->
<g id="edge44" class="edge">
<title>&#45;10&#45;&gt;2</title>
<path fill="none" stroke="green" stroke-width="0.29" d="M472.71,-221.85C478.64,-196.01 500.05,-114.95 544.95,-65.7 562.78,-46.14 590.12,-32.33 609.59,-24.28"/>
<polygon fill="green" stroke="green" stroke-width="0.29" points="610.94,-27.52 618.96,-20.6 608.38,-21 610.94,-27.52"/>
</g>
<!-- &#45;10&#45;&gt;3 -->
<g id="edge45" class="edge">
<title>&#45;10&#45;&gt;3</title>
<path fill="none" stroke="red" stroke-width="0.24" stroke-dasharray="1,5" d="M480.24,-222C493.05,-210.92 516.43,-190.7 533.01,-176.36"/>
<polygon fill="red" stroke="red" stroke-width="0.24" points="535.69,-178.66 540.96,-169.48 531.11,-173.37 535.69,-178.66"/>
</g>
<!-- &#45;10&#45;&gt;4 -->
<g id="edge46" class="edge">
<title>&#45;10&#45;&gt;4</title>
<path fill="none" stroke="green" stroke-width="0.31" d="M478.69,-221.86C483.08,-217.67 488.9,-212.83 494.95,-209.82 560.16,-177.36 646.81,-165.73 688.89,-161.82"/>
<polygon fill="green" stroke="green" stroke-width="0.31" points="689.4,-165.29 699.06,-160.94 688.8,-158.31 689.4,-165.29"/>
</g>
<!-- &#45;11 -->
<g id="node11" class="node">
<title>&#45;11</title>
<polygon fill="lightgray" stroke="black" points="69.45,-240.04 40.45,-240.04 40.45,-222.04 69.45,-222.04 69.45,-240.04"/>
<text text-anchor="middle" x="54.95" y="-228.84" font-family="Times New Roman,serif" font-size="9.00">&#45;11</text>
</g>
<!-- &#45;11&#45;&gt;1 -->
<g id="edge47" class="edge">
<title>&#45;11&#45;&gt;1</title>
<path fill="none" stroke="green" stroke-width="0.13" d="M62.59,-221.66C66.96,-217.41 72.78,-212.58 78.95,-209.82 137.41,-183.65 333.57,-166.95 403.18,-161.73"/>
<polygon fill="green" stroke="green" stroke-width="0.13" points="403.51,-165.22 413.23,-160.99 403,-158.24 403.51,-165.22"/>
</g>
<!-- &#45;11&#45;&gt;2 -->
<g id="edge48" class="edge">
<title>&#45;11&#45;&gt;2</title>
<path fill="none" stroke="green" stroke-width="0.14" d="M59.85,-221.66C76.7,-193.75 135.33,-103.59 210.95,-65.7 281.34,-30.43 527.75,-19.32 607.7,-16.6"/>
<polygon fill="green" stroke="green" stroke-width="0.14" points="607.95,-20.09 617.84,-16.27 607.73,-13.1 607.95,-20.09"/>
</g>
<!-- &#45;11&#45;&gt;4 -->
<g id="edge49" class="edge">
<title>&#45;11&#45;&gt;4</title>
<path fill="none" stroke="green" stroke-width="0.43" d="M62.1,-221.9C66.49,-217.5 72.49,-212.45 78.95,-209.82 181.53,-168.12 465.63,-183.35 575.95,-173.82 615.55,-170.4 661.47,-165.63 689.08,-162.68"/>
<polygon fill="green" stroke="green" stroke-width="0.43" points="689.49,-166.16 699.05,-161.61 688.74,-159.2 689.49,-166.16"/>
</g>
<!-- &#45;12 -->
<g id="node12" class="node">
<title>&#45;12</title>
<polygon fill="lightgray" stroke="black" points="1122.45,-240.04 1093.45,-240.04 1093.45,-222.04 1122.45,-222.04 1122.45,-240.04"/>
<text text-anchor="middle" x="1107.95" y="-228.84" font-family="Times New Roman,serif" font-size="9.00">&#45;12</text>
</g>
<!-- &#45;12&#45;&gt;0 -->
<g id="edge50" class="edge">
<title>&#45;12&#45;&gt;0</title>
<path fill="none" stroke="green" stroke-width="0.17" stroke-dasharray="1,5" d="M1100.65,-221.73C1096.48,-217.5 1090.89,-212.67 1084.95,-209.82 1038.79,-187.69 885.48,-169.2 824.9,-162.59"/>
<polygon fill="green" stroke="green" stroke-width="0.17" points="825.03,-159.08 814.71,-161.49 824.28,-166.04 825.03,-159.08"/>
</g>
<!-- &#45;12&#45;&gt;2 -->
<g id="edge51" class="edge">
<title>&#45;12&#45;&gt;2</title>
<path fill="none" stroke="green" stroke-width="0.1" stroke-dasharray="1,5" d="M1105.5,-221.76C1096.88,-194.16 1065.06,-104.88 1003.95,-65.7 946.32,-28.75 732.26,-18.85 658.29,-16.51"/>
<polygon fill="green" stroke="green" stroke-width="0.1" points="658.15,-13 648.05,-16.2 657.94,-20 658.15,-13"/>
</g>
<!-- &#45;12&#45;&gt;3 -->
<g id="edge52" class="edge">
<title>&#45;12&#45;&gt;3</title>
<path fill="none" stroke="green" stroke-width="0.94" d="M1101.14,-221.95C1096.95,-217.56 1091.2,-212.51 1084.95,-209.82 1003.97,-175.02 777.69,-182.22 689.95,-173.82 650.38,-170.03 604.46,-165.37 576.83,-162.54"/>
<polygon fill="green" stroke="green" stroke-width="0.94" points="577.16,-159.06 566.85,-161.51 576.44,-166.02 577.16,-159.06"/>
</g>
<!-- &#45;12&#45;&gt;4 -->
<g id="edge53" class="edge">
<title>&#45;12&#45;&gt;4</title>
<path fill="none" stroke="green" stroke-width="0.32" d="M1101.11,-222C1096.92,-217.64 1091.17,-212.59 1084.95,-209.82 958.62,-153.64 912.27,-196.93 775.95,-173.82 763.42,-171.7 749.62,-168.68 738.22,-166.01"/>
<polygon fill="green" stroke="green" stroke-width="0.32" points="738.69,-162.52 728.15,-163.59 737.05,-169.33 738.69,-162.52"/>
</g>
<!-- &#45;12&#45;&gt;147 -->
<g id="edge97" class="edge">
<title>&#45;12&#45;&gt;147</title>
<path fill="none" stroke="red" stroke-width="0.37" d="M1099.89,-221.94C1095.67,-217.98 1090.29,-213.32 1084.95,-209.82 1006.91,-158.72 904.05,-117.19 854.35,-98.54"/>
<polygon fill="red" stroke="red" stroke-width="0.37" points="855.45,-95.22 844.86,-95.02 853.01,-101.78 855.45,-95.22"/>
</g>
<!-- &#45;13 -->
<g id="node13" class="node">
<title>&#45;13</title>
<polygon fill="lightgray" stroke="black" points="896.45,-240.04 867.45,-240.04 867.45,-222.04 896.45,-222.04 896.45,-240.04"/>
<text text-anchor="middle" x="881.95" y="-228.84" font-family="Times New Roman,serif" font-size="9.00">&#45;13</text>
</g>
<!-- &#45;13&#45;&gt;0 -->
<g id="edge54" class="edge">
<title>&#45;13&#45;&gt;0</title>
<path fill="none" stroke="green" stroke-width="0.21" d="M872.54,-222C859.5,-210.86 835.65,-190.47 818.85,-176.12"/>
<polygon fill="green" stroke="green" stroke-width="0.21" points="820.68,-173.08 810.8,-169.25 816.13,-178.4 820.68,-173.08"/>
</g>
<!-- &#45;13&#45;&gt;1 -->
<g id="edge55" class="edge">
<title>&#45;13&#45;&gt;1</title>
<path fill="none" stroke="red" stroke-width="0.32" d="M867.39,-224.41C854.96,-219.82 836.53,-213.51 819.95,-209.82 692.31,-181.43 657.6,-190.79 527.95,-173.82 502.17,-170.45 472.69,-166.34 452.45,-163.47"/>
<polygon fill="red" stroke="red" stroke-width="0.32" points="452.91,-160 442.51,-162.06 451.92,-166.93 452.91,-160"/>
</g>
<!-- &#45;13&#45;&gt;2 -->
<g id="edge56" class="edge">
<title>&#45;13&#45;&gt;2</title>
<path fill="none" stroke="green" stroke-width="0.48" d="M883.44,-221.85C887.75,-195.3 897.41,-110.7 854.95,-65.7 828.12,-37.27 710.08,-23 657.9,-17.99"/>
<polygon fill="green" stroke="green" stroke-width="0.48" points="658.1,-14.5 647.82,-17.06 657.46,-21.47 658.1,-14.5"/>
</g>
<!-- &#45;13&#45;&gt;3 -->
<g id="edge57" class="edge">
<title>&#45;13&#45;&gt;3</title>
<path fill="none" stroke="green" stroke-width="0.31" d="M867.33,-224.67C854.86,-220.24 836.41,-214.02 819.95,-209.82 731.45,-187.27 624.1,-170.39 576.59,-163.45"/>
<polygon fill="green" stroke="green" stroke-width="0.31" points="577.02,-159.98 566.62,-162.01 576.02,-166.9 577.02,-159.98"/>
</g>
<!-- &#45;13&#45;&gt;4 -->
<g id="edge58" class="edge">
<title>&#45;13&#45;&gt;4</title>
<path fill="none" stroke="green" stroke-width="0.23" d="M871.63,-221.84C866.27,-217.85 859.49,-213.2 852.95,-209.82 814.57,-190.01 766.5,-174.69 738.12,-166.52"/>
<polygon fill="green" stroke="green" stroke-width="0.23" points="738.85,-163.09 728.27,-163.75 736.95,-169.83 738.85,-163.09"/>
</g>
<!-- &#45;13&#45;&gt;147 -->
<g id="edge99" class="edge">
<title>&#45;13&#45;&gt;147</title>
<path fill="none" stroke="red" stroke-width="0.41" d="M878.72,-221.99C870.72,-202.03 849.65,-149.5 836.38,-116.42"/>
<polygon fill="red" stroke="red" stroke-width="0.41" points="839.51,-114.82 832.54,-106.84 833.02,-117.43 839.51,-114.82"/>
</g>
<!-- &#45;14 -->
<g id="node14" class="node">
<title>&#45;14</title>
<polygon fill="lightgray" stroke="black" points="703.45,-240.04 674.45,-240.04 674.45,-222.04 703.45,-222.04 703.45,-240.04"/>
<text text-anchor="middle" x="688.95" y="-228.84" font-family="Times New Roman,serif" font-size="9.00">&#45;14</text>
</g>
<!-- &#45;14&#45;&gt;0 -->
<g id="edge59" class="edge">
<title>&#45;14&#45;&gt;0</title>
<path fill="none" stroke="red" stroke-width="0.33" d="M697.99,-221.76C702.36,-217.93 707.77,-213.44 712.95,-209.82 734.02,-195.1 759.72,-180.77 777.71,-171.29"/>
<polygon fill="red" stroke="red" stroke-width="0.33" points="779.57,-174.26 786.83,-166.55 776.34,-168.05 779.57,-174.26"/>
</g>
<!-- &#45;14&#45;&gt;1 -->
<g id="edge60" class="edge">
<title>&#45;14&#45;&gt;1</title>
<path fill="none" stroke="red" stroke-width="0.33" stroke-dasharray="1,5" d="M681.23,-221.82C676.84,-217.62 671.02,-212.78 664.95,-209.82 627.46,-191.55 505.74,-171.66 452.86,-163.63"/>
<polygon fill="red" stroke="red" stroke-width="0.33" points="453.08,-160.13 442.67,-162.11 452.04,-167.05 453.08,-160.13"/>
</g>
<!-- &#45;14&#45;&gt;2 -->
<g id="edge61" class="edge">
<title>&#45;14&#45;&gt;2</title>
<path fill="none" stroke="green" stroke-width="0.43" stroke-dasharray="1,5" d="M687.4,-221.74C682.77,-197.48 668.35,-124.68 650.95,-65.7 648.28,-56.66 644.87,-46.88 641.74,-38.4"/>
<polygon fill="green" stroke="green" stroke-width="0.43" points="644.93,-36.94 638.12,-28.83 638.38,-39.42 644.93,-36.94"/>
</g>
<!-- &#45;14&#45;&gt;3 -->
<g id="edge62" class="edge">
<title>&#45;14&#45;&gt;3</title>
<path fill="none" stroke="red" stroke-width="0.12" d="M680.52,-221.91C676.12,-217.94 670.5,-213.28 664.95,-209.82 635.79,-191.63 598.85,-176.68 575.3,-168.04"/>
<polygon fill="red" stroke="red" stroke-width="0.12" points="576.39,-164.71 565.79,-164.63 574.02,-171.3 576.39,-164.71"/>
</g>
<!-- &#45;14&#45;&gt;4 -->
<g id="edge63" class="edge">
<title>&#45;14&#45;&gt;4</title>
<path fill="none" stroke="green" stroke-width="0.38" d="M691.82,-222C695.21,-212.49 701.01,-196.25 705.82,-182.77"/>
<polygon fill="green" stroke="green" stroke-width="0.38" points="709.18,-183.75 709.25,-173.16 702.59,-181.4 709.18,-183.75"/>
</g>
<!-- &#45;15 -->
<g id="node15" class="node">
<title>&#45;15</title>
<polygon fill="lightgray" stroke="black" points="750.45,-240.04 721.45,-240.04 721.45,-222.04 750.45,-222.04 750.45,-240.04"/>
<text text-anchor="middle" x="735.95" y="-228.84" font-family="Times New Roman,serif" font-size="9.00">&#45;15</text>
</g>
<!-- &#45;15&#45;&gt;0 -->
<g id="edge64" class="edge">
<title>&#45;15&#45;&gt;0</title>
<path fill="none" stroke="green" stroke-width="0.44" d="M743.29,-222C752.95,-211.42 770.22,-192.52 783.16,-178.35"/>
<polygon fill="green" stroke="green" stroke-width="0.44" points="786.03,-180.4 790.19,-170.65 780.87,-175.68 786.03,-180.4"/>
</g>
<!-- &#45;15&#45;&gt;1 -->
<g id="edge65" class="edge">
<title>&#45;15&#45;&gt;1</title>
<path fill="none" stroke="green" stroke-width="0.36" stroke-dasharray="1,5" d="M728.65,-221.73C724.48,-217.5 718.89,-212.67 712.95,-209.82 689.51,-198.58 517.6,-172.92 452.68,-163.52"/>
<polygon fill="green" stroke="green" stroke-width="0.36" points="452.93,-160.02 442.53,-162.05 451.93,-166.94 452.93,-160.02"/>
</g>
<!-- &#45;15&#45;&gt;2 -->
<g id="edge66" class="edge">
<title>&#45;15&#45;&gt;2</title>
<path fill="none" stroke="green" stroke-width="0.29" d="M738.07,-221.67C741.64,-205.94 747.58,-171.1 737.95,-144.12 720.91,-96.4 677.63,-53.64 652.27,-31.59"/>
<polygon fill="green" stroke="green" stroke-width="0.29" points="654.31,-28.73 644.42,-24.93 649.78,-34.07 654.31,-28.73"/>
</g>
<!-- &#45;15&#45;&gt;3 -->
<g id="edge67" class="edge">
<title>&#45;15&#45;&gt;3</title>
<path fill="none" stroke="red" stroke-width="0.29" d="M728.5,-222.03C724.28,-217.89 718.7,-213.04 712.95,-209.82 668.23,-184.77 609.31,-170.66 576.58,-164.25"/>
<polygon fill="red" stroke="red" stroke-width="0.29" points="577.01,-160.77 566.54,-162.37 575.72,-167.65 577.01,-160.77"/>
</g>
<!-- &#45;15&#45;&gt;4 -->
<g id="edge68" class="edge">
<title>&#45;15&#45;&gt;4</title>
<path fill="none" stroke="red" stroke-width="0.21" d="M733.43,-222C730.46,-212.55 725.4,-196.44 721.18,-183.01"/>
<polygon fill="red" stroke="red" stroke-width="0.21" points="724.51,-181.91 718.17,-173.42 717.83,-184.01 724.51,-181.91"/>
</g>
<!-- &#45;16 -->
<g id="node16" class="node">
<title>&#45;16</title>
<polygon fill="lightgray" stroke="black" points="741.45,-384.68 712.45,-384.68 712.45,-366.68 741.45,-366.68 741.45,-384.68"/>
<text text-anchor="middle" x="726.95" y="-373.48" font-family="Times New Roman,serif" font-size="9.00">&#45;16</text>
</g>
<!-- &#45;16&#45;&gt;1 -->
<g id="edge69" class="edge">
<title>&#45;16&#45;&gt;1</title>
<path fill="none" stroke="green" stroke-width="0.22" d="M712.27,-373.86C632.18,-369.09 249.02,-341.74 183.95,-252.25 172.86,-237 172.02,-224.43 183.95,-209.82 197.88,-192.76 344.29,-171.27 403.4,-163.22"/>
<polygon fill="green" stroke="green" stroke-width="0.22" points="403.93,-166.68 413.37,-161.87 402.99,-159.74 403.93,-166.68"/>
</g>
<!-- &#45;16&#45;&gt;2 -->
<g id="edge70" class="edge">
<title>&#45;16&#45;&gt;2</title>
<path fill="none" stroke="red" stroke-width="0.29" d="M741.77,-373.88C804.73,-370.37 1050.05,-355.33 1122.95,-330.68 1203.52,-303.43 1286.95,-317.09 1286.95,-232.04 1286.95,-232.04 1286.95,-232.04 1286.95,-157.97 1286.95,-26.71 777.49,-16.44 657.87,-15.84"/>
<polygon fill="red" stroke="red" stroke-width="0.29" points="657.85,-12.34 647.84,-15.81 657.83,-19.34 657.85,-12.34"/>
</g>
<!-- &#45;16&#45;&gt;3 -->
<g id="edge71" class="edge">
<title>&#45;16&#45;&gt;3</title>
<path fill="none" stroke="green" stroke-width="0.13" stroke-dasharray="1,5" d="M712.1,-374.72C657.78,-373.97 469.18,-363.22 392.95,-252.25 382.27,-236.71 381.79,-225.02 392.95,-209.82 409.02,-187.94 487.02,-171.34 527.48,-164.05"/>
<polygon fill="green" stroke="green" stroke-width="0.13" points="528.11,-167.49 537.36,-162.32 526.91,-160.6 528.11,-167.49"/>
</g>
<!-- 448 -->
<g id="node27" class="node">
<title>448</title>
<ellipse fill="white" stroke="black" cx="726.95" cy="-309.46" rx="21.43" ry="21.43"/>
<text text-anchor="middle" x="726.95" y="-307.26" font-family="Times New Roman,serif" font-size="9.00">448</text>
</g>
<!-- &#45;16&#45;&gt;448 -->
<g id="edge100" class="edge">
<title>&#45;16&#45;&gt;448</title>
<path fill="none" stroke="green" stroke-width="0.26" d="M726.95,-366.54C726.95,-360 726.95,-350.37 726.95,-340.93"/>
<polygon fill="green" stroke="green" stroke-width="0.26" points="730.45,-340.92 726.95,-330.92 723.45,-340.92 730.45,-340.92"/>
</g>
<!-- &#45;16&#45;&gt;147 -->
<g id="edge90" class="edge">
<title>&#45;16&#45;&gt;147</title>
<path fill="none" stroke="green" stroke-width="0.4" d="M741.66,-373.47C817.88,-366.91 1166.71,-332.72 1229.95,-252.25 1331.93,-122.48 968.25,-94.59 856.58,-89.14"/>
<polygon fill="green" stroke="green" stroke-width="0.4" points="856.44,-85.63 846.29,-88.67 856.12,-92.62 856.44,-85.63"/>
</g>
<!-- &#45;17 -->
<g id="node17" class="node">
<title>&#45;17</title>
<polygon fill="lightgray" stroke="black" points="319.45,-240.04 290.45,-240.04 290.45,-222.04 319.45,-222.04 319.45,-240.04"/>
<text text-anchor="middle" x="304.95" y="-228.84" font-family="Times New Roman,serif" font-size="9.00">&#45;17</text>
</g>
<!-- &#45;17&#45;&gt;1 -->
<g id="edge72" class="edge">
<title>&#45;17&#45;&gt;1</title>
<path fill="none" stroke="red" stroke-width="0.36" d="M316.03,-221.84C321.35,-218.03 327.87,-213.53 333.95,-209.82 357.85,-195.23 386.4,-180.44 405.72,-170.81"/>
<polygon fill="red" stroke="red" stroke-width="0.36" points="407.49,-173.83 414.9,-166.27 404.39,-167.56 407.49,-173.83"/>
</g>
<!-- &#45;17&#45;&gt;2 -->
<g id="edge73" class="edge">
<title>&#45;17&#45;&gt;2</title>
<path fill="none" stroke="green" stroke-width="0.31" d="M308.38,-221.98C320.28,-195.11 362.49,-107.84 425.95,-65.7 483.21,-27.67 566.5,-18.59 607.8,-16.46"/>
<polygon fill="green" stroke="green" stroke-width="0.31" points="608.2,-19.95 618.04,-16.04 607.91,-12.95 608.2,-19.95"/>
</g>
<!-- &#45;17&#45;&gt;3 -->
<g id="edge74" class="edge">
<title>&#45;17&#45;&gt;3</title>
<path fill="none" stroke="red" stroke-width="0.15" d="M314.58,-221.91C319.97,-217.74 326.99,-212.9 333.95,-209.82 400.1,-180.54 485.46,-167.47 527.01,-162.53"/>
<polygon fill="red" stroke="red" stroke-width="0.15" points="527.51,-166 537.05,-161.4 526.72,-159.04 527.51,-166"/>
</g>
<!-- &#45;17&#45;&gt;4 -->
<g id="edge75" class="edge">
<title>&#45;17&#45;&gt;4</title>
<path fill="none" stroke="red" stroke-width="0.32" d="M319.49,-226.91C338.92,-222.77 374.45,-215.36 404.95,-209.82 510.27,-190.69 636.47,-171.49 689.05,-163.65"/>
<polygon fill="red" stroke="red" stroke-width="0.32" points="689.74,-167.09 699.12,-162.15 688.71,-160.16 689.74,-167.09"/>
</g>
<!-- &#45;18 -->
<g id="node18" class="node">
<title>&#45;18</title>
<polygon fill="lightgray" stroke="black" points="613.45,-240.04 584.45,-240.04 584.45,-222.04 613.45,-222.04 613.45,-240.04"/>
<text text-anchor="middle" x="598.95" y="-228.84" font-family="Times New Roman,serif" font-size="9.00">&#45;18</text>
</g>
<!-- &#45;18&#45;&gt;0 -->
<g id="edge76" class="edge">
<title>&#45;18&#45;&gt;0</title>
<path fill="none" stroke="red" stroke-width="0.17" d="M606.75,-221.98C611.16,-217.83 616.98,-212.99 622.95,-209.82 649.68,-195.66 733.83,-175.15 775.74,-165.45"/>
<polygon fill="red" stroke="red" stroke-width="0.17" points="776.69,-168.82 785.66,-163.17 775.13,-162 776.69,-168.82"/>
</g>
<!-- &#45;18&#45;&gt;1 -->
<g id="edge77" class="edge">
<title>&#45;18&#45;&gt;1</title>
<path fill="none" stroke="red" stroke-width="0.13" d="M584.37,-224.06C554.67,-211.9 486.95,-184.15 451.14,-169.48"/>
<polygon fill="red" stroke="red" stroke-width="0.13" points="452.12,-166.09 441.54,-165.54 449.46,-172.57 452.12,-166.09"/>
</g>
<!-- &#45;18&#45;&gt;2 -->
<g id="edge78" class="edge">
<title>&#45;18&#45;&gt;2</title>
<path fill="none" stroke="red" stroke-width="0.21" d="M600.24,-221.9C604.99,-191.99 621.6,-87.34 629.16,-39.74"/>
<polygon fill="red" stroke="red" stroke-width="0.21" points="632.64,-40.15 630.75,-29.72 625.72,-39.05 632.64,-40.15"/>
</g>
<!-- &#45;18&#45;&gt;3 -->
<g id="edge79" class="edge">
<title>&#45;18&#45;&gt;3</title>
<path fill="none" stroke="green" stroke-width="0.44" d="M593.56,-222C586.75,-211.86 574.81,-194.05 565.46,-180.11"/>
<polygon fill="green" stroke="green" stroke-width="0.44" points="568.25,-177.99 559.77,-171.63 562.43,-181.89 568.25,-177.99"/>
</g>
<!-- &#45;18&#45;&gt;4 -->
<g id="edge80" class="edge">
<title>&#45;18&#45;&gt;4</title>
<path fill="none" stroke="red" stroke-width="0.28" d="M607.95,-221.72C612.32,-217.88 617.74,-213.39 622.95,-209.82 645.35,-194.48 672.92,-179.92 691.8,-170.55"/>
<polygon fill="red" stroke="red" stroke-width="0.28" points="693.37,-173.68 700.82,-166.14 690.29,-167.39 693.37,-173.68"/>
</g>
<!-- &#45;19 -->
<g id="node19" class="node">
<title>&#45;19</title>
<polygon fill="lightgray" stroke="black" points="1075.45,-240.04 1046.45,-240.04 1046.45,-222.04 1075.45,-222.04 1075.45,-240.04"/>
<text text-anchor="middle" x="1060.95" y="-228.84" font-family="Times New Roman,serif" font-size="9.00">&#45;19</text>
</g>
<!-- &#45;19&#45;&gt;0 -->
<g id="edge81" class="edge">
<title>&#45;19&#45;&gt;0</title>
<path fill="none" stroke="red" stroke-width="0.12" d="M1053.23,-221.82C1048.84,-217.62 1043.02,-212.78 1036.95,-209.82 965.35,-174.92 869.93,-164.37 825.16,-161.25"/>
<polygon fill="red" stroke="red" stroke-width="0.12" points="825.11,-157.74 814.91,-160.61 824.67,-164.73 825.11,-157.74"/>
</g>
<!-- &#45;19&#45;&gt;2 -->
<g id="edge82" class="edge">
<title>&#45;19&#45;&gt;2</title>
<path fill="none" stroke="red" stroke-width="0.61" d="M1059.13,-221.81C1052.6,-194.4 1027.58,-105.64 969.95,-65.7 919.19,-30.53 727,-19.57 657.89,-16.72"/>
<polygon fill="red" stroke="red" stroke-width="0.61" points="658.02,-13.22 647.9,-16.33 657.75,-20.22 658.02,-13.22"/>
</g>
<!-- &#45;19&#45;&gt;3 -->
<g id="edge83" class="edge">
<title>&#45;19&#45;&gt;3</title>
<path fill="none" stroke="green" stroke-width="0.31" d="M1053.76,-221.97C1049.37,-217.6 1043.37,-212.55 1036.95,-209.82 1034.26,-208.68 675.6,-172.45 576.86,-162.49"/>
<polygon fill="green" stroke="green" stroke-width="0.31" points="576.94,-158.98 566.64,-161.45 576.24,-165.94 576.94,-158.98"/>
</g>
<!-- &#45;19&#45;&gt;4 -->
<g id="edge84" class="edge">
<title>&#45;19&#45;&gt;4</title>
<path fill="none" stroke="green" stroke-width="0.14" d="M1053.31,-221.65C1048.95,-217.4 1043.12,-212.57 1036.95,-209.82 929.96,-162.23 891.19,-194.6 775.95,-173.82 763.45,-171.57 749.64,-168.54 738.24,-165.89"/>
<polygon fill="green" stroke="green" stroke-width="0.14" points="738.7,-162.4 728.16,-163.5 737.09,-169.21 738.7,-162.4"/>
</g>
<!-- &#45;20 -->
<g id="node20" class="node">
<title>&#45;20</title>
<polygon fill="lightgray" stroke="black" points="943.45,-240.04 914.45,-240.04 914.45,-222.04 943.45,-222.04 943.45,-240.04"/>
<text text-anchor="middle" x="928.95" y="-228.84" font-family="Times New Roman,serif" font-size="9.00">&#45;20</text>
</g>
<!-- &#45;20&#45;&gt;0 -->
<g id="edge85" class="edge">
<title>&#45;20&#45;&gt;0</title>
<path fill="none" stroke="red" stroke-width="0.41" d="M920.89,-221.94C916.67,-217.98 911.28,-213.32 905.95,-209.82 879.23,-192.31 845.38,-177.51 823.22,-168.7"/>
<polygon fill="red" stroke="red" stroke-width="0.41" points="824.23,-165.34 813.64,-164.98 821.69,-171.86 824.23,-165.34"/>
</g>
<!-- &#45;20&#45;&gt;1 -->
<g id="edge86" class="edge">
<title>&#45;20&#45;&gt;1</title>
<path fill="none" stroke="red" stroke-width="0.12" d="M922.13,-221.95C917.95,-217.58 912.2,-212.52 905.95,-209.82 828.49,-176.35 611.76,-183.61 527.95,-173.82 502.13,-170.81 472.65,-166.64 452.43,-163.66"/>
<polygon fill="red" stroke="red" stroke-width="0.12" points="452.9,-160.19 442.5,-162.19 451.88,-167.12 452.9,-160.19"/>
</g>
<!-- &#45;20&#45;&gt;2 -->
<g id="edge87" class="edge">
<title>&#45;20&#45;&gt;2</title>
<path fill="none" stroke="green" stroke-width="0.15" d="M929.22,-221.69C929.63,-194.63 927,-108.66 879.95,-65.7 847.55,-36.11 714.23,-22.28 658.07,-17.68"/>
<polygon fill="green" stroke="green" stroke-width="0.15" points="658.17,-14.18 647.92,-16.89 657.62,-21.16 658.17,-14.18"/>
</g>
<!-- &#45;20&#45;&gt;4 -->
<g id="edge88" class="edge">
<title>&#45;20&#45;&gt;4</title>
<path fill="none" stroke="red" stroke-width="0.45" d="M921.56,-221.92C917.35,-217.75 911.77,-212.91 905.95,-209.82 891.03,-201.91 786.24,-176.86 738.07,-165.57"/>
<polygon fill="red" stroke="red" stroke-width="0.45" points="738.71,-162.13 728.17,-163.26 737.12,-168.95 738.71,-162.13"/>
</g>
<!-- 3&#45;&gt;147 -->
<g id="edge94" class="edge">
<title>3&#45;&gt;147</title>
<path fill="none" stroke="green" stroke-width="0.38" d="M566.24,-154.31C608.88,-143.36 735.87,-110.77 794.57,-95.71"/>
<polygon fill="green" stroke="green" stroke-width="0.38" points="795.55,-99.07 804.37,-93.19 793.81,-92.29 795.55,-99.07"/>
</g>
<!-- 4&#45;&gt;147 -->
<g id="edge93" class="edge">
<title>4&#45;&gt;147</title>
<path fill="none" stroke="red" stroke-width="0.54" d="M726.25,-150.21C743.59,-139.26 775.66,-119.02 798.54,-104.58"/>
<polygon fill="red" stroke="red" stroke-width="0.54" points="800.52,-107.47 807.1,-99.18 796.78,-101.55 800.52,-107.47"/>
</g>
<!-- 128 -->
<g id="node26" class="node">
<title>128</title>
<ellipse fill="white" stroke="black" cx="1199.95" cy="-231.04" rx="21.43" ry="21.43"/>
<text text-anchor="middle" x="1199.95" y="-228.84" font-family="Times New Roman,serif" font-size="9.00">128</text>
</g>
<!-- 128&#45;&gt;0 -->
<g id="edge89" class="edge">
<title>128&#45;&gt;0</title>
<path fill="none" stroke="red" stroke-width="0.29" d="M1182.78,-218.35C1177.3,-215.11 1171.06,-211.91 1164.95,-209.82 1042.47,-167.91 885.5,-161.11 825.14,-160.1"/>
<polygon fill="red" stroke="red" stroke-width="0.29" points="825.07,-156.6 815.03,-159.97 824.98,-163.6 825.07,-156.6"/>
</g>
<!-- 448&#45;&gt;3 -->
<g id="edge101" class="edge">
<title>448&#45;&gt;3</title>
<path fill="none" stroke="green" stroke-width="0.33" d="M706.58,-303.45C669.46,-293.93 592.97,-272.37 574.95,-252.25 558.24,-233.59 553.25,-204.63 551.97,-184.14"/>
<polygon fill="green" stroke="green" stroke-width="0.33" points="555.46,-183.88 551.59,-174.02 548.47,-184.15 555.46,-183.88"/>
</g>
<!-- 448&#45;&gt;128 -->
<g id="edge102" class="edge">
<title>448&#45;&gt;128</title>
<path fill="none" stroke="green" stroke-width="0.17" d="M748.59,-308.66C813.52,-308.63 1011.69,-304.01 1164.95,-252.25 1167.91,-251.25 1170.9,-249.98 1173.82,-248.58"/>
<polygon fill="green" stroke="green" stroke-width="0.17" points="1175.65,-251.57 1182.79,-243.75 1172.33,-245.41 1175.65,-251.57"/>
</g>
<!-- 302&#45;&gt;4 -->
<g id="edge96" class="edge">
<title>302&#45;&gt;4</title>
<path fill="none" stroke="red" stroke-width="0.14" d="M774.57,-215.86C762.21,-204.47 744.84,-188.45 731.86,-176.48"/>
<polygon fill="red" stroke="red" stroke-width="0.14" points="734.15,-173.84 724.43,-169.63 729.41,-178.98 734.15,-173.84"/>
</g>
<!-- 147&#45;&gt;2 -->
<g id="edge91" class="edge">
<title>147&#45;&gt;2</title>
<path fill="none" stroke="green" stroke-width="0.13" stroke-dasharray="1,5" d="M805.22,-78.46C795,-74.62 782.32,-69.88 770.95,-65.7 730.67,-50.89 683.64,-33.98 656.19,-24.15"/>
<polygon fill="green" stroke="green" stroke-width="0.13" points="657.27,-20.82 646.68,-20.75 654.92,-27.41 657.27,-20.82"/>
</g>
</g>
</svg>
