<?xml version="1.0" encoding="utf-8" standalone="no"?>
<!DOCTYPE svg PUBLIC "-//W3C//DTD SVG 1.1//EN"
  "http://www.w3.org/Graphics/SVG/1.1/DTD/svg11.dtd">
<svg height="345.6pt" version="1.1" viewBox="0 0 460.8 345.6" width="460.8pt" xmlns="http://www.w3.org/2000/svg" xmlns:xlink="http://www.w3.org/1999/xlink">
 <metadata>
  <rdf:RDF xmlns:cc="http://creativecommons.org/ns#" xmlns:dc="http://purl.org/dc/elements/1.1/" xmlns:rdf="http://www.w3.org/1999/02/22-rdf-syntax-ns#">
   <cc:Work>
    <dc:type rdf:resource="http://purl.org/dc/dcmitype/StillImage"/>
    <dc:date>2021-10-16T03:30:41.026481</dc:date>
    <dc:format>image/svg+xml</dc:format>
    <dc:creator>
     <cc:Agent>
      <dc:title>Matplotlib v3.4.3, https://matplotlib.org/</dc:title>
     </cc:Agent>
    </dc:creator>
   </cc:Work>
  </rdf:RDF>
 </metadata>
 <defs>
  <style type="text/css">*{stroke-linecap:butt;stroke-linejoin:round;}</style>
 </defs>
 <g id="figure_1">
  <g id="patch_1">
   <path d="M 0 345.6 
L 460.8 345.6 
L 460.8 0 
L 0 0 
z
" style="fill:#ffffff;"/>
  </g>
  <g id="axes_1">
   <g id="patch_2">
    <path d="M 57.6 307.584 
L 414.72 307.584 
L 414.72 41.472 
L 57.6 41.472 
z
" style="fill:#ffffff;"/>
   </g>
   <g id="PolyCollection_1">
    <path clip-path="url(#p311fd3008f)" d="M 73.832727 199.637333 
L 73.832727 307.584 
L 80.45833 307.584 
L 87.083933 307.584 
L 93.709536 307.584 
L 100.335139 307.584 
L 106.960742 307.584 
L 113.586345 307.584 
L 120.211948 307.584 
L 126.837551 307.584 
L 133.463154 307.584 
L 140.088757 307.584 
L 146.71436 307.584 
L 153.339963 307.584 
L 159.965566 307.584 
L 166.591169 307.584 
L 173.216772 307.584 
L 179.842375 307.584 
L 186.467978 307.584 
L 193.093581 307.584 
L 199.719184 307.584 
L 206.344787 307.584 
L 212.97039 307.584 
L 219.595993 307.584 
L 226.221596 307.584 
L 232.847199 307.584 
L 239.472801 307.584 
L 246.098404 307.584 
L 252.724007 307.584 
L 259.34961 307.584 
L 265.975213 307.584 
L 272.600816 307.584 
L 279.226419 307.584 
L 285.852022 307.584 
L 292.477625 307.584 
L 299.103228 307.584 
L 305.728831 307.584 
L 312.354434 307.584 
L 318.980037 307.584 
L 325.60564 307.584 
L 332.231243 307.584 
L 338.856846 307.584 
L 345.482449 307.584 
L 352.108052 307.584 
L 358.733655 307.584 
L 365.359258 307.584 
L 371.984861 307.584 
L 378.610464 307.584 
L 385.236067 307.584 
L 391.86167 307.584 
L 398.487273 307.584 
L 398.487273 265.344 
L 398.487273 265.344 
L 391.86167 255.957333 
L 385.236067 270.037333 
L 378.610464 265.344 
L 371.984861 260.650667 
L 365.359258 260.650667 
L 358.733655 265.344 
L 352.108052 260.650667 
L 345.482449 265.344 
L 338.856846 270.037333 
L 332.231243 265.344 
L 325.60564 270.037333 
L 318.980037 265.344 
L 312.354434 265.344 
L 305.728831 260.650667 
L 299.103228 260.650667 
L 292.477625 265.344 
L 285.852022 260.650667 
L 279.226419 260.650667 
L 272.600816 265.344 
L 265.975213 260.650667 
L 259.34961 251.264 
L 252.724007 255.957333 
L 246.098404 265.344 
L 239.472801 255.957333 
L 232.847199 260.650667 
L 226.221596 260.650667 
L 219.595993 255.957333 
L 212.97039 260.650667 
L 206.344787 265.344 
L 199.719184 260.650667 
L 193.093581 270.037333 
L 186.467978 265.344 
L 179.842375 270.037333 
L 173.216772 265.344 
L 166.591169 265.344 
L 159.965566 265.344 
L 153.339963 260.650667 
L 146.71436 265.344 
L 140.088757 255.957333 
L 133.463154 265.344 
L 126.837551 255.957333 
L 120.211948 255.957333 
L 113.586345 265.344 
L 106.960742 265.344 
L 100.335139 270.037333 
L 93.709536 279.424 
L 87.083933 251.264 
L 80.45833 246.570667 
L 73.832727 199.637333 
z
" style="fill:#1f77b4;"/>
   </g>
   <g id="PolyCollection_2">
    <path clip-path="url(#p311fd3008f)" d="M 73.832727 119.850667 
L 73.832727 199.637333 
L 80.45833 246.570667 
L 87.083933 251.264 
L 93.709536 279.424 
L 100.335139 270.037333 
L 106.960742 265.344 
L 113.586345 265.344 
L 120.211948 255.957333 
L 126.837551 255.957333 
L 133.463154 265.344 
L 140.088757 255.957333 
L 146.71436 265.344 
L 153.339963 260.650667 
L 159.965566 265.344 
L 166.591169 265.344 
L 173.216772 265.344 
L 179.842375 270.037333 
L 186.467978 265.344 
L 193.093581 270.037333 
L 199.719184 260.650667 
L 206.344787 265.344 
L 212.97039 260.650667 
L 219.595993 255.957333 
L 226.221596 260.650667 
L 232.847199 260.650667 
L 239.472801 255.957333 
L 246.098404 265.344 
L 252.724007 255.957333 
L 259.34961 251.264 
L 265.975213 260.650667 
L 272.600816 265.344 
L 279.226419 260.650667 
L 285.852022 260.650667 
L 292.477625 265.344 
L 299.103228 260.650667 
L 305.728831 260.650667 
L 312.354434 265.344 
L 318.980037 265.344 
L 325.60564 270.037333 
L 332.231243 265.344 
L 338.856846 270.037333 
L 345.482449 265.344 
L 352.108052 260.650667 
L 358.733655 265.344 
L 365.359258 260.650667 
L 371.984861 260.650667 
L 378.610464 265.344 
L 385.236067 270.037333 
L 391.86167 255.957333 
L 398.487273 265.344 
L 398.487273 223.104 
L 398.487273 223.104 
L 391.86167 218.410667 
L 385.236067 227.797333 
L 378.610464 227.797333 
L 371.984861 218.410667 
L 365.359258 209.024 
L 358.733655 218.410667 
L 352.108052 218.410667 
L 345.482449 218.410667 
L 338.856846 218.410667 
L 332.231243 209.024 
L 325.60564 218.410667 
L 318.980037 223.104 
L 312.354434 223.104 
L 305.728831 223.104 
L 299.103228 213.717333 
L 292.477625 213.717333 
L 285.852022 223.104 
L 279.226419 213.717333 
L 272.600816 227.797333 
L 265.975213 218.410667 
L 259.34961 204.330667 
L 252.724007 213.717333 
L 246.098404 218.410667 
L 239.472801 223.104 
L 232.847199 218.410667 
L 226.221596 218.410667 
L 219.595993 209.024 
L 212.97039 223.104 
L 206.344787 223.104 
L 199.719184 223.104 
L 193.093581 237.184 
L 186.467978 223.104 
L 179.842375 237.184 
L 173.216772 227.797333 
L 166.591169 232.490667 
L 159.965566 223.104 
L 153.339963 227.797333 
L 146.71436 227.797333 
L 140.088757 218.410667 
L 133.463154 223.104 
L 126.837551 213.717333 
L 120.211948 213.717333 
L 113.586345 223.104 
L 106.960742 223.104 
L 100.335139 223.104 
L 93.709536 223.104 
L 87.083933 199.637333 
L 80.45833 199.637333 
L 73.832727 119.850667 
z
" style="fill:#ff7f0e;"/>
   </g>
   <g id="PolyCollection_3">
    <path clip-path="url(#p311fd3008f)" d="M 73.832727 105.770667 
L 73.832727 119.850667 
L 80.45833 199.637333 
L 87.083933 199.637333 
L 93.709536 223.104 
L 100.335139 223.104 
L 106.960742 223.104 
L 113.586345 223.104 
L 120.211948 213.717333 
L 126.837551 213.717333 
L 133.463154 223.104 
L 140.088757 218.410667 
L 146.71436 227.797333 
L 153.339963 227.797333 
L 159.965566 223.104 
L 166.591169 232.490667 
L 173.216772 227.797333 
L 179.842375 237.184 
L 186.467978 223.104 
L 193.093581 237.184 
L 199.719184 223.104 
L 206.344787 223.104 
L 212.97039 223.104 
L 219.595993 209.024 
L 226.221596 218.410667 
L 232.847199 218.410667 
L 239.472801 223.104 
L 246.098404 218.410667 
L 252.724007 213.717333 
L 259.34961 204.330667 
L 265.975213 218.410667 
L 272.600816 227.797333 
L 279.226419 213.717333 
L 285.852022 223.104 
L 292.477625 213.717333 
L 299.103228 213.717333 
L 305.728831 223.104 
L 312.354434 223.104 
L 318.980037 223.104 
L 325.60564 218.410667 
L 332.231243 209.024 
L 338.856846 218.410667 
L 345.482449 218.410667 
L 352.108052 218.410667 
L 358.733655 218.410667 
L 365.359258 209.024 
L 371.984861 218.410667 
L 378.610464 227.797333 
L 385.236067 227.797333 
L 391.86167 218.410667 
L 398.487273 223.104 
L 398.487273 209.024 
L 398.487273 209.024 
L 391.86167 204.330667 
L 385.236067 213.717333 
L 378.610464 213.717333 
L 371.984861 204.330667 
L 365.359258 194.944 
L 358.733655 204.330667 
L 352.108052 204.330667 
L 345.482449 204.330667 
L 338.856846 204.330667 
L 332.231243 194.944 
L 325.60564 204.330667 
L 318.980037 209.024 
L 312.354434 209.024 
L 305.728831 209.024 
L 299.103228 199.637333 
L 292.477625 199.637333 
L 285.852022 209.024 
L 279.226419 199.637333 
L 272.600816 213.717333 
L 265.975213 204.330667 
L 259.34961 190.250667 
L 252.724007 199.637333 
L 246.098404 204.330667 
L 239.472801 209.024 
L 232.847199 204.330667 
L 226.221596 204.330667 
L 219.595993 194.944 
L 212.97039 209.024 
L 206.344787 209.024 
L 199.719184 209.024 
L 193.093581 223.104 
L 186.467978 209.024 
L 179.842375 223.104 
L 173.216772 213.717333 
L 166.591169 218.410667 
L 159.965566 209.024 
L 153.339963 213.717333 
L 146.71436 213.717333 
L 140.088757 204.330667 
L 133.463154 209.024 
L 126.837551 199.637333 
L 120.211948 204.330667 
L 113.586345 209.024 
L 106.960742 209.024 
L 100.335139 209.024 
L 93.709536 209.024 
L 87.083933 185.557333 
L 80.45833 185.557333 
L 73.832727 105.770667 
z
" style="fill:#2ca02c;"/>
   </g>
   <g id="PolyCollection_4">
    <path clip-path="url(#p311fd3008f)" d="M 73.832727 91.690667 
L 73.832727 105.770667 
L 80.45833 185.557333 
L 87.083933 185.557333 
L 93.709536 209.024 
L 100.335139 209.024 
L 106.960742 209.024 
L 113.586345 209.024 
L 120.211948 204.330667 
L 126.837551 199.637333 
L 133.463154 209.024 
L 140.088757 204.330667 
L 146.71436 213.717333 
L 153.339963 213.717333 
L 159.965566 209.024 
L 166.591169 218.410667 
L 173.216772 213.717333 
L 179.842375 223.104 
L 186.467978 209.024 
L 193.093581 223.104 
L 199.719184 209.024 
L 206.344787 209.024 
L 212.97039 209.024 
L 219.595993 194.944 
L 226.221596 204.330667 
L 232.847199 204.330667 
L 239.472801 209.024 
L 246.098404 204.330667 
L 252.724007 199.637333 
L 259.34961 190.250667 
L 265.975213 204.330667 
L 272.600816 213.717333 
L 279.226419 199.637333 
L 285.852022 209.024 
L 292.477625 199.637333 
L 299.103228 199.637333 
L 305.728831 209.024 
L 312.354434 209.024 
L 318.980037 209.024 
L 325.60564 204.330667 
L 332.231243 194.944 
L 338.856846 204.330667 
L 345.482449 204.330667 
L 352.108052 204.330667 
L 358.733655 204.330667 
L 365.359258 194.944 
L 371.984861 204.330667 
L 378.610464 213.717333 
L 385.236067 213.717333 
L 391.86167 204.330667 
L 398.487273 209.024 
L 398.487273 171.477333 
L 398.487273 171.477333 
L 391.86167 171.477333 
L 385.236067 176.170667 
L 378.610464 171.477333 
L 371.984861 166.784 
L 365.359258 162.090667 
L 358.733655 166.784 
L 352.108052 162.090667 
L 345.482449 166.784 
L 338.856846 171.477333 
L 332.231243 157.397333 
L 325.60564 171.477333 
L 318.980037 171.477333 
L 312.354434 166.784 
L 305.728831 171.477333 
L 299.103228 157.397333 
L 292.477625 162.090667 
L 285.852022 176.170667 
L 279.226419 166.784 
L 272.600816 176.170667 
L 265.975213 162.090667 
L 259.34961 157.397333 
L 252.724007 162.090667 
L 246.098404 162.090667 
L 239.472801 162.090667 
L 232.847199 166.784 
L 226.221596 152.704 
L 219.595993 157.397333 
L 212.97039 166.784 
L 206.344787 162.090667 
L 199.719184 166.784 
L 193.093581 185.557333 
L 186.467978 166.784 
L 179.842375 176.170667 
L 173.216772 171.477333 
L 166.591169 180.864 
L 159.965566 176.170667 
L 153.339963 176.170667 
L 146.71436 180.864 
L 140.088757 166.784 
L 133.463154 166.784 
L 126.837551 162.090667 
L 120.211948 166.784 
L 113.586345 166.784 
L 106.960742 166.784 
L 100.335139 176.170667 
L 93.709536 185.557333 
L 87.083933 157.397333 
L 80.45833 166.784 
L 73.832727 91.690667 
z
" style="fill:#d62728;"/>
   </g>
   <g id="PolyCollection_5">
    <path clip-path="url(#p311fd3008f)" d="M 73.832727 86.997333 
L 73.832727 91.690667 
L 80.45833 166.784 
L 87.083933 157.397333 
L 93.709536 185.557333 
L 100.335139 176.170667 
L 106.960742 166.784 
L 113.586345 166.784 
L 120.211948 166.784 
L 126.837551 162.090667 
L 133.463154 166.784 
L 140.088757 166.784 
L 146.71436 180.864 
L 153.339963 176.170667 
L 159.965566 176.170667 
L 166.591169 180.864 
L 173.216772 171.477333 
L 179.842375 176.170667 
L 186.467978 166.784 
L 193.093581 185.557333 
L 199.719184 166.784 
L 206.344787 162.090667 
L 212.97039 166.784 
L 219.595993 157.397333 
L 226.221596 152.704 
L 232.847199 166.784 
L 239.472801 162.090667 
L 246.098404 162.090667 
L 252.724007 162.090667 
L 259.34961 157.397333 
L 265.975213 162.090667 
L 272.600816 176.170667 
L 279.226419 166.784 
L 285.852022 176.170667 
L 292.477625 162.090667 
L 299.103228 157.397333 
L 305.728831 171.477333 
L 312.354434 166.784 
L 318.980037 171.477333 
L 325.60564 171.477333 
L 332.231243 157.397333 
L 338.856846 171.477333 
L 345.482449 166.784 
L 352.108052 162.090667 
L 358.733655 166.784 
L 365.359258 162.090667 
L 371.984861 166.784 
L 378.610464 171.477333 
L 385.236067 176.170667 
L 391.86167 171.477333 
L 398.487273 171.477333 
L 398.487273 171.477333 
L 398.487273 171.477333 
L 391.86167 171.477333 
L 385.236067 176.170667 
L 378.610464 171.477333 
L 371.984861 166.784 
L 365.359258 162.090667 
L 358.733655 166.784 
L 352.108052 162.090667 
L 345.482449 166.784 
L 338.856846 171.477333 
L 332.231243 157.397333 
L 325.60564 171.477333 
L 318.980037 171.477333 
L 312.354434 166.784 
L 305.728831 171.477333 
L 299.103228 157.397333 
L 292.477625 162.090667 
L 285.852022 176.170667 
L 279.226419 166.784 
L 272.600816 176.170667 
L 265.975213 162.090667 
L 259.34961 157.397333 
L 252.724007 162.090667 
L 246.098404 162.090667 
L 239.472801 162.090667 
L 232.847199 166.784 
L 226.221596 152.704 
L 219.595993 157.397333 
L 212.97039 166.784 
L 206.344787 162.090667 
L 199.719184 166.784 
L 193.093581 185.557333 
L 186.467978 166.784 
L 179.842375 176.170667 
L 173.216772 157.397333 
L 166.591169 166.784 
L 159.965566 162.090667 
L 153.339963 162.090667 
L 146.71436 166.784 
L 140.088757 152.704 
L 133.463154 152.704 
L 126.837551 148.010667 
L 120.211948 152.704 
L 113.586345 152.704 
L 106.960742 152.704 
L 100.335139 162.090667 
L 93.709536 171.477333 
L 87.083933 143.317333 
L 80.45833 152.704 
L 73.832727 86.997333 
z
" style="fill:#9467bd;"/>
   </g>
   <g id="PolyCollection_6">
    <path clip-path="url(#p311fd3008f)" d="M 73.832727 77.610667 
L 73.832727 86.997333 
L 80.45833 152.704 
L 87.083933 143.317333 
L 93.709536 171.477333 
L 100.335139 162.090667 
L 106.960742 152.704 
L 113.586345 152.704 
L 120.211948 152.704 
L 126.837551 148.010667 
L 133.463154 152.704 
L 140.088757 152.704 
L 146.71436 166.784 
L 153.339963 162.090667 
L 159.965566 162.090667 
L 166.591169 166.784 
L 173.216772 157.397333 
L 179.842375 176.170667 
L 186.467978 166.784 
L 193.093581 185.557333 
L 199.719184 166.784 
L 206.344787 162.090667 
L 212.97039 166.784 
L 219.595993 157.397333 
L 226.221596 152.704 
L 232.847199 166.784 
L 239.472801 162.090667 
L 246.098404 162.090667 
L 252.724007 162.090667 
L 259.34961 157.397333 
L 265.975213 162.090667 
L 272.600816 176.170667 
L 279.226419 166.784 
L 285.852022 176.170667 
L 292.477625 162.090667 
L 299.103228 157.397333 
L 305.728831 171.477333 
L 312.354434 166.784 
L 318.980037 171.477333 
L 325.60564 171.477333 
L 332.231243 157.397333 
L 338.856846 171.477333 
L 345.482449 166.784 
L 352.108052 162.090667 
L 358.733655 166.784 
L 365.359258 162.090667 
L 371.984861 166.784 
L 378.610464 171.477333 
L 385.236067 176.170667 
L 391.86167 171.477333 
L 398.487273 171.477333 
L 398.487273 124.544 
L 398.487273 124.544 
L 391.86167 115.157333 
L 385.236067 124.544 
L 378.610464 124.544 
L 371.984861 115.157333 
L 365.359258 110.464 
L 358.733655 119.850667 
L 352.108052 119.850667 
L 345.482449 129.237333 
L 338.856846 129.237333 
L 332.231243 119.850667 
L 325.60564 129.237333 
L 318.980037 119.850667 
L 312.354434 115.157333 
L 305.728831 124.544 
L 299.103228 110.464 
L 292.477625 110.464 
L 285.852022 129.237333 
L 279.226419 119.850667 
L 272.600816 124.544 
L 265.975213 115.157333 
L 259.34961 115.157333 
L 252.724007 115.157333 
L 246.098404 110.464 
L 239.472801 115.157333 
L 232.847199 124.544 
L 226.221596 110.464 
L 219.595993 110.464 
L 212.97039 115.157333 
L 206.344787 115.157333 
L 199.719184 124.544 
L 193.093581 129.237333 
L 186.467978 119.850667 
L 179.842375 133.930667 
L 173.216772 119.850667 
L 166.591169 119.850667 
L 159.965566 115.157333 
L 153.339963 119.850667 
L 146.71436 129.237333 
L 140.088757 119.850667 
L 133.463154 115.157333 
L 126.837551 105.770667 
L 120.211948 110.464 
L 113.586345 115.157333 
L 106.960742 105.770667 
L 100.335139 119.850667 
L 93.709536 119.850667 
L 87.083933 86.997333 
L 80.45833 77.610667 
L 73.832727 77.610667 
z
" style="fill:#8c564b;"/>
   </g>
   <g id="PolyCollection_7">
    <path clip-path="url(#p311fd3008f)" d="M 73.832727 72.917333 
L 73.832727 77.610667 
L 80.45833 77.610667 
L 87.083933 86.997333 
L 93.709536 119.850667 
L 100.335139 119.850667 
L 106.960742 105.770667 
L 113.586345 115.157333 
L 120.211948 110.464 
L 126.837551 105.770667 
L 133.463154 115.157333 
L 140.088757 119.850667 
L 146.71436 129.237333 
L 153.339963 119.850667 
L 159.965566 115.157333 
L 166.591169 119.850667 
L 173.216772 119.850667 
L 179.842375 133.930667 
L 186.467978 119.850667 
L 193.093581 129.237333 
L 199.719184 124.544 
L 206.344787 115.157333 
L 212.97039 115.157333 
L 219.595993 110.464 
L 226.221596 110.464 
L 232.847199 124.544 
L 239.472801 115.157333 
L 246.098404 110.464 
L 252.724007 115.157333 
L 259.34961 115.157333 
L 265.975213 115.157333 
L 272.600816 124.544 
L 279.226419 119.850667 
L 285.852022 129.237333 
L 292.477625 110.464 
L 299.103228 110.464 
L 305.728831 124.544 
L 312.354434 115.157333 
L 318.980037 119.850667 
L 325.60564 129.237333 
L 332.231243 119.850667 
L 338.856846 129.237333 
L 345.482449 129.237333 
L 352.108052 119.850667 
L 358.733655 119.850667 
L 365.359258 110.464 
L 371.984861 115.157333 
L 378.610464 124.544 
L 385.236067 124.544 
L 391.86167 115.157333 
L 398.487273 124.544 
L 398.487273 77.610667 
L 398.487273 77.610667 
L 391.86167 68.224 
L 385.236067 72.917333 
L 378.610464 77.610667 
L 371.984861 77.610667 
L 365.359258 63.530667 
L 358.733655 68.224 
L 352.108052 63.530667 
L 345.482449 68.224 
L 338.856846 72.917333 
L 332.231243 68.224 
L 325.60564 82.304 
L 318.980037 77.610667 
L 312.354434 63.530667 
L 305.728831 77.610667 
L 299.103228 63.530667 
L 292.477625 68.224 
L 285.852022 77.610667 
L 279.226419 68.224 
L 272.600816 68.224 
L 265.975213 63.530667 
L 259.34961 68.224 
L 252.724007 63.530667 
L 246.098404 63.530667 
L 239.472801 63.530667 
L 232.847199 77.610667 
L 226.221596 63.530667 
L 219.595993 68.224 
L 212.97039 68.224 
L 206.344787 63.530667 
L 199.719184 68.224 
L 193.093581 68.224 
L 186.467978 72.917333 
L 179.842375 82.304 
L 173.216772 77.610667 
L 166.591169 77.610667 
L 159.965566 63.530667 
L 153.339963 63.530667 
L 146.71436 77.610667 
L 140.088757 68.224 
L 133.463154 77.610667 
L 126.837551 68.224 
L 120.211948 63.530667 
L 113.586345 77.610667 
L 106.960742 63.530667 
L 100.335139 72.917333 
L 93.709536 63.530667 
L 87.083933 68.224 
L 80.45833 54.144 
L 73.832727 72.917333 
z
" style="fill:#e377c2;"/>
   </g>
   <g id="matplotlib.axis_1">
    <g id="xtick_1">
     <g id="line2d_1">
      <defs>
       <path d="M 0 0 
L 0 3.5 
" id="m0f79e87923" style="stroke:#000000;stroke-width:0.8;"/>
      </defs>
      <g>
       <use style="stroke:#000000;stroke-width:0.8;" x="73.832727" xlink:href="#m0f79e87923" y="307.584"/>
      </g>
     </g>
     <g id="text_1">
      <!-- 0 -->
      <g transform="translate(70.651477 322.182437)scale(0.1 -0.1)">
       <defs>
        <path d="M 2034 4250 
Q 1547 4250 1301 3770 
Q 1056 3291 1056 2328 
Q 1056 1369 1301 889 
Q 1547 409 2034 409 
Q 2525 409 2770 889 
Q 3016 1369 3016 2328 
Q 3016 3291 2770 3770 
Q 2525 4250 2034 4250 
z
M 2034 4750 
Q 2819 4750 3233 4129 
Q 3647 3509 3647 2328 
Q 3647 1150 3233 529 
Q 2819 -91 2034 -91 
Q 1250 -91 836 529 
Q 422 1150 422 2328 
Q 422 3509 836 4129 
Q 1250 4750 2034 4750 
z
" id="DejaVuSans-30" transform="scale(0.015625)"/>
       </defs>
       <use xlink:href="#DejaVuSans-30"/>
      </g>
     </g>
    </g>
    <g id="xtick_2">
     <g id="line2d_2">
      <g>
       <use style="stroke:#000000;stroke-width:0.8;" x="140.088757" xlink:href="#m0f79e87923" y="307.584"/>
      </g>
     </g>
     <g id="text_2">
      <!-- 10 -->
      <g transform="translate(133.726257 322.182437)scale(0.1 -0.1)">
       <defs>
        <path d="M 794 531 
L 1825 531 
L 1825 4091 
L 703 3866 
L 703 4441 
L 1819 4666 
L 2450 4666 
L 2450 531 
L 3481 531 
L 3481 0 
L 794 0 
L 794 531 
z
" id="DejaVuSans-31" transform="scale(0.015625)"/>
       </defs>
       <use xlink:href="#DejaVuSans-31"/>
       <use x="63.623047" xlink:href="#DejaVuSans-30"/>
      </g>
     </g>
    </g>
    <g id="xtick_3">
     <g id="line2d_3">
      <g>
       <use style="stroke:#000000;stroke-width:0.8;" x="206.344787" xlink:href="#m0f79e87923" y="307.584"/>
      </g>
     </g>
     <g id="text_3">
      <!-- 20 -->
      <g transform="translate(199.982287 322.182437)scale(0.1 -0.1)">
       <defs>
        <path d="M 1228 531 
L 3431 531 
L 3431 0 
L 469 0 
L 469 531 
Q 828 903 1448 1529 
Q 2069 2156 2228 2338 
Q 2531 2678 2651 2914 
Q 2772 3150 2772 3378 
Q 2772 3750 2511 3984 
Q 2250 4219 1831 4219 
Q 1534 4219 1204 4116 
Q 875 4013 500 3803 
L 500 4441 
Q 881 4594 1212 4672 
Q 1544 4750 1819 4750 
Q 2544 4750 2975 4387 
Q 3406 4025 3406 3419 
Q 3406 3131 3298 2873 
Q 3191 2616 2906 2266 
Q 2828 2175 2409 1742 
Q 1991 1309 1228 531 
z
" id="DejaVuSans-32" transform="scale(0.015625)"/>
       </defs>
       <use xlink:href="#DejaVuSans-32"/>
       <use x="63.623047" xlink:href="#DejaVuSans-30"/>
      </g>
     </g>
    </g>
    <g id="xtick_4">
     <g id="line2d_4">
      <g>
       <use style="stroke:#000000;stroke-width:0.8;" x="272.600816" xlink:href="#m0f79e87923" y="307.584"/>
      </g>
     </g>
     <g id="text_4">
      <!-- 30 -->
      <g transform="translate(266.238316 322.182437)scale(0.1 -0.1)">
       <defs>
        <path d="M 2597 2516 
Q 3050 2419 3304 2112 
Q 3559 1806 3559 1356 
Q 3559 666 3084 287 
Q 2609 -91 1734 -91 
Q 1441 -91 1130 -33 
Q 819 25 488 141 
L 488 750 
Q 750 597 1062 519 
Q 1375 441 1716 441 
Q 2309 441 2620 675 
Q 2931 909 2931 1356 
Q 2931 1769 2642 2001 
Q 2353 2234 1838 2234 
L 1294 2234 
L 1294 2753 
L 1863 2753 
Q 2328 2753 2575 2939 
Q 2822 3125 2822 3475 
Q 2822 3834 2567 4026 
Q 2313 4219 1838 4219 
Q 1578 4219 1281 4162 
Q 984 4106 628 3988 
L 628 4550 
Q 988 4650 1302 4700 
Q 1616 4750 1894 4750 
Q 2613 4750 3031 4423 
Q 3450 4097 3450 3541 
Q 3450 3153 3228 2886 
Q 3006 2619 2597 2516 
z
" id="DejaVuSans-33" transform="scale(0.015625)"/>
       </defs>
       <use xlink:href="#DejaVuSans-33"/>
       <use x="63.623047" xlink:href="#DejaVuSans-30"/>
      </g>
     </g>
    </g>
    <g id="xtick_5">
     <g id="line2d_5">
      <g>
       <use style="stroke:#000000;stroke-width:0.8;" x="338.856846" xlink:href="#m0f79e87923" y="307.584"/>
      </g>
     </g>
     <g id="text_5">
      <!-- 40 -->
      <g transform="translate(332.494346 322.182437)scale(0.1 -0.1)">
       <defs>
        <path d="M 2419 4116 
L 825 1625 
L 2419 1625 
L 2419 4116 
z
M 2253 4666 
L 3047 4666 
L 3047 1625 
L 3713 1625 
L 3713 1100 
L 3047 1100 
L 3047 0 
L 2419 0 
L 2419 1100 
L 313 1100 
L 313 1709 
L 2253 4666 
z
" id="DejaVuSans-34" transform="scale(0.015625)"/>
       </defs>
       <use xlink:href="#DejaVuSans-34"/>
       <use x="63.623047" xlink:href="#DejaVuSans-30"/>
      </g>
     </g>
    </g>
    <g id="xtick_6">
     <g id="line2d_6">
      <g>
       <use style="stroke:#000000;stroke-width:0.8;" x="405.112876" xlink:href="#m0f79e87923" y="307.584"/>
      </g>
     </g>
     <g id="text_6">
      <!-- 50 -->
      <g transform="translate(398.750376 322.182437)scale(0.1 -0.1)">
       <defs>
        <path d="M 691 4666 
L 3169 4666 
L 3169 4134 
L 1269 4134 
L 1269 2991 
Q 1406 3038 1543 3061 
Q 1681 3084 1819 3084 
Q 2600 3084 3056 2656 
Q 3513 2228 3513 1497 
Q 3513 744 3044 326 
Q 2575 -91 1722 -91 
Q 1428 -91 1123 -41 
Q 819 9 494 109 
L 494 744 
Q 775 591 1075 516 
Q 1375 441 1709 441 
Q 2250 441 2565 725 
Q 2881 1009 2881 1497 
Q 2881 1984 2565 2268 
Q 2250 2553 1709 2553 
Q 1456 2553 1204 2497 
Q 953 2441 691 2322 
L 691 4666 
z
" id="DejaVuSans-35" transform="scale(0.015625)"/>
       </defs>
       <use xlink:href="#DejaVuSans-35"/>
       <use x="63.623047" xlink:href="#DejaVuSans-30"/>
      </g>
     </g>
    </g>
    <g id="text_7">
     <!-- Generations -->
     <g transform="translate(205.662344 335.860562)scale(0.1 -0.1)">
      <defs>
       <path d="M 3809 666 
L 3809 1919 
L 2778 1919 
L 2778 2438 
L 4434 2438 
L 4434 434 
Q 4069 175 3628 42 
Q 3188 -91 2688 -91 
Q 1594 -91 976 548 
Q 359 1188 359 2328 
Q 359 3472 976 4111 
Q 1594 4750 2688 4750 
Q 3144 4750 3555 4637 
Q 3966 4525 4313 4306 
L 4313 3634 
Q 3963 3931 3569 4081 
Q 3175 4231 2741 4231 
Q 1884 4231 1454 3753 
Q 1025 3275 1025 2328 
Q 1025 1384 1454 906 
Q 1884 428 2741 428 
Q 3075 428 3337 486 
Q 3600 544 3809 666 
z
" id="DejaVuSans-47" transform="scale(0.015625)"/>
       <path d="M 3597 1894 
L 3597 1613 
L 953 1613 
Q 991 1019 1311 708 
Q 1631 397 2203 397 
Q 2534 397 2845 478 
Q 3156 559 3463 722 
L 3463 178 
Q 3153 47 2828 -22 
Q 2503 -91 2169 -91 
Q 1331 -91 842 396 
Q 353 884 353 1716 
Q 353 2575 817 3079 
Q 1281 3584 2069 3584 
Q 2775 3584 3186 3129 
Q 3597 2675 3597 1894 
z
M 3022 2063 
Q 3016 2534 2758 2815 
Q 2500 3097 2075 3097 
Q 1594 3097 1305 2825 
Q 1016 2553 972 2059 
L 3022 2063 
z
" id="DejaVuSans-65" transform="scale(0.015625)"/>
       <path d="M 3513 2113 
L 3513 0 
L 2938 0 
L 2938 2094 
Q 2938 2591 2744 2837 
Q 2550 3084 2163 3084 
Q 1697 3084 1428 2787 
Q 1159 2491 1159 1978 
L 1159 0 
L 581 0 
L 581 3500 
L 1159 3500 
L 1159 2956 
Q 1366 3272 1645 3428 
Q 1925 3584 2291 3584 
Q 2894 3584 3203 3211 
Q 3513 2838 3513 2113 
z
" id="DejaVuSans-6e" transform="scale(0.015625)"/>
       <path d="M 2631 2963 
Q 2534 3019 2420 3045 
Q 2306 3072 2169 3072 
Q 1681 3072 1420 2755 
Q 1159 2438 1159 1844 
L 1159 0 
L 581 0 
L 581 3500 
L 1159 3500 
L 1159 2956 
Q 1341 3275 1631 3429 
Q 1922 3584 2338 3584 
Q 2397 3584 2469 3576 
Q 2541 3569 2628 3553 
L 2631 2963 
z
" id="DejaVuSans-72" transform="scale(0.015625)"/>
       <path d="M 2194 1759 
Q 1497 1759 1228 1600 
Q 959 1441 959 1056 
Q 959 750 1161 570 
Q 1363 391 1709 391 
Q 2188 391 2477 730 
Q 2766 1069 2766 1631 
L 2766 1759 
L 2194 1759 
z
M 3341 1997 
L 3341 0 
L 2766 0 
L 2766 531 
Q 2569 213 2275 61 
Q 1981 -91 1556 -91 
Q 1019 -91 701 211 
Q 384 513 384 1019 
Q 384 1609 779 1909 
Q 1175 2209 1959 2209 
L 2766 2209 
L 2766 2266 
Q 2766 2663 2505 2880 
Q 2244 3097 1772 3097 
Q 1472 3097 1187 3025 
Q 903 2953 641 2809 
L 641 3341 
Q 956 3463 1253 3523 
Q 1550 3584 1831 3584 
Q 2591 3584 2966 3190 
Q 3341 2797 3341 1997 
z
" id="DejaVuSans-61" transform="scale(0.015625)"/>
       <path d="M 1172 4494 
L 1172 3500 
L 2356 3500 
L 2356 3053 
L 1172 3053 
L 1172 1153 
Q 1172 725 1289 603 
Q 1406 481 1766 481 
L 2356 481 
L 2356 0 
L 1766 0 
Q 1100 0 847 248 
Q 594 497 594 1153 
L 594 3053 
L 172 3053 
L 172 3500 
L 594 3500 
L 594 4494 
L 1172 4494 
z
" id="DejaVuSans-74" transform="scale(0.015625)"/>
       <path d="M 603 3500 
L 1178 3500 
L 1178 0 
L 603 0 
L 603 3500 
z
M 603 4863 
L 1178 4863 
L 1178 4134 
L 603 4134 
L 603 4863 
z
" id="DejaVuSans-69" transform="scale(0.015625)"/>
       <path d="M 1959 3097 
Q 1497 3097 1228 2736 
Q 959 2375 959 1747 
Q 959 1119 1226 758 
Q 1494 397 1959 397 
Q 2419 397 2687 759 
Q 2956 1122 2956 1747 
Q 2956 2369 2687 2733 
Q 2419 3097 1959 3097 
z
M 1959 3584 
Q 2709 3584 3137 3096 
Q 3566 2609 3566 1747 
Q 3566 888 3137 398 
Q 2709 -91 1959 -91 
Q 1206 -91 779 398 
Q 353 888 353 1747 
Q 353 2609 779 3096 
Q 1206 3584 1959 3584 
z
" id="DejaVuSans-6f" transform="scale(0.015625)"/>
       <path d="M 2834 3397 
L 2834 2853 
Q 2591 2978 2328 3040 
Q 2066 3103 1784 3103 
Q 1356 3103 1142 2972 
Q 928 2841 928 2578 
Q 928 2378 1081 2264 
Q 1234 2150 1697 2047 
L 1894 2003 
Q 2506 1872 2764 1633 
Q 3022 1394 3022 966 
Q 3022 478 2636 193 
Q 2250 -91 1575 -91 
Q 1294 -91 989 -36 
Q 684 19 347 128 
L 347 722 
Q 666 556 975 473 
Q 1284 391 1588 391 
Q 1994 391 2212 530 
Q 2431 669 2431 922 
Q 2431 1156 2273 1281 
Q 2116 1406 1581 1522 
L 1381 1569 
Q 847 1681 609 1914 
Q 372 2147 372 2553 
Q 372 3047 722 3315 
Q 1072 3584 1716 3584 
Q 2034 3584 2315 3537 
Q 2597 3491 2834 3397 
z
" id="DejaVuSans-73" transform="scale(0.015625)"/>
      </defs>
      <use xlink:href="#DejaVuSans-47"/>
      <use x="77.490234" xlink:href="#DejaVuSans-65"/>
      <use x="139.013672" xlink:href="#DejaVuSans-6e"/>
      <use x="202.392578" xlink:href="#DejaVuSans-65"/>
      <use x="263.916016" xlink:href="#DejaVuSans-72"/>
      <use x="305.029297" xlink:href="#DejaVuSans-61"/>
      <use x="366.308594" xlink:href="#DejaVuSans-74"/>
      <use x="405.517578" xlink:href="#DejaVuSans-69"/>
      <use x="433.300781" xlink:href="#DejaVuSans-6f"/>
      <use x="494.482422" xlink:href="#DejaVuSans-6e"/>
      <use x="557.861328" xlink:href="#DejaVuSans-73"/>
     </g>
    </g>
   </g>
   <g id="matplotlib.axis_2">
    <g id="ytick_1">
     <g id="line2d_7">
      <defs>
       <path d="M 0 0 
L -3.5 0 
" id="mdb15f4d9d1" style="stroke:#000000;stroke-width:0.8;"/>
      </defs>
      <g>
       <use style="stroke:#000000;stroke-width:0.8;" x="57.6" xlink:href="#mdb15f4d9d1" y="307.584"/>
      </g>
     </g>
     <g id="text_8">
      <!-- 0 -->
      <g transform="translate(44.2375 311.383219)scale(0.1 -0.1)">
       <use xlink:href="#DejaVuSans-30"/>
      </g>
     </g>
    </g>
    <g id="ytick_2">
     <g id="line2d_8">
      <g>
       <use style="stroke:#000000;stroke-width:0.8;" x="57.6" xlink:href="#mdb15f4d9d1" y="260.650667"/>
      </g>
     </g>
     <g id="text_9">
      <!-- 10 -->
      <g transform="translate(37.875 264.449885)scale(0.1 -0.1)">
       <use xlink:href="#DejaVuSans-31"/>
       <use x="63.623047" xlink:href="#DejaVuSans-30"/>
      </g>
     </g>
    </g>
    <g id="ytick_3">
     <g id="line2d_9">
      <g>
       <use style="stroke:#000000;stroke-width:0.8;" x="57.6" xlink:href="#mdb15f4d9d1" y="213.717333"/>
      </g>
     </g>
     <g id="text_10">
      <!-- 20 -->
      <g transform="translate(37.875 217.516552)scale(0.1 -0.1)">
       <use xlink:href="#DejaVuSans-32"/>
       <use x="63.623047" xlink:href="#DejaVuSans-30"/>
      </g>
     </g>
    </g>
    <g id="ytick_4">
     <g id="line2d_10">
      <g>
       <use style="stroke:#000000;stroke-width:0.8;" x="57.6" xlink:href="#mdb15f4d9d1" y="166.784"/>
      </g>
     </g>
     <g id="text_11">
      <!-- 30 -->
      <g transform="translate(37.875 170.583219)scale(0.1 -0.1)">
       <use xlink:href="#DejaVuSans-33"/>
       <use x="63.623047" xlink:href="#DejaVuSans-30"/>
      </g>
     </g>
    </g>
    <g id="ytick_5">
     <g id="line2d_11">
      <g>
       <use style="stroke:#000000;stroke-width:0.8;" x="57.6" xlink:href="#mdb15f4d9d1" y="119.850667"/>
      </g>
     </g>
     <g id="text_12">
      <!-- 40 -->
      <g transform="translate(37.875 123.649885)scale(0.1 -0.1)">
       <use xlink:href="#DejaVuSans-34"/>
       <use x="63.623047" xlink:href="#DejaVuSans-30"/>
      </g>
     </g>
    </g>
    <g id="ytick_6">
     <g id="line2d_12">
      <g>
       <use style="stroke:#000000;stroke-width:0.8;" x="57.6" xlink:href="#mdb15f4d9d1" y="72.917333"/>
      </g>
     </g>
     <g id="text_13">
      <!-- 50 -->
      <g transform="translate(37.875 76.716552)scale(0.1 -0.1)">
       <use xlink:href="#DejaVuSans-35"/>
       <use x="63.623047" xlink:href="#DejaVuSans-30"/>
      </g>
     </g>
    </g>
    <g id="text_14">
     <!-- Size per Species -->
     <g transform="translate(31.795312 215.520969)rotate(-90)scale(0.1 -0.1)">
      <defs>
       <path d="M 3425 4513 
L 3425 3897 
Q 3066 4069 2747 4153 
Q 2428 4238 2131 4238 
Q 1616 4238 1336 4038 
Q 1056 3838 1056 3469 
Q 1056 3159 1242 3001 
Q 1428 2844 1947 2747 
L 2328 2669 
Q 3034 2534 3370 2195 
Q 3706 1856 3706 1288 
Q 3706 609 3251 259 
Q 2797 -91 1919 -91 
Q 1588 -91 1214 -16 
Q 841 59 441 206 
L 441 856 
Q 825 641 1194 531 
Q 1563 422 1919 422 
Q 2459 422 2753 634 
Q 3047 847 3047 1241 
Q 3047 1584 2836 1778 
Q 2625 1972 2144 2069 
L 1759 2144 
Q 1053 2284 737 2584 
Q 422 2884 422 3419 
Q 422 4038 858 4394 
Q 1294 4750 2059 4750 
Q 2388 4750 2728 4690 
Q 3069 4631 3425 4513 
z
" id="DejaVuSans-53" transform="scale(0.015625)"/>
       <path d="M 353 3500 
L 3084 3500 
L 3084 2975 
L 922 459 
L 3084 459 
L 3084 0 
L 275 0 
L 275 525 
L 2438 3041 
L 353 3041 
L 353 3500 
z
" id="DejaVuSans-7a" transform="scale(0.015625)"/>
       <path id="DejaVuSans-20" transform="scale(0.015625)"/>
       <path d="M 1159 525 
L 1159 -1331 
L 581 -1331 
L 581 3500 
L 1159 3500 
L 1159 2969 
Q 1341 3281 1617 3432 
Q 1894 3584 2278 3584 
Q 2916 3584 3314 3078 
Q 3713 2572 3713 1747 
Q 3713 922 3314 415 
Q 2916 -91 2278 -91 
Q 1894 -91 1617 61 
Q 1341 213 1159 525 
z
M 3116 1747 
Q 3116 2381 2855 2742 
Q 2594 3103 2138 3103 
Q 1681 3103 1420 2742 
Q 1159 2381 1159 1747 
Q 1159 1113 1420 752 
Q 1681 391 2138 391 
Q 2594 391 2855 752 
Q 3116 1113 3116 1747 
z
" id="DejaVuSans-70" transform="scale(0.015625)"/>
       <path d="M 3122 3366 
L 3122 2828 
Q 2878 2963 2633 3030 
Q 2388 3097 2138 3097 
Q 1578 3097 1268 2742 
Q 959 2388 959 1747 
Q 959 1106 1268 751 
Q 1578 397 2138 397 
Q 2388 397 2633 464 
Q 2878 531 3122 666 
L 3122 134 
Q 2881 22 2623 -34 
Q 2366 -91 2075 -91 
Q 1284 -91 818 406 
Q 353 903 353 1747 
Q 353 2603 823 3093 
Q 1294 3584 2113 3584 
Q 2378 3584 2631 3529 
Q 2884 3475 3122 3366 
z
" id="DejaVuSans-63" transform="scale(0.015625)"/>
      </defs>
      <use xlink:href="#DejaVuSans-53"/>
      <use x="63.476562" xlink:href="#DejaVuSans-69"/>
      <use x="91.259766" xlink:href="#DejaVuSans-7a"/>
      <use x="143.75" xlink:href="#DejaVuSans-65"/>
      <use x="205.273438" xlink:href="#DejaVuSans-20"/>
      <use x="237.060547" xlink:href="#DejaVuSans-70"/>
      <use x="300.537109" xlink:href="#DejaVuSans-65"/>
      <use x="362.060547" xlink:href="#DejaVuSans-72"/>
      <use x="403.173828" xlink:href="#DejaVuSans-20"/>
      <use x="434.960938" xlink:href="#DejaVuSans-53"/>
      <use x="498.4375" xlink:href="#DejaVuSans-70"/>
      <use x="561.914062" xlink:href="#DejaVuSans-65"/>
      <use x="623.4375" xlink:href="#DejaVuSans-63"/>
      <use x="678.417969" xlink:href="#DejaVuSans-69"/>
      <use x="706.201172" xlink:href="#DejaVuSans-65"/>
      <use x="767.724609" xlink:href="#DejaVuSans-73"/>
     </g>
    </g>
   </g>
   <g id="patch_3">
    <path d="M 57.6 307.584 
L 57.6 41.472 
" style="fill:none;stroke:#000000;stroke-linecap:square;stroke-linejoin:miter;stroke-width:0.8;"/>
   </g>
   <g id="patch_4">
    <path d="M 414.72 307.584 
L 414.72 41.472 
" style="fill:none;stroke:#000000;stroke-linecap:square;stroke-linejoin:miter;stroke-width:0.8;"/>
   </g>
   <g id="patch_5">
    <path d="M 57.6 307.584 
L 414.72 307.584 
" style="fill:none;stroke:#000000;stroke-linecap:square;stroke-linejoin:miter;stroke-width:0.8;"/>
   </g>
   <g id="patch_6">
    <path d="M 57.6 41.472 
L 414.72 41.472 
" style="fill:none;stroke:#000000;stroke-linecap:square;stroke-linejoin:miter;stroke-width:0.8;"/>
   </g>
   <g id="text_15">
    <!-- Speciation -->
    <g transform="translate(204.714375 35.472)scale(0.12 -0.12)">
     <use xlink:href="#DejaVuSans-53"/>
     <use x="63.476562" xlink:href="#DejaVuSans-70"/>
     <use x="126.953125" xlink:href="#DejaVuSans-65"/>
     <use x="188.476562" xlink:href="#DejaVuSans-63"/>
     <use x="243.457031" xlink:href="#DejaVuSans-69"/>
     <use x="271.240234" xlink:href="#DejaVuSans-61"/>
     <use x="332.519531" xlink:href="#DejaVuSans-74"/>
     <use x="371.728516" xlink:href="#DejaVuSans-69"/>
     <use x="399.511719" xlink:href="#DejaVuSans-6f"/>
     <use x="460.693359" xlink:href="#DejaVuSans-6e"/>
    </g>
   </g>
  </g>
 </g>
 <defs>
  <clipPath id="p311fd3008f">
   <rect height="266.112" width="357.12" x="57.6" y="41.472"/>
  </clipPath>
 </defs>
</svg>
