<?xml version="1.0" encoding="UTF-8" standalone="no"?>
<!DOCTYPE svg PUBLIC "-//W3C//DTD SVG 1.1//EN"
 "http://www.w3.org/Graphics/SVG/1.1/DTD/svg11.dtd">
<!-- Generated by graphviz version 2.49.0 (20210828.1703)
 -->
<!-- Pages: 1 -->
<svg width="1071pt" height="314pt"
 viewBox="0.00 0.00 1071.06 314.25" xmlns="http://www.w3.org/2000/svg" xmlns:xlink="http://www.w3.org/1999/xlink">
<g id="graph0" class="graph" transform="scale(1 1) rotate(0) translate(4 310.25)">
<polygon fill="white" stroke="transparent" points="-4,4 -4,-310.25 1067.06,-310.25 1067.06,4 -4,4"/>
<!-- &#45;1 -->
<g id="node1" class="node">
<title>&#45;1</title>
<polygon fill="lightgray" stroke="black" points="368,-240.04 344,-240.04 344,-222.04 368,-222.04 368,-240.04"/>
<text text-anchor="middle" x="356" y="-228.84" font-family="Times New Roman,serif" font-size="9.00">&#45;1</text>
</g>
<!-- 0 -->
<g id="node21" class="node">
<title>0</title>
<ellipse fill="lightblue" stroke="black" cx="467" cy="-158.97" rx="14.7" ry="14.7"/>
<text text-anchor="middle" x="467" y="-156.77" font-family="Times New Roman,serif" font-size="9.00">0</text>
</g>
<!-- &#45;1&#45;&gt;0 -->
<g id="edge1" class="edge">
<title>&#45;1&#45;&gt;0</title>
<path fill="none" stroke="green" stroke-width="0.84" d="M363.74,-221.64C367.52,-217.79 372.28,-213.31 377,-209.82 398.56,-193.9 425.76,-179.52 444.59,-170.34"/>
<polygon fill="green" stroke="green" stroke-width="0.84" points="446.33,-173.39 453.84,-165.92 443.31,-167.07 446.33,-173.39"/>
</g>
<!-- 1 -->
<g id="node22" class="node">
<title>1</title>
<ellipse fill="lightblue" stroke="black" cx="381" cy="-158.97" rx="14.7" ry="14.7"/>
<text text-anchor="middle" x="381" y="-156.77" font-family="Times New Roman,serif" font-size="9.00">1</text>
</g>
<!-- &#45;1&#45;&gt;1 -->
<g id="edge2" class="edge">
<title>&#45;1&#45;&gt;1</title>
<path fill="none" stroke="green" stroke-width="0.7" d="M358.87,-222C362.26,-212.49 368.06,-196.25 372.87,-182.77"/>
<polygon fill="green" stroke="green" stroke-width="0.7" points="376.23,-183.75 376.3,-173.16 369.64,-181.4 376.23,-183.75"/>
</g>
<!-- 2 -->
<g id="node23" class="node">
<title>2</title>
<ellipse fill="lightblue" stroke="black" cx="558" cy="-14.85" rx="14.7" ry="14.7"/>
<text text-anchor="middle" x="558" y="-12.65" font-family="Times New Roman,serif" font-size="9.00">2</text>
</g>
<!-- &#45;1&#45;&gt;2 -->
<g id="edge3" class="edge">
<title>&#45;1&#45;&gt;2</title>
<path fill="none" stroke="red" stroke-width="0.54" d="M353.78,-221.87C349.91,-205.87 343.54,-169.74 357,-144.12 394.07,-73.55 489.1,-36.57 533.92,-22.58"/>
<polygon fill="red" stroke="red" stroke-width="0.54" points="535.1,-25.87 543.67,-19.65 533.09,-19.17 535.1,-25.87"/>
</g>
<!-- 3 -->
<g id="node24" class="node">
<title>3</title>
<ellipse fill="lightblue" stroke="black" cx="677" cy="-158.97" rx="14.7" ry="14.7"/>
<text text-anchor="middle" x="677" y="-156.77" font-family="Times New Roman,serif" font-size="9.00">3</text>
</g>
<!-- &#45;1&#45;&gt;3 -->
<g id="edge4" class="edge">
<title>&#45;1&#45;&gt;3</title>
<path fill="none" stroke="red" stroke-width="0.38" d="M362.52,-221.7C366.29,-217.47 371.39,-212.64 377,-209.82 425.4,-185.51 588.93,-168.15 651.95,-162.21"/>
<polygon fill="red" stroke="red" stroke-width="0.38" points="652.53,-165.67 662.17,-161.27 651.89,-158.7 652.53,-165.67"/>
</g>
<!-- 4 -->
<g id="node25" class="node">
<title>4</title>
<ellipse fill="lightblue" stroke="black" cx="515" cy="-158.97" rx="14.7" ry="14.7"/>
<text text-anchor="middle" x="515" y="-156.77" font-family="Times New Roman,serif" font-size="9.00">4</text>
</g>
<!-- &#45;1&#45;&gt;4 -->
<g id="edge5" class="edge">
<title>&#45;1&#45;&gt;4</title>
<path fill="none" stroke="green" stroke-width="0.45" d="M362.69,-222.01C366.51,-217.87 371.61,-213.03 377,-209.82 422.68,-182.68 442.37,-195.23 491,-173.82 491.85,-173.45 492.7,-173.06 493.56,-172.64"/>
<polygon fill="green" stroke="green" stroke-width="0.45" points="495.39,-175.63 502.56,-167.84 492.09,-169.46 495.39,-175.63"/>
</g>
<!-- &#45;2 -->
<g id="node2" class="node">
<title>&#45;2</title>
<polygon fill="lightgray" stroke="black" points="410,-240.04 386,-240.04 386,-222.04 410,-222.04 410,-240.04"/>
<text text-anchor="middle" x="398" y="-228.84" font-family="Times New Roman,serif" font-size="9.00">&#45;2</text>
</g>
<!-- &#45;2&#45;&gt;0 -->
<g id="edge6" class="edge">
<title>&#45;2&#45;&gt;0</title>
<path fill="none" stroke="red" stroke-width="0.25" d="M405.92,-222C416.55,-211.2 435.73,-191.73 449.77,-177.47"/>
<polygon fill="red" stroke="red" stroke-width="0.25" points="452.43,-179.76 456.95,-170.18 447.44,-174.84 452.43,-179.76"/>
</g>
<!-- &#45;2&#45;&gt;1 -->
<g id="edge7" class="edge">
<title>&#45;2&#45;&gt;1</title>
<path fill="none" stroke="green" stroke-width="0.43" d="M396.05,-222C393.79,-212.7 389.97,-196.95 386.75,-183.65"/>
<polygon fill="green" stroke="green" stroke-width="0.43" points="390.09,-182.57 384.33,-173.68 383.28,-184.22 390.09,-182.57"/>
</g>
<!-- &#45;2&#45;&gt;2 -->
<g id="edge8" class="edge">
<title>&#45;2&#45;&gt;2</title>
<path fill="none" stroke="red" stroke-width="0.39" d="M401.58,-221.59C408.47,-205.73 424.57,-170.68 443,-144.12 473.03,-100.86 516.16,-56.42 540.16,-32.89"/>
<polygon fill="red" stroke="red" stroke-width="0.39" points="542.78,-35.23 547.52,-25.75 537.9,-30.2 542.78,-35.23"/>
</g>
<!-- &#45;2&#45;&gt;3 -->
<g id="edge9" class="edge">
<title>&#45;2&#45;&gt;3</title>
<path fill="none" stroke="green" stroke-width="0.41" d="M404.55,-221.76C408.33,-217.55 413.43,-212.71 419,-209.82 459.72,-188.7 595.66,-170 652.11,-162.95"/>
<polygon fill="green" stroke="green" stroke-width="0.41" points="652.78,-166.4 662.28,-161.7 651.93,-159.45 652.78,-166.4"/>
</g>
<!-- &#45;2&#45;&gt;4 -->
<g id="edge10" class="edge">
<title>&#45;2&#45;&gt;4</title>
<path fill="none" stroke="red" stroke-width="0.33" d="M405.28,-221.95C409.12,-217.99 414.04,-213.33 419,-209.82 448.22,-189.18 459.49,-190.77 491,-173.82 491.82,-173.38 492.64,-172.93 493.48,-172.47"/>
<polygon fill="red" stroke="red" stroke-width="0.33" points="495.39,-175.41 502.37,-167.45 491.95,-169.32 495.39,-175.41"/>
</g>
<!-- &#45;3 -->
<g id="node3" class="node">
<title>&#45;3</title>
<polygon fill="lightgray" stroke="black" points="500,-240.04 476,-240.04 476,-222.04 500,-222.04 500,-240.04"/>
<text text-anchor="middle" x="488" y="-228.84" font-family="Times New Roman,serif" font-size="9.00">&#45;3</text>
</g>
<!-- &#45;3&#45;&gt;0 -->
<g id="edge11" class="edge">
<title>&#45;3&#45;&gt;0</title>
<path fill="none" stroke="red" stroke-width="0.31" d="M485.59,-222C482.76,-212.55 477.93,-196.44 473.91,-183.01"/>
<polygon fill="red" stroke="red" stroke-width="0.31" points="477.25,-181.99 471.03,-173.42 470.55,-184 477.25,-181.99"/>
</g>
<!-- &#45;3&#45;&gt;1 -->
<g id="edge12" class="edge">
<title>&#45;3&#45;&gt;1</title>
<path fill="none" stroke="red" stroke-width="0.61" d="M479.8,-221.72C475.81,-217.89 470.84,-213.4 466,-209.82 445.69,-194.8 420.53,-180.53 402.87,-171.13"/>
<polygon fill="red" stroke="red" stroke-width="0.61" points="404.4,-167.98 393.91,-166.44 401.15,-174.18 404.4,-167.98"/>
</g>
<!-- &#45;3&#45;&gt;3 -->
<g id="edge13" class="edge">
<title>&#45;3&#45;&gt;3</title>
<path fill="none" stroke="green" stroke-width="0.34" d="M500.11,-225.55C530.99,-214.1 613.08,-183.67 653.65,-168.63"/>
<polygon fill="green" stroke="green" stroke-width="0.34" points="655.07,-171.83 663.23,-165.08 652.64,-165.27 655.07,-171.83"/>
</g>
<!-- &#45;3&#45;&gt;4 -->
<g id="edge14" class="edge">
<title>&#45;3&#45;&gt;4</title>
<path fill="none" stroke="red" stroke-width="0.43" d="M491.1,-222C494.76,-212.49 501.02,-196.25 506.22,-182.77"/>
<polygon fill="red" stroke="red" stroke-width="0.43" points="509.59,-183.75 509.92,-173.16 503.06,-181.23 509.59,-183.75"/>
</g>
<!-- &#45;4 -->
<g id="node4" class="node">
<title>&#45;4</title>
<polygon fill="lightgray" stroke="black" points="811,-240.04 787,-240.04 787,-222.04 811,-222.04 811,-240.04"/>
<text text-anchor="middle" x="799" y="-228.84" font-family="Times New Roman,serif" font-size="9.00">&#45;4</text>
</g>
<!-- &#45;4&#45;&gt;0 -->
<g id="edge15" class="edge">
<title>&#45;4&#45;&gt;0</title>
<path fill="none" stroke="green" stroke-width="0.19" stroke-dasharray="1,5" d="M792.88,-222.02C789.09,-217.67 783.84,-212.61 778,-209.82 662,-154.42 612.86,-214.76 491,-173.82 490.12,-173.53 489.24,-173.2 488.36,-172.84"/>
<polygon fill="green" stroke="green" stroke-width="0.19" points="489.77,-169.63 479.26,-168.3 486.64,-175.9 489.77,-169.63"/>
</g>
<!-- &#45;4&#45;&gt;2 -->
<g id="edge16" class="edge">
<title>&#45;4&#45;&gt;2</title>
<path fill="none" stroke="red" stroke-width="0.11" d="M796.57,-221.83C788.26,-195.23 758.49,-110.47 704,-65.7 668.27,-36.34 614.33,-23.91 582.99,-18.93"/>
<polygon fill="red" stroke="red" stroke-width="0.11" points="583.32,-15.44 572.92,-17.46 582.31,-22.36 583.32,-15.44"/>
</g>
<!-- &#45;4&#45;&gt;3 -->
<g id="edge17" class="edge">
<title>&#45;4&#45;&gt;3</title>
<path fill="none" stroke="green" stroke-width="0.14" d="M791.72,-221.94C787.89,-217.97 782.97,-213.31 778,-209.82 753.25,-192.44 721.53,-177.86 700.31,-169.05"/>
<polygon fill="green" stroke="green" stroke-width="0.14" points="701.39,-165.71 690.8,-165.2 698.76,-172.2 701.39,-165.71"/>
</g>
<!-- &#45;4&#45;&gt;4 -->
<g id="edge18" class="edge">
<title>&#45;4&#45;&gt;4</title>
<path fill="none" stroke="green" stroke-width="0.43" stroke-dasharray="1,5" d="M792.45,-221.75C788.68,-217.54 783.57,-212.7 778,-209.82 736.3,-188.28 596.68,-169.7 539.62,-162.82"/>
<polygon fill="green" stroke="green" stroke-width="0.43" points="540,-159.34 529.66,-161.64 539.18,-166.29 540,-159.34"/>
</g>
<!-- &#45;5 -->
<g id="node5" class="node">
<title>&#45;5</title>
<polygon fill="lightgray" stroke="black" points="104,-240.04 80,-240.04 80,-222.04 104,-222.04 104,-240.04"/>
<text text-anchor="middle" x="92" y="-228.84" font-family="Times New Roman,serif" font-size="9.00">&#45;5</text>
</g>
<!-- &#45;5&#45;&gt;0 -->
<g id="edge19" class="edge">
<title>&#45;5&#45;&gt;0</title>
<path fill="none" stroke="red" stroke-width="0.12" d="M98.11,-222.02C101.9,-217.66 107.15,-212.61 113,-209.82 231.05,-153.6 276.15,-196.1 405,-173.82 417.52,-171.66 431.32,-168.64 442.72,-165.97"/>
<polygon fill="red" stroke="red" stroke-width="0.12" points="443.88,-169.29 452.8,-163.56 442.26,-162.48 443.88,-169.29"/>
</g>
<!-- &#45;5&#45;&gt;1 -->
<g id="edge20" class="edge">
<title>&#45;5&#45;&gt;1</title>
<path fill="none" stroke="green" stroke-width="0.44" d="M98.54,-221.75C102.32,-217.53 107.42,-212.69 113,-209.82 194.77,-167.76 306.8,-160.83 356.05,-159.94"/>
<polygon fill="green" stroke="green" stroke-width="0.44" points="356.15,-163.43 366.11,-159.82 356.07,-156.43 356.15,-163.43"/>
</g>
<!-- &#45;5&#45;&gt;2 -->
<g id="edge21" class="edge">
<title>&#45;5&#45;&gt;2</title>
<path fill="none" stroke="green" stroke-width="0.54" d="M89.61,-221.75C82.43,-194.9 64.06,-109.46 107,-65.7 137.05,-35.07 442.72,-20.46 533.02,-16.8"/>
<polygon fill="green" stroke="green" stroke-width="0.54" points="533.3,-20.29 543.15,-16.39 533.02,-13.29 533.3,-20.29"/>
</g>
<!-- &#45;5&#45;&gt;4 -->
<g id="edge22" class="edge">
<title>&#45;5&#45;&gt;4</title>
<path fill="none" stroke="green" stroke-width="0.11" d="M98.09,-221.96C101.86,-217.58 107.11,-212.53 113,-209.82 266.35,-139.38 330.24,-225.17 491,-173.82 492.05,-173.49 493.11,-173.1 494.17,-172.67"/>
<polygon fill="green" stroke="green" stroke-width="0.11" points="495.91,-175.71 503.26,-168.09 492.76,-169.46 495.91,-175.71"/>
</g>
<!-- &#45;6 -->
<g id="node6" class="node">
<title>&#45;6</title>
<polygon fill="lightgray" stroke="black" points="580,-240.04 556,-240.04 556,-222.04 580,-222.04 580,-240.04"/>
<text text-anchor="middle" x="568" y="-228.84" font-family="Times New Roman,serif" font-size="9.00">&#45;6</text>
</g>
<!-- &#45;6&#45;&gt;0 -->
<g id="edge23" class="edge">
<title>&#45;6&#45;&gt;0</title>
<path fill="none" stroke="green" stroke-width="0.42" d="M556.41,-222C539.53,-210.29 507.93,-188.37 487.18,-173.97"/>
<polygon fill="green" stroke="green" stroke-width="0.42" points="488.97,-170.96 478.76,-168.13 484.98,-176.71 488.97,-170.96"/>
</g>
<!-- &#45;6&#45;&gt;1 -->
<g id="edge24" class="edge">
<title>&#45;6&#45;&gt;1</title>
<path fill="none" stroke="green" stroke-width="0.39" stroke-dasharray="1,5" d="M555.73,-225.44C524.93,-213.9 443.98,-183.57 404.01,-168.59"/>
<polygon fill="green" stroke="green" stroke-width="0.39" points="405.15,-165.29 394.56,-165.06 402.7,-171.84 405.15,-165.29"/>
</g>
<!-- &#45;6&#45;&gt;2 -->
<g id="edge25" class="edge">
<title>&#45;6&#45;&gt;2</title>
<path fill="none" stroke="green" stroke-width="0.15" d="M567.62,-221.9C566.22,-191.99 561.34,-87.34 559.12,-39.74"/>
<polygon fill="green" stroke="green" stroke-width="0.15" points="562.61,-39.55 558.65,-29.72 555.62,-39.87 562.61,-39.55"/>
</g>
<!-- &#45;6&#45;&gt;3 -->
<g id="edge26" class="edge">
<title>&#45;6&#45;&gt;3</title>
<path fill="none" stroke="green" stroke-width="0.7" d="M575.75,-221.66C579.54,-217.81 584.29,-213.33 589,-209.82 610,-194.16 636.41,-179.82 654.79,-170.59"/>
<polygon fill="green" stroke="green" stroke-width="0.7" points="656.43,-173.68 663.85,-166.12 653.33,-167.41 656.43,-173.68"/>
</g>
<!-- &#45;6&#45;&gt;4 -->
<g id="edge27" class="edge">
<title>&#45;6&#45;&gt;4</title>
<path fill="none" stroke="green" stroke-width="0.63" d="M561.92,-222C554.17,-211.76 540.52,-193.71 529.93,-179.72"/>
<polygon fill="green" stroke="green" stroke-width="0.63" points="532.64,-177.5 523.82,-171.63 527.06,-181.72 532.64,-177.5"/>
</g>
<!-- &#45;7 -->
<g id="node7" class="node">
<title>&#45;7</title>
<polygon fill="lightgray" stroke="black" points="1046,-240.04 1022,-240.04 1022,-222.04 1046,-222.04 1046,-240.04"/>
<text text-anchor="middle" x="1034" y="-228.84" font-family="Times New Roman,serif" font-size="9.00">&#45;7</text>
</g>
<!-- &#45;7&#45;&gt;2 -->
<g id="edge28" class="edge">
<title>&#45;7&#45;&gt;2</title>
<path fill="none" stroke="red" stroke-width="0.12" d="M1025.77,-221.97C997.81,-195.03 902.85,-107.6 807,-65.7 729.77,-31.94 629.03,-20.8 582.96,-17.33"/>
<polygon fill="red" stroke="red" stroke-width="0.12" points="583.19,-13.83 572.97,-16.63 582.7,-20.82 583.19,-13.83"/>
</g>
<!-- &#45;7&#45;&gt;3 -->
<g id="edge29" class="edge">
<title>&#45;7&#45;&gt;3</title>
<path fill="none" stroke="red" stroke-width="0.16" d="M1025.59,-221.69C1020.82,-217.45 1014.52,-212.62 1008,-209.82 901.1,-163.98 759.02,-159.35 702.12,-159.51"/>
<polygon fill="red" stroke="red" stroke-width="0.16" points="701.88,-156.01 691.91,-159.6 701.94,-163.01 701.88,-156.01"/>
</g>
<!-- &#45;7&#45;&gt;4 -->
<g id="edge30" class="edge">
<title>&#45;7&#45;&gt;4</title>
<path fill="none" stroke="green" stroke-width="0.14" d="M1021.57,-224.87C1009.79,-220.2 991.49,-213.49 975,-209.82 953.55,-205.05 632.58,-172.01 539.89,-162.52"/>
<polygon fill="green" stroke="green" stroke-width="0.14" points="540.06,-159.02 529.75,-161.48 539.35,-165.98 540.06,-159.02"/>
</g>
<!-- &#45;8 -->
<g id="node8" class="node">
<title>&#45;8</title>
<polygon fill="lightgray" stroke="black" points="24,-240.04 0,-240.04 0,-222.04 24,-222.04 24,-240.04"/>
<text text-anchor="middle" x="12" y="-228.84" font-family="Times New Roman,serif" font-size="9.00">&#45;8</text>
</g>
<!-- &#45;8&#45;&gt;0 -->
<g id="edge31" class="edge">
<title>&#45;8&#45;&gt;0</title>
<path fill="none" stroke="green" stroke-width="0.17" d="M24.43,-224.87C36.21,-220.19 54.51,-213.49 71,-209.82 216.75,-177.43 257.69,-198.14 405,-173.82 417.53,-171.75 431.34,-168.74 442.74,-166.06"/>
<polygon fill="green" stroke="green" stroke-width="0.17" points="443.91,-169.38 452.81,-163.62 442.26,-162.57 443.91,-169.38"/>
</g>
<!-- &#45;8&#45;&gt;1 -->
<g id="edge32" class="edge">
<title>&#45;8&#45;&gt;1</title>
<path fill="none" stroke="green" stroke-width="0.23" d="M20.41,-221.67C25.17,-217.43 31.48,-212.6 38,-209.82 149.3,-162.43 297.33,-158.73 355.75,-159.33"/>
<polygon fill="green" stroke="green" stroke-width="0.23" points="355.85,-162.83 365.9,-159.49 355.96,-155.83 355.85,-162.83"/>
</g>
<!-- &#45;8&#45;&gt;2 -->
<g id="edge33" class="edge">
<title>&#45;8&#45;&gt;2</title>
<path fill="none" stroke="green" stroke-width="0.63" stroke-dasharray="1,5" d="M12.63,-221.79C15.22,-194.32 27.59,-105.36 81,-65.7 117.54,-38.57 439.52,-21.42 532.79,-16.99"/>
<polygon fill="green" stroke="green" stroke-width="0.63" points="533.17,-20.48 542.99,-16.52 532.84,-13.49 533.17,-20.48"/>
</g>
<!-- &#45;8&#45;&gt;3 -->
<g id="edge34" class="edge">
<title>&#45;8&#45;&gt;3</title>
<path fill="none" stroke="green" stroke-width="0.12" d="M24.4,-224.76C36.17,-220 54.46,-213.24 71,-209.82 275.31,-167.68 331.2,-192.24 539,-173.82 578.6,-170.31 624.51,-165.57 652.13,-162.65"/>
<polygon fill="green" stroke="green" stroke-width="0.12" points="652.53,-166.12 662.1,-161.58 651.79,-159.16 652.53,-166.12"/>
</g>
<!-- 565 -->
<g id="node26" class="node">
<title>565</title>
<ellipse fill="white" stroke="black" cx="137" cy="-86.91" rx="21.43" ry="21.43"/>
<text text-anchor="middle" x="137" y="-84.71" font-family="Times New Roman,serif" font-size="9.00">565</text>
</g>
<!-- &#45;8&#45;&gt;565 -->
<g id="edge88" class="edge">
<title>&#45;8&#45;&gt;565</title>
<path fill="none" stroke="green" stroke-width="0.31" d="M19.08,-221.99C37.55,-200.98 87.77,-143.89 116.36,-111.38"/>
<polygon fill="green" stroke="green" stroke-width="0.31" points="119.15,-113.51 123.13,-103.69 113.89,-108.88 119.15,-113.51"/>
</g>
<!-- &#45;9 -->
<g id="node9" class="node">
<title>&#45;9</title>
<polygon fill="lightgray" stroke="black" points="146,-240.04 122,-240.04 122,-222.04 146,-222.04 146,-240.04"/>
<text text-anchor="middle" x="134" y="-228.84" font-family="Times New Roman,serif" font-size="9.00">&#45;9</text>
</g>
<!-- &#45;9&#45;&gt;0 -->
<g id="edge35" class="edge">
<title>&#45;9&#45;&gt;0</title>
<path fill="none" stroke="red" stroke-width="0.22" d="M140.5,-221.65C144.26,-217.41 149.36,-212.58 155,-209.82 255.85,-160.52 294.58,-194.07 405,-173.82 417.5,-171.53 431.3,-168.5 442.7,-165.85"/>
<polygon fill="red" stroke="red" stroke-width="0.22" points="443.85,-169.18 452.78,-163.48 442.24,-162.37 443.85,-169.18"/>
</g>
<!-- &#45;9&#45;&gt;1 -->
<g id="edge36" class="edge">
<title>&#45;9&#45;&gt;1</title>
<path fill="none" stroke="green" stroke-width="0.18" stroke-dasharray="1,5" d="M140.58,-221.82C144.37,-217.62 149.47,-212.79 155,-209.82 221.63,-174.14 312.38,-163.98 355.81,-161.1"/>
<polygon fill="green" stroke="green" stroke-width="0.18" points="356.26,-164.58 366.04,-160.5 355.85,-157.59 356.26,-164.58"/>
</g>
<!-- &#45;9&#45;&gt;2 -->
<g id="edge37" class="edge">
<title>&#45;9&#45;&gt;2</title>
<path fill="none" stroke="green" stroke-width="0.17" stroke-dasharray="1,5" d="M136.58,-221.8C145.63,-194.36 178.81,-105.5 240,-65.7 288.49,-34.16 466.52,-21.03 532.86,-17.16"/>
<polygon fill="green" stroke="green" stroke-width="0.17" points="533.42,-20.64 543.21,-16.58 533.03,-13.65 533.42,-20.64"/>
</g>
<!-- &#45;9&#45;&gt;4 -->
<g id="edge38" class="edge">
<title>&#45;9&#45;&gt;4</title>
<path fill="none" stroke="green" stroke-width="0.51" stroke-dasharray="1,5" d="M140.1,-221.98C143.88,-217.62 149.13,-212.56 155,-209.82 291.1,-146.33 348.2,-220.36 491,-173.82 491.88,-173.54 492.76,-173.21 493.65,-172.86"/>
<polygon fill="green" stroke="green" stroke-width="0.51" points="495.35,-175.92 502.76,-168.34 492.24,-169.65 495.35,-175.92"/>
</g>
<!-- &#45;10 -->
<g id="node10" class="node">
<title>&#45;10</title>
<polygon fill="lightgray" stroke="black" points="627.5,-240.04 598.5,-240.04 598.5,-222.04 627.5,-222.04 627.5,-240.04"/>
<text text-anchor="middle" x="613" y="-228.84" font-family="Times New Roman,serif" font-size="9.00">&#45;10</text>
</g>
<!-- &#45;10&#45;&gt;0 -->
<g id="edge39" class="edge">
<title>&#45;10&#45;&gt;0</title>
<path fill="none" stroke="red" stroke-width="0.25" d="M604.66,-221.76C600.28,-217.75 594.65,-213.11 589,-209.82 548.87,-186.53 533.03,-193.49 491,-173.82 490.16,-173.43 489.31,-173.02 488.46,-172.59"/>
<polygon fill="red" stroke="red" stroke-width="0.25" points="489.95,-169.42 479.49,-167.72 486.61,-175.57 489.95,-169.42"/>
</g>
<!-- &#45;10&#45;&gt;1 -->
<g id="edge40" class="edge">
<title>&#45;10&#45;&gt;1</title>
<path fill="none" stroke="red" stroke-width="0.44" stroke-dasharray="1,5" d="M605.25,-221.88C600.85,-217.71 595.03,-212.87 589,-209.82 580.7,-205.63 458.17,-177.51 405.15,-165.45"/>
<polygon fill="red" stroke="red" stroke-width="0.44" points="405.77,-162 395.24,-163.2 404.22,-168.83 405.77,-162"/>
</g>
<!-- &#45;10&#45;&gt;2 -->
<g id="edge85" class="edge">
<title>&#45;10&#45;&gt;2</title>
<path fill="none" stroke="red" stroke-width="0.2" d="M611.51,-221.74C607.08,-197.47 593.21,-124.65 576,-65.7 573.36,-56.66 569.95,-46.87 566.82,-38.39"/>
<polygon fill="red" stroke="red" stroke-width="0.2" points="570.01,-36.93 563.19,-28.82 563.46,-39.41 570.01,-36.93"/>
</g>
<!-- &#45;10&#45;&gt;3 -->
<g id="edge41" class="edge">
<title>&#45;10&#45;&gt;3</title>
<path fill="none" stroke="green" stroke-width="0.5" d="M620.34,-222C630,-211.42 647.27,-192.52 660.22,-178.35"/>
<polygon fill="green" stroke="green" stroke-width="0.5" points="663.08,-180.4 667.24,-170.65 657.92,-175.68 663.08,-180.4"/>
</g>
<!-- &#45;10&#45;&gt;4 -->
<g id="edge42" class="edge">
<title>&#45;10&#45;&gt;4</title>
<path fill="none" stroke="green" stroke-width="0.59" d="M603.84,-221.93C599.45,-218.14 594.04,-213.63 589,-209.82 571.59,-196.69 550.95,-182.92 535.9,-173.2"/>
<polygon fill="green" stroke="green" stroke-width="0.59" points="537.63,-170.15 527.33,-167.7 533.86,-176.04 537.63,-170.15"/>
</g>
<!-- &#45;11 -->
<g id="node11" class="node">
<title>&#45;11</title>
<polygon fill="lightgray" stroke="black" points="193.5,-240.04 164.5,-240.04 164.5,-222.04 193.5,-222.04 193.5,-240.04"/>
<text text-anchor="middle" x="179" y="-228.84" font-family="Times New Roman,serif" font-size="9.00">&#45;11</text>
</g>
<!-- &#45;11&#45;&gt;0 -->
<g id="edge43" class="edge">
<title>&#45;11&#45;&gt;0</title>
<path fill="none" stroke="red" stroke-width="0.14" d="M186.3,-221.74C190.48,-217.51 196.06,-212.68 202,-209.82 284.58,-170.11 315.15,-191.82 405,-173.82 417.46,-171.33 431.26,-168.28 442.67,-165.67"/>
<polygon fill="red" stroke="red" stroke-width="0.14" points="443.8,-169 452.76,-163.34 442.22,-162.18 443.8,-169"/>
</g>
<!-- &#45;11&#45;&gt;1 -->
<g id="edge44" class="edge">
<title>&#45;11&#45;&gt;1</title>
<path fill="none" stroke="red" stroke-width="0.13" d="M186.42,-221.96C190.63,-217.8 196.2,-212.96 202,-209.82 252.9,-182.26 320.39,-168.85 356.2,-163.29"/>
<polygon fill="red" stroke="red" stroke-width="0.13" points="356.86,-166.73 366.25,-161.81 355.84,-159.8 356.86,-166.73"/>
</g>
<!-- &#45;11&#45;&gt;2 -->
<g id="edge45" class="edge">
<title>&#45;11&#45;&gt;2</title>
<path fill="none" stroke="red" stroke-width="0.15" stroke-dasharray="1,5" d="M181.77,-221.86C191.45,-194.61 226.59,-106.27 288,-65.7 328.26,-39.1 473.7,-23.39 532.79,-17.99"/>
<polygon fill="red" stroke="red" stroke-width="0.15" points="533.43,-21.45 543.08,-17.07 532.81,-14.47 533.43,-21.45"/>
</g>
<!-- &#45;11&#45;&gt;4 -->
<g id="edge46" class="edge">
<title>&#45;11&#45;&gt;4</title>
<path fill="none" stroke="green" stroke-width="0.21" d="M185.85,-222.02C190.04,-217.67 195.79,-212.61 202,-209.82 320.06,-156.75 368.28,-214.99 491,-173.82 491.88,-173.53 492.76,-173.2 493.64,-172.84"/>
<polygon fill="green" stroke="green" stroke-width="0.21" points="495.36,-175.9 502.74,-168.3 492.23,-169.63 495.36,-175.9"/>
</g>
<!-- &#45;12 -->
<g id="node12" class="node">
<title>&#45;12</title>
<polygon fill="lightgray" stroke="black" points="750.5,-306.25 721.5,-306.25 721.5,-288.25 750.5,-288.25 750.5,-306.25"/>
<text text-anchor="middle" x="736" y="-295.05" font-family="Times New Roman,serif" font-size="9.00">&#45;12</text>
</g>
<!-- &#45;12&#45;&gt;0 -->
<g id="edge47" class="edge">
<title>&#45;12&#45;&gt;0</title>
<path fill="none" stroke="red" stroke-width="1.07" d="M721.4,-295.78C652.42,-293.4 361.35,-281.65 335,-252.25 322.41,-238.21 324.28,-225.33 335,-209.82 347.56,-191.65 407.93,-174.34 442.52,-165.7"/>
<polygon fill="red" stroke="red" stroke-width="1.07" points="443.46,-169.08 452.34,-163.31 441.8,-162.27 443.46,-169.08"/>
</g>
<!-- &#45;12&#45;&gt;1 -->
<g id="edge48" class="edge">
<title>&#45;12&#45;&gt;1</title>
<path fill="none" stroke="red" stroke-width="0.17" d="M721.38,-296.45C627.95,-297.56 116.96,-301.35 71,-252.25 -12.35,-163.2 268.91,-158.83 356.06,-159.55"/>
<polygon fill="red" stroke="red" stroke-width="0.17" points="356.1,-163.05 366.14,-159.67 356.18,-156.06 356.1,-163.05"/>
</g>
<!-- &#45;12&#45;&gt;2 -->
<g id="edge49" class="edge">
<title>&#45;12&#45;&gt;2</title>
<path fill="none" stroke="red" stroke-width="0.21" d="M750.75,-296.63C808.05,-297.78 1014.6,-298.61 1055,-252.25 1067.39,-238.03 1063.45,-226.68 1055,-209.82 965.03,-30.37 671.18,-15.74 583.14,-15.47"/>
<polygon fill="red" stroke="red" stroke-width="0.21" points="583,-11.97 573.01,-15.51 583.02,-18.97 583,-11.97"/>
</g>
<!-- &#45;12&#45;&gt;3 -->
<g id="edge50" class="edge">
<title>&#45;12&#45;&gt;3</title>
<path fill="none" stroke="green" stroke-width="0.39" d="M750.88,-296.04C812.08,-294.67 1038.29,-284.58 975,-209.82 940,-168.48 767.48,-161.4 702.14,-160.21"/>
<polygon fill="green" stroke="green" stroke-width="0.39" points="701.98,-156.7 691.93,-160.05 701.87,-163.7 701.98,-156.7"/>
</g>
<!-- &#45;12&#45;&gt;4 -->
<g id="edge51" class="edge">
<title>&#45;12&#45;&gt;4</title>
<path fill="none" stroke="red" stroke-width="0.44" d="M721.3,-294.66C681.54,-290.09 573.04,-275.69 547,-252.25 527.57,-234.77 519.94,-204.89 516.94,-183.87"/>
<polygon fill="red" stroke="red" stroke-width="0.44" points="520.4,-183.33 515.76,-173.81 513.45,-184.15 520.4,-183.33"/>
</g>
<!-- 542 -->
<g id="node27" class="node">
<title>542</title>
<ellipse fill="white" stroke="black" cx="945" cy="-231.04" rx="21.43" ry="21.43"/>
<text text-anchor="middle" x="945" y="-228.84" font-family="Times New Roman,serif" font-size="9.00">542</text>
</g>
<!-- &#45;12&#45;&gt;542 -->
<g id="edge86" class="edge">
<title>&#45;12&#45;&gt;542</title>
<path fill="none" stroke="green" stroke-width="0.22" d="M750.96,-294.38C782.43,-290.07 857.36,-277.78 915,-252.25 916.58,-251.55 918.17,-250.77 919.74,-249.93"/>
<polygon fill="green" stroke="green" stroke-width="0.22" points="921.71,-252.83 928.47,-244.68 918.1,-246.83 921.71,-252.83"/>
</g>
<!-- &#45;13 -->
<g id="node13" class="node">
<title>&#45;13</title>
<polygon fill="lightgray" stroke="black" points="674.5,-240.04 645.5,-240.04 645.5,-222.04 674.5,-222.04 674.5,-240.04"/>
<text text-anchor="middle" x="660" y="-228.84" font-family="Times New Roman,serif" font-size="9.00">&#45;13</text>
</g>
<!-- &#45;13&#45;&gt;0 -->
<g id="edge52" class="edge">
<title>&#45;13&#45;&gt;0</title>
<path fill="none" stroke="green" stroke-width="0.27" d="M652.24,-221.9C647.84,-217.73 642.02,-212.89 636,-209.82 576.85,-179.65 552.58,-198.66 491,-173.82 490.14,-173.48 489.28,-173.1 488.41,-172.71"/>
<polygon fill="green" stroke="green" stroke-width="0.27" points="489.85,-169.52 479.37,-167.99 486.62,-175.72 489.85,-169.52"/>
</g>
<!-- &#45;13&#45;&gt;1 -->
<g id="edge53" class="edge">
<title>&#45;13&#45;&gt;1</title>
<path fill="none" stroke="green" stroke-width="0.19" d="M652.31,-221.76C647.93,-217.55 642.11,-212.71 636,-209.82 557.14,-172.48 528.48,-191.34 443,-173.82 430.55,-171.27 416.76,-168.21 405.34,-165.62"/>
<polygon fill="green" stroke="green" stroke-width="0.19" points="405.78,-162.13 395.25,-163.31 404.22,-168.95 405.78,-162.13"/>
</g>
<!-- &#45;13&#45;&gt;2 -->
<g id="edge54" class="edge">
<title>&#45;13&#45;&gt;2</title>
<path fill="none" stroke="green" stroke-width="0.11" d="M657.69,-221.81C650.59,-197.15 627.61,-122.04 596,-65.7 589.87,-54.77 581.56,-43.58 574.28,-34.58"/>
<polygon fill="green" stroke="green" stroke-width="0.11" points="576.8,-32.15 567.71,-26.7 571.42,-36.63 576.8,-32.15"/>
</g>
<!-- &#45;13&#45;&gt;3 -->
<g id="edge55" class="edge">
<title>&#45;13&#45;&gt;3</title>
<path fill="none" stroke="red" stroke-width="0.51" d="M661.95,-222C664.21,-212.7 668.03,-196.95 671.25,-183.65"/>
<polygon fill="red" stroke="red" stroke-width="0.51" points="674.72,-184.22 673.67,-173.68 667.91,-182.57 674.72,-184.22"/>
</g>
<!-- &#45;13&#45;&gt;4 -->
<g id="edge56" class="edge">
<title>&#45;13&#45;&gt;4</title>
<path fill="none" stroke="red" stroke-width="0.13" d="M651.61,-221.85C647.21,-217.87 641.59,-213.21 636,-209.82 604.39,-190.64 564.07,-175.7 538.88,-167.36"/>
<polygon fill="red" stroke="red" stroke-width="0.13" points="539.68,-163.94 529.09,-164.2 537.53,-170.6 539.68,-163.94"/>
</g>
<!-- &#45;14 -->
<g id="node14" class="node">
<title>&#45;14</title>
<polygon fill="lightgray" stroke="black" points="240.5,-240.04 211.5,-240.04 211.5,-222.04 240.5,-222.04 240.5,-240.04"/>
<text text-anchor="middle" x="226" y="-228.84" font-family="Times New Roman,serif" font-size="9.00">&#45;14</text>
</g>
<!-- &#45;14&#45;&gt;0 -->
<g id="edge57" class="edge">
<title>&#45;14&#45;&gt;0</title>
<path fill="none" stroke="green" stroke-width="0.34" stroke-dasharray="1,5" d="M233.36,-221.85C237.55,-217.66 243.13,-212.83 249,-209.82 251.19,-208.7 386.25,-178.18 442.66,-165.46"/>
<polygon fill="green" stroke="green" stroke-width="0.34" points="443.55,-168.85 452.53,-163.23 442.01,-162.02 443.55,-168.85"/>
</g>
<!-- &#45;14&#45;&gt;1 -->
<g id="edge58" class="edge">
<title>&#45;14&#45;&gt;1</title>
<path fill="none" stroke="green" stroke-width="0.13" d="M233.95,-221.77C238.14,-217.76 243.53,-213.11 249,-209.82 284.03,-188.77 329.47,-173.99 356.87,-166.24"/>
<polygon fill="green" stroke="green" stroke-width="0.13" points="358.04,-169.55 366.76,-163.53 356.19,-162.8 358.04,-169.55"/>
</g>
<!-- &#45;14&#45;&gt;2 -->
<g id="edge59" class="edge">
<title>&#45;14&#45;&gt;2</title>
<path fill="none" stroke="red" stroke-width="0.21" d="M228.88,-221.95C238.91,-194.98 275.12,-107.43 336,-65.7 397.57,-23.49 489.22,-16.43 532.98,-15.63"/>
<polygon fill="red" stroke="red" stroke-width="0.21" points="533.06,-19.13 543.03,-15.54 533,-12.13 533.06,-19.13"/>
</g>
<!-- &#45;14&#45;&gt;4 -->
<g id="edge60" class="edge">
<title>&#45;14&#45;&gt;4</title>
<path fill="none" stroke="green" stroke-width="0.42" d="M233.27,-221.67C237.44,-217.43 243.02,-212.6 249,-209.82 347.64,-164.06 388.32,-209.63 491,-173.82 491.87,-173.52 492.75,-173.18 493.63,-172.82"/>
<polygon fill="green" stroke="green" stroke-width="0.42" points="495.37,-175.86 502.72,-168.24 492.22,-169.61 495.37,-175.86"/>
</g>
<!-- &#45;15 -->
<g id="node15" class="node">
<title>&#45;15</title>
<polygon fill="lightgray" stroke="black" points="287.5,-240.04 258.5,-240.04 258.5,-222.04 287.5,-222.04 287.5,-240.04"/>
<text text-anchor="middle" x="273" y="-228.84" font-family="Times New Roman,serif" font-size="9.00">&#45;15</text>
</g>
<!-- &#45;15&#45;&gt;0 -->
<g id="edge61" class="edge">
<title>&#45;15&#45;&gt;0</title>
<path fill="none" stroke="red" stroke-width="0.21" d="M282.98,-221.9C288.36,-217.83 295.26,-213.09 302,-209.82 327.16,-197.64 403.51,-176.68 442.91,-166.25"/>
<polygon fill="red" stroke="red" stroke-width="0.21" points="443.96,-169.59 452.74,-163.66 442.18,-162.82 443.96,-169.59"/>
</g>
<!-- &#45;15&#45;&gt;1 -->
<g id="edge62" class="edge">
<title>&#45;15&#45;&gt;1</title>
<path fill="none" stroke="red" stroke-width="0.41" d="M284.49,-221.85C289.78,-218.12 296.17,-213.69 302,-209.82 321.43,-196.93 343.95,-182.8 359.97,-172.88"/>
<polygon fill="red" stroke="red" stroke-width="0.41" points="361.9,-175.8 368.57,-167.57 358.22,-169.84 361.9,-175.8"/>
</g>
<!-- &#45;15&#45;&gt;2 -->
<g id="edge63" class="edge">
<title>&#45;15&#45;&gt;2</title>
<path fill="none" stroke="green" stroke-width="0.22" stroke-dasharray="1,5" d="M275.95,-221.7C285.96,-194.69 321.27,-108.82 380,-65.7 426.65,-31.44 495.91,-20.71 532.77,-17.36"/>
<polygon fill="green" stroke="green" stroke-width="0.22" points="533.42,-20.82 543.11,-16.54 532.87,-13.84 533.42,-20.82"/>
</g>
<!-- &#45;15&#45;&gt;4 -->
<g id="edge64" class="edge">
<title>&#45;15&#45;&gt;4</title>
<path fill="none" stroke="green" stroke-width="0.55" d="M287.67,-224.85C300.16,-220.53 318.64,-214.37 335,-209.82 403.56,-190.78 424.79,-199.89 491,-173.82 491.86,-173.48 492.73,-173.12 493.6,-172.73"/>
<polygon fill="green" stroke="green" stroke-width="0.55" points="495.38,-175.75 502.65,-168.04 492.16,-169.53 495.38,-175.75"/>
</g>
<!-- &#45;16 -->
<g id="node16" class="node">
<title>&#45;16</title>
<polygon fill="lightgray" stroke="black" points="768.5,-240.04 739.5,-240.04 739.5,-222.04 768.5,-222.04 768.5,-240.04"/>
<text text-anchor="middle" x="754" y="-228.84" font-family="Times New Roman,serif" font-size="9.00">&#45;16</text>
</g>
<!-- &#45;16&#45;&gt;1 -->
<g id="edge65" class="edge">
<title>&#45;16&#45;&gt;1</title>
<path fill="none" stroke="red" stroke-width="0.12" d="M747.15,-222.02C742.96,-217.67 737.21,-212.61 731,-209.82 613.36,-156.91 570.09,-195.91 443,-173.82 430.48,-171.65 416.68,-168.63 405.28,-165.96"/>
<polygon fill="red" stroke="red" stroke-width="0.12" points="405.75,-162.47 395.21,-163.55 404.12,-169.28 405.75,-162.47"/>
</g>
<!-- &#45;16&#45;&gt;2 -->
<g id="edge66" class="edge">
<title>&#45;16&#45;&gt;2</title>
<path fill="none" stroke="green" stroke-width="0.47" d="M752.24,-221.86C746.11,-195.33 723.23,-110.77 672,-65.7 645.75,-42.6 607.11,-28.78 582.25,-21.74"/>
<polygon fill="green" stroke="green" stroke-width="0.47" points="583.08,-18.34 572.52,-19.13 581.27,-25.1 583.08,-18.34"/>
</g>
<!-- &#45;16&#45;&gt;3 -->
<g id="edge67" class="edge">
<title>&#45;16&#45;&gt;3</title>
<path fill="none" stroke="green" stroke-width="0.22" d="M745.17,-222C733.06,-210.98 711.01,-190.92 695.27,-176.6"/>
<polygon fill="green" stroke="green" stroke-width="0.22" points="697.45,-173.85 687.7,-169.71 692.74,-179.03 697.45,-173.85"/>
</g>
<!-- &#45;16&#45;&gt;4 -->
<g id="edge68" class="edge">
<title>&#45;16&#45;&gt;4</title>
<path fill="none" stroke="red" stroke-width="0.48" d="M746.64,-221.86C742.44,-217.67 736.87,-212.83 731,-209.82 667.03,-177.01 581.4,-165.54 539.79,-161.74"/>
<polygon fill="red" stroke="red" stroke-width="0.48" points="539.99,-158.24 529.73,-160.89 539.41,-165.22 539.99,-158.24"/>
</g>
<!-- &#45;17 -->
<g id="node17" class="node">
<title>&#45;17</title>
<polygon fill="lightgray" stroke="black" points="457.5,-240.04 428.5,-240.04 428.5,-222.04 457.5,-222.04 457.5,-240.04"/>
<text text-anchor="middle" x="443" y="-228.84" font-family="Times New Roman,serif" font-size="9.00">&#45;17</text>
</g>
<!-- &#45;17&#45;&gt;0 -->
<g id="edge69" class="edge">
<title>&#45;17&#45;&gt;0</title>
<path fill="none" stroke="red" stroke-width="0.12" d="M445.75,-222C449.01,-212.49 454.57,-196.25 459.19,-182.77"/>
<polygon fill="red" stroke="red" stroke-width="0.12" points="462.55,-183.75 462.48,-173.16 455.93,-181.48 462.55,-183.75"/>
</g>
<!-- &#45;17&#45;&gt;1 -->
<g id="edge70" class="edge">
<title>&#45;17&#45;&gt;1</title>
<path fill="none" stroke="green" stroke-width="0.73" stroke-dasharray="1,5" d="M435.89,-222C426.53,-211.42 409.8,-192.52 397.26,-178.35"/>
<polygon fill="green" stroke="green" stroke-width="0.73" points="399.7,-175.82 390.45,-170.65 394.46,-180.46 399.7,-175.82"/>
</g>
<!-- &#45;17&#45;&gt;3 -->
<g id="edge71" class="edge">
<title>&#45;17&#45;&gt;3</title>
<path fill="none" stroke="green" stroke-width="0.24" d="M450.75,-221.88C455.15,-217.7 460.97,-212.86 467,-209.82 529.08,-178.56 611.45,-166.43 652.11,-162.12"/>
<polygon fill="green" stroke="green" stroke-width="0.24" points="652.59,-165.59 662.2,-161.12 651.9,-158.62 652.59,-165.59"/>
</g>
<!-- &#45;17&#45;&gt;4 -->
<g id="edge72" class="edge">
<title>&#45;17&#45;&gt;4</title>
<path fill="none" stroke="green" stroke-width="0.49" d="M451.26,-222C462.35,-211.2 482.37,-191.73 497.02,-177.47"/>
<polygon fill="green" stroke="green" stroke-width="0.49" points="499.79,-179.66 504.52,-170.18 494.91,-174.64 499.79,-179.66"/>
</g>
<!-- &#45;18 -->
<g id="node18" class="node">
<title>&#45;18</title>
<polygon fill="lightgray" stroke="black" points="721.5,-240.04 692.5,-240.04 692.5,-222.04 721.5,-222.04 721.5,-240.04"/>
<text text-anchor="middle" x="707" y="-228.84" font-family="Times New Roman,serif" font-size="9.00">&#45;18</text>
</g>
<!-- &#45;18&#45;&gt;0 -->
<g id="edge73" class="edge">
<title>&#45;18&#45;&gt;0</title>
<path fill="none" stroke="red" stroke-width="0.7" d="M699.31,-221.76C694.93,-217.55 689.1,-212.72 683,-209.82 604.55,-172.63 572.43,-203.95 491,-173.82 490.13,-173.5 489.26,-173.15 488.38,-172.78"/>
<polygon fill="red" stroke="red" stroke-width="0.7" points="489.81,-169.57 479.31,-168.14 486.63,-175.81 489.81,-169.57"/>
</g>
<!-- &#45;18&#45;&gt;1 -->
<g id="edge74" class="edge">
<title>&#45;18&#45;&gt;1</title>
<path fill="none" stroke="red" stroke-width="0.16" d="M699.35,-221.68C694.98,-217.43 689.16,-212.61 683,-209.82 584.71,-165.41 549.03,-193.59 443,-173.82 430.51,-171.49 416.71,-168.46 405.3,-165.82"/>
<polygon fill="red" stroke="red" stroke-width="0.16" points="405.76,-162.33 395.22,-163.45 404.16,-169.15 405.76,-162.33"/>
</g>
<!-- &#45;18&#45;&gt;2 -->
<g id="edge75" class="edge">
<title>&#45;18&#45;&gt;2</title>
<path fill="none" stroke="green" stroke-width="0.16" d="M708.27,-221.99C710.37,-206.2 713.24,-170.42 701,-144.12 675.25,-88.81 613.28,-47.05 580,-27.71"/>
<polygon fill="green" stroke="green" stroke-width="0.16" points="581.48,-24.53 571.05,-22.65 578.03,-30.62 581.48,-24.53"/>
</g>
<!-- &#45;18&#45;&gt;3 -->
<g id="edge76" class="edge">
<title>&#45;18&#45;&gt;3</title>
<path fill="none" stroke="red" stroke-width="0.26" d="M703.56,-222C699.42,-212.34 692.31,-195.73 686.49,-182.13"/>
<polygon fill="red" stroke="red" stroke-width="0.26" points="689.69,-180.71 682.53,-172.9 683.25,-183.47 689.69,-180.71"/>
</g>
<!-- &#45;19 -->
<g id="node19" class="node">
<title>&#45;19</title>
<polygon fill="lightgray" stroke="black" points="858.5,-240.04 829.5,-240.04 829.5,-222.04 858.5,-222.04 858.5,-240.04"/>
<text text-anchor="middle" x="844" y="-228.84" font-family="Times New Roman,serif" font-size="9.00">&#45;19</text>
</g>
<!-- &#45;19&#45;&gt;0 -->
<g id="edge77" class="edge">
<title>&#45;19&#45;&gt;0</title>
<path fill="none" stroke="red" stroke-width="0.41" d="M836.81,-221.99C832.41,-217.62 826.41,-212.57 820,-209.82 684.77,-151.94 630.8,-219.56 491,-173.82 490.12,-173.54 489.24,-173.21 488.36,-172.86"/>
<polygon fill="red" stroke="red" stroke-width="0.41" points="489.76,-169.65 479.24,-168.34 486.64,-175.92 489.76,-169.65"/>
</g>
<!-- &#45;19&#45;&gt;2 -->
<g id="edge78" class="edge">
<title>&#45;19&#45;&gt;2</title>
<path fill="none" stroke="red" stroke-width="0.22" d="M841,-221.7C830.82,-194.68 794.98,-108.81 736,-65.7 689.28,-31.54 620.05,-20.77 583.21,-17.39"/>
<polygon fill="red" stroke="red" stroke-width="0.22" points="583.12,-13.87 572.88,-16.56 582.56,-20.85 583.12,-13.87"/>
</g>
<!-- &#45;19&#45;&gt;3 -->
<g id="edge79" class="edge">
<title>&#45;19&#45;&gt;3</title>
<path fill="none" stroke="green" stroke-width="0.67" d="M835.69,-221.72C831.31,-217.7 825.68,-213.06 820,-209.82 781.14,-187.69 730.78,-172.96 701.37,-165.57"/>
<polygon fill="green" stroke="green" stroke-width="0.67" points="702.08,-162.14 691.54,-163.18 700.42,-168.94 702.08,-162.14"/>
</g>
<!-- &#45;19&#45;&gt;4 -->
<g id="edge80" class="edge">
<title>&#45;19&#45;&gt;4</title>
<path fill="none" stroke="red" stroke-width="0.46" d="M836.33,-221.71C831.96,-217.48 826.14,-212.65 820,-209.82 769.89,-186.78 603.53,-168.6 539.98,-162.33"/>
<polygon fill="red" stroke="red" stroke-width="0.46" points="540.31,-158.85 530.02,-161.36 539.64,-165.81 540.31,-158.85"/>
</g>
<!-- &#45;20 -->
<g id="node20" class="node">
<title>&#45;20</title>
<polygon fill="lightgray" stroke="black" points="905.5,-240.04 876.5,-240.04 876.5,-222.04 905.5,-222.04 905.5,-240.04"/>
<text text-anchor="middle" x="891" y="-228.84" font-family="Times New Roman,serif" font-size="9.00">&#45;20</text>
</g>
<!-- &#45;20&#45;&gt;0 -->
<g id="edge81" class="edge">
<title>&#45;20&#45;&gt;0</title>
<path fill="none" stroke="green" stroke-width="0.25" d="M884.18,-221.96C880,-217.58 874.25,-212.52 868,-209.82 713.51,-143.02 651.33,-225.06 491,-173.82 489.95,-173.49 488.89,-173.1 487.83,-172.67"/>
<polygon fill="green" stroke="green" stroke-width="0.25" points="489.24,-169.46 478.74,-168.08 486.09,-175.71 489.24,-169.46"/>
</g>
<!-- &#45;20&#45;&gt;2 -->
<g id="edge82" class="edge">
<title>&#45;20&#45;&gt;2</title>
<path fill="none" stroke="red" stroke-width="0.11" stroke-dasharray="1,5" d="M887.57,-221.97C875.71,-195.06 833.57,-107.67 770,-65.7 711.06,-26.78 625.25,-18.12 583.17,-16.28"/>
<polygon fill="red" stroke="red" stroke-width="0.11" points="583.1,-12.77 572.99,-15.93 582.86,-19.77 583.1,-12.77"/>
</g>
<!-- &#45;20&#45;&gt;3 -->
<g id="edge83" class="edge">
<title>&#45;20&#45;&gt;3</title>
<path fill="none" stroke="green" stroke-width="0.42" d="M883.6,-221.92C879.4,-217.75 873.82,-212.91 868,-209.82 812.9,-180.57 739.59,-167.71 701.82,-162.73"/>
<polygon fill="green" stroke="green" stroke-width="0.42" points="702.09,-159.23 691.73,-161.47 701.22,-166.18 702.09,-159.23"/>
</g>
<!-- &#45;20&#45;&gt;4 -->
<g id="edge84" class="edge">
<title>&#45;20&#45;&gt;4</title>
<path fill="none" stroke="red" stroke-width="0.31" d="M883.74,-221.65C879.57,-217.4 873.99,-212.58 868,-209.82 838.18,-196.12 615.52,-170.91 539.98,-162.66"/>
<polygon fill="red" stroke="red" stroke-width="0.31" points="540.26,-159.17 529.95,-161.57 539.51,-166.13 540.26,-159.17"/>
</g>
<!-- 4&#45;&gt;565 -->
<g id="edge90" class="edge">
<title>4&#45;&gt;565</title>
<path fill="none" stroke="green" stroke-width="0.1" d="M502.71,-149.74C499.07,-147.62 494.99,-145.54 491,-144.12 376.77,-103.66 231.49,-92.23 168.49,-89.08"/>
<polygon fill="green" stroke="green" stroke-width="0.1" points="168.56,-85.58 158.41,-88.61 168.24,-92.57 168.56,-85.58"/>
</g>
<!-- 565&#45;&gt;2 -->
<g id="edge89" class="edge">
<title>565&#45;&gt;2</title>
<path fill="none" stroke="green" stroke-width="0.82" d="M154.16,-74.2C159.64,-70.96 165.88,-67.77 172,-65.7 302.73,-21.49 470.55,-16.09 533.07,-15.72"/>
<polygon fill="green" stroke="green" stroke-width="0.82" points="533.17,-19.22 543.16,-15.7 533.16,-12.22 533.17,-19.22"/>
</g>
<!-- 542&#45;&gt;3 -->
<g id="edge87" class="edge">
<title>542&#45;&gt;3</title>
<path fill="none" stroke="green" stroke-width="0.64" d="M928.52,-217.28C924.29,-214.49 919.63,-211.78 915,-209.82 841.33,-178.7 746.36,-166.34 701.96,-162.02"/>
<polygon fill="green" stroke="green" stroke-width="0.64" points="702.08,-158.52 691.8,-161.09 701.44,-165.49 702.08,-158.52"/>
</g>
</g>
</svg>
