<?xml version="1.0" encoding="UTF-8" standalone="no"?>
<!DOCTYPE svg PUBLIC "-//W3C//DTD SVG 1.1//EN"
 "http://www.w3.org/Graphics/SVG/1.1/DTD/svg11.dtd">
<!-- Generated by graphviz version 2.43.0 (0)
 -->
<!-- Title: %3 Pages: 1 -->
<svg width="936pt" height="95pt"
 viewBox="0.00 0.00 936.00 94.53" xmlns="http://www.w3.org/2000/svg" xmlns:xlink="http://www.w3.org/1999/xlink">
<g id="graph0" class="graph" transform="scale(1 1) rotate(0) translate(4 90.53)">
<title>%3</title>
<polygon fill="white" stroke="transparent" points="-4,4 -4,-90.53 932,-90.53 932,4 -4,4"/>
<!-- &#45;1 -->
<g id="node1" class="node">
<title>&#45;1</title>
<polygon fill="lightgray" stroke="black" points="646,-86.53 620,-86.53 620,-68.53 646,-68.53 646,-86.53"/>
<text text-anchor="middle" x="633" y="-75.33" font-family="Times,serif" font-size="9.00">&#45;1</text>
</g>
<!-- 0 -->
<g id="node21" class="node">
<title>0</title>
<ellipse fill="lightblue" stroke="black" cx="437" cy="-16.26" rx="16.03" ry="16.03"/>
<text text-anchor="middle" x="437" y="-14.06" font-family="Times,serif" font-size="9.00">0</text>
</g>
<!-- &#45;1&#45;&gt;0 -->
<g id="edge1" class="edge">
<title>&#45;1&#45;&gt;0</title>
<path fill="none" stroke="red" stroke-width="0.54" d="M619.58,-71.38C616.77,-70.38 613.8,-69.37 611,-68.53 546.2,-48.93 525.75,-57.93 463,-32.53 461.77,-32.03 460.53,-31.48 459.3,-30.9"/>
<polygon fill="red" stroke="red" stroke-width="0.54" points="460.58,-27.61 450.11,-25.96 457.26,-33.78 460.58,-27.61"/>
</g>
<!-- 1 -->
<g id="node22" class="node">
<title>1</title>
<ellipse fill="lightblue" stroke="black" cx="488" cy="-16.26" rx="16.03" ry="16.03"/>
<text text-anchor="middle" x="488" y="-14.06" font-family="Times,serif" font-size="9.00">1</text>
</g>
<!-- &#45;1&#45;&gt;1 -->
<g id="edge29" class="edge">
<title>&#45;1&#45;&gt;1</title>
<path fill="none" stroke="green" stroke-width="0.54" d="M619.57,-71.63C589.51,-60.67 519,-34.9 514,-32.53 512.83,-31.97 511.64,-31.38 510.45,-30.77"/>
<polygon fill="green" stroke="green" stroke-width="0.54" points="511.96,-27.6 501.52,-25.81 508.56,-33.72 511.96,-27.6"/>
</g>
<!-- 2 -->
<g id="node23" class="node">
<title>2</title>
<ellipse fill="lightblue" stroke="black" cx="539" cy="-16.26" rx="16.03" ry="16.03"/>
<text text-anchor="middle" x="539" y="-14.06" font-family="Times,serif" font-size="9.00">2</text>
</g>
<!-- &#45;1&#45;&gt;2 -->
<g id="edge38" class="edge">
<title>&#45;1&#45;&gt;2</title>
<path fill="none" stroke="red" stroke-width="0.62" d="M619.93,-68.29C604.74,-58.71 579.42,-42.75 561.15,-31.23"/>
<polygon fill="red" stroke="red" stroke-width="0.62" points="562.89,-28.19 552.57,-25.82 559.16,-34.11 562.89,-28.19"/>
</g>
<!-- 3 -->
<g id="node24" class="node">
<title>3</title>
<ellipse fill="lightblue" stroke="black" cx="386" cy="-16.26" rx="16.03" ry="16.03"/>
<text text-anchor="middle" x="386" y="-14.06" font-family="Times,serif" font-size="9.00">3</text>
</g>
<!-- &#45;1&#45;&gt;3 -->
<g id="edge69" class="edge">
<title>&#45;1&#45;&gt;3</title>
<path fill="none" stroke="green" stroke-width="0.13" d="M619.62,-71.25C616.8,-70.26 613.82,-69.29 611,-68.53 524.23,-45.08 496.28,-63.76 412,-32.53 410.76,-32.07 409.51,-31.55 408.26,-30.99"/>
<polygon fill="green" stroke="green" stroke-width="0.13" points="409.53,-27.7 399.05,-26.13 406.26,-33.89 409.53,-27.7"/>
</g>
<!-- 4 -->
<g id="node25" class="node">
<title>4</title>
<ellipse fill="lightblue" stroke="black" cx="335" cy="-16.26" rx="16.03" ry="16.03"/>
<text text-anchor="middle" x="335" y="-14.06" font-family="Times,serif" font-size="9.00">4</text>
</g>
<!-- &#45;1&#45;&gt;4 -->
<g id="edge21" class="edge">
<title>&#45;1&#45;&gt;4</title>
<path fill="none" stroke="green" stroke-width="0.51" d="M619.64,-71.17C616.82,-70.18 613.84,-69.24 611,-68.53 502.12,-41.2 466.95,-69.64 361,-32.53 359.75,-32.09 358.49,-31.59 357.24,-31.04"/>
<polygon fill="green" stroke="green" stroke-width="0.51" points="358.5,-27.75 348.01,-26.23 355.26,-33.96 358.5,-27.75"/>
</g>
<!-- &#45;2 -->
<g id="node2" class="node">
<title>&#45;2</title>
<polygon fill="lightgray" stroke="black" points="690,-86.53 664,-86.53 664,-68.53 690,-68.53 690,-86.53"/>
<text text-anchor="middle" x="677" y="-75.33" font-family="Times,serif" font-size="9.00">&#45;2</text>
</g>
<!-- &#45;2&#45;&gt;0 -->
<g id="edge8" class="edge">
<title>&#45;2&#45;&gt;0</title>
<path fill="none" stroke="green" stroke-width="0.28" d="M663.62,-71.27C660.8,-70.27 657.82,-69.3 655,-68.53 571.26,-45.62 544.31,-62.96 463,-32.53 461.76,-32.06 460.51,-31.54 459.26,-30.98"/>
<polygon fill="green" stroke="green" stroke-width="0.28" points="460.53,-27.69 450.05,-26.11 457.26,-33.88 460.53,-27.69"/>
</g>
<!-- &#45;2&#45;&gt;1 -->
<g id="edge86" class="edge">
<title>&#45;2&#45;&gt;1</title>
<path fill="none" stroke="green" stroke-width="0.36" d="M663.58,-71.41C660.76,-70.4 657.8,-69.39 655,-68.53 593.2,-49.45 573.81,-57.14 514,-32.53 512.77,-32.02 511.54,-31.47 510.3,-30.88"/>
<polygon fill="green" stroke="green" stroke-width="0.36" points="511.59,-27.6 501.12,-25.93 508.27,-33.76 511.59,-27.6"/>
</g>
<!-- &#45;2&#45;&gt;2 -->
<g id="edge37" class="edge">
<title>&#45;2&#45;&gt;2</title>
<path fill="none" stroke="green" stroke-width="0.1" d="M663.77,-70.84C640.59,-60.89 592.36,-40.18 563.12,-27.62"/>
<polygon fill="green" stroke="green" stroke-width="0.1" points="564.21,-24.28 553.64,-23.55 561.45,-30.71 564.21,-24.28"/>
</g>
<!-- &#45;2&#45;&gt;3 -->
<g id="edge19" class="edge">
<title>&#45;2&#45;&gt;3</title>
<path fill="none" stroke="red" stroke-width="0.53" d="M663.64,-71.18C660.82,-70.19 657.84,-69.24 655,-68.53 549.16,-41.74 514.97,-68.83 412,-32.53 410.75,-32.09 409.49,-31.58 408.24,-31.04"/>
<polygon fill="red" stroke="red" stroke-width="0.53" points="409.5,-27.74 399.01,-26.22 406.26,-33.95 409.5,-27.74"/>
</g>
<!-- &#45;2&#45;&gt;4 -->
<g id="edge40" class="edge">
<title>&#45;2&#45;&gt;4</title>
<path fill="none" stroke="red" stroke-width="0.42" d="M663.65,-71.13C660.83,-70.14 657.85,-69.21 655,-68.53 526.99,-37.84 485.69,-74.73 361,-32.53 359.75,-32.1 358.48,-31.61 357.23,-31.07"/>
<polygon fill="red" stroke="red" stroke-width="0.42" points="358.48,-27.78 347.99,-26.29 355.26,-34 358.48,-27.78"/>
</g>
<!-- &#45;3 -->
<g id="node3" class="node">
<title>&#45;3</title>
<polygon fill="lightgray" stroke="black" points="734,-86.53 708,-86.53 708,-68.53 734,-68.53 734,-86.53"/>
<text text-anchor="middle" x="721" y="-75.33" font-family="Times,serif" font-size="9.00">&#45;3</text>
</g>
<!-- &#45;3&#45;&gt;0 -->
<g id="edge43" class="edge">
<title>&#45;3&#45;&gt;0</title>
<path fill="none" stroke="green" stroke-width="0.13" d="M707.64,-71.19C704.82,-70.2 701.84,-69.25 699,-68.53 596.2,-42.27 562.99,-68.02 463,-32.53 461.75,-32.08 460.5,-31.58 459.25,-31.03"/>
<polygon fill="green" stroke="green" stroke-width="0.13" points="460.5,-27.74 450.02,-26.21 457.26,-33.94 460.5,-27.74"/>
</g>
<!-- &#45;3&#45;&gt;1 -->
<g id="edge14" class="edge">
<title>&#45;3&#45;&gt;1</title>
<path fill="none" stroke="green" stroke-width="0.17" d="M707.61,-71.28C704.79,-70.28 701.82,-69.31 699,-68.53 618.28,-46.15 592.35,-62.15 514,-32.53 512.76,-32.06 511.51,-31.53 510.27,-30.97"/>
<polygon fill="green" stroke="green" stroke-width="0.17" points="511.54,-27.68 501.06,-26.09 508.26,-33.86 511.54,-27.68"/>
</g>
<!-- &#45;3&#45;&gt;2 -->
<g id="edge80" class="edge">
<title>&#45;3&#45;&gt;2</title>
<path fill="none" stroke="green" stroke-width="0.23" d="M707.53,-71.54C704.72,-70.52 701.77,-69.47 699,-68.53 651.64,-52.33 595.88,-34.82 564.26,-25.03"/>
<polygon fill="green" stroke="green" stroke-width="0.23" points="565.1,-21.62 554.51,-22.01 563.03,-28.31 565.1,-21.62"/>
</g>
<!-- &#45;3&#45;&gt;3 -->
<g id="edge50" class="edge">
<title>&#45;3&#45;&gt;3</title>
<path fill="none" stroke="green" stroke-width="0.4" d="M707.65,-71.13C704.83,-70.15 701.84,-69.21 699,-68.53 574.03,-38.37 533.71,-73.92 412,-32.53 410.75,-32.1 409.49,-31.61 408.23,-31.07"/>
<polygon fill="green" stroke="green" stroke-width="0.4" points="409.48,-27.78 398.99,-26.28 406.26,-33.99 409.48,-27.78"/>
</g>
<!-- &#45;3&#45;&gt;4 -->
<g id="edge22" class="edge">
<title>&#45;3&#45;&gt;4</title>
<path fill="none" stroke="green" stroke-width="0.12" d="M707.66,-71.09C704.84,-70.11 701.85,-69.19 699,-68.53 551.82,-34.46 504.47,-79.83 361,-32.53 359.74,-32.11 358.48,-31.63 357.22,-31.1"/>
<polygon fill="green" stroke="green" stroke-width="0.12" points="358.47,-27.8 347.98,-26.33 355.26,-34.03 358.47,-27.8"/>
</g>
<!-- &#45;4 -->
<g id="node4" class="node">
<title>&#45;4</title>
<polygon fill="lightgray" stroke="black" points="778,-86.53 752,-86.53 752,-68.53 778,-68.53 778,-86.53"/>
<text text-anchor="middle" x="765" y="-75.33" font-family="Times,serif" font-size="9.00">&#45;4</text>
</g>
<!-- &#45;4&#45;&gt;0 -->
<g id="edge89" class="edge">
<title>&#45;4&#45;&gt;0</title>
<path fill="none" stroke="red" stroke-width="0.69" d="M751.65,-71.14C748.83,-70.15 745.84,-69.22 743,-68.53 621.08,-38.91 581.72,-73.11 463,-32.53 461.75,-32.1 460.49,-31.61 459.23,-31.06"/>
<polygon fill="red" stroke="red" stroke-width="0.69" points="460.48,-27.77 450,-26.27 457.26,-33.98 460.48,-27.77"/>
</g>
<!-- &#45;4&#45;&gt;1 -->
<g id="edge20" class="edge">
<title>&#45;4&#45;&gt;1</title>
<path fill="none" stroke="red" stroke-width="0.2" d="M751.63,-71.2C748.81,-70.21 745.83,-69.26 743,-68.53 643.24,-42.8 611.01,-67.21 514,-32.53 512.75,-32.08 511.5,-31.57 510.25,-31.02"/>
<polygon fill="red" stroke="red" stroke-width="0.2" points="511.51,-27.73 501.02,-26.19 508.26,-33.93 511.51,-27.73"/>
</g>
<!-- &#45;4&#45;&gt;2 -->
<g id="edge49" class="edge">
<title>&#45;4&#45;&gt;2</title>
<path fill="none" stroke="red" stroke-width="0.52" d="M751.58,-71.4C748.76,-70.39 745.8,-69.38 743,-68.53 679.65,-49.11 603.62,-31.46 564.71,-22.83"/>
<polygon fill="red" stroke="red" stroke-width="0.52" points="565.28,-19.38 554.76,-20.64 563.78,-26.21 565.28,-19.38"/>
</g>
<!-- &#45;4&#45;&gt;3 -->
<g id="edge79" class="edge">
<title>&#45;4&#45;&gt;3</title>
<path fill="none" stroke="green" stroke-width="0.38" d="M751.66,-71.1C748.84,-70.11 745.85,-69.19 743,-68.53 598.87,-35 552.49,-79.02 412,-32.53 410.74,-32.11 409.48,-31.63 408.22,-31.09"/>
<polygon fill="green" stroke="green" stroke-width="0.38" points="409.47,-27.8 398.98,-26.33 406.26,-34.02 409.47,-27.8"/>
</g>
<!-- &#45;4&#45;&gt;4 -->
<g id="edge68" class="edge">
<title>&#45;4&#45;&gt;4</title>
<path fill="none" stroke="red" stroke-width="0.16" d="M751.67,-71.07C748.84,-70.08 745.85,-69.17 743,-68.53 576.63,-31.08 523.28,-84.94 361,-32.53 359.74,-32.12 358.47,-31.64 357.22,-31.12"/>
<polygon fill="red" stroke="red" stroke-width="0.16" points="358.46,-27.82 347.96,-26.37 355.26,-34.05 358.46,-27.82"/>
</g>
<!-- &#45;5 -->
<g id="node5" class="node">
<title>&#45;5</title>
<polygon fill="lightgray" stroke="black" points="26,-86.53 0,-86.53 0,-68.53 26,-68.53 26,-86.53"/>
<text text-anchor="middle" x="13" y="-75.33" font-family="Times,serif" font-size="9.00">&#45;5</text>
</g>
<!-- &#45;5&#45;&gt;0 -->
<g id="edge36" class="edge">
<title>&#45;5&#45;&gt;0</title>
<path fill="none" stroke="red" stroke-width="0.13" d="M26.33,-71.07C29.16,-70.09 32.15,-69.17 35,-68.53 198.75,-31.55 251.29,-84.24 411,-32.53 412.26,-32.12 413.53,-31.64 414.78,-31.11"/>
<polygon fill="red" stroke="red" stroke-width="0.13" points="416.74,-34.05 424.03,-26.36 413.54,-27.82 416.74,-34.05"/>
</g>
<!-- &#45;5&#45;&gt;1 -->
<g id="edge10" class="edge">
<title>&#45;5&#45;&gt;1</title>
<path fill="none" stroke="green" stroke-width="0.54" d="M26.33,-71.04C29.15,-70.06 32.14,-69.16 35,-68.53 221.01,-27.63 280.48,-90.17 462,-32.53 463.26,-32.13 464.53,-31.65 465.79,-31.13"/>
<polygon fill="green" stroke="green" stroke-width="0.54" points="467.74,-34.07 475.04,-26.4 464.55,-27.84 467.74,-34.07"/>
</g>
<!-- &#45;5&#45;&gt;2 -->
<g id="edge97" class="edge">
<title>&#45;5&#45;&gt;2</title>
<path fill="none" stroke="red" stroke-width="0.36" d="M26.32,-71.02C29.15,-70.04 32.14,-69.14 35,-68.53 243.28,-23.7 309.66,-96.1 513,-32.53 514.26,-32.13 515.53,-31.67 516.79,-31.15"/>
<polygon fill="red" stroke="red" stroke-width="0.36" points="518.74,-34.08 526.05,-26.42 515.55,-27.85 518.74,-34.08"/>
</g>
<!-- &#45;5&#45;&gt;3 -->
<g id="edge66" class="edge">
<title>&#45;5&#45;&gt;3</title>
<path fill="none" stroke="red" stroke-width="0.21" d="M26.34,-71.1C29.16,-70.12 32.15,-69.19 35,-68.53 176.52,-35.46 222.08,-78.32 360,-32.53 361.26,-32.11 362.52,-31.63 363.78,-31.09"/>
<polygon fill="red" stroke="red" stroke-width="0.21" points="365.74,-34.02 373.02,-26.32 362.53,-27.8 365.74,-34.02"/>
</g>
<!-- &#45;5&#45;&gt;4 -->
<g id="edge58" class="edge">
<title>&#45;5&#45;&gt;4</title>
<path fill="none" stroke="red" stroke-width="0.31" d="M26.37,-71.23C29.19,-70.24 32.17,-69.28 35,-68.53 134.42,-42.18 256.1,-26.26 308.7,-20.15"/>
<polygon fill="red" stroke="red" stroke-width="0.31" points="309.31,-23.6 318.85,-18.99 308.51,-16.64 309.31,-23.6"/>
</g>
<!-- &#45;6 -->
<g id="node6" class="node">
<title>&#45;6</title>
<polygon fill="lightgray" stroke="black" points="70,-86.53 44,-86.53 44,-68.53 70,-68.53 70,-86.53"/>
<text text-anchor="middle" x="57" y="-75.33" font-family="Times,serif" font-size="9.00">&#45;6</text>
</g>
<!-- &#45;6&#45;&gt;0 -->
<g id="edge78" class="edge">
<title>&#45;6&#45;&gt;0</title>
<path fill="none" stroke="red" stroke-width="0.58" d="M70.34,-71.1C73.16,-70.11 76.15,-69.19 79,-68.53 223.57,-34.92 270.09,-79.13 411,-32.53 412.26,-32.11 413.52,-31.63 414.78,-31.1"/>
<polygon fill="red" stroke="red" stroke-width="0.58" points="416.74,-34.02 424.02,-26.33 413.53,-27.8 416.74,-34.02"/>
</g>
<!-- &#45;6&#45;&gt;1 -->
<g id="edge13" class="edge">
<title>&#45;6&#45;&gt;1</title>
<path fill="none" stroke="green" stroke-width="0.23" d="M70.33,-71.06C73.16,-70.08 76.15,-69.17 79,-68.53 245.81,-31.01 299.3,-85.06 462,-32.53 463.26,-32.12 464.53,-31.64 465.78,-31.12"/>
<polygon fill="green" stroke="green" stroke-width="0.23" points="467.74,-34.05 475.04,-26.37 464.54,-27.82 467.74,-34.05"/>
</g>
<!-- &#45;6&#45;&gt;2 -->
<g id="edge18" class="edge">
<title>&#45;6&#45;&gt;2</title>
<path fill="none" stroke="green" stroke-width="0.17" d="M70.33,-71.04C73.15,-70.06 76.14,-69.15 79,-68.53 268.06,-27.09 328.49,-90.98 513,-32.53 514.26,-32.13 515.53,-31.66 516.79,-31.13"/>
<polygon fill="green" stroke="green" stroke-width="0.17" points="518.74,-34.07 526.05,-26.4 515.55,-27.84 518.74,-34.07"/>
</g>
<!-- &#45;6&#45;&gt;3 -->
<g id="edge47" class="edge">
<title>&#45;6&#45;&gt;3</title>
<path fill="none" stroke="green" stroke-width="0.17" d="M70.35,-71.14C73.17,-70.15 76.16,-69.22 79,-68.53 201.36,-38.83 240.85,-73.22 360,-32.53 361.25,-32.1 362.51,-31.61 363.77,-31.07"/>
<polygon fill="green" stroke="green" stroke-width="0.17" points="365.74,-33.99 373,-26.27 362.52,-27.77 365.74,-33.99"/>
</g>
<!-- &#45;6&#45;&gt;4 -->
<g id="edge59" class="edge">
<title>&#45;6&#45;&gt;4</title>
<path fill="none" stroke="red" stroke-width="0.17" d="M70.39,-71.29C73.21,-70.29 76.18,-69.32 79,-68.53 161.63,-45.37 262.06,-28.43 308.76,-21.17"/>
<polygon fill="red" stroke="red" stroke-width="0.17" points="309.57,-24.59 318.92,-19.62 308.51,-17.67 309.57,-24.59"/>
</g>
<!-- &#45;7 -->
<g id="node7" class="node">
<title>&#45;7</title>
<polygon fill="lightgray" stroke="black" points="114,-86.53 88,-86.53 88,-68.53 114,-68.53 114,-86.53"/>
<text text-anchor="middle" x="101" y="-75.33" font-family="Times,serif" font-size="9.00">&#45;7</text>
</g>
<!-- &#45;7&#45;&gt;0 -->
<g id="edge28" class="edge">
<title>&#45;7&#45;&gt;0</title>
<path fill="none" stroke="red" stroke-width="0.45" d="M114.35,-71.13C117.17,-70.15 120.16,-69.21 123,-68.53 248.4,-38.3 288.86,-74.03 411,-32.53 412.25,-32.1 413.52,-31.61 414.77,-31.07"/>
<polygon fill="red" stroke="red" stroke-width="0.45" points="416.74,-33.99 424.01,-26.28 413.52,-27.78 416.74,-33.99"/>
</g>
<!-- &#45;7&#45;&gt;1 -->
<g id="edge96" class="edge">
<title>&#45;7&#45;&gt;1</title>
<path fill="none" stroke="red" stroke-width="0.26" d="M114.34,-71.09C117.16,-70.11 120.15,-69.19 123,-68.53 270.62,-34.39 318.1,-79.95 462,-32.53 463.26,-32.11 464.52,-31.63 465.78,-31.1"/>
<polygon fill="red" stroke="red" stroke-width="0.26" points="467.74,-34.03 475.02,-26.33 464.53,-27.8 467.74,-34.03"/>
</g>
<!-- &#45;7&#45;&gt;2 -->
<g id="edge64" class="edge">
<title>&#45;7&#45;&gt;2</title>
<path fill="none" stroke="green" stroke-width="0.22" d="M114.33,-71.06C117.16,-70.08 120.14,-69.17 123,-68.53 292.86,-30.47 347.3,-85.87 513,-32.53 514.26,-32.12 515.53,-31.65 516.78,-31.12"/>
<polygon fill="green" stroke="green" stroke-width="0.22" points="518.74,-34.05 526.04,-26.37 515.54,-27.82 518.74,-34.05"/>
</g>
<!-- &#45;7&#45;&gt;3 -->
<g id="edge34" class="edge">
<title>&#45;7&#45;&gt;3</title>
<path fill="none" stroke="green" stroke-width="0.45" d="M114.36,-71.19C117.18,-70.2 120.16,-69.25 123,-68.53 226.24,-42.19 259.59,-68.14 360,-32.53 361.25,-32.08 362.5,-31.58 363.75,-31.03"/>
<polygon fill="green" stroke="green" stroke-width="0.45" points="365.74,-33.94 372.98,-26.21 362.5,-27.74 365.74,-33.94"/>
</g>
<!-- &#45;7&#45;&gt;4 -->
<g id="edge45" class="edge">
<title>&#45;7&#45;&gt;4</title>
<path fill="none" stroke="green" stroke-width="0.53" d="M114.42,-71.38C117.23,-70.37 120.2,-69.37 123,-68.53 189.25,-48.54 268.95,-30.97 309.13,-22.54"/>
<polygon fill="green" stroke="green" stroke-width="0.53" points="310.07,-25.92 319.15,-20.46 308.64,-19.07 310.07,-25.92"/>
</g>
<!-- &#45;8 -->
<g id="node8" class="node">
<title>&#45;8</title>
<polygon fill="lightgray" stroke="black" points="158,-86.53 132,-86.53 132,-68.53 158,-68.53 158,-86.53"/>
<text text-anchor="middle" x="145" y="-75.33" font-family="Times,serif" font-size="9.00">&#45;8</text>
</g>
<!-- &#45;8&#45;&gt;0 -->
<g id="edge74" class="edge">
<title>&#45;8&#45;&gt;0</title>
<path fill="none" stroke="green" stroke-width="0.14" d="M158.36,-71.18C161.18,-70.19 164.16,-69.24 167,-68.53 273.27,-41.66 307.61,-68.95 411,-32.53 412.25,-32.09 413.51,-31.58 414.76,-31.04"/>
<polygon fill="green" stroke="green" stroke-width="0.14" points="416.74,-33.95 423.99,-26.22 413.5,-27.74 416.74,-33.95"/>
</g>
<!-- &#45;8&#45;&gt;1 -->
<g id="edge6" class="edge">
<title>&#45;8&#45;&gt;1</title>
<path fill="none" stroke="red" stroke-width="0.47" d="M158.35,-71.13C161.17,-70.14 164.15,-69.21 167,-68.53 295.45,-37.76 336.88,-74.85 462,-32.53 463.26,-32.1 464.52,-31.61 465.77,-31.07"/>
<polygon fill="red" stroke="red" stroke-width="0.47" points="467.74,-34 475.01,-26.29 464.52,-27.78 467.74,-34"/>
</g>
<!-- &#45;8&#45;&gt;2 -->
<g id="edge33" class="edge">
<title>&#45;8&#45;&gt;2</title>
<path fill="none" stroke="green" stroke-width="0.12" d="M158.34,-71.09C161.16,-70.1 164.15,-69.18 167,-68.53 317.67,-33.85 366.11,-80.76 513,-32.53 514.26,-32.11 515.52,-31.63 516.78,-31.1"/>
<polygon fill="green" stroke="green" stroke-width="0.12" points="518.74,-34.03 526.03,-26.34 515.53,-27.81 518.74,-34.03"/>
</g>
<!-- &#45;8&#45;&gt;3 -->
<g id="edge63" class="edge">
<title>&#45;8&#45;&gt;3</title>
<path fill="none" stroke="red" stroke-width="0.26" d="M158.38,-71.26C161.2,-70.27 164.18,-69.3 167,-68.53 251.17,-45.54 278.26,-63.07 360,-32.53 361.24,-32.06 362.49,-31.54 363.74,-30.98"/>
<polygon fill="red" stroke="red" stroke-width="0.26" points="365.74,-33.88 372.95,-26.11 362.47,-27.69 365.74,-33.88"/>
</g>
<!-- &#45;8&#45;&gt;4 -->
<g id="edge95" class="edge">
<title>&#45;8&#45;&gt;4</title>
<path fill="none" stroke="green" stroke-width="0.23" d="M158.46,-71.51C161.27,-70.49 164.22,-69.45 167,-68.53 217.37,-51.7 276.96,-34.04 309.91,-24.47"/>
<polygon fill="green" stroke="green" stroke-width="0.23" points="310.99,-27.8 319.63,-21.66 309.05,-21.08 310.99,-27.8"/>
</g>
<!-- &#45;9 -->
<g id="node9" class="node">
<title>&#45;9</title>
<polygon fill="lightgray" stroke="black" points="202,-86.53 176,-86.53 176,-68.53 202,-68.53 202,-86.53"/>
<text text-anchor="middle" x="189" y="-75.33" font-family="Times,serif" font-size="9.00">&#45;9</text>
</g>
<!-- &#45;9&#45;&gt;0 -->
<g id="edge88" class="edge">
<title>&#45;9&#45;&gt;0</title>
<path fill="none" stroke="red" stroke-width="0.32" d="M202.38,-71.25C205.2,-70.26 208.17,-69.29 211,-68.53 298.2,-45.01 326.3,-63.88 411,-32.53 412.24,-32.07 413.49,-31.55 414.74,-30.99"/>
<polygon fill="red" stroke="red" stroke-width="0.32" points="416.74,-33.89 423.95,-26.13 413.48,-27.7 416.74,-33.89"/>
</g>
<!-- &#45;9&#45;&gt;1 -->
<g id="edge60" class="edge">
<title>&#45;9&#45;&gt;1</title>
<path fill="none" stroke="red" stroke-width="0.17" d="M202.36,-71.17C205.18,-70.18 208.16,-69.24 211,-68.53 320.31,-41.12 355.63,-69.75 462,-32.53 463.25,-32.09 464.51,-31.59 465.76,-31.04"/>
<polygon fill="red" stroke="red" stroke-width="0.17" points="467.74,-33.96 474.99,-26.23 464.5,-27.75 467.74,-33.96"/>
</g>
<!-- &#45;9&#45;&gt;2 -->
<g id="edge48" class="edge">
<title>&#45;9&#45;&gt;2</title>
<path fill="none" stroke="red" stroke-width="0.32" d="M202.35,-71.12C205.17,-70.13 208.15,-69.2 211,-68.53 342.5,-37.22 384.89,-75.66 513,-32.53 514.26,-32.1 515.52,-31.62 516.77,-31.08"/>
<polygon fill="red" stroke="red" stroke-width="0.32" points="518.74,-34 526.01,-26.3 515.52,-27.78 518.74,-34"/>
</g>
<!-- &#45;9&#45;&gt;3 -->
<g id="edge30" class="edge">
<title>&#45;9&#45;&gt;3</title>
<path fill="none" stroke="green" stroke-width="0.37" d="M202.42,-71.38C205.23,-70.37 208.2,-69.37 211,-68.53 276.23,-48.86 296.83,-58.05 360,-32.53 361.23,-32.03 362.47,-31.48 363.7,-30.9"/>
<polygon fill="green" stroke="green" stroke-width="0.37" points="365.74,-33.78 372.89,-25.97 362.42,-27.61 365.74,-33.78"/>
</g>
<!-- &#45;9&#45;&gt;4 -->
<g id="edge67" class="edge">
<title>&#45;9&#45;&gt;4</title>
<path fill="none" stroke="green" stroke-width="0.1" d="M202.21,-71.16C226.68,-61.23 279.39,-39.84 310.53,-27.19"/>
<polygon fill="green" stroke="green" stroke-width="0.1" points="312.25,-30.28 320.2,-23.27 309.62,-23.79 312.25,-30.28"/>
</g>
<!-- &#45;10 -->
<g id="node10" class="node">
<title>&#45;10</title>
<polygon fill="lightgray" stroke="black" points="252,-86.53 220,-86.53 220,-68.53 252,-68.53 252,-86.53"/>
<text text-anchor="middle" x="236" y="-75.33" font-family="Times,serif" font-size="9.00">&#45;10</text>
</g>
<!-- &#45;10&#45;&gt;0 -->
<g id="edge35" class="edge">
<title>&#45;10&#45;&gt;0</title>
<path fill="none" stroke="red" stroke-width="0.42" d="M252.09,-71.19C255.04,-70.26 258.1,-69.34 261,-68.53 327.03,-50.07 347.41,-58.16 411,-32.53 412.23,-32.03 413.47,-31.48 414.71,-30.9"/>
<polygon fill="red" stroke="red" stroke-width="0.42" points="416.74,-33.78 423.89,-25.97 413.43,-27.62 416.74,-33.78"/>
</g>
<!-- &#45;10&#45;&gt;1 -->
<g id="edge65" class="edge">
<title>&#45;10&#45;&gt;1</title>
<path fill="none" stroke="red" stroke-width="0.17" d="M252.05,-71.05C255.01,-70.13 258.08,-69.25 261,-68.53 349.08,-46.65 376.87,-63.99 462,-32.53 463.24,-32.07 464.49,-31.55 465.74,-30.99"/>
<polygon fill="red" stroke="red" stroke-width="0.17" points="467.74,-33.89 474.95,-26.13 464.48,-27.7 467.74,-33.89"/>
</g>
<!-- &#45;10&#45;&gt;2 -->
<g id="edge75" class="edge">
<title>&#45;10&#45;&gt;2</title>
<path fill="none" stroke="red" stroke-width="0.25" d="M252.03,-70.96C254.99,-70.06 258.07,-69.2 261,-68.53 371.27,-43.2 406.2,-69.87 513,-32.53 514.25,-32.09 515.51,-31.59 516.76,-31.04"/>
<polygon fill="red" stroke="red" stroke-width="0.25" points="518.74,-33.96 525.99,-26.23 515.5,-27.75 518.74,-33.96"/>
</g>
<!-- &#45;10&#45;&gt;3 -->
<g id="edge9" class="edge">
<title>&#45;10&#45;&gt;3</title>
<path fill="none" stroke="red" stroke-width="0.44" d="M252.1,-71.24C280.93,-61.7 340.23,-41.74 360,-32.53 361.17,-31.98 362.36,-31.4 363.56,-30.79"/>
<polygon fill="red" stroke="red" stroke-width="0.44" points="365.44,-33.74 372.5,-25.84 362.05,-27.62 365.44,-33.74"/>
</g>
<!-- &#45;10&#45;&gt;4 -->
<g id="edge56" class="edge">
<title>&#45;10&#45;&gt;4</title>
<path fill="none" stroke="red" stroke-width="0.14" d="M249.77,-68.29C266.02,-58.56 293.28,-42.24 312.59,-30.68"/>
<polygon fill="red" stroke="red" stroke-width="0.14" points="314.57,-33.57 321.35,-25.43 310.97,-27.57 314.57,-33.57"/>
</g>
<!-- &#45;11 -->
<g id="node11" class="node">
<title>&#45;11</title>
<polygon fill="lightgray" stroke="black" points="302,-86.53 270,-86.53 270,-68.53 302,-68.53 302,-86.53"/>
<text text-anchor="middle" x="286" y="-75.33" font-family="Times,serif" font-size="9.00">&#45;11</text>
</g>
<!-- &#45;11&#45;&gt;0 -->
<g id="edge77" class="edge">
<title>&#45;11&#45;&gt;0</title>
<path fill="none" stroke="red" stroke-width="0.31" d="M302.23,-71.25C331.3,-61.72 391.07,-41.78 411,-32.53 412.18,-31.98 413.37,-31.4 414.56,-30.79"/>
<polygon fill="red" stroke="red" stroke-width="0.31" points="416.44,-33.75 423.5,-25.85 413.06,-27.62 416.44,-33.75"/>
</g>
<!-- &#45;11&#45;&gt;1 -->
<g id="edge46" class="edge">
<title>&#45;11&#45;&gt;1</title>
<path fill="none" stroke="red" stroke-width="0.37" d="M302.08,-71.18C305.04,-70.26 308.1,-69.33 311,-68.53 377.46,-50 397.99,-58.27 462,-32.53 463.23,-32.03 464.47,-31.49 465.71,-30.9"/>
<polygon fill="red" stroke="red" stroke-width="0.37" points="467.74,-33.79 474.89,-25.98 464.43,-27.62 467.74,-33.79"/>
</g>
<!-- &#45;11&#45;&gt;2 -->
<g id="edge17" class="edge">
<title>&#45;11&#45;&gt;2</title>
<path fill="none" stroke="red" stroke-width="0.34" d="M302.05,-71.04C305.01,-70.13 308.08,-69.25 311,-68.53 399.51,-46.58 427.45,-64.11 513,-32.53 514.24,-32.07 515.49,-31.55 516.74,-30.99"/>
<polygon fill="red" stroke="red" stroke-width="0.34" points="518.74,-33.89 525.96,-26.14 515.48,-27.7 518.74,-33.89"/>
</g>
<!-- &#45;11&#45;&gt;3 -->
<g id="edge87" class="edge">
<title>&#45;11&#45;&gt;3</title>
<path fill="none" stroke="red" stroke-width="0.11" d="M299.9,-68.29C316.32,-58.56 343.86,-42.24 363.37,-30.68"/>
<polygon fill="red" stroke="red" stroke-width="0.11" points="365.4,-33.54 372.21,-25.43 361.83,-27.52 365.4,-33.54"/>
</g>
<!-- &#45;11&#45;&gt;4 -->
<g id="edge57" class="edge">
<title>&#45;11&#45;&gt;4</title>
<path fill="none" stroke="green" stroke-width="0.43" d="M292.81,-68.29C299.37,-60.36 309.55,-48.05 318.26,-37.51"/>
<polygon fill="green" stroke="green" stroke-width="0.43" points="321.16,-39.49 324.84,-29.55 315.77,-35.03 321.16,-39.49"/>
</g>
<!-- &#45;12 -->
<g id="node12" class="node">
<title>&#45;12</title>
<polygon fill="lightgray" stroke="black" points="828,-86.53 796,-86.53 796,-68.53 828,-68.53 828,-86.53"/>
<text text-anchor="middle" x="812" y="-75.33" font-family="Times,serif" font-size="9.00">&#45;12</text>
</g>
<!-- &#45;12&#45;&gt;0 -->
<g id="edge26" class="edge">
<title>&#45;12&#45;&gt;0</title>
<path fill="none" stroke="green" stroke-width="0.12" d="M795.99,-70.88C793.03,-69.99 789.94,-69.15 787,-68.53 645.3,-38.3 600.5,-78.21 463,-32.53 461.74,-32.11 460.48,-31.62 459.22,-31.09"/>
<polygon fill="green" stroke="green" stroke-width="0.12" points="460.47,-27.8 449.98,-26.32 457.26,-34.02 460.47,-27.8"/>
</g>
<!-- &#45;12&#45;&gt;1 -->
<g id="edge55" class="edge">
<title>&#45;12&#45;&gt;1</title>
<path fill="none" stroke="red" stroke-width="0.4" d="M795.98,-70.93C793.02,-70.03 789.93,-69.18 787,-68.53 667.58,-41.77 629.74,-72.3 514,-32.53 512.75,-32.1 511.49,-31.6 510.24,-31.06"/>
<polygon fill="red" stroke="red" stroke-width="0.4" points="511.49,-27.77 501,-26.26 508.26,-33.98 511.49,-27.77"/>
</g>
<!-- &#45;12&#45;&gt;2 -->
<g id="edge85" class="edge">
<title>&#45;12&#45;&gt;2</title>
<path fill="none" stroke="red" stroke-width="0.12" d="M795.94,-71.11C792.98,-70.19 789.91,-69.29 787,-68.53 706.89,-47.49 610.37,-29.65 564.99,-21.7"/>
<polygon fill="red" stroke="red" stroke-width="0.12" points="565.55,-18.24 555.09,-19.98 564.35,-25.14 565.55,-18.24"/>
</g>
<!-- &#45;12&#45;&gt;4 -->
<g id="edge7" class="edge">
<title>&#45;12&#45;&gt;4</title>
<path fill="none" stroke="green" stroke-width="0.34" d="M795.73,-70.74C792.85,-69.88 789.86,-69.1 787,-68.53 600.67,-31.34 542.09,-90.05 361,-32.53 359.74,-32.13 358.47,-31.65 357.21,-31.13"/>
<polygon fill="green" stroke="green" stroke-width="0.34" points="358.45,-27.83 347.96,-26.39 355.26,-34.07 358.45,-27.83"/>
</g>
<!-- &#45;13 -->
<g id="node13" class="node">
<title>&#45;13</title>
<polygon fill="lightgray" stroke="black" points="352,-86.53 320,-86.53 320,-68.53 352,-68.53 352,-86.53"/>
<text text-anchor="middle" x="336" y="-75.33" font-family="Times,serif" font-size="9.00">&#45;13</text>
</g>
<!-- &#45;13&#45;&gt;0 -->
<g id="edge73" class="edge">
<title>&#45;13&#45;&gt;0</title>
<path fill="none" stroke="red" stroke-width="0.49" d="M350.04,-68.29C366.8,-58.46 395.01,-41.9 414.74,-30.32"/>
<polygon fill="red" stroke="red" stroke-width="0.49" points="416.54,-33.32 423.4,-25.24 413,-27.29 416.54,-33.32"/>
</g>
<!-- &#45;13&#45;&gt;1 -->
<g id="edge42" class="edge">
<title>&#45;13&#45;&gt;1</title>
<path fill="none" stroke="red" stroke-width="0.61" d="M352.36,-71.25C381.66,-61.74 441.92,-41.82 462,-32.53 463.18,-31.98 464.37,-31.4 465.56,-30.79"/>
<polygon fill="red" stroke="red" stroke-width="0.61" points="467.44,-33.75 474.51,-25.86 464.06,-27.63 467.44,-33.75"/>
</g>
<!-- &#45;13&#45;&gt;2 -->
<g id="edge32" class="edge">
<title>&#45;13&#45;&gt;2</title>
<path fill="none" stroke="red" stroke-width="0.39" d="M352.08,-71.18C355.04,-70.25 358.1,-69.33 361,-68.53 427.89,-49.93 448.57,-58.39 513,-32.53 514.23,-32.03 515.47,-31.49 516.71,-30.91"/>
<polygon fill="red" stroke="red" stroke-width="0.39" points="518.74,-33.79 525.9,-25.98 515.43,-27.62 518.74,-33.79"/>
</g>
<!-- &#45;13&#45;&gt;3 -->
<g id="edge5" class="edge">
<title>&#45;13&#45;&gt;3</title>
<path fill="none" stroke="green" stroke-width="0.25" d="M342.95,-68.29C349.79,-60.18 360.5,-47.49 369.52,-36.79"/>
<polygon fill="green" stroke="green" stroke-width="0.25" points="372.23,-39.01 376,-29.11 366.88,-34.5 372.23,-39.01"/>
</g>
<!-- &#45;13&#45;&gt;4 -->
<g id="edge93" class="edge">
<title>&#45;13&#45;&gt;4</title>
<path fill="none" stroke="red" stroke-width="0.66" d="M335.86,-68.29C335.75,-61.7 335.59,-52.1 335.43,-43"/>
<polygon fill="red" stroke="red" stroke-width="0.66" points="338.93,-42.7 335.26,-32.76 331.93,-42.81 338.93,-42.7"/>
</g>
<!-- &#45;14 -->
<g id="node14" class="node">
<title>&#45;14</title>
<polygon fill="lightgray" stroke="black" points="402,-86.53 370,-86.53 370,-68.53 402,-68.53 402,-86.53"/>
<text text-anchor="middle" x="386" y="-75.33" font-family="Times,serif" font-size="9.00">&#45;14</text>
</g>
<!-- &#45;14&#45;&gt;0 -->
<g id="edge16" class="edge">
<title>&#45;14&#45;&gt;0</title>
<path fill="none" stroke="red" stroke-width="0.22" d="M393.09,-68.29C400.07,-60.18 410.99,-47.49 420.19,-36.79"/>
<polygon fill="red" stroke="red" stroke-width="0.22" points="422.93,-38.98 426.8,-29.11 417.63,-34.41 422.93,-38.98"/>
</g>
<!-- &#45;14&#45;&gt;1 -->
<g id="edge44" class="edge">
<title>&#45;14&#45;&gt;1</title>
<path fill="none" stroke="red" stroke-width="0.12" d="M400.02,-68.44C415.28,-59.64 440.4,-45.12 462,-32.53 463.12,-31.87 464.26,-31.21 465.42,-30.53"/>
<polygon fill="red" stroke="red" stroke-width="0.12" points="467.39,-33.43 474.25,-25.36 463.85,-27.39 467.39,-33.43"/>
</g>
<!-- &#45;14&#45;&gt;2 -->
<g id="edge53" class="edge">
<title>&#45;14&#45;&gt;2</title>
<path fill="none" stroke="green" stroke-width="0.4" d="M402.03,-71.41C431.39,-61.97 492.66,-41.91 513,-32.53 514.18,-31.98 515.37,-31.4 516.56,-30.8"/>
<polygon fill="green" stroke="green" stroke-width="0.4" points="518.44,-33.76 525.51,-25.86 515.06,-27.63 518.44,-33.76"/>
</g>
<!-- &#45;14&#45;&gt;3 -->
<g id="edge83" class="edge">
<title>&#45;14&#45;&gt;3</title>
<path fill="none" stroke="red" stroke-width="0.28" d="M386,-68.29C386,-61.7 386,-52.1 386,-43"/>
<polygon fill="red" stroke="red" stroke-width="0.28" points="389.5,-42.76 386,-32.76 382.5,-42.76 389.5,-42.76"/>
</g>
<!-- &#45;14&#45;&gt;4 -->
<g id="edge94" class="edge">
<title>&#45;14&#45;&gt;4</title>
<path fill="none" stroke="red" stroke-width="0.21" d="M378.91,-68.29C371.93,-60.18 361.01,-47.49 351.81,-36.79"/>
<polygon fill="red" stroke="red" stroke-width="0.21" points="354.37,-34.41 345.2,-29.11 349.07,-38.98 354.37,-34.41"/>
</g>
<!-- &#45;15 -->
<g id="node15" class="node">
<title>&#45;15</title>
<polygon fill="lightgray" stroke="black" points="452,-86.53 420,-86.53 420,-68.53 452,-68.53 452,-86.53"/>
<text text-anchor="middle" x="436" y="-75.33" font-family="Times,serif" font-size="9.00">&#45;15</text>
</g>
<!-- &#45;15&#45;&gt;0 -->
<g id="edge62" class="edge">
<title>&#45;15&#45;&gt;0</title>
<path fill="none" stroke="red" stroke-width="0.81" stroke-dasharray="1,5" d="M436.14,-68.29C436.25,-61.7 436.41,-52.1 436.57,-43"/>
<polygon fill="red" stroke="red" stroke-width="0.81" points="440.07,-42.81 436.74,-32.76 433.07,-42.7 440.07,-42.81"/>
</g>
<!-- &#45;15&#45;&gt;1 -->
<g id="edge31" class="edge">
<title>&#45;15&#45;&gt;1</title>
<path fill="none" stroke="green" stroke-width="0.22" d="M443.23,-68.29C450.35,-60.18 461.48,-47.49 470.86,-36.79"/>
<polygon fill="green" stroke="green" stroke-width="0.22" points="473.64,-38.94 477.6,-29.11 468.38,-34.32 473.64,-38.94"/>
</g>
<!-- &#45;15&#45;&gt;2 -->
<g id="edge3" class="edge">
<title>&#45;15&#45;&gt;2</title>
<path fill="none" stroke="green" stroke-width="0.39" d="M450.22,-68.47C465.69,-59.68 491.15,-45.18 513,-32.53 514.12,-31.88 515.27,-31.21 516.43,-30.54"/>
<polygon fill="green" stroke="green" stroke-width="0.39" points="518.39,-33.44 525.25,-25.37 514.86,-27.4 518.39,-33.44"/>
</g>
<!-- &#45;15&#45;&gt;3 -->
<g id="edge71" class="edge">
<title>&#45;15&#45;&gt;3</title>
<path fill="none" stroke="green" stroke-width="0.13" d="M429.05,-68.29C422.21,-60.18 411.5,-47.49 402.48,-36.79"/>
<polygon fill="green" stroke="green" stroke-width="0.13" points="405.12,-34.5 396,-29.11 399.77,-39.01 405.12,-34.5"/>
</g>
<!-- &#45;15&#45;&gt;4 -->
<g id="edge81" class="edge">
<title>&#45;15&#45;&gt;4</title>
<path fill="none" stroke="red" stroke-width="0.73" d="M421.96,-68.29C405.2,-58.46 376.99,-41.9 357.26,-30.32"/>
<polygon fill="red" stroke="red" stroke-width="0.73" points="359,-27.29 348.6,-25.24 355.46,-33.32 359,-27.29"/>
</g>
<!-- &#45;16 -->
<g id="node16" class="node">
<title>&#45;16</title>
<polygon fill="lightgray" stroke="black" points="928,-86.53 896,-86.53 896,-68.53 928,-68.53 928,-86.53"/>
<text text-anchor="middle" x="912" y="-75.33" font-family="Times,serif" font-size="9.00">&#45;16</text>
</g>
<!-- &#45;16&#45;&gt;0 -->
<g id="edge11" class="edge">
<title>&#45;16&#45;&gt;0</title>
<path fill="none" stroke="green" stroke-width="0.14" d="M895.73,-70.74C892.85,-69.88 889.86,-69.1 887,-68.53 701.54,-31.47 643.24,-89.82 463,-32.53 461.74,-32.13 460.47,-31.65 459.21,-31.13"/>
<polygon fill="green" stroke="green" stroke-width="0.14" points="460.45,-27.83 449.96,-26.39 457.26,-34.07 460.45,-27.83"/>
</g>
<!-- &#45;16&#45;&gt;1 -->
<g id="edge39" class="edge">
<title>&#45;16&#45;&gt;1</title>
<path fill="none" stroke="red" stroke-width="0.56" d="M896,-70.85C893.03,-69.96 889.95,-69.13 887,-68.53 723.87,-34.96 672.43,-83.89 514,-32.53 512.74,-32.12 511.47,-31.64 510.22,-31.11"/>
<polygon fill="red" stroke="red" stroke-width="0.56" points="511.46,-27.82 500.97,-26.36 508.26,-34.04 511.46,-27.82"/>
</g>
<!-- &#45;16&#45;&gt;2 -->
<g id="edge70" class="edge">
<title>&#45;16&#45;&gt;2</title>
<path fill="none" stroke="red" stroke-width="0.49" d="M895.97,-70.97C893.01,-70.07 889.93,-69.21 887,-68.53 768.52,-41.04 623.76,-25.29 565.32,-19.66"/>
<polygon fill="red" stroke="red" stroke-width="0.49" points="565.42,-16.15 555.13,-18.69 564.76,-23.12 565.42,-16.15"/>
</g>
<!-- &#45;16&#45;&gt;3 -->
<g id="edge2" class="edge">
<title>&#45;16&#45;&gt;3</title>
<path fill="none" stroke="green" stroke-width="0.38" d="M895.74,-70.72C892.86,-69.86 889.86,-69.09 887,-68.53 679.2,-27.99 614.06,-95.75 412,-32.53 410.74,-32.13 409.47,-31.66 408.21,-31.14"/>
<polygon fill="green" stroke="green" stroke-width="0.38" points="409.45,-27.85 398.95,-26.42 406.26,-34.08 409.45,-27.85"/>
</g>
<!-- &#45;17 -->
<g id="node17" class="node">
<title>&#45;17</title>
<polygon fill="lightgray" stroke="black" points="502,-86.53 470,-86.53 470,-68.53 502,-68.53 502,-86.53"/>
<text text-anchor="middle" x="486" y="-75.33" font-family="Times,serif" font-size="9.00">&#45;17</text>
</g>
<!-- &#45;17&#45;&gt;0 -->
<g id="edge25" class="edge">
<title>&#45;17&#45;&gt;0</title>
<path fill="none" stroke="red" stroke-width="0.15" d="M479.19,-68.29C472.63,-60.36 462.45,-48.05 453.74,-37.51"/>
<polygon fill="red" stroke="red" stroke-width="0.15" points="456.23,-35.03 447.16,-29.55 450.84,-39.49 456.23,-35.03"/>
</g>
<!-- &#45;17&#45;&gt;1 -->
<g id="edge76" class="edge">
<title>&#45;17&#45;&gt;1</title>
<path fill="none" stroke="red" stroke-width="0.23" d="M486.28,-68.29C486.5,-61.7 486.82,-52.1 487.13,-43"/>
<polygon fill="red" stroke="red" stroke-width="0.23" points="490.64,-42.87 487.48,-32.76 483.64,-42.63 490.64,-42.87"/>
</g>
<!-- &#45;17&#45;&gt;2 -->
<g id="edge84" class="edge">
<title>&#45;17&#45;&gt;2</title>
<path fill="none" stroke="green" stroke-width="0.31" d="M493.37,-68.29C500.62,-60.18 511.97,-47.49 521.53,-36.79"/>
<polygon fill="green" stroke="green" stroke-width="0.31" points="524.34,-38.9 528.4,-29.11 519.13,-34.23 524.34,-38.9"/>
</g>
<!-- &#45;17&#45;&gt;3 -->
<g id="edge54" class="edge">
<title>&#45;17&#45;&gt;3</title>
<path fill="none" stroke="red" stroke-width="0.51" d="M472.1,-68.29C455.68,-58.56 428.14,-42.24 408.63,-30.68"/>
<polygon fill="red" stroke="red" stroke-width="0.51" points="410.17,-27.52 399.79,-25.43 406.6,-33.54 410.17,-27.52"/>
</g>
<!-- &#45;17&#45;&gt;4 -->
<g id="edge27" class="edge">
<title>&#45;17&#45;&gt;4</title>
<path fill="none" stroke="green" stroke-width="0.46" d="M469.77,-71.25C440.7,-61.72 380.93,-41.78 361,-32.53 359.82,-31.98 358.63,-31.4 357.44,-30.79"/>
<polygon fill="green" stroke="green" stroke-width="0.46" points="358.94,-27.62 348.5,-25.85 355.56,-33.75 358.94,-27.62"/>
</g>
<!-- &#45;18 -->
<g id="node18" class="node">
<title>&#45;18</title>
<polygon fill="lightgray" stroke="black" points="552,-86.53 520,-86.53 520,-68.53 552,-68.53 552,-86.53"/>
<text text-anchor="middle" x="536" y="-75.33" font-family="Times,serif" font-size="9.00">&#45;18</text>
</g>
<!-- &#45;18&#45;&gt;0 -->
<g id="edge72" class="edge">
<title>&#45;18&#45;&gt;0</title>
<path fill="none" stroke="green" stroke-width="0.34" d="M522.23,-68.29C505.98,-58.56 478.72,-42.24 459.41,-30.68"/>
<polygon fill="green" stroke="green" stroke-width="0.34" points="461.03,-27.57 450.65,-25.43 457.43,-33.57 461.03,-27.57"/>
</g>
<!-- &#45;18&#45;&gt;1 -->
<g id="edge4" class="edge">
<title>&#45;18&#45;&gt;1</title>
<path fill="none" stroke="green" stroke-width="0.5" d="M529.33,-68.29C522.9,-60.36 512.93,-48.05 504.4,-37.51"/>
<polygon fill="green" stroke="green" stroke-width="0.5" points="506.97,-35.12 497.95,-29.55 501.53,-39.53 506.97,-35.12"/>
</g>
<!-- &#45;18&#45;&gt;2 -->
<g id="edge12" class="edge">
<title>&#45;18&#45;&gt;2</title>
<path fill="none" stroke="green" stroke-width="0.21" d="M536.42,-68.29C536.75,-61.7 537.24,-52.1 537.7,-43"/>
<polygon fill="green" stroke="green" stroke-width="0.21" points="541.21,-42.92 538.22,-32.76 534.21,-42.57 541.21,-42.92"/>
</g>
<!-- &#45;18&#45;&gt;3 -->
<g id="edge41" class="edge">
<title>&#45;18&#45;&gt;3</title>
<path fill="none" stroke="green" stroke-width="0.47" d="M519.9,-71.24C491.07,-61.7 431.77,-41.74 412,-32.53 410.83,-31.98 409.64,-31.4 408.44,-30.79"/>
<polygon fill="green" stroke="green" stroke-width="0.47" points="409.95,-27.62 399.5,-25.84 406.56,-33.74 409.95,-27.62"/>
</g>
<!-- &#45;18&#45;&gt;4 -->
<g id="edge91" class="edge">
<title>&#45;18&#45;&gt;4</title>
<path fill="none" stroke="green" stroke-width="0.35" d="M519.91,-71.19C516.96,-70.26 513.9,-69.34 511,-68.53 444.97,-50.07 424.59,-58.16 361,-32.53 359.77,-32.03 358.53,-31.48 357.29,-30.9"/>
<polygon fill="green" stroke="green" stroke-width="0.35" points="358.57,-27.62 348.11,-25.97 355.26,-33.78 358.57,-27.62"/>
</g>
<!-- &#45;19 -->
<g id="node19" class="node">
<title>&#45;19</title>
<polygon fill="lightgray" stroke="black" points="602,-86.53 570,-86.53 570,-68.53 602,-68.53 602,-86.53"/>
<text text-anchor="middle" x="586" y="-75.33" font-family="Times,serif" font-size="9.00">&#45;19</text>
</g>
<!-- &#45;19&#45;&gt;0 -->
<g id="edge15" class="edge">
<title>&#45;19&#45;&gt;0</title>
<path fill="none" stroke="red" stroke-width="0.24" d="M569.58,-71.08C540.82,-61.47 482.52,-41.65 463,-32.53 461.83,-31.98 460.64,-31.39 459.44,-30.78"/>
<polygon fill="red" stroke="red" stroke-width="0.24" points="460.95,-27.62 450.5,-25.84 457.56,-33.74 460.95,-27.62"/>
</g>
<!-- &#45;19&#45;&gt;1 -->
<g id="edge82" class="edge">
<title>&#45;19&#45;&gt;1</title>
<path fill="none" stroke="red" stroke-width="0.57" d="M572.37,-68.29C556.28,-58.56 529.3,-42.24 510.18,-30.68"/>
<polygon fill="red" stroke="red" stroke-width="0.57" points="511.88,-27.61 501.51,-25.43 508.26,-33.6 511.88,-27.61"/>
</g>
<!-- &#45;19&#45;&gt;2 -->
<g id="edge52" class="edge">
<title>&#45;19&#45;&gt;2</title>
<path fill="none" stroke="green" stroke-width="0.38" d="M579.46,-68.29C573.18,-60.36 563.42,-48.05 555.06,-37.51"/>
<polygon fill="green" stroke="green" stroke-width="0.38" points="557.7,-35.21 548.75,-29.55 552.22,-39.56 557.7,-35.21"/>
</g>
<!-- &#45;19&#45;&gt;3 -->
<g id="edge24" class="edge">
<title>&#45;19&#45;&gt;3</title>
<path fill="none" stroke="green" stroke-width="0.16" d="M569.91,-71.19C566.96,-70.26 563.9,-69.34 561,-68.53 495.4,-50.13 475.17,-58.05 412,-32.53 410.77,-32.03 409.53,-31.48 408.3,-30.9"/>
<polygon fill="green" stroke="green" stroke-width="0.16" points="409.58,-27.61 399.11,-25.97 406.26,-33.78 409.58,-27.61"/>
</g>
<!-- &#45;19&#45;&gt;4 -->
<g id="edge92" class="edge">
<title>&#45;19&#45;&gt;4</title>
<path fill="none" stroke="green" stroke-width="0.35" stroke-dasharray="1,5" d="M569.95,-71.05C566.99,-70.14 563.92,-69.25 561,-68.53 473.36,-46.72 445.7,-63.88 361,-32.53 359.76,-32.07 358.51,-31.55 357.26,-30.99"/>
<polygon fill="green" stroke="green" stroke-width="0.35" points="358.52,-27.7 348.05,-26.13 355.26,-33.89 358.52,-27.7"/>
</g>
<!-- &#45;20 -->
<g id="node20" class="node">
<title>&#45;20</title>
<polygon fill="lightgray" stroke="black" points="878,-86.53 846,-86.53 846,-68.53 878,-68.53 878,-86.53"/>
<text text-anchor="middle" x="862" y="-75.33" font-family="Times,serif" font-size="9.00">&#45;20</text>
</g>
<!-- &#45;20&#45;&gt;0 -->
<g id="edge61" class="edge">
<title>&#45;20&#45;&gt;0</title>
<path fill="none" stroke="red" stroke-width="0.21" d="M846,-70.85C843.03,-69.96 839.95,-69.13 837,-68.53 673.43,-34.89 621.86,-84.01 463,-32.53 461.74,-32.12 460.47,-31.64 459.22,-31.11"/>
<polygon fill="red" stroke="red" stroke-width="0.21" points="460.46,-27.82 449.97,-26.36 457.26,-34.04 460.46,-27.82"/>
</g>
<!-- &#45;20&#45;&gt;1 -->
<g id="edge90" class="edge">
<title>&#45;20&#45;&gt;1</title>
<path fill="none" stroke="green" stroke-width="0.5" d="M845.99,-70.89C843.03,-69.99 839.94,-69.15 837,-68.53 695.74,-38.37 651.07,-78.09 514,-32.53 512.74,-32.11 511.48,-31.62 510.22,-31.09"/>
<polygon fill="green" stroke="green" stroke-width="0.5" points="511.47,-27.8 500.98,-26.32 508.26,-34.02 511.47,-27.8"/>
</g>
<!-- &#45;20&#45;&gt;2 -->
<g id="edge23" class="edge">
<title>&#45;20&#45;&gt;2</title>
<path fill="none" stroke="red" stroke-width="0.25" d="M845.96,-71.03C843,-70.12 839.92,-69.24 837,-68.53 737.98,-44.29 617.72,-27.33 565.41,-20.55"/>
<polygon fill="red" stroke="red" stroke-width="0.25" points="565.68,-17.05 555.31,-19.26 564.79,-24 565.68,-17.05"/>
</g>
<!-- &#45;20&#45;&gt;3 -->
<g id="edge51" class="edge">
<title>&#45;20&#45;&gt;3</title>
<path fill="none" stroke="green" stroke-width="0.22" d="M845.73,-70.74C842.85,-69.88 839.86,-69.1 837,-68.53 651.11,-31.4 592.66,-89.94 412,-32.53 410.74,-32.13 409.47,-31.65 408.21,-31.13"/>
<polygon fill="green" stroke="green" stroke-width="0.22" points="409.45,-27.83 398.96,-26.39 406.26,-34.07 409.45,-27.83"/>
</g>
</g>
</svg>
