<?xml version="1.0" encoding="UTF-8" standalone="no"?>
<!DOCTYPE svg PUBLIC "-//W3C//DTD SVG 1.1//EN"
 "http://www.w3.org/Graphics/SVG/1.1/DTD/svg11.dtd">
<!-- Generated by graphviz version 2.49.0 (20210828.1703)
 -->
<!-- Pages: 1 -->
<svg width="888pt" height="92pt"
 viewBox="0.00 0.00 887.50 91.70" xmlns="http://www.w3.org/2000/svg" xmlns:xlink="http://www.w3.org/1999/xlink">
<g id="graph0" class="graph" transform="scale(1 1) rotate(0) translate(4 87.7)">
<polygon fill="white" stroke="transparent" points="-4,4 -4,-87.7 883.5,-87.7 883.5,4 -4,4"/>
<!-- &#45;1 -->
<g id="node1" class="node">
<title>&#45;1</title>
<polygon fill="lightgray" stroke="black" points="705.5,-83.7 681.5,-83.7 681.5,-65.7 705.5,-65.7 705.5,-83.7"/>
<text text-anchor="middle" x="693.5" y="-72.5" font-family="Times New Roman,serif" font-size="9.00">&#45;1</text>
</g>
<!-- 0 -->
<g id="node21" class="node">
<title>0</title>
<ellipse fill="lightblue" stroke="black" cx="458.5" cy="-14.85" rx="14.7" ry="14.7"/>
<text text-anchor="middle" x="458.5" y="-12.65" font-family="Times New Roman,serif" font-size="9.00">0</text>
</g>
<!-- &#45;1&#45;&gt;0 -->
<g id="edge1" class="edge">
<title>&#45;1&#45;&gt;0</title>
<path fill="none" stroke="red" stroke-width="0.22" d="M681.19,-68.59C678.36,-67.54 675.35,-66.51 672.5,-65.7 589.8,-42.31 563.08,-59.6 482.5,-29.7 481.63,-29.38 480.76,-29.02 479.89,-28.65"/>
<polygon fill="red" stroke="red" stroke-width="0.22" points="481.31,-25.45 470.81,-24.01 478.12,-31.68 481.31,-25.45"/>
</g>
<!-- 1 -->
<g id="node22" class="node">
<title>1</title>
<ellipse fill="lightblue" stroke="black" cx="506.5" cy="-14.85" rx="14.7" ry="14.7"/>
<text text-anchor="middle" x="506.5" y="-12.65" font-family="Times New Roman,serif" font-size="9.00">1</text>
</g>
<!-- &#45;1&#45;&gt;1 -->
<g id="edge2" class="edge">
<title>&#45;1&#45;&gt;1</title>
<path fill="none" stroke="green" stroke-width="0.29" d="M681.15,-68.72C678.33,-67.66 675.33,-66.59 672.5,-65.7 610.42,-46.08 590.82,-54.2 530.5,-29.7 529.64,-29.35 528.78,-28.98 527.91,-28.58"/>
<polygon fill="green" stroke="green" stroke-width="0.29" points="529.36,-25.39 518.87,-23.86 526.11,-31.59 529.36,-25.39"/>
</g>
<!-- 2 -->
<g id="node23" class="node">
<title>2</title>
<ellipse fill="lightblue" stroke="black" cx="362.5" cy="-14.85" rx="14.7" ry="14.7"/>
<text text-anchor="middle" x="362.5" y="-12.65" font-family="Times New Roman,serif" font-size="9.00">2</text>
</g>
<!-- &#45;1&#45;&gt;2 -->
<g id="edge3" class="edge">
<title>&#45;1&#45;&gt;2</title>
<path fill="none" stroke="red" stroke-width="0.68" d="M681.22,-68.46C678.4,-67.41 675.38,-66.42 672.5,-65.7 548.2,-34.67 507.94,-70.52 386.5,-29.7 385.62,-29.4 384.74,-29.07 383.86,-28.72"/>
<polygon fill="red" stroke="red" stroke-width="0.68" points="385.27,-25.51 374.76,-24.17 382.14,-31.77 385.27,-25.51"/>
</g>
<!-- 3 -->
<g id="node24" class="node">
<title>3</title>
<ellipse fill="lightblue" stroke="black" cx="410.5" cy="-14.85" rx="14.7" ry="14.7"/>
<text text-anchor="middle" x="410.5" y="-12.65" font-family="Times New Roman,serif" font-size="9.00">3</text>
</g>
<!-- &#45;1&#45;&gt;3 -->
<g id="edge4" class="edge">
<title>&#45;1&#45;&gt;3</title>
<path fill="none" stroke="green" stroke-width="0.24" d="M681.21,-68.51C678.38,-67.46 675.37,-66.45 672.5,-65.7 569.03,-38.5 535.47,-65.05 434.5,-29.7 433.63,-29.39 432.75,-29.05 431.87,-28.69"/>
<polygon fill="green" stroke="green" stroke-width="0.24" points="433.28,-25.48 422.78,-24.11 430.13,-31.73 433.28,-25.48"/>
</g>
<!-- 4 -->
<g id="node25" class="node">
<title>4</title>
<ellipse fill="lightblue" stroke="black" cx="554.5" cy="-14.85" rx="14.7" ry="14.7"/>
<text text-anchor="middle" x="554.5" y="-12.65" font-family="Times New Roman,serif" font-size="9.00">4</text>
</g>
<!-- &#45;1&#45;&gt;4 -->
<g id="edge5" class="edge">
<title>&#45;1&#45;&gt;4</title>
<path fill="none" stroke="red" stroke-width="0.68" d="M681.16,-68.56C657.99,-58.92 607.59,-37.94 577.82,-25.56"/>
<polygon fill="red" stroke="red" stroke-width="0.68" points="578.81,-22.18 568.23,-21.57 576.12,-28.64 578.81,-22.18"/>
</g>
<!-- &#45;2 -->
<g id="node2" class="node">
<title>&#45;2</title>
<polygon fill="lightgray" stroke="black" points="113.5,-83.7 89.5,-83.7 89.5,-65.7 113.5,-65.7 113.5,-83.7"/>
<text text-anchor="middle" x="101.5" y="-72.5" font-family="Times New Roman,serif" font-size="9.00">&#45;2</text>
</g>
<!-- &#45;2&#45;&gt;0 -->
<g id="edge6" class="edge">
<title>&#45;2&#45;&gt;0</title>
<path fill="none" stroke="green" stroke-width="0.25" d="M113.77,-68.44C116.6,-67.39 119.62,-66.4 122.5,-65.7 258.1,-32.6 301.96,-73.49 434.5,-29.7 435.38,-29.41 436.26,-29.08 437.14,-28.73"/>
<polygon fill="green" stroke="green" stroke-width="0.25" points="438.86,-31.79 446.25,-24.2 435.74,-25.52 438.86,-31.79"/>
</g>
<!-- &#45;2&#45;&gt;2 -->
<g id="edge7" class="edge">
<title>&#45;2&#45;&gt;2</title>
<path fill="none" stroke="red" stroke-width="0.57" d="M113.83,-68.63C116.65,-67.57 119.65,-66.53 122.5,-65.7 199.88,-43.08 294.17,-26.64 337.96,-19.62"/>
<polygon fill="red" stroke="red" stroke-width="0.57" points="338.63,-23.06 347.97,-18.04 337.54,-16.14 338.63,-23.06"/>
</g>
<!-- &#45;2&#45;&gt;3 -->
<g id="edge8" class="edge">
<title>&#45;2&#45;&gt;3</title>
<path fill="none" stroke="green" stroke-width="0.19" d="M113.79,-68.48C116.61,-67.43 119.63,-66.43 122.5,-65.7 237.25,-36.43 274.45,-68.01 386.5,-29.7 387.38,-29.4 388.26,-29.07 389.13,-28.71"/>
<polygon fill="green" stroke="green" stroke-width="0.19" points="390.86,-31.76 398.23,-24.14 387.73,-25.5 390.86,-31.76"/>
</g>
<!-- &#45;2&#45;&gt;4 -->
<g id="edge9" class="edge">
<title>&#45;2&#45;&gt;4</title>
<path fill="none" stroke="green" stroke-width="0.29" d="M113.76,-68.38C116.59,-67.34 119.61,-66.36 122.5,-65.7 299.91,-24.91 356.9,-84.48 530.5,-29.7 531.56,-29.37 532.61,-28.98 533.67,-28.56"/>
<polygon fill="green" stroke="green" stroke-width="0.29" points="535.41,-31.6 542.77,-23.98 532.26,-25.35 535.41,-31.6"/>
</g>
<!-- &#45;3 -->
<g id="node3" class="node">
<title>&#45;3</title>
<polygon fill="lightgray" stroke="black" points="747.5,-83.7 723.5,-83.7 723.5,-65.7 747.5,-65.7 747.5,-83.7"/>
<text text-anchor="middle" x="735.5" y="-72.5" font-family="Times New Roman,serif" font-size="9.00">&#45;3</text>
</g>
<!-- &#45;3&#45;&gt;0 -->
<g id="edge10" class="edge">
<title>&#45;3&#45;&gt;0</title>
<path fill="none" stroke="red" stroke-width="0.64" d="M723.2,-68.52C720.38,-67.47 717.37,-66.46 714.5,-65.7 613.63,-38.98 580.92,-64.36 482.5,-29.7 481.63,-29.39 480.75,-29.05 479.87,-28.69"/>
<polygon fill="red" stroke="red" stroke-width="0.64" points="481.29,-25.48 470.78,-24.1 478.13,-31.73 481.29,-25.48"/>
</g>
<!-- &#45;3&#45;&gt;1 -->
<g id="edge11" class="edge">
<title>&#45;3&#45;&gt;1</title>
<path fill="none" stroke="red" stroke-width="0.45" d="M723.18,-68.6C720.36,-67.55 717.35,-66.51 714.5,-65.7 634.38,-42.78 608.54,-58.92 530.5,-29.7 529.63,-29.37 528.76,-29.02 527.89,-28.64"/>
<polygon fill="red" stroke="red" stroke-width="0.45" points="529.32,-25.44 518.82,-24 526.12,-31.67 529.32,-25.44"/>
</g>
<!-- &#45;3&#45;&gt;2 -->
<g id="edge12" class="edge">
<title>&#45;3&#45;&gt;2</title>
<path fill="none" stroke="red" stroke-width="0.33" d="M723.23,-68.43C720.4,-67.38 717.38,-66.39 714.5,-65.7 571.93,-31.32 525.88,-75.32 386.5,-29.7 385.62,-29.41 384.74,-29.09 383.86,-28.74"/>
<polygon fill="red" stroke="red" stroke-width="0.33" points="385.26,-25.52 374.74,-24.21 382.14,-31.79 385.26,-25.52"/>
</g>
<!-- &#45;3&#45;&gt;3 -->
<g id="edge13" class="edge">
<title>&#45;3&#45;&gt;3</title>
<path fill="none" stroke="red" stroke-width="0.1" d="M723.22,-68.47C720.4,-67.42 717.38,-66.42 714.5,-65.7 592.81,-35.15 553.38,-69.84 434.5,-29.7 433.62,-29.4 432.74,-29.07 431.86,-28.72"/>
<polygon fill="red" stroke="red" stroke-width="0.1" points="433.27,-25.51 422.76,-24.16 430.14,-31.77 433.27,-25.51"/>
</g>
<!-- &#45;3&#45;&gt;4 -->
<g id="edge14" class="edge">
<title>&#45;3&#45;&gt;4</title>
<path fill="none" stroke="green" stroke-width="0.58" stroke-dasharray="1,5" d="M723.11,-68.83C720.29,-67.77 717.3,-66.67 714.5,-65.7 666.57,-49.12 609.74,-32.01 578.34,-22.78"/>
<polygon fill="green" stroke="green" stroke-width="0.58" points="579.3,-19.41 568.72,-19.96 577.34,-26.13 579.3,-19.41"/>
</g>
<!-- &#45;4 -->
<g id="node4" class="node">
<title>&#45;4</title>
<polygon fill="lightgray" stroke="black" points="789.5,-83.7 765.5,-83.7 765.5,-65.7 789.5,-65.7 789.5,-83.7"/>
<text text-anchor="middle" x="777.5" y="-72.5" font-family="Times New Roman,serif" font-size="9.00">&#45;4</text>
</g>
<!-- &#45;4&#45;&gt;0 -->
<g id="edge15" class="edge">
<title>&#45;4&#45;&gt;0</title>
<path fill="none" stroke="red" stroke-width="0.53" d="M765.22,-68.47C762.39,-67.42 759.37,-66.42 756.5,-65.7 637.41,-35.63 598.82,-69.15 482.5,-29.7 481.62,-29.4 480.74,-29.07 479.86,-28.71"/>
<polygon fill="red" stroke="red" stroke-width="0.53" points="481.27,-25.5 470.76,-24.16 478.14,-31.76 481.27,-25.5"/>
</g>
<!-- &#45;4&#45;&gt;1 -->
<g id="edge16" class="edge">
<title>&#45;4&#45;&gt;1</title>
<path fill="none" stroke="green" stroke-width="0.32" d="M765.2,-68.53C762.38,-67.48 759.36,-66.46 756.5,-65.7 658.23,-39.46 626.37,-63.68 530.5,-29.7 529.63,-29.39 528.75,-29.05 527.87,-28.68"/>
<polygon fill="green" stroke="green" stroke-width="0.32" points="529.29,-25.48 518.79,-24.09 526.13,-31.72 529.29,-25.48"/>
</g>
<!-- &#45;4&#45;&gt;2 -->
<g id="edge17" class="edge">
<title>&#45;4&#45;&gt;2</title>
<path fill="none" stroke="green" stroke-width="1.09" d="M765.23,-68.4C762.41,-67.36 759.39,-66.38 756.5,-65.7 595.65,-27.95 543.84,-80.13 386.5,-29.7 385.45,-29.36 384.39,-28.97 383.34,-28.54"/>
<polygon fill="green" stroke="green" stroke-width="1.09" points="384.74,-25.33 374.24,-23.95 381.59,-31.58 384.74,-25.33"/>
</g>
<!-- &#45;4&#45;&gt;4 -->
<g id="edge18" class="edge">
<title>&#45;4&#45;&gt;4</title>
<path fill="none" stroke="green" stroke-width="0.15" stroke-dasharray="1,5" d="M765.15,-68.71C762.33,-67.65 759.33,-66.58 756.5,-65.7 693.43,-45.98 617.34,-28.99 579.05,-20.89"/>
<polygon fill="green" stroke="green" stroke-width="0.15" points="579.37,-17.39 568.87,-18.76 577.94,-24.24 579.37,-17.39"/>
</g>
<!-- &#45;5 -->
<g id="node5" class="node">
<title>&#45;5</title>
<polygon fill="lightgray" stroke="black" points="155.5,-83.7 131.5,-83.7 131.5,-65.7 155.5,-65.7 155.5,-83.7"/>
<text text-anchor="middle" x="143.5" y="-72.5" font-family="Times New Roman,serif" font-size="9.00">&#45;5</text>
</g>
<!-- &#45;5&#45;&gt;0 -->
<g id="edge19" class="edge">
<title>&#45;5&#45;&gt;0</title>
<path fill="none" stroke="green" stroke-width="0.16" d="M155.78,-68.48C158.61,-67.43 161.63,-66.43 164.5,-65.7 281.85,-35.95 319.89,-68.69 434.5,-29.7 435.38,-29.4 436.26,-29.07 437.14,-28.71"/>
<polygon fill="green" stroke="green" stroke-width="0.16" points="438.86,-31.76 446.24,-24.15 435.73,-25.5 438.86,-31.76"/>
</g>
<!-- &#45;5&#45;&gt;1 -->
<g id="edge20" class="edge">
<title>&#45;5&#45;&gt;1</title>
<path fill="none" stroke="red" stroke-width="0.24" d="M155.77,-68.43C158.6,-67.39 161.62,-66.4 164.5,-65.7 302.71,-32.12 347.4,-74.18 482.5,-29.7 483.38,-29.41 484.26,-29.08 485.14,-28.73"/>
<polygon fill="red" stroke="red" stroke-width="0.24" points="486.86,-31.79 494.25,-24.2 483.74,-25.52 486.86,-31.79"/>
</g>
<!-- &#45;5&#45;&gt;2 -->
<g id="edge21" class="edge">
<title>&#45;5&#45;&gt;2</title>
<path fill="none" stroke="red" stroke-width="0.27" d="M155.85,-68.72C158.67,-67.66 161.67,-66.59 164.5,-65.7 226.04,-46.3 300.17,-29.29 337.88,-21.07"/>
<polygon fill="red" stroke="red" stroke-width="0.27" points="338.89,-24.43 347.93,-18.9 337.41,-17.59 338.89,-24.43"/>
</g>
<!-- &#45;5&#45;&gt;3 -->
<g id="edge22" class="edge">
<title>&#45;5&#45;&gt;3</title>
<path fill="none" stroke="green" stroke-width="0.15" d="M155.8,-68.54C158.62,-67.49 161.64,-66.47 164.5,-65.7 261.03,-39.77 292.34,-63.23 386.5,-29.7 387.37,-29.39 388.25,-29.05 389.13,-28.68"/>
<polygon fill="green" stroke="green" stroke-width="0.15" points="390.87,-31.72 398.21,-24.08 387.71,-25.47 390.87,-31.72"/>
</g>
<!-- &#45;5&#45;&gt;4 -->
<g id="edge23" class="edge">
<title>&#45;5&#45;&gt;4</title>
<path fill="none" stroke="red" stroke-width="0.34" d="M155.77,-68.4C158.59,-67.36 161.61,-66.38 164.5,-65.7 323.61,-28.27 374.87,-79.67 530.5,-29.7 531.55,-29.36 532.61,-28.97 533.66,-28.54"/>
<polygon fill="red" stroke="red" stroke-width="0.34" points="535.41,-31.58 542.76,-23.95 532.25,-25.33 535.41,-31.58"/>
</g>
<!-- &#45;6 -->
<g id="node6" class="node">
<title>&#45;6</title>
<polygon fill="lightgray" stroke="black" points="71.5,-83.7 47.5,-83.7 47.5,-65.7 71.5,-65.7 71.5,-83.7"/>
<text text-anchor="middle" x="59.5" y="-72.5" font-family="Times New Roman,serif" font-size="9.00">&#45;6</text>
</g>
<!-- &#45;6&#45;&gt;0 -->
<g id="edge24" class="edge">
<title>&#45;6&#45;&gt;0</title>
<path fill="none" stroke="green" stroke-width="0.77" d="M71.77,-68.41C74.59,-67.36 77.61,-66.38 80.5,-65.7 234.38,-29.24 284.01,-78.3 434.5,-29.7 435.55,-29.36 436.61,-28.97 437.66,-28.54"/>
<polygon fill="green" stroke="green" stroke-width="0.77" points="439.41,-31.58 446.76,-23.94 436.25,-25.33 439.41,-31.58"/>
</g>
<!-- &#45;6&#45;&gt;1 -->
<g id="edge25" class="edge">
<title>&#45;6&#45;&gt;1</title>
<path fill="none" stroke="red" stroke-width="0.2" d="M71.76,-68.38C74.59,-67.34 77.61,-66.36 80.5,-65.7 255.29,-25.39 311.47,-83.8 482.5,-29.7 483.55,-29.36 484.61,-28.98 485.67,-28.55"/>
<polygon fill="red" stroke="red" stroke-width="0.2" points="487.41,-31.6 494.77,-23.97 484.26,-25.34 487.41,-31.6"/>
</g>
<!-- &#45;6&#45;&gt;2 -->
<g id="edge26" class="edge">
<title>&#45;6&#45;&gt;2</title>
<path fill="none" stroke="green" stroke-width="0.21" d="M71.81,-68.57C74.63,-67.51 77.64,-66.49 80.5,-65.7 173.62,-39.98 287.84,-24.59 337.48,-18.66"/>
<polygon fill="green" stroke="green" stroke-width="0.21" points="338.08,-22.11 347.6,-17.48 337.26,-15.16 338.08,-22.11"/>
</g>
<!-- &#45;6&#45;&gt;3 -->
<g id="edge27" class="edge">
<title>&#45;6&#45;&gt;3</title>
<path fill="none" stroke="green" stroke-width="0.32" stroke-dasharray="1,5" d="M71.78,-68.44C74.6,-67.4 77.62,-66.4 80.5,-65.7 213.5,-33.08 256.52,-72.81 386.5,-29.7 387.38,-29.41 388.26,-29.08 389.14,-28.73"/>
<polygon fill="green" stroke="green" stroke-width="0.32" points="390.86,-31.78 398.25,-24.19 387.74,-25.52 390.86,-31.78"/>
</g>
<!-- &#45;7 -->
<g id="node7" class="node">
<title>&#45;7</title>
<polygon fill="lightgray" stroke="black" points="879.5,-83.7 855.5,-83.7 855.5,-65.7 879.5,-65.7 879.5,-83.7"/>
<text text-anchor="middle" x="867.5" y="-72.5" font-family="Times New Roman,serif" font-size="9.00">&#45;7</text>
</g>
<!-- &#45;7&#45;&gt;0 -->
<g id="edge28" class="edge">
<title>&#45;7&#45;&gt;0</title>
<path fill="none" stroke="red" stroke-width="0.39" d="M855.23,-68.4C852.41,-67.36 849.39,-66.38 846.5,-65.7 688.26,-28.43 637.27,-79.44 482.5,-29.7 481.45,-29.36 480.39,-28.97 479.34,-28.54"/>
<polygon fill="red" stroke="red" stroke-width="0.39" points="480.75,-25.33 470.24,-23.95 477.59,-31.58 480.75,-25.33"/>
</g>
<!-- &#45;7&#45;&gt;1 -->
<g id="edge29" class="edge">
<title>&#45;7&#45;&gt;1</title>
<path fill="none" stroke="green" stroke-width="0.17" d="M855.23,-68.43C852.4,-67.39 849.38,-66.4 846.5,-65.7 709.16,-32.28 664.75,-73.95 530.5,-29.7 529.62,-29.41 528.74,-29.08 527.86,-28.73"/>
<polygon fill="green" stroke="green" stroke-width="0.17" points="529.26,-25.52 518.75,-24.2 526.14,-31.79 529.26,-25.52"/>
</g>
<!-- &#45;7&#45;&gt;3 -->
<g id="edge30" class="edge">
<title>&#45;7&#45;&gt;3</title>
<path fill="none" stroke="green" stroke-width="1.02" d="M855.24,-68.38C852.41,-67.34 849.39,-66.36 846.5,-65.7 667.35,-24.59 609.81,-84.94 434.5,-29.7 433.44,-29.37 432.39,-28.98 431.33,-28.56"/>
<polygon fill="green" stroke="green" stroke-width="1.02" points="432.74,-25.35 422.23,-23.98 429.59,-31.6 432.74,-25.35"/>
</g>
<!-- &#45;7&#45;&gt;4 -->
<g id="edge31" class="edge">
<title>&#45;7&#45;&gt;4</title>
<path fill="none" stroke="green" stroke-width="0.11" d="M855.2,-68.55C852.37,-67.5 849.36,-66.48 846.5,-65.7 749.44,-39.2 630.19,-24.09 579.35,-18.44"/>
<polygon fill="green" stroke="green" stroke-width="0.11" points="579.62,-14.94 569.3,-17.34 578.87,-21.9 579.62,-14.94"/>
</g>
<!-- &#45;8 -->
<g id="node8" class="node">
<title>&#45;8</title>
<polygon fill="lightgray" stroke="black" points="197.5,-83.7 173.5,-83.7 173.5,-65.7 197.5,-65.7 197.5,-83.7"/>
<text text-anchor="middle" x="185.5" y="-72.5" font-family="Times New Roman,serif" font-size="9.00">&#45;8</text>
</g>
<!-- &#45;8&#45;&gt;0 -->
<g id="edge32" class="edge">
<title>&#45;8&#45;&gt;0</title>
<path fill="none" stroke="red" stroke-width="0.84" d="M197.8,-68.53C200.62,-67.48 203.63,-66.46 206.5,-65.7 305.63,-39.3 337.78,-63.91 434.5,-29.7 435.37,-29.39 436.25,-29.05 437.13,-28.68"/>
<polygon fill="red" stroke="red" stroke-width="0.84" points="438.87,-31.72 446.21,-24.09 435.71,-25.48 438.87,-31.72"/>
</g>
<!-- &#45;8&#45;&gt;1 -->
<g id="edge33" class="edge">
<title>&#45;8&#45;&gt;1</title>
<path fill="none" stroke="green" stroke-width="0.14" d="M197.78,-68.47C200.61,-67.42 203.62,-66.42 206.5,-65.7 326.46,-35.47 365.33,-69.38 482.5,-29.7 483.38,-29.4 484.26,-29.07 485.14,-28.71"/>
<polygon fill="green" stroke="green" stroke-width="0.14" points="486.86,-31.76 494.24,-24.16 483.73,-25.5 486.86,-31.76"/>
</g>
<!-- &#45;8&#45;&gt;2 -->
<g id="edge34" class="edge">
<title>&#45;8&#45;&gt;2</title>
<path fill="none" stroke="green" stroke-width="0.94" d="M197.9,-68.85C200.71,-67.78 203.7,-66.68 206.5,-65.7 252.83,-49.48 307.62,-32.47 338.39,-23.11"/>
<polygon fill="green" stroke="green" stroke-width="0.94" points="339.66,-26.38 348.22,-20.13 337.63,-19.68 339.66,-26.38"/>
</g>
<!-- &#45;8&#45;&gt;3 -->
<g id="edge35" class="edge">
<title>&#45;8&#45;&gt;3</title>
<path fill="none" stroke="green" stroke-width="0.36" d="M197.82,-68.61C200.64,-67.56 203.65,-66.52 206.5,-65.7 284.89,-43.1 310.16,-58.47 386.5,-29.7 387.37,-29.37 388.24,-29.02 389.11,-28.64"/>
<polygon fill="green" stroke="green" stroke-width="0.36" points="390.88,-31.66 398.18,-23.99 387.68,-25.44 390.88,-31.66"/>
</g>
<!-- &#45;8&#45;&gt;4 -->
<g id="edge36" class="edge">
<title>&#45;8&#45;&gt;4</title>
<path fill="none" stroke="green" stroke-width="0.43" d="M197.77,-68.43C200.6,-67.38 203.62,-66.4 206.5,-65.7 347.33,-31.64 392.83,-74.86 530.5,-29.7 531.38,-29.41 532.26,-29.09 533.14,-28.73"/>
<polygon fill="green" stroke="green" stroke-width="0.43" points="534.86,-31.79 542.26,-24.21 531.74,-25.52 534.86,-31.79"/>
</g>
<!-- &#45;9 -->
<g id="node9" class="node">
<title>&#45;9</title>
<polygon fill="lightgray" stroke="black" points="239.5,-83.7 215.5,-83.7 215.5,-65.7 239.5,-65.7 239.5,-83.7"/>
<text text-anchor="middle" x="227.5" y="-72.5" font-family="Times New Roman,serif" font-size="9.00">&#45;9</text>
</g>
<!-- &#45;9&#45;&gt;0 -->
<g id="edge37" class="edge">
<title>&#45;9&#45;&gt;0</title>
<path fill="none" stroke="red" stroke-width="0.2" d="M239.82,-68.6C242.64,-67.55 245.65,-66.51 248.5,-65.7 329.48,-42.62 355.62,-59.15 434.5,-29.7 435.37,-29.37 436.24,-29.02 437.11,-28.64"/>
<polygon fill="red" stroke="red" stroke-width="0.2" points="438.88,-31.67 446.18,-24 435.69,-25.44 438.88,-31.67"/>
</g>
<!-- &#45;9&#45;&gt;1 -->
<g id="edge38" class="edge">
<title>&#45;9&#45;&gt;1</title>
<path fill="none" stroke="red" stroke-width="1.05" d="M239.79,-68.52C242.62,-67.47 245.63,-66.46 248.5,-65.7 350.23,-38.82 383.23,-64.59 482.5,-29.7 483.37,-29.39 484.25,-29.05 485.13,-28.69"/>
<polygon fill="red" stroke="red" stroke-width="1.05" points="486.87,-31.73 494.22,-24.1 483.71,-25.48 486.87,-31.73"/>
</g>
<!-- &#45;9&#45;&gt;2 -->
<g id="edge39" class="edge">
<title>&#45;9&#45;&gt;2</title>
<path fill="none" stroke="green" stroke-width="0.19" d="M239.96,-68.36C262.61,-58.65 310.87,-37.98 339.6,-25.66"/>
<polygon fill="green" stroke="green" stroke-width="0.19" points="341.06,-28.84 348.88,-21.69 338.3,-22.41 341.06,-28.84"/>
</g>
<!-- &#45;9&#45;&gt;3 -->
<g id="edge40" class="edge">
<title>&#45;9&#45;&gt;3</title>
<path fill="none" stroke="green" stroke-width="0.69" d="M239.86,-68.73C242.68,-67.67 245.68,-66.6 248.5,-65.7 308.87,-46.39 327.86,-53.75 386.5,-29.7 387.36,-29.35 388.22,-28.97 389.08,-28.57"/>
<polygon fill="green" stroke="green" stroke-width="0.69" points="390.89,-31.58 398.12,-23.84 387.64,-25.38 390.89,-31.58"/>
</g>
<!-- &#45;9&#45;&gt;4 -->
<g id="edge41" class="edge">
<title>&#45;9&#45;&gt;4</title>
<path fill="none" stroke="red" stroke-width="0.33" d="M239.78,-68.46C242.6,-67.42 245.62,-66.42 248.5,-65.7 371.06,-34.99 410.77,-70.06 530.5,-29.7 531.38,-29.4 532.26,-29.07 533.14,-28.72"/>
<polygon fill="red" stroke="red" stroke-width="0.33" points="534.86,-31.77 542.24,-24.17 531.73,-25.51 534.86,-31.77"/>
</g>
<!-- &#45;10 -->
<g id="node10" class="node">
<title>&#45;10</title>
<polygon fill="lightgray" stroke="black" points="334,-83.7 305,-83.7 305,-65.7 334,-65.7 334,-83.7"/>
<text text-anchor="middle" x="319.5" y="-72.5" font-family="Times New Roman,serif" font-size="9.00">&#45;10</text>
</g>
<!-- &#45;10&#45;&gt;0 -->
<g id="edge42" class="edge">
<title>&#45;10&#45;&gt;0</title>
<path fill="none" stroke="red" stroke-width="0.18" d="M334.41,-68.33C361.12,-58.65 416.07,-38.48 434.5,-29.7 435.34,-29.3 436.18,-28.88 437.03,-28.45"/>
<polygon fill="red" stroke="red" stroke-width="0.18" points="438.89,-31.42 446,-23.56 435.54,-25.28 438.89,-31.42"/>
</g>
<!-- &#45;10&#45;&gt;1 -->
<g id="edge43" class="edge">
<title>&#45;10&#45;&gt;1</title>
<path fill="none" stroke="red" stroke-width="0.13" stroke-dasharray="1,5" d="M334.04,-68.44C336.83,-67.48 339.75,-66.53 342.5,-65.7 404,-47.13 423.02,-53.98 482.5,-29.7 483.36,-29.35 484.22,-28.97 485.09,-28.58"/>
<polygon fill="red" stroke="red" stroke-width="0.13" points="486.89,-31.59 494.12,-23.85 483.64,-25.38 486.89,-31.59"/>
</g>
<!-- &#45;10&#45;&gt;2 -->
<g id="edge44" class="edge">
<title>&#45;10&#45;&gt;2</title>
<path fill="none" stroke="green" stroke-width="0.14" d="M325.48,-65.65C331.25,-57.89 340.21,-45.84 347.87,-35.53"/>
<polygon fill="green" stroke="green" stroke-width="0.14" points="350.75,-37.53 353.9,-27.42 345.13,-33.35 350.75,-37.53"/>
</g>
<!-- &#45;10&#45;&gt;3 -->
<g id="edge45" class="edge">
<title>&#45;10&#45;&gt;3</title>
<path fill="none" stroke="red" stroke-width="0.88" d="M332.15,-65.65C347.04,-56.19 371.98,-40.34 389.72,-29.06"/>
<polygon fill="red" stroke="red" stroke-width="0.88" points="391.68,-31.96 398.25,-23.64 387.93,-26.05 391.68,-31.96"/>
</g>
<!-- &#45;10&#45;&gt;4 -->
<g id="edge46" class="edge">
<title>&#45;10&#45;&gt;4</title>
<path fill="none" stroke="green" stroke-width="0.3" d="M334,-68.3C336.8,-67.36 339.72,-66.44 342.5,-65.7 424.67,-43.67 450.77,-59.37 530.5,-29.7 531.37,-29.38 532.24,-29.02 533.11,-28.65"/>
<polygon fill="green" stroke="green" stroke-width="0.3" points="534.88,-31.68 542.18,-24.01 531.69,-25.44 534.88,-31.68"/>
</g>
<!-- &#45;11 -->
<g id="node11" class="node">
<title>&#45;11</title>
<polygon fill="lightgray" stroke="black" points="837,-83.7 808,-83.7 808,-65.7 837,-65.7 837,-83.7"/>
<text text-anchor="middle" x="822.5" y="-72.5" font-family="Times New Roman,serif" font-size="9.00">&#45;11</text>
</g>
<!-- &#45;11&#45;&gt;0 -->
<g id="edge47" class="edge">
<title>&#45;11&#45;&gt;0</title>
<path fill="none" stroke="green" stroke-width="0.31" stroke-dasharray="1,5" d="M807.91,-68.3C804.84,-67.31 801.59,-66.38 798.5,-65.7 660.48,-35.18 616.75,-73.95 482.5,-29.7 481.62,-29.41 480.74,-29.08 479.86,-28.73"/>
<polygon fill="green" stroke="green" stroke-width="0.31" points="481.26,-25.52 470.75,-24.2 478.14,-31.79 481.26,-25.52"/>
</g>
<!-- &#45;11&#45;&gt;1 -->
<g id="edge48" class="edge">
<title>&#45;11&#45;&gt;1</title>
<path fill="none" stroke="red" stroke-width="0.61" d="M807.9,-68.35C804.83,-67.36 801.58,-66.41 798.5,-65.7 681.42,-38.58 644.26,-68.47 530.5,-29.7 529.62,-29.4 528.74,-29.07 527.86,-28.71"/>
<polygon fill="red" stroke="red" stroke-width="0.61" points="529.27,-25.5 518.76,-24.15 526.14,-31.76 529.27,-25.5"/>
</g>
<!-- &#45;11&#45;&gt;3 -->
<g id="edge49" class="edge">
<title>&#45;11&#45;&gt;3</title>
<path fill="none" stroke="green" stroke-width="0.26" d="M807.92,-68.26C804.84,-67.28 801.59,-66.36 798.5,-65.7 639.51,-31.78 589.27,-79.44 434.5,-29.7 433.45,-29.36 432.39,-28.97 431.34,-28.54"/>
<polygon fill="green" stroke="green" stroke-width="0.26" points="432.75,-25.33 422.24,-23.95 429.59,-31.58 432.75,-25.33"/>
</g>
<!-- &#45;11&#45;&gt;4 -->
<g id="edge50" class="edge">
<title>&#45;11&#45;&gt;4</title>
<path fill="none" stroke="red" stroke-width="1.43" stroke-dasharray="1,5" d="M807.86,-68.51C804.79,-67.51 801.55,-66.52 798.5,-65.7 719.38,-44.51 623.74,-27.38 579.36,-19.91"/>
<polygon fill="red" stroke="red" stroke-width="1.43" points="579.66,-16.41 569.22,-18.22 578.51,-23.32 579.66,-16.41"/>
</g>
<!-- &#45;12 -->
<g id="node12" class="node">
<title>&#45;12</title>
<polygon fill="lightgray" stroke="black" points="287,-83.7 258,-83.7 258,-65.7 287,-65.7 287,-83.7"/>
<text text-anchor="middle" x="272.5" y="-72.5" font-family="Times New Roman,serif" font-size="9.00">&#45;12</text>
</g>
<!-- &#45;12&#45;&gt;1 -->
<g id="edge51" class="edge">
<title>&#45;12&#45;&gt;1</title>
<path fill="none" stroke="red" stroke-width="0.32" d="M287,-68.3C289.8,-67.36 292.72,-66.44 295.5,-65.7 377.24,-43.74 403.19,-59.26 482.5,-29.7 483.37,-29.38 484.24,-29.02 485.11,-28.65"/>
<polygon fill="red" stroke="red" stroke-width="0.32" points="486.88,-31.68 494.18,-24 483.69,-25.44 486.88,-31.68"/>
</g>
<!-- &#45;12&#45;&gt;2 -->
<g id="edge52" class="edge">
<title>&#45;12&#45;&gt;2</title>
<path fill="none" stroke="red" stroke-width="0.34" d="M285.01,-65.65C299.74,-56.19 324.4,-40.34 341.94,-29.06"/>
<polygon fill="red" stroke="red" stroke-width="0.34" points="343.86,-31.99 350.38,-23.64 340.08,-26.1 343.86,-31.99"/>
</g>
<!-- &#45;12&#45;&gt;3 -->
<g id="edge53" class="edge">
<title>&#45;12&#45;&gt;3</title>
<path fill="none" stroke="red" stroke-width="0.46" d="M287.28,-68.32C313.76,-58.63 368.22,-38.44 386.5,-29.7 387.34,-29.3 388.18,-28.88 389.03,-28.45"/>
<polygon fill="red" stroke="red" stroke-width="0.46" points="390.89,-31.42 397.99,-23.56 387.54,-25.28 390.89,-31.42"/>
</g>
<!-- &#45;12&#45;&gt;4 -->
<g id="edge54" class="edge">
<title>&#45;12&#45;&gt;4</title>
<path fill="none" stroke="red" stroke-width="0.16" d="M287.47,-68.05C290.12,-67.18 292.87,-66.35 295.5,-65.7 398.05,-40.24 430.8,-64.71 530.5,-29.7 531.37,-29.39 532.25,-29.05 533.13,-28.69"/>
<polygon fill="red" stroke="red" stroke-width="0.16" points="534.87,-31.73 542.22,-24.1 531.71,-25.48 534.87,-31.73"/>
</g>
<!-- &#45;13 -->
<g id="node13" class="node">
<title>&#45;13</title>
<polygon fill="lightgray" stroke="black" points="381,-83.7 352,-83.7 352,-65.7 381,-65.7 381,-83.7"/>
<text text-anchor="middle" x="366.5" y="-72.5" font-family="Times New Roman,serif" font-size="9.00">&#45;13</text>
</g>
<!-- &#45;13&#45;&gt;0 -->
<g id="edge55" class="edge">
<title>&#45;13&#45;&gt;0</title>
<path fill="none" stroke="red" stroke-width="0.14" d="M379.29,-65.65C394.34,-56.19 419.55,-40.34 437.49,-29.06"/>
<polygon fill="red" stroke="red" stroke-width="0.14" points="439.51,-31.93 446.11,-23.64 435.78,-26 439.51,-31.93"/>
</g>
<!-- &#45;13&#45;&gt;1 -->
<g id="edge56" class="edge">
<title>&#45;13&#45;&gt;1</title>
<path fill="none" stroke="red" stroke-width="0.64" d="M381.12,-68.49C407.91,-58.88 463.82,-38.56 482.5,-29.7 483.34,-29.3 484.18,-28.89 485.03,-28.46"/>
<polygon fill="red" stroke="red" stroke-width="0.64" points="486.89,-31.43 494,-23.57 483.54,-25.28 486.89,-31.43"/>
</g>
<!-- &#45;13&#45;&gt;2 -->
<g id="edge57" class="edge">
<title>&#45;13&#45;&gt;2</title>
<path fill="none" stroke="green" stroke-width="0.34" d="M365.94,-65.65C365.49,-59.05 364.82,-49.33 364.19,-40.23"/>
<polygon fill="green" stroke="green" stroke-width="0.34" points="367.66,-39.79 363.48,-30.06 360.68,-40.27 367.66,-39.79"/>
</g>
<!-- &#45;13&#45;&gt;3 -->
<g id="edge58" class="edge">
<title>&#45;13&#45;&gt;3</title>
<path fill="none" stroke="red" stroke-width="0.22" d="M372.62,-65.65C378.52,-57.89 387.69,-45.84 395.53,-35.53"/>
<polygon fill="red" stroke="red" stroke-width="0.22" points="398.43,-37.5 401.7,-27.42 392.86,-33.26 398.43,-37.5"/>
</g>
<!-- &#45;13&#45;&gt;4 -->
<g id="edge59" class="edge">
<title>&#45;13&#45;&gt;4</title>
<path fill="none" stroke="green" stroke-width="0.59" d="M381.04,-68.43C383.83,-67.48 386.75,-66.53 389.5,-65.7 451.43,-47.06 470.6,-54.09 530.5,-29.7 531.36,-29.35 532.22,-28.97 533.09,-28.58"/>
<polygon fill="green" stroke="green" stroke-width="0.59" points="534.89,-31.59 542.12,-23.85 531.64,-25.39 534.89,-31.59"/>
</g>
<!-- &#45;14 -->
<g id="node14" class="node">
<title>&#45;14</title>
<polygon fill="lightgray" stroke="black" points="29,-83.7 0,-83.7 0,-65.7 29,-65.7 29,-83.7"/>
<text text-anchor="middle" x="14.5" y="-72.5" font-family="Times New Roman,serif" font-size="9.00">&#45;14</text>
</g>
<!-- &#45;14&#45;&gt;0 -->
<g id="edge60" class="edge">
<title>&#45;14&#45;&gt;0</title>
<path fill="none" stroke="red" stroke-width="0.33" d="M29.08,-68.24C32.15,-67.26 35.4,-66.35 38.5,-65.7 211.48,-29.51 266.04,-83.11 434.5,-29.7 435.55,-29.36 436.61,-28.98 437.67,-28.55"/>
<polygon fill="red" stroke="red" stroke-width="0.33" points="439.41,-31.59 446.77,-23.97 436.26,-25.34 439.41,-31.59"/>
</g>
<!-- &#45;14&#45;&gt;1 -->
<g id="edge61" class="edge">
<title>&#45;14&#45;&gt;1</title>
<path fill="none" stroke="green" stroke-width="0.37" d="M29.07,-68.22C32.15,-67.24 35.4,-66.33 38.5,-65.7 232.48,-26.11 293.49,-88.61 482.5,-29.7 483.56,-29.37 484.62,-28.99 485.67,-28.56"/>
<polygon fill="green" stroke="green" stroke-width="0.37" points="487.41,-31.61 494.77,-24 484.27,-25.35 487.41,-31.61"/>
</g>
<!-- &#45;14&#45;&gt;2 -->
<g id="edge62" class="edge">
<title>&#45;14&#45;&gt;2</title>
<path fill="none" stroke="red" stroke-width="0.38" d="M29.11,-68.39C32.18,-67.4 35.43,-66.44 38.5,-65.7 148.47,-39.11 283.04,-23.76 337.68,-18.22"/>
<polygon fill="red" stroke="red" stroke-width="0.38" points="338.19,-21.69 347.8,-17.22 337.5,-14.72 338.19,-21.69"/>
</g>
<!-- &#45;14&#45;&gt;3 -->
<g id="edge63" class="edge">
<title>&#45;14&#45;&gt;3</title>
<path fill="none" stroke="red" stroke-width="0.16" d="M29.08,-68.27C32.16,-67.29 35.41,-66.37 38.5,-65.7 190.5,-32.92 238.57,-77.61 386.5,-29.7 387.55,-29.36 388.61,-28.97 389.66,-28.54"/>
<polygon fill="red" stroke="red" stroke-width="0.16" points="391.41,-31.57 398.75,-23.94 388.25,-25.33 391.41,-31.57"/>
</g>
<!-- &#45;15 -->
<g id="node15" class="node">
<title>&#45;15</title>
<polygon fill="lightgray" stroke="black" points="428,-83.7 399,-83.7 399,-65.7 428,-65.7 428,-83.7"/>
<text text-anchor="middle" x="413.5" y="-72.5" font-family="Times New Roman,serif" font-size="9.00">&#45;15</text>
</g>
<!-- &#45;15&#45;&gt;0 -->
<g id="edge64" class="edge">
<title>&#45;15&#45;&gt;0</title>
<path fill="none" stroke="green" stroke-width="0.13" d="M419.76,-65.65C425.87,-57.8 435.41,-45.53 443.49,-35.14"/>
<polygon fill="green" stroke="green" stroke-width="0.13" points="446.45,-37.04 449.83,-26.99 440.93,-32.74 446.45,-37.04"/>
</g>
<!-- &#45;15&#45;&gt;1 -->
<g id="edge65" class="edge">
<title>&#45;15&#45;&gt;1</title>
<path fill="none" stroke="red" stroke-width="0.19" d="M426.43,-65.65C441.73,-56.14 467.41,-40.16 485.56,-28.87"/>
<polygon fill="red" stroke="red" stroke-width="0.19" points="487.63,-31.71 494.27,-23.46 483.93,-25.77 487.63,-31.71"/>
</g>
<!-- &#45;15&#45;&gt;2 -->
<g id="edge93" class="edge">
<title>&#45;15&#45;&gt;2</title>
<path fill="none" stroke="green" stroke-width="0.1" d="M406.41,-65.65C399.25,-57.54 387.96,-44.73 378.62,-34.13"/>
<polygon fill="green" stroke="green" stroke-width="0.1" points="381.2,-31.76 371.96,-26.58 375.95,-36.39 381.2,-31.76"/>
</g>
<!-- &#45;15&#45;&gt;3 -->
<g id="edge66" class="edge">
<title>&#45;15&#45;&gt;3</title>
<path fill="none" stroke="red" stroke-width="0.23" d="M413.08,-65.65C412.74,-59.05 412.24,-49.33 411.76,-40.23"/>
<polygon fill="red" stroke="red" stroke-width="0.23" points="415.25,-39.86 411.24,-30.06 408.26,-40.22 415.25,-39.86"/>
</g>
<!-- &#45;15&#45;&gt;4 -->
<g id="edge67" class="edge">
<title>&#45;15&#45;&gt;4</title>
<path fill="none" stroke="red" stroke-width="0.24" d="M428.25,-68.49C455.27,-58.9 511.66,-38.6 530.5,-29.7 531.34,-29.3 532.18,-28.89 533.03,-28.46"/>
<polygon fill="red" stroke="red" stroke-width="0.24" points="534.89,-31.43 542,-23.58 531.55,-25.29 534.89,-31.43"/>
</g>
<!-- &#45;16 -->
<g id="node16" class="node">
<title>&#45;16</title>
<polygon fill="lightgray" stroke="black" points="475,-83.7 446,-83.7 446,-65.7 475,-65.7 475,-83.7"/>
<text text-anchor="middle" x="460.5" y="-72.5" font-family="Times New Roman,serif" font-size="9.00">&#45;16</text>
</g>
<!-- &#45;16&#45;&gt;0 -->
<g id="edge68" class="edge">
<title>&#45;16&#45;&gt;0</title>
<path fill="none" stroke="red" stroke-width="0.19" d="M460.22,-65.65C459.99,-59.05 459.66,-49.33 459.34,-40.23"/>
<polygon fill="red" stroke="red" stroke-width="0.19" points="462.83,-39.93 458.99,-30.06 455.84,-40.17 462.83,-39.93"/>
</g>
<!-- &#45;16&#45;&gt;1 -->
<g id="edge69" class="edge">
<title>&#45;16&#45;&gt;1</title>
<path fill="none" stroke="red" stroke-width="0.27" d="M466.9,-65.65C473.21,-57.72 483.09,-45.29 491.4,-34.83"/>
<polygon fill="red" stroke="red" stroke-width="0.27" points="494.15,-37 497.64,-26.99 488.67,-32.64 494.15,-37"/>
</g>
<!-- &#45;16&#45;&gt;2 -->
<g id="edge70" class="edge">
<title>&#45;16&#45;&gt;2</title>
<path fill="none" stroke="green" stroke-width="0.86" d="M446.87,-65.65C430.51,-56 402.88,-39.69 383.72,-28.38"/>
<polygon fill="green" stroke="green" stroke-width="0.86" points="385.47,-25.34 375.08,-23.28 381.91,-31.37 385.47,-25.34"/>
</g>
<!-- &#45;16&#45;&gt;3 -->
<g id="edge71" class="edge">
<title>&#45;16&#45;&gt;3</title>
<path fill="none" stroke="red" stroke-width="0.59" d="M453.55,-65.65C446.6,-57.62 435.68,-44.98 426.57,-34.45"/>
<polygon fill="red" stroke="red" stroke-width="0.59" points="428.96,-31.85 419.77,-26.58 423.66,-36.43 428.96,-31.85"/>
</g>
<!-- &#45;16&#45;&gt;4 -->
<g id="edge72" class="edge">
<title>&#45;16&#45;&gt;4</title>
<path fill="none" stroke="green" stroke-width="0.41" d="M473.57,-65.65C489.11,-56.09 515.23,-40.01 533.59,-28.72"/>
<polygon fill="green" stroke="green" stroke-width="0.41" points="535.46,-31.68 542.14,-23.46 531.79,-25.72 535.46,-31.68"/>
</g>
<!-- &#45;17 -->
<g id="node17" class="node">
<title>&#45;17</title>
<polygon fill="lightgray" stroke="black" points="522,-83.7 493,-83.7 493,-65.7 522,-65.7 522,-83.7"/>
<text text-anchor="middle" x="507.5" y="-72.5" font-family="Times New Roman,serif" font-size="9.00">&#45;17</text>
</g>
<!-- &#45;17&#45;&gt;0 -->
<g id="edge73" class="edge">
<title>&#45;17&#45;&gt;0</title>
<path fill="none" stroke="green" stroke-width="0.15" stroke-dasharray="1,5" d="M500.69,-65.65C493.96,-57.72 483.44,-45.29 474.58,-34.83"/>
<polygon fill="green" stroke="green" stroke-width="0.15" points="477.07,-32.36 467.94,-26.99 471.73,-36.89 477.07,-32.36"/>
</g>
<!-- &#45;17&#45;&gt;1 -->
<g id="edge74" class="edge">
<title>&#45;17&#45;&gt;1</title>
<path fill="none" stroke="red" stroke-width="0.22" d="M507.36,-65.65C507.25,-59.05 507.08,-49.33 506.92,-40.23"/>
<polygon fill="red" stroke="red" stroke-width="0.22" points="510.42,-39.99 506.75,-30.06 503.42,-40.12 510.42,-39.99"/>
</g>
<!-- &#45;17&#45;&gt;2 -->
<g id="edge75" class="edge">
<title>&#45;17&#45;&gt;2</title>
<path fill="none" stroke="red" stroke-width="0.25" d="M492.77,-68.51C462.75,-57.9 396.48,-34.35 386.5,-29.7 385.66,-29.31 384.81,-28.9 383.96,-28.47"/>
<polygon fill="red" stroke="red" stroke-width="0.25" points="385.44,-25.29 374.98,-23.6 382.11,-31.45 385.44,-25.29"/>
</g>
<!-- &#45;17&#45;&gt;3 -->
<g id="edge76" class="edge">
<title>&#45;17&#45;&gt;3</title>
<path fill="none" stroke="red" stroke-width="0.28" d="M494.01,-65.65C477.89,-56.04 450.72,-39.84 431.76,-28.53"/>
<polygon fill="red" stroke="red" stroke-width="0.28" points="433.33,-25.39 422.95,-23.28 429.75,-31.4 433.33,-25.39"/>
</g>
<!-- &#45;17&#45;&gt;4 -->
<g id="edge77" class="edge">
<title>&#45;17&#45;&gt;4</title>
<path fill="none" stroke="red" stroke-width="0.19" d="M514.04,-65.65C520.48,-57.72 530.58,-45.29 539.08,-34.83"/>
<polygon fill="red" stroke="red" stroke-width="0.19" points="541.86,-36.96 545.44,-26.99 536.42,-32.55 541.86,-36.96"/>
</g>
<!-- &#45;18 -->
<g id="node18" class="node">
<title>&#45;18</title>
<polygon fill="lightgray" stroke="black" points="569,-83.7 540,-83.7 540,-65.7 569,-65.7 569,-83.7"/>
<text text-anchor="middle" x="554.5" y="-72.5" font-family="Times New Roman,serif" font-size="9.00">&#45;18</text>
</g>
<!-- &#45;18&#45;&gt;0 -->
<g id="edge78" class="edge">
<title>&#45;18&#45;&gt;0</title>
<path fill="none" stroke="green" stroke-width="0.22" d="M541.15,-65.65C525.2,-56.04 498.31,-39.84 479.54,-28.53"/>
<polygon fill="green" stroke="green" stroke-width="0.22" points="481.19,-25.44 470.82,-23.28 477.58,-31.43 481.19,-25.44"/>
</g>
<!-- &#45;18&#45;&gt;1 -->
<g id="edge79" class="edge">
<title>&#45;18&#45;&gt;1</title>
<path fill="none" stroke="green" stroke-width="0.81" d="M547.83,-65.65C541.24,-57.72 530.93,-45.29 522.25,-34.83"/>
<polygon fill="green" stroke="green" stroke-width="0.81" points="524.83,-32.46 515.75,-26.99 519.44,-36.93 524.83,-32.46"/>
</g>
<!-- &#45;18&#45;&gt;2 -->
<g id="edge80" class="edge">
<title>&#45;18&#45;&gt;2</title>
<path fill="none" stroke="green" stroke-width="0.55" d="M539.96,-68.42C537.17,-67.47 534.26,-66.52 531.5,-65.7 467.85,-46.77 448.08,-54.54 386.5,-29.7 385.64,-29.35 384.78,-28.98 383.91,-28.59"/>
<polygon fill="green" stroke="green" stroke-width="0.55" points="385.35,-25.39 374.87,-23.87 382.12,-31.6 385.35,-25.39"/>
</g>
<!-- &#45;18&#45;&gt;3 -->
<g id="edge81" class="edge">
<title>&#45;18&#45;&gt;3</title>
<path fill="none" stroke="green" stroke-width="0.27" d="M539.89,-68.5C510.12,-57.89 444.4,-34.33 434.5,-29.7 433.66,-29.31 432.81,-28.89 431.96,-28.47"/>
<polygon fill="green" stroke="green" stroke-width="0.27" points="433.45,-25.29 422.99,-23.6 430.11,-31.44 433.45,-25.29"/>
</g>
<!-- &#45;18&#45;&gt;4 -->
<g id="edge82" class="edge">
<title>&#45;18&#45;&gt;4</title>
<path fill="none" stroke="green" stroke-width="0.69" d="M554.5,-65.65C554.5,-59.05 554.5,-49.33 554.5,-40.23"/>
<polygon fill="green" stroke="green" stroke-width="0.69" points="558,-40.06 554.5,-30.06 551,-40.06 558,-40.06"/>
</g>
<!-- &#45;19 -->
<g id="node19" class="node">
<title>&#45;19</title>
<polygon fill="lightgray" stroke="black" points="616,-83.7 587,-83.7 587,-65.7 616,-65.7 616,-83.7"/>
<text text-anchor="middle" x="601.5" y="-72.5" font-family="Times New Roman,serif" font-size="9.00">&#45;19</text>
</g>
<!-- &#45;19&#45;&gt;0 -->
<g id="edge83" class="edge">
<title>&#45;19&#45;&gt;0</title>
<path fill="none" stroke="red" stroke-width="0.61" stroke-dasharray="1,5" d="M586.56,-68.34C556.84,-57.64 492.27,-34.28 482.5,-29.7 481.66,-29.31 480.81,-28.89 479.96,-28.47"/>
<polygon fill="red" stroke="red" stroke-width="0.61" points="481.45,-25.29 470.99,-23.59 478.11,-31.44 481.45,-25.29"/>
</g>
<!-- &#45;19&#45;&gt;1 -->
<g id="edge84" class="edge">
<title>&#45;19&#45;&gt;1</title>
<path fill="none" stroke="red" stroke-width="0.33" d="M588.29,-65.65C572.59,-56.09 546.18,-40.01 527.63,-28.72"/>
<polygon fill="red" stroke="red" stroke-width="0.33" points="529.35,-25.67 518.99,-23.46 525.71,-31.65 529.35,-25.67"/>
</g>
<!-- &#45;19&#45;&gt;2 -->
<g id="edge85" class="edge">
<title>&#45;19&#45;&gt;2</title>
<path fill="none" stroke="green" stroke-width="0.62" d="M586.51,-68.12C583.86,-67.24 581.11,-66.39 578.5,-65.7 494.6,-43.38 467.93,-59.82 386.5,-29.7 385.63,-29.38 384.76,-29.03 383.88,-28.65"/>
<polygon fill="green" stroke="green" stroke-width="0.62" points="385.31,-25.45 374.81,-24.02 382.13,-31.68 385.31,-25.45"/>
</g>
<!-- &#45;19&#45;&gt;3 -->
<g id="edge86" class="edge">
<title>&#45;19&#45;&gt;3</title>
<path fill="none" stroke="green" stroke-width="0.17" d="M586.96,-68.42C584.17,-67.47 581.25,-66.52 578.5,-65.7 515.28,-46.84 495.66,-54.42 434.5,-29.7 433.64,-29.35 432.78,-28.98 431.91,-28.58"/>
<polygon fill="green" stroke="green" stroke-width="0.17" points="433.36,-25.39 422.87,-23.86 430.11,-31.6 433.36,-25.39"/>
</g>
<!-- &#45;19&#45;&gt;4 -->
<g id="edge87" class="edge">
<title>&#45;19&#45;&gt;4</title>
<path fill="none" stroke="red" stroke-width="0.44" d="M594.96,-65.65C588.52,-57.72 578.42,-45.29 569.92,-34.83"/>
<polygon fill="red" stroke="red" stroke-width="0.44" points="572.58,-32.55 563.56,-26.99 567.14,-36.96 572.58,-32.55"/>
</g>
<!-- &#45;20 -->
<g id="node20" class="node">
<title>&#45;20</title>
<polygon fill="lightgray" stroke="black" points="663,-83.7 634,-83.7 634,-65.7 663,-65.7 663,-83.7"/>
<text text-anchor="middle" x="648.5" y="-72.5" font-family="Times New Roman,serif" font-size="9.00">&#45;20</text>
</g>
<!-- &#45;20&#45;&gt;0 -->
<g id="edge88" class="edge">
<title>&#45;20&#45;&gt;0</title>
<path fill="none" stroke="red" stroke-width="0.41" d="M633.96,-68.43C631.17,-67.47 628.25,-66.52 625.5,-65.7 562.71,-46.91 543.24,-54.31 482.5,-29.7 481.64,-29.35 480.78,-28.98 479.91,-28.58"/>
<polygon fill="red" stroke="red" stroke-width="0.41" points="481.36,-25.39 470.87,-23.86 478.11,-31.59 481.36,-25.39"/>
</g>
<!-- &#45;20&#45;&gt;1 -->
<g id="edge89" class="edge">
<title>&#45;20&#45;&gt;1</title>
<path fill="none" stroke="red" stroke-width="0.13" d="M633.62,-68.5C606.37,-58.92 549.49,-38.64 530.5,-29.7 529.66,-29.3 528.81,-28.89 527.96,-28.46"/>
<polygon fill="red" stroke="red" stroke-width="0.13" points="529.45,-25.29 518.99,-23.58 526.11,-31.44 529.45,-25.29"/>
</g>
<!-- &#45;20&#45;&gt;2 -->
<g id="edge90" class="edge">
<title>&#45;20&#45;&gt;2</title>
<path fill="none" stroke="green" stroke-width="0.31" d="M633.53,-68.04C630.88,-67.17 628.13,-66.35 625.5,-65.7 521.21,-39.94 487.9,-65.16 386.5,-29.7 385.63,-29.39 384.75,-29.05 383.87,-28.69"/>
<polygon fill="green" stroke="green" stroke-width="0.31" points="385.28,-25.48 374.78,-24.11 382.13,-31.73 385.28,-25.48"/>
</g>
<!-- &#45;20&#45;&gt;3 -->
<g id="edge91" class="edge">
<title>&#45;20&#45;&gt;3</title>
<path fill="none" stroke="green" stroke-width="0.17" d="M633.51,-68.12C630.86,-67.24 628.11,-66.4 625.5,-65.7 542.03,-43.45 515.5,-59.71 434.5,-29.7 433.63,-29.38 432.76,-29.03 431.89,-28.65"/>
<polygon fill="green" stroke="green" stroke-width="0.17" points="433.31,-25.45 422.81,-24.01 430.13,-31.68 433.31,-25.45"/>
</g>
<!-- &#45;20&#45;&gt;4 -->
<g id="edge92" class="edge">
<title>&#45;20&#45;&gt;4</title>
<path fill="none" stroke="red" stroke-width="0.94" d="M635.43,-65.65C619.89,-56.09 593.77,-40.01 575.41,-28.72"/>
<polygon fill="red" stroke="red" stroke-width="0.94" points="577.21,-25.72 566.86,-23.46 573.54,-31.68 577.21,-25.72"/>
</g>
</g>
</svg>
