<?xml version="1.0" encoding="UTF-8" standalone="no"?>
<!DOCTYPE svg PUBLIC "-//W3C//DTD SVG 1.1//EN"
 "http://www.w3.org/Graphics/SVG/1.1/DTD/svg11.dtd">
<!-- Generated by graphviz version 2.43.0 (0)
 -->
<!-- Title: %3 Pages: 1 -->
<svg width="1341pt" height="257pt"
 viewBox="0.00 0.00 1340.65 257.04" xmlns="http://www.w3.org/2000/svg" xmlns:xlink="http://www.w3.org/1999/xlink">
<g id="graph0" class="graph" transform="scale(1 1) rotate(0) translate(4 253.04)">
<title>%3</title>
<polygon fill="white" stroke="transparent" points="-4,4 -4,-253.04 1336.65,-253.04 1336.65,4 -4,4"/>
<!-- &#45;1 -->
<g id="node1" class="node">
<title>&#45;1</title>
<polygon fill="lightgray" stroke="black" points="950.11,-102.28 924.11,-102.28 924.11,-84.28 950.11,-84.28 950.11,-102.28"/>
<text text-anchor="middle" x="937.11" y="-91.08" font-family="Times,serif" font-size="9.00">&#45;1</text>
</g>
<!-- 0 -->
<g id="node21" class="node">
<title>0</title>
<ellipse fill="lightblue" stroke="black" cx="757.11" cy="-16.26" rx="16.03" ry="16.03"/>
<text text-anchor="middle" x="757.11" y="-14.06" font-family="Times,serif" font-size="9.00">0</text>
</g>
<!-- &#45;1&#45;&gt;0 -->
<g id="edge1" class="edge">
<title>&#45;1&#45;&gt;0</title>
<path fill="none" stroke="green" stroke-width="0.24" d="M931.45,-84.12C927.45,-78.94 921.65,-72.49 915.11,-68.53 863.11,-37.01 839.15,-56.13 783.11,-32.53 781.89,-32.01 780.66,-31.45 779.42,-30.86"/>
<polygon fill="green" stroke="green" stroke-width="0.24" points="780.71,-27.57 770.25,-25.89 777.38,-33.73 780.71,-27.57"/>
</g>
<!-- 1 -->
<g id="node22" class="node">
<title>1</title>
<ellipse fill="lightblue" stroke="black" cx="570.11" cy="-16.26" rx="16.03" ry="16.03"/>
<text text-anchor="middle" x="570.11" y="-14.06" font-family="Times,serif" font-size="9.00">1</text>
</g>
<!-- &#45;1&#45;&gt;1 -->
<g id="edge28" class="edge">
<title>&#45;1&#45;&gt;1</title>
<path fill="none" stroke="red" stroke-width="0.43" d="M931.61,-83.84C927.68,-78.54 921.89,-72.05 915.11,-68.53 810.05,-13.89 768,-51.5 651.11,-32.53 632.63,-29.53 611.89,-25.61 596.02,-22.49"/>
<polygon fill="red" stroke="red" stroke-width="0.43" points="596.39,-19 585.9,-20.48 595.03,-25.86 596.39,-19"/>
</g>
<!-- 2 -->
<g id="node23" class="node">
<title>2</title>
<ellipse fill="lightblue" stroke="black" cx="676.11" cy="-16.26" rx="16.03" ry="16.03"/>
<text text-anchor="middle" x="676.11" y="-14.06" font-family="Times,serif" font-size="9.00">2</text>
</g>
<!-- &#45;1&#45;&gt;2 -->
<g id="edge38" class="edge">
<title>&#45;1&#45;&gt;2</title>
<path fill="none" stroke="red" stroke-width="0.63" d="M931.54,-83.97C927.58,-78.72 921.79,-72.25 915.11,-68.53 842.72,-28.14 812.82,-51.44 732.11,-32.53 722.02,-30.16 711.01,-27.24 701.43,-24.58"/>
<polygon fill="red" stroke="red" stroke-width="0.63" points="702.3,-21.19 691.72,-21.84 700.4,-27.92 702.3,-21.19"/>
</g>
<!-- 3 -->
<g id="node24" class="node">
<title>3</title>
<ellipse fill="lightblue" stroke="black" cx="808.11" cy="-16.26" rx="16.03" ry="16.03"/>
<text text-anchor="middle" x="808.11" y="-14.06" font-family="Times,serif" font-size="9.00">3</text>
</g>
<!-- &#45;1&#45;&gt;3 -->
<g id="edge69" class="edge">
<title>&#45;1&#45;&gt;3</title>
<path fill="none" stroke="green" stroke-width="0.24" d="M930.83,-84.06C926.74,-79.11 921.08,-72.93 915.11,-68.53 889.37,-49.56 855.51,-34.74 832.83,-26.02"/>
<polygon fill="green" stroke="green" stroke-width="0.24" points="833.87,-22.67 823.27,-22.45 831.42,-29.23 833.87,-22.67"/>
</g>
<!-- 4 -->
<g id="node25" class="node">
<title>4</title>
<ellipse fill="lightblue" stroke="black" cx="495.11" cy="-16.26" rx="16.03" ry="16.03"/>
<text text-anchor="middle" x="495.11" y="-14.06" font-family="Times,serif" font-size="9.00">4</text>
</g>
<!-- &#45;1&#45;&gt;4 -->
<g id="edge41" class="edge">
<title>&#45;1&#45;&gt;4</title>
<path fill="none" stroke="red" stroke-width="0.26" stroke-dasharray="1,5" d="M932,-84.22C928.08,-78.8 922.16,-72.02 915.11,-68.53 767.09,4.87 707.15,-64.81 545.11,-32.53 536.82,-30.87 527.94,-28.4 520,-25.93"/>
<polygon fill="red" stroke="red" stroke-width="0.26" points="520.82,-22.51 510.23,-22.74 518.65,-29.17 520.82,-22.51"/>
</g>
<!-- &#45;2 -->
<g id="node2" class="node">
<title>&#45;2</title>
<polygon fill="lightgray" stroke="black" points="994.11,-102.28 968.11,-102.28 968.11,-84.28 994.11,-84.28 994.11,-102.28"/>
<text text-anchor="middle" x="981.11" y="-91.08" font-family="Times,serif" font-size="9.00">&#45;2</text>
</g>
<!-- &#45;2&#45;&gt;0 -->
<g id="edge8" class="edge">
<title>&#45;2&#45;&gt;0</title>
<path fill="none" stroke="red" stroke-width="0.6" d="M975.53,-83.98C971.56,-78.74 965.77,-72.28 959.11,-68.53 889.53,-29.36 857.66,-61.12 783.11,-32.53 781.87,-32.05 780.63,-31.52 779.38,-30.95"/>
<polygon fill="red" stroke="red" stroke-width="0.6" points="780.66,-27.66 770.18,-26.07 777.37,-33.85 780.66,-27.66"/>
</g>
<!-- &#45;2&#45;&gt;1 -->
<g id="edge86" class="edge">
<title>&#45;2&#45;&gt;1</title>
<path fill="none" stroke="green" stroke-width="0.29" d="M975.97,-84.26C972.05,-78.86 966.13,-72.09 959.11,-68.53 836.23,-6.11 787.36,-53.3 651.11,-32.53 632.61,-29.71 611.86,-25.78 596,-22.62"/>
<polygon fill="green" stroke="green" stroke-width="0.29" points="596.38,-19.13 585.89,-20.57 594.99,-25.99 596.38,-19.13"/>
</g>
<!-- &#45;2&#45;&gt;2 -->
<g id="edge36" class="edge">
<title>&#45;2&#45;&gt;2</title>
<path fill="none" stroke="red" stroke-width="0.28" d="M975.59,-83.89C971.64,-78.6 965.85,-72.13 959.11,-68.53 869,-20.41 831.98,-53.99 732.11,-32.53 721.98,-30.35 710.96,-27.46 701.39,-24.78"/>
<polygon fill="red" stroke="red" stroke-width="0.28" points="702.27,-21.39 691.69,-22 700.34,-28.12 702.27,-21.39"/>
</g>
<!-- &#45;2&#45;&gt;3 -->
<g id="edge18" class="edge">
<title>&#45;2&#45;&gt;3</title>
<path fill="none" stroke="red" stroke-width="0.41" d="M975.37,-84.26C971.33,-79.13 965.52,-72.69 959.11,-68.53 919.64,-42.92 866.02,-28.72 834.44,-22.07"/>
<polygon fill="red" stroke="red" stroke-width="0.41" points="834.74,-18.56 824.25,-20.02 833.36,-25.42 834.74,-18.56"/>
</g>
<!-- &#45;2&#45;&gt;4 -->
<g id="edge20" class="edge">
<title>&#45;2&#45;&gt;4</title>
<path fill="none" stroke="red" stroke-width="0.53" stroke-dasharray="1,5" d="M976.01,-84.2C972.09,-78.76 966.18,-71.99 959.11,-68.53 876.17,-27.93 635.77,-50.1 545.11,-32.53 536.81,-30.92 527.93,-28.46 519.99,-25.98"/>
<polygon fill="red" stroke="red" stroke-width="0.53" points="520.81,-22.57 510.22,-22.78 518.63,-29.22 520.81,-22.57"/>
</g>
<!-- &#45;3 -->
<g id="node3" class="node">
<title>&#45;3</title>
<polygon fill="lightgray" stroke="black" points="304.11,-102.28 278.11,-102.28 278.11,-84.28 304.11,-84.28 304.11,-102.28"/>
<text text-anchor="middle" x="291.11" y="-91.08" font-family="Times,serif" font-size="9.00">&#45;3</text>
</g>
<!-- &#45;3&#45;&gt;0 -->
<g id="edge46" class="edge">
<title>&#45;3&#45;&gt;0</title>
<path fill="none" stroke="red" stroke-width="0.41" d="M296.22,-84.21C300.14,-78.78 306.05,-72.01 313.11,-68.53 390.78,-30.23 615.91,-47.97 701.11,-32.53 711.3,-30.68 722.34,-27.85 731.9,-25.13"/>
<polygon fill="red" stroke="red" stroke-width="0.41" points="732.99,-28.46 741.59,-22.28 731.01,-21.75 732.99,-28.46"/>
</g>
<!-- &#45;3&#45;&gt;1 -->
<g id="edge13" class="edge">
<title>&#45;3&#45;&gt;1</title>
<path fill="none" stroke="red" stroke-width="0.5" d="M296.65,-83.92C300.61,-78.65 306.4,-72.18 313.11,-68.53 395.15,-23.93 429.28,-54.2 520.11,-32.53 528.34,-30.56 537.2,-28.01 545.14,-25.55"/>
<polygon fill="red" stroke="red" stroke-width="0.5" points="546.46,-28.8 554.93,-22.44 544.34,-22.13 546.46,-28.8"/>
</g>
<!-- &#45;3&#45;&gt;2 -->
<g id="edge80" class="edge">
<title>&#45;3&#45;&gt;2</title>
<path fill="none" stroke="red" stroke-width="0.52" d="M296.6,-83.82C300.53,-78.51 306.31,-72.02 313.11,-68.53 425.46,-10.71 470.31,-52.23 595.11,-32.53 613.6,-29.61 634.34,-25.69 650.21,-22.55"/>
<polygon fill="red" stroke="red" stroke-width="0.52" points="651.21,-25.92 660.33,-20.52 649.84,-19.05 651.21,-25.92"/>
</g>
<!-- &#45;3&#45;&gt;4 -->
<g id="edge21" class="edge">
<title>&#45;3&#45;&gt;4</title>
<path fill="none" stroke="red" stroke-width="0.88" stroke-dasharray="1,5" d="M296.78,-84.14C300.79,-78.97 306.59,-72.52 313.11,-68.53 363.06,-37.96 431.77,-25.1 468.84,-20.11"/>
<polygon fill="red" stroke="red" stroke-width="0.88" points="469.36,-23.58 478.85,-18.86 468.49,-16.63 469.36,-23.58"/>
</g>
<!-- &#45;4 -->
<g id="node4" class="node">
<title>&#45;4</title>
<polygon fill="lightgray" stroke="black" points="1211.11,-183.53 1185.11,-183.53 1185.11,-165.53 1211.11,-165.53 1211.11,-183.53"/>
<text text-anchor="middle" x="1198.11" y="-172.33" font-family="Times,serif" font-size="9.00">&#45;4</text>
</g>
<!-- &#45;4&#45;&gt;0 -->
<g id="edge89" class="edge">
<title>&#45;4&#45;&gt;0</title>
<path fill="none" stroke="green" stroke-width="0.24" d="M1195.02,-165.44C1186.75,-145.07 1162.03,-91.65 1122.11,-68.53 991.01,7.42 927.01,-79.95 783.11,-32.53 781.85,-32.11 780.59,-31.63 779.33,-31.1"/>
<polygon fill="green" stroke="green" stroke-width="0.24" points="780.58,-27.8 770.09,-26.33 777.37,-34.03 780.58,-27.8"/>
</g>
<!-- &#45;4&#45;&gt;2 -->
<g id="edge52" class="edge">
<title>&#45;4&#45;&gt;2</title>
<path fill="none" stroke="red" stroke-width="0.2" d="M1185,-172.63C1130.35,-168.66 920.89,-151.51 865.11,-118.02 841.33,-103.75 849.66,-84.68 827.11,-68.53 806.59,-53.83 738.69,-34.06 701.32,-23.9"/>
<polygon fill="red" stroke="red" stroke-width="0.2" points="702.21,-20.52 691.65,-21.3 700.4,-27.28 702.21,-20.52"/>
</g>
<!-- &#45;4&#45;&gt;3 -->
<g id="edge79" class="edge">
<title>&#45;4&#45;&gt;3</title>
<path fill="none" stroke="red" stroke-width="0.29" stroke-dasharray="1,5" d="M1202.84,-165.49C1213.53,-146.15 1236.79,-96.54 1212.11,-68.53 1187.07,-40.1 920.77,-23.34 834.74,-18.64"/>
<polygon fill="red" stroke="red" stroke-width="0.29" points="834.9,-15.14 824.73,-18.1 834.53,-22.13 834.9,-15.14"/>
</g>
<!-- &#45;4&#45;&gt;4 -->
<g id="edge68" class="edge">
<title>&#45;4&#45;&gt;4</title>
<path fill="none" stroke="red" stroke-width="0.23" d="M1184.89,-173.03C1069.47,-168.66 236.52,-136.45 219.11,-118.02 144.34,-38.9 386.06,-21.67 468.54,-18.13"/>
<polygon fill="red" stroke="red" stroke-width="0.23" points="468.79,-21.62 478.64,-17.73 468.51,-14.63 468.79,-21.62"/>
</g>
<!-- 180 -->
<g id="node27" class="node">
<title>180</title>
<ellipse fill="white" stroke="black" cx="1289.11" cy="-93.28" rx="25" ry="25"/>
<text text-anchor="middle" x="1289.11" y="-91.08" font-family="Times,serif" font-size="9.00">180</text>
</g>
<!-- &#45;4&#45;&gt;180 -->
<g id="edge14" class="edge">
<title>&#45;4&#45;&gt;180</title>
<path fill="none" stroke="green" stroke-width="0.53" d="M1207.51,-165.35C1220.54,-154 1244.6,-133.04 1263.23,-116.81"/>
<polygon fill="green" stroke="green" stroke-width="0.53" points="1265.6,-119.4 1270.84,-110.19 1261,-114.12 1265.6,-119.4"/>
</g>
<!-- &#45;5 -->
<g id="node5" class="node">
<title>&#45;5</title>
<polygon fill="lightgray" stroke="black" points="398.11,-102.28 372.11,-102.28 372.11,-84.28 398.11,-84.28 398.11,-102.28"/>
<text text-anchor="middle" x="385.11" y="-91.08" font-family="Times,serif" font-size="9.00">&#45;5</text>
</g>
<!-- &#45;5&#45;&gt;0 -->
<g id="edge35" class="edge">
<title>&#45;5&#45;&gt;0</title>
<path fill="none" stroke="red" stroke-width="0.61" d="M390.25,-84.27C394.18,-78.88 400.11,-72.11 407.11,-68.53 524.32,-8.59 571.94,-57.9 701.11,-32.53 711.28,-30.53 722.31,-27.68 731.87,-24.97"/>
<polygon fill="red" stroke="red" stroke-width="0.61" points="732.94,-28.31 741.56,-22.15 730.98,-21.59 732.94,-28.31"/>
</g>
<!-- &#45;5&#45;&gt;1 -->
<g id="edge10" class="edge">
<title>&#45;5&#45;&gt;1</title>
<path fill="none" stroke="green" stroke-width="0.57" d="M390.82,-84.21C394.85,-79.06 400.65,-72.61 407.11,-68.53 410.12,-66.62 500.34,-38.73 545.23,-24.91"/>
<polygon fill="green" stroke="green" stroke-width="0.57" points="546.31,-28.24 554.84,-21.95 544.25,-21.55 546.31,-28.24"/>
</g>
<!-- &#45;5&#45;&gt;2 -->
<g id="edge97" class="edge">
<title>&#45;5&#45;&gt;2</title>
<path fill="none" stroke="red" stroke-width="0.74" d="M390.67,-83.95C394.63,-78.7 400.42,-72.23 407.11,-68.53 408.45,-67.78 582.67,-34.88 649.98,-22.19"/>
<polygon fill="red" stroke="red" stroke-width="0.74" points="651,-25.56 660.18,-20.26 649.71,-18.68 651,-25.56"/>
</g>
<!-- &#45;5&#45;&gt;3 -->
<g id="edge66" class="edge">
<title>&#45;5&#45;&gt;3</title>
<path fill="none" stroke="red" stroke-width="0.2" stroke-dasharray="1,5" d="M390.22,-84.22C394.14,-78.79 400.06,-72.02 407.11,-68.53 557.16,5.75 622.83,-84.13 782.11,-32.53 783.37,-32.12 784.64,-31.64 785.89,-31.11"/>
<polygon fill="red" stroke="red" stroke-width="0.2" points="787.85,-34.04 795.14,-26.36 784.65,-27.82 787.85,-34.04"/>
</g>
<!-- &#45;5&#45;&gt;4 -->
<g id="edge59" class="edge">
<title>&#45;5&#45;&gt;4</title>
<path fill="none" stroke="green" stroke-width="0.36" d="M391.52,-84.22C395.65,-79.34 401.32,-73.17 407.11,-68.53 427.23,-52.41 452.97,-38.02 471.41,-28.62"/>
<polygon fill="green" stroke="green" stroke-width="0.36" points="473.18,-31.65 480.57,-24.06 470.06,-25.39 473.18,-31.65"/>
</g>
<!-- &#45;6 -->
<g id="node6" class="node">
<title>&#45;6</title>
<polygon fill="lightgray" stroke="black" points="774.11,-102.28 748.11,-102.28 748.11,-84.28 774.11,-84.28 774.11,-102.28"/>
<text text-anchor="middle" x="761.11" y="-91.08" font-family="Times,serif" font-size="9.00">&#45;6</text>
</g>
<!-- &#45;6&#45;&gt;0 -->
<g id="edge78" class="edge">
<title>&#45;6&#45;&gt;0</title>
<path fill="none" stroke="red" stroke-width="0.39" d="M760.68,-84.25C760.16,-74.49 759.26,-57.54 758.49,-43.13"/>
<polygon fill="red" stroke="red" stroke-width="0.39" points="761.97,-42.57 757.94,-32.77 754.98,-42.94 761.97,-42.57"/>
</g>
<!-- &#45;6&#45;&gt;1 -->
<g id="edge12" class="edge">
<title>&#45;6&#45;&gt;1</title>
<path fill="none" stroke="green" stroke-width="0.68" d="M755.41,-84.19C751.39,-79.03 745.59,-72.58 739.11,-68.53 693.61,-40.06 631.31,-26.55 596.47,-20.86"/>
<polygon fill="green" stroke="green" stroke-width="0.68" points="596.59,-17.34 586.17,-19.28 595.53,-24.26 596.59,-17.34"/>
</g>
<!-- &#45;6&#45;&gt;2 -->
<g id="edge17" class="edge">
<title>&#45;6&#45;&gt;2</title>
<path fill="none" stroke="red" stroke-width="0.16" d="M754.05,-84.09C749.86,-79.39 744.36,-73.45 739.11,-68.53 725.74,-55.99 709.7,-42.96 697.16,-33.18"/>
<polygon fill="red" stroke="red" stroke-width="0.16" points="699.16,-30.31 689.1,-26.97 694.88,-35.85 699.16,-30.31"/>
</g>
<!-- &#45;6&#45;&gt;3 -->
<g id="edge50" class="edge">
<title>&#45;6&#45;&gt;3</title>
<path fill="none" stroke="green" stroke-width="0.28" d="M766.14,-84.25C772.81,-73.61 784.84,-54.41 794.31,-39.29"/>
<polygon fill="green" stroke="green" stroke-width="0.28" points="797.47,-40.84 799.81,-30.51 791.53,-37.13 797.47,-40.84"/>
</g>
<!-- &#45;6&#45;&gt;4 -->
<g id="edge60" class="edge">
<title>&#45;6&#45;&gt;4</title>
<path fill="none" stroke="green" stroke-width="0.31" d="M755.55,-83.94C751.6,-78.69 745.81,-72.22 739.11,-68.53 662.3,-26.21 630.29,-53.36 545.11,-32.53 536.9,-30.52 528.04,-27.95 520.09,-25.49"/>
<polygon fill="green" stroke="green" stroke-width="0.31" points="520.9,-22.08 510.31,-22.39 518.78,-28.75 520.9,-22.08"/>
</g>
<!-- &#45;7 -->
<g id="node7" class="node">
<title>&#45;7</title>
<polygon fill="lightgray" stroke="black" points="730.11,-102.28 704.11,-102.28 704.11,-84.28 730.11,-84.28 730.11,-102.28"/>
<text text-anchor="middle" x="717.11" y="-91.08" font-family="Times,serif" font-size="9.00">&#45;7</text>
</g>
<!-- &#45;7&#45;&gt;0 -->
<g id="edge26" class="edge">
<title>&#45;7&#45;&gt;0</title>
<path fill="none" stroke="red" stroke-width="0.15" d="M721.39,-84.25C726.95,-73.83 736.87,-55.22 744.85,-40.25"/>
<polygon fill="red" stroke="red" stroke-width="0.15" points="748.13,-41.54 749.75,-31.07 741.96,-38.24 748.13,-41.54"/>
</g>
<!-- &#45;7&#45;&gt;1 -->
<g id="edge96" class="edge">
<title>&#45;7&#45;&gt;1</title>
<path fill="none" stroke="green" stroke-width="0.53" d="M704.07,-85.62C679.21,-72.94 624.76,-45.15 593.48,-29.19"/>
<polygon fill="green" stroke="green" stroke-width="0.53" points="594.7,-25.88 584.2,-24.45 591.51,-32.11 594.7,-25.88"/>
</g>
<!-- &#45;7&#45;&gt;2 -->
<g id="edge64" class="edge">
<title>&#45;7&#45;&gt;2</title>
<path fill="none" stroke="green" stroke-width="0.16" d="M712.72,-84.25C707,-73.77 696.73,-55 688.53,-39.98"/>
<polygon fill="green" stroke="green" stroke-width="0.16" points="691.37,-37.88 683.5,-30.79 685.23,-41.24 691.37,-37.88"/>
</g>
<!-- &#45;7&#45;&gt;3 -->
<g id="edge33" class="edge">
<title>&#45;7&#45;&gt;3</title>
<path fill="none" stroke="green" stroke-width="0.14" d="M724.09,-84C728.26,-79.27 733.76,-73.33 739.11,-68.53 754.05,-55.12 772.35,-41.65 786.34,-31.88"/>
<polygon fill="green" stroke="green" stroke-width="0.14" points="788.58,-34.59 794.84,-26.03 784.62,-28.82 788.58,-34.59"/>
</g>
<!-- &#45;7&#45;&gt;4 -->
<g id="edge48" class="edge">
<title>&#45;7&#45;&gt;4</title>
<path fill="none" stroke="green" stroke-width="0.73" d="M703.87,-86.72C691.78,-81.73 673.37,-74.31 657.11,-68.53 631.58,-59.45 559.25,-37 520.45,-25.04"/>
<polygon fill="green" stroke="green" stroke-width="0.73" points="521.05,-21.57 510.46,-21.97 518.99,-28.26 521.05,-21.57"/>
</g>
<!-- &#45;8 -->
<g id="node8" class="node">
<title>&#45;8</title>
<polygon fill="lightgray" stroke="black" points="818.11,-102.28 792.11,-102.28 792.11,-84.28 818.11,-84.28 818.11,-102.28"/>
<text text-anchor="middle" x="805.11" y="-91.08" font-family="Times,serif" font-size="9.00">&#45;8</text>
</g>
<!-- &#45;8&#45;&gt;0 -->
<g id="edge73" class="edge">
<title>&#45;8&#45;&gt;0</title>
<path fill="none" stroke="red" stroke-width="0.68" d="M799.97,-84.25C793.16,-73.61 780.88,-54.41 771.2,-39.29"/>
<polygon fill="red" stroke="red" stroke-width="0.68" points="773.93,-37.05 765.59,-30.51 768.03,-40.82 773.93,-37.05"/>
</g>
<!-- &#45;8&#45;&gt;1 -->
<g id="edge25" class="edge">
<title>&#45;8&#45;&gt;1</title>
<path fill="none" stroke="green" stroke-width="0.33" d="M799.49,-84.06C795.5,-78.85 789.71,-72.39 783.11,-68.53 766.91,-59.04 649.05,-33.7 595.94,-22.6"/>
<polygon fill="green" stroke="green" stroke-width="0.33" points="596.44,-19.13 585.94,-20.52 595.01,-25.98 596.44,-19.13"/>
</g>
<!-- &#45;8&#45;&gt;2 -->
<g id="edge32" class="edge">
<title>&#45;8&#45;&gt;2</title>
<path fill="none" stroke="red" stroke-width="0.29" d="M798.83,-84.06C794.74,-79.11 789.08,-72.93 783.11,-68.53 757.37,-49.56 723.51,-34.74 700.83,-26.02"/>
<polygon fill="red" stroke="red" stroke-width="0.29" points="701.87,-22.67 691.27,-22.45 699.42,-29.23 701.87,-22.67"/>
</g>
<!-- &#45;8&#45;&gt;3 -->
<g id="edge63" class="edge">
<title>&#45;8&#45;&gt;3</title>
<path fill="none" stroke="green" stroke-width="0.6" d="M805.43,-84.25C805.82,-74.49 806.5,-57.54 807.08,-43.13"/>
<polygon fill="green" stroke="green" stroke-width="0.6" points="810.59,-42.9 807.49,-32.77 803.59,-42.62 810.59,-42.9"/>
</g>
<!-- &#45;8&#45;&gt;4 -->
<g id="edge76" class="edge">
<title>&#45;8&#45;&gt;4</title>
<path fill="none" stroke="green" stroke-width="0.72" d="M799.59,-83.87C795.65,-78.58 789.87,-72.1 783.11,-68.53 688.56,-18.48 649.44,-56.21 545.11,-32.53 536.86,-30.66 528,-28.12 520.05,-25.66"/>
<polygon fill="green" stroke="green" stroke-width="0.72" points="520.86,-22.25 510.27,-22.52 518.73,-28.91 520.86,-22.25"/>
</g>
<!-- &#45;9 -->
<g id="node9" class="node">
<title>&#45;9</title>
<polygon fill="lightgray" stroke="black" points="689.11,-183.53 663.11,-183.53 663.11,-165.53 689.11,-165.53 689.11,-183.53"/>
<text text-anchor="middle" x="676.11" y="-172.33" font-family="Times,serif" font-size="9.00">&#45;9</text>
</g>
<!-- &#45;9&#45;&gt;0 -->
<g id="edge88" class="edge">
<title>&#45;9&#45;&gt;0</title>
<path fill="none" stroke="green" stroke-width="0.33" d="M689.31,-172.83C758.26,-169.06 1074.99,-150.04 1103.11,-118.02 1117.63,-101.5 1117.77,-84.93 1103.11,-68.53 1055.42,-15.17 851.01,-55.13 783.11,-32.53 781.85,-32.11 780.59,-31.62 779.34,-31.09"/>
<polygon fill="green" stroke="green" stroke-width="0.33" points="780.58,-27.79 770.09,-26.32 777.37,-34.01 780.58,-27.79"/>
</g>
<!-- &#45;9&#45;&gt;2 -->
<g id="edge51" class="edge">
<title>&#45;9&#45;&gt;2</title>
<path fill="none" stroke="red" stroke-width="0.21" d="M676.11,-165.13C676.11,-142.38 676.11,-78.87 676.11,-42.92"/>
<polygon fill="red" stroke="red" stroke-width="0.21" points="679.61,-42.73 676.11,-32.73 672.61,-42.73 679.61,-42.73"/>
</g>
<!-- &#45;9&#45;&gt;3 -->
<g id="edge19" class="edge">
<title>&#45;9&#45;&gt;3</title>
<path fill="none" stroke="green" stroke-width="0.16" d="M689.42,-172.9C760.44,-169.42 1092.6,-151.43 1122.11,-118.02 1203.97,-25.34 924.18,-17.33 834.72,-17.09"/>
<polygon fill="green" stroke="green" stroke-width="0.16" points="834.56,-13.59 824.56,-17.09 834.56,-20.59 834.56,-13.59"/>
</g>
<!-- &#45;9&#45;&gt;4 -->
<g id="edge67" class="edge">
<title>&#45;9&#45;&gt;4</title>
<path fill="none" stroke="red" stroke-width="0.31" d="M662.99,-173.07C588.29,-170.29 218.9,-154.74 186.11,-118.02 105.02,-27.23 380.09,-17.91 468.58,-17.22"/>
<polygon fill="red" stroke="red" stroke-width="0.31" points="468.66,-20.72 478.65,-17.17 468.63,-13.72 468.66,-20.72"/>
</g>
<!-- 6 -->
<g id="node26" class="node">
<title>6</title>
<ellipse fill="white" stroke="black" cx="118.11" cy="-93.28" rx="16.03" ry="16.03"/>
<text text-anchor="middle" x="118.11" y="-91.08" font-family="Times,serif" font-size="9.00">6</text>
</g>
<!-- &#45;9&#45;&gt;6 -->
<g id="edge27" class="edge">
<title>&#45;9&#45;&gt;6</title>
<path fill="none" stroke="green" stroke-width="0.44" d="M662.99,-173.14C591.22,-170.85 245.84,-157.87 148.11,-118.02 144.28,-116.46 140.53,-114.25 137.06,-111.8"/>
<polygon fill="green" stroke="green" stroke-width="0.44" points="139.09,-108.95 129.09,-105.45 134.73,-114.42 139.09,-108.95"/>
</g>
<!-- &#45;10 -->
<g id="node10" class="node">
<title>&#45;10</title>
<polygon fill="lightgray" stroke="black" points="1094.11,-102.28 1062.11,-102.28 1062.11,-84.28 1094.11,-84.28 1094.11,-102.28"/>
<text text-anchor="middle" x="1078.11" y="-91.08" font-family="Times,serif" font-size="9.00">&#45;10</text>
</g>
<!-- &#45;10&#45;&gt;0 -->
<g id="edge34" class="edge">
<title>&#45;10&#45;&gt;0</title>
<path fill="none" stroke="red" stroke-width="0.61" d="M1071.62,-83.83C1067.05,-78.52 1060.46,-72.04 1053.11,-68.53 943.9,-16.29 897.57,-71.95 783.11,-32.53 781.86,-32.1 780.6,-31.6 779.35,-31.06"/>
<polygon fill="red" stroke="red" stroke-width="0.61" points="780.6,-27.76 770.11,-26.26 777.37,-33.98 780.6,-27.76"/>
</g>
<!-- &#45;10&#45;&gt;1 -->
<g id="edge65" class="edge">
<title>&#45;10&#45;&gt;1</title>
<path fill="none" stroke="red" stroke-width="0.64" d="M1072.07,-84.19C1067.51,-78.76 1060.75,-71.98 1053.11,-68.53 971.38,-31.58 739.95,-44.85 651.11,-32.53 632.57,-29.96 611.83,-26.03 595.97,-22.8"/>
<polygon fill="red" stroke="red" stroke-width="0.64" points="596.37,-19.31 585.87,-20.7 594.95,-26.16 596.37,-19.31"/>
</g>
<!-- &#45;10&#45;&gt;2 -->
<g id="edge74" class="edge">
<title>&#45;10&#45;&gt;2</title>
<path fill="none" stroke="green" stroke-width="0.51" d="M1072.04,-84.25C1067.47,-78.84 1060.71,-72.06 1053.11,-68.53 922.96,-7.94 873.12,-59.48 732.11,-32.53 721.93,-30.58 710.9,-27.74 701.34,-25.03"/>
<polygon fill="green" stroke="green" stroke-width="0.51" points="702.23,-21.64 691.65,-22.19 700.26,-28.36 702.23,-21.64"/>
</g>
<!-- &#45;10&#45;&gt;3 -->
<g id="edge9" class="edge">
<title>&#45;10&#45;&gt;3</title>
<path fill="none" stroke="red" stroke-width="0.47" stroke-dasharray="1,5" d="M1071.53,-84.01C1066.93,-78.77 1060.32,-72.31 1053.11,-68.53 980.43,-30.41 881.65,-20.63 834.83,-18.13"/>
<polygon fill="red" stroke="red" stroke-width="0.47" points="834.76,-14.62 824.61,-17.65 834.44,-21.61 834.76,-14.62"/>
</g>
<!-- &#45;11 -->
<g id="node11" class="node">
<title>&#45;11</title>
<polygon fill="lightgray" stroke="black" points="448.11,-102.28 416.11,-102.28 416.11,-84.28 448.11,-84.28 448.11,-102.28"/>
<text text-anchor="middle" x="432.11" y="-91.08" font-family="Times,serif" font-size="9.00">&#45;11</text>
</g>
<!-- &#45;11&#45;&gt;0 -->
<g id="edge77" class="edge">
<title>&#45;11&#45;&gt;0</title>
<path fill="none" stroke="green" stroke-width="0.23" d="M438.62,-83.86C443.19,-78.57 449.79,-72.09 457.11,-68.53 555.67,-20.54 593.82,-54.98 701.11,-32.53 711.25,-30.4 722.28,-27.53 731.85,-24.84"/>
<polygon fill="green" stroke="green" stroke-width="0.23" points="732.9,-28.18 741.54,-22.05 730.96,-21.45 732.9,-28.18"/>
</g>
<!-- &#45;11&#45;&gt;1 -->
<g id="edge49" class="edge">
<title>&#45;11&#45;&gt;1</title>
<path fill="none" stroke="green" stroke-width="0.2" d="M439.41,-84.07C444.11,-79.12 450.56,-72.94 457.11,-68.53 485.13,-49.66 521.21,-34.67 544.98,-25.89"/>
<polygon fill="green" stroke="green" stroke-width="0.2" points="546.43,-29.09 554.65,-22.41 544.06,-22.5 546.43,-29.09"/>
</g>
<!-- &#45;11&#45;&gt;2 -->
<g id="edge16" class="edge">
<title>&#45;11&#45;&gt;2</title>
<path fill="none" stroke="red" stroke-width="0.17" d="M438.72,-84.06C443.34,-78.85 449.95,-72.39 457.11,-68.53 474.15,-59.33 596.17,-33.63 650.33,-22.5"/>
<polygon fill="red" stroke="red" stroke-width="0.17" points="651.11,-25.92 660.21,-20.48 649.71,-19.06 651.11,-25.92"/>
</g>
<!-- &#45;11&#45;&gt;3 -->
<g id="edge87" class="edge">
<title>&#45;11&#45;&gt;3</title>
<path fill="none" stroke="red" stroke-width="0.24" d="M438.18,-84.24C442.75,-78.83 449.51,-72.06 457.11,-68.53 588.9,-7.28 644.19,-78.32 782.11,-32.53 783.37,-32.11 784.63,-31.63 785.89,-31.09"/>
<polygon fill="red" stroke="red" stroke-width="0.24" points="787.85,-34.02 795.13,-26.32 784.64,-27.8 787.85,-34.02"/>
</g>
<!-- &#45;11&#45;&gt;4 -->
<g id="edge58" class="edge">
<title>&#45;11&#45;&gt;4</title>
<path fill="none" stroke="green" stroke-width="0.43" d="M438.85,-84.25C448.23,-73.09 465.5,-52.52 478.45,-37.1"/>
<polygon fill="green" stroke="green" stroke-width="0.43" points="481.36,-39.07 485.12,-29.16 476,-34.57 481.36,-39.07"/>
</g>
<!-- &#45;12 -->
<g id="node12" class="node">
<title>&#45;12</title>
<polygon fill="lightgray" stroke="black" points="1044.11,-102.28 1012.11,-102.28 1012.11,-84.28 1044.11,-84.28 1044.11,-102.28"/>
<text text-anchor="middle" x="1028.11" y="-91.08" font-family="Times,serif" font-size="9.00">&#45;12</text>
</g>
<!-- &#45;12&#45;&gt;0 -->
<g id="edge24" class="edge">
<title>&#45;12&#45;&gt;0</title>
<path fill="none" stroke="green" stroke-width="0.13" d="M1021.59,-83.9C1017,-78.62 1010.4,-72.15 1003.11,-68.53 914.37,-24.46 876.3,-66.18 783.11,-32.53 781.86,-32.08 780.61,-31.57 779.36,-31.01"/>
<polygon fill="green" stroke="green" stroke-width="0.13" points="780.62,-27.72 770.14,-26.18 777.37,-33.92 780.62,-27.72"/>
</g>
<!-- &#45;12&#45;&gt;2 -->
<g id="edge85" class="edge">
<title>&#45;12&#45;&gt;2</title>
<path fill="none" stroke="green" stroke-width="0.34" d="M1021.62,-83.83C1017.05,-78.52 1010.46,-72.04 1003.11,-68.53 893.49,-16.13 851.21,-56.56 732.11,-32.53 721.96,-30.48 710.92,-27.61 701.36,-24.92"/>
<polygon fill="green" stroke="green" stroke-width="0.34" points="702.25,-21.53 691.67,-22.11 700.3,-28.25 702.25,-21.53"/>
</g>
<!-- &#45;12&#45;&gt;3 -->
<g id="edge15" class="edge">
<title>&#45;12&#45;&gt;3</title>
<path fill="none" stroke="green" stroke-width="0.49" d="M1021.47,-84.13C1016.83,-78.94 1010.22,-72.49 1003.11,-68.53 947.77,-37.69 873.22,-24.83 834.27,-19.95"/>
<polygon fill="green" stroke="green" stroke-width="0.49" points="834.62,-16.46 824.28,-18.77 833.8,-23.41 834.62,-16.46"/>
</g>
<!-- &#45;12&#45;&gt;4 -->
<g id="edge7" class="edge">
<title>&#45;12&#45;&gt;4</title>
<path fill="none" stroke="red" stroke-width="0.25" d="M1022.08,-84.17C1017.53,-78.72 1010.77,-71.94 1003.11,-68.53 909.85,-26.98 645.42,-51.54 545.11,-32.53 536.8,-30.95 527.92,-28.5 519.98,-26.02"/>
<polygon fill="red" stroke="red" stroke-width="0.25" points="520.81,-22.61 510.21,-22.82 518.62,-29.26 520.81,-22.61"/>
</g>
<!-- &#45;13 -->
<g id="node13" class="node">
<title>&#45;13</title>
<polygon fill="lightgray" stroke="black" points="498.11,-102.28 466.11,-102.28 466.11,-84.28 498.11,-84.28 498.11,-102.28"/>
<text text-anchor="middle" x="482.11" y="-91.08" font-family="Times,serif" font-size="9.00">&#45;13</text>
</g>
<!-- &#45;13&#45;&gt;0 -->
<g id="edge72" class="edge">
<title>&#45;13&#45;&gt;0</title>
<path fill="none" stroke="red" stroke-width="0.2" d="M488.66,-83.95C493.26,-78.7 499.86,-72.23 507.11,-68.53 585.23,-28.69 615.62,-52.07 701.11,-32.53 711.21,-30.22 722.23,-27.3 731.8,-24.64"/>
<polygon fill="red" stroke="red" stroke-width="0.2" points="732.84,-27.98 741.51,-21.89 730.93,-21.25 732.84,-27.98"/>
</g>
<!-- &#45;13&#45;&gt;1 -->
<g id="edge43" class="edge">
<title>&#45;13&#45;&gt;1</title>
<path fill="none" stroke="red" stroke-width="0.57" d="M490.3,-84.2C495.11,-79.52 501.36,-73.59 507.11,-68.53 520.88,-56.42 536.91,-43.39 549.35,-33.5"/>
<polygon fill="red" stroke="red" stroke-width="0.57" points="551.65,-36.14 557.32,-27.2 547.31,-30.65 551.65,-36.14"/>
</g>
<!-- &#45;13&#45;&gt;2 -->
<g id="edge31" class="edge">
<title>&#45;13&#45;&gt;2</title>
<path fill="none" stroke="red" stroke-width="0.27" stroke-dasharray="1,5" d="M488.8,-84.21C493.46,-79.07 500.07,-72.62 507.11,-68.53 553.26,-41.67 614.83,-27.63 649.48,-21.4"/>
<polygon fill="red" stroke="red" stroke-width="0.27" points="650.47,-24.78 659.74,-19.64 649.29,-17.88 650.47,-24.78"/>
</g>
<!-- &#45;13&#45;&gt;3 -->
<g id="edge5" class="edge">
<title>&#45;13&#45;&gt;3</title>
<path fill="none" stroke="green" stroke-width="0.33" d="M488.6,-83.82C493.17,-78.51 499.76,-72.03 507.11,-68.53 618.37,-15.47 665.52,-72.53 782.11,-32.53 783.36,-32.1 784.62,-31.6 785.88,-31.06"/>
<polygon fill="green" stroke="green" stroke-width="0.33" points="787.85,-33.98 795.11,-26.27 784.62,-27.77 787.85,-33.98"/>
</g>
<!-- &#45;13&#45;&gt;4 -->
<g id="edge93" class="edge">
<title>&#45;13&#45;&gt;4</title>
<path fill="none" stroke="red" stroke-width="0.67" d="M483.5,-84.25C485.22,-74.33 488.23,-56.99 490.75,-42.44"/>
<polygon fill="red" stroke="red" stroke-width="0.67" points="494.21,-42.93 492.47,-32.48 487.32,-41.74 494.21,-42.93"/>
</g>
<!-- &#45;14 -->
<g id="node14" class="node">
<title>&#45;14</title>
<polygon fill="lightgray" stroke="black" points="354.11,-102.28 322.11,-102.28 322.11,-84.28 354.11,-84.28 354.11,-102.28"/>
<text text-anchor="middle" x="338.11" y="-91.08" font-family="Times,serif" font-size="9.00">&#45;14</text>
</g>
<!-- &#45;14&#45;&gt;1 -->
<g id="edge47" class="edge">
<title>&#45;14&#45;&gt;1</title>
<path fill="none" stroke="red" stroke-width="0.71" d="M344.71,-84.05C349.33,-78.84 355.94,-72.38 363.11,-68.53 426.19,-34.67 450.94,-50.99 520.11,-32.53 528.28,-30.35 537.13,-27.73 545.07,-25.29"/>
<polygon fill="red" stroke="red" stroke-width="0.71" points="546.37,-28.55 554.87,-22.22 544.28,-21.87 546.37,-28.55"/>
</g>
<!-- &#45;14&#45;&gt;2 -->
<g id="edge56" class="edge">
<title>&#45;14&#45;&gt;2</title>
<path fill="none" stroke="green" stroke-width="0.56" d="M344.62,-83.88C349.21,-78.6 355.8,-72.12 363.11,-68.53 456.76,-22.5 492.27,-50.19 595.11,-32.53 613.56,-29.36 634.3,-25.44 650.18,-22.37"/>
<polygon fill="green" stroke="green" stroke-width="0.56" points="651.16,-25.75 660.31,-20.4 649.82,-18.87 651.16,-25.75"/>
</g>
<!-- &#45;14&#45;&gt;3 -->
<g id="edge83" class="edge">
<title>&#45;14&#45;&gt;3</title>
<path fill="none" stroke="green" stroke-width="0.53" stroke-dasharray="1,5" d="M344.15,-84.18C348.71,-78.75 355.47,-71.97 363.11,-68.53 533.57,8.15 604.01,-89.24 782.11,-32.53 783.37,-32.12 784.64,-31.65 785.9,-31.13"/>
<polygon fill="green" stroke="green" stroke-width="0.53" points="787.85,-34.06 795.15,-26.39 784.66,-27.83 787.85,-34.06"/>
</g>
<!-- &#45;14&#45;&gt;4 -->
<g id="edge94" class="edge">
<title>&#45;14&#45;&gt;4</title>
<path fill="none" stroke="green" stroke-width="0.18" d="M345.33,-83.94C350,-78.94 356.44,-72.76 363.11,-68.53 397.35,-46.81 442.26,-31.8 469.88,-23.87"/>
<polygon fill="green" stroke="green" stroke-width="0.18" points="470.87,-27.23 479.56,-21.17 468.99,-20.48 470.87,-27.23"/>
</g>
<!-- &#45;15 -->
<g id="node15" class="node">
<title>&#45;15</title>
<polygon fill="lightgray" stroke="black" points="906.11,-102.28 874.11,-102.28 874.11,-84.28 906.11,-84.28 906.11,-102.28"/>
<text text-anchor="middle" x="890.11" y="-91.08" font-family="Times,serif" font-size="9.00">&#45;15</text>
</g>
<!-- &#45;15&#45;&gt;0 -->
<g id="edge62" class="edge">
<title>&#45;15&#45;&gt;0</title>
<path fill="none" stroke="red" stroke-width="0.34" stroke-dasharray="1,5" d="M881.06,-84.2C875.31,-79.31 867.57,-73.14 860.11,-68.53 827.97,-48.67 816.55,-50.11 783.11,-32.53 781.96,-31.92 780.8,-31.29 779.62,-30.65"/>
<polygon fill="red" stroke="red" stroke-width="0.34" points="781.16,-27.5 770.74,-25.59 777.69,-33.58 781.16,-27.5"/>
</g>
<!-- &#45;15&#45;&gt;1 -->
<g id="edge30" class="edge">
<title>&#45;15&#45;&gt;1</title>
<path fill="none" stroke="green" stroke-width="0.5" d="M874.04,-85.38C861.45,-80.19 843.41,-73.19 827.11,-68.53 804.93,-62.18 656.58,-33.71 595.9,-22.16"/>
<polygon fill="green" stroke="green" stroke-width="0.5" points="596.44,-18.7 585.97,-20.27 595.14,-25.58 596.44,-18.7"/>
</g>
<!-- &#45;15&#45;&gt;2 -->
<g id="edge3" class="edge">
<title>&#45;15&#45;&gt;2</title>
<path fill="none" stroke="red" stroke-width="0.12" d="M881.82,-84.21C876.13,-79.07 868.16,-72.62 860.11,-68.53 856.5,-66.69 751,-37.74 701.41,-24.17"/>
<polygon fill="red" stroke="red" stroke-width="0.12" points="702.3,-20.79 691.73,-21.53 700.46,-27.54 702.3,-20.79"/>
</g>
<!-- &#45;15&#45;&gt;3 -->
<g id="edge71" class="edge">
<title>&#45;15&#45;&gt;3</title>
<path fill="none" stroke="green" stroke-width="0.25" d="M881.34,-84.25C868.55,-72.56 844.48,-50.54 827.43,-34.94"/>
<polygon fill="green" stroke="green" stroke-width="0.25" points="829.45,-32.04 819.71,-27.87 824.72,-37.2 829.45,-32.04"/>
</g>
<!-- &#45;15&#45;&gt;4 -->
<g id="edge81" class="edge">
<title>&#45;15&#45;&gt;4</title>
<path fill="none" stroke="red" stroke-width="0.18" d="M873.87,-84.95C861.34,-79.6 843.45,-72.59 827.11,-68.53 704.49,-38.04 668.64,-59.07 545.11,-32.53 536.84,-30.75 527.97,-28.25 520.03,-25.78"/>
<polygon fill="red" stroke="red" stroke-width="0.18" points="520.84,-22.36 510.25,-22.62 518.69,-29.02 520.84,-22.36"/>
</g>
<!-- &#45;16 -->
<g id="node16" class="node">
<title>&#45;16</title>
<polygon fill="lightgray" stroke="black" points="548.11,-102.28 516.11,-102.28 516.11,-84.28 548.11,-84.28 548.11,-102.28"/>
<text text-anchor="middle" x="532.11" y="-91.08" font-family="Times,serif" font-size="9.00">&#45;16</text>
</g>
<!-- &#45;16&#45;&gt;0 -->
<g id="edge11" class="edge">
<title>&#45;16&#45;&gt;0</title>
<path fill="none" stroke="green" stroke-width="0.38" d="M538.74,-84.1C543.37,-78.9 549.98,-72.45 557.11,-68.53 614.93,-36.76 637.28,-49.2 701.11,-32.53 711.13,-29.91 722.14,-26.93 731.72,-24.31"/>
<polygon fill="green" stroke="green" stroke-width="0.38" points="732.73,-27.66 741.44,-21.63 730.87,-20.91 732.73,-27.66"/>
</g>
<!-- &#45;16&#45;&gt;1 -->
<g id="edge39" class="edge">
<title>&#45;16&#45;&gt;1</title>
<path fill="none" stroke="red" stroke-width="0.63" d="M536.18,-84.25C541.45,-73.83 550.88,-55.22 558.47,-40.25"/>
<polygon fill="red" stroke="red" stroke-width="0.63" points="561.72,-41.57 563.12,-31.07 555.48,-38.4 561.72,-41.57"/>
</g>
<!-- &#45;16&#45;&gt;2 -->
<g id="edge70" class="edge">
<title>&#45;16&#45;&gt;2</title>
<path fill="none" stroke="red" stroke-width="0.33" d="M539.38,-84.02C544.07,-79.06 550.51,-72.88 557.11,-68.53 587.01,-48.8 625.76,-33.78 650.78,-25.24"/>
<polygon fill="red" stroke="red" stroke-width="0.33" points="652.21,-28.46 660.6,-21.99 650,-21.81 652.21,-28.46"/>
</g>
<!-- &#45;16&#45;&gt;3 -->
<g id="edge2" class="edge">
<title>&#45;16&#45;&gt;3</title>
<path fill="none" stroke="red" stroke-width="0.52" d="M538.63,-83.89C543.21,-78.61 549.81,-72.14 557.11,-68.53 647.89,-23.64 686.8,-66.75 782.11,-32.53 783.36,-32.08 784.61,-31.57 785.86,-31.02"/>
<polygon fill="red" stroke="red" stroke-width="0.52" points="787.85,-33.93 795.08,-26.19 784.6,-27.73 787.85,-33.93"/>
</g>
<!-- &#45;16&#45;&gt;4 -->
<g id="edge29" class="edge">
<title>&#45;16&#45;&gt;4</title>
<path fill="none" stroke="green" stroke-width="0.39" d="M528.15,-84.25C523.01,-73.83 513.83,-55.22 506.45,-40.25"/>
<polygon fill="green" stroke="green" stroke-width="0.39" points="509.48,-38.49 501.92,-31.07 503.2,-41.58 509.48,-38.49"/>
</g>
<!-- &#45;17 -->
<g id="node17" class="node">
<title>&#45;17</title>
<polygon fill="lightgray" stroke="black" points="598.11,-102.28 566.11,-102.28 566.11,-84.28 598.11,-84.28 598.11,-102.28"/>
<text text-anchor="middle" x="582.11" y="-91.08" font-family="Times,serif" font-size="9.00">&#45;17</text>
</g>
<!-- &#45;17&#45;&gt;0 -->
<g id="edge23" class="edge">
<title>&#45;17&#45;&gt;0</title>
<path fill="none" stroke="green" stroke-width="0.14" stroke-dasharray="1,5" d="M589.27,-83.84C593.92,-78.81 600.35,-72.62 607.11,-68.53 628.43,-55.62 694.67,-35.31 731.59,-24.54"/>
<polygon fill="green" stroke="green" stroke-width="0.14" points="732.96,-27.79 741.6,-21.65 731.02,-21.06 732.96,-27.79"/>
</g>
<!-- &#45;17&#45;&gt;1 -->
<g id="edge95" class="edge">
<title>&#45;17&#45;&gt;1</title>
<path fill="none" stroke="green" stroke-width="0.61" d="M580.83,-84.25C579.24,-74.33 576.47,-56.99 574.14,-42.44"/>
<polygon fill="green" stroke="green" stroke-width="0.61" points="577.58,-41.8 572.55,-32.48 570.67,-42.91 577.58,-41.8"/>
</g>
<!-- &#45;17&#45;&gt;2 -->
<g id="edge84" class="edge">
<title>&#45;17&#45;&gt;2</title>
<path fill="none" stroke="red" stroke-width="0.21" d="M590.21,-84.1C595,-79.4 601.25,-73.46 607.11,-68.53 622.47,-55.6 640.75,-42.11 654.63,-32.21"/>
<polygon fill="red" stroke="red" stroke-width="0.21" points="656.89,-34.89 663.04,-26.26 652.85,-29.17 656.89,-34.89"/>
</g>
<!-- &#45;17&#45;&gt;3 -->
<g id="edge57" class="edge">
<title>&#45;17&#45;&gt;3</title>
<path fill="none" stroke="green" stroke-width="0.16" d="M588.68,-84C593.29,-78.76 599.89,-72.3 607.11,-68.53 677.5,-31.77 707.99,-61.01 782.11,-32.53 783.35,-32.05 784.59,-31.52 785.84,-30.95"/>
<polygon fill="green" stroke="green" stroke-width="0.16" points="787.85,-33.84 795.04,-26.06 784.57,-27.66 787.85,-33.84"/>
</g>
<!-- &#45;17&#45;&gt;4 -->
<g id="edge6" class="edge">
<title>&#45;17&#45;&gt;4</title>
<path fill="none" stroke="green" stroke-width="0.44" d="M573.91,-84.21C569.09,-79.55 562.84,-73.61 557.11,-68.53 543.52,-56.48 527.75,-43.45 515.51,-33.54"/>
<polygon fill="green" stroke="green" stroke-width="0.44" points="517.66,-30.78 507.67,-27.23 513.27,-36.23 517.66,-30.78"/>
</g>
<!-- &#45;18 -->
<g id="node18" class="node">
<title>&#45;18</title>
<polygon fill="lightgray" stroke="black" points="76.11,-249.04 44.11,-249.04 44.11,-231.04 76.11,-231.04 76.11,-249.04"/>
<text text-anchor="middle" x="60.11" y="-237.84" font-family="Times,serif" font-size="9.00">&#45;18</text>
</g>
<!-- &#45;18&#45;&gt;1 -->
<g id="edge4" class="edge">
<title>&#45;18&#45;&gt;1</title>
<path fill="none" stroke="red" stroke-width="0.31" d="M58.46,-231.01C53.16,-202.6 39.8,-106.45 93.11,-68.53 170.7,-13.33 426.6,-50.53 520.11,-32.53 528.41,-30.93 537.3,-28.47 545.24,-25.99"/>
<polygon fill="red" stroke="red" stroke-width="0.31" points="546.59,-29.23 555,-22.79 544.41,-22.58 546.59,-29.23"/>
</g>
<!-- &#45;18&#45;&gt;3 -->
<g id="edge42" class="edge">
<title>&#45;18&#45;&gt;3</title>
<path fill="none" stroke="green" stroke-width="0.25" d="M76.47,-239C209.2,-238.66 1107.54,-234.85 1220.11,-195.04 1274,-175.98 1297.51,-169.13 1323.11,-118.02 1332.96,-98.36 1337.88,-84.83 1323.11,-68.53 1290.05,-32.01 935.77,-20.44 834.82,-17.87"/>
<polygon fill="green" stroke="green" stroke-width="0.25" points="834.65,-14.37 824.56,-17.62 834.47,-21.36 834.65,-14.37"/>
</g>
<!-- &#45;18&#45;&gt;4 -->
<g id="edge91" class="edge">
<title>&#45;18&#45;&gt;4</title>
<path fill="none" stroke="red" stroke-width="0.47" stroke-dasharray="1,5" d="M49.76,-230.9C40.51,-222.9 27.6,-209.79 22.11,-195.04 2.5,-142.34 -15.44,-110.37 22.11,-68.53 52.13,-35.08 372.95,-21.45 468.45,-18.12"/>
<polygon fill="red" stroke="red" stroke-width="0.47" points="468.82,-21.61 478.7,-17.77 468.58,-14.61 468.82,-21.61"/>
</g>
<!-- 25 -->
<g id="node28" class="node">
<title>25</title>
<ellipse fill="white" stroke="black" cx="85.11" cy="-174.53" rx="20.51" ry="20.51"/>
<text text-anchor="middle" x="85.11" y="-172.33" font-family="Times,serif" font-size="9.00">25</text>
</g>
<!-- &#45;18&#45;&gt;25 -->
<g id="edge37" class="edge">
<title>&#45;18&#45;&gt;25</title>
<path fill="none" stroke="red" stroke-width="0.47" d="M63.28,-230.99C66.04,-223.96 70.23,-213.33 74.2,-203.24"/>
<polygon fill="red" stroke="red" stroke-width="0.47" points="77.48,-204.47 77.89,-193.88 70.97,-201.9 77.48,-204.47"/>
</g>
<!-- &#45;19 -->
<g id="node19" class="node">
<title>&#45;19</title>
<polygon fill="lightgray" stroke="black" points="260.11,-102.28 228.11,-102.28 228.11,-84.28 260.11,-84.28 260.11,-102.28"/>
<text text-anchor="middle" x="244.11" y="-91.08" font-family="Times,serif" font-size="9.00">&#45;19</text>
</g>
<!-- &#45;19&#45;&gt;1 -->
<g id="edge82" class="edge">
<title>&#45;19&#45;&gt;1</title>
<path fill="none" stroke="red" stroke-width="0.82" d="M250.61,-83.85C255.19,-78.56 261.78,-72.08 269.11,-68.53 370.53,-19.4 410.11,-57.05 520.11,-32.53 528.36,-30.69 537.23,-28.16 545.18,-25.7"/>
<polygon fill="red" stroke="red" stroke-width="0.82" points="546.51,-28.95 554.95,-22.56 544.36,-22.28 546.51,-28.95"/>
</g>
<!-- &#45;19&#45;&gt;2 -->
<g id="edge54" class="edge">
<title>&#45;19&#45;&gt;2</title>
<path fill="none" stroke="red" stroke-width="0.28" d="M250.18,-84.24C254.75,-78.83 261.51,-72.06 269.11,-68.53 401.31,-7.12 450.94,-54.04 595.11,-32.53 613.62,-29.76 634.37,-25.84 650.23,-22.66"/>
<polygon fill="red" stroke="red" stroke-width="0.28" points="651.24,-26.03 660.34,-20.6 649.84,-19.17 651.24,-26.03"/>
</g>
<!-- &#45;19&#45;&gt;4 -->
<g id="edge92" class="edge">
<title>&#45;19&#45;&gt;4</title>
<path fill="none" stroke="green" stroke-width="0.33" d="M250.71,-84.05C255.33,-78.83 261.93,-72.37 269.11,-68.53 335.17,-33.17 424.71,-22.13 468.61,-18.73"/>
<polygon fill="green" stroke="green" stroke-width="0.33" points="469.02,-22.21 478.75,-18.03 468.53,-15.23 469.02,-22.21"/>
</g>
<!-- &#45;20 -->
<g id="node20" class="node">
<title>&#45;20</title>
<polygon fill="lightgray" stroke="black" points="648.11,-102.28 616.11,-102.28 616.11,-84.28 648.11,-84.28 648.11,-102.28"/>
<text text-anchor="middle" x="632.11" y="-91.08" font-family="Times,serif" font-size="9.00">&#45;20</text>
</g>
<!-- &#45;20&#45;&gt;0 -->
<g id="edge61" class="edge">
<title>&#45;20&#45;&gt;0</title>
<path fill="none" stroke="green" stroke-width="0.2" stroke-dasharray="1,5" d="M645.49,-84.25C666.8,-71.46 708.71,-46.31 734.67,-30.73"/>
<polygon fill="green" stroke="green" stroke-width="0.2" points="736.68,-33.61 743.45,-25.46 733.08,-27.61 736.68,-33.61"/>
</g>
<!-- &#45;20&#45;&gt;1 -->
<g id="edge90" class="edge">
<title>&#45;20&#45;&gt;1</title>
<path fill="none" stroke="green" stroke-width="0.56" d="M625.48,-84.25C616.3,-73.15 599.44,-52.75 586.73,-37.37"/>
<polygon fill="green" stroke="green" stroke-width="0.56" points="589.24,-34.91 580.17,-29.43 583.84,-39.37 589.24,-34.91"/>
</g>
<!-- &#45;20&#45;&gt;2 -->
<g id="edge22" class="edge">
<title>&#45;20&#45;&gt;2</title>
<path fill="none" stroke="red" stroke-width="0.16" d="M636.82,-84.25C643.02,-73.67 654.19,-54.64 663.03,-39.56"/>
<polygon fill="red" stroke="red" stroke-width="0.16" points="666.14,-41.18 668.18,-30.79 660.1,-37.64 666.14,-41.18"/>
</g>
<!-- &#45;20&#45;&gt;3 -->
<g id="edge53" class="edge">
<title>&#45;20&#45;&gt;3</title>
<path fill="none" stroke="red" stroke-width="0.12" d="M648.13,-86.25C681.47,-73.65 757.25,-44.69 782.11,-32.53 783.27,-31.96 784.46,-31.36 785.64,-30.73"/>
<polygon fill="red" stroke="red" stroke-width="0.12" points="787.54,-33.68 794.56,-25.74 784.13,-27.57 787.54,-33.68"/>
</g>
<!-- &#45;20&#45;&gt;4 -->
<g id="edge40" class="edge">
<title>&#45;20&#45;&gt;4</title>
<path fill="none" stroke="green" stroke-width="0.41" d="M624.8,-84.07C620.1,-79.13 613.66,-72.95 607.11,-68.53 579.33,-49.75 543.57,-34.74 520.02,-25.93"/>
<polygon fill="green" stroke="green" stroke-width="0.41" points="521.03,-22.57 510.43,-22.43 518.63,-29.15 521.03,-22.57"/>
</g>
<!-- 6&#45;&gt;1 -->
<g id="edge45" class="edge">
<title>6&#45;&gt;1</title>
<path fill="none" stroke="red" stroke-width="0.35" d="M133.74,-88.03C153.5,-82.79 188.6,-73.92 219.11,-68.53 351.78,-45.07 388.27,-60.3 520.11,-32.53 528.39,-30.78 537.26,-28.29 545.2,-25.82"/>
<polygon fill="red" stroke="red" stroke-width="0.35" points="546.54,-29.06 554.98,-22.65 544.38,-22.4 546.54,-29.06"/>
</g>
<!-- 180&#45;&gt;3 -->
<g id="edge44" class="edge">
<title>180&#45;&gt;3</title>
<path fill="none" stroke="green" stroke-width="0.42" d="M1269.29,-77.95C1263.38,-74.31 1256.71,-70.8 1250.11,-68.53 1172.33,-41.78 918.13,-24.06 834.82,-18.86"/>
<polygon fill="green" stroke="green" stroke-width="0.42" points="834.86,-15.35 824.66,-18.23 834.43,-22.34 834.86,-15.35"/>
</g>
<!-- 25&#45;&gt;4 -->
<g id="edge55" class="edge">
<title>25&#45;&gt;4</title>
<path fill="none" stroke="green" stroke-width="0.94" stroke-dasharray="1,5" d="M80.13,-154.4C75.28,-130.89 71.45,-91.32 93.11,-68.53 119.06,-41.23 382.82,-23.73 468.43,-18.74"/>
<polygon fill="green" stroke="green" stroke-width="0.94" points="468.84,-22.22 478.63,-18.15 468.44,-15.23 468.84,-22.22"/>
</g>
<!-- 25&#45;&gt;6 -->
<g id="edge75" class="edge">
<title>25&#45;&gt;6</title>
<path fill="none" stroke="red" stroke-width="0.22" d="M92.76,-155.15C97.38,-144.07 103.3,-129.86 108.25,-117.95"/>
<polygon fill="red" stroke="red" stroke-width="0.22" points="111.53,-119.18 112.14,-108.61 105.07,-116.49 111.53,-119.18"/>
</g>
</g>
</svg>
