<?xml version="1.0" encoding="UTF-8" standalone="no"?>
<!DOCTYPE svg PUBLIC "-//W3C//DTD SVG 1.1//EN"
 "http://www.w3.org/Graphics/SVG/1.1/DTD/svg11.dtd">
<!-- Generated by graphviz version 2.49.0 (20210828.1703)
 -->
<!-- Pages: 1 -->
<svg width="1983pt" height="499pt"
 viewBox="0.00 0.00 1983.27 499.39" xmlns="http://www.w3.org/2000/svg" xmlns:xlink="http://www.w3.org/1999/xlink">
<g id="graph0" class="graph" transform="scale(1 1) rotate(0) translate(4 495.39)">
<polygon fill="white" stroke="transparent" points="-4,4 -4,-495.39 1979.27,-495.39 1979.27,4 -4,4"/>
<!-- &#45;1 -->
<g id="node1" class="node">
<title>&#45;1</title>
<polygon fill="lightgray" stroke="black" points="1533.4,-421.64 1509.4,-421.64 1509.4,-403.64 1533.4,-403.64 1533.4,-421.64"/>
<text text-anchor="middle" x="1521.4" y="-410.44" font-family="Times New Roman,serif" font-size="9.00">&#45;1</text>
</g>
<!-- 1 -->
<g id="node22" class="node">
<title>1</title>
<ellipse fill="lightblue" stroke="black" cx="1387.4" cy="-166.05" rx="14.7" ry="14.7"/>
<text text-anchor="middle" x="1387.4" y="-163.85" font-family="Times New Roman,serif" font-size="9.00">1</text>
</g>
<!-- &#45;1&#45;&gt;1 -->
<g id="edge192" class="edge">
<title>&#45;1&#45;&gt;1</title>
<path fill="none" stroke="green" stroke-width="0.39" stroke-dasharray="1,5" d="M1526.22,-403.62C1529.93,-398.22 1535.57,-391.45 1542.4,-387.89 1604.08,-355.7 1807.12,-403.84 1853.4,-351.89 1868.04,-335.46 1865.4,-320.83 1853.4,-302.39 1803.45,-225.63 1502.19,-181.62 1412.55,-170.11"/>
<polygon fill="green" stroke="green" stroke-width="0.39" points="1412.83,-166.62 1402.47,-168.84 1411.95,-173.56 1412.83,-166.62"/>
</g>
<!-- 41 -->
<g id="node27" class="node">
<title>41</title>
<ellipse fill="white" stroke="black" cx="1633.4" cy="-241.64" rx="18.27" ry="18.27"/>
<text text-anchor="middle" x="1633.4" y="-239.44" font-family="Times New Roman,serif" font-size="9.00">41</text>
</g>
<!-- &#45;1&#45;&gt;41 -->
<g id="edge1" class="edge">
<title>&#45;1&#45;&gt;41</title>
<path fill="none" stroke="red" stroke-width="0.29" d="M1526.56,-403.17C1530.27,-397.86 1535.78,-391.38 1542.4,-387.89 1600.25,-357.43 1791.09,-400.87 1834.4,-351.89 1848.98,-335.41 1847.56,-320.02 1834.4,-302.39 1813.62,-274.53 1711.97,-254.98 1661.69,-246.85"/>
<polygon fill="red" stroke="red" stroke-width="0.29" points="1661.92,-243.35 1651.5,-245.25 1660.84,-250.26 1661.92,-243.35"/>
</g>
<!-- 43 -->
<g id="node28" class="node">
<title>43</title>
<ellipse fill="white" stroke="black" cx="523.4" cy="-327.14" rx="18.27" ry="18.27"/>
<text text-anchor="middle" x="523.4" y="-324.94" font-family="Times New Roman,serif" font-size="9.00">43</text>
</g>
<!-- &#45;1&#45;&gt;43 -->
<g id="edge2" class="edge">
<title>&#45;1&#45;&gt;43</title>
<path fill="none" stroke="green" stroke-width="0.66" d="M1516.66,-403.47C1512.99,-398 1507.36,-391.21 1500.4,-387.89 1416.48,-347.88 756.87,-361.63 664.4,-351.89 625,-347.74 579.92,-339.53 551.56,-333.94"/>
<polygon fill="green" stroke="green" stroke-width="0.66" points="552.05,-330.47 541.56,-331.94 550.68,-337.33 552.05,-330.47"/>
</g>
<!-- 44 -->
<g id="node29" class="node">
<title>44</title>
<ellipse fill="white" stroke="black" cx="759.4" cy="-327.14" rx="18.27" ry="18.27"/>
<text text-anchor="middle" x="759.4" y="-324.94" font-family="Times New Roman,serif" font-size="9.00">44</text>
</g>
<!-- &#45;1&#45;&gt;44 -->
<g id="edge3" class="edge">
<title>&#45;1&#45;&gt;44</title>
<path fill="none" stroke="green" stroke-width="0.51" d="M1516.63,-403.53C1512.95,-398.08 1507.32,-391.29 1500.4,-387.89 1395.7,-336.32 1092.66,-362.24 976.4,-351.89 908.66,-345.86 829.25,-336.61 787.83,-331.62"/>
<polygon fill="green" stroke="green" stroke-width="0.51" points="788.02,-328.12 777.67,-330.39 787.18,-335.07 788.02,-328.12"/>
</g>
<!-- 45 -->
<g id="node30" class="node">
<title>45</title>
<ellipse fill="white" stroke="black" cx="1003.4" cy="-327.14" rx="18.27" ry="18.27"/>
<text text-anchor="middle" x="1003.4" y="-324.94" font-family="Times New Roman,serif" font-size="9.00">45</text>
</g>
<!-- &#45;1&#45;&gt;45 -->
<g id="edge4" class="edge">
<title>&#45;1&#45;&gt;45</title>
<path fill="none" stroke="red" stroke-width="0.23" d="M1516.59,-403.62C1512.88,-398.21 1507.24,-391.45 1500.4,-387.89 1437.31,-355.07 1252.99,-360.57 1182.4,-351.89 1129.11,-345.34 1067,-336.92 1031.73,-332.07"/>
<polygon fill="red" stroke="red" stroke-width="0.23" points="1032.07,-328.58 1021.69,-330.68 1031.11,-335.52 1032.07,-328.58"/>
</g>
<!-- 46 -->
<g id="node31" class="node">
<title>46</title>
<ellipse fill="white" stroke="black" cx="1394.4" cy="-327.14" rx="18.27" ry="18.27"/>
<text text-anchor="middle" x="1394.4" y="-324.94" font-family="Times New Roman,serif" font-size="9.00">46</text>
</g>
<!-- &#45;1&#45;&gt;46 -->
<g id="edge5" class="edge">
<title>&#45;1&#45;&gt;46</title>
<path fill="none" stroke="red" stroke-width="0.36" d="M1515.37,-403.54C1511.46,-398.63 1506.05,-392.46 1500.4,-387.89 1475.36,-367.64 1442.56,-350.32 1420.12,-339.62"/>
<polygon fill="red" stroke="red" stroke-width="0.36" points="1421.43,-336.37 1410.89,-335.32 1418.47,-342.72 1421.43,-336.37"/>
</g>
<!-- 47 -->
<g id="node32" class="node">
<title>47</title>
<ellipse fill="white" stroke="black" cx="781.4" cy="-241.64" rx="18.27" ry="18.27"/>
<text text-anchor="middle" x="781.4" y="-239.44" font-family="Times New Roman,serif" font-size="9.00">47</text>
</g>
<!-- &#45;1&#45;&gt;47 -->
<g id="edge6" class="edge">
<title>&#45;1&#45;&gt;47</title>
<path fill="none" stroke="green" stroke-width="0.26" d="M1520.15,-403.58C1516.43,-382.73 1503.39,-326.98 1467.4,-302.39 1412.37,-264.79 932.59,-247.36 809.89,-243.49"/>
<polygon fill="green" stroke="green" stroke-width="0.26" points="809.88,-239.99 799.78,-243.18 809.66,-246.99 809.88,-239.99"/>
</g>
<!-- 51 -->
<g id="node35" class="node">
<title>51</title>
<ellipse fill="white" stroke="black" cx="1339.4" cy="-327.14" rx="18.27" ry="18.27"/>
<text text-anchor="middle" x="1339.4" y="-324.94" font-family="Times New Roman,serif" font-size="9.00">51</text>
</g>
<!-- &#45;1&#45;&gt;51 -->
<g id="edge7" class="edge">
<title>&#45;1&#45;&gt;51</title>
<path fill="none" stroke="red" stroke-width="0.36" d="M1516.08,-403.48C1512.29,-398.29 1506.76,-391.84 1500.4,-387.89 1448.38,-355.59 1421.61,-380.38 1367.4,-351.89 1364.81,-350.53 1362.25,-348.89 1359.79,-347.12"/>
<polygon fill="red" stroke="red" stroke-width="0.36" points="1361.9,-344.33 1351.92,-340.79 1357.52,-349.79 1361.9,-344.33"/>
</g>
<!-- 52 -->
<g id="node36" class="node">
<title>52</title>
<ellipse fill="white" stroke="black" cx="1209.4" cy="-327.14" rx="18.27" ry="18.27"/>
<text text-anchor="middle" x="1209.4" y="-324.94" font-family="Times New Roman,serif" font-size="9.00">52</text>
</g>
<!-- &#45;1&#45;&gt;52 -->
<g id="edge8" class="edge">
<title>&#45;1&#45;&gt;52</title>
<path fill="none" stroke="red" stroke-width="0.25" d="M1516.17,-403.32C1512.43,-398.07 1506.91,-391.6 1500.4,-387.89 1426.49,-345.77 1395.65,-369.45 1312.4,-351.89 1286.87,-346.5 1257.92,-339.77 1237.23,-334.85"/>
<polygon fill="red" stroke="red" stroke-width="0.25" points="1237.76,-331.38 1227.22,-332.46 1236.14,-338.19 1237.76,-331.38"/>
</g>
<!-- &#45;2 -->
<g id="node2" class="node">
<title>&#45;2</title>
<polygon fill="lightgray" stroke="black" points="884.4,-491.39 860.4,-491.39 860.4,-473.39 884.4,-473.39 884.4,-491.39"/>
<text text-anchor="middle" x="872.4" y="-480.19" font-family="Times New Roman,serif" font-size="9.00">&#45;2</text>
</g>
<!-- 1669 -->
<g id="node26" class="node">
<title>1669</title>
<ellipse fill="white" stroke="black" cx="312.4" cy="-412.64" rx="25" ry="25"/>
<text text-anchor="middle" x="312.4" y="-410.44" font-family="Times New Roman,serif" font-size="9.00">1669</text>
</g>
<!-- &#45;2&#45;&gt;1669 -->
<g id="edge202" class="edge">
<title>&#45;2&#45;&gt;1669</title>
<path fill="none" stroke="green" stroke-width="0.51" d="M859.99,-481.11C790.62,-479.44 450.42,-469.72 351.4,-437.39 347.88,-436.24 344.34,-434.71 340.92,-432.99"/>
<polygon fill="green" stroke="green" stroke-width="0.51" points="342.61,-429.93 332.18,-428.1 339.19,-436.04 342.61,-429.93"/>
</g>
<!-- &#45;2&#45;&gt;41 -->
<g id="edge9" class="edge">
<title>&#45;2&#45;&gt;41</title>
<path fill="none" stroke="red" stroke-width="0.2" d="M884.43,-481.04C967.47,-478.58 1456.91,-463.19 1603.4,-437.39 1636.28,-431.6 1871.44,-378.64 1891.4,-351.89 1952.25,-270.35 1741.44,-249.13 1662.26,-244.09"/>
<polygon fill="red" stroke="red" stroke-width="0.2" points="1662.2,-240.58 1652.01,-243.48 1661.78,-247.57 1662.2,-240.58"/>
</g>
<!-- &#45;2&#45;&gt;43 -->
<g id="edge10" class="edge">
<title>&#45;2&#45;&gt;43</title>
<path fill="none" stroke="green" stroke-width="0.7" stroke-dasharray="1,5" d="M860.05,-481.13C791.24,-479.58 457.31,-470.4 427.4,-437.39 412.63,-421.08 416.72,-407.12 427.4,-387.89 441.94,-361.73 473.2,-345.54 496.12,-336.72"/>
<polygon fill="green" stroke="green" stroke-width="0.7" points="497.44,-339.96 505.66,-333.28 495.07,-333.38 497.44,-339.96"/>
</g>
<!-- &#45;2&#45;&gt;44 -->
<g id="edge11" class="edge">
<title>&#45;2&#45;&gt;44</title>
<path fill="none" stroke="green" stroke-width="0.12" d="M860.17,-481.03C816.42,-479.48 668.84,-471.72 640.4,-437.39 626.37,-420.44 628,-406.06 640.4,-387.89 665.16,-351.62 694.91,-374.73 732.4,-351.89 734.64,-350.53 736.87,-348.97 739.04,-347.32"/>
<polygon fill="green" stroke="green" stroke-width="0.12" points="741.51,-349.82 746.94,-340.72 737.03,-344.44 741.51,-349.82"/>
</g>
<!-- &#45;2&#45;&gt;45 -->
<g id="edge12" class="edge">
<title>&#45;2&#45;&gt;45</title>
<path fill="none" stroke="green" stroke-width="0.16" d="M872.3,-473.38C872.48,-455.87 875.25,-413.67 896.4,-387.89 919.86,-359.31 939.75,-370.99 971.4,-351.89 974.68,-349.91 978.03,-347.69 981.27,-345.4"/>
<polygon fill="green" stroke="green" stroke-width="0.16" points="983.48,-348.12 989.47,-339.38 979.34,-342.48 983.48,-348.12"/>
</g>
<!-- &#45;2&#45;&gt;46 -->
<g id="edge13" class="edge">
<title>&#45;2&#45;&gt;46</title>
<path fill="none" stroke="green" stroke-width="0.18" stroke-dasharray="1,5" d="M884.6,-481.1C976.64,-478.91 1559.41,-463.98 1584.4,-437.39 1599.47,-421.36 1597.42,-405.63 1584.4,-387.89 1547.06,-337 1466.38,-328.31 1423.14,-327.51"/>
<polygon fill="green" stroke="green" stroke-width="0.18" points="1423.02,-324.01 1413.01,-327.45 1422.99,-331.01 1423.02,-324.01"/>
</g>
<!-- &#45;2&#45;&gt;47 -->
<g id="edge14" class="edge">
<title>&#45;2&#45;&gt;47</title>
<path fill="none" stroke="green" stroke-width="0.3" d="M860.34,-480.95C786.54,-478.21 395.4,-462.67 278.4,-437.39 170.59,-414.09 108.56,-442.33 45.4,-351.89 -47.26,-219.17 -45,-314.38 526.4,-266.39 608.82,-259.47 706.1,-250.07 753.13,-245.45"/>
<polygon fill="green" stroke="green" stroke-width="0.3" points="753.56,-248.92 763.17,-244.46 752.88,-241.95 753.56,-248.92"/>
</g>
<!-- &#45;2&#45;&gt;51 -->
<g id="edge15" class="edge">
<title>&#45;2&#45;&gt;51</title>
<path fill="none" stroke="red" stroke-width="0.44" d="M884.56,-481.12C953.74,-479.46 1296,-469.66 1328.4,-437.39 1349.56,-416.32 1348.95,-380.14 1345.28,-355.22"/>
<polygon fill="red" stroke="red" stroke-width="0.44" points="1348.72,-354.57 1343.58,-345.31 1341.82,-355.76 1348.72,-354.57"/>
</g>
<!-- &#45;2&#45;&gt;52 -->
<g id="edge16" class="edge">
<title>&#45;2&#45;&gt;52</title>
<path fill="none" stroke="green" stroke-width="0.19" d="M884.61,-481.75C939.21,-483.07 1160.38,-485.37 1204.4,-437.39 1224.51,-415.47 1221.88,-379.48 1216.82,-354.84"/>
<polygon fill="green" stroke="green" stroke-width="0.19" points="1220.22,-354 1214.56,-345.05 1213.4,-355.58 1220.22,-354"/>
</g>
<!-- &#45;3 -->
<g id="node3" class="node">
<title>&#45;3</title>
<polygon fill="lightgray" stroke="black" points="1575.4,-421.64 1551.4,-421.64 1551.4,-403.64 1575.4,-403.64 1575.4,-421.64"/>
<text text-anchor="middle" x="1563.4" y="-410.44" font-family="Times New Roman,serif" font-size="9.00">&#45;3</text>
</g>
<!-- &#45;3&#45;&gt;41 -->
<g id="edge17" class="edge">
<title>&#45;3&#45;&gt;41</title>
<path fill="none" stroke="red" stroke-width="0.92" d="M1575.77,-410.18C1630.96,-403.53 1852.93,-375.49 1872.4,-351.89 1932.74,-278.77 1737.69,-252.38 1662.07,-245.03"/>
<polygon fill="red" stroke="red" stroke-width="0.92" points="1662.1,-241.52 1651.82,-244.08 1661.46,-248.49 1662.1,-241.52"/>
</g>
<!-- &#45;3&#45;&gt;44 -->
<g id="edge18" class="edge">
<title>&#45;3&#45;&gt;44</title>
<path fill="none" stroke="red" stroke-width="0.26" stroke-dasharray="1,5" d="M1558.64,-403.52C1554.96,-398.06 1549.33,-391.28 1542.4,-387.89 1429.2,-332.49 1101.97,-362.75 976.4,-351.89 908.64,-346.03 829.24,-336.71 787.83,-331.67"/>
<polygon fill="red" stroke="red" stroke-width="0.26" points="788.02,-328.17 777.67,-330.42 787.17,-335.11 788.02,-328.17"/>
</g>
<!-- &#45;3&#45;&gt;45 -->
<g id="edge19" class="edge">
<title>&#45;3&#45;&gt;45</title>
<path fill="none" stroke="green" stroke-width="0.25" d="M1558.6,-403.59C1554.9,-398.17 1549.26,-391.4 1542.4,-387.89 1470.84,-351.25 1262.27,-361.18 1182.4,-351.89 1129.07,-345.69 1066.97,-337.15 1031.72,-332.18"/>
<polygon fill="green" stroke="green" stroke-width="0.25" points="1032.07,-328.7 1021.68,-330.76 1031.09,-335.63 1032.07,-328.7"/>
</g>
<!-- &#45;3&#45;&gt;46 -->
<g id="edge20" class="edge">
<title>&#45;3&#45;&gt;46</title>
<path fill="none" stroke="red" stroke-width="0.22" stroke-dasharray="1,5" d="M1557.57,-403.27C1553.74,-398.27 1548.34,-392.08 1542.4,-387.89 1504.59,-361.17 1453.08,-343.87 1421.87,-335.08"/>
<polygon fill="red" stroke="red" stroke-width="0.22" points="1422.68,-331.68 1412.11,-332.43 1420.84,-338.43 1422.68,-331.68"/>
</g>
<!-- &#45;3&#45;&gt;47 -->
<g id="edge21" class="edge">
<title>&#45;3&#45;&gt;47</title>
<path fill="none" stroke="red" stroke-width="0.49" d="M1561.42,-403.52C1555.81,-382.56 1537.72,-326.52 1499.4,-302.39 1440.2,-265.11 936.09,-247.36 809.93,-243.48"/>
<polygon fill="red" stroke="red" stroke-width="0.49" points="809.99,-239.98 799.89,-243.17 809.78,-246.97 809.99,-239.98"/>
</g>
<!-- &#45;3&#45;&gt;51 -->
<g id="edge22" class="edge">
<title>&#45;3&#45;&gt;51</title>
<path fill="none" stroke="green" stroke-width="1.09" d="M1558.16,-403.35C1554.4,-398.11 1548.88,-391.64 1542.4,-387.89 1473.68,-348.1 1438.8,-386.65 1367.4,-351.89 1364.77,-350.61 1362.18,-349.02 1359.71,-347.28"/>
<polygon fill="green" stroke="green" stroke-width="1.09" points="1361.82,-344.49 1351.82,-340.99 1357.45,-349.96 1361.82,-344.49"/>
</g>
<!-- &#45;3&#45;&gt;52 -->
<g id="edge23" class="edge">
<title>&#45;3&#45;&gt;52</title>
<path fill="none" stroke="green" stroke-width="0.23" d="M1558.22,-403.25C1554.49,-397.96 1548.97,-391.48 1542.4,-387.89 1451.65,-338.19 1413.99,-371.53 1312.4,-351.89 1286.78,-346.94 1257.84,-340.16 1237.18,-335.11"/>
<polygon fill="green" stroke="green" stroke-width="0.23" points="1237.73,-331.64 1227.19,-332.65 1236.06,-338.44 1237.73,-331.64"/>
</g>
<!-- &#45;4 -->
<g id="node4" class="node">
<title>&#45;4</title>
<polygon fill="lightgray" stroke="black" points="706.4,-421.64 682.4,-421.64 682.4,-403.64 706.4,-403.64 706.4,-421.64"/>
<text text-anchor="middle" x="694.4" y="-410.44" font-family="Times New Roman,serif" font-size="9.00">&#45;4</text>
</g>
<!-- 0 -->
<g id="node21" class="node">
<title>0</title>
<ellipse fill="lightblue" stroke="black" cx="780.4" cy="-166.05" rx="14.7" ry="14.7"/>
<text text-anchor="middle" x="780.4" y="-163.85" font-family="Times New Roman,serif" font-size="9.00">0</text>
</g>
<!-- &#45;4&#45;&gt;0 -->
<g id="edge201" class="edge">
<title>&#45;4&#45;&gt;0</title>
<path fill="none" stroke="green" stroke-width="0.13" d="M682.29,-408.54C638.46,-397.26 490.21,-358.79 482.4,-351.89 435.86,-310.78 405.87,-263.93 446.4,-216.89 486.46,-170.42 684.28,-166.62 755.12,-166.78"/>
<polygon fill="green" stroke="green" stroke-width="0.13" points="755.33,-170.28 765.35,-166.83 755.37,-163.28 755.33,-170.28"/>
</g>
<!-- &#45;4&#45;&gt;41 -->
<g id="edge24" class="edge">
<title>&#45;4&#45;&gt;41</title>
<path fill="none" stroke="green" stroke-width="0.85" stroke-dasharray="1,5" d="M687.79,-403.57C672.29,-383.64 636.92,-331.62 664.4,-302.39 697.45,-267.24 1446.78,-247.17 1604.45,-243.32"/>
<polygon fill="green" stroke="green" stroke-width="0.85" points="1604.85,-246.82 1614.76,-243.08 1604.68,-239.82 1604.85,-246.82"/>
</g>
<!-- &#45;4&#45;&gt;43 -->
<g id="edge25" class="edge">
<title>&#45;4&#45;&gt;43</title>
<path fill="none" stroke="green" stroke-width="0.73" stroke-dasharray="1,5" d="M682.05,-407.43C657.21,-398.73 599.8,-377.44 555.4,-351.89 552.09,-349.98 548.72,-347.79 545.46,-345.53"/>
<polygon fill="green" stroke="green" stroke-width="0.73" points="547.39,-342.6 537.26,-339.52 543.26,-348.25 547.39,-342.6"/>
</g>
<!-- &#45;4&#45;&gt;44 -->
<g id="edge26" class="edge">
<title>&#45;4&#45;&gt;44</title>
<path fill="none" stroke="green" stroke-width="0.15" stroke-dasharray="1,5" d="M700.64,-403.63C710.14,-391.42 728.59,-367.72 742.3,-350.12"/>
<polygon fill="green" stroke="green" stroke-width="0.15" points="745.2,-352.08 748.58,-342.04 739.68,-347.78 745.2,-352.08"/>
</g>
<!-- &#45;4&#45;&gt;45 -->
<g id="edge27" class="edge">
<title>&#45;4&#45;&gt;45</title>
<path fill="none" stroke="red" stroke-width="0.27" d="M699.65,-403.35C703.41,-398.11 708.93,-391.65 715.4,-387.89 800.32,-338.63 920.13,-329.66 974.52,-328.25"/>
<polygon fill="red" stroke="red" stroke-width="0.27" points="974.87,-331.74 984.8,-328.05 974.74,-324.74 974.87,-331.74"/>
</g>
<!-- &#45;4&#45;&gt;46 -->
<g id="edge28" class="edge">
<title>&#45;4&#45;&gt;46</title>
<path fill="none" stroke="green" stroke-width="0.36" d="M699.16,-403.5C702.84,-398.04 708.47,-391.25 715.4,-387.89 845.81,-324.74 1231.82,-405.54 1366.4,-351.89 1369.18,-350.78 1371.88,-349.29 1374.43,-347.58"/>
<polygon fill="green" stroke="green" stroke-width="0.36" points="1376.8,-350.17 1382.48,-341.22 1372.46,-344.67 1376.8,-350.17"/>
</g>
<!-- &#45;4&#45;&gt;47 -->
<g id="edge29" class="edge">
<title>&#45;4&#45;&gt;47</title>
<path fill="none" stroke="red" stroke-width="0.26" d="M682.26,-408.86C640.98,-399.29 507.97,-367.45 496.4,-351.89 483.29,-334.23 482.54,-319.47 496.4,-302.39 528.56,-262.8 687.07,-248.5 752.78,-244.22"/>
<polygon fill="red" stroke="red" stroke-width="0.26" points="753.09,-247.71 762.86,-243.6 752.66,-240.72 753.09,-247.71"/>
</g>
<!-- &#45;4&#45;&gt;51 -->
<g id="edge30" class="edge">
<title>&#45;4&#45;&gt;51</title>
<path fill="none" stroke="green" stroke-width="0.19" d="M699.17,-403.53C702.86,-398.08 708.49,-391.3 715.4,-387.89 819.5,-336.59 1121.62,-368.98 1236.4,-351.89 1262.34,-348.03 1291.4,-341.08 1312.03,-335.69"/>
<polygon fill="green" stroke="green" stroke-width="0.19" points="1312.94,-339.07 1321.7,-333.12 1311.14,-332.31 1312.94,-339.07"/>
</g>
<!-- &#45;4&#45;&gt;52 -->
<g id="edge31" class="edge">
<title>&#45;4&#45;&gt;52</title>
<path fill="none" stroke="red" stroke-width="0.22" stroke-dasharray="1,5" d="M699.22,-403.62C702.93,-398.22 708.57,-391.45 715.4,-387.89 777.89,-355.34 960.48,-360.52 1030.4,-351.89 1083.69,-345.31 1145.8,-336.9 1181.08,-332.06"/>
<polygon fill="red" stroke="red" stroke-width="0.22" points="1181.69,-335.51 1191.12,-330.68 1180.74,-328.57 1181.69,-335.51"/>
</g>
<!-- &#45;5 -->
<g id="node5" class="node">
<title>&#45;5</title>
<polygon fill="lightgray" stroke="black" points="493.4,-421.64 469.4,-421.64 469.4,-403.64 493.4,-403.64 493.4,-421.64"/>
<text text-anchor="middle" x="481.4" y="-410.44" font-family="Times New Roman,serif" font-size="9.00">&#45;5</text>
</g>
<!-- &#45;5&#45;&gt;0 -->
<g id="edge200" class="edge">
<title>&#45;5&#45;&gt;0</title>
<path fill="none" stroke="red" stroke-width="0.14" d="M469.4,-409.48C413.85,-399.45 184.18,-357.7 179.4,-351.89 165.44,-334.89 166.94,-320.52 179.4,-302.39 246.78,-204.4 650.61,-174.52 755.52,-168.36"/>
<polygon fill="red" stroke="red" stroke-width="0.14" points="755.72,-171.86 765.5,-167.8 755.32,-164.87 755.72,-171.86"/>
</g>
<!-- &#45;5&#45;&gt;41 -->
<g id="edge32" class="edge">
<title>&#45;5&#45;&gt;41</title>
<path fill="none" stroke="green" stroke-width="0.52" d="M476.91,-403.44C466.51,-383.22 443.62,-330.59 470.4,-302.39 490.59,-281.15 1428.5,-249.36 1604.95,-243.57"/>
<polygon fill="green" stroke="green" stroke-width="0.52" points="1605.13,-247.06 1615.01,-243.24 1604.91,-240.07 1605.13,-247.06"/>
</g>
<!-- &#45;5&#45;&gt;43 -->
<g id="edge33" class="edge">
<title>&#45;5&#45;&gt;43</title>
<path fill="none" stroke="green" stroke-width="0.79" d="M485.43,-403.63C491.25,-392.06 502.27,-370.16 510.94,-352.91"/>
<polygon fill="green" stroke="green" stroke-width="0.79" points="514.11,-354.41 515.47,-343.91 507.85,-351.27 514.11,-354.41"/>
</g>
<!-- &#45;5&#45;&gt;44 -->
<g id="edge34" class="edge">
<title>&#45;5&#45;&gt;44</title>
<path fill="none" stroke="red" stroke-width="0.48" d="M486.59,-403.25C490.32,-397.96 495.84,-391.48 502.4,-387.89 593.16,-338.19 638.72,-395.8 732.4,-351.89 734.78,-350.78 737.1,-349.39 739.32,-347.85"/>
<polygon fill="red" stroke="red" stroke-width="0.48" points="741.73,-350.4 747.31,-341.39 737.33,-344.96 741.73,-350.4"/>
</g>
<!-- &#45;5&#45;&gt;45 -->
<g id="edge35" class="edge">
<title>&#45;5&#45;&gt;45</title>
<path fill="none" stroke="red" stroke-width="0.31" d="M486.23,-403.63C489.94,-398.23 495.58,-391.47 502.4,-387.89 513,-382.34 870.54,-342.73 975.01,-331.25"/>
<polygon fill="red" stroke="red" stroke-width="0.31" points="975.57,-334.71 985.12,-330.14 974.8,-327.75 975.57,-334.71"/>
</g>
<!-- &#45;5&#45;&gt;47 -->
<g id="edge36" class="edge">
<title>&#45;5&#45;&gt;47</title>
<path fill="none" stroke="green" stroke-width="0.21" d="M469.3,-406.6C456.55,-401.43 435.8,-393.37 417.4,-387.89 348.38,-367.32 304.32,-408.19 259.4,-351.89 245.69,-334.69 244.76,-318.81 259.4,-302.39 267.73,-293.06 645.41,-255.82 753.05,-245.38"/>
<polygon fill="green" stroke="green" stroke-width="0.21" points="753.54,-248.85 763.16,-244.4 752.87,-241.88 753.54,-248.85"/>
</g>
<!-- &#45;5&#45;&gt;51 -->
<g id="edge37" class="edge">
<title>&#45;5&#45;&gt;51</title>
<path fill="none" stroke="red" stroke-width="0.44" d="M486.15,-403.48C489.83,-398.02 495.46,-391.23 502.4,-387.89 576,-352.53 1155.52,-363.11 1236.4,-351.89 1262.37,-348.29 1291.43,-341.31 1312.05,-335.85"/>
<polygon fill="red" stroke="red" stroke-width="0.44" points="1312.98,-339.22 1321.72,-333.23 1311.15,-332.46 1312.98,-339.22"/>
</g>
<!-- &#45;5&#45;&gt;52 -->
<g id="edge38" class="edge">
<title>&#45;5&#45;&gt;52</title>
<path fill="none" stroke="red" stroke-width="0.39" d="M486.17,-403.52C489.86,-398.08 495.49,-391.29 502.4,-387.89 607.92,-335.95 913.39,-363.63 1030.4,-351.89 1083.97,-346.52 1146.22,-337.66 1181.4,-332.42"/>
<polygon fill="red" stroke="red" stroke-width="0.39" points="1182.04,-335.86 1191.41,-330.92 1181,-328.94 1182.04,-335.86"/>
</g>
<!-- &#45;6 -->
<g id="node6" class="node">
<title>&#45;6</title>
<polygon fill="lightgray" stroke="black" points="1273.4,-491.39 1249.4,-491.39 1249.4,-473.39 1273.4,-473.39 1273.4,-491.39"/>
<text text-anchor="middle" x="1261.4" y="-480.19" font-family="Times New Roman,serif" font-size="9.00">&#45;6</text>
</g>
<!-- &#45;6&#45;&gt;41 -->
<g id="edge39" class="edge">
<title>&#45;6&#45;&gt;41</title>
<path fill="none" stroke="red" stroke-width="0.12" stroke-dasharray="1,5" d="M1273.52,-481.02C1354.87,-478.46 1820.21,-462.81 1877.4,-437.39 1927.53,-415.11 1944.91,-402.35 1966.4,-351.89 1975.03,-331.65 1980.52,-319.27 1966.4,-302.39 1927.6,-256.01 1735.75,-245.58 1662.19,-243.28"/>
<polygon fill="red" stroke="red" stroke-width="0.12" points="1661.92,-239.77 1651.83,-242.99 1661.72,-246.77 1661.92,-239.77"/>
</g>
<!-- &#45;6&#45;&gt;43 -->
<g id="edge40" class="edge">
<title>&#45;6&#45;&gt;43</title>
<path fill="none" stroke="red" stroke-width="0.34" d="M1249.29,-481.19C1151.13,-479.55 488.77,-467.35 460.4,-437.39 445.28,-421.41 451.72,-408.1 460.4,-387.89 468.39,-369.31 485.31,-353.8 499.6,-343.24"/>
<polygon fill="red" stroke="red" stroke-width="0.34" points="501.87,-345.92 508.06,-337.32 497.86,-340.18 501.87,-345.92"/>
</g>
<!-- &#45;6&#45;&gt;44 -->
<g id="edge41" class="edge">
<title>&#45;6&#45;&gt;44</title>
<path fill="none" stroke="red" stroke-width="0.32" d="M1249.26,-481.44C1168.76,-481.69 714.01,-481.14 673.4,-437.39 658.44,-421.26 662.64,-407.07 673.4,-387.89 688.44,-361.1 707.67,-370.1 732.4,-351.89 734.47,-350.37 736.57,-348.72 738.64,-347.03"/>
<polygon fill="red" stroke="red" stroke-width="0.32" points="741,-349.61 746.33,-340.46 736.45,-344.29 741,-349.61"/>
</g>
<!-- &#45;6&#45;&gt;45 -->
<g id="edge42" class="edge">
<title>&#45;6&#45;&gt;45</title>
<path fill="none" stroke="green" stroke-width="0.15" d="M1249.35,-480.71C1192.36,-477.39 951.94,-461.97 930.4,-437.39 915.91,-420.84 920.99,-407.77 930.4,-387.89 933.18,-382.03 960.46,-360.55 980.86,-345.02"/>
<polygon fill="green" stroke="green" stroke-width="0.15" points="983.23,-347.62 989.1,-338.8 979.01,-342.04 983.23,-347.62"/>
</g>
<!-- &#45;6&#45;&gt;46 -->
<g id="edge43" class="edge">
<title>&#45;6&#45;&gt;46</title>
<path fill="none" stroke="red" stroke-width="0.11" d="M1273.57,-480.82C1333.34,-477.92 1594.05,-463.81 1617.4,-437.39 1631.97,-420.9 1630.8,-405.34 1617.4,-387.89 1593.67,-356.96 1477.24,-338.54 1422.7,-331.47"/>
<polygon fill="red" stroke="red" stroke-width="0.11" points="1423.02,-327.98 1412.66,-330.21 1422.14,-334.93 1423.02,-327.98"/>
</g>
<!-- &#45;6&#45;&gt;47 -->
<g id="edge44" class="edge">
<title>&#45;6&#45;&gt;47</title>
<path fill="none" stroke="red" stroke-width="0.54" d="M1249.36,-481.03C1154.46,-478.15 528.38,-458.48 447.4,-437.39 399.03,-424.79 392.47,-407.31 346.4,-387.89 302.49,-369.37 272.87,-390.83 245.4,-351.89 232.73,-333.91 230.74,-318.79 245.4,-302.39 253.99,-292.8 643.41,-255.59 752.99,-245.3"/>
<polygon fill="red" stroke="red" stroke-width="0.54" points="753.35,-248.78 762.98,-244.36 752.69,-241.81 753.35,-248.78"/>
</g>
<!-- 1710 -->
<g id="node33" class="node">
<title>1710</title>
<ellipse fill="white" stroke="black" cx="1843.4" cy="-412.64" rx="25" ry="25"/>
<text text-anchor="middle" x="1843.4" y="-410.44" font-family="Times New Roman,serif" font-size="9.00">1710</text>
</g>
<!-- &#45;6&#45;&gt;1710 -->
<g id="edge205" class="edge">
<title>&#45;6&#45;&gt;1710</title>
<path fill="none" stroke="green" stroke-width="0.17" d="M1273.41,-481.17C1343.54,-479.76 1700.73,-471.05 1804.4,-437.39 1807.93,-436.24 1811.47,-434.72 1814.9,-433.01"/>
<polygon fill="green" stroke="green" stroke-width="0.17" points="1816.62,-436.05 1823.63,-428.11 1813.2,-429.95 1816.62,-436.05"/>
</g>
<!-- &#45;6&#45;&gt;51 -->
<g id="edge45" class="edge">
<title>&#45;6&#45;&gt;51</title>
<path fill="none" stroke="red" stroke-width="0.47" stroke-dasharray="1,5" d="M1273.7,-479.75C1306.92,-475.04 1397.11,-460.35 1414.4,-437.39 1427.64,-419.81 1424.14,-407.62 1414.4,-387.89 1402.76,-364.3 1387.89,-368.4 1367.4,-351.89 1365.32,-350.21 1363.17,-348.44 1361.02,-346.66"/>
<polygon fill="red" stroke="red" stroke-width="0.47" points="1362.87,-343.64 1352.96,-339.87 1358.36,-348.99 1362.87,-343.64"/>
</g>
<!-- &#45;6&#45;&gt;52 -->
<g id="edge46" class="edge">
<title>&#45;6&#45;&gt;52</title>
<path fill="none" stroke="green" stroke-width="0.24" d="M1259.85,-473.23C1256.59,-456.8 1248.45,-418.65 1237.4,-387.89 1233.17,-376.09 1227.43,-363.45 1222.26,-352.85"/>
<polygon fill="green" stroke="green" stroke-width="0.24" points="1225.32,-351.16 1217.72,-343.78 1219.06,-354.29 1225.32,-351.16"/>
</g>
<!-- &#45;7 -->
<g id="node7" class="node">
<title>&#45;7</title>
<polygon fill="lightgray" stroke="black" points="796.4,-421.64 772.4,-421.64 772.4,-403.64 796.4,-403.64 796.4,-421.64"/>
<text text-anchor="middle" x="784.4" y="-410.44" font-family="Times New Roman,serif" font-size="9.00">&#45;7</text>
</g>
<!-- &#45;7&#45;&gt;43 -->
<g id="edge47" class="edge">
<title>&#45;7&#45;&gt;43</title>
<path fill="none" stroke="red" stroke-width="0.13" d="M778.77,-403.44C774.78,-398.24 768.98,-391.78 762.4,-387.89 744.13,-377.07 610.32,-347.07 551.27,-334.17"/>
<polygon fill="red" stroke="red" stroke-width="0.13" points="551.68,-330.67 541.16,-331.97 550.19,-337.51 551.68,-330.67"/>
</g>
<!-- &#45;7&#45;&gt;44 -->
<g id="edge48" class="edge">
<title>&#45;7&#45;&gt;44</title>
<path fill="none" stroke="red" stroke-width="0.71" d="M782.01,-403.63C778.67,-392.48 772.45,-371.72 767.39,-354.8"/>
<polygon fill="red" stroke="red" stroke-width="0.71" points="770.63,-353.45 764.41,-344.87 763.93,-355.45 770.63,-353.45"/>
</g>
<!-- &#45;7&#45;&gt;45 -->
<g id="edge49" class="edge">
<title>&#45;7&#45;&gt;45</title>
<path fill="none" stroke="green" stroke-width="0.25" d="M790.1,-403.55C794.12,-398.39 799.92,-391.94 806.4,-387.89 860.53,-354.03 935.03,-338.33 975.12,-331.94"/>
<polygon fill="green" stroke="green" stroke-width="0.25" points="975.88,-335.36 985.24,-330.41 974.83,-328.44 975.88,-335.36"/>
</g>
<!-- &#45;7&#45;&gt;46 -->
<g id="edge50" class="edge">
<title>&#45;7&#45;&gt;46</title>
<path fill="none" stroke="red" stroke-width="0.17" d="M789.49,-403.51C793.39,-398.05 799.3,-391.27 806.4,-387.89 919.02,-334.33 1250.78,-398.58 1366.4,-351.89 1369.17,-350.77 1371.87,-349.27 1374.42,-347.55"/>
<polygon fill="red" stroke="red" stroke-width="0.17" points="1376.8,-350.14 1382.47,-341.19 1372.45,-344.65 1376.8,-350.14"/>
</g>
<!-- &#45;7&#45;&gt;47 -->
<g id="edge51" class="edge">
<title>&#45;7&#45;&gt;47</title>
<path fill="none" stroke="green" stroke-width="0.65" stroke-dasharray="1,5" d="M778.27,-403.22C774.23,-398.19 768.58,-392 762.4,-387.89 723.79,-362.16 690.96,-389.94 664.4,-351.89 651.81,-333.85 652.92,-321.15 664.4,-302.39 683.62,-271 725.11,-255.44 753.15,-248.23"/>
<polygon fill="green" stroke="green" stroke-width="0.65" points="754.24,-251.57 763.16,-245.86 752.62,-244.76 754.24,-251.57"/>
</g>
<!-- &#45;7&#45;&gt;51 -->
<g id="edge52" class="edge">
<title>&#45;7&#45;&gt;51</title>
<path fill="none" stroke="green" stroke-width="0.15" d="M789.51,-403.55C793.42,-398.12 799.33,-391.34 806.4,-387.89 892.6,-345.87 1141.67,-366.7 1236.4,-351.89 1262.31,-347.84 1291.38,-340.91 1312.01,-335.58"/>
<polygon fill="green" stroke="green" stroke-width="0.15" points="1312.91,-338.97 1321.69,-333.04 1311.13,-332.2 1312.91,-338.97"/>
</g>
<!-- &#45;8 -->
<g id="node8" class="node">
<title>&#45;8</title>
<polygon fill="lightgray" stroke="black" points="1057.4,-421.64 1033.4,-421.64 1033.4,-403.64 1057.4,-403.64 1057.4,-421.64"/>
<text text-anchor="middle" x="1045.4" y="-410.44" font-family="Times New Roman,serif" font-size="9.00">&#45;8</text>
</g>
<!-- &#45;8&#45;&gt;41 -->
<g id="edge53" class="edge">
<title>&#45;8&#45;&gt;41</title>
<path fill="none" stroke="green" stroke-width="0.22" stroke-dasharray="1,5" d="M1050.52,-403.59C1054.44,-398.17 1060.36,-391.4 1067.4,-387.89 1208.94,-317.33 1273.12,-406.87 1421.4,-351.89 1457.47,-338.52 1458,-319.6 1492.4,-302.39 1538.03,-279.56 1556.12,-289.89 1601.4,-266.39 1604.8,-264.63 1608.22,-262.52 1611.49,-260.3"/>
<polygon fill="green" stroke="green" stroke-width="0.22" points="1613.69,-263.03 1619.71,-254.31 1609.57,-257.37 1613.69,-263.03"/>
</g>
<!-- &#45;8&#45;&gt;43 -->
<g id="edge54" class="edge">
<title>&#45;8&#45;&gt;43</title>
<path fill="none" stroke="red" stroke-width="0.38" d="M1040.6,-403.59C1036.9,-398.17 1031.26,-391.4 1024.4,-387.89 952.84,-351.25 744.09,-362.57 664.4,-351.89 625.13,-346.62 580.02,-338.69 551.62,-333.47"/>
<polygon fill="red" stroke="red" stroke-width="0.38" points="552.07,-329.99 541.6,-331.61 550.79,-336.87 552.07,-329.99"/>
</g>
<!-- &#45;8&#45;&gt;44 -->
<g id="edge55" class="edge">
<title>&#45;8&#45;&gt;44</title>
<path fill="none" stroke="red" stroke-width="0.44" d="M1040.13,-403.39C1036.37,-398.17 1030.85,-391.7 1024.4,-387.89 984.19,-364.09 847.44,-341.34 787.71,-332.27"/>
<polygon fill="red" stroke="red" stroke-width="0.44" points="787.9,-328.76 777.49,-330.74 786.86,-335.68 787.9,-328.76"/>
</g>
<!-- &#45;8&#45;&gt;45 -->
<g id="edge56" class="edge">
<title>&#45;8&#45;&gt;45</title>
<path fill="none" stroke="green" stroke-width="0.29" d="M1041.38,-403.63C1035.56,-392.06 1024.54,-370.16 1015.87,-352.91"/>
<polygon fill="green" stroke="green" stroke-width="0.29" points="1018.96,-351.27 1011.34,-343.91 1012.7,-354.41 1018.96,-351.27"/>
</g>
<!-- &#45;8&#45;&gt;46 -->
<g id="edge57" class="edge">
<title>&#45;8&#45;&gt;46</title>
<path fill="none" stroke="red" stroke-width="0.64" d="M1050.54,-403.63C1054.47,-398.23 1060.4,-391.46 1067.4,-387.89 1186.64,-327.07 1243.74,-405.44 1366.4,-351.89 1369.09,-350.72 1371.71,-349.2 1374.21,-347.5"/>
<polygon fill="red" stroke="red" stroke-width="0.64" points="1376.44,-350.2 1382.11,-341.26 1372.1,-344.71 1376.44,-350.2"/>
</g>
<!-- &#45;8&#45;&gt;47 -->
<g id="edge58" class="edge">
<title>&#45;8&#45;&gt;47</title>
<path fill="none" stroke="green" stroke-width="0.5" d="M1038.88,-403.24C1034.96,-398.46 1029.71,-392.52 1024.4,-387.89 998.64,-365.39 925.93,-319.66 896.4,-302.39 865.86,-284.53 856.75,-282.8 825.4,-266.39 819.25,-263.17 812.64,-259.64 806.46,-256.31"/>
<polygon fill="green" stroke="green" stroke-width="0.5" points="807.7,-253 797.24,-251.32 804.36,-259.16 807.7,-253"/>
</g>
<!-- &#45;8&#45;&gt;51 -->
<g id="edge59" class="edge">
<title>&#45;8&#45;&gt;51</title>
<path fill="none" stroke="red" stroke-width="0.2" d="M1050.95,-403.29C1054.91,-398.03 1060.7,-391.55 1067.4,-387.89 1147.43,-344.17 1181.09,-374.6 1269.4,-351.89 1283.92,-348.16 1299.76,-342.89 1312.69,-338.26"/>
<polygon fill="red" stroke="red" stroke-width="0.2" points="1314.17,-341.45 1322.36,-334.73 1311.77,-334.87 1314.17,-341.45"/>
</g>
<!-- &#45;8&#45;&gt;52 -->
<g id="edge60" class="edge">
<title>&#45;8&#45;&gt;52</title>
<path fill="none" stroke="green" stroke-width="0.58" d="M1051.61,-403.32C1055.67,-398.33 1061.33,-392.15 1067.4,-387.89 1103.46,-362.64 1151.85,-345.16 1181.81,-335.89"/>
<polygon fill="green" stroke="green" stroke-width="0.58" points="1183.02,-339.19 1191.59,-332.96 1181.01,-332.48 1183.02,-339.19"/>
</g>
<!-- &#45;9 -->
<g id="node9" class="node">
<title>&#45;9</title>
<polygon fill="lightgray" stroke="black" points="1147.4,-421.64 1123.4,-421.64 1123.4,-403.64 1147.4,-403.64 1147.4,-421.64"/>
<text text-anchor="middle" x="1135.4" y="-410.44" font-family="Times New Roman,serif" font-size="9.00">&#45;9</text>
</g>
<!-- &#45;9&#45;&gt;41 -->
<g id="edge61" class="edge">
<title>&#45;9&#45;&gt;41</title>
<path fill="none" stroke="green" stroke-width="0.16" d="M1140.52,-403.58C1144.43,-398.16 1150.35,-391.38 1157.4,-387.89 1306.65,-313.96 1384.74,-432.63 1530.4,-351.89 1554.66,-338.44 1549.68,-322.85 1568.4,-302.39 1582.03,-287.5 1598.83,-272.12 1611.94,-260.7"/>
<polygon fill="green" stroke="green" stroke-width="0.16" points="1614.27,-263.31 1619.57,-254.13 1609.71,-258.01 1614.27,-263.31"/>
</g>
<!-- &#45;9&#45;&gt;43 -->
<g id="edge62" class="edge">
<title>&#45;9&#45;&gt;43</title>
<path fill="none" stroke="red" stroke-width="0.1" d="M1130.62,-403.55C1126.93,-398.11 1121.3,-391.33 1114.4,-387.89 1024.66,-343.06 763.96,-364.23 664.4,-351.89 625.08,-347.01 579.98,-338.99 551.6,-333.63"/>
<polygon fill="red" stroke="red" stroke-width="0.1" points="552.06,-330.16 541.58,-331.72 550.75,-337.03 552.06,-330.16"/>
</g>
<!-- &#45;9&#45;&gt;44 -->
<g id="edge63" class="edge">
<title>&#45;9&#45;&gt;44</title>
<path fill="none" stroke="red" stroke-width="0.19" d="M1130.2,-403.27C1126.47,-398 1120.95,-391.52 1114.4,-387.89 1058.02,-356.59 861.88,-336.93 787.92,-330.48"/>
<polygon fill="red" stroke="red" stroke-width="0.19" points="788.19,-326.99 777.93,-329.62 787.59,-333.96 788.19,-326.99"/>
</g>
<!-- &#45;9&#45;&gt;45 -->
<g id="edge64" class="edge">
<title>&#45;9&#45;&gt;45</title>
<path fill="none" stroke="red" stroke-width="0.3" d="M1129.4,-403.5C1125.5,-398.58 1120.1,-392.4 1114.4,-387.89 1087.99,-366.95 1053.19,-349.58 1029.65,-339.07"/>
<polygon fill="red" stroke="red" stroke-width="0.3" points="1030.87,-335.78 1020.31,-334.99 1028.07,-342.2 1030.87,-335.78"/>
</g>
<!-- &#45;9&#45;&gt;46 -->
<g id="edge65" class="edge">
<title>&#45;9&#45;&gt;46</title>
<path fill="none" stroke="red" stroke-width="0.38" stroke-dasharray="1,5" d="M1140.95,-403.28C1144.9,-398.01 1150.69,-391.53 1157.4,-387.89 1240.25,-342.94 1281.01,-391.78 1366.4,-351.89 1369.06,-350.65 1371.66,-349.09 1374.14,-347.37"/>
<polygon fill="red" stroke="red" stroke-width="0.38" points="1376.39,-350.05 1382.04,-341.09 1372.03,-344.57 1376.39,-350.05"/>
</g>
<!-- &#45;9&#45;&gt;47 -->
<g id="edge66" class="edge">
<title>&#45;9&#45;&gt;47</title>
<path fill="none" stroke="red" stroke-width="0.48" d="M1132.48,-403.47C1124.66,-382.87 1101.17,-328.54 1062.4,-302.39 997.3,-258.47 966.2,-282.83 889.4,-266.39 862.14,-260.56 831.05,-253.7 809.25,-248.86"/>
<polygon fill="red" stroke="red" stroke-width="0.48" points="809.88,-245.41 799.35,-246.66 808.36,-252.24 809.88,-245.41"/>
</g>
<!-- &#45;9&#45;&gt;51 -->
<g id="edge67" class="edge">
<title>&#45;9&#45;&gt;51</title>
<path fill="none" stroke="red" stroke-width="0.39" d="M1141.13,-403.58C1145.15,-398.44 1150.96,-392 1157.4,-387.89 1201.5,-359.79 1219.76,-368.29 1269.4,-351.89 1283.63,-347.19 1299.45,-341.83 1312.44,-337.4"/>
<polygon fill="red" stroke="red" stroke-width="0.39" points="1313.84,-340.62 1322.17,-334.07 1311.58,-334 1313.84,-340.62"/>
</g>
<!-- &#45;9&#45;&gt;52 -->
<g id="edge68" class="edge">
<title>&#45;9&#45;&gt;52</title>
<path fill="none" stroke="green" stroke-width="0.2" d="M1142.5,-403.63C1153.54,-391.17 1175.2,-366.74 1190.89,-349.03"/>
<polygon fill="green" stroke="green" stroke-width="0.2" points="1193.6,-351.25 1197.62,-341.44 1188.37,-346.6 1193.6,-351.25"/>
</g>
<!-- &#45;10 -->
<g id="node10" class="node">
<title>&#45;10</title>
<polygon fill="lightgray" stroke="black" points="1014.9,-421.64 985.9,-421.64 985.9,-403.64 1014.9,-403.64 1014.9,-421.64"/>
<text text-anchor="middle" x="1000.4" y="-410.44" font-family="Times New Roman,serif" font-size="9.00">&#45;10</text>
</g>
<!-- &#45;10&#45;&gt;41 -->
<g id="edge69" class="edge">
<title>&#45;10&#45;&gt;41</title>
<path fill="none" stroke="red" stroke-width="0.35" d="M1006.61,-403.27C1010.98,-398 1017.31,-391.53 1024.4,-387.89 1109.43,-344.25 1147.4,-386.69 1236.4,-351.89 1273.95,-337.21 1274.98,-317.37 1312.4,-302.39 1365.98,-280.95 1537.39,-255.82 1605.3,-246.43"/>
<polygon fill="red" stroke="red" stroke-width="0.35" points="1605.85,-249.89 1615.28,-245.06 1604.9,-242.96 1605.85,-249.89"/>
</g>
<!-- &#45;10&#45;&gt;43 -->
<g id="edge70" class="edge">
<title>&#45;10&#45;&gt;43</title>
<path fill="none" stroke="red" stroke-width="0.33" d="M994.96,-403.62C990.81,-398.21 984.61,-391.44 977.4,-387.89 851.81,-325.98 803.05,-371.52 664.4,-351.89 625.17,-346.33 580.05,-338.47 551.64,-333.34"/>
<polygon fill="red" stroke="red" stroke-width="0.33" points="552.07,-329.87 541.61,-331.52 550.82,-336.75 552.07,-329.87"/>
</g>
<!-- &#45;10&#45;&gt;44 -->
<g id="edge71" class="edge">
<title>&#45;10&#45;&gt;44</title>
<path fill="none" stroke="red" stroke-width="0.16" d="M994.41,-403.5C990.19,-398.32 984.12,-391.87 977.4,-387.89 945.01,-368.71 838.73,-344.72 787.51,-333.9"/>
<polygon fill="red" stroke="red" stroke-width="0.16" points="787.96,-330.42 777.46,-331.8 786.53,-337.27 787.96,-330.42"/>
</g>
<!-- &#45;10&#45;&gt;45 -->
<g id="edge72" class="edge">
<title>&#45;10&#45;&gt;45</title>
<path fill="none" stroke="green" stroke-width="0.13" d="M1000.69,-403.63C1001.08,-392.72 1001.81,-372.61 1002.41,-355.89"/>
<polygon fill="green" stroke="green" stroke-width="0.13" points="1005.92,-355.64 1002.78,-345.52 998.92,-355.39 1005.92,-355.64"/>
</g>
<!-- &#45;10&#45;&gt;46 -->
<g id="edge73" class="edge">
<title>&#45;10&#45;&gt;46</title>
<path fill="none" stroke="red" stroke-width="0.11" d="M1006.15,-403.59C1010.51,-398.18 1016.99,-391.4 1024.4,-387.89 1162.52,-322.44 1225.88,-411.99 1366.4,-351.89 1369.1,-350.74 1371.72,-349.24 1374.22,-347.54"/>
<polygon fill="red" stroke="red" stroke-width="0.11" points="1376.45,-350.25 1382.14,-341.31 1372.12,-344.75 1376.45,-350.25"/>
</g>
<!-- &#45;10&#45;&gt;47 -->
<g id="edge74" class="edge">
<title>&#45;10&#45;&gt;47</title>
<path fill="none" stroke="red" stroke-width="0.53" d="M993.74,-403.47C989.44,-398.54 983.51,-392.37 977.4,-387.89 948.55,-366.74 934.04,-373.34 905.4,-351.89 881.37,-333.89 881.63,-322.59 859.4,-302.39 854.36,-297.8 825.16,-275.62 803.97,-259.62"/>
<polygon fill="red" stroke="red" stroke-width="0.53" points="805.84,-256.65 795.75,-253.43 801.63,-262.24 805.84,-256.65"/>
</g>
<!-- &#45;10&#45;&gt;51 -->
<g id="edge75" class="edge">
<title>&#45;10&#45;&gt;51</title>
<path fill="none" stroke="green" stroke-width="0.17" d="M1006.58,-403.22C1010.94,-397.93 1017.27,-391.45 1024.4,-387.89 1122.87,-338.73 1162.41,-377.67 1269.4,-351.89 1283.97,-348.38 1299.82,-343.13 1312.74,-338.46"/>
<polygon fill="green" stroke="green" stroke-width="0.17" points="1314.24,-341.63 1322.4,-334.88 1311.81,-335.07 1314.24,-341.63"/>
</g>
<!-- &#45;10&#45;&gt;52 -->
<g id="edge76" class="edge">
<title>&#45;10&#45;&gt;52</title>
<path fill="none" stroke="green" stroke-width="0.48" stroke-dasharray="1,5" d="M1006.79,-403.61C1011.24,-398.47 1017.59,-392.03 1024.4,-387.89 1075.06,-357.09 1143.31,-340.43 1181.15,-333"/>
<polygon fill="green" stroke="green" stroke-width="0.48" points="1182.24,-336.36 1191.42,-331.07 1180.94,-329.48 1182.24,-336.36"/>
</g>
<!-- &#45;11 -->
<g id="node11" class="node">
<title>&#45;11</title>
<polygon fill="lightgray" stroke="black" points="753.9,-421.64 724.9,-421.64 724.9,-403.64 753.9,-403.64 753.9,-421.64"/>
<text text-anchor="middle" x="739.4" y="-410.44" font-family="Times New Roman,serif" font-size="9.00">&#45;11</text>
</g>
<!-- &#45;11&#45;&gt;43 -->
<g id="edge77" class="edge">
<title>&#45;11&#45;&gt;43</title>
<path fill="none" stroke="green" stroke-width="0.14" d="M733.05,-403.55C728.61,-398.39 722.27,-391.94 715.4,-387.89 666.73,-359.14 647.29,-368.97 593.4,-351.89 579.12,-347.36 563.3,-342.02 550.32,-337.55"/>
<polygon fill="green" stroke="green" stroke-width="0.14" points="551.2,-334.15 540.6,-334.19 548.91,-340.77 551.2,-334.15"/>
</g>
<!-- &#45;11&#45;&gt;44 -->
<g id="edge78" class="edge">
<title>&#45;11&#45;&gt;44</title>
<path fill="none" stroke="red" stroke-width="0.15" d="M741.32,-403.63C743.98,-392.54 748.9,-371.97 752.95,-355.1"/>
<polygon fill="red" stroke="red" stroke-width="0.15" points="756.39,-355.74 755.32,-345.19 749.59,-354.1 756.39,-355.74"/>
</g>
<!-- &#45;11&#45;&gt;45 -->
<g id="edge79" class="edge">
<title>&#45;11&#45;&gt;45</title>
<path fill="none" stroke="red" stroke-width="0.21" d="M745.7,-403.45C750.12,-398.25 756.45,-391.8 763.4,-387.89 833.03,-348.75 928.18,-334.95 975.01,-330.32"/>
<polygon fill="red" stroke="red" stroke-width="0.21" points="975.4,-333.8 985.04,-329.4 974.76,-326.83 975.4,-333.8"/>
</g>
<!-- &#45;11&#45;&gt;46 -->
<g id="edge80" class="edge">
<title>&#45;11&#45;&gt;46</title>
<path fill="none" stroke="red" stroke-width="0.13" d="M745.11,-403.49C749.44,-398.02 755.91,-391.23 763.4,-387.89 885.98,-333.17 1241.82,-401.87 1366.4,-351.89 1369.18,-350.78 1371.87,-349.28 1374.43,-347.57"/>
<polygon fill="red" stroke="red" stroke-width="0.13" points="1376.8,-350.15 1382.47,-341.21 1372.46,-344.66 1376.8,-350.15"/>
</g>
<!-- &#45;11&#45;&gt;47 -->
<g id="edge81" class="edge">
<title>&#45;11&#45;&gt;47</title>
<path fill="none" stroke="red" stroke-width="0.43" d="M732.31,-403.6C727.77,-398.72 721.58,-392.55 715.4,-387.89 689.35,-368.24 667.88,-380.06 651.4,-351.89 640.3,-332.9 639.53,-320.91 651.4,-302.39 673.71,-267.6 721.93,-252.79 752.96,-246.69"/>
<polygon fill="red" stroke="red" stroke-width="0.43" points="753.92,-250.08 763.15,-244.88 752.69,-243.18 753.92,-250.08"/>
</g>
<!-- &#45;11&#45;&gt;52 -->
<g id="edge82" class="edge">
<title>&#45;11&#45;&gt;52</title>
<path fill="none" stroke="green" stroke-width="0.71" stroke-dasharray="1,5" d="M745.56,-403.19C749.92,-397.89 756.25,-391.4 763.4,-387.89 764.59,-387.31 1083.14,-344.93 1181.09,-331.9"/>
<polygon fill="green" stroke="green" stroke-width="0.71" points="1181.69,-335.35 1191.14,-330.57 1180.77,-328.42 1181.69,-335.35"/>
</g>
<!-- &#45;12 -->
<g id="node12" class="node">
<title>&#45;12</title>
<polygon fill="lightgray" stroke="black" points="1194.9,-421.64 1165.9,-421.64 1165.9,-403.64 1194.9,-403.64 1194.9,-421.64"/>
<text text-anchor="middle" x="1180.4" y="-410.44" font-family="Times New Roman,serif" font-size="9.00">&#45;12</text>
</g>
<!-- &#45;12&#45;&gt;41 -->
<g id="edge83" class="edge">
<title>&#45;12&#45;&gt;41</title>
<path fill="none" stroke="green" stroke-width="0.25" d="M1195.02,-407.69C1214.57,-402.52 1250.38,-393.47 1281.4,-387.89 1344.67,-376.52 1514.62,-387.08 1568.4,-351.89 1597.91,-332.58 1615.91,-294.81 1625.27,-269.15"/>
<polygon fill="green" stroke="green" stroke-width="0.25" points="1628.59,-270.24 1628.54,-259.65 1621.98,-267.96 1628.59,-270.24"/>
</g>
<!-- &#45;12&#45;&gt;43 -->
<g id="edge84" class="edge">
<title>&#45;12&#45;&gt;43</title>
<path fill="none" stroke="green" stroke-width="0.24" d="M1174.69,-403.52C1170.35,-398.07 1163.88,-391.28 1156.4,-387.89 1056.6,-342.53 773.24,-365.01 664.4,-351.89 625.07,-347.15 579.97,-339.09 551.59,-333.69"/>
<polygon fill="green" stroke="green" stroke-width="0.24" points="552.06,-330.22 541.58,-331.76 550.74,-337.09 552.06,-330.22"/>
</g>
<!-- &#45;12&#45;&gt;44 -->
<g id="edge85" class="edge">
<title>&#45;12&#45;&gt;44</title>
<path fill="none" stroke="red" stroke-width="0.2" d="M1174.23,-403.23C1169.86,-397.94 1163.53,-391.46 1156.4,-387.89 1123.39,-371.34 872.95,-341.24 787.71,-331.37"/>
<polygon fill="red" stroke="red" stroke-width="0.2" points="788.04,-327.89 777.71,-330.22 787.24,-334.84 788.04,-327.89"/>
</g>
<!-- &#45;12&#45;&gt;45 -->
<g id="edge86" class="edge">
<title>&#45;12&#45;&gt;45</title>
<path fill="none" stroke="red" stroke-width="0.43" d="M1173.53,-403.29C1169.07,-398.29 1162.89,-392.11 1156.4,-387.89 1116.23,-361.79 1062.89,-344.21 1030.97,-335.21"/>
<polygon fill="red" stroke="red" stroke-width="0.43" points="1031.58,-331.75 1021.01,-332.49 1029.74,-338.5 1031.58,-331.75"/>
</g>
<!-- &#45;12&#45;&gt;46 -->
<g id="edge87" class="edge">
<title>&#45;12&#45;&gt;46</title>
<path fill="none" stroke="red" stroke-width="0.16" d="M1195.19,-408.95C1227.74,-402.59 1307.4,-384.67 1366.4,-351.89 1368.96,-350.47 1371.51,-348.79 1373.96,-347"/>
<polygon fill="red" stroke="red" stroke-width="0.16" points="1376.24,-349.65 1381.81,-340.65 1371.84,-344.21 1376.24,-349.65"/>
</g>
<!-- &#45;12&#45;&gt;47 -->
<g id="edge88" class="edge">
<title>&#45;12&#45;&gt;47</title>
<path fill="none" stroke="green" stroke-width="0.6" d="M1176.8,-403.38C1167.25,-382.55 1139.13,-327.76 1097.4,-302.39 1017.24,-253.66 981.46,-284.47 889.4,-266.39 862.04,-261.02 830.97,-254.1 809.2,-249.12"/>
<polygon fill="green" stroke="green" stroke-width="0.6" points="809.85,-245.67 799.32,-246.84 808.28,-252.5 809.85,-245.67"/>
</g>
<!-- &#45;12&#45;&gt;51 -->
<g id="edge89" class="edge">
<title>&#45;12&#45;&gt;51</title>
<path fill="none" stroke="red" stroke-width="0.41" d="M1195.08,-403.93C1222.23,-389.68 1280.58,-359.03 1314.18,-341.38"/>
<polygon fill="red" stroke="red" stroke-width="0.41" points="1316.13,-344.32 1323.36,-336.57 1312.88,-338.12 1316.13,-344.32"/>
</g>
<!-- &#45;12&#45;&gt;52 -->
<g id="edge90" class="edge">
<title>&#45;12&#45;&gt;52</title>
<path fill="none" stroke="red" stroke-width="0.23" d="M1183.19,-403.63C1187.1,-392.37 1194.4,-371.33 1200.31,-354.32"/>
<polygon fill="red" stroke="red" stroke-width="0.23" points="1203.62,-355.46 1203.59,-344.87 1197.01,-353.17 1203.62,-355.46"/>
</g>
<!-- &#45;13 -->
<g id="node13" class="node">
<title>&#45;13</title>
<polygon fill="lightgray" stroke="black" points="967.9,-421.64 938.9,-421.64 938.9,-403.64 967.9,-403.64 967.9,-421.64"/>
<text text-anchor="middle" x="953.4" y="-410.44" font-family="Times New Roman,serif" font-size="9.00">&#45;13</text>
</g>
<!-- &#45;13&#45;&gt;41 -->
<g id="edge91" class="edge">
<title>&#45;13&#45;&gt;41</title>
<path fill="none" stroke="green" stroke-width="0.8" d="M960.31,-403.34C964.79,-398.36 970.96,-392.18 977.4,-387.89 1059.56,-333.16 1087.09,-328.1 1182.4,-302.39 1338.35,-260.33 1532.95,-247.34 1604.93,-243.82"/>
<polygon fill="green" stroke="green" stroke-width="0.8" points="1605.2,-247.31 1615.02,-243.35 1604.87,-240.32 1605.2,-247.31"/>
</g>
<!-- &#45;13&#45;&gt;43 -->
<g id="edge92" class="edge">
<title>&#45;13&#45;&gt;43</title>
<path fill="none" stroke="red" stroke-width="0.17" d="M938.89,-407.93C919.48,-403.03 883.97,-394.28 853.4,-387.89 742.31,-364.66 609.06,-342.16 551.81,-332.75"/>
<polygon fill="red" stroke="red" stroke-width="0.17" points="552.15,-329.26 541.72,-331.1 551.02,-336.17 552.15,-329.26"/>
</g>
<!-- &#45;13&#45;&gt;44 -->
<g id="edge93" class="edge">
<title>&#45;13&#45;&gt;44</title>
<path fill="none" stroke="green" stroke-width="0.46" d="M938.82,-405.36C906.18,-391.31 826.84,-357.17 785.48,-339.36"/>
<polygon fill="green" stroke="green" stroke-width="0.46" points="786.63,-336.05 776.06,-335.31 783.87,-342.48 786.63,-336.05"/>
</g>
<!-- &#45;13&#45;&gt;45 -->
<g id="edge94" class="edge">
<title>&#45;13&#45;&gt;45</title>
<path fill="none" stroke="red" stroke-width="0.32" d="M958.2,-403.63C965.21,-391.92 978.56,-369.63 988.94,-352.3"/>
<polygon fill="red" stroke="red" stroke-width="0.32" points="992.21,-353.65 994.34,-343.28 986.2,-350.06 992.21,-353.65"/>
</g>
<!-- &#45;13&#45;&gt;46 -->
<g id="edge95" class="edge">
<title>&#45;13&#45;&gt;46</title>
<path fill="none" stroke="green" stroke-width="0.13" d="M959.14,-403.56C963.49,-398.13 969.97,-391.36 977.4,-387.89 1134.77,-314.53 1206.34,-419.16 1366.4,-351.89 1369.16,-350.73 1371.84,-349.2 1374.39,-347.47"/>
<polygon fill="green" stroke="green" stroke-width="0.13" points="1376.77,-350.05 1382.43,-341.1 1372.42,-344.57 1376.77,-350.05"/>
</g>
<!-- &#45;13&#45;&gt;47 -->
<g id="edge96" class="edge">
<title>&#45;13&#45;&gt;47</title>
<path fill="none" stroke="red" stroke-width="0.22" d="M939.05,-403.49C921.16,-392.93 890.17,-373.33 867.4,-351.89 839.33,-325.44 812.8,-289.45 796.82,-266.13"/>
<polygon fill="red" stroke="red" stroke-width="0.22" points="799.53,-263.89 791.03,-257.57 793.73,-267.81 799.53,-263.89"/>
</g>
<!-- &#45;13&#45;&gt;51 -->
<g id="edge97" class="edge">
<title>&#45;13&#45;&gt;51</title>
<path fill="none" stroke="red" stroke-width="0.15" d="M959.57,-403.2C963.93,-397.9 970.26,-391.42 977.4,-387.89 1081.59,-336.39 1122.11,-372.97 1236.4,-351.89 1262.07,-347.16 1291,-340.35 1311.66,-335.24"/>
<polygon fill="red" stroke="red" stroke-width="0.15" points="1312.79,-338.56 1321.64,-332.74 1311.09,-331.77 1312.79,-338.56"/>
</g>
<!-- &#45;13&#45;&gt;52 -->
<g id="edge98" class="edge">
<title>&#45;13&#45;&gt;52</title>
<path fill="none" stroke="red" stroke-width="0.23" d="M959.71,-403.47C964.13,-398.28 970.47,-391.82 977.4,-387.89 1044.22,-349.98 1135.38,-335.67 1180.98,-330.64"/>
<polygon fill="red" stroke="red" stroke-width="0.23" points="1181.45,-334.11 1191.04,-329.6 1180.73,-327.15 1181.45,-334.11"/>
</g>
<!-- &#45;14 -->
<g id="node14" class="node">
<title>&#45;14</title>
<polygon fill="lightgray" stroke="black" points="1104.9,-421.64 1075.9,-421.64 1075.9,-403.64 1104.9,-403.64 1104.9,-421.64"/>
<text text-anchor="middle" x="1090.4" y="-410.44" font-family="Times New Roman,serif" font-size="9.00">&#45;14</text>
</g>
<!-- &#45;14&#45;&gt;41 -->
<g id="edge99" class="edge">
<title>&#45;14&#45;&gt;41</title>
<path fill="none" stroke="green" stroke-width="0.28" d="M1096.14,-403.57C1100.49,-398.14 1106.97,-391.37 1114.4,-387.89 1267.27,-316.38 1344.75,-433.61 1492.4,-351.89 1516.67,-338.46 1509.06,-320.1 1530.4,-302.39 1557.63,-279.8 1571.31,-285 1601.4,-266.39 1604.66,-264.38 1607.99,-262.13 1611.23,-259.84"/>
<polygon fill="green" stroke="green" stroke-width="0.28" points="1613.44,-262.56 1619.43,-253.82 1609.3,-256.92 1613.44,-262.56"/>
</g>
<!-- &#45;14&#45;&gt;43 -->
<g id="edge100" class="edge">
<title>&#45;14&#45;&gt;43</title>
<path fill="none" stroke="red" stroke-width="0.4" d="M1084.67,-403.56C1080.33,-398.12 1073.85,-391.35 1066.4,-387.89 985.06,-350.12 753.36,-363.35 664.4,-351.89 625.11,-346.83 580,-338.85 551.61,-333.55"/>
<polygon fill="red" stroke="red" stroke-width="0.4" points="552.06,-330.08 541.59,-331.67 550.77,-336.96 552.06,-330.08"/>
</g>
<!-- &#45;14&#45;&gt;44 -->
<g id="edge101" class="edge">
<title>&#45;14&#45;&gt;44</title>
<path fill="none" stroke="red" stroke-width="0.44" d="M1084.17,-403.33C1079.79,-398.08 1073.45,-391.61 1066.4,-387.89 973.24,-338.65 844.91,-329.73 788.26,-328.29"/>
<polygon fill="red" stroke="red" stroke-width="0.44" points="787.98,-324.79 777.92,-328.1 787.85,-331.79 787.98,-324.79"/>
</g>
<!-- &#45;14&#45;&gt;45 -->
<g id="edge102" class="edge">
<title>&#45;14&#45;&gt;45</title>
<path fill="none" stroke="green" stroke-width="0.54" d="M1082.01,-403.24C1077.42,-398.68 1071.62,-392.95 1066.4,-387.89 1052.37,-374.3 1036.4,-359.15 1024.05,-347.51"/>
<polygon fill="green" stroke="green" stroke-width="0.54" points="1026.19,-344.72 1016.51,-340.42 1021.4,-349.82 1026.19,-344.72"/>
</g>
<!-- &#45;14&#45;&gt;46 -->
<g id="edge103" class="edge">
<title>&#45;14&#45;&gt;46</title>
<path fill="none" stroke="red" stroke-width="0.2" d="M1096.57,-403.21C1100.94,-397.92 1107.26,-391.44 1114.4,-387.89 1215.73,-337.56 1263.22,-398.3 1366.4,-351.89 1369.07,-350.69 1371.69,-349.15 1374.18,-347.44"/>
<polygon fill="red" stroke="red" stroke-width="0.2" points="1376.42,-350.14 1382.08,-341.19 1372.07,-344.65 1376.42,-350.14"/>
</g>
<!-- &#45;14&#45;&gt;47 -->
<g id="edge104" class="edge">
<title>&#45;14&#45;&gt;47</title>
<path fill="none" stroke="red" stroke-width="0.46" d="M1088.41,-403.56C1082.93,-383.17 1065.66,-329.31 1030.4,-302.39 1021.51,-295.6 872.57,-262.53 809.38,-248.72"/>
<polygon fill="red" stroke="red" stroke-width="0.46" points="809.84,-245.24 799.32,-246.53 808.35,-252.08 809.84,-245.24"/>
</g>
<!-- &#45;14&#45;&gt;51 -->
<g id="edge105" class="edge">
<title>&#45;14&#45;&gt;51</title>
<path fill="none" stroke="red" stroke-width="0.47" d="M1096.68,-403.41C1101.09,-398.2 1107.42,-391.74 1114.4,-387.89 1176.33,-353.72 1201.39,-371.27 1269.4,-351.89 1283.82,-347.78 1299.65,-342.48 1312.6,-337.93"/>
<polygon fill="red" stroke="red" stroke-width="0.47" points="1314.05,-341.13 1322.29,-334.48 1311.7,-334.53 1314.05,-341.13"/>
</g>
<!-- &#45;14&#45;&gt;52 -->
<g id="edge106" class="edge">
<title>&#45;14&#45;&gt;52</title>
<path fill="none" stroke="green" stroke-width="0.7" d="M1098,-403.26C1102.53,-398.49 1108.53,-392.55 1114.4,-387.89 1136.93,-370.01 1165.07,-352.88 1184.86,-341.59"/>
<polygon fill="green" stroke="green" stroke-width="0.7" points="1186.58,-344.63 1193.57,-336.68 1183.14,-338.54 1186.58,-344.63"/>
</g>
<!-- &#45;15 -->
<g id="node15" class="node">
<title>&#45;15</title>
<polygon fill="lightgray" stroke="black" points="843.9,-421.64 814.9,-421.64 814.9,-403.64 843.9,-403.64 843.9,-421.64"/>
<text text-anchor="middle" x="829.4" y="-410.44" font-family="Times New Roman,serif" font-size="9.00">&#45;15</text>
</g>
<!-- &#45;15&#45;&gt;41 -->
<g id="edge107" class="edge">
<title>&#45;15&#45;&gt;41</title>
<path fill="none" stroke="red" stroke-width="0.22" d="M837.03,-403.44C857.32,-382.26 915.22,-325.77 976.4,-302.39 1094.06,-257.45 1494.45,-245.63 1604.95,-243.19"/>
<polygon fill="red" stroke="red" stroke-width="0.22" points="1605.08,-246.69 1615.01,-242.98 1604.93,-239.69 1605.08,-246.69"/>
</g>
<!-- &#45;15&#45;&gt;43 -->
<g id="edge108" class="edge">
<title>&#45;15&#45;&gt;43</title>
<path fill="none" stroke="green" stroke-width="0.24" d="M823.15,-403.37C818.76,-398.14 812.42,-391.67 805.4,-387.89 783.03,-375.83 618.52,-345.27 551.6,-333.18"/>
<polygon fill="green" stroke="green" stroke-width="0.24" points="551.83,-329.67 541.37,-331.34 550.59,-336.55 551.83,-329.67"/>
</g>
<!-- &#45;15&#45;&gt;44 -->
<g id="edge109" class="edge">
<title>&#45;15&#45;&gt;44</title>
<path fill="none" stroke="green" stroke-width="0.14" d="M822.69,-403.63C812.4,-391.35 792.36,-367.45 777.58,-349.82"/>
<polygon fill="green" stroke="green" stroke-width="0.14" points="779.91,-347.16 770.81,-341.74 774.55,-351.65 779.91,-347.16"/>
</g>
<!-- &#45;15&#45;&gt;45 -->
<g id="edge110" class="edge">
<title>&#45;15&#45;&gt;45</title>
<path fill="none" stroke="green" stroke-width="0.33" d="M837.91,-403.2C843.38,-398.17 850.85,-391.99 858.4,-387.89 904.73,-362.74 924.49,-375.92 971.4,-351.89 974.81,-350.15 978.23,-348.05 981.51,-345.83"/>
<polygon fill="green" stroke="green" stroke-width="0.33" points="983.71,-348.56 989.73,-339.85 979.59,-342.9 983.71,-348.56"/>
</g>
<!-- &#45;15&#45;&gt;46 -->
<g id="edge111" class="edge">
<title>&#45;15&#45;&gt;46</title>
<path fill="none" stroke="red" stroke-width="0.23" d="M843.99,-407.49C863.5,-402.1 899.27,-392.81 930.4,-387.89 1026.43,-372.72 1276.59,-389.11 1366.4,-351.89 1369.16,-350.75 1371.85,-349.22 1374.4,-347.5"/>
<polygon fill="red" stroke="red" stroke-width="0.23" points="1376.78,-350.08 1382.44,-341.13 1372.43,-344.6 1376.78,-350.08"/>
</g>
<!-- &#45;15&#45;&gt;47 -->
<g id="edge112" class="edge">
<title>&#45;15&#45;&gt;47</title>
<path fill="none" stroke="red" stroke-width="0.15" d="M827.09,-403.49C820.28,-379.52 800.11,-308.51 788.99,-269.33"/>
<polygon fill="red" stroke="red" stroke-width="0.15" points="792.33,-268.31 786.23,-259.65 785.6,-270.23 792.33,-268.31"/>
</g>
<!-- &#45;15&#45;&gt;51 -->
<g id="edge113" class="edge">
<title>&#45;15&#45;&gt;51</title>
<path fill="none" stroke="green" stroke-width="0.14" d="M844.02,-407.65C863.56,-402.44 899.36,-393.35 930.4,-387.89 1065.27,-364.18 1101.48,-375.31 1236.4,-351.89 1262.24,-347.41 1291.31,-340.53 1311.97,-335.33"/>
<polygon fill="green" stroke="green" stroke-width="0.14" points="1312.84,-338.72 1321.66,-332.86 1311.11,-331.94 1312.84,-338.72"/>
</g>
<!-- &#45;15&#45;&gt;52 -->
<g id="edge114" class="edge">
<title>&#45;15&#45;&gt;52</title>
<path fill="none" stroke="red" stroke-width="0.29" d="M844.1,-408.08C863.74,-403.36 899.65,-394.8 930.4,-387.89 1022.23,-367.26 1131.42,-344.34 1181.63,-333.9"/>
<polygon fill="red" stroke="red" stroke-width="0.29" points="1182.35,-337.32 1191.42,-331.86 1180.92,-330.47 1182.35,-337.32"/>
</g>
<!-- 1242 -->
<g id="node37" class="node">
<title>1242</title>
<ellipse fill="white" stroke="black" cx="698.4" cy="-327.14" rx="25" ry="25"/>
<text text-anchor="middle" x="698.4" y="-324.94" font-family="Times New Roman,serif" font-size="9.00">1242</text>
</g>
<!-- &#45;15&#45;&gt;1242 -->
<g id="edge193" class="edge">
<title>&#45;15&#45;&gt;1242</title>
<path fill="none" stroke="green" stroke-width="0.2" d="M822.4,-403.48C817.89,-398.55 811.71,-392.38 805.4,-387.89 775.94,-366.9 763.54,-370.3 732.4,-351.89 730.44,-350.73 728.44,-349.49 726.45,-348.21"/>
<polygon fill="green" stroke="green" stroke-width="0.2" points="728.11,-345.11 717.85,-342.47 724.22,-350.94 728.11,-345.11"/>
</g>
<!-- &#45;16 -->
<g id="node16" class="node">
<title>&#45;16</title>
<polygon fill="lightgray" stroke="black" points="540.9,-421.64 511.9,-421.64 511.9,-403.64 540.9,-403.64 540.9,-421.64"/>
<text text-anchor="middle" x="526.4" y="-410.44" font-family="Times New Roman,serif" font-size="9.00">&#45;16</text>
</g>
<!-- &#45;16&#45;&gt;41 -->
<g id="edge115" class="edge">
<title>&#45;16&#45;&gt;41</title>
<path fill="none" stroke="green" stroke-width="0.32" d="M517.98,-403.39C498.65,-383.51 454.92,-332.4 483.4,-302.39 503.33,-281.4 1428.83,-249.48 1604.71,-243.59"/>
<polygon fill="green" stroke="green" stroke-width="0.32" points="1604.88,-247.09 1614.76,-243.26 1604.65,-240.09 1604.88,-247.09"/>
</g>
<!-- &#45;16&#45;&gt;43 -->
<g id="edge116" class="edge">
<title>&#45;16&#45;&gt;43</title>
<path fill="none" stroke="green" stroke-width="0.17" d="M526.12,-403.63C525.72,-392.72 525,-372.61 524.4,-355.89"/>
<polygon fill="green" stroke="green" stroke-width="0.17" points="527.89,-355.39 524.03,-345.52 520.89,-355.64 527.89,-355.39"/>
</g>
<!-- &#45;16&#45;&gt;44 -->
<g id="edge117" class="edge">
<title>&#45;16&#45;&gt;44</title>
<path fill="none" stroke="red" stroke-width="0.29" stroke-dasharray="1,5" d="M532.31,-403.33C536.48,-398.09 542.55,-391.62 549.4,-387.89 622.24,-348.31 658.05,-388.53 732.4,-351.89 734.76,-350.73 737.06,-349.31 739.28,-347.75"/>
<polygon fill="red" stroke="red" stroke-width="0.29" points="741.7,-350.3 747.25,-341.27 737.28,-344.86 741.7,-350.3"/>
</g>
<!-- &#45;16&#45;&gt;45 -->
<g id="edge118" class="edge">
<title>&#45;16&#45;&gt;45</title>
<path fill="none" stroke="red" stroke-width="0.54" d="M532.23,-403.19C536.38,-397.88 542.43,-391.4 549.4,-387.89 568.57,-378.25 878.4,-342.36 974.92,-331.37"/>
<polygon fill="red" stroke="red" stroke-width="0.54" points="975.56,-334.82 985.11,-330.21 974.77,-327.86 975.56,-334.82"/>
</g>
<!-- &#45;16&#45;&gt;46 -->
<g id="edge119" class="edge">
<title>&#45;16&#45;&gt;46</title>
<path fill="none" stroke="green" stroke-width="0.43" d="M531.78,-403.46C535.88,-397.98 542.08,-391.19 549.4,-387.89 715.14,-313.33 1197.22,-418.24 1366.4,-351.89 1369.19,-350.8 1371.89,-349.31 1374.45,-347.61"/>
<polygon fill="green" stroke="green" stroke-width="0.43" points="1376.81,-350.2 1382.49,-341.26 1372.48,-344.7 1376.81,-350.2"/>
</g>
<!-- &#45;16&#45;&gt;47 -->
<g id="edge120" class="edge">
<title>&#45;16&#45;&gt;47</title>
<path fill="none" stroke="red" stroke-width="0.47" d="M520.22,-403.25C515.85,-397.96 509.52,-391.49 502.4,-387.89 410.46,-341.41 340.36,-430.19 273.4,-351.89 259.11,-335.17 258.79,-318.83 273.4,-302.39 281.47,-293.32 646.7,-256.12 752.79,-245.49"/>
<polygon fill="red" stroke="red" stroke-width="0.47" points="753.45,-248.94 763.05,-244.47 752.76,-241.98 753.45,-248.94"/>
</g>
<!-- 1522 -->
<g id="node34" class="node">
<title>1522</title>
<ellipse fill="white" stroke="black" cx="492.4" cy="-241.64" rx="25" ry="25"/>
<text text-anchor="middle" x="492.4" y="-239.44" font-family="Times New Roman,serif" font-size="9.00">1522</text>
</g>
<!-- &#45;16&#45;&gt;1522 -->
<g id="edge198" class="edge">
<title>&#45;16&#45;&gt;1522</title>
<path fill="none" stroke="red" stroke-width="0.16" d="M520.64,-403.62C516.28,-398.22 509.8,-391.45 502.4,-387.89 440.92,-358.28 242.75,-402.9 197.4,-351.89 121.85,-266.89 364.37,-247.89 457.52,-243.76"/>
<polygon fill="red" stroke="red" stroke-width="0.16" points="457.75,-247.25 467.6,-243.34 457.47,-240.26 457.75,-247.25"/>
</g>
<!-- &#45;16&#45;&gt;52 -->
<g id="edge121" class="edge">
<title>&#45;16&#45;&gt;52</title>
<path fill="none" stroke="green" stroke-width="0.27" d="M531.81,-403.53C535.93,-398.08 542.13,-391.3 549.4,-387.89 646.47,-342.42 923.79,-362.94 1030.4,-351.89 1083.81,-346.35 1145.88,-337.59 1181.12,-332.4"/>
<polygon fill="green" stroke="green" stroke-width="0.27" points="1181.77,-335.84 1191.15,-330.91 1180.74,-328.92 1181.77,-335.84"/>
</g>
<!-- &#45;17 -->
<g id="node17" class="node">
<title>&#45;17</title>
<polygon fill="lightgray" stroke="black" points="1490.9,-421.64 1461.9,-421.64 1461.9,-403.64 1490.9,-403.64 1490.9,-421.64"/>
<text text-anchor="middle" x="1476.4" y="-410.44" font-family="Times New Roman,serif" font-size="9.00">&#45;17</text>
</g>
<!-- &#45;17&#45;&gt;41 -->
<g id="edge122" class="edge">
<title>&#45;17&#45;&gt;41</title>
<path fill="none" stroke="green" stroke-width="0.11" d="M1482.17,-403.63C1486.53,-398.23 1493.02,-391.46 1500.4,-387.89 1560.05,-359.03 1752.47,-401.49 1796.4,-351.89 1810.99,-335.42 1809,-320.43 1796.4,-302.39 1766.01,-258.88 1700.29,-246.96 1662.24,-243.75"/>
<polygon fill="green" stroke="green" stroke-width="0.11" points="1662.05,-240.23 1651.84,-243.04 1661.57,-247.22 1662.05,-240.23"/>
</g>
<!-- &#45;17&#45;&gt;43 -->
<g id="edge123" class="edge">
<title>&#45;17&#45;&gt;43</title>
<path fill="none" stroke="green" stroke-width="0.68" d="M1461.53,-404.4C1449.21,-398.78 1431.1,-391.39 1414.4,-387.89 1087.8,-319.34 996.2,-387.67 664.4,-351.89 625.01,-347.64 579.93,-339.46 551.57,-333.9"/>
<polygon fill="green" stroke="green" stroke-width="0.68" points="552.05,-330.43 541.56,-331.91 550.69,-337.29 552.05,-330.43"/>
</g>
<!-- &#45;17&#45;&gt;45 -->
<g id="edge124" class="edge">
<title>&#45;17&#45;&gt;45</title>
<path fill="none" stroke="red" stroke-width="1.2" d="M1461.42,-404.82C1449.05,-399.46 1430.91,-392.19 1414.4,-387.89 1377.32,-378.22 1118.3,-343.39 1031.6,-331.87"/>
<polygon fill="red" stroke="red" stroke-width="1.2" points="1032.05,-328.4 1021.68,-330.55 1031.13,-335.34 1032.05,-328.4"/>
</g>
<!-- &#45;17&#45;&gt;46 -->
<g id="edge125" class="edge">
<title>&#45;17&#45;&gt;46</title>
<path fill="none" stroke="green" stroke-width="0.32" d="M1468.54,-403.63C1456.17,-391.03 1431.76,-366.18 1414.33,-348.43"/>
<polygon fill="green" stroke="green" stroke-width="0.32" points="1416.39,-345.53 1406.88,-340.85 1411.39,-350.43 1416.39,-345.53"/>
</g>
<!-- &#45;17&#45;&gt;47 -->
<g id="edge126" class="edge">
<title>&#45;17&#45;&gt;47</title>
<path fill="none" stroke="green" stroke-width="0.24" d="M1476.42,-403.38C1475.98,-382.57 1471.65,-327.8 1439.4,-302.39 1389.33,-262.93 930.02,-246.95 809.99,-243.43"/>
<polygon fill="green" stroke="green" stroke-width="0.24" points="809.86,-239.92 799.76,-243.13 809.66,-246.92 809.86,-239.92"/>
</g>
<!-- &#45;17&#45;&gt;51 -->
<g id="edge127" class="edge">
<title>&#45;17&#45;&gt;51</title>
<path fill="none" stroke="green" stroke-width="0.22" d="M1467.72,-403.5C1462.19,-398.58 1454.71,-392.41 1447.4,-387.89 1414.26,-367.36 1400.37,-372.7 1367.4,-351.89 1365.14,-350.46 1362.87,-348.86 1360.65,-347.19"/>
<polygon fill="green" stroke="green" stroke-width="0.22" points="1362.45,-344.14 1352.48,-340.55 1358.03,-349.57 1362.45,-344.14"/>
</g>
<!-- &#45;17&#45;&gt;52 -->
<g id="edge128" class="edge">
<title>&#45;17&#45;&gt;52</title>
<path fill="none" stroke="green" stroke-width="0.54" d="M1461.75,-405.63C1449.26,-400.61 1430.79,-393.41 1414.4,-387.89 1351.51,-366.72 1276.34,-345.94 1236.81,-335.36"/>
<polygon fill="green" stroke="green" stroke-width="0.54" points="1237.67,-331.96 1227.11,-332.77 1235.87,-338.73 1237.67,-331.96"/>
</g>
<!-- &#45;18 -->
<g id="node18" class="node">
<title>&#45;18</title>
<polygon fill="lightgray" stroke="black" points="1318.9,-421.64 1289.9,-421.64 1289.9,-403.64 1318.9,-403.64 1318.9,-421.64"/>
<text text-anchor="middle" x="1304.4" y="-410.44" font-family="Times New Roman,serif" font-size="9.00">&#45;18</text>
</g>
<!-- &#45;18&#45;&gt;41 -->
<g id="edge129" class="edge">
<title>&#45;18&#45;&gt;41</title>
<path fill="none" stroke="red" stroke-width="0.6" stroke-dasharray="1,5" d="M1319.11,-404.98C1331.69,-399.56 1350.39,-392.14 1367.4,-387.89 1427.63,-372.84 1603.44,-398.52 1644.4,-351.89 1664.53,-328.98 1655.21,-292.05 1645.38,-267.56"/>
<polygon fill="red" stroke="red" stroke-width="0.6" points="1648.53,-266.02 1641.37,-258.22 1642.1,-268.79 1648.53,-266.02"/>
</g>
<!-- &#45;18&#45;&gt;43 -->
<g id="edge130" class="edge">
<title>&#45;18&#45;&gt;43</title>
<path fill="none" stroke="red" stroke-width="0.24" d="M1289.65,-407.32C1270.27,-401.83 1235.1,-392.53 1204.4,-387.89 966.57,-351.98 903.3,-379.9 664.4,-351.89 625.05,-347.28 579.96,-339.18 551.58,-333.74"/>
<polygon fill="red" stroke="red" stroke-width="0.24" points="552.06,-330.27 541.57,-331.8 550.72,-337.14 552.06,-330.27"/>
</g>
<!-- &#45;18&#45;&gt;44 -->
<g id="edge131" class="edge">
<title>&#45;18&#45;&gt;44</title>
<path fill="none" stroke="red" stroke-width="0.3" d="M1289.59,-407.63C1270.16,-402.49 1234.93,-393.55 1204.4,-387.89 1048.35,-358.96 859.04,-338.25 788.08,-330.99"/>
<polygon fill="red" stroke="red" stroke-width="0.3" points="788.04,-327.47 777.73,-329.94 787.33,-334.43 788.04,-327.47"/>
</g>
<!-- &#45;18&#45;&gt;45 -->
<g id="edge132" class="edge">
<title>&#45;18&#45;&gt;45</title>
<path fill="none" stroke="green" stroke-width="0.28" d="M1289.89,-407.61C1242.71,-394.52 1093.17,-353.04 1030.97,-335.79"/>
<polygon fill="green" stroke="green" stroke-width="0.28" points="1031.66,-332.35 1021.09,-333.05 1029.79,-339.09 1031.66,-332.35"/>
</g>
<!-- &#45;18&#45;&gt;46 -->
<g id="edge133" class="edge">
<title>&#45;18&#45;&gt;46</title>
<path fill="none" stroke="red" stroke-width="0.66" d="M1313.03,-403.63C1326.95,-390.72 1354.75,-364.93 1373.95,-347.12"/>
<polygon fill="red" stroke="red" stroke-width="0.66" points="1376.39,-349.63 1381.34,-340.27 1371.62,-344.5 1376.39,-349.63"/>
</g>
<!-- &#45;18&#45;&gt;47 -->
<g id="edge134" class="edge">
<title>&#45;18&#45;&gt;47</title>
<path fill="none" stroke="green" stroke-width="0.18" d="M1302.06,-403.62C1295.55,-382.87 1275.09,-327.32 1236.4,-302.39 1235.27,-301.66 909.52,-259.29 809.97,-246.35"/>
<polygon fill="green" stroke="green" stroke-width="0.18" points="810.12,-242.84 799.75,-245.03 809.22,-249.79 810.12,-242.84"/>
</g>
<!-- &#45;18&#45;&gt;51 -->
<g id="edge135" class="edge">
<title>&#45;18&#45;&gt;51</title>
<path fill="none" stroke="green" stroke-width="0.11" stroke-dasharray="1,5" d="M1307.76,-403.63C1312.51,-392.3 1321.41,-371.08 1328.56,-354.01"/>
<polygon fill="green" stroke="green" stroke-width="0.11" points="1331.89,-355.12 1332.53,-344.55 1325.43,-352.42 1331.89,-355.12"/>
</g>
<!-- &#45;18&#45;&gt;52 -->
<g id="edge136" class="edge">
<title>&#45;18&#45;&gt;52</title>
<path fill="none" stroke="green" stroke-width="0.19" d="M1295.3,-403.63C1280.45,-390.59 1250.68,-364.42 1230.39,-346.59"/>
<polygon fill="green" stroke="green" stroke-width="0.19" points="1232.69,-343.95 1222.87,-339.98 1228.07,-349.21 1232.69,-343.95"/>
</g>
<!-- &#45;19 -->
<g id="node19" class="node">
<title>&#45;19</title>
<polygon fill="lightgray" stroke="black" points="1404.9,-421.64 1375.9,-421.64 1375.9,-403.64 1404.9,-403.64 1404.9,-421.64"/>
<text text-anchor="middle" x="1390.4" y="-410.44" font-family="Times New Roman,serif" font-size="9.00">&#45;19</text>
</g>
<!-- &#45;19&#45;&gt;41 -->
<g id="edge137" class="edge">
<title>&#45;19&#45;&gt;41</title>
<path fill="none" stroke="green" stroke-width="0.6" d="M1405.14,-405.1C1417.74,-399.75 1436.45,-392.37 1453.4,-387.89 1503.21,-374.74 1648.93,-391.04 1682.4,-351.89 1705.46,-324.92 1675.98,-285.34 1653.78,-261.96"/>
<polygon fill="green" stroke="green" stroke-width="0.6" points="1656.13,-259.36 1646.61,-254.7 1651.14,-264.28 1656.13,-259.36"/>
</g>
<!-- &#45;19&#45;&gt;44 -->
<g id="edge138" class="edge">
<title>&#45;19&#45;&gt;44</title>
<path fill="none" stroke="green" stroke-width="0.6" d="M1375.47,-404.63C1363.13,-399.16 1345,-391.84 1328.4,-387.89 1175.42,-351.45 1132.79,-368.44 976.4,-351.89 908.77,-344.73 829.32,-335.94 787.86,-331.32"/>
<polygon fill="green" stroke="green" stroke-width="0.6" points="788.02,-327.82 777.69,-330.19 787.24,-334.77 788.02,-327.82"/>
</g>
<!-- &#45;19&#45;&gt;45 -->
<g id="edge139" class="edge">
<title>&#45;19&#45;&gt;45</title>
<path fill="none" stroke="red" stroke-width="1.15" d="M1375.88,-405.2C1363.48,-399.91 1345.05,-392.56 1328.4,-387.89 1220.74,-357.65 1088.59,-338.82 1031.68,-331.56"/>
<polygon fill="red" stroke="red" stroke-width="1.15" points="1032,-328.07 1021.64,-330.3 1031.13,-335.01 1032,-328.07"/>
</g>
<!-- &#45;19&#45;&gt;46 -->
<g id="edge140" class="edge">
<title>&#45;19&#45;&gt;46</title>
<path fill="none" stroke="green" stroke-width="0.34" d="M1390.79,-403.63C1391.31,-392.72 1392.27,-372.61 1393.08,-355.89"/>
<polygon fill="green" stroke="green" stroke-width="0.34" points="1396.59,-355.68 1393.57,-345.52 1389.6,-355.34 1396.59,-355.68"/>
</g>
<!-- &#45;19&#45;&gt;47 -->
<g id="edge141" class="edge">
<title>&#45;19&#45;&gt;47</title>
<path fill="none" stroke="green" stroke-width="0.45" d="M1397.07,-403.63C1412.72,-383.84 1448.49,-332.12 1421.4,-302.39 1379.68,-256.59 928.76,-245.29 809.96,-243.1"/>
<polygon fill="green" stroke="green" stroke-width="0.45" points="809.88,-239.6 799.82,-242.92 809.76,-246.6 809.88,-239.6"/>
</g>
<!-- &#45;19&#45;&gt;51 -->
<g id="edge142" class="edge">
<title>&#45;19&#45;&gt;51</title>
<path fill="none" stroke="green" stroke-width="0.33" stroke-dasharray="1,5" d="M1385.51,-403.63C1378.3,-391.81 1364.5,-369.22 1353.87,-351.82"/>
<polygon fill="green" stroke="green" stroke-width="0.33" points="1356.85,-349.99 1348.65,-343.28 1350.88,-353.63 1356.85,-349.99"/>
</g>
<!-- &#45;19&#45;&gt;52 -->
<g id="edge143" class="edge">
<title>&#45;19&#45;&gt;52</title>
<path fill="none" stroke="green" stroke-width="0.97" d="M1375.9,-404.95C1345.33,-390.84 1273.92,-357.9 1235.3,-340.09"/>
<polygon fill="green" stroke="green" stroke-width="0.97" points="1236.34,-336.71 1225.79,-335.7 1233.4,-343.07 1236.34,-336.71"/>
</g>
<!-- &#45;20 -->
<g id="node20" class="node">
<title>&#45;20</title>
<polygon fill="lightgray" stroke="black" points="587.9,-421.64 558.9,-421.64 558.9,-403.64 587.9,-403.64 587.9,-421.64"/>
<text text-anchor="middle" x="573.4" y="-410.44" font-family="Times New Roman,serif" font-size="9.00">&#45;20</text>
</g>
<!-- &#45;20&#45;&gt;0 -->
<g id="edge195" class="edge">
<title>&#45;20&#45;&gt;0</title>
<path fill="none" stroke="red" stroke-width="0.17" d="M566.46,-403.4C561.97,-398.45 555.78,-392.27 549.4,-387.89 517.26,-365.83 497.93,-378.47 469.4,-351.89 423.03,-308.68 381.8,-264.71 423.4,-216.89 466.68,-167.16 680.52,-165.52 754.87,-166.5"/>
<polygon fill="red" stroke="red" stroke-width="0.17" points="755.12,-170.01 765.18,-166.67 755.24,-163.01 755.12,-170.01"/>
</g>
<!-- &#45;20&#45;&gt;41 -->
<g id="edge144" class="edge">
<title>&#45;20&#45;&gt;41</title>
<path fill="none" stroke="green" stroke-width="0.32" d="M565.75,-403.34C561.2,-398.59 555.2,-392.66 549.4,-387.89 527.41,-369.8 509.73,-377.05 496.4,-351.89 486.11,-332.45 481.26,-318.35 496.4,-302.39 535.74,-260.94 1432.09,-245.62 1604.77,-243.05"/>
<polygon fill="green" stroke="green" stroke-width="0.32" points="1604.92,-246.55 1614.86,-242.9 1604.81,-239.55 1604.92,-246.55"/>
</g>
<!-- &#45;20&#45;&gt;43 -->
<g id="edge145" class="edge">
<title>&#45;20&#45;&gt;43</title>
<path fill="none" stroke="red" stroke-width="0.9" d="M568.61,-403.63C561.6,-391.92 548.25,-369.63 537.87,-352.3"/>
<polygon fill="red" stroke="red" stroke-width="0.9" points="540.61,-350.06 532.47,-343.28 534.6,-353.65 540.61,-350.06"/>
</g>
<!-- &#45;20&#45;&gt;44 -->
<g id="edge146" class="edge">
<title>&#45;20&#45;&gt;44</title>
<path fill="none" stroke="red" stroke-width="0.32" d="M581.37,-403.56C586.85,-398.41 594.55,-391.96 602.4,-387.89 655.63,-360.3 679.67,-380.41 732.4,-351.89 734.71,-350.64 736.99,-349.16 739.18,-347.57"/>
<polygon fill="red" stroke="red" stroke-width="0.32" points="741.62,-350.09 747.12,-341.03 737.18,-344.68 741.62,-350.09"/>
</g>
<!-- &#45;20&#45;&gt;45 -->
<g id="edge147" class="edge">
<title>&#45;20&#45;&gt;45</title>
<path fill="none" stroke="red" stroke-width="0.21" d="M587.92,-407.93C607.33,-403.03 642.84,-394.28 673.4,-387.89 784.5,-364.66 917.75,-342.16 975,-332.75"/>
<polygon fill="red" stroke="red" stroke-width="0.21" points="975.79,-336.17 985.09,-331.1 974.66,-329.26 975.79,-336.17"/>
</g>
<!-- &#45;20&#45;&gt;46 -->
<g id="edge148" class="edge">
<title>&#45;20&#45;&gt;46</title>
<path fill="none" stroke="red" stroke-width="0.25" d="M588.15,-407.25C607.52,-401.69 642.67,-392.3 673.4,-387.89 826.05,-365.98 1223.06,-408.75 1366.4,-351.89 1369.18,-350.79 1371.88,-349.29 1374.44,-347.59"/>
<polygon fill="red" stroke="red" stroke-width="0.25" points="1376.81,-350.18 1382.48,-341.23 1372.47,-344.68 1376.81,-350.18"/>
</g>
<!-- &#45;20&#45;&gt;47 -->
<g id="edge149" class="edge">
<title>&#45;20&#45;&gt;47</title>
<path fill="none" stroke="green" stroke-width="0.13" d="M566.35,-403.56C561.81,-398.66 555.63,-392.49 549.4,-387.89 522.22,-367.79 499.75,-380.9 482.4,-351.89 471.12,-333.01 468.46,-319.4 482.4,-302.39 516.49,-260.82 684.74,-247.6 752.78,-243.92"/>
<polygon fill="green" stroke="green" stroke-width="0.13" points="752.99,-247.41 762.8,-243.4 752.64,-240.42 752.99,-247.41"/>
</g>
<!-- &#45;20&#45;&gt;51 -->
<g id="edge150" class="edge">
<title>&#45;20&#45;&gt;51</title>
<path fill="none" stroke="red" stroke-width="0.5" d="M588.16,-407.3C607.54,-401.8 642.7,-392.48 673.4,-387.89 921.38,-350.79 988.31,-388.18 1236.4,-351.89 1262.35,-348.1 1291.41,-341.14 1312.03,-335.73"/>
<polygon fill="red" stroke="red" stroke-width="0.5" points="1312.95,-339.11 1321.71,-333.15 1311.14,-332.35 1312.95,-339.11"/>
</g>
<!-- &#45;20&#45;&gt;52 -->
<g id="edge151" class="edge">
<title>&#45;20&#45;&gt;52</title>
<path fill="none" stroke="red" stroke-width="0.5" d="M588.19,-407.48C607.59,-402.16 642.79,-393.05 673.4,-387.89 830.66,-361.41 872.01,-370.38 1030.4,-351.89 1083.74,-345.66 1145.83,-337.14 1181.09,-332.18"/>
<polygon fill="red" stroke="red" stroke-width="0.5" points="1181.72,-335.62 1191.13,-330.76 1180.74,-328.69 1181.72,-335.62"/>
</g>
<!-- 1439 -->
<g id="node38" class="node">
<title>1439</title>
<ellipse fill="white" stroke="black" cx="1382.4" cy="-90.45" rx="25" ry="25"/>
<text text-anchor="middle" x="1382.4" y="-88.25" font-family="Times New Roman,serif" font-size="9.00">1439</text>
</g>
<!-- 1&#45;&gt;1439 -->
<g id="edge197" class="edge">
<title>1&#45;&gt;1439</title>
<path fill="none" stroke="green" stroke-width="0.16" d="M1386.46,-151.2C1385.97,-143.88 1385.33,-134.54 1384.71,-125.43"/>
<polygon fill="green" stroke="green" stroke-width="0.16" points="1388.2,-125.11 1384.03,-115.37 1381.22,-125.58 1388.2,-125.11"/>
</g>
<!-- 2 -->
<g id="node23" class="node">
<title>2</title>
<ellipse fill="lightblue" stroke="black" cx="1382.4" cy="-14.85" rx="14.7" ry="14.7"/>
<text text-anchor="middle" x="1382.4" y="-12.65" font-family="Times New Roman,serif" font-size="9.00">2</text>
</g>
<!-- 3 -->
<g id="node24" class="node">
<title>3</title>
<ellipse fill="lightblue" stroke="black" cx="1207.4" cy="-166.05" rx="14.7" ry="14.7"/>
<text text-anchor="middle" x="1207.4" y="-163.85" font-family="Times New Roman,serif" font-size="9.00">3</text>
</g>
<!-- 4 -->
<g id="node25" class="node">
<title>4</title>
<ellipse fill="lightblue" stroke="black" cx="866.4" cy="-166.05" rx="14.7" ry="14.7"/>
<text text-anchor="middle" x="866.4" y="-163.85" font-family="Times New Roman,serif" font-size="9.00">4</text>
</g>
<!-- 1669&#45;&gt;43 -->
<g id="edge203" class="edge">
<title>1669&#45;&gt;43</title>
<path fill="none" stroke="red" stroke-width="0.16" d="M332.6,-398.22C338.51,-394.6 345.09,-390.86 351.4,-387.89 400.64,-364.67 461.45,-345.66 496,-335.69"/>
<polygon fill="red" stroke="red" stroke-width="0.16" points="497.17,-339 505.83,-332.9 495.26,-332.27 497.17,-339"/>
</g>
<!-- 41&#45;&gt;0 -->
<g id="edge152" class="edge">
<title>41&#45;&gt;0</title>
<path fill="none" stroke="red" stroke-width="0.13" d="M1615.1,-239.62C1511.6,-233.79 998.89,-204.16 842.4,-180.89 829.71,-179.01 815.74,-175.97 804.29,-173.23"/>
<polygon fill="red" stroke="red" stroke-width="0.13" points="805.13,-169.83 794.58,-170.82 803.44,-176.62 805.13,-169.83"/>
</g>
<!-- 41&#45;&gt;1 -->
<g id="edge153" class="edge">
<title>41&#45;&gt;1</title>
<path fill="none" stroke="green" stroke-width="0.2" d="M1615.71,-235.35C1572.3,-222.36 1460.46,-188.9 1411.25,-174.18"/>
<polygon fill="green" stroke="green" stroke-width="0.2" points="1412.06,-170.77 1401.48,-171.26 1410.05,-177.48 1412.06,-170.77"/>
</g>
<!-- 41&#45;&gt;2 -->
<g id="edge154" class="edge">
<title>41&#45;&gt;2</title>
<path fill="none" stroke="green" stroke-width="0.55" d="M1635.88,-223.25C1639.8,-188.33 1643.16,-109.29 1601.4,-65.7 1574.77,-37.9 1458.94,-23.33 1407.35,-18.12"/>
<polygon fill="green" stroke="green" stroke-width="0.55" points="1407.66,-14.63 1397.37,-17.15 1406.98,-21.6 1407.66,-14.63"/>
</g>
<!-- 41&#45;&gt;3 -->
<g id="edge155" class="edge">
<title>41&#45;&gt;3</title>
<path fill="none" stroke="red" stroke-width="0.3" d="M1615.37,-237.53C1547.9,-225.87 1310.23,-184.81 1232.33,-171.35"/>
<polygon fill="red" stroke="red" stroke-width="0.3" points="1232.49,-167.83 1222.04,-169.57 1231.3,-174.72 1232.49,-167.83"/>
</g>
<!-- 41&#45;&gt;4 -->
<g id="edge156" class="edge">
<title>41&#45;&gt;4</title>
<path fill="none" stroke="red" stroke-width="0.2" d="M1615.2,-238.9C1512.9,-229.08 1009.93,-180.82 891.44,-169.45"/>
<polygon fill="red" stroke="red" stroke-width="0.2" points="891.49,-165.94 881.2,-168.46 890.82,-172.9 891.49,-165.94"/>
</g>
<!-- 43&#45;&gt;0 -->
<g id="edge157" class="edge">
<title>43&#45;&gt;0</title>
<path fill="none" stroke="green" stroke-width="0.28" stroke-dasharray="1,5" d="M507.88,-317.27C492.05,-307.24 468.45,-289.27 458.4,-266.39 449.56,-246.25 444.09,-233.6 458.4,-216.89 496.76,-172.14 686.06,-167.22 755.12,-166.93"/>
<polygon fill="green" stroke="green" stroke-width="0.28" points="755.5,-170.43 765.49,-166.92 755.49,-163.43 755.5,-170.43"/>
</g>
<!-- 43&#45;&gt;1 -->
<g id="edge158" class="edge">
<title>43&#45;&gt;1</title>
<path fill="none" stroke="red" stroke-width="0.17" d="M537.26,-314.76C542.72,-310.57 549.17,-305.98 555.4,-302.39 565.83,-296.39 742.72,-219.76 754.4,-216.89 960.89,-166.24 1019.51,-198.29 1231.4,-180.89 1277.5,-177.11 1331.22,-172.24 1362.07,-169.4"/>
<polygon fill="red" stroke="red" stroke-width="0.17" points="1362.71,-172.85 1372.35,-168.45 1362.07,-165.88 1362.71,-172.85"/>
</g>
<!-- 43&#45;&gt;2 -->
<g id="edge159" class="edge">
<title>43&#45;&gt;2</title>
<path fill="none" stroke="green" stroke-width="0.94" d="M506.72,-319.14C487.63,-310.12 457.35,-292.41 444.4,-266.39 434.61,-246.7 438.58,-238.11 444.4,-216.89 467.86,-131.43 493.05,-100.86 574.4,-65.7 647.82,-33.97 1229.44,-19.26 1357.52,-16.38"/>
<polygon fill="green" stroke="green" stroke-width="0.94" points="1357.61,-19.88 1367.53,-16.16 1357.46,-12.88 1357.61,-19.88"/>
</g>
<!-- 43&#45;&gt;3 -->
<g id="edge160" class="edge">
<title>43&#45;&gt;3</title>
<path fill="none" stroke="red" stroke-width="0.48" d="M537.77,-315.11C552.76,-303.43 576.78,-284.25 596.4,-266.39 619.3,-245.56 617.39,-230.06 645.4,-216.89 694.53,-193.8 1079.97,-173.32 1182.45,-168.25"/>
<polygon fill="red" stroke="red" stroke-width="0.48" points="1182.68,-171.74 1192.5,-167.76 1182.34,-164.75 1182.68,-171.74"/>
</g>
<!-- 43&#45;&gt;4 -->
<g id="edge161" class="edge">
<title>43&#45;&gt;4</title>
<path fill="none" stroke="red" stroke-width="0.43" d="M530.88,-310.12C543.17,-285.73 570.03,-239.71 607.4,-216.89 683.38,-170.52 717.18,-198.6 804.4,-180.89 816.85,-178.37 830.65,-175.31 842.07,-172.71"/>
<polygon fill="red" stroke="red" stroke-width="0.43" points="843.19,-176.04 852.16,-170.39 841.63,-169.22 843.19,-176.04"/>
</g>
<!-- 43&#45;&gt;47 -->
<g id="edge194" class="edge">
<title>43&#45;&gt;47</title>
<path fill="none" stroke="green" stroke-width="0.79" d="M536.99,-314.27C542.42,-310.02 548.92,-305.51 555.4,-302.39 590.73,-285.39 701.45,-260.02 753.65,-248.6"/>
<polygon fill="green" stroke="green" stroke-width="0.79" points="754.53,-251.99 763.56,-246.44 753.04,-245.15 754.53,-251.99"/>
</g>
<!-- 44&#45;&gt;0 -->
<g id="edge162" class="edge">
<title>44&#45;&gt;0</title>
<path fill="none" stroke="red" stroke-width="0.36" stroke-dasharray="1,5" d="M746.14,-314.07C741.83,-310.25 736.98,-306.07 732.4,-302.39 711.35,-285.45 695.61,-290.5 683.4,-266.39 673.47,-246.76 671.94,-235.67 683.4,-216.89 699.06,-191.25 732.58,-178.24 755.8,-172.06"/>
<polygon fill="red" stroke="red" stroke-width="0.36" points="756.75,-175.43 765.64,-169.68 755.1,-168.63 756.75,-175.43"/>
</g>
<!-- 44&#45;&gt;1 -->
<g id="edge163" class="edge">
<title>44&#45;&gt;1</title>
<path fill="none" stroke="green" stroke-width="0.3" d="M776.7,-320.26C828.78,-302.73 988.81,-249.94 1124.4,-216.89 1211.14,-195.75 1315.8,-178.27 1362.64,-170.86"/>
<polygon fill="green" stroke="green" stroke-width="0.3" points="1363.41,-174.28 1372.75,-169.28 1362.33,-167.37 1363.41,-174.28"/>
</g>
<!-- 44&#45;&gt;2 -->
<g id="edge164" class="edge">
<title>44&#45;&gt;2</title>
<path fill="none" stroke="green" stroke-width="0.17" d="M747.34,-312.81C743.02,-308.83 737.86,-304.87 732.4,-302.39 676.48,-277.01 498.9,-312.56 458.4,-266.39 443.9,-249.85 445.88,-234.98 458.4,-216.89 567.06,-59.95 674.44,-108.75 860.4,-65.7 1047.65,-22.35 1281.07,-16.6 1357.16,-15.91"/>
<polygon fill="green" stroke="green" stroke-width="0.17" points="1357.25,-19.41 1367.22,-15.84 1357.2,-12.41 1357.25,-19.41"/>
</g>
<!-- 44&#45;&gt;3 -->
<g id="edge165" class="edge">
<title>44&#45;&gt;3</title>
<path fill="none" stroke="red" stroke-width="0.22" d="M752.46,-310.1C743.47,-286.5 731.47,-242.49 754.4,-216.89 783.17,-184.79 1091.19,-171.22 1182.21,-167.9"/>
<polygon fill="red" stroke="red" stroke-width="0.22" points="1182.57,-171.39 1192.44,-167.53 1182.32,-164.39 1182.57,-171.39"/>
</g>
<!-- 44&#45;&gt;4 -->
<g id="edge166" class="edge">
<title>44&#45;&gt;4</title>
<path fill="none" stroke="green" stroke-width="0.41" d="M747.57,-312.92C729.6,-291.19 699.71,-247.3 721.4,-216.89 728.65,-206.75 802.93,-184.76 842.26,-173.69"/>
<polygon fill="green" stroke="green" stroke-width="0.41" points="843.43,-177 852.12,-170.94 841.55,-170.26 843.43,-177"/>
</g>
<!-- 45&#45;&gt;0 -->
<g id="edge167" class="edge">
<title>45&#45;&gt;0</title>
<path fill="none" stroke="green" stroke-width="0.47" d="M986.63,-319.11C963.5,-309.06 921.01,-289.25 888.4,-266.39 853.07,-241.62 817.22,-206.15 797,-184.97"/>
<polygon fill="green" stroke="green" stroke-width="0.47" points="799.46,-182.47 790.05,-177.6 794.37,-187.28 799.46,-182.47"/>
</g>
<!-- 45&#45;&gt;1 -->
<g id="edge168" class="edge">
<title>45&#45;&gt;1</title>
<path fill="none" stroke="green" stroke-width="0.65" stroke-dasharray="1,5" d="M1017.18,-314.63C1022.64,-310.43 1029.1,-305.86 1035.4,-302.39 1050.78,-293.94 1287.33,-204.7 1363.77,-175.93"/>
<polygon fill="green" stroke="green" stroke-width="0.65" points="1365.33,-179.08 1373.46,-172.29 1362.87,-172.53 1365.33,-179.08"/>
</g>
<!-- 45&#45;&gt;2 -->
<g id="edge169" class="edge">
<title>45&#45;&gt;2</title>
<path fill="none" stroke="red" stroke-width="0.5" d="M1011.38,-310.24C1023.28,-287.61 1047.42,-245.65 1076.4,-216.89 1167.94,-126.06 1306.57,-52.94 1360.17,-26.5"/>
<polygon fill="red" stroke="red" stroke-width="0.5" points="1361.7,-29.64 1369.15,-22.11 1358.63,-23.35 1361.7,-29.64"/>
</g>
<!-- 45&#45;&gt;3 -->
<g id="edge170" class="edge">
<title>45&#45;&gt;3</title>
<path fill="none" stroke="green" stroke-width="0.34" d="M1017.43,-315.21C1052.98,-287.47 1146.76,-214.34 1187.75,-182.37"/>
<polygon fill="green" stroke="green" stroke-width="0.34" points="1190.15,-184.94 1195.88,-176.03 1185.84,-179.42 1190.15,-184.94"/>
</g>
<!-- 45&#45;&gt;4 -->
<g id="edge171" class="edge">
<title>45&#45;&gt;4</title>
<path fill="none" stroke="red" stroke-width="0.33" stroke-dasharray="1,5" d="M988.11,-316.5C971.75,-305.69 945.71,-286.95 927.4,-266.39 906.14,-242.51 887.89,-210.27 877.03,-189.08"/>
<polygon fill="red" stroke="red" stroke-width="0.33" points="880.05,-187.3 872.45,-179.93 873.79,-190.43 880.05,-187.3"/>
</g>
<!-- 46&#45;&gt;0 -->
<g id="edge172" class="edge">
<title>46&#45;&gt;0</title>
<path fill="none" stroke="green" stroke-width="0.55" d="M1382,-313.27C1377.45,-309.22 1372.03,-305.1 1366.4,-302.39 1291.72,-266.42 1264.14,-285.17 1183.4,-266.39 1100.92,-247.21 1081.6,-237.3 999.4,-216.89 980.51,-212.2 857.78,-184.49 804.75,-172.53"/>
<polygon fill="green" stroke="green" stroke-width="0.55" points="805.36,-169.08 794.84,-170.3 803.82,-175.91 805.36,-169.08"/>
</g>
<!-- 46&#45;&gt;1 -->
<g id="edge173" class="edge">
<title>46&#45;&gt;1</title>
<path fill="none" stroke="red" stroke-width="0.34" d="M1411.99,-320.7C1434.19,-312.77 1471.4,-295.7 1487.4,-266.39 1497.95,-247.08 1498.98,-235.6 1487.4,-216.89 1471.04,-190.46 1435.97,-177.58 1412.03,-171.65"/>
<polygon fill="red" stroke="red" stroke-width="0.34" points="1412.75,-168.23 1402.23,-169.45 1411.22,-175.06 1412.75,-168.23"/>
</g>
<!-- 46&#45;&gt;2 -->
<g id="edge174" class="edge">
<title>46&#45;&gt;2</title>
<path fill="none" stroke="red" stroke-width="0.94" stroke-dasharray="1,5" d="M1405.46,-312.13C1408.94,-308.5 1413.03,-304.91 1417.4,-302.39 1475.35,-269.09 1522.19,-319 1563.4,-266.39 1618.41,-196.17 1617.46,-136.65 1563.4,-65.7 1544.47,-40.85 1452.4,-25.26 1407.35,-19"/>
<polygon fill="red" stroke="red" stroke-width="0.94" points="1407.6,-15.5 1397.23,-17.64 1406.67,-22.44 1407.6,-15.5"/>
</g>
<!-- 46&#45;&gt;3 -->
<g id="edge175" class="edge">
<title>46&#45;&gt;3</title>
<path fill="none" stroke="red" stroke-width="0.12" d="M1382.51,-312.84C1362.96,-291.37 1322.33,-248.31 1283.4,-216.89 1266.01,-202.86 1244.61,-189.1 1228.95,-179.6"/>
<polygon fill="red" stroke="red" stroke-width="0.12" points="1230.41,-176.4 1220.03,-174.28 1226.82,-182.41 1230.41,-176.4"/>
</g>
<!-- 46&#45;&gt;4 -->
<g id="edge176" class="edge">
<title>46&#45;&gt;4</title>
<path fill="none" stroke="green" stroke-width="0.15" d="M1381.39,-313.64C1376.87,-309.72 1371.63,-305.58 1366.4,-302.39 1330.68,-280.59 1317.37,-284 1279.4,-266.39 1235.85,-246.2 1229.03,-231.81 1183.4,-216.89 1078.38,-182.55 945.82,-171.5 891.42,-168.27"/>
<polygon fill="green" stroke="green" stroke-width="0.15" points="891.51,-164.77 881.33,-167.7 891.12,-171.76 891.51,-164.77"/>
</g>
<!-- 46&#45;&gt;41 -->
<g id="edge199" class="edge">
<title>46&#45;&gt;41</title>
<path fill="none" stroke="green" stroke-width="0.2" d="M1411.56,-319.95C1425.66,-314.94 1446.22,-307.86 1464.4,-302.39 1524.7,-284.27 1544.65,-293.65 1601.4,-266.39 1604.85,-264.74 1608.3,-262.69 1611.59,-260.5"/>
<polygon fill="green" stroke="green" stroke-width="0.2" points="1613.78,-263.23 1619.82,-254.52 1609.67,-257.57 1613.78,-263.23"/>
</g>
<!-- 47&#45;&gt;0 -->
<g id="edge177" class="edge">
<title>47&#45;&gt;0</title>
<path fill="none" stroke="green" stroke-width="0.49" d="M781.17,-223.2C781.04,-213.61 780.87,-201.57 780.73,-191.1"/>
<polygon fill="green" stroke="green" stroke-width="0.49" points="784.23,-190.87 780.59,-180.92 777.23,-190.97 784.23,-190.87"/>
</g>
<!-- 47&#45;&gt;1 -->
<g id="edge178" class="edge">
<title>47&#45;&gt;1</title>
<path fill="none" stroke="red" stroke-width="0.43" d="M799.54,-238.44C886.67,-227.86 1262.15,-182.26 1362.61,-170.06"/>
<polygon fill="red" stroke="red" stroke-width="0.43" points="1363.21,-173.51 1372.72,-168.83 1362.37,-166.56 1363.21,-173.51"/>
</g>
<!-- 47&#45;&gt;2 -->
<g id="edge179" class="edge">
<title>47&#45;&gt;2</title>
<path fill="none" stroke="red" stroke-width="0.2" d="M788.81,-224.66C806.62,-188.37 855.76,-100.19 927.4,-65.7 1004.49,-28.58 1273.82,-18.64 1357.44,-16.41"/>
<polygon fill="red" stroke="red" stroke-width="0.2" points="1357.64,-19.91 1367.55,-16.16 1357.46,-12.91 1357.64,-19.91"/>
</g>
<!-- 47&#45;&gt;3 -->
<g id="edge180" class="edge">
<title>47&#45;&gt;3</title>
<path fill="none" stroke="green" stroke-width="0.26" d="M799.44,-237.53C866.91,-225.87 1104.58,-184.81 1182.48,-171.35"/>
<polygon fill="green" stroke="green" stroke-width="0.26" points="1183.51,-174.72 1192.77,-169.57 1182.32,-167.83 1183.51,-174.72"/>
</g>
<!-- 47&#45;&gt;4 -->
<g id="edge181" class="edge">
<title>47&#45;&gt;4</title>
<path fill="none" stroke="red" stroke-width="0.43" stroke-dasharray="1,5" d="M795.06,-228.82C809.37,-216.43 831.93,-196.89 847.85,-183.11"/>
<polygon fill="red" stroke="red" stroke-width="0.43" points="850.21,-185.69 855.48,-176.5 845.63,-180.4 850.21,-185.69"/>
</g>
<!-- 1710&#45;&gt;41 -->
<g id="edge206" class="edge">
<title>1710&#45;&gt;41</title>
<path fill="none" stroke="red" stroke-width="0.11" d="M1867.18,-405.7C1892.42,-397.98 1931.01,-381.81 1948.4,-351.89 1959.46,-332.87 1962.44,-319.34 1948.4,-302.39 1912.18,-258.65 1733.52,-246.68 1662.55,-243.62"/>
<polygon fill="red" stroke="red" stroke-width="0.11" points="1662.25,-240.11 1652.12,-243.2 1661.97,-247.1 1662.25,-240.11"/>
</g>
<!-- 1710&#45;&gt;46 -->
<g id="edge207" class="edge">
<title>1710&#45;&gt;46</title>
<path fill="none" stroke="green" stroke-width="0.15" d="M1823.54,-397.43C1817.63,-393.8 1810.97,-390.25 1804.4,-387.89 1667.86,-338.69 1491.87,-329.93 1423.43,-328.42"/>
<polygon fill="green" stroke="green" stroke-width="0.15" points="1423.08,-324.92 1413.02,-328.24 1422.96,-331.92 1423.08,-324.92"/>
</g>
<!-- 1522&#45;&gt;4 -->
<g id="edge204" class="edge">
<title>1522&#45;&gt;4</title>
<path fill="none" stroke="green" stroke-width="0.33" d="M515.75,-232.46C530.89,-227.4 551.13,-221.09 569.4,-216.89 672.39,-193.26 700.56,-200.42 804.4,-180.89 816.89,-178.55 830.69,-175.51 842.1,-172.87"/>
<polygon fill="green" stroke="green" stroke-width="0.33" points="843.24,-176.2 852.18,-170.51 841.64,-169.39 843.24,-176.2"/>
</g>
<!-- 51&#45;&gt;0 -->
<g id="edge182" class="edge">
<title>51&#45;&gt;0</title>
<path fill="none" stroke="green" stroke-width="0.17" d="M1322.62,-319.31C1309.02,-314 1289.24,-306.83 1271.4,-302.39 1168.87,-276.86 1137.29,-297.81 1036.4,-266.39 988.29,-251.41 981.15,-235.7 934.4,-216.89 889.39,-198.79 835.05,-182.43 804.44,-173.7"/>
<polygon fill="green" stroke="green" stroke-width="0.17" points="805.23,-170.29 794.65,-170.94 803.33,-177.02 805.23,-170.29"/>
</g>
<!-- 51&#45;&gt;1 -->
<g id="edge183" class="edge">
<title>51&#45;&gt;1</title>
<path fill="none" stroke="green" stroke-width="0.13" d="M1353.04,-314.5C1357.59,-310.63 1362.7,-306.31 1367.4,-302.39 1386.82,-286.22 1400.58,-289.22 1411.4,-266.39 1423.54,-240.78 1411.19,-208.46 1400.19,-187.77"/>
<polygon fill="green" stroke="green" stroke-width="0.13" points="1403.13,-185.87 1395.16,-178.89 1397.04,-189.31 1403.13,-185.87"/>
</g>
<!-- 51&#45;&gt;2 -->
<g id="edge184" class="edge">
<title>51&#45;&gt;2</title>
<path fill="none" stroke="green" stroke-width="0.18" d="M1352.72,-314.08C1357.25,-310.19 1362.43,-305.96 1367.4,-302.39 1392.68,-284.27 1408.8,-291.32 1427.4,-266.39 1450.87,-234.95 1444.48,-219.82 1449.4,-180.89 1455.83,-130.1 1472.39,-111.45 1449.4,-65.7 1440.19,-47.35 1420.67,-34.05 1405.06,-25.82"/>
<polygon fill="green" stroke="green" stroke-width="0.18" points="1406.5,-22.63 1395.98,-21.36 1403.41,-28.91 1406.5,-22.63"/>
</g>
<!-- 51&#45;&gt;3 -->
<g id="edge185" class="edge">
<title>51&#45;&gt;3</title>
<path fill="none" stroke="green" stroke-width="0.13" d="M1328.15,-312.58C1304.57,-284.16 1249.94,-218.31 1223,-185.84"/>
<polygon fill="green" stroke="green" stroke-width="0.13" points="1225.56,-183.45 1216.48,-177.99 1220.18,-187.92 1225.56,-183.45"/>
</g>
<!-- 51&#45;&gt;4 -->
<g id="edge186" class="edge">
<title>51&#45;&gt;4</title>
<path fill="none" stroke="green" stroke-width="0.82" d="M1325.73,-314.43C1320.29,-310.2 1313.81,-305.66 1307.4,-302.39 1260.08,-278.23 1244.01,-282.57 1193.4,-266.39 1125.33,-244.63 1108.77,-237.74 1040.4,-216.89 987.24,-200.69 924.49,-183.08 890.77,-173.74"/>
<polygon fill="green" stroke="green" stroke-width="0.82" points="891.46,-170.3 880.89,-171.02 889.6,-177.05 891.46,-170.3"/>
</g>
<!-- 52&#45;&gt;0 -->
<g id="edge187" class="edge">
<title>52&#45;&gt;0</title>
<path fill="none" stroke="red" stroke-width="0.32" d="M1192.21,-320.07C1177.3,-314.94 1155.1,-307.62 1135.4,-302.39 1060.76,-282.57 1037.93,-292.93 965.4,-266.39 961.11,-264.82 849.87,-204.67 801.99,-178.74"/>
<polygon fill="red" stroke="red" stroke-width="0.32" points="803.51,-175.58 793.05,-173.9 800.18,-181.74 803.51,-175.58"/>
</g>
<!-- 52&#45;&gt;1 -->
<g id="edge188" class="edge">
<title>52&#45;&gt;1</title>
<path fill="none" stroke="red" stroke-width="1.26" d="M1222.78,-314.18C1254.22,-286.08 1332.85,-215.8 1368.86,-183.62"/>
<polygon fill="red" stroke="red" stroke-width="1.26" points="1371.53,-185.92 1376.66,-176.65 1366.87,-180.7 1371.53,-185.92"/>
</g>
<!-- 52&#45;&gt;2 -->
<g id="edge189" class="edge">
<title>52&#45;&gt;2</title>
<path fill="none" stroke="red" stroke-width="0.13" d="M1220.74,-312.57C1224.22,-308.95 1228.24,-305.25 1232.4,-302.39 1266.24,-279.19 1282.85,-288.51 1317.4,-266.39 1364.97,-235.95 1386.62,-231.64 1411.4,-180.89 1433.9,-134.85 1431.51,-114.67 1416.4,-65.7 1412.85,-54.17 1405.61,-42.92 1398.72,-34.04"/>
<polygon fill="red" stroke="red" stroke-width="0.13" points="1401.41,-31.81 1392.35,-26.31 1396.01,-36.26 1401.41,-31.81"/>
</g>
<!-- 52&#45;&gt;3 -->
<g id="edge190" class="edge">
<title>52&#45;&gt;3</title>
<path fill="none" stroke="red" stroke-width="0.11" d="M1209.18,-308.51C1208.82,-279.99 1208.12,-223.7 1207.71,-191.39"/>
<polygon fill="red" stroke="red" stroke-width="0.11" points="1211.21,-191 1207.58,-181.04 1204.21,-191.09 1211.21,-191"/>
</g>
<!-- 52&#45;&gt;4 -->
<g id="edge191" class="edge">
<title>52&#45;&gt;4</title>
<path fill="none" stroke="green" stroke-width="0.66" d="M1195.65,-314.58C1190.2,-310.37 1183.73,-305.81 1177.4,-302.39 1136.58,-280.34 1122.25,-284.21 1079.4,-266.39 1008.85,-237.04 927.54,-197.47 888.97,-178.34"/>
<polygon fill="green" stroke="green" stroke-width="0.66" points="890.2,-175.04 879.69,-173.72 887.08,-181.31 890.2,-175.04"/>
</g>
<!-- 1439&#45;&gt;2 -->
<g id="edge196" class="edge">
<title>1439&#45;&gt;2</title>
<path fill="none" stroke="green" stroke-width="0.5" d="M1382.4,-65.35C1382.4,-57.19 1382.4,-48.07 1382.4,-39.92"/>
<polygon fill="green" stroke="green" stroke-width="0.5" points="1385.9,-39.9 1382.4,-29.9 1378.9,-39.9 1385.9,-39.9"/>
</g>
</g>
</svg>
