<?xml version="1.0" encoding="UTF-8" standalone="no"?>
<!DOCTYPE svg PUBLIC "-//W3C//DTD SVG 1.1//EN"
 "http://www.w3.org/Graphics/SVG/1.1/DTD/svg11.dtd">
<!-- Generated by graphviz version 2.43.0 (0)
 -->
<!-- Title: %3 Pages: 1 -->
<svg width="1091pt" height="180pt"
 viewBox="0.00 0.00 1091.14 180.02" xmlns="http://www.w3.org/2000/svg" xmlns:xlink="http://www.w3.org/1999/xlink">
<g id="graph0" class="graph" transform="scale(1 1) rotate(0) translate(4 176.02)">
<title>%3</title>
<polygon fill="white" stroke="transparent" points="-4,4 -4,-176.02 1087.14,-176.02 1087.14,4 -4,4"/>
<!-- &#45;1 -->
<g id="node1" class="node">
<title>&#45;1</title>
<polygon fill="lightgray" stroke="black" points="343.1,-102.28 317.1,-102.28 317.1,-84.28 343.1,-84.28 343.1,-102.28"/>
<text text-anchor="middle" x="330.1" y="-91.08" font-family="Times,serif" font-size="9.00">&#45;1</text>
</g>
<!-- 0 -->
<g id="node21" class="node">
<title>0</title>
<ellipse fill="lightblue" stroke="black" cx="455.1" cy="-16.26" rx="16.03" ry="16.03"/>
<text text-anchor="middle" x="455.1" y="-14.06" font-family="Times,serif" font-size="9.00">0</text>
</g>
<!-- &#45;1&#45;&gt;0 -->
<g id="edge1" class="edge">
<title>&#45;1&#45;&gt;0</title>
<path fill="none" stroke="red" stroke-width="0.2" d="M336.37,-84.04C340.44,-79.08 346.11,-72.9 352.1,-68.53 382.61,-46.26 395.66,-50.11 429.1,-32.53 430.25,-31.92 431.41,-31.29 432.59,-30.65"/>
<polygon fill="red" stroke="red" stroke-width="0.2" points="434.52,-33.58 441.47,-25.59 431.05,-27.5 434.52,-33.58"/>
</g>
<!-- 1 -->
<g id="node22" class="node">
<title>1</title>
<ellipse fill="lightblue" stroke="black" cx="608.1" cy="-16.26" rx="16.03" ry="16.03"/>
<text text-anchor="middle" x="608.1" y="-14.06" font-family="Times,serif" font-size="9.00">1</text>
</g>
<!-- &#45;1&#45;&gt;1 -->
<g id="edge28" class="edge">
<title>&#45;1&#45;&gt;1</title>
<path fill="none" stroke="green" stroke-width="0.29" d="M335.62,-83.88C339.56,-78.6 345.35,-72.12 352.1,-68.53 443.42,-19.88 484.66,-67.33 582.1,-32.53 583.35,-32.08 584.6,-31.57 585.85,-31.02"/>
<polygon fill="green" stroke="green" stroke-width="0.29" points="587.84,-33.93 595.08,-26.2 584.59,-27.73 587.84,-33.93"/>
</g>
<!-- 2 -->
<g id="node23" class="node">
<title>2</title>
<ellipse fill="lightblue" stroke="black" cx="404.1" cy="-16.26" rx="16.03" ry="16.03"/>
<text text-anchor="middle" x="404.1" y="-14.06" font-family="Times,serif" font-size="9.00">2</text>
</g>
<!-- &#45;1&#45;&gt;2 -->
<g id="edge37" class="edge">
<title>&#45;1&#45;&gt;2</title>
<path fill="none" stroke="red" stroke-width="0.4" d="M337.34,-84.28C341.59,-79.63 347.09,-73.69 352.1,-68.53 362.96,-57.32 375.4,-45.04 385.39,-35.31"/>
<polygon fill="red" stroke="red" stroke-width="0.4" points="388.06,-37.6 392.79,-28.12 383.18,-32.57 388.06,-37.6"/>
</g>
<!-- 3 -->
<g id="node24" class="node">
<title>3</title>
<ellipse fill="lightblue" stroke="black" cx="506.1" cy="-16.26" rx="16.03" ry="16.03"/>
<text text-anchor="middle" x="506.1" y="-14.06" font-family="Times,serif" font-size="9.00">3</text>
</g>
<!-- &#45;1&#45;&gt;3 -->
<g id="edge71" class="edge">
<title>&#45;1&#45;&gt;3</title>
<path fill="none" stroke="green" stroke-width="0.47" d="M335.77,-84.14C339.78,-78.97 345.58,-72.51 352.1,-68.53 402.51,-37.69 425.73,-55.68 480.1,-32.53 481.32,-32.01 482.55,-31.44 483.78,-30.84"/>
<polygon fill="green" stroke="green" stroke-width="0.47" points="485.83,-33.71 492.95,-25.87 482.49,-27.56 485.83,-33.71"/>
</g>
<!-- 4 -->
<g id="node25" class="node">
<title>4</title>
<ellipse fill="lightblue" stroke="black" cx="557.1" cy="-16.26" rx="16.03" ry="16.03"/>
<text text-anchor="middle" x="557.1" y="-14.06" font-family="Times,serif" font-size="9.00">4</text>
</g>
<!-- &#45;1&#45;&gt;4 -->
<g id="edge21" class="edge">
<title>&#45;1&#45;&gt;4</title>
<path fill="none" stroke="green" stroke-width="0.3" d="M335.67,-83.98C339.64,-78.73 345.43,-72.27 352.1,-68.53 422.88,-28.84 455.29,-61.47 531.1,-32.53 532.34,-32.05 533.58,-31.53 534.83,-30.96"/>
<polygon fill="green" stroke="green" stroke-width="0.3" points="536.84,-33.85 544.03,-26.07 533.56,-27.67 536.84,-33.85"/>
</g>
<!-- &#45;2 -->
<g id="node2" class="node">
<title>&#45;2</title>
<polygon fill="lightgray" stroke="black" points="387.1,-102.28 361.1,-102.28 361.1,-84.28 387.1,-84.28 387.1,-102.28"/>
<text text-anchor="middle" x="374.1" y="-91.08" font-family="Times,serif" font-size="9.00">&#45;2</text>
</g>
<!-- &#45;2&#45;&gt;0 -->
<g id="edge8" class="edge">
<title>&#45;2&#45;&gt;0</title>
<path fill="none" stroke="red" stroke-width="0.46" d="M381.22,-84.16C385.43,-79.47 390.93,-73.53 396.1,-68.53 408.49,-56.52 423.13,-43.8 434.72,-34.03"/>
<polygon fill="red" stroke="red" stroke-width="0.46" points="437.12,-36.59 442.55,-27.49 432.63,-31.21 437.12,-36.59"/>
</g>
<!-- &#45;2&#45;&gt;1 -->
<g id="edge86" class="edge">
<title>&#45;2&#45;&gt;1</title>
<path fill="none" stroke="green" stroke-width="0.37" stroke-dasharray="1,5" d="M379.66,-83.96C383.63,-78.71 389.42,-72.24 396.1,-68.53 469.69,-27.61 503.33,-62.27 582.1,-32.53 583.34,-32.06 584.59,-31.53 585.83,-30.97"/>
<polygon fill="green" stroke="green" stroke-width="0.37" points="587.84,-33.87 595.04,-26.09 584.56,-27.68 587.84,-33.87"/>
</g>
<!-- &#45;2&#45;&gt;2 -->
<g id="edge36" class="edge">
<title>&#45;2&#45;&gt;2</title>
<path fill="none" stroke="green" stroke-width="0.4" d="M377.31,-84.25C381.39,-74.05 388.6,-56.01 394.52,-41.21"/>
<polygon fill="green" stroke="green" stroke-width="0.4" points="397.89,-42.21 398.35,-31.63 391.39,-39.61 397.89,-42.21"/>
</g>
<!-- &#45;2&#45;&gt;3 -->
<g id="edge19" class="edge">
<title>&#45;2&#45;&gt;3</title>
<path fill="none" stroke="green" stroke-width="0.22" d="M380.32,-83.97C384.38,-78.98 390.04,-72.8 396.1,-68.53 429.29,-45.12 443.85,-50.84 480.1,-32.53 481.25,-31.94 482.43,-31.33 483.61,-30.7"/>
<polygon fill="green" stroke="green" stroke-width="0.22" points="485.53,-33.63 492.51,-25.67 482.09,-27.54 485.53,-33.63"/>
</g>
<!-- &#45;2&#45;&gt;4 -->
<g id="edge40" class="edge">
<title>&#45;2&#45;&gt;4</title>
<path fill="none" stroke="green" stroke-width="0.15" d="M379.75,-84.11C383.75,-78.93 389.55,-72.47 396.1,-68.53 449.29,-36.49 473.8,-56.46 531.1,-32.53 532.32,-32.02 533.56,-31.46 534.79,-30.86"/>
<polygon fill="green" stroke="green" stroke-width="0.15" points="536.83,-33.74 543.96,-25.9 533.5,-27.58 536.83,-33.74"/>
</g>
<!-- &#45;3 -->
<g id="node3" class="node">
<title>&#45;3</title>
<polygon fill="lightgray" stroke="black" points="431.1,-102.28 405.1,-102.28 405.1,-84.28 431.1,-84.28 431.1,-102.28"/>
<text text-anchor="middle" x="418.1" y="-91.08" font-family="Times,serif" font-size="9.00">&#45;3</text>
</g>
<!-- &#45;3&#45;&gt;0 -->
<g id="edge44" class="edge">
<title>&#45;3&#45;&gt;0</title>
<path fill="none" stroke="green" stroke-width="0.14" stroke-dasharray="1,5" d="M422.06,-84.25C427.2,-73.83 436.38,-55.22 443.76,-40.25"/>
<polygon fill="green" stroke="green" stroke-width="0.14" points="447.01,-41.58 448.29,-31.07 440.73,-38.49 447.01,-41.58"/>
</g>
<!-- &#45;3&#45;&gt;1 -->
<g id="edge13" class="edge">
<title>&#45;3&#45;&gt;1</title>
<path fill="none" stroke="green" stroke-width="0.19" d="M423.74,-84.09C427.73,-78.89 433.53,-72.43 440.1,-68.53 496.08,-35.28 521.87,-57.25 582.1,-32.53 583.32,-32.02 584.56,-31.47 585.8,-30.88"/>
<polygon fill="green" stroke="green" stroke-width="0.19" points="587.83,-33.76 594.98,-25.94 584.51,-27.6 587.83,-33.76"/>
</g>
<!-- &#45;3&#45;&gt;2 -->
<g id="edge81" class="edge">
<title>&#45;3&#45;&gt;2</title>
<path fill="none" stroke="red" stroke-width="0.33" stroke-dasharray="1,5" d="M416.6,-84.25C414.75,-74.33 411.51,-56.99 408.8,-42.44"/>
<polygon fill="red" stroke="red" stroke-width="0.33" points="412.21,-41.67 406.94,-32.48 405.33,-42.96 412.21,-41.67"/>
</g>
<!-- &#45;3&#45;&gt;3 -->
<g id="edge51" class="edge">
<title>&#45;3&#45;&gt;3</title>
<path fill="none" stroke="red" stroke-width="0.15" d="M425.12,-84.05C429.3,-79.33 434.8,-73.39 440.1,-68.53 454.4,-55.42 471.77,-42.02 485.09,-32.21"/>
<polygon fill="red" stroke="red" stroke-width="0.15" points="487.17,-35.03 493.2,-26.32 483.05,-29.37 487.17,-35.03"/>
</g>
<!-- &#45;3&#45;&gt;4 -->
<g id="edge22" class="edge">
<title>&#45;3&#45;&gt;4</title>
<path fill="none" stroke="red" stroke-width="0.42" d="M424.27,-83.91C428.32,-78.9 433.98,-72.72 440.1,-68.53 475.99,-43.96 492.01,-51.59 531.1,-32.53 532.26,-31.96 533.45,-31.36 534.63,-30.74"/>
<polygon fill="red" stroke="red" stroke-width="0.42" points="536.53,-33.68 543.55,-25.75 533.12,-27.57 536.53,-33.68"/>
</g>
<!-- &#45;4 -->
<g id="node4" class="node">
<title>&#45;4</title>
<polygon fill="lightgray" stroke="black" points="475.1,-102.28 449.1,-102.28 449.1,-84.28 475.1,-84.28 475.1,-102.28"/>
<text text-anchor="middle" x="462.1" y="-91.08" font-family="Times,serif" font-size="9.00">&#45;4</text>
</g>
<!-- &#45;4&#45;&gt;0 -->
<g id="edge89" class="edge">
<title>&#45;4&#45;&gt;0</title>
<path fill="none" stroke="red" stroke-width="1.12" d="M461.35,-84.25C460.42,-74.33 458.81,-56.99 457.45,-42.44"/>
<polygon fill="red" stroke="red" stroke-width="1.12" points="460.93,-42.11 456.52,-32.48 453.96,-42.76 460.93,-42.11"/>
</g>
<!-- &#45;4&#45;&gt;1 -->
<g id="edge20" class="edge">
<title>&#45;4&#45;&gt;1</title>
<path fill="none" stroke="red" stroke-width="0.24" d="M468.24,-83.85C472.27,-78.83 477.92,-72.64 484.1,-68.53 522.71,-42.79 540.15,-52.35 582.1,-32.53 583.27,-31.97 584.46,-31.38 585.65,-30.77"/>
<polygon fill="red" stroke="red" stroke-width="0.24" points="587.54,-33.73 594.58,-25.81 584.14,-27.6 587.54,-33.73"/>
</g>
<!-- &#45;4&#45;&gt;2 -->
<g id="edge50" class="edge">
<title>&#45;4&#45;&gt;2</title>
<path fill="none" stroke="green" stroke-width="0.75" d="M455.89,-84.25C447.36,-73.21 431.72,-52.99 419.85,-37.63"/>
<polygon fill="green" stroke="green" stroke-width="0.75" points="422.6,-35.47 413.71,-29.7 417.06,-39.75 422.6,-35.47"/>
</g>
<!-- &#45;4&#45;&gt;3 -->
<g id="edge80" class="edge">
<title>&#45;4&#45;&gt;3</title>
<path fill="none" stroke="red" stroke-width="0.17" d="M466.81,-84.25C473.01,-73.67 484.18,-54.64 493.02,-39.56"/>
<polygon fill="red" stroke="red" stroke-width="0.17" points="496.12,-41.18 498.17,-30.79 490.09,-37.64 496.12,-41.18"/>
</g>
<!-- &#45;4&#45;&gt;4 -->
<g id="edge70" class="edge">
<title>&#45;4&#45;&gt;4</title>
<path fill="none" stroke="green" stroke-width="0.11" d="M469.03,-83.95C473.18,-79.2 478.68,-73.26 484.1,-68.53 500.13,-54.52 520,-40.78 534.95,-31.05"/>
<polygon fill="green" stroke="green" stroke-width="0.11" points="537.02,-33.88 543.55,-25.55 533.24,-27.99 537.02,-33.88"/>
</g>
<!-- &#45;5 -->
<g id="node5" class="node">
<title>&#45;5</title>
<polygon fill="lightgray" stroke="black" points="650.1,-172.02 624.1,-172.02 624.1,-154.02 650.1,-154.02 650.1,-172.02"/>
<text text-anchor="middle" x="637.1" y="-160.82" font-family="Times,serif" font-size="9.00">&#45;5</text>
</g>
<!-- &#45;5&#45;&gt;0 -->
<g id="edge35" class="edge">
<title>&#45;5&#45;&gt;0</title>
<path fill="none" stroke="green" stroke-width="0.32" d="M623.94,-162.12C538.81,-162.62 68.26,-163.33 26.1,-118.02 11.11,-101.92 11.25,-84.76 26.1,-68.53 86.78,-2.18 343.47,-59.95 429.1,-32.53 430.36,-32.12 431.63,-31.65 432.88,-31.12"/>
<polygon fill="green" stroke="green" stroke-width="0.32" points="434.84,-34.06 442.14,-26.38 431.64,-27.83 434.84,-34.06"/>
</g>
<!-- &#45;5&#45;&gt;1 -->
<g id="edge10" class="edge">
<title>&#45;5&#45;&gt;1</title>
<path fill="none" stroke="green" stroke-width="0.42" stroke-dasharray="1,5" d="M650.53,-161.71C720.7,-159.95 1043.08,-150.12 1072.1,-118.02 1086.85,-101.7 1086.78,-84.91 1072.1,-68.53 1042.71,-35.72 728.63,-21.66 634.57,-18.17"/>
<polygon fill="green" stroke="green" stroke-width="0.42" points="634.58,-14.67 624.46,-17.81 634.33,-21.66 634.58,-14.67"/>
</g>
<!-- &#45;5&#45;&gt;2 -->
<g id="edge96" class="edge">
<title>&#45;5&#45;&gt;2</title>
<path fill="none" stroke="red" stroke-width="0.13" d="M623.9,-162.15C537.44,-162.81 54.37,-164.45 11.1,-118.02 -3.9,-101.93 -3.42,-85.06 11.1,-68.53 35.4,-40.85 293.97,-23.61 377.93,-18.71"/>
<polygon fill="red" stroke="red" stroke-width="0.13" points="378.15,-22.2 387.93,-18.14 377.75,-15.21 378.15,-22.2"/>
</g>
<!-- &#45;5&#45;&gt;3 -->
<g id="edge68" class="edge">
<title>&#45;5&#45;&gt;3</title>
<path fill="none" stroke="green" stroke-width="0.48" d="M623.84,-162.44C567.68,-163.89 350.32,-166.27 308.1,-118.02 293.61,-101.47 294.23,-85.6 308.1,-68.53 357.34,-7.91 407.24,-60.67 480.1,-32.53 481.33,-32.05 482.58,-31.52 483.82,-30.95"/>
<polygon fill="green" stroke="green" stroke-width="0.48" points="485.84,-33.84 493.02,-26.05 482.55,-27.66 485.84,-33.84"/>
</g>
<!-- &#45;5&#45;&gt;4 -->
<g id="edge59" class="edge">
<title>&#45;5&#45;&gt;4</title>
<path fill="none" stroke="red" stroke-width="0.1" d="M650.36,-162.44C706.52,-163.89 923.88,-166.27 966.1,-118.02 980.59,-101.47 980.91,-84.79 966.1,-68.53 908.55,-5.31 664.45,-58.79 583.1,-32.53 581.84,-32.12 580.57,-31.64 579.31,-31.12"/>
<polygon fill="red" stroke="red" stroke-width="0.1" points="580.56,-27.82 570.06,-26.37 577.36,-34.05 580.56,-27.82"/>
</g>
<!-- 278 -->
<g id="node26" class="node">
<title>278</title>
<ellipse fill="white" stroke="black" cx="1038.1" cy="-93.28" rx="25" ry="25"/>
<text text-anchor="middle" x="1038.1" y="-91.08" font-family="Times,serif" font-size="9.00">278</text>
</g>
<!-- &#45;5&#45;&gt;278 -->
<g id="edge62" class="edge">
<title>&#45;5&#45;&gt;278</title>
<path fill="none" stroke="green" stroke-width="0.34" d="M650.37,-162.4C698.66,-163.36 869.01,-163.16 999.1,-118.02 1002.6,-116.81 1006.12,-115.25 1009.54,-113.5"/>
<polygon fill="green" stroke="green" stroke-width="0.34" points="1011.28,-116.54 1018.27,-108.58 1007.84,-110.44 1011.28,-116.54"/>
</g>
<!-- &#45;6 -->
<g id="node6" class="node">
<title>&#45;6</title>
<polygon fill="lightgray" stroke="black" points="857.1,-102.28 831.1,-102.28 831.1,-84.28 857.1,-84.28 857.1,-102.28"/>
<text text-anchor="middle" x="844.1" y="-91.08" font-family="Times,serif" font-size="9.00">&#45;6</text>
</g>
<!-- &#45;6&#45;&gt;1 -->
<g id="edge12" class="edge">
<title>&#45;6&#45;&gt;1</title>
<path fill="none" stroke="green" stroke-width="0.14" d="M838.48,-84.06C834.49,-78.85 828.7,-72.39 822.1,-68.53 761.13,-32.85 676.59,-21.97 634.34,-18.67"/>
<polygon fill="green" stroke="green" stroke-width="0.14" points="634.53,-15.18 624.31,-17.98 634.04,-22.16 634.53,-15.18"/>
</g>
<!-- &#45;6&#45;&gt;2 -->
<g id="edge18" class="edge">
<title>&#45;6&#45;&gt;2</title>
<path fill="none" stroke="red" stroke-width="0.58" d="M838.99,-84.21C835.08,-78.78 829.16,-72 822.1,-68.53 665.14,8.77 596.65,-86.1 430.1,-32.53 428.84,-32.12 427.57,-31.65 426.31,-31.12"/>
<polygon fill="red" stroke="red" stroke-width="0.58" points="427.56,-27.82 417.06,-26.37 424.36,-34.05 427.56,-27.82"/>
</g>
<!-- &#45;6&#45;&gt;3 -->
<g id="edge48" class="edge">
<title>&#45;6&#45;&gt;3</title>
<path fill="none" stroke="red" stroke-width="0.32" d="M838.61,-83.81C834.68,-78.5 828.9,-72.01 822.1,-68.53 706.51,-9.3 655.09,-74.27 532.1,-32.53 530.84,-32.1 529.58,-31.61 528.33,-31.07"/>
<polygon fill="red" stroke="red" stroke-width="0.32" points="529.58,-27.78 519.09,-26.28 526.36,-33.99 529.58,-27.78"/>
</g>
<!-- &#45;6&#45;&gt;4 -->
<g id="edge60" class="edge">
<title>&#45;6&#45;&gt;4</title>
<path fill="none" stroke="red" stroke-width="0.14" d="M838.58,-83.87C834.64,-78.58 828.86,-72.1 822.1,-68.53 727.14,-18.3 684.36,-68.37 583.1,-32.53 581.85,-32.08 580.59,-31.58 579.34,-31.03"/>
<polygon fill="red" stroke="red" stroke-width="0.14" points="580.6,-27.74 570.12,-26.21 577.36,-33.94 580.6,-27.74"/>
</g>
<!-- &#45;7 -->
<g id="node7" class="node">
<title>&#45;7</title>
<polygon fill="lightgray" stroke="black" points="519.1,-102.28 493.1,-102.28 493.1,-84.28 519.1,-84.28 519.1,-102.28"/>
<text text-anchor="middle" x="506.1" y="-91.08" font-family="Times,serif" font-size="9.00">&#45;7</text>
</g>
<!-- &#45;7&#45;&gt;0 -->
<g id="edge27" class="edge">
<title>&#45;7&#45;&gt;0</title>
<path fill="none" stroke="green" stroke-width="0.11" d="M500.64,-84.25C493.29,-73.44 479.95,-53.82 469.6,-38.59"/>
<polygon fill="green" stroke="green" stroke-width="0.11" points="472.44,-36.54 463.92,-30.24 466.65,-40.48 472.44,-36.54"/>
</g>
<!-- &#45;7&#45;&gt;1 -->
<g id="edge95" class="edge">
<title>&#45;7&#45;&gt;1</title>
<path fill="none" stroke="red" stroke-width="0.59" d="M512.96,-83.86C517.08,-79.08 522.58,-73.14 528.1,-68.53 538.03,-60.22 565.85,-42.83 585.9,-30.61"/>
<polygon fill="red" stroke="red" stroke-width="0.59" points="587.73,-33.6 594.47,-25.42 584.1,-27.61 587.73,-33.6"/>
</g>
<!-- &#45;7&#45;&gt;2 -->
<g id="edge66" class="edge">
<title>&#45;7&#45;&gt;2</title>
<path fill="none" stroke="green" stroke-width="0.12" d="M499.24,-83.86C495.12,-79.08 489.62,-73.14 484.1,-68.53 474.17,-60.22 446.34,-42.83 426.3,-30.61"/>
<polygon fill="green" stroke="green" stroke-width="0.12" points="428.09,-27.61 417.73,-25.42 424.46,-33.6 428.09,-27.61"/>
</g>
<!-- &#45;7&#45;&gt;3 -->
<g id="edge33" class="edge">
<title>&#45;7&#45;&gt;3</title>
<path fill="none" stroke="red" stroke-width="0.26" d="M506.1,-84.25C506.1,-74.49 506.1,-57.54 506.1,-43.13"/>
<polygon fill="red" stroke="red" stroke-width="0.26" points="509.6,-42.77 506.1,-32.77 502.6,-42.77 509.6,-42.77"/>
</g>
<!-- &#45;7&#45;&gt;4 -->
<g id="edge46" class="edge">
<title>&#45;7&#45;&gt;4</title>
<path fill="none" stroke="green" stroke-width="0.2" d="M511.56,-84.25C518.9,-73.44 532.24,-53.82 542.6,-38.59"/>
<polygon fill="green" stroke="green" stroke-width="0.2" points="545.55,-40.48 548.28,-30.24 539.76,-36.54 545.55,-40.48"/>
</g>
<!-- &#45;8 -->
<g id="node8" class="node">
<title>&#45;8</title>
<polygon fill="lightgray" stroke="black" points="563.1,-102.28 537.1,-102.28 537.1,-84.28 563.1,-84.28 563.1,-102.28"/>
<text text-anchor="middle" x="550.1" y="-91.08" font-family="Times,serif" font-size="9.00">&#45;8</text>
</g>
<!-- &#45;8&#45;&gt;0 -->
<g id="edge76" class="edge">
<title>&#45;8&#45;&gt;0</title>
<path fill="none" stroke="red" stroke-width="0.73" d="M543.16,-83.95C539.02,-79.2 533.52,-73.26 528.1,-68.53 512.06,-54.52 492.2,-40.78 477.24,-31.05"/>
<polygon fill="red" stroke="red" stroke-width="0.73" points="478.95,-27.99 468.64,-25.55 475.18,-33.88 478.95,-27.99"/>
</g>
<!-- &#45;8&#45;&gt;1 -->
<g id="edge6" class="edge">
<title>&#45;8&#45;&gt;1</title>
<path fill="none" stroke="red" stroke-width="0.2" d="M556.31,-84.25C564.84,-73.21 580.48,-52.99 592.35,-37.63"/>
<polygon fill="red" stroke="red" stroke-width="0.2" points="595.14,-39.75 598.48,-29.7 589.6,-35.47 595.14,-39.75"/>
</g>
<!-- &#45;8&#45;&gt;2 -->
<g id="edge32" class="edge">
<title>&#45;8&#45;&gt;2</title>
<path fill="none" stroke="red" stroke-width="0.14" d="M543.96,-83.85C539.93,-78.83 534.27,-72.64 528.1,-68.53 489.49,-42.79 472.05,-52.35 430.1,-32.53 428.93,-31.97 427.74,-31.38 426.55,-30.77"/>
<polygon fill="red" stroke="red" stroke-width="0.14" points="428.06,-27.6 417.61,-25.81 424.66,-33.73 428.06,-27.6"/>
</g>
<!-- &#45;8&#45;&gt;3 -->
<g id="edge65" class="edge">
<title>&#45;8&#45;&gt;3</title>
<path fill="none" stroke="green" stroke-width="0.15" d="M545.39,-84.25C539.18,-73.67 528.02,-54.64 519.17,-39.56"/>
<polygon fill="green" stroke="green" stroke-width="0.15" points="522.11,-37.64 514.03,-30.79 516.07,-41.18 522.11,-37.64"/>
</g>
<!-- &#45;8&#45;&gt;4 -->
<g id="edge94" class="edge">
<title>&#45;8&#45;&gt;4</title>
<path fill="none" stroke="green" stroke-width="0.16" d="M550.85,-84.25C551.77,-74.33 553.39,-56.99 554.75,-42.44"/>
<polygon fill="green" stroke="green" stroke-width="0.16" points="558.23,-42.76 555.68,-32.48 551.26,-42.11 558.23,-42.76"/>
</g>
<!-- &#45;9 -->
<g id="node9" class="node">
<title>&#45;9</title>
<polygon fill="lightgray" stroke="black" points="111.1,-102.28 85.1,-102.28 85.1,-84.28 111.1,-84.28 111.1,-102.28"/>
<text text-anchor="middle" x="98.1" y="-91.08" font-family="Times,serif" font-size="9.00">&#45;9</text>
</g>
<!-- &#45;9&#45;&gt;0 -->
<g id="edge88" class="edge">
<title>&#45;9&#45;&gt;0</title>
<path fill="none" stroke="green" stroke-width="0.5" d="M103.23,-84.26C107.16,-78.86 113.08,-72.09 120.1,-68.53 243.38,-5.94 298,-76.47 429.1,-32.53 430.35,-32.11 431.62,-31.62 432.87,-31.08"/>
<polygon fill="green" stroke="green" stroke-width="0.5" points="434.84,-34.01 442.11,-26.31 431.62,-27.79 434.84,-34.01"/>
</g>
<!-- &#45;9&#45;&gt;2 -->
<g id="edge49" class="edge">
<title>&#45;9&#45;&gt;2</title>
<path fill="none" stroke="green" stroke-width="0.29" d="M103.65,-83.93C107.6,-78.67 113.39,-72.2 120.1,-68.53 205.43,-21.79 324.72,-16.46 377.35,-16.61"/>
<polygon fill="green" stroke="green" stroke-width="0.29" points="377.49,-20.11 387.53,-16.71 377.57,-13.11 377.49,-20.11"/>
</g>
<!-- &#45;9&#45;&gt;3 -->
<g id="edge61" class="edge">
<title>&#45;9&#45;&gt;3</title>
<path fill="none" stroke="green" stroke-width="0.14" d="M103.22,-84.22C107.13,-78.81 113.05,-72.03 120.1,-68.53 264.06,3.09 327.23,-82.38 480.1,-32.53 481.36,-32.12 482.62,-31.64 483.88,-31.11"/>
<polygon fill="green" stroke="green" stroke-width="0.14" points="485.84,-34.04 493.13,-26.35 482.64,-27.81 485.84,-34.04"/>
</g>
<!-- &#45;9&#45;&gt;4 -->
<g id="edge69" class="edge">
<title>&#45;9&#45;&gt;4</title>
<path fill="none" stroke="green" stroke-width="0.37" d="M103.2,-84.2C107.12,-78.77 113.03,-71.99 120.1,-68.53 284.77,12.14 356.42,-88.31 531.1,-32.53 532.36,-32.12 533.63,-31.65 534.89,-31.13"/>
<polygon fill="green" stroke="green" stroke-width="0.37" points="536.84,-34.06 544.14,-26.39 533.64,-27.83 536.84,-34.06"/>
</g>
<!-- &#45;10 -->
<g id="node10" class="node">
<title>&#45;10</title>
<polygon fill="lightgray" stroke="black" points="613.1,-102.28 581.1,-102.28 581.1,-84.28 613.1,-84.28 613.1,-102.28"/>
<text text-anchor="middle" x="597.1" y="-91.08" font-family="Times,serif" font-size="9.00">&#45;10</text>
</g>
<!-- &#45;10&#45;&gt;0 -->
<g id="edge34" class="edge">
<title>&#45;10&#45;&gt;0</title>
<path fill="none" stroke="green" stroke-width="0.35" d="M589.87,-83.95C585.2,-78.96 578.76,-72.78 572.1,-68.53 535.44,-45.12 520.19,-51.59 481.1,-32.53 479.93,-31.96 478.75,-31.36 477.57,-30.74"/>
<polygon fill="green" stroke="green" stroke-width="0.35" points="479.08,-27.57 468.65,-25.75 475.66,-33.68 479.08,-27.57"/>
</g>
<!-- &#45;10&#45;&gt;1 -->
<g id="edge67" class="edge">
<title>&#45;10&#45;&gt;1</title>
<path fill="none" stroke="red" stroke-width="0.11" d="M598.28,-84.25C599.73,-74.33 602.27,-56.99 604.41,-42.44"/>
<polygon fill="red" stroke="red" stroke-width="0.11" points="607.88,-42.88 605.87,-32.48 600.95,-41.87 607.88,-42.88"/>
</g>
<!-- &#45;10&#45;&gt;2 -->
<g id="edge77" class="edge">
<title>&#45;10&#45;&gt;2</title>
<path fill="none" stroke="green" stroke-width="0.66" d="M590.47,-84.1C585.84,-78.92 579.23,-72.46 572.1,-68.53 515.09,-37.08 490.33,-57.25 430.1,-32.53 428.87,-32.02 427.64,-31.47 426.4,-30.88"/>
<polygon fill="green" stroke="green" stroke-width="0.66" points="427.68,-27.6 417.22,-25.94 424.36,-33.76 427.68,-27.6"/>
</g>
<!-- &#45;10&#45;&gt;3 -->
<g id="edge9" class="edge">
<title>&#45;10&#45;&gt;3</title>
<path fill="none" stroke="green" stroke-width="0.11" d="M588.96,-84.15C584.16,-79.46 577.91,-73.52 572.1,-68.53 557.48,-55.96 540.25,-42.62 527.06,-32.71"/>
<polygon fill="green" stroke="green" stroke-width="0.11" points="529.16,-29.9 519.05,-26.73 524.97,-35.51 529.16,-29.9"/>
</g>
<!-- &#45;10&#45;&gt;4 -->
<g id="edge57" class="edge">
<title>&#45;10&#45;&gt;4</title>
<path fill="none" stroke="green" stroke-width="0.21" d="M592.82,-84.25C587.26,-73.83 577.34,-55.22 569.36,-40.25"/>
<polygon fill="green" stroke="green" stroke-width="0.21" points="572.25,-38.24 564.46,-31.07 566.08,-41.54 572.25,-38.24"/>
</g>
<!-- &#45;11 -->
<g id="node11" class="node">
<title>&#45;11</title>
<polygon fill="lightgray" stroke="black" points="663.1,-102.28 631.1,-102.28 631.1,-84.28 663.1,-84.28 663.1,-102.28"/>
<text text-anchor="middle" x="647.1" y="-91.08" font-family="Times,serif" font-size="9.00">&#45;11</text>
</g>
<!-- &#45;11&#45;&gt;0 -->
<g id="edge79" class="edge">
<title>&#45;11&#45;&gt;0</title>
<path fill="none" stroke="red" stroke-width="0.4" d="M640.47,-84.11C635.83,-78.92 629.22,-72.46 622.1,-68.53 565.49,-37.24 540.91,-57.14 481.1,-32.53 479.87,-32.02 478.64,-31.47 477.4,-30.88"/>
<polygon fill="red" stroke="red" stroke-width="0.4" points="478.69,-27.6 468.22,-25.93 475.36,-33.76 478.69,-27.6"/>
</g>
<!-- &#45;11&#45;&gt;1 -->
<g id="edge47" class="edge">
<title>&#45;11&#45;&gt;1</title>
<path fill="none" stroke="green" stroke-width="0.25" d="M642.92,-84.25C637.51,-73.83 627.83,-55.22 620.05,-40.25"/>
<polygon fill="green" stroke="green" stroke-width="0.25" points="622.99,-38.32 615.27,-31.07 616.78,-41.55 622.99,-38.32"/>
</g>
<!-- &#45;11&#45;&gt;2 -->
<g id="edge17" class="edge">
<title>&#45;11&#45;&gt;2</title>
<path fill="none" stroke="green" stroke-width="0.14" d="M640.55,-83.96C635.95,-78.7 629.35,-72.23 622.1,-68.53 544.79,-29.01 511.41,-62.96 430.1,-32.53 428.86,-32.06 427.61,-31.54 426.36,-30.98"/>
<polygon fill="green" stroke="green" stroke-width="0.14" points="427.63,-27.69 417.15,-26.11 424.36,-33.88 427.63,-27.69"/>
</g>
<!-- &#45;11&#45;&gt;3 -->
<g id="edge87" class="edge">
<title>&#45;11&#45;&gt;3</title>
<path fill="none" stroke="red" stroke-width="0.2" d="M639.87,-83.96C635.19,-78.97 628.75,-72.79 622.1,-68.53 585.83,-45.27 570.78,-51.49 532.1,-32.53 530.94,-31.96 529.75,-31.35 528.57,-30.73"/>
<polygon fill="red" stroke="red" stroke-width="0.2" points="530.09,-27.57 519.65,-25.74 526.67,-33.68 530.09,-27.57"/>
</g>
<!-- &#45;11&#45;&gt;4 -->
<g id="edge58" class="edge">
<title>&#45;11&#45;&gt;4</title>
<path fill="none" stroke="green" stroke-width="0.35" stroke-dasharray="1,5" d="M638.94,-84.16C634.14,-79.48 627.89,-73.54 622.1,-68.53 607.8,-56.14 591.02,-42.94 578.09,-33.04"/>
<polygon fill="green" stroke="green" stroke-width="0.35" points="579.91,-30.02 569.84,-26.76 575.68,-35.6 579.91,-30.02"/>
</g>
<!-- &#45;12 -->
<g id="node12" class="node">
<title>&#45;12</title>
<polygon fill="lightgray" stroke="black" points="713.1,-102.28 681.1,-102.28 681.1,-84.28 713.1,-84.28 713.1,-102.28"/>
<text text-anchor="middle" x="697.1" y="-91.08" font-family="Times,serif" font-size="9.00">&#45;12</text>
</g>
<!-- &#45;12&#45;&gt;0 -->
<g id="edge25" class="edge">
<title>&#45;12&#45;&gt;0</title>
<path fill="none" stroke="red" stroke-width="0.39" stroke-dasharray="1,5" d="M690.55,-83.96C685.95,-78.71 679.35,-72.24 672.1,-68.53 595.2,-29.17 561.99,-62.84 481.1,-32.53 479.86,-32.06 478.61,-31.54 477.36,-30.98"/>
<polygon fill="red" stroke="red" stroke-width="0.39" points="478.63,-27.69 468.15,-26.11 475.36,-33.88 478.63,-27.69"/>
</g>
<!-- &#45;12&#45;&gt;1 -->
<g id="edge56" class="edge">
<title>&#45;12&#45;&gt;1</title>
<path fill="none" stroke="red" stroke-width="0.37" d="M688.93,-84.18C684.12,-79.5 677.87,-73.57 672.1,-68.53 657.98,-56.21 641.46,-43 628.74,-33.08"/>
<polygon fill="red" stroke="red" stroke-width="0.37" points="630.67,-30.15 620.62,-26.79 626.38,-35.68 630.67,-30.15"/>
</g>
<!-- &#45;12&#45;&gt;2 -->
<g id="edge85" class="edge">
<title>&#45;12&#45;&gt;2</title>
<path fill="none" stroke="green" stroke-width="0.82" stroke-dasharray="1,5" d="M690.59,-83.87C686.01,-78.57 679.42,-72.1 672.1,-68.53 574.36,-20.87 532.64,-68.71 430.1,-32.53 428.85,-32.09 427.59,-31.58 426.34,-31.03"/>
<polygon fill="green" stroke="green" stroke-width="0.82" points="427.6,-27.74 417.11,-26.22 424.36,-33.95 427.6,-27.74"/>
</g>
<!-- &#45;12&#45;&gt;3 -->
<g id="edge16" class="edge">
<title>&#45;12&#45;&gt;3</title>
<path fill="none" stroke="red" stroke-width="0.26" d="M690.46,-84.11C685.83,-78.93 679.22,-72.47 672.1,-68.53 615.89,-37.4 591.49,-57.03 532.1,-32.53 530.87,-32.02 529.64,-31.47 528.4,-30.88"/>
<polygon fill="red" stroke="red" stroke-width="0.26" points="529.69,-27.59 519.22,-25.93 526.36,-33.76 529.69,-27.59"/>
</g>
<!-- &#45;12&#45;&gt;4 -->
<g id="edge7" class="edge">
<title>&#45;12&#45;&gt;4</title>
<path fill="none" stroke="green" stroke-width="0.3" d="M689.86,-83.97C685.18,-78.99 678.74,-72.8 672.1,-68.53 636.22,-45.43 621.38,-51.38 583.1,-32.53 581.94,-31.95 580.76,-31.35 579.57,-30.73"/>
<polygon fill="green" stroke="green" stroke-width="0.3" points="581.09,-27.56 570.66,-25.73 577.67,-33.67 581.09,-27.56"/>
</g>
<!-- &#45;13 -->
<g id="node13" class="node">
<title>&#45;13</title>
<polygon fill="lightgray" stroke="black" points="763.1,-102.28 731.1,-102.28 731.1,-84.28 763.1,-84.28 763.1,-102.28"/>
<text text-anchor="middle" x="747.1" y="-91.08" font-family="Times,serif" font-size="9.00">&#45;13</text>
</g>
<!-- &#45;13&#45;&gt;0 -->
<g id="edge75" class="edge">
<title>&#45;13&#45;&gt;0</title>
<path fill="none" stroke="green" stroke-width="0.28" d="M740.59,-83.87C736.01,-78.58 729.42,-72.1 722.1,-68.53 624.77,-21.03 583.21,-68.6 481.1,-32.53 479.85,-32.09 478.59,-31.58 477.34,-31.03"/>
<polygon fill="green" stroke="green" stroke-width="0.28" points="478.6,-27.74 468.11,-26.21 475.36,-33.95 478.6,-27.74"/>
</g>
<!-- &#45;13&#45;&gt;1 -->
<g id="edge42" class="edge">
<title>&#45;13&#45;&gt;1</title>
<path fill="none" stroke="red" stroke-width="0.61" d="M739.8,-84.06C735.1,-79.11 728.66,-72.93 722.1,-68.53 693.69,-49.46 657.03,-34.43 633.06,-25.7"/>
<polygon fill="red" stroke="red" stroke-width="0.61" points="633.92,-22.29 623.32,-22.25 631.58,-28.89 633.92,-22.29"/>
</g>
<!-- &#45;13&#45;&gt;2 -->
<g id="edge31" class="edge">
<title>&#45;13&#45;&gt;2</title>
<path fill="none" stroke="green" stroke-width="0.23" d="M741.02,-84.27C736.44,-78.87 729.68,-72.11 722.1,-68.53 603.86,-12.69 553.94,-74.5 430.1,-32.53 428.84,-32.1 427.58,-31.61 426.33,-31.07"/>
<polygon fill="green" stroke="green" stroke-width="0.23" points="427.58,-27.78 417.09,-26.29 424.36,-33.99 427.58,-27.78"/>
</g>
<!-- &#45;13&#45;&gt;3 -->
<g id="edge5" class="edge">
<title>&#45;13&#45;&gt;3</title>
<path fill="none" stroke="green" stroke-width="0.28" d="M740.55,-83.96C735.95,-78.71 729.34,-72.24 722.1,-68.53 645.61,-29.34 612.56,-62.73 532.1,-32.53 530.86,-32.06 529.61,-31.54 528.36,-30.97"/>
<polygon fill="green" stroke="green" stroke-width="0.28" points="529.63,-27.69 519.15,-26.11 526.36,-33.87 529.63,-27.69"/>
</g>
<!-- &#45;13&#45;&gt;4 -->
<g id="edge92" class="edge">
<title>&#45;13&#45;&gt;4</title>
<path fill="none" stroke="green" stroke-width="0.25" d="M740.46,-84.12C735.83,-78.93 729.22,-72.48 722.1,-68.53 666.3,-37.56 642.07,-56.92 583.1,-32.53 581.87,-32.02 580.64,-31.47 579.4,-30.88"/>
<polygon fill="green" stroke="green" stroke-width="0.25" points="580.69,-27.59 570.23,-25.92 577.36,-33.75 580.69,-27.59"/>
</g>
<!-- &#45;14 -->
<g id="node14" class="node">
<title>&#45;14</title>
<polygon fill="lightgray" stroke="black" points="813.1,-102.28 781.1,-102.28 781.1,-84.28 813.1,-84.28 813.1,-102.28"/>
<text text-anchor="middle" x="797.1" y="-91.08" font-family="Times,serif" font-size="9.00">&#45;14</text>
</g>
<!-- &#45;14&#45;&gt;0 -->
<g id="edge15" class="edge">
<title>&#45;14&#45;&gt;0</title>
<path fill="none" stroke="green" stroke-width="0.21" d="M791.02,-84.27C786.44,-78.87 779.68,-72.11 772.1,-68.53 654.27,-12.85 604.51,-74.38 481.1,-32.53 479.84,-32.1 478.58,-31.61 477.33,-31.07"/>
<polygon fill="green" stroke="green" stroke-width="0.21" points="478.58,-27.78 468.09,-26.29 475.36,-33.99 478.58,-27.78"/>
</g>
<!-- &#45;14&#45;&gt;1 -->
<g id="edge45" class="edge">
<title>&#45;14&#45;&gt;1</title>
<path fill="none" stroke="red" stroke-width="0.7" stroke-dasharray="1,5" d="M790.4,-84.23C785.73,-79.1 779.12,-72.65 772.1,-68.53 727.31,-42.2 667.56,-27.97 633.94,-21.56"/>
<polygon fill="red" stroke="red" stroke-width="0.7" points="634.45,-18.1 623.99,-19.75 633.2,-24.98 634.45,-18.1"/>
</g>
<!-- &#45;14&#45;&gt;2 -->
<g id="edge54" class="edge">
<title>&#45;14&#45;&gt;2</title>
<path fill="none" stroke="red" stroke-width="0.35" d="M791.04,-84.23C786.47,-78.81 779.71,-72.04 772.1,-68.53 633.32,-4.49 575.28,-80.29 430.1,-32.53 428.84,-32.11 427.58,-31.63 426.32,-31.1"/>
<polygon fill="red" stroke="red" stroke-width="0.35" points="427.57,-27.8 417.07,-26.34 424.36,-34.03 427.57,-27.8"/>
</g>
<!-- &#45;14&#45;&gt;3 -->
<g id="edge84" class="edge">
<title>&#45;14&#45;&gt;3</title>
<path fill="none" stroke="green" stroke-width="0.26" d="M790.59,-83.87C786.01,-78.58 779.41,-72.1 772.1,-68.53 675.18,-21.19 633.79,-68.48 532.1,-32.53 530.85,-32.09 529.59,-31.58 528.34,-31.03"/>
<polygon fill="green" stroke="green" stroke-width="0.26" points="529.6,-27.74 519.12,-26.21 526.36,-33.94 529.6,-27.74"/>
</g>
<!-- &#45;14&#45;&gt;4 -->
<g id="edge93" class="edge">
<title>&#45;14&#45;&gt;4</title>
<path fill="none" stroke="red" stroke-width="0.49" d="M790.54,-83.96C785.95,-78.71 779.34,-72.24 772.1,-68.53 696.01,-29.5 663.14,-62.61 583.1,-32.53 581.86,-32.06 580.61,-31.54 579.36,-30.97"/>
<polygon fill="red" stroke="red" stroke-width="0.49" points="580.63,-27.68 570.16,-26.1 577.36,-33.87 580.63,-27.68"/>
</g>
<!-- &#45;15 -->
<g id="node15" class="node">
<title>&#45;15</title>
<polygon fill="lightgray" stroke="black" points="161.1,-102.28 129.1,-102.28 129.1,-84.28 161.1,-84.28 161.1,-102.28"/>
<text text-anchor="middle" x="145.1" y="-91.08" font-family="Times,serif" font-size="9.00">&#45;15</text>
</g>
<!-- &#45;15&#45;&gt;0 -->
<g id="edge64" class="edge">
<title>&#45;15&#45;&gt;0</title>
<path fill="none" stroke="red" stroke-width="0.29" d="M151.59,-83.84C156.17,-78.54 162.76,-72.06 170.1,-68.53 274.8,-18.09 319.32,-70.68 429.1,-32.53 430.35,-32.09 431.61,-31.59 432.86,-31.05"/>
<polygon fill="red" stroke="red" stroke-width="0.29" points="434.84,-33.97 442.09,-26.24 431.61,-27.76 434.84,-33.97"/>
</g>
<!-- &#45;15&#45;&gt;1 -->
<g id="edge30" class="edge">
<title>&#45;15&#45;&gt;1</title>
<path fill="none" stroke="green" stroke-width="0.4" d="M151.14,-84.19C155.7,-78.75 162.46,-71.97 170.1,-68.53 337.67,7 407,-88.42 582.1,-32.53 583.36,-32.12 584.63,-31.65 585.89,-31.13"/>
<polygon fill="green" stroke="green" stroke-width="0.4" points="587.84,-34.06 595.14,-26.39 584.64,-27.83 587.84,-34.06"/>
</g>
<!-- &#45;15&#45;&gt;2 -->
<g id="edge3" class="edge">
<title>&#45;15&#45;&gt;2</title>
<path fill="none" stroke="red" stroke-width="0.17" d="M151.69,-84.03C156.3,-78.81 162.91,-72.34 170.1,-68.53 239,-31.98 332.53,-21.47 377.63,-18.46"/>
<polygon fill="red" stroke="red" stroke-width="0.17" points="377.98,-21.95 387.75,-17.86 377.56,-14.96 377.98,-21.95"/>
</g>
<!-- &#45;15&#45;&gt;3 -->
<g id="edge73" class="edge">
<title>&#45;15&#45;&gt;3</title>
<path fill="none" stroke="green" stroke-width="0.57" d="M151.17,-84.25C155.74,-78.85 162.51,-72.08 170.1,-68.53 295.73,-9.74 348.58,-76.58 480.1,-32.53 481.35,-32.11 482.62,-31.62 483.87,-31.08"/>
<polygon fill="green" stroke="green" stroke-width="0.57" points="485.84,-34.01 493.11,-26.31 482.62,-27.79 485.84,-34.01"/>
</g>
<!-- &#45;15&#45;&gt;4 -->
<g id="edge82" class="edge">
<title>&#45;15&#45;&gt;4</title>
<path fill="none" stroke="green" stroke-width="0.28" d="M151.15,-84.22C155.72,-78.79 162.48,-72.02 170.1,-68.53 316.69,-1.37 377.8,-82.5 531.1,-32.53 532.36,-32.12 533.62,-31.64 534.88,-31.11"/>
<polygon fill="green" stroke="green" stroke-width="0.28" points="536.84,-34.04 544.13,-26.35 533.64,-27.81 536.84,-34.04"/>
</g>
<!-- &#45;16 -->
<g id="node16" class="node">
<title>&#45;16</title>
<polygon fill="lightgray" stroke="black" points="211.1,-102.28 179.1,-102.28 179.1,-84.28 211.1,-84.28 211.1,-102.28"/>
<text text-anchor="middle" x="195.1" y="-91.08" font-family="Times,serif" font-size="9.00">&#45;16</text>
</g>
<!-- &#45;16&#45;&gt;0 -->
<g id="edge11" class="edge">
<title>&#45;16&#45;&gt;0</title>
<path fill="none" stroke="red" stroke-width="0.17" d="M201.63,-83.92C206.22,-78.65 212.82,-72.18 220.1,-68.53 304.34,-26.25 340.58,-64.91 429.1,-32.53 430.34,-32.07 431.6,-31.56 432.84,-31"/>
<polygon fill="red" stroke="red" stroke-width="0.17" points="434.84,-33.9 442.06,-26.15 431.58,-27.71 434.84,-33.9"/>
</g>
<!-- &#45;16&#45;&gt;1 -->
<g id="edge38" class="edge">
<title>&#45;16&#45;&gt;1</title>
<path fill="none" stroke="red" stroke-width="0.51" d="M201.15,-84.22C205.72,-78.79 212.48,-72.02 220.1,-68.53 367.1,-1.21 428.37,-82.62 582.1,-32.53 583.36,-32.12 584.62,-31.64 585.88,-31.11"/>
<polygon fill="red" stroke="red" stroke-width="0.51" points="587.84,-34.04 595.13,-26.35 584.64,-27.81 587.84,-34.04"/>
</g>
<!-- &#45;16&#45;&gt;2 -->
<g id="edge72" class="edge">
<title>&#45;16&#45;&gt;2</title>
<path fill="none" stroke="green" stroke-width="0.15" d="M201.76,-84.16C206.4,-78.99 213.02,-72.54 220.1,-68.53 271.56,-39.35 340.65,-25.95 377.81,-20.5"/>
<polygon fill="green" stroke="green" stroke-width="0.15" points="378.41,-23.95 387.83,-19.11 377.45,-17.01 378.41,-23.95"/>
</g>
<!-- &#45;16&#45;&gt;3 -->
<g id="edge2" class="edge">
<title>&#45;16&#45;&gt;3</title>
<path fill="none" stroke="green" stroke-width="0.13" d="M201.59,-83.84C206.17,-78.54 212.76,-72.06 220.1,-68.53 325.21,-17.93 369.9,-70.79 480.1,-32.53 481.35,-32.09 482.61,-31.59 483.86,-31.05"/>
<polygon fill="green" stroke="green" stroke-width="0.13" points="485.84,-33.97 493.09,-26.24 482.61,-27.76 485.84,-33.97"/>
</g>
<!-- &#45;16&#45;&gt;4 -->
<g id="edge29" class="edge">
<title>&#45;16&#45;&gt;4</title>
<path fill="none" stroke="green" stroke-width="0.28" d="M201.17,-84.25C205.74,-78.85 212.51,-72.08 220.1,-68.53 346.14,-9.58 399.15,-76.7 531.1,-32.53 532.35,-32.11 533.62,-31.62 534.87,-31.08"/>
<polygon fill="green" stroke="green" stroke-width="0.28" points="536.84,-34.01 544.11,-26.31 533.62,-27.79 536.84,-34.01"/>
</g>
<!-- &#45;17 -->
<g id="node17" class="node">
<title>&#45;17</title>
<polygon fill="lightgray" stroke="black" points="907.1,-102.28 875.1,-102.28 875.1,-84.28 907.1,-84.28 907.1,-102.28"/>
<text text-anchor="middle" x="891.1" y="-91.08" font-family="Times,serif" font-size="9.00">&#45;17</text>
</g>
<!-- &#45;17&#45;&gt;0 -->
<g id="edge24" class="edge">
<title>&#45;17&#45;&gt;0</title>
<path fill="none" stroke="red" stroke-width="0.15" stroke-dasharray="1,5" d="M885.05,-84.2C880.49,-78.77 873.73,-71.99 866.1,-68.53 709.64,2.57 644.66,-85.29 481.1,-32.53 479.84,-32.12 478.57,-31.64 477.31,-31.12"/>
<polygon fill="red" stroke="red" stroke-width="0.15" points="478.56,-27.82 468.06,-26.37 475.36,-34.05 478.56,-27.82"/>
</g>
<!-- &#45;17&#45;&gt;1 -->
<g id="edge78" class="edge">
<title>&#45;17&#45;&gt;1</title>
<path fill="none" stroke="red" stroke-width="0.37" d="M884.53,-83.98C879.93,-78.74 873.33,-72.27 866.1,-68.53 788.63,-28.4 683.09,-19.61 634.53,-17.74"/>
<polygon fill="red" stroke="red" stroke-width="0.37" points="634.63,-14.24 624.53,-17.42 634.41,-21.24 634.63,-14.24"/>
</g>
<!-- &#45;17&#45;&gt;3 -->
<g id="edge55" class="edge">
<title>&#45;17&#45;&gt;3</title>
<path fill="none" stroke="green" stroke-width="0.49" d="M885.04,-84.23C880.47,-78.82 873.7,-72.05 866.1,-68.53 730.61,-5.8 673.87,-79.37 532.1,-32.53 530.84,-32.11 529.58,-31.63 528.32,-31.1"/>
<polygon fill="green" stroke="green" stroke-width="0.49" points="529.57,-27.8 519.08,-26.33 526.36,-34.02 529.57,-27.8"/>
</g>
<!-- &#45;17&#45;&gt;4 -->
<g id="edge26" class="edge">
<title>&#45;17&#45;&gt;4</title>
<path fill="none" stroke="green" stroke-width="0.31" d="M884.62,-83.81C880.05,-78.5 873.45,-72.02 866.1,-68.53 751.55,-14.16 703.1,-73.46 583.1,-32.53 581.84,-32.1 580.58,-31.61 579.33,-31.07"/>
<polygon fill="green" stroke="green" stroke-width="0.31" points="580.58,-27.77 570.09,-26.28 577.36,-33.99 580.58,-27.77"/>
</g>
<!-- &#45;18 -->
<g id="node18" class="node">
<title>&#45;18</title>
<polygon fill="lightgray" stroke="black" points="957.1,-102.28 925.1,-102.28 925.1,-84.28 957.1,-84.28 957.1,-102.28"/>
<text text-anchor="middle" x="941.1" y="-91.08" font-family="Times,serif" font-size="9.00">&#45;18</text>
</g>
<!-- &#45;18&#45;&gt;0 -->
<g id="edge74" class="edge">
<title>&#45;18&#45;&gt;0</title>
<path fill="none" stroke="green" stroke-width="0.28" stroke-dasharray="1,5" d="M935.06,-84.18C930.51,-78.73 923.75,-71.95 916.1,-68.53 739.06,10.78 666.04,-91.1 481.1,-32.53 479.84,-32.13 478.57,-31.66 477.31,-31.13"/>
<polygon fill="green" stroke="green" stroke-width="0.28" points="478.55,-27.84 468.05,-26.4 475.36,-34.07 478.55,-27.84"/>
</g>
<!-- &#45;18&#45;&gt;1 -->
<g id="edge4" class="edge">
<title>&#45;18&#45;&gt;1</title>
<path fill="none" stroke="red" stroke-width="0.23" d="M934.57,-83.91C929.99,-78.63 923.39,-72.16 916.1,-68.53 820.58,-20.93 689.82,-16.22 634.51,-16.59"/>
<polygon fill="red" stroke="red" stroke-width="0.23" points="634.44,-13.09 624.49,-16.72 634.53,-20.09 634.44,-13.09"/>
</g>
<!-- &#45;18&#45;&gt;3 -->
<g id="edge41" class="edge">
<title>&#45;18&#45;&gt;3</title>
<path fill="none" stroke="red" stroke-width="0.19" d="M935.05,-84.2C930.49,-78.77 923.73,-71.99 916.1,-68.53 760.05,2.4 695.23,-85.17 532.1,-32.53 530.84,-32.12 529.57,-31.64 528.31,-31.12"/>
<polygon fill="red" stroke="red" stroke-width="0.19" points="529.56,-27.82 519.06,-26.37 526.36,-34.05 529.56,-27.82"/>
</g>
<!-- &#45;18&#45;&gt;4 -->
<g id="edge91" class="edge">
<title>&#45;18&#45;&gt;4</title>
<path fill="none" stroke="green" stroke-width="0.29" d="M935.04,-84.24C930.47,-78.82 923.7,-72.05 916.1,-68.53 781.02,-5.97 724.44,-79.25 583.1,-32.53 581.84,-32.11 580.58,-31.63 579.32,-31.1"/>
<polygon fill="green" stroke="green" stroke-width="0.29" points="580.57,-27.8 570.08,-26.33 577.36,-34.02 580.57,-27.8"/>
</g>
<!-- &#45;19 -->
<g id="node19" class="node">
<title>&#45;19</title>
<polygon fill="lightgray" stroke="black" points="67.1,-102.28 35.1,-102.28 35.1,-84.28 67.1,-84.28 67.1,-102.28"/>
<text text-anchor="middle" x="51.1" y="-91.08" font-family="Times,serif" font-size="9.00">&#45;19</text>
</g>
<!-- &#45;19&#45;&gt;0 -->
<g id="edge14" class="edge">
<title>&#45;19&#45;&gt;0</title>
<path fill="none" stroke="green" stroke-width="0.51" d="M57.15,-84.22C61.72,-78.8 68.48,-72.03 76.1,-68.53 219.4,-2.69 279.22,-81.57 429.1,-32.53 430.36,-32.11 431.62,-31.64 432.88,-31.1"/>
<polygon fill="green" stroke="green" stroke-width="0.51" points="434.84,-34.03 442.13,-26.35 431.63,-27.81 434.84,-34.03"/>
</g>
<!-- &#45;19&#45;&gt;1 -->
<g id="edge83" class="edge">
<title>&#45;19&#45;&gt;1</title>
<path fill="none" stroke="red" stroke-width="0.81" d="M57.12,-84.15C61.67,-78.69 68.43,-71.91 76.1,-68.53 282.38,22.45 366.77,-99.36 582.1,-32.53 583.36,-32.13 584.63,-31.67 585.89,-31.15"/>
<polygon fill="red" stroke="red" stroke-width="0.81" points="587.83,-34.09 595.15,-26.43 584.66,-27.85 587.83,-34.09"/>
</g>
<!-- &#45;19&#45;&gt;2 -->
<g id="edge53" class="edge">
<title>&#45;19&#45;&gt;2</title>
<path fill="none" stroke="red" stroke-width="0.14" d="M57.61,-83.88C62.19,-78.6 68.79,-72.12 76.1,-68.53 129.37,-42.31 309.34,-25.09 377.57,-19.36"/>
<polygon fill="red" stroke="red" stroke-width="0.14" points="378.21,-22.82 387.89,-18.51 377.64,-15.85 378.21,-22.82"/>
</g>
<!-- &#45;20 -->
<g id="node20" class="node">
<title>&#45;20</title>
<polygon fill="lightgray" stroke="black" points="261.1,-102.28 229.1,-102.28 229.1,-84.28 261.1,-84.28 261.1,-102.28"/>
<text text-anchor="middle" x="245.1" y="-91.08" font-family="Times,serif" font-size="9.00">&#45;20</text>
</g>
<!-- &#45;20&#45;&gt;0 -->
<g id="edge63" class="edge">
<title>&#45;20&#45;&gt;0</title>
<path fill="none" stroke="red" stroke-width="0.21" stroke-dasharray="1,5" d="M253.33,-84.1C259,-78.91 266.96,-72.45 275.1,-68.53 338.4,-37.98 363.83,-58.61 429.1,-32.53 430.33,-32.04 431.57,-31.49 432.81,-30.91"/>
<polygon fill="red" stroke="red" stroke-width="0.21" points="434.83,-33.8 442,-25.99 431.53,-27.63 434.83,-33.8"/>
</g>
<!-- &#45;20&#45;&gt;1 -->
<g id="edge90" class="edge">
<title>&#45;20&#45;&gt;1</title>
<path fill="none" stroke="green" stroke-width="0.2" d="M261.35,-84.97C273.88,-79.62 291.77,-72.62 308.1,-68.53 427.24,-38.67 465.93,-72.41 582.1,-32.53 583.35,-32.1 584.61,-31.6 585.86,-31.06"/>
<polygon fill="green" stroke="green" stroke-width="0.2" points="587.84,-33.98 595.1,-26.26 584.61,-27.77 587.84,-33.98"/>
</g>
<!-- &#45;20&#45;&gt;2 -->
<g id="edge23" class="edge">
<title>&#45;20&#45;&gt;2</title>
<path fill="none" stroke="red" stroke-width="0.12" d="M253.79,-84.27C259.53,-79.28 267.39,-72.98 275.1,-68.53 309.18,-48.84 352.28,-33.4 379.02,-24.81"/>
<polygon fill="red" stroke="red" stroke-width="0.12" points="380.25,-28.09 388.74,-21.76 378.15,-21.42 380.25,-28.09"/>
</g>
<!-- &#45;20&#45;&gt;3 -->
<g id="edge52" class="edge">
<title>&#45;20&#45;&gt;3</title>
<path fill="none" stroke="red" stroke-width="0.17" d="M253.26,-83.95C258.9,-78.7 266.86,-72.22 275.1,-68.53 359.5,-30.66 393.28,-64.45 480.1,-32.53 481.34,-32.07 482.59,-31.55 483.84,-30.99"/>
<polygon fill="red" stroke="red" stroke-width="0.17" points="485.84,-33.9 493.06,-26.14 482.58,-27.7 485.84,-33.9"/>
</g>
<!-- &#45;20&#45;&gt;4 -->
<g id="edge39" class="edge">
<title>&#45;20&#45;&gt;4</title>
<path fill="none" stroke="red" stroke-width="0.18" stroke-dasharray="1,5" d="M261.12,-85.21C273.68,-79.93 291.72,-72.89 308.1,-68.53 405.11,-42.69 436.64,-66.52 531.1,-32.53 532.35,-32.08 533.6,-31.57 534.85,-31.02"/>
<polygon fill="red" stroke="red" stroke-width="0.18" points="536.84,-33.92 544.07,-26.18 533.59,-27.72 536.84,-33.92"/>
</g>
<!-- 278&#45;&gt;1 -->
<g id="edge43" class="edge">
<title>278&#45;&gt;1</title>
<path fill="none" stroke="green" stroke-width="0.27" d="M1018.26,-78.01C1012.34,-74.38 1005.68,-70.84 999.1,-68.53 868.16,-22.41 699.34,-17.19 634.8,-17.01"/>
<polygon fill="green" stroke="green" stroke-width="0.27" points="634.67,-13.51 624.67,-17.02 634.68,-20.51 634.67,-13.51"/>
</g>
</g>
</svg>
