<?xml version="1.0" encoding="UTF-8" standalone="no"?>
<!DOCTYPE svg PUBLIC "-//W3C//DTD SVG 1.1//EN"
 "http://www.w3.org/Graphics/SVG/1.1/DTD/svg11.dtd">
<!-- Generated by graphviz version 2.49.0 (20210828.1703)
 -->
<!-- Pages: 1 -->
<svg width="887pt" height="92pt"
 viewBox="0.00 0.00 887.00 91.70" xmlns="http://www.w3.org/2000/svg" xmlns:xlink="http://www.w3.org/1999/xlink">
<g id="graph0" class="graph" transform="scale(1 1) rotate(0) translate(4 87.7)">
<polygon fill="white" stroke="transparent" points="-4,4 -4,-87.7 883,-87.7 883,4 -4,4"/>
<!-- &#45;1 -->
<g id="node1" class="node">
<title>&#45;1</title>
<polygon fill="lightgray" stroke="black" points="831.5,-83.7 807.5,-83.7 807.5,-65.7 831.5,-65.7 831.5,-83.7"/>
<text text-anchor="middle" x="819.5" y="-72.5" font-family="Times New Roman,serif" font-size="9.00">&#45;1</text>
</g>
<!-- 0 -->
<g id="node21" class="node">
<title>0</title>
<ellipse fill="lightblue" stroke="black" cx="395.5" cy="-14.85" rx="14.7" ry="14.7"/>
<text text-anchor="middle" x="395.5" y="-12.65" font-family="Times New Roman,serif" font-size="9.00">0</text>
</g>
<!-- &#45;1&#45;&gt;0 -->
<g id="edge1" class="edge">
<title>&#45;1&#45;&gt;0</title>
<path fill="none" stroke="green" stroke-width="0.31" d="M807.24,-68.39C804.41,-67.35 801.39,-66.37 798.5,-65.7 633.73,-27.23 580.69,-81.16 419.5,-29.7 418.45,-29.36 417.39,-28.97 416.33,-28.55"/>
<polygon fill="green" stroke="green" stroke-width="0.31" points="417.74,-25.34 407.24,-23.96 414.59,-31.59 417.74,-25.34"/>
</g>
<!-- 1 -->
<g id="node22" class="node">
<title>1</title>
<ellipse fill="lightblue" stroke="black" cx="347.5" cy="-14.85" rx="14.7" ry="14.7"/>
<text text-anchor="middle" x="347.5" y="-12.65" font-family="Times New Roman,serif" font-size="9.00">1</text>
</g>
<!-- &#45;1&#45;&gt;1 -->
<g id="edge2" class="edge">
<title>&#45;1&#45;&gt;1</title>
<path fill="none" stroke="green" stroke-width="0.1" d="M807.24,-68.37C804.42,-67.33 801.39,-66.36 798.5,-65.7 612.81,-23.39 553.23,-86.66 371.5,-29.7 370.44,-29.37 369.38,-28.98 368.33,-28.56"/>
<polygon fill="green" stroke="green" stroke-width="0.1" points="369.74,-25.35 359.23,-23.99 366.59,-31.61 369.74,-25.35"/>
</g>
<!-- 2 -->
<g id="node23" class="node">
<title>2</title>
<ellipse fill="lightblue" stroke="black" cx="443.5" cy="-14.85" rx="14.7" ry="14.7"/>
<text text-anchor="middle" x="443.5" y="-12.65" font-family="Times New Roman,serif" font-size="9.00">2</text>
</g>
<!-- &#45;1&#45;&gt;2 -->
<g id="edge3" class="edge">
<title>&#45;1&#45;&gt;2</title>
<path fill="none" stroke="red" stroke-width="0.63" d="M807.23,-68.42C804.4,-67.38 801.38,-66.39 798.5,-65.7 654.63,-31.08 608.16,-75.67 467.5,-29.7 466.62,-29.41 465.74,-29.09 464.85,-28.74"/>
<polygon fill="red" stroke="red" stroke-width="0.63" points="466.26,-25.53 455.74,-24.22 463.14,-31.8 466.26,-25.53"/>
</g>
<!-- 3 -->
<g id="node24" class="node">
<title>3</title>
<ellipse fill="lightblue" stroke="black" cx="491.5" cy="-14.85" rx="14.7" ry="14.7"/>
<text text-anchor="middle" x="491.5" y="-12.65" font-family="Times New Roman,serif" font-size="9.00">3</text>
</g>
<!-- &#45;1&#45;&gt;3 -->
<g id="edge4" class="edge">
<title>&#45;1&#45;&gt;3</title>
<path fill="none" stroke="green" stroke-width="0.64" d="M807.22,-68.46C804.4,-67.42 801.38,-66.42 798.5,-65.7 675.5,-34.91 635.66,-70.18 515.5,-29.7 514.62,-29.4 513.74,-29.07 512.86,-28.72"/>
<polygon fill="green" stroke="green" stroke-width="0.64" points="514.27,-25.51 503.76,-24.17 511.14,-31.77 514.27,-25.51"/>
</g>
<!-- 4 -->
<g id="node25" class="node">
<title>4</title>
<ellipse fill="lightblue" stroke="black" cx="539.5" cy="-14.85" rx="14.7" ry="14.7"/>
<text text-anchor="middle" x="539.5" y="-12.65" font-family="Times New Roman,serif" font-size="9.00">4</text>
</g>
<!-- &#45;1&#45;&gt;4 -->
<g id="edge5" class="edge">
<title>&#45;1&#45;&gt;4</title>
<path fill="none" stroke="green" stroke-width="0.26" stroke-dasharray="1,5" d="M807.18,-68.6C804.36,-67.54 801.35,-66.51 798.5,-65.7 714.1,-41.7 610.92,-25.69 564.38,-19.17"/>
<polygon fill="green" stroke="green" stroke-width="0.26" points="564.7,-15.68 554.31,-17.78 563.74,-22.61 564.7,-15.68"/>
</g>
<!-- &#45;2 -->
<g id="node2" class="node">
<title>&#45;2</title>
<polygon fill="lightgray" stroke="black" points="113.5,-83.7 89.5,-83.7 89.5,-65.7 113.5,-65.7 113.5,-83.7"/>
<text text-anchor="middle" x="101.5" y="-72.5" font-family="Times New Roman,serif" font-size="9.00">&#45;2</text>
</g>
<!-- &#45;2&#45;&gt;0 -->
<g id="edge6" class="edge">
<title>&#45;2&#45;&gt;0</title>
<path fill="none" stroke="green" stroke-width="0.47" d="M113.79,-68.5C116.61,-67.45 119.63,-66.44 122.5,-65.7 230.74,-37.62 265.84,-66.3 371.5,-29.7 372.38,-29.4 373.25,-29.06 374.13,-28.7"/>
<polygon fill="green" stroke="green" stroke-width="0.47" points="375.87,-31.74 383.23,-24.12 372.72,-25.49 375.87,-31.74"/>
</g>
<!-- &#45;2&#45;&gt;1 -->
<g id="edge7" class="edge">
<title>&#45;2&#45;&gt;1</title>
<path fill="none" stroke="green" stroke-width="0.3" d="M113.83,-68.66C116.65,-67.6 119.66,-66.55 122.5,-65.7 194.1,-44.25 281.01,-27.56 322.77,-20.11"/>
<polygon fill="green" stroke="green" stroke-width="0.3" points="323.59,-23.51 332.83,-18.33 322.38,-16.62 323.59,-23.51"/>
</g>
<!-- &#45;2&#45;&gt;2 -->
<g id="edge8" class="edge">
<title>&#45;2&#45;&gt;2</title>
<path fill="none" stroke="green" stroke-width="0.58" stroke-dasharray="1,5" d="M113.78,-68.45C116.6,-67.4 119.62,-66.41 122.5,-65.7 251.58,-33.79 293.37,-71.78 419.5,-29.7 420.38,-29.41 421.26,-29.08 422.14,-28.72"/>
<polygon fill="green" stroke="green" stroke-width="0.58" points="423.86,-31.78 431.25,-24.18 420.74,-25.51 423.86,-31.78"/>
</g>
<!-- &#45;2&#45;&gt;3 -->
<g id="edge9" class="edge">
<title>&#45;2&#45;&gt;3</title>
<path fill="none" stroke="red" stroke-width="0.42" d="M113.77,-68.41C116.59,-67.37 119.62,-66.39 122.5,-65.7 272.47,-29.96 320.86,-77.27 467.5,-29.7 468.55,-29.36 469.61,-28.97 470.66,-28.53"/>
<polygon fill="red" stroke="red" stroke-width="0.42" points="472.41,-31.57 479.75,-23.94 469.25,-25.33 472.41,-31.57"/>
</g>
<!-- &#45;2&#45;&gt;4 -->
<g id="edge10" class="edge">
<title>&#45;2&#45;&gt;4</title>
<path fill="none" stroke="red" stroke-width="0.59" d="M113.76,-68.39C116.59,-67.34 119.61,-66.37 122.5,-65.7 293.37,-26.11 348.32,-82.76 515.5,-29.7 516.55,-29.36 517.61,-28.98 518.67,-28.55"/>
<polygon fill="red" stroke="red" stroke-width="0.59" points="520.41,-31.59 527.76,-23.97 517.26,-25.34 520.41,-31.59"/>
</g>
<!-- &#45;3 -->
<g id="node3" class="node">
<title>&#45;3</title>
<polygon fill="lightgray" stroke="black" points="155.5,-83.7 131.5,-83.7 131.5,-65.7 155.5,-65.7 155.5,-83.7"/>
<text text-anchor="middle" x="143.5" y="-72.5" font-family="Times New Roman,serif" font-size="9.00">&#45;3</text>
</g>
<!-- &#45;3&#45;&gt;0 -->
<g id="edge11" class="edge">
<title>&#45;3&#45;&gt;0</title>
<path fill="none" stroke="red" stroke-width="0.11" d="M155.81,-68.56C158.63,-67.51 161.64,-66.48 164.5,-65.7 254.55,-40.96 283.71,-61.52 371.5,-29.7 372.37,-29.38 373.25,-29.04 374.12,-28.67"/>
<polygon fill="red" stroke="red" stroke-width="0.11" points="375.87,-31.7 383.2,-24.05 372.7,-25.46 375.87,-31.7"/>
</g>
<!-- &#45;3&#45;&gt;1 -->
<g id="edge12" class="edge">
<title>&#45;3&#45;&gt;1</title>
<path fill="none" stroke="green" stroke-width="0.12" d="M155.87,-68.76C158.68,-67.7 161.68,-66.62 164.5,-65.7 220.68,-47.39 288.01,-30.26 323.26,-21.65"/>
<polygon fill="green" stroke="green" stroke-width="0.12" points="324.23,-25.01 333.12,-19.26 322.58,-18.21 324.23,-25.01"/>
</g>
<!-- &#45;3&#45;&gt;2 -->
<g id="edge13" class="edge">
<title>&#45;3&#45;&gt;2</title>
<path fill="none" stroke="green" stroke-width="0.67" d="M155.79,-68.49C158.61,-67.44 161.63,-66.44 164.5,-65.7 275.34,-37.15 311.29,-66.98 419.5,-29.7 420.38,-29.4 421.26,-29.06 422.13,-28.7"/>
<polygon fill="green" stroke="green" stroke-width="0.67" points="423.86,-31.75 431.23,-24.13 420.72,-25.49 423.86,-31.75"/>
</g>
<!-- &#45;3&#45;&gt;3 -->
<g id="edge14" class="edge">
<title>&#45;3&#45;&gt;3</title>
<path fill="none" stroke="red" stroke-width="0.52" d="M155.78,-68.45C158.6,-67.4 161.62,-66.41 164.5,-65.7 296.19,-33.32 338.81,-72.46 467.5,-29.7 468.38,-29.41 469.26,-29.08 470.14,-28.73"/>
<polygon fill="red" stroke="red" stroke-width="0.52" points="471.86,-31.78 479.25,-24.19 468.74,-25.52 471.86,-31.78"/>
</g>
<!-- &#45;3&#45;&gt;4 -->
<g id="edge15" class="edge">
<title>&#45;3&#45;&gt;4</title>
<path fill="none" stroke="green" stroke-width="0.52" d="M155.77,-68.41C158.59,-67.37 161.62,-66.38 164.5,-65.7 317.08,-29.48 366.29,-77.95 515.5,-29.7 516.55,-29.36 517.61,-28.97 518.66,-28.54"/>
<polygon fill="green" stroke="green" stroke-width="0.52" points="520.41,-31.58 527.76,-23.94 517.25,-25.33 520.41,-31.58"/>
</g>
<!-- &#45;4 -->
<g id="node4" class="node">
<title>&#45;4</title>
<polygon fill="lightgray" stroke="black" points="197.5,-83.7 173.5,-83.7 173.5,-65.7 197.5,-65.7 197.5,-83.7"/>
<text text-anchor="middle" x="185.5" y="-72.5" font-family="Times New Roman,serif" font-size="9.00">&#45;4</text>
</g>
<!-- &#45;4&#45;&gt;0 -->
<g id="edge16" class="edge">
<title>&#45;4&#45;&gt;0</title>
<path fill="none" stroke="green" stroke-width="0.25" d="M197.83,-68.65C200.65,-67.59 203.66,-66.54 206.5,-65.7 278.44,-44.28 301.5,-56.78 371.5,-29.7 372.36,-29.36 373.23,-29 374.1,-28.62"/>
<polygon fill="green" stroke="green" stroke-width="0.25" points="375.88,-31.64 383.16,-23.94 372.67,-25.42 375.88,-31.64"/>
</g>
<!-- &#45;4&#45;&gt;1 -->
<g id="edge17" class="edge">
<title>&#45;4&#45;&gt;1</title>
<path fill="none" stroke="red" stroke-width="0.55" d="M197.92,-68.91C200.74,-67.84 203.72,-66.72 206.5,-65.7 247.56,-50.62 295.65,-33.8 323.73,-24.06"/>
<polygon fill="red" stroke="red" stroke-width="0.55" points="325.15,-27.27 333.45,-20.69 322.86,-20.66 325.15,-27.27"/>
</g>
<!-- &#45;4&#45;&gt;2 -->
<g id="edge18" class="edge">
<title>&#45;4&#45;&gt;2</title>
<path fill="none" stroke="green" stroke-width="0.21" d="M197.8,-68.55C200.63,-67.5 203.64,-66.48 206.5,-65.7 299.14,-40.49 329.16,-62.2 419.5,-29.7 420.37,-29.38 421.25,-29.04 422.12,-28.67"/>
<polygon fill="green" stroke="green" stroke-width="0.21" points="423.87,-31.71 431.2,-24.06 420.7,-25.47 423.87,-31.71"/>
</g>
<!-- &#45;4&#45;&gt;3 -->
<g id="edge19" class="edge">
<title>&#45;4&#45;&gt;3</title>
<path fill="none" stroke="red" stroke-width="0.21" d="M197.79,-68.49C200.61,-67.44 203.63,-66.43 206.5,-65.7 319.94,-36.67 356.73,-67.67 467.5,-29.7 468.38,-29.4 469.26,-29.06 470.13,-28.7"/>
<polygon fill="red" stroke="red" stroke-width="0.21" points="471.86,-31.75 479.23,-24.14 468.72,-25.5 471.86,-31.75"/>
</g>
<!-- &#45;4&#45;&gt;4 -->
<g id="edge20" class="edge">
<title>&#45;4&#45;&gt;4</title>
<path fill="none" stroke="green" stroke-width="0.17" d="M197.77,-68.44C200.6,-67.39 203.62,-66.4 206.5,-65.7 340.8,-32.84 384.24,-73.15 515.5,-29.7 516.38,-29.41 517.26,-29.08 518.14,-28.73"/>
<polygon fill="green" stroke="green" stroke-width="0.17" points="519.86,-31.78 527.25,-24.2 516.74,-25.52 519.86,-31.78"/>
</g>
<!-- &#45;5 -->
<g id="node5" class="node">
<title>&#45;5</title>
<polygon fill="lightgray" stroke="black" points="71.5,-83.7 47.5,-83.7 47.5,-65.7 71.5,-65.7 71.5,-83.7"/>
<text text-anchor="middle" x="59.5" y="-72.5" font-family="Times New Roman,serif" font-size="9.00">&#45;5</text>
</g>
<!-- &#45;5&#45;&gt;0 -->
<g id="edge21" class="edge">
<title>&#45;5&#45;&gt;0</title>
<path fill="none" stroke="red" stroke-width="0.35" d="M71.78,-68.46C74.6,-67.41 77.62,-66.41 80.5,-65.7 206.97,-34.27 247.93,-71.09 371.5,-29.7 372.38,-29.4 373.26,-29.08 374.14,-28.72"/>
<polygon fill="red" stroke="red" stroke-width="0.35" points="375.86,-31.77 383.24,-24.18 372.73,-25.51 375.86,-31.77"/>
</g>
<!-- &#45;5&#45;&gt;1 -->
<g id="edge22" class="edge">
<title>&#45;5&#45;&gt;1</title>
<path fill="none" stroke="red" stroke-width="0.18" d="M71.81,-68.59C74.64,-67.53 77.65,-66.5 80.5,-65.7 168.09,-41.05 275.34,-25.24 322.84,-18.94"/>
<polygon fill="red" stroke="red" stroke-width="0.18" points="323.35,-22.41 332.82,-17.65 322.45,-15.47 323.35,-22.41"/>
</g>
<!-- &#45;5&#45;&gt;2 -->
<g id="edge23" class="edge">
<title>&#45;5&#45;&gt;2</title>
<path fill="none" stroke="green" stroke-width="0.23" d="M71.77,-68.42C74.59,-67.37 77.62,-66.39 80.5,-65.7 227.85,-30.44 275.42,-76.58 419.5,-29.7 420.38,-29.41 421.26,-29.09 422.15,-28.74"/>
<polygon fill="green" stroke="green" stroke-width="0.23" points="423.85,-31.8 431.26,-24.22 420.75,-25.53 423.85,-31.8"/>
</g>
<!-- &#45;5&#45;&gt;4 -->
<g id="edge24" class="edge">
<title>&#45;5&#45;&gt;4</title>
<path fill="none" stroke="green" stroke-width="0.18" d="M71.76,-68.37C74.58,-67.33 77.61,-66.36 80.5,-65.7 269.68,-22.74 330.34,-87.58 515.5,-29.7 516.56,-29.37 517.62,-28.99 518.67,-28.56"/>
<polygon fill="green" stroke="green" stroke-width="0.18" points="520.41,-31.61 527.77,-23.99 517.26,-25.35 520.41,-31.61"/>
</g>
<!-- &#45;6 -->
<g id="node6" class="node">
<title>&#45;6</title>
<polygon fill="lightgray" stroke="black" points="239.5,-83.7 215.5,-83.7 215.5,-65.7 239.5,-65.7 239.5,-83.7"/>
<text text-anchor="middle" x="227.5" y="-72.5" font-family="Times New Roman,serif" font-size="9.00">&#45;6</text>
</g>
<!-- &#45;6&#45;&gt;0 -->
<g id="edge25" class="edge">
<title>&#45;6&#45;&gt;0</title>
<path fill="none" stroke="red" stroke-width="0.23" d="M239.88,-68.8C242.7,-67.73 245.69,-66.64 248.5,-65.7 302.49,-47.55 319.13,-52.09 371.5,-29.7 372.35,-29.33 373.21,-28.95 374.07,-28.54"/>
<polygon fill="red" stroke="red" stroke-width="0.23" points="375.89,-31.54 383.09,-23.76 372.61,-25.35 375.89,-31.54"/>
</g>
<!-- &#45;6&#45;&gt;1 -->
<g id="edge26" class="edge">
<title>&#45;6&#45;&gt;1</title>
<path fill="none" stroke="red" stroke-width="0.68" d="M239.89,-67.73C259.98,-58.04 299.94,-38.78 325.11,-26.64"/>
<polygon fill="red" stroke="red" stroke-width="0.68" points="326.78,-29.72 334.27,-22.23 323.74,-23.42 326.78,-29.72"/>
</g>
<!-- &#45;6&#45;&gt;2 -->
<g id="edge27" class="edge">
<title>&#45;6&#45;&gt;2</title>
<path fill="none" stroke="green" stroke-width="0.45" d="M239.83,-68.63C242.65,-67.58 245.66,-66.53 248.5,-65.7 323.02,-43.81 346.96,-57.45 419.5,-29.7 420.36,-29.37 421.24,-29.01 422.11,-28.63"/>
<polygon fill="green" stroke="green" stroke-width="0.45" points="423.88,-31.65 431.17,-23.96 420.67,-25.43 423.88,-31.65"/>
</g>
<!-- &#45;6&#45;&gt;3 -->
<g id="edge28" class="edge">
<title>&#45;6&#45;&gt;3</title>
<path fill="none" stroke="green" stroke-width="0.41" d="M239.8,-68.54C242.62,-67.49 245.64,-66.47 248.5,-65.7 343.74,-40.01 374.61,-62.89 467.5,-29.7 468.37,-29.39 469.25,-29.04 470.12,-28.68"/>
<polygon fill="green" stroke="green" stroke-width="0.41" points="471.87,-31.72 479.21,-24.07 468.71,-25.47 471.87,-31.72"/>
</g>
<!-- &#45;6&#45;&gt;4 -->
<g id="edge29" class="edge">
<title>&#45;6&#45;&gt;4</title>
<path fill="none" stroke="red" stroke-width="0.11" d="M239.78,-68.48C242.61,-67.43 245.63,-66.43 248.5,-65.7 364.55,-36.19 402.17,-68.35 515.5,-29.7 516.38,-29.4 517.26,-29.07 518.14,-28.71"/>
<polygon fill="red" stroke="red" stroke-width="0.11" points="519.86,-31.76 527.23,-24.15 516.73,-25.5 519.86,-31.76"/>
</g>
<!-- &#45;7 -->
<g id="node7" class="node">
<title>&#45;7</title>
<polygon fill="lightgray" stroke="black" points="281.5,-83.7 257.5,-83.7 257.5,-65.7 281.5,-65.7 281.5,-83.7"/>
<text text-anchor="middle" x="269.5" y="-72.5" font-family="Times New Roman,serif" font-size="9.00">&#45;7</text>
</g>
<!-- &#45;7&#45;&gt;0 -->
<g id="edge30" class="edge">
<title>&#45;7&#45;&gt;0</title>
<path fill="none" stroke="green" stroke-width="0.41" stroke-dasharray="1,5" d="M281.64,-68.99C300.97,-61.39 339.79,-45.62 371.5,-29.7 372.33,-29.28 373.17,-28.85 374.01,-28.41"/>
<polygon fill="green" stroke="green" stroke-width="0.41" points="375.89,-31.37 382.95,-23.46 372.5,-25.24 375.89,-31.37"/>
</g>
<!-- &#45;7&#45;&gt;1 -->
<g id="edge31" class="edge">
<title>&#45;7&#45;&gt;1</title>
<path fill="none" stroke="red" stroke-width="0.25" d="M280.35,-65.65C292.59,-56.57 312.77,-41.61 327.82,-30.45"/>
<polygon fill="red" stroke="red" stroke-width="0.25" points="330.04,-33.16 335.99,-24.39 325.87,-27.53 330.04,-33.16"/>
</g>
<!-- &#45;7&#45;&gt;2 -->
<g id="edge32" class="edge">
<title>&#45;7&#45;&gt;2</title>
<path fill="none" stroke="green" stroke-width="0.41" d="M281.87,-68.77C284.69,-67.71 287.68,-66.63 290.5,-65.7 347.04,-47.08 364.62,-52.76 419.5,-29.7 420.35,-29.34 421.21,-28.96 422.08,-28.55"/>
<polygon fill="green" stroke="green" stroke-width="0.41" points="423.89,-31.56 431.1,-23.8 420.62,-25.37 423.89,-31.56"/>
</g>
<!-- &#45;7&#45;&gt;3 -->
<g id="edge33" class="edge">
<title>&#45;7&#45;&gt;3</title>
<path fill="none" stroke="green" stroke-width="0.56" d="M281.82,-68.62C284.64,-67.57 287.65,-66.52 290.5,-65.7 367.6,-43.33 392.43,-58.13 467.5,-29.7 468.37,-29.37 469.24,-29.01 470.11,-28.63"/>
<polygon fill="green" stroke="green" stroke-width="0.56" points="471.88,-31.66 479.17,-23.98 468.68,-25.43 471.88,-31.66"/>
</g>
<!-- &#45;7&#45;&gt;4 -->
<g id="edge34" class="edge">
<title>&#45;7&#45;&gt;4</title>
<path fill="none" stroke="green" stroke-width="0.32" d="M281.8,-68.53C284.62,-67.48 287.64,-66.46 290.5,-65.7 388.33,-39.53 420.06,-63.57 515.5,-29.7 516.37,-29.39 517.25,-29.05 518.13,-28.68"/>
<polygon fill="green" stroke="green" stroke-width="0.32" points="519.87,-31.72 527.21,-24.08 516.71,-25.47 519.87,-31.72"/>
</g>
<!-- &#45;8 -->
<g id="node8" class="node">
<title>&#45;8</title>
<polygon fill="lightgray" stroke="black" points="323.5,-83.7 299.5,-83.7 299.5,-65.7 323.5,-65.7 323.5,-83.7"/>
<text text-anchor="middle" x="311.5" y="-72.5" font-family="Times New Roman,serif" font-size="9.00">&#45;8</text>
</g>
<!-- &#45;8&#45;&gt;0 -->
<g id="edge35" class="edge">
<title>&#45;8&#45;&gt;0</title>
<path fill="none" stroke="red" stroke-width="0.2" d="M323.18,-65.65C336.64,-56.38 359.01,-40.98 375.31,-29.75"/>
<polygon fill="red" stroke="red" stroke-width="0.2" points="377.4,-32.57 383.65,-24.01 373.43,-26.8 377.4,-32.57"/>
</g>
<!-- &#45;8&#45;&gt;1 -->
<g id="edge36" class="edge">
<title>&#45;8&#45;&gt;1</title>
<path fill="none" stroke="green" stroke-width="0.24" d="M316.51,-65.65C321.18,-58.14 328.36,-46.61 334.63,-36.53"/>
<polygon fill="green" stroke="green" stroke-width="0.24" points="337.72,-38.18 340.04,-27.84 331.78,-34.49 337.72,-38.18"/>
</g>
<!-- &#45;8&#45;&gt;2 -->
<g id="edge37" class="edge">
<title>&#45;8&#45;&gt;2</title>
<path fill="none" stroke="green" stroke-width="0.1" d="M323.58,-69.02C347.84,-59.58 401.68,-38.42 419.5,-29.7 420.33,-29.29 421.17,-28.87 422.02,-28.43"/>
<polygon fill="green" stroke="green" stroke-width="0.1" points="423.89,-31.39 430.97,-23.51 420.52,-25.26 423.89,-31.39"/>
</g>
<!-- &#45;8&#45;&gt;3 -->
<g id="edge38" class="edge">
<title>&#45;8&#45;&gt;3</title>
<path fill="none" stroke="green" stroke-width="0.44" d="M323.86,-68.75C326.68,-67.68 329.68,-66.61 332.5,-65.7 391.59,-46.62 410.11,-53.42 467.5,-29.7 468.36,-29.34 469.22,-28.97 470.08,-28.57"/>
<polygon fill="green" stroke="green" stroke-width="0.44" points="471.89,-31.57 479.11,-23.82 468.63,-25.38 471.89,-31.57"/>
</g>
<!-- &#45;8&#45;&gt;4 -->
<g id="edge39" class="edge">
<title>&#45;8&#45;&gt;4</title>
<path fill="none" stroke="red" stroke-width="0.36" d="M323.82,-68.61C326.64,-67.55 329.65,-66.52 332.5,-65.7 412.18,-42.86 437.89,-58.81 515.5,-29.7 516.37,-29.37 517.24,-29.02 518.11,-28.64"/>
<polygon fill="red" stroke="red" stroke-width="0.36" points="519.88,-31.67 527.18,-23.99 516.68,-25.44 519.88,-31.67"/>
</g>
<!-- &#45;9 -->
<g id="node9" class="node">
<title>&#45;9</title>
<polygon fill="lightgray" stroke="black" points="365.5,-83.7 341.5,-83.7 341.5,-65.7 365.5,-65.7 365.5,-83.7"/>
<text text-anchor="middle" x="353.5" y="-72.5" font-family="Times New Roman,serif" font-size="9.00">&#45;9</text>
</g>
<!-- &#45;9&#45;&gt;0 -->
<g id="edge40" class="edge">
<title>&#45;9&#45;&gt;0</title>
<path fill="none" stroke="red" stroke-width="1.02" d="M359.34,-65.65C364.97,-57.89 373.73,-45.84 381.21,-35.53"/>
<polygon fill="red" stroke="red" stroke-width="1.02" points="384.06,-37.57 387.1,-27.42 378.39,-33.45 384.06,-37.57"/>
</g>
<!-- &#45;9&#45;&gt;1 -->
<g id="edge41" class="edge">
<title>&#45;9&#45;&gt;1</title>
<path fill="none" stroke="green" stroke-width="0.1" d="M352.67,-65.65C351.98,-59.05 350.97,-49.33 350.03,-40.23"/>
<polygon fill="green" stroke="green" stroke-width="0.1" points="353.49,-39.64 348.97,-30.06 346.52,-40.36 353.49,-39.64"/>
</g>
<!-- &#45;9&#45;&gt;2 -->
<g id="edge42" class="edge">
<title>&#45;9&#45;&gt;2</title>
<path fill="none" stroke="red" stroke-width="0.23" d="M365.64,-65.9C380.27,-56.49 405.08,-40.55 422.76,-29.18"/>
<polygon fill="red" stroke="red" stroke-width="0.23" points="424.75,-32.06 431.27,-23.71 420.96,-26.18 424.75,-32.06"/>
</g>
<!-- &#45;9&#45;&gt;3 -->
<g id="edge43" class="edge">
<title>&#45;9&#45;&gt;3</title>
<path fill="none" stroke="green" stroke-width="0.11" d="M365.87,-69.2C391.3,-59.91 448.65,-38.71 467.5,-29.7 468.34,-29.3 469.18,-28.88 470.03,-28.45"/>
<polygon fill="green" stroke="green" stroke-width="0.11" points="471.89,-31.42 478.99,-23.56 468.54,-25.28 471.89,-31.42"/>
</g>
<!-- &#45;9&#45;&gt;4 -->
<g id="edge44" class="edge">
<title>&#45;9&#45;&gt;4</title>
<path fill="none" stroke="green" stroke-width="0.14" d="M365.53,-69.08C368.75,-67.92 372.24,-66.71 375.5,-65.7 436.87,-46.7 456.02,-53.98 515.5,-29.7 516.36,-29.35 517.22,-28.97 518.09,-28.58"/>
<polygon fill="green" stroke="green" stroke-width="0.14" points="519.89,-31.59 527.12,-23.85 516.64,-25.38 519.89,-31.59"/>
</g>
<!-- &#45;10 -->
<g id="node10" class="node">
<title>&#45;10</title>
<polygon fill="lightgray" stroke="black" points="413,-83.7 384,-83.7 384,-65.7 413,-65.7 413,-83.7"/>
<text text-anchor="middle" x="398.5" y="-72.5" font-family="Times New Roman,serif" font-size="9.00">&#45;10</text>
</g>
<!-- &#45;10&#45;&gt;0 -->
<g id="edge45" class="edge">
<title>&#45;10&#45;&gt;0</title>
<path fill="none" stroke="green" stroke-width="0.32" d="M398.08,-65.65C397.74,-59.05 397.24,-49.33 396.76,-40.23"/>
<polygon fill="green" stroke="green" stroke-width="0.32" points="400.25,-39.86 396.24,-30.06 393.26,-40.22 400.25,-39.86"/>
</g>
<!-- &#45;10&#45;&gt;1 -->
<g id="edge46" class="edge">
<title>&#45;10&#45;&gt;1</title>
<path fill="none" stroke="green" stroke-width="0.23" d="M391.41,-65.65C384.25,-57.54 372.96,-44.73 363.62,-34.13"/>
<polygon fill="green" stroke="green" stroke-width="0.23" points="366.2,-31.76 356.96,-26.58 360.95,-36.39 366.2,-31.76"/>
</g>
<!-- &#45;10&#45;&gt;2 -->
<g id="edge47" class="edge">
<title>&#45;10&#45;&gt;2</title>
<path fill="none" stroke="green" stroke-width="0.18" d="M404.76,-65.65C410.87,-57.8 420.41,-45.53 428.49,-35.14"/>
<polygon fill="green" stroke="green" stroke-width="0.18" points="431.45,-37.04 434.83,-26.99 425.93,-32.74 431.45,-37.04"/>
</g>
<!-- &#45;10&#45;&gt;3 -->
<g id="edge48" class="edge">
<title>&#45;10&#45;&gt;3</title>
<path fill="none" stroke="green" stroke-width="0.22" d="M411.43,-65.65C426.73,-56.14 452.41,-40.16 470.56,-28.87"/>
<polygon fill="green" stroke="green" stroke-width="0.22" points="472.63,-31.71 479.27,-23.46 468.93,-25.77 472.63,-31.71"/>
</g>
<!-- &#45;10&#45;&gt;4 -->
<g id="edge49" class="edge">
<title>&#45;10&#45;&gt;4</title>
<path fill="none" stroke="green" stroke-width="0.14" d="M413.25,-68.49C440.27,-58.9 496.66,-38.6 515.5,-29.7 516.34,-29.3 517.18,-28.89 518.03,-28.46"/>
<polygon fill="green" stroke="green" stroke-width="0.14" points="519.89,-31.43 527,-23.58 516.55,-25.29 519.89,-31.43"/>
</g>
<!-- &#45;11 -->
<g id="node11" class="node">
<title>&#45;11</title>
<polygon fill="lightgray" stroke="black" points="460,-83.7 431,-83.7 431,-65.7 460,-65.7 460,-83.7"/>
<text text-anchor="middle" x="445.5" y="-72.5" font-family="Times New Roman,serif" font-size="9.00">&#45;11</text>
</g>
<!-- &#45;11&#45;&gt;0 -->
<g id="edge50" class="edge">
<title>&#45;11&#45;&gt;0</title>
<path fill="none" stroke="red" stroke-width="0.35" d="M438.55,-65.65C431.6,-57.62 420.68,-44.98 411.57,-34.45"/>
<polygon fill="red" stroke="red" stroke-width="0.35" points="413.96,-31.85 404.77,-26.58 408.66,-36.43 413.96,-31.85"/>
</g>
<!-- &#45;11&#45;&gt;1 -->
<g id="edge51" class="edge">
<title>&#45;11&#45;&gt;1</title>
<path fill="none" stroke="red" stroke-width="0.2" d="M431.87,-65.65C415.51,-56 387.88,-39.69 368.72,-28.38"/>
<polygon fill="red" stroke="red" stroke-width="0.2" points="370.47,-25.34 360.08,-23.28 366.91,-31.37 370.47,-25.34"/>
</g>
<!-- &#45;11&#45;&gt;2 -->
<g id="edge52" class="edge">
<title>&#45;11&#45;&gt;2</title>
<path fill="none" stroke="green" stroke-width="0.1" d="M445.22,-65.65C444.99,-59.05 444.66,-49.33 444.34,-40.23"/>
<polygon fill="green" stroke="green" stroke-width="0.1" points="447.83,-39.93 443.99,-30.06 440.84,-40.17 447.83,-39.93"/>
</g>
<!-- &#45;11&#45;&gt;3 -->
<g id="edge53" class="edge">
<title>&#45;11&#45;&gt;3</title>
<path fill="none" stroke="green" stroke-width="0.32" d="M451.9,-65.65C458.21,-57.72 468.09,-45.29 476.4,-34.83"/>
<polygon fill="green" stroke="green" stroke-width="0.32" points="479.15,-37 482.64,-26.99 473.67,-32.64 479.15,-37"/>
</g>
<!-- &#45;11&#45;&gt;4 -->
<g id="edge54" class="edge">
<title>&#45;11&#45;&gt;4</title>
<path fill="none" stroke="red" stroke-width="0.58" d="M458.57,-65.65C474.11,-56.09 500.23,-40.01 518.59,-28.72"/>
<polygon fill="red" stroke="red" stroke-width="0.58" points="520.46,-31.68 527.14,-23.46 516.79,-25.72 520.46,-31.68"/>
</g>
<!-- &#45;12 -->
<g id="node12" class="node">
<title>&#45;12</title>
<polygon fill="lightgray" stroke="black" points="29,-83.7 0,-83.7 0,-65.7 29,-65.7 29,-83.7"/>
<text text-anchor="middle" x="14.5" y="-72.5" font-family="Times New Roman,serif" font-size="9.00">&#45;12</text>
</g>
<!-- &#45;12&#45;&gt;0 -->
<g id="edge55" class="edge">
<title>&#45;12&#45;&gt;0</title>
<path fill="none" stroke="red" stroke-width="0.38" d="M29.08,-68.29C32.16,-67.3 35.41,-66.37 38.5,-65.7 183.94,-33.98 229.99,-75.89 371.5,-29.7 372.38,-29.41 373.26,-29.09 374.15,-28.74"/>
<polygon fill="red" stroke="red" stroke-width="0.38" points="375.86,-31.8 383.26,-24.22 372.74,-25.53 375.86,-31.8"/>
</g>
<!-- &#45;12&#45;&gt;1 -->
<g id="edge56" class="edge">
<title>&#45;12&#45;&gt;1</title>
<path fill="none" stroke="red" stroke-width="0.31" d="M29.11,-68.41C32.19,-67.42 35.43,-66.45 38.5,-65.7 142.7,-40.11 269.99,-24.34 322.76,-18.46"/>
<polygon fill="red" stroke="red" stroke-width="0.31" points="323.29,-21.93 332.85,-17.36 322.53,-14.97 323.29,-21.93"/>
</g>
<!-- &#45;12&#45;&gt;2 -->
<g id="edge57" class="edge">
<title>&#45;12&#45;&gt;2</title>
<path fill="none" stroke="green" stroke-width="0.19" d="M29.08,-68.25C32.15,-67.27 35.41,-66.35 38.5,-65.7 204.92,-30.58 257.46,-81.39 419.5,-29.7 420.55,-29.36 421.61,-28.97 422.67,-28.55"/>
<polygon fill="green" stroke="green" stroke-width="0.19" points="424.41,-31.59 431.76,-23.96 421.26,-25.34 424.41,-31.59"/>
</g>
<!-- &#45;12&#45;&gt;3 -->
<g id="edge58" class="edge">
<title>&#45;12&#45;&gt;3</title>
<path fill="none" stroke="green" stroke-width="0.2" d="M29.07,-68.23C32.15,-67.25 35.4,-66.34 38.5,-65.7 225.92,-27.17 284.91,-86.89 467.5,-29.7 468.56,-29.37 469.62,-28.98 470.67,-28.56"/>
<polygon fill="green" stroke="green" stroke-width="0.2" points="472.41,-31.61 479.77,-23.99 469.26,-25.35 472.41,-31.61"/>
</g>
<!-- &#45;13 -->
<g id="node13" class="node">
<title>&#45;13</title>
<polygon fill="lightgray" stroke="black" points="879,-83.7 850,-83.7 850,-65.7 879,-65.7 879,-83.7"/>
<text text-anchor="middle" x="864.5" y="-72.5" font-family="Times New Roman,serif" font-size="9.00">&#45;13</text>
</g>
<!-- &#45;13&#45;&gt;0 -->
<g id="edge59" class="edge">
<title>&#45;13&#45;&gt;0</title>
<path fill="none" stroke="red" stroke-width="0.28" d="M849.93,-68.23C846.85,-67.25 843.6,-66.34 840.5,-65.7 656.58,-27.74 598.66,-85.97 419.5,-29.7 418.44,-29.37 417.38,-28.98 416.33,-28.56"/>
<polygon fill="red" stroke="red" stroke-width="0.28" points="417.74,-25.35 407.23,-23.99 414.59,-31.6 417.74,-25.35"/>
</g>
<!-- &#45;13&#45;&gt;2 -->
<g id="edge60" class="edge">
<title>&#45;13&#45;&gt;2</title>
<path fill="none" stroke="red" stroke-width="0.5" d="M849.92,-68.26C846.85,-67.27 843.59,-66.35 840.5,-65.7 677.58,-31.15 626.12,-80.47 467.5,-29.7 466.45,-29.36 465.39,-28.97 464.33,-28.54"/>
<polygon fill="red" stroke="red" stroke-width="0.5" points="465.74,-25.34 455.24,-23.96 462.59,-31.59 465.74,-25.34"/>
</g>
<!-- &#45;13&#45;&gt;3 -->
<g id="edge61" class="edge">
<title>&#45;13&#45;&gt;3</title>
<path fill="none" stroke="red" stroke-width="0.24" d="M849.91,-68.29C846.84,-67.31 843.59,-66.38 840.5,-65.7 698.55,-34.55 653.59,-74.98 515.5,-29.7 514.62,-29.41 513.74,-29.09 512.86,-28.74"/>
<polygon fill="red" stroke="red" stroke-width="0.24" points="514.26,-25.52 503.74,-24.21 511.14,-31.79 514.26,-25.52"/>
</g>
<!-- &#45;13&#45;&gt;4 -->
<g id="edge62" class="edge">
<title>&#45;13&#45;&gt;4</title>
<path fill="none" stroke="green" stroke-width="0.95" d="M849.88,-68.42C846.81,-67.42 843.57,-66.46 840.5,-65.7 739.46,-40.66 616.17,-24.69 564.33,-18.62"/>
<polygon fill="green" stroke="green" stroke-width="0.95" points="564.72,-15.14 554.39,-17.47 563.92,-22.09 564.72,-15.14"/>
</g>
<!-- &#45;14 -->
<g id="node14" class="node">
<title>&#45;14</title>
<polygon fill="lightgray" stroke="black" points="507,-83.7 478,-83.7 478,-65.7 507,-65.7 507,-83.7"/>
<text text-anchor="middle" x="492.5" y="-72.5" font-family="Times New Roman,serif" font-size="9.00">&#45;14</text>
</g>
<!-- &#45;14&#45;&gt;0 -->
<g id="edge63" class="edge">
<title>&#45;14&#45;&gt;0</title>
<path fill="none" stroke="red" stroke-width="0.16" d="M479.01,-65.65C462.89,-56.04 435.72,-39.84 416.76,-28.53"/>
<polygon fill="red" stroke="red" stroke-width="0.16" points="418.33,-25.39 407.95,-23.28 414.75,-31.4 418.33,-25.39"/>
</g>
<!-- &#45;14&#45;&gt;1 -->
<g id="edge64" class="edge">
<title>&#45;14&#45;&gt;1</title>
<path fill="none" stroke="red" stroke-width="0.35" d="M477.77,-68.51C447.75,-57.9 381.48,-34.35 371.5,-29.7 370.66,-29.31 369.81,-28.9 368.96,-28.47"/>
<polygon fill="red" stroke="red" stroke-width="0.35" points="370.44,-25.29 359.98,-23.6 367.11,-31.45 370.44,-25.29"/>
</g>
<!-- &#45;14&#45;&gt;2 -->
<g id="edge65" class="edge">
<title>&#45;14&#45;&gt;2</title>
<path fill="none" stroke="red" stroke-width="0.13" d="M485.69,-65.65C478.96,-57.72 468.44,-45.29 459.58,-34.83"/>
<polygon fill="red" stroke="red" stroke-width="0.13" points="462.07,-32.36 452.94,-26.99 456.73,-36.89 462.07,-32.36"/>
</g>
<!-- &#45;14&#45;&gt;3 -->
<g id="edge66" class="edge">
<title>&#45;14&#45;&gt;3</title>
<path fill="none" stroke="green" stroke-width="0.19" d="M492.36,-65.65C492.25,-59.05 492.08,-49.33 491.92,-40.23"/>
<polygon fill="green" stroke="green" stroke-width="0.19" points="495.42,-39.99 491.75,-30.06 488.42,-40.12 495.42,-39.99"/>
</g>
<!-- &#45;14&#45;&gt;4 -->
<g id="edge67" class="edge">
<title>&#45;14&#45;&gt;4</title>
<path fill="none" stroke="green" stroke-width="0.53" d="M499.04,-65.65C505.48,-57.72 515.58,-45.29 524.08,-34.83"/>
<polygon fill="green" stroke="green" stroke-width="0.53" points="526.86,-36.96 530.44,-26.99 521.42,-32.55 526.86,-36.96"/>
</g>
<!-- &#45;15 -->
<g id="node15" class="node">
<title>&#45;15</title>
<polygon fill="lightgray" stroke="black" points="554,-83.7 525,-83.7 525,-65.7 554,-65.7 554,-83.7"/>
<text text-anchor="middle" x="539.5" y="-72.5" font-family="Times New Roman,serif" font-size="9.00">&#45;15</text>
</g>
<!-- &#45;15&#45;&gt;0 -->
<g id="edge68" class="edge">
<title>&#45;15&#45;&gt;0</title>
<path fill="none" stroke="green" stroke-width="0.29" d="M524.89,-68.5C495.12,-57.89 429.4,-34.33 419.5,-29.7 418.66,-29.31 417.81,-28.89 416.96,-28.47"/>
<polygon fill="green" stroke="green" stroke-width="0.29" points="418.45,-25.29 407.99,-23.6 415.11,-31.44 418.45,-25.29"/>
</g>
<!-- &#45;15&#45;&gt;1 -->
<g id="edge69" class="edge">
<title>&#45;15&#45;&gt;1</title>
<path fill="none" stroke="green" stroke-width="0.34" d="M524.96,-68.42C522.17,-67.47 519.26,-66.52 516.5,-65.7 452.85,-46.77 433.08,-54.54 371.5,-29.7 370.64,-29.35 369.78,-28.98 368.91,-28.59"/>
<polygon fill="green" stroke="green" stroke-width="0.34" points="370.35,-25.39 359.87,-23.87 367.12,-31.6 370.35,-25.39"/>
</g>
<!-- &#45;15&#45;&gt;2 -->
<g id="edge70" class="edge">
<title>&#45;15&#45;&gt;2</title>
<path fill="none" stroke="red" stroke-width="0.49" d="M526.15,-65.65C510.2,-56.04 483.31,-39.84 464.54,-28.53"/>
<polygon fill="red" stroke="red" stroke-width="0.49" points="466.19,-25.44 455.82,-23.28 462.58,-31.43 466.19,-25.44"/>
</g>
<!-- &#45;15&#45;&gt;3 -->
<g id="edge71" class="edge">
<title>&#45;15&#45;&gt;3</title>
<path fill="none" stroke="green" stroke-width="0.32" d="M532.83,-65.65C526.24,-57.72 515.93,-45.29 507.25,-34.83"/>
<polygon fill="green" stroke="green" stroke-width="0.32" points="509.83,-32.46 500.75,-26.99 504.44,-36.93 509.83,-32.46"/>
</g>
<!-- &#45;15&#45;&gt;4 -->
<g id="edge72" class="edge">
<title>&#45;15&#45;&gt;4</title>
<path fill="none" stroke="green" stroke-width="0.85" d="M539.5,-65.65C539.5,-59.05 539.5,-49.33 539.5,-40.23"/>
<polygon fill="green" stroke="green" stroke-width="0.85" points="543,-40.06 539.5,-30.06 536,-40.06 543,-40.06"/>
</g>
<!-- &#45;16 -->
<g id="node16" class="node">
<title>&#45;16</title>
<polygon fill="lightgray" stroke="black" points="601,-83.7 572,-83.7 572,-65.7 601,-65.7 601,-83.7"/>
<text text-anchor="middle" x="586.5" y="-72.5" font-family="Times New Roman,serif" font-size="9.00">&#45;16</text>
</g>
<!-- &#45;16&#45;&gt;0 -->
<g id="edge73" class="edge">
<title>&#45;16&#45;&gt;0</title>
<path fill="none" stroke="red" stroke-width="0.62" d="M571.96,-68.42C569.17,-67.47 566.25,-66.52 563.5,-65.7 500.28,-46.84 480.66,-54.42 419.5,-29.7 418.64,-29.35 417.78,-28.98 416.91,-28.58"/>
<polygon fill="red" stroke="red" stroke-width="0.62" points="418.36,-25.39 407.87,-23.86 415.11,-31.6 418.36,-25.39"/>
</g>
<!-- &#45;16&#45;&gt;1 -->
<g id="edge74" class="edge">
<title>&#45;16&#45;&gt;1</title>
<path fill="none" stroke="red" stroke-width="0.3" d="M571.51,-68.12C568.86,-67.24 566.11,-66.39 563.5,-65.7 479.6,-43.38 452.93,-59.82 371.5,-29.7 370.63,-29.38 369.76,-29.03 368.88,-28.65"/>
<polygon fill="red" stroke="red" stroke-width="0.3" points="370.31,-25.45 359.81,-24.02 367.13,-31.68 370.31,-25.45"/>
</g>
<!-- &#45;16&#45;&gt;2 -->
<g id="edge75" class="edge">
<title>&#45;16&#45;&gt;2</title>
<path fill="none" stroke="red" stroke-width="0.31" d="M571.56,-68.34C541.84,-57.64 477.27,-34.28 467.5,-29.7 466.66,-29.31 465.81,-28.89 464.96,-28.47"/>
<polygon fill="red" stroke="red" stroke-width="0.31" points="466.45,-25.29 455.99,-23.59 463.11,-31.44 466.45,-25.29"/>
</g>
<!-- &#45;16&#45;&gt;3 -->
<g id="edge76" class="edge">
<title>&#45;16&#45;&gt;3</title>
<path fill="none" stroke="red" stroke-width="0.34" d="M573.29,-65.65C557.59,-56.09 531.18,-40.01 512.63,-28.72"/>
<polygon fill="red" stroke="red" stroke-width="0.34" points="514.35,-25.67 503.99,-23.46 510.71,-31.65 514.35,-25.67"/>
</g>
<!-- &#45;16&#45;&gt;4 -->
<g id="edge77" class="edge">
<title>&#45;16&#45;&gt;4</title>
<path fill="none" stroke="green" stroke-width="0.15" d="M579.96,-65.65C573.52,-57.72 563.42,-45.29 554.92,-34.83"/>
<polygon fill="green" stroke="green" stroke-width="0.15" points="557.58,-32.55 548.56,-26.99 552.14,-36.96 557.58,-32.55"/>
</g>
<!-- &#45;17 -->
<g id="node17" class="node">
<title>&#45;17</title>
<polygon fill="lightgray" stroke="black" points="648,-83.7 619,-83.7 619,-65.7 648,-65.7 648,-83.7"/>
<text text-anchor="middle" x="633.5" y="-72.5" font-family="Times New Roman,serif" font-size="9.00">&#45;17</text>
</g>
<!-- &#45;17&#45;&gt;0 -->
<g id="edge78" class="edge">
<title>&#45;17&#45;&gt;0</title>
<path fill="none" stroke="red" stroke-width="0.25" d="M618.51,-68.12C615.86,-67.24 613.11,-66.4 610.5,-65.7 527.03,-43.45 500.5,-59.71 419.5,-29.7 418.63,-29.38 417.76,-29.03 416.89,-28.65"/>
<polygon fill="red" stroke="red" stroke-width="0.25" points="418.31,-25.45 407.81,-24.01 415.13,-31.68 418.31,-25.45"/>
</g>
<!-- &#45;17&#45;&gt;1 -->
<g id="edge79" class="edge">
<title>&#45;17&#45;&gt;1</title>
<path fill="none" stroke="red" stroke-width="0.4" d="M618.53,-68.04C615.88,-67.17 613.13,-66.35 610.5,-65.7 506.21,-39.94 472.9,-65.16 371.5,-29.7 370.63,-29.39 369.75,-29.05 368.87,-28.69"/>
<polygon fill="red" stroke="red" stroke-width="0.4" points="370.28,-25.48 359.78,-24.11 367.13,-31.73 370.28,-25.48"/>
</g>
<!-- &#45;17&#45;&gt;2 -->
<g id="edge80" class="edge">
<title>&#45;17&#45;&gt;2</title>
<path fill="none" stroke="red" stroke-width="0.1" d="M618.96,-68.43C616.17,-67.47 613.25,-66.52 610.5,-65.7 547.71,-46.91 528.24,-54.31 467.5,-29.7 466.64,-29.35 465.78,-28.98 464.91,-28.58"/>
<polygon fill="red" stroke="red" stroke-width="0.1" points="466.36,-25.39 455.87,-23.86 463.11,-31.59 466.36,-25.39"/>
</g>
<!-- &#45;17&#45;&gt;3 -->
<g id="edge81" class="edge">
<title>&#45;17&#45;&gt;3</title>
<path fill="none" stroke="red" stroke-width="0.21" d="M618.62,-68.5C591.37,-58.92 534.49,-38.64 515.5,-29.7 514.66,-29.3 513.81,-28.89 512.96,-28.46"/>
<polygon fill="red" stroke="red" stroke-width="0.21" points="514.45,-25.29 503.99,-23.58 511.11,-31.44 514.45,-25.29"/>
</g>
<!-- &#45;17&#45;&gt;4 -->
<g id="edge82" class="edge">
<title>&#45;17&#45;&gt;4</title>
<path fill="none" stroke="red" stroke-width="0.34" d="M620.43,-65.65C604.89,-56.09 578.77,-40.01 560.41,-28.72"/>
<polygon fill="red" stroke="red" stroke-width="0.34" points="562.21,-25.72 551.86,-23.46 558.54,-31.68 562.21,-25.72"/>
</g>
<!-- &#45;18 -->
<g id="node18" class="node">
<title>&#45;18</title>
<polygon fill="lightgray" stroke="black" points="695,-83.7 666,-83.7 666,-65.7 695,-65.7 695,-83.7"/>
<text text-anchor="middle" x="680.5" y="-72.5" font-family="Times New Roman,serif" font-size="9.00">&#45;18</text>
</g>
<!-- &#45;18&#45;&gt;0 -->
<g id="edge83" class="edge">
<title>&#45;18&#45;&gt;0</title>
<path fill="none" stroke="red" stroke-width="0.2" d="M665.53,-68.04C662.88,-67.17 660.13,-66.35 657.5,-65.7 553.65,-40.02 520.47,-65.05 419.5,-29.7 418.63,-29.39 417.75,-29.05 416.87,-28.69"/>
<polygon fill="red" stroke="red" stroke-width="0.2" points="418.28,-25.48 407.78,-24.11 415.13,-31.73 418.28,-25.48"/>
</g>
<!-- &#45;18&#45;&gt;1 -->
<g id="edge84" class="edge">
<title>&#45;18&#45;&gt;1</title>
<path fill="none" stroke="red" stroke-width="0.19" d="M665.54,-67.99C662.89,-67.12 660.13,-66.32 657.5,-65.7 532.76,-36.49 492.94,-70.52 371.5,-29.7 370.62,-29.4 369.74,-29.07 368.86,-28.72"/>
<polygon fill="red" stroke="red" stroke-width="0.19" points="370.27,-25.51 359.76,-24.17 367.14,-31.77 370.27,-25.51"/>
</g>
<!-- &#45;18&#45;&gt;2 -->
<g id="edge85" class="edge">
<title>&#45;18&#45;&gt;2</title>
<path fill="none" stroke="green" stroke-width="0.7" stroke-dasharray="1,5" d="M665.51,-68.13C662.86,-67.25 660.11,-66.4 657.5,-65.7 574.46,-43.52 548.08,-59.6 467.5,-29.7 466.63,-29.38 465.76,-29.02 464.89,-28.65"/>
<polygon fill="green" stroke="green" stroke-width="0.7" points="466.31,-25.45 455.81,-24.01 463.12,-31.68 466.31,-25.45"/>
</g>
<!-- &#45;18&#45;&gt;3 -->
<g id="edge86" class="edge">
<title>&#45;18&#45;&gt;3</title>
<path fill="none" stroke="red" stroke-width="0.25" d="M665.96,-68.43C663.17,-67.48 660.25,-66.52 657.5,-65.7 595.14,-46.99 575.82,-54.2 515.5,-29.7 514.64,-29.35 513.78,-28.98 512.91,-28.58"/>
<polygon fill="red" stroke="red" stroke-width="0.25" points="514.36,-25.39 503.87,-23.86 511.11,-31.59 514.36,-25.39"/>
</g>
<!-- &#45;18&#45;&gt;4 -->
<g id="edge87" class="edge">
<title>&#45;18&#45;&gt;4</title>
<path fill="none" stroke="red" stroke-width="0.59" d="M665.94,-67.73C641.39,-57.65 591.6,-37.22 562.35,-25.23"/>
<polygon fill="red" stroke="red" stroke-width="0.59" points="563.52,-21.92 552.94,-21.36 560.86,-28.4 563.52,-21.92"/>
</g>
<!-- &#45;19 -->
<g id="node19" class="node">
<title>&#45;19</title>
<polygon fill="lightgray" stroke="black" points="742,-83.7 713,-83.7 713,-65.7 742,-65.7 742,-83.7"/>
<text text-anchor="middle" x="727.5" y="-72.5" font-family="Times New Roman,serif" font-size="9.00">&#45;19</text>
</g>
<!-- &#45;19&#45;&gt;0 -->
<g id="edge88" class="edge">
<title>&#45;19&#45;&gt;0</title>
<path fill="none" stroke="red" stroke-width="0.31" d="M712.54,-67.99C709.89,-67.12 707.13,-66.32 704.5,-65.7 580.19,-36.57 540.51,-70.41 419.5,-29.7 418.62,-29.4 417.74,-29.07 416.86,-28.72"/>
<polygon fill="red" stroke="red" stroke-width="0.31" points="418.27,-25.51 407.76,-24.17 415.14,-31.77 418.27,-25.51"/>
</g>
<!-- &#45;19&#45;&gt;1 -->
<g id="edge89" class="edge">
<title>&#45;19&#45;&gt;1</title>
<path fill="none" stroke="red" stroke-width="0.47" d="M712.55,-67.95C709.9,-67.09 707.14,-66.29 704.5,-65.7 559.27,-33.04 513.01,-75.89 371.5,-29.7 370.62,-29.41 369.74,-29.09 368.85,-28.74"/>
<polygon fill="red" stroke="red" stroke-width="0.47" points="370.26,-25.53 359.74,-24.22 367.14,-31.8 370.26,-25.53"/>
</g>
<!-- &#45;19&#45;&gt;2 -->
<g id="edge90" class="edge">
<title>&#45;19&#45;&gt;2</title>
<path fill="none" stroke="red" stroke-width="0.21" d="M712.53,-68.05C709.88,-67.17 707.13,-66.35 704.5,-65.7 601.08,-40.09 568.05,-64.93 467.5,-29.7 466.63,-29.39 465.75,-29.05 464.87,-28.69"/>
<polygon fill="red" stroke="red" stroke-width="0.21" points="466.29,-25.48 455.78,-24.11 463.13,-31.73 466.29,-25.48"/>
</g>
<!-- &#45;19&#45;&gt;3 -->
<g id="edge91" class="edge">
<title>&#45;19&#45;&gt;3</title>
<path fill="none" stroke="green" stroke-width="0.72" d="M713,-68.29C710.2,-67.35 707.28,-66.44 704.5,-65.7 621.9,-43.59 595.65,-59.49 515.5,-29.7 514.63,-29.38 513.76,-29.02 512.89,-28.65"/>
<polygon fill="green" stroke="green" stroke-width="0.72" points="514.31,-25.45 503.81,-24.01 511.12,-31.68 514.31,-25.45"/>
</g>
<!-- &#45;19&#45;&gt;4 -->
<g id="edge92" class="edge">
<title>&#45;19&#45;&gt;4</title>
<path fill="none" stroke="red" stroke-width="0.28" d="M712.93,-68.53C710.14,-67.57 707.23,-66.59 704.5,-65.7 654.64,-49.5 595.75,-32.13 563.54,-22.77"/>
<polygon fill="red" stroke="red" stroke-width="0.28" points="564.27,-19.34 553.69,-19.92 562.32,-26.06 564.27,-19.34"/>
</g>
<!-- &#45;20 -->
<g id="node20" class="node">
<title>&#45;20</title>
<polygon fill="lightgray" stroke="black" points="789,-83.7 760,-83.7 760,-65.7 789,-65.7 789,-83.7"/>
<text text-anchor="middle" x="774.5" y="-72.5" font-family="Times New Roman,serif" font-size="9.00">&#45;20</text>
</g>
<!-- &#45;20&#45;&gt;0 -->
<g id="edge93" class="edge">
<title>&#45;20&#45;&gt;0</title>
<path fill="none" stroke="red" stroke-width="0.3" d="M759.55,-67.95C756.9,-67.09 754.14,-66.29 751.5,-65.7 606.7,-33.11 560.59,-75.78 419.5,-29.7 418.62,-29.41 417.74,-29.09 416.85,-28.74"/>
<polygon fill="red" stroke="red" stroke-width="0.3" points="418.26,-25.53 407.74,-24.22 415.14,-31.8 418.26,-25.53"/>
</g>
<!-- &#45;20&#45;&gt;1 -->
<g id="edge94" class="edge">
<title>&#45;20&#45;&gt;1</title>
<path fill="none" stroke="green" stroke-width="0.23" d="M759.55,-67.92C756.9,-67.06 754.14,-66.27 751.5,-65.7 585.75,-29.57 533.11,-81.27 371.5,-29.7 370.45,-29.36 369.39,-28.97 368.33,-28.55"/>
<polygon fill="green" stroke="green" stroke-width="0.23" points="369.74,-25.34 359.24,-23.96 366.59,-31.59 369.74,-25.34"/>
</g>
<!-- &#45;20&#45;&gt;2 -->
<g id="edge95" class="edge">
<title>&#45;20&#45;&gt;2</title>
<path fill="none" stroke="green" stroke-width="0.2" d="M759.54,-67.99C756.89,-67.13 754.13,-66.32 751.5,-65.7 627.63,-36.64 588.08,-70.29 467.5,-29.7 466.62,-29.4 465.74,-29.07 464.86,-28.72"/>
<polygon fill="green" stroke="green" stroke-width="0.2" points="466.27,-25.51 455.76,-24.17 463.14,-31.77 466.27,-25.51"/>
</g>
<!-- &#45;20&#45;&gt;3 -->
<g id="edge96" class="edge">
<title>&#45;20&#45;&gt;3</title>
<path fill="none" stroke="green" stroke-width="0.21" d="M759.53,-68.05C756.88,-67.18 754.13,-66.35 751.5,-65.7 648.52,-40.16 615.62,-64.82 515.5,-29.7 514.63,-29.39 513.75,-29.05 512.87,-28.69"/>
<polygon fill="green" stroke="green" stroke-width="0.21" points="514.29,-25.48 503.78,-24.1 511.13,-31.73 514.29,-25.48"/>
</g>
<!-- &#45;20&#45;&gt;4 -->
<g id="edge97" class="edge">
<title>&#45;20&#45;&gt;4</title>
<path fill="none" stroke="green" stroke-width="0.47" d="M759.97,-68.39C757.18,-67.44 754.26,-66.5 751.5,-65.7 684.32,-46.17 603.5,-28.83 563.85,-20.72"/>
<polygon fill="green" stroke="green" stroke-width="0.47" points="564.53,-17.28 554.03,-18.72 563.13,-24.14 564.53,-17.28"/>
</g>
</g>
</svg>
