<?xml version="1.0" encoding="utf-8" standalone="no"?>
<!DOCTYPE svg PUBLIC "-//W3C//DTD SVG 1.1//EN"
  "http://www.w3.org/Graphics/SVG/1.1/DTD/svg11.dtd">
<svg height="345.6pt" version="1.1" viewBox="0 0 460.8 345.6" width="460.8pt" xmlns="http://www.w3.org/2000/svg" xmlns:xlink="http://www.w3.org/1999/xlink">
 <metadata>
  <rdf:RDF xmlns:cc="http://creativecommons.org/ns#" xmlns:dc="http://purl.org/dc/elements/1.1/" xmlns:rdf="http://www.w3.org/1999/02/22-rdf-syntax-ns#">
   <cc:Work>
    <dc:type rdf:resource="http://purl.org/dc/dcmitype/StillImage"/>
    <dc:date>2021-10-15T15:09:48.098736</dc:date>
    <dc:format>image/svg+xml</dc:format>
    <dc:creator>
     <cc:Agent>
      <dc:title>Matplotlib v3.4.3, https://matplotlib.org/</dc:title>
     </cc:Agent>
    </dc:creator>
   </cc:Work>
  </rdf:RDF>
 </metadata>
 <defs>
  <style type="text/css">*{stroke-linecap:butt;stroke-linejoin:round;}</style>
 </defs>
 <g id="figure_1">
  <g id="patch_1">
   <path d="M 0 345.6 
L 460.8 345.6 
L 460.8 0 
L 0 0 
z
" style="fill:#ffffff;"/>
  </g>
  <g id="axes_1">
   <g id="patch_2">
    <path d="M 57.6 307.584 
L 414.72 307.584 
L 414.72 41.472 
L 57.6 41.472 
z
" style="fill:#ffffff;"/>
   </g>
   <g id="PolyCollection_1">
    <path clip-path="url(#p7169d0405e)" d="M 73.832727 276.684426 
L 73.832727 295.488 
L 80.45833 257.455031 
L 87.083933 237.909545 
L 93.709536 231.99957 
L 100.335139 218.165058 
L 106.960742 219.456034 
L 113.586345 217.018446 
L 120.211948 208.586006 
L 126.837551 209.657837 
L 133.463154 208.180901 
L 140.088757 204.346298 
L 146.71436 197.049725 
L 153.339963 201.838225 
L 159.965566 199.492516 
L 166.591169 204.695363 
L 173.216772 194.777198 
L 179.842375 189.240915 
L 186.467978 198.41397 
L 193.093581 187.659848 
L 199.719184 191.438524 
L 206.344787 188.416959 
L 212.97039 191.649593 
L 219.595993 187.989647 
L 226.221596 187.647918 
L 232.847199 191.677468 
L 239.472801 196.62919 
L 246.098404 192.500046 
L 252.724007 189.899134 
L 259.34961 195.971192 
L 265.975213 198.805962 
L 272.600816 187.359856 
L 279.226419 189.917248 
L 285.852022 197.951309 
L 292.477625 191.127344 
L 299.103228 188.12058 
L 305.728831 195.589341 
L 312.354434 194.658273 
L 318.980037 194.595474 
L 325.60564 192.975321 
L 332.231243 197.957553 
L 338.856846 189.43793 
L 345.482449 185.743876 
L 352.108052 198.370324 
L 358.733655 190.613434 
L 365.359258 197.265018 
L 371.984861 194.558558 
L 378.610464 192.593949 
L 385.236067 201.030895 
L 391.86167 190.988534 
L 398.487273 191.409028 
L 398.487273 156.891187 
L 398.487273 156.891187 
L 391.86167 151.15078 
L 385.236067 156.80558 
L 378.610464 163.702262 
L 371.984861 163.07177 
L 365.359258 164.852153 
L 358.733655 163.421677 
L 352.108052 160.450908 
L 345.482449 165.248252 
L 338.856846 164.472555 
L 332.231243 166.7025 
L 325.60564 169.834186 
L 318.980037 158.889565 
L 312.354434 162.428509 
L 305.728831 158.369414 
L 299.103228 161.557603 
L 292.477625 159.350267 
L 285.852022 158.459085 
L 279.226419 161.979732 
L 272.600816 165.72231 
L 265.975213 165.393977 
L 259.34961 163.743541 
L 252.724007 166.837084 
L 246.098404 164.055136 
L 239.472801 161.393184 
L 232.847199 170.975873 
L 226.221596 158.402972 
L 219.595993 162.071257 
L 212.97039 168.338548 
L 206.344787 166.541541 
L 199.719184 161.127219 
L 193.093581 165.979848 
L 186.467978 162.729774 
L 179.842375 172.592469 
L 173.216772 183.637362 
L 166.591169 180.083479 
L 159.965566 183.504491 
L 153.339963 178.057228 
L 146.71436 168.849508 
L 140.088757 177.184509 
L 133.463154 181.883186 
L 126.837551 180.496596 
L 120.211948 180.883297 
L 113.586345 181.857104 
L 106.960742 179.300447 
L 100.335139 183.064235 
L 93.709536 191.079309 
L 87.083933 198.672548 
L 80.45833 233.591122 
L 73.832727 276.684426 
z
" style="fill:#1f77b4;fill-opacity:0.5;"/>
   </g>
   <g id="PolyCollection_2">
    <path clip-path="url(#p7169d0405e)" d="M 73.832727 53.568 
L 73.832727 143.220941 
L 80.45833 113.925967 
L 87.083933 115.994522 
L 93.709536 115.36912 
L 100.335139 116.940096 
L 106.960742 100.812419 
L 113.586345 100.022528 
L 120.211948 100.54303 
L 126.837551 99.141474 
L 133.463154 98.732316 
L 140.088757 98.910538 
L 146.71436 99.141474 
L 153.339963 99.149915 
L 159.965566 100.064822 
L 166.591169 98.732316 
L 173.216772 100.049568 
L 179.842375 99.070161 
L 186.467978 100.049568 
L 193.093581 98.946169 
L 199.719184 98.844931 
L 206.344787 98.946169 
L 212.97039 98.946169 
L 219.595993 100.079939 
L 226.221596 99.149915 
L 232.847199 99.141474 
L 239.472801 99.141474 
L 246.098404 99.149915 
L 252.724007 99.971082 
L 259.34961 98.910538 
L 265.975213 99.888479 
L 272.600816 100.124496 
L 279.226419 99.115559 
L 285.852022 100.54303 
L 292.477625 98.957546 
L 299.103228 100.374063 
L 305.728831 100.374063 
L 312.354434 98.946169 
L 318.980037 99.070161 
L 325.60564 98.946169 
L 332.231243 99.141474 
L 338.856846 98.910538 
L 345.482449 98.946169 
L 352.108052 98.844931 
L 358.733655 99.115559 
L 365.359258 98.946169 
L 371.984861 100.068614 
L 378.610464 99.149915 
L 385.236067 98.957546 
L 391.86167 100.67197 
L 398.487273 98.946169 
L 398.487273 97.842771 
L 398.487273 97.842771 
L 391.86167 96.116971 
L 385.236067 97.831395 
L 378.610464 97.639025 
L 371.984861 96.720326 
L 365.359258 97.842771 
L 358.733655 97.673382 
L 352.108052 97.94401 
L 345.482449 97.842771 
L 338.856846 97.878403 
L 332.231243 97.647466 
L 325.60564 97.842771 
L 318.980037 97.71878 
L 312.354434 97.842771 
L 305.728831 96.414877 
L 299.103228 96.414877 
L 292.477625 97.831395 
L 285.852022 96.245911 
L 279.226419 97.673382 
L 272.600816 96.664444 
L 265.975213 96.900462 
L 259.34961 97.878403 
L 252.724007 96.817859 
L 246.098404 97.639025 
L 239.472801 97.647466 
L 232.847199 97.647466 
L 226.221596 97.639025 
L 219.595993 96.709002 
L 212.97039 97.842771 
L 206.344787 97.842771 
L 199.719184 97.94401 
L 193.093581 97.842771 
L 186.467978 96.739373 
L 179.842375 97.71878 
L 173.216772 96.739373 
L 166.591169 98.056625 
L 159.965566 96.724118 
L 153.339963 97.639025 
L 146.71436 97.647466 
L 140.088757 97.878403 
L 133.463154 98.056625 
L 126.837551 97.647466 
L 120.211948 96.245911 
L 113.586345 96.766413 
L 106.960742 95.976522 
L 100.335139 79.848845 
L 93.709536 81.419821 
L 87.083933 80.794419 
L 80.45833 82.862973 
L 73.832727 53.568 
z
" style="fill:#ff7f0e;fill-opacity:0.5;"/>
   </g>
   <g id="matplotlib.axis_1">
    <g id="xtick_1">
     <g id="line2d_1">
      <path clip-path="url(#p7169d0405e)" d="M 73.832727 307.584 
L 73.832727 41.472 
" style="fill:none;stroke:#b0b0b0;stroke-linecap:square;stroke-width:0.8;"/>
     </g>
     <g id="line2d_2">
      <defs>
       <path d="M 0 0 
L 0 3.5 
" id="mf59b804696" style="stroke:#000000;stroke-width:0.8;"/>
      </defs>
      <g>
       <use style="stroke:#000000;stroke-width:0.8;" x="73.832727" xlink:href="#mf59b804696" y="307.584"/>
      </g>
     </g>
     <g id="text_1">
      <!-- 0 -->
      <g transform="translate(70.651477 322.182437)scale(0.1 -0.1)">
       <defs>
        <path d="M 2034 4250 
Q 1547 4250 1301 3770 
Q 1056 3291 1056 2328 
Q 1056 1369 1301 889 
Q 1547 409 2034 409 
Q 2525 409 2770 889 
Q 3016 1369 3016 2328 
Q 3016 3291 2770 3770 
Q 2525 4250 2034 4250 
z
M 2034 4750 
Q 2819 4750 3233 4129 
Q 3647 3509 3647 2328 
Q 3647 1150 3233 529 
Q 2819 -91 2034 -91 
Q 1250 -91 836 529 
Q 422 1150 422 2328 
Q 422 3509 836 4129 
Q 1250 4750 2034 4750 
z
" id="DejaVuSans-30" transform="scale(0.015625)"/>
       </defs>
       <use xlink:href="#DejaVuSans-30"/>
      </g>
     </g>
    </g>
    <g id="xtick_2">
     <g id="line2d_3">
      <path clip-path="url(#p7169d0405e)" d="M 140.088757 307.584 
L 140.088757 41.472 
" style="fill:none;stroke:#b0b0b0;stroke-linecap:square;stroke-width:0.8;"/>
     </g>
     <g id="line2d_4">
      <g>
       <use style="stroke:#000000;stroke-width:0.8;" x="140.088757" xlink:href="#mf59b804696" y="307.584"/>
      </g>
     </g>
     <g id="text_2">
      <!-- 10 -->
      <g transform="translate(133.726257 322.182437)scale(0.1 -0.1)">
       <defs>
        <path d="M 794 531 
L 1825 531 
L 1825 4091 
L 703 3866 
L 703 4441 
L 1819 4666 
L 2450 4666 
L 2450 531 
L 3481 531 
L 3481 0 
L 794 0 
L 794 531 
z
" id="DejaVuSans-31" transform="scale(0.015625)"/>
       </defs>
       <use xlink:href="#DejaVuSans-31"/>
       <use x="63.623047" xlink:href="#DejaVuSans-30"/>
      </g>
     </g>
    </g>
    <g id="xtick_3">
     <g id="line2d_5">
      <path clip-path="url(#p7169d0405e)" d="M 206.344787 307.584 
L 206.344787 41.472 
" style="fill:none;stroke:#b0b0b0;stroke-linecap:square;stroke-width:0.8;"/>
     </g>
     <g id="line2d_6">
      <g>
       <use style="stroke:#000000;stroke-width:0.8;" x="206.344787" xlink:href="#mf59b804696" y="307.584"/>
      </g>
     </g>
     <g id="text_3">
      <!-- 20 -->
      <g transform="translate(199.982287 322.182437)scale(0.1 -0.1)">
       <defs>
        <path d="M 1228 531 
L 3431 531 
L 3431 0 
L 469 0 
L 469 531 
Q 828 903 1448 1529 
Q 2069 2156 2228 2338 
Q 2531 2678 2651 2914 
Q 2772 3150 2772 3378 
Q 2772 3750 2511 3984 
Q 2250 4219 1831 4219 
Q 1534 4219 1204 4116 
Q 875 4013 500 3803 
L 500 4441 
Q 881 4594 1212 4672 
Q 1544 4750 1819 4750 
Q 2544 4750 2975 4387 
Q 3406 4025 3406 3419 
Q 3406 3131 3298 2873 
Q 3191 2616 2906 2266 
Q 2828 2175 2409 1742 
Q 1991 1309 1228 531 
z
" id="DejaVuSans-32" transform="scale(0.015625)"/>
       </defs>
       <use xlink:href="#DejaVuSans-32"/>
       <use x="63.623047" xlink:href="#DejaVuSans-30"/>
      </g>
     </g>
    </g>
    <g id="xtick_4">
     <g id="line2d_7">
      <path clip-path="url(#p7169d0405e)" d="M 272.600816 307.584 
L 272.600816 41.472 
" style="fill:none;stroke:#b0b0b0;stroke-linecap:square;stroke-width:0.8;"/>
     </g>
     <g id="line2d_8">
      <g>
       <use style="stroke:#000000;stroke-width:0.8;" x="272.600816" xlink:href="#mf59b804696" y="307.584"/>
      </g>
     </g>
     <g id="text_4">
      <!-- 30 -->
      <g transform="translate(266.238316 322.182437)scale(0.1 -0.1)">
       <defs>
        <path d="M 2597 2516 
Q 3050 2419 3304 2112 
Q 3559 1806 3559 1356 
Q 3559 666 3084 287 
Q 2609 -91 1734 -91 
Q 1441 -91 1130 -33 
Q 819 25 488 141 
L 488 750 
Q 750 597 1062 519 
Q 1375 441 1716 441 
Q 2309 441 2620 675 
Q 2931 909 2931 1356 
Q 2931 1769 2642 2001 
Q 2353 2234 1838 2234 
L 1294 2234 
L 1294 2753 
L 1863 2753 
Q 2328 2753 2575 2939 
Q 2822 3125 2822 3475 
Q 2822 3834 2567 4026 
Q 2313 4219 1838 4219 
Q 1578 4219 1281 4162 
Q 984 4106 628 3988 
L 628 4550 
Q 988 4650 1302 4700 
Q 1616 4750 1894 4750 
Q 2613 4750 3031 4423 
Q 3450 4097 3450 3541 
Q 3450 3153 3228 2886 
Q 3006 2619 2597 2516 
z
" id="DejaVuSans-33" transform="scale(0.015625)"/>
       </defs>
       <use xlink:href="#DejaVuSans-33"/>
       <use x="63.623047" xlink:href="#DejaVuSans-30"/>
      </g>
     </g>
    </g>
    <g id="xtick_5">
     <g id="line2d_9">
      <path clip-path="url(#p7169d0405e)" d="M 338.856846 307.584 
L 338.856846 41.472 
" style="fill:none;stroke:#b0b0b0;stroke-linecap:square;stroke-width:0.8;"/>
     </g>
     <g id="line2d_10">
      <g>
       <use style="stroke:#000000;stroke-width:0.8;" x="338.856846" xlink:href="#mf59b804696" y="307.584"/>
      </g>
     </g>
     <g id="text_5">
      <!-- 40 -->
      <g transform="translate(332.494346 322.182437)scale(0.1 -0.1)">
       <defs>
        <path d="M 2419 4116 
L 825 1625 
L 2419 1625 
L 2419 4116 
z
M 2253 4666 
L 3047 4666 
L 3047 1625 
L 3713 1625 
L 3713 1100 
L 3047 1100 
L 3047 0 
L 2419 0 
L 2419 1100 
L 313 1100 
L 313 1709 
L 2253 4666 
z
" id="DejaVuSans-34" transform="scale(0.015625)"/>
       </defs>
       <use xlink:href="#DejaVuSans-34"/>
       <use x="63.623047" xlink:href="#DejaVuSans-30"/>
      </g>
     </g>
    </g>
    <g id="xtick_6">
     <g id="line2d_11">
      <path clip-path="url(#p7169d0405e)" d="M 405.112876 307.584 
L 405.112876 41.472 
" style="fill:none;stroke:#b0b0b0;stroke-linecap:square;stroke-width:0.8;"/>
     </g>
     <g id="line2d_12">
      <g>
       <use style="stroke:#000000;stroke-width:0.8;" x="405.112876" xlink:href="#mf59b804696" y="307.584"/>
      </g>
     </g>
     <g id="text_6">
      <!-- 50 -->
      <g transform="translate(398.750376 322.182437)scale(0.1 -0.1)">
       <defs>
        <path d="M 691 4666 
L 3169 4666 
L 3169 4134 
L 1269 4134 
L 1269 2991 
Q 1406 3038 1543 3061 
Q 1681 3084 1819 3084 
Q 2600 3084 3056 2656 
Q 3513 2228 3513 1497 
Q 3513 744 3044 326 
Q 2575 -91 1722 -91 
Q 1428 -91 1123 -41 
Q 819 9 494 109 
L 494 744 
Q 775 591 1075 516 
Q 1375 441 1709 441 
Q 2250 441 2565 725 
Q 2881 1009 2881 1497 
Q 2881 1984 2565 2268 
Q 2250 2553 1709 2553 
Q 1456 2553 1204 2497 
Q 953 2441 691 2322 
L 691 4666 
z
" id="DejaVuSans-35" transform="scale(0.015625)"/>
       </defs>
       <use xlink:href="#DejaVuSans-35"/>
       <use x="63.623047" xlink:href="#DejaVuSans-30"/>
      </g>
     </g>
    </g>
    <g id="text_7">
     <!-- Generation -->
     <g transform="translate(208.267031 335.860562)scale(0.1 -0.1)">
      <defs>
       <path d="M 3809 666 
L 3809 1919 
L 2778 1919 
L 2778 2438 
L 4434 2438 
L 4434 434 
Q 4069 175 3628 42 
Q 3188 -91 2688 -91 
Q 1594 -91 976 548 
Q 359 1188 359 2328 
Q 359 3472 976 4111 
Q 1594 4750 2688 4750 
Q 3144 4750 3555 4637 
Q 3966 4525 4313 4306 
L 4313 3634 
Q 3963 3931 3569 4081 
Q 3175 4231 2741 4231 
Q 1884 4231 1454 3753 
Q 1025 3275 1025 2328 
Q 1025 1384 1454 906 
Q 1884 428 2741 428 
Q 3075 428 3337 486 
Q 3600 544 3809 666 
z
" id="DejaVuSans-47" transform="scale(0.015625)"/>
       <path d="M 3597 1894 
L 3597 1613 
L 953 1613 
Q 991 1019 1311 708 
Q 1631 397 2203 397 
Q 2534 397 2845 478 
Q 3156 559 3463 722 
L 3463 178 
Q 3153 47 2828 -22 
Q 2503 -91 2169 -91 
Q 1331 -91 842 396 
Q 353 884 353 1716 
Q 353 2575 817 3079 
Q 1281 3584 2069 3584 
Q 2775 3584 3186 3129 
Q 3597 2675 3597 1894 
z
M 3022 2063 
Q 3016 2534 2758 2815 
Q 2500 3097 2075 3097 
Q 1594 3097 1305 2825 
Q 1016 2553 972 2059 
L 3022 2063 
z
" id="DejaVuSans-65" transform="scale(0.015625)"/>
       <path d="M 3513 2113 
L 3513 0 
L 2938 0 
L 2938 2094 
Q 2938 2591 2744 2837 
Q 2550 3084 2163 3084 
Q 1697 3084 1428 2787 
Q 1159 2491 1159 1978 
L 1159 0 
L 581 0 
L 581 3500 
L 1159 3500 
L 1159 2956 
Q 1366 3272 1645 3428 
Q 1925 3584 2291 3584 
Q 2894 3584 3203 3211 
Q 3513 2838 3513 2113 
z
" id="DejaVuSans-6e" transform="scale(0.015625)"/>
       <path d="M 2631 2963 
Q 2534 3019 2420 3045 
Q 2306 3072 2169 3072 
Q 1681 3072 1420 2755 
Q 1159 2438 1159 1844 
L 1159 0 
L 581 0 
L 581 3500 
L 1159 3500 
L 1159 2956 
Q 1341 3275 1631 3429 
Q 1922 3584 2338 3584 
Q 2397 3584 2469 3576 
Q 2541 3569 2628 3553 
L 2631 2963 
z
" id="DejaVuSans-72" transform="scale(0.015625)"/>
       <path d="M 2194 1759 
Q 1497 1759 1228 1600 
Q 959 1441 959 1056 
Q 959 750 1161 570 
Q 1363 391 1709 391 
Q 2188 391 2477 730 
Q 2766 1069 2766 1631 
L 2766 1759 
L 2194 1759 
z
M 3341 1997 
L 3341 0 
L 2766 0 
L 2766 531 
Q 2569 213 2275 61 
Q 1981 -91 1556 -91 
Q 1019 -91 701 211 
Q 384 513 384 1019 
Q 384 1609 779 1909 
Q 1175 2209 1959 2209 
L 2766 2209 
L 2766 2266 
Q 2766 2663 2505 2880 
Q 2244 3097 1772 3097 
Q 1472 3097 1187 3025 
Q 903 2953 641 2809 
L 641 3341 
Q 956 3463 1253 3523 
Q 1550 3584 1831 3584 
Q 2591 3584 2966 3190 
Q 3341 2797 3341 1997 
z
" id="DejaVuSans-61" transform="scale(0.015625)"/>
       <path d="M 1172 4494 
L 1172 3500 
L 2356 3500 
L 2356 3053 
L 1172 3053 
L 1172 1153 
Q 1172 725 1289 603 
Q 1406 481 1766 481 
L 2356 481 
L 2356 0 
L 1766 0 
Q 1100 0 847 248 
Q 594 497 594 1153 
L 594 3053 
L 172 3053 
L 172 3500 
L 594 3500 
L 594 4494 
L 1172 4494 
z
" id="DejaVuSans-74" transform="scale(0.015625)"/>
       <path d="M 603 3500 
L 1178 3500 
L 1178 0 
L 603 0 
L 603 3500 
z
M 603 4863 
L 1178 4863 
L 1178 4134 
L 603 4134 
L 603 4863 
z
" id="DejaVuSans-69" transform="scale(0.015625)"/>
       <path d="M 1959 3097 
Q 1497 3097 1228 2736 
Q 959 2375 959 1747 
Q 959 1119 1226 758 
Q 1494 397 1959 397 
Q 2419 397 2687 759 
Q 2956 1122 2956 1747 
Q 2956 2369 2687 2733 
Q 2419 3097 1959 3097 
z
M 1959 3584 
Q 2709 3584 3137 3096 
Q 3566 2609 3566 1747 
Q 3566 888 3137 398 
Q 2709 -91 1959 -91 
Q 1206 -91 779 398 
Q 353 888 353 1747 
Q 353 2609 779 3096 
Q 1206 3584 1959 3584 
z
" id="DejaVuSans-6f" transform="scale(0.015625)"/>
      </defs>
      <use xlink:href="#DejaVuSans-47"/>
      <use x="77.490234" xlink:href="#DejaVuSans-65"/>
      <use x="139.013672" xlink:href="#DejaVuSans-6e"/>
      <use x="202.392578" xlink:href="#DejaVuSans-65"/>
      <use x="263.916016" xlink:href="#DejaVuSans-72"/>
      <use x="305.029297" xlink:href="#DejaVuSans-61"/>
      <use x="366.308594" xlink:href="#DejaVuSans-74"/>
      <use x="405.517578" xlink:href="#DejaVuSans-69"/>
      <use x="433.300781" xlink:href="#DejaVuSans-6f"/>
      <use x="494.482422" xlink:href="#DejaVuSans-6e"/>
     </g>
    </g>
   </g>
   <g id="matplotlib.axis_2">
    <g id="ytick_1">
     <g id="line2d_13">
      <path clip-path="url(#p7169d0405e)" d="M 57.6 256.511852 
L 414.72 256.511852 
" style="fill:none;stroke:#b0b0b0;stroke-linecap:square;stroke-width:0.8;"/>
     </g>
     <g id="line2d_14">
      <defs>
       <path d="M 0 0 
L -3.5 0 
" id="m9d9cd43d1c" style="stroke:#000000;stroke-width:0.8;"/>
      </defs>
      <g>
       <use style="stroke:#000000;stroke-width:0.8;" x="57.6" xlink:href="#m9d9cd43d1c" y="256.511852"/>
      </g>
     </g>
     <g id="text_8">
      <!-- −2 -->
      <g transform="translate(35.857813 260.311071)scale(0.1 -0.1)">
       <defs>
        <path d="M 678 2272 
L 4684 2272 
L 4684 1741 
L 678 1741 
L 678 2272 
z
" id="DejaVuSans-2212" transform="scale(0.015625)"/>
       </defs>
       <use xlink:href="#DejaVuSans-2212"/>
       <use x="83.789062" xlink:href="#DejaVuSans-32"/>
      </g>
     </g>
    </g>
    <g id="ytick_2">
     <g id="line2d_15">
      <path clip-path="url(#p7169d0405e)" d="M 57.6 203.093818 
L 414.72 203.093818 
" style="fill:none;stroke:#b0b0b0;stroke-linecap:square;stroke-width:0.8;"/>
     </g>
     <g id="line2d_16">
      <g>
       <use style="stroke:#000000;stroke-width:0.8;" x="57.6" xlink:href="#m9d9cd43d1c" y="203.093818"/>
      </g>
     </g>
     <g id="text_9">
      <!-- −1 -->
      <g transform="translate(35.857813 206.893037)scale(0.1 -0.1)">
       <use xlink:href="#DejaVuSans-2212"/>
       <use x="83.789062" xlink:href="#DejaVuSans-31"/>
      </g>
     </g>
    </g>
    <g id="ytick_3">
     <g id="line2d_17">
      <path clip-path="url(#p7169d0405e)" d="M 57.6 149.675783 
L 414.72 149.675783 
" style="fill:none;stroke:#b0b0b0;stroke-linecap:square;stroke-width:0.8;"/>
     </g>
     <g id="line2d_18">
      <g>
       <use style="stroke:#000000;stroke-width:0.8;" x="57.6" xlink:href="#m9d9cd43d1c" y="149.675783"/>
      </g>
     </g>
     <g id="text_10">
      <!-- 0 -->
      <g transform="translate(44.2375 153.475002)scale(0.1 -0.1)">
       <use xlink:href="#DejaVuSans-30"/>
      </g>
     </g>
    </g>
    <g id="ytick_4">
     <g id="line2d_19">
      <path clip-path="url(#p7169d0405e)" d="M 57.6 96.257749 
L 414.72 96.257749 
" style="fill:none;stroke:#b0b0b0;stroke-linecap:square;stroke-width:0.8;"/>
     </g>
     <g id="line2d_20">
      <g>
       <use style="stroke:#000000;stroke-width:0.8;" x="57.6" xlink:href="#m9d9cd43d1c" y="96.257749"/>
      </g>
     </g>
     <g id="text_11">
      <!-- 1 -->
      <g transform="translate(44.2375 100.056968)scale(0.1 -0.1)">
       <use xlink:href="#DejaVuSans-31"/>
      </g>
     </g>
    </g>
    <g id="ytick_5">
     <g id="line2d_21">
      <path clip-path="url(#p7169d0405e)" d="M 57.6 42.839715 
L 414.72 42.839715 
" style="fill:none;stroke:#b0b0b0;stroke-linecap:square;stroke-width:0.8;"/>
     </g>
     <g id="line2d_22">
      <g>
       <use style="stroke:#000000;stroke-width:0.8;" x="57.6" xlink:href="#m9d9cd43d1c" y="42.839715"/>
      </g>
     </g>
     <g id="text_12">
      <!-- 2 -->
      <g transform="translate(44.2375 46.638933)scale(0.1 -0.1)">
       <use xlink:href="#DejaVuSans-32"/>
      </g>
     </g>
    </g>
    <g id="text_13">
     <!-- Fitness -->
     <g transform="translate(29.778125 191.845187)rotate(-90)scale(0.1 -0.1)">
      <defs>
       <path d="M 628 4666 
L 3309 4666 
L 3309 4134 
L 1259 4134 
L 1259 2759 
L 3109 2759 
L 3109 2228 
L 1259 2228 
L 1259 0 
L 628 0 
L 628 4666 
z
" id="DejaVuSans-46" transform="scale(0.015625)"/>
       <path d="M 2834 3397 
L 2834 2853 
Q 2591 2978 2328 3040 
Q 2066 3103 1784 3103 
Q 1356 3103 1142 2972 
Q 928 2841 928 2578 
Q 928 2378 1081 2264 
Q 1234 2150 1697 2047 
L 1894 2003 
Q 2506 1872 2764 1633 
Q 3022 1394 3022 966 
Q 3022 478 2636 193 
Q 2250 -91 1575 -91 
Q 1294 -91 989 -36 
Q 684 19 347 128 
L 347 722 
Q 666 556 975 473 
Q 1284 391 1588 391 
Q 1994 391 2212 530 
Q 2431 669 2431 922 
Q 2431 1156 2273 1281 
Q 2116 1406 1581 1522 
L 1381 1569 
Q 847 1681 609 1914 
Q 372 2147 372 2553 
Q 372 3047 722 3315 
Q 1072 3584 1716 3584 
Q 2034 3584 2315 3537 
Q 2597 3491 2834 3397 
z
" id="DejaVuSans-73" transform="scale(0.015625)"/>
      </defs>
      <use xlink:href="#DejaVuSans-46"/>
      <use x="50.269531" xlink:href="#DejaVuSans-69"/>
      <use x="78.052734" xlink:href="#DejaVuSans-74"/>
      <use x="117.261719" xlink:href="#DejaVuSans-6e"/>
      <use x="180.640625" xlink:href="#DejaVuSans-65"/>
      <use x="242.164062" xlink:href="#DejaVuSans-73"/>
      <use x="294.263672" xlink:href="#DejaVuSans-73"/>
     </g>
    </g>
   </g>
   <g id="line2d_23">
    <path clip-path="url(#p7169d0405e)" d="M 73.832727 286.086213 
L 80.45833 245.523076 
L 87.083933 218.291047 
L 93.709536 211.53944 
L 100.335139 200.614646 
L 106.960742 199.37824 
L 113.586345 199.437775 
L 120.211948 194.734651 
L 126.837551 195.077216 
L 133.463154 195.032044 
L 140.088757 190.765403 
L 146.71436 182.949617 
L 153.339963 189.947727 
L 159.965566 191.498503 
L 166.591169 192.389421 
L 173.216772 189.20728 
L 179.842375 180.916692 
L 186.467978 180.571872 
L 193.093581 176.819848 
L 199.719184 176.282872 
L 206.344787 177.47925 
L 212.97039 179.99407 
L 219.595993 175.030452 
L 226.221596 173.025445 
L 232.847199 181.32667 
L 239.472801 179.011187 
L 246.098404 178.277591 
L 252.724007 178.368109 
L 259.34961 179.857367 
L 265.975213 182.09997 
L 272.600816 176.541083 
L 279.226419 175.94849 
L 285.852022 178.205197 
L 292.477625 175.238806 
L 299.103228 174.839092 
L 305.728831 176.979377 
L 312.354434 178.543391 
L 318.980037 176.742519 
L 325.60564 181.404753 
L 332.231243 182.330027 
L 338.856846 176.955242 
L 345.482449 175.496064 
L 352.108052 179.410616 
L 358.733655 177.017555 
L 365.359258 181.058585 
L 371.984861 178.815164 
L 378.610464 178.148105 
L 385.236067 178.918237 
L 391.86167 171.069657 
L 398.487273 174.150108 
" style="fill:none;stroke:#0000ff;stroke-linecap:square;stroke-width:1.5;"/>
   </g>
   <g id="line2d_24">
    <path clip-path="url(#p7169d0405e)" d="M 73.832727 98.39447 
L 80.45833 98.39447 
L 87.083933 98.39447 
L 93.709536 98.39447 
L 100.335139 98.39447 
L 106.960742 98.39447 
L 113.586345 98.39447 
L 120.211948 98.39447 
L 126.837551 98.39447 
L 133.463154 98.39447 
L 140.088757 98.39447 
L 146.71436 98.39447 
L 153.339963 98.39447 
L 159.965566 98.39447 
L 166.591169 98.39447 
L 173.216772 98.39447 
L 179.842375 98.39447 
L 186.467978 98.39447 
L 193.093581 98.39447 
L 199.719184 98.39447 
L 206.344787 98.39447 
L 212.97039 98.39447 
L 219.595993 98.39447 
L 226.221596 98.39447 
L 232.847199 98.39447 
L 239.472801 98.39447 
L 246.098404 98.39447 
L 252.724007 98.39447 
L 259.34961 98.39447 
L 265.975213 98.39447 
L 272.600816 98.39447 
L 279.226419 98.39447 
L 285.852022 98.39447 
L 292.477625 98.39447 
L 299.103228 98.39447 
L 305.728831 98.39447 
L 312.354434 98.39447 
L 318.980037 98.39447 
L 325.60564 98.39447 
L 332.231243 98.39447 
L 338.856846 98.39447 
L 345.482449 98.39447 
L 352.108052 98.39447 
L 358.733655 98.39447 
L 365.359258 98.39447 
L 371.984861 98.39447 
L 378.610464 98.39447 
L 385.236067 98.39447 
L 391.86167 98.39447 
L 398.487273 98.39447 
" style="fill:none;stroke:#ff0000;stroke-linecap:square;stroke-width:1.5;"/>
   </g>
   <g id="patch_3">
    <path d="M 57.6 307.584 
L 57.6 41.472 
" style="fill:none;stroke:#000000;stroke-linecap:square;stroke-linejoin:miter;stroke-width:0.8;"/>
   </g>
   <g id="patch_4">
    <path d="M 414.72 307.584 
L 414.72 41.472 
" style="fill:none;stroke:#000000;stroke-linecap:square;stroke-linejoin:miter;stroke-width:0.8;"/>
   </g>
   <g id="patch_5">
    <path d="M 57.6 307.584 
L 414.72 307.584 
" style="fill:none;stroke:#000000;stroke-linecap:square;stroke-linejoin:miter;stroke-width:0.8;"/>
   </g>
   <g id="patch_6">
    <path d="M 57.6 41.472 
L 414.72 41.472 
" style="fill:none;stroke:#000000;stroke-linecap:square;stroke-linejoin:miter;stroke-width:0.8;"/>
   </g>
   <g id="text_14">
    <!-- Population's mean and maximum fitness -->
    <g transform="translate(113.826562 35.472)scale(0.12 -0.12)">
     <defs>
      <path d="M 1259 4147 
L 1259 2394 
L 2053 2394 
Q 2494 2394 2734 2622 
Q 2975 2850 2975 3272 
Q 2975 3691 2734 3919 
Q 2494 4147 2053 4147 
L 1259 4147 
z
M 628 4666 
L 2053 4666 
Q 2838 4666 3239 4311 
Q 3641 3956 3641 3272 
Q 3641 2581 3239 2228 
Q 2838 1875 2053 1875 
L 1259 1875 
L 1259 0 
L 628 0 
L 628 4666 
z
" id="DejaVuSans-50" transform="scale(0.015625)"/>
      <path d="M 1159 525 
L 1159 -1331 
L 581 -1331 
L 581 3500 
L 1159 3500 
L 1159 2969 
Q 1341 3281 1617 3432 
Q 1894 3584 2278 3584 
Q 2916 3584 3314 3078 
Q 3713 2572 3713 1747 
Q 3713 922 3314 415 
Q 2916 -91 2278 -91 
Q 1894 -91 1617 61 
Q 1341 213 1159 525 
z
M 3116 1747 
Q 3116 2381 2855 2742 
Q 2594 3103 2138 3103 
Q 1681 3103 1420 2742 
Q 1159 2381 1159 1747 
Q 1159 1113 1420 752 
Q 1681 391 2138 391 
Q 2594 391 2855 752 
Q 3116 1113 3116 1747 
z
" id="DejaVuSans-70" transform="scale(0.015625)"/>
      <path d="M 544 1381 
L 544 3500 
L 1119 3500 
L 1119 1403 
Q 1119 906 1312 657 
Q 1506 409 1894 409 
Q 2359 409 2629 706 
Q 2900 1003 2900 1516 
L 2900 3500 
L 3475 3500 
L 3475 0 
L 2900 0 
L 2900 538 
Q 2691 219 2414 64 
Q 2138 -91 1772 -91 
Q 1169 -91 856 284 
Q 544 659 544 1381 
z
M 1991 3584 
L 1991 3584 
z
" id="DejaVuSans-75" transform="scale(0.015625)"/>
      <path d="M 603 4863 
L 1178 4863 
L 1178 0 
L 603 0 
L 603 4863 
z
" id="DejaVuSans-6c" transform="scale(0.015625)"/>
      <path d="M 1147 4666 
L 1147 2931 
L 616 2931 
L 616 4666 
L 1147 4666 
z
" id="DejaVuSans-27" transform="scale(0.015625)"/>
      <path id="DejaVuSans-20" transform="scale(0.015625)"/>
      <path d="M 3328 2828 
Q 3544 3216 3844 3400 
Q 4144 3584 4550 3584 
Q 5097 3584 5394 3201 
Q 5691 2819 5691 2113 
L 5691 0 
L 5113 0 
L 5113 2094 
Q 5113 2597 4934 2840 
Q 4756 3084 4391 3084 
Q 3944 3084 3684 2787 
Q 3425 2491 3425 1978 
L 3425 0 
L 2847 0 
L 2847 2094 
Q 2847 2600 2669 2842 
Q 2491 3084 2119 3084 
Q 1678 3084 1418 2786 
Q 1159 2488 1159 1978 
L 1159 0 
L 581 0 
L 581 3500 
L 1159 3500 
L 1159 2956 
Q 1356 3278 1631 3431 
Q 1906 3584 2284 3584 
Q 2666 3584 2933 3390 
Q 3200 3197 3328 2828 
z
" id="DejaVuSans-6d" transform="scale(0.015625)"/>
      <path d="M 2906 2969 
L 2906 4863 
L 3481 4863 
L 3481 0 
L 2906 0 
L 2906 525 
Q 2725 213 2448 61 
Q 2172 -91 1784 -91 
Q 1150 -91 751 415 
Q 353 922 353 1747 
Q 353 2572 751 3078 
Q 1150 3584 1784 3584 
Q 2172 3584 2448 3432 
Q 2725 3281 2906 2969 
z
M 947 1747 
Q 947 1113 1208 752 
Q 1469 391 1925 391 
Q 2381 391 2643 752 
Q 2906 1113 2906 1747 
Q 2906 2381 2643 2742 
Q 2381 3103 1925 3103 
Q 1469 3103 1208 2742 
Q 947 2381 947 1747 
z
" id="DejaVuSans-64" transform="scale(0.015625)"/>
      <path d="M 3513 3500 
L 2247 1797 
L 3578 0 
L 2900 0 
L 1881 1375 
L 863 0 
L 184 0 
L 1544 1831 
L 300 3500 
L 978 3500 
L 1906 2253 
L 2834 3500 
L 3513 3500 
z
" id="DejaVuSans-78" transform="scale(0.015625)"/>
      <path d="M 2375 4863 
L 2375 4384 
L 1825 4384 
Q 1516 4384 1395 4259 
Q 1275 4134 1275 3809 
L 1275 3500 
L 2222 3500 
L 2222 3053 
L 1275 3053 
L 1275 0 
L 697 0 
L 697 3053 
L 147 3053 
L 147 3500 
L 697 3500 
L 697 3744 
Q 697 4328 969 4595 
Q 1241 4863 1831 4863 
L 2375 4863 
z
" id="DejaVuSans-66" transform="scale(0.015625)"/>
     </defs>
     <use xlink:href="#DejaVuSans-50"/>
     <use x="56.677734" xlink:href="#DejaVuSans-6f"/>
     <use x="117.859375" xlink:href="#DejaVuSans-70"/>
     <use x="181.335938" xlink:href="#DejaVuSans-75"/>
     <use x="244.714844" xlink:href="#DejaVuSans-6c"/>
     <use x="272.498047" xlink:href="#DejaVuSans-61"/>
     <use x="333.777344" xlink:href="#DejaVuSans-74"/>
     <use x="372.986328" xlink:href="#DejaVuSans-69"/>
     <use x="400.769531" xlink:href="#DejaVuSans-6f"/>
     <use x="461.951172" xlink:href="#DejaVuSans-6e"/>
     <use x="525.330078" xlink:href="#DejaVuSans-27"/>
     <use x="552.820312" xlink:href="#DejaVuSans-73"/>
     <use x="604.919922" xlink:href="#DejaVuSans-20"/>
     <use x="636.707031" xlink:href="#DejaVuSans-6d"/>
     <use x="734.119141" xlink:href="#DejaVuSans-65"/>
     <use x="795.642578" xlink:href="#DejaVuSans-61"/>
     <use x="856.921875" xlink:href="#DejaVuSans-6e"/>
     <use x="920.300781" xlink:href="#DejaVuSans-20"/>
     <use x="952.087891" xlink:href="#DejaVuSans-61"/>
     <use x="1013.367188" xlink:href="#DejaVuSans-6e"/>
     <use x="1076.746094" xlink:href="#DejaVuSans-64"/>
     <use x="1140.222656" xlink:href="#DejaVuSans-20"/>
     <use x="1172.009766" xlink:href="#DejaVuSans-6d"/>
     <use x="1269.421875" xlink:href="#DejaVuSans-61"/>
     <use x="1330.701172" xlink:href="#DejaVuSans-78"/>
     <use x="1389.880859" xlink:href="#DejaVuSans-69"/>
     <use x="1417.664062" xlink:href="#DejaVuSans-6d"/>
     <use x="1515.076172" xlink:href="#DejaVuSans-75"/>
     <use x="1578.455078" xlink:href="#DejaVuSans-6d"/>
     <use x="1675.867188" xlink:href="#DejaVuSans-20"/>
     <use x="1707.654297" xlink:href="#DejaVuSans-66"/>
     <use x="1742.859375" xlink:href="#DejaVuSans-69"/>
     <use x="1770.642578" xlink:href="#DejaVuSans-74"/>
     <use x="1809.851562" xlink:href="#DejaVuSans-6e"/>
     <use x="1873.230469" xlink:href="#DejaVuSans-65"/>
     <use x="1934.753906" xlink:href="#DejaVuSans-73"/>
     <use x="1986.853516" xlink:href="#DejaVuSans-73"/>
    </g>
   </g>
   <g id="legend_1">
    <g id="patch_7">
     <path d="M 348.473125 78.82825 
L 407.72 78.82825 
Q 409.72 78.82825 409.72 76.82825 
L 409.72 48.472 
Q 409.72 46.472 407.72 46.472 
L 348.473125 46.472 
Q 346.473125 46.472 346.473125 48.472 
L 346.473125 76.82825 
Q 346.473125 78.82825 348.473125 78.82825 
z
" style="fill:#ffffff;opacity:0.8;stroke:#cccccc;stroke-linejoin:miter;"/>
    </g>
    <g id="line2d_25">
     <path d="M 350.473125 54.570437 
L 370.473125 54.570437 
" style="fill:none;stroke:#0000ff;stroke-linecap:square;stroke-width:1.5;"/>
    </g>
    <g id="line2d_26"/>
    <g id="text_15">
     <!-- Mean -->
     <g transform="translate(378.473125 58.070437)scale(0.1 -0.1)">
      <defs>
       <path d="M 628 4666 
L 1569 4666 
L 2759 1491 
L 3956 4666 
L 4897 4666 
L 4897 0 
L 4281 0 
L 4281 4097 
L 3078 897 
L 2444 897 
L 1241 4097 
L 1241 0 
L 628 0 
L 628 4666 
z
" id="DejaVuSans-4d" transform="scale(0.015625)"/>
      </defs>
      <use xlink:href="#DejaVuSans-4d"/>
      <use x="86.279297" xlink:href="#DejaVuSans-65"/>
      <use x="147.802734" xlink:href="#DejaVuSans-61"/>
      <use x="209.082031" xlink:href="#DejaVuSans-6e"/>
     </g>
    </g>
    <g id="line2d_27">
     <path d="M 350.473125 69.248562 
L 370.473125 69.248562 
" style="fill:none;stroke:#ff0000;stroke-linecap:square;stroke-width:1.5;"/>
    </g>
    <g id="line2d_28"/>
    <g id="text_16">
     <!-- Max. -->
     <g transform="translate(378.473125 72.748562)scale(0.1 -0.1)">
      <defs>
       <path d="M 684 794 
L 1344 794 
L 1344 0 
L 684 0 
L 684 794 
z
" id="DejaVuSans-2e" transform="scale(0.015625)"/>
      </defs>
      <use xlink:href="#DejaVuSans-4d"/>
      <use x="86.279297" xlink:href="#DejaVuSans-61"/>
      <use x="147.558594" xlink:href="#DejaVuSans-78"/>
      <use x="206.738281" xlink:href="#DejaVuSans-2e"/>
     </g>
    </g>
   </g>
  </g>
 </g>
 <defs>
  <clipPath id="p7169d0405e">
   <rect height="266.112" width="357.12" x="57.6" y="41.472"/>
  </clipPath>
 </defs>
</svg>
