<?xml version="1.0" encoding="UTF-8" standalone="no"?>
<!DOCTYPE svg PUBLIC "-//W3C//DTD SVG 1.1//EN"
 "http://www.w3.org/Graphics/SVG/1.1/DTD/svg11.dtd">
<!-- Generated by graphviz version 2.49.0 (20210828.1703)
 -->
<!-- Pages: 1 -->
<svg width="887pt" height="92pt"
 viewBox="0.00 0.00 886.50 91.70" xmlns="http://www.w3.org/2000/svg" xmlns:xlink="http://www.w3.org/1999/xlink">
<g id="graph0" class="graph" transform="scale(1 1) rotate(0) translate(4 87.7)">
<polygon fill="white" stroke="transparent" points="-4,4 -4,-87.7 882.5,-87.7 882.5,4 -4,4"/>
<!-- &#45;1 -->
<g id="node1" class="node">
<title>&#45;1</title>
<polygon fill="lightgray" stroke="black" points="485,-83.7 461,-83.7 461,-65.7 485,-65.7 485,-83.7"/>
<text text-anchor="middle" x="473" y="-72.5" font-family="Times New Roman,serif" font-size="9.00">&#45;1</text>
</g>
<!-- 0 -->
<g id="node21" class="node">
<title>0</title>
<ellipse fill="lightblue" stroke="black" cx="332" cy="-14.85" rx="14.7" ry="14.7"/>
<text text-anchor="middle" x="332" y="-12.65" font-family="Times New Roman,serif" font-size="9.00">0</text>
</g>
<!-- &#45;1&#45;&gt;0 -->
<g id="edge1" class="edge">
<title>&#45;1&#45;&gt;0</title>
<path fill="none" stroke="green" stroke-width="0.66" d="M460.9,-69.28C433.03,-59.07 365.91,-34.38 356,-29.7 355.16,-29.3 354.32,-28.89 353.47,-28.46"/>
<polygon fill="green" stroke="green" stroke-width="0.66" points="354.95,-25.29 344.5,-23.58 351.61,-31.43 354.95,-25.29"/>
</g>
<!-- 1 -->
<g id="node22" class="node">
<title>1</title>
<ellipse fill="lightblue" stroke="black" cx="476" cy="-14.85" rx="14.7" ry="14.7"/>
<text text-anchor="middle" x="476" y="-12.65" font-family="Times New Roman,serif" font-size="9.00">1</text>
</g>
<!-- &#45;1&#45;&gt;1 -->
<g id="edge2" class="edge">
<title>&#45;1&#45;&gt;1</title>
<path fill="none" stroke="red" stroke-width="0.27" d="M473.42,-65.65C473.76,-59.05 474.26,-49.33 474.74,-40.23"/>
<polygon fill="red" stroke="red" stroke-width="0.27" points="478.24,-40.22 475.26,-30.06 471.25,-39.86 478.24,-40.22"/>
</g>
<!-- 2 -->
<g id="node23" class="node">
<title>2</title>
<ellipse fill="lightblue" stroke="black" cx="380" cy="-14.85" rx="14.7" ry="14.7"/>
<text text-anchor="middle" x="380" y="-12.65" font-family="Times New Roman,serif" font-size="9.00">2</text>
</g>
<!-- &#45;1&#45;&gt;2 -->
<g id="edge3" class="edge">
<title>&#45;1&#45;&gt;2</title>
<path fill="none" stroke="green" stroke-width="0.63" d="M460.84,-66.14C445.59,-56.65 419.22,-40.24 400.75,-28.76"/>
<polygon fill="green" stroke="green" stroke-width="0.63" points="402.5,-25.72 392.16,-23.41 398.8,-31.67 402.5,-25.72"/>
</g>
<!-- 3 -->
<g id="node24" class="node">
<title>3</title>
<ellipse fill="lightblue" stroke="black" cx="524" cy="-14.85" rx="14.7" ry="14.7"/>
<text text-anchor="middle" x="524" y="-12.65" font-family="Times New Roman,serif" font-size="9.00">3</text>
</g>
<!-- &#45;1&#45;&gt;3 -->
<g id="edge4" class="edge">
<title>&#45;1&#45;&gt;3</title>
<path fill="none" stroke="green" stroke-width="0.29" d="M480.09,-65.65C487.25,-57.54 498.54,-44.73 507.88,-34.13"/>
<polygon fill="green" stroke="green" stroke-width="0.29" points="510.55,-36.39 514.54,-26.58 505.3,-31.76 510.55,-36.39"/>
</g>
<!-- 4 -->
<g id="node25" class="node">
<title>4</title>
<ellipse fill="lightblue" stroke="black" cx="428" cy="-14.85" rx="14.7" ry="14.7"/>
<text text-anchor="middle" x="428" y="-12.65" font-family="Times New Roman,serif" font-size="9.00">4</text>
</g>
<!-- &#45;1&#45;&gt;4 -->
<g id="edge5" class="edge">
<title>&#45;1&#45;&gt;4</title>
<path fill="none" stroke="red" stroke-width="0.36" d="M466.74,-65.65C460.63,-57.8 451.09,-45.53 443.01,-35.14"/>
<polygon fill="red" stroke="red" stroke-width="0.36" points="445.57,-32.74 436.67,-26.99 440.05,-37.04 445.57,-32.74"/>
</g>
<!-- &#45;2 -->
<g id="node2" class="node">
<title>&#45;2</title>
<polygon fill="lightgray" stroke="black" points="24,-83.7 0,-83.7 0,-65.7 24,-65.7 24,-83.7"/>
<text text-anchor="middle" x="12" y="-72.5" font-family="Times New Roman,serif" font-size="9.00">&#45;2</text>
</g>
<!-- &#45;2&#45;&gt;0 -->
<g id="edge6" class="edge">
<title>&#45;2&#45;&gt;0</title>
<path fill="none" stroke="red" stroke-width="0.85" d="M24.3,-68.55C27.12,-67.49 30.14,-66.47 33,-65.7 132.61,-38.71 255.07,-23.82 306.92,-18.33"/>
<polygon fill="red" stroke="red" stroke-width="0.85" points="307.57,-21.78 317.15,-17.27 306.85,-14.81 307.57,-21.78"/>
</g>
<!-- &#45;2&#45;&gt;1 -->
<g id="edge7" class="edge">
<title>&#45;2&#45;&gt;1</title>
<path fill="none" stroke="green" stroke-width="0.35" d="M24.26,-68.38C27.08,-67.33 30.11,-66.36 33,-65.7 215.2,-24.03 273.69,-85.74 452,-29.7 453.06,-29.37 454.12,-28.98 455.17,-28.56"/>
<polygon fill="green" stroke="green" stroke-width="0.35" points="456.91,-31.6 464.27,-23.98 453.76,-25.35 456.91,-31.6"/>
</g>
<!-- &#45;2&#45;&gt;2 -->
<g id="edge8" class="edge">
<title>&#45;2&#45;&gt;2</title>
<path fill="none" stroke="green" stroke-width="0.12" d="M24.27,-68.43C27.1,-67.38 30.12,-66.4 33,-65.7 173.39,-31.72 218.76,-74.75 356,-29.7 356.88,-29.41 357.76,-29.09 358.64,-28.73"/>
<polygon fill="green" stroke="green" stroke-width="0.12" points="360.36,-31.79 367.75,-24.21 357.24,-25.52 360.36,-31.79"/>
</g>
<!-- &#45;2&#45;&gt;4 -->
<g id="edge9" class="edge">
<title>&#45;2&#45;&gt;4</title>
<path fill="none" stroke="green" stroke-width="0.78" d="M24.26,-68.4C27.09,-67.36 30.11,-66.38 33,-65.7 194.29,-27.87 246.24,-80.24 404,-29.7 405.05,-29.36 406.11,-28.97 407.16,-28.54"/>
<polygon fill="green" stroke="green" stroke-width="0.78" points="408.91,-31.58 416.26,-23.96 405.76,-25.34 408.91,-31.58"/>
</g>
<!-- &#45;3 -->
<g id="node3" class="node">
<title>&#45;3</title>
<polygon fill="lightgray" stroke="black" points="527,-83.7 503,-83.7 503,-65.7 527,-65.7 527,-83.7"/>
<text text-anchor="middle" x="515" y="-72.5" font-family="Times New Roman,serif" font-size="9.00">&#45;3</text>
</g>
<!-- &#45;3&#45;&gt;0 -->
<g id="edge10" class="edge">
<title>&#45;3&#45;&gt;0</title>
<path fill="none" stroke="green" stroke-width="0.19" d="M502.64,-68.73C499.82,-67.67 496.82,-66.6 494,-65.7 433.63,-46.39 414.64,-53.75 356,-29.7 355.14,-29.35 354.28,-28.97 353.42,-28.57"/>
<polygon fill="green" stroke="green" stroke-width="0.19" points="354.86,-25.38 344.38,-23.84 351.61,-31.58 354.86,-25.38"/>
</g>
<!-- &#45;3&#45;&gt;1 -->
<g id="edge11" class="edge">
<title>&#45;3&#45;&gt;1</title>
<path fill="none" stroke="green" stroke-width="0.44" d="M509.58,-65.65C504.46,-58.07 496.58,-46.37 489.74,-36.22"/>
<polygon fill="green" stroke="green" stroke-width="0.44" points="492.58,-34.18 484.09,-27.84 486.77,-38.09 492.58,-34.18"/>
</g>
<!-- &#45;3&#45;&gt;2 -->
<g id="edge12" class="edge">
<title>&#45;3&#45;&gt;2</title>
<path fill="none" stroke="green" stroke-width="0.45" d="M502.73,-68.95C475.83,-58.53 413.33,-34.21 404,-29.7 403.17,-29.3 402.32,-28.87 401.47,-28.44"/>
<polygon fill="green" stroke="green" stroke-width="0.45" points="402.97,-25.27 392.52,-23.53 399.61,-31.41 402.97,-25.27"/>
</g>
<!-- &#45;3&#45;&gt;3 -->
<g id="edge13" class="edge">
<title>&#45;3&#45;&gt;3</title>
<path fill="none" stroke="green" stroke-width="0.9" d="M516.25,-65.65C517.3,-58.89 518.86,-48.86 520.31,-39.57"/>
<polygon fill="green" stroke="green" stroke-width="0.9" points="523.78,-40.02 521.86,-29.6 516.86,-38.95 523.78,-40.02"/>
</g>
<!-- &#45;3&#45;&gt;4 -->
<g id="edge14" class="edge">
<title>&#45;3&#45;&gt;4</title>
<path fill="none" stroke="red" stroke-width="0.1" d="M502.9,-65.65C488.88,-56.33 465.53,-40.8 448.62,-29.56"/>
<polygon fill="red" stroke="red" stroke-width="0.1" points="450.26,-26.45 439.99,-23.82 446.38,-32.28 450.26,-26.45"/>
</g>
<!-- &#45;4 -->
<g id="node4" class="node">
<title>&#45;4</title>
<polygon fill="lightgray" stroke="black" points="569,-83.7 545,-83.7 545,-65.7 569,-65.7 569,-83.7"/>
<text text-anchor="middle" x="557" y="-72.5" font-family="Times New Roman,serif" font-size="9.00">&#45;4</text>
</g>
<!-- &#45;4&#45;&gt;0 -->
<g id="edge15" class="edge">
<title>&#45;4&#45;&gt;0</title>
<path fill="none" stroke="red" stroke-width="0.21" d="M544.68,-68.61C541.86,-67.56 538.85,-66.52 536,-65.7 457.61,-43.1 432.34,-58.47 356,-29.7 355.13,-29.37 354.26,-29.02 353.39,-28.64"/>
<polygon fill="red" stroke="red" stroke-width="0.21" points="354.82,-25.44 344.32,-23.99 351.62,-31.66 354.82,-25.44"/>
</g>
<!-- &#45;4&#45;&gt;1 -->
<g id="edge16" class="edge">
<title>&#45;4&#45;&gt;1</title>
<path fill="none" stroke="red" stroke-width="0.26" d="M545.74,-65.65C532.95,-56.52 511.82,-41.43 496.17,-30.26"/>
<polygon fill="red" stroke="red" stroke-width="0.26" points="497.86,-27.16 487.69,-24.2 493.8,-32.86 497.86,-27.16"/>
</g>
<!-- &#45;4&#45;&gt;2 -->
<g id="edge17" class="edge">
<title>&#45;4&#45;&gt;2</title>
<path fill="none" stroke="red" stroke-width="0.58" d="M544.63,-68.76C541.82,-67.7 538.82,-66.62 536,-65.7 478.18,-46.85 460.13,-53.09 404,-29.7 403.15,-29.34 402.28,-28.96 401.42,-28.56"/>
<polygon fill="red" stroke="red" stroke-width="0.58" points="402.87,-25.37 392.39,-23.81 399.61,-31.57 402.87,-25.37"/>
</g>
<!-- &#45;4&#45;&gt;3 -->
<g id="edge18" class="edge">
<title>&#45;4&#45;&gt;3</title>
<path fill="none" stroke="green" stroke-width="0.36" d="M552.41,-65.65C548.22,-58.31 541.85,-47.13 536.19,-37.22"/>
<polygon fill="green" stroke="green" stroke-width="0.36" points="539.08,-35.23 531.09,-28.28 533,-38.7 539.08,-35.23"/>
</g>
<!-- &#45;4&#45;&gt;4 -->
<g id="edge19" class="edge">
<title>&#45;4&#45;&gt;4</title>
<path fill="none" stroke="green" stroke-width="0.66" d="M544.9,-68.85C521.15,-59.31 469.27,-38.26 452,-29.7 451.17,-29.29 450.33,-28.86 449.48,-28.42"/>
<polygon fill="green" stroke="green" stroke-width="0.66" points="450.99,-25.25 440.54,-23.49 447.61,-31.38 450.99,-25.25"/>
</g>
<!-- &#45;5 -->
<g id="node5" class="node">
<title>&#45;5</title>
<polygon fill="lightgray" stroke="black" points="611,-83.7 587,-83.7 587,-65.7 611,-65.7 611,-83.7"/>
<text text-anchor="middle" x="599" y="-72.5" font-family="Times New Roman,serif" font-size="9.00">&#45;5</text>
</g>
<!-- &#45;5&#45;&gt;0 -->
<g id="edge20" class="edge">
<title>&#45;5&#45;&gt;0</title>
<path fill="none" stroke="green" stroke-width="0.19" d="M586.7,-68.54C583.88,-67.49 580.86,-66.47 578,-65.7 481.47,-39.77 450.16,-63.23 356,-29.7 355.13,-29.39 354.25,-29.05 353.37,-28.68"/>
<polygon fill="green" stroke="green" stroke-width="0.19" points="354.79,-25.47 344.29,-24.08 351.63,-31.72 354.79,-25.47"/>
</g>
<!-- &#45;5&#45;&gt;1 -->
<g id="edge21" class="edge">
<title>&#45;5&#45;&gt;1</title>
<path fill="none" stroke="red" stroke-width="0.23" d="M586.92,-68.81C568.08,-61.09 530.68,-45.31 500,-29.7 499.17,-29.28 498.34,-28.84 497.5,-28.4"/>
<polygon fill="red" stroke="red" stroke-width="0.23" points="499.01,-25.23 488.57,-23.43 495.61,-31.35 499.01,-25.23"/>
</g>
<!-- &#45;5&#45;&gt;2 -->
<g id="edge22" class="edge">
<title>&#45;5&#45;&gt;2</title>
<path fill="none" stroke="green" stroke-width="0.19" stroke-dasharray="1,5" d="M586.68,-68.63C583.85,-67.57 580.85,-66.53 578,-65.7 502.19,-43.57 477.81,-57.79 404,-29.7 403.13,-29.37 402.26,-29.01 401.39,-28.63"/>
<polygon fill="green" stroke="green" stroke-width="0.19" points="402.82,-25.43 392.33,-23.97 399.62,-31.66 402.82,-25.43"/>
</g>
<!-- &#45;5&#45;&gt;3 -->
<g id="edge23" class="edge">
<title>&#45;5&#45;&gt;3</title>
<path fill="none" stroke="red" stroke-width="0.14" d="M588.57,-65.65C576.97,-56.71 557.97,-42.05 543.58,-30.95"/>
<polygon fill="red" stroke="red" stroke-width="0.14" points="545.38,-27.92 535.32,-24.58 541.1,-33.46 545.38,-27.92"/>
</g>
<!-- &#45;5&#45;&gt;4 -->
<g id="edge24" class="edge">
<title>&#45;5&#45;&gt;4</title>
<path fill="none" stroke="red" stroke-width="0.24" d="M586.63,-68.78C583.81,-67.72 580.81,-66.63 578,-65.7 522.74,-47.31 505.62,-52.42 452,-29.7 451.15,-29.34 450.29,-28.95 449.43,-28.55"/>
<polygon fill="red" stroke="red" stroke-width="0.24" points="450.88,-25.36 440.41,-23.78 447.61,-31.55 450.88,-25.36"/>
</g>
<!-- &#45;6 -->
<g id="node6" class="node">
<title>&#45;6</title>
<polygon fill="lightgray" stroke="black" points="653,-83.7 629,-83.7 629,-65.7 653,-65.7 653,-83.7"/>
<text text-anchor="middle" x="641" y="-72.5" font-family="Times New Roman,serif" font-size="9.00">&#45;6</text>
</g>
<!-- &#45;6&#45;&gt;0 -->
<g id="edge25" class="edge">
<title>&#45;6&#45;&gt;0</title>
<path fill="none" stroke="green" stroke-width="0.22" d="M628.71,-68.48C625.89,-67.43 622.87,-66.43 620,-65.7 505.25,-36.43 468.05,-68.01 356,-29.7 355.12,-29.4 354.24,-29.07 353.37,-28.71"/>
<polygon fill="green" stroke="green" stroke-width="0.22" points="354.77,-25.5 344.27,-24.14 351.64,-31.76 354.77,-25.5"/>
</g>
<!-- &#45;6&#45;&gt;1 -->
<g id="edge26" class="edge">
<title>&#45;6&#45;&gt;1</title>
<path fill="none" stroke="red" stroke-width="0.13" d="M628.62,-68.81C625.8,-67.75 622.81,-66.65 620,-65.7 567.28,-47.78 551.12,-51.76 500,-29.7 499.15,-29.33 498.29,-28.94 497.43,-28.53"/>
<polygon fill="red" stroke="red" stroke-width="0.13" points="498.89,-25.35 488.42,-23.75 495.61,-31.53 498.89,-25.35"/>
</g>
<!-- &#45;6&#45;&gt;2 -->
<g id="edge27" class="edge">
<title>&#45;6&#45;&gt;2</title>
<path fill="none" stroke="red" stroke-width="0.39" d="M628.7,-68.55C625.88,-67.49 622.86,-66.47 620,-65.7 526.06,-40.25 495.61,-62.55 404,-29.7 403.13,-29.39 402.25,-29.04 401.38,-28.67"/>
<polygon fill="red" stroke="red" stroke-width="0.39" points="402.8,-25.47 392.29,-24.07 399.63,-31.71 402.8,-25.47"/>
</g>
<!-- &#45;6&#45;&gt;3 -->
<g id="edge28" class="edge">
<title>&#45;6&#45;&gt;3</title>
<path fill="none" stroke="red" stroke-width="0.19" d="M628.92,-67.73C609.42,-58.08 570.72,-38.95 546.16,-26.81"/>
<polygon fill="red" stroke="red" stroke-width="0.19" points="547.42,-23.52 536.9,-22.23 544.31,-29.8 547.42,-23.52"/>
</g>
<!-- &#45;6&#45;&gt;4 -->
<g id="edge29" class="edge">
<title>&#45;6&#45;&gt;4</title>
<path fill="none" stroke="red" stroke-width="0.4" d="M628.67,-68.64C625.85,-67.59 622.84,-66.54 620,-65.7 546.77,-44.04 523.27,-57.12 452,-29.7 451.14,-29.37 450.27,-29.01 449.4,-28.62"/>
<polygon fill="red" stroke="red" stroke-width="0.4" points="450.83,-25.42 440.34,-23.95 447.62,-31.64 450.83,-25.42"/>
</g>
<!-- &#45;7 -->
<g id="node7" class="node">
<title>&#45;7</title>
<polygon fill="lightgray" stroke="black" points="737,-83.7 713,-83.7 713,-65.7 737,-65.7 737,-83.7"/>
<text text-anchor="middle" x="725" y="-72.5" font-family="Times New Roman,serif" font-size="9.00">&#45;7</text>
</g>
<!-- &#45;7&#45;&gt;1 -->
<g id="edge30" class="edge">
<title>&#45;7&#45;&gt;1</title>
<path fill="none" stroke="green" stroke-width="0.11" d="M712.69,-68.57C709.87,-67.51 706.86,-66.49 704,-65.7 615.25,-41.2 586.52,-61.18 500,-29.7 499.13,-29.38 498.25,-29.03 497.38,-28.66"/>
<polygon fill="green" stroke="green" stroke-width="0.11" points="498.8,-25.46 488.3,-24.04 495.63,-31.7 498.8,-25.46"/>
</g>
<!-- &#45;7&#45;&gt;2 -->
<g id="edge31" class="edge">
<title>&#45;7&#45;&gt;2</title>
<path fill="none" stroke="green" stroke-width="0.27" stroke-dasharray="1,5" d="M712.72,-68.45C709.9,-67.4 706.88,-66.41 704,-65.7 573.61,-33.56 531.41,-72.12 404,-29.7 403.12,-29.41 402.24,-29.08 401.36,-28.72"/>
<polygon fill="green" stroke="green" stroke-width="0.27" points="402.76,-25.51 392.25,-24.19 399.64,-31.78 402.76,-25.51"/>
</g>
<!-- &#45;7&#45;&gt;3 -->
<g id="edge32" class="edge">
<title>&#45;7&#45;&gt;3</title>
<path fill="none" stroke="green" stroke-width="0.16" d="M712.63,-68.77C709.81,-67.7 706.82,-66.62 704,-65.7 648.99,-47.65 583.17,-30.53 548.36,-21.82"/>
<polygon fill="green" stroke="green" stroke-width="0.16" points="549.15,-18.41 538.6,-19.4 547.47,-25.21 549.15,-18.41"/>
</g>
<!-- &#45;7&#45;&gt;4 -->
<g id="edge33" class="edge">
<title>&#45;7&#45;&gt;4</title>
<path fill="none" stroke="red" stroke-width="0.25" d="M712.71,-68.5C709.89,-67.45 706.87,-66.44 704,-65.7 594.46,-37.39 558.94,-66.64 452,-29.7 451.12,-29.4 450.25,-29.06 449.37,-28.7"/>
<polygon fill="red" stroke="red" stroke-width="0.25" points="450.78,-25.49 440.27,-24.13 447.64,-31.75 450.78,-25.49"/>
</g>
<!-- &#45;8 -->
<g id="node8" class="node">
<title>&#45;8</title>
<polygon fill="lightgray" stroke="black" points="695,-83.7 671,-83.7 671,-65.7 695,-65.7 695,-83.7"/>
<text text-anchor="middle" x="683" y="-72.5" font-family="Times New Roman,serif" font-size="9.00">&#45;8</text>
</g>
<!-- &#45;8&#45;&gt;0 -->
<g id="edge34" class="edge">
<title>&#45;8&#45;&gt;0</title>
<path fill="none" stroke="red" stroke-width="0.65" d="M670.72,-68.44C667.9,-67.4 664.88,-66.4 662,-65.7 529,-33.08 485.98,-72.81 356,-29.7 355.12,-29.41 354.24,-29.08 353.36,-28.73"/>
<polygon fill="red" stroke="red" stroke-width="0.65" points="354.76,-25.52 344.25,-24.19 351.64,-31.78 354.76,-25.52"/>
</g>
<!-- &#45;8&#45;&gt;1 -->
<g id="edge35" class="edge">
<title>&#45;8&#45;&gt;1</title>
<path fill="none" stroke="green" stroke-width="0.39" d="M670.67,-68.66C667.84,-67.6 664.84,-66.55 662,-65.7 591.35,-44.51 568.74,-56.44 500,-29.7 499.14,-29.36 498.27,-29 497.4,-28.61"/>
<polygon fill="green" stroke="green" stroke-width="0.39" points="498.83,-25.42 488.34,-23.93 495.62,-31.63 498.83,-25.42"/>
</g>
<!-- &#45;8&#45;&gt;2 -->
<g id="edge36" class="edge">
<title>&#45;8&#45;&gt;2</title>
<path fill="none" stroke="green" stroke-width="0.48" d="M670.71,-68.49C667.89,-67.44 664.87,-66.44 662,-65.7 549.86,-36.91 513.49,-67.33 404,-29.7 403.12,-29.4 402.24,-29.06 401.37,-28.7"/>
<polygon fill="green" stroke="green" stroke-width="0.48" points="402.78,-25.49 392.27,-24.14 399.64,-31.75 402.78,-25.49"/>
</g>
<!-- &#45;8&#45;&gt;3 -->
<g id="edge37" class="edge">
<title>&#45;8&#45;&gt;3</title>
<path fill="none" stroke="green" stroke-width="0.33" d="M670.58,-68.92C667.76,-67.85 664.78,-66.73 662,-65.7 621.76,-50.77 574.72,-33.9 547.25,-24.11"/>
<polygon fill="green" stroke="green" stroke-width="0.33" points="548.33,-20.78 537.74,-20.72 545.99,-27.37 548.33,-20.78"/>
</g>
<!-- &#45;8&#45;&gt;4 -->
<g id="edge38" class="edge">
<title>&#45;8&#45;&gt;4</title>
<path fill="none" stroke="red" stroke-width="0.3" d="M670.7,-68.55C667.87,-67.5 664.86,-66.48 662,-65.7 570.66,-40.73 541.06,-61.86 452,-29.7 451.13,-29.38 450.25,-29.04 449.38,-28.67"/>
<polygon fill="red" stroke="red" stroke-width="0.3" points="450.8,-25.46 440.3,-24.06 447.63,-31.71 450.8,-25.46"/>
</g>
<!-- &#45;9 -->
<g id="node9" class="node">
<title>&#45;9</title>
<polygon fill="lightgray" stroke="black" points="66,-83.7 42,-83.7 42,-65.7 66,-65.7 66,-83.7"/>
<text text-anchor="middle" x="54" y="-72.5" font-family="Times New Roman,serif" font-size="9.00">&#45;9</text>
</g>
<!-- &#45;9&#45;&gt;0 -->
<g id="edge39" class="edge">
<title>&#45;9&#45;&gt;0</title>
<path fill="none" stroke="green" stroke-width="0.18" d="M66.32,-68.6C69.14,-67.55 72.15,-66.51 75,-65.7 158.76,-41.81 261.13,-25.75 307.32,-19.19"/>
<polygon fill="green" stroke="green" stroke-width="0.18" points="307.88,-22.64 317.3,-17.79 306.91,-15.71 307.88,-22.64"/>
</g>
<!-- &#45;9&#45;&gt;1 -->
<g id="edge40" class="edge">
<title>&#45;9&#45;&gt;1</title>
<path fill="none" stroke="green" stroke-width="0.44" stroke-dasharray="1,5" d="M66.26,-68.4C69.09,-67.35 72.11,-66.37 75,-65.7 238.9,-27.39 291.67,-80.93 452,-29.7 453.05,-29.36 454.11,-28.97 455.17,-28.55"/>
<polygon fill="green" stroke="green" stroke-width="0.44" points="456.91,-31.59 464.26,-23.96 453.76,-25.34 456.91,-31.59"/>
</g>
<!-- &#45;9&#45;&gt;2 -->
<g id="edge41" class="edge">
<title>&#45;9&#45;&gt;2</title>
<path fill="none" stroke="green" stroke-width="0.18" d="M66.28,-68.46C69.1,-67.42 72.12,-66.42 75,-65.7 197.13,-35.07 236.7,-69.95 356,-29.7 356.88,-29.4 357.76,-29.07 358.64,-28.72"/>
<polygon fill="green" stroke="green" stroke-width="0.18" points="360.36,-31.77 367.74,-24.17 357.23,-25.51 360.36,-31.77"/>
</g>
<!-- &#45;9&#45;&gt;3 -->
<g id="edge42" class="edge">
<title>&#45;9&#45;&gt;3</title>
<path fill="none" stroke="green" stroke-width="0.37" d="M66.26,-68.37C69.08,-67.33 72.11,-66.36 75,-65.7 259.82,-23.55 319.12,-86.43 500,-29.7 501.06,-29.37 502.12,-28.98 503.17,-28.56"/>
<polygon fill="green" stroke="green" stroke-width="0.37" points="504.91,-31.6 512.27,-23.99 501.76,-25.35 504.91,-31.6"/>
</g>
<!-- &#45;9&#45;&gt;4 -->
<g id="edge43" class="edge">
<title>&#45;9&#45;&gt;4</title>
<path fill="none" stroke="red" stroke-width="0.26" d="M66.27,-68.43C69.1,-67.38 72.12,-66.39 75,-65.7 218,-31.24 264.2,-75.44 404,-29.7 404.88,-29.41 405.76,-29.09 406.64,-28.74"/>
<polygon fill="red" stroke="red" stroke-width="0.26" points="408.36,-31.79 415.76,-24.21 405.24,-25.52 408.36,-31.79"/>
</g>
<!-- &#45;10 -->
<g id="node10" class="node">
<title>&#45;10</title>
<polygon fill="lightgray" stroke="black" points="113.5,-83.7 84.5,-83.7 84.5,-65.7 113.5,-65.7 113.5,-83.7"/>
<text text-anchor="middle" x="99" y="-72.5" font-family="Times New Roman,serif" font-size="9.00">&#45;10</text>
</g>
<!-- &#45;10&#45;&gt;0 -->
<g id="edge44" class="edge">
<title>&#45;10&#45;&gt;0</title>
<path fill="none" stroke="green" stroke-width="0.34" d="M113.53,-68.39C116.32,-67.45 119.24,-66.5 122,-65.7 188.42,-46.32 268.27,-28.96 307.63,-20.79"/>
<polygon fill="green" stroke="green" stroke-width="0.34" points="308.52,-24.18 317.61,-18.74 307.11,-17.33 308.52,-24.18"/>
</g>
<!-- &#45;10&#45;&gt;1 -->
<g id="edge45" class="edge">
<title>&#45;10&#45;&gt;1</title>
<path fill="none" stroke="green" stroke-width="0.49" d="M113.95,-67.95C116.6,-67.09 119.36,-66.29 122,-65.7 265.93,-33.26 311.77,-75.55 452,-29.7 452.88,-29.41 453.76,-29.09 454.65,-28.74"/>
<polygon fill="green" stroke="green" stroke-width="0.49" points="456.36,-31.8 463.76,-24.21 453.24,-25.53 456.36,-31.8"/>
</g>
<!-- &#45;10&#45;&gt;2 -->
<g id="edge46" class="edge">
<title>&#45;10&#45;&gt;2</title>
<path fill="none" stroke="green" stroke-width="0.28" d="M113.98,-68.05C116.62,-67.18 119.37,-66.35 122,-65.7 224.11,-40.31 256.73,-64.59 356,-29.7 356.87,-29.39 357.75,-29.05 358.63,-28.69"/>
<polygon fill="green" stroke="green" stroke-width="0.28" points="360.37,-31.73 367.72,-24.1 357.21,-25.48 360.37,-31.73"/>
</g>
<!-- &#45;10&#45;&gt;3 -->
<g id="edge47" class="edge">
<title>&#45;10&#45;&gt;3</title>
<path fill="none" stroke="green" stroke-width="0.29" d="M113.95,-67.92C116.6,-67.06 119.36,-66.28 122,-65.7 286.88,-29.72 339.24,-81.05 500,-29.7 501.05,-29.36 502.11,-28.97 503.17,-28.55"/>
<polygon fill="green" stroke="green" stroke-width="0.29" points="504.91,-31.59 512.26,-23.96 501.76,-25.34 504.91,-31.59"/>
</g>
<!-- &#45;10&#45;&gt;4 -->
<g id="edge48" class="edge">
<title>&#45;10&#45;&gt;4</title>
<path fill="none" stroke="red" stroke-width="0.16" d="M113.96,-67.99C116.61,-67.13 119.37,-66.32 122,-65.7 245,-36.79 284.27,-70.06 404,-29.7 404.88,-29.4 405.76,-29.07 406.64,-28.72"/>
<polygon fill="red" stroke="red" stroke-width="0.16" points="408.36,-31.77 415.74,-24.17 405.23,-25.51 408.36,-31.77"/>
</g>
<!-- &#45;11 -->
<g id="node11" class="node">
<title>&#45;11</title>
<polygon fill="lightgray" stroke="black" points="784.5,-83.7 755.5,-83.7 755.5,-65.7 784.5,-65.7 784.5,-83.7"/>
<text text-anchor="middle" x="770" y="-72.5" font-family="Times New Roman,serif" font-size="9.00">&#45;11</text>
</g>
<!-- &#45;11&#45;&gt;1 -->
<g id="edge49" class="edge">
<title>&#45;11&#45;&gt;1</title>
<path fill="none" stroke="red" stroke-width="0.28" d="M755.4,-68.38C752.32,-67.38 749.08,-66.43 746,-65.7 638.5,-40.13 604.38,-65.96 500,-29.7 499.13,-29.39 498.25,-29.06 497.37,-28.7"/>
<polygon fill="red" stroke="red" stroke-width="0.28" points="498.78,-25.49 488.28,-24.12 495.63,-31.74 498.78,-25.49"/>
</g>
<!-- &#45;11&#45;&gt;2 -->
<g id="edge50" class="edge">
<title>&#45;11&#45;&gt;2</title>
<path fill="none" stroke="red" stroke-width="0.15" d="M755.42,-68.28C752.34,-67.29 749.09,-66.37 746,-65.7 596.62,-33.34 549.36,-76.92 404,-29.7 402.95,-29.36 401.89,-28.96 400.84,-28.53"/>
<polygon fill="red" stroke="red" stroke-width="0.15" points="402.25,-25.33 391.75,-23.93 399.09,-31.57 402.25,-25.33"/>
</g>
<!-- &#45;11&#45;&gt;3 -->
<g id="edge51" class="edge">
<title>&#45;11&#45;&gt;3</title>
<path fill="none" stroke="green" stroke-width="0.27" d="M755.35,-68.55C752.28,-67.55 749.05,-66.55 746,-65.7 674.91,-45.92 589.36,-28.46 548.31,-20.47"/>
<polygon fill="green" stroke="green" stroke-width="0.27" points="548.89,-17.02 538.41,-18.56 547.56,-23.89 548.89,-17.02"/>
</g>
<!-- &#45;11&#45;&gt;4 -->
<g id="edge52" class="edge">
<title>&#45;11&#45;&gt;4</title>
<path fill="none" stroke="red" stroke-width="0.16" d="M755.41,-68.32C752.33,-67.33 749.08,-66.39 746,-65.7 617.58,-36.74 576.85,-71.43 452,-29.7 451.12,-29.4 450.24,-29.08 449.36,-28.72"/>
<polygon fill="red" stroke="red" stroke-width="0.16" points="450.77,-25.51 440.25,-24.18 447.64,-31.78 450.77,-25.51"/>
</g>
<!-- &#45;12 -->
<g id="node12" class="node">
<title>&#45;12</title>
<polygon fill="lightgray" stroke="black" points="160.5,-83.7 131.5,-83.7 131.5,-65.7 160.5,-65.7 160.5,-83.7"/>
<text text-anchor="middle" x="146" y="-72.5" font-family="Times New Roman,serif" font-size="9.00">&#45;12</text>
</g>
<!-- &#45;12&#45;&gt;0 -->
<g id="edge53" class="edge">
<title>&#45;12&#45;&gt;0</title>
<path fill="none" stroke="green" stroke-width="0.1" d="M160.57,-68.54C163.36,-67.57 166.27,-66.59 169,-65.7 218.28,-49.6 276.45,-32.19 308.26,-22.8"/>
<polygon fill="green" stroke="green" stroke-width="0.1" points="309.38,-26.12 317.99,-19.94 307.41,-19.4 309.38,-26.12"/>
</g>
<!-- &#45;12&#45;&gt;1 -->
<g id="edge54" class="edge">
<title>&#45;12&#45;&gt;1</title>
<path fill="none" stroke="green" stroke-width="0.54" d="M160.96,-67.99C163.61,-67.13 166.37,-66.32 169,-65.7 292.43,-36.71 331.84,-70.18 452,-29.7 452.88,-29.4 453.76,-29.07 454.64,-28.72"/>
<polygon fill="green" stroke="green" stroke-width="0.54" points="456.36,-31.77 463.74,-24.17 453.23,-25.51 456.36,-31.77"/>
</g>
<!-- &#45;12&#45;&gt;2 -->
<g id="edge55" class="edge">
<title>&#45;12&#45;&gt;2</title>
<path fill="none" stroke="red" stroke-width="0.47" d="M160.5,-68.3C163.3,-67.36 166.22,-66.44 169,-65.7 250.74,-43.74 276.69,-59.26 356,-29.7 356.87,-29.38 357.74,-29.02 358.61,-28.65"/>
<polygon fill="red" stroke="red" stroke-width="0.47" points="360.38,-31.68 367.68,-24 357.19,-25.44 360.38,-31.68"/>
</g>
<!-- &#45;12&#45;&gt;3 -->
<g id="edge56" class="edge">
<title>&#45;12&#45;&gt;3</title>
<path fill="none" stroke="green" stroke-width="0.19" d="M160.95,-67.95C163.6,-67.09 166.36,-66.29 169,-65.7 313.36,-33.18 359.34,-75.67 500,-29.7 500.88,-29.41 501.76,-29.09 502.65,-28.74"/>
<polygon fill="green" stroke="green" stroke-width="0.19" points="504.36,-31.8 511.76,-24.22 501.24,-25.53 504.36,-31.8"/>
</g>
<!-- &#45;12&#45;&gt;4 -->
<g id="edge57" class="edge">
<title>&#45;12&#45;&gt;4</title>
<path fill="none" stroke="green" stroke-width="0.23" stroke-dasharray="1,5" d="M160.97,-68.05C163.62,-67.18 166.37,-66.35 169,-65.7 271.55,-40.24 304.3,-64.71 404,-29.7 404.87,-29.39 405.75,-29.05 406.63,-28.69"/>
<polygon fill="green" stroke="green" stroke-width="0.23" points="408.37,-31.73 415.72,-24.1 405.21,-25.48 408.37,-31.73"/>
</g>
<!-- &#45;13 -->
<g id="node13" class="node">
<title>&#45;13</title>
<polygon fill="lightgray" stroke="black" points="878.5,-83.7 849.5,-83.7 849.5,-65.7 878.5,-65.7 878.5,-83.7"/>
<text text-anchor="middle" x="864" y="-72.5" font-family="Times New Roman,serif" font-size="9.00">&#45;13</text>
</g>
<!-- &#45;13&#45;&gt;1 -->
<g id="edge58" class="edge">
<title>&#45;13&#45;&gt;1</title>
<path fill="none" stroke="green" stroke-width="0.14" d="M849.05,-67.94C846.4,-67.08 843.64,-66.29 841,-65.7 692.27,-32.45 644.93,-76.81 500,-29.7 498.95,-29.36 497.89,-28.96 496.84,-28.53"/>
<polygon fill="green" stroke="green" stroke-width="0.14" points="498.25,-25.32 487.75,-23.93 495.09,-31.57 498.25,-25.32"/>
</g>
<!-- &#45;13&#45;&gt;3 -->
<g id="edge59" class="edge">
<title>&#45;13&#45;&gt;3</title>
<path fill="none" stroke="green" stroke-width="0.2" d="M849.02,-68.06C846.37,-67.18 843.62,-66.36 841,-65.7 733.81,-38.86 602.44,-23.69 548.69,-18.21"/>
<polygon fill="green" stroke="green" stroke-width="0.2" points="549.02,-14.73 538.72,-17.22 548.32,-21.69 549.02,-14.73"/>
</g>
<!-- &#45;13&#45;&gt;4 -->
<g id="edge60" class="edge">
<title>&#45;13&#45;&gt;4</title>
<path fill="none" stroke="red" stroke-width="0.24" d="M849.06,-67.92C846.4,-67.06 843.64,-66.27 841,-65.7 671.31,-28.91 617.47,-82.31 452,-29.7 450.95,-29.36 449.89,-28.98 448.83,-28.55"/>
<polygon fill="red" stroke="red" stroke-width="0.24" points="450.24,-25.34 439.74,-23.97 447.09,-31.59 450.24,-25.34"/>
</g>
<!-- &#45;14 -->
<g id="node14" class="node">
<title>&#45;14</title>
<polygon fill="lightgray" stroke="black" points="831.5,-83.7 802.5,-83.7 802.5,-65.7 831.5,-65.7 831.5,-83.7"/>
<text text-anchor="middle" x="817" y="-72.5" font-family="Times New Roman,serif" font-size="9.00">&#45;14</text>
</g>
<!-- &#45;14&#45;&gt;1 -->
<g id="edge61" class="edge">
<title>&#45;14&#45;&gt;1</title>
<path fill="none" stroke="red" stroke-width="0.18" d="M802.04,-67.98C799.39,-67.12 796.64,-66.31 794,-65.7 665.77,-35.91 624.85,-71.43 500,-29.7 499.12,-29.4 498.24,-29.08 497.36,-28.72"/>
<polygon fill="red" stroke="red" stroke-width="0.18" points="498.77,-25.51 488.25,-24.18 495.64,-31.78 498.77,-25.51"/>
</g>
<!-- &#45;14&#45;&gt;2 -->
<g id="edge62" class="edge">
<title>&#45;14&#45;&gt;2</title>
<path fill="none" stroke="red" stroke-width="0.53" d="M802.06,-67.92C799.4,-67.06 796.64,-66.27 794,-65.7 623.88,-28.83 569.89,-82.42 404,-29.7 402.95,-29.36 401.89,-28.98 400.83,-28.55"/>
<polygon fill="red" stroke="red" stroke-width="0.53" points="402.24,-25.34 391.74,-23.97 399.09,-31.59 402.24,-25.34"/>
</g>
<!-- &#45;14&#45;&gt;3 -->
<g id="edge63" class="edge">
<title>&#45;14&#45;&gt;3</title>
<path fill="none" stroke="green" stroke-width="0.19" d="M802.01,-68.12C799.36,-67.24 796.62,-66.39 794,-65.7 705.08,-42.17 596.8,-25.79 548.87,-19.15"/>
<polygon fill="green" stroke="green" stroke-width="0.19" points="549.19,-15.66 538.81,-17.77 548.24,-22.59 549.19,-15.66"/>
</g>
<!-- &#45;14&#45;&gt;4 -->
<g id="edge64" class="edge">
<title>&#45;14&#45;&gt;4</title>
<path fill="none" stroke="green" stroke-width="0.13" d="M802.05,-67.94C799.4,-67.08 796.64,-66.29 794,-65.7 644.84,-32.37 597.36,-76.92 452,-29.7 450.95,-29.36 449.89,-28.96 448.84,-28.53"/>
<polygon fill="green" stroke="green" stroke-width="0.13" points="450.25,-25.33 439.75,-23.93 447.09,-31.57 450.25,-25.33"/>
</g>
<!-- &#45;15 -->
<g id="node15" class="node">
<title>&#45;15</title>
<polygon fill="lightgray" stroke="black" points="207.5,-83.7 178.5,-83.7 178.5,-65.7 207.5,-65.7 207.5,-83.7"/>
<text text-anchor="middle" x="193" y="-72.5" font-family="Times New Roman,serif" font-size="9.00">&#45;15</text>
</g>
<!-- &#45;15&#45;&gt;0 -->
<g id="edge65" class="edge">
<title>&#45;15&#45;&gt;0</title>
<path fill="none" stroke="red" stroke-width="0.85" d="M207.61,-67.62C231.8,-57.55 280.36,-37.34 309.13,-25.37"/>
<polygon fill="red" stroke="red" stroke-width="0.85" points="310.52,-28.58 318.41,-21.51 307.83,-22.12 310.52,-28.58"/>
</g>
<!-- &#45;15&#45;&gt;1 -->
<g id="edge66" class="edge">
<title>&#45;15&#45;&gt;1</title>
<path fill="none" stroke="red" stroke-width="0.29" d="M207.97,-68.05C210.62,-67.18 213.37,-66.35 216,-65.7 318.98,-40.16 351.88,-64.82 452,-29.7 452.87,-29.39 453.75,-29.05 454.63,-28.69"/>
<polygon fill="red" stroke="red" stroke-width="0.29" points="456.37,-31.73 463.72,-24.1 453.21,-25.48 456.37,-31.73"/>
</g>
<!-- &#45;15&#45;&gt;2 -->
<g id="edge67" class="edge">
<title>&#45;15&#45;&gt;2</title>
<path fill="none" stroke="red" stroke-width="0.32" d="M207.54,-68.44C210.33,-67.48 213.25,-66.53 216,-65.7 277.5,-47.13 296.52,-53.98 356,-29.7 356.86,-29.35 357.72,-28.97 358.59,-28.58"/>
<polygon fill="red" stroke="red" stroke-width="0.32" points="360.39,-31.59 367.62,-23.85 357.14,-25.38 360.39,-31.59"/>
</g>
<!-- &#45;15&#45;&gt;3 -->
<g id="edge68" class="edge">
<title>&#45;15&#45;&gt;3</title>
<path fill="none" stroke="green" stroke-width="0.51" d="M207.96,-67.99C210.61,-67.13 213.37,-66.32 216,-65.7 339.87,-36.64 379.42,-70.29 500,-29.7 500.88,-29.4 501.76,-29.07 502.64,-28.72"/>
<polygon fill="green" stroke="green" stroke-width="0.51" points="504.36,-31.77 511.74,-24.17 501.23,-25.51 504.36,-31.77"/>
</g>
<!-- &#45;15&#45;&gt;4 -->
<g id="edge69" class="edge">
<title>&#45;15&#45;&gt;4</title>
<path fill="none" stroke="green" stroke-width="0.32" stroke-dasharray="1,5" d="M207.5,-68.3C210.3,-67.36 213.22,-66.44 216,-65.7 298.17,-43.67 324.27,-59.37 404,-29.7 404.87,-29.38 405.74,-29.02 406.61,-28.65"/>
<polygon fill="green" stroke="green" stroke-width="0.32" points="408.38,-31.68 415.68,-24.01 405.19,-25.44 408.38,-31.68"/>
</g>
<!-- &#45;16 -->
<g id="node16" class="node">
<title>&#45;16</title>
<polygon fill="lightgray" stroke="black" points="254.5,-83.7 225.5,-83.7 225.5,-65.7 254.5,-65.7 254.5,-83.7"/>
<text text-anchor="middle" x="240" y="-72.5" font-family="Times New Roman,serif" font-size="9.00">&#45;16</text>
</g>
<!-- &#45;16&#45;&gt;0 -->
<g id="edge70" class="edge">
<title>&#45;16&#45;&gt;0</title>
<path fill="none" stroke="red" stroke-width="0.19" stroke-dasharray="1,5" d="M252.79,-65.65C267.84,-56.19 293.05,-40.34 310.99,-29.06"/>
<polygon fill="red" stroke="red" stroke-width="0.19" points="313.01,-31.93 319.61,-23.64 309.28,-26 313.01,-31.93"/>
</g>
<!-- &#45;16&#45;&gt;1 -->
<g id="edge71" class="edge">
<title>&#45;16&#45;&gt;1</title>
<path fill="none" stroke="green" stroke-width="0.36" d="M254.5,-68.29C257.3,-67.35 260.22,-66.44 263,-65.7 345.6,-43.59 371.85,-59.49 452,-29.7 452.87,-29.38 453.74,-29.02 454.61,-28.65"/>
<polygon fill="green" stroke="green" stroke-width="0.36" points="456.38,-31.68 463.69,-24.01 453.19,-25.45 456.38,-31.68"/>
</g>
<!-- &#45;16&#45;&gt;2 -->
<g id="edge72" class="edge">
<title>&#45;16&#45;&gt;2</title>
<path fill="none" stroke="green" stroke-width="0.15" d="M254.62,-68.49C281.41,-58.88 337.32,-38.56 356,-29.7 356.84,-29.3 357.68,-28.89 358.53,-28.46"/>
<polygon fill="green" stroke="green" stroke-width="0.15" points="360.39,-31.43 367.5,-23.57 357.04,-25.28 360.39,-31.43"/>
</g>
<!-- &#45;16&#45;&gt;3 -->
<g id="edge73" class="edge">
<title>&#45;16&#45;&gt;3</title>
<path fill="none" stroke="red" stroke-width="0.43" d="M254.97,-68.05C257.62,-67.17 260.37,-66.35 263,-65.7 366.42,-40.09 399.45,-64.93 500,-29.7 500.87,-29.39 501.75,-29.05 502.63,-28.69"/>
<polygon fill="red" stroke="red" stroke-width="0.43" points="504.37,-31.73 511.72,-24.11 501.21,-25.48 504.37,-31.73"/>
</g>
<!-- &#45;16&#45;&gt;4 -->
<g id="edge74" class="edge">
<title>&#45;16&#45;&gt;4</title>
<path fill="none" stroke="red" stroke-width="0.38" d="M254.54,-68.43C257.33,-67.48 260.25,-66.53 263,-65.7 324.93,-47.06 344.1,-54.09 404,-29.7 404.86,-29.35 405.72,-28.97 406.59,-28.58"/>
<polygon fill="red" stroke="red" stroke-width="0.38" points="408.39,-31.59 415.62,-23.85 405.14,-25.39 408.39,-31.59"/>
</g>
<!-- &#45;17 -->
<g id="node17" class="node">
<title>&#45;17</title>
<polygon fill="lightgray" stroke="black" points="301.5,-83.7 272.5,-83.7 272.5,-65.7 301.5,-65.7 301.5,-83.7"/>
<text text-anchor="middle" x="287" y="-72.5" font-family="Times New Roman,serif" font-size="9.00">&#45;17</text>
</g>
<!-- &#45;17&#45;&gt;0 -->
<g id="edge75" class="edge">
<title>&#45;17&#45;&gt;0</title>
<path fill="none" stroke="red" stroke-width="0.69" d="M293.26,-65.65C299.37,-57.8 308.91,-45.53 316.99,-35.14"/>
<polygon fill="red" stroke="red" stroke-width="0.69" points="319.95,-37.04 323.33,-26.99 314.43,-32.74 319.95,-37.04"/>
</g>
<!-- &#45;17&#45;&gt;1 -->
<g id="edge76" class="edge">
<title>&#45;17&#45;&gt;1</title>
<path fill="none" stroke="green" stroke-width="0.22" d="M301.54,-68.43C304.33,-67.48 307.25,-66.52 310,-65.7 372.36,-46.99 391.68,-54.2 452,-29.7 452.86,-29.35 453.72,-28.98 454.59,-28.58"/>
<polygon fill="green" stroke="green" stroke-width="0.22" points="456.39,-31.59 463.63,-23.86 453.14,-25.39 456.39,-31.59"/>
</g>
<!-- &#45;17&#45;&gt;2 -->
<g id="edge77" class="edge">
<title>&#45;17&#45;&gt;2</title>
<path fill="none" stroke="green" stroke-width="0.21" d="M299.93,-65.65C315.23,-56.14 340.91,-40.16 359.06,-28.87"/>
<polygon fill="green" stroke="green" stroke-width="0.21" points="361.13,-31.71 367.77,-23.46 357.43,-25.77 361.13,-31.71"/>
</g>
<!-- &#45;17&#45;&gt;3 -->
<g id="edge78" class="edge">
<title>&#45;17&#45;&gt;3</title>
<path fill="none" stroke="green" stroke-width="0.18" d="M301.99,-68.13C304.64,-67.25 307.39,-66.4 310,-65.7 393.04,-43.52 419.42,-59.6 500,-29.7 500.87,-29.38 501.74,-29.02 502.61,-28.65"/>
<polygon fill="green" stroke="green" stroke-width="0.18" points="504.38,-31.68 511.69,-24.01 501.19,-25.45 504.38,-31.68"/>
</g>
<!-- &#45;17&#45;&gt;4 -->
<g id="edge79" class="edge">
<title>&#45;17&#45;&gt;4</title>
<path fill="none" stroke="green" stroke-width="0.4" stroke-dasharray="1,5" d="M301.75,-68.49C328.77,-58.9 385.16,-38.6 404,-29.7 404.84,-29.3 405.68,-28.89 406.53,-28.46"/>
<polygon fill="green" stroke="green" stroke-width="0.4" points="408.39,-31.43 415.5,-23.58 405.05,-25.29 408.39,-31.43"/>
</g>
<!-- &#45;18 -->
<g id="node18" class="node">
<title>&#45;18</title>
<polygon fill="lightgray" stroke="black" points="348.5,-83.7 319.5,-83.7 319.5,-65.7 348.5,-65.7 348.5,-83.7"/>
<text text-anchor="middle" x="334" y="-72.5" font-family="Times New Roman,serif" font-size="9.00">&#45;18</text>
</g>
<!-- &#45;18&#45;&gt;0 -->
<g id="edge80" class="edge">
<title>&#45;18&#45;&gt;0</title>
<path fill="none" stroke="red" stroke-width="0.46" stroke-dasharray="1,5" d="M333.72,-65.65C333.49,-59.05 333.16,-49.33 332.84,-40.23"/>
<polygon fill="red" stroke="red" stroke-width="0.46" points="336.33,-39.93 332.49,-30.06 329.34,-40.17 336.33,-39.93"/>
</g>
<!-- &#45;18&#45;&gt;1 -->
<g id="edge81" class="edge">
<title>&#45;18&#45;&gt;1</title>
<path fill="none" stroke="red" stroke-width="0.22" d="M348.88,-68.5C376.13,-58.92 433.01,-38.64 452,-29.7 452.84,-29.3 453.69,-28.89 454.54,-28.46"/>
<polygon fill="red" stroke="red" stroke-width="0.22" points="456.39,-31.44 463.51,-23.58 453.05,-25.29 456.39,-31.44"/>
</g>
<!-- &#45;18&#45;&gt;2 -->
<g id="edge82" class="edge">
<title>&#45;18&#45;&gt;2</title>
<path fill="none" stroke="green" stroke-width="0.28" stroke-dasharray="1,5" d="M340.4,-65.65C346.71,-57.72 356.59,-45.29 364.9,-34.83"/>
<polygon fill="green" stroke="green" stroke-width="0.28" points="367.65,-37 371.14,-26.99 362.17,-32.64 367.65,-37"/>
</g>
<!-- &#45;18&#45;&gt;3 -->
<g id="edge83" class="edge">
<title>&#45;18&#45;&gt;3</title>
<path fill="none" stroke="green" stroke-width="0.17" d="M348.54,-68.43C351.33,-67.47 354.25,-66.52 357,-65.7 419.79,-46.91 439.26,-54.31 500,-29.7 500.86,-29.35 501.72,-28.98 502.59,-28.58"/>
<polygon fill="green" stroke="green" stroke-width="0.17" points="504.39,-31.59 511.63,-23.86 501.14,-25.39 504.39,-31.59"/>
</g>
<!-- &#45;18&#45;&gt;4 -->
<g id="edge84" class="edge">
<title>&#45;18&#45;&gt;4</title>
<path fill="none" stroke="green" stroke-width="0.12" d="M347.07,-65.65C362.61,-56.09 388.73,-40.01 407.09,-28.72"/>
<polygon fill="green" stroke="green" stroke-width="0.12" points="408.96,-31.68 415.64,-23.46 405.29,-25.72 408.96,-31.68"/>
</g>
<!-- &#45;19 -->
<g id="node19" class="node">
<title>&#45;19</title>
<polygon fill="lightgray" stroke="black" points="395.5,-83.7 366.5,-83.7 366.5,-65.7 395.5,-65.7 395.5,-83.7"/>
<text text-anchor="middle" x="381" y="-72.5" font-family="Times New Roman,serif" font-size="9.00">&#45;19</text>
</g>
<!-- &#45;19&#45;&gt;0 -->
<g id="edge85" class="edge">
<title>&#45;19&#45;&gt;0</title>
<path fill="none" stroke="green" stroke-width="0.57" d="M374.19,-65.65C367.46,-57.72 356.94,-45.29 348.08,-34.83"/>
<polygon fill="green" stroke="green" stroke-width="0.57" points="350.57,-32.36 341.44,-26.99 345.23,-36.89 350.57,-32.36"/>
</g>
<!-- &#45;19&#45;&gt;1 -->
<g id="edge86" class="edge">
<title>&#45;19&#45;&gt;1</title>
<path fill="none" stroke="red" stroke-width="0.5" d="M394.21,-65.65C409.91,-56.09 436.32,-40.01 454.87,-28.72"/>
<polygon fill="red" stroke="red" stroke-width="0.5" points="456.79,-31.65 463.51,-23.46 453.15,-25.67 456.79,-31.65"/>
</g>
<!-- &#45;19&#45;&gt;2 -->
<g id="edge87" class="edge">
<title>&#45;19&#45;&gt;2</title>
<path fill="none" stroke="green" stroke-width="0.38" d="M380.86,-65.65C380.75,-59.05 380.58,-49.33 380.42,-40.23"/>
<polygon fill="green" stroke="green" stroke-width="0.38" points="383.92,-39.99 380.25,-30.06 376.92,-40.12 383.92,-39.99"/>
</g>
<!-- &#45;19&#45;&gt;3 -->
<g id="edge88" class="edge">
<title>&#45;19&#45;&gt;3</title>
<path fill="none" stroke="green" stroke-width="0.34" d="M395.94,-68.34C425.66,-57.64 490.23,-34.28 500,-29.7 500.84,-29.31 501.69,-28.89 502.54,-28.47"/>
<polygon fill="green" stroke="green" stroke-width="0.34" points="504.39,-31.44 511.51,-23.59 501.05,-25.29 504.39,-31.44"/>
</g>
<!-- &#45;19&#45;&gt;4 -->
<g id="edge89" class="edge">
<title>&#45;19&#45;&gt;4</title>
<path fill="none" stroke="red" stroke-width="0.24" d="M387.54,-65.65C393.98,-57.72 404.08,-45.29 412.58,-34.83"/>
<polygon fill="red" stroke="red" stroke-width="0.24" points="415.36,-36.96 418.94,-26.99 409.92,-32.55 415.36,-36.96"/>
</g>
<!-- &#45;20 -->
<g id="node20" class="node">
<title>&#45;20</title>
<polygon fill="lightgray" stroke="black" points="442.5,-83.7 413.5,-83.7 413.5,-65.7 442.5,-65.7 442.5,-83.7"/>
<text text-anchor="middle" x="428" y="-72.5" font-family="Times New Roman,serif" font-size="9.00">&#45;20</text>
</g>
<!-- &#45;20&#45;&gt;0 -->
<g id="edge90" class="edge">
<title>&#45;20&#45;&gt;0</title>
<path fill="none" stroke="green" stroke-width="0.4" d="M414.65,-65.65C398.7,-56.04 371.81,-39.84 353.04,-28.53"/>
<polygon fill="green" stroke="green" stroke-width="0.4" points="354.69,-25.44 344.32,-23.28 351.08,-31.43 354.69,-25.44"/>
</g>
<!-- &#45;20&#45;&gt;1 -->
<g id="edge91" class="edge">
<title>&#45;20&#45;&gt;1</title>
<path fill="none" stroke="green" stroke-width="0.16" d="M434.67,-65.65C441.26,-57.72 451.57,-45.29 460.25,-34.83"/>
<polygon fill="green" stroke="green" stroke-width="0.16" points="463.06,-36.93 466.75,-26.99 457.67,-32.46 463.06,-36.93"/>
</g>
<!-- &#45;20&#45;&gt;2 -->
<g id="edge92" class="edge">
<title>&#45;20&#45;&gt;2</title>
<path fill="none" stroke="red" stroke-width="0.17" d="M421.33,-65.65C414.74,-57.72 404.43,-45.29 395.75,-34.83"/>
<polygon fill="red" stroke="red" stroke-width="0.17" points="398.33,-32.46 389.25,-26.99 392.94,-36.93 398.33,-32.46"/>
</g>
<!-- &#45;20&#45;&gt;3 -->
<g id="edge93" class="edge">
<title>&#45;20&#45;&gt;3</title>
<path fill="none" stroke="green" stroke-width="0.63" d="M441.35,-65.65C457.3,-56.04 484.19,-39.84 502.96,-28.53"/>
<polygon fill="green" stroke="green" stroke-width="0.63" points="504.92,-31.43 511.68,-23.28 501.31,-25.44 504.92,-31.43"/>
</g>
<!-- &#45;20&#45;&gt;4 -->
<g id="edge94" class="edge">
<title>&#45;20&#45;&gt;4</title>
<path fill="none" stroke="green" stroke-width="0.14" d="M428,-65.65C428,-59.05 428,-49.33 428,-40.23"/>
<polygon fill="green" stroke="green" stroke-width="0.14" points="431.5,-40.06 428,-30.06 424.5,-40.06 431.5,-40.06"/>
</g>
</g>
</svg>
