<?xml version="1.0" encoding="UTF-8" standalone="no"?>
<!DOCTYPE svg PUBLIC "-//W3C//DTD SVG 1.1//EN"
 "http://www.w3.org/Graphics/SVG/1.1/DTD/svg11.dtd">
<!-- Generated by graphviz version 2.49.0 (20210828.1703)
 -->
<!-- Pages: 1 -->
<svg width="1022pt" height="164pt"
 viewBox="0.00 0.00 1022.37 164.47" xmlns="http://www.w3.org/2000/svg" xmlns:xlink="http://www.w3.org/1999/xlink">
<g id="graph0" class="graph" transform="scale(1 1) rotate(0) translate(4 160.47)">
<polygon fill="white" stroke="transparent" points="-4,4 -4,-160.47 1018.37,-160.47 1018.37,4 -4,4"/>
<!-- &#45;1 -->
<g id="node1" class="node">
<title>&#45;1</title>
<polygon fill="lightgray" stroke="black" points="857.25,-93.08 833.25,-93.08 833.25,-75.08 857.25,-75.08 857.25,-93.08"/>
<text text-anchor="middle" x="845.25" y="-81.88" font-family="Times New Roman,serif" font-size="9.00">&#45;1</text>
</g>
<!-- 0 -->
<g id="node21" class="node">
<title>0</title>
<ellipse fill="lightblue" stroke="black" cx="469.25" cy="-14.85" rx="14.7" ry="14.7"/>
<text text-anchor="middle" x="469.25" y="-12.65" font-family="Times New Roman,serif" font-size="9.00">0</text>
</g>
<!-- &#45;1&#45;&gt;0 -->
<g id="edge1" class="edge">
<title>&#45;1&#45;&gt;0</title>
<path fill="none" stroke="green" stroke-width="0.47" d="M837.42,-74.73C833.76,-71.35 829.13,-67.76 824.25,-65.7 687.94,-8.08 633.9,-75.67 493.25,-29.7 492.37,-29.41 491.48,-29.09 490.6,-28.74"/>
<polygon fill="green" stroke="green" stroke-width="0.47" points="492,-25.53 481.49,-24.22 488.89,-31.8 492,-25.53"/>
</g>
<!-- 1 -->
<g id="node22" class="node">
<title>1</title>
<ellipse fill="lightblue" stroke="black" cx="421.25" cy="-14.85" rx="14.7" ry="14.7"/>
<text text-anchor="middle" x="421.25" y="-12.65" font-family="Times New Roman,serif" font-size="9.00">1</text>
</g>
<!-- &#45;1&#45;&gt;1 -->
<g id="edge2" class="edge">
<title>&#45;1&#45;&gt;1</title>
<path fill="none" stroke="red" stroke-width="0.13" d="M837.82,-75.06C834.1,-71.57 829.32,-67.8 824.25,-65.7 667.95,-0.89 606.43,-81.16 445.25,-29.7 444.19,-29.36 443.13,-28.97 442.08,-28.55"/>
<polygon fill="red" stroke="red" stroke-width="0.13" points="443.49,-25.34 432.98,-23.96 440.34,-31.59 443.49,-25.34"/>
</g>
<!-- 2 -->
<g id="node23" class="node">
<title>2</title>
<ellipse fill="lightblue" stroke="black" cx="373.25" cy="-14.85" rx="14.7" ry="14.7"/>
<text text-anchor="middle" x="373.25" y="-12.65" font-family="Times New Roman,serif" font-size="9.00">2</text>
</g>
<!-- &#45;1&#45;&gt;2 -->
<g id="edge3" class="edge">
<title>&#45;1&#45;&gt;2</title>
<path fill="none" stroke="red" stroke-width="0.19" d="M837.83,-75.03C834.12,-71.54 829.33,-67.77 824.25,-65.7 647.94,6.32 578.98,-86.66 397.25,-29.7 396.19,-29.37 395.13,-28.98 394.08,-28.56"/>
<polygon fill="red" stroke="red" stroke-width="0.19" points="395.48,-25.35 384.97,-23.99 392.34,-31.61 395.48,-25.35"/>
</g>
<!-- 3 -->
<g id="node24" class="node">
<title>3</title>
<ellipse fill="lightblue" stroke="black" cx="565.25" cy="-14.85" rx="14.7" ry="14.7"/>
<text text-anchor="middle" x="565.25" y="-12.65" font-family="Times New Roman,serif" font-size="9.00">3</text>
</g>
<!-- &#45;1&#45;&gt;3 -->
<g id="edge4" class="edge">
<title>&#45;1&#45;&gt;3</title>
<path fill="none" stroke="red" stroke-width="0.36" d="M837.34,-74.92C833.66,-71.57 829.04,-67.96 824.25,-65.7 744.33,-28 637.73,-18.81 590.08,-16.57"/>
<polygon fill="red" stroke="red" stroke-width="0.36" points="590.2,-13.07 580.06,-16.16 589.91,-20.07 590.2,-13.07"/>
</g>
<!-- 4 -->
<g id="node25" class="node">
<title>4</title>
<ellipse fill="lightblue" stroke="black" cx="517.25" cy="-14.85" rx="14.7" ry="14.7"/>
<text text-anchor="middle" x="517.25" y="-12.65" font-family="Times New Roman,serif" font-size="9.00">4</text>
</g>
<!-- &#45;1&#45;&gt;4 -->
<g id="edge5" class="edge">
<title>&#45;1&#45;&gt;4</title>
<path fill="none" stroke="red" stroke-width="0.12" d="M837.4,-74.77C833.74,-71.4 829.11,-67.81 824.25,-65.7 707.91,-15.27 661.4,-70.18 541.25,-29.7 540.37,-29.4 539.49,-29.07 538.61,-28.72"/>
<polygon fill="red" stroke="red" stroke-width="0.12" points="540.01,-25.51 529.5,-24.17 536.88,-31.77 540.01,-25.51"/>
</g>
<!-- &#45;2 -->
<g id="node2" class="node">
<title>&#45;2</title>
<polygon fill="lightgray" stroke="black" points="95.25,-93.08 71.25,-93.08 71.25,-75.08 95.25,-75.08 95.25,-93.08"/>
<text text-anchor="middle" x="83.25" y="-81.88" font-family="Times New Roman,serif" font-size="9.00">&#45;2</text>
</g>
<!-- &#45;2&#45;&gt;0 -->
<g id="edge6" class="edge">
<title>&#45;2&#45;&gt;0</title>
<path fill="none" stroke="green" stroke-width="0.31" d="M90.68,-75.08C94.4,-71.6 99.19,-67.83 104.25,-65.7 244.71,-6.59 300.31,-76.81 445.25,-29.7 446.3,-29.36 447.35,-28.96 448.41,-28.53"/>
<polygon fill="green" stroke="green" stroke-width="0.31" points="450.16,-31.57 457.5,-23.93 447,-25.32 450.16,-31.57"/>
</g>
<!-- &#45;2&#45;&gt;1 -->
<g id="edge7" class="edge">
<title>&#45;2&#45;&gt;1</title>
<path fill="none" stroke="green" stroke-width="0.23" d="M91.08,-74.76C94.75,-71.39 99.38,-67.8 104.25,-65.7 224.74,-13.78 272.82,-71.32 397.25,-29.7 398.12,-29.4 399.01,-29.08 399.89,-28.72"/>
<polygon fill="green" stroke="green" stroke-width="0.23" points="401.6,-31.78 408.99,-24.18 398.48,-25.51 401.6,-31.78"/>
</g>
<!-- &#45;2&#45;&gt;2 -->
<g id="edge8" class="edge">
<title>&#45;2&#45;&gt;2</title>
<path fill="none" stroke="red" stroke-width="0.33" d="M91.15,-74.9C94.82,-71.55 99.44,-67.94 104.25,-65.7 187.65,-26.7 298.97,-18.18 348.12,-16.34"/>
<polygon fill="red" stroke="red" stroke-width="0.33" points="348.28,-19.84 358.16,-16.03 348.06,-12.84 348.28,-19.84"/>
</g>
<!-- &#45;2&#45;&gt;3 -->
<g id="edge9" class="edge">
<title>&#45;2&#45;&gt;3</title>
<path fill="none" stroke="green" stroke-width="0.79" d="M90.66,-75.03C94.37,-71.53 99.16,-67.77 104.25,-65.7 284.72,7.82 355.23,-87.81 541.25,-29.7 542.3,-29.37 543.36,-28.99 544.42,-28.56"/>
<polygon fill="green" stroke="green" stroke-width="0.79" points="546.15,-31.61 553.52,-23.99 543.01,-25.35 546.15,-31.61"/>
</g>
<!-- &#45;2&#45;&gt;4 -->
<g id="edge10" class="edge">
<title>&#45;2&#45;&gt;4</title>
<path fill="none" stroke="red" stroke-width="0.16" d="M90.67,-75.05C94.38,-71.56 99.17,-67.8 104.25,-65.7 264.71,0.62 327.78,-82.31 493.25,-29.7 494.3,-29.36 495.36,-28.98 496.41,-28.55"/>
<polygon fill="red" stroke="red" stroke-width="0.16" points="498.15,-31.59 505.51,-23.97 495,-25.34 498.15,-31.59"/>
</g>
<!-- &#45;3 -->
<g id="node3" class="node">
<title>&#45;3</title>
<polygon fill="lightgray" stroke="black" points="137.25,-93.08 113.25,-93.08 113.25,-75.08 137.25,-75.08 137.25,-93.08"/>
<text text-anchor="middle" x="125.25" y="-81.88" font-family="Times New Roman,serif" font-size="9.00">&#45;3</text>
</g>
<!-- &#45;3&#45;&gt;0 -->
<g id="edge11" class="edge">
<title>&#45;3&#45;&gt;0</title>
<path fill="none" stroke="red" stroke-width="0.32" d="M133.08,-74.76C136.75,-71.38 141.37,-67.79 146.25,-65.7 269.23,-12.88 318.26,-72.01 445.25,-29.7 446.12,-29.41 447.01,-29.08 447.89,-28.72"/>
<polygon fill="red" stroke="red" stroke-width="0.32" points="449.6,-31.78 456.99,-24.19 446.48,-25.51 449.6,-31.78"/>
</g>
<!-- &#45;3&#45;&gt;1 -->
<g id="edge12" class="edge">
<title>&#45;3&#45;&gt;1</title>
<path fill="none" stroke="green" stroke-width="0.11" d="M133.1,-74.81C136.77,-71.44 141.4,-67.85 146.25,-65.7 249.29,-20.06 290.74,-66.53 397.25,-29.7 398.12,-29.4 399,-29.06 399.88,-28.7"/>
<polygon fill="green" stroke="green" stroke-width="0.11" points="401.61,-31.75 408.97,-24.13 398.47,-25.49 401.61,-31.75"/>
</g>
<!-- &#45;3&#45;&gt;2 -->
<g id="edge13" class="edge">
<title>&#45;3&#45;&gt;2</title>
<path fill="none" stroke="green" stroke-width="0.14" d="M133.18,-74.98C136.87,-71.64 141.48,-68.02 146.25,-65.7 214.47,-32.42 305.01,-21.13 348.22,-17.49"/>
<polygon fill="green" stroke="green" stroke-width="0.14" points="348.69,-20.96 358.39,-16.7 348.14,-13.98 348.69,-20.96"/>
</g>
<!-- &#45;3&#45;&gt;3 -->
<g id="edge14" class="edge">
<title>&#45;3&#45;&gt;3</title>
<path fill="none" stroke="red" stroke-width="0.27" d="M132.66,-75.05C136.38,-71.56 141.17,-67.79 146.25,-65.7 309.21,1.52 373.21,-82.99 541.25,-29.7 542.3,-29.36 543.36,-28.98 544.41,-28.55"/>
<polygon fill="red" stroke="red" stroke-width="0.27" points="546.15,-31.59 553.51,-23.97 543,-25.34 546.15,-31.59"/>
</g>
<!-- &#45;3&#45;&gt;4 -->
<g id="edge15" class="edge">
<title>&#45;3&#45;&gt;4</title>
<path fill="none" stroke="red" stroke-width="0.29" d="M132.68,-75.08C136.4,-71.59 141.18,-67.82 146.25,-65.7 289.21,-5.69 345.75,-77.5 493.25,-29.7 494.3,-29.36 495.36,-28.97 496.41,-28.54"/>
<polygon fill="red" stroke="red" stroke-width="0.29" points="498.16,-31.57 505.5,-23.94 495,-25.33 498.16,-31.57"/>
</g>
<!-- &#45;4 -->
<g id="node4" class="node">
<title>&#45;4</title>
<polygon fill="lightgray" stroke="black" points="692.25,-156.47 668.25,-156.47 668.25,-138.47 692.25,-138.47 692.25,-156.47"/>
<text text-anchor="middle" x="680.25" y="-145.27" font-family="Times New Roman,serif" font-size="9.00">&#45;4</text>
</g>
<!-- &#45;4&#45;&gt;0 -->
<g id="edge16" class="edge">
<title>&#45;4&#45;&gt;0</title>
<path fill="none" stroke="green" stroke-width="0.52" stroke-dasharray="1,5" d="M667.96,-146.12C624.03,-144.6 475.81,-136.94 447.25,-102.47 431.59,-83.58 443.67,-54.98 455.19,-35.87"/>
<polygon fill="green" stroke="green" stroke-width="0.52" points="458.21,-37.64 460.68,-27.33 452.33,-33.85 458.21,-37.64"/>
</g>
<!-- &#45;4&#45;&gt;1 -->
<g id="edge17" class="edge">
<title>&#45;4&#45;&gt;1</title>
<path fill="none" stroke="red" stroke-width="0.3" d="M668.04,-146.63C581.77,-147.65 66.24,-151.63 20.25,-102.47 9.08,-90.53 9.25,-77.79 20.25,-65.7 76.86,-3.42 317.08,-55.31 397.25,-29.7 398.3,-29.36 399.36,-28.97 400.41,-28.55"/>
<polygon fill="red" stroke="red" stroke-width="0.3" points="402.15,-31.59 409.51,-23.96 399,-25.34 402.15,-31.59"/>
</g>
<!-- &#45;4&#45;&gt;2 -->
<g id="edge18" class="edge">
<title>&#45;4&#45;&gt;2</title>
<path fill="none" stroke="red" stroke-width="0.27" d="M668.09,-146.64C581.1,-147.78 55.15,-152.55 8.25,-102.47 -2.93,-90.54 -2.5,-78.01 8.25,-65.7 52.65,-14.82 272.13,-13.96 347.66,-15.22"/>
<polygon fill="red" stroke="red" stroke-width="0.27" points="348.04,-18.73 358.11,-15.42 348.18,-11.73 348.04,-18.73"/>
</g>
<!-- &#45;4&#45;&gt;3 -->
<g id="edge19" class="edge">
<title>&#45;4&#45;&gt;3</title>
<path fill="none" stroke="red" stroke-width="0.28" d="M692.28,-146.83C746.13,-148.2 964.15,-150.63 1006.25,-102.47 1017,-90.16 1017.13,-77.89 1006.25,-65.7 978.34,-34.46 679.71,-20.33 590.36,-16.78"/>
<polygon fill="red" stroke="red" stroke-width="0.28" points="590.43,-13.28 580.31,-16.39 590.16,-20.27 590.43,-13.28"/>
</g>
<!-- &#45;4&#45;&gt;4 -->
<g id="edge20" class="edge">
<title>&#45;4&#45;&gt;4</title>
<path fill="none" stroke="green" stroke-width="0.53" stroke-dasharray="1,5" d="M692.57,-146.35C749.23,-145.43 979.25,-137.28 914.25,-65.7 858.26,-4.05 620.56,-55.09 541.25,-29.7 540.19,-29.36 539.13,-28.97 538.08,-28.54"/>
<polygon fill="green" stroke="green" stroke-width="0.53" points="539.49,-25.34 528.98,-23.96 536.34,-31.59 539.49,-25.34"/>
</g>
<!-- 45 -->
<g id="node26" class="node">
<title>45</title>
<ellipse fill="white" stroke="black" cx="979.25" cy="-84.08" rx="18.27" ry="18.27"/>
<text text-anchor="middle" x="979.25" y="-81.88" font-family="Times New Roman,serif" font-size="9.00">45</text>
</g>
<!-- &#45;4&#45;&gt;45 -->
<g id="edge99" class="edge">
<title>&#45;4&#45;&gt;45</title>
<path fill="none" stroke="green" stroke-width="0.35" d="M692.3,-145.91C730.61,-143.84 852.59,-134.94 947.25,-102.47 949.85,-101.58 952.49,-100.48 955.08,-99.29"/>
<polygon fill="green" stroke="green" stroke-width="0.35" points="956.8,-102.34 964.1,-94.66 953.6,-96.11 956.8,-102.34"/>
</g>
<!-- &#45;5 -->
<g id="node5" class="node">
<title>&#45;5</title>
<polygon fill="lightgray" stroke="black" points="179.25,-93.08 155.25,-93.08 155.25,-75.08 179.25,-75.08 179.25,-93.08"/>
<text text-anchor="middle" x="167.25" y="-81.88" font-family="Times New Roman,serif" font-size="9.00">&#45;5</text>
</g>
<!-- &#45;5&#45;&gt;0 -->
<g id="edge21" class="edge">
<title>&#45;5&#45;&gt;0</title>
<path fill="none" stroke="red" stroke-width="0.3" d="M175.1,-74.8C178.77,-71.43 183.4,-67.84 188.25,-65.7 293.78,-19.16 336.18,-67.21 445.25,-29.7 446.12,-29.4 447,-29.06 447.88,-28.7"/>
<polygon fill="red" stroke="red" stroke-width="0.3" points="449.61,-31.75 456.98,-24.14 446.47,-25.49 449.61,-31.75"/>
</g>
<!-- &#45;5&#45;&gt;1 -->
<g id="edge22" class="edge">
<title>&#45;5&#45;&gt;1</title>
<path fill="none" stroke="red" stroke-width="0.23" d="M175.13,-74.87C178.81,-71.52 183.43,-67.91 188.25,-65.7 273.88,-26.32 308.61,-61.75 397.25,-29.7 398.12,-29.38 398.99,-29.04 399.87,-28.67"/>
<polygon fill="red" stroke="red" stroke-width="0.23" points="401.62,-31.7 408.95,-24.05 398.45,-25.46 401.62,-31.7"/>
</g>
<!-- &#45;5&#45;&gt;2 -->
<g id="edge23" class="edge">
<title>&#45;5&#45;&gt;2</title>
<path fill="none" stroke="red" stroke-width="0.12" d="M175.23,-75.08C178.93,-71.77 183.54,-68.13 188.25,-65.7 241.53,-38.14 311.55,-24.67 348.28,-19.12"/>
<polygon fill="red" stroke="red" stroke-width="0.12" points="349.16,-22.53 358.56,-17.64 348.16,-15.6 349.16,-22.53"/>
</g>
<!-- &#45;5&#45;&gt;3 -->
<g id="edge24" class="edge">
<title>&#45;5&#45;&gt;3</title>
<path fill="none" stroke="red" stroke-width="0.28" d="M174.67,-75.07C178.39,-71.59 183.18,-67.82 188.25,-65.7 333.71,-4.79 391.18,-78.18 541.25,-29.7 542.3,-29.36 543.36,-28.97 544.41,-28.54"/>
<polygon fill="red" stroke="red" stroke-width="0.28" points="546.15,-31.58 553.5,-23.94 543,-25.33 546.15,-31.58"/>
</g>
<!-- &#45;5&#45;&gt;4 -->
<g id="edge25" class="edge">
<title>&#45;5&#45;&gt;4</title>
<path fill="none" stroke="red" stroke-width="0.12" d="M175.08,-74.75C178.74,-71.37 183.37,-67.78 188.25,-65.7 313.73,-11.98 363.7,-72.69 493.25,-29.7 494.12,-29.41 495.01,-29.08 495.89,-28.73"/>
<polygon fill="red" stroke="red" stroke-width="0.12" points="497.6,-31.78 504.99,-24.19 494.48,-25.52 497.6,-31.78"/>
</g>
<!-- &#45;6 -->
<g id="node6" class="node">
<title>&#45;6</title>
<polygon fill="lightgray" stroke="black" points="221.25,-93.08 197.25,-93.08 197.25,-75.08 221.25,-75.08 221.25,-93.08"/>
<text text-anchor="middle" x="209.25" y="-81.88" font-family="Times New Roman,serif" font-size="9.00">&#45;6</text>
</g>
<!-- &#45;6&#45;&gt;0 -->
<g id="edge26" class="edge">
<title>&#45;6&#45;&gt;0</title>
<path fill="none" stroke="green" stroke-width="0.13" d="M217.13,-74.86C220.8,-71.51 225.42,-67.9 230.25,-65.7 318.36,-25.42 354.06,-62.43 445.25,-29.7 446.12,-29.39 446.99,-29.04 447.87,-28.67"/>
<polygon fill="green" stroke="green" stroke-width="0.13" points="449.62,-31.71 456.95,-24.07 446.45,-25.47 449.62,-31.71"/>
</g>
<!-- &#45;6&#45;&gt;1 -->
<g id="edge27" class="edge">
<title>&#45;6&#45;&gt;1</title>
<path fill="none" stroke="red" stroke-width="0.2" d="M217.18,-74.97C220.86,-71.63 225.48,-68.01 230.25,-65.7 298.55,-32.54 326.4,-57 397.25,-29.7 398.11,-29.37 398.98,-29 399.85,-28.62"/>
<polygon fill="red" stroke="red" stroke-width="0.2" points="401.63,-31.64 408.91,-23.95 398.42,-25.42 401.63,-31.64"/>
</g>
<!-- &#45;6&#45;&gt;2 -->
<g id="edge28" class="edge">
<title>&#45;6&#45;&gt;2</title>
<path fill="none" stroke="green" stroke-width="0.27" d="M217.72,-74.89C221.36,-71.7 225.79,-68.21 230.25,-65.7 269.2,-43.73 319.53,-28.95 348.91,-21.5"/>
<polygon fill="green" stroke="green" stroke-width="0.27" points="349.85,-24.87 358.73,-19.09 348.18,-18.07 349.85,-24.87"/>
</g>
<!-- &#45;6&#45;&gt;3 -->
<g id="edge29" class="edge">
<title>&#45;6&#45;&gt;3</title>
<path fill="none" stroke="green" stroke-width="0.28" d="M217.08,-74.74C220.74,-71.37 225.37,-67.78 230.25,-65.7 358.22,-11.08 409.13,-73.38 541.25,-29.7 542.12,-29.41 543.01,-29.08 543.89,-28.73"/>
<polygon fill="green" stroke="green" stroke-width="0.28" points="545.6,-31.79 553,-24.2 542.48,-25.52 545.6,-31.79"/>
</g>
<!-- &#45;6&#45;&gt;4 -->
<g id="edge30" class="edge">
<title>&#45;6&#45;&gt;4</title>
<path fill="none" stroke="red" stroke-width="0.32" d="M217.1,-74.79C220.77,-71.42 225.39,-67.83 230.25,-65.7 338.27,-18.26 381.62,-67.9 493.25,-29.7 494.12,-29.4 495,-29.07 495.88,-28.71"/>
<polygon fill="red" stroke="red" stroke-width="0.32" points="497.61,-31.75 504.98,-24.14 494.47,-25.5 497.61,-31.75"/>
</g>
<!-- &#45;7 -->
<g id="node7" class="node">
<title>&#45;7</title>
<polygon fill="lightgray" stroke="black" points="263.25,-93.08 239.25,-93.08 239.25,-75.08 263.25,-75.08 263.25,-93.08"/>
<text text-anchor="middle" x="251.25" y="-81.88" font-family="Times New Roman,serif" font-size="9.00">&#45;7</text>
</g>
<!-- &#45;7&#45;&gt;0 -->
<g id="edge31" class="edge">
<title>&#45;7&#45;&gt;0</title>
<path fill="none" stroke="green" stroke-width="0.3" d="M259.17,-74.95C262.85,-71.61 267.47,-68 272.25,-65.7 343.02,-31.66 371.86,-57.68 445.25,-29.7 446.11,-29.37 446.98,-29.01 447.85,-28.63"/>
<polygon fill="green" stroke="green" stroke-width="0.3" points="449.62,-31.65 456.91,-23.97 446.42,-25.43 449.62,-31.65"/>
</g>
<!-- &#45;7&#45;&gt;1 -->
<g id="edge32" class="edge">
<title>&#45;7&#45;&gt;1</title>
<path fill="none" stroke="green" stroke-width="0.32" d="M259.65,-74.76C263.28,-71.55 267.73,-68.09 272.25,-65.7 323.37,-38.7 344.04,-52.31 397.25,-29.7 398.1,-29.34 398.96,-28.95 399.82,-28.55"/>
<polygon fill="green" stroke="green" stroke-width="0.32" points="401.63,-31.54 408.84,-23.77 398.36,-25.36 401.63,-31.54"/>
</g>
<!-- &#45;7&#45;&gt;2 -->
<g id="edge33" class="edge">
<title>&#45;7&#45;&gt;2</title>
<path fill="none" stroke="red" stroke-width="0.44" d="M260.3,-74.81C263.87,-71.75 268.11,-68.38 272.25,-65.7 297.63,-49.25 329.21,-34.48 350.24,-25.36"/>
<polygon fill="red" stroke="red" stroke-width="0.44" points="351.81,-28.5 359.64,-21.36 349.06,-22.06 351.81,-28.5"/>
</g>
<!-- &#45;7&#45;&gt;3 -->
<g id="edge34" class="edge">
<title>&#45;7&#45;&gt;3</title>
<path fill="none" stroke="green" stroke-width="0.37" d="M259.09,-74.79C262.76,-71.42 267.39,-67.82 272.25,-65.7 382.76,-17.37 427.06,-68.58 541.25,-29.7 542.12,-29.4 543,-29.07 543.88,-28.71"/>
<polygon fill="green" stroke="green" stroke-width="0.37" points="545.61,-31.76 552.98,-24.15 542.47,-25.5 545.61,-31.76"/>
</g>
<!-- &#45;7&#45;&gt;4 -->
<g id="edge35" class="edge">
<title>&#45;7&#45;&gt;4</title>
<path fill="none" stroke="red" stroke-width="0.1" d="M259.12,-74.85C262.8,-71.49 267.42,-67.89 272.25,-65.7 362.85,-24.53 399.51,-63.11 493.25,-29.7 494.12,-29.39 494.99,-29.05 495.87,-28.68"/>
<polygon fill="red" stroke="red" stroke-width="0.1" points="497.61,-31.72 504.96,-24.08 494.45,-25.47 497.61,-31.72"/>
</g>
<!-- &#45;8 -->
<g id="node8" class="node">
<title>&#45;8</title>
<polygon fill="lightgray" stroke="black" points="53.25,-93.08 29.25,-93.08 29.25,-75.08 53.25,-75.08 53.25,-93.08"/>
<text text-anchor="middle" x="41.25" y="-81.88" font-family="Times New Roman,serif" font-size="9.00">&#45;8</text>
</g>
<!-- &#45;8&#45;&gt;0 -->
<g id="edge36" class="edge">
<title>&#45;8&#45;&gt;0</title>
<path fill="none" stroke="red" stroke-width="0.31" d="M48.67,-75.06C52.39,-71.57 57.17,-67.8 62.25,-65.7 220.21,-0.28 282.35,-81.62 445.25,-29.7 446.3,-29.36 447.36,-28.98 448.41,-28.55"/>
<polygon fill="red" stroke="red" stroke-width="0.31" points="450.15,-31.59 457.51,-23.96 447,-25.34 450.15,-31.59"/>
</g>
<!-- &#45;8&#45;&gt;1 -->
<g id="edge37" class="edge">
<title>&#45;8&#45;&gt;1</title>
<path fill="none" stroke="green" stroke-width="0.24" d="M49.07,-74.73C52.73,-71.34 57.36,-67.76 62.25,-65.7 200.21,-7.49 254.88,-76.12 397.25,-29.7 398.13,-29.41 399.01,-29.09 399.89,-28.74"/>
<polygon fill="green" stroke="green" stroke-width="0.24" points="401.6,-31.8 409,-24.22 398.49,-25.53 401.6,-31.8"/>
</g>
<!-- &#45;8&#45;&gt;2 -->
<g id="edge38" class="edge">
<title>&#45;8&#45;&gt;2</title>
<path fill="none" stroke="green" stroke-width="0.43" d="M49.12,-74.85C52.79,-71.49 57.42,-67.89 62.25,-65.7 161.04,-20.96 293.43,-15.62 348.05,-15.49"/>
<polygon fill="green" stroke="green" stroke-width="0.43" points="348.19,-18.99 358.2,-15.52 348.21,-11.99 348.19,-18.99"/>
</g>
<!-- &#45;8&#45;&gt;4 -->
<g id="edge39" class="edge">
<title>&#45;8&#45;&gt;4</title>
<path fill="none" stroke="red" stroke-width="0.11" d="M48.66,-75.03C52.37,-71.54 57.16,-67.77 62.25,-65.7 240.22,6.92 309.8,-87.12 493.25,-29.7 494.3,-29.37 495.36,-28.99 496.42,-28.56"/>
<polygon fill="red" stroke="red" stroke-width="0.11" points="498.15,-31.61 505.52,-23.99 495.01,-25.35 498.15,-31.61"/>
</g>
<!-- &#45;9 -->
<g id="node9" class="node">
<title>&#45;9</title>
<polygon fill="lightgray" stroke="black" points="305.25,-93.08 281.25,-93.08 281.25,-75.08 305.25,-75.08 305.25,-93.08"/>
<text text-anchor="middle" x="293.25" y="-81.88" font-family="Times New Roman,serif" font-size="9.00">&#45;9</text>
</g>
<!-- &#45;9&#45;&gt;0 -->
<g id="edge40" class="edge">
<title>&#45;9&#45;&gt;0</title>
<path fill="none" stroke="green" stroke-width="0.49" d="M301.64,-74.74C305.27,-71.52 309.71,-68.06 314.25,-65.7 367.81,-37.82 389.53,-52.98 445.25,-29.7 446.1,-29.34 446.96,-28.96 447.82,-28.56"/>
<polygon fill="green" stroke="green" stroke-width="0.49" points="449.63,-31.56 456.85,-23.81 446.37,-25.37 449.63,-31.56"/>
</g>
<!-- &#45;9&#45;&gt;1 -->
<g id="edge41" class="edge">
<title>&#45;9&#45;&gt;1</title>
<path fill="none" stroke="red" stroke-width="0.44" d="M301.82,-75.05C305.47,-71.88 309.89,-68.37 314.25,-65.7 348.52,-44.67 361.33,-47.78 397.25,-29.7 398.07,-29.28 398.91,-28.85 399.75,-28.41"/>
<polygon fill="red" stroke="red" stroke-width="0.44" points="401.64,-31.36 408.69,-23.46 398.25,-25.24 401.64,-31.36"/>
</g>
<!-- &#45;9&#45;&gt;2 -->
<g id="edge42" class="edge">
<title>&#45;9&#45;&gt;2</title>
<path fill="none" stroke="green" stroke-width="0.12" d="M303.06,-74.84C315.85,-64.09 338.48,-45.06 354.59,-31.53"/>
<polygon fill="green" stroke="green" stroke-width="0.12" points="356.93,-34.14 362.33,-25.02 352.42,-28.78 356.93,-34.14"/>
</g>
<!-- &#45;9&#45;&gt;3 -->
<g id="edge43" class="edge">
<title>&#45;9&#45;&gt;3</title>
<path fill="none" stroke="green" stroke-width="0.12" d="M301.12,-74.84C304.79,-71.48 309.41,-67.88 314.25,-65.7 407.33,-23.64 444.95,-63.8 541.25,-29.7 542.12,-29.39 543,-29.05 543.87,-28.68"/>
<polygon fill="green" stroke="green" stroke-width="0.12" points="545.61,-31.72 552.96,-24.09 542.46,-25.48 545.61,-31.72"/>
</g>
<!-- &#45;9&#45;&gt;4 -->
<g id="edge44" class="edge">
<title>&#45;9&#45;&gt;4</title>
<path fill="none" stroke="red" stroke-width="0.6" d="M301.16,-74.94C304.84,-71.59 309.46,-67.98 314.25,-65.7 387.49,-30.77 417.33,-58.36 493.25,-29.7 494.11,-29.37 494.98,-29.02 495.86,-28.64"/>
<polygon fill="red" stroke="red" stroke-width="0.6" points="497.62,-31.66 504.92,-23.98 494.43,-25.44 497.62,-31.66"/>
</g>
<!-- &#45;10 -->
<g id="node10" class="node">
<title>&#45;10</title>
<polygon fill="lightgray" stroke="black" points="352.75,-93.08 323.75,-93.08 323.75,-75.08 352.75,-75.08 352.75,-93.08"/>
<text text-anchor="middle" x="338.25" y="-81.88" font-family="Times New Roman,serif" font-size="9.00">&#45;10</text>
</g>
<!-- &#45;10&#45;&gt;0 -->
<g id="edge45" class="edge">
<title>&#45;10&#45;&gt;0</title>
<path fill="none" stroke="green" stroke-width="0.21" d="M348.18,-74.74C352.1,-71.67 356.74,-68.31 361.25,-65.7 396.37,-45.3 408.92,-47.88 445.25,-29.7 446.07,-29.28 446.91,-28.85 447.76,-28.41"/>
<polygon fill="green" stroke="green" stroke-width="0.21" points="449.64,-31.37 456.69,-23.47 446.25,-25.25 449.64,-31.37"/>
</g>
<!-- &#45;10&#45;&gt;1 -->
<g id="edge46" class="edge">
<title>&#45;10&#45;&gt;1</title>
<path fill="none" stroke="red" stroke-width="0.11" d="M348.42,-74.84C361.77,-64.03 385.44,-44.85 402.17,-31.3"/>
<polygon fill="red" stroke="red" stroke-width="0.11" points="404.62,-33.82 410.19,-24.8 400.22,-28.38 404.62,-33.82"/>
</g>
<!-- &#45;10&#45;&gt;2 -->
<g id="edge47" class="edge">
<title>&#45;10&#45;&gt;2</title>
<path fill="none" stroke="red" stroke-width="0.25" d="M342.54,-74.84C347.37,-65.56 355.4,-50.12 362.05,-37.36"/>
<polygon fill="red" stroke="red" stroke-width="0.25" points="365.26,-38.77 366.77,-28.28 359.05,-35.53 365.26,-38.77"/>
</g>
<!-- &#45;10&#45;&gt;3 -->
<g id="edge48" class="edge">
<title>&#45;10&#45;&gt;3</title>
<path fill="none" stroke="red" stroke-width="0.13" d="M347.04,-74.95C351.09,-71.61 356.13,-68 361.25,-65.7 435.66,-32.26 464.9,-58.47 541.25,-29.7 542.11,-29.37 542.98,-29.02 543.86,-28.64"/>
<polygon fill="red" stroke="red" stroke-width="0.13" points="545.62,-31.66 552.92,-23.99 542.43,-25.44 545.62,-31.66"/>
</g>
<!-- &#45;10&#45;&gt;4 -->
<g id="edge49" class="edge">
<title>&#45;10&#45;&gt;4</title>
<path fill="none" stroke="red" stroke-width="0.14" d="M347.55,-74.76C351.54,-71.55 356.39,-68.08 361.25,-65.7 415.82,-38.88 437.11,-53.09 493.25,-29.7 494.1,-29.34 494.96,-28.96 495.83,-28.56"/>
<polygon fill="red" stroke="red" stroke-width="0.14" points="497.63,-31.57 504.85,-23.81 494.37,-25.37 497.63,-31.57"/>
</g>
<!-- &#45;11 -->
<g id="node11" class="node">
<title>&#45;11</title>
<polygon fill="lightgray" stroke="black" points="399.75,-93.08 370.75,-93.08 370.75,-75.08 399.75,-75.08 399.75,-93.08"/>
<text text-anchor="middle" x="385.25" y="-81.88" font-family="Times New Roman,serif" font-size="9.00">&#45;11</text>
</g>
<!-- &#45;11&#45;&gt;0 -->
<g id="edge50" class="edge">
<title>&#45;11&#45;&gt;0</title>
<path fill="none" stroke="green" stroke-width="0.33" d="M395.55,-74.84C409.05,-64.03 433.01,-44.85 449.94,-31.3"/>
<polygon fill="green" stroke="green" stroke-width="0.33" points="452.44,-33.78 458.06,-24.8 448.06,-28.32 452.44,-33.78"/>
</g>
<!-- &#45;11&#45;&gt;1 -->
<g id="edge51" class="edge">
<title>&#45;11&#45;&gt;1</title>
<path fill="none" stroke="red" stroke-width="0.47" d="M389.66,-74.84C394.63,-65.56 402.89,-50.12 409.73,-37.36"/>
<polygon fill="red" stroke="red" stroke-width="0.47" points="412.96,-38.75 414.59,-28.28 406.78,-35.44 412.96,-38.75"/>
</g>
<!-- &#45;11&#45;&gt;2 -->
<g id="edge52" class="edge">
<title>&#45;11&#45;&gt;2</title>
<path fill="none" stroke="red" stroke-width="0.3" d="M383.77,-74.84C382.22,-66.11 379.68,-51.91 377.49,-39.64"/>
<polygon fill="red" stroke="red" stroke-width="0.3" points="380.89,-38.76 375.69,-29.53 374,-39.99 380.89,-38.76"/>
</g>
<!-- &#45;11&#45;&gt;3 -->
<g id="edge53" class="edge">
<title>&#45;11&#45;&gt;3</title>
<path fill="none" stroke="green" stroke-width="0.24" d="M399.8,-79.13C427.82,-71.29 490.95,-52.56 541.25,-29.7 542.09,-29.32 542.94,-28.91 543.8,-28.49"/>
<polygon fill="green" stroke="green" stroke-width="0.24" points="545.64,-31.47 552.78,-23.65 542.32,-25.31 545.64,-31.47"/>
</g>
<!-- &#45;11&#45;&gt;4 -->
<g id="edge54" class="edge">
<title>&#45;11&#45;&gt;4</title>
<path fill="none" stroke="green" stroke-width="0.23" d="M400.07,-76.13C421.03,-66.21 460.42,-47.26 493.25,-29.7 494.06,-29.26 494.89,-28.81 495.73,-28.35"/>
<polygon fill="green" stroke="green" stroke-width="0.23" points="497.64,-31.3 504.63,-23.33 494.2,-25.2 497.64,-31.3"/>
</g>
<!-- &#45;12 -->
<g id="node12" class="node">
<title>&#45;12</title>
<polygon fill="lightgray" stroke="black" points="485.75,-93.08 456.75,-93.08 456.75,-75.08 485.75,-75.08 485.75,-93.08"/>
<text text-anchor="middle" x="471.25" y="-81.88" font-family="Times New Roman,serif" font-size="9.00">&#45;12</text>
</g>
<!-- &#45;12&#45;&gt;0 -->
<g id="edge55" class="edge">
<title>&#45;12&#45;&gt;0</title>
<path fill="none" stroke="red" stroke-width="0.39" d="M471,-74.84C470.74,-66.16 470.32,-52.09 469.96,-39.86"/>
<polygon fill="red" stroke="red" stroke-width="0.39" points="473.46,-39.67 469.66,-29.78 466.46,-39.88 473.46,-39.67"/>
</g>
<!-- &#45;12&#45;&gt;1 -->
<g id="edge56" class="edge">
<title>&#45;12&#45;&gt;1</title>
<path fill="none" stroke="green" stroke-width="0.36" d="M465.11,-74.84C457.91,-65.15 445.71,-48.75 436,-35.69"/>
<polygon fill="green" stroke="green" stroke-width="0.36" points="438.55,-33.25 429.77,-27.31 432.93,-37.42 438.55,-33.25"/>
</g>
<!-- &#45;12&#45;&gt;2 -->
<g id="edge57" class="edge">
<title>&#45;12&#45;&gt;2</title>
<path fill="none" stroke="red" stroke-width="0.19" d="M459.23,-74.84C442.83,-63.59 413.22,-43.27 393.39,-29.67"/>
<polygon fill="red" stroke="red" stroke-width="0.19" points="395.28,-26.72 385.05,-23.95 391.32,-32.49 395.28,-26.72"/>
</g>
<!-- &#45;12&#45;&gt;3 -->
<g id="edge58" class="edge">
<title>&#45;12&#45;&gt;3</title>
<path fill="none" stroke="green" stroke-width="0.15" d="M481.95,-74.87C485.81,-71.94 490.2,-68.65 494.25,-65.7 511.02,-53.48 530.31,-39.97 544.55,-30.1"/>
<polygon fill="green" stroke="green" stroke-width="0.15" points="546.86,-32.75 553.09,-24.19 542.88,-27 546.86,-32.75"/>
</g>
<!-- &#45;12&#45;&gt;4 -->
<g id="edge59" class="edge">
<title>&#45;12&#45;&gt;4</title>
<path fill="none" stroke="red" stroke-width="0.35" d="M476.89,-74.84C483.44,-65.27 494.48,-49.13 503.35,-36.15"/>
<polygon fill="red" stroke="red" stroke-width="0.35" points="506.32,-38.02 509.07,-27.79 500.54,-34.07 506.32,-38.02"/>
</g>
<!-- &#45;13 -->
<g id="node13" class="node">
<title>&#45;13</title>
<polygon fill="lightgray" stroke="black" points="532.75,-93.08 503.75,-93.08 503.75,-75.08 532.75,-75.08 532.75,-93.08"/>
<text text-anchor="middle" x="518.25" y="-81.88" font-family="Times New Roman,serif" font-size="9.00">&#45;13</text>
</g>
<!-- &#45;13&#45;&gt;0 -->
<g id="edge60" class="edge">
<title>&#45;13&#45;&gt;0</title>
<path fill="none" stroke="red" stroke-width="0.5" d="M512.24,-74.84C505.18,-65.15 493.22,-48.75 483.71,-35.69"/>
<polygon fill="red" stroke="red" stroke-width="0.5" points="486.32,-33.33 477.6,-27.31 480.66,-37.45 486.32,-33.33"/>
</g>
<!-- &#45;13&#45;&gt;1 -->
<g id="edge61" class="edge">
<title>&#45;13&#45;&gt;1</title>
<path fill="none" stroke="red" stroke-width="0.14" d="M507.06,-74.88C503.04,-71.96 498.45,-68.66 494.25,-65.7 476.57,-53.27 456.26,-39.43 441.56,-29.5"/>
<polygon fill="red" stroke="red" stroke-width="0.14" points="443.45,-26.55 433.2,-23.86 439.54,-32.36 443.45,-26.55"/>
</g>
<!-- &#45;13&#45;&gt;2 -->
<g id="edge62" class="edge">
<title>&#45;13&#45;&gt;2</title>
<path fill="none" stroke="red" stroke-width="0.14" d="M508.37,-75C504.18,-71.82 499.15,-68.32 494.25,-65.7 453.7,-44.01 438.86,-49.26 397.25,-29.7 396.41,-29.3 395.56,-28.89 394.71,-28.46"/>
<polygon fill="red" stroke="red" stroke-width="0.14" points="396.19,-25.29 385.74,-23.59 392.85,-31.44 396.19,-25.29"/>
</g>
<!-- &#45;13&#45;&gt;3 -->
<g id="edge63" class="edge">
<title>&#45;13&#45;&gt;3</title>
<path fill="none" stroke="red" stroke-width="0.35" d="M524.01,-74.84C530.7,-65.27 541.98,-49.13 551.05,-36.15"/>
<polygon fill="red" stroke="red" stroke-width="0.35" points="554.04,-37.99 556.9,-27.79 548.3,-33.98 554.04,-37.99"/>
</g>
<!-- &#45;13&#45;&gt;4 -->
<g id="edge64" class="edge">
<title>&#45;13&#45;&gt;4</title>
<path fill="none" stroke="red" stroke-width="0.32" d="M518.12,-74.84C517.99,-66.16 517.78,-52.09 517.6,-39.86"/>
<polygon fill="red" stroke="red" stroke-width="0.32" points="521.1,-39.73 517.45,-29.78 514.1,-39.83 521.1,-39.73"/>
</g>
<!-- &#45;14 -->
<g id="node14" class="node">
<title>&#45;14</title>
<polygon fill="lightgray" stroke="black" points="579.75,-93.08 550.75,-93.08 550.75,-75.08 579.75,-75.08 579.75,-93.08"/>
<text text-anchor="middle" x="565.25" y="-81.88" font-family="Times New Roman,serif" font-size="9.00">&#45;14</text>
</g>
<!-- &#45;14&#45;&gt;0 -->
<g id="edge65" class="edge">
<title>&#45;14&#45;&gt;0</title>
<path fill="none" stroke="red" stroke-width="0.3" d="M554.56,-74.84C550.71,-71.91 546.31,-68.62 542.25,-65.7 524.7,-53.09 504.38,-39.27 489.64,-29.39"/>
<polygon fill="red" stroke="red" stroke-width="0.3" points="491.51,-26.44 481.25,-23.79 487.62,-32.26 491.51,-26.44"/>
</g>
<!-- &#45;14&#45;&gt;1 -->
<g id="edge66" class="edge">
<title>&#45;14&#45;&gt;1</title>
<path fill="none" stroke="green" stroke-width="0.28" d="M555.83,-74.98C551.82,-71.8 546.99,-68.3 542.25,-65.7 501.92,-43.6 486.86,-49.26 445.25,-29.7 444.41,-29.3 443.56,-28.89 442.71,-28.46"/>
<polygon fill="green" stroke="green" stroke-width="0.28" points="444.19,-25.29 433.74,-23.59 440.85,-31.44 444.19,-25.29"/>
</g>
<!-- &#45;14&#45;&gt;2 -->
<g id="edge67" class="edge">
<title>&#45;14&#45;&gt;2</title>
<path fill="none" stroke="red" stroke-width="0.2" d="M556.4,-75.06C552.34,-71.74 547.3,-68.11 542.25,-65.7 482.32,-37.1 458.83,-54.54 397.25,-29.7 396.39,-29.35 395.52,-28.98 394.66,-28.59"/>
<polygon fill="red" stroke="red" stroke-width="0.2" points="396.1,-25.39 385.61,-23.87 392.86,-31.6 396.1,-25.39"/>
</g>
<!-- &#45;14&#45;&gt;3 -->
<g id="edge68" class="edge">
<title>&#45;14&#45;&gt;3</title>
<path fill="none" stroke="green" stroke-width="0.25" d="M565.25,-74.84C565.25,-66.16 565.25,-52.09 565.25,-39.86"/>
<polygon fill="green" stroke="green" stroke-width="0.25" points="568.75,-39.78 565.25,-29.78 561.75,-39.78 568.75,-39.78"/>
</g>
<!-- &#45;14&#45;&gt;4 -->
<g id="edge69" class="edge">
<title>&#45;14&#45;&gt;4</title>
<path fill="none" stroke="green" stroke-width="0.31" d="M559.36,-74.84C552.44,-65.15 540.73,-48.75 531.41,-35.69"/>
<polygon fill="green" stroke="green" stroke-width="0.31" points="534.09,-33.42 525.43,-27.31 528.39,-37.48 534.09,-33.42"/>
</g>
<!-- &#45;15 -->
<g id="node15" class="node">
<title>&#45;15</title>
<polygon fill="lightgray" stroke="black" points="626.75,-93.08 597.75,-93.08 597.75,-75.08 626.75,-75.08 626.75,-93.08"/>
<text text-anchor="middle" x="612.25" y="-81.88" font-family="Times New Roman,serif" font-size="9.00">&#45;15</text>
</g>
<!-- &#45;15&#45;&gt;0 -->
<g id="edge70" class="edge">
<title>&#45;15&#45;&gt;0</title>
<path fill="none" stroke="green" stroke-width="0.46" d="M602.82,-74.98C598.82,-71.81 593.98,-68.3 589.25,-65.7 549.32,-43.73 534.45,-49.15 493.25,-29.7 492.41,-29.3 491.56,-28.89 490.71,-28.46"/>
<polygon fill="green" stroke="green" stroke-width="0.46" points="492.2,-25.29 481.74,-23.58 488.85,-31.43 492.2,-25.29"/>
</g>
<!-- &#45;15&#45;&gt;1 -->
<g id="edge71" class="edge">
<title>&#45;15&#45;&gt;1</title>
<path fill="none" stroke="green" stroke-width="0.35" d="M603.4,-75.07C599.34,-71.75 594.3,-68.12 589.25,-65.7 529.73,-37.24 506.41,-54.42 445.25,-29.7 444.39,-29.35 443.52,-28.98 442.66,-28.58"/>
<polygon fill="green" stroke="green" stroke-width="0.35" points="444.1,-25.39 433.62,-23.86 440.86,-31.6 444.1,-25.39"/>
</g>
<!-- &#45;15&#45;&gt;2 -->
<g id="edge72" class="edge">
<title>&#45;15&#45;&gt;2</title>
<path fill="none" stroke="red" stroke-width="0.11" d="M603.47,-74.92C599.42,-71.58 594.37,-67.97 589.25,-65.7 509.84,-30.59 478.67,-59.82 397.25,-29.7 396.38,-29.38 395.5,-29.03 394.63,-28.65"/>
<polygon fill="red" stroke="red" stroke-width="0.11" points="396.06,-25.45 385.56,-24.02 392.87,-31.68 396.06,-25.45"/>
</g>
<!-- &#45;15&#45;&gt;3 -->
<g id="edge73" class="edge">
<title>&#45;15&#45;&gt;3</title>
<path fill="none" stroke="green" stroke-width="0.51" d="M606.48,-74.84C599.79,-65.27 588.51,-49.13 579.44,-36.15"/>
<polygon fill="green" stroke="green" stroke-width="0.51" points="582.19,-33.98 573.59,-27.79 576.45,-37.99 582.19,-33.98"/>
</g>
<!-- &#45;15&#45;&gt;4 -->
<g id="edge74" class="edge">
<title>&#45;15&#45;&gt;4</title>
<path fill="none" stroke="red" stroke-width="0.12" d="M601.55,-74.85C597.7,-71.93 593.3,-68.63 589.25,-65.7 572.17,-53.34 552.47,-39.75 538,-29.88"/>
<polygon fill="red" stroke="red" stroke-width="0.12" points="539.57,-26.71 529.33,-23.99 535.63,-32.5 539.57,-26.71"/>
</g>
<!-- &#45;16 -->
<g id="node16" class="node">
<title>&#45;16</title>
<polygon fill="lightgray" stroke="black" points="673.75,-93.08 644.75,-93.08 644.75,-75.08 673.75,-75.08 673.75,-93.08"/>
<text text-anchor="middle" x="659.25" y="-81.88" font-family="Times New Roman,serif" font-size="9.00">&#45;16</text>
</g>
<!-- &#45;16&#45;&gt;0 -->
<g id="edge75" class="edge">
<title>&#45;16&#45;&gt;0</title>
<path fill="none" stroke="red" stroke-width="0.26" d="M650.4,-75.07C646.34,-71.75 641.3,-68.12 636.25,-65.7 577.14,-37.37 553.99,-54.31 493.25,-29.7 492.39,-29.35 491.52,-28.98 490.66,-28.58"/>
<polygon fill="red" stroke="red" stroke-width="0.26" points="492.1,-25.39 481.62,-23.86 488.86,-31.59 492.1,-25.39"/>
</g>
<!-- &#45;16&#45;&gt;1 -->
<g id="edge76" class="edge">
<title>&#45;16&#45;&gt;1</title>
<path fill="none" stroke="green" stroke-width="0.23" d="M650.47,-74.92C646.41,-71.58 641.37,-67.97 636.25,-65.7 557.26,-30.73 526.25,-59.71 445.25,-29.7 444.38,-29.38 443.5,-29.03 442.63,-28.65"/>
<polygon fill="green" stroke="green" stroke-width="0.23" points="444.06,-25.45 433.56,-24.01 440.87,-31.68 444.06,-25.45"/>
</g>
<!-- &#45;16&#45;&gt;2 -->
<g id="edge77" class="edge">
<title>&#45;16&#45;&gt;2</title>
<path fill="none" stroke="green" stroke-width="0.37" d="M650.51,-74.83C646.46,-71.47 641.41,-67.87 636.25,-65.7 537.24,-24.03 498.64,-65.16 397.25,-29.7 396.37,-29.39 395.49,-29.05 394.62,-28.69"/>
<polygon fill="green" stroke="green" stroke-width="0.37" points="396.03,-25.48 385.52,-24.11 392.88,-31.73 396.03,-25.48"/>
</g>
<!-- &#45;16&#45;&gt;3 -->
<g id="edge78" class="edge">
<title>&#45;16&#45;&gt;3</title>
<path fill="none" stroke="red" stroke-width="0.42" d="M648.54,-74.87C644.69,-71.94 640.29,-68.65 636.25,-65.7 619.47,-53.48 600.18,-39.97 585.94,-30.1"/>
<polygon fill="red" stroke="red" stroke-width="0.42" points="587.61,-27 577.4,-24.19 583.63,-32.75 587.61,-27"/>
</g>
<!-- &#45;16&#45;&gt;4 -->
<g id="edge79" class="edge">
<title>&#45;16&#45;&gt;4</title>
<path fill="none" stroke="green" stroke-width="0.15" d="M649.82,-74.99C645.81,-71.82 640.98,-68.31 636.25,-65.7 596.72,-43.86 582.04,-49.04 541.25,-29.7 540.41,-29.3 539.56,-28.89 538.71,-28.46"/>
<polygon fill="green" stroke="green" stroke-width="0.15" points="540.2,-25.28 529.75,-23.57 536.85,-31.43 540.2,-25.28"/>
</g>
<!-- &#45;17 -->
<g id="node17" class="node">
<title>&#45;17</title>
<polygon fill="lightgray" stroke="black" points="720.75,-93.08 691.75,-93.08 691.75,-75.08 720.75,-75.08 720.75,-93.08"/>
<text text-anchor="middle" x="706.25" y="-81.88" font-family="Times New Roman,serif" font-size="9.00">&#45;17</text>
</g>
<!-- &#45;17&#45;&gt;0 -->
<g id="edge80" class="edge">
<title>&#45;17&#45;&gt;0</title>
<path fill="none" stroke="red" stroke-width="0.26" d="M697.47,-74.93C693.41,-71.58 688.37,-67.97 683.25,-65.7 604.67,-30.87 573.82,-59.6 493.25,-29.7 492.38,-29.38 491.5,-29.02 490.63,-28.65"/>
<polygon fill="red" stroke="red" stroke-width="0.26" points="492.06,-25.45 481.56,-24.01 488.87,-31.68 492.06,-25.45"/>
</g>
<!-- &#45;17&#45;&gt;1 -->
<g id="edge81" class="edge">
<title>&#45;17&#45;&gt;1</title>
<path fill="none" stroke="green" stroke-width="0.21" d="M697.5,-74.84C693.46,-71.47 688.41,-67.87 683.25,-65.7 584.65,-24.17 546.22,-65.05 445.25,-29.7 444.37,-29.39 443.49,-29.05 442.62,-28.69"/>
<polygon fill="green" stroke="green" stroke-width="0.21" points="444.03,-25.48 433.53,-24.11 440.88,-31.73 444.03,-25.48"/>
</g>
<!-- &#45;17&#45;&gt;2 -->
<g id="edge82" class="edge">
<title>&#45;17&#45;&gt;2</title>
<path fill="none" stroke="green" stroke-width="0.6" d="M697.53,-74.77C693.49,-71.4 688.44,-67.81 683.25,-65.7 564.57,-17.44 518.68,-70.52 397.25,-29.7 396.37,-29.4 395.49,-29.07 394.61,-28.72"/>
<polygon fill="green" stroke="green" stroke-width="0.6" points="396.01,-25.51 385.5,-24.17 392.89,-31.77 396.01,-25.51"/>
</g>
<!-- &#45;17&#45;&gt;3 -->
<g id="edge83" class="edge">
<title>&#45;17&#45;&gt;3</title>
<path fill="none" stroke="red" stroke-width="0.26" d="M696.77,-75.08C692.75,-71.92 687.93,-68.4 683.25,-65.7 652.07,-47.7 613.14,-32.53 588.73,-23.81"/>
<polygon fill="red" stroke="red" stroke-width="0.26" points="589.81,-20.48 579.22,-20.48 587.5,-27.09 589.81,-20.48"/>
</g>
<!-- &#45;17&#45;&gt;4 -->
<g id="edge84" class="edge">
<title>&#45;17&#45;&gt;4</title>
<path fill="none" stroke="red" stroke-width="0.26" d="M697.4,-75.07C693.33,-71.76 688.3,-68.13 683.25,-65.7 624.56,-37.51 601.57,-54.2 541.25,-29.7 540.39,-29.35 539.52,-28.98 538.66,-28.58"/>
<polygon fill="red" stroke="red" stroke-width="0.26" points="540.1,-25.39 529.62,-23.86 536.86,-31.59 540.1,-25.39"/>
</g>
<!-- &#45;18 -->
<g id="node18" class="node">
<title>&#45;18</title>
<polygon fill="lightgray" stroke="black" points="904.75,-93.08 875.75,-93.08 875.75,-75.08 904.75,-75.08 904.75,-93.08"/>
<text text-anchor="middle" x="890.25" y="-81.88" font-family="Times New Roman,serif" font-size="9.00">&#45;18</text>
</g>
<!-- &#45;18&#45;&gt;0 -->
<g id="edge85" class="edge">
<title>&#45;18&#45;&gt;0</title>
<path fill="none" stroke="red" stroke-width="0.28" d="M881.57,-75.07C877.28,-71.58 871.83,-67.81 866.25,-65.7 710.47,-6.79 651.87,-80.47 493.25,-29.7 492.19,-29.36 491.13,-28.97 490.08,-28.54"/>
<polygon fill="red" stroke="red" stroke-width="0.28" points="491.49,-25.34 480.98,-23.96 488.34,-31.59 491.49,-25.34"/>
</g>
<!-- &#45;18&#45;&gt;1 -->
<g id="edge86" class="edge">
<title>&#45;18&#45;&gt;1</title>
<path fill="none" stroke="red" stroke-width="0.22" d="M881.58,-75.04C877.29,-71.54 871.84,-67.78 866.25,-65.7 690.23,-0.23 624.41,-85.97 445.25,-29.7 444.19,-29.37 443.13,-28.98 442.08,-28.56"/>
<polygon fill="red" stroke="red" stroke-width="0.22" points="443.48,-25.35 432.98,-23.99 440.34,-31.6 443.48,-25.35"/>
</g>
<!-- &#45;18&#45;&gt;3 -->
<g id="edge87" class="edge">
<title>&#45;18&#45;&gt;3</title>
<path fill="none" stroke="green" stroke-width="0.24" d="M881.05,-74.88C876.82,-71.52 871.56,-67.92 866.25,-65.7 769.96,-25.5 643.63,-17.65 590.51,-16.17"/>
<polygon fill="green" stroke="green" stroke-width="0.24" points="590.39,-12.66 580.32,-15.94 590.24,-19.66 590.39,-12.66"/>
</g>
<!-- &#45;18&#45;&gt;4 -->
<g id="edge88" class="edge">
<title>&#45;18&#45;&gt;4</title>
<path fill="none" stroke="green" stroke-width="0.4" d="M881.11,-74.74C876.89,-71.36 871.62,-67.77 866.25,-65.7 730.68,-13.33 679.34,-74.98 541.25,-29.7 540.37,-29.41 539.48,-29.09 538.6,-28.74"/>
<polygon fill="green" stroke="green" stroke-width="0.4" points="540,-25.52 529.49,-24.21 536.89,-31.79 540,-25.52"/>
</g>
<!-- &#45;19 -->
<g id="node19" class="node">
<title>&#45;19</title>
<polygon fill="lightgray" stroke="black" points="767.75,-93.08 738.75,-93.08 738.75,-75.08 767.75,-75.08 767.75,-93.08"/>
<text text-anchor="middle" x="753.25" y="-81.88" font-family="Times New Roman,serif" font-size="9.00">&#45;19</text>
</g>
<!-- &#45;19&#45;&gt;0 -->
<g id="edge89" class="edge">
<title>&#45;19&#45;&gt;0</title>
<path fill="none" stroke="red" stroke-width="0.5" d="M744.5,-74.84C740.46,-71.48 735.41,-67.88 730.25,-65.7 632.07,-24.31 593.79,-64.93 493.25,-29.7 492.37,-29.39 491.49,-29.05 490.62,-28.69"/>
<polygon fill="red" stroke="red" stroke-width="0.5" points="492.03,-25.48 481.53,-24.11 488.88,-31.73 492.03,-25.48"/>
</g>
<!-- &#45;19&#45;&gt;1 -->
<g id="edge90" class="edge">
<title>&#45;19&#45;&gt;1</title>
<path fill="none" stroke="red" stroke-width="0.16" d="M744.53,-74.78C740.49,-71.4 735.44,-67.81 730.25,-65.7 611.99,-17.58 566.25,-70.41 445.25,-29.7 444.37,-29.4 443.49,-29.07 442.61,-28.72"/>
<polygon fill="red" stroke="red" stroke-width="0.16" points="444.01,-25.51 433.5,-24.17 440.89,-31.77 444.01,-25.51"/>
</g>
<!-- &#45;19&#45;&gt;2 -->
<g id="edge91" class="edge">
<title>&#45;19&#45;&gt;2</title>
<path fill="none" stroke="red" stroke-width="0.56" d="M744.55,-74.73C740.51,-71.35 735.46,-67.76 730.25,-65.7 591.86,-10.83 538.76,-75.89 397.25,-29.7 396.37,-29.41 395.48,-29.09 394.6,-28.74"/>
<polygon fill="red" stroke="red" stroke-width="0.56" points="396,-25.53 385.49,-24.22 392.89,-31.8 396,-25.53"/>
</g>
<!-- &#45;19&#45;&gt;3 -->
<g id="edge92" class="edge">
<title>&#45;19&#45;&gt;3</title>
<path fill="none" stroke="green" stroke-width="0.33" d="M743.9,-74.83C739.91,-71.63 735.06,-68.15 730.25,-65.7 683.51,-41.94 623.47,-27.35 590.22,-20.51"/>
<polygon fill="green" stroke="green" stroke-width="0.33" points="590.52,-17 580.03,-18.49 589.15,-23.87 590.52,-17"/>
</g>
<!-- &#45;19&#45;&gt;4 -->
<g id="edge93" class="edge">
<title>&#45;19&#45;&gt;4</title>
<path fill="none" stroke="red" stroke-width="0.15" d="M744.46,-74.93C740.41,-71.58 735.37,-67.97 730.25,-65.7 652.09,-31.01 621.4,-59.49 541.25,-29.7 540.38,-29.38 539.5,-29.02 538.63,-28.65"/>
<polygon fill="red" stroke="red" stroke-width="0.15" points="540.06,-25.45 529.56,-24.01 536.87,-31.68 540.06,-25.45"/>
</g>
<!-- &#45;20 -->
<g id="node20" class="node">
<title>&#45;20</title>
<polygon fill="lightgray" stroke="black" points="814.75,-93.08 785.75,-93.08 785.75,-75.08 814.75,-75.08 814.75,-93.08"/>
<text text-anchor="middle" x="800.25" y="-81.88" font-family="Times New Roman,serif" font-size="9.00">&#45;20</text>
</g>
<!-- &#45;20&#45;&gt;0 -->
<g id="edge94" class="edge">
<title>&#45;20&#45;&gt;0</title>
<path fill="none" stroke="green" stroke-width="0.15" d="M791.53,-74.78C787.49,-71.4 782.44,-67.81 777.25,-65.7 659.41,-17.72 613.83,-70.29 493.25,-29.7 492.37,-29.4 491.49,-29.07 490.61,-28.72"/>
<polygon fill="green" stroke="green" stroke-width="0.15" points="492.01,-25.51 481.5,-24.17 488.89,-31.77 492.01,-25.51"/>
</g>
<!-- &#45;20&#45;&gt;1 -->
<g id="edge95" class="edge">
<title>&#45;20&#45;&gt;1</title>
<path fill="none" stroke="green" stroke-width="0.39" d="M791.55,-74.73C787.51,-71.35 782.46,-67.77 777.25,-65.7 639.28,-10.97 586.33,-75.78 445.25,-29.7 444.37,-29.41 443.48,-29.09 442.6,-28.74"/>
<polygon fill="green" stroke="green" stroke-width="0.39" points="444,-25.53 433.49,-24.22 440.89,-31.8 444,-25.53"/>
</g>
<!-- &#45;20&#45;&gt;2 -->
<g id="edge96" class="edge">
<title>&#45;20&#45;&gt;2</title>
<path fill="none" stroke="green" stroke-width="0.36" d="M791.99,-75.06C787.89,-71.57 782.66,-67.8 777.25,-65.7 619.13,-4.22 558.86,-81.27 397.25,-29.7 396.19,-29.36 395.13,-28.97 394.08,-28.55"/>
<polygon fill="green" stroke="green" stroke-width="0.36" points="395.49,-25.34 384.98,-23.96 392.34,-31.59 395.49,-25.34"/>
</g>
<!-- &#45;20&#45;&gt;3 -->
<g id="edge97" class="edge">
<title>&#45;20&#45;&gt;3</title>
<path fill="none" stroke="red" stroke-width="0.2" d="M791.42,-75.03C787.36,-71.71 782.32,-68.08 777.25,-65.7 713.76,-35.88 630.97,-23.1 590.19,-18.33"/>
<polygon fill="red" stroke="red" stroke-width="0.2" points="590.4,-14.83 580.07,-17.21 589.63,-21.79 590.4,-14.83"/>
</g>
<!-- &#45;20&#45;&gt;4 -->
<g id="edge98" class="edge">
<title>&#45;20&#45;&gt;4</title>
<path fill="none" stroke="red" stroke-width="0.19" d="M791.5,-74.84C787.46,-71.48 782.41,-67.88 777.25,-65.7 679.49,-24.45 641.37,-64.82 541.25,-29.7 540.37,-29.39 539.49,-29.05 538.62,-28.69"/>
<polygon fill="red" stroke="red" stroke-width="0.19" points="540.03,-25.48 529.53,-24.1 536.88,-31.73 540.03,-25.48"/>
</g>
<!-- 45&#45;&gt;4 -->
<g id="edge100" class="edge">
<title>45&#45;&gt;4</title>
<path fill="none" stroke="green" stroke-width="0.41" d="M964.18,-73.25C959.01,-70.33 953.06,-67.45 947.25,-65.7 773.82,-13.37 713.99,-84.25 541.25,-29.7 540.19,-29.37 539.13,-28.98 538.08,-28.56"/>
<polygon fill="green" stroke="green" stroke-width="0.41" points="539.48,-25.35 528.98,-23.98 536.34,-31.6 539.48,-25.35"/>
</g>
</g>
</svg>
