<?xml version="1.0" encoding="UTF-8" standalone="no"?>
<!DOCTYPE svg PUBLIC "-//W3C//DTD SVG 1.1//EN"
 "http://www.w3.org/Graphics/SVG/1.1/DTD/svg11.dtd">
<!-- Generated by graphviz version 2.43.0 (0)
 -->
<!-- Title: %3 Pages: 1 -->
<svg width="1302pt" height="180pt"
 viewBox="0.00 0.00 1301.85 180.02" xmlns="http://www.w3.org/2000/svg" xmlns:xlink="http://www.w3.org/1999/xlink">
<g id="graph0" class="graph" transform="scale(1 1) rotate(0) translate(4 176.02)">
<title>%3</title>
<polygon fill="white" stroke="transparent" points="-4,4 -4,-176.02 1297.85,-176.02 1297.85,4 -4,4"/>
<!-- &#45;1 -->
<g id="node1" class="node">
<title>&#45;1</title>
<polygon fill="lightgray" stroke="black" points="278.1,-102.28 252.1,-102.28 252.1,-84.28 278.1,-84.28 278.1,-102.28"/>
<text text-anchor="middle" x="265.1" y="-91.08" font-family="Times,serif" font-size="9.00">&#45;1</text>
</g>
<!-- 0 -->
<g id="node21" class="node">
<title>0</title>
<ellipse fill="lightblue" stroke="black" cx="478.1" cy="-16.26" rx="16.03" ry="16.03"/>
<text text-anchor="middle" x="478.1" y="-14.06" font-family="Times,serif" font-size="9.00">0</text>
</g>
<!-- &#45;1&#45;&gt;0 -->
<g id="edge1" class="edge">
<title>&#45;1&#45;&gt;0</title>
<path fill="none" stroke="red" stroke-width="0.27" d="M270.75,-84.12C274.75,-78.93 280.55,-72.48 287.1,-68.53 339.94,-36.64 412.75,-24.26 451.43,-19.71"/>
<polygon fill="red" stroke="red" stroke-width="0.27" points="452.27,-23.14 461.83,-18.58 451.51,-16.18 452.27,-23.14"/>
</g>
<!-- 1 -->
<g id="node22" class="node">
<title>1</title>
<ellipse fill="lightblue" stroke="black" cx="529.1" cy="-16.26" rx="16.03" ry="16.03"/>
<text text-anchor="middle" x="529.1" y="-14.06" font-family="Times,serif" font-size="9.00">1</text>
</g>
<!-- &#45;1&#45;&gt;1 -->
<g id="edge31" class="edge">
<title>&#45;1&#45;&gt;1</title>
<path fill="none" stroke="green" stroke-width="0.17" d="M270.63,-83.9C274.58,-78.63 280.37,-72.15 287.1,-68.53 372.77,-22.35 411.61,-65.72 503.1,-32.53 504.34,-32.08 505.6,-31.56 506.85,-31.01"/>
<polygon fill="green" stroke="green" stroke-width="0.17" points="508.84,-33.91 516.07,-26.17 505.58,-27.72 508.84,-33.91"/>
</g>
<!-- 2 -->
<g id="node23" class="node">
<title>2</title>
<ellipse fill="lightblue" stroke="black" cx="664.1" cy="-16.26" rx="16.03" ry="16.03"/>
<text text-anchor="middle" x="664.1" y="-14.06" font-family="Times,serif" font-size="9.00">2</text>
</g>
<!-- &#45;1&#45;&gt;2 -->
<g id="edge38" class="edge">
<title>&#45;1&#45;&gt;2</title>
<path fill="none" stroke="green" stroke-width="0.1" d="M270.22,-84.24C274.14,-78.82 280.06,-72.05 287.1,-68.53 422.95,-0.45 479.81,-69.88 627.1,-32.53 631.42,-31.43 635.89,-29.93 640.18,-28.29"/>
<polygon fill="green" stroke="green" stroke-width="0.1" points="641.77,-31.42 649.66,-24.34 639.09,-24.95 641.77,-31.42"/>
</g>
<!-- 3 -->
<g id="node24" class="node">
<title>3</title>
<ellipse fill="lightblue" stroke="black" cx="602.1" cy="-16.26" rx="16.03" ry="16.03"/>
<text text-anchor="middle" x="602.1" y="-14.06" font-family="Times,serif" font-size="9.00">3</text>
</g>
<!-- &#45;1&#45;&gt;3 -->
<g id="edge68" class="edge">
<title>&#45;1&#45;&gt;3</title>
<path fill="none" stroke="red" stroke-width="0.2" d="M270.6,-83.83C274.53,-78.53 280.31,-72.05 287.1,-68.53 393.37,-13.36 437.27,-58.77 554.1,-32.53 561.84,-30.79 570.13,-28.36 577.6,-25.96"/>
<polygon fill="red" stroke="red" stroke-width="0.2" points="578.78,-29.25 587.15,-22.76 576.56,-22.62 578.78,-29.25"/>
</g>
<!-- 4 -->
<g id="node25" class="node">
<title>4</title>
<ellipse fill="lightblue" stroke="black" cx="715.1" cy="-16.26" rx="16.03" ry="16.03"/>
<text text-anchor="middle" x="715.1" y="-14.06" font-family="Times,serif" font-size="9.00">4</text>
</g>
<!-- &#45;1&#45;&gt;4 -->
<g id="edge41" class="edge">
<title>&#45;1&#45;&gt;4</title>
<path fill="none" stroke="red" stroke-width="0.2" d="M270.21,-84.2C274.12,-78.77 280.04,-72 287.1,-68.53 448.12,10.54 518.27,-87.26 689.1,-32.53 690.36,-32.12 691.63,-31.65 692.88,-31.12"/>
<polygon fill="red" stroke="red" stroke-width="0.2" points="694.84,-34.06 702.14,-26.38 691.64,-27.83 694.84,-34.06"/>
</g>
<!-- &#45;2 -->
<g id="node2" class="node">
<title>&#45;2</title>
<polygon fill="lightgray" stroke="black" points="1024.1,-102.28 998.1,-102.28 998.1,-84.28 1024.1,-84.28 1024.1,-102.28"/>
<text text-anchor="middle" x="1011.1" y="-91.08" font-family="Times,serif" font-size="9.00">&#45;2</text>
</g>
<!-- &#45;2&#45;&gt;1 -->
<g id="edge85" class="edge">
<title>&#45;2&#45;&gt;1</title>
<path fill="none" stroke="red" stroke-width="0.34" d="M1005.99,-84.2C1002.08,-78.77 996.17,-71.99 989.1,-68.53 906.56,-28.11 667.22,-50.56 577.1,-32.53 569.32,-30.97 561.02,-28.6 553.55,-26.19"/>
<polygon fill="red" stroke="red" stroke-width="0.34" points="554.6,-22.85 544.01,-22.94 552.35,-29.47 554.6,-22.85"/>
</g>
<!-- &#45;2&#45;&gt;2 -->
<g id="edge37" class="edge">
<title>&#45;2&#45;&gt;2</title>
<path fill="none" stroke="red" stroke-width="0.5" d="M1005.96,-84.27C1002.03,-78.87 996.11,-72.1 989.1,-68.53 869.87,-7.7 816.93,-75.31 690.1,-32.53 688.84,-32.1 687.58,-31.61 686.33,-31.08"/>
<polygon fill="red" stroke="red" stroke-width="0.5" points="687.58,-27.78 677.09,-26.29 684.36,-34 687.58,-27.78"/>
</g>
<!-- &#45;2&#45;&gt;3 -->
<g id="edge20" class="edge">
<title>&#45;2&#45;&gt;3</title>
<path fill="none" stroke="red" stroke-width="0.27" d="M1005.98,-84.23C1002.06,-78.81 996.14,-72.04 989.1,-68.53 849.19,1.32 790.73,-70.74 639.1,-32.53 634.78,-31.44 630.3,-29.94 626.02,-28.3"/>
<polygon fill="red" stroke="red" stroke-width="0.27" points="627.11,-24.96 616.53,-24.36 624.42,-31.43 627.11,-24.96"/>
</g>
<!-- &#45;2&#45;&gt;4 -->
<g id="edge23" class="edge">
<title>&#45;2&#45;&gt;4</title>
<path fill="none" stroke="green" stroke-width="0.15" d="M1005.54,-83.95C1001.58,-78.69 995.79,-72.22 989.1,-68.53 907.19,-23.32 792.74,-17.16 741.61,-16.85"/>
<polygon fill="green" stroke="green" stroke-width="0.15" points="741.4,-13.35 731.41,-16.86 741.41,-20.35 741.4,-13.35"/>
</g>
<!-- &#45;3 -->
<g id="node3" class="node">
<title>&#45;3</title>
<polygon fill="lightgray" stroke="black" points="1103.1,-172.02 1077.1,-172.02 1077.1,-154.02 1103.1,-154.02 1103.1,-172.02"/>
<text text-anchor="middle" x="1090.1" y="-160.82" font-family="Times,serif" font-size="9.00">&#45;3</text>
</g>
<!-- &#45;3&#45;&gt;0 -->
<g id="edge44" class="edge">
<title>&#45;3&#45;&gt;0</title>
<path fill="none" stroke="green" stroke-width="0.15" d="M1077.01,-161.9C967.74,-160.82 210.56,-152.09 178.1,-118.02 96.5,-32.39 364.32,-19.53 451.56,-17.6"/>
<polygon fill="green" stroke="green" stroke-width="0.15" points="451.79,-21.1 461.73,-17.41 451.66,-14.1 451.79,-21.1"/>
</g>
<!-- &#45;3&#45;&gt;1 -->
<g id="edge13" class="edge">
<title>&#45;3&#45;&gt;1</title>
<path fill="none" stroke="red" stroke-width="0.63" d="M1076.88,-161.89C968.18,-160.72 224.98,-151.51 193.1,-118.02 177.93,-102.09 178.47,-84.96 193.1,-68.53 239.22,-16.74 437.34,-54.56 503.1,-32.53 504.36,-32.11 505.62,-31.62 506.87,-31.08"/>
<polygon fill="red" stroke="red" stroke-width="0.63" points="508.84,-34.01 516.11,-26.31 505.62,-27.79 508.84,-34.01"/>
</g>
<!-- &#45;3&#45;&gt;2 -->
<g id="edge79" class="edge">
<title>&#45;3&#45;&gt;2</title>
<path fill="none" stroke="green" stroke-width="0.69" d="M1089.5,-153.85C1087.65,-135.23 1080.31,-89.61 1052.1,-68.53 987.35,-20.12 766.96,-57.57 690.1,-32.53 688.84,-32.12 687.57,-31.64 686.32,-31.11"/>
<polygon fill="green" stroke="green" stroke-width="0.69" points="687.56,-27.81 677.07,-26.35 684.36,-34.04 687.56,-27.81"/>
</g>
<!-- &#45;3&#45;&gt;4 -->
<g id="edge24" class="edge">
<title>&#45;3&#45;&gt;4</title>
<path fill="none" stroke="green" stroke-width="0.17" stroke-dasharray="1,5" d="M1103.15,-159.89C1123.34,-155.79 1161.58,-144.76 1178.1,-118.02 1189.66,-99.31 1192.77,-84.92 1178.1,-68.53 1148.78,-35.78 835.38,-21.68 741.51,-18.18"/>
<polygon fill="green" stroke="green" stroke-width="0.17" points="741.55,-14.67 731.43,-17.81 741.29,-21.67 741.55,-14.67"/>
</g>
<!-- 145 -->
<g id="node27" class="node">
<title>145</title>
<ellipse fill="white" stroke="black" cx="1269.1" cy="-93.28" rx="25" ry="25"/>
<text text-anchor="middle" x="1269.1" y="-91.08" font-family="Times,serif" font-size="9.00">145</text>
</g>
<!-- &#45;3&#45;&gt;145 -->
<g id="edge75" class="edge">
<title>&#45;3&#45;&gt;145</title>
<path fill="none" stroke="green" stroke-width="0.3" d="M1103.23,-159.03C1128.48,-153.03 1185.32,-138.33 1230.1,-118.02 1233.47,-116.49 1236.92,-114.73 1240.29,-112.87"/>
<polygon fill="green" stroke="green" stroke-width="0.3" points="1242.09,-115.87 1248.96,-107.81 1238.56,-109.83 1242.09,-115.87"/>
</g>
<!-- &#45;4 -->
<g id="node4" class="node">
<title>&#45;4</title>
<polygon fill="lightgray" stroke="black" points="322.1,-102.28 296.1,-102.28 296.1,-84.28 322.1,-84.28 322.1,-102.28"/>
<text text-anchor="middle" x="309.1" y="-91.08" font-family="Times,serif" font-size="9.00">&#45;4</text>
</g>
<!-- &#45;4&#45;&gt;0 -->
<g id="edge88" class="edge">
<title>&#45;4&#45;&gt;0</title>
<path fill="none" stroke="red" stroke-width="0.4" d="M314.85,-84.27C318.89,-79.15 324.7,-72.71 331.1,-68.53 369.33,-43.5 421.18,-29.17 451.98,-22.33"/>
<polygon fill="red" stroke="red" stroke-width="0.4" points="452.89,-25.71 461.95,-20.21 451.44,-18.86 452.89,-25.71"/>
</g>
<!-- &#45;4&#45;&gt;1 -->
<g id="edge22" class="edge">
<title>&#45;4&#45;&gt;1</title>
<path fill="none" stroke="red" stroke-width="0.54" d="M314.68,-83.99C318.65,-78.76 324.45,-72.29 331.1,-68.53 399.07,-30.06 430.24,-60.67 503.1,-32.53 504.33,-32.05 505.58,-31.52 506.82,-30.95"/>
<polygon fill="red" stroke="red" stroke-width="0.54" points="508.84,-33.84 516.02,-26.05 505.55,-27.66 508.84,-33.84"/>
</g>
<!-- &#45;4&#45;&gt;2 -->
<g id="edge50" class="edge">
<title>&#45;4&#45;&gt;2</title>
<path fill="none" stroke="green" stroke-width="0.12" d="M314.24,-84.27C318.17,-78.87 324.09,-72.11 331.1,-68.53 449.11,-8.23 498.9,-66.1 627.1,-32.53 631.41,-31.4 635.88,-29.88 640.16,-28.23"/>
<polygon fill="green" stroke="green" stroke-width="0.12" points="641.76,-31.36 649.65,-24.29 639.07,-24.9 641.76,-31.36"/>
</g>
<!-- &#45;4&#45;&gt;3 -->
<g id="edge78" class="edge">
<title>&#45;4&#45;&gt;3</title>
<path fill="none" stroke="green" stroke-width="0.7" d="M314.63,-83.89C318.57,-78.61 324.36,-72.14 331.1,-68.53 419.59,-21.12 456.44,-55.8 554.1,-32.53 561.82,-30.69 570.1,-28.23 577.57,-25.83"/>
<polygon fill="green" stroke="green" stroke-width="0.7" points="578.74,-29.13 587.13,-22.65 576.53,-22.49 578.74,-29.13"/>
</g>
<!-- &#45;4&#45;&gt;4 -->
<g id="edge67" class="edge">
<title>&#45;4&#45;&gt;4</title>
<path fill="none" stroke="green" stroke-width="0.34" d="M314.22,-84.23C318.14,-78.81 324.06,-72.03 331.1,-68.53 474.25,2.74 537.08,-82.15 689.1,-32.53 690.36,-32.12 691.62,-31.64 692.88,-31.11"/>
<polygon fill="green" stroke="green" stroke-width="0.34" points="694.84,-34.04 702.13,-26.35 691.64,-27.81 694.84,-34.04"/>
</g>
<!-- &#45;5 -->
<g id="node5" class="node">
<title>&#45;5</title>
<polygon fill="lightgray" stroke="black" points="366.1,-102.28 340.1,-102.28 340.1,-84.28 366.1,-84.28 366.1,-102.28"/>
<text text-anchor="middle" x="353.1" y="-91.08" font-family="Times,serif" font-size="9.00">&#45;5</text>
</g>
<!-- &#45;5&#45;&gt;0 -->
<g id="edge36" class="edge">
<title>&#45;5&#45;&gt;0</title>
<path fill="none" stroke="red" stroke-width="0.19" d="M359.4,-84.09C363.5,-79.15 369.16,-72.97 375.1,-68.53 399.53,-50.23 431.49,-35.51 453.29,-26.62"/>
<polygon fill="red" stroke="red" stroke-width="0.19" points="454.81,-29.78 462.81,-22.84 452.23,-23.28 454.81,-29.78"/>
</g>
<!-- &#45;5&#45;&gt;1 -->
<g id="edge9" class="edge">
<title>&#45;5&#45;&gt;1</title>
<path fill="none" stroke="red" stroke-width="0.25" d="M358.77,-84.14C362.78,-78.97 368.58,-72.51 375.1,-68.53 425.51,-37.69 448.73,-55.68 503.1,-32.53 504.32,-32.01 505.55,-31.44 506.78,-30.84"/>
<polygon fill="red" stroke="red" stroke-width="0.25" points="508.83,-33.71 515.95,-25.87 505.49,-27.56 508.83,-33.71"/>
</g>
<!-- &#45;5&#45;&gt;2 -->
<g id="edge97" class="edge">
<title>&#45;5&#45;&gt;2</title>
<path fill="none" stroke="green" stroke-width="0.49" d="M358.61,-83.85C362.54,-78.56 368.33,-72.08 375.1,-68.53 475.31,-16.01 517.96,-62.33 627.1,-32.53 631.4,-31.35 635.86,-29.81 640.14,-28.16"/>
<polygon fill="green" stroke="green" stroke-width="0.49" points="641.74,-31.28 649.63,-24.22 639.05,-24.82 641.74,-31.28"/>
</g>
<!-- &#45;5&#45;&gt;3 -->
<g id="edge64" class="edge">
<title>&#45;5&#45;&gt;3</title>
<path fill="none" stroke="red" stroke-width="0.46" d="M358.67,-83.98C362.64,-78.73 368.43,-72.27 375.1,-68.53 445.88,-28.84 475.54,-52.85 554.1,-32.53 561.58,-30.59 569.61,-28.17 576.93,-25.84"/>
<polygon fill="red" stroke="red" stroke-width="0.46" points="578.25,-29.09 586.66,-22.65 576.07,-22.44 578.25,-29.09"/>
</g>
<!-- &#45;5&#45;&gt;4 -->
<g id="edge57" class="edge">
<title>&#45;5&#45;&gt;4</title>
<path fill="none" stroke="red" stroke-width="0.18" d="M358.23,-84.26C362.16,-78.85 368.08,-72.08 375.1,-68.53 500.41,-5.05 555.87,-77.05 689.1,-32.53 690.36,-32.11 691.62,-31.62 692.87,-31.09"/>
<polygon fill="red" stroke="red" stroke-width="0.18" points="694.84,-34.01 702.12,-26.31 691.62,-27.79 694.84,-34.01"/>
</g>
<!-- &#45;6 -->
<g id="node6" class="node">
<title>&#45;6</title>
<polygon fill="lightgray" stroke="black" points="410.1,-102.28 384.1,-102.28 384.1,-84.28 410.1,-84.28 410.1,-102.28"/>
<text text-anchor="middle" x="397.1" y="-91.08" font-family="Times,serif" font-size="9.00">&#45;6</text>
</g>
<!-- &#45;6&#45;&gt;0 -->
<g id="edge77" class="edge">
<title>&#45;6&#45;&gt;0</title>
<path fill="none" stroke="green" stroke-width="0.17" d="M404.22,-84.16C408.43,-79.47 413.93,-73.53 419.1,-68.53 431.49,-56.52 446.13,-43.8 457.72,-34.03"/>
<polygon fill="green" stroke="green" stroke-width="0.17" points="460.12,-36.59 465.55,-27.49 455.63,-31.21 460.12,-36.59"/>
</g>
<!-- &#45;6&#45;&gt;1 -->
<g id="edge12" class="edge">
<title>&#45;6&#45;&gt;1</title>
<path fill="none" stroke="red" stroke-width="0.38" d="M403.32,-83.97C407.38,-78.98 413.04,-72.8 419.1,-68.53 452.29,-45.12 466.85,-50.84 503.1,-32.53 504.26,-31.94 505.43,-31.33 506.61,-30.7"/>
<polygon fill="red" stroke="red" stroke-width="0.38" points="508.53,-33.63 515.51,-25.67 505.09,-27.54 508.53,-33.63"/>
</g>
<!-- &#45;6&#45;&gt;2 -->
<g id="edge19" class="edge">
<title>&#45;6&#45;&gt;2</title>
<path fill="none" stroke="red" stroke-width="0.46" d="M402.64,-83.92C406.59,-78.65 412.38,-72.17 419.1,-68.53 501.55,-23.75 536.97,-58.57 627.1,-32.53 631.38,-31.29 635.84,-29.71 640.11,-28.05"/>
<polygon fill="red" stroke="red" stroke-width="0.46" points="641.71,-31.18 649.6,-24.11 639.02,-24.71 641.71,-31.18"/>
</g>
<!-- &#45;6&#45;&gt;3 -->
<g id="edge48" class="edge">
<title>&#45;6&#45;&gt;3</title>
<path fill="none" stroke="green" stroke-width="0.2" d="M402.75,-84.11C406.75,-78.93 412.55,-72.47 419.1,-68.53 472.29,-36.49 494.49,-49.94 554.1,-32.53 561.52,-30.36 569.53,-27.87 576.85,-25.54"/>
<polygon fill="green" stroke="green" stroke-width="0.2" points="578.15,-28.8 586.59,-22.4 576,-22.14 578.15,-28.8"/>
</g>
<!-- &#45;6&#45;&gt;4 -->
<g id="edge58" class="edge">
<title>&#45;6&#45;&gt;4</title>
<path fill="none" stroke="green" stroke-width="0.16" d="M402.6,-83.83C406.53,-78.53 412.31,-72.04 419.1,-68.53 526.59,-12.83 574.64,-71.95 689.1,-32.53 690.35,-32.1 691.61,-31.6 692.86,-31.06"/>
<polygon fill="green" stroke="green" stroke-width="0.16" points="694.84,-33.98 702.1,-26.26 691.61,-27.76 694.84,-33.98"/>
</g>
<!-- &#45;7 -->
<g id="node7" class="node">
<title>&#45;7</title>
<polygon fill="lightgray" stroke="black" points="454.1,-102.28 428.1,-102.28 428.1,-84.28 454.1,-84.28 454.1,-102.28"/>
<text text-anchor="middle" x="441.1" y="-91.08" font-family="Times,serif" font-size="9.00">&#45;7</text>
</g>
<!-- &#45;7&#45;&gt;0 -->
<g id="edge30" class="edge">
<title>&#45;7&#45;&gt;0</title>
<path fill="none" stroke="green" stroke-width="0.13" d="M445.06,-84.25C450.2,-73.83 459.38,-55.22 466.76,-40.25"/>
<polygon fill="green" stroke="green" stroke-width="0.13" points="470.01,-41.58 471.29,-31.07 463.73,-38.49 470.01,-41.58"/>
</g>
<!-- &#45;7&#45;&gt;1 -->
<g id="edge96" class="edge">
<title>&#45;7&#45;&gt;1</title>
<path fill="none" stroke="red" stroke-width="0.17" d="M448.12,-84.05C452.3,-79.33 457.8,-73.39 463.1,-68.53 477.4,-55.42 494.77,-42.02 508.1,-32.21"/>
<polygon fill="red" stroke="red" stroke-width="0.17" points="510.17,-35.03 516.2,-26.32 506.05,-29.37 510.17,-35.03"/>
</g>
<!-- &#45;7&#45;&gt;2 -->
<g id="edge63" class="edge">
<title>&#45;7&#45;&gt;2</title>
<path fill="none" stroke="green" stroke-width="0.11" d="M446.7,-84.02C450.67,-78.79 456.47,-72.32 463.1,-68.53 527.87,-31.46 555.89,-54.84 627.1,-32.53 631.35,-31.19 635.79,-29.57 640.07,-27.89"/>
<polygon fill="green" stroke="green" stroke-width="0.11" points="641.66,-31.02 649.55,-23.96 638.98,-24.55 641.66,-31.02"/>
</g>
<!-- &#45;7&#45;&gt;3 -->
<g id="edge35" class="edge">
<title>&#45;7&#45;&gt;3</title>
<path fill="none" stroke="green" stroke-width="0.21" stroke-dasharray="1,5" d="M447.24,-83.86C451.27,-78.83 456.93,-72.64 463.1,-68.53 472.88,-62 539.57,-38.65 576.91,-25.84"/>
<polygon fill="green" stroke="green" stroke-width="0.21" points="578.26,-29.07 586.59,-22.52 576,-22.45 578.26,-29.07"/>
</g>
<!-- &#45;7&#45;&gt;4 -->
<g id="edge46" class="edge">
<title>&#45;7&#45;&gt;4</title>
<path fill="none" stroke="red" stroke-width="0.58" d="M446.63,-83.89C450.57,-78.61 456.36,-72.13 463.1,-68.53 552.8,-20.59 593.36,-66.87 689.1,-32.53 690.35,-32.08 691.6,-31.57 692.85,-31.02"/>
<polygon fill="red" stroke="red" stroke-width="0.58" points="694.84,-33.93 702.07,-26.19 691.59,-27.73 694.84,-33.93"/>
</g>
<!-- &#45;8 -->
<g id="node8" class="node">
<title>&#45;8</title>
<polygon fill="lightgray" stroke="black" points="498.1,-102.28 472.1,-102.28 472.1,-84.28 498.1,-84.28 498.1,-102.28"/>
<text text-anchor="middle" x="485.1" y="-91.08" font-family="Times,serif" font-size="9.00">&#45;8</text>
</g>
<!-- &#45;8&#45;&gt;0 -->
<g id="edge73" class="edge">
<title>&#45;8&#45;&gt;0</title>
<path fill="none" stroke="red" stroke-width="0.3" d="M484.35,-84.25C483.42,-74.33 481.81,-56.99 480.45,-42.44"/>
<polygon fill="red" stroke="red" stroke-width="0.3" points="483.93,-42.11 479.52,-32.48 476.96,-42.76 483.93,-42.11"/>
</g>
<!-- &#45;8&#45;&gt;1 -->
<g id="edge29" class="edge">
<title>&#45;8&#45;&gt;1</title>
<path fill="none" stroke="red" stroke-width="0.19" d="M489.81,-84.25C496.01,-73.67 507.18,-54.64 516.02,-39.56"/>
<polygon fill="red" stroke="red" stroke-width="0.19" points="519.13,-41.18 521.17,-30.79 513.09,-37.64 519.13,-41.18"/>
</g>
<!-- &#45;8&#45;&gt;2 -->
<g id="edge34" class="edge">
<title>&#45;8&#45;&gt;2</title>
<path fill="none" stroke="green" stroke-width="0.17" d="M490.79,-84.18C494.81,-79.02 500.61,-72.57 507.1,-68.53 554.35,-39.07 574.63,-51.17 627.1,-32.53 631.3,-31.04 635.71,-29.33 639.98,-27.62"/>
<polygon fill="green" stroke="green" stroke-width="0.17" points="641.56,-30.75 649.47,-23.69 638.89,-24.28 641.56,-30.75"/>
</g>
<!-- &#45;8&#45;&gt;3 -->
<g id="edge62" class="edge">
<title>&#45;8&#45;&gt;3</title>
<path fill="none" stroke="green" stroke-width="0.49" stroke-dasharray="1,5" d="M491.46,-84.16C495.57,-79.24 501.23,-73.07 507.1,-68.53 529.28,-51.34 558,-36.73 578.04,-27.55"/>
<polygon fill="green" stroke="green" stroke-width="0.49" points="579.67,-30.65 587.37,-23.38 576.81,-24.26 579.67,-30.65"/>
</g>
<!-- &#45;8&#45;&gt;4 -->
<g id="edge95" class="edge">
<title>&#45;8&#45;&gt;4</title>
<path fill="none" stroke="green" stroke-width="0.2" d="M490.67,-83.97C494.63,-78.72 500.43,-72.25 507.1,-68.53 579.08,-28.31 612.02,-61.81 689.1,-32.53 690.34,-32.06 691.59,-31.53 692.83,-30.96"/>
<polygon fill="green" stroke="green" stroke-width="0.2" points="694.84,-33.86 702.03,-26.08 691.56,-27.67 694.84,-33.86"/>
</g>
<!-- &#45;9 -->
<g id="node9" class="node">
<title>&#45;9</title>
<polygon fill="lightgray" stroke="black" points="542.1,-102.28 516.1,-102.28 516.1,-84.28 542.1,-84.28 542.1,-102.28"/>
<text text-anchor="middle" x="529.1" y="-91.08" font-family="Times,serif" font-size="9.00">&#45;9</text>
</g>
<!-- &#45;9&#45;&gt;0 -->
<g id="edge87" class="edge">
<title>&#45;9&#45;&gt;0</title>
<path fill="none" stroke="red" stroke-width="0.43" d="M523.64,-84.25C516.29,-73.44 502.95,-53.82 492.6,-38.59"/>
<polygon fill="red" stroke="red" stroke-width="0.43" points="495.44,-36.54 486.92,-30.24 489.65,-40.48 495.44,-36.54"/>
</g>
<!-- &#45;9&#45;&gt;1 -->
<g id="edge59" class="edge">
<title>&#45;9&#45;&gt;1</title>
<path fill="none" stroke="green" stroke-width="0.21" d="M529.1,-84.25C529.1,-74.49 529.1,-57.54 529.1,-43.13"/>
<polygon fill="green" stroke="green" stroke-width="0.21" points="532.6,-42.77 529.1,-32.77 525.6,-42.77 532.6,-42.77"/>
</g>
<!-- &#45;9&#45;&gt;2 -->
<g id="edge49" class="edge">
<title>&#45;9&#45;&gt;2</title>
<path fill="none" stroke="green" stroke-width="0.47" d="M535.35,-84.01C539.42,-79.04 545.08,-72.87 551.1,-68.53 558.79,-62.98 609.29,-40.84 640.12,-27.54"/>
<polygon fill="green" stroke="green" stroke-width="0.47" points="641.56,-30.73 649.36,-23.56 638.79,-24.3 641.56,-30.73"/>
</g>
<!-- &#45;9&#45;&gt;3 -->
<g id="edge21" class="edge">
<title>&#45;9&#45;&gt;3</title>
<path fill="none" stroke="green" stroke-width="0.32" d="M536.76,-83.85C540.96,-79.28 546.27,-73.55 551.1,-68.53 561.66,-57.52 573.69,-45.41 583.41,-35.73"/>
<polygon fill="green" stroke="green" stroke-width="0.32" points="586.01,-38.08 590.64,-28.55 581.08,-33.11 586.01,-38.08"/>
</g>
<!-- &#45;9&#45;&gt;4 -->
<g id="edge66" class="edge">
<title>&#45;9&#45;&gt;4</title>
<path fill="none" stroke="green" stroke-width="0.18" d="M534.75,-84.1C538.74,-78.91 544.54,-72.45 551.1,-68.53 605.49,-35.97 630.55,-56.8 689.1,-32.53 690.32,-32.02 691.56,-31.46 692.79,-30.87"/>
<polygon fill="green" stroke="green" stroke-width="0.18" points="694.83,-33.75 701.97,-25.92 691.51,-27.59 694.83,-33.75"/>
</g>
<!-- &#45;10 -->
<g id="node10" class="node">
<title>&#45;10</title>
<polygon fill="lightgray" stroke="black" points="1150.1,-102.28 1118.1,-102.28 1118.1,-84.28 1150.1,-84.28 1150.1,-102.28"/>
<text text-anchor="middle" x="1134.1" y="-91.08" font-family="Times,serif" font-size="9.00">&#45;10</text>
</g>
<!-- &#45;10&#45;&gt;2 -->
<g id="edge74" class="edge">
<title>&#45;10&#45;&gt;2</title>
<path fill="none" stroke="green" stroke-width="0.75" d="M1126.53,-84.18C1120.9,-78.74 1112.74,-71.96 1104.1,-68.53 932.46,-0.33 866.06,-88.66 690.1,-32.53 688.84,-32.12 687.57,-31.65 686.31,-31.13"/>
<polygon fill="green" stroke="green" stroke-width="0.75" points="687.55,-27.83 677.06,-26.39 684.36,-34.06 687.55,-27.83"/>
</g>
<!-- &#45;10&#45;&gt;3 -->
<g id="edge8" class="edge">
<title>&#45;10&#45;&gt;3</title>
<path fill="none" stroke="red" stroke-width="0.18" d="M1117.8,-87.7C1097.95,-82.3 1063.32,-73.44 1033.1,-68.53 859.53,-40.33 809.85,-74.53 639.1,-32.53 634.77,-31.46 630.29,-29.97 626.01,-28.34"/>
<polygon fill="red" stroke="red" stroke-width="0.18" points="627.1,-25 616.52,-24.4 624.41,-31.47 627.1,-25"/>
</g>
<!-- &#45;10&#45;&gt;4 -->
<g id="edge55" class="edge">
<title>&#45;10&#45;&gt;4</title>
<path fill="none" stroke="green" stroke-width="0.15" d="M1125.99,-83.83C1120.37,-78.53 1112.42,-72.05 1104.1,-68.53 1038.18,-40.63 818.32,-23.99 741.7,-18.92"/>
<polygon fill="green" stroke="green" stroke-width="0.15" points="741.68,-15.41 731.48,-18.26 741.23,-22.4 741.68,-15.41"/>
</g>
<!-- &#45;11 -->
<g id="node11" class="node">
<title>&#45;11</title>
<polygon fill="lightgray" stroke="black" points="592.1,-102.28 560.1,-102.28 560.1,-84.28 592.1,-84.28 592.1,-102.28"/>
<text text-anchor="middle" x="576.1" y="-91.08" font-family="Times,serif" font-size="9.00">&#45;11</text>
</g>
<!-- &#45;11&#45;&gt;0 -->
<g id="edge76" class="edge">
<title>&#45;11&#45;&gt;0</title>
<path fill="none" stroke="green" stroke-width="0.23" d="M568.05,-84.04C563.28,-79.32 557.03,-73.38 551.1,-68.53 534.63,-55.04 514.79,-41.26 499.96,-31.38"/>
<polygon fill="green" stroke="green" stroke-width="0.23" points="501.72,-28.35 491.45,-25.78 497.88,-34.2 501.72,-28.35"/>
</g>
<!-- &#45;11&#45;&gt;1 -->
<g id="edge47" class="edge">
<title>&#45;11&#45;&gt;1</title>
<path fill="none" stroke="red" stroke-width="0.39" d="M571.07,-84.25C564.4,-73.61 552.37,-54.41 542.9,-39.29"/>
<polygon fill="red" stroke="red" stroke-width="0.39" points="545.68,-37.13 537.4,-30.51 539.74,-40.84 545.68,-37.13"/>
</g>
<!-- &#45;11&#45;&gt;2 -->
<g id="edge18" class="edge">
<title>&#45;11&#45;&gt;2</title>
<path fill="none" stroke="red" stroke-width="0.28" d="M584.28,-84.2C589.1,-79.52 595.35,-73.59 601.1,-68.53 614.86,-56.42 630.89,-43.39 643.34,-33.5"/>
<polygon fill="red" stroke="red" stroke-width="0.28" points="645.64,-36.14 651.31,-27.2 641.3,-30.65 645.64,-36.14"/>
</g>
<!-- &#45;11&#45;&gt;3 -->
<g id="edge86" class="edge">
<title>&#45;11&#45;&gt;3</title>
<path fill="none" stroke="green" stroke-width="0.44" d="M578.88,-84.25C582.39,-74.11 588.59,-56.22 593.7,-41.48"/>
<polygon fill="green" stroke="green" stroke-width="0.44" points="597.05,-42.51 597.02,-31.91 590.44,-40.21 597.05,-42.51"/>
</g>
<!-- &#45;11&#45;&gt;4 -->
<g id="edge56" class="edge">
<title>&#45;11&#45;&gt;4</title>
<path fill="none" stroke="red" stroke-width="0.25" d="M583.34,-83.98C588.02,-79 594.46,-72.82 601.1,-68.53 636.58,-45.58 651.23,-51.27 689.1,-32.53 690.26,-31.95 691.44,-31.35 692.62,-30.72"/>
<polygon fill="red" stroke="red" stroke-width="0.25" points="694.53,-33.66 701.54,-25.72 691.1,-27.56 694.53,-33.66"/>
</g>
<!-- &#45;12 -->
<g id="node12" class="node">
<title>&#45;12</title>
<polygon fill="lightgray" stroke="black" points="642.1,-102.28 610.1,-102.28 610.1,-84.28 642.1,-84.28 642.1,-102.28"/>
<text text-anchor="middle" x="626.1" y="-91.08" font-family="Times,serif" font-size="9.00">&#45;12</text>
</g>
<!-- &#45;12&#45;&gt;0 -->
<g id="edge28" class="edge">
<title>&#45;12&#45;&gt;0</title>
<path fill="none" stroke="red" stroke-width="0.22" d="M618.9,-83.9C614.24,-78.89 607.8,-72.71 601.1,-68.53 562.08,-44.2 545.64,-52.24 504.1,-32.53 502.93,-31.97 501.74,-31.38 500.55,-30.77"/>
<polygon fill="red" stroke="red" stroke-width="0.22" points="502.06,-27.6 491.62,-25.8 498.66,-33.72 502.06,-27.6"/>
</g>
<!-- &#45;12&#45;&gt;1 -->
<g id="edge54" class="edge">
<title>&#45;12&#45;&gt;1</title>
<path fill="none" stroke="green" stroke-width="0.67" d="M618.03,-84.06C613.26,-79.34 607.01,-73.4 601.1,-68.53 584.92,-55.19 565.5,-41.49 550.91,-31.61"/>
<polygon fill="green" stroke="green" stroke-width="0.67" points="552.77,-28.65 542.52,-25.99 548.88,-34.46 552.77,-28.65"/>
</g>
<!-- &#45;12&#45;&gt;2 -->
<g id="edge84" class="edge">
<title>&#45;12&#45;&gt;2</title>
<path fill="none" stroke="red" stroke-width="0.26" d="M630.17,-84.25C635.44,-73.83 644.87,-55.22 652.45,-40.25"/>
<polygon fill="red" stroke="red" stroke-width="0.26" points="655.71,-41.57 657.11,-31.07 649.47,-38.4 655.71,-41.57"/>
</g>
<!-- &#45;12&#45;&gt;3 -->
<g id="edge17" class="edge">
<title>&#45;12&#45;&gt;3</title>
<path fill="none" stroke="green" stroke-width="0.34" d="M623.53,-84.25C620.29,-74.11 614.56,-56.22 609.85,-41.48"/>
<polygon fill="green" stroke="green" stroke-width="0.34" points="613.17,-40.37 606.79,-31.91 606.5,-42.5 613.17,-40.37"/>
</g>
<!-- &#45;12&#45;&gt;4 -->
<g id="edge7" class="edge">
<title>&#45;12&#45;&gt;4</title>
<path fill="none" stroke="green" stroke-width="0.41" d="M634.27,-84.18C639.08,-79.5 645.33,-73.57 651.1,-68.53 665.22,-56.21 681.74,-43 694.45,-33.08"/>
<polygon fill="green" stroke="green" stroke-width="0.41" points="696.82,-35.68 702.58,-26.79 692.53,-30.15 696.82,-35.68"/>
</g>
<!-- &#45;13 -->
<g id="node13" class="node">
<title>&#45;13</title>
<polygon fill="lightgray" stroke="black" points="234.1,-102.28 202.1,-102.28 202.1,-84.28 234.1,-84.28 234.1,-102.28"/>
<text text-anchor="middle" x="218.1" y="-91.08" font-family="Times,serif" font-size="9.00">&#45;13</text>
</g>
<!-- &#45;13&#45;&gt;0 -->
<g id="edge72" class="edge">
<title>&#45;13&#45;&gt;0</title>
<path fill="none" stroke="green" stroke-width="0.56" d="M224.69,-84.03C229.3,-78.8 235.9,-72.34 243.1,-68.53 312.3,-31.86 406.22,-21.4 451.51,-18.43"/>
<polygon fill="green" stroke="green" stroke-width="0.56" points="451.9,-21.92 461.68,-17.84 451.5,-14.93 451.9,-21.92"/>
</g>
<!-- &#45;13&#45;&gt;1 -->
<g id="edge43" class="edge">
<title>&#45;13&#45;&gt;1</title>
<path fill="none" stroke="red" stroke-width="0.33" d="M224.59,-83.84C229.17,-78.54 235.76,-72.06 243.1,-68.53 348.21,-17.93 392.9,-70.79 503.1,-32.53 504.35,-32.09 505.61,-31.59 506.86,-31.05"/>
<polygon fill="red" stroke="red" stroke-width="0.33" points="508.84,-33.97 516.09,-26.24 505.61,-27.76 508.84,-33.97"/>
</g>
<!-- &#45;13&#45;&gt;3 -->
<g id="edge5" class="edge">
<title>&#45;13&#45;&gt;3</title>
<path fill="none" stroke="green" stroke-width="0.55" stroke-dasharray="1,5" d="M224.17,-84.25C228.74,-78.85 235.51,-72.08 243.1,-68.53 369.14,-9.58 418.06,-61.75 554.1,-32.53 561.86,-30.86 570.15,-28.46 577.62,-26.05"/>
<polygon fill="green" stroke="green" stroke-width="0.55" points="578.81,-29.34 587.17,-22.83 576.57,-22.71 578.81,-29.34"/>
</g>
<!-- &#45;13&#45;&gt;4 -->
<g id="edge93" class="edge">
<title>&#45;13&#45;&gt;4</title>
<path fill="none" stroke="green" stroke-width="0.43" d="M224.13,-84.17C228.69,-78.73 235.45,-71.95 243.1,-68.53 424.67,12.59 499.45,-92.38 689.1,-32.53 690.36,-32.13 691.63,-31.66 692.89,-31.14"/>
<polygon fill="green" stroke="green" stroke-width="0.43" points="694.84,-34.07 702.15,-26.41 691.65,-27.84 694.84,-34.07"/>
</g>
<!-- &#45;14 -->
<g id="node14" class="node">
<title>&#45;14</title>
<polygon fill="lightgray" stroke="black" points="544.1,-172.02 512.1,-172.02 512.1,-154.02 544.1,-154.02 544.1,-172.02"/>
<text text-anchor="middle" x="528.1" y="-160.82" font-family="Times,serif" font-size="9.00">&#45;14</text>
</g>
<!-- &#45;14&#45;&gt;0 -->
<g id="edge16" class="edge">
<title>&#45;14&#45;&gt;0</title>
<path fill="none" stroke="red" stroke-width="0.23" stroke-dasharray="1,5" d="M511.87,-161.92C427.95,-161.19 45.79,-155.8 11.1,-118.02 -3.78,-101.82 -3.58,-84.91 11.1,-68.53 40.72,-35.48 357.49,-21.57 451.77,-18.15"/>
<polygon fill="red" stroke="red" stroke-width="0.23" points="452.02,-21.64 461.89,-17.79 451.77,-14.64 452.02,-21.64"/>
</g>
<!-- &#45;14&#45;&gt;1 -->
<g id="edge45" class="edge">
<title>&#45;14&#45;&gt;1</title>
<path fill="none" stroke="red" stroke-width="0.55" d="M512.06,-161.34C444.31,-158.27 183.86,-144.79 160.1,-118.02 145.5,-101.57 145.38,-84.87 160.1,-68.53 211.39,-11.58 430.29,-56.47 503.1,-32.53 504.36,-32.11 505.62,-31.63 506.88,-31.1"/>
<polygon fill="red" stroke="red" stroke-width="0.55" points="508.84,-34.03 516.12,-26.34 505.63,-27.8 508.84,-34.03"/>
</g>
<!-- &#45;14&#45;&gt;2 -->
<g id="edge52" class="edge">
<title>&#45;14&#45;&gt;2</title>
<path fill="none" stroke="red" stroke-width="0.52" d="M544.22,-161.88C626.75,-160.99 999.28,-154.92 1033.1,-118.02 1047.96,-101.81 1047.82,-84.87 1033.1,-68.53 981.81,-11.58 762.9,-56.47 690.1,-32.53 688.84,-32.11 687.58,-31.63 686.32,-31.1"/>
<polygon fill="red" stroke="red" stroke-width="0.52" points="687.57,-27.8 677.07,-26.34 684.36,-34.03 687.57,-27.8"/>
</g>
<!-- &#45;14&#45;&gt;3 -->
<g id="edge82" class="edge">
<title>&#45;14&#45;&gt;3</title>
<path fill="none" stroke="green" stroke-width="0.59" d="M544.35,-161.35C613.03,-158.36 877,-145.13 901.1,-118.02 915.71,-101.58 915.56,-85.11 901.1,-68.53 862.47,-24.23 695.83,-47.86 639.1,-32.53 634.8,-31.36 630.33,-29.83 626.05,-28.17"/>
<polygon fill="green" stroke="green" stroke-width="0.59" points="627.14,-24.84 616.56,-24.23 624.46,-31.3 627.14,-24.84"/>
</g>
<!-- &#45;14&#45;&gt;4 -->
<g id="edge94" class="edge">
<title>&#45;14&#45;&gt;4</title>
<path fill="none" stroke="red" stroke-width="0.43" d="M544.35,-162.18C638.95,-162.91 1115.94,-164.3 1159.1,-118.02 1174.1,-101.94 1173.74,-84.95 1159.1,-68.53 1131.16,-37.18 833.06,-22.19 741.61,-18.31"/>
<polygon fill="red" stroke="red" stroke-width="0.43" points="741.66,-14.81 731.52,-17.89 741.37,-21.8 741.66,-14.81"/>
</g>
<!-- 170 -->
<g id="node26" class="node">
<title>170</title>
<ellipse fill="white" stroke="black" cx="45.1" cy="-93.28" rx="25" ry="25"/>
<text text-anchor="middle" x="45.1" y="-91.08" font-family="Times,serif" font-size="9.00">170</text>
</g>
<!-- &#45;14&#45;&gt;170 -->
<g id="edge15" class="edge">
<title>&#45;14&#45;&gt;170</title>
<path fill="none" stroke="green" stroke-width="0.29" d="M511.95,-161.39C442.12,-158.48 166,-145.43 84.1,-118.02 80.58,-116.85 77.05,-115.31 73.63,-113.58"/>
<polygon fill="green" stroke="green" stroke-width="0.29" points="75.33,-110.52 64.89,-108.68 71.9,-116.62 75.33,-110.52"/>
</g>
<!-- &#45;15 -->
<g id="node15" class="node">
<title>&#45;15</title>
<polygon fill="lightgray" stroke="black" points="692.1,-102.28 660.1,-102.28 660.1,-84.28 692.1,-84.28 692.1,-102.28"/>
<text text-anchor="middle" x="676.1" y="-91.08" font-family="Times,serif" font-size="9.00">&#45;15</text>
</g>
<!-- &#45;15&#45;&gt;0 -->
<g id="edge61" class="edge">
<title>&#45;15&#45;&gt;0</title>
<path fill="none" stroke="red" stroke-width="0.27" d="M669.48,-84.09C664.85,-78.89 658.24,-72.43 651.1,-68.53 592.07,-36.28 566.43,-57.82 504.1,-32.53 502.87,-32.03 501.63,-31.48 500.4,-30.9"/>
<polygon fill="red" stroke="red" stroke-width="0.27" points="501.68,-27.61 491.21,-25.96 498.36,-33.78 501.68,-27.61"/>
</g>
<!-- &#45;15&#45;&gt;1 -->
<g id="edge33" class="edge">
<title>&#45;15&#45;&gt;1</title>
<path fill="none" stroke="red" stroke-width="0.35" d="M668.84,-84C664.15,-79.03 657.71,-72.85 651.1,-68.53 620.16,-48.31 579.94,-33.26 554.32,-24.87"/>
<polygon fill="red" stroke="red" stroke-width="0.35" points="555.21,-21.48 544.62,-21.78 553.08,-28.15 555.21,-21.48"/>
</g>
<!-- &#45;15&#45;&gt;2 -->
<g id="edge3" class="edge">
<title>&#45;15&#45;&gt;2</title>
<path fill="none" stroke="red" stroke-width="0.23" d="M674.81,-84.25C673.23,-74.33 670.45,-56.99 668.13,-42.44"/>
<polygon fill="red" stroke="red" stroke-width="0.23" points="671.57,-41.8 666.53,-32.48 664.66,-42.91 671.57,-41.8"/>
</g>
<!-- &#45;15&#45;&gt;3 -->
<g id="edge70" class="edge">
<title>&#45;15&#45;&gt;3</title>
<path fill="none" stroke="green" stroke-width="0.73" d="M668.18,-84.25C656.88,-72.79 635.79,-51.42 620.47,-35.89"/>
<polygon fill="green" stroke="green" stroke-width="0.73" points="622.58,-33.04 613.07,-28.38 617.6,-37.96 622.58,-33.04"/>
</g>
<!-- &#45;15&#45;&gt;4 -->
<g id="edge80" class="edge">
<title>&#45;15&#45;&gt;4</title>
<path fill="none" stroke="red" stroke-width="0.61" d="M680.27,-84.25C685.69,-73.83 695.37,-55.22 703.15,-40.25"/>
<polygon fill="red" stroke="red" stroke-width="0.61" points="706.42,-41.55 707.92,-31.07 700.2,-38.32 706.42,-41.55"/>
</g>
<!-- &#45;16 -->
<g id="node16" class="node">
<title>&#45;16</title>
<polygon fill="lightgray" stroke="black" points="742.1,-102.28 710.1,-102.28 710.1,-84.28 742.1,-84.28 742.1,-102.28"/>
<text text-anchor="middle" x="726.1" y="-91.08" font-family="Times,serif" font-size="9.00">&#45;16</text>
</g>
<!-- &#45;16&#45;&gt;0 -->
<g id="edge10" class="edge">
<title>&#45;16&#45;&gt;0</title>
<path fill="none" stroke="red" stroke-width="0.5" d="M719.55,-83.94C714.96,-78.69 708.36,-72.22 701.1,-68.53 621.75,-28.2 587.53,-63.53 504.1,-32.53 502.86,-32.07 501.61,-31.55 500.36,-30.98"/>
<polygon fill="red" stroke="red" stroke-width="0.5" points="501.63,-27.69 491.15,-26.12 498.36,-33.89 501.63,-27.69"/>
</g>
<!-- &#45;16&#45;&gt;1 -->
<g id="edge39" class="edge">
<title>&#45;16&#45;&gt;1</title>
<path fill="none" stroke="red" stroke-width="0.19" d="M719.42,-84.19C714.77,-79.03 708.16,-72.58 701.1,-68.53 651.33,-39.96 632,-49.22 577.1,-32.53 569.71,-30.28 561.7,-27.76 554.38,-25.44"/>
<polygon fill="red" stroke="red" stroke-width="0.19" points="555.22,-22.03 544.63,-22.31 553.09,-28.7 555.22,-22.03"/>
</g>
<!-- &#45;16&#45;&gt;2 -->
<g id="edge69" class="edge">
<title>&#45;16&#45;&gt;2</title>
<path fill="none" stroke="green" stroke-width="0.26" d="M719.46,-84.25C710.29,-73.15 693.43,-52.75 680.72,-37.37"/>
<polygon fill="green" stroke="green" stroke-width="0.26" points="683.22,-34.91 674.16,-29.43 677.83,-39.37 683.22,-34.91"/>
</g>
<!-- &#45;16&#45;&gt;3 -->
<g id="edge2" class="edge">
<title>&#45;16&#45;&gt;3</title>
<path fill="none" stroke="red" stroke-width="0.24" d="M718.72,-84.18C713.98,-79.28 707.54,-73.11 701.1,-68.53 677.25,-51.55 647.03,-36.74 626.28,-27.46"/>
<polygon fill="red" stroke="red" stroke-width="0.24" points="627.49,-24.17 616.93,-23.36 624.69,-30.58 627.49,-24.17"/>
</g>
<!-- &#45;16&#45;&gt;4 -->
<g id="edge32" class="edge">
<title>&#45;16&#45;&gt;4</title>
<path fill="none" stroke="green" stroke-width="0.13" d="M724.92,-84.25C723.47,-74.33 720.93,-56.99 718.79,-42.44"/>
<polygon fill="green" stroke="green" stroke-width="0.13" points="722.24,-41.87 717.33,-32.48 715.32,-42.88 722.24,-41.87"/>
</g>
<!-- &#45;17 -->
<g id="node17" class="node">
<title>&#45;17</title>
<polygon fill="lightgray" stroke="black" points="980.1,-102.28 948.1,-102.28 948.1,-84.28 980.1,-84.28 980.1,-102.28"/>
<text text-anchor="middle" x="964.1" y="-91.08" font-family="Times,serif" font-size="9.00">&#45;17</text>
</g>
<!-- &#45;17&#45;&gt;0 -->
<g id="edge27" class="edge">
<title>&#45;17&#45;&gt;0</title>
<path fill="none" stroke="green" stroke-width="0.21" d="M947.89,-84.78C935.39,-79.33 917.5,-72.29 901.1,-68.53 728.41,-28.92 672.79,-86.68 504.1,-32.53 502.84,-32.12 501.57,-31.65 500.31,-31.12"/>
<polygon fill="green" stroke="green" stroke-width="0.21" points="501.56,-27.83 491.06,-26.38 498.36,-34.05 501.56,-27.83"/>
</g>
<!-- &#45;17&#45;&gt;2 -->
<g id="edge83" class="edge">
<title>&#45;17&#45;&gt;2</title>
<path fill="none" stroke="red" stroke-width="0.45" d="M955.97,-83.88C950.34,-78.59 942.39,-72.11 934.1,-68.53 833.48,-25.03 793.49,-68.95 690.1,-32.53 688.85,-32.09 687.59,-31.58 686.34,-31.04"/>
<polygon fill="red" stroke="red" stroke-width="0.45" points="687.6,-27.74 677.11,-26.22 684.36,-33.95 687.6,-27.74"/>
</g>
<!-- &#45;17&#45;&gt;3 -->
<g id="edge53" class="edge">
<title>&#45;17&#45;&gt;3</title>
<path fill="none" stroke="green" stroke-width="0.31" d="M956.49,-84.27C950.85,-78.88 942.68,-72.11 934.1,-68.53 812.21,-17.64 766.87,-66.02 639.1,-32.53 634.79,-31.4 630.32,-29.88 626.03,-28.23"/>
<polygon fill="green" stroke="green" stroke-width="0.31" points="627.13,-24.89 616.55,-24.29 624.44,-31.36 627.13,-24.89"/>
</g>
<!-- &#45;17&#45;&gt;4 -->
<g id="edge6" class="edge">
<title>&#45;17&#45;&gt;4</title>
<path fill="none" stroke="green" stroke-width="0.17" d="M955.87,-84.1C950.19,-78.91 942.23,-72.45 934.1,-68.53 869.08,-37.14 783.73,-24.35 741.34,-19.67"/>
<polygon fill="green" stroke="green" stroke-width="0.17" points="741.6,-16.17 731.29,-18.62 740.88,-23.14 741.6,-16.17"/>
</g>
<!-- &#45;18 -->
<g id="node18" class="node">
<title>&#45;18</title>
<polygon fill="lightgray" stroke="black" points="792.1,-102.28 760.1,-102.28 760.1,-84.28 792.1,-84.28 792.1,-102.28"/>
<text text-anchor="middle" x="776.1" y="-91.08" font-family="Times,serif" font-size="9.00">&#45;18</text>
</g>
<!-- &#45;18&#45;&gt;0 -->
<g id="edge71" class="edge">
<title>&#45;18&#45;&gt;0</title>
<path fill="none" stroke="green" stroke-width="0.4" d="M769.6,-83.86C765.02,-78.56 758.42,-72.08 751.1,-68.53 651.31,-20.05 608.77,-69.29 504.1,-32.53 502.85,-32.09 501.59,-31.59 500.34,-31.04"/>
<polygon fill="green" stroke="green" stroke-width="0.4" points="501.6,-27.75 491.11,-26.22 498.36,-33.95 501.6,-27.75"/>
</g>
<!-- &#45;18&#45;&gt;1 -->
<g id="edge4" class="edge">
<title>&#45;18&#45;&gt;1</title>
<path fill="none" stroke="red" stroke-width="0.2" d="M769.52,-84C764.92,-78.77 758.31,-72.3 751.1,-68.53 681.12,-31.93 653.5,-52.52 577.1,-32.53 569.62,-30.57 561.59,-28.15 554.28,-25.81"/>
<polygon fill="red" stroke="red" stroke-width="0.2" points="555.14,-22.41 544.54,-22.62 552.96,-29.06 555.14,-22.41"/>
</g>
<!-- &#45;18&#45;&gt;2 -->
<g id="edge11" class="edge">
<title>&#45;18&#45;&gt;2</title>
<path fill="none" stroke="red" stroke-width="0.24" d="M768.19,-83.86C763.47,-79.08 757.22,-73.14 751.1,-68.53 750.35,-67.97 712.18,-45.52 686.66,-30.51"/>
<polygon fill="red" stroke="red" stroke-width="0.24" points="688.31,-27.43 677.92,-25.38 684.76,-33.46 688.31,-27.43"/>
</g>
<!-- &#45;18&#45;&gt;3 -->
<g id="edge42" class="edge">
<title>&#45;18&#45;&gt;3</title>
<path fill="none" stroke="green" stroke-width="0.27" d="M769.39,-84.25C764.72,-79.12 758.1,-72.68 751.1,-68.53 706.13,-41.85 688.19,-50.51 639.1,-32.53 634.91,-30.99 630.51,-29.27 626.25,-27.55"/>
<polygon fill="green" stroke="green" stroke-width="0.27" points="627.33,-24.21 616.76,-23.63 624.66,-30.68 627.33,-24.21"/>
</g>
<!-- &#45;18&#45;&gt;4 -->
<g id="edge91" class="edge">
<title>&#45;18&#45;&gt;4</title>
<path fill="none" stroke="red" stroke-width="0.38" d="M769.57,-84.25C760.55,-73.15 743.96,-52.75 731.45,-37.37"/>
<polygon fill="red" stroke="red" stroke-width="0.38" points="734.02,-34.98 724.99,-29.43 728.59,-39.4 734.02,-34.98"/>
</g>
<!-- &#45;19 -->
<g id="node19" class="node">
<title>&#45;19</title>
<polygon fill="lightgray" stroke="black" points="842.1,-102.28 810.1,-102.28 810.1,-84.28 842.1,-84.28 842.1,-102.28"/>
<text text-anchor="middle" x="826.1" y="-91.08" font-family="Times,serif" font-size="9.00">&#45;19</text>
</g>
<!-- &#45;19&#45;&gt;0 -->
<g id="edge14" class="edge">
<title>&#45;19&#45;&gt;0</title>
<path fill="none" stroke="green" stroke-width="0.19" d="M820.02,-84.27C815.45,-78.87 808.68,-72.1 801.1,-68.53 680.81,-11.87 630.07,-75.08 504.1,-32.53 502.84,-32.1 501.58,-31.61 500.33,-31.08"/>
<polygon fill="green" stroke="green" stroke-width="0.19" points="501.58,-27.78 491.09,-26.29 498.36,-34 501.58,-27.78"/>
</g>
<!-- &#45;19&#45;&gt;1 -->
<g id="edge81" class="edge">
<title>&#45;19&#45;&gt;1</title>
<path fill="none" stroke="red" stroke-width="0.12" d="M819.58,-83.89C815,-78.61 808.4,-72.14 801.1,-68.53 710.73,-23.8 675.19,-55.87 577.1,-32.53 569.38,-30.69 561.1,-28.24 553.63,-25.84"/>
<polygon fill="red" stroke="red" stroke-width="0.12" points="554.66,-22.49 544.07,-22.66 552.45,-29.13 554.66,-22.49"/>
</g>
<!-- &#45;19&#45;&gt;2 -->
<g id="edge51" class="edge">
<title>&#45;19&#45;&gt;2</title>
<path fill="none" stroke="green" stroke-width="0.55" d="M819.38,-84.26C814.71,-79.13 808.1,-72.69 801.1,-68.53 756.53,-42.01 737.41,-53.78 690.1,-32.53 688.92,-32 687.72,-31.43 686.52,-30.83"/>
<polygon fill="green" stroke="green" stroke-width="0.55" points="688.02,-27.65 677.57,-25.92 684.65,-33.79 688.02,-27.65"/>
</g>
<!-- &#45;19&#45;&gt;3 -->
<g id="edge26" class="edge">
<title>&#45;19&#45;&gt;3</title>
<path fill="none" stroke="green" stroke-width="0.46" d="M819.51,-84.04C814.89,-78.82 808.29,-72.35 801.1,-68.53 735.99,-33.87 709.45,-54.67 639.1,-32.53 634.85,-31.19 630.41,-29.56 626.13,-27.88"/>
<polygon fill="green" stroke="green" stroke-width="0.46" points="627.23,-24.54 616.65,-23.95 624.55,-31.01 627.23,-24.54"/>
</g>
<!-- &#45;19&#45;&gt;4 -->
<g id="edge92" class="edge">
<title>&#45;19&#45;&gt;4</title>
<path fill="none" stroke="green" stroke-width="0.85" d="M818.18,-83.87C813.46,-79.09 807.21,-73.16 801.1,-68.53 781.11,-53.38 756.34,-39.02 738.52,-29.38"/>
<polygon fill="green" stroke="green" stroke-width="0.85" points="739.88,-26.14 729.41,-24.53 736.59,-32.32 739.88,-26.14"/>
</g>
<!-- &#45;20 -->
<g id="node20" class="node">
<title>&#45;20</title>
<polygon fill="lightgray" stroke="black" points="892.1,-102.28 860.1,-102.28 860.1,-84.28 892.1,-84.28 892.1,-102.28"/>
<text text-anchor="middle" x="876.1" y="-91.08" font-family="Times,serif" font-size="9.00">&#45;20</text>
</g>
<!-- &#45;20&#45;&gt;0 -->
<g id="edge60" class="edge">
<title>&#45;20&#45;&gt;0</title>
<path fill="none" stroke="green" stroke-width="0.34" d="M870.04,-84.23C865.47,-78.81 858.71,-72.03 851.1,-68.53 710.26,-3.67 651.42,-80.88 504.1,-32.53 502.84,-32.11 501.58,-31.63 500.32,-31.1"/>
<polygon fill="green" stroke="green" stroke-width="0.34" points="501.56,-27.81 491.07,-26.34 498.36,-34.03 501.56,-27.81"/>
</g>
<!-- &#45;20&#45;&gt;1 -->
<g id="edge90" class="edge">
<title>&#45;20&#45;&gt;1</title>
<path fill="none" stroke="green" stroke-width="0.25" d="M869.61,-83.82C865.04,-78.52 858.45,-72.03 851.1,-68.53 740.25,-15.64 696.98,-59.24 577.1,-32.53 569.35,-30.8 561.07,-28.38 553.6,-25.97"/>
<polygon fill="green" stroke="green" stroke-width="0.25" points="554.64,-22.63 544.04,-22.77 552.41,-29.27 554.64,-22.63"/>
</g>
<!-- &#45;20&#45;&gt;2 -->
<g id="edge25" class="edge">
<title>&#45;20&#45;&gt;2</title>
<path fill="none" stroke="red" stroke-width="0.23" stroke-dasharray="1,5" d="M869.5,-84.04C864.89,-78.82 858.28,-72.36 851.1,-68.53 786.4,-34.03 758.31,-59.41 690.1,-32.53 688.87,-32.04 687.62,-31.5 686.38,-30.93"/>
<polygon fill="red" stroke="red" stroke-width="0.23" points="687.66,-27.64 677.19,-26.02 684.36,-33.81 687.66,-27.64"/>
</g>
<!-- &#45;20&#45;&gt;4 -->
<g id="edge40" class="edge">
<title>&#45;20&#45;&gt;4</title>
<path fill="none" stroke="green" stroke-width="0.24" d="M868.9,-83.91C864.23,-78.91 857.79,-72.73 851.1,-68.53 815.65,-46.3 769.07,-31.36 740.64,-23.59"/>
<polygon fill="green" stroke="green" stroke-width="0.24" points="741.26,-20.13 730.7,-20.96 739.48,-26.9 741.26,-20.13"/>
</g>
<!-- 170&#45;&gt;0 -->
<g id="edge89" class="edge">
<title>170&#45;&gt;0</title>
<path fill="none" stroke="red" stroke-width="0.41" d="M64.94,-78.01C70.85,-74.37 77.52,-70.84 84.1,-68.53 216.35,-22.01 386.95,-17.04 451.65,-16.97"/>
<polygon fill="red" stroke="red" stroke-width="0.41" points="451.77,-20.47 461.78,-17 451.79,-13.47 451.77,-20.47"/>
</g>
<!-- 145&#45;&gt;4 -->
<g id="edge65" class="edge">
<title>145&#45;&gt;4</title>
<path fill="none" stroke="red" stroke-width="0.42" d="M1249.3,-77.88C1243.39,-74.24 1236.71,-70.74 1230.1,-68.53 1137.89,-37.65 833.44,-22.34 741.57,-18.35"/>
<polygon fill="red" stroke="red" stroke-width="0.42" points="741.59,-14.84 731.45,-17.91 741.29,-21.84 741.59,-14.84"/>
</g>
</g>
</svg>
