<?xml version="1.0" encoding="utf-8" standalone="no"?>
<!DOCTYPE svg PUBLIC "-//W3C//DTD SVG 1.1//EN"
  "http://www.w3.org/Graphics/SVG/1.1/DTD/svg11.dtd">
<svg height="345.6pt" version="1.1" viewBox="0 0 460.8 345.6" width="460.8pt" xmlns="http://www.w3.org/2000/svg" xmlns:xlink="http://www.w3.org/1999/xlink">
 <metadata>
  <rdf:RDF xmlns:cc="http://creativecommons.org/ns#" xmlns:dc="http://purl.org/dc/elements/1.1/" xmlns:rdf="http://www.w3.org/1999/02/22-rdf-syntax-ns#">
   <cc:Work>
    <dc:type rdf:resource="http://purl.org/dc/dcmitype/StillImage"/>
    <dc:date>2021-10-15T22:39:42.117276</dc:date>
    <dc:format>image/svg+xml</dc:format>
    <dc:creator>
     <cc:Agent>
      <dc:title>Matplotlib v3.4.3, https://matplotlib.org/</dc:title>
     </cc:Agent>
    </dc:creator>
   </cc:Work>
  </rdf:RDF>
 </metadata>
 <defs>
  <style type="text/css">*{stroke-linecap:butt;stroke-linejoin:round;}</style>
 </defs>
 <g id="figure_1">
  <g id="patch_1">
   <path d="M 0 345.6 
L 460.8 345.6 
L 460.8 0 
L 0 0 
z
" style="fill:#ffffff;"/>
  </g>
  <g id="axes_1">
   <g id="patch_2">
    <path d="M 57.6 307.584 
L 414.72 307.584 
L 414.72 41.472 
L 57.6 41.472 
z
" style="fill:#ffffff;"/>
   </g>
   <g id="PolyCollection_1">
    <path clip-path="url(#p3a71f8c07b)" d="M 73.832727 245.419472 
L 73.832727 307.584 
L 80.45833 307.584 
L 87.083933 307.584 
L 93.709536 307.584 
L 100.335139 307.584 
L 106.960742 307.584 
L 113.586345 307.584 
L 120.211948 307.584 
L 126.837551 307.584 
L 133.463154 307.584 
L 140.088757 307.584 
L 146.71436 307.584 
L 153.339963 307.584 
L 159.965566 307.584 
L 166.591169 307.584 
L 173.216772 307.584 
L 179.842375 307.584 
L 186.467978 307.584 
L 193.093581 307.584 
L 199.719184 307.584 
L 206.344787 307.584 
L 212.97039 307.584 
L 219.595993 307.584 
L 226.221596 307.584 
L 232.847199 307.584 
L 239.472801 307.584 
L 246.098404 307.584 
L 252.724007 307.584 
L 259.34961 307.584 
L 265.975213 307.584 
L 272.600816 307.584 
L 279.226419 307.584 
L 285.852022 307.584 
L 292.477625 307.584 
L 299.103228 307.584 
L 305.728831 307.584 
L 312.354434 307.584 
L 318.980037 307.584 
L 325.60564 307.584 
L 332.231243 307.584 
L 338.856846 307.584 
L 345.482449 307.584 
L 352.108052 307.584 
L 358.733655 307.584 
L 365.359258 307.584 
L 371.984861 307.584 
L 378.610464 307.584 
L 385.236067 307.584 
L 391.86167 307.584 
L 398.487273 307.584 
L 398.487273 259.765132 
L 398.487273 259.765132 
L 391.86167 254.983245 
L 385.236067 259.765132 
L 378.610464 254.983245 
L 371.984861 259.765132 
L 365.359258 250.201358 
L 358.733655 259.765132 
L 352.108052 250.201358 
L 345.482449 254.983245 
L 338.856846 250.201358 
L 332.231243 250.201358 
L 325.60564 254.983245 
L 318.980037 250.201358 
L 312.354434 250.201358 
L 305.728831 254.983245 
L 299.103228 254.983245 
L 292.477625 259.765132 
L 285.852022 250.201358 
L 279.226419 250.201358 
L 272.600816 254.983245 
L 265.975213 254.983245 
L 259.34961 250.201358 
L 252.724007 259.765132 
L 246.098404 250.201358 
L 239.472801 245.419472 
L 232.847199 245.419472 
L 226.221596 250.201358 
L 219.595993 254.983245 
L 212.97039 254.983245 
L 206.344787 259.765132 
L 199.719184 259.765132 
L 193.093581 254.983245 
L 186.467978 259.765132 
L 179.842375 254.983245 
L 173.216772 259.765132 
L 166.591169 264.547019 
L 159.965566 254.983245 
L 153.339963 259.765132 
L 146.71436 259.765132 
L 140.088757 259.765132 
L 133.463154 264.547019 
L 126.837551 264.547019 
L 120.211948 269.328906 
L 113.586345 259.765132 
L 106.960742 269.328906 
L 100.335139 269.328906 
L 93.709536 269.328906 
L 87.083933 302.802113 
L 80.45833 274.110792 
L 73.832727 245.419472 
z
" style="fill:#1f77b4;"/>
   </g>
   <g id="PolyCollection_2">
    <path clip-path="url(#p3a71f8c07b)" d="M 73.832727 216.728151 
L 73.832727 245.419472 
L 80.45833 274.110792 
L 87.083933 302.802113 
L 93.709536 269.328906 
L 100.335139 269.328906 
L 106.960742 269.328906 
L 113.586345 259.765132 
L 120.211948 269.328906 
L 126.837551 264.547019 
L 133.463154 264.547019 
L 140.088757 259.765132 
L 146.71436 259.765132 
L 153.339963 259.765132 
L 159.965566 254.983245 
L 166.591169 264.547019 
L 173.216772 259.765132 
L 179.842375 254.983245 
L 186.467978 259.765132 
L 193.093581 254.983245 
L 199.719184 259.765132 
L 206.344787 259.765132 
L 212.97039 254.983245 
L 219.595993 254.983245 
L 226.221596 250.201358 
L 232.847199 245.419472 
L 239.472801 245.419472 
L 246.098404 250.201358 
L 252.724007 259.765132 
L 259.34961 250.201358 
L 265.975213 254.983245 
L 272.600816 254.983245 
L 279.226419 250.201358 
L 285.852022 250.201358 
L 292.477625 259.765132 
L 299.103228 254.983245 
L 305.728831 254.983245 
L 312.354434 250.201358 
L 318.980037 250.201358 
L 325.60564 254.983245 
L 332.231243 250.201358 
L 338.856846 250.201358 
L 345.482449 254.983245 
L 352.108052 250.201358 
L 358.733655 259.765132 
L 365.359258 250.201358 
L 371.984861 259.765132 
L 378.610464 254.983245 
L 385.236067 259.765132 
L 391.86167 254.983245 
L 398.487273 259.765132 
L 398.487273 259.765132 
L 398.487273 259.765132 
L 391.86167 254.983245 
L 385.236067 259.765132 
L 378.610464 254.983245 
L 371.984861 259.765132 
L 365.359258 250.201358 
L 358.733655 259.765132 
L 352.108052 250.201358 
L 345.482449 254.983245 
L 338.856846 250.201358 
L 332.231243 250.201358 
L 325.60564 254.983245 
L 318.980037 250.201358 
L 312.354434 250.201358 
L 305.728831 254.983245 
L 299.103228 254.983245 
L 292.477625 259.765132 
L 285.852022 250.201358 
L 279.226419 250.201358 
L 272.600816 254.983245 
L 265.975213 254.983245 
L 259.34961 250.201358 
L 252.724007 259.765132 
L 246.098404 250.201358 
L 239.472801 245.419472 
L 232.847199 245.419472 
L 226.221596 250.201358 
L 219.595993 254.983245 
L 212.97039 254.983245 
L 206.344787 259.765132 
L 199.719184 259.765132 
L 193.093581 254.983245 
L 186.467978 259.765132 
L 179.842375 254.983245 
L 173.216772 245.419472 
L 166.591169 250.201358 
L 159.965566 240.637585 
L 153.339963 245.419472 
L 146.71436 245.419472 
L 140.088757 245.419472 
L 133.463154 250.201358 
L 126.837551 250.201358 
L 120.211948 254.983245 
L 113.586345 245.419472 
L 106.960742 254.983245 
L 100.335139 254.983245 
L 93.709536 259.765132 
L 87.083933 293.23834 
L 80.45833 264.547019 
L 73.832727 216.728151 
z
" style="fill:#ff7f0e;"/>
   </g>
   <g id="PolyCollection_3">
    <path clip-path="url(#p3a71f8c07b)" d="M 73.832727 202.382491 
L 73.832727 216.728151 
L 80.45833 264.547019 
L 87.083933 293.23834 
L 93.709536 259.765132 
L 100.335139 254.983245 
L 106.960742 254.983245 
L 113.586345 245.419472 
L 120.211948 254.983245 
L 126.837551 250.201358 
L 133.463154 250.201358 
L 140.088757 245.419472 
L 146.71436 245.419472 
L 153.339963 245.419472 
L 159.965566 240.637585 
L 166.591169 250.201358 
L 173.216772 245.419472 
L 179.842375 254.983245 
L 186.467978 259.765132 
L 193.093581 254.983245 
L 199.719184 259.765132 
L 206.344787 259.765132 
L 212.97039 254.983245 
L 219.595993 254.983245 
L 226.221596 250.201358 
L 232.847199 245.419472 
L 239.472801 245.419472 
L 246.098404 250.201358 
L 252.724007 259.765132 
L 259.34961 250.201358 
L 265.975213 254.983245 
L 272.600816 254.983245 
L 279.226419 250.201358 
L 285.852022 250.201358 
L 292.477625 259.765132 
L 299.103228 254.983245 
L 305.728831 254.983245 
L 312.354434 250.201358 
L 318.980037 250.201358 
L 325.60564 254.983245 
L 332.231243 250.201358 
L 338.856846 250.201358 
L 345.482449 254.983245 
L 352.108052 250.201358 
L 358.733655 259.765132 
L 365.359258 250.201358 
L 371.984861 259.765132 
L 378.610464 254.983245 
L 385.236067 259.765132 
L 391.86167 254.983245 
L 398.487273 259.765132 
L 398.487273 202.382491 
L 398.487273 202.382491 
L 391.86167 188.03683 
L 385.236067 202.382491 
L 378.610464 197.600604 
L 371.984861 197.600604 
L 365.359258 192.818717 
L 358.733655 197.600604 
L 352.108052 192.818717 
L 345.482449 188.03683 
L 338.856846 192.818717 
L 332.231243 192.818717 
L 325.60564 192.818717 
L 318.980037 197.600604 
L 312.354434 197.600604 
L 305.728831 197.600604 
L 299.103228 197.600604 
L 292.477625 197.600604 
L 285.852022 192.818717 
L 279.226419 192.818717 
L 272.600816 192.818717 
L 265.975213 192.818717 
L 259.34961 192.818717 
L 252.724007 202.382491 
L 246.098404 197.600604 
L 239.472801 202.382491 
L 232.847199 197.600604 
L 226.221596 197.600604 
L 219.595993 197.600604 
L 212.97039 197.600604 
L 206.344787 207.164377 
L 199.719184 197.600604 
L 193.093581 197.600604 
L 186.467978 202.382491 
L 179.842375 202.382491 
L 173.216772 207.164377 
L 166.591169 211.946264 
L 159.965566 207.164377 
L 153.339963 197.600604 
L 146.71436 197.600604 
L 140.088757 188.03683 
L 133.463154 197.600604 
L 126.837551 197.600604 
L 120.211948 202.382491 
L 113.586345 192.818717 
L 106.960742 197.600604 
L 100.335139 188.03683 
L 93.709536 173.69117 
L 87.083933 192.818717 
L 80.45833 221.510038 
L 73.832727 202.382491 
z
" style="fill:#2ca02c;"/>
   </g>
   <g id="PolyCollection_4">
    <path clip-path="url(#p3a71f8c07b)" d="M 73.832727 178.473057 
L 73.832727 202.382491 
L 80.45833 221.510038 
L 87.083933 192.818717 
L 93.709536 173.69117 
L 100.335139 188.03683 
L 106.960742 197.600604 
L 113.586345 192.818717 
L 120.211948 202.382491 
L 126.837551 197.600604 
L 133.463154 197.600604 
L 140.088757 188.03683 
L 146.71436 197.600604 
L 153.339963 197.600604 
L 159.965566 207.164377 
L 166.591169 211.946264 
L 173.216772 207.164377 
L 179.842375 202.382491 
L 186.467978 202.382491 
L 193.093581 197.600604 
L 199.719184 197.600604 
L 206.344787 207.164377 
L 212.97039 197.600604 
L 219.595993 197.600604 
L 226.221596 197.600604 
L 232.847199 197.600604 
L 239.472801 202.382491 
L 246.098404 197.600604 
L 252.724007 202.382491 
L 259.34961 192.818717 
L 265.975213 192.818717 
L 272.600816 192.818717 
L 279.226419 192.818717 
L 285.852022 192.818717 
L 292.477625 197.600604 
L 299.103228 197.600604 
L 305.728831 197.600604 
L 312.354434 197.600604 
L 318.980037 197.600604 
L 325.60564 192.818717 
L 332.231243 192.818717 
L 338.856846 192.818717 
L 345.482449 188.03683 
L 352.108052 192.818717 
L 358.733655 197.600604 
L 365.359258 192.818717 
L 371.984861 197.600604 
L 378.610464 197.600604 
L 385.236067 202.382491 
L 391.86167 188.03683 
L 398.487273 202.382491 
L 398.487273 188.03683 
L 398.487273 188.03683 
L 391.86167 173.69117 
L 385.236067 188.03683 
L 378.610464 183.254943 
L 371.984861 183.254943 
L 365.359258 178.473057 
L 358.733655 183.254943 
L 352.108052 178.473057 
L 345.482449 173.69117 
L 338.856846 178.473057 
L 332.231243 178.473057 
L 325.60564 178.473057 
L 318.980037 183.254943 
L 312.354434 183.254943 
L 305.728831 183.254943 
L 299.103228 183.254943 
L 292.477625 183.254943 
L 285.852022 178.473057 
L 279.226419 178.473057 
L 272.600816 178.473057 
L 265.975213 178.473057 
L 259.34961 178.473057 
L 252.724007 188.03683 
L 246.098404 183.254943 
L 239.472801 188.03683 
L 232.847199 183.254943 
L 226.221596 183.254943 
L 219.595993 183.254943 
L 212.97039 183.254943 
L 206.344787 192.818717 
L 199.719184 183.254943 
L 193.093581 183.254943 
L 186.467978 188.03683 
L 179.842375 188.03683 
L 173.216772 192.818717 
L 166.591169 197.600604 
L 159.965566 192.818717 
L 153.339963 183.254943 
L 146.71436 188.03683 
L 140.088757 173.69117 
L 133.463154 183.254943 
L 126.837551 183.254943 
L 120.211948 188.03683 
L 113.586345 178.473057 
L 106.960742 183.254943 
L 100.335139 173.69117 
L 93.709536 164.127396 
L 87.083933 183.254943 
L 80.45833 207.164377 
L 73.832727 178.473057 
z
" style="fill:#d62728;"/>
   </g>
   <g id="PolyCollection_5">
    <path clip-path="url(#p3a71f8c07b)" d="M 73.832727 130.654189 
L 73.832727 178.473057 
L 80.45833 207.164377 
L 87.083933 183.254943 
L 93.709536 164.127396 
L 100.335139 173.69117 
L 106.960742 183.254943 
L 113.586345 178.473057 
L 120.211948 188.03683 
L 126.837551 183.254943 
L 133.463154 183.254943 
L 140.088757 173.69117 
L 146.71436 188.03683 
L 153.339963 183.254943 
L 159.965566 192.818717 
L 166.591169 197.600604 
L 173.216772 192.818717 
L 179.842375 188.03683 
L 186.467978 188.03683 
L 193.093581 183.254943 
L 199.719184 183.254943 
L 206.344787 192.818717 
L 212.97039 183.254943 
L 219.595993 183.254943 
L 226.221596 183.254943 
L 232.847199 183.254943 
L 239.472801 188.03683 
L 246.098404 183.254943 
L 252.724007 188.03683 
L 259.34961 178.473057 
L 265.975213 178.473057 
L 272.600816 178.473057 
L 279.226419 178.473057 
L 285.852022 178.473057 
L 292.477625 183.254943 
L 299.103228 183.254943 
L 305.728831 183.254943 
L 312.354434 183.254943 
L 318.980037 183.254943 
L 325.60564 178.473057 
L 332.231243 178.473057 
L 338.856846 178.473057 
L 345.482449 173.69117 
L 352.108052 178.473057 
L 358.733655 183.254943 
L 365.359258 178.473057 
L 371.984861 183.254943 
L 378.610464 183.254943 
L 385.236067 188.03683 
L 391.86167 173.69117 
L 398.487273 188.03683 
L 398.487273 135.436075 
L 398.487273 135.436075 
L 391.86167 130.654189 
L 385.236067 140.217962 
L 378.610464 130.654189 
L 371.984861 135.436075 
L 365.359258 135.436075 
L 358.733655 135.436075 
L 352.108052 130.654189 
L 345.482449 121.090415 
L 338.856846 130.654189 
L 332.231243 135.436075 
L 325.60564 140.217962 
L 318.980037 140.217962 
L 312.354434 140.217962 
L 305.728831 135.436075 
L 299.103228 135.436075 
L 292.477625 144.999849 
L 285.852022 140.217962 
L 279.226419 130.654189 
L 272.600816 140.217962 
L 265.975213 130.654189 
L 259.34961 135.436075 
L 252.724007 135.436075 
L 246.098404 140.217962 
L 239.472801 140.217962 
L 232.847199 130.654189 
L 226.221596 135.436075 
L 219.595993 140.217962 
L 212.97039 130.654189 
L 206.344787 144.999849 
L 199.719184 135.436075 
L 193.093581 144.999849 
L 186.467978 140.217962 
L 179.842375 135.436075 
L 173.216772 144.999849 
L 166.591169 154.563623 
L 159.965566 149.781736 
L 153.339963 140.217962 
L 146.71436 135.436075 
L 140.088757 135.436075 
L 133.463154 130.654189 
L 126.837551 130.654189 
L 120.211948 135.436075 
L 113.586345 130.654189 
L 106.960742 135.436075 
L 100.335139 125.872302 
L 93.709536 130.654189 
L 87.083933 140.217962 
L 80.45833 144.999849 
L 73.832727 130.654189 
z
" style="fill:#9467bd;"/>
   </g>
   <g id="PolyCollection_6">
    <path clip-path="url(#p3a71f8c07b)" d="M 73.832727 82.835321 
L 73.832727 130.654189 
L 80.45833 144.999849 
L 87.083933 140.217962 
L 93.709536 130.654189 
L 100.335139 125.872302 
L 106.960742 135.436075 
L 113.586345 130.654189 
L 120.211948 135.436075 
L 126.837551 130.654189 
L 133.463154 130.654189 
L 140.088757 135.436075 
L 146.71436 135.436075 
L 153.339963 140.217962 
L 159.965566 149.781736 
L 166.591169 154.563623 
L 173.216772 144.999849 
L 179.842375 135.436075 
L 186.467978 140.217962 
L 193.093581 144.999849 
L 199.719184 135.436075 
L 206.344787 144.999849 
L 212.97039 130.654189 
L 219.595993 140.217962 
L 226.221596 135.436075 
L 232.847199 130.654189 
L 239.472801 140.217962 
L 246.098404 140.217962 
L 252.724007 135.436075 
L 259.34961 135.436075 
L 265.975213 130.654189 
L 272.600816 140.217962 
L 279.226419 130.654189 
L 285.852022 140.217962 
L 292.477625 144.999849 
L 299.103228 135.436075 
L 305.728831 135.436075 
L 312.354434 140.217962 
L 318.980037 140.217962 
L 325.60564 140.217962 
L 332.231243 135.436075 
L 338.856846 130.654189 
L 345.482449 121.090415 
L 352.108052 130.654189 
L 358.733655 135.436075 
L 365.359258 135.436075 
L 371.984861 135.436075 
L 378.610464 130.654189 
L 385.236067 140.217962 
L 391.86167 130.654189 
L 398.487273 135.436075 
L 398.487273 78.053434 
L 398.487273 78.053434 
L 391.86167 78.053434 
L 385.236067 82.835321 
L 378.610464 78.053434 
L 371.984861 87.617208 
L 365.359258 78.053434 
L 358.733655 82.835321 
L 352.108052 78.053434 
L 345.482449 78.053434 
L 338.856846 82.835321 
L 332.231243 78.053434 
L 325.60564 78.053434 
L 318.980037 82.835321 
L 312.354434 82.835321 
L 305.728831 78.053434 
L 299.103228 78.053434 
L 292.477625 87.617208 
L 285.852022 82.835321 
L 279.226419 73.271547 
L 272.600816 87.617208 
L 265.975213 78.053434 
L 259.34961 87.617208 
L 252.724007 78.053434 
L 246.098404 78.053434 
L 239.472801 82.835321 
L 232.847199 78.053434 
L 226.221596 78.053434 
L 219.595993 87.617208 
L 212.97039 78.053434 
L 206.344787 87.617208 
L 199.719184 78.053434 
L 193.093581 82.835321 
L 186.467978 78.053434 
L 179.842375 78.053434 
L 173.216772 87.617208 
L 166.591169 92.399094 
L 159.965566 92.399094 
L 153.339963 87.617208 
L 146.71436 87.617208 
L 140.088757 87.617208 
L 133.463154 92.399094 
L 126.837551 82.835321 
L 120.211948 87.617208 
L 113.586345 87.617208 
L 106.960742 92.399094 
L 100.335139 87.617208 
L 93.709536 92.399094 
L 87.083933 97.180981 
L 80.45833 92.399094 
L 73.832727 82.835321 
z
" style="fill:#8c564b;"/>
   </g>
   <g id="PolyCollection_7">
    <path clip-path="url(#p3a71f8c07b)" d="M 73.832727 73.271547 
L 73.832727 82.835321 
L 80.45833 92.399094 
L 87.083933 97.180981 
L 93.709536 92.399094 
L 100.335139 87.617208 
L 106.960742 92.399094 
L 113.586345 87.617208 
L 120.211948 87.617208 
L 126.837551 82.835321 
L 133.463154 92.399094 
L 140.088757 87.617208 
L 146.71436 87.617208 
L 153.339963 87.617208 
L 159.965566 92.399094 
L 166.591169 92.399094 
L 173.216772 87.617208 
L 179.842375 78.053434 
L 186.467978 78.053434 
L 193.093581 82.835321 
L 199.719184 78.053434 
L 206.344787 87.617208 
L 212.97039 78.053434 
L 219.595993 87.617208 
L 226.221596 78.053434 
L 232.847199 78.053434 
L 239.472801 82.835321 
L 246.098404 78.053434 
L 252.724007 78.053434 
L 259.34961 87.617208 
L 265.975213 78.053434 
L 272.600816 87.617208 
L 279.226419 73.271547 
L 285.852022 82.835321 
L 292.477625 87.617208 
L 299.103228 78.053434 
L 305.728831 78.053434 
L 312.354434 82.835321 
L 318.980037 82.835321 
L 325.60564 78.053434 
L 332.231243 78.053434 
L 338.856846 82.835321 
L 345.482449 78.053434 
L 352.108052 78.053434 
L 358.733655 82.835321 
L 365.359258 78.053434 
L 371.984861 87.617208 
L 378.610464 78.053434 
L 385.236067 82.835321 
L 391.86167 78.053434 
L 398.487273 78.053434 
L 398.487273 78.053434 
L 398.487273 78.053434 
L 391.86167 78.053434 
L 385.236067 82.835321 
L 378.610464 78.053434 
L 371.984861 87.617208 
L 365.359258 78.053434 
L 358.733655 82.835321 
L 352.108052 78.053434 
L 345.482449 78.053434 
L 338.856846 82.835321 
L 332.231243 78.053434 
L 325.60564 78.053434 
L 318.980037 82.835321 
L 312.354434 82.835321 
L 305.728831 78.053434 
L 299.103228 78.053434 
L 292.477625 87.617208 
L 285.852022 82.835321 
L 279.226419 73.271547 
L 272.600816 87.617208 
L 265.975213 78.053434 
L 259.34961 87.617208 
L 252.724007 78.053434 
L 246.098404 78.053434 
L 239.472801 82.835321 
L 232.847199 78.053434 
L 226.221596 78.053434 
L 219.595993 87.617208 
L 212.97039 78.053434 
L 206.344787 87.617208 
L 199.719184 78.053434 
L 193.093581 82.835321 
L 186.467978 78.053434 
L 179.842375 78.053434 
L 173.216772 73.271547 
L 166.591169 78.053434 
L 159.965566 78.053434 
L 153.339963 73.271547 
L 146.71436 73.271547 
L 140.088757 73.271547 
L 133.463154 78.053434 
L 126.837551 68.48966 
L 120.211948 73.271547 
L 113.586345 73.271547 
L 106.960742 78.053434 
L 100.335139 73.271547 
L 93.709536 78.053434 
L 87.083933 82.835321 
L 80.45833 82.835321 
L 73.832727 73.271547 
z
" style="fill:#e377c2;"/>
   </g>
   <g id="PolyCollection_8">
    <path clip-path="url(#p3a71f8c07b)" d="M 73.832727 68.48966 
L 73.832727 73.271547 
L 80.45833 82.835321 
L 87.083933 82.835321 
L 93.709536 78.053434 
L 100.335139 73.271547 
L 106.960742 78.053434 
L 113.586345 73.271547 
L 120.211948 73.271547 
L 126.837551 68.48966 
L 133.463154 78.053434 
L 140.088757 73.271547 
L 146.71436 73.271547 
L 153.339963 73.271547 
L 159.965566 78.053434 
L 166.591169 78.053434 
L 173.216772 73.271547 
L 179.842375 78.053434 
L 186.467978 78.053434 
L 193.093581 82.835321 
L 199.719184 78.053434 
L 206.344787 87.617208 
L 212.97039 78.053434 
L 219.595993 87.617208 
L 226.221596 78.053434 
L 232.847199 78.053434 
L 239.472801 82.835321 
L 246.098404 78.053434 
L 252.724007 78.053434 
L 259.34961 87.617208 
L 265.975213 78.053434 
L 272.600816 87.617208 
L 279.226419 73.271547 
L 285.852022 82.835321 
L 292.477625 87.617208 
L 299.103228 78.053434 
L 305.728831 78.053434 
L 312.354434 82.835321 
L 318.980037 82.835321 
L 325.60564 78.053434 
L 332.231243 78.053434 
L 338.856846 82.835321 
L 345.482449 78.053434 
L 352.108052 78.053434 
L 358.733655 82.835321 
L 365.359258 78.053434 
L 371.984861 87.617208 
L 378.610464 78.053434 
L 385.236067 82.835321 
L 391.86167 78.053434 
L 398.487273 78.053434 
L 398.487273 63.707774 
L 398.487273 63.707774 
L 391.86167 63.707774 
L 385.236067 68.48966 
L 378.610464 63.707774 
L 371.984861 73.271547 
L 365.359258 63.707774 
L 358.733655 68.48966 
L 352.108052 63.707774 
L 345.482449 63.707774 
L 338.856846 68.48966 
L 332.231243 63.707774 
L 325.60564 63.707774 
L 318.980037 68.48966 
L 312.354434 68.48966 
L 305.728831 63.707774 
L 299.103228 63.707774 
L 292.477625 73.271547 
L 285.852022 68.48966 
L 279.226419 58.925887 
L 272.600816 73.271547 
L 265.975213 63.707774 
L 259.34961 73.271547 
L 252.724007 63.707774 
L 246.098404 63.707774 
L 239.472801 68.48966 
L 232.847199 63.707774 
L 226.221596 63.707774 
L 219.595993 73.271547 
L 212.97039 63.707774 
L 206.344787 73.271547 
L 199.719184 63.707774 
L 193.093581 68.48966 
L 186.467978 63.707774 
L 179.842375 63.707774 
L 173.216772 58.925887 
L 166.591169 63.707774 
L 159.965566 63.707774 
L 153.339963 58.925887 
L 146.71436 58.925887 
L 140.088757 58.925887 
L 133.463154 63.707774 
L 126.837551 54.144 
L 120.211948 58.925887 
L 113.586345 58.925887 
L 106.960742 63.707774 
L 100.335139 58.925887 
L 93.709536 63.707774 
L 87.083933 68.48966 
L 80.45833 63.707774 
L 73.832727 68.48966 
z
" style="fill:#7f7f7f;"/>
   </g>
   <g id="matplotlib.axis_1">
    <g id="xtick_1">
     <g id="line2d_1">
      <defs>
       <path d="M 0 0 
L 0 3.5 
" id="m6910dbf35f" style="stroke:#000000;stroke-width:0.8;"/>
      </defs>
      <g>
       <use style="stroke:#000000;stroke-width:0.8;" x="73.832727" xlink:href="#m6910dbf35f" y="307.584"/>
      </g>
     </g>
     <g id="text_1">
      <!-- 0 -->
      <g transform="translate(70.651477 322.182437)scale(0.1 -0.1)">
       <defs>
        <path d="M 2034 4250 
Q 1547 4250 1301 3770 
Q 1056 3291 1056 2328 
Q 1056 1369 1301 889 
Q 1547 409 2034 409 
Q 2525 409 2770 889 
Q 3016 1369 3016 2328 
Q 3016 3291 2770 3770 
Q 2525 4250 2034 4250 
z
M 2034 4750 
Q 2819 4750 3233 4129 
Q 3647 3509 3647 2328 
Q 3647 1150 3233 529 
Q 2819 -91 2034 -91 
Q 1250 -91 836 529 
Q 422 1150 422 2328 
Q 422 3509 836 4129 
Q 1250 4750 2034 4750 
z
" id="DejaVuSans-30" transform="scale(0.015625)"/>
       </defs>
       <use xlink:href="#DejaVuSans-30"/>
      </g>
     </g>
    </g>
    <g id="xtick_2">
     <g id="line2d_2">
      <g>
       <use style="stroke:#000000;stroke-width:0.8;" x="140.088757" xlink:href="#m6910dbf35f" y="307.584"/>
      </g>
     </g>
     <g id="text_2">
      <!-- 10 -->
      <g transform="translate(133.726257 322.182437)scale(0.1 -0.1)">
       <defs>
        <path d="M 794 531 
L 1825 531 
L 1825 4091 
L 703 3866 
L 703 4441 
L 1819 4666 
L 2450 4666 
L 2450 531 
L 3481 531 
L 3481 0 
L 794 0 
L 794 531 
z
" id="DejaVuSans-31" transform="scale(0.015625)"/>
       </defs>
       <use xlink:href="#DejaVuSans-31"/>
       <use x="63.623047" xlink:href="#DejaVuSans-30"/>
      </g>
     </g>
    </g>
    <g id="xtick_3">
     <g id="line2d_3">
      <g>
       <use style="stroke:#000000;stroke-width:0.8;" x="206.344787" xlink:href="#m6910dbf35f" y="307.584"/>
      </g>
     </g>
     <g id="text_3">
      <!-- 20 -->
      <g transform="translate(199.982287 322.182437)scale(0.1 -0.1)">
       <defs>
        <path d="M 1228 531 
L 3431 531 
L 3431 0 
L 469 0 
L 469 531 
Q 828 903 1448 1529 
Q 2069 2156 2228 2338 
Q 2531 2678 2651 2914 
Q 2772 3150 2772 3378 
Q 2772 3750 2511 3984 
Q 2250 4219 1831 4219 
Q 1534 4219 1204 4116 
Q 875 4013 500 3803 
L 500 4441 
Q 881 4594 1212 4672 
Q 1544 4750 1819 4750 
Q 2544 4750 2975 4387 
Q 3406 4025 3406 3419 
Q 3406 3131 3298 2873 
Q 3191 2616 2906 2266 
Q 2828 2175 2409 1742 
Q 1991 1309 1228 531 
z
" id="DejaVuSans-32" transform="scale(0.015625)"/>
       </defs>
       <use xlink:href="#DejaVuSans-32"/>
       <use x="63.623047" xlink:href="#DejaVuSans-30"/>
      </g>
     </g>
    </g>
    <g id="xtick_4">
     <g id="line2d_4">
      <g>
       <use style="stroke:#000000;stroke-width:0.8;" x="272.600816" xlink:href="#m6910dbf35f" y="307.584"/>
      </g>
     </g>
     <g id="text_4">
      <!-- 30 -->
      <g transform="translate(266.238316 322.182437)scale(0.1 -0.1)">
       <defs>
        <path d="M 2597 2516 
Q 3050 2419 3304 2112 
Q 3559 1806 3559 1356 
Q 3559 666 3084 287 
Q 2609 -91 1734 -91 
Q 1441 -91 1130 -33 
Q 819 25 488 141 
L 488 750 
Q 750 597 1062 519 
Q 1375 441 1716 441 
Q 2309 441 2620 675 
Q 2931 909 2931 1356 
Q 2931 1769 2642 2001 
Q 2353 2234 1838 2234 
L 1294 2234 
L 1294 2753 
L 1863 2753 
Q 2328 2753 2575 2939 
Q 2822 3125 2822 3475 
Q 2822 3834 2567 4026 
Q 2313 4219 1838 4219 
Q 1578 4219 1281 4162 
Q 984 4106 628 3988 
L 628 4550 
Q 988 4650 1302 4700 
Q 1616 4750 1894 4750 
Q 2613 4750 3031 4423 
Q 3450 4097 3450 3541 
Q 3450 3153 3228 2886 
Q 3006 2619 2597 2516 
z
" id="DejaVuSans-33" transform="scale(0.015625)"/>
       </defs>
       <use xlink:href="#DejaVuSans-33"/>
       <use x="63.623047" xlink:href="#DejaVuSans-30"/>
      </g>
     </g>
    </g>
    <g id="xtick_5">
     <g id="line2d_5">
      <g>
       <use style="stroke:#000000;stroke-width:0.8;" x="338.856846" xlink:href="#m6910dbf35f" y="307.584"/>
      </g>
     </g>
     <g id="text_5">
      <!-- 40 -->
      <g transform="translate(332.494346 322.182437)scale(0.1 -0.1)">
       <defs>
        <path d="M 2419 4116 
L 825 1625 
L 2419 1625 
L 2419 4116 
z
M 2253 4666 
L 3047 4666 
L 3047 1625 
L 3713 1625 
L 3713 1100 
L 3047 1100 
L 3047 0 
L 2419 0 
L 2419 1100 
L 313 1100 
L 313 1709 
L 2253 4666 
z
" id="DejaVuSans-34" transform="scale(0.015625)"/>
       </defs>
       <use xlink:href="#DejaVuSans-34"/>
       <use x="63.623047" xlink:href="#DejaVuSans-30"/>
      </g>
     </g>
    </g>
    <g id="xtick_6">
     <g id="line2d_6">
      <g>
       <use style="stroke:#000000;stroke-width:0.8;" x="405.112876" xlink:href="#m6910dbf35f" y="307.584"/>
      </g>
     </g>
     <g id="text_6">
      <!-- 50 -->
      <g transform="translate(398.750376 322.182437)scale(0.1 -0.1)">
       <defs>
        <path d="M 691 4666 
L 3169 4666 
L 3169 4134 
L 1269 4134 
L 1269 2991 
Q 1406 3038 1543 3061 
Q 1681 3084 1819 3084 
Q 2600 3084 3056 2656 
Q 3513 2228 3513 1497 
Q 3513 744 3044 326 
Q 2575 -91 1722 -91 
Q 1428 -91 1123 -41 
Q 819 9 494 109 
L 494 744 
Q 775 591 1075 516 
Q 1375 441 1709 441 
Q 2250 441 2565 725 
Q 2881 1009 2881 1497 
Q 2881 1984 2565 2268 
Q 2250 2553 1709 2553 
Q 1456 2553 1204 2497 
Q 953 2441 691 2322 
L 691 4666 
z
" id="DejaVuSans-35" transform="scale(0.015625)"/>
       </defs>
       <use xlink:href="#DejaVuSans-35"/>
       <use x="63.623047" xlink:href="#DejaVuSans-30"/>
      </g>
     </g>
    </g>
    <g id="text_7">
     <!-- Generations -->
     <g transform="translate(205.662344 335.860562)scale(0.1 -0.1)">
      <defs>
       <path d="M 3809 666 
L 3809 1919 
L 2778 1919 
L 2778 2438 
L 4434 2438 
L 4434 434 
Q 4069 175 3628 42 
Q 3188 -91 2688 -91 
Q 1594 -91 976 548 
Q 359 1188 359 2328 
Q 359 3472 976 4111 
Q 1594 4750 2688 4750 
Q 3144 4750 3555 4637 
Q 3966 4525 4313 4306 
L 4313 3634 
Q 3963 3931 3569 4081 
Q 3175 4231 2741 4231 
Q 1884 4231 1454 3753 
Q 1025 3275 1025 2328 
Q 1025 1384 1454 906 
Q 1884 428 2741 428 
Q 3075 428 3337 486 
Q 3600 544 3809 666 
z
" id="DejaVuSans-47" transform="scale(0.015625)"/>
       <path d="M 3597 1894 
L 3597 1613 
L 953 1613 
Q 991 1019 1311 708 
Q 1631 397 2203 397 
Q 2534 397 2845 478 
Q 3156 559 3463 722 
L 3463 178 
Q 3153 47 2828 -22 
Q 2503 -91 2169 -91 
Q 1331 -91 842 396 
Q 353 884 353 1716 
Q 353 2575 817 3079 
Q 1281 3584 2069 3584 
Q 2775 3584 3186 3129 
Q 3597 2675 3597 1894 
z
M 3022 2063 
Q 3016 2534 2758 2815 
Q 2500 3097 2075 3097 
Q 1594 3097 1305 2825 
Q 1016 2553 972 2059 
L 3022 2063 
z
" id="DejaVuSans-65" transform="scale(0.015625)"/>
       <path d="M 3513 2113 
L 3513 0 
L 2938 0 
L 2938 2094 
Q 2938 2591 2744 2837 
Q 2550 3084 2163 3084 
Q 1697 3084 1428 2787 
Q 1159 2491 1159 1978 
L 1159 0 
L 581 0 
L 581 3500 
L 1159 3500 
L 1159 2956 
Q 1366 3272 1645 3428 
Q 1925 3584 2291 3584 
Q 2894 3584 3203 3211 
Q 3513 2838 3513 2113 
z
" id="DejaVuSans-6e" transform="scale(0.015625)"/>
       <path d="M 2631 2963 
Q 2534 3019 2420 3045 
Q 2306 3072 2169 3072 
Q 1681 3072 1420 2755 
Q 1159 2438 1159 1844 
L 1159 0 
L 581 0 
L 581 3500 
L 1159 3500 
L 1159 2956 
Q 1341 3275 1631 3429 
Q 1922 3584 2338 3584 
Q 2397 3584 2469 3576 
Q 2541 3569 2628 3553 
L 2631 2963 
z
" id="DejaVuSans-72" transform="scale(0.015625)"/>
       <path d="M 2194 1759 
Q 1497 1759 1228 1600 
Q 959 1441 959 1056 
Q 959 750 1161 570 
Q 1363 391 1709 391 
Q 2188 391 2477 730 
Q 2766 1069 2766 1631 
L 2766 1759 
L 2194 1759 
z
M 3341 1997 
L 3341 0 
L 2766 0 
L 2766 531 
Q 2569 213 2275 61 
Q 1981 -91 1556 -91 
Q 1019 -91 701 211 
Q 384 513 384 1019 
Q 384 1609 779 1909 
Q 1175 2209 1959 2209 
L 2766 2209 
L 2766 2266 
Q 2766 2663 2505 2880 
Q 2244 3097 1772 3097 
Q 1472 3097 1187 3025 
Q 903 2953 641 2809 
L 641 3341 
Q 956 3463 1253 3523 
Q 1550 3584 1831 3584 
Q 2591 3584 2966 3190 
Q 3341 2797 3341 1997 
z
" id="DejaVuSans-61" transform="scale(0.015625)"/>
       <path d="M 1172 4494 
L 1172 3500 
L 2356 3500 
L 2356 3053 
L 1172 3053 
L 1172 1153 
Q 1172 725 1289 603 
Q 1406 481 1766 481 
L 2356 481 
L 2356 0 
L 1766 0 
Q 1100 0 847 248 
Q 594 497 594 1153 
L 594 3053 
L 172 3053 
L 172 3500 
L 594 3500 
L 594 4494 
L 1172 4494 
z
" id="DejaVuSans-74" transform="scale(0.015625)"/>
       <path d="M 603 3500 
L 1178 3500 
L 1178 0 
L 603 0 
L 603 3500 
z
M 603 4863 
L 1178 4863 
L 1178 4134 
L 603 4134 
L 603 4863 
z
" id="DejaVuSans-69" transform="scale(0.015625)"/>
       <path d="M 1959 3097 
Q 1497 3097 1228 2736 
Q 959 2375 959 1747 
Q 959 1119 1226 758 
Q 1494 397 1959 397 
Q 2419 397 2687 759 
Q 2956 1122 2956 1747 
Q 2956 2369 2687 2733 
Q 2419 3097 1959 3097 
z
M 1959 3584 
Q 2709 3584 3137 3096 
Q 3566 2609 3566 1747 
Q 3566 888 3137 398 
Q 2709 -91 1959 -91 
Q 1206 -91 779 398 
Q 353 888 353 1747 
Q 353 2609 779 3096 
Q 1206 3584 1959 3584 
z
" id="DejaVuSans-6f" transform="scale(0.015625)"/>
       <path d="M 2834 3397 
L 2834 2853 
Q 2591 2978 2328 3040 
Q 2066 3103 1784 3103 
Q 1356 3103 1142 2972 
Q 928 2841 928 2578 
Q 928 2378 1081 2264 
Q 1234 2150 1697 2047 
L 1894 2003 
Q 2506 1872 2764 1633 
Q 3022 1394 3022 966 
Q 3022 478 2636 193 
Q 2250 -91 1575 -91 
Q 1294 -91 989 -36 
Q 684 19 347 128 
L 347 722 
Q 666 556 975 473 
Q 1284 391 1588 391 
Q 1994 391 2212 530 
Q 2431 669 2431 922 
Q 2431 1156 2273 1281 
Q 2116 1406 1581 1522 
L 1381 1569 
Q 847 1681 609 1914 
Q 372 2147 372 2553 
Q 372 3047 722 3315 
Q 1072 3584 1716 3584 
Q 2034 3584 2315 3537 
Q 2597 3491 2834 3397 
z
" id="DejaVuSans-73" transform="scale(0.015625)"/>
      </defs>
      <use xlink:href="#DejaVuSans-47"/>
      <use x="77.490234" xlink:href="#DejaVuSans-65"/>
      <use x="139.013672" xlink:href="#DejaVuSans-6e"/>
      <use x="202.392578" xlink:href="#DejaVuSans-65"/>
      <use x="263.916016" xlink:href="#DejaVuSans-72"/>
      <use x="305.029297" xlink:href="#DejaVuSans-61"/>
      <use x="366.308594" xlink:href="#DejaVuSans-74"/>
      <use x="405.517578" xlink:href="#DejaVuSans-69"/>
      <use x="433.300781" xlink:href="#DejaVuSans-6f"/>
      <use x="494.482422" xlink:href="#DejaVuSans-6e"/>
      <use x="557.861328" xlink:href="#DejaVuSans-73"/>
     </g>
    </g>
   </g>
   <g id="matplotlib.axis_2">
    <g id="ytick_1">
     <g id="line2d_7">
      <defs>
       <path d="M 0 0 
L -3.5 0 
" id="m74209a3434" style="stroke:#000000;stroke-width:0.8;"/>
      </defs>
      <g>
       <use style="stroke:#000000;stroke-width:0.8;" x="57.6" xlink:href="#m74209a3434" y="307.584"/>
      </g>
     </g>
     <g id="text_8">
      <!-- 0 -->
      <g transform="translate(44.2375 311.383219)scale(0.1 -0.1)">
       <use xlink:href="#DejaVuSans-30"/>
      </g>
     </g>
    </g>
    <g id="ytick_2">
     <g id="line2d_8">
      <g>
       <use style="stroke:#000000;stroke-width:0.8;" x="57.6" xlink:href="#m74209a3434" y="259.765132"/>
      </g>
     </g>
     <g id="text_9">
      <!-- 10 -->
      <g transform="translate(37.875 263.564351)scale(0.1 -0.1)">
       <use xlink:href="#DejaVuSans-31"/>
       <use x="63.623047" xlink:href="#DejaVuSans-30"/>
      </g>
     </g>
    </g>
    <g id="ytick_3">
     <g id="line2d_9">
      <g>
       <use style="stroke:#000000;stroke-width:0.8;" x="57.6" xlink:href="#m74209a3434" y="211.946264"/>
      </g>
     </g>
     <g id="text_10">
      <!-- 20 -->
      <g transform="translate(37.875 215.745483)scale(0.1 -0.1)">
       <use xlink:href="#DejaVuSans-32"/>
       <use x="63.623047" xlink:href="#DejaVuSans-30"/>
      </g>
     </g>
    </g>
    <g id="ytick_4">
     <g id="line2d_10">
      <g>
       <use style="stroke:#000000;stroke-width:0.8;" x="57.6" xlink:href="#m74209a3434" y="164.127396"/>
      </g>
     </g>
     <g id="text_11">
      <!-- 30 -->
      <g transform="translate(37.875 167.926615)scale(0.1 -0.1)">
       <use xlink:href="#DejaVuSans-33"/>
       <use x="63.623047" xlink:href="#DejaVuSans-30"/>
      </g>
     </g>
    </g>
    <g id="ytick_5">
     <g id="line2d_11">
      <g>
       <use style="stroke:#000000;stroke-width:0.8;" x="57.6" xlink:href="#m74209a3434" y="116.308528"/>
      </g>
     </g>
     <g id="text_12">
      <!-- 40 -->
      <g transform="translate(37.875 120.107747)scale(0.1 -0.1)">
       <use xlink:href="#DejaVuSans-34"/>
       <use x="63.623047" xlink:href="#DejaVuSans-30"/>
      </g>
     </g>
    </g>
    <g id="ytick_6">
     <g id="line2d_12">
      <g>
       <use style="stroke:#000000;stroke-width:0.8;" x="57.6" xlink:href="#m74209a3434" y="68.48966"/>
      </g>
     </g>
     <g id="text_13">
      <!-- 50 -->
      <g transform="translate(37.875 72.288879)scale(0.1 -0.1)">
       <use xlink:href="#DejaVuSans-35"/>
       <use x="63.623047" xlink:href="#DejaVuSans-30"/>
      </g>
     </g>
    </g>
    <g id="text_14">
     <!-- Size per Species -->
     <g transform="translate(31.795312 215.520969)rotate(-90)scale(0.1 -0.1)">
      <defs>
       <path d="M 3425 4513 
L 3425 3897 
Q 3066 4069 2747 4153 
Q 2428 4238 2131 4238 
Q 1616 4238 1336 4038 
Q 1056 3838 1056 3469 
Q 1056 3159 1242 3001 
Q 1428 2844 1947 2747 
L 2328 2669 
Q 3034 2534 3370 2195 
Q 3706 1856 3706 1288 
Q 3706 609 3251 259 
Q 2797 -91 1919 -91 
Q 1588 -91 1214 -16 
Q 841 59 441 206 
L 441 856 
Q 825 641 1194 531 
Q 1563 422 1919 422 
Q 2459 422 2753 634 
Q 3047 847 3047 1241 
Q 3047 1584 2836 1778 
Q 2625 1972 2144 2069 
L 1759 2144 
Q 1053 2284 737 2584 
Q 422 2884 422 3419 
Q 422 4038 858 4394 
Q 1294 4750 2059 4750 
Q 2388 4750 2728 4690 
Q 3069 4631 3425 4513 
z
" id="DejaVuSans-53" transform="scale(0.015625)"/>
       <path d="M 353 3500 
L 3084 3500 
L 3084 2975 
L 922 459 
L 3084 459 
L 3084 0 
L 275 0 
L 275 525 
L 2438 3041 
L 353 3041 
L 353 3500 
z
" id="DejaVuSans-7a" transform="scale(0.015625)"/>
       <path id="DejaVuSans-20" transform="scale(0.015625)"/>
       <path d="M 1159 525 
L 1159 -1331 
L 581 -1331 
L 581 3500 
L 1159 3500 
L 1159 2969 
Q 1341 3281 1617 3432 
Q 1894 3584 2278 3584 
Q 2916 3584 3314 3078 
Q 3713 2572 3713 1747 
Q 3713 922 3314 415 
Q 2916 -91 2278 -91 
Q 1894 -91 1617 61 
Q 1341 213 1159 525 
z
M 3116 1747 
Q 3116 2381 2855 2742 
Q 2594 3103 2138 3103 
Q 1681 3103 1420 2742 
Q 1159 2381 1159 1747 
Q 1159 1113 1420 752 
Q 1681 391 2138 391 
Q 2594 391 2855 752 
Q 3116 1113 3116 1747 
z
" id="DejaVuSans-70" transform="scale(0.015625)"/>
       <path d="M 3122 3366 
L 3122 2828 
Q 2878 2963 2633 3030 
Q 2388 3097 2138 3097 
Q 1578 3097 1268 2742 
Q 959 2388 959 1747 
Q 959 1106 1268 751 
Q 1578 397 2138 397 
Q 2388 397 2633 464 
Q 2878 531 3122 666 
L 3122 134 
Q 2881 22 2623 -34 
Q 2366 -91 2075 -91 
Q 1284 -91 818 406 
Q 353 903 353 1747 
Q 353 2603 823 3093 
Q 1294 3584 2113 3584 
Q 2378 3584 2631 3529 
Q 2884 3475 3122 3366 
z
" id="DejaVuSans-63" transform="scale(0.015625)"/>
      </defs>
      <use xlink:href="#DejaVuSans-53"/>
      <use x="63.476562" xlink:href="#DejaVuSans-69"/>
      <use x="91.259766" xlink:href="#DejaVuSans-7a"/>
      <use x="143.75" xlink:href="#DejaVuSans-65"/>
      <use x="205.273438" xlink:href="#DejaVuSans-20"/>
      <use x="237.060547" xlink:href="#DejaVuSans-70"/>
      <use x="300.537109" xlink:href="#DejaVuSans-65"/>
      <use x="362.060547" xlink:href="#DejaVuSans-72"/>
      <use x="403.173828" xlink:href="#DejaVuSans-20"/>
      <use x="434.960938" xlink:href="#DejaVuSans-53"/>
      <use x="498.4375" xlink:href="#DejaVuSans-70"/>
      <use x="561.914062" xlink:href="#DejaVuSans-65"/>
      <use x="623.4375" xlink:href="#DejaVuSans-63"/>
      <use x="678.417969" xlink:href="#DejaVuSans-69"/>
      <use x="706.201172" xlink:href="#DejaVuSans-65"/>
      <use x="767.724609" xlink:href="#DejaVuSans-73"/>
     </g>
    </g>
   </g>
   <g id="patch_3">
    <path d="M 57.6 307.584 
L 57.6 41.472 
" style="fill:none;stroke:#000000;stroke-linecap:square;stroke-linejoin:miter;stroke-width:0.8;"/>
   </g>
   <g id="patch_4">
    <path d="M 414.72 307.584 
L 414.72 41.472 
" style="fill:none;stroke:#000000;stroke-linecap:square;stroke-linejoin:miter;stroke-width:0.8;"/>
   </g>
   <g id="patch_5">
    <path d="M 57.6 307.584 
L 414.72 307.584 
" style="fill:none;stroke:#000000;stroke-linecap:square;stroke-linejoin:miter;stroke-width:0.8;"/>
   </g>
   <g id="patch_6">
    <path d="M 57.6 41.472 
L 414.72 41.472 
" style="fill:none;stroke:#000000;stroke-linecap:square;stroke-linejoin:miter;stroke-width:0.8;"/>
   </g>
   <g id="text_15">
    <!-- Speciation -->
    <g transform="translate(204.714375 35.472)scale(0.12 -0.12)">
     <use xlink:href="#DejaVuSans-53"/>
     <use x="63.476562" xlink:href="#DejaVuSans-70"/>
     <use x="126.953125" xlink:href="#DejaVuSans-65"/>
     <use x="188.476562" xlink:href="#DejaVuSans-63"/>
     <use x="243.457031" xlink:href="#DejaVuSans-69"/>
     <use x="271.240234" xlink:href="#DejaVuSans-61"/>
     <use x="332.519531" xlink:href="#DejaVuSans-74"/>
     <use x="371.728516" xlink:href="#DejaVuSans-69"/>
     <use x="399.511719" xlink:href="#DejaVuSans-6f"/>
     <use x="460.693359" xlink:href="#DejaVuSans-6e"/>
    </g>
   </g>
  </g>
 </g>
 <defs>
  <clipPath id="p3a71f8c07b">
   <rect height="266.112" width="357.12" x="57.6" y="41.472"/>
  </clipPath>
 </defs>
</svg>
