<?xml version="1.0" encoding="UTF-8" standalone="no"?>
<!DOCTYPE svg PUBLIC "-//W3C//DTD SVG 1.1//EN"
 "http://www.w3.org/Graphics/SVG/1.1/DTD/svg11.dtd">
<!-- Generated by graphviz version 2.49.0 (20210828.1703)
 -->
<!-- Pages: 1 -->
<svg width="889pt" height="92pt"
 viewBox="0.00 0.00 888.50 91.70" xmlns="http://www.w3.org/2000/svg" xmlns:xlink="http://www.w3.org/1999/xlink">
<g id="graph0" class="graph" transform="scale(1 1) rotate(0) translate(4 87.7)">
<polygon fill="white" stroke="transparent" points="-4,4 -4,-87.7 884.5,-87.7 884.5,4 -4,4"/>
<!-- &#45;1 -->
<g id="node1" class="node">
<title>&#45;1</title>
<polygon fill="lightgray" stroke="black" points="71.5,-83.7 47.5,-83.7 47.5,-65.7 71.5,-65.7 71.5,-83.7"/>
<text text-anchor="middle" x="59.5" y="-72.5" font-family="Times New Roman,serif" font-size="9.00">&#45;1</text>
</g>
<!-- 0 -->
<g id="node21" class="node">
<title>0</title>
<ellipse fill="lightblue" stroke="black" cx="337.5" cy="-14.85" rx="14.7" ry="14.7"/>
<text text-anchor="middle" x="337.5" y="-12.65" font-family="Times New Roman,serif" font-size="9.00">0</text>
</g>
<!-- &#45;1&#45;&gt;0 -->
<g id="edge1" class="edge">
<title>&#45;1&#45;&gt;0</title>
<path fill="none" stroke="green" stroke-width="0.44" d="M71.82,-68.6C74.64,-67.55 77.65,-66.51 80.5,-65.7 164.26,-41.81 266.63,-25.75 312.82,-19.19"/>
<polygon fill="green" stroke="green" stroke-width="0.44" points="313.38,-22.64 322.8,-17.79 312.41,-15.71 313.38,-22.64"/>
</g>
<!-- 1 -->
<g id="node22" class="node">
<title>1</title>
<ellipse fill="lightblue" stroke="black" cx="433.5" cy="-14.85" rx="14.7" ry="14.7"/>
<text text-anchor="middle" x="433.5" y="-12.65" font-family="Times New Roman,serif" font-size="9.00">1</text>
</g>
<!-- &#45;1&#45;&gt;1 -->
<g id="edge2" class="edge">
<title>&#45;1&#45;&gt;1</title>
<path fill="none" stroke="green" stroke-width="0.52" d="M71.77,-68.43C74.6,-67.38 77.62,-66.39 80.5,-65.7 223.5,-31.24 269.7,-75.44 409.5,-29.7 410.38,-29.41 411.26,-29.09 412.14,-28.74"/>
<polygon fill="green" stroke="green" stroke-width="0.52" points="413.86,-31.79 421.26,-24.21 410.74,-25.52 413.86,-31.79"/>
</g>
<!-- 2 -->
<g id="node23" class="node">
<title>2</title>
<ellipse fill="lightblue" stroke="black" cx="385.5" cy="-14.85" rx="14.7" ry="14.7"/>
<text text-anchor="middle" x="385.5" y="-12.65" font-family="Times New Roman,serif" font-size="9.00">2</text>
</g>
<!-- &#45;1&#45;&gt;2 -->
<g id="edge3" class="edge">
<title>&#45;1&#45;&gt;2</title>
<path fill="none" stroke="red" stroke-width="0.65" d="M71.78,-68.46C74.6,-67.42 77.62,-66.42 80.5,-65.7 202.63,-35.07 242.2,-69.95 361.5,-29.7 362.38,-29.4 363.26,-29.07 364.14,-28.72"/>
<polygon fill="red" stroke="red" stroke-width="0.65" points="365.86,-31.77 373.24,-24.17 362.73,-25.51 365.86,-31.77"/>
</g>
<!-- 4 -->
<g id="node25" class="node">
<title>4</title>
<ellipse fill="lightblue" stroke="black" cx="481.5" cy="-14.85" rx="14.7" ry="14.7"/>
<text text-anchor="middle" x="481.5" y="-12.65" font-family="Times New Roman,serif" font-size="9.00">4</text>
</g>
<!-- &#45;1&#45;&gt;4 -->
<g id="edge4" class="edge">
<title>&#45;1&#45;&gt;4</title>
<path fill="none" stroke="red" stroke-width="0.32" stroke-dasharray="1,5" d="M71.76,-68.4C74.59,-67.35 77.61,-66.37 80.5,-65.7 244.4,-27.39 297.17,-80.93 457.5,-29.7 458.55,-29.36 459.61,-28.97 460.67,-28.55"/>
<polygon fill="red" stroke="red" stroke-width="0.32" points="462.41,-31.59 469.76,-23.96 459.26,-25.34 462.41,-31.59"/>
</g>
<!-- &#45;2 -->
<g id="node2" class="node">
<title>&#45;2</title>
<polygon fill="lightgray" stroke="black" points="701.5,-83.7 677.5,-83.7 677.5,-65.7 701.5,-65.7 701.5,-83.7"/>
<text text-anchor="middle" x="689.5" y="-72.5" font-family="Times New Roman,serif" font-size="9.00">&#45;2</text>
</g>
<!-- &#45;2&#45;&gt;0 -->
<g id="edge5" class="edge">
<title>&#45;2&#45;&gt;0</title>
<path fill="none" stroke="red" stroke-width="0.52" d="M677.22,-68.44C674.4,-67.4 671.38,-66.4 668.5,-65.7 535.07,-33 491.9,-72.92 361.5,-29.7 360.62,-29.41 359.74,-29.08 358.86,-28.73"/>
<polygon fill="red" stroke="red" stroke-width="0.52" points="360.26,-25.52 349.75,-24.19 357.14,-31.78 360.26,-25.52"/>
</g>
<!-- &#45;2&#45;&gt;1 -->
<g id="edge6" class="edge">
<title>&#45;2&#45;&gt;1</title>
<path fill="none" stroke="green" stroke-width="0.5" d="M677.2,-68.55C674.37,-67.5 671.36,-66.48 668.5,-65.7 576.73,-40.65 546.99,-61.98 457.5,-29.7 456.63,-29.38 455.75,-29.04 454.88,-28.67"/>
<polygon fill="green" stroke="green" stroke-width="0.5" points="456.3,-25.46 445.8,-24.06 453.13,-31.71 456.3,-25.46"/>
</g>
<!-- &#45;2&#45;&gt;2 -->
<g id="edge7" class="edge">
<title>&#45;2&#45;&gt;2</title>
<path fill="none" stroke="red" stroke-width="0.12" d="M677.21,-68.49C674.39,-67.44 671.37,-66.44 668.5,-65.7 555.93,-36.83 519.42,-67.44 409.5,-29.7 408.62,-29.4 407.74,-29.06 406.87,-28.7"/>
<polygon fill="red" stroke="red" stroke-width="0.12" points="408.28,-25.5 397.77,-24.14 405.14,-31.75 408.28,-25.5"/>
</g>
<!-- 3 -->
<g id="node24" class="node">
<title>3</title>
<ellipse fill="lightblue" stroke="black" cx="529.5" cy="-14.85" rx="14.7" ry="14.7"/>
<text text-anchor="middle" x="529.5" y="-12.65" font-family="Times New Roman,serif" font-size="9.00">3</text>
</g>
<!-- &#45;2&#45;&gt;3 -->
<g id="edge8" class="edge">
<title>&#45;2&#45;&gt;3</title>
<path fill="none" stroke="green" stroke-width="0.24" d="M677.08,-68.92C674.26,-67.85 671.28,-66.73 668.5,-65.7 627.99,-50.72 580.6,-33.87 552.93,-24.09"/>
<polygon fill="green" stroke="green" stroke-width="0.24" points="553.94,-20.74 543.34,-20.71 551.61,-27.34 553.94,-20.74"/>
</g>
<!-- &#45;2&#45;&gt;4 -->
<g id="edge9" class="edge">
<title>&#45;2&#45;&gt;4</title>
<path fill="none" stroke="red" stroke-width="0.57" stroke-dasharray="1,5" d="M677.17,-68.66C674.35,-67.6 671.34,-66.55 668.5,-65.7 597.42,-44.44 574.66,-56.55 505.5,-29.7 504.64,-29.36 503.77,-29 502.9,-28.62"/>
<polygon fill="red" stroke="red" stroke-width="0.57" points="504.33,-25.42 493.84,-23.93 501.12,-31.64 504.33,-25.42"/>
</g>
<!-- &#45;3 -->
<g id="node3" class="node">
<title>&#45;3</title>
<polygon fill="lightgray" stroke="black" points="743.5,-83.7 719.5,-83.7 719.5,-65.7 743.5,-65.7 743.5,-83.7"/>
<text text-anchor="middle" x="731.5" y="-72.5" font-family="Times New Roman,serif" font-size="9.00">&#45;3</text>
</g>
<!-- &#45;3&#45;&gt;0 -->
<g id="edge10" class="edge">
<title>&#45;3&#45;&gt;0</title>
<path fill="none" stroke="red" stroke-width="0.47" d="M719.23,-68.41C716.41,-67.37 713.38,-66.38 710.5,-65.7 558.79,-29.64 509.85,-77.72 361.5,-29.7 360.45,-29.36 359.39,-28.97 358.34,-28.54"/>
<polygon fill="red" stroke="red" stroke-width="0.47" points="359.75,-25.33 349.24,-23.94 356.59,-31.57 359.75,-25.33"/>
</g>
<!-- &#45;3&#45;&gt;1 -->
<g id="edge11" class="edge">
<title>&#45;3&#45;&gt;1</title>
<path fill="none" stroke="green" stroke-width="0.26" d="M719.21,-68.49C716.39,-67.45 713.37,-66.44 710.5,-65.7 600.53,-37.31 564.86,-66.76 457.5,-29.7 456.62,-29.4 455.75,-29.06 454.87,-28.7"/>
<polygon fill="green" stroke="green" stroke-width="0.26" points="456.28,-25.49 445.77,-24.13 453.14,-31.75 456.28,-25.49"/>
</g>
<!-- &#45;3&#45;&gt;2 -->
<g id="edge12" class="edge">
<title>&#45;3&#45;&gt;2</title>
<path fill="none" stroke="red" stroke-width="0.49" d="M719.22,-68.45C716.4,-67.4 713.38,-66.41 710.5,-65.7 579.68,-33.48 537.34,-72.23 409.5,-29.7 408.62,-29.41 407.74,-29.08 406.86,-28.73"/>
<polygon fill="red" stroke="red" stroke-width="0.49" points="408.26,-25.51 397.75,-24.19 405.14,-31.78 408.26,-25.51"/>
</g>
<!-- &#45;3&#45;&gt;3 -->
<g id="edge13" class="edge">
<title>&#45;3&#45;&gt;3</title>
<path fill="none" stroke="green" stroke-width="0.28" d="M719.13,-68.76C716.31,-67.7 713.32,-66.62 710.5,-65.7 654.92,-47.5 588.33,-30.32 553.47,-21.68"/>
<polygon fill="green" stroke="green" stroke-width="0.28" points="554.26,-18.27 543.72,-19.27 552.59,-25.06 554.26,-18.27"/>
</g>
<!-- &#45;3&#45;&gt;4 -->
<g id="edge14" class="edge">
<title>&#45;3&#45;&gt;4</title>
<path fill="none" stroke="red" stroke-width="0.47" d="M719.19,-68.56C716.37,-67.51 713.36,-66.49 710.5,-65.7 621.32,-41.12 592.44,-61.3 505.5,-29.7 504.63,-29.38 503.75,-29.04 502.88,-28.66"/>
<polygon fill="red" stroke="red" stroke-width="0.47" points="504.3,-25.46 493.8,-24.05 501.13,-31.7 504.3,-25.46"/>
</g>
<!-- &#45;4 -->
<g id="node4" class="node">
<title>&#45;4</title>
<polygon fill="lightgray" stroke="black" points="880.5,-83.7 856.5,-83.7 856.5,-65.7 880.5,-65.7 880.5,-83.7"/>
<text text-anchor="middle" x="868.5" y="-72.5" font-family="Times New Roman,serif" font-size="9.00">&#45;4</text>
</g>
<!-- &#45;4&#45;&gt;1 -->
<g id="edge15" class="edge">
<title>&#45;4&#45;&gt;1</title>
<path fill="none" stroke="red" stroke-width="0.59" d="M856.24,-68.39C853.41,-67.35 850.39,-66.37 847.5,-65.7 677.94,-26.35 623.39,-82.42 457.5,-29.7 456.45,-29.36 455.39,-28.98 454.33,-28.55"/>
<polygon fill="red" stroke="red" stroke-width="0.59" points="455.74,-25.34 445.24,-23.97 452.59,-31.59 455.74,-25.34"/>
</g>
<!-- &#45;4&#45;&gt;2 -->
<g id="edge16" class="edge">
<title>&#45;4&#45;&gt;2</title>
<path fill="none" stroke="green" stroke-width="0.16" d="M856.24,-68.37C853.42,-67.33 850.39,-66.35 847.5,-65.7 657.01,-22.5 595.94,-87.92 409.5,-29.7 408.44,-29.37 407.38,-28.99 406.33,-28.56"/>
<polygon fill="green" stroke="green" stroke-width="0.16" points="407.74,-25.35 397.23,-23.99 404.59,-31.61 407.74,-25.35"/>
</g>
<!-- &#45;4&#45;&gt;3 -->
<g id="edge17" class="edge">
<title>&#45;4&#45;&gt;3</title>
<path fill="none" stroke="red" stroke-width="0.15" d="M856.2,-68.52C853.38,-67.47 850.37,-66.46 847.5,-65.7 740.38,-37.23 608.37,-22.95 554.33,-17.96"/>
<polygon fill="red" stroke="red" stroke-width="0.15" points="554.58,-14.47 544.31,-17.06 553.95,-21.44 554.58,-14.47"/>
</g>
<!-- &#45;4&#45;&gt;4 -->
<g id="edge18" class="edge">
<title>&#45;4&#45;&gt;4</title>
<path fill="none" stroke="red" stroke-width="0.32" d="M856.23,-68.42C853.41,-67.37 850.38,-66.39 847.5,-65.7 698.84,-30.2 650.86,-76.92 505.5,-29.7 504.45,-29.36 503.39,-28.96 502.34,-28.53"/>
<polygon fill="red" stroke="red" stroke-width="0.32" points="503.75,-25.33 493.25,-23.93 500.59,-31.57 503.75,-25.33"/>
</g>
<!-- &#45;5 -->
<g id="node5" class="node">
<title>&#45;5</title>
<polygon fill="lightgray" stroke="black" points="161.5,-83.7 137.5,-83.7 137.5,-65.7 161.5,-65.7 161.5,-83.7"/>
<text text-anchor="middle" x="149.5" y="-72.5" font-family="Times New Roman,serif" font-size="9.00">&#45;5</text>
</g>
<!-- &#45;5&#45;&gt;0 -->
<g id="edge19" class="edge">
<title>&#45;5&#45;&gt;0</title>
<path fill="none" stroke="green" stroke-width="0.15" stroke-dasharray="1,5" d="M161.88,-68.81C164.7,-67.74 167.69,-66.65 170.5,-65.7 220.7,-48.67 280.4,-31.6 313.09,-22.52"/>
<polygon fill="green" stroke="green" stroke-width="0.15" points="314.38,-25.8 323.09,-19.76 312.52,-19.05 314.38,-25.8"/>
</g>
<!-- &#45;5&#45;&gt;1 -->
<g id="edge20" class="edge">
<title>&#45;5&#45;&gt;1</title>
<path fill="none" stroke="green" stroke-width="0.49" d="M161.79,-68.51C164.62,-67.46 167.63,-66.45 170.5,-65.7 274.4,-38.42 308.1,-65.16 409.5,-29.7 410.37,-29.39 411.25,-29.05 412.13,-28.69"/>
<polygon fill="green" stroke="green" stroke-width="0.49" points="413.87,-31.73 421.22,-24.11 410.72,-25.48 413.87,-31.73"/>
</g>
<!-- &#45;5&#45;&gt;2 -->
<g id="edge21" class="edge">
<title>&#45;5&#45;&gt;2</title>
<path fill="none" stroke="green" stroke-width="0.39" d="M161.81,-68.59C164.64,-67.54 167.65,-66.5 170.5,-65.7 253.63,-42.23 280.5,-59.71 361.5,-29.7 362.37,-29.38 363.24,-29.03 364.11,-28.65"/>
<polygon fill="green" stroke="green" stroke-width="0.39" points="365.87,-31.68 373.19,-24.01 362.69,-25.45 365.87,-31.68"/>
</g>
<!-- &#45;5&#45;&gt;3 -->
<g id="edge22" class="edge">
<title>&#45;5&#45;&gt;3</title>
<path fill="none" stroke="red" stroke-width="0.69" d="M161.77,-68.42C164.59,-67.38 167.62,-66.39 170.5,-65.7 316.11,-30.76 363.13,-76.12 505.5,-29.7 506.38,-29.41 507.26,-29.09 508.15,-28.74"/>
<polygon fill="red" stroke="red" stroke-width="0.69" points="509.86,-31.8 517.26,-24.22 506.74,-25.53 509.86,-31.8"/>
</g>
<!-- &#45;5&#45;&gt;4 -->
<g id="edge23" class="edge">
<title>&#45;5&#45;&gt;4</title>
<path fill="none" stroke="red" stroke-width="0.72" d="M161.78,-68.46C164.6,-67.41 167.62,-66.42 170.5,-65.7 295.24,-34.59 335.64,-70.64 457.5,-29.7 458.38,-29.4 459.26,-29.07 460.14,-28.72"/>
<polygon fill="red" stroke="red" stroke-width="0.72" points="461.86,-31.77 469.24,-24.17 458.73,-25.51 461.86,-31.77"/>
</g>
<!-- &#45;6 -->
<g id="node6" class="node">
<title>&#45;6</title>
<polygon fill="lightgray" stroke="black" points="203.5,-83.7 179.5,-83.7 179.5,-65.7 203.5,-65.7 203.5,-83.7"/>
<text text-anchor="middle" x="191.5" y="-72.5" font-family="Times New Roman,serif" font-size="9.00">&#45;6</text>
</g>
<!-- &#45;6&#45;&gt;0 -->
<g id="edge24" class="edge">
<title>&#45;6&#45;&gt;0</title>
<path fill="none" stroke="red" stroke-width="0.27" d="M203.7,-68.87C227.96,-59.25 282.63,-37.59 314.06,-25.13"/>
<polygon fill="red" stroke="red" stroke-width="0.27" points="315.75,-28.23 323.76,-21.29 313.17,-21.72 315.75,-28.23"/>
</g>
<!-- &#45;6&#45;&gt;1 -->
<g id="edge25" class="edge">
<title>&#45;6&#45;&gt;1</title>
<path fill="none" stroke="green" stroke-width="0.71" d="M203.81,-68.58C206.63,-67.53 209.64,-66.5 212.5,-65.7 298.22,-41.76 325.95,-60.39 409.5,-29.7 410.37,-29.38 411.24,-29.03 412.12,-28.66"/>
<polygon fill="green" stroke="green" stroke-width="0.71" points="413.87,-31.69 421.19,-24.03 410.69,-25.45 413.87,-31.69"/>
</g>
<!-- &#45;6&#45;&gt;2 -->
<g id="edge26" class="edge">
<title>&#45;6&#45;&gt;2</title>
<path fill="none" stroke="green" stroke-width="0.37" d="M203.85,-68.7C206.67,-67.64 209.67,-66.58 212.5,-65.7 277.57,-45.53 298.24,-54.98 361.5,-29.7 362.36,-29.35 363.23,-28.98 364.09,-28.59"/>
<polygon fill="green" stroke="green" stroke-width="0.37" points="365.88,-31.61 373.14,-23.88 362.65,-25.4 365.88,-31.61"/>
</g>
<!-- &#45;6&#45;&gt;3 -->
<g id="edge27" class="edge">
<title>&#45;6&#45;&gt;3</title>
<path fill="none" stroke="green" stroke-width="0.18" d="M203.78,-68.45C206.6,-67.41 209.62,-66.41 212.5,-65.7 339.84,-34.11 381.08,-71.32 505.5,-29.7 506.38,-29.4 507.26,-29.08 508.14,-28.72"/>
<polygon fill="green" stroke="green" stroke-width="0.18" points="509.86,-31.78 517.25,-24.18 506.73,-25.51 509.86,-31.78"/>
</g>
<!-- &#45;6&#45;&gt;4 -->
<g id="edge28" class="edge">
<title>&#45;6&#45;&gt;4</title>
<path fill="none" stroke="red" stroke-width="0.27" d="M203.79,-68.5C206.61,-67.46 209.63,-66.45 212.5,-65.7 319,-37.94 353.55,-65.84 457.5,-29.7 458.37,-29.39 459.25,-29.06 460.13,-28.69"/>
<polygon fill="red" stroke="red" stroke-width="0.27" points="461.87,-31.74 469.22,-24.12 458.72,-25.49 461.87,-31.74"/>
</g>
<!-- &#45;7 -->
<g id="node7" class="node">
<title>&#45;7</title>
<polygon fill="lightgray" stroke="black" points="245.5,-83.7 221.5,-83.7 221.5,-65.7 245.5,-65.7 245.5,-83.7"/>
<text text-anchor="middle" x="233.5" y="-72.5" font-family="Times New Roman,serif" font-size="9.00">&#45;7</text>
</g>
<!-- &#45;7&#45;&gt;0 -->
<g id="edge29" class="edge">
<title>&#45;7&#45;&gt;0</title>
<path fill="none" stroke="green" stroke-width="0.41" d="M245.84,-66.84C263.1,-57.23 294.73,-39.64 315.93,-27.85"/>
<polygon fill="green" stroke="green" stroke-width="0.41" points="317.82,-30.8 324.85,-22.88 314.41,-24.69 317.82,-30.8"/>
</g>
<!-- &#45;7&#45;&gt;1 -->
<g id="edge30" class="edge">
<title>&#45;7&#45;&gt;1</title>
<path fill="none" stroke="red" stroke-width="0.29" d="M245.84,-68.68C248.66,-67.62 251.66,-66.56 254.5,-65.7 322.14,-45.06 343.71,-55.65 409.5,-29.7 410.36,-29.36 411.23,-28.99 412.1,-28.6"/>
<polygon fill="red" stroke="red" stroke-width="0.29" points="413.88,-31.62 421.15,-23.91 410.66,-25.41 413.88,-31.62"/>
</g>
<!-- &#45;7&#45;&gt;2 -->
<g id="edge31" class="edge">
<title>&#45;7&#45;&gt;2</title>
<path fill="none" stroke="green" stroke-width="0.11" d="M245.91,-68.88C248.72,-67.81 251.71,-66.7 254.5,-65.7 301.73,-48.76 315.77,-50.34 361.5,-29.7 362.34,-29.32 363.2,-28.92 364.05,-28.5"/>
<polygon fill="green" stroke="green" stroke-width="0.11" points="365.89,-31.48 373.04,-23.66 362.58,-25.32 365.89,-31.48"/>
</g>
<!-- &#45;7&#45;&gt;3 -->
<g id="edge32" class="edge">
<title>&#45;7&#45;&gt;3</title>
<path fill="none" stroke="green" stroke-width="0.71" d="M245.79,-68.5C248.61,-67.45 251.63,-66.44 254.5,-65.7 363.6,-37.47 398.99,-66.53 505.5,-29.7 506.38,-29.4 507.25,-29.06 508.13,-28.7"/>
<polygon fill="green" stroke="green" stroke-width="0.71" points="509.86,-31.75 517.23,-24.13 506.72,-25.49 509.86,-31.75"/>
</g>
<!-- &#45;7&#45;&gt;4 -->
<g id="edge33" class="edge">
<title>&#45;7&#45;&gt;4</title>
<path fill="none" stroke="green" stroke-width="0.33" d="M245.81,-68.57C248.63,-67.51 251.64,-66.49 254.5,-65.7 342.82,-41.28 371.41,-61.07 457.5,-29.7 458.37,-29.38 459.25,-29.03 460.12,-28.66"/>
<polygon fill="green" stroke="green" stroke-width="0.33" points="461.87,-31.7 469.2,-24.04 458.7,-25.46 461.87,-31.7"/>
</g>
<!-- &#45;8 -->
<g id="node8" class="node">
<title>&#45;8</title>
<polygon fill="lightgray" stroke="black" points="287.5,-83.7 263.5,-83.7 263.5,-65.7 287.5,-65.7 287.5,-83.7"/>
<text text-anchor="middle" x="275.5" y="-72.5" font-family="Times New Roman,serif" font-size="9.00">&#45;8</text>
</g>
<!-- &#45;8&#45;&gt;0 -->
<g id="edge34" class="edge">
<title>&#45;8&#45;&gt;0</title>
<path fill="none" stroke="red" stroke-width="0.22" d="M284.12,-65.65C293.2,-57.18 307.78,-43.58 319.4,-32.73"/>
<polygon fill="red" stroke="red" stroke-width="0.22" points="321.95,-35.14 326.88,-25.76 317.18,-30.02 321.95,-35.14"/>
</g>
<!-- &#45;8&#45;&gt;1 -->
<g id="edge35" class="edge">
<title>&#45;8&#45;&gt;1</title>
<path fill="none" stroke="green" stroke-width="0.34" d="M287.89,-68.85C290.71,-67.78 293.7,-66.68 296.5,-65.7 346.26,-48.31 361.28,-50.99 409.5,-29.7 410.35,-29.32 411.2,-28.93 412.06,-28.52"/>
<polygon fill="green" stroke="green" stroke-width="0.34" points="413.89,-31.51 421.06,-23.7 410.59,-25.33 413.89,-31.51"/>
</g>
<!-- &#45;8&#45;&gt;2 -->
<g id="edge36" class="edge">
<title>&#45;8&#45;&gt;2</title>
<path fill="none" stroke="green" stroke-width="0.12" d="M287.56,-67.77C304.29,-59.49 335.42,-43.88 361.5,-29.7 362.31,-29.26 363.14,-28.8 363.97,-28.34"/>
<polygon fill="green" stroke="green" stroke-width="0.12" points="365.89,-31.28 372.86,-23.3 362.44,-25.19 365.89,-31.28"/>
</g>
<!-- &#45;8&#45;&gt;3 -->
<g id="edge37" class="edge">
<title>&#45;8&#45;&gt;3</title>
<path fill="none" stroke="green" stroke-width="0.17" d="M287.8,-68.56C290.63,-67.5 293.64,-66.48 296.5,-65.7 387.41,-40.8 416.86,-61.75 505.5,-29.7 506.37,-29.38 507.25,-29.04 508.12,-28.67"/>
<polygon fill="green" stroke="green" stroke-width="0.17" points="509.87,-31.7 517.2,-24.05 506.7,-25.46 509.87,-31.7"/>
</g>
<!-- &#45;8&#45;&gt;4 -->
<g id="edge38" class="edge">
<title>&#45;8&#45;&gt;4</title>
<path fill="none" stroke="green" stroke-width="0.74" d="M287.83,-68.66C290.66,-67.6 293.66,-66.55 296.5,-65.7 366.72,-44.59 389.18,-56.33 457.5,-29.7 458.36,-29.36 459.23,-29 460.1,-28.61"/>
<polygon fill="green" stroke="green" stroke-width="0.74" points="461.88,-31.63 469.15,-23.93 458.66,-25.41 461.88,-31.63"/>
</g>
<!-- &#45;9 -->
<g id="node9" class="node">
<title>&#45;9</title>
<polygon fill="lightgray" stroke="black" points="329.5,-83.7 305.5,-83.7 305.5,-65.7 329.5,-65.7 329.5,-83.7"/>
<text text-anchor="middle" x="317.5" y="-72.5" font-family="Times New Roman,serif" font-size="9.00">&#45;9</text>
</g>
<!-- &#45;9&#45;&gt;0 -->
<g id="edge39" class="edge">
<title>&#45;9&#45;&gt;0</title>
<path fill="none" stroke="green" stroke-width="0.19" d="M320.28,-65.65C322.68,-58.72 326.26,-48.37 329.53,-38.89"/>
<polygon fill="green" stroke="green" stroke-width="0.19" points="332.94,-39.75 332.9,-29.16 326.32,-37.46 332.94,-39.75"/>
</g>
<!-- &#45;9&#45;&gt;1 -->
<g id="edge40" class="edge">
<title>&#45;9&#45;&gt;1</title>
<path fill="none" stroke="green" stroke-width="0.47" d="M329.56,-68.29C347.27,-60.27 381.3,-44.55 409.5,-29.7 410.32,-29.27 411.15,-28.82 411.99,-28.37"/>
<polygon fill="green" stroke="green" stroke-width="0.47" points="413.89,-31.31 420.9,-23.37 410.46,-25.21 413.89,-31.31"/>
</g>
<!-- &#45;9&#45;&gt;2 -->
<g id="edge41" class="edge">
<title>&#45;9&#45;&gt;2</title>
<path fill="none" stroke="red" stroke-width="0.16" d="M326.96,-65.65C337.13,-57 353.6,-42.99 366.47,-32.03"/>
<polygon fill="red" stroke="red" stroke-width="0.16" points="368.97,-34.51 374.32,-25.36 364.43,-29.18 368.97,-34.51"/>
</g>
<!-- &#45;9&#45;&gt;3 -->
<g id="edge42" class="edge">
<title>&#45;9&#45;&gt;3</title>
<path fill="none" stroke="green" stroke-width="0.2" d="M329.51,-69C332.72,-67.83 336.22,-66.65 339.5,-65.7 412.03,-44.75 435.07,-56.89 505.5,-29.7 506.36,-29.36 507.23,-29 508.1,-28.62"/>
<polygon fill="green" stroke="green" stroke-width="0.2" points="509.88,-31.64 517.16,-23.94 506.67,-25.42 509.88,-31.64"/>
</g>
<!-- &#45;9&#45;&gt;4 -->
<g id="edge43" class="edge">
<title>&#45;9&#45;&gt;4</title>
<path fill="none" stroke="green" stroke-width="0.36" d="M329.56,-69.18C332.78,-68.01 336.26,-66.78 339.5,-65.7 391.51,-48.32 407.21,-51.54 457.5,-29.7 458.35,-29.33 459.21,-28.94 460.07,-28.53"/>
<polygon fill="green" stroke="green" stroke-width="0.36" points="461.89,-31.52 469.07,-23.74 458.6,-25.34 461.89,-31.52"/>
</g>
<!-- &#45;10 -->
<g id="node10" class="node">
<title>&#45;10</title>
<polygon fill="lightgray" stroke="black" points="377,-83.7 348,-83.7 348,-65.7 377,-65.7 377,-83.7"/>
<text text-anchor="middle" x="362.5" y="-72.5" font-family="Times New Roman,serif" font-size="9.00">&#45;10</text>
</g>
<!-- &#45;10&#45;&gt;0 -->
<g id="edge44" class="edge">
<title>&#45;10&#45;&gt;0</title>
<path fill="none" stroke="red" stroke-width="0.17" d="M359.02,-65.65C355.92,-58.48 351.24,-47.64 347.03,-37.91"/>
<polygon fill="red" stroke="red" stroke-width="0.17" points="350.24,-36.51 343.06,-28.71 343.81,-39.28 350.24,-36.51"/>
</g>
<!-- &#45;10&#45;&gt;1 -->
<g id="edge45" class="edge">
<title>&#45;10&#45;&gt;1</title>
<path fill="none" stroke="green" stroke-width="0.45" d="M372.37,-65.65C383.23,-56.81 400.93,-42.39 414.49,-31.34"/>
<polygon fill="green" stroke="green" stroke-width="0.45" points="416.77,-34 422.31,-24.97 412.35,-28.57 416.77,-34"/>
</g>
<!-- &#45;10&#45;&gt;2 -->
<g id="edge46" class="edge">
<title>&#45;10&#45;&gt;2</title>
<path fill="none" stroke="red" stroke-width="0.19" d="M365.7,-65.65C368.48,-58.65 372.66,-48.15 376.46,-38.59"/>
<polygon fill="red" stroke="red" stroke-width="0.19" points="379.77,-39.74 380.21,-29.16 373.26,-37.16 379.77,-39.74"/>
</g>
<!-- &#45;10&#45;&gt;3 -->
<g id="edge47" class="edge">
<title>&#45;10&#45;&gt;3</title>
<path fill="none" stroke="green" stroke-width="0.31" d="M377.2,-68.73C380.27,-67.71 383.49,-66.66 386.5,-65.7 439.16,-48.96 454.79,-51.65 505.5,-29.7 506.35,-29.33 507.21,-28.94 508.07,-28.53"/>
<polygon fill="green" stroke="green" stroke-width="0.31" points="509.89,-31.53 517.08,-23.74 506.6,-25.35 509.89,-31.53"/>
</g>
<!-- &#45;10&#45;&gt;4 -->
<g id="edge48" class="edge">
<title>&#45;10&#45;&gt;4</title>
<path fill="none" stroke="red" stroke-width="0.22" stroke-dasharray="1,5" d="M377.18,-67.39C396.02,-59.18 429.59,-44.18 457.5,-29.7 458.32,-29.27 459.16,-28.83 460,-28.38"/>
<polygon fill="red" stroke="red" stroke-width="0.22" points="461.89,-31.33 468.91,-23.4 458.48,-25.22 461.89,-31.33"/>
</g>
<!-- &#45;11 -->
<g id="node11" class="node">
<title>&#45;11</title>
<polygon fill="lightgray" stroke="black" points="424,-83.7 395,-83.7 395,-65.7 424,-65.7 424,-83.7"/>
<text text-anchor="middle" x="409.5" y="-72.5" font-family="Times New Roman,serif" font-size="9.00">&#45;11</text>
</g>
<!-- &#45;11&#45;&gt;0 -->
<g id="edge49" class="edge">
<title>&#45;11&#45;&gt;0</title>
<path fill="none" stroke="red" stroke-width="0.18" d="M399.49,-65.65C388.48,-56.81 370.53,-42.39 356.77,-31.34"/>
<polygon fill="red" stroke="red" stroke-width="0.18" points="358.84,-28.5 348.85,-24.97 354.45,-33.96 358.84,-28.5"/>
</g>
<!-- &#45;11&#45;&gt;1 -->
<g id="edge50" class="edge">
<title>&#45;11&#45;&gt;1</title>
<path fill="none" stroke="green" stroke-width="0.24" d="M412.84,-65.65C415.78,-58.56 420.22,-47.87 424.22,-38.21"/>
<polygon fill="green" stroke="green" stroke-width="0.24" points="427.56,-39.29 428.16,-28.71 421.1,-36.61 427.56,-39.29"/>
</g>
<!-- &#45;11&#45;&gt;2 -->
<g id="edge51" class="edge">
<title>&#45;11&#45;&gt;2</title>
<path fill="none" stroke="green" stroke-width="0.4" stroke-dasharray="1,5" d="M406.16,-65.65C403.22,-58.56 398.78,-47.87 394.78,-38.21"/>
<polygon fill="green" stroke="green" stroke-width="0.4" points="397.9,-36.61 390.84,-28.71 391.44,-39.29 397.9,-36.61"/>
</g>
<!-- &#45;11&#45;&gt;3 -->
<g id="edge52" class="edge">
<title>&#45;11&#45;&gt;3</title>
<path fill="none" stroke="green" stroke-width="0.52" d="M424.01,-67.55C442.99,-59.4 477.15,-44.33 505.5,-29.7 506.32,-29.27 507.16,-28.83 508,-28.39"/>
<polygon fill="green" stroke="green" stroke-width="0.52" points="509.89,-31.34 516.92,-23.41 506.48,-25.22 509.89,-31.34"/>
</g>
<!-- &#45;11&#45;&gt;4 -->
<g id="edge53" class="edge">
<title>&#45;11&#45;&gt;4</title>
<path fill="none" stroke="red" stroke-width="0.1" stroke-dasharray="1,5" d="M419.51,-65.65C430.52,-56.81 448.47,-42.39 462.23,-31.34"/>
<polygon fill="red" stroke="red" stroke-width="0.1" points="464.55,-33.96 470.15,-24.97 460.16,-28.5 464.55,-33.96"/>
</g>
<!-- &#45;12 -->
<g id="node12" class="node">
<title>&#45;12</title>
<polygon fill="lightgray" stroke="black" points="791,-83.7 762,-83.7 762,-65.7 791,-65.7 791,-83.7"/>
<text text-anchor="middle" x="776.5" y="-72.5" font-family="Times New Roman,serif" font-size="9.00">&#45;12</text>
</g>
<!-- &#45;12&#45;&gt;0 -->
<g id="edge54" class="edge">
<title>&#45;12&#45;&gt;0</title>
<path fill="none" stroke="red" stroke-width="0.48" d="M761.92,-68.25C758.85,-67.26 755.59,-66.35 752.5,-65.7 581.7,-29.87 527.82,-82.54 361.5,-29.7 360.45,-29.36 359.39,-28.98 358.33,-28.55"/>
<polygon fill="red" stroke="red" stroke-width="0.48" points="359.74,-25.34 349.24,-23.97 356.59,-31.59 359.74,-25.34"/>
</g>
<!-- &#45;12&#45;&gt;3 -->
<g id="edge55" class="edge">
<title>&#45;12&#45;&gt;3</title>
<path fill="none" stroke="red" stroke-width="0.34" d="M761.85,-68.55C758.78,-67.55 755.55,-66.54 752.5,-65.7 681.09,-45.87 595.16,-28.44 553.92,-20.46"/>
<polygon fill="red" stroke="red" stroke-width="0.34" points="554.46,-17 543.97,-18.55 553.14,-23.87 554.46,-17"/>
</g>
<!-- &#45;12&#45;&gt;4 -->
<g id="edge56" class="edge">
<title>&#45;12&#45;&gt;4</title>
<path fill="none" stroke="green" stroke-width="0.45" d="M761.9,-68.37C758.82,-67.38 755.58,-66.43 752.5,-65.7 644.57,-40.06 610.31,-66.07 505.5,-29.7 504.63,-29.39 503.75,-29.06 502.87,-28.7"/>
<polygon fill="green" stroke="green" stroke-width="0.45" points="504.28,-25.49 493.77,-24.12 501.13,-31.74 504.28,-25.49"/>
</g>
<!-- &#45;13 -->
<g id="node13" class="node">
<title>&#45;13</title>
<polygon fill="lightgray" stroke="black" points="119,-83.7 90,-83.7 90,-65.7 119,-65.7 119,-83.7"/>
<text text-anchor="middle" x="104.5" y="-72.5" font-family="Times New Roman,serif" font-size="9.00">&#45;13</text>
</g>
<!-- &#45;13&#45;&gt;0 -->
<g id="edge57" class="edge">
<title>&#45;13&#45;&gt;0</title>
<path fill="none" stroke="red" stroke-width="0.26" d="M119.16,-68.59C122.23,-67.58 125.46,-66.57 128.5,-65.7 194.57,-46.85 273.75,-29.32 312.98,-20.97"/>
<polygon fill="red" stroke="red" stroke-width="0.26" points="313.88,-24.35 322.94,-18.86 312.44,-17.5 313.88,-24.35"/>
</g>
<!-- &#45;13&#45;&gt;1 -->
<g id="edge58" class="edge">
<title>&#45;13&#45;&gt;1</title>
<path fill="none" stroke="red" stroke-width="0.15" d="M119.09,-68.33C122.17,-67.34 125.42,-66.4 128.5,-65.7 251.25,-37.66 290.2,-69.95 409.5,-29.7 410.38,-29.4 411.26,-29.07 412.14,-28.72"/>
<polygon fill="red" stroke="red" stroke-width="0.15" points="413.86,-31.77 421.24,-24.17 410.73,-25.51 413.86,-31.77"/>
</g>
<!-- &#45;13&#45;&gt;2 -->
<g id="edge59" class="edge">
<title>&#45;13&#45;&gt;2</title>
<path fill="none" stroke="green" stroke-width="0.11" d="M119.11,-68.39C122.18,-67.4 125.43,-66.44 128.5,-65.7 230.34,-41.04 262.66,-64.48 361.5,-29.7 362.37,-29.39 363.25,-29.05 364.13,-28.69"/>
<polygon fill="green" stroke="green" stroke-width="0.11" points="365.87,-31.73 373.22,-24.1 362.71,-25.48 365.87,-31.73"/>
</g>
<!-- &#45;13&#45;&gt;3 -->
<g id="edge60" class="edge">
<title>&#45;13&#45;&gt;3</title>
<path fill="none" stroke="green" stroke-width="0.29" d="M119.08,-68.26C122.15,-67.27 125.41,-66.35 128.5,-65.7 293.17,-30.86 345.17,-80.93 505.5,-29.7 506.55,-29.36 507.61,-28.97 508.67,-28.55"/>
<polygon fill="green" stroke="green" stroke-width="0.29" points="510.41,-31.59 517.76,-23.96 507.26,-25.34 510.41,-31.59"/>
</g>
<!-- &#45;14 -->
<g id="node14" class="node">
<title>&#45;14</title>
<polygon fill="lightgray" stroke="black" points="29,-83.7 0,-83.7 0,-65.7 29,-65.7 29,-83.7"/>
<text text-anchor="middle" x="14.5" y="-72.5" font-family="Times New Roman,serif" font-size="9.00">&#45;14</text>
</g>
<!-- &#45;14&#45;&gt;0 -->
<g id="edge61" class="edge">
<title>&#45;14&#45;&gt;0</title>
<path fill="none" stroke="red" stroke-width="0.37" d="M29.12,-68.42C32.19,-67.43 35.43,-66.46 38.5,-65.7 138.66,-40.82 260.83,-24.8 312.51,-18.67"/>
<polygon fill="red" stroke="red" stroke-width="0.37" points="313.18,-22.12 322.71,-17.48 312.37,-15.16 313.18,-22.12"/>
</g>
<!-- &#45;14&#45;&gt;1 -->
<g id="edge62" class="edge">
<title>&#45;14&#45;&gt;1</title>
<path fill="none" stroke="green" stroke-width="0.11" d="M29.08,-68.26C32.15,-67.28 35.41,-66.36 38.5,-65.7 200.55,-31.29 251.74,-80.24 409.5,-29.7 410.55,-29.36 411.61,-28.97 412.66,-28.54"/>
<polygon fill="green" stroke="green" stroke-width="0.11" points="414.41,-31.58 421.76,-23.96 411.26,-25.34 414.41,-31.58"/>
</g>
<!-- &#45;14&#45;&gt;2 -->
<g id="edge63" class="edge">
<title>&#45;14&#45;&gt;2</title>
<path fill="none" stroke="red" stroke-width="0.44" d="M29.09,-68.29C32.16,-67.31 35.41,-66.38 38.5,-65.7 179.58,-34.69 224.26,-74.75 361.5,-29.7 362.38,-29.41 363.26,-29.09 364.14,-28.73"/>
<polygon fill="red" stroke="red" stroke-width="0.44" points="365.86,-31.79 373.25,-24.21 362.74,-25.52 365.86,-31.79"/>
</g>
<!-- &#45;15 -->
<g id="node15" class="node">
<title>&#45;15</title>
<polygon fill="lightgray" stroke="black" points="838,-83.7 809,-83.7 809,-65.7 838,-65.7 838,-83.7"/>
<text text-anchor="middle" x="823.5" y="-72.5" font-family="Times New Roman,serif" font-size="9.00">&#45;15</text>
</g>
<!-- &#45;15&#45;&gt;1 -->
<g id="edge64" class="edge">
<title>&#45;15&#45;&gt;1</title>
<path fill="none" stroke="red" stroke-width="0.21" d="M808.55,-67.94C805.9,-67.08 803.14,-66.29 800.5,-65.7 650.9,-32.3 603.29,-77.04 457.5,-29.7 456.45,-29.36 455.39,-28.96 454.34,-28.53"/>
<polygon fill="red" stroke="red" stroke-width="0.21" points="455.75,-25.33 445.25,-23.94 452.59,-31.57 455.75,-25.33"/>
</g>
<!-- &#45;15&#45;&gt;2 -->
<g id="edge65" class="edge">
<title>&#45;15&#45;&gt;2</title>
<path fill="none" stroke="green" stroke-width="0.29" d="M808.56,-67.91C805.9,-67.06 803.14,-66.27 800.5,-65.7 629.94,-28.76 575.82,-82.54 409.5,-29.7 408.45,-29.36 407.39,-28.98 406.33,-28.55"/>
<polygon fill="green" stroke="green" stroke-width="0.29" points="407.74,-25.34 397.24,-23.97 404.59,-31.59 407.74,-25.34"/>
</g>
<!-- &#45;15&#45;&gt;3 -->
<g id="edge66" class="edge">
<title>&#45;15&#45;&gt;3</title>
<path fill="none" stroke="green" stroke-width="0.17" d="M808.51,-68.11C805.86,-67.24 803.12,-66.39 800.5,-65.7 711.04,-42.06 602.05,-25.68 554.12,-19.09"/>
<polygon fill="green" stroke="green" stroke-width="0.17" points="554.45,-15.6 544.07,-17.73 553.51,-22.54 554.45,-15.6"/>
</g>
<!-- &#45;15&#45;&gt;4 -->
<g id="edge67" class="edge">
<title>&#45;15&#45;&gt;4</title>
<path fill="none" stroke="red" stroke-width="0.22" stroke-dasharray="1,5" d="M808.54,-67.98C805.89,-67.12 803.14,-66.31 800.5,-65.7 671.84,-35.83 630.78,-71.55 505.5,-29.7 504.62,-29.41 503.74,-29.08 502.86,-28.72"/>
<polygon fill="red" stroke="red" stroke-width="0.22" points="504.27,-25.51 493.75,-24.18 501.14,-31.78 504.27,-25.51"/>
</g>
<!-- &#45;16 -->
<g id="node16" class="node">
<title>&#45;16</title>
<polygon fill="lightgray" stroke="black" points="471,-83.7 442,-83.7 442,-65.7 471,-65.7 471,-83.7"/>
<text text-anchor="middle" x="456.5" y="-72.5" font-family="Times New Roman,serif" font-size="9.00">&#45;16</text>
</g>
<!-- &#45;16&#45;&gt;0 -->
<g id="edge68" class="edge">
<title>&#45;16&#45;&gt;0</title>
<path fill="none" stroke="green" stroke-width="0.37" d="M441.82,-67.39C422.98,-59.18 389.41,-44.18 361.5,-29.7 360.68,-29.27 359.84,-28.83 359,-28.38"/>
<polygon fill="green" stroke="green" stroke-width="0.37" points="360.52,-25.22 350.09,-23.4 357.11,-31.33 360.52,-25.22"/>
</g>
<!-- &#45;16&#45;&gt;1 -->
<g id="edge69" class="edge">
<title>&#45;16&#45;&gt;1</title>
<path fill="none" stroke="green" stroke-width="0.36" stroke-dasharray="1,5" d="M453.3,-65.65C450.52,-58.65 446.34,-48.15 442.54,-38.59"/>
<polygon fill="green" stroke="green" stroke-width="0.36" points="445.74,-37.16 438.79,-29.16 439.23,-39.74 445.74,-37.16"/>
</g>
<!-- &#45;16&#45;&gt;2 -->
<g id="edge70" class="edge">
<title>&#45;16&#45;&gt;2</title>
<path fill="none" stroke="green" stroke-width="0.15" d="M446.63,-65.65C435.77,-56.81 418.07,-42.39 404.51,-31.34"/>
<polygon fill="green" stroke="green" stroke-width="0.15" points="406.65,-28.57 396.69,-24.97 402.23,-34 406.65,-28.57"/>
</g>
<!-- &#45;16&#45;&gt;3 -->
<g id="edge71" class="edge">
<title>&#45;16&#45;&gt;3</title>
<path fill="none" stroke="red" stroke-width="0.29" stroke-dasharray="1,5" d="M466.65,-65.65C477.81,-56.81 496.01,-42.39 509.96,-31.34"/>
<polygon fill="red" stroke="red" stroke-width="0.29" points="512.33,-33.92 517.99,-24.97 507.98,-28.44 512.33,-33.92"/>
</g>
<!-- &#45;16&#45;&gt;4 -->
<g id="edge72" class="edge">
<title>&#45;16&#45;&gt;4</title>
<path fill="none" stroke="red" stroke-width="0.18" d="M459.98,-65.65C463.08,-58.48 467.76,-47.64 471.97,-37.91"/>
<polygon fill="red" stroke="red" stroke-width="0.18" points="475.19,-39.28 475.94,-28.71 468.76,-36.51 475.19,-39.28"/>
</g>
<!-- &#45;17 -->
<g id="node17" class="node">
<title>&#45;17</title>
<polygon fill="lightgray" stroke="black" points="518,-83.7 489,-83.7 489,-65.7 518,-65.7 518,-83.7"/>
<text text-anchor="middle" x="503.5" y="-72.5" font-family="Times New Roman,serif" font-size="9.00">&#45;17</text>
</g>
<!-- &#45;17&#45;&gt;0 -->
<g id="edge73" class="edge">
<title>&#45;17&#45;&gt;0</title>
<path fill="none" stroke="red" stroke-width="1.39" d="M488.93,-68.53C486.14,-67.57 483.23,-66.59 480.5,-65.7 427.95,-48.62 412.21,-51.65 361.5,-29.7 360.65,-29.33 359.79,-28.94 358.93,-28.53"/>
<polygon fill="red" stroke="red" stroke-width="1.39" points="360.4,-25.35 349.92,-23.74 357.11,-31.53 360.4,-25.35"/>
</g>
<!-- &#45;17&#45;&gt;1 -->
<g id="edge74" class="edge">
<title>&#45;17&#45;&gt;1</title>
<path fill="none" stroke="red" stroke-width="0.69" stroke-dasharray="1,5" d="M493.77,-65.65C483.17,-56.89 465.94,-42.66 452.62,-31.65"/>
<polygon fill="red" stroke="red" stroke-width="0.69" points="454.47,-28.64 444.53,-24.97 450.01,-34.04 454.47,-28.64"/>
</g>
<!-- &#45;17&#45;&gt;2 -->
<g id="edge75" class="edge">
<title>&#45;17&#45;&gt;2</title>
<path fill="none" stroke="red" stroke-width="0.47" d="M488.98,-67.37C470.35,-59.14 437.14,-44.11 409.5,-29.7 408.68,-29.27 407.85,-28.83 407.01,-28.38"/>
<polygon fill="red" stroke="red" stroke-width="0.47" points="408.53,-25.22 398.09,-23.39 405.11,-31.32 408.53,-25.22"/>
</g>
<!-- &#45;17&#45;&gt;3 -->
<g id="edge76" class="edge">
<title>&#45;17&#45;&gt;3</title>
<path fill="none" stroke="green" stroke-width="0.37" d="M507.12,-65.65C510.34,-58.48 515.21,-47.64 519.59,-37.91"/>
<polygon fill="green" stroke="green" stroke-width="0.37" points="522.81,-39.27 523.72,-28.71 516.43,-36.4 522.81,-39.27"/>
</g>
<!-- &#45;17&#45;&gt;4 -->
<g id="edge77" class="edge">
<title>&#45;17&#45;&gt;4</title>
<path fill="none" stroke="green" stroke-width="0.16" d="M500.44,-65.65C497.78,-58.65 493.78,-48.15 490.15,-38.59"/>
<polygon fill="green" stroke="green" stroke-width="0.16" points="493.39,-37.26 486.56,-29.16 486.84,-39.75 493.39,-37.26"/>
</g>
<!-- &#45;18 -->
<g id="node18" class="node">
<title>&#45;18</title>
<polygon fill="lightgray" stroke="black" points="565,-83.7 536,-83.7 536,-65.7 565,-65.7 565,-83.7"/>
<text text-anchor="middle" x="550.5" y="-72.5" font-family="Times New Roman,serif" font-size="9.00">&#45;18</text>
</g>
<!-- &#45;18&#45;&gt;0 -->
<g id="edge78" class="edge">
<title>&#45;18&#45;&gt;0</title>
<path fill="none" stroke="green" stroke-width="0.25" d="M535.98,-68.35C533.19,-67.41 530.27,-66.48 527.5,-65.7 454.83,-45.26 431.93,-56.89 361.5,-29.7 360.64,-29.36 359.77,-29 358.9,-28.62"/>
<polygon fill="green" stroke="green" stroke-width="0.25" points="360.33,-25.42 349.84,-23.94 357.12,-31.64 360.33,-25.42"/>
</g>
<!-- &#45;18&#45;&gt;1 -->
<g id="edge79" class="edge">
<title>&#45;18&#45;&gt;1</title>
<path fill="none" stroke="green" stroke-width="0.19" stroke-dasharray="1,5" d="M535.82,-67.2C517.34,-58.92 484.71,-43.96 457.5,-29.7 456.68,-29.27 455.85,-28.83 455.01,-28.37"/>
<polygon fill="green" stroke="green" stroke-width="0.19" points="456.53,-25.21 446.1,-23.38 453.11,-31.32 456.53,-25.21"/>
</g>
<!-- &#45;18&#45;&gt;2 -->
<g id="edge80" class="edge">
<title>&#45;18&#45;&gt;2</title>
<path fill="none" stroke="green" stroke-width="0.52" d="M535.93,-68.53C533.14,-67.57 530.23,-66.59 527.5,-65.7 475.37,-48.69 459.79,-51.54 409.5,-29.7 408.65,-29.33 407.79,-28.94 406.93,-28.53"/>
<polygon fill="green" stroke="green" stroke-width="0.52" points="408.4,-25.34 397.93,-23.74 405.11,-31.52 408.4,-25.34"/>
</g>
<!-- &#45;18&#45;&gt;3 -->
<g id="edge81" class="edge">
<title>&#45;18&#45;&gt;3</title>
<path fill="none" stroke="green" stroke-width="0.59" d="M547.58,-65.65C545.04,-58.65 541.22,-48.15 537.75,-38.59"/>
<polygon fill="green" stroke="green" stroke-width="0.59" points="541.03,-37.36 534.33,-29.16 534.45,-39.75 541.03,-37.36"/>
</g>
<!-- &#45;18&#45;&gt;4 -->
<g id="edge82" class="edge">
<title>&#45;18&#45;&gt;4</title>
<path fill="none" stroke="red" stroke-width="0.18" d="M540.91,-65.65C530.46,-56.89 513.48,-42.66 500.35,-31.65"/>
<polygon fill="red" stroke="red" stroke-width="0.18" points="502.29,-28.71 492.38,-24.97 497.79,-34.07 502.29,-28.71"/>
</g>
<!-- &#45;19 -->
<g id="node19" class="node">
<title>&#45;19</title>
<polygon fill="lightgray" stroke="black" points="612,-83.7 583,-83.7 583,-65.7 612,-65.7 612,-83.7"/>
<text text-anchor="middle" x="597.5" y="-72.5" font-family="Times New Roman,serif" font-size="9.00">&#45;19</text>
</g>
<!-- &#45;19&#45;&gt;0 -->
<g id="edge83" class="edge">
<title>&#45;19&#45;&gt;0</title>
<path fill="none" stroke="red" stroke-width="0.37" d="M582.52,-68.08C579.87,-67.21 577.12,-66.37 574.5,-65.7 481.5,-41.84 451.84,-62.2 361.5,-29.7 360.63,-29.38 359.75,-29.04 358.88,-28.67"/>
<polygon fill="red" stroke="red" stroke-width="0.37" points="360.3,-25.47 349.8,-24.06 357.13,-31.71 360.3,-25.47"/>
</g>
<!-- &#45;19&#45;&gt;1 -->
<g id="edge84" class="edge">
<title>&#45;19&#45;&gt;1</title>
<path fill="none" stroke="red" stroke-width="0.54" d="M582.93,-68.54C580.14,-67.58 577.23,-66.59 574.5,-65.7 522.8,-48.76 507.38,-51.43 457.5,-29.7 456.65,-29.33 455.79,-28.94 454.94,-28.53"/>
<polygon fill="red" stroke="red" stroke-width="0.54" points="456.4,-25.34 445.93,-23.73 453.11,-31.52 456.4,-25.34"/>
</g>
<!-- &#45;19&#45;&gt;2 -->
<g id="edge85" class="edge">
<title>&#45;19&#45;&gt;2</title>
<path fill="none" stroke="green" stroke-width="0.21" stroke-dasharray="1,5" d="M582.98,-68.35C580.19,-67.41 577.27,-66.48 574.5,-65.7 502.26,-45.33 479.5,-56.78 409.5,-29.7 408.64,-29.36 407.77,-29 406.9,-28.62"/>
<polygon fill="green" stroke="green" stroke-width="0.21" points="408.33,-25.42 397.84,-23.94 405.12,-31.64 408.33,-25.42"/>
</g>
<!-- &#45;19&#45;&gt;3 -->
<g id="edge86" class="edge">
<title>&#45;19&#45;&gt;3</title>
<path fill="none" stroke="green" stroke-width="0.47" d="M588.04,-65.65C577.87,-57 561.4,-42.99 548.53,-32.03"/>
<polygon fill="green" stroke="green" stroke-width="0.47" points="550.57,-29.18 540.68,-25.36 546.03,-34.51 550.57,-29.18"/>
</g>
<!-- &#45;19&#45;&gt;4 -->
<g id="edge87" class="edge">
<title>&#45;19&#45;&gt;4</title>
<path fill="none" stroke="green" stroke-width="0.27" stroke-dasharray="1,5" d="M582.99,-67.18C564.71,-58.87 532.44,-43.89 505.5,-29.7 504.68,-29.27 503.85,-28.82 503.01,-28.37"/>
<polygon fill="green" stroke="green" stroke-width="0.27" points="504.54,-25.21 494.1,-23.37 501.11,-31.31 504.54,-25.21"/>
</g>
<!-- &#45;20 -->
<g id="node20" class="node">
<title>&#45;20</title>
<polygon fill="lightgray" stroke="black" points="659,-83.7 630,-83.7 630,-65.7 659,-65.7 659,-83.7"/>
<text text-anchor="middle" x="644.5" y="-72.5" font-family="Times New Roman,serif" font-size="9.00">&#45;20</text>
</g>
<!-- &#45;20&#45;&gt;0 -->
<g id="edge88" class="edge">
<title>&#45;20&#45;&gt;0</title>
<path fill="none" stroke="green" stroke-width="0.19" d="M629.53,-68.02C626.88,-67.15 624.13,-66.33 621.5,-65.7 508.08,-38.4 471.85,-67.55 361.5,-29.7 360.62,-29.4 359.74,-29.06 358.87,-28.7"/>
<polygon fill="green" stroke="green" stroke-width="0.19" points="360.28,-25.5 349.77,-24.14 357.14,-31.75 360.28,-25.5"/>
</g>
<!-- &#45;20&#45;&gt;1 -->
<g id="edge89" class="edge">
<title>&#45;20&#45;&gt;1</title>
<path fill="none" stroke="green" stroke-width="0.18" d="M629.98,-68.36C627.19,-67.41 624.27,-66.48 621.5,-65.7 549.69,-45.4 527.08,-56.67 457.5,-29.7 456.64,-29.36 455.77,-29 454.9,-28.62"/>
<polygon fill="green" stroke="green" stroke-width="0.18" points="456.33,-25.42 445.84,-23.94 453.12,-31.64 456.33,-25.42"/>
</g>
<!-- &#45;20&#45;&gt;2 -->
<g id="edge90" class="edge">
<title>&#45;20&#45;&gt;2</title>
<path fill="none" stroke="green" stroke-width="0.41" d="M629.52,-68.08C626.87,-67.21 624.12,-66.37 621.5,-65.7 528.93,-41.92 499.41,-62.09 409.5,-29.7 408.63,-29.38 407.75,-29.04 406.88,-28.67"/>
<polygon fill="green" stroke="green" stroke-width="0.41" points="408.3,-25.47 397.8,-24.06 405.13,-31.71 408.3,-25.47"/>
</g>
<!-- &#45;20&#45;&gt;3 -->
<g id="edge91" class="edge">
<title>&#45;20&#45;&gt;3</title>
<path fill="none" stroke="green" stroke-width="0.51" d="M629.94,-66.37C610.16,-56.42 574.63,-38.55 551.57,-26.95"/>
<polygon fill="green" stroke="green" stroke-width="0.51" points="553.04,-23.77 542.53,-22.4 549.89,-30.02 553.04,-23.77"/>
</g>
<!-- &#45;20&#45;&gt;4 -->
<g id="edge92" class="edge">
<title>&#45;20&#45;&gt;4</title>
<path fill="none" stroke="green" stroke-width="0.11" stroke-dasharray="1,5" d="M629.92,-68.55C627.13,-67.58 624.23,-66.6 621.5,-65.7 570.22,-48.83 554.96,-51.32 505.5,-29.7 504.65,-29.33 503.79,-28.93 502.94,-28.52"/>
<polygon fill="green" stroke="green" stroke-width="0.11" points="504.4,-25.34 493.93,-23.72 501.11,-31.52 504.4,-25.34"/>
</g>
</g>
</svg>
