<?xml version="1.0" encoding="UTF-8" standalone="no"?>
<!DOCTYPE svg PUBLIC "-//W3C//DTD SVG 1.1//EN"
 "http://www.w3.org/Graphics/SVG/1.1/DTD/svg11.dtd">
<!-- Generated by graphviz version 2.49.0 (20210828.1703)
 -->
<!-- Pages: 1 -->
<svg width="1084pt" height="303pt"
 viewBox="0.00 0.00 1083.74 302.94" xmlns="http://www.w3.org/2000/svg" xmlns:xlink="http://www.w3.org/1999/xlink">
<g id="graph0" class="graph" transform="scale(1 1) rotate(0) translate(4 298.94)">
<polygon fill="white" stroke="transparent" points="-4,4 -4,-298.94 1079.74,-298.94 1079.74,4 -4,4"/>
<!-- &#45;1 -->
<g id="node1" class="node">
<title>&#45;1</title>
<polygon fill="lightgray" stroke="black" points="116.38,-231.55 92.38,-231.55 92.38,-213.55 116.38,-213.55 116.38,-231.55"/>
<text text-anchor="middle" x="104.38" y="-220.35" font-family="Times New Roman,serif" font-size="9.00">&#45;1</text>
</g>
<!-- 0 -->
<g id="node21" class="node">
<title>0</title>
<ellipse fill="lightblue" stroke="black" cx="585.38" cy="-14.85" rx="14.7" ry="14.7"/>
<text text-anchor="middle" x="585.38" y="-12.65" font-family="Times New Roman,serif" font-size="9.00">0</text>
</g>
<!-- &#45;1&#45;&gt;0 -->
<g id="edge1" class="edge">
<title>&#45;1&#45;&gt;0</title>
<path fill="none" stroke="red" stroke-width="0.29" d="M107.61,-213.31C118.5,-186.65 156.75,-102.41 218.38,-65.7 276.58,-31.04 487.56,-19.67 560.43,-16.72"/>
<polygon fill="red" stroke="red" stroke-width="0.29" points="560.66,-20.22 570.52,-16.34 560.39,-13.22 560.66,-20.22"/>
</g>
<!-- 2 -->
<g id="node23" class="node">
<title>2</title>
<ellipse fill="lightblue" stroke="black" cx="481.38" cy="-153.32" rx="14.7" ry="14.7"/>
<text text-anchor="middle" x="481.38" y="-151.12" font-family="Times New Roman,serif" font-size="9.00">2</text>
</g>
<!-- &#45;1&#45;&gt;2 -->
<g id="edge2" class="edge">
<title>&#45;1&#45;&gt;2</title>
<path fill="none" stroke="green" stroke-width="0.47" d="M112.21,-213.2C115.87,-209.82 120.5,-206.23 125.38,-204.17 262.1,-146.4 316.3,-214.25 457.38,-168.17 458.27,-167.88 459.15,-167.56 460.03,-167.21"/>
<polygon fill="green" stroke="green" stroke-width="0.47" points="461.74,-170.26 469.14,-162.68 458.63,-163.99 461.74,-170.26"/>
</g>
<!-- 3 -->
<g id="node24" class="node">
<title>3</title>
<ellipse fill="lightblue" stroke="black" cx="605.38" cy="-153.32" rx="14.7" ry="14.7"/>
<text text-anchor="middle" x="605.38" y="-151.12" font-family="Times New Roman,serif" font-size="9.00">3</text>
</g>
<!-- &#45;1&#45;&gt;3 -->
<g id="edge3" class="edge">
<title>&#45;1&#45;&gt;3</title>
<path fill="none" stroke="red" stroke-width="0.19" d="M111.81,-213.53C115.53,-210.04 120.31,-206.27 125.38,-204.17 282.1,-139.2 336.88,-187.81 505.38,-168.17 531.21,-165.16 560.68,-160.98 580.9,-158.01"/>
<polygon fill="red" stroke="red" stroke-width="0.19" points="581.46,-161.46 590.84,-156.53 580.43,-154.54 581.46,-161.46"/>
</g>
<!-- 4 -->
<g id="node25" class="node">
<title>4</title>
<ellipse fill="lightblue" stroke="black" cx="433.38" cy="-153.32" rx="14.7" ry="14.7"/>
<text text-anchor="middle" x="433.38" y="-151.12" font-family="Times New Roman,serif" font-size="9.00">4</text>
</g>
<!-- &#45;1&#45;&gt;4 -->
<g id="edge4" class="edge">
<title>&#45;1&#45;&gt;4</title>
<path fill="none" stroke="red" stroke-width="0.28" d="M112.26,-213.32C115.93,-209.96 120.56,-206.36 125.38,-204.17 223.22,-159.77 354.33,-154.25 408.43,-154.01"/>
<polygon fill="red" stroke="red" stroke-width="0.28" points="408.48,-157.51 418.48,-154.02 408.49,-150.51 408.48,-157.51"/>
</g>
<!-- &#45;2 -->
<g id="node2" class="node">
<title>&#45;2</title>
<polygon fill="lightgray" stroke="black" points="412.38,-231.55 388.38,-231.55 388.38,-213.55 412.38,-213.55 412.38,-231.55"/>
<text text-anchor="middle" x="400.38" y="-220.35" font-family="Times New Roman,serif" font-size="9.00">&#45;2</text>
</g>
<!-- &#45;2&#45;&gt;0 -->
<g id="edge5" class="edge">
<title>&#45;2&#45;&gt;0</title>
<path fill="none" stroke="red" stroke-width="0.21" d="M399.14,-213.22C395.73,-187.03 389.23,-105.69 432.38,-65.7 468.28,-32.43 526.7,-21.35 560.01,-17.67"/>
<polygon fill="red" stroke="red" stroke-width="0.21" points="560.65,-21.12 570.27,-16.68 559.98,-14.16 560.65,-21.12"/>
</g>
<!-- 1 -->
<g id="node22" class="node">
<title>1</title>
<ellipse fill="lightblue" stroke="black" cx="653.38" cy="-153.32" rx="14.7" ry="14.7"/>
<text text-anchor="middle" x="653.38" y="-151.12" font-family="Times New Roman,serif" font-size="9.00">1</text>
</g>
<!-- &#45;2&#45;&gt;1 -->
<g id="edge6" class="edge">
<title>&#45;2&#45;&gt;1</title>
<path fill="none" stroke="red" stroke-width="0.17" d="M408.27,-213.34C411.95,-209.99 416.57,-206.38 421.38,-204.17 506.61,-164.93 541.17,-200.11 629.38,-168.17 630.26,-167.85 631.13,-167.51 632.01,-167.13"/>
<polygon fill="red" stroke="red" stroke-width="0.17" points="633.76,-170.17 641.09,-162.52 630.59,-163.93 633.76,-170.17"/>
</g>
<!-- &#45;2&#45;&gt;2 -->
<g id="edge7" class="edge">
<title>&#45;2&#45;&gt;2</title>
<path fill="none" stroke="green" stroke-width="0.25" d="M410.32,-213.31C423.27,-202.56 446.19,-183.53 462.5,-170"/>
<polygon fill="green" stroke="green" stroke-width="0.25" points="464.88,-172.57 470.33,-163.49 460.4,-167.18 464.88,-172.57"/>
</g>
<!-- &#45;2&#45;&gt;3 -->
<g id="edge8" class="edge">
<title>&#45;2&#45;&gt;3</title>
<path fill="none" stroke="green" stroke-width="0.16" d="M408.77,-213.2C412.4,-209.98 416.85,-206.52 421.38,-204.17 474.38,-176.71 544.02,-163.2 580.56,-157.61"/>
<polygon fill="green" stroke="green" stroke-width="0.16" points="581.39,-161.03 590.78,-156.12 580.38,-154.1 581.39,-161.03"/>
</g>
<!-- &#45;2&#45;&gt;4 -->
<g id="edge9" class="edge">
<title>&#45;2&#45;&gt;4</title>
<path fill="none" stroke="green" stroke-width="0.21" d="M404.43,-213.31C408.93,-204.14 416.38,-188.96 422.6,-176.3"/>
<polygon fill="green" stroke="green" stroke-width="0.21" points="425.78,-177.76 427.04,-167.24 419.49,-174.68 425.78,-177.76"/>
</g>
<!-- &#45;3 -->
<g id="node3" class="node">
<title>&#45;3</title>
<polygon fill="lightgray" stroke="black" points="454.38,-231.55 430.38,-231.55 430.38,-213.55 454.38,-213.55 454.38,-231.55"/>
<text text-anchor="middle" x="442.38" y="-220.35" font-family="Times New Roman,serif" font-size="9.00">&#45;3</text>
</g>
<!-- &#45;3&#45;&gt;0 -->
<g id="edge10" class="edge">
<title>&#45;3&#45;&gt;0</title>
<path fill="none" stroke="green" stroke-width="0.21" d="M434.64,-213.52C421.05,-198.41 395.59,-164.88 409.38,-138.47 441.89,-76.21 522.01,-39.14 561.96,-23.93"/>
<polygon fill="green" stroke="green" stroke-width="0.21" points="563.24,-27.19 571.42,-20.45 560.83,-20.62 563.24,-27.19"/>
</g>
<!-- &#45;3&#45;&gt;1 -->
<g id="edge11" class="edge">
<title>&#45;3&#45;&gt;1</title>
<path fill="none" stroke="red" stroke-width="0.54" d="M450.32,-213.44C454,-210.1 458.62,-206.48 463.38,-204.17 531.28,-171.16 558.96,-195.36 629.38,-168.17 630.25,-167.83 631.12,-167.47 631.99,-167.09"/>
<polygon fill="red" stroke="red" stroke-width="0.54" points="633.76,-170.11 641.05,-162.41 630.55,-163.89 633.76,-170.11"/>
</g>
<!-- &#45;3&#45;&gt;2 -->
<g id="edge12" class="edge">
<title>&#45;3&#45;&gt;2</title>
<path fill="none" stroke="green" stroke-width="0.79" d="M447.17,-213.31C452.6,-203.94 461.68,-188.29 469.12,-175.46"/>
<polygon fill="green" stroke="green" stroke-width="0.79" points="472.18,-177.15 474.17,-166.75 466.13,-173.64 472.18,-177.15"/>
</g>
<!-- &#45;3&#45;&gt;3 -->
<g id="edge13" class="edge">
<title>&#45;3&#45;&gt;3</title>
<path fill="none" stroke="red" stroke-width="0.3" d="M450.86,-213.36C454.5,-210.17 458.93,-206.68 463.38,-204.17 502.08,-182.29 552.05,-167.48 581.22,-160"/>
<polygon fill="red" stroke="red" stroke-width="0.3" points="582.11,-163.39 590.97,-157.58 580.42,-156.59 582.11,-163.39"/>
</g>
<!-- &#45;3&#45;&gt;4 -->
<g id="edge14" class="edge">
<title>&#45;3&#45;&gt;4</title>
<path fill="none" stroke="green" stroke-width="0.12" d="M441.28,-213.31C440.12,-204.63 438.24,-190.56 436.6,-178.33"/>
<polygon fill="green" stroke="green" stroke-width="0.12" points="440.05,-177.7 435.25,-168.25 433.11,-178.62 440.05,-177.7"/>
</g>
<!-- &#45;4 -->
<g id="node4" class="node">
<title>&#45;4</title>
<polygon fill="lightgray" stroke="black" points="544.38,-231.55 520.38,-231.55 520.38,-213.55 544.38,-213.55 544.38,-231.55"/>
<text text-anchor="middle" x="532.38" y="-220.35" font-family="Times New Roman,serif" font-size="9.00">&#45;4</text>
</g>
<!-- &#45;4&#45;&gt;0 -->
<g id="edge15" class="edge">
<title>&#45;4&#45;&gt;0</title>
<path fill="none" stroke="green" stroke-width="0.27" d="M534.46,-213.49C541.92,-184.54 567.53,-85.13 579.34,-39.32"/>
<polygon fill="green" stroke="green" stroke-width="0.27" points="582.79,-39.95 581.89,-29.4 576.01,-38.21 582.79,-39.95"/>
</g>
<!-- &#45;4&#45;&gt;1 -->
<g id="edge16" class="edge">
<title>&#45;4&#45;&gt;1</title>
<path fill="none" stroke="red" stroke-width="0.11" d="M541.41,-213.24C544.99,-210.17 549.23,-206.81 553.38,-204.17 584.91,-184.09 596.28,-185.52 629.38,-168.17 630.2,-167.74 631.04,-167.29 631.88,-166.84"/>
<polygon fill="red" stroke="red" stroke-width="0.11" points="633.78,-169.79 640.79,-161.84 630.35,-163.68 633.78,-169.79"/>
</g>
<!-- &#45;4&#45;&gt;2 -->
<g id="edge17" class="edge">
<title>&#45;4&#45;&gt;2</title>
<path fill="none" stroke="red" stroke-width="0.16" d="M526.13,-213.31C518.71,-203.53 506.1,-186.9 496.15,-173.78"/>
<polygon fill="red" stroke="red" stroke-width="0.16" points="498.91,-171.63 490.08,-165.78 493.33,-175.86 498.91,-171.63"/>
</g>
<!-- &#45;4&#45;&gt;3 -->
<g id="edge18" class="edge">
<title>&#45;4&#45;&gt;3</title>
<path fill="none" stroke="green" stroke-width="0.18" d="M541.34,-213.31C552.77,-202.77 572.83,-184.3 587.46,-170.82"/>
<polygon fill="green" stroke="green" stroke-width="0.18" points="589.96,-173.28 594.95,-163.93 585.22,-168.13 589.96,-173.28"/>
</g>
<!-- &#45;4&#45;&gt;4 -->
<g id="edge19" class="edge">
<title>&#45;4&#45;&gt;4</title>
<path fill="none" stroke="red" stroke-width="0.37" d="M522.24,-213.21C518.56,-210.27 514.34,-207 510.38,-204.17 491.95,-190.96 470.19,-177.01 454.51,-167.24"/>
<polygon fill="red" stroke="red" stroke-width="0.37" points="455.97,-164.03 445.62,-161.74 452.29,-169.98 455.97,-164.03"/>
</g>
<!-- &#45;5 -->
<g id="node5" class="node">
<title>&#45;5</title>
<polygon fill="lightgray" stroke="black" points="206.38,-231.55 182.38,-231.55 182.38,-213.55 206.38,-213.55 206.38,-231.55"/>
<text text-anchor="middle" x="194.38" y="-220.35" font-family="Times New Roman,serif" font-size="9.00">&#45;5</text>
</g>
<!-- &#45;5&#45;&gt;0 -->
<g id="edge20" class="edge">
<title>&#45;5&#45;&gt;0</title>
<path fill="none" stroke="red" stroke-width="0.2" d="M197.88,-213.42C209.63,-187.1 250.53,-103.76 312.38,-65.7 354.01,-40.08 501.11,-23.76 560.37,-18.09"/>
<polygon fill="red" stroke="red" stroke-width="0.2" points="560.74,-21.57 570.37,-17.15 560.09,-14.6 560.74,-21.57"/>
</g>
<!-- &#45;5&#45;&gt;1 -->
<g id="edge21" class="edge">
<title>&#45;5&#45;&gt;1</title>
<path fill="none" stroke="red" stroke-width="0.21" d="M206.42,-217.27C218.23,-213.24 236.82,-207.37 253.38,-204.17 418.21,-172.3 469.48,-219.28 629.38,-168.17 630.44,-167.83 631.5,-167.44 632.55,-167.01"/>
<polygon fill="red" stroke="red" stroke-width="0.21" points="634.29,-170.05 641.65,-162.43 631.14,-163.8 634.29,-170.05"/>
</g>
<!-- &#45;5&#45;&gt;2 -->
<g id="edge22" class="edge">
<title>&#45;5&#45;&gt;2</title>
<path fill="none" stroke="red" stroke-width="0.24" d="M204.43,-213.33C209.03,-209.97 214.71,-206.37 220.38,-204.17 319.71,-165.63 356.84,-203.4 457.38,-168.17 458.26,-167.86 459.14,-167.52 460.01,-167.16"/>
<polygon fill="red" stroke="red" stroke-width="0.24" points="461.75,-170.2 469.1,-162.57 458.6,-163.95 461.75,-170.2"/>
</g>
<!-- &#45;5&#45;&gt;3 -->
<g id="edge23" class="edge">
<title>&#45;5&#45;&gt;3</title>
<path fill="none" stroke="green" stroke-width="0.33" d="M206.45,-217.43C218.29,-213.53 236.9,-207.74 253.38,-204.17 261.45,-202.42 501.87,-168.78 580.65,-157.77"/>
<polygon fill="green" stroke="green" stroke-width="0.33" points="581.24,-161.22 590.66,-156.37 580.27,-154.29 581.24,-161.22"/>
</g>
<!-- &#45;5&#45;&gt;4 -->
<g id="edge24" class="edge">
<title>&#45;5&#45;&gt;4</title>
<path fill="none" stroke="green" stroke-width="0.34" d="M204.51,-213.54C209.13,-210.22 214.81,-206.59 220.38,-204.17 285,-176.11 367.81,-162.54 408.52,-157.19"/>
<polygon fill="green" stroke="green" stroke-width="0.34" points="409.12,-160.65 418.61,-155.93 408.25,-153.7 409.12,-160.65"/>
</g>
<!-- &#45;6 -->
<g id="node6" class="node">
<title>&#45;6</title>
<polygon fill="lightgray" stroke="black" points="286.38,-231.55 262.38,-231.55 262.38,-213.55 286.38,-213.55 286.38,-231.55"/>
<text text-anchor="middle" x="274.38" y="-220.35" font-family="Times New Roman,serif" font-size="9.00">&#45;6</text>
</g>
<!-- &#45;6&#45;&gt;0 -->
<g id="edge25" class="edge">
<title>&#45;6&#45;&gt;0</title>
<path fill="none" stroke="green" stroke-width="0.35" d="M275.53,-213.55C279.69,-187.63 296.46,-105.4 346.38,-65.7 379.44,-39.41 505.85,-23.84 560.25,-18.24"/>
<polygon fill="green" stroke="green" stroke-width="0.35" points="560.81,-21.7 570.41,-17.22 560.11,-14.73 560.81,-21.7"/>
</g>
<!-- &#45;6&#45;&gt;1 -->
<g id="edge26" class="edge">
<title>&#45;6&#45;&gt;1</title>
<path fill="none" stroke="red" stroke-width="0.12" d="M282.21,-213.19C285.87,-209.81 290.5,-206.23 295.38,-204.17 432.94,-146.1 487.44,-214.48 629.38,-168.17 630.27,-167.88 631.15,-167.56 632.03,-167.21"/>
<polygon fill="red" stroke="red" stroke-width="0.12" points="633.74,-170.27 641.14,-162.69 630.63,-163.99 633.74,-170.27"/>
</g>
<!-- &#45;6&#45;&gt;2 -->
<g id="edge27" class="edge">
<title>&#45;6&#45;&gt;2</title>
<path fill="none" stroke="red" stroke-width="0.46" d="M282.32,-213.45C286.01,-210.12 290.62,-206.5 295.38,-204.17 361.63,-171.75 388.65,-194.91 457.38,-168.17 458.25,-167.83 459.12,-167.47 459.99,-167.08"/>
<polygon fill="red" stroke="red" stroke-width="0.46" points="461.77,-170.1 469.04,-162.4 458.55,-163.88 461.77,-170.1"/>
</g>
<!-- &#45;6&#45;&gt;3 -->
<g id="edge28" class="edge">
<title>&#45;6&#45;&gt;3</title>
<path fill="none" stroke="red" stroke-width="0.27" d="M282.26,-213.31C285.93,-209.96 290.56,-206.35 295.38,-204.17 308.43,-198.25 509.15,-168.43 580.47,-157.96"/>
<polygon fill="red" stroke="red" stroke-width="0.27" points="581.37,-161.36 590.76,-156.45 580.36,-154.44 581.37,-161.36"/>
</g>
<!-- &#45;6&#45;&gt;4 -->
<g id="edge29" class="edge">
<title>&#45;6&#45;&gt;4</title>
<path fill="none" stroke="green" stroke-width="0.36" d="M282.88,-213.38C286.52,-210.19 290.95,-206.7 295.38,-204.17 332.65,-182.88 380.63,-168.02 409.09,-160.35"/>
<polygon fill="green" stroke="green" stroke-width="0.36" points="410.19,-163.68 418.98,-157.76 408.42,-156.91 410.19,-163.68"/>
</g>
<!-- &#45;7 -->
<g id="node7" class="node">
<title>&#45;7</title>
<polygon fill="lightgray" stroke="black" points="328.38,-231.55 304.38,-231.55 304.38,-213.55 328.38,-213.55 328.38,-231.55"/>
<text text-anchor="middle" x="316.38" y="-220.35" font-family="Times New Roman,serif" font-size="9.00">&#45;7</text>
</g>
<!-- &#45;7&#45;&gt;0 -->
<g id="edge30" class="edge">
<title>&#45;7&#45;&gt;0</title>
<path fill="none" stroke="green" stroke-width="0.31" d="M317.02,-213.28C319.48,-187.25 330.71,-106.34 377.38,-65.7 404.72,-41.89 511.34,-25.4 560.41,-18.92"/>
<polygon fill="green" stroke="green" stroke-width="0.31" points="561.03,-22.37 570.5,-17.62 560.13,-15.42 561.03,-22.37"/>
</g>
<!-- &#45;7&#45;&gt;1 -->
<g id="edge31" class="edge">
<title>&#45;7&#45;&gt;1</title>
<path fill="none" stroke="red" stroke-width="0.22" stroke-dasharray="1,5" d="M324.22,-213.23C327.89,-209.86 332.52,-206.27 337.38,-204.17 457.46,-152.39 505.39,-209.67 629.38,-168.17 630.26,-167.87 631.14,-167.54 632.02,-167.19"/>
<polygon fill="red" stroke="red" stroke-width="0.22" points="633.74,-170.24 641.13,-162.65 630.62,-163.98 633.74,-170.24"/>
</g>
<!-- &#45;7&#45;&gt;2 -->
<g id="edge32" class="edge">
<title>&#45;7&#45;&gt;2</title>
<path fill="none" stroke="green" stroke-width="0.4" d="M324.81,-213.26C328.44,-210.05 332.88,-206.58 337.38,-204.17 386.48,-177.89 406.26,-190.23 457.38,-168.17 458.24,-167.8 459.09,-167.41 459.95,-167"/>
<polygon fill="green" stroke="green" stroke-width="0.4" points="461.78,-170 468.96,-162.21 458.49,-163.82 461.78,-170"/>
</g>
<!-- &#45;7&#45;&gt;3 -->
<g id="edge33" class="edge">
<title>&#45;7&#45;&gt;3</title>
<path fill="none" stroke="green" stroke-width="0.25" d="M324.29,-213.37C327.96,-210.02 332.58,-206.41 337.38,-204.17 359.37,-193.88 518.27,-168.06 580.49,-158.21"/>
<polygon fill="green" stroke="green" stroke-width="0.25" points="581.27,-161.63 590.61,-156.62 580.18,-154.72 581.27,-161.63"/>
</g>
<!-- &#45;7&#45;&gt;4 -->
<g id="edge34" class="edge">
<title>&#45;7&#45;&gt;4</title>
<path fill="none" stroke="red" stroke-width="0.14" d="M325.46,-213.32C329.05,-210.26 333.28,-206.89 337.38,-204.17 361.36,-188.28 391,-173.56 410.95,-164.3"/>
<polygon fill="red" stroke="red" stroke-width="0.14" points="412.52,-167.43 420.16,-160.09 409.61,-161.07 412.52,-167.43"/>
</g>
<!-- &#45;8 -->
<g id="node8" class="node">
<title>&#45;8</title>
<polygon fill="lightgray" stroke="black" points="370.38,-231.55 346.38,-231.55 346.38,-213.55 370.38,-213.55 370.38,-231.55"/>
<text text-anchor="middle" x="358.38" y="-220.35" font-family="Times New Roman,serif" font-size="9.00">&#45;8</text>
</g>
<!-- &#45;8&#45;&gt;0 -->
<g id="edge35" class="edge">
<title>&#45;8&#45;&gt;0</title>
<path fill="none" stroke="red" stroke-width="0.32" d="M358.27,-213.4C358.39,-187.73 362.34,-107.78 405.38,-65.7 447.8,-24.23 521.52,-16.57 560.14,-15.58"/>
<polygon fill="red" stroke="red" stroke-width="0.32" points="560.53,-19.08 570.48,-15.45 560.44,-12.08 560.53,-19.08"/>
</g>
<!-- &#45;8&#45;&gt;1 -->
<g id="edge36" class="edge">
<title>&#45;8&#45;&gt;1</title>
<path fill="none" stroke="red" stroke-width="0.18" d="M366.24,-213.28C369.91,-209.91 374.54,-206.31 379.38,-204.17 482.01,-158.67 523.3,-204.88 629.38,-168.17 630.26,-167.86 631.14,-167.53 632.02,-167.17"/>
<polygon fill="red" stroke="red" stroke-width="0.18" points="633.75,-170.21 641.11,-162.59 630.61,-163.96 633.75,-170.21"/>
</g>
<!-- &#45;8&#45;&gt;2 -->
<g id="edge37" class="edge">
<title>&#45;8&#45;&gt;2</title>
<path fill="none" stroke="red" stroke-width="0.66" d="M367.4,-213.22C370.97,-210.15 375.22,-206.79 379.38,-204.17 411.69,-183.82 423.48,-185.73 457.38,-168.17 458.21,-167.74 459.04,-167.3 459.88,-166.85"/>
<polygon fill="red" stroke="red" stroke-width="0.66" points="461.78,-169.8 468.8,-161.87 458.36,-163.69 461.78,-169.8"/>
</g>
<!-- &#45;8&#45;&gt;3 -->
<g id="edge38" class="edge">
<title>&#45;8&#45;&gt;3</title>
<path fill="none" stroke="green" stroke-width="0.12" d="M366.32,-213.45C370.01,-210.11 374.62,-206.49 379.38,-204.17 414.95,-186.8 529.66,-166.63 580.6,-158.27"/>
<polygon fill="green" stroke="green" stroke-width="0.12" points="581.42,-161.68 590.73,-156.62 580.3,-154.77 581.42,-161.68"/>
</g>
<!-- &#45;8&#45;&gt;4 -->
<g id="edge39" class="edge">
<title>&#45;8&#45;&gt;4</title>
<path fill="none" stroke="red" stroke-width="0.81" d="M367.58,-213.31C379.33,-202.77 399.94,-184.3 414.97,-170.82"/>
<polygon fill="red" stroke="red" stroke-width="0.81" points="417.55,-173.21 422.66,-163.93 412.88,-168 417.55,-173.21"/>
</g>
<!-- &#45;9 -->
<g id="node9" class="node">
<title>&#45;9</title>
<polygon fill="lightgray" stroke="black" points="586.38,-231.55 562.38,-231.55 562.38,-213.55 586.38,-213.55 586.38,-231.55"/>
<text text-anchor="middle" x="574.38" y="-220.35" font-family="Times New Roman,serif" font-size="9.00">&#45;9</text>
</g>
<!-- &#45;9&#45;&gt;0 -->
<g id="edge40" class="edge">
<title>&#45;9&#45;&gt;0</title>
<path fill="none" stroke="green" stroke-width="0.26" d="M574.65,-213.43C575.42,-190.32 577.85,-122.2 581.38,-65.7 581.91,-57.26 582.62,-48.04 583.29,-39.84"/>
<polygon fill="green" stroke="green" stroke-width="0.26" points="586.78,-40.07 584.13,-29.81 579.81,-39.48 586.78,-40.07"/>
</g>
<!-- &#45;9&#45;&gt;1 -->
<g id="edge41" class="edge">
<title>&#45;9&#45;&gt;1</title>
<path fill="none" stroke="green" stroke-width="0.13" d="M584.07,-213.31C596.63,-202.62 618.81,-183.74 634.7,-170.22"/>
<polygon fill="green" stroke="green" stroke-width="0.13" points="637,-172.86 642.35,-163.71 632.46,-167.53 637,-172.86"/>
</g>
<!-- &#45;9&#45;&gt;2 -->
<g id="edge42" class="edge">
<title>&#45;9&#45;&gt;2</title>
<path fill="none" stroke="red" stroke-width="0.4" d="M564.7,-213.24C561.19,-210.3 557.16,-207.03 553.38,-204.17 536.59,-191.44 516.87,-177.87 502.32,-168.12"/>
<polygon fill="red" stroke="red" stroke-width="0.4" points="503.85,-164.93 493.58,-162.3 499.97,-170.76 503.85,-164.93"/>
</g>
<!-- &#45;9&#45;&gt;3 -->
<g id="edge43" class="edge">
<title>&#45;9&#45;&gt;3</title>
<path fill="none" stroke="green" stroke-width="0.13" d="M578.19,-213.31C582.37,-204.23 589.27,-189.26 595.08,-176.67"/>
<polygon fill="green" stroke="green" stroke-width="0.13" points="598.42,-177.79 599.43,-167.24 592.06,-174.86 598.42,-177.79"/>
</g>
<!-- &#45;9&#45;&gt;4 -->
<g id="edge44" class="edge">
<title>&#45;9&#45;&gt;4</title>
<path fill="none" stroke="red" stroke-width="0.29" d="M565.88,-213.41C562.24,-210.22 557.81,-206.73 553.38,-204.17 513.96,-181.32 498.59,-187.62 457.38,-168.17 456.55,-167.77 455.7,-167.36 454.85,-166.93"/>
<polygon fill="red" stroke="red" stroke-width="0.29" points="456.34,-163.75 445.88,-162.05 452.99,-169.9 456.34,-163.75"/>
</g>
<!-- &#45;10 -->
<g id="node10" class="node">
<title>&#45;10</title>
<polygon fill="lightgray" stroke="black" points="1001.88,-231.55 972.88,-231.55 972.88,-213.55 1001.88,-213.55 1001.88,-231.55"/>
<text text-anchor="middle" x="987.38" y="-220.35" font-family="Times New Roman,serif" font-size="9.00">&#45;10</text>
</g>
<!-- &#45;10&#45;&gt;0 -->
<g id="edge45" class="edge">
<title>&#45;10&#45;&gt;0</title>
<path fill="none" stroke="red" stroke-width="0.41" d="M982.22,-213.42C965.01,-187.1 906.74,-103.79 835.38,-65.7 760.56,-25.76 657.67,-17.68 610.66,-16.14"/>
<polygon fill="red" stroke="red" stroke-width="0.41" points="610.56,-12.64 600.47,-15.89 610.38,-19.64 610.56,-12.64"/>
</g>
<!-- &#45;10&#45;&gt;1 -->
<g id="edge46" class="edge">
<title>&#45;10&#45;&gt;1</title>
<path fill="none" stroke="red" stroke-width="0.32" d="M978.2,-213.33C973.97,-209.98 968.71,-206.37 963.38,-204.17 863.52,-162.75 732.32,-155.59 678.28,-154.46"/>
<polygon fill="red" stroke="red" stroke-width="0.32" points="678.3,-150.96 668.25,-154.31 678.19,-157.96 678.3,-150.96"/>
</g>
<!-- &#45;10&#45;&gt;2 -->
<g id="edge47" class="edge">
<title>&#45;10&#45;&gt;2</title>
<path fill="none" stroke="red" stroke-width="0.37" d="M978.71,-213.53C974.42,-210.04 968.97,-206.27 963.38,-204.17 803.81,-144.02 750.77,-187.87 581.38,-168.17 555.56,-165.16 526.09,-160.99 505.86,-158.01"/>
<polygon fill="red" stroke="red" stroke-width="0.37" points="506.34,-154.54 495.93,-156.54 505.31,-161.47 506.34,-154.54"/>
</g>
<!-- &#45;10&#45;&gt;3 -->
<g id="edge48" class="edge">
<title>&#45;10&#45;&gt;3</title>
<path fill="none" stroke="green" stroke-width="0.53" d="M978.25,-213.2C974.03,-209.82 968.76,-206.23 963.38,-204.17 824.03,-150.58 771.33,-214.48 629.38,-168.17 628.5,-167.88 627.62,-167.56 626.74,-167.21"/>
<polygon fill="green" stroke="green" stroke-width="0.53" points="628.14,-163.99 617.63,-162.69 625.03,-170.27 628.14,-163.99"/>
</g>
<!-- &#45;10&#45;&gt;4 -->
<g id="edge49" class="edge">
<title>&#45;10&#45;&gt;4</title>
<path fill="none" stroke="red" stroke-width="0.78" d="M978.73,-213.47C974.45,-209.97 968.99,-206.21 963.38,-204.17 751.52,-127.08 672.96,-234.19 457.38,-168.17 456.33,-167.84 455.27,-167.46 454.21,-167.05"/>
<polygon fill="red" stroke="red" stroke-width="0.78" points="455.61,-163.83 445.1,-162.49 452.48,-170.09 455.61,-163.83"/>
</g>
<!-- 64 -->
<g id="node26" class="node">
<title>64</title>
<ellipse fill="white" stroke="black" cx="608.38" cy="-84.08" rx="18.27" ry="18.27"/>
<text text-anchor="middle" x="608.38" y="-81.88" font-family="Times New Roman,serif" font-size="9.00">64</text>
</g>
<!-- &#45;10&#45;&gt;64 -->
<g id="edge97" class="edge">
<title>&#45;10&#45;&gt;64</title>
<path fill="none" stroke="green" stroke-width="0.46" d="M977.55,-213.39C973.37,-210.2 968.33,-206.71 963.38,-204.17 848.33,-144.96 697.57,-105.83 636.19,-91.35"/>
<polygon fill="green" stroke="green" stroke-width="0.46" points="636.66,-87.87 626.13,-89.01 635.08,-94.68 636.66,-87.87"/>
</g>
<!-- &#45;11 -->
<g id="node11" class="node">
<title>&#45;11</title>
<polygon fill="lightgray" stroke="black" points="633.88,-231.55 604.88,-231.55 604.88,-213.55 633.88,-213.55 633.88,-231.55"/>
<text text-anchor="middle" x="619.38" y="-220.35" font-family="Times New Roman,serif" font-size="9.00">&#45;11</text>
</g>
<!-- &#45;11&#45;&gt;0 -->
<g id="edge50" class="edge">
<title>&#45;11&#45;&gt;0</title>
<path fill="none" stroke="green" stroke-width="0.51" d="M630.12,-213.41C645.48,-201.5 672.41,-179.51 677.38,-168.17 682.69,-156.08 680.8,-151.22 677.38,-138.47 665.43,-93.86 627.41,-53.38 604.15,-31.93"/>
<polygon fill="green" stroke="green" stroke-width="0.51" points="606.39,-29.24 596.61,-25.17 601.71,-34.45 606.39,-29.24"/>
</g>
<!-- &#45;11&#45;&gt;1 -->
<g id="edge51" class="edge">
<title>&#45;11&#45;&gt;1</title>
<path fill="none" stroke="green" stroke-width="0.12" d="M623.55,-213.31C628.19,-204.14 635.87,-188.96 642.27,-176.3"/>
<polygon fill="green" stroke="green" stroke-width="0.12" points="645.46,-177.74 646.85,-167.24 639.21,-174.59 645.46,-177.74"/>
</g>
<!-- &#45;11&#45;&gt;2 -->
<g id="edge52" class="edge">
<title>&#45;11&#45;&gt;2</title>
<path fill="none" stroke="red" stroke-width="0.2" d="M608.96,-213.25C604.86,-210.19 600.03,-206.82 595.38,-204.17 565.33,-186.98 528.22,-171.77 504.67,-162.8"/>
<polygon fill="red" stroke="red" stroke-width="0.2" points="505.77,-159.48 495.18,-159.25 503.31,-166.03 505.77,-159.48"/>
</g>
<!-- &#45;11&#45;&gt;3 -->
<g id="edge53" class="edge">
<title>&#45;11&#45;&gt;3</title>
<path fill="none" stroke="red" stroke-width="0.23" d="M617.67,-213.31C615.85,-204.57 612.89,-190.38 610.34,-178.1"/>
<polygon fill="red" stroke="red" stroke-width="0.23" points="613.7,-177.07 608.23,-167.99 606.84,-178.5 613.7,-177.07"/>
</g>
<!-- &#45;11&#45;&gt;4 -->
<g id="edge54" class="edge">
<title>&#45;11&#45;&gt;4</title>
<path fill="none" stroke="red" stroke-width="0.66" d="M609.63,-213.22C605.47,-210 600.41,-206.54 595.38,-204.17 538.06,-177.11 516.03,-192.22 457.38,-168.17 456.53,-167.82 455.66,-167.44 454.8,-167.04"/>
<polygon fill="red" stroke="red" stroke-width="0.66" points="456.25,-163.85 445.77,-162.31 453,-170.05 456.25,-163.85"/>
</g>
<!-- &#45;12 -->
<g id="node12" class="node">
<title>&#45;12</title>
<polygon fill="lightgray" stroke="black" points="680.88,-231.55 651.88,-231.55 651.88,-213.55 680.88,-213.55 680.88,-231.55"/>
<text text-anchor="middle" x="666.38" y="-220.35" font-family="Times New Roman,serif" font-size="9.00">&#45;12</text>
</g>
<!-- &#45;12&#45;&gt;0 -->
<g id="edge55" class="edge">
<title>&#45;12&#45;&gt;0</title>
<path fill="none" stroke="red" stroke-width="0.29" d="M672.09,-213.34C678.73,-203.25 689.29,-185.34 693.38,-168.17 696.45,-155.33 695.95,-151.42 693.38,-138.47 686.59,-104.15 685.83,-92.53 663.38,-65.7 648.47,-47.87 625.52,-34.28 608.36,-25.82"/>
<polygon fill="red" stroke="red" stroke-width="0.29" points="609.58,-22.53 599.04,-21.45 606.61,-28.86 609.58,-22.53"/>
</g>
<!-- &#45;12&#45;&gt;1 -->
<g id="edge56" class="edge">
<title>&#45;12&#45;&gt;1</title>
<path fill="none" stroke="green" stroke-width="0.29" d="M664.79,-213.31C663.1,-204.57 660.36,-190.38 657.98,-178.1"/>
<polygon fill="green" stroke="green" stroke-width="0.29" points="661.36,-177.15 656.03,-167.99 654.49,-178.48 661.36,-177.15"/>
</g>
<!-- &#45;12&#45;&gt;2 -->
<g id="edge57" class="edge">
<title>&#45;12&#45;&gt;2</title>
<path fill="none" stroke="red" stroke-width="0.13" d="M656.58,-213.33C652.4,-210.13 647.35,-206.65 642.38,-204.17 596.53,-181.24 538.04,-166.35 505.68,-159.23"/>
<polygon fill="red" stroke="red" stroke-width="0.13" points="506.27,-155.78 495.76,-157.11 504.81,-162.62 506.27,-155.78"/>
</g>
<!-- &#45;12&#45;&gt;3 -->
<g id="edge58" class="edge">
<title>&#45;12&#45;&gt;3</title>
<path fill="none" stroke="red" stroke-width="0.39" d="M658.9,-213.31C649.74,-203.2 633.93,-185.78 621.87,-172.49"/>
<polygon fill="red" stroke="red" stroke-width="0.39" points="624.24,-169.9 614.93,-164.84 619.06,-174.6 624.24,-169.9"/>
</g>
<!-- &#45;12&#45;&gt;4 -->
<g id="edge59" class="edge">
<title>&#45;12&#45;&gt;4</title>
<path fill="none" stroke="green" stroke-width="0.37" d="M657.16,-213.42C652.93,-210.08 647.67,-206.46 642.38,-204.17 565.55,-170.81 535.84,-197.5 457.38,-168.17 456.52,-167.84 455.64,-167.49 454.77,-167.11"/>
<polygon fill="green" stroke="green" stroke-width="0.37" points="456.2,-163.91 445.7,-162.47 453.01,-170.14 456.2,-163.91"/>
</g>
<!-- &#45;13 -->
<g id="node13" class="node">
<title>&#45;13</title>
<polygon fill="lightgray" stroke="black" points="501.88,-231.55 472.88,-231.55 472.88,-213.55 501.88,-213.55 501.88,-231.55"/>
<text text-anchor="middle" x="487.38" y="-220.35" font-family="Times New Roman,serif" font-size="9.00">&#45;13</text>
</g>
<!-- &#45;13&#45;&gt;1 -->
<g id="edge60" class="edge">
<title>&#45;13&#45;&gt;1</title>
<path fill="none" stroke="green" stroke-width="0.35" d="M497.19,-213.32C501.36,-210.12 506.41,-206.64 511.38,-204.17 560.48,-179.75 579.09,-190.01 629.38,-168.17 630.23,-167.8 631.09,-167.41 631.95,-167"/>
<polygon fill="green" stroke="green" stroke-width="0.35" points="633.78,-169.99 640.96,-162.2 630.49,-163.81 633.78,-169.99"/>
</g>
<!-- &#45;13&#45;&gt;2 -->
<g id="edge61" class="edge">
<title>&#45;13&#45;&gt;2</title>
<path fill="none" stroke="red" stroke-width="0.38" d="M486.65,-213.31C485.87,-204.63 484.62,-190.56 483.53,-178.33"/>
<polygon fill="red" stroke="red" stroke-width="0.38" points="487,-177.9 482.63,-168.25 480.03,-178.52 487,-177.9"/>
</g>
<!-- &#45;13&#45;&gt;4 -->
<g id="edge62" class="edge">
<title>&#45;13&#45;&gt;4</title>
<path fill="none" stroke="red" stroke-width="0.27" d="M480.76,-213.31C472.82,-203.41 459.24,-186.51 448.65,-173.32"/>
<polygon fill="red" stroke="red" stroke-width="0.27" points="451.2,-170.91 442.21,-165.31 445.74,-175.3 451.2,-170.91"/>
</g>
<!-- &#45;14 -->
<g id="node14" class="node">
<title>&#45;14</title>
<polygon fill="lightgray" stroke="black" points="163.88,-231.55 134.88,-231.55 134.88,-213.55 163.88,-213.55 163.88,-231.55"/>
<text text-anchor="middle" x="149.38" y="-220.35" font-family="Times New Roman,serif" font-size="9.00">&#45;14</text>
</g>
<!-- &#45;14&#45;&gt;0 -->
<g id="edge63" class="edge">
<title>&#45;14&#45;&gt;0</title>
<path fill="none" stroke="red" stroke-width="0.55" d="M152.74,-213.35C164.04,-186.84 203.58,-102.98 265.38,-65.7 315.22,-35.64 493.72,-21.6 560.2,-17.32"/>
<polygon fill="red" stroke="red" stroke-width="0.55" points="560.8,-20.79 570.57,-16.68 560.37,-13.81 560.8,-20.79"/>
</g>
<!-- &#45;14&#45;&gt;2 -->
<g id="edge64" class="edge">
<title>&#45;14&#45;&gt;2</title>
<path fill="none" stroke="green" stroke-width="0.66" d="M158.54,-213.25C162.76,-209.88 168.03,-206.29 173.38,-204.17 291.71,-157.39 336.8,-208.76 457.38,-168.17 458.26,-167.87 459.14,-167.54 460.02,-167.19"/>
<polygon fill="green" stroke="green" stroke-width="0.66" points="461.75,-170.24 469.13,-162.64 458.62,-163.98 461.75,-170.24"/>
</g>
<!-- &#45;14&#45;&gt;3 -->
<g id="edge65" class="edge">
<title>&#45;14&#45;&gt;3</title>
<path fill="none" stroke="green" stroke-width="0.18" d="M158.52,-213.2C162.74,-209.82 168.01,-206.24 173.38,-204.17 311.9,-150.85 358.08,-186.35 505.38,-168.17 531.19,-164.98 560.66,-160.84 580.89,-157.92"/>
<polygon fill="green" stroke="green" stroke-width="0.18" points="581.44,-161.37 590.83,-156.47 580.43,-154.45 581.44,-161.37"/>
</g>
<!-- &#45;14&#45;&gt;4 -->
<g id="edge66" class="edge">
<title>&#45;14&#45;&gt;4</title>
<path fill="none" stroke="green" stroke-width="0.27" d="M158.6,-213.41C162.84,-210.07 168.1,-206.45 173.38,-204.17 254.59,-169.05 360.69,-158.56 408.32,-155.51"/>
<polygon fill="green" stroke="green" stroke-width="0.27" points="408.57,-159.01 418.35,-154.93 408.16,-152.02 408.57,-159.01"/>
</g>
<!-- &#45;15 -->
<g id="node15" class="node">
<title>&#45;15</title>
<polygon fill="lightgray" stroke="black" points="579.88,-294.94 550.88,-294.94 550.88,-276.94 579.88,-276.94 579.88,-294.94"/>
<text text-anchor="middle" x="565.38" y="-283.74" font-family="Times New Roman,serif" font-size="9.00">&#45;15</text>
</g>
<!-- &#45;15&#45;&gt;0 -->
<g id="edge67" class="edge">
<title>&#45;15&#45;&gt;0</title>
<path fill="none" stroke="red" stroke-width="0.33" d="M579.96,-284.69C655.3,-283.28 998.38,-275.02 1029.38,-240.94 1108.34,-154.14 1102.61,-175.82 875.38,-65.7 785.04,-21.91 662.51,-15.98 610.44,-15.58"/>
<polygon fill="red" stroke="red" stroke-width="0.33" points="610.44,-12.08 600.44,-15.57 610.44,-19.08 610.44,-12.08"/>
</g>
<!-- &#45;15&#45;&gt;1 -->
<g id="edge68" class="edge">
<title>&#45;15&#45;&gt;1</title>
<path fill="none" stroke="green" stroke-width="0.18" d="M580.08,-284.63C653.79,-282.93 980.8,-273.59 1010.38,-240.94 1021.36,-228.83 1021.11,-216.5 1010.38,-204.17 967.11,-154.43 753.27,-152.8 678.92,-153.78"/>
<polygon fill="green" stroke="green" stroke-width="0.18" points="678.55,-150.28 668.61,-153.94 678.66,-157.28 678.55,-150.28"/>
</g>
<!-- &#45;15&#45;&gt;2 -->
<g id="edge69" class="edge">
<title>&#45;15&#45;&gt;2</title>
<path fill="none" stroke="green" stroke-width="0.23" d="M550.57,-285.27C493.99,-286.21 292.76,-286.26 253.38,-240.94 242.67,-228.6 242.88,-216.69 253.38,-204.17 312.56,-133.63 370.87,-199.65 457.38,-168.17 458.25,-167.85 459.13,-167.5 460,-167.13"/>
<polygon fill="green" stroke="green" stroke-width="0.23" points="461.76,-170.17 469.08,-162.51 458.58,-163.93 461.76,-170.17"/>
</g>
<!-- &#45;15&#45;&gt;3 -->
<g id="edge70" class="edge">
<title>&#45;15&#45;&gt;3</title>
<path fill="none" stroke="green" stroke-width="0.39" d="M580.2,-285.27C636.78,-286.21 838.01,-286.26 877.38,-240.94 888.1,-228.6 888.08,-216.52 877.38,-204.17 840.94,-162.06 682,-186.41 629.38,-168.17 628.51,-167.86 627.63,-167.53 626.75,-167.16"/>
<polygon fill="green" stroke="green" stroke-width="0.39" points="628.17,-163.96 617.66,-162.59 625.02,-170.21 628.17,-163.96"/>
</g>
<!-- &#45;15&#45;&gt;4 -->
<g id="edge71" class="edge">
<title>&#45;15&#45;&gt;4</title>
<path fill="none" stroke="red" stroke-width="0.51" stroke-dasharray="1,5" d="M550.51,-284.74C472.78,-283.58 115.68,-276.31 83.38,-240.94 72.37,-228.87 72.67,-216.51 83.38,-204.17 125.76,-155.33 335.44,-153.11 408.35,-153.86"/>
<polygon fill="red" stroke="red" stroke-width="0.51" points="408.41,-157.36 418.46,-153.99 408.5,-150.36 408.41,-157.36"/>
</g>
<!-- 92 -->
<g id="node27" class="node">
<title>92</title>
<ellipse fill="white" stroke="black" cx="18.38" cy="-222.55" rx="18.27" ry="18.27"/>
<text text-anchor="middle" x="18.38" y="-220.35" font-family="Times New Roman,serif" font-size="9.00">92</text>
</g>
<!-- &#45;15&#45;&gt;92 -->
<g id="edge99" class="edge">
<title>&#45;15&#45;&gt;92</title>
<path fill="none" stroke="green" stroke-width="0.29" d="M550.81,-284.5C477.42,-282.16 147.94,-270.2 50.38,-240.94 47.75,-240.15 45.09,-239.12 42.48,-237.97"/>
<polygon fill="green" stroke="green" stroke-width="0.29" points="43.95,-234.79 33.45,-233.39 40.79,-241.03 43.95,-234.79"/>
</g>
<!-- &#45;16 -->
<g id="node16" class="node">
<title>&#45;16</title>
<polygon fill="lightgray" stroke="black" points="727.88,-231.55 698.88,-231.55 698.88,-213.55 727.88,-213.55 727.88,-231.55"/>
<text text-anchor="middle" x="713.38" y="-220.35" font-family="Times New Roman,serif" font-size="9.00">&#45;16</text>
</g>
<!-- &#45;16&#45;&gt;0 -->
<g id="edge72" class="edge">
<title>&#45;16&#45;&gt;0</title>
<path fill="none" stroke="red" stroke-width="0.28" d="M714.74,-213.26C718.4,-187.85 725.83,-110.11 688.38,-65.7 668.06,-41.6 633.36,-28.22 609.91,-21.53"/>
<polygon fill="red" stroke="red" stroke-width="0.28" points="610.58,-18.09 600.02,-18.92 608.79,-24.86 610.58,-18.09"/>
</g>
<!-- &#45;16&#45;&gt;1 -->
<g id="edge73" class="edge">
<title>&#45;16&#45;&gt;1</title>
<path fill="none" stroke="red" stroke-width="0.34" d="M706.03,-213.31C697.01,-203.2 681.47,-185.78 669.6,-172.49"/>
<polygon fill="red" stroke="red" stroke-width="0.34" points="672.05,-169.97 662.78,-164.84 666.82,-174.63 672.05,-169.97"/>
</g>
<!-- &#45;16&#45;&gt;2 -->
<g id="edge74" class="edge">
<title>&#45;16&#45;&gt;2</title>
<path fill="none" stroke="green" stroke-width="0.15" d="M704.12,-213.52C699.87,-210.2 694.62,-206.57 689.38,-204.17 626.96,-175.46 546.11,-162.21 506.08,-157.07"/>
<polygon fill="green" stroke="green" stroke-width="0.15" points="506.5,-153.59 496.15,-155.85 505.65,-160.54 506.5,-153.59"/>
</g>
<!-- &#45;16&#45;&gt;3 -->
<g id="edge75" class="edge">
<title>&#45;16&#45;&gt;3</title>
<path fill="none" stroke="red" stroke-width="0.2" d="M702.78,-213.55C698.66,-210.52 693.86,-207.1 689.38,-204.17 677.95,-196.66 647.58,-178.82 626.67,-166.65"/>
<polygon fill="red" stroke="red" stroke-width="0.2" points="628.24,-163.52 617.84,-161.52 624.72,-169.57 628.24,-163.52"/>
</g>
<!-- &#45;16&#45;&gt;4 -->
<g id="edge76" class="edge">
<title>&#45;16&#45;&gt;4</title>
<path fill="none" stroke="red" stroke-width="0.15" d="M704.2,-213.32C699.97,-209.96 694.71,-206.36 689.38,-204.17 592.89,-164.46 555.8,-202.83 457.38,-168.17 456.51,-167.86 455.63,-167.52 454.76,-167.15"/>
<polygon fill="red" stroke="red" stroke-width="0.15" points="456.17,-163.95 445.67,-162.57 453.02,-170.2 456.17,-163.95"/>
</g>
<!-- &#45;17 -->
<g id="node17" class="node">
<title>&#45;17</title>
<polygon fill="lightgray" stroke="black" points="774.88,-231.55 745.88,-231.55 745.88,-213.55 774.88,-213.55 774.88,-231.55"/>
<text text-anchor="middle" x="760.38" y="-220.35" font-family="Times New Roman,serif" font-size="9.00">&#45;17</text>
</g>
<!-- &#45;17&#45;&gt;0 -->
<g id="edge77" class="edge">
<title>&#45;17&#45;&gt;0</title>
<path fill="none" stroke="red" stroke-width="0.36" d="M760.24,-213.22C759.33,-187.71 753.2,-109.71 712.38,-65.7 685.25,-36.44 638.82,-24.1 610.25,-19.09"/>
<polygon fill="red" stroke="red" stroke-width="0.36" points="610.68,-15.61 600.25,-17.5 609.58,-22.52 610.68,-15.61"/>
</g>
<!-- &#45;17&#45;&gt;1 -->
<g id="edge78" class="edge">
<title>&#45;17&#45;&gt;1</title>
<path fill="none" stroke="red" stroke-width="0.27" d="M749.29,-213.21C745.28,-210.28 740.68,-207 736.38,-204.17 715.99,-190.69 691.97,-176.43 675.04,-166.64"/>
<polygon fill="red" stroke="red" stroke-width="0.27" points="676.38,-163.37 665.97,-161.42 672.89,-169.44 676.38,-163.37"/>
</g>
<!-- &#45;17&#45;&gt;2 -->
<g id="edge79" class="edge">
<title>&#45;17&#45;&gt;2</title>
<path fill="none" stroke="red" stroke-width="0.14" d="M751.16,-213.42C746.92,-210.08 741.67,-206.46 736.38,-204.17 694.88,-186.13 561.82,-165.75 506.19,-157.77"/>
<polygon fill="red" stroke="red" stroke-width="0.14" points="506.54,-154.29 496.15,-156.35 505.56,-161.22 506.54,-154.29"/>
</g>
<!-- &#45;17&#45;&gt;3 -->
<g id="edge80" class="edge">
<title>&#45;17&#45;&gt;3</title>
<path fill="none" stroke="red" stroke-width="0.47" d="M750.55,-213.39C746.37,-210.2 741.32,-206.71 736.38,-204.17 691.78,-181.19 675.12,-188.81 629.38,-168.17 628.54,-167.79 627.69,-167.38 626.83,-166.97"/>
<polygon fill="red" stroke="red" stroke-width="0.47" points="628.31,-163.78 617.84,-162.13 624.99,-169.95 628.31,-163.78"/>
</g>
<!-- &#45;17&#45;&gt;4 -->
<g id="edge81" class="edge">
<title>&#45;17&#45;&gt;4</title>
<path fill="none" stroke="green" stroke-width="0.15" d="M751.23,-213.25C747,-209.88 741.74,-206.29 736.38,-204.17 620.17,-158.07 575.83,-208.19 457.38,-168.17 456.51,-167.87 455.63,-167.54 454.75,-167.18"/>
<polygon fill="green" stroke="green" stroke-width="0.15" points="456.15,-163.97 445.65,-162.63 453.02,-170.23 456.15,-163.97"/>
</g>
<!-- &#45;18 -->
<g id="node18" class="node">
<title>&#45;18</title>
<polygon fill="lightgray" stroke="black" points="821.88,-231.55 792.88,-231.55 792.88,-213.55 821.88,-213.55 821.88,-231.55"/>
<text text-anchor="middle" x="807.38" y="-220.35" font-family="Times New Roman,serif" font-size="9.00">&#45;18</text>
</g>
<!-- &#45;18&#45;&gt;0 -->
<g id="edge82" class="edge">
<title>&#45;18&#45;&gt;0</title>
<path fill="none" stroke="red" stroke-width="0.12" d="M806.16,-213.41C801.87,-187.78 785.16,-107.94 738.38,-65.7 702.06,-32.9 643.8,-21.64 610.64,-17.81"/>
<polygon fill="red" stroke="red" stroke-width="0.12" points="610.72,-14.3 600.42,-16.77 610.01,-21.26 610.72,-14.3"/>
</g>
<!-- &#45;18&#45;&gt;1 -->
<g id="edge83" class="edge">
<title>&#45;18&#45;&gt;1</title>
<path fill="none" stroke="green" stroke-width="0.25" d="M797.49,-213.49C793.31,-210.32 788.27,-206.81 783.38,-204.17 748.11,-185.06 703.93,-169.77 677.22,-161.39"/>
<polygon fill="green" stroke="green" stroke-width="0.25" points="678.16,-158.01 667.57,-158.42 676.1,-164.7 678.16,-158.01"/>
</g>
<!-- &#45;18&#45;&gt;2 -->
<g id="edge84" class="edge">
<title>&#45;18&#45;&gt;2</title>
<path fill="none" stroke="green" stroke-width="0.48" d="M798.19,-213.34C793.96,-209.99 788.7,-206.39 783.38,-204.17 757.83,-193.51 573.75,-167.17 506.18,-157.74"/>
<polygon fill="green" stroke="green" stroke-width="0.48" points="506.41,-154.24 496.02,-156.33 505.44,-161.17 506.41,-154.24"/>
</g>
<!-- &#45;18&#45;&gt;3 -->
<g id="edge85" class="edge">
<title>&#45;18&#45;&gt;3</title>
<path fill="none" stroke="red" stroke-width="0.13" d="M798.12,-213.51C793.88,-210.19 788.63,-206.56 783.38,-204.17 719.44,-174.98 694.75,-194.01 629.38,-168.17 628.52,-167.83 627.66,-167.46 626.79,-167.07"/>
<polygon fill="red" stroke="red" stroke-width="0.13" points="628.23,-163.87 617.74,-162.37 625,-170.09 628.23,-163.87"/>
</g>
<!-- &#45;18&#45;&gt;4 -->
<g id="edge86" class="edge">
<title>&#45;18&#45;&gt;4</title>
<path fill="none" stroke="red" stroke-width="0.2" d="M798.25,-213.21C794.03,-209.83 788.76,-206.24 783.38,-204.17 647.4,-151.67 595.91,-213.56 457.38,-168.17 456.5,-167.88 455.62,-167.55 454.74,-167.2"/>
<polygon fill="red" stroke="red" stroke-width="0.2" points="456.14,-163.99 445.63,-162.68 453.03,-170.26 456.14,-163.99"/>
</g>
<!-- &#45;19 -->
<g id="node19" class="node">
<title>&#45;19</title>
<polygon fill="lightgray" stroke="black" points="868.88,-231.55 839.88,-231.55 839.88,-213.55 868.88,-213.55 868.88,-231.55"/>
<text text-anchor="middle" x="854.38" y="-220.35" font-family="Times New Roman,serif" font-size="9.00">&#45;19</text>
</g>
<!-- &#45;19&#45;&gt;0 -->
<g id="edge87" class="edge">
<title>&#45;19&#45;&gt;0</title>
<path fill="none" stroke="red" stroke-width="0.49" stroke-dasharray="1,5" d="M852.24,-213.28C845.07,-187.27 819.35,-106.4 767.38,-65.7 720.44,-28.92 648.24,-19.24 610.43,-16.72"/>
<polygon fill="red" stroke="red" stroke-width="0.49" points="610.47,-13.22 600.3,-16.16 610.09,-20.21 610.47,-13.22"/>
</g>
<!-- &#45;19&#45;&gt;1 -->
<g id="edge88" class="edge">
<title>&#45;19&#45;&gt;1</title>
<path fill="none" stroke="red" stroke-width="0.43" d="M844.61,-213.27C840.44,-210.06 835.39,-206.59 830.38,-204.17 779.08,-179.34 713.25,-164.9 678.11,-158.43"/>
<polygon fill="red" stroke="red" stroke-width="0.43" points="678.69,-154.98 668.23,-156.67 677.47,-161.87 678.69,-154.98"/>
</g>
<!-- &#45;19&#45;&gt;2 -->
<g id="edge89" class="edge">
<title>&#45;19&#45;&gt;2</title>
<path fill="none" stroke="red" stroke-width="0.27" d="M845.22,-213.29C840.99,-209.92 835.73,-206.33 830.38,-204.17 826.59,-202.63 585.4,-168.85 506.25,-157.79"/>
<polygon fill="red" stroke="red" stroke-width="0.27" points="506.58,-154.3 496.19,-156.38 505.61,-161.23 506.58,-154.3"/>
</g>
<!-- &#45;19&#45;&gt;3 -->
<g id="edge90" class="edge">
<title>&#45;19&#45;&gt;3</title>
<path fill="none" stroke="green" stroke-width="0.13" d="M845.18,-213.38C840.94,-210.03 835.69,-206.42 830.38,-204.17 746.87,-168.65 714.63,-199.31 629.38,-168.17 628.51,-167.85 627.64,-167.5 626.77,-167.13"/>
<polygon fill="green" stroke="green" stroke-width="0.13" points="628.19,-163.92 617.69,-162.51 625.01,-170.16 628.19,-163.92"/>
</g>
<!-- &#45;19&#45;&gt;4 -->
<g id="edge91" class="edge">
<title>&#45;19&#45;&gt;4</title>
<path fill="none" stroke="red" stroke-width="0.17" d="M845.71,-213.53C841.42,-210.05 835.97,-206.28 830.38,-204.17 674.6,-145.25 616,-218.94 457.38,-168.17 456.33,-167.83 455.27,-167.44 454.22,-167.01"/>
<polygon fill="red" stroke="red" stroke-width="0.17" points="455.63,-163.8 445.12,-162.42 452.48,-170.05 455.63,-163.8"/>
</g>
<!-- &#45;20 -->
<g id="node20" class="node">
<title>&#45;20</title>
<polygon fill="lightgray" stroke="black" points="954.88,-231.55 925.88,-231.55 925.88,-213.55 954.88,-213.55 954.88,-231.55"/>
<text text-anchor="middle" x="940.38" y="-220.35" font-family="Times New Roman,serif" font-size="9.00">&#45;20</text>
</g>
<!-- &#45;20&#45;&gt;0 -->
<g id="edge92" class="edge">
<title>&#45;20&#45;&gt;0</title>
<path fill="none" stroke="red" stroke-width="0.55" d="M935.63,-213.55C919.78,-187.62 865.94,-105.36 798.38,-65.7 737.2,-29.78 651.89,-19.74 610.25,-16.93"/>
<polygon fill="red" stroke="red" stroke-width="0.55" points="610.36,-13.43 600.18,-16.34 609.95,-20.42 610.36,-13.43"/>
</g>
<!-- &#45;20&#45;&gt;1 -->
<g id="edge93" class="edge">
<title>&#45;20&#45;&gt;1</title>
<path fill="none" stroke="red" stroke-width="0.51" d="M929.01,-213.47C923.84,-210.14 917.53,-206.52 911.38,-204.17 829.54,-172.85 725.25,-160.46 678.29,-156.23"/>
<polygon fill="red" stroke="red" stroke-width="0.51" points="678.4,-152.73 668.14,-155.36 677.8,-159.7 678.4,-152.73"/>
</g>
<!-- &#45;20&#45;&gt;2 -->
<g id="edge94" class="edge">
<title>&#45;20&#45;&gt;2</title>
<path fill="none" stroke="green" stroke-width="0.51" d="M925.77,-216.85C913.09,-212.94 894.19,-207.49 877.38,-204.17 747.38,-178.47 712.8,-185.26 581.38,-168.17 555.6,-164.81 526.12,-160.7 505.89,-157.83"/>
<polygon fill="green" stroke="green" stroke-width="0.51" points="506.34,-154.36 495.95,-156.41 505.36,-161.29 506.34,-154.36"/>
</g>
<!-- &#45;20&#45;&gt;3 -->
<g id="edge95" class="edge">
<title>&#45;20&#45;&gt;3</title>
<path fill="none" stroke="red" stroke-width="0.18" d="M929.35,-213.46C924.15,-210.04 917.71,-206.36 911.38,-204.17 792,-162.81 749.11,-208.53 629.38,-168.17 628.51,-167.87 627.63,-167.54 626.75,-167.18"/>
<polygon fill="red" stroke="red" stroke-width="0.18" points="628.15,-163.97 617.64,-162.63 625.02,-170.24 628.15,-163.97"/>
</g>
<!-- &#45;20&#45;&gt;4 -->
<g id="edge96" class="edge">
<title>&#45;20&#45;&gt;4</title>
<path fill="none" stroke="green" stroke-width="0.23" d="M925.79,-216.7C913.14,-212.69 894.25,-207.19 877.38,-204.17 692.97,-171.11 636.12,-224.33 457.38,-168.17 456.33,-167.83 455.27,-167.45 454.22,-167.03"/>
<polygon fill="green" stroke="green" stroke-width="0.23" points="455.62,-163.82 445.12,-162.45 452.48,-170.07 455.62,-163.82"/>
</g>
<!-- 3&#45;&gt;64 -->
<g id="edge101" class="edge">
<title>3&#45;&gt;64</title>
<path fill="none" stroke="red" stroke-width="0.28" d="M606.01,-138.39C606.33,-131.06 606.75,-121.8 607.14,-113.07"/>
<polygon fill="red" stroke="red" stroke-width="0.28" points="610.64,-112.99 607.59,-102.84 603.65,-112.67 610.64,-112.99"/>
</g>
<!-- 64&#45;&gt;0 -->
<g id="edge98" class="edge">
<title>64&#45;&gt;0</title>
<path fill="none" stroke="red" stroke-width="0.67" d="M602.7,-66.46C599.84,-58.1 596.33,-47.83 593.21,-38.74"/>
<polygon fill="red" stroke="red" stroke-width="0.67" points="596.48,-37.46 589.93,-29.13 589.85,-39.72 596.48,-37.46"/>
</g>
<!-- 92&#45;&gt;4 -->
<g id="edge100" class="edge">
<title>92&#45;&gt;4</title>
<path fill="none" stroke="red" stroke-width="0.33" d="M33.49,-211.86C38.67,-208.95 44.61,-206.04 50.38,-204.17 180.36,-162.02 346.07,-155.39 408.29,-154.43"/>
<polygon fill="red" stroke="red" stroke-width="0.33" points="408.39,-157.93 418.35,-154.32 408.31,-150.93 408.39,-157.93"/>
</g>
</g>
</svg>
