<?xml version="1.0" encoding="UTF-8" standalone="no"?>
<!DOCTYPE svg PUBLIC "-//W3C//DTD SVG 1.1//EN"
 "http://www.w3.org/Graphics/SVG/1.1/DTD/svg11.dtd">
<!-- Generated by graphviz version 2.49.0 (20210828.1703)
 -->
<!-- Pages: 1 -->
<svg width="1106pt" height="183pt"
 viewBox="0.00 0.00 1105.92 182.85" xmlns="http://www.w3.org/2000/svg" xmlns:xlink="http://www.w3.org/1999/xlink">
<g id="graph0" class="graph" transform="scale(1 1) rotate(0) translate(4 178.85)">
<polygon fill="white" stroke="transparent" points="-4,4 -4,-178.85 1101.92,-178.85 1101.92,4 -4,4"/>
<!-- &#45;1 -->
<g id="node1" class="node">
<title>&#45;1</title>
<polygon fill="lightgray" stroke="black" points="866.46,-174.85 842.46,-174.85 842.46,-156.85 866.46,-156.85 866.46,-174.85"/>
<text text-anchor="middle" x="854.46" y="-163.65" font-family="Times New Roman,serif" font-size="9.00">&#45;1</text>
</g>
<!-- 0 -->
<g id="node21" class="node">
<title>0</title>
<ellipse fill="lightblue" stroke="black" cx="536.46" cy="-21.21" rx="14.7" ry="14.7"/>
<text text-anchor="middle" x="536.46" y="-19.01" font-family="Times New Roman,serif" font-size="9.00">0</text>
</g>
<!-- &#45;1&#45;&gt;0 -->
<g id="edge1" class="edge">
<title>&#45;1&#45;&gt;0</title>
<path fill="none" stroke="green" stroke-width="0.48" d="M866.57,-157.92C878.25,-150.46 895.18,-137.41 902.46,-120.85 910.05,-103.59 915.08,-92.44 902.46,-78.43 851.33,-21.63 630.78,-72.36 560.46,-42.43 558.34,-41.53 556.27,-40.37 554.29,-39.07"/>
<polygon fill="green" stroke="green" stroke-width="0.48" points="556.31,-36.21 546.28,-32.78 551.98,-41.71 556.31,-36.21"/>
</g>
<!-- 1 -->
<g id="node22" class="node">
<title>1</title>
<ellipse fill="lightblue" stroke="black" cx="488.46" cy="-21.21" rx="14.7" ry="14.7"/>
<text text-anchor="middle" x="488.46" y="-19.01" font-family="Times New Roman,serif" font-size="9.00">1</text>
</g>
<!-- &#45;1&#45;&gt;1 -->
<g id="edge2" class="edge">
<title>&#45;1&#45;&gt;1</title>
<path fill="none" stroke="red" stroke-width="0.33" stroke-dasharray="1,5" d="M845.48,-156.58C836.08,-147.86 820.99,-133.64 808.46,-120.85 790.53,-102.56 792.14,-90.33 769.46,-78.43 667.33,-24.83 617.79,-89.41 512.46,-42.43 510.36,-41.49 508.3,-40.31 506.32,-39"/>
<polygon fill="red" stroke="red" stroke-width="0.33" points="508.34,-36.13 498.32,-32.69 504.01,-41.63 508.34,-36.13"/>
</g>
<!-- 2 -->
<g id="node23" class="node">
<title>2</title>
<ellipse fill="lightblue" stroke="black" cx="398.46" cy="-21.21" rx="14.7" ry="14.7"/>
<text text-anchor="middle" x="398.46" y="-19.01" font-family="Times New Roman,serif" font-size="9.00">2</text>
</g>
<!-- &#45;1&#45;&gt;2 -->
<g id="edge3" class="edge">
<title>&#45;1&#45;&gt;2</title>
<path fill="none" stroke="green" stroke-width="0.4" d="M842.39,-164.05C820.09,-162.58 770.92,-159.37 729.46,-156.85 694.63,-154.74 126.41,-146.22 102.46,-120.85 89.51,-107.14 90.03,-92.61 102.46,-78.43 142.65,-32.57 318.68,-67.05 374.46,-42.43 376.57,-41.5 378.63,-40.32 380.61,-39.01"/>
<polygon fill="green" stroke="green" stroke-width="0.4" points="382.92,-41.65 388.61,-32.71 378.59,-36.15 382.92,-41.65"/>
</g>
<!-- 3 -->
<g id="node24" class="node">
<title>3</title>
<ellipse fill="lightblue" stroke="black" cx="350.46" cy="-21.21" rx="14.7" ry="14.7"/>
<text text-anchor="middle" x="350.46" y="-19.01" font-family="Times New Roman,serif" font-size="9.00">3</text>
</g>
<!-- &#45;1&#45;&gt;3 -->
<g id="edge4" class="edge">
<title>&#45;1&#45;&gt;3</title>
<path fill="none" stroke="green" stroke-width="0.2" d="M842.4,-164.03C820.1,-162.52 770.93,-159.24 729.46,-156.85 690.2,-154.6 49.55,-149.36 22.46,-120.85 9.47,-107.18 10.3,-92.84 22.46,-78.43 42.12,-55.11 252.51,-32.01 325.61,-24.64"/>
<polygon fill="green" stroke="green" stroke-width="0.2" points="326.13,-28.1 335.73,-23.63 325.44,-21.14 326.13,-28.1"/>
</g>
<!-- 4 -->
<g id="node25" class="node">
<title>4</title>
<ellipse fill="lightblue" stroke="black" cx="584.46" cy="-21.21" rx="14.7" ry="14.7"/>
<text text-anchor="middle" x="584.46" y="-19.01" font-family="Times New Roman,serif" font-size="9.00">4</text>
</g>
<!-- &#45;1&#45;&gt;4 -->
<g id="edge5" class="edge">
<title>&#45;1&#45;&gt;4</title>
<path fill="none" stroke="red" stroke-width="0.2" stroke-dasharray="1,5" d="M866.68,-164.53C922.86,-162.65 1150.93,-150.51 1086.46,-78.43 1054.3,-42.47 706.61,-26.8 609.51,-23.1"/>
<polygon fill="red" stroke="red" stroke-width="0.2" points="609.56,-19.6 599.44,-22.73 609.3,-26.6 609.56,-19.6"/>
</g>
<!-- 308 -->
<g id="node27" class="node">
<title>308</title>
<ellipse fill="white" stroke="black" cx="1056.46" cy="-99.64" rx="21.43" ry="21.43"/>
<text text-anchor="middle" x="1056.46" y="-97.44" font-family="Times New Roman,serif" font-size="9.00">308</text>
</g>
<!-- &#45;1&#45;&gt;308 -->
<g id="edge95" class="edge">
<title>&#45;1&#45;&gt;308</title>
<path fill="none" stroke="red" stroke-width="0.24" d="M866.56,-162.81C894.57,-157.84 965.74,-143.8 1021.46,-120.85 1024.35,-119.66 1027.3,-118.27 1030.19,-116.79"/>
<polygon fill="red" stroke="red" stroke-width="0.24" points="1032.05,-119.76 1039.12,-111.87 1028.67,-113.63 1032.05,-119.76"/>
</g>
<!-- &#45;2 -->
<g id="node2" class="node">
<title>&#45;2</title>
<polygon fill="lightgray" stroke="black" points="638.46,-108.64 614.46,-108.64 614.46,-90.64 638.46,-90.64 638.46,-108.64"/>
<text text-anchor="middle" x="626.46" y="-97.44" font-family="Times New Roman,serif" font-size="9.00">&#45;2</text>
</g>
<!-- &#45;2&#45;&gt;0 -->
<g id="edge6" class="edge">
<title>&#45;2&#45;&gt;0</title>
<path fill="none" stroke="red" stroke-width="1.18" d="M618.45,-90.59C614.6,-86.81 609.87,-82.3 605.46,-78.43 586.21,-61.53 580.26,-58.68 560.46,-42.43 558.88,-41.13 557.25,-39.78 555.62,-38.42"/>
<polygon fill="red" stroke="red" stroke-width="1.18" points="557.55,-35.48 547.64,-31.73 553.06,-40.84 557.55,-35.48"/>
</g>
<!-- &#45;2&#45;&gt;1 -->
<g id="edge7" class="edge">
<title>&#45;2&#45;&gt;1</title>
<path fill="none" stroke="green" stroke-width="0.71" d="M619.31,-90.35C615.51,-86.34 610.58,-81.69 605.46,-78.43 568.09,-54.59 550.6,-65.01 512.46,-42.43 510.48,-41.25 508.5,-39.92 506.57,-38.5"/>
<polygon fill="green" stroke="green" stroke-width="0.71" points="508.61,-35.65 498.64,-32.08 504.21,-41.09 508.61,-35.65"/>
</g>
<!-- &#45;2&#45;&gt;2 -->
<g id="edge8" class="edge">
<title>&#45;2&#45;&gt;2</title>
<path fill="none" stroke="green" stroke-width="0.33" d="M619.84,-90.49C616.04,-86.32 610.94,-81.48 605.46,-78.43 548.95,-46.96 526.73,-59.9 464.46,-42.43 450.31,-38.46 434.57,-33.65 422.01,-29.72"/>
<polygon fill="green" stroke="green" stroke-width="0.33" points="422.9,-26.33 412.31,-26.66 420.79,-33.01 422.9,-26.33"/>
</g>
<!-- &#45;2&#45;&gt;3 -->
<g id="edge9" class="edge">
<title>&#45;2&#45;&gt;3</title>
<path fill="none" stroke="red" stroke-width="0.21" d="M619.95,-90.28C616.18,-86.04 611.08,-81.21 605.46,-78.43 512.38,-32.26 469.02,-85.48 374.46,-42.43 372.37,-41.47 370.31,-40.28 368.33,-38.96"/>
<polygon fill="red" stroke="red" stroke-width="0.21" points="370.36,-36.1 360.34,-32.65 366.02,-41.59 370.36,-36.1"/>
</g>
<!-- &#45;2&#45;&gt;4 -->
<g id="edge10" class="edge">
<title>&#45;2&#45;&gt;4</title>
<path fill="none" stroke="green" stroke-width="0.48" d="M621.97,-90.46C615.87,-79.36 604.75,-59.14 596.2,-43.57"/>
<polygon fill="green" stroke="green" stroke-width="0.48" points="599.16,-41.69 591.27,-34.61 593.02,-45.06 599.16,-41.69"/>
</g>
<!-- &#45;3 -->
<g id="node3" class="node">
<title>&#45;3</title>
<polygon fill="lightgray" stroke="black" points="680.46,-108.64 656.46,-108.64 656.46,-90.64 680.46,-90.64 680.46,-108.64"/>
<text text-anchor="middle" x="668.46" y="-97.44" font-family="Times New Roman,serif" font-size="9.00">&#45;3</text>
</g>
<!-- &#45;3&#45;&gt;0 -->
<g id="edge11" class="edge">
<title>&#45;3&#45;&gt;0</title>
<path fill="none" stroke="red" stroke-width="0.34" stroke-dasharray="1,5" d="M661.28,-90.4C657.47,-86.4 652.54,-81.75 647.46,-78.43 612.44,-55.52 596.22,-64.16 560.46,-42.43 558.49,-41.23 556.52,-39.88 554.6,-38.46"/>
<polygon fill="red" stroke="red" stroke-width="0.34" points="556.64,-35.61 546.68,-32.02 552.23,-41.04 556.64,-35.61"/>
</g>
<!-- &#45;3&#45;&gt;1 -->
<g id="edge12" class="edge">
<title>&#45;3&#45;&gt;1</title>
<path fill="none" stroke="red" stroke-width="0.44" d="M661.83,-90.52C658.02,-86.35 652.93,-81.51 647.46,-78.43 593.37,-47.93 567.53,-71.12 512.46,-42.43 510.42,-41.36 508.4,-40.1 506.45,-38.73"/>
<polygon fill="red" stroke="red" stroke-width="0.44" points="508.48,-35.87 498.48,-32.36 504.1,-41.34 508.48,-35.87"/>
</g>
<!-- &#45;3&#45;&gt;2 -->
<g id="edge13" class="edge">
<title>&#45;3&#45;&gt;2</title>
<path fill="none" stroke="red" stroke-width="0.84" d="M661.91,-90.37C658.13,-86.16 653.02,-81.33 647.46,-78.43 573.95,-40.13 544.86,-62.59 464.46,-42.43 450.2,-38.85 434.46,-34.06 421.92,-30.04"/>
<polygon fill="red" stroke="red" stroke-width="0.84" points="422.84,-26.66 412.25,-26.89 420.67,-33.32 422.84,-26.66"/>
</g>
<!-- &#45;3&#45;&gt;3 -->
<g id="edge14" class="edge">
<title>&#45;3&#45;&gt;3</title>
<path fill="none" stroke="green" stroke-width="0.58" stroke-dasharray="1,5" d="M661.98,-90.23C658.22,-85.98 653.11,-81.15 647.46,-78.43 537.19,-25.34 486.43,-91.83 374.46,-42.43 372.35,-41.5 370.29,-40.32 368.31,-39.01"/>
<polygon fill="green" stroke="green" stroke-width="0.58" points="370.33,-36.15 360.31,-32.71 366,-41.65 370.33,-36.15"/>
</g>
<!-- &#45;3&#45;&gt;4 -->
<g id="edge15" class="edge">
<title>&#45;3&#45;&gt;4</title>
<path fill="none" stroke="red" stroke-width="0.4" d="M659.95,-90.3C656.16,-86.63 651.62,-82.28 647.46,-78.43 632.64,-64.69 615.52,-49.46 602.87,-38.31"/>
<polygon fill="red" stroke="red" stroke-width="0.4" points="605.1,-35.61 595.27,-31.64 600.48,-40.87 605.1,-35.61"/>
</g>
<!-- &#45;4 -->
<g id="node4" class="node">
<title>&#45;4</title>
<polygon fill="lightgray" stroke="black" points="760.46,-108.64 736.46,-108.64 736.46,-90.64 760.46,-90.64 760.46,-108.64"/>
<text text-anchor="middle" x="748.46" y="-97.44" font-family="Times New Roman,serif" font-size="9.00">&#45;4</text>
</g>
<!-- &#45;4&#45;&gt;0 -->
<g id="edge16" class="edge">
<title>&#45;4&#45;&gt;0</title>
<path fill="none" stroke="red" stroke-width="0.11" d="M739.97,-90.47C735.18,-86.28 728.88,-81.44 722.46,-78.43 655.72,-47.03 626.57,-75.13 560.46,-42.43 558.4,-41.41 556.36,-40.17 554.4,-38.82"/>
<polygon fill="red" stroke="red" stroke-width="0.11" points="556.43,-35.96 546.42,-32.47 552.07,-41.44 556.43,-35.96"/>
</g>
<!-- &#45;4&#45;&gt;1 -->
<g id="edge17" class="edge">
<title>&#45;4&#45;&gt;1</title>
<path fill="none" stroke="green" stroke-width="0.31" d="M740.02,-90.34C735.25,-86.12 728.95,-81.29 722.46,-78.43 635.81,-40.22 598.34,-82.32 512.46,-42.43 510.37,-41.46 508.32,-40.26 506.35,-38.93"/>
<polygon fill="green" stroke="green" stroke-width="0.31" points="508.37,-36.07 498.36,-32.6 504.03,-41.56 508.37,-36.07"/>
</g>
<!-- &#45;4&#45;&gt;2 -->
<g id="edge18" class="edge">
<title>&#45;4&#45;&gt;2</title>
<path fill="none" stroke="red" stroke-width="0.16" d="M736.44,-93.84C724.64,-89.29 706.06,-82.57 689.46,-78.43 591.2,-53.93 563.11,-65.31 464.46,-42.43 450.14,-39.11 434.39,-34.33 421.87,-30.25"/>
<polygon fill="red" stroke="red" stroke-width="0.16" points="422.81,-26.87 412.21,-27.04 420.6,-33.51 422.81,-26.87"/>
</g>
<!-- &#45;4&#45;&gt;3 -->
<g id="edge19" class="edge">
<title>&#45;4&#45;&gt;3</title>
<path fill="none" stroke="green" stroke-width="0.33" stroke-dasharray="1,5" d="M736.03,-93.5C724.24,-88.84 705.94,-82.14 689.46,-78.43 552,-47.41 503.87,-98.19 374.46,-42.43 372.35,-41.52 370.28,-40.35 368.29,-39.05"/>
<polygon fill="green" stroke="green" stroke-width="0.33" points="370.32,-36.19 360.29,-32.76 365.99,-41.69 370.32,-36.19"/>
</g>
<!-- &#45;4&#45;&gt;4 -->
<g id="edge20" class="edge">
<title>&#45;4&#45;&gt;4</title>
<path fill="none" stroke="green" stroke-width="0.41" d="M739.27,-90.49C734.49,-86.51 728.4,-81.86 722.46,-78.43 684.52,-56.51 636.38,-38.99 608.14,-29.64"/>
<polygon fill="green" stroke="green" stroke-width="0.41" points="608.95,-26.22 598.36,-26.46 606.79,-32.88 608.95,-26.22"/>
</g>
<!-- &#45;5 -->
<g id="node5" class="node">
<title>&#45;5</title>
<polygon fill="lightgray" stroke="black" points="55.46,-108.64 31.46,-108.64 31.46,-90.64 55.46,-90.64 55.46,-108.64"/>
<text text-anchor="middle" x="43.46" y="-97.44" font-family="Times New Roman,serif" font-size="9.00">&#45;5</text>
</g>
<!-- &#45;5&#45;&gt;1 -->
<g id="edge21" class="edge">
<title>&#45;5&#45;&gt;1</title>
<path fill="none" stroke="green" stroke-width="0.23" stroke-dasharray="1,5" d="M55.89,-93.49C67.68,-88.83 85.98,-82.13 102.46,-78.43 242.1,-47.05 282.33,-71.51 422.46,-42.43 436.85,-39.44 452.6,-34.67 465.11,-30.52"/>
<polygon fill="green" stroke="green" stroke-width="0.23" points="466.42,-33.77 474.75,-27.23 464.15,-27.15 466.42,-33.77"/>
</g>
<!-- &#45;5&#45;&gt;2 -->
<g id="edge22" class="edge">
<title>&#45;5&#45;&gt;2</title>
<path fill="none" stroke="green" stroke-width="0.42" d="M51.38,-90.62C56.19,-86.26 62.69,-81.2 69.46,-78.43 195.75,-26.64 249.21,-96.68 374.46,-42.43 376.57,-41.51 378.64,-40.35 380.62,-39.04"/>
<polygon fill="green" stroke="green" stroke-width="0.42" points="382.93,-41.68 388.62,-32.75 378.6,-36.18 382.93,-41.68"/>
</g>
<!-- &#45;5&#45;&gt;3 -->
<g id="edge23" class="edge">
<title>&#45;5&#45;&gt;3</title>
<path fill="none" stroke="green" stroke-width="0.57" d="M51.93,-90.41C56.71,-86.21 63.01,-81.38 69.46,-78.43 157.76,-38.02 274.76,-26.55 325.37,-23.38"/>
<polygon fill="green" stroke="green" stroke-width="0.57" points="325.61,-26.87 335.4,-22.81 325.21,-19.89 325.61,-26.87"/>
</g>
<!-- &#45;6 -->
<g id="node6" class="node">
<title>&#45;6</title>
<polygon fill="lightgray" stroke="black" points="135.46,-108.64 111.46,-108.64 111.46,-90.64 135.46,-90.64 135.46,-108.64"/>
<text text-anchor="middle" x="123.46" y="-97.44" font-family="Times New Roman,serif" font-size="9.00">&#45;6</text>
</g>
<!-- &#45;6&#45;&gt;0 -->
<g id="edge24" class="edge">
<title>&#45;6&#45;&gt;0</title>
<path fill="none" stroke="red" stroke-width="0.33" d="M129.55,-90.57C133.33,-86.19 138.58,-81.14 144.46,-78.43 293.7,-9.63 361.02,-106.23 512.46,-42.43 514.58,-41.53 516.66,-40.38 518.64,-39.09"/>
<polygon fill="red" stroke="red" stroke-width="0.33" points="520.94,-41.73 526.65,-32.8 516.62,-36.23 520.94,-41.73"/>
</g>
<!-- &#45;6&#45;&gt;1 -->
<g id="edge25" class="edge">
<title>&#45;6&#45;&gt;1</title>
<path fill="none" stroke="green" stroke-width="0.12" d="M129.58,-90.64C133.37,-86.28 138.62,-81.23 144.46,-78.43 256.78,-24.51 300.69,-68.76 422.46,-42.43 436.83,-39.32 452.58,-34.55 465.09,-30.42"/>
<polygon fill="green" stroke="green" stroke-width="0.12" points="466.38,-33.68 474.73,-27.16 464.14,-27.05 466.38,-33.68"/>
</g>
<!-- &#45;6&#45;&gt;2 -->
<g id="edge26" class="edge">
<title>&#45;6&#45;&gt;2</title>
<path fill="none" stroke="red" stroke-width="0.17" d="M129.97,-90.28C133.74,-86.05 138.84,-81.22 144.46,-78.43 237.14,-32.42 280.31,-85.33 374.46,-42.43 376.55,-41.47 378.61,-40.28 380.59,-38.96"/>
<polygon fill="red" stroke="red" stroke-width="0.17" points="382.9,-41.59 388.58,-32.64 378.56,-36.1 382.9,-41.59"/>
</g>
<!-- &#45;6&#45;&gt;3 -->
<g id="edge27" class="edge">
<title>&#45;6&#45;&gt;3</title>
<path fill="none" stroke="green" stroke-width="0.62" d="M130.1,-90.53C133.91,-86.36 139,-81.52 144.46,-78.43 204.26,-44.48 285.55,-30.21 325.8,-24.93"/>
<polygon fill="green" stroke="green" stroke-width="0.62" points="326.29,-28.4 335.78,-23.7 325.43,-21.45 326.29,-28.4"/>
</g>
<!-- &#45;6&#45;&gt;4 -->
<g id="edge28" class="edge">
<title>&#45;6&#45;&gt;4</title>
<path fill="none" stroke="red" stroke-width="0.35" d="M129.54,-90.54C133.31,-86.16 138.56,-81.1 144.46,-78.43 313.43,-1.69 389.04,-113.52 560.46,-42.43 562.59,-41.54 564.66,-40.4 566.65,-39.11"/>
<polygon fill="red" stroke="red" stroke-width="0.35" points="568.95,-41.76 574.66,-32.83 564.63,-36.25 568.95,-41.76"/>
</g>
<!-- 169 -->
<g id="node26" class="node">
<title>169</title>
<ellipse fill="white" stroke="black" cx="123.46" cy="-21.21" rx="21.43" ry="21.43"/>
<text text-anchor="middle" x="123.46" y="-19.01" font-family="Times New Roman,serif" font-size="9.00">169</text>
</g>
<!-- &#45;6&#45;&gt;169 -->
<g id="edge92" class="edge">
<title>&#45;6&#45;&gt;169</title>
<path fill="none" stroke="red" stroke-width="0.12" stroke-dasharray="1,5" d="M123.46,-90.46C123.46,-81.44 123.46,-66.38 123.46,-52.71"/>
<polygon fill="red" stroke="red" stroke-width="0.12" points="126.96,-52.64 123.46,-42.64 119.96,-52.64 126.96,-52.64"/>
</g>
<!-- &#45;7 -->
<g id="node7" class="node">
<title>&#45;7</title>
<polygon fill="lightgray" stroke="black" points="596.46,-108.64 572.46,-108.64 572.46,-90.64 596.46,-90.64 596.46,-108.64"/>
<text text-anchor="middle" x="584.46" y="-97.44" font-family="Times New Roman,serif" font-size="9.00">&#45;7</text>
</g>
<!-- &#45;7&#45;&gt;0 -->
<g id="edge29" class="edge">
<title>&#45;7&#45;&gt;0</title>
<path fill="none" stroke="green" stroke-width="0.31" d="M579.32,-90.46C572.21,-79.13 559.11,-58.28 549.26,-42.6"/>
<polygon fill="green" stroke="green" stroke-width="0.31" points="552.19,-40.68 543.91,-34.07 546.26,-44.4 552.19,-40.68"/>
</g>
<!-- &#45;7&#45;&gt;1 -->
<g id="edge30" class="edge">
<title>&#45;7&#45;&gt;1</title>
<path fill="none" stroke="green" stroke-width="0.62" d="M576.55,-90.47C572.72,-86.67 567.99,-82.17 563.46,-78.43 542.07,-60.76 534.42,-59.38 512.46,-42.43 510.84,-41.18 509.18,-39.86 507.53,-38.52"/>
<polygon fill="green" stroke="green" stroke-width="0.62" points="509.46,-35.57 499.53,-31.88 504.98,-40.96 509.46,-35.57"/>
</g>
<!-- &#45;7&#45;&gt;2 -->
<g id="edge31" class="edge">
<title>&#45;7&#45;&gt;2</title>
<path fill="none" stroke="green" stroke-width="0.83" d="M577.37,-90.26C573.58,-86.23 568.65,-81.59 563.46,-78.43 551.08,-70.88 464.72,-43.12 422.12,-29.64"/>
<polygon fill="green" stroke="green" stroke-width="0.83" points="423.13,-26.29 412.54,-26.62 421.02,-32.97 423.13,-26.29"/>
</g>
<!-- &#45;7&#45;&gt;3 -->
<g id="edge32" class="edge">
<title>&#45;7&#45;&gt;3</title>
<path fill="none" stroke="green" stroke-width="0.46" d="M577.91,-90.36C574.13,-86.14 569.03,-81.31 563.46,-78.43 487.51,-39.15 451.68,-79.16 374.46,-42.43 372.38,-41.44 370.34,-40.22 368.37,-38.89"/>
<polygon fill="green" stroke="green" stroke-width="0.46" points="370.39,-36.03 360.38,-32.55 366.04,-41.51 370.39,-36.03"/>
</g>
<!-- &#45;7&#45;&gt;4 -->
<g id="edge33" class="edge">
<title>&#45;7&#45;&gt;4</title>
<path fill="none" stroke="red" stroke-width="0.27" d="M584.46,-90.46C584.46,-80.05 584.46,-61.6 584.46,-46.51"/>
<polygon fill="red" stroke="red" stroke-width="0.27" points="587.96,-46.28 584.46,-36.28 580.96,-46.28 587.96,-46.28"/>
</g>
<!-- &#45;8 -->
<g id="node8" class="node">
<title>&#45;8</title>
<polygon fill="lightgray" stroke="black" points="720.46,-174.85 696.46,-174.85 696.46,-156.85 720.46,-156.85 720.46,-174.85"/>
<text text-anchor="middle" x="708.46" y="-163.65" font-family="Times New Roman,serif" font-size="9.00">&#45;8</text>
</g>
<!-- &#45;8&#45;&gt;1 -->
<g id="edge34" class="edge">
<title>&#45;8&#45;&gt;1</title>
<path fill="none" stroke="red" stroke-width="1.04" d="M709.31,-156.84C710.65,-139.8 711.14,-99.77 689.46,-78.43 632.25,-22.11 584.73,-77.37 512.46,-42.43 510.39,-41.42 508.35,-40.2 506.38,-38.86"/>
<polygon fill="red" stroke="red" stroke-width="1.04" points="508.41,-36 498.4,-32.52 504.05,-41.48 508.41,-36"/>
</g>
<!-- &#45;8&#45;&gt;2 -->
<g id="edge35" class="edge">
<title>&#45;8&#45;&gt;2</title>
<path fill="none" stroke="green" stroke-width="0.31" d="M696.43,-164.54C606.84,-162.19 46.49,-146.48 22.46,-120.85 9.56,-107.1 9.82,-92.42 22.46,-78.43 75.16,-20.07 302.07,-73.11 374.46,-42.43 376.58,-41.53 378.65,-40.38 380.64,-39.08"/>
<polygon fill="green" stroke="green" stroke-width="0.31" points="382.94,-41.72 388.64,-32.79 378.62,-36.22 382.94,-41.72"/>
</g>
<!-- &#45;8&#45;&gt;3 -->
<g id="edge36" class="edge">
<title>&#45;8&#45;&gt;3</title>
<path fill="none" stroke="green" stroke-width="0.45" d="M696.2,-164.55C604.92,-162.27 33.96,-146.95 9.46,-120.85 -3.45,-107.11 -2.74,-92.8 9.46,-78.43 30.04,-54.17 250.53,-31.53 325.6,-24.47"/>
<polygon fill="green" stroke="green" stroke-width="0.45" points="325.95,-27.95 335.58,-23.54 325.3,-20.98 325.95,-27.95"/>
</g>
<!-- &#45;8&#45;&gt;4 -->
<g id="edge37" class="edge">
<title>&#45;8&#45;&gt;4</title>
<path fill="none" stroke="red" stroke-width="0.46" stroke-dasharray="1,5" d="M720.68,-163.86C772.29,-159.54 970.67,-141.66 988.46,-120.85 1000.71,-106.52 1000.84,-92.65 988.46,-78.43 938.72,-21.29 689.97,-20.39 609.57,-21.64"/>
<polygon fill="red" stroke="red" stroke-width="0.46" points="609.31,-18.14 599.38,-21.82 609.44,-25.14 609.31,-18.14"/>
</g>
<!-- &#45;8&#45;&gt;308 -->
<g id="edge93" class="edge">
<title>&#45;8&#45;&gt;308</title>
<path fill="none" stroke="red" stroke-width="0.39" d="M720.51,-163.78C770.78,-159.21 963.87,-140.69 1021.46,-120.85 1024.42,-119.83 1027.4,-118.56 1030.32,-117.14"/>
<polygon fill="red" stroke="red" stroke-width="0.39" points="1032.15,-120.14 1039.29,-112.31 1028.82,-113.98 1032.15,-120.14"/>
</g>
<!-- &#45;9 -->
<g id="node9" class="node">
<title>&#45;9</title>
<polygon fill="lightgray" stroke="black" points="177.46,-108.64 153.46,-108.64 153.46,-90.64 177.46,-90.64 177.46,-108.64"/>
<text text-anchor="middle" x="165.46" y="-97.44" font-family="Times New Roman,serif" font-size="9.00">&#45;9</text>
</g>
<!-- &#45;9&#45;&gt;0 -->
<g id="edge38" class="edge">
<title>&#45;9&#45;&gt;0</title>
<path fill="none" stroke="red" stroke-width="0.71" d="M171.56,-90.59C175.34,-86.23 180.59,-81.17 186.46,-78.43 318.46,-16.58 378.48,-99.86 512.46,-42.43 514.58,-41.52 516.65,-40.36 518.63,-39.06"/>
<polygon fill="red" stroke="red" stroke-width="0.71" points="520.93,-41.7 526.63,-32.77 516.61,-36.2 520.93,-41.7"/>
</g>
<!-- &#45;9&#45;&gt;1 -->
<g id="edge39" class="edge">
<title>&#45;9&#45;&gt;1</title>
<path fill="none" stroke="green" stroke-width="0.26" d="M171.96,-90.28C175.73,-86.03 180.83,-81.21 186.46,-78.43 281.59,-31.43 319.02,-66.02 422.46,-42.43 436.79,-39.16 452.54,-34.38 465.06,-30.29"/>
<polygon fill="green" stroke="green" stroke-width="0.26" points="466.34,-33.55 474.71,-27.07 464.12,-26.92 466.34,-33.55"/>
</g>
<!-- &#45;9&#45;&gt;2 -->
<g id="edge40" class="edge">
<title>&#45;9&#45;&gt;2</title>
<path fill="none" stroke="green" stroke-width="0.2" d="M172.01,-90.36C175.79,-86.14 180.89,-81.31 186.46,-78.43 262.01,-39.31 297.66,-79.01 374.46,-42.43 376.54,-41.44 378.58,-40.22 380.55,-38.89"/>
<polygon fill="green" stroke="green" stroke-width="0.2" points="382.88,-41.51 388.53,-32.55 378.52,-36.03 382.88,-41.51"/>
</g>
<!-- &#45;9&#45;&gt;3 -->
<g id="edge41" class="edge">
<title>&#45;9&#45;&gt;3</title>
<path fill="none" stroke="red" stroke-width="0.18" d="M172.56,-90.27C176.34,-86.23 181.28,-81.59 186.46,-78.43 231.89,-50.68 292.82,-34.44 326.16,-27.05"/>
<polygon fill="red" stroke="red" stroke-width="0.18" points="326.9,-30.47 335.95,-24.96 325.44,-23.63 326.9,-30.47"/>
</g>
<!-- &#45;9&#45;&gt;4 -->
<g id="edge42" class="edge">
<title>&#45;9&#45;&gt;4</title>
<path fill="none" stroke="red" stroke-width="0.41" d="M171.55,-90.56C175.33,-86.19 180.58,-81.13 186.46,-78.43 338.17,-8.64 406.52,-107.14 560.46,-42.43 562.58,-41.53 564.66,-40.39 566.64,-39.09"/>
<polygon fill="red" stroke="red" stroke-width="0.41" points="568.94,-41.73 574.65,-32.81 564.62,-36.23 568.94,-41.73"/>
</g>
<!-- &#45;10 -->
<g id="node10" class="node">
<title>&#45;10</title>
<polygon fill="lightgray" stroke="black" points="224.96,-108.64 195.96,-108.64 195.96,-90.64 224.96,-90.64 224.96,-108.64"/>
<text text-anchor="middle" x="210.46" y="-97.44" font-family="Times New Roman,serif" font-size="9.00">&#45;10</text>
</g>
<!-- &#45;10&#45;&gt;0 -->
<g id="edge43" class="edge">
<title>&#45;10&#45;&gt;0</title>
<path fill="none" stroke="green" stroke-width="0.37" d="M217.31,-90.64C221.51,-86.28 227.26,-81.23 233.46,-78.43 347.38,-26.91 398,-92.74 512.46,-42.43 514.57,-41.5 516.63,-40.33 518.61,-39.02"/>
<polygon fill="green" stroke="green" stroke-width="0.37" points="520.92,-41.66 526.61,-32.72 516.59,-36.16 520.92,-41.66"/>
</g>
<!-- &#45;10&#45;&gt;1 -->
<g id="edge44" class="edge">
<title>&#45;10&#45;&gt;1</title>
<path fill="none" stroke="red" stroke-width="0.49" d="M217.78,-90.37C221.96,-86.15 227.54,-81.32 233.46,-78.43 310.29,-40.88 339.46,-62.98 422.46,-42.43 436.73,-38.89 452.47,-34.11 465.01,-30.08"/>
<polygon fill="red" stroke="red" stroke-width="0.49" points="466.26,-33.35 474.68,-26.92 464.08,-26.7 466.26,-33.35"/>
</g>
<!-- &#45;10&#45;&gt;2 -->
<g id="edge45" class="edge">
<title>&#45;10&#45;&gt;2</title>
<path fill="none" stroke="green" stroke-width="0.25" d="M217.85,-90.51C222.05,-86.34 227.63,-81.5 233.46,-78.43 290.66,-48.25 316.94,-72 374.46,-42.43 376.51,-41.37 378.53,-40.12 380.49,-38.76"/>
<polygon fill="green" stroke="green" stroke-width="0.25" points="382.83,-41.37 388.45,-32.39 378.46,-35.9 382.83,-41.37"/>
</g>
<!-- &#45;10&#45;&gt;3 -->
<g id="edge46" class="edge">
<title>&#45;10&#45;&gt;3</title>
<path fill="none" stroke="red" stroke-width="0.59" d="M218.53,-90.57C222.75,-86.61 228.14,-81.95 233.46,-78.43 264.05,-58.19 303.03,-40.96 327.37,-31.1"/>
<polygon fill="red" stroke="red" stroke-width="0.59" points="328.84,-34.28 336.84,-27.34 326.26,-27.78 328.84,-34.28"/>
</g>
<!-- &#45;10&#45;&gt;4 -->
<g id="edge47" class="edge">
<title>&#45;10&#45;&gt;4</title>
<path fill="none" stroke="red" stroke-width="0.32" d="M217.29,-90.59C221.48,-86.23 227.23,-81.17 233.46,-78.43 367.24,-19.43 426.07,-100.01 560.46,-42.43 562.58,-41.52 564.65,-40.36 566.63,-39.06"/>
<polygon fill="red" stroke="red" stroke-width="0.32" points="568.93,-41.7 574.63,-32.77 564.61,-36.2 568.93,-41.7"/>
</g>
<!-- &#45;11 -->
<g id="node11" class="node">
<title>&#45;11</title>
<polygon fill="lightgray" stroke="black" points="271.96,-108.64 242.96,-108.64 242.96,-90.64 271.96,-90.64 271.96,-108.64"/>
<text text-anchor="middle" x="257.46" y="-97.44" font-family="Times New Roman,serif" font-size="9.00">&#45;11</text>
</g>
<!-- &#45;11&#45;&gt;0 -->
<g id="edge48" class="edge">
<title>&#45;11&#45;&gt;0</title>
<path fill="none" stroke="green" stroke-width="0.29" d="M264.74,-90.29C268.91,-86.05 274.49,-81.22 280.46,-78.43 374.98,-34.22 417.48,-85.64 512.46,-42.43 514.55,-41.47 516.61,-40.28 518.59,-38.96"/>
<polygon fill="green" stroke="green" stroke-width="0.29" points="520.9,-41.59 526.58,-32.65 516.56,-36.1 520.9,-41.59"/>
</g>
<!-- &#45;11&#45;&gt;1 -->
<g id="edge96" class="edge">
<title>&#45;11&#45;&gt;1</title>
<path fill="none" stroke="green" stroke-width="0.23" d="M264.85,-90.51C269.05,-86.34 274.63,-81.5 280.46,-78.43 338.07,-48.09 359.76,-59.96 422.46,-42.43 436.62,-38.47 452.36,-33.66 464.92,-29.73"/>
<polygon fill="green" stroke="green" stroke-width="0.23" points="466.13,-33.02 474.61,-26.67 464.02,-26.34 466.13,-33.02"/>
</g>
<!-- &#45;11&#45;&gt;2 -->
<g id="edge49" class="edge">
<title>&#45;11&#45;&gt;2</title>
<path fill="none" stroke="green" stroke-width="0.81" stroke-dasharray="1,5" d="M265.41,-90.38C269.6,-86.37 275,-81.72 280.46,-78.43 318.75,-55.3 335.93,-65.15 374.46,-42.43 376.44,-41.26 378.42,-39.92 380.35,-38.51"/>
<polygon fill="green" stroke="green" stroke-width="0.81" points="382.72,-41.1 388.29,-32.09 378.31,-35.66 382.72,-41.1"/>
</g>
<!-- &#45;11&#45;&gt;3 -->
<g id="edge50" class="edge">
<title>&#45;11&#45;&gt;3</title>
<path fill="none" stroke="green" stroke-width="0.1" d="M266.78,-90.28C270.93,-86.6 275.9,-82.26 280.46,-78.43 297.26,-64.31 316.75,-48.72 330.89,-37.55"/>
<polygon fill="green" stroke="green" stroke-width="0.1" points="333.25,-40.15 338.94,-31.21 328.91,-34.65 333.25,-40.15"/>
</g>
<!-- &#45;11&#45;&gt;4 -->
<g id="edge51" class="edge">
<title>&#45;11&#45;&gt;4</title>
<path fill="none" stroke="green" stroke-width="0.41" d="M264.31,-90.63C268.51,-86.28 274.26,-81.23 280.46,-78.43 394.8,-26.76 445.59,-92.89 560.46,-42.43 562.57,-41.5 564.63,-40.33 566.61,-39.02"/>
<polygon fill="green" stroke="green" stroke-width="0.41" points="568.92,-41.66 574.61,-32.72 564.59,-36.16 568.92,-41.66"/>
</g>
<!-- &#45;12 -->
<g id="node12" class="node">
<title>&#45;12</title>
<polygon fill="lightgray" stroke="black" points="318.96,-108.64 289.96,-108.64 289.96,-90.64 318.96,-90.64 318.96,-108.64"/>
<text text-anchor="middle" x="304.46" y="-97.44" font-family="Times New Roman,serif" font-size="9.00">&#45;12</text>
</g>
<!-- &#45;12&#45;&gt;0 -->
<g id="edge52" class="edge">
<title>&#45;12&#45;&gt;0</title>
<path fill="none" stroke="green" stroke-width="0.2" d="M311.78,-90.38C315.96,-86.17 321.54,-81.33 327.46,-78.43 402.64,-41.5 436.89,-78.56 512.46,-42.43 514.54,-41.43 516.58,-40.22 518.55,-38.88"/>
<polygon fill="green" stroke="green" stroke-width="0.2" points="520.87,-41.5 526.53,-32.54 516.52,-36.02 520.87,-41.5"/>
</g>
<!-- &#45;12&#45;&gt;1 -->
<g id="edge53" class="edge">
<title>&#45;12&#45;&gt;1</title>
<path fill="none" stroke="green" stroke-width="0.38" d="M312.37,-90.31C316.55,-86.29 321.95,-81.64 327.46,-78.43 351.3,-64.51 425.83,-41.04 464.56,-29.32"/>
<polygon fill="green" stroke="green" stroke-width="0.38" points="465.89,-32.58 474.46,-26.34 463.87,-25.87 465.89,-32.58"/>
</g>
<!-- &#45;12&#45;&gt;2 -->
<g id="edge54" class="edge">
<title>&#45;12&#45;&gt;2</title>
<path fill="none" stroke="red" stroke-width="0.11" stroke-dasharray="1,5" d="M313.3,-90.63C317.52,-86.86 322.69,-82.34 327.46,-78.43 347.8,-61.73 353.95,-58.91 374.46,-42.43 376.05,-41.15 377.69,-39.81 379.33,-38.46"/>
<polygon fill="red" stroke="red" stroke-width="0.11" points="381.89,-40.88 387.32,-31.78 377.4,-35.51 381.89,-40.88"/>
</g>
<!-- &#45;12&#45;&gt;3 -->
<g id="edge55" class="edge">
<title>&#45;12&#45;&gt;3</title>
<path fill="none" stroke="green" stroke-width="0.11" d="M309.38,-90.46C316.1,-79.3 328.38,-58.9 337.76,-43.31"/>
<polygon fill="green" stroke="green" stroke-width="0.11" points="341,-44.71 343.16,-34.34 335.01,-41.1 341,-44.71"/>
</g>
<!-- &#45;12&#45;&gt;4 -->
<g id="edge56" class="edge">
<title>&#45;12&#45;&gt;4</title>
<path fill="none" stroke="green" stroke-width="0.56" d="M311.74,-90.29C315.91,-86.05 321.49,-81.22 327.46,-78.43 422.39,-34.07 465.07,-85.79 560.46,-42.43 562.56,-41.47 564.61,-40.29 566.59,-38.96"/>
<polygon fill="green" stroke="green" stroke-width="0.56" points="568.9,-41.6 574.58,-32.65 564.56,-36.1 568.9,-41.6"/>
</g>
<!-- &#45;13 -->
<g id="node13" class="node">
<title>&#45;13</title>
<polygon fill="lightgray" stroke="black" points="892.96,-108.64 863.96,-108.64 863.96,-90.64 892.96,-90.64 892.96,-108.64"/>
<text text-anchor="middle" x="878.46" y="-97.44" font-family="Times New Roman,serif" font-size="9.00">&#45;13</text>
</g>
<!-- &#45;13&#45;&gt;0 -->
<g id="edge57" class="edge">
<title>&#45;13&#45;&gt;0</title>
<path fill="none" stroke="green" stroke-width="0.29" d="M871.62,-90.62C867.42,-86.26 861.67,-81.21 855.46,-78.43 734.92,-24.42 681.56,-95.16 560.46,-42.43 558.35,-41.51 556.28,-40.34 554.3,-39.03"/>
<polygon fill="green" stroke="green" stroke-width="0.29" points="556.32,-36.17 546.3,-32.74 551.99,-41.67 556.32,-36.17"/>
</g>
<!-- &#45;13&#45;&gt;2 -->
<g id="edge58" class="edge">
<title>&#45;13&#45;&gt;2</title>
<path fill="none" stroke="green" stroke-width="0.34" stroke-dasharray="1,5" d="M871.65,-90.55C867.46,-86.17 861.71,-81.12 855.46,-78.43 695.16,-9.44 635.68,-76.16 464.46,-42.43 450.04,-39.59 434.29,-34.83 421.79,-30.64"/>
<polygon fill="green" stroke="green" stroke-width="0.34" points="422.75,-27.27 412.15,-27.31 420.46,-33.89 422.75,-27.27"/>
</g>
<!-- &#45;13&#45;&gt;4 -->
<g id="edge59" class="edge">
<title>&#45;13&#45;&gt;4</title>
<path fill="none" stroke="green" stroke-width="0.25" d="M871.13,-90.41C866.94,-86.2 861.36,-81.37 855.46,-78.43 771.92,-36.75 659.07,-25.95 609.54,-23.17"/>
<polygon fill="green" stroke="green" stroke-width="0.25" points="609.58,-19.67 599.42,-22.67 609.24,-26.66 609.58,-19.67"/>
</g>
<!-- &#45;14 -->
<g id="node14" class="node">
<title>&#45;14</title>
<polygon fill="lightgray" stroke="black" points="365.96,-108.64 336.96,-108.64 336.96,-90.64 365.96,-90.64 365.96,-108.64"/>
<text text-anchor="middle" x="351.46" y="-97.44" font-family="Times New Roman,serif" font-size="9.00">&#45;14</text>
</g>
<!-- &#45;14&#45;&gt;0 -->
<g id="edge60" class="edge">
<title>&#45;14&#45;&gt;0</title>
<path fill="none" stroke="green" stroke-width="0.21" d="M359.24,-90.54C363.65,-86.38 369.46,-81.54 375.46,-78.43 431.35,-49.44 456.57,-71.41 512.46,-42.43 514.5,-41.37 516.53,-40.11 518.48,-38.74"/>
<polygon fill="green" stroke="green" stroke-width="0.21" points="520.82,-41.35 526.44,-32.37 516.45,-35.88 520.82,-41.35"/>
</g>
<!-- &#45;14&#45;&gt;1 -->
<g id="edge61" class="edge">
<title>&#45;14&#45;&gt;1</title>
<path fill="none" stroke="green" stroke-width="0.54" d="M359.96,-90.62C364.38,-86.68 369.99,-82.01 375.46,-78.43 404.98,-59.05 442.11,-41.79 465.58,-31.67"/>
<polygon fill="green" stroke="green" stroke-width="0.54" points="467.19,-34.78 475.03,-27.65 464.45,-28.34 467.19,-34.78"/>
</g>
<!-- &#45;14&#45;&gt;2 -->
<g id="edge62" class="edge">
<title>&#45;14&#45;&gt;2</title>
<path fill="none" stroke="green" stroke-width="0.63" d="M356.49,-90.46C363.42,-79.19 376.13,-58.52 385.76,-42.87"/>
<polygon fill="green" stroke="green" stroke-width="0.63" points="388.75,-44.69 391,-34.34 382.78,-41.02 388.75,-44.69"/>
</g>
<!-- &#45;14&#45;&gt;3 -->
<g id="edge63" class="edge">
<title>&#45;14&#45;&gt;3</title>
<path fill="none" stroke="green" stroke-width="0.25" d="M351.35,-90.46C351.22,-80.05 350.98,-61.6 350.78,-46.51"/>
<polygon fill="green" stroke="green" stroke-width="0.25" points="354.27,-46.23 350.64,-36.28 347.28,-46.32 354.27,-46.23"/>
</g>
<!-- &#45;14&#45;&gt;4 -->
<g id="edge64" class="edge">
<title>&#45;14&#45;&gt;4</title>
<path fill="none" stroke="green" stroke-width="0.17" d="M359.16,-90.38C363.54,-86.17 369.37,-81.34 375.46,-78.43 451.03,-42.29 484.89,-78.56 560.46,-42.43 562.54,-41.43 564.58,-40.22 566.55,-38.88"/>
<polygon fill="green" stroke="green" stroke-width="0.17" points="568.87,-41.5 574.53,-32.54 564.52,-36.02 568.87,-41.5"/>
</g>
<!-- &#45;15 -->
<g id="node15" class="node">
<title>&#45;15</title>
<polygon fill="lightgray" stroke="black" points="412.96,-108.64 383.96,-108.64 383.96,-90.64 412.96,-90.64 412.96,-108.64"/>
<text text-anchor="middle" x="398.46" y="-97.44" font-family="Times New Roman,serif" font-size="9.00">&#45;15</text>
</g>
<!-- &#45;15&#45;&gt;0 -->
<g id="edge65" class="edge">
<title>&#45;15&#45;&gt;0</title>
<path fill="none" stroke="red" stroke-width="0.28" stroke-dasharray="1,5" d="M406.84,-90.43C411.23,-86.44 416.85,-81.79 422.46,-78.43 459.41,-56.27 475.51,-64.58 512.46,-42.43 514.43,-41.24 516.41,-39.9 518.33,-38.48"/>
<polygon fill="red" stroke="red" stroke-width="0.28" points="520.7,-41.07 526.26,-32.05 516.29,-35.63 520.7,-41.07"/>
</g>
<!-- &#45;15&#45;&gt;1 -->
<g id="edge66" class="edge">
<title>&#45;15&#45;&gt;1</title>
<path fill="none" stroke="green" stroke-width="0.62" d="M408.09,-90.46C422.79,-77.98 451.07,-53.96 469.86,-38.01"/>
<polygon fill="green" stroke="green" stroke-width="0.62" points="472.15,-40.66 477.5,-31.52 467.61,-35.32 472.15,-40.66"/>
</g>
<!-- &#45;15&#45;&gt;2 -->
<g id="edge67" class="edge">
<title>&#45;15&#45;&gt;2</title>
<path fill="none" stroke="red" stroke-width="0.13" d="M398.46,-90.46C398.46,-80.05 398.46,-61.6 398.46,-46.51"/>
<polygon fill="red" stroke="red" stroke-width="0.13" points="401.96,-46.28 398.46,-36.28 394.96,-46.28 401.96,-46.28"/>
</g>
<!-- &#45;15&#45;&gt;3 -->
<g id="edge68" class="edge">
<title>&#45;15&#45;&gt;3</title>
<path fill="none" stroke="green" stroke-width="0.29" stroke-dasharray="1,5" d="M393.32,-90.46C386.21,-79.13 373.11,-58.28 363.26,-42.6"/>
<polygon fill="green" stroke="green" stroke-width="0.29" points="366.19,-40.68 357.91,-34.07 360.26,-44.4 366.19,-40.68"/>
</g>
<!-- &#45;15&#45;&gt;4 -->
<g id="edge69" class="edge">
<title>&#45;15&#45;&gt;4</title>
<path fill="none" stroke="green" stroke-width="0.1" d="M406.24,-90.54C410.64,-86.37 416.46,-81.53 422.46,-78.43 478.75,-49.29 504.17,-71.56 560.46,-42.43 562.5,-41.37 564.53,-40.11 566.48,-38.74"/>
<polygon fill="green" stroke="green" stroke-width="0.1" points="568.82,-41.35 574.45,-32.37 564.45,-35.89 568.82,-41.35"/>
</g>
<!-- &#45;16 -->
<g id="node16" class="node">
<title>&#45;16</title>
<polygon fill="lightgray" stroke="black" points="978.96,-108.64 949.96,-108.64 949.96,-90.64 978.96,-90.64 978.96,-108.64"/>
<text text-anchor="middle" x="964.46" y="-97.44" font-family="Times New Roman,serif" font-size="9.00">&#45;16</text>
</g>
<!-- &#45;16&#45;&gt;0 -->
<g id="edge70" class="edge">
<title>&#45;16&#45;&gt;0</title>
<path fill="none" stroke="red" stroke-width="0.53" stroke-dasharray="1,5" d="M955.49,-90.57C950.08,-86.19 942.83,-81.14 935.46,-78.43 778.31,-20.67 714.82,-107.29 560.46,-42.43 558.34,-41.53 556.26,-40.39 554.28,-39.09"/>
<polygon fill="red" stroke="red" stroke-width="0.53" points="556.3,-36.23 546.27,-32.81 551.98,-41.74 556.3,-36.23"/>
</g>
<!-- &#45;16&#45;&gt;1 -->
<g id="edge71" class="edge">
<title>&#45;16&#45;&gt;1</title>
<path fill="none" stroke="green" stroke-width="0.47" d="M949.93,-92.88C937.52,-88.21 919.09,-81.86 902.46,-78.43 731.99,-43.23 673.06,-109.57 512.46,-42.43 510.34,-41.54 508.26,-40.39 506.27,-39.1"/>
<polygon fill="green" stroke="green" stroke-width="0.47" points="508.3,-36.24 498.27,-32.82 503.97,-41.74 508.3,-36.24"/>
</g>
<!-- &#45;16&#45;&gt;4 -->
<g id="edge72" class="edge">
<title>&#45;16&#45;&gt;4</title>
<path fill="none" stroke="green" stroke-width="0.62" d="M955.17,-90.54C949.77,-86.26 942.63,-81.32 935.46,-78.43 820.14,-31.86 668.89,-23.78 609.72,-22.44"/>
<polygon fill="green" stroke="green" stroke-width="0.62" points="609.52,-18.94 599.46,-22.26 609.4,-25.94 609.52,-18.94"/>
</g>
<!-- &#45;17 -->
<g id="node17" class="node">
<title>&#45;17</title>
<polygon fill="lightgray" stroke="black" points="459.96,-108.64 430.96,-108.64 430.96,-90.64 459.96,-90.64 459.96,-108.64"/>
<text text-anchor="middle" x="445.46" y="-97.44" font-family="Times New Roman,serif" font-size="9.00">&#45;17</text>
</g>
<!-- &#45;17&#45;&gt;0 -->
<g id="edge73" class="edge">
<title>&#45;17&#45;&gt;0</title>
<path fill="none" stroke="red" stroke-width="0.21" d="M455.26,-90.37C459.61,-86.71 464.79,-82.35 469.46,-78.43 488.55,-62.4 493.37,-58.45 512.46,-42.43 514.02,-41.11 515.65,-39.75 517.27,-38.38"/>
<polygon fill="red" stroke="red" stroke-width="0.21" points="519.84,-40.8 525.23,-31.68 515.33,-35.44 519.84,-40.8"/>
</g>
<!-- &#45;17&#45;&gt;1 -->
<g id="edge74" class="edge">
<title>&#45;17&#45;&gt;1</title>
<path fill="none" stroke="red" stroke-width="0.39" d="M450.06,-90.46C456.31,-79.36 467.69,-59.14 476.44,-43.57"/>
<polygon fill="red" stroke="red" stroke-width="0.39" points="479.63,-45.04 481.49,-34.61 473.53,-41.61 479.63,-45.04"/>
</g>
<!-- &#45;17&#45;&gt;2 -->
<g id="edge75" class="edge">
<title>&#45;17&#45;&gt;2</title>
<path fill="none" stroke="green" stroke-width="0.39" d="M440.43,-90.46C433.5,-79.19 420.79,-58.52 411.16,-42.87"/>
<polygon fill="green" stroke="green" stroke-width="0.39" points="414.14,-41.02 405.92,-34.34 408.17,-44.69 414.14,-41.02"/>
</g>
<!-- &#45;17&#45;&gt;3 -->
<g id="edge76" class="edge">
<title>&#45;17&#45;&gt;3</title>
<path fill="none" stroke="red" stroke-width="0.16" d="M436.64,-90.6C432.42,-86.83 427.25,-82.31 422.46,-78.43 401.76,-61.61 395.33,-59.02 374.46,-42.43 372.86,-41.16 371.22,-39.82 369.57,-38.47"/>
<polygon fill="red" stroke="red" stroke-width="0.16" points="371.5,-35.53 361.58,-31.81 367.02,-40.9 371.5,-35.53"/>
</g>
<!-- &#45;17&#45;&gt;4 -->
<g id="edge77" class="edge">
<title>&#45;17&#45;&gt;4</title>
<path fill="none" stroke="red" stroke-width="0.39" d="M453.83,-90.42C458.22,-86.43 463.85,-81.78 469.46,-78.43 506.8,-56.13 523.12,-64.73 560.46,-42.43 562.44,-41.25 564.41,-39.91 566.34,-38.49"/>
<polygon fill="red" stroke="red" stroke-width="0.39" points="568.71,-41.07 574.27,-32.06 564.3,-35.64 568.71,-41.07"/>
</g>
<!-- &#45;18 -->
<g id="node18" class="node">
<title>&#45;18</title>
<polygon fill="lightgray" stroke="black" points="845.96,-108.64 816.96,-108.64 816.96,-90.64 845.96,-90.64 845.96,-108.64"/>
<text text-anchor="middle" x="831.46" y="-97.44" font-family="Times New Roman,serif" font-size="9.00">&#45;18</text>
</g>
<!-- &#45;18&#45;&gt;0 -->
<g id="edge78" class="edge">
<title>&#45;18&#45;&gt;0</title>
<path fill="none" stroke="red" stroke-width="0.69" d="M822.18,-90.51C816.78,-86.22 809.65,-81.28 802.46,-78.43 701.41,-38.28 659.58,-87.14 560.46,-42.43 558.36,-41.48 556.3,-40.3 554.33,-38.98"/>
<polygon fill="red" stroke="red" stroke-width="0.69" points="556.35,-36.12 546.33,-32.66 552.01,-41.61 556.35,-36.12"/>
</g>
<!-- &#45;18&#45;&gt;1 -->
<g id="edge79" class="edge">
<title>&#45;18&#45;&gt;1</title>
<path fill="none" stroke="green" stroke-width="0.12" d="M822.21,-90.44C816.82,-86.13 809.68,-81.19 802.46,-78.43 681.19,-31.93 631.48,-94.4 512.46,-42.43 510.35,-41.51 508.28,-40.34 506.3,-39.03"/>
<polygon fill="green" stroke="green" stroke-width="0.12" points="508.33,-36.17 498.3,-32.73 504,-41.67 508.33,-36.17"/>
</g>
<!-- &#45;18&#45;&gt;3 -->
<g id="edge80" class="edge">
<title>&#45;18&#45;&gt;3</title>
<path fill="none" stroke="green" stroke-width="0.14" d="M816.93,-92.87C804.52,-88.2 786.09,-81.85 769.46,-78.43 596.8,-42.88 537.14,-110.33 374.46,-42.43 372.34,-41.54 370.26,-40.4 368.27,-39.1"/>
<polygon fill="green" stroke="green" stroke-width="0.14" points="370.29,-36.24 360.27,-32.82 365.97,-41.75 370.29,-36.24"/>
</g>
<!-- &#45;18&#45;&gt;4 -->
<g id="edge81" class="edge">
<title>&#45;18&#45;&gt;4</title>
<path fill="none" stroke="red" stroke-width="0.19" d="M821.8,-90.59C816.4,-86.44 809.38,-81.6 802.46,-78.43 736.11,-47.95 650.51,-32.02 609.09,-25.63"/>
<polygon fill="red" stroke="red" stroke-width="0.19" points="609.49,-22.16 599.09,-24.15 608.46,-29.08 609.49,-22.16"/>
</g>
<!-- &#45;19 -->
<g id="node19" class="node">
<title>&#45;19</title>
<polygon fill="lightgray" stroke="black" points="506.96,-108.64 477.96,-108.64 477.96,-90.64 506.96,-90.64 506.96,-108.64"/>
<text text-anchor="middle" x="492.46" y="-97.44" font-family="Times New Roman,serif" font-size="9.00">&#45;19</text>
</g>
<!-- &#45;19&#45;&gt;0 -->
<g id="edge82" class="edge">
<title>&#45;19&#45;&gt;0</title>
<path fill="none" stroke="red" stroke-width="0.44" d="M497.17,-90.46C503.59,-79.3 515.34,-58.9 524.32,-43.31"/>
<polygon fill="red" stroke="red" stroke-width="0.44" points="527.52,-44.75 529.48,-34.34 521.46,-41.26 527.52,-44.75"/>
</g>
<!-- &#45;19&#45;&gt;1 -->
<g id="edge83" class="edge">
<title>&#45;19&#45;&gt;1</title>
<path fill="none" stroke="green" stroke-width="0.46" d="M492.03,-90.46C491.49,-80.05 490.52,-61.6 489.73,-46.51"/>
<polygon fill="green" stroke="green" stroke-width="0.46" points="493.21,-46.08 489.2,-36.28 486.22,-46.44 493.21,-46.08"/>
</g>
<!-- &#45;19&#45;&gt;2 -->
<g id="edge84" class="edge">
<title>&#45;19&#45;&gt;2</title>
<path fill="none" stroke="green" stroke-width="0.29" d="M483.15,-90.27C479.01,-86.59 474.03,-82.24 469.46,-78.43 452.46,-64.25 432.69,-48.66 418.33,-37.51"/>
<polygon fill="green" stroke="green" stroke-width="0.29" points="420.22,-34.54 410.17,-31.19 415.93,-40.07 420.22,-34.54"/>
</g>
<!-- &#45;19&#45;&gt;3 -->
<g id="edge85" class="edge">
<title>&#45;19&#45;&gt;3</title>
<path fill="none" stroke="green" stroke-width="0.2" d="M484.51,-90.37C480.32,-86.36 474.93,-81.71 469.46,-78.43 430.77,-55.15 413.39,-65.29 374.46,-42.43 372.48,-41.26 370.49,-39.93 368.56,-38.52"/>
<polygon fill="green" stroke="green" stroke-width="0.2" points="370.6,-35.67 360.63,-32.09 366.2,-41.11 370.6,-35.67"/>
</g>
<!-- &#45;19&#45;&gt;4 -->
<g id="edge86" class="edge">
<title>&#45;19&#45;&gt;4</title>
<path fill="none" stroke="green" stroke-width="0.13" d="M502.24,-90.35C506.58,-86.68 511.77,-82.32 516.46,-78.43 535.9,-62.29 541.02,-58.57 560.46,-42.43 562.03,-41.12 563.66,-39.77 565.29,-38.4"/>
<polygon fill="green" stroke="green" stroke-width="0.13" points="567.85,-40.82 573.25,-31.71 563.35,-35.46 567.85,-40.82"/>
</g>
<!-- &#45;20 -->
<g id="node20" class="node">
<title>&#45;20</title>
<polygon fill="lightgray" stroke="black" points="553.96,-108.64 524.96,-108.64 524.96,-90.64 553.96,-90.64 553.96,-108.64"/>
<text text-anchor="middle" x="539.46" y="-97.44" font-family="Times New Roman,serif" font-size="9.00">&#45;20</text>
</g>
<!-- &#45;20&#45;&gt;0 -->
<g id="edge87" class="edge">
<title>&#45;20&#45;&gt;0</title>
<path fill="none" stroke="green" stroke-width="0.11" d="M539.14,-90.46C538.73,-80.05 538.01,-61.6 537.41,-46.51"/>
<polygon fill="green" stroke="green" stroke-width="0.11" points="540.9,-46.13 537.01,-36.28 533.91,-46.41 540.9,-46.13"/>
</g>
<!-- &#45;20&#45;&gt;1 -->
<g id="edge88" class="edge">
<title>&#45;20&#45;&gt;1</title>
<path fill="none" stroke="green" stroke-width="0.32" d="M534,-90.46C526.44,-79.13 512.53,-58.28 502.06,-42.6"/>
<polygon fill="green" stroke="green" stroke-width="0.32" points="504.83,-40.45 496.37,-34.07 499.01,-44.33 504.83,-40.45"/>
</g>
<!-- &#45;20&#45;&gt;2 -->
<g id="edge89" class="edge">
<title>&#45;20&#45;&gt;2</title>
<path fill="none" stroke="green" stroke-width="0.38" d="M531.39,-90.56C527.17,-86.6 521.79,-81.94 516.46,-78.43 485.62,-58.1 446.3,-40.9 421.75,-31.06"/>
<polygon fill="green" stroke="green" stroke-width="0.38" points="422.79,-27.71 412.2,-27.31 420.23,-34.23 422.79,-27.71"/>
</g>
<!-- &#45;20&#45;&gt;3 -->
<g id="edge90" class="edge">
<title>&#45;20&#45;&gt;3</title>
<path fill="none" stroke="green" stroke-width="0.15" d="M532.07,-90.51C527.87,-86.34 522.29,-81.5 516.46,-78.43 458.85,-48.09 432.39,-72.15 374.46,-42.43 372.41,-41.38 370.39,-40.12 368.43,-38.76"/>
<polygon fill="green" stroke="green" stroke-width="0.15" points="370.46,-35.9 360.46,-32.39 366.09,-41.37 370.46,-35.9"/>
</g>
<!-- &#45;20&#45;&gt;4 -->
<g id="edge91" class="edge">
<title>&#45;20&#45;&gt;4</title>
<path fill="none" stroke="red" stroke-width="0.38" stroke-dasharray="1,5" d="M544.28,-90.46C550.85,-79.3 562.86,-58.9 572.04,-43.31"/>
<polygon fill="red" stroke="red" stroke-width="0.38" points="575.26,-44.73 577.32,-34.34 569.23,-41.18 575.26,-44.73"/>
</g>
<!-- 308&#45;&gt;4 -->
<g id="edge94" class="edge">
<title>308&#45;&gt;4</title>
<path fill="none" stroke="red" stroke-width="0.36" d="M1039.3,-86.93C1033.82,-83.68 1027.58,-80.49 1021.46,-78.43 871.47,-27.75 678.36,-22.27 609.9,-22.03"/>
<polygon fill="red" stroke="red" stroke-width="0.36" points="609.65,-18.53 599.65,-22.03 609.65,-25.53 609.65,-18.53"/>
</g>
</g>
</svg>
