<?xml version="1.0" encoding="UTF-8" standalone="no"?>
<!DOCTYPE svg PUBLIC "-//W3C//DTD SVG 1.1//EN"
 "http://www.w3.org/Graphics/SVG/1.1/DTD/svg11.dtd">
<!-- Generated by graphviz version 2.49.0 (20210828.1703)
 -->
<!-- Pages: 1 -->
<svg width="887pt" height="92pt"
 viewBox="0.00 0.00 886.50 91.70" xmlns="http://www.w3.org/2000/svg" xmlns:xlink="http://www.w3.org/1999/xlink">
<g id="graph0" class="graph" transform="scale(1 1) rotate(0) translate(4 87.7)">
<polygon fill="white" stroke="transparent" points="-4,4 -4,-87.7 882.5,-87.7 882.5,4 -4,4"/>
<!-- &#45;1 -->
<g id="node1" class="node">
<title>&#45;1</title>
<polygon fill="lightgray" stroke="black" points="784,-83.7 760,-83.7 760,-65.7 784,-65.7 784,-83.7"/>
<text text-anchor="middle" x="772" y="-72.5" font-family="Times New Roman,serif" font-size="9.00">&#45;1</text>
</g>
<!-- 0 -->
<g id="node21" class="node">
<title>0</title>
<ellipse fill="lightblue" stroke="black" cx="354" cy="-14.85" rx="14.7" ry="14.7"/>
<text text-anchor="middle" x="354" y="-12.65" font-family="Times New Roman,serif" font-size="9.00">0</text>
</g>
<!-- &#45;1&#45;&gt;0 -->
<g id="edge1" class="edge">
<title>&#45;1&#45;&gt;0</title>
<path fill="none" stroke="red" stroke-width="0.37" d="M759.74,-68.4C756.91,-67.35 753.89,-66.37 751,-65.7 588.84,-27.71 536.62,-80.47 378,-29.7 376.95,-29.36 375.89,-28.97 374.83,-28.54"/>
<polygon fill="red" stroke="red" stroke-width="0.37" points="376.24,-25.34 365.74,-23.96 373.09,-31.59 376.24,-25.34"/>
</g>
<!-- 1 -->
<g id="node22" class="node">
<title>1</title>
<ellipse fill="lightblue" stroke="black" cx="306" cy="-14.85" rx="14.7" ry="14.7"/>
<text text-anchor="middle" x="306" y="-12.65" font-family="Times New Roman,serif" font-size="9.00">1</text>
</g>
<!-- &#45;1&#45;&gt;1 -->
<g id="edge2" class="edge">
<title>&#45;1&#45;&gt;1</title>
<path fill="none" stroke="green" stroke-width="0.24" d="M759.74,-68.37C756.92,-67.33 753.89,-66.36 751,-65.7 567.92,-23.87 509.16,-85.97 330,-29.7 328.94,-29.37 327.88,-28.98 326.83,-28.56"/>
<polygon fill="green" stroke="green" stroke-width="0.24" points="328.24,-25.35 317.73,-23.99 325.09,-31.6 328.24,-25.35"/>
</g>
<!-- 2 -->
<g id="node23" class="node">
<title>2</title>
<ellipse fill="lightblue" stroke="black" cx="402" cy="-14.85" rx="14.7" ry="14.7"/>
<text text-anchor="middle" x="402" y="-12.65" font-family="Times New Roman,serif" font-size="9.00">2</text>
</g>
<!-- &#45;1&#45;&gt;2 -->
<g id="edge3" class="edge">
<title>&#45;1&#45;&gt;2</title>
<path fill="none" stroke="green" stroke-width="0.2" d="M759.73,-68.43C756.9,-67.38 753.88,-66.4 751,-65.7 609.74,-31.56 564.09,-74.98 426,-29.7 425.12,-29.41 424.24,-29.09 423.36,-28.74"/>
<polygon fill="green" stroke="green" stroke-width="0.2" points="424.76,-25.52 414.24,-24.21 421.64,-31.79 424.76,-25.52"/>
</g>
<!-- 3 -->
<g id="node24" class="node">
<title>3</title>
<ellipse fill="lightblue" stroke="black" cx="450" cy="-14.85" rx="14.7" ry="14.7"/>
<text text-anchor="middle" x="450" y="-12.65" font-family="Times New Roman,serif" font-size="9.00">3</text>
</g>
<!-- &#45;1&#45;&gt;3 -->
<g id="edge4" class="edge">
<title>&#45;1&#45;&gt;3</title>
<path fill="none" stroke="red" stroke-width="0.15" d="M759.72,-68.47C756.89,-67.42 753.88,-66.42 751,-65.7 630.61,-35.39 591.6,-69.49 474,-29.7 473.12,-29.4 472.24,-29.07 471.36,-28.71"/>
<polygon fill="red" stroke="red" stroke-width="0.15" points="472.77,-25.5 462.26,-24.16 469.64,-31.76 472.77,-25.5"/>
</g>
<!-- 4 -->
<g id="node25" class="node">
<title>4</title>
<ellipse fill="lightblue" stroke="black" cx="498" cy="-14.85" rx="14.7" ry="14.7"/>
<text text-anchor="middle" x="498" y="-12.65" font-family="Times New Roman,serif" font-size="9.00">4</text>
</g>
<!-- &#45;1&#45;&gt;4 -->
<g id="edge5" class="edge">
<title>&#45;1&#45;&gt;4</title>
<path fill="none" stroke="green" stroke-width="0.64" d="M759.68,-68.61C756.86,-67.55 753.85,-66.52 751,-65.7 668.9,-42.16 568.67,-26.02 522.92,-19.32"/>
<polygon fill="green" stroke="green" stroke-width="0.64" points="523.15,-15.82 512.75,-17.86 522.15,-22.75 523.15,-15.82"/>
</g>
<!-- &#45;2 -->
<g id="node2" class="node">
<title>&#45;2</title>
<polygon fill="lightgray" stroke="black" points="66,-83.7 42,-83.7 42,-65.7 66,-65.7 66,-83.7"/>
<text text-anchor="middle" x="54" y="-72.5" font-family="Times New Roman,serif" font-size="9.00">&#45;2</text>
</g>
<!-- &#45;2&#45;&gt;0 -->
<g id="edge6" class="edge">
<title>&#45;2&#45;&gt;0</title>
<path fill="none" stroke="green" stroke-width="0.38" d="M66.29,-68.49C69.11,-67.44 72.13,-66.44 75,-65.7 185.84,-37.15 221.79,-66.98 330,-29.7 330.88,-29.4 331.76,-29.06 332.63,-28.7"/>
<polygon fill="green" stroke="green" stroke-width="0.38" points="334.36,-31.75 341.73,-24.13 331.22,-25.49 334.36,-31.75"/>
</g>
<!-- &#45;2&#45;&gt;1 -->
<g id="edge7" class="edge">
<title>&#45;2&#45;&gt;1</title>
<path fill="none" stroke="red" stroke-width="0.28" d="M66.33,-68.65C69.15,-67.59 72.16,-66.54 75,-65.7 149,-43.76 238.98,-27.14 281.5,-19.88"/>
<polygon fill="red" stroke="red" stroke-width="0.28" points="282.2,-23.31 291.48,-18.19 281.04,-16.4 282.2,-23.31"/>
</g>
<!-- &#45;2&#45;&gt;2 -->
<g id="edge8" class="edge">
<title>&#45;2&#45;&gt;2</title>
<path fill="none" stroke="red" stroke-width="0.15" stroke-dasharray="1,5" d="M66.28,-68.45C69.1,-67.4 72.12,-66.41 75,-65.7 206.69,-33.32 249.31,-72.46 378,-29.7 378.88,-29.41 379.76,-29.08 380.64,-28.73"/>
<polygon fill="red" stroke="red" stroke-width="0.15" points="382.36,-31.78 389.75,-24.19 379.24,-25.52 382.36,-31.78"/>
</g>
<!-- &#45;2&#45;&gt;3 -->
<g id="edge9" class="edge">
<title>&#45;2&#45;&gt;3</title>
<path fill="none" stroke="red" stroke-width="0.2" d="M66.27,-68.41C69.09,-67.37 72.12,-66.38 75,-65.7 227.58,-29.48 276.79,-77.95 426,-29.7 427.05,-29.36 428.11,-28.97 429.16,-28.54"/>
<polygon fill="red" stroke="red" stroke-width="0.2" points="430.91,-31.58 438.26,-23.94 427.75,-25.33 430.91,-31.58"/>
</g>
<!-- &#45;2&#45;&gt;4 -->
<g id="edge10" class="edge">
<title>&#45;2&#45;&gt;4</title>
<path fill="none" stroke="red" stroke-width="0.15" d="M66.26,-68.38C69.09,-67.34 72.11,-66.37 75,-65.7 248.49,-25.63 304.25,-83.45 474,-29.7 475.05,-29.36 476.11,-28.98 477.17,-28.55"/>
<polygon fill="red" stroke="red" stroke-width="0.15" points="478.91,-31.6 486.27,-23.97 475.76,-25.34 478.91,-31.6"/>
</g>
<!-- &#45;3 -->
<g id="node3" class="node">
<title>&#45;3</title>
<polygon fill="lightgray" stroke="black" points="108,-83.7 84,-83.7 84,-65.7 108,-65.7 108,-83.7"/>
<text text-anchor="middle" x="96" y="-72.5" font-family="Times New Roman,serif" font-size="9.00">&#45;3</text>
</g>
<!-- &#45;3&#45;&gt;0 -->
<g id="edge11" class="edge">
<title>&#45;3&#45;&gt;0</title>
<path fill="none" stroke="green" stroke-width="0.2" d="M108.3,-68.55C111.13,-67.5 114.14,-66.48 117,-65.7 209.64,-40.49 239.66,-62.2 330,-29.7 330.87,-29.38 331.75,-29.04 332.62,-28.67"/>
<polygon fill="green" stroke="green" stroke-width="0.2" points="334.37,-31.71 341.7,-24.06 331.2,-25.47 334.37,-31.71"/>
</g>
<!-- &#45;3&#45;&gt;1 -->
<g id="edge12" class="edge">
<title>&#45;3&#45;&gt;1</title>
<path fill="none" stroke="green" stroke-width="0.35" d="M108.36,-68.74C111.18,-67.68 114.18,-66.61 117,-65.7 175.26,-46.98 245.23,-29.89 281.5,-21.43"/>
<polygon fill="green" stroke="green" stroke-width="0.35" points="282.67,-24.75 291.62,-19.09 281.09,-17.93 282.67,-24.75"/>
</g>
<!-- &#45;3&#45;&gt;2 -->
<g id="edge13" class="edge">
<title>&#45;3&#45;&gt;2</title>
<path fill="none" stroke="green" stroke-width="0.21" d="M108.29,-68.49C111.11,-67.44 114.13,-66.43 117,-65.7 230.44,-36.67 267.23,-67.67 378,-29.7 378.88,-29.4 379.76,-29.06 380.63,-28.7"/>
<polygon fill="green" stroke="green" stroke-width="0.21" points="382.36,-31.75 389.73,-24.14 379.22,-25.5 382.36,-31.75"/>
</g>
<!-- &#45;3&#45;&gt;3 -->
<g id="edge14" class="edge">
<title>&#45;3&#45;&gt;3</title>
<path fill="none" stroke="green" stroke-width="0.21" d="M108.27,-68.44C111.1,-67.39 114.12,-66.4 117,-65.7 251.3,-32.84 294.74,-73.15 426,-29.7 426.88,-29.41 427.76,-29.08 428.64,-28.73"/>
<polygon fill="green" stroke="green" stroke-width="0.21" points="430.36,-31.78 437.75,-24.2 427.24,-25.52 430.36,-31.78"/>
</g>
<!-- &#45;3&#45;&gt;4 -->
<g id="edge15" class="edge">
<title>&#45;3&#45;&gt;4</title>
<path fill="none" stroke="red" stroke-width="0.18" d="M108.27,-68.41C111.09,-67.36 114.11,-66.38 117,-65.7 272.19,-28.99 322.22,-78.64 474,-29.7 475.05,-29.36 476.11,-28.97 477.16,-28.54"/>
<polygon fill="red" stroke="red" stroke-width="0.18" points="478.91,-31.58 486.26,-23.95 475.75,-25.33 478.91,-31.58"/>
</g>
<!-- &#45;4 -->
<g id="node4" class="node">
<title>&#45;4</title>
<polygon fill="lightgray" stroke="black" points="150,-83.7 126,-83.7 126,-65.7 150,-65.7 150,-83.7"/>
<text text-anchor="middle" x="138" y="-72.5" font-family="Times New Roman,serif" font-size="9.00">&#45;4</text>
</g>
<!-- &#45;4&#45;&gt;0 -->
<g id="edge16" class="edge">
<title>&#45;4&#45;&gt;0</title>
<path fill="none" stroke="green" stroke-width="0.35" d="M150.33,-68.63C153.15,-67.58 156.16,-66.53 159,-65.7 233.52,-43.81 257.46,-57.45 330,-29.7 330.86,-29.37 331.74,-29.01 332.61,-28.63"/>
<polygon fill="green" stroke="green" stroke-width="0.35" points="334.38,-31.65 341.67,-23.96 331.17,-25.43 334.38,-31.65"/>
</g>
<!-- &#45;4&#45;&gt;1 -->
<g id="edge17" class="edge">
<title>&#45;4&#45;&gt;1</title>
<path fill="none" stroke="red" stroke-width="0.43" d="M150.41,-68.88C153.23,-67.82 156.21,-66.7 159,-65.7 202.36,-50.09 253.38,-33.09 282.48,-23.53"/>
<polygon fill="red" stroke="red" stroke-width="0.43" points="283.75,-26.79 292.16,-20.35 281.57,-20.14 283.75,-26.79"/>
</g>
<!-- &#45;4&#45;&gt;2 -->
<g id="edge18" class="edge">
<title>&#45;4&#45;&gt;2</title>
<path fill="none" stroke="red" stroke-width="0.36" stroke-dasharray="1,5" d="M150.3,-68.54C153.12,-67.49 156.14,-66.47 159,-65.7 254.24,-40.01 285.11,-62.89 378,-29.7 378.87,-29.39 379.75,-29.04 380.62,-28.68"/>
<polygon fill="red" stroke="red" stroke-width="0.36" points="382.37,-31.72 389.71,-24.07 379.21,-25.47 382.37,-31.72"/>
</g>
<!-- &#45;4&#45;&gt;3 -->
<g id="edge19" class="edge">
<title>&#45;4&#45;&gt;3</title>
<path fill="none" stroke="green" stroke-width="0.49" d="M150.28,-68.48C153.11,-67.43 156.13,-66.43 159,-65.7 275.05,-36.19 312.67,-68.35 426,-29.7 426.88,-29.4 427.76,-29.07 428.64,-28.71"/>
<polygon fill="green" stroke="green" stroke-width="0.49" points="430.36,-31.76 437.73,-24.15 427.23,-25.5 430.36,-31.76"/>
</g>
<!-- &#45;4&#45;&gt;4 -->
<g id="edge20" class="edge">
<title>&#45;4&#45;&gt;4</title>
<path fill="none" stroke="red" stroke-width="0.29" d="M150.27,-68.44C153.1,-67.39 156.12,-66.4 159,-65.7 295.91,-32.36 340.18,-73.83 474,-29.7 474.88,-29.41 475.76,-29.08 476.64,-28.73"/>
<polygon fill="red" stroke="red" stroke-width="0.29" points="478.36,-31.79 485.75,-24.2 475.24,-25.52 478.36,-31.79"/>
</g>
<!-- &#45;5 -->
<g id="node5" class="node">
<title>&#45;5</title>
<polygon fill="lightgray" stroke="black" points="192,-83.7 168,-83.7 168,-65.7 192,-65.7 192,-83.7"/>
<text text-anchor="middle" x="180" y="-72.5" font-family="Times New Roman,serif" font-size="9.00">&#45;5</text>
</g>
<!-- &#45;5&#45;&gt;0 -->
<g id="edge21" class="edge">
<title>&#45;5&#45;&gt;0</title>
<path fill="none" stroke="green" stroke-width="0.32" d="M192.37,-68.77C195.19,-67.71 198.18,-66.63 201,-65.7 257.54,-47.08 275.12,-52.76 330,-29.7 330.85,-29.34 331.71,-28.96 332.58,-28.55"/>
<polygon fill="green" stroke="green" stroke-width="0.32" points="334.39,-31.56 341.6,-23.8 331.12,-25.37 334.39,-31.56"/>
</g>
<!-- &#45;5&#45;&gt;1 -->
<g id="edge22" class="edge">
<title>&#45;5&#45;&gt;1</title>
<path fill="none" stroke="green" stroke-width="0.11" d="M192.08,-68.15C213.05,-58.52 256.52,-38.57 283.28,-26.28"/>
<polygon fill="green" stroke="green" stroke-width="0.11" points="285.01,-29.34 292.64,-21.99 282.09,-22.98 285.01,-29.34"/>
</g>
<!-- &#45;5&#45;&gt;2 -->
<g id="edge23" class="edge">
<title>&#45;5&#45;&gt;2</title>
<path fill="none" stroke="green" stroke-width="0.15" d="M192.32,-68.62C195.14,-67.57 198.15,-66.52 201,-65.7 278.1,-43.33 302.93,-58.13 378,-29.7 378.87,-29.37 379.74,-29.01 380.61,-28.63"/>
<polygon fill="green" stroke="green" stroke-width="0.15" points="382.38,-31.66 389.67,-23.98 379.18,-25.43 382.38,-31.66"/>
</g>
<!-- &#45;5&#45;&gt;3 -->
<g id="edge24" class="edge">
<title>&#45;5&#45;&gt;3</title>
<path fill="none" stroke="green" stroke-width="0.28" d="M192.3,-68.53C195.12,-67.48 198.14,-66.46 201,-65.7 298.83,-39.53 330.56,-63.57 426,-29.7 426.87,-29.39 427.75,-29.05 428.63,-28.68"/>
<polygon fill="green" stroke="green" stroke-width="0.28" points="430.37,-31.72 437.71,-24.08 427.21,-25.47 430.37,-31.72"/>
</g>
<!-- &#45;5&#45;&gt;4 -->
<g id="edge25" class="edge">
<title>&#45;5&#45;&gt;4</title>
<path fill="none" stroke="red" stroke-width="0.21" d="M192.28,-68.47C195.11,-67.43 198.13,-66.43 201,-65.7 319.65,-35.71 358.11,-69.04 474,-29.7 474.88,-29.4 475.76,-29.07 476.64,-28.71"/>
<polygon fill="red" stroke="red" stroke-width="0.21" points="478.36,-31.76 485.74,-24.16 475.23,-25.5 478.36,-31.76"/>
</g>
<!-- &#45;6 -->
<g id="node6" class="node">
<title>&#45;6</title>
<polygon fill="lightgray" stroke="black" points="234,-83.7 210,-83.7 210,-65.7 234,-65.7 234,-83.7"/>
<text text-anchor="middle" x="222" y="-72.5" font-family="Times New Roman,serif" font-size="9.00">&#45;6</text>
</g>
<!-- &#45;6&#45;&gt;0 -->
<g id="edge26" class="edge">
<title>&#45;6&#45;&gt;0</title>
<path fill="none" stroke="red" stroke-width="0.5" d="M234.08,-69.02C258.34,-59.58 312.18,-38.42 330,-29.7 330.83,-29.29 331.67,-28.87 332.52,-28.43"/>
<polygon fill="red" stroke="red" stroke-width="0.5" points="334.39,-31.39 341.47,-23.51 331.02,-25.26 334.39,-31.39"/>
</g>
<!-- &#45;6&#45;&gt;1 -->
<g id="edge27" class="edge">
<title>&#45;6&#45;&gt;1</title>
<path fill="none" stroke="red" stroke-width="0.32" d="M233.68,-65.65C247.14,-56.38 269.51,-40.98 285.81,-29.75"/>
<polygon fill="red" stroke="red" stroke-width="0.32" points="287.9,-32.57 294.15,-24.01 283.93,-26.8 287.9,-32.57"/>
</g>
<!-- &#45;6&#45;&gt;2 -->
<g id="edge28" class="edge">
<title>&#45;6&#45;&gt;2</title>
<path fill="none" stroke="red" stroke-width="0.22" d="M234.36,-68.75C237.18,-67.68 240.18,-66.61 243,-65.7 302.09,-46.62 320.61,-53.42 378,-29.7 378.86,-29.34 379.72,-28.97 380.58,-28.57"/>
<polygon fill="red" stroke="red" stroke-width="0.22" points="382.39,-31.57 389.61,-23.82 379.13,-25.38 382.39,-31.57"/>
</g>
<!-- &#45;6&#45;&gt;3 -->
<g id="edge29" class="edge">
<title>&#45;6&#45;&gt;3</title>
<path fill="none" stroke="green" stroke-width="0.27" d="M234.32,-68.61C237.14,-67.55 240.15,-66.52 243,-65.7 322.68,-42.86 348.39,-58.81 426,-29.7 426.87,-29.37 427.74,-29.02 428.61,-28.64"/>
<polygon fill="green" stroke="green" stroke-width="0.27" points="430.38,-31.67 437.68,-23.99 427.18,-25.44 430.38,-31.67"/>
</g>
<!-- &#45;6&#45;&gt;4 -->
<g id="edge30" class="edge">
<title>&#45;6&#45;&gt;4</title>
<path fill="none" stroke="green" stroke-width="0.35" d="M234.3,-68.52C237.12,-67.47 240.13,-66.46 243,-65.7 343.43,-39.06 376.01,-64.25 474,-29.7 474.87,-29.39 475.75,-29.05 476.63,-28.69"/>
<polygon fill="green" stroke="green" stroke-width="0.35" points="478.37,-31.73 485.72,-24.1 475.21,-25.48 478.37,-31.73"/>
</g>
<!-- &#45;7 -->
<g id="node7" class="node">
<title>&#45;7</title>
<polygon fill="lightgray" stroke="black" points="24,-83.7 0,-83.7 0,-65.7 24,-65.7 24,-83.7"/>
<text text-anchor="middle" x="12" y="-72.5" font-family="Times New Roman,serif" font-size="9.00">&#45;7</text>
</g>
<!-- &#45;7&#45;&gt;0 -->
<g id="edge31" class="edge">
<title>&#45;7&#45;&gt;0</title>
<path fill="none" stroke="green" stroke-width="0.45" d="M24.28,-68.45C27.1,-67.4 30.12,-66.41 33,-65.7 162.08,-33.79 203.87,-71.78 330,-29.7 330.88,-29.41 331.76,-29.08 332.64,-28.72"/>
<polygon fill="green" stroke="green" stroke-width="0.45" points="334.36,-31.78 341.75,-24.18 331.24,-25.51 334.36,-31.78"/>
</g>
<!-- &#45;7&#45;&gt;1 -->
<g id="edge32" class="edge">
<title>&#45;7&#45;&gt;1</title>
<path fill="none" stroke="red" stroke-width="0.23" d="M24.31,-68.58C27.13,-67.52 30.14,-66.5 33,-65.7 122.76,-40.63 232.74,-24.99 281.13,-18.84"/>
<polygon fill="red" stroke="red" stroke-width="0.23" points="281.79,-22.28 291.28,-17.57 280.93,-15.33 281.79,-22.28"/>
</g>
<!-- &#45;7&#45;&gt;2 -->
<g id="edge33" class="edge">
<title>&#45;7&#45;&gt;2</title>
<path fill="none" stroke="green" stroke-width="0.41" d="M24.27,-68.41C27.09,-67.37 30.12,-66.39 33,-65.7 182.97,-29.96 231.36,-77.27 378,-29.7 379.05,-29.36 380.11,-28.97 381.16,-28.53"/>
<polygon fill="green" stroke="green" stroke-width="0.41" points="382.91,-31.57 390.25,-23.94 379.75,-25.33 382.91,-31.57"/>
</g>
<!-- &#45;7&#45;&gt;3 -->
<g id="edge34" class="edge">
<title>&#45;7&#45;&gt;3</title>
<path fill="none" stroke="red" stroke-width="0.2" d="M24.26,-68.39C27.09,-67.34 30.11,-66.37 33,-65.7 203.87,-26.11 258.82,-82.76 426,-29.7 427.05,-29.36 428.11,-28.98 429.17,-28.55"/>
<polygon fill="red" stroke="red" stroke-width="0.2" points="430.91,-31.59 438.26,-23.97 427.76,-25.34 430.91,-31.59"/>
</g>
<!-- &#45;8 -->
<g id="node8" class="node">
<title>&#45;8</title>
<polygon fill="lightgray" stroke="black" points="276,-83.7 252,-83.7 252,-65.7 276,-65.7 276,-83.7"/>
<text text-anchor="middle" x="264" y="-72.5" font-family="Times New Roman,serif" font-size="9.00">&#45;8</text>
</g>
<!-- &#45;8&#45;&gt;0 -->
<g id="edge35" class="edge">
<title>&#45;8&#45;&gt;0</title>
<path fill="none" stroke="red" stroke-width="0.19" d="M276.14,-65.9C290.77,-56.49 315.58,-40.55 333.26,-29.18"/>
<polygon fill="red" stroke="red" stroke-width="0.19" points="335.25,-32.06 341.77,-23.71 331.46,-26.18 335.25,-32.06"/>
</g>
<!-- &#45;8&#45;&gt;1 -->
<g id="edge36" class="edge">
<title>&#45;8&#45;&gt;1</title>
<path fill="none" stroke="green" stroke-width="0.19" d="M269.84,-65.65C275.47,-57.89 284.23,-45.84 291.71,-35.53"/>
<polygon fill="green" stroke="green" stroke-width="0.19" points="294.56,-37.57 297.6,-27.42 288.89,-33.45 294.56,-37.57"/>
</g>
<!-- &#45;8&#45;&gt;2 -->
<g id="edge37" class="edge">
<title>&#45;8&#45;&gt;2</title>
<path fill="none" stroke="red" stroke-width="0.25" d="M276.01,-69.12C304.31,-58.33 373.14,-32.02 378,-29.7 378.84,-29.3 379.68,-28.88 380.53,-28.45"/>
<polygon fill="red" stroke="red" stroke-width="0.25" points="382.39,-31.42 389.49,-23.56 379.04,-25.28 382.39,-31.42"/>
</g>
<!-- &#45;8&#45;&gt;3 -->
<g id="edge38" class="edge">
<title>&#45;8&#45;&gt;3</title>
<path fill="none" stroke="green" stroke-width="0.13" d="M276.35,-68.72C279.17,-67.66 282.17,-66.59 285,-65.7 346.65,-46.15 366.1,-54.09 426,-29.7 426.86,-29.35 427.72,-28.97 428.59,-28.58"/>
<polygon fill="green" stroke="green" stroke-width="0.13" points="430.39,-31.59 437.62,-23.85 427.14,-25.39 430.39,-31.59"/>
</g>
<!-- &#45;8&#45;&gt;4 -->
<g id="edge39" class="edge">
<title>&#45;8&#45;&gt;4</title>
<path fill="none" stroke="green" stroke-width="0.21" stroke-dasharray="1,5" d="M276.32,-68.59C279.14,-67.54 282.15,-66.51 285,-65.7 367.27,-42.39 393.85,-59.49 474,-29.7 474.87,-29.38 475.74,-29.02 476.61,-28.65"/>
<polygon fill="green" stroke="green" stroke-width="0.21" points="478.38,-31.68 485.69,-24.01 475.19,-25.45 478.38,-31.68"/>
</g>
<!-- &#45;9 -->
<g id="node9" class="node">
<title>&#45;9</title>
<polygon fill="lightgray" stroke="black" points="318,-83.7 294,-83.7 294,-65.7 318,-65.7 318,-83.7"/>
<text text-anchor="middle" x="306" y="-72.5" font-family="Times New Roman,serif" font-size="9.00">&#45;9</text>
</g>
<!-- &#45;9&#45;&gt;0 -->
<g id="edge40" class="edge">
<title>&#45;9&#45;&gt;0</title>
<path fill="none" stroke="red" stroke-width="0.25" d="M312.67,-65.65C319.26,-57.72 329.57,-45.29 338.25,-34.83"/>
<polygon fill="red" stroke="red" stroke-width="0.25" points="341.06,-36.93 344.75,-26.99 335.67,-32.46 341.06,-36.93"/>
</g>
<!-- &#45;9&#45;&gt;1 -->
<g id="edge41" class="edge">
<title>&#45;9&#45;&gt;1</title>
<path fill="none" stroke="green" stroke-width="0.51" d="M306,-65.65C306,-59.05 306,-49.33 306,-40.23"/>
<polygon fill="green" stroke="green" stroke-width="0.51" points="309.5,-40.06 306,-30.06 302.5,-40.06 309.5,-40.06"/>
</g>
<!-- &#45;9&#45;&gt;2 -->
<g id="edge42" class="edge">
<title>&#45;9&#45;&gt;2</title>
<path fill="none" stroke="green" stroke-width="0.29" d="M318.16,-66.37C333.94,-56.86 361.73,-40.11 380.97,-28.52"/>
<polygon fill="green" stroke="green" stroke-width="0.29" points="382.88,-31.46 389.64,-23.3 379.27,-25.46 382.88,-31.46"/>
</g>
<!-- &#45;9&#45;&gt;3 -->
<g id="edge43" class="edge">
<title>&#45;9&#45;&gt;3</title>
<path fill="none" stroke="red" stroke-width="0.25" d="M318.08,-69.3C348.02,-58.39 423.42,-30.9 426,-29.7 426.84,-29.31 427.69,-28.89 428.54,-28.47"/>
<polygon fill="red" stroke="red" stroke-width="0.25" points="430.39,-31.44 437.51,-23.6 427.05,-25.29 430.39,-31.44"/>
</g>
<!-- &#45;9&#45;&gt;4 -->
<g id="edge44" class="edge">
<title>&#45;9&#45;&gt;4</title>
<path fill="none" stroke="red" stroke-width="0.16" d="M318.03,-69.06C321.24,-67.89 324.73,-66.69 328,-65.7 391.94,-46.25 412,-54.65 474,-29.7 474.86,-29.35 475.72,-28.98 476.59,-28.59"/>
<polygon fill="red" stroke="red" stroke-width="0.16" points="478.38,-31.6 485.63,-23.87 475.15,-25.39 478.38,-31.6"/>
</g>
<!-- &#45;10 -->
<g id="node10" class="node">
<title>&#45;10</title>
<polygon fill="lightgray" stroke="black" points="365.5,-83.7 336.5,-83.7 336.5,-65.7 365.5,-65.7 365.5,-83.7"/>
<text text-anchor="middle" x="351" y="-72.5" font-family="Times New Roman,serif" font-size="9.00">&#45;10</text>
</g>
<!-- &#45;10&#45;&gt;0 -->
<g id="edge45" class="edge">
<title>&#45;10&#45;&gt;0</title>
<path fill="none" stroke="red" stroke-width="0.78" d="M351.42,-65.65C351.76,-59.05 352.26,-49.33 352.74,-40.23"/>
<polygon fill="red" stroke="red" stroke-width="0.78" points="356.24,-40.22 353.26,-30.06 349.25,-39.86 356.24,-40.22"/>
</g>
<!-- &#45;10&#45;&gt;1 -->
<g id="edge46" class="edge">
<title>&#45;10&#45;&gt;1</title>
<path fill="none" stroke="green" stroke-width="0.34" d="M344.74,-65.65C338.63,-57.8 329.09,-45.53 321.01,-35.14"/>
<polygon fill="green" stroke="green" stroke-width="0.34" points="323.57,-32.74 314.67,-26.99 318.05,-37.04 323.57,-32.74"/>
</g>
<!-- &#45;10&#45;&gt;2 -->
<g id="edge47" class="edge">
<title>&#45;10&#45;&gt;2</title>
<path fill="none" stroke="red" stroke-width="0.4" d="M358.09,-65.65C365.25,-57.54 376.54,-44.73 385.88,-34.13"/>
<polygon fill="red" stroke="red" stroke-width="0.4" points="388.55,-36.39 392.54,-26.58 383.3,-31.76 388.55,-36.39"/>
</g>
<!-- &#45;10&#45;&gt;3 -->
<g id="edge48" class="edge">
<title>&#45;10&#45;&gt;3</title>
<path fill="none" stroke="red" stroke-width="0.7" d="M364.77,-65.65C381.39,-55.94 409.51,-39.51 428.88,-28.19"/>
<polygon fill="red" stroke="red" stroke-width="0.7" points="430.73,-31.16 437.6,-23.1 427.2,-25.12 430.73,-31.16"/>
</g>
<!-- &#45;10&#45;&gt;4 -->
<g id="edge49" class="edge">
<title>&#45;10&#45;&gt;4</title>
<path fill="none" stroke="red" stroke-width="0.42" d="M365.64,-68.83C393.69,-59.44 454.04,-38.94 474,-29.7 474.84,-29.31 475.69,-28.9 476.54,-28.48"/>
<polygon fill="red" stroke="red" stroke-width="0.42" points="478.39,-31.46 485.52,-23.62 475.06,-25.3 478.39,-31.46"/>
</g>
<!-- &#45;11 -->
<g id="node11" class="node">
<title>&#45;11</title>
<polygon fill="lightgray" stroke="black" points="412.5,-83.7 383.5,-83.7 383.5,-65.7 412.5,-65.7 412.5,-83.7"/>
<text text-anchor="middle" x="398" y="-72.5" font-family="Times New Roman,serif" font-size="9.00">&#45;11</text>
</g>
<!-- &#45;11&#45;&gt;0 -->
<g id="edge50" class="edge">
<title>&#45;11&#45;&gt;0</title>
<path fill="none" stroke="green" stroke-width="0.34" d="M391.88,-65.65C385.98,-57.89 376.81,-45.84 368.97,-35.53"/>
<polygon fill="green" stroke="green" stroke-width="0.34" points="371.64,-33.26 362.8,-27.42 366.07,-37.5 371.64,-33.26"/>
</g>
<!-- &#45;11&#45;&gt;1 -->
<g id="edge51" class="edge">
<title>&#45;11&#45;&gt;1</title>
<path fill="none" stroke="red" stroke-width="0.14" d="M385.21,-65.65C370.16,-56.19 344.95,-40.34 327.01,-29.06"/>
<polygon fill="red" stroke="red" stroke-width="0.14" points="328.72,-26 318.39,-23.64 324.99,-31.93 328.72,-26"/>
</g>
<!-- &#45;11&#45;&gt;2 -->
<g id="edge52" class="edge">
<title>&#45;11&#45;&gt;2</title>
<path fill="none" stroke="red" stroke-width="0.11" d="M398.56,-65.65C399.01,-59.05 399.68,-49.33 400.31,-40.23"/>
<polygon fill="red" stroke="red" stroke-width="0.11" points="403.82,-40.27 401.02,-30.06 396.84,-39.79 403.82,-40.27"/>
</g>
<!-- &#45;11&#45;&gt;3 -->
<g id="edge53" class="edge">
<title>&#45;11&#45;&gt;3</title>
<path fill="none" stroke="red" stroke-width="0.5" d="M405.23,-65.65C412.52,-57.54 424.04,-44.73 433.56,-34.13"/>
<polygon fill="red" stroke="red" stroke-width="0.5" points="436.27,-36.35 440.36,-26.58 431.07,-31.68 436.27,-36.35"/>
</g>
<!-- &#45;11&#45;&gt;4 -->
<g id="edge54" class="edge">
<title>&#45;11&#45;&gt;4</title>
<path fill="none" stroke="green" stroke-width="0.13" d="M411.9,-65.65C428.69,-55.94 457.1,-39.51 476.67,-28.19"/>
<polygon fill="green" stroke="green" stroke-width="0.13" points="478.57,-31.13 485.47,-23.1 475.07,-25.07 478.57,-31.13"/>
</g>
<!-- &#45;12 -->
<g id="node12" class="node">
<title>&#45;12</title>
<polygon fill="lightgray" stroke="black" points="459.5,-83.7 430.5,-83.7 430.5,-65.7 459.5,-65.7 459.5,-83.7"/>
<text text-anchor="middle" x="445" y="-72.5" font-family="Times New Roman,serif" font-size="9.00">&#45;12</text>
</g>
<!-- &#45;12&#45;&gt;0 -->
<g id="edge55" class="edge">
<title>&#45;12&#45;&gt;0</title>
<path fill="none" stroke="red" stroke-width="0.15" d="M432.35,-65.65C417.46,-56.19 392.52,-40.34 374.78,-29.06"/>
<polygon fill="red" stroke="red" stroke-width="0.15" points="376.57,-26.05 366.25,-23.64 372.82,-31.96 376.57,-26.05"/>
</g>
<!-- &#45;12&#45;&gt;1 -->
<g id="edge56" class="edge">
<title>&#45;12&#45;&gt;1</title>
<path fill="none" stroke="red" stroke-width="0.14" d="M430.09,-68.33C403.38,-58.65 348.43,-38.48 330,-29.7 329.16,-29.3 328.32,-28.88 327.47,-28.45"/>
<polygon fill="red" stroke="red" stroke-width="0.14" points="328.96,-25.28 318.5,-23.56 325.61,-31.42 328.96,-25.28"/>
</g>
<!-- &#45;12&#45;&gt;2 -->
<g id="edge57" class="edge">
<title>&#45;12&#45;&gt;2</title>
<path fill="none" stroke="green" stroke-width="0.4" d="M439.02,-65.65C433.25,-57.89 424.29,-45.84 416.63,-35.53"/>
<polygon fill="green" stroke="green" stroke-width="0.4" points="419.37,-33.35 410.6,-27.42 413.75,-37.53 419.37,-33.35"/>
</g>
<!-- &#45;12&#45;&gt;3 -->
<g id="edge58" class="edge">
<title>&#45;12&#45;&gt;3</title>
<path fill="none" stroke="red" stroke-width="0.24" d="M445.7,-65.65C446.27,-59.05 447.11,-49.33 447.89,-40.23"/>
<polygon fill="red" stroke="red" stroke-width="0.24" points="451.4,-40.32 448.77,-30.06 444.42,-39.72 451.4,-40.32"/>
</g>
<!-- &#45;12&#45;&gt;4 -->
<g id="edge59" class="edge">
<title>&#45;12&#45;&gt;4</title>
<path fill="none" stroke="red" stroke-width="0.44" d="M452.37,-65.65C459.8,-57.54 471.54,-44.73 481.25,-34.13"/>
<polygon fill="red" stroke="red" stroke-width="0.44" points="484,-36.32 488.17,-26.58 478.83,-31.59 484,-36.32"/>
</g>
<!-- &#45;13 -->
<g id="node13" class="node">
<title>&#45;13</title>
<polygon fill="lightgray" stroke="black" points="506.5,-83.7 477.5,-83.7 477.5,-65.7 506.5,-65.7 506.5,-83.7"/>
<text text-anchor="middle" x="492" y="-72.5" font-family="Times New Roman,serif" font-size="9.00">&#45;13</text>
</g>
<!-- &#45;13&#45;&gt;0 -->
<g id="edge60" class="edge">
<title>&#45;13&#45;&gt;0</title>
<path fill="none" stroke="red" stroke-width="0.27" d="M477.22,-68.32C450.74,-58.63 396.28,-38.44 378,-29.7 377.16,-29.3 376.32,-28.88 375.47,-28.45"/>
<polygon fill="red" stroke="red" stroke-width="0.27" points="376.96,-25.28 366.51,-23.56 373.61,-31.42 376.96,-25.28"/>
</g>
<!-- &#45;13&#45;&gt;1 -->
<g id="edge61" class="edge">
<title>&#45;13&#45;&gt;1</title>
<path fill="none" stroke="red" stroke-width="0.23" d="M477.46,-68.44C474.66,-67.49 471.75,-66.53 469,-65.7 407.92,-47.2 389.06,-53.87 330,-29.7 329.14,-29.35 328.28,-28.97 327.41,-28.58"/>
<polygon fill="red" stroke="red" stroke-width="0.23" points="328.86,-25.38 318.38,-23.84 325.61,-31.58 328.86,-25.38"/>
</g>
<!-- &#45;13&#45;&gt;2 -->
<g id="edge62" class="edge">
<title>&#45;13&#45;&gt;2</title>
<path fill="none" stroke="green" stroke-width="0.41" d="M479.49,-65.65C464.76,-56.19 440.1,-40.34 422.56,-29.06"/>
<polygon fill="green" stroke="green" stroke-width="0.41" points="424.42,-26.1 414.12,-23.64 420.64,-31.99 424.42,-26.1"/>
</g>
<!-- &#45;13&#45;&gt;3 -->
<g id="edge63" class="edge">
<title>&#45;13&#45;&gt;3</title>
<path fill="none" stroke="red" stroke-width="0.22" d="M486.16,-65.65C480.53,-57.89 471.77,-45.84 464.29,-35.53"/>
<polygon fill="red" stroke="red" stroke-width="0.22" points="467.11,-33.45 458.4,-27.42 461.44,-37.57 467.11,-33.45"/>
</g>
<!-- &#45;13&#45;&gt;4 -->
<g id="edge64" class="edge">
<title>&#45;13&#45;&gt;4</title>
<path fill="none" stroke="green" stroke-width="0.2" d="M492.83,-65.65C493.52,-59.05 494.53,-49.33 495.47,-40.23"/>
<polygon fill="green" stroke="green" stroke-width="0.2" points="498.98,-40.36 496.53,-30.06 492.01,-39.64 498.98,-40.36"/>
</g>
<!-- &#45;14 -->
<g id="node14" class="node">
<title>&#45;14</title>
<polygon fill="lightgray" stroke="black" points="878.5,-83.7 849.5,-83.7 849.5,-65.7 878.5,-65.7 878.5,-83.7"/>
<text text-anchor="middle" x="864" y="-72.5" font-family="Times New Roman,serif" font-size="9.00">&#45;14</text>
</g>
<!-- &#45;14&#45;&gt;0 -->
<g id="edge65" class="edge">
<title>&#45;14&#45;&gt;0</title>
<path fill="none" stroke="red" stroke-width="0.19" d="M849.06,-67.88C846.41,-67.03 843.65,-66.25 841,-65.7 638.97,-23.45 575.15,-90.79 378,-29.7 376.94,-29.37 375.88,-28.99 374.83,-28.57"/>
<polygon fill="red" stroke="red" stroke-width="0.19" points="376.23,-25.36 365.72,-24.01 373.09,-31.62 376.23,-25.36"/>
</g>
<!-- &#45;14&#45;&gt;2 -->
<g id="edge66" class="edge">
<title>&#45;14&#45;&gt;2</title>
<path fill="none" stroke="red" stroke-width="0.38" d="M849.06,-67.9C846.41,-67.05 843.65,-66.26 841,-65.7 659.95,-26.99 602.6,-85.29 426,-29.7 424.94,-29.37 423.89,-28.98 422.83,-28.56"/>
<polygon fill="red" stroke="red" stroke-width="0.38" points="424.24,-25.35 413.73,-23.98 421.09,-31.6 424.24,-25.35"/>
</g>
<!-- &#45;14&#45;&gt;3 -->
<g id="edge67" class="edge">
<title>&#45;14&#45;&gt;3</title>
<path fill="none" stroke="green" stroke-width="0.26" d="M849.05,-67.93C846.4,-67.07 843.64,-66.28 841,-65.7 680.92,-30.53 630.05,-79.79 474,-29.7 472.95,-29.36 471.89,-28.97 470.84,-28.54"/>
<polygon fill="green" stroke="green" stroke-width="0.26" points="472.25,-25.33 461.74,-23.95 469.09,-31.58 472.25,-25.33"/>
</g>
<!-- &#45;14&#45;&gt;4 -->
<g id="edge68" class="edge">
<title>&#45;14&#45;&gt;4</title>
<path fill="none" stroke="green" stroke-width="0.22" d="M849.03,-68.03C846.38,-67.16 843.63,-66.34 841,-65.7 724,-37.12 580.28,-22.76 523.14,-17.85"/>
<polygon fill="green" stroke="green" stroke-width="0.22" points="523.16,-14.34 512.9,-16.99 522.58,-21.32 523.16,-14.34"/>
</g>
<!-- &#45;15 -->
<g id="node15" class="node">
<title>&#45;15</title>
<polygon fill="lightgray" stroke="black" points="553.5,-83.7 524.5,-83.7 524.5,-65.7 553.5,-65.7 553.5,-83.7"/>
<text text-anchor="middle" x="539" y="-72.5" font-family="Times New Roman,serif" font-size="9.00">&#45;15</text>
</g>
<!-- &#45;15&#45;&gt;0 -->
<g id="edge69" class="edge">
<title>&#45;15&#45;&gt;0</title>
<path fill="none" stroke="red" stroke-width="0.53" d="M524.46,-68.44C521.66,-67.49 518.75,-66.53 516,-65.7 455.35,-47.27 436.64,-53.75 378,-29.7 377.14,-29.35 376.28,-28.97 375.42,-28.57"/>
<polygon fill="red" stroke="red" stroke-width="0.53" points="376.86,-25.38 366.38,-23.84 373.61,-31.58 376.86,-25.38"/>
</g>
<!-- &#45;15&#45;&gt;1 -->
<g id="edge70" class="edge">
<title>&#45;15&#45;&gt;1</title>
<path fill="none" stroke="red" stroke-width="0.12" d="M524.5,-68.3C521.7,-67.36 518.78,-66.45 516,-65.7 434.69,-43.81 408.88,-59.15 330,-29.7 329.13,-29.37 328.26,-29.02 327.39,-28.64"/>
<polygon fill="red" stroke="red" stroke-width="0.12" points="328.81,-25.44 318.32,-24 325.62,-31.67 328.81,-25.44"/>
</g>
<!-- &#45;15&#45;&gt;2 -->
<g id="edge71" class="edge">
<title>&#45;15&#45;&gt;2</title>
<path fill="none" stroke="green" stroke-width="0.11" d="M524.35,-68.31C498.11,-58.61 444.13,-38.4 426,-29.7 425.17,-29.3 424.32,-28.88 423.47,-28.45"/>
<polygon fill="green" stroke="green" stroke-width="0.11" points="424.96,-25.27 414.51,-23.55 421.61,-31.42 424.96,-25.27"/>
</g>
<!-- &#45;15&#45;&gt;3 -->
<g id="edge72" class="edge">
<title>&#45;15&#45;&gt;3</title>
<path fill="none" stroke="green" stroke-width="0.47" d="M526.62,-65.65C512.2,-56.28 488.12,-40.63 470.81,-29.37"/>
<polygon fill="green" stroke="green" stroke-width="0.47" points="472.28,-26.16 461.99,-23.64 468.46,-32.02 472.28,-26.16"/>
</g>
<!-- &#45;15&#45;&gt;4 -->
<g id="edge73" class="edge">
<title>&#45;15&#45;&gt;4</title>
<path fill="none" stroke="green" stroke-width="0.65" stroke-dasharray="1,5" d="M533.3,-65.65C527.85,-57.97 519.42,-46.08 512.17,-35.84"/>
<polygon fill="green" stroke="green" stroke-width="0.65" points="514.84,-33.55 506.2,-27.42 509.13,-37.6 514.84,-33.55"/>
</g>
<!-- &#45;16 -->
<g id="node16" class="node">
<title>&#45;16</title>
<polygon fill="lightgray" stroke="black" points="600.5,-83.7 571.5,-83.7 571.5,-65.7 600.5,-65.7 600.5,-83.7"/>
<text text-anchor="middle" x="586" y="-72.5" font-family="Times New Roman,serif" font-size="9.00">&#45;16</text>
</g>
<!-- &#45;16&#45;&gt;0 -->
<g id="edge74" class="edge">
<title>&#45;16&#45;&gt;0</title>
<path fill="none" stroke="green" stroke-width="0.41" d="M571.5,-68.3C568.7,-67.36 565.78,-66.45 563,-65.7 482.13,-43.88 456.46,-59.03 378,-29.7 377.13,-29.37 376.26,-29.02 375.39,-28.64"/>
<polygon fill="green" stroke="green" stroke-width="0.41" points="376.81,-25.44 366.32,-24 373.62,-31.67 376.81,-25.44"/>
</g>
<!-- &#45;16&#45;&gt;1 -->
<g id="edge75" class="edge">
<title>&#45;16&#45;&gt;1</title>
<path fill="none" stroke="red" stroke-width="0.28" d="M571.02,-68.05C568.38,-67.18 565.63,-66.35 563,-65.7 461.32,-40.38 428.84,-64.48 330,-29.7 329.13,-29.39 328.25,-29.05 327.37,-28.69"/>
<polygon fill="red" stroke="red" stroke-width="0.28" points="328.79,-25.48 318.28,-24.1 325.63,-31.73 328.79,-25.48"/>
</g>
<!-- &#45;16&#45;&gt;2 -->
<g id="edge76" class="edge">
<title>&#45;16&#45;&gt;2</title>
<path fill="none" stroke="green" stroke-width="0.27" d="M571.46,-68.45C568.66,-67.49 565.75,-66.54 563,-65.7 502.78,-47.34 484.22,-53.64 426,-29.7 425.14,-29.35 424.28,-28.97 423.42,-28.57"/>
<polygon fill="green" stroke="green" stroke-width="0.27" points="424.86,-25.38 414.38,-23.83 421.61,-31.58 424.86,-25.38"/>
</g>
<!-- &#45;16&#45;&gt;3 -->
<g id="edge77" class="edge">
<title>&#45;16&#45;&gt;3</title>
<path fill="none" stroke="red" stroke-width="0.51" stroke-dasharray="1,5" d="M571.48,-68.3C545.47,-58.59 491.97,-38.36 474,-29.7 473.17,-29.3 472.32,-28.88 471.47,-28.44"/>
<polygon fill="red" stroke="red" stroke-width="0.51" points="472.97,-25.27 462.51,-23.54 469.61,-31.41 472.97,-25.27"/>
</g>
<!-- &#45;16&#45;&gt;4 -->
<g id="edge78" class="edge">
<title>&#45;16&#45;&gt;4</title>
<path fill="none" stroke="green" stroke-width="0.41" d="M573.76,-65.65C559.58,-56.33 535.96,-40.8 518.86,-29.56"/>
<polygon fill="green" stroke="green" stroke-width="0.41" points="520.41,-26.39 510.13,-23.82 516.57,-32.24 520.41,-26.39"/>
</g>
<!-- &#45;17 -->
<g id="node17" class="node">
<title>&#45;17</title>
<polygon fill="lightgray" stroke="black" points="647.5,-83.7 618.5,-83.7 618.5,-65.7 647.5,-65.7 647.5,-83.7"/>
<text text-anchor="middle" x="633" y="-72.5" font-family="Times New Roman,serif" font-size="9.00">&#45;17</text>
</g>
<!-- &#45;17&#45;&gt;0 -->
<g id="edge79" class="edge">
<title>&#45;17&#45;&gt;0</title>
<path fill="none" stroke="green" stroke-width="0.55" d="M618.02,-68.05C615.38,-67.18 612.63,-66.35 610,-65.7 508.75,-40.46 476.42,-64.36 378,-29.7 377.13,-29.39 376.25,-29.05 375.37,-28.69"/>
<polygon fill="green" stroke="green" stroke-width="0.55" points="376.79,-25.48 366.28,-24.1 373.63,-31.73 376.79,-25.48"/>
</g>
<!-- &#45;17&#45;&gt;1 -->
<g id="edge80" class="edge">
<title>&#45;17&#45;&gt;1</title>
<path fill="none" stroke="red" stroke-width="0.29" d="M618.04,-68C615.39,-67.13 612.63,-66.32 610,-65.7 487.87,-36.94 448.88,-69.84 330,-29.7 329.12,-29.4 328.24,-29.07 327.36,-28.72"/>
<polygon fill="red" stroke="red" stroke-width="0.29" points="328.77,-25.51 318.26,-24.16 325.64,-31.77 328.77,-25.51"/>
</g>
<!-- &#45;17&#45;&gt;2 -->
<g id="edge81" class="edge">
<title>&#45;17&#45;&gt;2</title>
<path fill="none" stroke="red" stroke-width="0.32" d="M618.5,-68.31C615.7,-67.36 612.78,-66.45 610,-65.7 529.56,-43.96 504.04,-58.92 426,-29.7 425.13,-29.37 424.26,-29.02 423.39,-28.64"/>
<polygon fill="red" stroke="red" stroke-width="0.32" points="424.82,-25.44 414.32,-24 421.62,-31.67 424.82,-25.44"/>
</g>
<!-- &#45;17&#45;&gt;3 -->
<g id="edge82" class="edge">
<title>&#45;17&#45;&gt;3</title>
<path fill="none" stroke="green" stroke-width="0.33" d="M618.45,-68.45C615.66,-67.5 612.75,-66.54 610,-65.7 550.21,-47.41 531.81,-53.53 474,-29.7 473.14,-29.35 472.28,-28.97 471.42,-28.57"/>
<polygon fill="green" stroke="green" stroke-width="0.33" points="472.87,-25.38 462.39,-23.83 469.61,-31.58 472.87,-25.38"/>
</g>
<!-- &#45;17&#45;&gt;4 -->
<g id="edge83" class="edge">
<title>&#45;17&#45;&gt;4</title>
<path fill="none" stroke="red" stroke-width="0.23" d="M618.3,-67.4C594.8,-57.33 548.62,-37.54 520.82,-25.63"/>
<polygon fill="red" stroke="red" stroke-width="0.23" points="522.05,-22.35 511.48,-21.62 519.29,-28.78 522.05,-22.35"/>
</g>
<!-- &#45;18 -->
<g id="node18" class="node">
<title>&#45;18</title>
<polygon fill="lightgray" stroke="black" points="694.5,-83.7 665.5,-83.7 665.5,-65.7 694.5,-65.7 694.5,-83.7"/>
<text text-anchor="middle" x="680" y="-72.5" font-family="Times New Roman,serif" font-size="9.00">&#45;18</text>
</g>
<!-- &#45;18&#45;&gt;0 -->
<g id="edge84" class="edge">
<title>&#45;18&#45;&gt;0</title>
<path fill="none" stroke="red" stroke-width="0.21" d="M665.04,-68C662.39,-67.13 659.63,-66.32 657,-65.7 535.31,-37.01 496.45,-69.72 378,-29.7 377.12,-29.4 376.24,-29.07 375.36,-28.71"/>
<polygon fill="red" stroke="red" stroke-width="0.21" points="376.77,-25.51 366.26,-24.16 373.64,-31.77 376.77,-25.51"/>
</g>
<!-- &#45;18&#45;&gt;1 -->
<g id="edge85" class="edge">
<title>&#45;18&#45;&gt;1</title>
<path fill="none" stroke="red" stroke-width="0.65" d="M665.05,-67.95C662.4,-67.09 659.64,-66.29 657,-65.7 514.38,-33.48 468.95,-75.21 330,-29.7 329.12,-29.41 328.24,-29.09 327.36,-28.74"/>
<polygon fill="red" stroke="red" stroke-width="0.65" points="328.76,-25.52 318.24,-24.21 325.64,-31.79 328.76,-25.52"/>
</g>
<!-- &#45;18&#45;&gt;2 -->
<g id="edge86" class="edge">
<title>&#45;18&#45;&gt;2</title>
<path fill="none" stroke="red" stroke-width="0.15" d="M665.02,-68.05C662.38,-67.18 659.63,-66.35 657,-65.7 556.19,-40.53 523.99,-64.25 426,-29.7 425.13,-29.39 424.25,-29.05 423.37,-28.69"/>
<polygon fill="red" stroke="red" stroke-width="0.15" points="424.79,-25.48 414.28,-24.1 421.63,-31.73 424.79,-25.48"/>
</g>
<!-- &#45;18&#45;&gt;3 -->
<g id="edge87" class="edge">
<title>&#45;18&#45;&gt;3</title>
<path fill="none" stroke="green" stroke-width="0.46" d="M665.5,-68.31C662.7,-67.37 659.77,-66.45 657,-65.7 576.99,-44.03 551.61,-58.81 474,-29.7 473.13,-29.37 472.26,-29.02 471.39,-28.64"/>
<polygon fill="green" stroke="green" stroke-width="0.46" points="472.82,-25.44 462.32,-23.99 469.62,-31.67 472.82,-25.44"/>
</g>
<!-- &#45;18&#45;&gt;4 -->
<g id="edge88" class="edge">
<title>&#45;18&#45;&gt;4</title>
<path fill="none" stroke="red" stroke-width="0.53" d="M665.42,-68.55C662.63,-67.59 659.73,-66.6 657,-65.7 609.33,-49.94 553.23,-32.64 522.03,-23.13"/>
<polygon fill="red" stroke="red" stroke-width="0.53" points="522.67,-19.67 512.08,-20.1 520.63,-26.36 522.67,-19.67"/>
</g>
<!-- &#45;19 -->
<g id="node19" class="node">
<title>&#45;19</title>
<polygon fill="lightgray" stroke="black" points="831.5,-83.7 802.5,-83.7 802.5,-65.7 831.5,-65.7 831.5,-83.7"/>
<text text-anchor="middle" x="817" y="-72.5" font-family="Times New Roman,serif" font-size="9.00">&#45;19</text>
</g>
<!-- &#45;19&#45;&gt;1 -->
<g id="edge89" class="edge">
<title>&#45;19&#45;&gt;1</title>
<path fill="none" stroke="red" stroke-width="0.12" d="M802.43,-68.21C799.35,-67.23 796.1,-66.33 793,-65.7 590.7,-24.76 527.15,-90.79 330,-29.7 328.94,-29.37 327.88,-28.99 326.83,-28.57"/>
<polygon fill="red" stroke="red" stroke-width="0.12" points="328.23,-25.36 317.72,-24.01 325.09,-31.62 328.23,-25.36"/>
</g>
<!-- &#45;19&#45;&gt;2 -->
<g id="edge90" class="edge">
<title>&#45;19&#45;&gt;2</title>
<path fill="none" stroke="red" stroke-width="0.19" stroke-dasharray="1,5" d="M802.42,-68.26C799.34,-67.28 796.09,-66.36 793,-65.7 632.7,-31.57 582.05,-79.79 426,-29.7 424.95,-29.36 423.89,-28.97 422.84,-28.54"/>
<polygon fill="red" stroke="red" stroke-width="0.19" points="424.25,-25.33 413.74,-23.95 421.09,-31.58 424.25,-25.33"/>
</g>
<!-- &#45;19&#45;&gt;3 -->
<g id="edge91" class="edge">
<title>&#45;19&#45;&gt;3</title>
<path fill="none" stroke="green" stroke-width="0.14" d="M802.41,-68.3C799.34,-67.31 796.09,-66.38 793,-65.7 653.67,-34.97 609.53,-74.29 474,-29.7 473.12,-29.41 472.24,-29.08 471.36,-28.73"/>
<polygon fill="green" stroke="green" stroke-width="0.14" points="472.76,-25.52 462.25,-24.2 469.64,-31.79 472.76,-25.52"/>
</g>
<!-- &#45;19&#45;&gt;4 -->
<g id="edge92" class="edge">
<title>&#45;19&#45;&gt;4</title>
<path fill="none" stroke="red" stroke-width="0.1" d="M802.38,-68.43C799.31,-67.43 796.07,-66.46 793,-65.7 694.4,-41.09 574.21,-24.98 523.02,-18.75"/>
<polygon fill="red" stroke="red" stroke-width="0.1" points="523.25,-15.25 512.9,-17.54 522.41,-22.2 523.25,-15.25"/>
</g>
<!-- &#45;20 -->
<g id="node20" class="node">
<title>&#45;20</title>
<polygon fill="lightgray" stroke="black" points="741.5,-83.7 712.5,-83.7 712.5,-65.7 741.5,-65.7 741.5,-83.7"/>
<text text-anchor="middle" x="727" y="-72.5" font-family="Times New Roman,serif" font-size="9.00">&#45;20</text>
</g>
<!-- &#45;20&#45;&gt;0 -->
<g id="edge93" class="edge">
<title>&#45;20&#45;&gt;0</title>
<path fill="none" stroke="red" stroke-width="0.36" d="M712.05,-67.96C709.4,-67.09 706.64,-66.3 704,-65.7 561.82,-33.55 516.52,-75.09 378,-29.7 377.12,-29.41 376.24,-29.09 375.36,-28.74"/>
<polygon fill="red" stroke="red" stroke-width="0.36" points="376.76,-25.52 366.24,-24.21 373.64,-31.79 376.76,-25.52"/>
</g>
<!-- &#45;20&#45;&gt;1 -->
<g id="edge94" class="edge">
<title>&#45;20&#45;&gt;1</title>
<path fill="none" stroke="green" stroke-width="0.25" d="M712.05,-67.92C709.4,-67.07 706.64,-66.28 704,-65.7 540.87,-30.01 489.05,-80.59 330,-29.7 328.95,-29.36 327.89,-28.97 326.83,-28.55"/>
<polygon fill="green" stroke="green" stroke-width="0.25" points="328.24,-25.34 317.74,-23.96 325.09,-31.59 328.24,-25.34"/>
</g>
<!-- &#45;20&#45;&gt;2 -->
<g id="edge95" class="edge">
<title>&#45;20&#45;&gt;2</title>
<path fill="none" stroke="red" stroke-width="0.4" d="M712.04,-68C709.39,-67.13 706.63,-66.32 704,-65.7 582.74,-37.08 544.02,-69.61 426,-29.7 425.12,-29.4 424.24,-29.07 423.36,-28.71"/>
<polygon fill="red" stroke="red" stroke-width="0.4" points="424.77,-25.5 414.26,-24.16 421.64,-31.77 424.77,-25.5"/>
</g>
<!-- &#45;20&#45;&gt;3 -->
<g id="edge96" class="edge">
<title>&#45;20&#45;&gt;3</title>
<path fill="none" stroke="red" stroke-width="0.14" d="M712.02,-68.06C709.37,-67.18 706.62,-66.35 704,-65.7 603.62,-40.6 571.57,-64.14 474,-29.7 473.13,-29.39 472.25,-29.05 471.37,-28.68"/>
<polygon fill="red" stroke="red" stroke-width="0.14" points="472.79,-25.48 462.28,-24.09 469.63,-31.73 472.79,-25.48"/>
</g>
<!-- &#45;20&#45;&gt;4 -->
<g id="edge97" class="edge">
<title>&#45;20&#45;&gt;4</title>
<path fill="none" stroke="green" stroke-width="0.58" d="M712.47,-68.4C709.67,-67.45 706.76,-66.51 704,-65.7 638.98,-46.57 560.89,-29.16 522.19,-20.9"/>
<polygon fill="green" stroke="green" stroke-width="0.58" points="522.87,-17.47 512.36,-18.82 521.42,-24.32 522.87,-17.47"/>
</g>
</g>
</svg>
