<?xml version="1.0" encoding="UTF-8" standalone="no"?>
<!DOCTYPE svg PUBLIC "-//W3C//DTD SVG 1.1//EN"
 "http://www.w3.org/Graphics/SVG/1.1/DTD/svg11.dtd">
<!-- Generated by graphviz version 2.43.0 (0)
 -->
<!-- Title: %3 Pages: 1 -->
<svg width="936pt" height="95pt"
 viewBox="0.00 0.00 936.00 94.53" xmlns="http://www.w3.org/2000/svg" xmlns:xlink="http://www.w3.org/1999/xlink">
<g id="graph0" class="graph" transform="scale(1 1) rotate(0) translate(4 90.53)">
<title>%3</title>
<polygon fill="white" stroke="transparent" points="-4,4 -4,-90.53 932,-90.53 932,4 -4,4"/>
<!-- &#45;1 -->
<g id="node1" class="node">
<title>&#45;1</title>
<polygon fill="lightgray" stroke="black" points="570,-86.53 544,-86.53 544,-68.53 570,-68.53 570,-86.53"/>
<text text-anchor="middle" x="557" y="-75.33" font-family="Times,serif" font-size="9.00">&#45;1</text>
</g>
<!-- 0 -->
<g id="node21" class="node">
<title>0</title>
<ellipse fill="lightblue" stroke="black" cx="550" cy="-16.26" rx="16.03" ry="16.03"/>
<text text-anchor="middle" x="550" y="-14.06" font-family="Times,serif" font-size="9.00">0</text>
</g>
<!-- &#45;1&#45;&gt;0 -->
<g id="edge1" class="edge">
<title>&#45;1&#45;&gt;0</title>
<path fill="none" stroke="red" stroke-width="0.61" d="M556.03,-68.29C555.24,-61.63 554.09,-51.89 553.01,-42.7"/>
<polygon fill="red" stroke="red" stroke-width="0.61" points="556.48,-42.28 551.83,-32.76 549.53,-43.1 556.48,-42.28"/>
</g>
<!-- 1 -->
<g id="node22" class="node">
<title>1</title>
<ellipse fill="lightblue" stroke="black" cx="397" cy="-16.26" rx="16.03" ry="16.03"/>
<text text-anchor="middle" x="397" y="-14.06" font-family="Times,serif" font-size="9.00">1</text>
</g>
<!-- &#45;1&#45;&gt;1 -->
<g id="edge31" class="edge">
<title>&#45;1&#45;&gt;1</title>
<path fill="none" stroke="red" stroke-width="0.41" d="M544,-71.71C541.05,-70.64 537.92,-69.53 535,-68.53 485.53,-51.59 470.72,-53.89 423,-32.53 421.82,-32 420.62,-31.43 419.42,-30.83"/>
<polygon fill="red" stroke="red" stroke-width="0.41" points="420.92,-27.66 410.46,-25.92 417.55,-33.8 420.92,-27.66"/>
</g>
<!-- 2 -->
<g id="node23" class="node">
<title>2</title>
<ellipse fill="lightblue" stroke="black" cx="601" cy="-16.26" rx="16.03" ry="16.03"/>
<text text-anchor="middle" x="601" y="-14.06" font-family="Times,serif" font-size="9.00">2</text>
</g>
<!-- &#45;1&#45;&gt;2 -->
<g id="edge40" class="edge">
<title>&#45;1&#45;&gt;2</title>
<path fill="none" stroke="green" stroke-width="0.36" d="M563.12,-68.29C568.87,-60.53 577.73,-48.6 585.44,-38.22"/>
<polygon fill="green" stroke="green" stroke-width="0.36" points="588.4,-40.11 591.55,-30 582.78,-35.94 588.4,-40.11"/>
</g>
<!-- 3 -->
<g id="node24" class="node">
<title>3</title>
<ellipse fill="lightblue" stroke="black" cx="448" cy="-16.26" rx="16.03" ry="16.03"/>
<text text-anchor="middle" x="448" y="-14.06" font-family="Times,serif" font-size="9.00">3</text>
</g>
<!-- &#45;1&#45;&gt;3 -->
<g id="edge71" class="edge">
<title>&#45;1&#45;&gt;3</title>
<path fill="none" stroke="green" stroke-width="0.1" d="M543.97,-69.84C527.54,-61.36 498.49,-46.2 474,-32.53 472.87,-31.9 471.71,-31.24 470.55,-30.58"/>
<polygon fill="green" stroke="green" stroke-width="0.1" points="472.11,-27.44 461.7,-25.46 468.6,-33.5 472.11,-27.44"/>
</g>
<!-- 4 -->
<g id="node25" class="node">
<title>4</title>
<ellipse fill="lightblue" stroke="black" cx="499" cy="-16.26" rx="16.03" ry="16.03"/>
<text text-anchor="middle" x="499" y="-14.06" font-family="Times,serif" font-size="9.00">4</text>
</g>
<!-- &#45;1&#45;&gt;4 -->
<g id="edge43" class="edge">
<title>&#45;1&#45;&gt;4</title>
<path fill="none" stroke="red" stroke-width="0.44" d="M548.94,-68.29C540.82,-59.99 528.02,-46.92 517.41,-36.08"/>
<polygon fill="red" stroke="red" stroke-width="0.44" points="519.67,-33.38 510.17,-28.68 514.67,-38.28 519.67,-33.38"/>
</g>
<!-- &#45;2 -->
<g id="node2" class="node">
<title>&#45;2</title>
<polygon fill="lightgray" stroke="black" points="614,-86.53 588,-86.53 588,-68.53 614,-68.53 614,-86.53"/>
<text text-anchor="middle" x="601" y="-75.33" font-family="Times,serif" font-size="9.00">&#45;2</text>
</g>
<!-- &#45;2&#45;&gt;0 -->
<g id="edge8" class="edge">
<title>&#45;2&#45;&gt;0</title>
<path fill="none" stroke="red" stroke-width="0.23" d="M593.91,-68.29C586.93,-60.18 576.01,-47.49 566.81,-36.79"/>
<polygon fill="red" stroke="red" stroke-width="0.23" points="569.37,-34.41 560.2,-29.11 564.07,-38.98 569.37,-34.41"/>
</g>
<!-- &#45;2&#45;&gt;1 -->
<g id="edge88" class="edge">
<title>&#45;2&#45;&gt;1</title>
<path fill="none" stroke="green" stroke-width="0.38" d="M587.59,-71.36C584.77,-70.35 581.81,-69.36 579,-68.53 510.77,-48.33 489.11,-58.84 423,-32.53 421.77,-32.04 420.53,-31.49 419.29,-30.92"/>
<polygon fill="green" stroke="green" stroke-width="0.38" points="420.57,-27.63 410.1,-26 417.26,-33.8 420.57,-27.63"/>
</g>
<!-- &#45;2&#45;&gt;2 -->
<g id="edge39" class="edge">
<title>&#45;2&#45;&gt;2</title>
<path fill="none" stroke="green" stroke-width="0.11" d="M601,-68.29C601,-61.7 601,-52.1 601,-43"/>
<polygon fill="green" stroke="green" stroke-width="0.11" points="604.5,-42.76 601,-32.76 597.5,-42.76 604.5,-42.76"/>
</g>
<!-- &#45;2&#45;&gt;3 -->
<g id="edge20" class="edge">
<title>&#45;2&#45;&gt;3</title>
<path fill="none" stroke="red" stroke-width="0.27" d="M587.99,-71.75C585.03,-70.68 581.91,-69.56 579,-68.53 532.48,-52.1 518.83,-53.12 474,-32.53 472.82,-31.99 471.63,-31.41 470.44,-30.8"/>
<polygon fill="red" stroke="red" stroke-width="0.27" points="471.94,-27.63 461.49,-25.87 468.56,-33.76 471.94,-27.63"/>
</g>
<!-- &#45;2&#45;&gt;4 -->
<g id="edge23" class="edge">
<title>&#45;2&#45;&gt;4</title>
<path fill="none" stroke="red" stroke-width="0.4" d="M587.81,-68.92C572.64,-60.17 547,-45.35 525,-32.53 523.88,-31.87 522.74,-31.21 521.58,-30.53"/>
<polygon fill="red" stroke="red" stroke-width="0.4" points="523.15,-27.39 512.75,-25.36 519.61,-33.43 523.15,-27.39"/>
</g>
<!-- &#45;3 -->
<g id="node3" class="node">
<title>&#45;3</title>
<polygon fill="lightgray" stroke="black" points="658,-86.53 632,-86.53 632,-68.53 658,-68.53 658,-86.53"/>
<text text-anchor="middle" x="645" y="-75.33" font-family="Times,serif" font-size="9.00">&#45;3</text>
</g>
<!-- &#45;3&#45;&gt;0 -->
<g id="edge46" class="edge">
<title>&#45;3&#45;&gt;0</title>
<path fill="none" stroke="green" stroke-width="0.2" d="M631.79,-68.29C616.35,-58.65 590.56,-42.57 572.07,-31.03"/>
<polygon fill="green" stroke="green" stroke-width="0.2" points="573.74,-27.95 563.4,-25.62 570.04,-33.89 573.74,-27.95"/>
</g>
<!-- &#45;3&#45;&gt;1 -->
<g id="edge14" class="edge">
<title>&#45;3&#45;&gt;1</title>
<path fill="none" stroke="red" stroke-width="0.43" d="M631.62,-71.25C628.8,-70.26 625.83,-69.29 623,-68.53 535.8,-45.01 507.7,-63.88 423,-32.53 421.76,-32.07 420.51,-31.55 419.26,-30.99"/>
<polygon fill="red" stroke="red" stroke-width="0.43" points="420.52,-27.7 410.05,-26.13 417.26,-33.89 420.52,-27.7"/>
</g>
<!-- &#45;3&#45;&gt;2 -->
<g id="edge82" class="edge">
<title>&#45;3&#45;&gt;2</title>
<path fill="none" stroke="green" stroke-width="0.22" d="M638.88,-68.29C633.13,-60.53 624.27,-48.6 616.56,-38.22"/>
<polygon fill="green" stroke="green" stroke-width="0.22" points="619.22,-35.94 610.45,-30 613.6,-40.11 619.22,-35.94"/>
</g>
<!-- &#45;3&#45;&gt;3 -->
<g id="edge52" class="edge">
<title>&#45;3&#45;&gt;3</title>
<path fill="none" stroke="green" stroke-width="0.53" d="M631.58,-71.38C628.77,-70.37 625.8,-69.37 623,-68.53 557.77,-48.86 537.17,-58.05 474,-32.53 472.77,-32.03 471.53,-31.48 470.3,-30.9"/>
<polygon fill="green" stroke="green" stroke-width="0.53" points="471.58,-27.61 461.11,-25.97 468.26,-33.78 471.58,-27.61"/>
</g>
<!-- &#45;3&#45;&gt;4 -->
<g id="edge24" class="edge">
<title>&#45;3&#45;&gt;4</title>
<path fill="none" stroke="green" stroke-width="0.52" d="M631.57,-71.64C600.78,-60.43 527.53,-33.72 525,-32.53 523.83,-31.97 522.64,-31.38 521.45,-30.77"/>
<polygon fill="green" stroke="green" stroke-width="0.52" points="522.96,-27.61 512.51,-25.82 519.56,-33.73 522.96,-27.61"/>
</g>
<!-- &#45;4 -->
<g id="node4" class="node">
<title>&#45;4</title>
<polygon fill="lightgray" stroke="black" points="26,-86.53 0,-86.53 0,-68.53 26,-68.53 26,-86.53"/>
<text text-anchor="middle" x="13" y="-75.33" font-family="Times,serif" font-size="9.00">&#45;4</text>
</g>
<!-- &#45;4&#45;&gt;0 -->
<g id="edge91" class="edge">
<title>&#45;4&#45;&gt;0</title>
<path fill="none" stroke="red" stroke-width="0.34" d="M26.32,-71.02C29.15,-70.04 32.14,-69.14 35,-68.53 248.08,-22.86 315.95,-97.38 524,-32.53 525.26,-32.13 526.53,-31.67 527.79,-31.15"/>
<polygon fill="red" stroke="red" stroke-width="0.34" points="529.74,-34.09 537.05,-26.43 526.56,-27.85 529.74,-34.09"/>
</g>
<!-- &#45;4&#45;&gt;1 -->
<g id="edge22" class="edge">
<title>&#45;4&#45;&gt;1</title>
<path fill="none" stroke="green" stroke-width="0.2" d="M26.36,-71.17C29.18,-70.18 32.16,-69.24 35,-68.53 158.2,-37.76 309.91,-23.77 370.34,-19.13"/>
<polygon fill="green" stroke="green" stroke-width="0.2" points="370.82,-22.6 380.53,-18.37 370.3,-15.62 370.82,-22.6"/>
</g>
<!-- &#45;4&#45;&gt;3 -->
<g id="edge81" class="edge">
<title>&#45;4&#45;&gt;3</title>
<path fill="none" stroke="red" stroke-width="0.12" d="M26.33,-71.06C29.16,-70.08 32.14,-69.17 35,-68.53 203.55,-30.7 257.59,-85.52 422,-32.53 423.26,-32.12 424.53,-31.65 425.78,-31.12"/>
<polygon fill="red" stroke="red" stroke-width="0.12" points="427.74,-34.05 435.04,-26.37 424.54,-27.82 427.74,-34.05"/>
</g>
<!-- &#45;4&#45;&gt;4 -->
<g id="edge70" class="edge">
<title>&#45;4&#45;&gt;4</title>
<path fill="none" stroke="red" stroke-width="0.19" d="M26.33,-71.04C29.15,-70.06 32.14,-69.15 35,-68.53 225.81,-26.78 286.78,-91.45 473,-32.53 474.26,-32.13 475.53,-31.66 476.79,-31.14"/>
<polygon fill="red" stroke="red" stroke-width="0.19" points="478.74,-34.07 486.05,-26.4 475.55,-27.84 478.74,-34.07"/>
</g>
<!-- &#45;5 -->
<g id="node5" class="node">
<title>&#45;5</title>
<polygon fill="lightgray" stroke="black" points="702,-86.53 676,-86.53 676,-68.53 702,-68.53 702,-86.53"/>
<text text-anchor="middle" x="689" y="-75.33" font-family="Times,serif" font-size="9.00">&#45;5</text>
</g>
<!-- &#45;5&#45;&gt;0 -->
<g id="edge38" class="edge">
<title>&#45;5&#45;&gt;0</title>
<path fill="none" stroke="green" stroke-width="0.12" d="M675.96,-71.75C650.37,-62.32 594.47,-41.48 576,-32.53 574.83,-31.96 573.65,-31.36 572.46,-30.74"/>
<polygon fill="green" stroke="green" stroke-width="0.12" points="573.98,-27.58 563.54,-25.76 570.56,-33.69 573.98,-27.58"/>
</g>
<!-- &#45;5&#45;&gt;1 -->
<g id="edge10" class="edge">
<title>&#45;5&#45;&gt;1</title>
<path fill="none" stroke="green" stroke-width="0.18" d="M675.64,-71.18C672.82,-70.19 669.84,-69.24 667,-68.53 560.73,-41.66 526.39,-68.95 423,-32.53 421.75,-32.09 420.49,-31.58 419.24,-31.04"/>
<polygon fill="green" stroke="green" stroke-width="0.18" points="420.5,-27.74 410.01,-26.22 417.26,-33.95 420.5,-27.74"/>
</g>
<!-- &#45;5&#45;&gt;2 -->
<g id="edge99" class="edge">
<title>&#45;5&#45;&gt;2</title>
<path fill="none" stroke="green" stroke-width="0.12" d="M676.76,-68.29C662.9,-58.95 640.02,-43.54 623.02,-32.09"/>
<polygon fill="green" stroke="green" stroke-width="0.12" points="624.53,-28.89 614.28,-26.21 620.62,-34.7 624.53,-28.89"/>
</g>
<!-- &#45;5&#45;&gt;3 -->
<g id="edge68" class="edge">
<title>&#45;5&#45;&gt;3</title>
<path fill="none" stroke="green" stroke-width="0.13" d="M675.62,-71.26C672.8,-70.27 669.82,-69.3 667,-68.53 582.83,-45.54 555.74,-63.07 474,-32.53 472.76,-32.06 471.51,-31.54 470.26,-30.98"/>
<polygon fill="green" stroke="green" stroke-width="0.13" points="471.53,-27.69 461.05,-26.11 468.26,-33.88 471.53,-27.69"/>
</g>
<!-- &#45;5&#45;&gt;4 -->
<g id="edge60" class="edge">
<title>&#45;5&#45;&gt;4</title>
<path fill="none" stroke="red" stroke-width="0.38" d="M675.58,-71.4C672.76,-70.4 669.8,-69.39 667,-68.53 604.77,-49.38 585.23,-57.25 525,-32.53 523.77,-32.02 522.54,-31.47 521.3,-30.88"/>
<polygon fill="red" stroke="red" stroke-width="0.38" points="522.59,-27.6 512.12,-25.94 519.27,-33.76 522.59,-27.6"/>
</g>
<!-- &#45;6 -->
<g id="node6" class="node">
<title>&#45;6</title>
<polygon fill="lightgray" stroke="black" points="746,-86.53 720,-86.53 720,-68.53 746,-68.53 746,-86.53"/>
<text text-anchor="middle" x="733" y="-75.33" font-family="Times,serif" font-size="9.00">&#45;6</text>
</g>
<!-- &#45;6&#45;&gt;0 -->
<g id="edge80" class="edge">
<title>&#45;6&#45;&gt;0</title>
<path fill="none" stroke="red" stroke-width="0.25" d="M719.57,-71.43C716.75,-70.42 713.79,-69.4 711,-68.53 651.76,-49.9 633.3,-56.46 576,-32.53 574.78,-32.02 573.54,-31.46 572.31,-30.86"/>
<polygon fill="red" stroke="red" stroke-width="0.25" points="573.6,-27.58 563.14,-25.9 570.27,-33.74 573.6,-27.58"/>
</g>
<!-- &#45;6&#45;&gt;1 -->
<g id="edge13" class="edge">
<title>&#45;6&#45;&gt;1</title>
<path fill="none" stroke="green" stroke-width="0.31" d="M719.65,-71.13C716.83,-70.15 713.84,-69.21 711,-68.53 585.6,-38.3 545.14,-74.03 423,-32.53 421.75,-32.1 420.48,-31.61 419.23,-31.07"/>
<polygon fill="green" stroke="green" stroke-width="0.31" points="420.48,-27.78 409.99,-26.28 417.26,-33.99 420.48,-27.78"/>
</g>
<!-- &#45;6&#45;&gt;2 -->
<g id="edge19" class="edge">
<title>&#45;6&#45;&gt;2</title>
<path fill="none" stroke="red" stroke-width="0.1" d="M719.86,-70.63C697.79,-60.72 652.96,-40.59 625.11,-28.09"/>
<polygon fill="red" stroke="red" stroke-width="0.1" points="626.24,-24.76 615.69,-23.86 623.38,-31.15 626.24,-24.76"/>
</g>
<!-- &#45;6&#45;&gt;3 -->
<g id="edge50" class="edge">
<title>&#45;6&#45;&gt;3</title>
<path fill="none" stroke="red" stroke-width="0.32" d="M719.64,-71.19C716.82,-70.2 713.84,-69.25 711,-68.53 607.76,-42.19 574.41,-68.14 474,-32.53 472.75,-32.08 471.5,-31.58 470.25,-31.03"/>
<polygon fill="red" stroke="red" stroke-width="0.32" points="471.5,-27.74 461.02,-26.21 468.26,-33.94 471.5,-27.74"/>
</g>
<!-- &#45;6&#45;&gt;4 -->
<g id="edge61" class="edge">
<title>&#45;6&#45;&gt;4</title>
<path fill="none" stroke="red" stroke-width="0.2" d="M719.61,-71.28C716.79,-70.28 713.82,-69.31 711,-68.53 629.85,-46.07 603.77,-62.27 525,-32.53 523.76,-32.06 522.51,-31.53 521.27,-30.97"/>
<polygon fill="red" stroke="red" stroke-width="0.2" points="522.54,-27.68 512.06,-26.09 519.26,-33.87 522.54,-27.68"/>
</g>
<!-- &#45;7 -->
<g id="node7" class="node">
<title>&#45;7</title>
<polygon fill="lightgray" stroke="black" points="790,-86.53 764,-86.53 764,-68.53 790,-68.53 790,-86.53"/>
<text text-anchor="middle" x="777" y="-75.33" font-family="Times,serif" font-size="9.00">&#45;7</text>
</g>
<!-- &#45;7&#45;&gt;0 -->
<g id="edge30" class="edge">
<title>&#45;7&#45;&gt;0</title>
<path fill="none" stroke="red" stroke-width="0.37" d="M763.61,-71.29C760.79,-70.3 757.82,-69.32 755,-68.53 676.87,-46.6 651.81,-61.47 576,-32.53 574.76,-32.05 573.51,-31.53 572.27,-30.96"/>
<polygon fill="red" stroke="red" stroke-width="0.37" points="573.54,-27.67 563.07,-26.07 570.26,-33.85 573.54,-27.67"/>
</g>
<!-- &#45;7&#45;&gt;1 -->
<g id="edge98" class="edge">
<title>&#45;7&#45;&gt;1</title>
<path fill="none" stroke="green" stroke-width="0.1" d="M763.66,-71.1C760.84,-70.11 757.85,-69.19 755,-68.53 610.43,-34.92 563.91,-79.13 423,-32.53 421.74,-32.11 420.48,-31.63 419.22,-31.1"/>
<polygon fill="green" stroke="green" stroke-width="0.1" points="420.47,-27.8 409.98,-26.33 417.26,-34.02 420.47,-27.8"/>
</g>
<!-- &#45;7&#45;&gt;2 -->
<g id="edge66" class="edge">
<title>&#45;7&#45;&gt;2</title>
<path fill="none" stroke="green" stroke-width="0.28" d="M763.99,-71.73C761.04,-70.66 757.92,-69.54 755,-68.53 709.77,-52.78 656.72,-35.35 626.17,-25.41"/>
<polygon fill="green" stroke="green" stroke-width="0.28" points="626.94,-21.98 616.35,-22.22 624.78,-28.64 626.94,-21.98"/>
</g>
<!-- &#45;7&#45;&gt;3 -->
<g id="edge36" class="edge">
<title>&#45;7&#45;&gt;3</title>
<path fill="none" stroke="green" stroke-width="0.13" d="M763.65,-71.14C760.83,-70.15 757.84,-69.22 755,-68.53 632.64,-38.83 593.15,-73.22 474,-32.53 472.75,-32.1 471.49,-31.61 470.23,-31.07"/>
<polygon fill="green" stroke="green" stroke-width="0.13" points="471.48,-27.77 461,-26.27 468.26,-33.99 471.48,-27.77"/>
</g>
<!-- &#45;7&#45;&gt;4 -->
<g id="edge48" class="edge">
<title>&#45;7&#45;&gt;4</title>
<path fill="none" stroke="red" stroke-width="0.3" d="M763.63,-71.2C760.81,-70.21 757.83,-69.26 755,-68.53 654.8,-42.73 622.44,-67.33 525,-32.53 523.75,-32.08 522.5,-31.57 521.25,-31.02"/>
<polygon fill="red" stroke="red" stroke-width="0.3" points="522.51,-27.73 512.02,-26.2 519.26,-33.93 522.51,-27.73"/>
</g>
<!-- &#45;8 -->
<g id="node8" class="node">
<title>&#45;8</title>
<polygon fill="lightgray" stroke="black" points="834,-86.53 808,-86.53 808,-68.53 834,-68.53 834,-86.53"/>
<text text-anchor="middle" x="821" y="-75.33" font-family="Times,serif" font-size="9.00">&#45;8</text>
</g>
<!-- &#45;8&#45;&gt;0 -->
<g id="edge76" class="edge">
<title>&#45;8&#45;&gt;0</title>
<path fill="none" stroke="red" stroke-width="0.22" d="M807.63,-71.21C804.81,-70.22 801.83,-69.26 799,-68.53 701.84,-43.26 670.46,-66.52 576,-32.53 574.75,-32.08 573.5,-31.57 572.25,-31.02"/>
<polygon fill="red" stroke="red" stroke-width="0.22" points="573.51,-27.72 563.03,-26.18 570.26,-33.92 573.51,-27.72"/>
</g>
<!-- &#45;8&#45;&gt;1 -->
<g id="edge29" class="edge">
<title>&#45;8&#45;&gt;1</title>
<path fill="none" stroke="red" stroke-width="0.53" d="M807.67,-71.07C804.84,-70.09 801.85,-69.17 799,-68.53 635.25,-31.55 582.71,-84.24 423,-32.53 421.74,-32.12 420.47,-31.64 419.22,-31.11"/>
<polygon fill="red" stroke="red" stroke-width="0.53" points="420.46,-27.82 409.97,-26.36 417.26,-34.05 420.46,-27.82"/>
</g>
<!-- &#45;8&#45;&gt;2 -->
<g id="edge35" class="edge">
<title>&#45;8&#45;&gt;2</title>
<path fill="none" stroke="green" stroke-width="0.21" d="M807.57,-71.41C804.76,-70.41 801.79,-69.39 799,-68.53 738.04,-49.6 665.07,-31.98 627.01,-23.16"/>
<polygon fill="green" stroke="green" stroke-width="0.21" points="627.33,-19.64 616.8,-20.81 625.76,-26.47 627.33,-19.64"/>
</g>
<!-- &#45;8&#45;&gt;3 -->
<g id="edge65" class="edge">
<title>&#45;8&#45;&gt;3</title>
<path fill="none" stroke="green" stroke-width="0.29" d="M807.66,-71.1C804.84,-70.12 801.85,-69.19 799,-68.53 657.48,-35.46 611.92,-78.32 474,-32.53 472.74,-32.11 471.48,-31.63 470.22,-31.09"/>
<polygon fill="green" stroke="green" stroke-width="0.29" points="471.47,-27.8 460.98,-26.32 468.26,-34.02 471.47,-27.8"/>
</g>
<!-- &#45;8&#45;&gt;4 -->
<g id="edge78" class="edge">
<title>&#45;8&#45;&gt;4</title>
<path fill="none" stroke="green" stroke-width="0.12" d="M807.65,-71.15C804.83,-70.16 801.84,-69.22 799,-68.53 679.69,-39.37 641.17,-72.41 525,-32.53 523.75,-32.1 522.49,-31.6 521.24,-31.06"/>
<polygon fill="green" stroke="green" stroke-width="0.12" points="522.49,-27.77 512,-26.26 519.26,-33.98 522.49,-27.77"/>
</g>
<!-- &#45;9 -->
<g id="node9" class="node">
<title>&#45;9</title>
<polygon fill="lightgray" stroke="black" points="878,-86.53 852,-86.53 852,-68.53 878,-68.53 878,-86.53"/>
<text text-anchor="middle" x="865" y="-75.33" font-family="Times,serif" font-size="9.00">&#45;9</text>
</g>
<!-- &#45;9&#45;&gt;0 -->
<g id="edge90" class="edge">
<title>&#45;9&#45;&gt;0</title>
<path fill="none" stroke="red" stroke-width="0.36" d="M851.65,-71.15C848.82,-70.17 845.84,-69.23 843,-68.53 726.73,-39.9 689.18,-71.6 576,-32.53 574.75,-32.09 573.49,-31.6 572.24,-31.06"/>
<polygon fill="red" stroke="red" stroke-width="0.36" points="573.49,-27.76 563,-26.25 570.26,-33.97 573.49,-27.76"/>
</g>
<!-- &#45;9&#45;&gt;1 -->
<g id="edge62" class="edge">
<title>&#45;9&#45;&gt;1</title>
<path fill="none" stroke="red" stroke-width="0.15" d="M851.67,-71.05C848.85,-70.07 845.86,-69.16 843,-68.53 660.05,-28.16 601.52,-89.35 423,-32.53 421.74,-32.13 420.47,-31.65 419.21,-31.13"/>
<polygon fill="red" stroke="red" stroke-width="0.15" points="420.45,-27.83 409.96,-26.39 417.26,-34.06 420.45,-27.83"/>
</g>
<!-- &#45;9&#45;&gt;2 -->
<g id="edge51" class="edge">
<title>&#45;9&#45;&gt;2</title>
<path fill="none" stroke="green" stroke-width="0.14" d="M851.6,-71.32C848.78,-70.32 845.81,-69.33 843,-68.53 765.57,-46.37 671.71,-29.16 627.05,-21.55"/>
<polygon fill="green" stroke="green" stroke-width="0.14" points="627.49,-18.07 617.05,-19.86 626.33,-24.97 627.49,-18.07"/>
</g>
<!-- &#45;9&#45;&gt;3 -->
<g id="edge21" class="edge">
<title>&#45;9&#45;&gt;3</title>
<path fill="none" stroke="green" stroke-width="0.15" stroke-dasharray="1,5" d="M851.66,-71.07C848.84,-70.09 845.85,-69.17 843,-68.53 682.3,-32.08 630.72,-83.43 474,-32.53 472.74,-32.12 471.47,-31.64 470.22,-31.11"/>
<polygon fill="green" stroke="green" stroke-width="0.15" points="471.46,-27.82 460.97,-26.36 468.26,-34.04 471.46,-27.82"/>
</g>
<!-- &#45;9&#45;&gt;4 -->
<g id="edge69" class="edge">
<title>&#45;9&#45;&gt;4</title>
<path fill="none" stroke="green" stroke-width="0.46" d="M851.66,-71.11C848.84,-70.12 845.85,-69.2 843,-68.53 704.53,-36 659.94,-77.51 525,-32.53 523.74,-32.11 522.48,-31.62 521.23,-31.09"/>
<polygon fill="green" stroke="green" stroke-width="0.46" points="522.47,-27.79 511.98,-26.31 519.26,-34.01 522.47,-27.79"/>
</g>
<!-- &#45;10 -->
<g id="node10" class="node">
<title>&#45;10</title>
<polygon fill="lightgray" stroke="black" points="928,-86.53 896,-86.53 896,-68.53 928,-68.53 928,-86.53"/>
<text text-anchor="middle" x="912" y="-75.33" font-family="Times,serif" font-size="9.00">&#45;10</text>
</g>
<!-- &#45;10&#45;&gt;0 -->
<g id="edge37" class="edge">
<title>&#45;10&#45;&gt;0</title>
<path fill="none" stroke="red" stroke-width="0.15" d="M895.99,-70.9C893.03,-70 889.94,-69.16 887,-68.53 750.98,-39.18 707.95,-76.7 576,-32.53 574.74,-32.11 573.48,-31.62 572.23,-31.08"/>
<polygon fill="red" stroke="red" stroke-width="0.15" points="573.47,-27.79 562.98,-26.31 570.26,-34.01 573.47,-27.79"/>
</g>
<!-- &#45;10&#45;&gt;1 -->
<g id="edge67" class="edge">
<title>&#45;10&#45;&gt;1</title>
<path fill="none" stroke="green" stroke-width="0.24" d="M895.74,-70.72C892.86,-69.87 889.86,-69.09 887,-68.53 684.02,-28.74 620.35,-94.47 423,-32.53 421.74,-32.13 420.47,-31.66 419.21,-31.14"/>
<polygon fill="green" stroke="green" stroke-width="0.24" points="420.45,-27.84 409.95,-26.41 417.26,-34.08 420.45,-27.84"/>
</g>
<!-- &#45;10&#45;&gt;2 -->
<g id="edge77" class="edge">
<title>&#45;10&#45;&gt;2</title>
<path fill="none" stroke="green" stroke-width="0.17" d="M895.95,-71.05C892.99,-70.14 889.92,-69.25 887,-68.53 792.36,-45.01 677.57,-27.78 627.02,-20.75"/>
<polygon fill="green" stroke="green" stroke-width="0.17" points="627.35,-17.26 616.97,-19.37 626.4,-24.2 627.35,-17.26"/>
</g>
<!-- &#45;10&#45;&gt;3 -->
<g id="edge9" class="edge">
<title>&#45;10&#45;&gt;3</title>
<path fill="none" stroke="red" stroke-width="0.13" d="M895.73,-70.75C892.85,-69.89 889.86,-69.1 887,-68.53 706.36,-32.22 649.53,-88.54 474,-32.53 472.74,-32.12 471.47,-31.65 470.21,-31.13"/>
<polygon fill="red" stroke="red" stroke-width="0.13" points="471.45,-27.83 460.96,-26.39 468.26,-34.06 471.45,-27.83"/>
</g>
<!-- &#45;10&#45;&gt;4 -->
<g id="edge58" class="edge">
<title>&#45;10&#45;&gt;4</title>
<path fill="none" stroke="red" stroke-width="0.27" d="M896,-70.86C893.03,-69.96 889.95,-69.14 887,-68.53 728.68,-35.71 678.73,-82.62 525,-32.53 523.74,-32.12 522.48,-31.64 521.22,-31.11"/>
<polygon fill="red" stroke="red" stroke-width="0.27" points="522.46,-27.81 511.97,-26.35 519.26,-34.04 522.46,-27.81"/>
</g>
<!-- &#45;11 -->
<g id="node11" class="node">
<title>&#45;11</title>
<polygon fill="lightgray" stroke="black" points="76,-86.53 44,-86.53 44,-68.53 76,-68.53 76,-86.53"/>
<text text-anchor="middle" x="60" y="-75.33" font-family="Times,serif" font-size="9.00">&#45;11</text>
</g>
<!-- &#45;11&#45;&gt;0 -->
<g id="edge79" class="edge">
<title>&#45;11&#45;&gt;0</title>
<path fill="none" stroke="red" stroke-width="0.17" d="M76.27,-70.73C79.15,-69.88 82.14,-69.09 85,-68.53 277.03,-30.45 337.35,-91.56 524,-32.53 525.26,-32.13 526.53,-31.66 527.79,-31.14"/>
<polygon fill="red" stroke="red" stroke-width="0.17" points="529.74,-34.07 537.05,-26.4 526.55,-27.84 529.74,-34.07"/>
</g>
<!-- &#45;11&#45;&gt;1 -->
<g id="edge49" class="edge">
<title>&#45;11&#45;&gt;1</title>
<path fill="none" stroke="red" stroke-width="0.19" d="M76.04,-71.01C79,-70.1 82.08,-69.23 85,-68.53 189.6,-43.34 316.92,-26.67 370.85,-20.24"/>
<polygon fill="red" stroke="red" stroke-width="0.19" points="371.4,-23.7 380.92,-19.06 370.58,-16.75 371.4,-23.7"/>
</g>
<!-- &#45;11&#45;&gt;2 -->
<g id="edge18" class="edge">
<title>&#45;11&#45;&gt;2</title>
<path fill="none" stroke="green" stroke-width="0.35" d="M76.26,-70.71C79.14,-69.86 82.14,-69.08 85,-68.53 299.37,-26.96 366.52,-97.49 575,-32.53 576.26,-32.13 577.53,-31.67 578.79,-31.15"/>
<polygon fill="green" stroke="green" stroke-width="0.35" points="580.74,-34.09 588.05,-26.43 577.56,-27.85 580.74,-34.09"/>
</g>
<!-- &#45;11&#45;&gt;3 -->
<g id="edge89" class="edge">
<title>&#45;11&#45;&gt;3</title>
<path fill="none" stroke="red" stroke-width="0.27" d="M76.01,-70.87C78.97,-69.98 82.06,-69.15 85,-68.53 232.38,-37.41 278.95,-79.71 422,-32.53 423.26,-32.11 424.52,-31.63 425.78,-31.1"/>
<polygon fill="red" stroke="red" stroke-width="0.27" points="427.74,-34.02 435.02,-26.33 424.53,-27.8 427.74,-34.02"/>
</g>
<!-- &#45;11&#45;&gt;4 -->
<g id="edge59" class="edge">
<title>&#45;11&#45;&gt;4</title>
<path fill="none" stroke="red" stroke-width="0.14" d="M76,-70.84C78.96,-69.95 82.05,-69.13 85,-68.53 254.69,-33.93 308.16,-85.64 473,-32.53 474.26,-32.12 475.53,-31.65 476.78,-31.12"/>
<polygon fill="red" stroke="red" stroke-width="0.14" points="478.74,-34.05 486.04,-26.37 475.54,-27.82 478.74,-34.05"/>
</g>
<!-- &#45;12 -->
<g id="node12" class="node">
<title>&#45;12</title>
<polygon fill="lightgray" stroke="black" points="126,-86.53 94,-86.53 94,-68.53 126,-68.53 126,-86.53"/>
<text text-anchor="middle" x="110" y="-75.33" font-family="Times,serif" font-size="9.00">&#45;12</text>
</g>
<!-- &#45;12&#45;&gt;0 -->
<g id="edge28" class="edge">
<title>&#45;12&#45;&gt;0</title>
<path fill="none" stroke="red" stroke-width="0.34" d="M126,-70.84C128.96,-69.95 132.05,-69.13 135,-68.53 305.13,-33.86 358.73,-85.75 524,-32.53 525.26,-32.12 526.53,-31.65 527.78,-31.12"/>
<polygon fill="red" stroke="red" stroke-width="0.34" points="529.74,-34.05 537.04,-26.37 526.54,-27.82 529.74,-34.05"/>
</g>
<!-- &#45;12&#45;&gt;1 -->
<g id="edge57" class="edge">
<title>&#45;12&#45;&gt;1</title>
<path fill="none" stroke="green" stroke-width="0.33" d="M126.06,-71.08C129.01,-70.17 132.09,-69.28 135,-68.53 220.38,-46.59 323.5,-28.96 370.88,-21.34"/>
<polygon fill="green" stroke="green" stroke-width="0.33" points="371.58,-24.77 380.91,-19.74 370.48,-17.86 371.58,-24.77"/>
</g>
<!-- &#45;12&#45;&gt;2 -->
<g id="edge87" class="edge">
<title>&#45;12&#45;&gt;2</title>
<path fill="none" stroke="green" stroke-width="0.16" d="M126.27,-70.73C129.15,-69.88 132.14,-69.09 135,-68.53 327.46,-30.38 387.92,-91.68 575,-32.53 576.26,-32.13 577.53,-31.66 578.79,-31.14"/>
<polygon fill="green" stroke="green" stroke-width="0.16" points="580.74,-34.07 588.05,-26.4 577.55,-27.84 580.74,-34.07"/>
</g>
<!-- &#45;12&#45;&gt;3 -->
<g id="edge17" class="edge">
<title>&#45;12&#45;&gt;3</title>
<path fill="none" stroke="green" stroke-width="0.25" d="M126.02,-70.92C128.98,-70.02 132.06,-69.18 135,-68.53 260.53,-40.82 300.29,-73.92 422,-32.53 423.25,-32.1 424.51,-31.61 425.77,-31.07"/>
<polygon fill="green" stroke="green" stroke-width="0.25" points="427.74,-33.99 435.01,-26.28 424.52,-27.78 427.74,-33.99"/>
</g>
<!-- &#45;12&#45;&gt;4 -->
<g id="edge7" class="edge">
<title>&#45;12&#45;&gt;4</title>
<path fill="none" stroke="green" stroke-width="0.48" d="M126.01,-70.87C128.97,-69.98 132.06,-69.15 135,-68.53 282.82,-37.34 329.53,-79.83 473,-32.53 474.26,-32.11 475.52,-31.63 476.78,-31.1"/>
<polygon fill="green" stroke="green" stroke-width="0.48" points="478.74,-34.03 486.02,-26.33 475.53,-27.8 478.74,-34.03"/>
</g>
<!-- &#45;13 -->
<g id="node13" class="node">
<title>&#45;13</title>
<polygon fill="lightgray" stroke="black" points="176,-86.53 144,-86.53 144,-68.53 176,-68.53 176,-86.53"/>
<text text-anchor="middle" x="160" y="-75.33" font-family="Times,serif" font-size="9.00">&#45;13</text>
</g>
<!-- &#45;13&#45;&gt;0 -->
<g id="edge75" class="edge">
<title>&#45;13&#45;&gt;0</title>
<path fill="none" stroke="green" stroke-width="0.27" d="M176.01,-70.87C178.97,-69.98 182.06,-69.15 185,-68.53 333.26,-37.28 380.1,-79.95 524,-32.53 525.26,-32.11 526.52,-31.63 527.78,-31.1"/>
<polygon fill="green" stroke="green" stroke-width="0.27" points="529.74,-34.03 537.02,-26.33 526.53,-27.8 529.74,-34.03"/>
</g>
<!-- &#45;13&#45;&gt;1 -->
<g id="edge45" class="edge">
<title>&#45;13&#45;&gt;1</title>
<path fill="none" stroke="green" stroke-width="0.28" d="M176.09,-71.19C179.04,-70.26 182.1,-69.34 185,-68.53 251.63,-49.84 331.16,-31.71 371.22,-22.86"/>
<polygon fill="green" stroke="green" stroke-width="0.28" points="372.19,-26.23 381.21,-20.67 370.69,-19.4 372.19,-26.23"/>
</g>
<!-- &#45;13&#45;&gt;2 -->
<g id="edge34" class="edge">
<title>&#45;13&#45;&gt;2</title>
<path fill="none" stroke="red" stroke-width="0.38" d="M176,-70.84C178.96,-69.95 182.05,-69.13 185,-68.53 355.57,-33.8 409.3,-85.87 575,-32.53 576.26,-32.12 577.53,-31.65 578.78,-31.12"/>
<polygon fill="red" stroke="red" stroke-width="0.38" points="580.74,-34.05 588.04,-26.37 577.54,-27.82 580.74,-34.05"/>
</g>
<!-- &#45;13&#45;&gt;3 -->
<g id="edge5" class="edge">
<title>&#45;13&#45;&gt;3</title>
<path fill="none" stroke="green" stroke-width="0.2" d="M176.03,-70.98C178.99,-70.08 182.07,-69.21 185,-68.53 288.73,-44.21 321.59,-68.14 422,-32.53 423.25,-32.08 424.5,-31.58 425.75,-31.03"/>
<polygon fill="green" stroke="green" stroke-width="0.2" points="427.74,-33.94 434.98,-26.21 424.5,-27.74 427.74,-33.94"/>
</g>
<!-- &#45;13&#45;&gt;4 -->
<g id="edge95" class="edge">
<title>&#45;13&#45;&gt;4</title>
<path fill="none" stroke="green" stroke-width="0.41" d="M176.02,-70.92C178.98,-70.02 182.06,-69.17 185,-68.53 310.97,-40.75 350.86,-74.03 473,-32.53 474.25,-32.1 475.52,-31.61 476.77,-31.07"/>
<polygon fill="green" stroke="green" stroke-width="0.41" points="478.74,-33.99 486.01,-26.28 475.52,-27.78 478.74,-33.99"/>
</g>
<!-- &#45;14 -->
<g id="node14" class="node">
<title>&#45;14</title>
<polygon fill="lightgray" stroke="black" points="226,-86.53 194,-86.53 194,-68.53 226,-68.53 226,-86.53"/>
<text text-anchor="middle" x="210" y="-75.33" font-family="Times,serif" font-size="9.00">&#45;14</text>
</g>
<!-- &#45;14&#45;&gt;0 -->
<g id="edge16" class="edge">
<title>&#45;14&#45;&gt;0</title>
<path fill="none" stroke="green" stroke-width="0.3" d="M226.02,-70.92C228.98,-70.02 232.06,-69.17 235,-68.53 361.41,-40.68 401.44,-74.15 524,-32.53 525.25,-32.1 526.52,-31.61 527.77,-31.07"/>
<polygon fill="green" stroke="green" stroke-width="0.3" points="529.74,-33.99 537.01,-26.28 526.52,-27.78 529.74,-33.99"/>
</g>
<!-- &#45;14&#45;&gt;1 -->
<g id="edge47" class="edge">
<title>&#45;14&#45;&gt;1</title>
<path fill="none" stroke="red" stroke-width="0.24" d="M226.14,-71.36C229.08,-70.41 232.13,-69.44 235,-68.53 283.24,-53.18 339.6,-35.37 371.52,-25.3"/>
<polygon fill="red" stroke="red" stroke-width="0.24" points="372.87,-28.54 381.36,-22.2 370.77,-21.87 372.87,-28.54"/>
</g>
<!-- &#45;14&#45;&gt;2 -->
<g id="edge55" class="edge">
<title>&#45;14&#45;&gt;2</title>
<path fill="none" stroke="red" stroke-width="0.12" d="M226.01,-70.87C228.97,-69.98 232.06,-69.15 235,-68.53 383.69,-37.21 430.67,-80.06 575,-32.53 576.26,-32.11 577.52,-31.63 578.78,-31.1"/>
<polygon fill="red" stroke="red" stroke-width="0.12" points="580.74,-34.03 588.03,-26.33 577.53,-27.8 580.74,-34.03"/>
</g>
<!-- &#45;14&#45;&gt;3 -->
<g id="edge85" class="edge">
<title>&#45;14&#45;&gt;3</title>
<path fill="none" stroke="green" stroke-width="0.17" d="M226.06,-71.08C229.01,-70.16 232.09,-69.27 235,-68.53 317.01,-47.59 342.8,-62.38 422,-32.53 423.24,-32.06 424.49,-31.54 425.73,-30.97"/>
<polygon fill="green" stroke="green" stroke-width="0.17" points="427.74,-33.87 434.94,-26.1 424.47,-27.68 427.74,-33.87"/>
</g>
<!-- &#45;14&#45;&gt;4 -->
<g id="edge96" class="edge">
<title>&#45;14&#45;&gt;4</title>
<path fill="none" stroke="red" stroke-width="0.12" d="M226.03,-70.98C228.99,-70.08 232.07,-69.21 235,-68.53 339.17,-44.15 372.16,-68.25 473,-32.53 474.25,-32.08 475.5,-31.58 476.75,-31.03"/>
<polygon fill="red" stroke="red" stroke-width="0.12" points="478.74,-33.94 485.98,-26.21 475.5,-27.74 478.74,-33.94"/>
</g>
<!-- &#45;15 -->
<g id="node15" class="node">
<title>&#45;15</title>
<polygon fill="lightgray" stroke="black" points="276,-86.53 244,-86.53 244,-68.53 276,-68.53 276,-86.53"/>
<text text-anchor="middle" x="260" y="-75.33" font-family="Times,serif" font-size="9.00">&#45;15</text>
</g>
<!-- &#45;15&#45;&gt;0 -->
<g id="edge64" class="edge">
<title>&#45;15&#45;&gt;0</title>
<path fill="none" stroke="green" stroke-width="0.44" d="M276.03,-70.98C278.99,-70.07 282.07,-69.21 285,-68.53 389.6,-44.08 422.74,-68.37 524,-32.53 525.25,-32.08 526.51,-31.58 527.75,-31.03"/>
<polygon fill="green" stroke="green" stroke-width="0.44" points="529.74,-33.94 536.98,-26.21 526.5,-27.74 529.74,-33.94"/>
</g>
<!-- &#45;15&#45;&gt;1 -->
<g id="edge33" class="edge">
<title>&#45;15&#45;&gt;1</title>
<path fill="none" stroke="red" stroke-width="0.25" d="M276.25,-69.5C300.24,-59.12 345.28,-39.64 373.05,-27.62"/>
<polygon fill="red" stroke="red" stroke-width="0.25" points="374.64,-30.75 382.43,-23.57 371.86,-24.32 374.64,-30.75"/>
</g>
<!-- &#45;15&#45;&gt;2 -->
<g id="edge3" class="edge">
<title>&#45;15&#45;&gt;2</title>
<path fill="none" stroke="red" stroke-width="0.15" d="M276.02,-70.92C278.98,-70.02 282.06,-69.17 285,-68.53 411.84,-40.61 452.01,-74.27 575,-32.53 576.25,-32.1 577.52,-31.61 578.77,-31.07"/>
<polygon fill="red" stroke="red" stroke-width="0.15" points="580.74,-33.99 588.01,-26.28 577.52,-27.78 580.74,-33.99"/>
</g>
<!-- &#45;15&#45;&gt;3 -->
<g id="edge73" class="edge">
<title>&#45;15&#45;&gt;3</title>
<path fill="none" stroke="green" stroke-width="0.13" d="M276.1,-71.24C279.05,-70.31 282.11,-69.37 285,-68.53 345.45,-50.93 363.87,-56.69 422,-32.53 423.22,-32.02 424.46,-31.46 425.69,-30.87"/>
<polygon fill="green" stroke="green" stroke-width="0.13" points="427.73,-33.75 434.87,-25.91 424.41,-27.59 427.73,-33.75"/>
</g>
<!-- &#45;15&#45;&gt;4 -->
<g id="edge83" class="edge">
<title>&#45;15&#45;&gt;4</title>
<path fill="none" stroke="red" stroke-width="0.38" d="M276.06,-71.07C279.01,-70.16 282.09,-69.27 285,-68.53 367.44,-47.52 393.38,-62.5 473,-32.53 474.24,-32.06 475.49,-31.54 476.73,-30.97"/>
<polygon fill="red" stroke="red" stroke-width="0.38" points="478.74,-33.87 485.94,-26.1 475.47,-27.68 478.74,-33.87"/>
</g>
<!-- &#45;16 -->
<g id="node16" class="node">
<title>&#45;16</title>
<polygon fill="lightgray" stroke="black" points="326,-86.53 294,-86.53 294,-68.53 326,-68.53 326,-86.53"/>
<text text-anchor="middle" x="310" y="-75.33" font-family="Times,serif" font-size="9.00">&#45;16</text>
</g>
<!-- &#45;16&#45;&gt;0 -->
<g id="edge11" class="edge">
<title>&#45;16&#45;&gt;0</title>
<path fill="none" stroke="green" stroke-width="0.11" d="M326.05,-71.07C329.01,-70.16 332.09,-69.27 335,-68.53 417.87,-47.46 443.96,-62.61 524,-32.53 525.24,-32.06 526.49,-31.54 527.73,-30.97"/>
<polygon fill="green" stroke="green" stroke-width="0.11" points="529.74,-33.87 536.94,-26.1 526.47,-27.68 529.74,-33.87"/>
</g>
<!-- &#45;16&#45;&gt;1 -->
<g id="edge41" class="edge">
<title>&#45;16&#45;&gt;1</title>
<path fill="none" stroke="red" stroke-width="0.43" d="M322.1,-68.29C335.81,-58.95 358.43,-43.54 375.23,-32.09"/>
<polygon fill="red" stroke="red" stroke-width="0.43" points="377.57,-34.73 383.87,-26.21 373.63,-28.95 377.57,-34.73"/>
</g>
<!-- &#45;16&#45;&gt;2 -->
<g id="edge72" class="edge">
<title>&#45;16&#45;&gt;2</title>
<path fill="none" stroke="green" stroke-width="0.27" d="M326.03,-70.98C328.99,-70.07 332.07,-69.21 335,-68.53 440.04,-44.01 473.31,-68.48 575,-32.53 576.25,-32.09 577.51,-31.58 578.76,-31.03"/>
<polygon fill="green" stroke="green" stroke-width="0.27" points="580.74,-33.94 587.98,-26.21 577.5,-27.74 580.74,-33.94"/>
</g>
<!-- &#45;16&#45;&gt;3 -->
<g id="edge2" class="edge">
<title>&#45;16&#45;&gt;3</title>
<path fill="none" stroke="green" stroke-width="0.29" d="M326.29,-71.03C348.4,-63.37 388.93,-48.61 422,-32.53 423.17,-31.96 424.35,-31.36 425.53,-30.74"/>
<polygon fill="green" stroke="green" stroke-width="0.29" points="427.43,-33.69 434.46,-25.75 424.02,-27.58 427.43,-33.69"/>
</g>
<!-- &#45;16&#45;&gt;4 -->
<g id="edge32" class="edge">
<title>&#45;16&#45;&gt;4</title>
<path fill="none" stroke="red" stroke-width="0.34" d="M326.1,-71.23C329.05,-70.3 332.11,-69.37 335,-68.53 395.87,-50.86 414.45,-56.8 473,-32.53 474.22,-32.02 475.46,-31.46 476.69,-30.87"/>
<polygon fill="red" stroke="red" stroke-width="0.34" points="478.73,-33.75 485.87,-25.92 475.41,-27.59 478.73,-33.75"/>
</g>
<!-- &#45;17 -->
<g id="node17" class="node">
<title>&#45;17</title>
<polygon fill="lightgray" stroke="black" points="376,-86.53 344,-86.53 344,-68.53 376,-68.53 376,-86.53"/>
<text text-anchor="middle" x="360" y="-75.33" font-family="Times,serif" font-size="9.00">&#45;17</text>
</g>
<!-- &#45;17&#45;&gt;0 -->
<g id="edge27" class="edge">
<title>&#45;17&#45;&gt;0</title>
<path fill="none" stroke="red" stroke-width="0.74" d="M376.1,-71.23C379.05,-70.3 382.11,-69.36 385,-68.53 446.3,-50.8 465.03,-56.92 524,-32.53 525.22,-32.02 526.46,-31.47 527.69,-30.88"/>
<polygon fill="red" stroke="red" stroke-width="0.74" points="529.73,-33.75 536.87,-25.92 526.41,-27.59 529.73,-33.75"/>
</g>
<!-- &#45;17&#45;&gt;1 -->
<g id="edge97" class="edge">
<title>&#45;17&#45;&gt;1</title>
<path fill="none" stroke="green" stroke-width="0.46" d="M365.14,-68.29C369.87,-60.71 377.1,-49.14 383.47,-38.93"/>
<polygon fill="green" stroke="green" stroke-width="0.46" points="386.44,-40.78 388.77,-30.44 380.51,-37.07 386.44,-40.78"/>
</g>
<!-- &#45;17&#45;&gt;2 -->
<g id="edge86" class="edge">
<title>&#45;17&#45;&gt;2</title>
<path fill="none" stroke="green" stroke-width="0.22" d="M376.05,-71.07C379.01,-70.16 382.08,-69.27 385,-68.53 468.31,-47.39 494.53,-62.73 575,-32.53 576.24,-32.06 577.49,-31.54 578.73,-30.97"/>
<polygon fill="green" stroke="green" stroke-width="0.22" points="580.74,-33.87 587.94,-26.11 577.47,-27.69 580.74,-33.87"/>
</g>
<!-- &#45;17&#45;&gt;3 -->
<g id="edge56" class="edge">
<title>&#45;17&#45;&gt;3</title>
<path fill="none" stroke="green" stroke-width="0.48" d="M372.24,-68.29C386.1,-58.95 408.98,-43.54 425.98,-32.09"/>
<polygon fill="green" stroke="green" stroke-width="0.48" points="428.38,-34.7 434.72,-26.21 424.47,-28.89 428.38,-34.7"/>
</g>
<!-- &#45;17&#45;&gt;4 -->
<g id="edge6" class="edge">
<title>&#45;17&#45;&gt;4</title>
<path fill="none" stroke="red" stroke-width="0.4" d="M376.06,-71.18C398.28,-63.59 439.46,-48.77 473,-32.53 474.17,-31.96 475.35,-31.36 476.54,-30.74"/>
<polygon fill="red" stroke="red" stroke-width="0.4" points="478.44,-33.69 485.46,-25.76 475.02,-27.58 478.44,-33.69"/>
</g>
<!-- &#45;18 -->
<g id="node18" class="node">
<title>&#45;18</title>
<polygon fill="lightgray" stroke="black" points="426,-86.53 394,-86.53 394,-68.53 426,-68.53 426,-86.53"/>
<text text-anchor="middle" x="410" y="-75.33" font-family="Times,serif" font-size="9.00">&#45;18</text>
</g>
<!-- &#45;18&#45;&gt;0 -->
<g id="edge74" class="edge">
<title>&#45;18&#45;&gt;0</title>
<path fill="none" stroke="green" stroke-width="0.17" d="M426.21,-71.2C448.63,-63.63 490.18,-48.85 524,-32.53 525.17,-31.96 526.35,-31.37 527.54,-30.75"/>
<polygon fill="green" stroke="green" stroke-width="0.17" points="529.44,-33.7 536.46,-25.77 526.03,-27.58 529.44,-33.7"/>
</g>
<!-- &#45;18&#45;&gt;1 -->
<g id="edge4" class="edge">
<title>&#45;18&#45;&gt;1</title>
<path fill="none" stroke="red" stroke-width="0.23" d="M408.19,-68.29C406.71,-61.54 404.54,-51.62 402.5,-42.32"/>
<polygon fill="red" stroke="red" stroke-width="0.23" points="405.86,-41.3 400.3,-32.29 399.02,-42.8 405.86,-41.3"/>
</g>
<!-- &#45;18&#45;&gt;2 -->
<g id="edge12" class="edge">
<title>&#45;18&#45;&gt;2</title>
<path fill="none" stroke="red" stroke-width="0.1" d="M426.1,-71.22C429.05,-70.3 432.11,-69.36 435,-68.53 496.73,-50.73 515.61,-57.03 575,-32.53 576.22,-32.02 577.46,-31.47 578.7,-30.88"/>
<polygon fill="red" stroke="red" stroke-width="0.1" points="580.73,-33.76 587.87,-25.93 577.41,-27.59 580.73,-33.76"/>
</g>
<!-- &#45;18&#45;&gt;3 -->
<g id="edge44" class="edge">
<title>&#45;18&#45;&gt;3</title>
<path fill="none" stroke="green" stroke-width="0.16" d="M415.28,-68.29C420.14,-60.71 427.56,-49.14 434.11,-38.93"/>
<polygon fill="green" stroke="green" stroke-width="0.16" points="437.1,-40.75 439.55,-30.44 431.2,-36.97 437.1,-40.75"/>
</g>
<!-- &#45;18&#45;&gt;4 -->
<g id="edge93" class="edge">
<title>&#45;18&#45;&gt;4</title>
<path fill="none" stroke="green" stroke-width="0.35" d="M422.38,-68.29C436.61,-58.81 460.24,-43.07 477.5,-31.58"/>
<polygon fill="green" stroke="green" stroke-width="0.35" points="479.48,-34.47 485.86,-26.01 475.6,-28.64 479.48,-34.47"/>
</g>
<!-- &#45;19 -->
<g id="node19" class="node">
<title>&#45;19</title>
<polygon fill="lightgray" stroke="black" points="476,-86.53 444,-86.53 444,-68.53 476,-68.53 476,-86.53"/>
<text text-anchor="middle" x="460" y="-75.33" font-family="Times,serif" font-size="9.00">&#45;19</text>
</g>
<!-- &#45;19&#45;&gt;0 -->
<g id="edge15" class="edge">
<title>&#45;19&#45;&gt;0</title>
<path fill="none" stroke="red" stroke-width="0.12" d="M472.51,-68.29C486.91,-58.81 510.8,-43.07 528.26,-31.58"/>
<polygon fill="red" stroke="red" stroke-width="0.12" points="530.29,-34.43 536.71,-26.01 526.44,-28.59 530.29,-34.43"/>
</g>
<!-- &#45;19&#45;&gt;1 -->
<g id="edge84" class="edge">
<title>&#45;19&#45;&gt;1</title>
<path fill="none" stroke="red" stroke-width="0.4" d="M451.24,-68.29C442.23,-59.81 427.9,-46.33 416.24,-35.36"/>
<polygon fill="red" stroke="red" stroke-width="0.4" points="418.37,-32.56 408.68,-28.25 413.57,-37.66 418.37,-32.56"/>
</g>
<!-- &#45;19&#45;&gt;2 -->
<g id="edge54" class="edge">
<title>&#45;19&#45;&gt;2</title>
<path fill="none" stroke="green" stroke-width="0.22" d="M476.35,-71.23C498.98,-63.68 540.9,-48.92 575,-32.53 576.17,-31.97 577.35,-31.37 578.54,-30.75"/>
<polygon fill="green" stroke="green" stroke-width="0.22" points="580.44,-33.7 587.47,-25.78 577.03,-27.59 580.44,-33.7"/>
</g>
<!-- &#45;19&#45;&gt;3 -->
<g id="edge26" class="edge">
<title>&#45;19&#45;&gt;3</title>
<path fill="none" stroke="red" stroke-width="0.17" d="M458.33,-68.29C456.97,-61.54 454.96,-51.62 453.07,-42.32"/>
<polygon fill="red" stroke="red" stroke-width="0.17" points="456.46,-41.39 451.04,-32.29 449.6,-42.78 456.46,-41.39"/>
</g>
<!-- &#45;19&#45;&gt;4 -->
<g id="edge94" class="edge">
<title>&#45;19&#45;&gt;4</title>
<path fill="none" stroke="red" stroke-width="0.14" d="M465.42,-68.29C470.41,-60.71 478.02,-49.14 484.74,-38.93"/>
<polygon fill="red" stroke="red" stroke-width="0.14" points="487.75,-40.72 490.33,-30.44 481.91,-36.87 487.75,-40.72"/>
</g>
<!-- &#45;20 -->
<g id="node20" class="node">
<title>&#45;20</title>
<polygon fill="lightgray" stroke="black" points="526,-86.53 494,-86.53 494,-68.53 526,-68.53 526,-86.53"/>
<text text-anchor="middle" x="510" y="-75.33" font-family="Times,serif" font-size="9.00">&#45;20</text>
</g>
<!-- &#45;20&#45;&gt;0 -->
<g id="edge63" class="edge">
<title>&#45;20&#45;&gt;0</title>
<path fill="none" stroke="green" stroke-width="0.17" d="M515.56,-68.29C520.68,-60.71 528.49,-49.14 535.38,-38.93"/>
<polygon fill="green" stroke="green" stroke-width="0.17" points="538.41,-40.69 541.1,-30.44 532.61,-36.77 538.41,-40.69"/>
</g>
<!-- &#45;20&#45;&gt;1 -->
<g id="edge92" class="edge">
<title>&#45;20&#45;&gt;1</title>
<path fill="none" stroke="red" stroke-width="0.14" d="M493.81,-68.72C476.22,-60.14 447.37,-45.82 423,-32.53 421.86,-31.91 420.7,-31.26 419.53,-30.61"/>
<polygon fill="red" stroke="red" stroke-width="0.14" points="421.08,-27.46 410.67,-25.51 417.59,-33.53 421.08,-27.46"/>
</g>
<!-- &#45;20&#45;&gt;2 -->
<g id="edge25" class="edge">
<title>&#45;20&#45;&gt;2</title>
<path fill="none" stroke="red" stroke-width="0.23" d="M522.65,-68.29C537.21,-58.81 561.37,-43.07 579.02,-31.58"/>
<polygon fill="red" stroke="red" stroke-width="0.23" points="581.1,-34.4 587.57,-26.01 577.28,-28.54 581.1,-34.4"/>
</g>
<!-- &#45;20&#45;&gt;3 -->
<g id="edge53" class="edge">
<title>&#45;20&#45;&gt;3</title>
<path fill="none" stroke="green" stroke-width="0.38" d="M501.38,-68.29C492.51,-59.81 478.41,-46.33 466.93,-35.36"/>
<polygon fill="green" stroke="green" stroke-width="0.38" points="469.15,-32.63 459.5,-28.25 464.31,-37.69 469.15,-32.63"/>
</g>
<!-- &#45;20&#45;&gt;4 -->
<g id="edge42" class="edge">
<title>&#45;20&#45;&gt;4</title>
<path fill="none" stroke="green" stroke-width="0.39" d="M508.47,-68.29C507.24,-61.63 505.43,-51.89 503.72,-42.7"/>
<polygon fill="green" stroke="green" stroke-width="0.39" points="507.14,-41.95 501.88,-32.76 500.26,-43.23 507.14,-41.95"/>
</g>
</g>
</svg>
