<?xml version="1.0" encoding="UTF-8" standalone="no"?>
<!DOCTYPE svg PUBLIC "-//W3C//DTD SVG 1.1//EN"
 "http://www.w3.org/Graphics/SVG/1.1/DTD/svg11.dtd">
<!-- Generated by graphviz version 2.49.0 (20210828.1703)
 -->
<!-- Pages: 1 -->
<svg width="887pt" height="92pt"
 viewBox="0.00 0.00 886.50 91.70" xmlns="http://www.w3.org/2000/svg" xmlns:xlink="http://www.w3.org/1999/xlink">
<g id="graph0" class="graph" transform="scale(1 1) rotate(0) translate(4 87.7)">
<polygon fill="white" stroke="transparent" points="-4,4 -4,-87.7 882.5,-87.7 882.5,4 -4,4"/>
<!-- &#45;1 -->
<g id="node1" class="node">
<title>&#45;1</title>
<polygon fill="lightgray" stroke="black" points="24,-83.7 0,-83.7 0,-65.7 24,-65.7 24,-83.7"/>
<text text-anchor="middle" x="12" y="-72.5" font-family="Times New Roman,serif" font-size="9.00">&#45;1</text>
</g>
<!-- 0 -->
<g id="node21" class="node">
<title>0</title>
<ellipse fill="lightblue" stroke="black" cx="519" cy="-14.85" rx="14.7" ry="14.7"/>
<text text-anchor="middle" x="519" y="-12.65" font-family="Times New Roman,serif" font-size="9.00">0</text>
</g>
<!-- &#45;1&#45;&gt;0 -->
<g id="edge1" class="edge">
<title>&#45;1&#45;&gt;0</title>
<path fill="none" stroke="green" stroke-width="0.66" d="M24.26,-68.36C27.08,-67.32 30.11,-66.35 33,-65.7 233.95,-20.58 298.28,-90.67 495,-29.7 496.06,-29.37 497.12,-28.99 498.17,-28.57"/>
<polygon fill="green" stroke="green" stroke-width="0.66" points="499.91,-31.62 507.28,-24 496.77,-25.36 499.91,-31.62"/>
</g>
<!-- 1 -->
<g id="node22" class="node">
<title>1</title>
<ellipse fill="lightblue" stroke="black" cx="375" cy="-14.85" rx="14.7" ry="14.7"/>
<text text-anchor="middle" x="375" y="-12.65" font-family="Times New Roman,serif" font-size="9.00">1</text>
</g>
<!-- &#45;1&#45;&gt;1 -->
<g id="edge2" class="edge">
<title>&#45;1&#45;&gt;1</title>
<path fill="none" stroke="red" stroke-width="0.29" d="M24.29,-68.5C27.11,-67.45 30.13,-66.44 33,-65.7 149.23,-35.48 292.78,-22.04 349.87,-17.62"/>
<polygon fill="red" stroke="red" stroke-width="0.29" points="350.39,-21.09 360.1,-16.85 349.87,-14.11 350.39,-21.09"/>
</g>
<!-- 2 -->
<g id="node23" class="node">
<title>2</title>
<ellipse fill="lightblue" stroke="black" cx="423" cy="-14.85" rx="14.7" ry="14.7"/>
<text text-anchor="middle" x="423" y="-12.65" font-family="Times New Roman,serif" font-size="9.00">2</text>
</g>
<!-- &#45;1&#45;&gt;2 -->
<g id="edge3" class="edge">
<title>&#45;1&#45;&gt;2</title>
<path fill="none" stroke="green" stroke-width="0.62" d="M24.27,-68.4C27.09,-67.36 30.11,-66.38 33,-65.7 192.11,-28.27 243.37,-79.67 399,-29.7 400.05,-29.36 401.11,-28.97 402.16,-28.54"/>
<polygon fill="green" stroke="green" stroke-width="0.62" points="403.91,-31.58 411.26,-23.95 400.75,-25.33 403.91,-31.58"/>
</g>
<!-- 3 -->
<g id="node24" class="node">
<title>3</title>
<ellipse fill="lightblue" stroke="black" cx="471" cy="-14.85" rx="14.7" ry="14.7"/>
<text text-anchor="middle" x="471" y="-12.65" font-family="Times New Roman,serif" font-size="9.00">3</text>
</g>
<!-- &#45;1&#45;&gt;3 -->
<g id="edge4" class="edge">
<title>&#45;1&#45;&gt;3</title>
<path fill="none" stroke="green" stroke-width="0.49" d="M24.26,-68.38C27.08,-67.34 30.11,-66.36 33,-65.7 213.02,-24.43 270.83,-85.17 447,-29.7 448.06,-29.37 449.11,-28.98 450.17,-28.56"/>
<polygon fill="green" stroke="green" stroke-width="0.49" points="451.91,-31.6 459.27,-23.98 448.76,-25.35 451.91,-31.6"/>
</g>
<!-- &#45;2 -->
<g id="node2" class="node">
<title>&#45;2</title>
<polygon fill="lightgray" stroke="black" points="537,-83.7 513,-83.7 513,-65.7 537,-65.7 537,-83.7"/>
<text text-anchor="middle" x="525" y="-72.5" font-family="Times New Roman,serif" font-size="9.00">&#45;2</text>
</g>
<!-- &#45;2&#45;&gt;0 -->
<g id="edge5" class="edge">
<title>&#45;2&#45;&gt;0</title>
<path fill="none" stroke="red" stroke-width="0.33" d="M524.17,-65.65C523.48,-59.05 522.47,-49.33 521.53,-40.23"/>
<polygon fill="red" stroke="red" stroke-width="0.33" points="524.99,-39.64 520.47,-30.06 518.02,-40.36 524.99,-39.64"/>
</g>
<!-- &#45;2&#45;&gt;1 -->
<g id="edge6" class="edge">
<title>&#45;2&#45;&gt;1</title>
<path fill="none" stroke="green" stroke-width="0.1" d="M512.59,-68.89C509.77,-67.82 506.79,-66.71 504,-65.7 457.61,-48.91 443.91,-50.12 399,-29.7 398.16,-29.32 397.31,-28.91 396.45,-28.49"/>
<polygon fill="green" stroke="green" stroke-width="0.1" points="397.93,-25.31 387.46,-23.65 394.61,-31.47 397.93,-25.31"/>
</g>
<!-- &#45;2&#45;&gt;2 -->
<g id="edge7" class="edge">
<title>&#45;2&#45;&gt;2</title>
<path fill="none" stroke="green" stroke-width="0.26" d="M512.82,-66.88C497.45,-58.26 470.23,-42.95 447,-29.7 446.2,-29.24 445.38,-28.77 444.55,-28.3"/>
<polygon fill="green" stroke="green" stroke-width="0.26" points="446.1,-25.15 435.69,-23.2 442.62,-31.22 446.1,-25.15"/>
</g>
<!-- &#45;2&#45;&gt;3 -->
<g id="edge8" class="edge">
<title>&#45;2&#45;&gt;3</title>
<path fill="none" stroke="green" stroke-width="0.33" d="M517.49,-65.65C509.82,-57.44 497.67,-44.42 487.71,-33.75"/>
<polygon fill="green" stroke="green" stroke-width="0.33" points="490.01,-31.09 480.63,-26.17 484.9,-35.86 490.01,-31.09"/>
</g>
<!-- 4 -->
<g id="node25" class="node">
<title>4</title>
<ellipse fill="lightblue" stroke="black" cx="567" cy="-14.85" rx="14.7" ry="14.7"/>
<text text-anchor="middle" x="567" y="-12.65" font-family="Times New Roman,serif" font-size="9.00">4</text>
</g>
<!-- &#45;2&#45;&gt;4 -->
<g id="edge9" class="edge">
<title>&#45;2&#45;&gt;4</title>
<path fill="none" stroke="green" stroke-width="0.51" d="M530.84,-65.65C536.47,-57.89 545.23,-45.84 552.71,-35.53"/>
<polygon fill="green" stroke="green" stroke-width="0.51" points="555.56,-37.57 558.6,-27.42 549.89,-33.45 555.56,-37.57"/>
</g>
<!-- &#45;3 -->
<g id="node3" class="node">
<title>&#45;3</title>
<polygon fill="lightgray" stroke="black" points="579,-83.7 555,-83.7 555,-65.7 579,-65.7 579,-83.7"/>
<text text-anchor="middle" x="567" y="-72.5" font-family="Times New Roman,serif" font-size="9.00">&#45;3</text>
</g>
<!-- &#45;3&#45;&gt;0 -->
<g id="edge10" class="edge">
<title>&#45;3&#45;&gt;0</title>
<path fill="none" stroke="green" stroke-width="0.53" d="M560.33,-65.65C553.74,-57.72 543.43,-45.29 534.75,-34.83"/>
<polygon fill="green" stroke="green" stroke-width="0.53" points="537.33,-32.46 528.25,-26.99 531.94,-36.93 537.33,-32.46"/>
</g>
<!-- &#45;3&#45;&gt;1 -->
<g id="edge11" class="edge">
<title>&#45;3&#45;&gt;1</title>
<path fill="none" stroke="green" stroke-width="0.2" d="M554.65,-68.7C551.83,-67.64 548.83,-66.58 546,-65.7 481.78,-45.69 461.42,-54.76 399,-29.7 398.14,-29.35 397.27,-28.98 396.41,-28.59"/>
<polygon fill="green" stroke="green" stroke-width="0.2" points="397.85,-25.4 387.37,-23.88 394.62,-31.6 397.85,-25.4"/>
</g>
<!-- &#45;3&#45;&gt;2 -->
<g id="edge12" class="edge">
<title>&#45;3&#45;&gt;2</title>
<path fill="none" stroke="green" stroke-width="0.2" d="M554.57,-68.93C551.76,-67.86 548.78,-66.73 546,-65.7 502.12,-49.36 489.44,-49.47 447,-29.7 446.16,-29.31 445.31,-28.9 444.46,-28.47"/>
<polygon fill="green" stroke="green" stroke-width="0.2" points="445.94,-25.29 435.48,-23.6 442.61,-31.45 445.94,-25.29"/>
</g>
<!-- &#45;3&#45;&gt;3 -->
<g id="edge13" class="edge">
<title>&#45;3&#45;&gt;3</title>
<path fill="none" stroke="green" stroke-width="0.24" d="M554.84,-66.37C539.06,-56.86 511.27,-40.11 492.03,-28.52"/>
<polygon fill="green" stroke="green" stroke-width="0.24" points="493.73,-25.46 483.36,-23.3 490.12,-31.46 493.73,-25.46"/>
</g>
<!-- &#45;3&#45;&gt;4 -->
<g id="edge14" class="edge">
<title>&#45;3&#45;&gt;4</title>
<path fill="none" stroke="green" stroke-width="0.53" d="M567,-65.65C567,-59.05 567,-49.33 567,-40.23"/>
<polygon fill="green" stroke="green" stroke-width="0.53" points="570.5,-40.06 567,-30.06 563.5,-40.06 570.5,-40.06"/>
</g>
<!-- &#45;4 -->
<g id="node4" class="node">
<title>&#45;4</title>
<polygon fill="lightgray" stroke="black" points="621,-83.7 597,-83.7 597,-65.7 621,-65.7 621,-83.7"/>
<text text-anchor="middle" x="609" y="-72.5" font-family="Times New Roman,serif" font-size="9.00">&#45;4</text>
</g>
<!-- &#45;4&#45;&gt;0 -->
<g id="edge15" class="edge">
<title>&#45;4&#45;&gt;0</title>
<path fill="none" stroke="red" stroke-width="0.33" d="M596.86,-65.9C582.23,-56.49 557.42,-40.55 539.74,-29.18"/>
<polygon fill="red" stroke="red" stroke-width="0.33" points="541.54,-26.18 531.23,-23.71 537.75,-32.06 541.54,-26.18"/>
</g>
<!-- &#45;4&#45;&gt;1 -->
<g id="edge16" class="edge">
<title>&#45;4&#45;&gt;1</title>
<path fill="none" stroke="red" stroke-width="0.58" d="M596.68,-68.59C593.86,-67.54 590.85,-66.51 588,-65.7 505.73,-42.39 479.15,-59.49 399,-29.7 398.13,-29.38 397.26,-29.02 396.39,-28.65"/>
<polygon fill="red" stroke="red" stroke-width="0.58" points="397.81,-25.45 387.31,-24.01 394.62,-31.68 397.81,-25.45"/>
</g>
<!-- &#45;4&#45;&gt;2 -->
<g id="edge17" class="edge">
<title>&#45;4&#45;&gt;2</title>
<path fill="none" stroke="red" stroke-width="0.22" d="M596.65,-68.72C593.83,-67.66 590.83,-66.59 588,-65.7 526.35,-46.15 506.9,-54.09 447,-29.7 446.14,-29.35 445.28,-28.97 444.41,-28.58"/>
<polygon fill="red" stroke="red" stroke-width="0.22" points="445.86,-25.39 435.38,-23.85 442.61,-31.59 445.86,-25.39"/>
</g>
<!-- &#45;4&#45;&gt;3 -->
<g id="edge18" class="edge">
<title>&#45;4&#45;&gt;3</title>
<path fill="none" stroke="red" stroke-width="0.16" d="M596.99,-69.12C568.69,-58.33 499.86,-32.02 495,-29.7 494.16,-29.3 493.32,-28.88 492.47,-28.45"/>
<polygon fill="red" stroke="red" stroke-width="0.16" points="493.96,-25.28 483.51,-23.56 490.61,-31.42 493.96,-25.28"/>
</g>
<!-- &#45;4&#45;&gt;4 -->
<g id="edge19" class="edge">
<title>&#45;4&#45;&gt;4</title>
<path fill="none" stroke="red" stroke-width="0.14" d="M603.16,-65.65C597.53,-57.89 588.77,-45.84 581.29,-35.53"/>
<polygon fill="red" stroke="red" stroke-width="0.14" points="584.11,-33.45 575.4,-27.42 578.44,-37.57 584.11,-33.45"/>
</g>
<!-- &#45;5 -->
<g id="node5" class="node">
<title>&#45;5</title>
<polygon fill="lightgray" stroke="black" points="663,-83.7 639,-83.7 639,-65.7 663,-65.7 663,-83.7"/>
<text text-anchor="middle" x="651" y="-72.5" font-family="Times New Roman,serif" font-size="9.00">&#45;5</text>
</g>
<!-- &#45;5&#45;&gt;0 -->
<g id="edge20" class="edge">
<title>&#45;5&#45;&gt;0</title>
<path fill="none" stroke="red" stroke-width="0.48" stroke-dasharray="1,5" d="M638.92,-69.02C614.66,-59.58 560.82,-38.42 543,-29.7 542.17,-29.29 541.33,-28.87 540.48,-28.43"/>
<polygon fill="red" stroke="red" stroke-width="0.48" points="541.98,-25.26 531.53,-23.51 538.61,-31.39 541.98,-25.26"/>
</g>
<!-- &#45;5&#45;&gt;1 -->
<g id="edge21" class="edge">
<title>&#45;5&#45;&gt;1</title>
<path fill="none" stroke="red" stroke-width="0.11" d="M638.7,-68.52C635.88,-67.47 632.87,-66.46 630,-65.7 529.57,-39.06 496.99,-64.25 399,-29.7 398.13,-29.39 397.25,-29.05 396.37,-28.69"/>
<polygon fill="red" stroke="red" stroke-width="0.11" points="397.79,-25.48 387.28,-24.1 394.63,-31.73 397.79,-25.48"/>
</g>
<!-- &#45;5&#45;&gt;2 -->
<g id="edge22" class="edge">
<title>&#45;5&#45;&gt;2</title>
<path fill="none" stroke="red" stroke-width="0.18" d="M638.68,-68.61C635.86,-67.55 632.85,-66.52 630,-65.7 550.32,-42.86 524.61,-58.81 447,-29.7 446.13,-29.37 445.26,-29.02 444.39,-28.64"/>
<polygon fill="red" stroke="red" stroke-width="0.18" points="445.82,-25.44 435.32,-23.99 442.62,-31.67 445.82,-25.44"/>
</g>
<!-- &#45;5&#45;&gt;3 -->
<g id="edge23" class="edge">
<title>&#45;5&#45;&gt;3</title>
<path fill="none" stroke="red" stroke-width="0.24" d="M638.64,-68.75C635.82,-67.68 632.82,-66.61 630,-65.7 570.91,-46.62 552.39,-53.42 495,-29.7 494.14,-29.34 493.28,-28.97 492.42,-28.57"/>
<polygon fill="red" stroke="red" stroke-width="0.24" points="493.87,-25.38 483.39,-23.82 490.61,-31.57 493.87,-25.38"/>
</g>
<!-- &#45;5&#45;&gt;4 -->
<g id="edge24" class="edge">
<title>&#45;5&#45;&gt;4</title>
<path fill="none" stroke="red" stroke-width="0.64" d="M639.32,-65.65C625.86,-56.38 603.49,-40.98 587.19,-29.75"/>
<polygon fill="red" stroke="red" stroke-width="0.64" points="589.07,-26.8 578.85,-24.01 585.1,-32.57 589.07,-26.8"/>
</g>
<!-- &#45;6 -->
<g id="node6" class="node">
<title>&#45;6</title>
<polygon fill="lightgray" stroke="black" points="705,-83.7 681,-83.7 681,-65.7 705,-65.7 705,-83.7"/>
<text text-anchor="middle" x="693" y="-72.5" font-family="Times New Roman,serif" font-size="9.00">&#45;6</text>
</g>
<!-- &#45;6&#45;&gt;0 -->
<g id="edge25" class="edge">
<title>&#45;6&#45;&gt;0</title>
<path fill="none" stroke="green" stroke-width="0.11" d="M680.63,-68.77C677.81,-67.71 674.82,-66.63 672,-65.7 615.46,-47.08 597.88,-52.76 543,-29.7 542.15,-29.34 541.29,-28.96 540.42,-28.55"/>
<polygon fill="green" stroke="green" stroke-width="0.11" points="541.88,-25.37 531.4,-23.8 538.61,-31.56 541.88,-25.37"/>
</g>
<!-- &#45;6&#45;&gt;1 -->
<g id="edge26" class="edge">
<title>&#45;6&#45;&gt;1</title>
<path fill="none" stroke="red" stroke-width="0.38" d="M680.72,-68.47C677.89,-67.43 674.87,-66.43 672,-65.7 553.35,-35.71 514.89,-69.04 399,-29.7 398.12,-29.4 397.24,-29.07 396.36,-28.71"/>
<polygon fill="red" stroke="red" stroke-width="0.38" points="397.77,-25.5 387.26,-24.16 394.64,-31.76 397.77,-25.5"/>
</g>
<!-- &#45;6&#45;&gt;2 -->
<g id="edge27" class="edge">
<title>&#45;6&#45;&gt;2</title>
<path fill="none" stroke="red" stroke-width="0.19" d="M680.7,-68.53C677.88,-67.48 674.86,-66.46 672,-65.7 574.17,-39.53 542.44,-63.57 447,-29.7 446.13,-29.39 445.25,-29.05 444.37,-28.68"/>
<polygon fill="red" stroke="red" stroke-width="0.19" points="445.79,-25.47 435.29,-24.08 442.63,-31.72 445.79,-25.47"/>
</g>
<!-- &#45;6&#45;&gt;3 -->
<g id="edge28" class="edge">
<title>&#45;6&#45;&gt;3</title>
<path fill="none" stroke="green" stroke-width="0.58" d="M680.68,-68.62C677.86,-67.57 674.85,-66.52 672,-65.7 594.9,-43.33 570.07,-58.13 495,-29.7 494.13,-29.37 493.26,-29.01 492.39,-28.63"/>
<polygon fill="green" stroke="green" stroke-width="0.58" points="493.82,-25.43 483.33,-23.98 490.62,-31.66 493.82,-25.43"/>
</g>
<!-- &#45;6&#45;&gt;4 -->
<g id="edge29" class="edge">
<title>&#45;6&#45;&gt;4</title>
<path fill="none" stroke="red" stroke-width="0.43" d="M680.92,-68.15C659.95,-58.52 616.48,-38.57 589.72,-26.28"/>
<polygon fill="red" stroke="red" stroke-width="0.43" points="590.91,-22.98 580.36,-21.99 587.99,-29.34 590.91,-22.98"/>
</g>
<!-- &#45;7 -->
<g id="node7" class="node">
<title>&#45;7</title>
<polygon fill="lightgray" stroke="black" points="747,-83.7 723,-83.7 723,-65.7 747,-65.7 747,-83.7"/>
<text text-anchor="middle" x="735" y="-72.5" font-family="Times New Roman,serif" font-size="9.00">&#45;7</text>
</g>
<!-- &#45;7&#45;&gt;0 -->
<g id="edge30" class="edge">
<title>&#45;7&#45;&gt;0</title>
<path fill="none" stroke="green" stroke-width="0.17" d="M722.67,-68.63C719.85,-67.58 716.84,-66.53 714,-65.7 639.48,-43.81 615.54,-57.45 543,-29.7 542.14,-29.37 541.26,-29.01 540.39,-28.63"/>
<polygon fill="green" stroke="green" stroke-width="0.17" points="541.83,-25.43 531.33,-23.96 538.62,-31.65 541.83,-25.43"/>
</g>
<!-- &#45;7&#45;&gt;1 -->
<g id="edge31" class="edge">
<title>&#45;7&#45;&gt;1</title>
<path fill="none" stroke="green" stroke-width="0.4" d="M722.73,-68.44C719.9,-67.39 716.88,-66.4 714,-65.7 577.09,-32.36 532.82,-73.83 399,-29.7 398.12,-29.41 397.24,-29.08 396.36,-28.73"/>
<polygon fill="green" stroke="green" stroke-width="0.4" points="397.76,-25.52 387.25,-24.2 394.64,-31.79 397.76,-25.52"/>
</g>
<!-- &#45;7&#45;&gt;2 -->
<g id="edge32" class="edge">
<title>&#45;7&#45;&gt;2</title>
<path fill="none" stroke="green" stroke-width="0.36" d="M722.72,-68.48C719.89,-67.43 716.87,-66.43 714,-65.7 597.95,-36.19 560.33,-68.35 447,-29.7 446.12,-29.4 445.24,-29.07 444.36,-28.71"/>
<polygon fill="green" stroke="green" stroke-width="0.36" points="445.77,-25.5 435.27,-24.15 442.64,-31.76 445.77,-25.5"/>
</g>
<!-- &#45;7&#45;&gt;3 -->
<g id="edge33" class="edge">
<title>&#45;7&#45;&gt;3</title>
<path fill="none" stroke="red" stroke-width="0.25" d="M722.7,-68.54C719.88,-67.49 716.86,-66.47 714,-65.7 618.76,-40.01 587.89,-62.89 495,-29.7 494.13,-29.39 493.25,-29.04 492.38,-28.68"/>
<polygon fill="red" stroke="red" stroke-width="0.25" points="493.79,-25.47 483.29,-24.07 490.63,-31.72 493.79,-25.47"/>
</g>
<!-- &#45;7&#45;&gt;4 -->
<g id="edge34" class="edge">
<title>&#45;7&#45;&gt;4</title>
<path fill="none" stroke="red" stroke-width="0.5" d="M722.59,-68.88C719.77,-67.82 716.79,-66.7 714,-65.7 670.64,-50.09 619.62,-33.09 590.52,-23.53"/>
<polygon fill="red" stroke="red" stroke-width="0.5" points="591.43,-20.14 580.84,-20.35 589.25,-26.79 591.43,-20.14"/>
</g>
<!-- &#45;8 -->
<g id="node8" class="node">
<title>&#45;8</title>
<polygon fill="lightgray" stroke="black" points="789,-83.7 765,-83.7 765,-65.7 789,-65.7 789,-83.7"/>
<text text-anchor="middle" x="777" y="-72.5" font-family="Times New Roman,serif" font-size="9.00">&#45;8</text>
</g>
<!-- &#45;8&#45;&gt;0 -->
<g id="edge35" class="edge">
<title>&#45;8&#45;&gt;0</title>
<path fill="none" stroke="red" stroke-width="0.37" d="M764.7,-68.55C761.87,-67.5 758.86,-66.48 756,-65.7 663.36,-40.49 633.34,-62.2 543,-29.7 542.13,-29.38 541.25,-29.04 540.38,-28.67"/>
<polygon fill="red" stroke="red" stroke-width="0.37" points="541.8,-25.47 531.3,-24.06 538.63,-31.71 541.8,-25.47"/>
</g>
<!-- &#45;8&#45;&gt;1 -->
<g id="edge36" class="edge">
<title>&#45;8&#45;&gt;1</title>
<path fill="none" stroke="red" stroke-width="0.21" d="M764.73,-68.41C761.91,-67.36 758.89,-66.38 756,-65.7 600.81,-28.99 550.78,-78.64 399,-29.7 397.95,-29.36 396.89,-28.97 395.84,-28.54"/>
<polygon fill="red" stroke="red" stroke-width="0.21" points="397.25,-25.33 386.74,-23.95 394.09,-31.58 397.25,-25.33"/>
</g>
<!-- &#45;8&#45;&gt;2 -->
<g id="edge37" class="edge">
<title>&#45;8&#45;&gt;2</title>
<path fill="none" stroke="green" stroke-width="0.6" d="M764.73,-68.44C761.9,-67.39 758.88,-66.4 756,-65.7 621.7,-32.84 578.26,-73.15 447,-29.7 446.12,-29.41 445.24,-29.08 444.36,-28.73"/>
<polygon fill="green" stroke="green" stroke-width="0.6" points="445.76,-25.52 435.25,-24.2 442.64,-31.78 445.76,-25.52"/>
</g>
<!-- &#45;8&#45;&gt;3 -->
<g id="edge38" class="edge">
<title>&#45;8&#45;&gt;3</title>
<path fill="none" stroke="red" stroke-width="0.17" d="M764.71,-68.49C761.89,-67.44 758.87,-66.43 756,-65.7 642.56,-36.67 605.77,-67.67 495,-29.7 494.12,-29.4 493.24,-29.06 492.37,-28.7"/>
<polygon fill="red" stroke="red" stroke-width="0.17" points="493.78,-25.5 483.27,-24.14 490.64,-31.75 493.78,-25.5"/>
</g>
<!-- &#45;8&#45;&gt;4 -->
<g id="edge39" class="edge">
<title>&#45;8&#45;&gt;4</title>
<path fill="none" stroke="red" stroke-width="0.42" stroke-dasharray="1,5" d="M764.64,-68.74C761.82,-67.68 758.82,-66.61 756,-65.7 697.74,-46.98 627.77,-29.89 591.5,-21.43"/>
<polygon fill="red" stroke="red" stroke-width="0.42" points="591.91,-17.93 581.38,-19.09 590.33,-24.75 591.91,-17.93"/>
</g>
<!-- &#45;9 -->
<g id="node9" class="node">
<title>&#45;9</title>
<polygon fill="lightgray" stroke="black" points="831,-83.7 807,-83.7 807,-65.7 831,-65.7 831,-83.7"/>
<text text-anchor="middle" x="819" y="-72.5" font-family="Times New Roman,serif" font-size="9.00">&#45;9</text>
</g>
<!-- &#45;9&#45;&gt;0 -->
<g id="edge40" class="edge">
<title>&#45;9&#45;&gt;0</title>
<path fill="none" stroke="red" stroke-width="0.23" d="M806.71,-68.49C803.89,-67.44 800.87,-66.44 798,-65.7 687.16,-37.15 651.21,-66.98 543,-29.7 542.12,-29.4 541.24,-29.06 540.37,-28.7"/>
<polygon fill="red" stroke="red" stroke-width="0.23" points="541.78,-25.49 531.27,-24.13 538.64,-31.75 541.78,-25.49"/>
</g>
<!-- &#45;9&#45;&gt;1 -->
<g id="edge41" class="edge">
<title>&#45;9&#45;&gt;1</title>
<path fill="none" stroke="red" stroke-width="0.19" d="M806.74,-68.38C803.91,-67.34 800.89,-66.37 798,-65.7 624.51,-25.63 568.75,-83.45 399,-29.7 397.95,-29.36 396.89,-28.98 395.83,-28.55"/>
<polygon fill="red" stroke="red" stroke-width="0.19" points="397.24,-25.34 386.73,-23.97 394.09,-31.6 397.24,-25.34"/>
</g>
<!-- &#45;9&#45;&gt;2 -->
<g id="edge42" class="edge">
<title>&#45;9&#45;&gt;2</title>
<path fill="none" stroke="green" stroke-width="0.26" d="M806.73,-68.41C803.91,-67.37 800.88,-66.38 798,-65.7 645.42,-29.48 596.21,-77.95 447,-29.7 445.95,-29.36 444.89,-28.97 443.84,-28.54"/>
<polygon fill="green" stroke="green" stroke-width="0.26" points="445.25,-25.33 434.74,-23.94 442.09,-31.58 445.25,-25.33"/>
</g>
<!-- &#45;9&#45;&gt;3 -->
<g id="edge43" class="edge">
<title>&#45;9&#45;&gt;3</title>
<path fill="none" stroke="green" stroke-width="0.32" d="M806.72,-68.45C803.9,-67.4 800.88,-66.41 798,-65.7 666.31,-33.32 623.69,-72.46 495,-29.7 494.12,-29.41 493.24,-29.08 492.36,-28.73"/>
<polygon fill="green" stroke="green" stroke-width="0.32" points="493.76,-25.52 483.25,-24.19 490.64,-31.78 493.76,-25.52"/>
</g>
<!-- &#45;9&#45;&gt;4 -->
<g id="edge44" class="edge">
<title>&#45;9&#45;&gt;4</title>
<path fill="none" stroke="green" stroke-width="0.71" d="M806.67,-68.65C803.85,-67.59 800.84,-66.54 798,-65.7 724,-43.76 634.02,-27.14 591.5,-19.88"/>
<polygon fill="green" stroke="green" stroke-width="0.71" points="591.96,-16.4 581.52,-18.19 590.8,-23.31 591.96,-16.4"/>
</g>
<!-- &#45;10 -->
<g id="node10" class="node">
<title>&#45;10</title>
<polygon fill="lightgray" stroke="black" points="878.5,-83.7 849.5,-83.7 849.5,-65.7 878.5,-65.7 878.5,-83.7"/>
<text text-anchor="middle" x="864" y="-72.5" font-family="Times New Roman,serif" font-size="9.00">&#45;10</text>
</g>
<!-- &#45;10&#45;&gt;0 -->
<g id="edge45" class="edge">
<title>&#45;10&#45;&gt;0</title>
<path fill="none" stroke="green" stroke-width="0.35" d="M849.41,-68.32C846.33,-67.33 843.09,-66.39 840,-65.7 710.27,-36.53 669.13,-71.78 543,-29.7 542.12,-29.41 541.24,-29.08 540.36,-28.72"/>
<polygon fill="green" stroke="green" stroke-width="0.35" points="541.76,-25.51 531.25,-24.18 538.64,-31.78 541.76,-25.51"/>
</g>
<!-- &#45;10&#45;&gt;1 -->
<g id="edge46" class="edge">
<title>&#45;10&#45;&gt;1</title>
<path fill="none" stroke="red" stroke-width="0.26" d="M849.43,-68.22C846.35,-67.24 843.1,-66.33 840,-65.7 647.33,-26.32 586.73,-88.27 399,-29.7 397.94,-29.37 396.88,-28.99 395.83,-28.56"/>
<polygon fill="red" stroke="red" stroke-width="0.26" points="397.23,-25.35 386.73,-24 394.09,-31.61 397.23,-25.35"/>
</g>
<!-- &#45;10&#45;&gt;2 -->
<g id="edge47" class="edge">
<title>&#45;10&#45;&gt;2</title>
<path fill="none" stroke="green" stroke-width="0.15" d="M849.42,-68.25C846.35,-67.26 843.1,-66.35 840,-65.7 668.33,-29.73 614.18,-82.76 447,-29.7 445.95,-29.36 444.89,-28.98 443.83,-28.55"/>
<polygon fill="green" stroke="green" stroke-width="0.15" points="445.24,-25.34 434.74,-23.97 442.09,-31.59 445.24,-25.34"/>
</g>
<!-- &#45;10&#45;&gt;3 -->
<g id="edge48" class="edge">
<title>&#45;10&#45;&gt;3</title>
<path fill="none" stroke="red" stroke-width="0.22" d="M849.42,-68.28C846.34,-67.29 843.09,-66.37 840,-65.7 689.31,-33.13 641.64,-77.27 495,-29.7 493.95,-29.36 492.89,-28.97 491.84,-28.53"/>
<polygon fill="red" stroke="red" stroke-width="0.22" points="493.25,-25.33 482.75,-23.94 490.09,-31.57 493.25,-25.33"/>
</g>
<!-- &#45;10&#45;&gt;4 -->
<g id="edge49" class="edge">
<title>&#45;10&#45;&gt;4</title>
<path fill="none" stroke="green" stroke-width="0.4" d="M849.37,-68.46C846.3,-67.46 843.06,-66.48 840,-65.7 749.73,-42.54 640.01,-25.92 591.77,-19.18"/>
<polygon fill="green" stroke="green" stroke-width="0.4" points="592.04,-15.68 581.66,-17.78 591.09,-22.61 592.04,-15.68"/>
</g>
<!-- &#45;11 -->
<g id="node11" class="node">
<title>&#45;11</title>
<polygon fill="lightgray" stroke="black" points="71.5,-83.7 42.5,-83.7 42.5,-65.7 71.5,-65.7 71.5,-83.7"/>
<text text-anchor="middle" x="57" y="-72.5" font-family="Times New Roman,serif" font-size="9.00">&#45;11</text>
</g>
<!-- &#45;11&#45;&gt;0 -->
<g id="edge50" class="edge">
<title>&#45;11&#45;&gt;0</title>
<path fill="none" stroke="green" stroke-width="0.26" d="M71.94,-67.9C74.59,-67.05 77.35,-66.26 80,-65.7 261.05,-26.99 318.4,-85.29 495,-29.7 496.06,-29.37 497.11,-28.98 498.17,-28.56"/>
<polygon fill="green" stroke="green" stroke-width="0.26" points="499.91,-31.6 507.27,-23.98 496.76,-25.35 499.91,-31.6"/>
</g>
<!-- &#45;11&#45;&gt;1 -->
<g id="edge51" class="edge">
<title>&#45;11&#45;&gt;1</title>
<path fill="none" stroke="red" stroke-width="0.16" d="M71.98,-68.08C74.63,-67.21 77.38,-66.37 80,-65.7 178.43,-40.45 298.71,-24.68 349.95,-18.65"/>
<polygon fill="red" stroke="red" stroke-width="0.16" points="350.55,-22.1 360.08,-17.47 349.75,-15.15 350.55,-22.1"/>
</g>
<!-- &#45;11&#45;&gt;2 -->
<g id="edge52" class="edge">
<title>&#45;11&#45;&gt;2</title>
<path fill="none" stroke="red" stroke-width="0.18" d="M71.95,-67.96C74.6,-67.1 77.36,-66.3 80,-65.7 219.13,-34.07 263.47,-74.29 399,-29.7 399.88,-29.41 400.76,-29.08 401.64,-28.73"/>
<polygon fill="red" stroke="red" stroke-width="0.18" points="403.36,-31.79 410.75,-24.2 400.24,-25.52 403.36,-31.79"/>
</g>
<!-- &#45;11&#45;&gt;3 -->
<g id="edge53" class="edge">
<title>&#45;11&#45;&gt;3</title>
<path fill="none" stroke="green" stroke-width="0.3" d="M71.95,-67.93C74.6,-67.07 77.36,-66.28 80,-65.7 240.08,-30.53 290.95,-79.79 447,-29.7 448.05,-29.36 449.11,-28.97 450.16,-28.54"/>
<polygon fill="green" stroke="green" stroke-width="0.3" points="451.91,-31.58 459.26,-23.95 448.75,-25.33 451.91,-31.58"/>
</g>
<!-- &#45;11&#45;&gt;4 -->
<g id="edge54" class="edge">
<title>&#45;11&#45;&gt;4</title>
<path fill="none" stroke="red" stroke-width="0.56" d="M71.94,-67.88C74.59,-67.03 77.35,-66.25 80,-65.7 282.03,-23.45 345.85,-90.79 543,-29.7 544.06,-29.37 545.12,-28.99 546.17,-28.57"/>
<polygon fill="red" stroke="red" stroke-width="0.56" points="547.91,-31.62 555.28,-24.01 544.77,-25.36 547.91,-31.62"/>
</g>
<!-- &#45;12 -->
<g id="node12" class="node">
<title>&#45;12</title>
<polygon fill="lightgray" stroke="black" points="118.5,-83.7 89.5,-83.7 89.5,-65.7 118.5,-65.7 118.5,-83.7"/>
<text text-anchor="middle" x="104" y="-72.5" font-family="Times New Roman,serif" font-size="9.00">&#45;12</text>
</g>
<!-- &#45;12&#45;&gt;0 -->
<g id="edge55" class="edge">
<title>&#45;12&#45;&gt;0</title>
<path fill="none" stroke="red" stroke-width="1.05" d="M118.95,-67.93C121.6,-67.07 124.36,-66.28 127,-65.7 287.51,-30.46 338.52,-79.9 495,-29.7 496.05,-29.36 497.11,-28.97 498.16,-28.54"/>
<polygon fill="red" stroke="red" stroke-width="1.05" points="499.91,-31.58 507.26,-23.95 496.76,-25.33 499.91,-31.58"/>
</g>
<!-- &#45;12&#45;&gt;1 -->
<g id="edge56" class="edge">
<title>&#45;12&#45;&gt;1</title>
<path fill="none" stroke="green" stroke-width="0.33" d="M118.51,-68.32C121.3,-67.38 124.23,-66.46 127,-65.7 207.63,-43.68 305.43,-26.85 350.32,-19.66"/>
<polygon fill="green" stroke="green" stroke-width="0.33" points="350.97,-23.1 360.3,-18.08 349.88,-16.19 350.97,-23.1"/>
</g>
<!-- &#45;12&#45;&gt;2 -->
<g id="edge57" class="edge">
<title>&#45;12&#45;&gt;2</title>
<path fill="none" stroke="green" stroke-width="0.14" d="M118.96,-68C121.61,-67.14 124.37,-66.32 127,-65.7 245.64,-37.52 283.54,-68.92 399,-29.7 399.88,-29.4 400.76,-29.07 401.64,-28.71"/>
<polygon fill="green" stroke="green" stroke-width="0.14" points="403.36,-31.76 410.74,-24.15 400.23,-25.5 403.36,-31.76"/>
</g>
<!-- &#45;12&#45;&gt;3 -->
<g id="edge58" class="edge">
<title>&#45;12&#45;&gt;3</title>
<path fill="none" stroke="red" stroke-width="0.17" d="M118.95,-67.96C121.6,-67.1 124.36,-66.3 127,-65.7 266.56,-33.99 311.04,-74.41 447,-29.7 447.88,-29.41 448.76,-29.09 449.64,-28.73"/>
<polygon fill="red" stroke="red" stroke-width="0.17" points="451.36,-31.79 458.75,-24.21 448.24,-25.52 451.36,-31.79"/>
</g>
<!-- &#45;12&#45;&gt;4 -->
<g id="edge59" class="edge">
<title>&#45;12&#45;&gt;4</title>
<path fill="none" stroke="red" stroke-width="0.38" d="M118.94,-67.9C121.59,-67.05 124.35,-66.26 127,-65.7 308.48,-26.92 365.98,-85.4 543,-29.7 544.06,-29.37 545.11,-28.98 546.17,-28.56"/>
<polygon fill="red" stroke="red" stroke-width="0.38" points="547.91,-31.6 555.27,-23.98 544.76,-25.35 547.91,-31.6"/>
</g>
<!-- &#45;13 -->
<g id="node13" class="node">
<title>&#45;13</title>
<polygon fill="lightgray" stroke="black" points="165.5,-83.7 136.5,-83.7 136.5,-65.7 165.5,-65.7 165.5,-83.7"/>
<text text-anchor="middle" x="151" y="-72.5" font-family="Times New Roman,serif" font-size="9.00">&#45;13</text>
</g>
<!-- &#45;13&#45;&gt;0 -->
<g id="edge60" class="edge">
<title>&#45;13&#45;&gt;0</title>
<path fill="none" stroke="green" stroke-width="0.27" d="M165.95,-67.96C168.6,-67.1 171.36,-66.3 174,-65.7 314,-33.92 358.62,-74.52 495,-29.7 495.88,-29.41 496.76,-29.09 497.64,-28.73"/>
<polygon fill="green" stroke="green" stroke-width="0.27" points="499.36,-31.79 506.75,-24.21 496.24,-25.52 499.36,-31.79"/>
</g>
<!-- &#45;13&#45;&gt;1 -->
<g id="edge61" class="edge">
<title>&#45;13&#45;&gt;1</title>
<path fill="none" stroke="red" stroke-width="0.5" d="M165.54,-68.42C168.33,-67.47 171.24,-66.52 174,-65.7 236.73,-47.05 311.88,-29.72 350.07,-21.26"/>
<polygon fill="red" stroke="red" stroke-width="0.5" points="351.23,-24.59 360.25,-19.02 349.73,-17.75 351.23,-24.59"/>
</g>
<!-- &#45;13&#45;&gt;2 -->
<g id="edge62" class="edge">
<title>&#45;13&#45;&gt;2</title>
<path fill="none" stroke="green" stroke-width="0.18" d="M165.98,-68.06C168.63,-67.19 171.38,-66.36 174,-65.7 272.21,-40.97 303.56,-63.57 399,-29.7 399.87,-29.39 400.75,-29.05 401.63,-28.68"/>
<polygon fill="green" stroke="green" stroke-width="0.18" points="403.37,-31.72 410.71,-24.08 400.21,-25.47 403.37,-31.72"/>
</g>
<!-- &#45;13&#45;&gt;3 -->
<g id="edge63" class="edge">
<title>&#45;13&#45;&gt;3</title>
<path fill="none" stroke="green" stroke-width="0.36" d="M165.96,-68C168.61,-67.14 171.37,-66.32 174,-65.7 293.08,-37.45 331.11,-69.04 447,-29.7 447.88,-29.4 448.76,-29.07 449.64,-28.71"/>
<polygon fill="green" stroke="green" stroke-width="0.36" points="451.36,-31.76 458.74,-24.16 448.23,-25.5 451.36,-31.76"/>
</g>
<!-- &#45;13&#45;&gt;4 -->
<g id="edge64" class="edge">
<title>&#45;13&#45;&gt;4</title>
<path fill="none" stroke="green" stroke-width="0.16" d="M165.95,-67.93C168.6,-67.07 171.36,-66.28 174,-65.7 334.95,-30.38 386.09,-80.01 543,-29.7 544.05,-29.36 545.11,-28.97 546.16,-28.54"/>
<polygon fill="green" stroke="green" stroke-width="0.16" points="547.91,-31.58 555.26,-23.95 544.76,-25.33 547.91,-31.58"/>
</g>
<!-- &#45;14 -->
<g id="node14" class="node">
<title>&#45;14</title>
<polygon fill="lightgray" stroke="black" points="212.5,-83.7 183.5,-83.7 183.5,-65.7 212.5,-65.7 212.5,-83.7"/>
<text text-anchor="middle" x="198" y="-72.5" font-family="Times New Roman,serif" font-size="9.00">&#45;14</text>
</g>
<!-- &#45;14&#45;&gt;0 -->
<g id="edge65" class="edge">
<title>&#45;14&#45;&gt;0</title>
<path fill="none" stroke="red" stroke-width="0.21" d="M212.96,-68C215.61,-67.13 218.37,-66.32 221,-65.7 340.51,-37.38 378.68,-69.15 495,-29.7 495.88,-29.4 496.76,-29.07 497.64,-28.71"/>
<polygon fill="red" stroke="red" stroke-width="0.21" points="499.36,-31.76 506.74,-24.16 496.23,-25.5 499.36,-31.76"/>
</g>
<!-- &#45;14&#45;&gt;1 -->
<g id="edge66" class="edge">
<title>&#45;14&#45;&gt;1</title>
<path fill="none" stroke="green" stroke-width="0.11" d="M212.58,-68.57C215.37,-67.61 218.27,-66.61 221,-65.7 266.99,-50.26 320.99,-32.97 351.28,-23.35"/>
<polygon fill="green" stroke="green" stroke-width="0.11" points="352.48,-26.64 360.95,-20.28 350.36,-19.97 352.48,-26.64"/>
</g>
<!-- &#45;14&#45;&gt;2 -->
<g id="edge67" class="edge">
<title>&#45;14&#45;&gt;2</title>
<path fill="none" stroke="green" stroke-width="0.42" d="M212.51,-68.32C215.3,-67.38 218.23,-66.46 221,-65.7 298.85,-44.39 323.5,-58.24 399,-29.7 399.87,-29.37 400.74,-29.01 401.61,-28.64"/>
<polygon fill="green" stroke="green" stroke-width="0.42" points="403.38,-31.66 410.67,-23.98 400.18,-25.43 403.38,-31.66"/>
</g>
<!-- &#45;14&#45;&gt;3 -->
<g id="edge68" class="edge">
<title>&#45;14&#45;&gt;3</title>
<path fill="none" stroke="red" stroke-width="0.27" d="M212.98,-68.06C215.63,-67.19 218.38,-66.36 221,-65.7 319.64,-40.89 351.13,-63.68 447,-29.7 447.87,-29.39 448.75,-29.05 449.63,-28.68"/>
<polygon fill="red" stroke="red" stroke-width="0.27" points="451.37,-31.72 458.71,-24.09 448.21,-25.48 451.37,-31.72"/>
</g>
<!-- &#45;14&#45;&gt;4 -->
<g id="edge69" class="edge">
<title>&#45;14&#45;&gt;4</title>
<path fill="none" stroke="green" stroke-width="0.65" d="M212.95,-67.96C215.6,-67.1 218.36,-66.3 221,-65.7 361.44,-33.85 406.19,-74.64 543,-29.7 543.88,-29.41 544.76,-29.09 545.64,-28.73"/>
<polygon fill="green" stroke="green" stroke-width="0.65" points="547.36,-31.79 554.75,-24.21 544.24,-25.52 547.36,-31.79"/>
</g>
<!-- &#45;15 -->
<g id="node15" class="node">
<title>&#45;15</title>
<polygon fill="lightgray" stroke="black" points="259.5,-83.7 230.5,-83.7 230.5,-65.7 259.5,-65.7 259.5,-83.7"/>
<text text-anchor="middle" x="245" y="-72.5" font-family="Times New Roman,serif" font-size="9.00">&#45;15</text>
</g>
<!-- &#45;15&#45;&gt;0 -->
<g id="edge70" class="edge">
<title>&#45;15&#45;&gt;0</title>
<path fill="none" stroke="green" stroke-width="0.14" d="M259.98,-68.06C262.63,-67.19 265.38,-66.36 268,-65.7 367.07,-40.82 398.71,-63.8 495,-29.7 495.87,-29.39 496.75,-29.05 497.63,-28.68"/>
<polygon fill="green" stroke="green" stroke-width="0.14" points="499.37,-31.72 506.71,-24.09 496.21,-25.48 499.37,-31.72"/>
</g>
<!-- &#45;15&#45;&gt;1 -->
<g id="edge71" class="edge">
<title>&#45;15&#45;&gt;1</title>
<path fill="none" stroke="red" stroke-width="0.42" stroke-dasharray="1,5" d="M259.66,-67.17C282.27,-57.11 325.82,-37.73 352.46,-25.88"/>
<polygon fill="red" stroke="red" stroke-width="0.42" points="354.05,-29 361.76,-21.74 351.2,-22.61 354.05,-29"/>
</g>
<!-- &#45;15&#45;&gt;2 -->
<g id="edge72" class="edge">
<title>&#45;15&#45;&gt;2</title>
<path fill="none" stroke="green" stroke-width="0.17" d="M259.55,-68.47C262.35,-67.52 265.25,-66.55 268,-65.7 325.66,-47.77 343.29,-52.98 399,-29.7 399.85,-29.34 400.72,-28.96 401.58,-28.56"/>
<polygon fill="green" stroke="green" stroke-width="0.17" points="403.39,-31.56 410.6,-23.81 400.13,-25.37 403.39,-31.56"/>
</g>
<!-- &#45;15&#45;&gt;3 -->
<g id="edge73" class="edge">
<title>&#45;15&#45;&gt;3</title>
<path fill="none" stroke="green" stroke-width="0.43" d="M259.51,-68.32C262.3,-67.38 265.23,-66.46 268,-65.7 346.28,-44.32 371.08,-58.36 447,-29.7 447.87,-29.37 448.74,-29.02 449.61,-28.64"/>
<polygon fill="green" stroke="green" stroke-width="0.43" points="451.38,-31.66 458.68,-23.98 448.18,-25.44 451.38,-31.66"/>
</g>
<!-- &#45;15&#45;&gt;4 -->
<g id="edge74" class="edge">
<title>&#45;15&#45;&gt;4</title>
<path fill="none" stroke="red" stroke-width="0.75" d="M259.96,-68C262.61,-67.13 265.37,-66.32 268,-65.7 387.95,-37.3 426.26,-69.27 543,-29.7 543.88,-29.4 544.76,-29.07 545.64,-28.71"/>
<polygon fill="red" stroke="red" stroke-width="0.75" points="547.36,-31.76 554.74,-24.16 544.23,-25.5 547.36,-31.76"/>
</g>
<!-- &#45;16 -->
<g id="node16" class="node">
<title>&#45;16</title>
<polygon fill="lightgray" stroke="black" points="306.5,-83.7 277.5,-83.7 277.5,-65.7 306.5,-65.7 306.5,-83.7"/>
<text text-anchor="middle" x="292" y="-72.5" font-family="Times New Roman,serif" font-size="9.00">&#45;16</text>
</g>
<!-- &#45;16&#45;&gt;0 -->
<g id="edge75" class="edge">
<title>&#45;16&#45;&gt;0</title>
<path fill="none" stroke="red" stroke-width="0.31" d="M306.51,-68.31C309.3,-67.37 312.23,-66.45 315,-65.7 393.71,-44.25 418.66,-58.47 495,-29.7 495.87,-29.37 496.74,-29.02 497.61,-28.64"/>
<polygon fill="red" stroke="red" stroke-width="0.31" points="499.38,-31.66 506.68,-23.99 496.18,-25.44 499.38,-31.66"/>
</g>
<!-- &#45;16&#45;&gt;1 -->
<g id="edge76" class="edge">
<title>&#45;16&#45;&gt;1</title>
<path fill="none" stroke="green" stroke-width="0.12" d="M303.54,-65.65C316.85,-56.38 338.95,-40.98 355.05,-29.75"/>
<polygon fill="green" stroke="green" stroke-width="0.12" points="357.09,-32.6 363.29,-24.01 353.08,-26.86 357.09,-32.6"/>
</g>
<!-- &#45;16&#45;&gt;2 -->
<g id="edge77" class="edge">
<title>&#45;16&#45;&gt;2</title>
<path fill="none" stroke="green" stroke-width="0.21" d="M306.81,-68.32C327.72,-60.58 366.91,-45.47 399,-29.7 399.83,-29.29 400.67,-28.86 401.52,-28.43"/>
<polygon fill="green" stroke="green" stroke-width="0.21" points="403.39,-31.39 410.47,-23.5 400.02,-25.26 403.39,-31.39"/>
</g>
<!-- &#45;16&#45;&gt;3 -->
<g id="edge78" class="edge">
<title>&#45;16&#45;&gt;3</title>
<path fill="none" stroke="green" stroke-width="0.15" d="M306.55,-68.47C309.34,-67.51 312.25,-66.55 315,-65.7 373.08,-47.7 390.87,-53.09 447,-29.7 447.85,-29.34 448.72,-28.96 449.58,-28.56"/>
<polygon fill="green" stroke="green" stroke-width="0.15" points="451.39,-31.57 458.61,-23.81 448.13,-25.37 451.39,-31.57"/>
</g>
<!-- &#45;16&#45;&gt;4 -->
<g id="edge79" class="edge">
<title>&#45;16&#45;&gt;4</title>
<path fill="none" stroke="red" stroke-width="0.49" d="M306.98,-68.06C309.63,-67.19 312.38,-66.36 315,-65.7 414.51,-40.75 446.28,-63.91 543,-29.7 543.87,-29.39 544.75,-29.05 545.63,-28.68"/>
<polygon fill="red" stroke="red" stroke-width="0.49" points="547.37,-31.72 554.71,-24.09 544.21,-25.48 547.37,-31.72"/>
</g>
<!-- &#45;17 -->
<g id="node17" class="node">
<title>&#45;17</title>
<polygon fill="lightgray" stroke="black" points="353.5,-83.7 324.5,-83.7 324.5,-65.7 353.5,-65.7 353.5,-83.7"/>
<text text-anchor="middle" x="339" y="-72.5" font-family="Times New Roman,serif" font-size="9.00">&#45;17</text>
</g>
<!-- &#45;17&#45;&gt;0 -->
<g id="edge80" class="edge">
<title>&#45;17&#45;&gt;0</title>
<path fill="none" stroke="green" stroke-width="0.33" d="M353.55,-68.46C356.34,-67.51 359.25,-66.55 362,-65.7 420.51,-47.63 438.45,-53.2 495,-29.7 495.86,-29.34 496.72,-28.96 497.58,-28.56"/>
<polygon fill="green" stroke="green" stroke-width="0.33" points="499.39,-31.57 506.61,-23.82 496.13,-25.37 499.39,-31.57"/>
</g>
<!-- &#45;17&#45;&gt;1 -->
<g id="edge81" class="edge">
<title>&#45;17&#45;&gt;1</title>
<path fill="none" stroke="red" stroke-width="0.28" d="M344.01,-65.65C348.68,-58.14 355.86,-46.61 362.13,-36.53"/>
<polygon fill="red" stroke="red" stroke-width="0.28" points="365.22,-38.18 367.54,-27.84 359.28,-34.49 365.22,-38.18"/>
</g>
<!-- &#45;17&#45;&gt;2 -->
<g id="edge82" class="edge">
<title>&#45;17&#45;&gt;2</title>
<path fill="none" stroke="red" stroke-width="0.25" d="M350.68,-65.65C364.14,-56.38 386.51,-40.98 402.81,-29.75"/>
<polygon fill="red" stroke="red" stroke-width="0.25" points="404.9,-32.57 411.15,-24.01 400.93,-26.8 404.9,-32.57"/>
</g>
<!-- &#45;17&#45;&gt;3 -->
<g id="edge83" class="edge">
<title>&#45;17&#45;&gt;3</title>
<path fill="none" stroke="green" stroke-width="0.25" d="M353.6,-68.47C374.62,-60.79 414.45,-45.63 447,-29.7 447.83,-29.29 448.67,-28.87 449.52,-28.43"/>
<polygon fill="green" stroke="green" stroke-width="0.25" points="451.39,-31.39 458.47,-23.51 448.02,-25.26 451.39,-31.39"/>
</g>
<!-- &#45;17&#45;&gt;4 -->
<g id="edge84" class="edge">
<title>&#45;17&#45;&gt;4</title>
<path fill="none" stroke="red" stroke-width="0.47" d="M353.51,-68.31C356.3,-67.37 359.23,-66.45 362,-65.7 441.15,-44.17 466.23,-58.58 543,-29.7 543.87,-29.37 544.74,-29.02 545.61,-28.64"/>
<polygon fill="red" stroke="red" stroke-width="0.47" points="547.38,-31.67 554.68,-23.99 544.18,-25.44 547.38,-31.67"/>
</g>
<!-- &#45;18 -->
<g id="node18" class="node">
<title>&#45;18</title>
<polygon fill="lightgray" stroke="black" points="400.5,-83.7 371.5,-83.7 371.5,-65.7 400.5,-65.7 400.5,-83.7"/>
<text text-anchor="middle" x="386" y="-72.5" font-family="Times New Roman,serif" font-size="9.00">&#45;18</text>
</g>
<!-- &#45;18&#45;&gt;0 -->
<g id="edge85" class="edge">
<title>&#45;18&#45;&gt;0</title>
<path fill="none" stroke="green" stroke-width="0.26" d="M400.74,-68.49C421.96,-60.84 462.16,-45.7 495,-29.7 495.83,-29.29 496.68,-28.87 497.52,-28.43"/>
<polygon fill="green" stroke="green" stroke-width="0.26" points="499.39,-31.4 506.47,-23.52 496.02,-25.26 499.39,-31.4"/>
</g>
<!-- &#45;18&#45;&gt;1 -->
<g id="edge86" class="edge">
<title>&#45;18&#45;&gt;1</title>
<path fill="none" stroke="green" stroke-width="0.13" d="M384.47,-65.65C383.18,-58.89 381.28,-48.86 379.51,-39.57"/>
<polygon fill="green" stroke="green" stroke-width="0.13" points="382.92,-38.77 377.62,-29.6 376.05,-40.08 382.92,-38.77"/>
</g>
<!-- &#45;18&#45;&gt;2 -->
<g id="edge87" class="edge">
<title>&#45;18&#45;&gt;2</title>
<path fill="none" stroke="red" stroke-width="0.44" d="M391.14,-65.65C395.95,-58.14 403.33,-46.61 409.77,-36.53"/>
<polygon fill="red" stroke="red" stroke-width="0.44" points="412.89,-38.15 415.33,-27.84 406.99,-34.38 412.89,-38.15"/>
</g>
<!-- &#45;18&#45;&gt;3 -->
<g id="edge88" class="edge">
<title>&#45;18&#45;&gt;3</title>
<path fill="none" stroke="green" stroke-width="0.18" d="M397.82,-65.65C411.44,-56.38 434.08,-40.98 450.57,-29.75"/>
<polygon fill="green" stroke="green" stroke-width="0.18" points="452.71,-32.53 459.01,-24.01 448.77,-26.74 452.71,-32.53"/>
</g>
<!-- &#45;18&#45;&gt;4 -->
<g id="edge89" class="edge">
<title>&#45;18&#45;&gt;4</title>
<path fill="none" stroke="green" stroke-width="0.21" d="M400.68,-68.66C403.75,-67.64 406.97,-66.61 410,-65.7 468.63,-48.01 486.45,-53.2 543,-29.7 543.86,-29.34 544.72,-28.96 545.58,-28.56"/>
<polygon fill="green" stroke="green" stroke-width="0.21" points="547.39,-31.57 554.61,-23.82 544.13,-25.37 547.39,-31.57"/>
</g>
<!-- &#45;19 -->
<g id="node19" class="node">
<title>&#45;19</title>
<polygon fill="lightgray" stroke="black" points="447.5,-83.7 418.5,-83.7 418.5,-65.7 447.5,-65.7 447.5,-83.7"/>
<text text-anchor="middle" x="433" y="-72.5" font-family="Times New Roman,serif" font-size="9.00">&#45;19</text>
</g>
<!-- &#45;19&#45;&gt;0 -->
<g id="edge90" class="edge">
<title>&#45;19&#45;&gt;0</title>
<path fill="none" stroke="red" stroke-width="0.14" d="M444.96,-65.65C458.82,-56.33 481.9,-40.8 498.61,-29.56"/>
<polygon fill="red" stroke="red" stroke-width="0.14" points="500.8,-32.31 507.14,-23.82 496.89,-26.5 500.8,-32.31"/>
</g>
<!-- &#45;19&#45;&gt;1 -->
<g id="edge91" class="edge">
<title>&#45;19&#45;&gt;1</title>
<path fill="none" stroke="green" stroke-width="0.23" d="M424.94,-65.65C416.62,-57.36 403.39,-44.16 392.63,-33.44"/>
<polygon fill="green" stroke="green" stroke-width="0.23" points="394.9,-30.75 385.34,-26.17 389.95,-35.71 394.9,-30.75"/>
</g>
<!-- &#45;19&#45;&gt;2 -->
<g id="edge92" class="edge">
<title>&#45;19&#45;&gt;2</title>
<path fill="none" stroke="green" stroke-width="0.26" d="M431.61,-65.65C430.44,-58.89 428.71,-48.86 427.1,-39.57"/>
<polygon fill="green" stroke="green" stroke-width="0.26" points="430.53,-38.86 425.38,-29.6 423.63,-40.05 430.53,-38.86"/>
</g>
<!-- &#45;19&#45;&gt;3 -->
<g id="edge93" class="edge">
<title>&#45;19&#45;&gt;3</title>
<path fill="none" stroke="green" stroke-width="0.45" d="M438.28,-65.65C443.27,-58.07 450.95,-46.37 457.62,-36.22"/>
<polygon fill="green" stroke="green" stroke-width="0.45" points="460.56,-38.12 463.12,-27.84 454.7,-34.28 460.56,-38.12"/>
</g>
<!-- &#45;19&#45;&gt;4 -->
<g id="edge94" class="edge">
<title>&#45;19&#45;&gt;4</title>
<path fill="none" stroke="red" stroke-width="0.62" d="M447.52,-68.64C468.84,-61.05 509.69,-45.87 543,-29.7 543.83,-29.29 544.68,-28.87 545.52,-28.44"/>
<polygon fill="red" stroke="red" stroke-width="0.62" points="547.39,-31.4 554.48,-23.53 544.03,-25.27 547.39,-31.4"/>
</g>
<!-- &#45;20 -->
<g id="node20" class="node">
<title>&#45;20</title>
<polygon fill="lightgray" stroke="black" points="494.5,-83.7 465.5,-83.7 465.5,-65.7 494.5,-65.7 494.5,-83.7"/>
<text text-anchor="middle" x="480" y="-72.5" font-family="Times New Roman,serif" font-size="9.00">&#45;20</text>
</g>
<!-- &#45;20&#45;&gt;0 -->
<g id="edge95" class="edge">
<title>&#45;20&#45;&gt;0</title>
<path fill="none" stroke="red" stroke-width="0.55" d="M485.42,-65.65C490.54,-58.07 498.42,-46.37 505.26,-36.22"/>
<polygon fill="red" stroke="red" stroke-width="0.55" points="508.23,-38.09 510.91,-27.84 502.42,-34.18 508.23,-38.09"/>
</g>
<!-- &#45;20&#45;&gt;1 -->
<g id="edge96" class="edge">
<title>&#45;20&#45;&gt;1</title>
<path fill="none" stroke="green" stroke-width="0.14" d="M465.3,-65.86C449.03,-57.15 422.04,-42.6 399,-29.7 398.19,-29.25 397.37,-28.78 396.54,-28.31"/>
<polygon fill="green" stroke="green" stroke-width="0.14" points="398.09,-25.17 387.67,-23.24 394.61,-31.24 398.09,-25.17"/>
</g>
<!-- &#45;20&#45;&gt;2 -->
<g id="edge97" class="edge">
<title>&#45;20&#45;&gt;2</title>
<path fill="none" stroke="red" stroke-width="0.49" d="M472.07,-65.65C463.9,-57.36 450.9,-44.16 440.33,-33.44"/>
<polygon fill="red" stroke="red" stroke-width="0.49" points="442.68,-30.83 433.17,-26.17 437.69,-35.75 442.68,-30.83"/>
</g>
<!-- &#45;20&#45;&gt;3 -->
<g id="edge98" class="edge">
<title>&#45;20&#45;&gt;3</title>
<path fill="none" stroke="green" stroke-width="0.38" d="M478.75,-65.65C477.7,-58.89 476.14,-48.86 474.69,-39.57"/>
<polygon fill="green" stroke="green" stroke-width="0.38" points="478.14,-38.95 473.14,-29.6 471.22,-40.02 478.14,-38.95"/>
</g>
<!-- &#45;20&#45;&gt;4 -->
<g id="edge99" class="edge">
<title>&#45;20&#45;&gt;4</title>
<path fill="none" stroke="red" stroke-width="0.34" d="M492.1,-65.65C506.12,-56.33 529.47,-40.8 546.38,-29.56"/>
<polygon fill="red" stroke="red" stroke-width="0.34" points="548.62,-32.28 555.01,-23.82 544.74,-26.45 548.62,-32.28"/>
</g>
</g>
</svg>
