<?xml version="1.0" encoding="UTF-8" standalone="no"?>
<!DOCTYPE svg PUBLIC "-//W3C//DTD SVG 1.1//EN"
 "http://www.w3.org/Graphics/SVG/1.1/DTD/svg11.dtd">
<!-- Generated by graphviz version 2.49.0 (20210828.1703)
 -->
<!-- Pages: 1 -->
<svg width="1018pt" height="164pt"
 viewBox="0.00 0.00 1018.37 164.47" xmlns="http://www.w3.org/2000/svg" xmlns:xlink="http://www.w3.org/1999/xlink">
<g id="graph0" class="graph" transform="scale(1 1) rotate(0) translate(4 160.47)">
<polygon fill="white" stroke="transparent" points="-4,4 -4,-160.47 1014.37,-160.47 1014.37,4 -4,4"/>
<!-- &#45;1 -->
<g id="node1" class="node">
<title>&#45;1</title>
<polygon fill="lightgray" stroke="black" points="765.12,-93.08 741.12,-93.08 741.12,-75.08 765.12,-75.08 765.12,-93.08"/>
<text text-anchor="middle" x="753.12" y="-81.88" font-family="Times New Roman,serif" font-size="9.00">&#45;1</text>
</g>
<!-- 0 -->
<g id="node21" class="node">
<title>0</title>
<ellipse fill="lightblue" stroke="black" cx="529.12" cy="-14.85" rx="14.7" ry="14.7"/>
<text text-anchor="middle" x="529.12" y="-12.65" font-family="Times New Roman,serif" font-size="9.00">0</text>
</g>
<!-- &#45;1&#45;&gt;0 -->
<g id="edge1" class="edge">
<title>&#45;1&#45;&gt;0</title>
<path fill="none" stroke="green" stroke-width="0.35" d="M745.2,-74.94C741.52,-71.59 736.9,-67.98 732.12,-65.7 658.87,-30.77 629.04,-58.36 553.12,-29.7 552.25,-29.37 551.38,-29.02 550.51,-28.64"/>
<polygon fill="green" stroke="green" stroke-width="0.35" points="551.94,-25.44 541.44,-23.98 548.74,-31.66 551.94,-25.44"/>
</g>
<!-- 1 -->
<g id="node22" class="node">
<title>1</title>
<ellipse fill="lightblue" stroke="black" cx="433.12" cy="-14.85" rx="14.7" ry="14.7"/>
<text text-anchor="middle" x="433.12" y="-12.65" font-family="Times New Roman,serif" font-size="9.00">1</text>
</g>
<!-- &#45;1&#45;&gt;1 -->
<g id="edge2" class="edge">
<title>&#45;1&#45;&gt;1</title>
<path fill="none" stroke="red" stroke-width="0.22" d="M745.27,-74.78C741.61,-71.41 736.98,-67.82 732.12,-65.7 619.11,-16.47 573.86,-69.27 457.12,-29.7 456.24,-29.4 455.36,-29.07 454.48,-28.71"/>
<polygon fill="red" stroke="red" stroke-width="0.22" points="455.89,-25.5 445.38,-24.16 452.76,-31.76 455.89,-25.5"/>
</g>
<!-- 2 -->
<g id="node23" class="node">
<title>2</title>
<ellipse fill="lightblue" stroke="black" cx="481.12" cy="-14.85" rx="14.7" ry="14.7"/>
<text text-anchor="middle" x="481.12" y="-12.65" font-family="Times New Roman,serif" font-size="9.00">2</text>
</g>
<!-- &#45;1&#45;&gt;2 -->
<g id="edge3" class="edge">
<title>&#45;1&#45;&gt;2</title>
<path fill="none" stroke="green" stroke-width="0.41" d="M745.25,-74.84C741.57,-71.48 736.95,-67.88 732.12,-65.7 639.03,-23.64 601.41,-63.8 505.12,-29.7 504.25,-29.39 503.37,-29.05 502.49,-28.68"/>
<polygon fill="green" stroke="green" stroke-width="0.41" points="503.91,-25.48 493.41,-24.09 500.75,-31.72 503.91,-25.48"/>
</g>
<!-- 3 -->
<g id="node24" class="node">
<title>3</title>
<ellipse fill="lightblue" stroke="black" cx="577.12" cy="-14.85" rx="14.7" ry="14.7"/>
<text text-anchor="middle" x="577.12" y="-12.65" font-family="Times New Roman,serif" font-size="9.00">3</text>
</g>
<!-- &#45;1&#45;&gt;3 -->
<g id="edge4" class="edge">
<title>&#45;1&#45;&gt;3</title>
<path fill="none" stroke="red" stroke-width="0.39" d="M744.73,-74.74C741.1,-71.52 736.65,-68.06 732.12,-65.7 678.56,-37.82 656.83,-52.98 601.12,-29.7 600.27,-29.34 599.4,-28.96 598.54,-28.56"/>
<polygon fill="red" stroke="red" stroke-width="0.39" points="599.99,-25.37 589.52,-23.81 596.73,-31.56 599.99,-25.37"/>
</g>
<!-- 4 -->
<g id="node25" class="node">
<title>4</title>
<ellipse fill="lightblue" stroke="black" cx="625.12" cy="-14.85" rx="14.7" ry="14.7"/>
<text text-anchor="middle" x="625.12" y="-12.65" font-family="Times New Roman,serif" font-size="9.00">4</text>
</g>
<!-- &#45;1&#45;&gt;4 -->
<g id="edge5" class="edge">
<title>&#45;1&#45;&gt;4</title>
<path fill="none" stroke="green" stroke-width="0.14" d="M744.1,-74.76C740.53,-71.69 736.28,-68.33 732.12,-65.7 704.78,-48.42 670.48,-33.5 648.2,-24.59"/>
<polygon fill="green" stroke="green" stroke-width="0.14" points="649.46,-21.33 638.87,-20.94 646.9,-27.85 649.46,-21.33"/>
</g>
<!-- &#45;2 -->
<g id="node2" class="node">
<title>&#45;2</title>
<polygon fill="lightgray" stroke="black" points="807.12,-93.08 783.12,-93.08 783.12,-75.08 807.12,-75.08 807.12,-93.08"/>
<text text-anchor="middle" x="795.12" y="-81.88" font-family="Times New Roman,serif" font-size="9.00">&#45;2</text>
</g>
<!-- &#45;2&#45;&gt;0 -->
<g id="edge6" class="edge">
<title>&#45;2&#45;&gt;0</title>
<path fill="none" stroke="red" stroke-width="0.34" d="M787.24,-74.85C783.57,-71.49 778.95,-67.89 774.12,-65.7 683.52,-24.53 646.86,-63.11 553.12,-29.7 552.25,-29.39 551.37,-29.05 550.49,-28.68"/>
<polygon fill="red" stroke="red" stroke-width="0.34" points="551.91,-25.47 541.41,-24.08 548.75,-31.72 551.91,-25.47"/>
</g>
<!-- &#45;2&#45;&gt;1 -->
<g id="edge7" class="edge">
<title>&#45;2&#45;&gt;1</title>
<path fill="none" stroke="green" stroke-width="0.28" d="M787.29,-74.74C783.63,-71.36 779,-67.77 774.12,-65.7 643.64,-10.18 591.79,-74.06 457.12,-29.7 456.24,-29.41 455.36,-29.08 454.48,-28.73"/>
<polygon fill="green" stroke="green" stroke-width="0.28" points="455.88,-25.52 445.37,-24.2 452.76,-31.79 455.88,-25.52"/>
</g>
<!-- &#45;2&#45;&gt;2 -->
<g id="edge8" class="edge">
<title>&#45;2&#45;&gt;2</title>
<path fill="none" stroke="green" stroke-width="0.3" d="M787.27,-74.79C783.6,-71.42 778.98,-67.82 774.12,-65.7 663.6,-17.37 619.3,-68.58 505.12,-29.7 504.24,-29.4 503.36,-29.07 502.48,-28.71"/>
<polygon fill="green" stroke="green" stroke-width="0.3" points="503.89,-25.5 493.38,-24.15 500.76,-31.76 503.89,-25.5"/>
</g>
<!-- &#45;2&#45;&gt;3 -->
<g id="edge9" class="edge">
<title>&#45;2&#45;&gt;3</title>
<path fill="none" stroke="red" stroke-width="0.2" d="M787.2,-74.95C783.51,-71.61 778.9,-68 774.12,-65.7 703.35,-31.66 674.5,-57.68 601.12,-29.7 600.25,-29.37 599.38,-29.01 598.51,-28.63"/>
<polygon fill="red" stroke="red" stroke-width="0.2" points="599.94,-25.43 589.45,-23.97 596.74,-31.65 599.94,-25.43"/>
</g>
<!-- &#45;2&#45;&gt;4 -->
<g id="edge10" class="edge">
<title>&#45;2&#45;&gt;4</title>
<path fill="none" stroke="red" stroke-width="0.48" d="M786.66,-74.86C783.02,-71.66 778.59,-68.18 774.12,-65.7 733.17,-42.94 680.1,-28.28 649.61,-21.1"/>
<polygon fill="red" stroke="red" stroke-width="0.48" points="650.34,-17.68 639.82,-18.87 648.79,-24.5 650.34,-17.68"/>
</g>
<!-- &#45;3 -->
<g id="node3" class="node">
<title>&#45;3</title>
<polygon fill="lightgray" stroke="black" points="849.12,-93.08 825.12,-93.08 825.12,-75.08 849.12,-75.08 849.12,-93.08"/>
<text text-anchor="middle" x="837.12" y="-81.88" font-family="Times New Roman,serif" font-size="9.00">&#45;3</text>
</g>
<!-- &#45;3&#45;&gt;0 -->
<g id="edge11" class="edge">
<title>&#45;3&#45;&gt;0</title>
<path fill="none" stroke="green" stroke-width="0.28" d="M829.27,-74.79C825.6,-71.42 820.97,-67.83 816.12,-65.7 708.1,-18.26 664.74,-67.9 553.12,-29.7 552.24,-29.4 551.36,-29.07 550.48,-28.71"/>
<polygon fill="green" stroke="green" stroke-width="0.28" points="551.89,-25.5 541.39,-24.14 548.76,-31.75 551.89,-25.5"/>
</g>
<!-- &#45;3&#45;&gt;1 -->
<g id="edge12" class="edge">
<title>&#45;3&#45;&gt;1</title>
<path fill="none" stroke="red" stroke-width="0.37" d="M829.69,-75.07C825.97,-71.58 821.19,-67.81 816.12,-65.7 668.16,-3.89 609.75,-78.87 457.12,-29.7 456.07,-29.36 455.01,-28.97 453.96,-28.54"/>
<polygon fill="red" stroke="red" stroke-width="0.37" points="455.37,-25.33 444.86,-23.95 452.21,-31.58 455.37,-25.33"/>
</g>
<!-- &#45;3&#45;&gt;2 -->
<g id="edge13" class="edge">
<title>&#45;3&#45;&gt;2</title>
<path fill="none" stroke="red" stroke-width="0.15" d="M829.29,-74.74C825.62,-71.37 821,-67.78 816.12,-65.7 688.14,-11.08 637.23,-73.38 505.12,-29.7 504.24,-29.41 503.36,-29.08 502.48,-28.73"/>
<polygon fill="red" stroke="red" stroke-width="0.15" points="503.88,-25.52 493.37,-24.2 500.76,-31.79 503.88,-25.52"/>
</g>
<!-- &#45;3&#45;&gt;3 -->
<g id="edge14" class="edge">
<title>&#45;3&#45;&gt;3</title>
<path fill="none" stroke="green" stroke-width="0.35" d="M829.24,-74.86C825.56,-71.51 820.94,-67.9 816.12,-65.7 728,-25.42 692.31,-62.43 601.12,-29.7 600.25,-29.39 599.37,-29.04 598.5,-28.67"/>
<polygon fill="green" stroke="green" stroke-width="0.35" points="599.92,-25.47 589.41,-24.07 596.75,-31.71 599.92,-25.47"/>
</g>
<!-- &#45;3&#45;&gt;4 -->
<g id="edge15" class="edge">
<title>&#45;3&#45;&gt;4</title>
<path fill="none" stroke="red" stroke-width="0.31" d="M829.14,-75.06C825.45,-71.74 820.84,-68.12 816.12,-65.7 760.6,-37.26 687.46,-24.06 649.84,-18.81"/>
<polygon fill="red" stroke="red" stroke-width="0.31" points="650.16,-15.32 639.78,-17.48 649.24,-22.26 650.16,-15.32"/>
</g>
<!-- &#45;4 -->
<g id="node4" class="node">
<title>&#45;4</title>
<polygon fill="lightgray" stroke="black" points="891.12,-93.08 867.12,-93.08 867.12,-75.08 891.12,-75.08 891.12,-93.08"/>
<text text-anchor="middle" x="879.12" y="-81.88" font-family="Times New Roman,serif" font-size="9.00">&#45;4</text>
</g>
<!-- &#45;4&#45;&gt;0 -->
<g id="edge16" class="edge">
<title>&#45;4&#45;&gt;0</title>
<path fill="none" stroke="red" stroke-width="0.44" d="M871.29,-74.75C867.62,-71.37 862.99,-67.78 858.12,-65.7 732.64,-11.98 682.67,-72.69 553.12,-29.7 552.24,-29.41 551.36,-29.08 550.48,-28.73"/>
<polygon fill="red" stroke="red" stroke-width="0.44" points="551.88,-25.52 541.37,-24.19 548.76,-31.78 551.88,-25.52"/>
</g>
<!-- &#45;4&#45;&gt;1 -->
<g id="edge17" class="edge">
<title>&#45;4&#45;&gt;1</title>
<path fill="none" stroke="red" stroke-width="0.43" d="M871.7,-75.05C867.98,-71.55 863.2,-67.79 858.12,-65.7 692.65,2.42 627.72,-83.68 457.12,-29.7 456.06,-29.36 455.01,-28.98 453.95,-28.55"/>
<polygon fill="red" stroke="red" stroke-width="0.43" points="455.36,-25.34 444.85,-23.97 452.21,-31.6 455.36,-25.34"/>
</g>
<!-- &#45;4&#45;&gt;2 -->
<g id="edge18" class="edge">
<title>&#45;4&#45;&gt;2</title>
<path fill="none" stroke="green" stroke-width="0.36" d="M871.69,-75.07C867.97,-71.59 863.18,-67.82 858.12,-65.7 712.66,-4.79 655.18,-78.18 505.12,-29.7 504.07,-29.36 503.01,-28.97 501.96,-28.54"/>
<polygon fill="green" stroke="green" stroke-width="0.36" points="503.37,-25.33 492.86,-23.94 500.21,-31.58 503.37,-25.33"/>
</g>
<!-- &#45;4&#45;&gt;3 -->
<g id="edge19" class="edge">
<title>&#45;4&#45;&gt;3</title>
<path fill="none" stroke="green" stroke-width="0.35" d="M871.27,-74.8C867.6,-71.43 862.97,-67.84 858.12,-65.7 752.59,-19.16 710.19,-67.21 601.12,-29.7 600.24,-29.4 599.36,-29.06 598.49,-28.7"/>
<polygon fill="green" stroke="green" stroke-width="0.35" points="599.9,-25.49 589.39,-24.14 596.76,-31.75 599.9,-25.49"/>
</g>
<!-- &#45;4&#45;&gt;4 -->
<g id="edge20" class="edge">
<title>&#45;4&#45;&gt;4</title>
<path fill="none" stroke="green" stroke-width="0.27" d="M871.19,-74.96C867.51,-71.63 862.89,-68.01 858.12,-65.7 787.76,-31.61 694.31,-20.69 650.2,-17.3"/>
<polygon fill="green" stroke="green" stroke-width="0.27" points="650.31,-13.8 640.09,-16.59 649.82,-20.78 650.31,-13.8"/>
</g>
<!-- &#45;5 -->
<g id="node5" class="node">
<title>&#45;5</title>
<polygon fill="lightgray" stroke="black" points="933.12,-93.08 909.12,-93.08 909.12,-75.08 933.12,-75.08 933.12,-93.08"/>
<text text-anchor="middle" x="921.12" y="-81.88" font-family="Times New Roman,serif" font-size="9.00">&#45;5</text>
</g>
<!-- &#45;5&#45;&gt;0 -->
<g id="edge21" class="edge">
<title>&#45;5&#45;&gt;0</title>
<path fill="none" stroke="red" stroke-width="0.28" d="M913.69,-75.08C909.97,-71.59 905.18,-67.82 900.12,-65.7 757.15,-5.69 700.62,-77.5 553.12,-29.7 552.07,-29.36 551.01,-28.97 549.96,-28.54"/>
<polygon fill="red" stroke="red" stroke-width="0.28" points="551.37,-25.33 540.87,-23.94 548.21,-31.57 551.37,-25.33"/>
</g>
<!-- &#45;5&#45;&gt;1 -->
<g id="edge22" class="edge">
<title>&#45;5&#45;&gt;1</title>
<path fill="none" stroke="red" stroke-width="0.24" d="M913.71,-75.03C909.99,-71.53 905.21,-67.77 900.12,-65.7 717.14,8.72 645.7,-88.5 457.12,-29.7 456.06,-29.37 455,-28.99 453.95,-28.56"/>
<polygon fill="red" stroke="red" stroke-width="0.24" points="455.35,-25.35 444.85,-24 452.21,-31.61 455.35,-25.35"/>
</g>
<!-- &#45;5&#45;&gt;2 -->
<g id="edge23" class="edge">
<title>&#45;5&#45;&gt;2</title>
<path fill="none" stroke="red" stroke-width="0.21" d="M913.7,-75.05C909.98,-71.56 905.2,-67.79 900.12,-65.7 737.15,1.52 673.15,-82.99 505.12,-29.7 504.07,-29.36 503.01,-28.98 501.95,-28.55"/>
<polygon fill="red" stroke="red" stroke-width="0.21" points="503.36,-25.34 492.85,-23.97 500.21,-31.59 503.36,-25.34"/>
</g>
<!-- &#45;5&#45;&gt;3 -->
<g id="edge24" class="edge">
<title>&#45;5&#45;&gt;3</title>
<path fill="none" stroke="green" stroke-width="0.16" d="M913.28,-74.76C909.62,-71.38 904.99,-67.79 900.12,-65.7 777.13,-12.88 728.11,-72.01 601.12,-29.7 600.24,-29.41 599.36,-29.08 598.48,-28.72"/>
<polygon fill="green" stroke="green" stroke-width="0.16" points="599.88,-25.51 589.37,-24.19 596.76,-31.78 599.88,-25.51"/>
</g>
<!-- &#45;5&#45;&gt;4 -->
<g id="edge25" class="edge">
<title>&#45;5&#45;&gt;4</title>
<path fill="none" stroke="red" stroke-width="0.36" d="M913.22,-74.89C909.55,-71.54 904.93,-67.93 900.12,-65.7 814.64,-25.93 700.49,-17.81 650.44,-16.21"/>
<polygon fill="red" stroke="red" stroke-width="0.36" points="650.31,-12.71 640.23,-15.95 650.13,-19.7 650.31,-12.71"/>
</g>
<!-- &#45;6 -->
<g id="node6" class="node">
<title>&#45;6</title>
<polygon fill="lightgray" stroke="black" points="975.12,-93.08 951.12,-93.08 951.12,-75.08 975.12,-75.08 975.12,-93.08"/>
<text text-anchor="middle" x="963.12" y="-81.88" font-family="Times New Roman,serif" font-size="9.00">&#45;6</text>
</g>
<!-- &#45;6&#45;&gt;0 -->
<g id="edge26" class="edge">
<title>&#45;6&#45;&gt;0</title>
<path fill="none" stroke="green" stroke-width="0.18" d="M955.7,-75.05C951.98,-71.56 947.19,-67.8 942.12,-65.7 781.65,0.62 718.59,-82.31 553.12,-29.7 552.07,-29.36 551.01,-28.98 549.95,-28.55"/>
<polygon fill="green" stroke="green" stroke-width="0.18" points="551.36,-25.34 540.86,-23.97 548.21,-31.59 551.36,-25.34"/>
</g>
<!-- &#45;6&#45;&gt;1 -->
<g id="edge27" class="edge">
<title>&#45;6&#45;&gt;1</title>
<path fill="none" stroke="green" stroke-width="0.31" d="M955.72,-75.01C952,-71.51 947.21,-67.75 942.12,-65.7 741.61,15.04 663.7,-93.31 457.12,-29.7 456.06,-29.37 455,-28.99 453.95,-28.57"/>
<polygon fill="green" stroke="green" stroke-width="0.31" points="455.35,-25.36 444.84,-24.01 452.22,-31.62 455.35,-25.36"/>
</g>
<!-- &#45;6&#45;&gt;2 -->
<g id="edge28" class="edge">
<title>&#45;6&#45;&gt;2</title>
<path fill="none" stroke="red" stroke-width="0.17" d="M955.71,-75.03C951.99,-71.53 947.2,-67.77 942.12,-65.7 761.64,7.82 691.13,-87.81 505.12,-29.7 504.06,-29.37 503,-28.99 501.95,-28.56"/>
<polygon fill="red" stroke="red" stroke-width="0.17" points="503.35,-25.35 492.85,-23.99 500.21,-31.61 503.35,-25.35"/>
</g>
<!-- &#45;6&#45;&gt;3 -->
<g id="edge29" class="edge">
<title>&#45;6&#45;&gt;3</title>
<path fill="none" stroke="green" stroke-width="0.28" d="M955.69,-75.08C951.97,-71.6 947.18,-67.83 942.12,-65.7 801.65,-6.59 746.05,-76.81 601.12,-29.7 600.07,-29.36 599.01,-28.96 597.96,-28.53"/>
<polygon fill="green" stroke="green" stroke-width="0.28" points="599.37,-25.32 588.87,-23.93 596.21,-31.57 599.37,-25.32"/>
</g>
<!-- &#45;6&#45;&gt;4 -->
<g id="edge30" class="edge">
<title>&#45;6&#45;&gt;4</title>
<path fill="none" stroke="red" stroke-width="0.23" d="M955.25,-74.84C951.58,-71.48 946.95,-67.88 942.12,-65.7 841.16,-20.16 705.83,-15.29 650.4,-15.38"/>
<polygon fill="red" stroke="red" stroke-width="0.23" points="650.09,-11.88 640.12,-15.46 650.15,-18.88 650.09,-11.88"/>
</g>
<!-- &#45;7 -->
<g id="node7" class="node">
<title>&#45;7</title>
<polygon fill="lightgray" stroke="black" points="176.12,-93.08 152.12,-93.08 152.12,-75.08 176.12,-75.08 176.12,-93.08"/>
<text text-anchor="middle" x="164.12" y="-81.88" font-family="Times New Roman,serif" font-size="9.00">&#45;7</text>
</g>
<!-- &#45;7&#45;&gt;0 -->
<g id="edge31" class="edge">
<title>&#45;7&#45;&gt;0</title>
<path fill="none" stroke="red" stroke-width="0.19" d="M171.95,-74.74C175.61,-71.36 180.24,-67.77 185.12,-65.7 316.84,-9.73 369.16,-74.41 505.12,-29.7 506,-29.41 506.88,-29.09 507.76,-28.73"/>
<polygon fill="red" stroke="red" stroke-width="0.19" points="509.48,-31.79 516.87,-24.21 506.36,-25.52 509.48,-31.79"/>
</g>
<!-- &#45;7&#45;&gt;1 -->
<g id="edge32" class="edge">
<title>&#45;7&#45;&gt;1</title>
<path fill="none" stroke="green" stroke-width="0.24" d="M172.04,-74.94C175.72,-71.59 180.33,-67.98 185.12,-65.7 260.9,-29.56 361.8,-19.6 408.04,-16.87"/>
<polygon fill="green" stroke="green" stroke-width="0.24" points="408.27,-20.36 418.07,-16.34 407.9,-13.37 408.27,-20.36"/>
</g>
<!-- &#45;7&#45;&gt;2 -->
<g id="edge33" class="edge">
<title>&#45;7&#45;&gt;2</title>
<path fill="none" stroke="red" stroke-width="0.3" d="M171.97,-74.78C175.63,-71.41 180.26,-67.82 185.12,-65.7 296.88,-16.92 341.66,-68.92 457.12,-29.7 458,-29.4 458.88,-29.07 459.76,-28.71"/>
<polygon fill="red" stroke="red" stroke-width="0.3" points="461.48,-31.76 468.86,-24.15 458.35,-25.5 461.48,-31.76"/>
</g>
<!-- &#45;7&#45;&gt;3 -->
<g id="edge34" class="edge">
<title>&#45;7&#45;&gt;3</title>
<path fill="none" stroke="red" stroke-width="0.16" d="M171.54,-75.07C175.26,-71.58 180.05,-67.81 185.12,-65.7 336.83,-2.54 396.64,-79.9 553.12,-29.7 554.17,-29.36 555.23,-28.97 556.28,-28.54"/>
<polygon fill="red" stroke="red" stroke-width="0.16" points="558.03,-31.58 565.38,-23.95 554.87,-25.33 558.03,-31.58"/>
</g>
<!-- &#45;7&#45;&gt;4 -->
<g id="edge35" class="edge">
<title>&#45;7&#45;&gt;4</title>
<path fill="none" stroke="green" stroke-width="0.33" d="M171.53,-75.04C175.25,-71.54 180.04,-67.78 185.12,-65.7 356.84,4.67 424.1,-85.4 601.12,-29.7 602.18,-29.37 603.23,-28.98 604.29,-28.56"/>
<polygon fill="green" stroke="green" stroke-width="0.33" points="606.03,-31.6 613.39,-23.98 602.88,-25.35 606.03,-31.6"/>
</g>
<!-- &#45;8 -->
<g id="node8" class="node">
<title>&#45;8</title>
<polygon fill="lightgray" stroke="black" points="218.12,-93.08 194.12,-93.08 194.12,-75.08 218.12,-75.08 218.12,-93.08"/>
<text text-anchor="middle" x="206.12" y="-81.88" font-family="Times New Roman,serif" font-size="9.00">&#45;8</text>
</g>
<!-- &#45;8&#45;&gt;0 -->
<g id="edge36" class="edge">
<title>&#45;8&#45;&gt;0</title>
<path fill="none" stroke="green" stroke-width="0.22" d="M213.96,-74.78C217.63,-71.4 222.26,-67.81 227.12,-65.7 341.37,-16.02 387.1,-69.61 505.12,-29.7 506,-29.4 506.88,-29.07 507.76,-28.71"/>
<polygon fill="green" stroke="green" stroke-width="0.22" points="509.48,-31.77 516.86,-24.16 506.35,-25.5 509.48,-31.77"/>
</g>
<!-- &#45;8&#45;&gt;1 -->
<g id="edge37" class="edge">
<title>&#45;8&#45;&gt;1</title>
<path fill="none" stroke="green" stroke-width="0.18" d="M214.08,-75.02C217.77,-71.7 222.38,-68.07 227.12,-65.7 287.86,-35.27 368.15,-22.8 408.18,-18.22"/>
<polygon fill="green" stroke="green" stroke-width="0.18" points="408.79,-21.67 418.36,-17.12 408.04,-14.71 408.79,-21.67"/>
</g>
<!-- &#45;8&#45;&gt;2 -->
<g id="edge38" class="edge">
<title>&#45;8&#45;&gt;2</title>
<path fill="none" stroke="green" stroke-width="0.26" d="M213.99,-74.84C217.66,-71.48 222.29,-67.88 227.12,-65.7 321.45,-23.19 359.55,-64.14 457.12,-29.7 457.99,-29.39 458.87,-29.05 459.75,-28.68"/>
<polygon fill="green" stroke="green" stroke-width="0.26" points="461.49,-31.73 468.84,-24.09 458.33,-25.48 461.49,-31.73"/>
</g>
<!-- &#45;8&#45;&gt;3 -->
<g id="edge39" class="edge">
<title>&#45;8&#45;&gt;3</title>
<path fill="none" stroke="green" stroke-width="0.3" d="M213.95,-74.73C217.61,-71.35 222.24,-67.77 227.12,-65.7 361.34,-8.83 414.6,-75.09 553.12,-29.7 554,-29.41 554.88,-29.09 555.76,-28.74"/>
<polygon fill="green" stroke="green" stroke-width="0.3" points="557.48,-31.79 564.88,-24.21 554.36,-25.52 557.48,-31.79"/>
</g>
<!-- &#45;8&#45;&gt;4 -->
<g id="edge40" class="edge">
<title>&#45;8&#45;&gt;4</title>
<path fill="none" stroke="green" stroke-width="0.2" d="M213.54,-75.06C217.26,-71.57 222.05,-67.8 227.12,-65.7 381.33,-1.64 442.07,-80.59 601.12,-29.7 602.17,-29.36 603.23,-28.97 604.29,-28.55"/>
<polygon fill="green" stroke="green" stroke-width="0.2" points="606.03,-31.59 613.38,-23.96 602.88,-25.34 606.03,-31.59"/>
</g>
<!-- &#45;9 -->
<g id="node9" class="node">
<title>&#45;9</title>
<polygon fill="lightgray" stroke="black" points="260.12,-93.08 236.12,-93.08 236.12,-75.08 260.12,-75.08 260.12,-93.08"/>
<text text-anchor="middle" x="248.12" y="-81.88" font-family="Times New Roman,serif" font-size="9.00">&#45;9</text>
</g>
<!-- &#45;9&#45;&gt;0 -->
<g id="edge41" class="edge">
<title>&#45;9&#45;&gt;0</title>
<path fill="none" stroke="red" stroke-width="0.18" d="M256.43,-74.83C260.28,-71.47 265.12,-67.87 270.12,-65.7 367.01,-23.54 405.42,-64.71 505.12,-29.7 505.99,-29.39 506.87,-29.05 507.75,-28.69"/>
<polygon fill="red" stroke="red" stroke-width="0.18" points="509.49,-31.73 516.84,-24.1 506.33,-25.48 509.49,-31.73"/>
</g>
<!-- &#45;9&#45;&gt;1 -->
<g id="edge42" class="edge">
<title>&#45;9&#45;&gt;1</title>
<path fill="none" stroke="red" stroke-width="0.15" d="M257.01,-74.82C260.82,-71.61 265.46,-68.14 270.12,-65.7 316.04,-41.63 375.45,-27.16 408.38,-20.42"/>
<polygon fill="red" stroke="red" stroke-width="0.15" points="409.34,-23.8 418.47,-18.43 407.98,-16.93 409.34,-23.8"/>
</g>
<!-- &#45;9&#45;&gt;2 -->
<g id="edge43" class="edge">
<title>&#45;9&#45;&gt;2</title>
<path fill="none" stroke="green" stroke-width="0.16" d="M256.47,-74.92C260.33,-71.58 265.16,-67.97 270.12,-65.7 347.07,-30.46 377.81,-59.26 457.12,-29.7 457.99,-29.38 458.86,-29.02 459.73,-28.65"/>
<polygon fill="green" stroke="green" stroke-width="0.16" points="461.5,-31.68 468.8,-24 458.31,-25.44 461.5,-31.68"/>
</g>
<!-- &#45;9&#45;&gt;3 -->
<g id="edge44" class="edge">
<title>&#45;9&#45;&gt;3</title>
<path fill="none" stroke="green" stroke-width="0.25" d="M256.4,-74.77C260.25,-71.4 265.09,-67.81 270.12,-65.7 387.02,-16.6 432.96,-70.18 553.12,-29.7 554,-29.4 554.88,-29.07 555.76,-28.72"/>
<polygon fill="green" stroke="green" stroke-width="0.25" points="557.48,-31.77 564.86,-24.17 554.35,-25.51 557.48,-31.77"/>
</g>
<!-- &#45;9&#45;&gt;4 -->
<g id="edge45" class="edge">
<title>&#45;9&#45;&gt;4</title>
<path fill="none" stroke="green" stroke-width="0.1" d="M256.38,-74.73C260.23,-71.35 265.07,-67.76 270.12,-65.7 407.07,-9.64 460.46,-75.67 601.12,-29.7 602,-29.41 602.88,-29.09 603.76,-28.74"/>
<polygon fill="green" stroke="green" stroke-width="0.1" points="605.48,-31.8 612.88,-24.22 602.36,-25.53 605.48,-31.8"/>
</g>
<!-- &#45;10 -->
<g id="node10" class="node">
<title>&#45;10</title>
<polygon fill="lightgray" stroke="black" points="307.62,-93.08 278.62,-93.08 278.62,-75.08 307.62,-75.08 307.62,-93.08"/>
<text text-anchor="middle" x="293.12" y="-81.88" font-family="Times New Roman,serif" font-size="9.00">&#45;10</text>
</g>
<!-- &#45;10&#45;&gt;0 -->
<g id="edge46" class="edge">
<title>&#45;10&#45;&gt;0</title>
<path fill="none" stroke="green" stroke-width="0.2" d="M302.34,-74.94C306.58,-71.6 311.83,-67.99 317.12,-65.7 395.21,-31.94 425.39,-59.37 505.12,-29.7 505.99,-29.38 506.86,-29.02 507.73,-28.65"/>
<polygon fill="green" stroke="green" stroke-width="0.2" points="509.5,-31.68 516.8,-24.01 506.31,-25.44 509.5,-31.68"/>
</g>
<!-- &#45;10&#45;&gt;1 -->
<g id="edge47" class="edge">
<title>&#45;10&#45;&gt;1</title>
<path fill="none" stroke="green" stroke-width="0.16" d="M303.53,-74.77C307.63,-71.7 312.47,-68.34 317.12,-65.7 347.67,-48.35 385.44,-33.19 409.41,-24.27"/>
<polygon fill="green" stroke="green" stroke-width="0.16" points="410.89,-27.46 419.08,-20.74 408.48,-20.88 410.89,-27.46"/>
</g>
<!-- &#45;10&#45;&gt;2 -->
<g id="edge48" class="edge">
<title>&#45;10&#45;&gt;2</title>
<path fill="none" stroke="green" stroke-width="0.15" d="M302.87,-74.74C307.03,-71.53 312.09,-68.06 317.12,-65.7 375.27,-38.37 397.64,-53.98 457.12,-29.7 457.98,-29.35 458.84,-28.97 459.71,-28.58"/>
<polygon fill="green" stroke="green" stroke-width="0.15" points="461.51,-31.59 468.74,-23.85 458.26,-25.38 461.51,-31.59"/>
</g>
<!-- &#45;10&#45;&gt;3 -->
<g id="edge49" class="edge">
<title>&#45;10&#45;&gt;3</title>
<path fill="none" stroke="green" stroke-width="0.43" d="M302.3,-74.84C306.53,-71.49 311.79,-67.88 317.12,-65.7 415.29,-25.44 453,-64.82 553.12,-29.7 553.99,-29.39 554.87,-29.05 555.75,-28.69"/>
<polygon fill="green" stroke="green" stroke-width="0.43" points="557.49,-31.73 564.84,-24.1 554.33,-25.48 557.49,-31.73"/>
</g>
<!-- &#45;10&#45;&gt;4 -->
<g id="edge50" class="edge">
<title>&#45;10&#45;&gt;4</title>
<path fill="none" stroke="red" stroke-width="0.24" d="M302.27,-74.78C306.5,-71.41 311.76,-67.82 317.12,-65.7 435.44,-18.92 480.54,-70.29 601.12,-29.7 602,-29.4 602.88,-29.07 603.76,-28.72"/>
<polygon fill="red" stroke="red" stroke-width="0.24" points="605.48,-31.77 612.86,-24.17 602.35,-25.51 605.48,-31.77"/>
</g>
<!-- &#45;11 -->
<g id="node11" class="node">
<title>&#45;11</title>
<polygon fill="lightgray" stroke="black" points="133.62,-93.08 104.62,-93.08 104.62,-75.08 133.62,-75.08 133.62,-93.08"/>
<text text-anchor="middle" x="119.12" y="-81.88" font-family="Times New Roman,serif" font-size="9.00">&#45;11</text>
</g>
<!-- &#45;11&#45;&gt;0 -->
<g id="edge51" class="edge">
<title>&#45;11&#45;&gt;0</title>
<path fill="none" stroke="red" stroke-width="0.18" d="M127.8,-75.07C132.09,-71.59 137.54,-67.82 143.12,-65.7 294.27,-8.29 351.21,-79.21 505.12,-29.7 506.17,-29.36 507.23,-28.97 508.28,-28.54"/>
<polygon fill="red" stroke="red" stroke-width="0.18" points="510.03,-31.58 517.38,-23.95 506.87,-25.33 510.03,-31.58"/>
</g>
<!-- &#45;11&#45;&gt;1 -->
<g id="edge52" class="edge">
<title>&#45;11&#45;&gt;1</title>
<path fill="none" stroke="green" stroke-width="0.41" d="M128.32,-74.89C132.55,-71.54 137.81,-67.93 143.12,-65.7 235.45,-26.82 356.5,-18.25 408.09,-16.37"/>
<polygon fill="green" stroke="green" stroke-width="0.41" points="408.4,-19.87 418.29,-16.06 408.18,-12.87 408.4,-19.87"/>
</g>
<!-- &#45;11&#45;&gt;2 -->
<g id="edge53" class="edge">
<title>&#45;11&#45;&gt;2</title>
<path fill="none" stroke="red" stroke-width="0.22" d="M128.26,-74.75C132.48,-71.37 137.75,-67.79 143.12,-65.7 274.06,-14.83 323.73,-73.72 457.12,-29.7 458,-29.41 458.88,-29.08 459.76,-28.73"/>
<polygon fill="red" stroke="red" stroke-width="0.22" points="461.48,-31.79 468.87,-24.2 458.36,-25.52 461.48,-31.79"/>
</g>
<!-- &#45;11&#45;&gt;3 -->
<g id="edge54" class="edge">
<title>&#45;11&#45;&gt;3</title>
<path fill="none" stroke="red" stroke-width="0.16" d="M127.79,-75.04C132.08,-71.55 137.53,-67.79 143.12,-65.7 314.49,-1.73 378.67,-84.71 553.12,-29.7 554.17,-29.37 555.23,-28.98 556.29,-28.56"/>
<polygon fill="red" stroke="red" stroke-width="0.16" points="558.03,-31.6 565.39,-23.98 554.88,-25.35 558.03,-31.6"/>
</g>
<!-- &#45;12 -->
<g id="node12" class="node">
<title>&#45;12</title>
<polygon fill="lightgray" stroke="black" points="354.62,-93.08 325.62,-93.08 325.62,-75.08 354.62,-75.08 354.62,-93.08"/>
<text text-anchor="middle" x="340.12" y="-81.88" font-family="Times New Roman,serif" font-size="9.00">&#45;12</text>
</g>
<!-- &#45;12&#45;&gt;0 -->
<g id="edge55" class="edge">
<title>&#45;12&#45;&gt;0</title>
<path fill="none" stroke="green" stroke-width="0.21" d="M349.86,-74.74C354.03,-71.52 359.09,-68.06 364.12,-65.7 422.68,-38.24 445.22,-54.09 505.12,-29.7 505.98,-29.35 506.84,-28.97 507.71,-28.58"/>
<polygon fill="green" stroke="green" stroke-width="0.21" points="509.51,-31.59 516.74,-23.85 506.26,-25.39 509.51,-31.59"/>
</g>
<!-- &#45;12&#45;&gt;1 -->
<g id="edge56" class="edge">
<title>&#45;12&#45;&gt;1</title>
<path fill="none" stroke="red" stroke-width="0.11" d="M351.35,-74.94C355.38,-72.03 359.95,-68.71 364.12,-65.7 380.62,-53.76 399.35,-40.23 413.13,-30.28"/>
<polygon fill="red" stroke="red" stroke-width="0.11" points="415.34,-33 421.4,-24.31 411.24,-27.33 415.34,-33"/>
</g>
<!-- &#45;12&#45;&gt;2 -->
<g id="edge57" class="edge">
<title>&#45;12&#45;&gt;2</title>
<path fill="none" stroke="green" stroke-width="0.21" d="M350.01,-75.03C354.2,-71.86 359.24,-68.35 364.12,-65.7 403.06,-44.52 417.14,-48.83 457.12,-29.7 457.96,-29.3 458.8,-28.88 459.65,-28.45"/>
<polygon fill="green" stroke="green" stroke-width="0.21" points="461.51,-31.42 468.61,-23.55 458.16,-25.28 461.51,-31.42"/>
</g>
<!-- &#45;12&#45;&gt;3 -->
<g id="edge58" class="edge">
<title>&#45;12&#45;&gt;3</title>
<path fill="none" stroke="green" stroke-width="0.19" d="M349.34,-74.94C353.57,-71.6 358.83,-67.98 364.12,-65.7 442.63,-31.81 472.97,-59.49 553.12,-29.7 553.99,-29.38 554.86,-29.02 555.73,-28.65"/>
<polygon fill="green" stroke="green" stroke-width="0.19" points="557.49,-31.68 564.8,-24.01 554.31,-25.45 557.49,-31.68"/>
</g>
<!-- &#45;12&#45;&gt;4 -->
<g id="edge59" class="edge">
<title>&#45;12&#45;&gt;4</title>
<path fill="none" stroke="red" stroke-width="0.16" d="M349.3,-74.84C353.53,-71.48 358.79,-67.88 364.12,-65.7 462.71,-25.31 500.57,-64.93 601.12,-29.7 601.99,-29.39 602.87,-29.05 603.75,-28.69"/>
<polygon fill="red" stroke="red" stroke-width="0.16" points="605.49,-31.73 612.84,-24.11 602.33,-25.48 605.49,-31.73"/>
</g>
<!-- &#45;13 -->
<g id="node13" class="node">
<title>&#45;13</title>
<polygon fill="lightgray" stroke="black" points="357.62,-156.47 328.62,-156.47 328.62,-138.47 357.62,-138.47 357.62,-156.47"/>
<text text-anchor="middle" x="343.12" y="-145.27" font-family="Times New Roman,serif" font-size="9.00">&#45;13</text>
</g>
<!-- &#45;13&#45;&gt;0 -->
<g id="edge60" class="edge">
<title>&#45;13&#45;&gt;0</title>
<path fill="none" stroke="green" stroke-width="0.27" stroke-dasharray="1,5" d="M357.96,-146.3C407.8,-145.4 567.81,-139.62 599.12,-102.47 609.65,-89.97 606.61,-80.22 599.12,-65.7 596.36,-60.35 569.29,-41.95 549.64,-29.07"/>
<polygon fill="green" stroke="green" stroke-width="0.27" points="551.54,-26.13 541.25,-23.61 547.72,-32 551.54,-26.13"/>
</g>
<!-- &#45;13&#45;&gt;1 -->
<g id="edge61" class="edge">
<title>&#45;13&#45;&gt;1</title>
<path fill="none" stroke="red" stroke-width="0.5" d="M328.52,-145.66C266.81,-142.13 29.64,-127 8.12,-102.47 -2.66,-90.18 -2.74,-77.91 8.12,-65.7 34.87,-35.62 320.94,-20.74 408.08,-16.89"/>
<polygon fill="red" stroke="red" stroke-width="0.5" points="408.29,-20.38 418.13,-16.45 407.99,-13.39 408.29,-20.38"/>
</g>
<!-- &#45;13&#45;&gt;2 -->
<g id="edge62" class="edge">
<title>&#45;13&#45;&gt;2</title>
<path fill="none" stroke="red" stroke-width="0.33" d="M328.4,-146.73C273.1,-147.35 79.07,-146.35 41.12,-102.47 30.43,-90.11 30.07,-77.74 41.12,-65.7 103.84,2.68 368.61,-57.55 457.12,-29.7 458.18,-29.37 459.23,-28.98 460.29,-28.56"/>
<polygon fill="red" stroke="red" stroke-width="0.33" points="462.03,-31.6 469.39,-23.98 458.88,-25.35 462.03,-31.6"/>
</g>
<!-- &#45;13&#45;&gt;3 -->
<g id="edge63" class="edge">
<title>&#45;13&#45;&gt;3</title>
<path fill="none" stroke="green" stroke-width="0.28" d="M357.8,-146.63C449.39,-147.47 939.97,-149.76 984.12,-102.47 995.27,-90.52 995.12,-77.78 984.12,-65.7 926.57,-2.49 682.57,-55.66 601.12,-29.7 600.07,-29.36 599.01,-28.98 597.95,-28.55"/>
<polygon fill="green" stroke="green" stroke-width="0.28" points="599.36,-25.34 588.86,-23.96 596.21,-31.59 599.36,-25.34"/>
</g>
<!-- &#45;13&#45;&gt;4 -->
<g id="edge64" class="edge">
<title>&#45;13&#45;&gt;4</title>
<path fill="none" stroke="green" stroke-width="0.19" d="M357.91,-146.66C451.28,-147.7 956.64,-151.09 1002.12,-102.47 1013.28,-90.53 1012.89,-77.99 1002.12,-65.7 978.85,-39.14 731.18,-22.16 650.42,-17.29"/>
<polygon fill="green" stroke="green" stroke-width="0.19" points="650.37,-13.78 640.18,-16.69 649.95,-20.77 650.37,-13.78"/>
</g>
<!-- 19 -->
<g id="node26" class="node">
<title>19</title>
<ellipse fill="white" stroke="black" cx="68.12" cy="-84.08" rx="18.27" ry="18.27"/>
<text text-anchor="middle" x="68.12" y="-81.88" font-family="Times New Roman,serif" font-size="9.00">19</text>
</g>
<!-- &#45;13&#45;&gt;19 -->
<g id="edge100" class="edge">
<title>&#45;13&#45;&gt;19</title>
<path fill="none" stroke="green" stroke-width="0.24" d="M328.41,-145.78C289.32,-143.54 180.11,-134.65 96.12,-102.47 94.68,-101.92 93.24,-101.29 91.81,-100.61"/>
<polygon fill="green" stroke="green" stroke-width="0.24" points="93.13,-97.34 82.68,-95.57 89.74,-103.47 93.13,-97.34"/>
</g>
<!-- &#45;14 -->
<g id="node14" class="node">
<title>&#45;14</title>
<polygon fill="lightgray" stroke="black" points="401.62,-93.08 372.62,-93.08 372.62,-75.08 401.62,-75.08 401.62,-93.08"/>
<text text-anchor="middle" x="387.12" y="-81.88" font-family="Times New Roman,serif" font-size="9.00">&#45;14</text>
</g>
<!-- &#45;14&#45;&gt;0 -->
<g id="edge65" class="edge">
<title>&#45;14&#45;&gt;0</title>
<path fill="none" stroke="green" stroke-width="0.2" d="M397.01,-75.02C401.2,-71.85 406.23,-68.34 411.12,-65.7 450.46,-44.4 464.73,-48.94 505.12,-29.7 505.96,-29.3 506.8,-28.88 507.65,-28.45"/>
<polygon fill="green" stroke="green" stroke-width="0.2" points="509.51,-31.42 516.62,-23.56 506.16,-25.28 509.51,-31.42"/>
</g>
<!-- &#45;14&#45;&gt;1 -->
<g id="edge66" class="edge">
<title>&#45;14&#45;&gt;1</title>
<path fill="none" stroke="green" stroke-width="0.21" d="M392.76,-74.84C399.31,-65.27 410.35,-49.13 419.23,-36.15"/>
<polygon fill="green" stroke="green" stroke-width="0.21" points="422.19,-38.02 424.95,-27.79 416.41,-34.07 422.19,-38.02"/>
</g>
<!-- &#45;14&#45;&gt;2 -->
<g id="edge67" class="edge">
<title>&#45;14&#45;&gt;2</title>
<path fill="none" stroke="red" stroke-width="0.36" d="M398.34,-74.93C402.36,-72.01 406.94,-68.7 411.12,-65.7 427.82,-53.7 446.83,-40.18 460.81,-30.24"/>
<polygon fill="red" stroke="red" stroke-width="0.36" points="463.08,-32.93 469.21,-24.29 459.03,-27.22 463.08,-32.93"/>
</g>
<!-- &#45;14&#45;&gt;3 -->
<g id="edge68" class="edge">
<title>&#45;14&#45;&gt;3</title>
<path fill="none" stroke="red" stroke-width="0.71" d="M396.86,-74.73C401.03,-71.52 406.09,-68.05 411.12,-65.7 470.09,-38.11 492.8,-54.2 553.12,-29.7 553.98,-29.35 554.84,-28.98 555.71,-28.58"/>
<polygon fill="red" stroke="red" stroke-width="0.71" points="557.51,-31.59 564.75,-23.86 554.26,-25.39 557.51,-31.59"/>
</g>
<!-- &#45;14&#45;&gt;4 -->
<g id="edge69" class="edge">
<title>&#45;14&#45;&gt;4</title>
<path fill="none" stroke="red" stroke-width="0.28" d="M396.34,-74.94C400.57,-71.59 405.83,-67.98 411.12,-65.7 490.04,-31.67 520.54,-59.6 601.12,-29.7 601.99,-29.38 602.86,-29.02 603.73,-28.65"/>
<polygon fill="red" stroke="red" stroke-width="0.28" points="605.49,-31.68 612.81,-24.01 602.31,-25.45 605.49,-31.68"/>
</g>
<!-- &#45;15 -->
<g id="node15" class="node">
<title>&#45;15</title>
<polygon fill="lightgray" stroke="black" points="448.62,-93.08 419.62,-93.08 419.62,-75.08 448.62,-75.08 448.62,-93.08"/>
<text text-anchor="middle" x="434.12" y="-81.88" font-family="Times New Roman,serif" font-size="9.00">&#45;15</text>
</g>
<!-- &#45;15&#45;&gt;0 -->
<g id="edge70" class="edge">
<title>&#45;15&#45;&gt;0</title>
<path fill="none" stroke="red" stroke-width="0.12" d="M445.33,-74.91C449.35,-71.99 453.93,-68.69 458.12,-65.7 475.02,-53.65 494.3,-40.12 508.5,-30.21"/>
<polygon fill="red" stroke="red" stroke-width="0.12" points="510.82,-32.85 517.02,-24.26 506.82,-27.11 510.82,-32.85"/>
</g>
<!-- &#45;15&#45;&gt;1 -->
<g id="edge71" class="edge">
<title>&#45;15&#45;&gt;1</title>
<path fill="none" stroke="green" stroke-width="0.32" d="M434,-74.84C433.87,-66.16 433.66,-52.09 433.48,-39.86"/>
<polygon fill="green" stroke="green" stroke-width="0.32" points="436.98,-39.73 433.33,-29.78 429.98,-39.83 436.98,-39.73"/>
</g>
<!-- &#45;15&#45;&gt;2 -->
<g id="edge72" class="edge">
<title>&#45;15&#45;&gt;2</title>
<path fill="none" stroke="green" stroke-width="0.37" d="M439.88,-74.84C446.57,-65.27 457.85,-49.13 466.93,-36.15"/>
<polygon fill="green" stroke="green" stroke-width="0.37" points="469.91,-37.99 472.77,-27.79 464.17,-33.98 469.91,-37.99"/>
</g>
<!-- &#45;15&#45;&gt;3 -->
<g id="edge73" class="edge">
<title>&#45;15&#45;&gt;3</title>
<path fill="none" stroke="green" stroke-width="0.47" d="M444.01,-75.01C448.19,-71.84 453.23,-68.34 458.12,-65.7 497.86,-44.27 512.32,-49.04 553.12,-29.7 553.96,-29.3 554.8,-28.89 555.65,-28.46"/>
<polygon fill="green" stroke="green" stroke-width="0.47" points="557.51,-31.43 564.62,-23.57 554.16,-25.28 557.51,-31.43"/>
</g>
<!-- &#45;15&#45;&gt;4 -->
<g id="edge74" class="edge">
<title>&#45;15&#45;&gt;4</title>
<path fill="none" stroke="red" stroke-width="0.12" d="M443.4,-75.08C447.65,-71.77 452.9,-68.14 458.12,-65.7 517.51,-37.98 540.38,-54.31 601.12,-29.7 601.98,-29.35 602.84,-28.98 603.71,-28.58"/>
<polygon fill="red" stroke="red" stroke-width="0.12" points="605.5,-31.59 612.75,-23.86 602.26,-25.39 605.5,-31.59"/>
</g>
<!-- &#45;16 -->
<g id="node16" class="node">
<title>&#45;16</title>
<polygon fill="lightgray" stroke="black" points="495.62,-93.08 466.62,-93.08 466.62,-75.08 495.62,-75.08 495.62,-93.08"/>
<text text-anchor="middle" x="481.12" y="-81.88" font-family="Times New Roman,serif" font-size="9.00">&#45;16</text>
</g>
<!-- &#45;16&#45;&gt;0 -->
<g id="edge75" class="edge">
<title>&#45;16&#45;&gt;0</title>
<path fill="none" stroke="red" stroke-width="0.36" d="M487.01,-74.84C493.92,-65.15 505.63,-48.75 514.95,-35.69"/>
<polygon fill="red" stroke="red" stroke-width="0.36" points="517.97,-37.48 520.94,-27.31 512.28,-33.42 517.97,-37.48"/>
</g>
<!-- &#45;16&#45;&gt;1 -->
<g id="edge76" class="edge">
<title>&#45;16&#45;&gt;1</title>
<path fill="none" stroke="green" stroke-width="0.2" d="M475.23,-74.84C468.32,-65.15 456.61,-48.75 447.28,-35.69"/>
<polygon fill="green" stroke="green" stroke-width="0.2" points="449.96,-33.42 441.3,-27.31 444.27,-37.48 449.96,-33.42"/>
</g>
<!-- &#45;16&#45;&gt;2 -->
<g id="edge77" class="edge">
<title>&#45;16&#45;&gt;2</title>
<path fill="none" stroke="green" stroke-width="0.59" d="M481.12,-74.84C481.12,-66.16 481.12,-52.09 481.12,-39.86"/>
<polygon fill="green" stroke="green" stroke-width="0.59" points="484.62,-39.78 481.12,-29.78 477.62,-39.78 484.62,-39.78"/>
</g>
<!-- &#45;16&#45;&gt;3 -->
<g id="edge78" class="edge">
<title>&#45;16&#45;&gt;3</title>
<path fill="none" stroke="green" stroke-width="0.47" d="M492.32,-74.9C496.34,-71.98 500.92,-68.67 505.12,-65.7 522.32,-53.52 542.01,-39.91 556.44,-29.99"/>
<polygon fill="green" stroke="green" stroke-width="0.47" points="558.82,-32.6 565.09,-24.06 554.86,-26.83 558.82,-32.6"/>
</g>
<!-- &#45;16&#45;&gt;4 -->
<g id="edge79" class="edge">
<title>&#45;16&#45;&gt;4</title>
<path fill="none" stroke="red" stroke-width="0.25" d="M491,-75.01C495.19,-71.83 500.22,-68.33 505.12,-65.7 545.27,-44.14 559.91,-49.15 601.12,-29.7 601.96,-29.3 602.8,-28.89 603.66,-28.46"/>
<polygon fill="red" stroke="red" stroke-width="0.25" points="605.51,-31.43 612.62,-23.58 602.17,-25.29 605.51,-31.43"/>
</g>
<!-- &#45;17 -->
<g id="node17" class="node">
<title>&#45;17</title>
<polygon fill="lightgray" stroke="black" points="542.62,-93.08 513.62,-93.08 513.62,-75.08 542.62,-75.08 542.62,-93.08"/>
<text text-anchor="middle" x="528.12" y="-81.88" font-family="Times New Roman,serif" font-size="9.00">&#45;17</text>
</g>
<!-- &#45;17&#45;&gt;0 -->
<g id="edge80" class="edge">
<title>&#45;17&#45;&gt;0</title>
<path fill="none" stroke="green" stroke-width="0.31" d="M528.24,-74.84C528.37,-66.16 528.58,-52.09 528.76,-39.86"/>
<polygon fill="green" stroke="green" stroke-width="0.31" points="532.26,-39.83 528.91,-29.78 525.26,-39.73 532.26,-39.83"/>
</g>
<!-- &#45;17&#45;&gt;1 -->
<g id="edge81" class="edge">
<title>&#45;17&#45;&gt;1</title>
<path fill="none" stroke="red" stroke-width="0.22" d="M517.42,-74.85C513.57,-71.93 509.17,-68.63 505.12,-65.7 488.04,-53.34 468.35,-39.75 453.88,-29.88"/>
<polygon fill="red" stroke="red" stroke-width="0.22" points="455.44,-26.71 445.2,-23.99 451.51,-32.5 455.44,-26.71"/>
</g>
<!-- &#45;17&#45;&gt;2 -->
<g id="edge82" class="edge">
<title>&#45;17&#45;&gt;2</title>
<path fill="none" stroke="red" stroke-width="0.53" d="M522.36,-74.84C515.66,-65.27 504.39,-49.13 495.31,-36.15"/>
<polygon fill="red" stroke="red" stroke-width="0.53" points="498.07,-33.98 489.47,-27.79 492.33,-37.99 498.07,-33.98"/>
</g>
<!-- &#45;17&#45;&gt;3 -->
<g id="edge83" class="edge">
<title>&#45;17&#45;&gt;3</title>
<path fill="none" stroke="green" stroke-width="0.17" d="M534.13,-74.84C541.19,-65.15 553.14,-48.75 562.66,-35.69"/>
<polygon fill="green" stroke="green" stroke-width="0.17" points="565.7,-37.45 568.77,-27.31 560.05,-33.33 565.7,-37.45"/>
</g>
<!-- &#45;17&#45;&gt;4 -->
<g id="edge84" class="edge">
<title>&#45;17&#45;&gt;4</title>
<path fill="none" stroke="red" stroke-width="0.27" d="M539.31,-74.88C543.33,-71.96 547.91,-68.66 552.12,-65.7 569.79,-53.27 590.1,-39.43 604.81,-29.5"/>
<polygon fill="red" stroke="red" stroke-width="0.27" points="606.83,-32.36 613.16,-23.86 602.92,-26.55 606.83,-32.36"/>
</g>
<!-- &#45;18 -->
<g id="node18" class="node">
<title>&#45;18</title>
<polygon fill="lightgray" stroke="black" points="589.62,-93.08 560.62,-93.08 560.62,-75.08 589.62,-75.08 589.62,-93.08"/>
<text text-anchor="middle" x="575.12" y="-81.88" font-family="Times New Roman,serif" font-size="9.00">&#45;18</text>
</g>
<!-- &#45;18&#45;&gt;0 -->
<g id="edge85" class="edge">
<title>&#45;18&#45;&gt;0</title>
<path fill="none" stroke="red" stroke-width="0.25" d="M569.48,-74.84C562.93,-65.27 551.89,-49.13 543.01,-36.15"/>
<polygon fill="red" stroke="red" stroke-width="0.25" points="545.83,-34.07 537.29,-27.79 540.05,-38.02 545.83,-34.07"/>
</g>
<!-- &#45;18&#45;&gt;1 -->
<g id="edge86" class="edge">
<title>&#45;18&#45;&gt;1</title>
<path fill="none" stroke="green" stroke-width="0.21" d="M565.69,-74.99C561.68,-71.82 556.85,-68.31 552.12,-65.7 512.6,-43.86 497.92,-49.04 457.12,-29.7 456.28,-29.3 455.44,-28.89 454.59,-28.46"/>
<polygon fill="green" stroke="green" stroke-width="0.21" points="456.08,-25.28 445.62,-23.57 452.73,-31.43 456.08,-25.28"/>
</g>
<!-- &#45;18&#45;&gt;2 -->
<g id="edge87" class="edge">
<title>&#45;18&#45;&gt;2</title>
<path fill="none" stroke="red" stroke-width="0.45" d="M564.41,-74.87C560.56,-71.94 556.17,-68.65 552.12,-65.7 535.34,-53.48 516.05,-39.97 501.82,-30.1"/>
<polygon fill="red" stroke="red" stroke-width="0.45" points="503.49,-27 493.27,-24.19 499.51,-32.75 503.49,-27"/>
</g>
<!-- &#45;18&#45;&gt;3 -->
<g id="edge88" class="edge">
<title>&#45;18&#45;&gt;3</title>
<path fill="none" stroke="red" stroke-width="0.25" d="M575.36,-74.84C575.62,-66.16 576.04,-52.09 576.41,-39.86"/>
<polygon fill="red" stroke="red" stroke-width="0.25" points="579.91,-39.88 576.71,-29.78 572.91,-39.67 579.91,-39.88"/>
</g>
<!-- &#45;18&#45;&gt;4 -->
<g id="edge89" class="edge">
<title>&#45;18&#45;&gt;4</title>
<path fill="none" stroke="red" stroke-width="0.22" d="M581.25,-74.84C588.45,-65.15 600.66,-48.75 610.36,-35.69"/>
<polygon fill="red" stroke="red" stroke-width="0.22" points="613.44,-37.42 616.6,-27.31 607.82,-33.25 613.44,-37.42"/>
</g>
<!-- &#45;19 -->
<g id="node19" class="node">
<title>&#45;19</title>
<polygon fill="lightgray" stroke="black" points="675.62,-93.08 646.62,-93.08 646.62,-75.08 675.62,-75.08 675.62,-93.08"/>
<text text-anchor="middle" x="661.12" y="-81.88" font-family="Times New Roman,serif" font-size="9.00">&#45;19</text>
</g>
<!-- &#45;19&#45;&gt;0 -->
<g id="edge90" class="edge">
<title>&#45;19&#45;&gt;0</title>
<path fill="none" stroke="green" stroke-width="0.25" d="M648.31,-74.98C643.32,-71.94 637.52,-68.54 632.12,-65.7 597.96,-47.75 587.42,-47.36 553.12,-29.7 552.3,-29.27 551.46,-28.84 550.62,-28.39"/>
<polygon fill="green" stroke="green" stroke-width="0.25" points="552.14,-25.23 541.7,-23.41 548.73,-31.34 552.14,-25.23"/>
</g>
<!-- &#45;19&#45;&gt;1 -->
<g id="edge91" class="edge">
<title>&#45;19&#45;&gt;1</title>
<path fill="none" stroke="green" stroke-width="0.13" d="M646.62,-78.91C634.07,-75.32 615.43,-70.05 599.12,-65.7 536.21,-48.91 517.44,-54.2 457.12,-29.7 456.26,-29.35 455.4,-28.98 454.53,-28.58"/>
<polygon fill="green" stroke="green" stroke-width="0.13" points="455.98,-25.39 445.49,-23.86 452.73,-31.59 455.98,-25.39"/>
</g>
<!-- &#45;19&#45;&gt;2 -->
<g id="edge92" class="edge">
<title>&#45;19&#45;&gt;2</title>
<path fill="none" stroke="green" stroke-width="0.22" d="M646.56,-79.13C618.54,-71.29 555.42,-52.56 505.12,-29.7 504.28,-29.32 503.42,-28.91 502.57,-28.49"/>
<polygon fill="green" stroke="green" stroke-width="0.22" points="504.05,-25.31 493.58,-23.65 500.73,-31.47 504.05,-25.31"/>
</g>
<!-- &#45;19&#45;&gt;3 -->
<g id="edge93" class="edge">
<title>&#45;19&#45;&gt;3</title>
<path fill="none" stroke="green" stroke-width="0.38" d="M650.82,-74.84C637.31,-64.03 613.36,-44.85 596.43,-31.3"/>
<polygon fill="green" stroke="green" stroke-width="0.38" points="598.3,-28.32 588.31,-24.8 593.93,-33.78 598.3,-28.32"/>
</g>
<!-- &#45;19&#45;&gt;4 -->
<g id="edge94" class="edge">
<title>&#45;19&#45;&gt;4</title>
<path fill="none" stroke="red" stroke-width="0.22" d="M656.71,-74.84C651.74,-65.56 643.47,-50.12 636.64,-37.36"/>
<polygon fill="red" stroke="red" stroke-width="0.22" points="639.58,-35.44 631.78,-28.28 633.41,-38.75 639.58,-35.44"/>
</g>
<!-- &#45;20 -->
<g id="node20" class="node">
<title>&#45;20</title>
<polygon fill="lightgray" stroke="black" points="722.62,-93.08 693.62,-93.08 693.62,-75.08 722.62,-75.08 722.62,-93.08"/>
<text text-anchor="middle" x="708.12" y="-81.88" font-family="Times New Roman,serif" font-size="9.00">&#45;20</text>
</g>
<!-- &#45;20&#45;&gt;0 -->
<g id="edge95" class="edge">
<title>&#45;20&#45;&gt;0</title>
<path fill="none" stroke="green" stroke-width="0.29" d="M698.81,-74.76C694.82,-71.55 689.97,-68.08 685.12,-65.7 630.54,-38.88 609.25,-53.09 553.12,-29.7 552.26,-29.34 551.4,-28.96 550.54,-28.56"/>
<polygon fill="green" stroke="green" stroke-width="0.29" points="551.99,-25.37 541.51,-23.81 548.73,-31.57 551.99,-25.37"/>
</g>
<!-- &#45;20&#45;&gt;1 -->
<g id="edge96" class="edge">
<title>&#45;20&#45;&gt;1</title>
<path fill="none" stroke="red" stroke-width="0.14" d="M699.37,-74.85C695.33,-71.49 690.28,-67.89 685.12,-65.7 590.71,-25.57 553.84,-63.91 457.12,-29.7 456.25,-29.39 455.37,-29.05 454.49,-28.68"/>
<polygon fill="red" stroke="red" stroke-width="0.14" points="455.91,-25.48 445.41,-24.09 452.75,-31.72 455.91,-25.48"/>
</g>
<!-- &#45;20&#45;&gt;2 -->
<g id="edge97" class="edge">
<title>&#45;20&#45;&gt;2</title>
<path fill="none" stroke="green" stroke-width="0.63" d="M699.33,-74.95C695.27,-71.61 690.23,-68 685.12,-65.7 610.7,-32.26 581.46,-58.47 505.12,-29.7 504.25,-29.37 503.38,-29.02 502.51,-28.64"/>
<polygon fill="green" stroke="green" stroke-width="0.63" points="503.94,-25.44 493.44,-23.99 500.74,-31.66 503.94,-25.44"/>
</g>
<!-- &#45;20&#45;&gt;3 -->
<g id="edge98" class="edge">
<title>&#45;20&#45;&gt;3</title>
<path fill="none" stroke="red" stroke-width="0.23" d="M698.18,-74.74C694.26,-71.67 689.62,-68.31 685.12,-65.7 649.99,-45.3 637.44,-47.88 601.12,-29.7 600.29,-29.28 599.45,-28.85 598.61,-28.41"/>
<polygon fill="red" stroke="red" stroke-width="0.23" points="600.12,-25.25 589.67,-23.47 596.73,-31.37 600.12,-25.25"/>
</g>
<!-- &#45;20&#45;&gt;4 -->
<g id="edge99" class="edge">
<title>&#45;20&#45;&gt;4</title>
<path fill="none" stroke="red" stroke-width="0.16" d="M697.94,-74.84C684.6,-64.03 660.92,-44.85 644.2,-31.3"/>
<polygon fill="red" stroke="red" stroke-width="0.16" points="646.15,-28.38 636.17,-24.8 641.74,-33.82 646.15,-28.38"/>
</g>
<!-- 19&#45;&gt;0 -->
<g id="edge101" class="edge">
<title>19&#45;&gt;0</title>
<path fill="none" stroke="green" stroke-width="0.32" d="M82.59,-72.32C86.76,-69.73 91.45,-67.25 96.12,-65.7 269.24,-8 331.09,-84.6 505.12,-29.7 506.17,-29.37 507.23,-28.98 508.29,-28.56"/>
<polygon fill="green" stroke="green" stroke-width="0.32" points="510.03,-31.6 517.39,-23.98 506.88,-25.35 510.03,-31.6"/>
</g>
<!-- 19&#45;&gt;1 -->
<g id="edge102" class="edge">
<title>19&#45;&gt;1</title>
<path fill="none" stroke="red" stroke-width="0.1" d="M82.65,-72.51C86.82,-69.91 91.5,-67.39 96.12,-65.7 207.27,-24.97 350.62,-17.46 407.88,-16.12"/>
<polygon fill="red" stroke="red" stroke-width="0.1" points="408.21,-19.61 418.14,-15.92 408.08,-12.61 408.21,-19.61"/>
</g>
</g>
</svg>
