<?xml version="1.0" encoding="UTF-8" standalone="no"?>
<!DOCTYPE svg PUBLIC "-//W3C//DTD SVG 1.1//EN"
 "http://www.w3.org/Graphics/SVG/1.1/DTD/svg11.dtd">
<!-- Generated by graphviz version 2.49.0 (20210828.1703)
 -->
<!-- Pages: 1 -->
<svg width="1284pt" height="170pt"
 viewBox="0.00 0.00 1283.65 170.12" xmlns="http://www.w3.org/2000/svg" xmlns:xlink="http://www.w3.org/1999/xlink">
<g id="graph0" class="graph" transform="scale(1 1) rotate(0) translate(4 166.12)">
<polygon fill="white" stroke="transparent" points="-4,4 -4,-166.12 1279.65,-166.12 1279.65,4 -4,4"/>
<!-- &#45;1 -->
<g id="node1" class="node">
<title>&#45;1</title>
<polygon fill="lightgray" stroke="black" points="1101.44,-162.12 1077.44,-162.12 1077.44,-144.12 1101.44,-144.12 1101.44,-162.12"/>
<text text-anchor="middle" x="1089.44" y="-150.92" font-family="Times New Roman,serif" font-size="9.00">&#45;1</text>
</g>
<!-- 0 -->
<g id="node21" class="node">
<title>0</title>
<ellipse fill="lightblue" stroke="black" cx="504.44" cy="-14.85" rx="14.7" ry="14.7"/>
<text text-anchor="middle" x="504.44" y="-12.65" font-family="Times New Roman,serif" font-size="9.00">0</text>
</g>
<!-- &#45;1&#45;&gt;0 -->
<g id="edge1" class="edge">
<title>&#45;1&#45;&gt;0</title>
<path fill="none" stroke="red" stroke-width="0.36" d="M1077.27,-152.02C970.97,-151.01 203.26,-142.56 170.44,-108.12 157.43,-94.48 158.13,-79.98 170.44,-65.7 210.49,-19.22 408.31,-15.42 479.15,-15.58"/>
<polygon fill="red" stroke="red" stroke-width="0.36" points="479.37,-19.08 489.38,-15.63 479.4,-12.08 479.37,-19.08"/>
</g>
<!-- 1 -->
<g id="node22" class="node">
<title>1</title>
<ellipse fill="lightblue" stroke="black" cx="552.44" cy="-14.85" rx="14.7" ry="14.7"/>
<text text-anchor="middle" x="552.44" y="-12.65" font-family="Times New Roman,serif" font-size="9.00">1</text>
</g>
<!-- &#45;1&#45;&gt;1 -->
<g id="edge2" class="edge">
<title>&#45;1&#45;&gt;1</title>
<path fill="none" stroke="red" stroke-width="0.62" d="M1077.11,-152.01C971.05,-150.93 215.75,-142.05 183.44,-108.12 170.43,-94.47 170.81,-79.71 183.44,-65.7 235.04,-8.43 455.12,-53.48 528.44,-29.7 529.49,-29.36 530.55,-28.97 531.6,-28.53"/>
<polygon fill="red" stroke="red" stroke-width="0.62" points="533.35,-31.57 540.69,-23.94 530.19,-25.33 533.35,-31.57"/>
</g>
<!-- 2 -->
<g id="node23" class="node">
<title>2</title>
<ellipse fill="lightblue" stroke="black" cx="600.44" cy="-14.85" rx="14.7" ry="14.7"/>
<text text-anchor="middle" x="600.44" y="-12.65" font-family="Times New Roman,serif" font-size="9.00">2</text>
</g>
<!-- &#45;1&#45;&gt;2 -->
<g id="edge3" class="edge">
<title>&#45;1&#45;&gt;2</title>
<path fill="none" stroke="red" stroke-width="0.67" d="M1077.13,-144.02C1064.8,-135.66 1045.53,-121.92 1030.44,-108.12 1011.75,-91.05 1015.02,-77.14 992.44,-65.7 845.84,8.57 780.92,-79.9 624.44,-29.7 623.38,-29.36 622.33,-28.97 621.27,-28.54"/>
<polygon fill="red" stroke="red" stroke-width="0.67" points="622.68,-25.33 612.18,-23.95 619.53,-31.58 622.68,-25.33"/>
</g>
<!-- 3 -->
<g id="node24" class="node">
<title>3</title>
<ellipse fill="lightblue" stroke="black" cx="648.44" cy="-14.85" rx="14.7" ry="14.7"/>
<text text-anchor="middle" x="648.44" y="-12.65" font-family="Times New Roman,serif" font-size="9.00">3</text>
</g>
<!-- &#45;1&#45;&gt;3 -->
<g id="edge4" class="edge">
<title>&#45;1&#45;&gt;3</title>
<path fill="none" stroke="green" stroke-width="0.69" d="M1092.76,-143.94C1099.06,-126.92 1110.42,-87.48 1090.44,-65.7 1027.4,3 761.38,-57.66 672.44,-29.7 671.38,-29.37 670.32,-28.98 669.27,-28.56"/>
<polygon fill="green" stroke="green" stroke-width="0.69" points="670.67,-25.35 660.17,-23.98 667.53,-31.6 670.67,-25.35"/>
</g>
<!-- 4 -->
<g id="node25" class="node">
<title>4</title>
<ellipse fill="lightblue" stroke="black" cx="696.44" cy="-14.85" rx="14.7" ry="14.7"/>
<text text-anchor="middle" x="696.44" y="-12.65" font-family="Times New Roman,serif" font-size="9.00">4</text>
</g>
<!-- &#45;1&#45;&gt;4 -->
<g id="edge5" class="edge">
<title>&#45;1&#45;&gt;4</title>
<path fill="none" stroke="green" stroke-width="0.46" stroke-dasharray="1,5" d="M1101.71,-150.42C1122.39,-146.81 1163.69,-136.28 1181.44,-108.12 1191.49,-92.17 1194.07,-79.7 1181.44,-65.7 1150.34,-31.24 816.56,-19.24 721.54,-16.5"/>
<polygon fill="green" stroke="green" stroke-width="0.46" points="721.51,-13 711.41,-16.22 721.31,-20 721.51,-13"/>
</g>
<!-- 184 -->
<g id="node27" class="node">
<title>184</title>
<ellipse fill="white" stroke="black" cx="1254.44" cy="-86.91" rx="21.43" ry="21.43"/>
<text text-anchor="middle" x="1254.44" y="-84.71" font-family="Times New Roman,serif" font-size="9.00">184</text>
</g>
<!-- &#45;1&#45;&gt;184 -->
<g id="edge103" class="edge">
<title>&#45;1&#45;&gt;184</title>
<path fill="none" stroke="red" stroke-width="0.2" d="M1101.57,-148.89C1124.93,-142.47 1177.54,-127.09 1219.44,-108.12 1222.13,-106.9 1224.89,-105.54 1227.62,-104.1"/>
<polygon fill="red" stroke="red" stroke-width="0.2" points="1229.59,-107.02 1236.63,-99.1 1226.19,-100.9 1229.59,-107.02"/>
</g>
<!-- &#45;2 -->
<g id="node2" class="node">
<title>&#45;2</title>
<polygon fill="lightgray" stroke="black" points="1063.44,-95.91 1039.44,-95.91 1039.44,-77.91 1063.44,-77.91 1063.44,-95.91"/>
<text text-anchor="middle" x="1051.44" y="-84.71" font-family="Times New Roman,serif" font-size="9.00">&#45;2</text>
</g>
<!-- &#45;2&#45;&gt;0 -->
<g id="edge6" class="edge">
<title>&#45;2&#45;&gt;0</title>
<path fill="none" stroke="red" stroke-width="0.33" d="M1039.03,-80.63C1027.27,-75.87 1008.98,-69.12 992.44,-65.7 789.87,-23.85 726.02,-90.9 528.44,-29.7 527.38,-29.37 526.32,-28.99 525.26,-28.57"/>
<polygon fill="red" stroke="red" stroke-width="0.33" points="526.67,-25.36 516.16,-24.01 523.53,-31.62 526.67,-25.36"/>
</g>
<!-- &#45;2&#45;&gt;1 -->
<g id="edge7" class="edge">
<title>&#45;2&#45;&gt;1</title>
<path fill="none" stroke="red" stroke-width="0.11" d="M1039.03,-80.67C1027.26,-75.93 1008.96,-69.19 992.44,-65.7 810.86,-27.34 753.46,-85.4 576.44,-29.7 575.38,-29.37 574.32,-28.98 573.27,-28.56"/>
<polygon fill="red" stroke="red" stroke-width="0.11" points="574.67,-25.35 564.17,-23.98 571.53,-31.6 574.67,-25.35"/>
</g>
<!-- &#45;2&#45;&gt;2 -->
<g id="edge8" class="edge">
<title>&#45;2&#45;&gt;2</title>
<path fill="none" stroke="green" stroke-width="0.23" d="M1043.54,-77.82C1038.75,-73.43 1032.25,-68.38 1025.44,-65.7 858.94,-0.13 795.04,-83.68 624.44,-29.7 623.38,-29.36 622.32,-28.98 621.27,-28.55"/>
<polygon fill="green" stroke="green" stroke-width="0.23" points="622.68,-25.34 612.17,-23.97 619.53,-31.6 622.68,-25.34"/>
</g>
<!-- &#45;2&#45;&gt;3 -->
<g id="edge9" class="edge">
<title>&#45;2&#45;&gt;3</title>
<path fill="none" stroke="green" stroke-width="0.27" d="M1043.53,-77.85C1038.73,-73.47 1032.23,-68.42 1025.44,-65.7 879.06,-7.02 822.5,-78.18 672.44,-29.7 671.38,-29.36 670.33,-28.97 669.27,-28.54"/>
<polygon fill="green" stroke="green" stroke-width="0.27" points="670.68,-25.33 660.18,-23.94 667.53,-31.58 670.68,-25.33"/>
</g>
<!-- &#45;2&#45;&gt;4 -->
<g id="edge10" class="edge">
<title>&#45;2&#45;&gt;4</title>
<path fill="none" stroke="green" stroke-width="0.17" d="M1043.02,-77.56C1038.26,-73.33 1031.95,-68.5 1025.44,-65.7 919.44,-20.18 778.62,-15.34 721.8,-15.42"/>
<polygon fill="green" stroke="green" stroke-width="0.17" points="721.57,-11.92 711.6,-15.49 721.62,-18.92 721.57,-11.92"/>
</g>
<!-- &#45;3 -->
<g id="node3" class="node">
<title>&#45;3</title>
<polygon fill="lightgray" stroke="black" points="216.44,-95.91 192.44,-95.91 192.44,-77.91 216.44,-77.91 216.44,-95.91"/>
<text text-anchor="middle" x="204.44" y="-84.71" font-family="Times New Roman,serif" font-size="9.00">&#45;3</text>
</g>
<!-- &#45;3&#45;&gt;0 -->
<g id="edge11" class="edge">
<title>&#45;3&#45;&gt;0</title>
<path fill="none" stroke="red" stroke-width="0.79" d="M210.97,-77.61C214.75,-73.38 219.85,-68.55 225.44,-65.7 311.2,-21.97 428.83,-15.96 479.53,-15.56"/>
<polygon fill="red" stroke="red" stroke-width="0.79" points="479.57,-19.06 489.57,-15.55 479.56,-12.06 479.57,-19.06"/>
</g>
<!-- &#45;3&#45;&gt;1 -->
<g id="edge12" class="edge">
<title>&#45;3&#45;&gt;1</title>
<path fill="none" stroke="red" stroke-width="0.34" d="M210.55,-77.88C214.33,-73.52 219.58,-68.47 225.44,-65.7 348,-7.66 399.74,-72.46 528.44,-29.7 529.32,-29.41 530.2,-29.08 531.08,-28.73"/>
<polygon fill="red" stroke="red" stroke-width="0.34" points="532.8,-31.78 540.19,-24.19 529.67,-25.52 532.8,-31.78"/>
</g>
<!-- &#45;3&#45;&gt;2 -->
<g id="edge13" class="edge">
<title>&#45;3&#45;&gt;2</title>
<path fill="none" stroke="green" stroke-width="0.63" d="M210.53,-77.85C214.31,-73.48 219.56,-68.42 225.44,-65.7 367.7,0.28 427.23,-77.95 576.44,-29.7 577.49,-29.36 578.55,-28.97 579.6,-28.54"/>
<polygon fill="green" stroke="green" stroke-width="0.63" points="581.35,-31.58 588.69,-23.94 578.19,-25.33 581.35,-31.58"/>
</g>
<!-- &#45;3&#45;&gt;3 -->
<g id="edge14" class="edge">
<title>&#45;3&#45;&gt;3</title>
<path fill="none" stroke="green" stroke-width="0.33" d="M210.52,-77.82C214.29,-73.44 219.54,-68.39 225.44,-65.7 387.42,8.23 454.69,-83.45 624.44,-29.7 625.49,-29.36 626.55,-28.98 627.6,-28.55"/>
<polygon fill="green" stroke="green" stroke-width="0.33" points="629.34,-31.6 636.7,-23.97 626.2,-25.34 629.34,-31.6"/>
</g>
<!-- &#45;3&#45;&gt;4 -->
<g id="edge15" class="edge">
<title>&#45;3&#45;&gt;4</title>
<path fill="none" stroke="red" stroke-width="0.44" d="M210.51,-77.8C214.28,-73.41 219.53,-68.36 225.44,-65.7 407.15,16.18 482.14,-88.95 672.44,-29.7 673.49,-29.37 674.55,-28.99 675.61,-28.57"/>
<polygon fill="red" stroke="red" stroke-width="0.44" points="677.34,-31.61 684.71,-24 674.2,-25.36 677.34,-31.61"/>
</g>
<!-- &#45;4 -->
<g id="node4" class="node">
<title>&#45;4</title>
<polygon fill="lightgray" stroke="black" points="258.44,-95.91 234.44,-95.91 234.44,-77.91 258.44,-77.91 258.44,-95.91"/>
<text text-anchor="middle" x="246.44" y="-84.71" font-family="Times New Roman,serif" font-size="9.00">&#45;4</text>
</g>
<!-- &#45;4&#45;&gt;0 -->
<g id="edge16" class="edge">
<title>&#45;4&#45;&gt;0</title>
<path fill="none" stroke="green" stroke-width="0.34" d="M253.01,-77.67C256.79,-73.47 261.89,-68.63 267.44,-65.7 338.16,-28.27 434.71,-18.94 479.6,-16.62"/>
<polygon fill="green" stroke="green" stroke-width="0.34" points="479.77,-20.11 489.61,-16.17 479.46,-13.12 479.77,-20.11"/>
</g>
<!-- &#45;4&#45;&gt;1 -->
<g id="edge17" class="edge">
<title>&#45;4&#45;&gt;1</title>
<path fill="none" stroke="green" stroke-width="0.47" d="M252.93,-77.52C256.69,-73.27 261.79,-68.44 267.44,-65.7 372.79,-14.59 417.67,-67.67 528.44,-29.7 529.31,-29.4 530.19,-29.06 531.07,-28.7"/>
<polygon fill="green" stroke="green" stroke-width="0.47" points="532.8,-31.75 540.17,-24.14 529.66,-25.5 532.8,-31.75"/>
</g>
<!-- &#45;4&#45;&gt;2 -->
<g id="edge18" class="edge">
<title>&#45;4&#45;&gt;2</title>
<path fill="none" stroke="red" stroke-width="0.55" d="M252.54,-77.88C256.33,-73.52 261.58,-68.46 267.44,-65.7 392.46,-6.66 445.18,-73.15 576.44,-29.7 577.32,-29.41 578.2,-29.08 579.08,-28.73"/>
<polygon fill="red" stroke="red" stroke-width="0.55" points="580.79,-31.78 588.19,-24.2 577.68,-25.52 580.79,-31.78"/>
</g>
<!-- &#45;4&#45;&gt;3 -->
<g id="edge19" class="edge">
<title>&#45;4&#45;&gt;3</title>
<path fill="none" stroke="red" stroke-width="0.14" d="M252.53,-77.85C256.31,-73.47 261.56,-68.42 267.44,-65.7 412.16,1.27 472.66,-78.64 624.44,-29.7 625.49,-29.36 626.55,-28.97 627.6,-28.54"/>
<polygon fill="red" stroke="red" stroke-width="0.14" points="629.35,-31.58 636.69,-23.95 626.19,-25.33 629.35,-31.58"/>
</g>
<!-- &#45;4&#45;&gt;4 -->
<g id="edge20" class="edge">
<title>&#45;4&#45;&gt;4</title>
<path fill="none" stroke="green" stroke-width="0.29" d="M252.52,-77.82C256.29,-73.44 261.54,-68.38 267.44,-65.7 431.88,9.22 500.12,-84.14 672.44,-29.7 673.49,-29.37 674.55,-28.98 675.61,-28.55"/>
<polygon fill="green" stroke="green" stroke-width="0.29" points="677.34,-31.6 684.7,-23.98 674.2,-25.35 677.34,-31.6"/>
</g>
<!-- &#45;5 -->
<g id="node5" class="node">
<title>&#45;5</title>
<polygon fill="lightgray" stroke="black" points="300.44,-95.91 276.44,-95.91 276.44,-77.91 300.44,-77.91 300.44,-95.91"/>
<text text-anchor="middle" x="288.44" y="-84.71" font-family="Times New Roman,serif" font-size="9.00">&#45;5</text>
</g>
<!-- &#45;5&#45;&gt;0 -->
<g id="edge21" class="edge">
<title>&#45;5&#45;&gt;0</title>
<path fill="none" stroke="green" stroke-width="0.38" d="M295.06,-77.77C298.86,-73.59 303.96,-68.75 309.44,-65.7 365.14,-34.66 440.52,-22.54 479.21,-18.14"/>
<polygon fill="green" stroke="green" stroke-width="0.38" points="479.97,-21.58 489.55,-17.05 479.23,-14.62 479.97,-21.58"/>
</g>
<!-- &#45;5&#45;&gt;1 -->
<g id="edge22" class="edge">
<title>&#45;5&#45;&gt;1</title>
<path fill="none" stroke="green" stroke-width="0.35" d="M294.95,-77.57C298.72,-73.34 303.83,-68.51 309.44,-65.7 397.62,-21.5 435.55,-62.89 528.44,-29.7 529.31,-29.39 530.19,-29.04 531.06,-28.68"/>
<polygon fill="green" stroke="green" stroke-width="0.35" points="532.81,-31.72 540.15,-24.07 529.64,-25.47 532.81,-31.72"/>
</g>
<!-- &#45;5&#45;&gt;2 -->
<g id="edge23" class="edge">
<title>&#45;5&#45;&gt;2</title>
<path fill="none" stroke="green" stroke-width="0.43" d="M294.92,-77.51C298.68,-73.26 303.79,-68.43 309.44,-65.7 417.25,-13.6 463.11,-68.35 576.44,-29.7 577.31,-29.4 578.19,-29.07 579.07,-28.71"/>
<polygon fill="green" stroke="green" stroke-width="0.43" points="580.8,-31.76 588.17,-24.15 577.66,-25.5 580.8,-31.76"/>
</g>
<!-- &#45;5&#45;&gt;3 -->
<g id="edge24" class="edge">
<title>&#45;5&#45;&gt;3</title>
<path fill="none" stroke="red" stroke-width="0.11" d="M294.54,-77.87C298.33,-73.51 303.58,-68.46 309.44,-65.7 436.92,-5.67 490.62,-73.83 624.44,-29.7 625.32,-29.41 626.2,-29.08 627.08,-28.73"/>
<polygon fill="red" stroke="red" stroke-width="0.11" points="628.79,-31.79 636.19,-24.2 625.68,-25.52 628.79,-31.79"/>
</g>
<!-- &#45;5&#45;&gt;4 -->
<g id="edge25" class="edge">
<title>&#45;5&#45;&gt;4</title>
<path fill="none" stroke="red" stroke-width="0.26" d="M294.53,-77.84C298.31,-73.47 303.56,-68.41 309.44,-65.7 456.63,2.27 518.1,-79.33 672.44,-29.7 673.49,-29.36 674.55,-28.97 675.6,-28.54"/>
<polygon fill="red" stroke="red" stroke-width="0.26" points="677.35,-31.58 684.7,-23.95 674.19,-25.33 677.35,-31.58"/>
</g>
<!-- &#45;6 -->
<g id="node6" class="node">
<title>&#45;6</title>
<polygon fill="lightgray" stroke="black" points="342.44,-95.91 318.44,-95.91 318.44,-77.91 342.44,-77.91 342.44,-95.91"/>
<text text-anchor="middle" x="330.44" y="-84.71" font-family="Times New Roman,serif" font-size="9.00">&#45;6</text>
</g>
<!-- &#45;6&#45;&gt;0 -->
<g id="edge26" class="edge">
<title>&#45;6&#45;&gt;0</title>
<path fill="none" stroke="green" stroke-width="0.22" d="M337.14,-77.91C340.96,-73.77 346.06,-68.93 351.44,-65.7 392.79,-40.87 447.95,-26.86 479.49,-20.37"/>
<polygon fill="green" stroke="green" stroke-width="0.22" points="480.46,-23.74 489.6,-18.38 479.11,-16.87 480.46,-23.74"/>
</g>
<!-- &#45;6&#45;&gt;1 -->
<g id="edge27" class="edge">
<title>&#45;6&#45;&gt;1</title>
<path fill="none" stroke="red" stroke-width="0.86" d="M337,-77.66C340.78,-73.45 345.88,-68.62 351.44,-65.7 422.51,-28.38 453.36,-58.13 528.44,-29.7 529.3,-29.37 530.17,-29.01 531.05,-28.63"/>
<polygon fill="red" stroke="red" stroke-width="0.86" points="532.81,-31.66 540.11,-23.98 529.62,-25.43 532.81,-31.66"/>
</g>
<!-- &#45;6&#45;&gt;2 -->
<g id="edge28" class="edge">
<title>&#45;6&#45;&gt;2</title>
<path fill="none" stroke="red" stroke-width="0.55" d="M336.95,-77.56C340.72,-73.33 345.82,-68.5 351.44,-65.7 442.07,-20.51 481,-63.57 576.44,-29.7 577.31,-29.39 578.19,-29.05 579.06,-28.68"/>
<polygon fill="red" stroke="red" stroke-width="0.55" points="580.81,-31.72 588.15,-24.08 577.65,-25.47 580.81,-31.72"/>
</g>
<!-- &#45;6&#45;&gt;3 -->
<g id="edge29" class="edge">
<title>&#45;6&#45;&gt;3</title>
<path fill="none" stroke="green" stroke-width="0.6" d="M336.92,-77.5C340.68,-73.25 345.78,-68.42 351.44,-65.7 461.71,-12.61 508.55,-69.04 624.44,-29.7 625.31,-29.4 626.19,-29.07 627.07,-28.71"/>
<polygon fill="green" stroke="green" stroke-width="0.6" points="628.8,-31.76 636.17,-24.16 625.67,-25.5 628.8,-31.76"/>
</g>
<!-- &#45;6&#45;&gt;4 -->
<g id="edge30" class="edge">
<title>&#45;6&#45;&gt;4</title>
<path fill="none" stroke="green" stroke-width="0.8" d="M336.54,-77.87C340.32,-73.5 345.57,-68.45 351.44,-65.7 481.39,-4.68 536.05,-74.52 672.44,-29.7 673.32,-29.41 674.2,-29.09 675.08,-28.73"/>
<polygon fill="green" stroke="green" stroke-width="0.8" points="676.79,-31.79 684.19,-24.21 673.68,-25.52 676.79,-31.79"/>
</g>
<!-- &#45;7 -->
<g id="node7" class="node">
<title>&#45;7</title>
<polygon fill="lightgray" stroke="black" points="384.44,-95.91 360.44,-95.91 360.44,-77.91 384.44,-77.91 384.44,-95.91"/>
<text text-anchor="middle" x="372.44" y="-84.71" font-family="Times New Roman,serif" font-size="9.00">&#45;7</text>
</g>
<!-- &#45;7&#45;&gt;0 -->
<g id="edge31" class="edge">
<title>&#45;7&#45;&gt;0</title>
<path fill="none" stroke="green" stroke-width="0.38" d="M379.66,-77.74C383.48,-73.75 388.41,-69.1 393.44,-65.7 421.34,-46.85 457.53,-32.14 480.87,-23.73"/>
<polygon fill="green" stroke="green" stroke-width="0.38" points="482.04,-27.03 490.32,-20.42 479.73,-20.42 482.04,-27.03"/>
</g>
<!-- &#45;7&#45;&gt;1 -->
<g id="edge32" class="edge">
<title>&#45;7&#45;&gt;1</title>
<path fill="none" stroke="green" stroke-width="0.31" d="M379.07,-77.79C382.87,-73.62 387.97,-68.78 393.44,-65.7 447.53,-35.2 471.05,-53.42 528.44,-29.7 529.29,-29.34 530.16,-28.97 531.02,-28.57"/>
<polygon fill="green" stroke="green" stroke-width="0.31" points="532.82,-31.57 540.05,-23.82 529.57,-25.38 532.82,-31.57"/>
</g>
<!-- &#45;7&#45;&gt;2 -->
<g id="edge33" class="edge">
<title>&#45;7&#45;&gt;2</title>
<path fill="none" stroke="green" stroke-width="0.33" d="M378.99,-77.64C382.77,-73.43 387.87,-68.6 393.44,-65.7 466.95,-27.4 498.82,-58.81 576.44,-29.7 577.3,-29.37 578.18,-29.02 579.05,-28.64"/>
<polygon fill="green" stroke="green" stroke-width="0.33" points="580.81,-31.67 588.12,-23.99 577.62,-25.44 580.81,-31.67"/>
</g>
<!-- &#45;7&#45;&gt;3 -->
<g id="edge34" class="edge">
<title>&#45;7&#45;&gt;3</title>
<path fill="none" stroke="red" stroke-width="0.12" d="M378.95,-77.56C382.71,-73.32 387.82,-68.49 393.44,-65.7 486.52,-19.53 526.44,-64.25 624.44,-29.7 625.31,-29.39 626.19,-29.05 627.06,-28.69"/>
<polygon fill="red" stroke="red" stroke-width="0.12" points="628.8,-31.73 636.15,-24.1 625.65,-25.48 628.8,-31.73"/>
</g>
<!-- &#45;7&#45;&gt;4 -->
<g id="edge35" class="edge">
<title>&#45;7&#45;&gt;4</title>
<path fill="none" stroke="green" stroke-width="0.39" stroke-dasharray="1,5" d="M378.56,-77.91C382.35,-73.55 387.6,-68.5 393.44,-65.7 506.16,-11.62 553.99,-69.72 672.44,-29.7 673.31,-29.4 674.2,-29.07 675.07,-28.71"/>
<polygon fill="green" stroke="green" stroke-width="0.39" points="676.8,-31.77 684.18,-24.16 673.67,-25.51 676.8,-31.77"/>
</g>
<!-- &#45;8 -->
<g id="node8" class="node">
<title>&#45;8</title>
<polygon fill="lightgray" stroke="black" points="426.44,-95.91 402.44,-95.91 402.44,-77.91 426.44,-77.91 426.44,-95.91"/>
<text text-anchor="middle" x="414.44" y="-84.71" font-family="Times New Roman,serif" font-size="9.00">&#45;8</text>
</g>
<!-- &#45;8&#45;&gt;0 -->
<g id="edge36" class="edge">
<title>&#45;8&#45;&gt;0</title>
<path fill="none" stroke="red" stroke-width="0.17" d="M422.37,-77.76C426.2,-73.96 430.93,-69.46 435.44,-65.7 451.07,-52.64 469.86,-39.2 483.89,-29.56"/>
<polygon fill="red" stroke="red" stroke-width="0.17" points="486.03,-32.34 492.34,-23.83 482.1,-26.55 486.03,-32.34"/>
</g>
<!-- &#45;8&#45;&gt;1 -->
<g id="edge37" class="edge">
<title>&#45;8&#45;&gt;1</title>
<path fill="none" stroke="red" stroke-width="0.17" stroke-dasharray="1,5" d="M421.59,-77.62C425.38,-73.61 430.32,-68.96 435.44,-65.7 472.8,-41.86 488.46,-48.83 528.44,-29.7 529.27,-29.3 530.12,-28.88 530.97,-28.45"/>
<polygon fill="red" stroke="red" stroke-width="0.17" points="532.83,-31.42 539.93,-23.55 529.47,-25.28 532.83,-31.42"/>
</g>
<!-- &#45;8&#45;&gt;2 -->
<g id="edge38" class="edge">
<title>&#45;8&#45;&gt;2</title>
<path fill="none" stroke="green" stroke-width="0.25" d="M421.06,-77.77C424.86,-73.59 429.95,-68.75 435.44,-65.7 491.94,-34.23 516.54,-54.09 576.44,-29.7 577.29,-29.35 578.16,-28.97 579.02,-28.58"/>
<polygon fill="green" stroke="green" stroke-width="0.25" points="580.82,-31.59 588.06,-23.85 577.58,-25.39 580.82,-31.59"/>
</g>
<!-- &#45;8&#45;&gt;3 -->
<g id="edge39" class="edge">
<title>&#45;8&#45;&gt;3</title>
<path fill="none" stroke="red" stroke-width="0.47" d="M420.98,-77.63C424.76,-73.41 429.86,-68.58 435.44,-65.7 511.39,-26.42 544.28,-59.49 624.44,-29.7 625.3,-29.38 626.18,-29.02 627.05,-28.65"/>
<polygon fill="red" stroke="red" stroke-width="0.47" points="628.81,-31.68 636.12,-24.01 625.62,-25.45 628.81,-31.68"/>
</g>
<!-- &#45;8&#45;&gt;4 -->
<g id="edge40" class="edge">
<title>&#45;8&#45;&gt;4</title>
<path fill="none" stroke="red" stroke-width="0.27" d="M420.94,-77.55C424.71,-73.31 429.81,-68.48 435.44,-65.7 530.97,-18.54 571.89,-64.93 672.44,-29.7 673.31,-29.39 674.19,-29.05 675.07,-28.69"/>
<polygon fill="red" stroke="red" stroke-width="0.27" points="676.8,-31.73 684.16,-24.11 673.65,-25.48 676.8,-31.73"/>
</g>
<!-- &#45;9 -->
<g id="node9" class="node">
<title>&#45;9</title>
<polygon fill="lightgray" stroke="black" points="378.44,-162.12 354.44,-162.12 354.44,-144.12 378.44,-144.12 378.44,-162.12"/>
<text text-anchor="middle" x="366.44" y="-150.92" font-family="Times New Roman,serif" font-size="9.00">&#45;9</text>
</g>
<!-- &#45;9&#45;&gt;0 -->
<g id="edge41" class="edge">
<title>&#45;9&#45;&gt;0</title>
<path fill="none" stroke="red" stroke-width="0.76" d="M354.24,-151.56C294.3,-148.67 32.86,-134.61 9.44,-108.12 -3.05,-94 -3.21,-79.68 9.44,-65.7 41.24,-30.54 382.59,-19.02 479.13,-16.45"/>
<polygon fill="red" stroke="red" stroke-width="0.76" points="479.51,-19.95 489.41,-16.19 479.33,-12.95 479.51,-19.95"/>
</g>
<!-- &#45;9&#45;&gt;1 -->
<g id="edge42" class="edge">
<title>&#45;9&#45;&gt;1</title>
<path fill="none" stroke="green" stroke-width="0.12" d="M354.3,-151.55C300.6,-148.6 89.57,-132.64 150.44,-65.7 207.2,-3.27 448.06,-55.37 528.44,-29.7 529.49,-29.36 530.55,-28.97 531.6,-28.55"/>
<polygon fill="green" stroke="green" stroke-width="0.12" points="533.35,-31.59 540.7,-23.96 530.19,-25.34 533.35,-31.59"/>
</g>
<!-- &#45;9&#45;&gt;2 -->
<g id="edge43" class="edge">
<title>&#45;9&#45;&gt;2</title>
<path fill="none" stroke="green" stroke-width="0.32" d="M378.67,-152.01C425.36,-151.3 591.41,-146.1 623.44,-108.12 640.7,-87.66 626.86,-56.09 614.4,-35.7"/>
<polygon fill="green" stroke="green" stroke-width="0.32" points="617.26,-33.69 608.89,-27.2 611.39,-37.5 617.26,-33.69"/>
</g>
<!-- &#45;9&#45;&gt;3 -->
<g id="edge44" class="edge">
<title>&#45;9&#45;&gt;3</title>
<path fill="none" stroke="red" stroke-width="0.13" d="M378.53,-151.84C469.79,-149.61 1047.66,-134.5 1072.44,-108.12 1085.35,-94.38 1085.16,-79.62 1072.44,-65.7 1012.22,0.18 757.52,-56.63 672.44,-29.7 671.38,-29.36 670.32,-28.98 669.27,-28.55"/>
<polygon fill="red" stroke="red" stroke-width="0.13" points="670.68,-25.34 660.17,-23.97 667.53,-31.6 670.68,-25.34"/>
</g>
<!-- &#45;9&#45;&gt;4 -->
<g id="edge45" class="edge">
<title>&#45;9&#45;&gt;4</title>
<path fill="none" stroke="red" stroke-width="0.26" d="M378.54,-151.86C471.17,-149.75 1064.98,-135.18 1090.44,-108.12 1103.36,-94.39 1102.91,-79.84 1090.44,-65.7 1065.89,-37.85 803.88,-21.58 721.25,-17.12"/>
<polygon fill="red" stroke="red" stroke-width="0.26" points="721.41,-13.62 711.24,-16.59 721.04,-20.61 721.41,-13.62"/>
</g>
<!-- 120 -->
<g id="node26" class="node">
<title>120</title>
<ellipse fill="white" stroke="black" cx="39.44" cy="-86.91" rx="21.43" ry="21.43"/>
<text text-anchor="middle" x="39.44" y="-84.71" font-family="Times New Roman,serif" font-size="9.00">120</text>
</g>
<!-- &#45;9&#45;&gt;120 -->
<g id="edge101" class="edge">
<title>&#45;9&#45;&gt;120</title>
<path fill="none" stroke="red" stroke-width="0.23" d="M354.37,-151.9C313.72,-150.82 178.47,-144.53 74.44,-108.12 71.49,-107.09 68.5,-105.81 65.58,-104.39"/>
<polygon fill="red" stroke="red" stroke-width="0.23" points="67.08,-101.22 56.62,-99.54 63.76,-107.38 67.08,-101.22"/>
</g>
<!-- &#45;10 -->
<g id="node10" class="node">
<title>&#45;10</title>
<polygon fill="lightgray" stroke="black" points="473.94,-95.91 444.94,-95.91 444.94,-77.91 473.94,-77.91 473.94,-95.91"/>
<text text-anchor="middle" x="459.44" y="-84.71" font-family="Times New Roman,serif" font-size="9.00">&#45;10</text>
</g>
<!-- &#45;10&#45;&gt;0 -->
<g id="edge46" class="edge">
<title>&#45;10&#45;&gt;0</title>
<path fill="none" stroke="red" stroke-width="0.8" d="M464.6,-77.87C471.08,-67.79 482.42,-50.14 491.34,-36.23"/>
<polygon fill="red" stroke="red" stroke-width="0.8" points="494.33,-38.06 496.79,-27.76 488.44,-34.28 494.33,-38.06"/>
</g>
<!-- &#45;10&#45;&gt;1 -->
<g id="edge47" class="edge">
<title>&#45;10&#45;&gt;1</title>
<path fill="none" stroke="green" stroke-width="0.12" d="M468.21,-77.82C472.43,-74.04 477.6,-69.53 482.44,-65.7 498.55,-52.93 517.6,-39.46 531.76,-29.75"/>
<polygon fill="green" stroke="green" stroke-width="0.12" points="533.98,-32.47 540.27,-23.95 530.04,-26.69 533.98,-32.47"/>
</g>
<!-- &#45;10&#45;&gt;2 -->
<g id="edge48" class="edge">
<title>&#45;10&#45;&gt;2</title>
<path fill="none" stroke="green" stroke-width="0.17" d="M467.39,-77.65C471.58,-73.64 476.98,-69 482.44,-65.7 520.73,-42.57 536.05,-48.94 576.44,-29.7 577.27,-29.3 578.12,-28.88 578.97,-28.45"/>
<polygon fill="green" stroke="green" stroke-width="0.17" points="580.83,-31.42 587.93,-23.56 577.48,-25.28 580.83,-31.42"/>
</g>
<!-- &#45;10&#45;&gt;3 -->
<g id="edge49" class="edge">
<title>&#45;10&#45;&gt;3</title>
<path fill="none" stroke="red" stroke-width="0.27" d="M466.82,-77.78C471.03,-73.61 476.6,-68.77 482.44,-65.7 540.05,-35.37 564.12,-54.2 624.44,-29.7 625.29,-29.35 626.16,-28.98 627.02,-28.58"/>
<polygon fill="red" stroke="red" stroke-width="0.27" points="628.82,-31.59 636.06,-23.86 625.58,-25.39 628.82,-31.59"/>
</g>
<!-- &#45;10&#45;&gt;4 -->
<g id="edge50" class="edge">
<title>&#45;10&#45;&gt;4</title>
<path fill="none" stroke="green" stroke-width="0.23" d="M466.75,-77.64C470.93,-73.42 476.51,-68.59 482.44,-65.7 559.67,-28 591.86,-59.6 672.44,-29.7 673.31,-29.38 674.18,-29.02 675.05,-28.65"/>
<polygon fill="green" stroke="green" stroke-width="0.23" points="676.81,-31.68 684.12,-24.01 673.63,-25.45 676.81,-31.68"/>
</g>
<!-- &#45;11 -->
<g id="node11" class="node">
<title>&#45;11</title>
<polygon fill="lightgray" stroke="black" points="520.94,-95.91 491.94,-95.91 491.94,-77.91 520.94,-77.91 520.94,-95.91"/>
<text text-anchor="middle" x="506.44" y="-84.71" font-family="Times New Roman,serif" font-size="9.00">&#45;11</text>
</g>
<!-- &#45;11&#45;&gt;0 -->
<g id="edge51" class="edge">
<title>&#45;11&#45;&gt;0</title>
<path fill="none" stroke="green" stroke-width="0.13" d="M506.21,-77.87C505.95,-68.72 505.51,-53.33 505.13,-40.16"/>
<polygon fill="green" stroke="green" stroke-width="0.13" points="508.62,-39.72 504.84,-29.82 501.62,-39.92 508.62,-39.72"/>
</g>
<!-- &#45;11&#45;&gt;1 -->
<g id="edge52" class="edge">
<title>&#45;11&#45;&gt;1</title>
<path fill="none" stroke="green" stroke-width="0.27" d="M511.71,-77.87C518.33,-67.79 529.93,-50.14 539.05,-36.23"/>
<polygon fill="green" stroke="green" stroke-width="0.27" points="542.06,-38.04 544.62,-27.76 536.2,-34.2 542.06,-38.04"/>
</g>
<!-- &#45;11&#45;&gt;2 -->
<g id="edge53" class="edge">
<title>&#45;11&#45;&gt;2</title>
<path fill="none" stroke="green" stroke-width="0.99" d="M515.2,-77.81C519.41,-74.02 524.59,-69.51 529.44,-65.7 545.85,-52.79 565.31,-39.24 579.7,-29.53"/>
<polygon fill="green" stroke="green" stroke-width="0.99" points="581.97,-32.22 588.34,-23.76 578.08,-26.4 581.97,-32.22"/>
</g>
<!-- &#45;11&#45;&gt;3 -->
<g id="edge54" class="edge">
<title>&#45;11&#45;&gt;3</title>
<path fill="none" stroke="green" stroke-width="0.4" stroke-dasharray="1,5" d="M514.39,-77.64C518.58,-73.63 523.97,-68.99 529.44,-65.7 568.13,-42.42 583.64,-49.04 624.44,-29.7 625.27,-29.3 626.12,-28.89 626.97,-28.46"/>
<polygon fill="green" stroke="green" stroke-width="0.4" points="628.83,-31.43 635.94,-23.57 625.48,-25.28 628.83,-31.43"/>
</g>
<!-- &#45;11&#45;&gt;4 -->
<g id="edge55" class="edge">
<title>&#45;11&#45;&gt;4</title>
<path fill="none" stroke="green" stroke-width="0.75" d="M513.82,-77.78C518.02,-73.6 523.6,-68.76 529.44,-65.7 587.45,-35.21 611.7,-54.31 672.44,-29.7 673.3,-29.35 674.16,-28.98 675.03,-28.58"/>
<polygon fill="green" stroke="green" stroke-width="0.75" points="676.82,-31.59 684.06,-23.86 673.58,-25.39 676.82,-31.59"/>
</g>
<!-- &#45;12 -->
<g id="node12" class="node">
<title>&#45;12</title>
<polygon fill="lightgray" stroke="black" points="567.94,-95.91 538.94,-95.91 538.94,-77.91 567.94,-77.91 567.94,-95.91"/>
<text text-anchor="middle" x="553.44" y="-84.71" font-family="Times New Roman,serif" font-size="9.00">&#45;12</text>
</g>
<!-- &#45;12&#45;&gt;0 -->
<g id="edge56" class="edge">
<title>&#45;12&#45;&gt;0</title>
<path fill="none" stroke="green" stroke-width="0.35" d="M547.82,-77.87C540.72,-67.73 528.27,-49.93 518.52,-35.99"/>
<polygon fill="green" stroke="green" stroke-width="0.35" points="521.19,-33.7 512.59,-27.51 515.45,-37.71 521.19,-33.7"/>
</g>
<!-- &#45;12&#45;&gt;1 -->
<g id="edge57" class="edge">
<title>&#45;12&#45;&gt;1</title>
<path fill="none" stroke="red" stroke-width="0.19" d="M553.32,-77.87C553.19,-68.72 552.97,-53.33 552.78,-40.16"/>
<polygon fill="red" stroke="red" stroke-width="0.19" points="556.28,-39.77 552.64,-29.82 549.28,-39.87 556.28,-39.77"/>
</g>
<!-- &#45;12&#45;&gt;2 -->
<g id="edge58" class="edge">
<title>&#45;12&#45;&gt;2</title>
<path fill="none" stroke="green" stroke-width="0.18" d="M558.83,-77.87C565.63,-67.73 577.58,-49.93 586.93,-35.99"/>
<polygon fill="green" stroke="green" stroke-width="0.18" points="589.95,-37.76 592.62,-27.51 584.14,-33.86 589.95,-37.76"/>
</g>
<!-- &#45;12&#45;&gt;3 -->
<g id="edge59" class="edge">
<title>&#45;12&#45;&gt;3</title>
<path fill="none" stroke="red" stroke-width="0.14" d="M562.19,-77.79C566.4,-74 571.58,-69.5 576.44,-65.7 593.05,-52.72 612.78,-39.18 627.38,-29.49"/>
<polygon fill="red" stroke="red" stroke-width="0.14" points="629.72,-32.14 636.16,-23.73 625.88,-26.29 629.72,-32.14"/>
</g>
<!-- &#45;12&#45;&gt;4 -->
<g id="edge60" class="edge">
<title>&#45;12&#45;&gt;4</title>
<path fill="none" stroke="green" stroke-width="0.15" stroke-dasharray="1,5" d="M561.38,-77.64C565.57,-73.62 570.97,-68.98 576.44,-65.7 615.52,-42.27 631.23,-49.15 672.44,-29.7 673.27,-29.3 674.12,-28.89 674.97,-28.46"/>
<polygon fill="green" stroke="green" stroke-width="0.15" points="676.83,-31.43 683.94,-23.58 673.48,-25.29 676.83,-31.43"/>
</g>
<!-- &#45;13 -->
<g id="node13" class="node">
<title>&#45;13</title>
<polygon fill="lightgray" stroke="black" points="614.94,-95.91 585.94,-95.91 585.94,-77.91 614.94,-77.91 614.94,-95.91"/>
<text text-anchor="middle" x="600.44" y="-84.71" font-family="Times New Roman,serif" font-size="9.00">&#45;13</text>
</g>
<!-- &#45;13&#45;&gt;0 -->
<g id="edge61" class="edge">
<title>&#45;13&#45;&gt;0</title>
<path fill="none" stroke="green" stroke-width="0.35" d="M591.26,-77.83C586.86,-74.05 581.46,-69.54 576.44,-65.7 559.69,-52.9 539.97,-39.34 525.4,-29.6"/>
<polygon fill="green" stroke="green" stroke-width="0.35" points="526.93,-26.41 516.66,-23.8 523.06,-32.25 526.93,-26.41"/>
</g>
<!-- &#45;13&#45;&gt;1 -->
<g id="edge62" class="edge">
<title>&#45;13&#45;&gt;1</title>
<path fill="none" stroke="red" stroke-width="0.26" d="M594.93,-77.87C587.98,-67.73 575.78,-49.93 566.24,-35.99"/>
<polygon fill="red" stroke="red" stroke-width="0.26" points="568.96,-33.78 560.42,-27.51 563.19,-37.73 568.96,-33.78"/>
</g>
<!-- &#45;13&#45;&gt;2 -->
<g id="edge63" class="edge">
<title>&#45;13&#45;&gt;2</title>
<path fill="none" stroke="red" stroke-width="0.17" d="M600.44,-77.87C600.44,-68.72 600.44,-53.33 600.44,-40.16"/>
<polygon fill="red" stroke="red" stroke-width="0.17" points="603.94,-39.82 600.44,-29.82 596.94,-39.82 603.94,-39.82"/>
</g>
<!-- &#45;13&#45;&gt;3 -->
<g id="edge64" class="edge">
<title>&#45;13&#45;&gt;3</title>
<path fill="none" stroke="red" stroke-width="0.39" d="M605.94,-77.87C612.89,-67.73 625.09,-49.93 634.64,-35.99"/>
<polygon fill="red" stroke="red" stroke-width="0.39" points="637.69,-37.73 640.45,-27.51 631.91,-33.78 637.69,-37.73"/>
</g>
<!-- &#45;13&#45;&gt;4 -->
<g id="edge65" class="edge">
<title>&#45;13&#45;&gt;4</title>
<path fill="none" stroke="red" stroke-width="0.14" d="M611.45,-77.87C627.25,-66.34 656.62,-44.9 676.35,-30.51"/>
<polygon fill="red" stroke="red" stroke-width="0.14" points="678.64,-33.17 684.66,-24.45 674.52,-27.51 678.64,-33.17"/>
</g>
<!-- &#45;14 -->
<g id="node14" class="node">
<title>&#45;14</title>
<polygon fill="lightgray" stroke="black" points="700.94,-95.91 671.94,-95.91 671.94,-77.91 700.94,-77.91 700.94,-95.91"/>
<text text-anchor="middle" x="686.44" y="-84.71" font-family="Times New Roman,serif" font-size="9.00">&#45;14</text>
</g>
<!-- &#45;14&#45;&gt;0 -->
<g id="edge66" class="edge">
<title>&#45;14&#45;&gt;0</title>
<path fill="none" stroke="green" stroke-width="0.18" d="M671.88,-81.11C638.07,-69.9 555.13,-42.03 528.44,-29.7 527.6,-29.31 526.75,-28.9 525.89,-28.48"/>
<polygon fill="green" stroke="green" stroke-width="0.18" points="527.37,-25.3 516.91,-23.62 524.04,-31.46 527.37,-25.3"/>
</g>
<!-- &#45;14&#45;&gt;1 -->
<g id="edge67" class="edge">
<title>&#45;14&#45;&gt;1</title>
<path fill="none" stroke="green" stroke-width="0.17" d="M671.72,-78.69C650.51,-68.21 610.16,-48.03 576.44,-29.7 575.62,-29.26 574.8,-28.8 573.96,-28.34"/>
<polygon fill="green" stroke="green" stroke-width="0.17" points="575.5,-25.19 565.07,-23.3 572.05,-31.28 575.5,-25.19"/>
</g>
<!-- &#45;14&#45;&gt;2 -->
<g id="edge68" class="edge">
<title>&#45;14&#45;&gt;2</title>
<path fill="none" stroke="green" stroke-width="0.14" d="M676.57,-77.87C662.69,-66.57 637.14,-45.75 619.48,-31.37"/>
<polygon fill="green" stroke="green" stroke-width="0.14" points="621.5,-28.5 611.54,-24.89 617.08,-33.92 621.5,-28.5"/>
</g>
<!-- &#45;14&#45;&gt;3 -->
<g id="edge69" class="edge">
<title>&#45;14&#45;&gt;3</title>
<path fill="none" stroke="red" stroke-width="0.16" d="M682.08,-77.87C676.72,-68 667.44,-50.88 659.97,-37.12"/>
<polygon fill="red" stroke="red" stroke-width="0.16" points="663.01,-35.38 655.17,-28.26 656.86,-38.72 663.01,-35.38"/>
</g>
<!-- &#45;14&#45;&gt;4 -->
<g id="edge70" class="edge">
<title>&#45;14&#45;&gt;4</title>
<path fill="none" stroke="red" stroke-width="0.12" d="M687.58,-77.87C688.9,-68.63 691.13,-53.02 693.02,-39.77"/>
<polygon fill="red" stroke="red" stroke-width="0.12" points="696.49,-40.21 694.44,-29.82 689.56,-39.22 696.49,-40.21"/>
</g>
<!-- &#45;15 -->
<g id="node15" class="node">
<title>&#45;15</title>
<polygon fill="lightgray" stroke="black" points="747.94,-95.91 718.94,-95.91 718.94,-77.91 747.94,-77.91 747.94,-95.91"/>
<text text-anchor="middle" x="733.44" y="-84.71" font-family="Times New Roman,serif" font-size="9.00">&#45;15</text>
</g>
<!-- &#45;15&#45;&gt;0 -->
<g id="edge71" class="edge">
<title>&#45;15&#45;&gt;0</title>
<path fill="none" stroke="green" stroke-width="0.37" d="M726.11,-77.66C721.93,-73.45 716.35,-68.61 710.44,-65.7 636.48,-29.23 605.63,-58.69 528.44,-29.7 527.57,-29.37 526.7,-29.02 525.83,-28.64"/>
<polygon fill="green" stroke="green" stroke-width="0.37" points="527.25,-25.44 516.76,-23.99 524.06,-31.67 527.25,-25.44"/>
</g>
<!-- &#45;15&#45;&gt;1 -->
<g id="edge72" class="edge">
<title>&#45;15&#45;&gt;1</title>
<path fill="none" stroke="green" stroke-width="0.33" d="M726.03,-77.81C721.83,-73.65 716.25,-68.81 710.44,-65.7 656.08,-36.58 633.4,-53.31 576.44,-29.7 575.58,-29.34 574.72,-28.96 573.86,-28.57"/>
<polygon fill="green" stroke="green" stroke-width="0.33" points="575.31,-25.37 564.83,-23.82 572.05,-31.57 575.31,-25.37"/>
</g>
<!-- &#45;15&#45;&gt;2 -->
<g id="edge73" class="edge">
<title>&#45;15&#45;&gt;2</title>
<path fill="none" stroke="red" stroke-width="0.34" d="M725.44,-77.72C721.24,-73.73 715.85,-69.08 710.44,-65.7 675.3,-43.73 661.57,-48.09 624.44,-29.7 623.61,-29.29 622.77,-28.86 621.92,-28.42"/>
<polygon fill="red" stroke="red" stroke-width="0.34" points="623.42,-25.25 612.98,-23.49 620.04,-31.38 623.42,-25.25"/>
</g>
<!-- &#45;15&#45;&gt;3 -->
<g id="edge74" class="edge">
<title>&#45;15&#45;&gt;3</title>
<path fill="none" stroke="green" stroke-width="0.23" d="M724.12,-77.56C719.97,-73.88 714.99,-69.53 710.44,-65.7 696.49,-53.97 680.44,-41.09 668.17,-31.35"/>
<polygon fill="green" stroke="green" stroke-width="0.23" points="670,-28.34 659.99,-24.89 665.66,-33.83 670,-28.34"/>
</g>
<!-- &#45;15&#45;&gt;4 -->
<g id="edge75" class="edge">
<title>&#45;15&#45;&gt;4</title>
<path fill="none" stroke="green" stroke-width="0.12" d="M729.19,-77.87C723.98,-68 714.94,-50.88 707.67,-37.12"/>
<polygon fill="green" stroke="green" stroke-width="0.12" points="710.76,-35.47 702.99,-28.26 704.57,-38.74 710.76,-35.47"/>
</g>
<!-- &#45;16 -->
<g id="node16" class="node">
<title>&#45;16</title>
<polygon fill="lightgray" stroke="black" points="794.94,-95.91 765.94,-95.91 765.94,-77.91 794.94,-77.91 794.94,-95.91"/>
<text text-anchor="middle" x="780.44" y="-84.71" font-family="Times New Roman,serif" font-size="9.00">&#45;16</text>
</g>
<!-- &#45;16&#45;&gt;0 -->
<g id="edge76" class="edge">
<title>&#45;16&#45;&gt;0</title>
<path fill="none" stroke="red" stroke-width="0.4" d="M773.16,-77.56C768.99,-73.33 763.41,-68.5 757.44,-65.7 664.16,-21.96 625.58,-64.02 528.44,-29.7 527.56,-29.39 526.69,-29.05 525.81,-28.68"/>
<polygon fill="red" stroke="red" stroke-width="0.4" points="527.23,-25.48 516.72,-24.09 524.07,-31.73 527.23,-25.48"/>
</g>
<!-- &#45;16&#45;&gt;1 -->
<g id="edge77" class="edge">
<title>&#45;16&#45;&gt;1</title>
<path fill="none" stroke="red" stroke-width="0.47" d="M773.11,-77.66C768.93,-73.45 763.35,-68.62 757.44,-65.7 683.89,-29.38 653.2,-58.58 576.44,-29.7 575.57,-29.37 574.7,-29.02 573.83,-28.64"/>
<polygon fill="red" stroke="red" stroke-width="0.47" points="575.25,-25.44 564.76,-23.99 572.06,-31.67 575.25,-25.44"/>
</g>
<!-- &#45;16&#45;&gt;2 -->
<g id="edge78" class="edge">
<title>&#45;16&#45;&gt;2</title>
<path fill="none" stroke="green" stroke-width="0.22" stroke-dasharray="1,5" d="M773.03,-77.82C768.82,-73.66 763.24,-68.82 757.44,-65.7 703.48,-36.73 680.99,-53.2 624.44,-29.7 623.58,-29.34 622.72,-28.96 621.86,-28.56"/>
<polygon fill="green" stroke="green" stroke-width="0.22" points="623.31,-25.37 612.83,-23.82 620.05,-31.57 623.31,-25.37"/>
</g>
<!-- &#45;16&#45;&gt;3 -->
<g id="edge79" class="edge">
<title>&#45;16&#45;&gt;3</title>
<path fill="none" stroke="green" stroke-width="0.7" d="M772.43,-77.73C768.23,-73.74 762.84,-69.09 757.44,-65.7 722.69,-43.88 709.16,-47.99 672.44,-29.7 671.61,-29.29 670.77,-28.86 669.92,-28.42"/>
<polygon fill="green" stroke="green" stroke-width="0.7" points="671.43,-25.25 660.98,-23.48 668.04,-31.38 671.43,-25.25"/>
</g>
<!-- &#45;16&#45;&gt;4 -->
<g id="edge80" class="edge">
<title>&#45;16&#45;&gt;4</title>
<path fill="none" stroke="red" stroke-width="0.33" d="M771.1,-77.57C766.95,-73.9 761.98,-69.55 757.44,-65.7 743.67,-54.03 727.88,-41.14 715.82,-31.4"/>
<polygon fill="red" stroke="red" stroke-width="0.33" points="717.76,-28.47 707.78,-24.92 713.37,-33.92 717.76,-28.47"/>
</g>
<!-- &#45;17 -->
<g id="node17" class="node">
<title>&#45;17</title>
<polygon fill="lightgray" stroke="black" points="841.94,-95.91 812.94,-95.91 812.94,-77.91 841.94,-77.91 841.94,-95.91"/>
<text text-anchor="middle" x="827.44" y="-84.71" font-family="Times New Roman,serif" font-size="9.00">&#45;17</text>
</g>
<!-- &#45;17&#45;&gt;0 -->
<g id="edge81" class="edge">
<title>&#45;17&#45;&gt;0</title>
<path fill="none" stroke="red" stroke-width="0.7" d="M820.59,-77.91C816.38,-73.56 810.63,-68.51 804.44,-65.7 691.75,-14.65 645.61,-69.38 528.44,-29.7 527.56,-29.4 526.68,-29.07 525.8,-28.71"/>
<polygon fill="red" stroke="red" stroke-width="0.7" points="527.21,-25.5 516.7,-24.16 524.08,-31.76 527.21,-25.5"/>
</g>
<!-- &#45;17&#45;&gt;1 -->
<g id="edge82" class="edge">
<title>&#45;17&#45;&gt;1</title>
<path fill="none" stroke="red" stroke-width="0.79" d="M820.16,-77.57C815.99,-73.33 810.4,-68.5 804.44,-65.7 711.57,-22.11 673.15,-63.91 576.44,-29.7 575.56,-29.39 574.69,-29.05 573.81,-28.68"/>
<polygon fill="red" stroke="red" stroke-width="0.79" points="575.23,-25.48 564.72,-24.09 572.07,-31.72 575.23,-25.48"/>
</g>
<!-- &#45;17&#45;&gt;2 -->
<g id="edge83" class="edge">
<title>&#45;17&#45;&gt;2</title>
<path fill="none" stroke="red" stroke-width="0.6" d="M820.11,-77.66C815.93,-73.45 810.35,-68.62 804.44,-65.7 731.3,-29.54 700.78,-58.47 624.44,-29.7 623.57,-29.37 622.7,-29.02 621.83,-28.64"/>
<polygon fill="red" stroke="red" stroke-width="0.6" points="623.26,-25.44 612.76,-23.99 620.06,-31.66 623.26,-25.44"/>
</g>
<!-- &#45;17&#45;&gt;3 -->
<g id="edge84" class="edge">
<title>&#45;17&#45;&gt;3</title>
<path fill="none" stroke="green" stroke-width="0.19" d="M820.03,-77.82C815.82,-73.66 810.24,-68.82 804.44,-65.7 750.89,-36.89 728.57,-53.09 672.44,-29.7 671.58,-29.34 670.72,-28.96 669.86,-28.56"/>
<polygon fill="green" stroke="green" stroke-width="0.19" points="671.31,-25.37 660.83,-23.81 668.05,-31.57 671.31,-25.37"/>
</g>
<!-- &#45;17&#45;&gt;4 -->
<g id="edge85" class="edge">
<title>&#45;17&#45;&gt;4</title>
<path fill="none" stroke="red" stroke-width="0.23" d="M819.39,-77.8C815.17,-73.84 809.78,-69.18 804.44,-65.7 777.12,-47.93 742.43,-33.12 719.85,-24.38"/>
<polygon fill="red" stroke="red" stroke-width="0.23" points="720.99,-21.07 710.39,-20.8 718.51,-27.61 720.99,-21.07"/>
</g>
<!-- &#45;18 -->
<g id="node18" class="node">
<title>&#45;18</title>
<polygon fill="lightgray" stroke="black" points="888.94,-95.91 859.94,-95.91 859.94,-77.91 888.94,-77.91 888.94,-95.91"/>
<text text-anchor="middle" x="874.44" y="-84.71" font-family="Times New Roman,serif" font-size="9.00">&#45;18</text>
</g>
<!-- &#45;18&#45;&gt;0 -->
<g id="edge86" class="edge">
<title>&#45;18&#45;&gt;0</title>
<path fill="none" stroke="green" stroke-width="0.44" d="M867.6,-77.87C863.41,-73.5 857.66,-68.45 851.44,-65.7 719.31,-7.33 665.68,-74.75 528.44,-29.7 527.56,-29.41 526.67,-29.09 525.79,-28.73"/>
<polygon fill="green" stroke="green" stroke-width="0.44" points="527.2,-25.52 516.68,-24.21 524.08,-31.79 527.2,-25.52"/>
</g>
<!-- &#45;18&#45;&gt;1 -->
<g id="edge87" class="edge">
<title>&#45;18&#45;&gt;1</title>
<path fill="none" stroke="green" stroke-width="0.25" d="M867.19,-77.5C863.02,-73.25 857.44,-68.42 851.44,-65.7 739.17,-14.81 693.18,-69.27 576.44,-29.7 575.56,-29.4 574.68,-29.07 573.8,-28.71"/>
<polygon fill="green" stroke="green" stroke-width="0.25" points="575.21,-25.5 564.7,-24.16 572.08,-31.76 575.21,-25.5"/>
</g>
<!-- &#45;18&#45;&gt;2 -->
<g id="edge88" class="edge">
<title>&#45;18&#45;&gt;2</title>
<path fill="none" stroke="red" stroke-width="0.11" d="M867.16,-77.57C862.99,-73.33 857.4,-68.5 851.44,-65.7 758.98,-22.27 720.73,-63.8 624.44,-29.7 623.56,-29.39 622.69,-29.05 621.81,-28.68"/>
<polygon fill="red" stroke="red" stroke-width="0.11" points="623.23,-25.48 612.72,-24.09 620.07,-31.72 623.23,-25.48"/>
</g>
<!-- &#45;18&#45;&gt;3 -->
<g id="edge89" class="edge">
<title>&#45;18&#45;&gt;3</title>
<path fill="none" stroke="green" stroke-width="0.42" d="M867.11,-77.66C862.93,-73.46 857.34,-68.62 851.44,-65.7 778.71,-29.69 748.36,-58.36 672.44,-29.7 671.57,-29.37 670.7,-29.02 669.83,-28.64"/>
<polygon fill="green" stroke="green" stroke-width="0.42" points="671.26,-25.44 660.76,-23.98 668.06,-31.66 671.26,-25.44"/>
</g>
<!-- &#45;18&#45;&gt;4 -->
<g id="edge90" class="edge">
<title>&#45;18&#45;&gt;4</title>
<path fill="none" stroke="red" stroke-width="0.15" d="M866.56,-77.52C862.39,-73.48 856.99,-68.85 851.44,-65.7 808.77,-41.49 752.72,-27.2 721.04,-20.5"/>
<polygon fill="red" stroke="red" stroke-width="0.15" points="721.41,-17 710.91,-18.44 720.02,-23.86 721.41,-17"/>
</g>
<!-- &#45;19 -->
<g id="node19" class="node">
<title>&#45;19</title>
<polygon fill="lightgray" stroke="black" points="935.94,-95.91 906.94,-95.91 906.94,-77.91 935.94,-77.91 935.94,-95.91"/>
<text text-anchor="middle" x="921.44" y="-84.71" font-family="Times New Roman,serif" font-size="9.00">&#45;19</text>
</g>
<!-- &#45;19&#45;&gt;0 -->
<g id="edge91" class="edge">
<title>&#45;19&#45;&gt;0</title>
<path fill="none" stroke="green" stroke-width="0.22" d="M914.62,-77.83C910.43,-73.46 904.68,-68.4 898.44,-65.7 746.84,0.01 685.77,-80.13 528.44,-29.7 527.38,-29.36 526.33,-28.97 525.27,-28.54"/>
<polygon fill="green" stroke="green" stroke-width="0.22" points="526.68,-25.33 516.18,-23.95 523.53,-31.58 526.68,-25.33"/>
</g>
<!-- &#45;19&#45;&gt;1 -->
<g id="edge92" class="edge">
<title>&#45;19&#45;&gt;1</title>
<path fill="none" stroke="green" stroke-width="0.19" d="M914.6,-77.87C910.41,-73.5 904.66,-68.45 898.44,-65.7 766.73,-7.48 713.25,-74.64 576.44,-29.7 575.56,-29.41 574.67,-29.09 573.79,-28.73"/>
<polygon fill="green" stroke="green" stroke-width="0.19" points="575.2,-25.52 564.68,-24.21 572.08,-31.79 575.2,-25.52"/>
</g>
<!-- &#45;19&#45;&gt;2 -->
<g id="edge93" class="edge">
<title>&#45;19&#45;&gt;2</title>
<path fill="none" stroke="green" stroke-width="0.1" d="M914.19,-77.5C910.02,-73.25 904.44,-68.42 898.44,-65.7 786.58,-14.96 740.75,-69.15 624.44,-29.7 623.56,-29.4 622.68,-29.07 621.8,-28.71"/>
<polygon fill="green" stroke="green" stroke-width="0.1" points="623.21,-25.5 612.7,-24.16 620.08,-31.76 623.21,-25.5"/>
</g>
<!-- &#45;19&#45;&gt;3 -->
<g id="edge94" class="edge">
<title>&#45;19&#45;&gt;3</title>
<path fill="none" stroke="red" stroke-width="0.2" d="M914.16,-77.57C909.98,-73.33 904.4,-68.5 898.44,-65.7 806.39,-22.42 768.3,-63.68 672.44,-29.7 671.56,-29.39 670.69,-29.05 669.81,-28.68"/>
<polygon fill="red" stroke="red" stroke-width="0.2" points="671.23,-25.48 660.72,-24.09 668.07,-31.72 671.23,-25.48"/>
</g>
<!-- &#45;19&#45;&gt;4 -->
<g id="edge95" class="edge">
<title>&#45;19&#45;&gt;4</title>
<path fill="none" stroke="green" stroke-width="0.48" d="M914.06,-77.77C909.86,-73.59 904.28,-68.75 898.44,-65.7 839.47,-34.89 760.79,-22.61 721.29,-18.14"/>
<polygon fill="green" stroke="green" stroke-width="0.48" points="721.55,-14.65 711.23,-17.08 720.81,-21.61 721.55,-14.65"/>
</g>
<!-- &#45;20 -->
<g id="node20" class="node">
<title>&#45;20</title>
<polygon fill="lightgray" stroke="black" points="982.94,-95.91 953.94,-95.91 953.94,-77.91 982.94,-77.91 982.94,-95.91"/>
<text text-anchor="middle" x="968.44" y="-84.71" font-family="Times New Roman,serif" font-size="9.00">&#45;20</text>
</g>
<!-- &#45;20&#45;&gt;0 -->
<g id="edge96" class="edge">
<title>&#45;20&#45;&gt;0</title>
<path fill="none" stroke="green" stroke-width="0.74" d="M961.63,-77.81C957.44,-73.42 951.69,-68.37 945.44,-65.7 774.36,7.35 705.89,-85.51 528.44,-29.7 527.38,-29.37 526.32,-28.98 525.27,-28.56"/>
<polygon fill="green" stroke="green" stroke-width="0.74" points="526.67,-25.35 516.17,-23.98 523.53,-31.6 526.67,-25.35"/>
</g>
<!-- &#45;20&#45;&gt;1 -->
<g id="edge97" class="edge">
<title>&#45;20&#45;&gt;1</title>
<path fill="none" stroke="red" stroke-width="0.12" d="M961.62,-77.84C957.43,-73.46 951.68,-68.41 945.44,-65.7 794.26,-0.15 733.35,-80.01 576.44,-29.7 575.38,-29.36 574.33,-28.97 573.27,-28.54"/>
<polygon fill="red" stroke="red" stroke-width="0.12" points="574.68,-25.33 564.18,-23.95 571.53,-31.58 574.68,-25.33"/>
</g>
<!-- &#45;20&#45;&gt;2 -->
<g id="edge98" class="edge">
<title>&#45;20&#45;&gt;2</title>
<path fill="none" stroke="red" stroke-width="0.3" d="M961.6,-77.87C957.41,-73.5 951.66,-68.45 945.44,-65.7 814.14,-7.64 760.82,-74.52 624.44,-29.7 623.56,-29.41 622.67,-29.09 621.79,-28.73"/>
<polygon fill="red" stroke="red" stroke-width="0.3" points="623.2,-25.52 612.68,-24.21 620.08,-31.79 623.2,-25.52"/>
</g>
<!-- &#45;20&#45;&gt;3 -->
<g id="edge99" class="edge">
<title>&#45;20&#45;&gt;3</title>
<path fill="none" stroke="red" stroke-width="0.37" d="M961.19,-77.5C957.02,-73.25 951.44,-68.42 945.44,-65.7 833.99,-15.12 788.33,-69.04 672.44,-29.7 671.56,-29.4 670.68,-29.07 669.8,-28.71"/>
<polygon fill="red" stroke="red" stroke-width="0.37" points="671.21,-25.5 660.7,-24.16 668.08,-31.76 671.21,-25.5"/>
</g>
<!-- &#45;20&#45;&gt;4 -->
<g id="edge100" class="edge">
<title>&#45;20&#45;&gt;4</title>
<path fill="none" stroke="red" stroke-width="0.41" d="M961.11,-77.66C956.93,-73.45 951.35,-68.62 945.44,-65.7 869.71,-28.24 767.82,-18.93 721.38,-16.62"/>
<polygon fill="red" stroke="red" stroke-width="0.41" points="721.46,-13.12 711.32,-16.18 721.16,-20.11 721.46,-13.12"/>
</g>
<!-- 120&#45;&gt;0 -->
<g id="edge102" class="edge">
<title>120&#45;&gt;0</title>
<path fill="none" stroke="red" stroke-width="0.2" d="M56.58,-74.15C62.06,-70.91 68.31,-67.73 74.44,-65.7 222.11,-16.83 412.08,-14.4 479.42,-15.26"/>
<polygon fill="red" stroke="red" stroke-width="0.2" points="479.44,-18.76 489.5,-15.42 479.55,-11.76 479.44,-18.76"/>
</g>
<!-- 184&#45;&gt;4 -->
<g id="edge104" class="edge">
<title>184&#45;&gt;4</title>
<path fill="none" stroke="green" stroke-width="0.47" d="M1237.32,-74.07C1231.84,-70.83 1225.59,-67.66 1219.44,-65.7 1124.78,-35.44 812.32,-20.58 721.44,-16.82"/>
<polygon fill="green" stroke="green" stroke-width="0.47" points="721.39,-13.32 711.25,-16.41 721.1,-20.31 721.39,-13.32"/>
</g>
</g>
</svg>
