<?xml version="1.0" encoding="UTF-8" standalone="no"?>
<!DOCTYPE svg PUBLIC "-//W3C//DTD SVG 1.1//EN"
 "http://www.w3.org/Graphics/SVG/1.1/DTD/svg11.dtd">
<!-- Generated by graphviz version 2.49.0 (20210828.1703)
 -->
<!-- Pages: 1 -->
<svg width="2137pt" height="348pt"
 viewBox="0.00 0.00 2136.83 348.19" xmlns="http://www.w3.org/2000/svg" xmlns:xlink="http://www.w3.org/1999/xlink">
<g id="graph0" class="graph" transform="scale(1 1) rotate(0) translate(4 344.19)">
<polygon fill="white" stroke="transparent" points="-4,4 -4,-344.19 2132.83,-344.19 2132.83,4 -4,4"/>
<!-- &#45;1 -->
<g id="node1" class="node">
<title>&#45;1</title>
<polygon fill="lightgray" stroke="black" points="736.95,-270.44 712.95,-270.44 712.95,-252.44 736.95,-252.44 736.95,-270.44"/>
<text text-anchor="middle" x="724.95" y="-259.24" font-family="Times New Roman,serif" font-size="9.00">&#45;1</text>
</g>
<!-- 929 -->
<g id="node28" class="node">
<title>929</title>
<ellipse fill="white" stroke="black" cx="622.95" cy="-175.94" rx="21.43" ry="21.43"/>
<text text-anchor="middle" x="622.95" y="-173.74" font-family="Times New Roman,serif" font-size="9.00">929</text>
</g>
<!-- &#45;1&#45;&gt;929 -->
<g id="edge1" class="edge">
<title>&#45;1&#45;&gt;929</title>
<path fill="none" stroke="red" stroke-width="0.24" d="M718.38,-252.09C714.45,-247.33 709.2,-241.4 703.95,-236.69 683.29,-218.18 675.17,-217.31 652.95,-200.69 651.09,-199.3 649.18,-197.85 647.27,-196.38"/>
<polygon fill="red" stroke="red" stroke-width="0.24" points="649.05,-193.33 639.01,-189.93 644.74,-198.84 649.05,-193.33"/>
</g>
<!-- 931 -->
<g id="node29" class="node">
<title>931</title>
<ellipse fill="white" stroke="black" cx="1304.95" cy="-175.94" rx="21.43" ry="21.43"/>
<text text-anchor="middle" x="1304.95" y="-173.74" font-family="Times New Roman,serif" font-size="9.00">931</text>
</g>
<!-- &#45;1&#45;&gt;931 -->
<g id="edge2" class="edge">
<title>&#45;1&#45;&gt;931</title>
<path fill="none" stroke="red" stroke-width="0.41" d="M729.72,-252.34C733.41,-246.89 739.04,-240.11 745.95,-236.69 846.81,-186.85 1141.74,-227.74 1250.95,-200.69 1259.81,-198.5 1269.05,-194.95 1277.32,-191.27"/>
<polygon fill="red" stroke="red" stroke-width="0.41" points="1278.96,-194.36 1286.52,-186.94 1275.98,-188.03 1278.96,-194.36"/>
</g>
<!-- 935 -->
<g id="node30" class="node">
<title>935</title>
<ellipse fill="white" stroke="black" cx="883.95" cy="-90.45" rx="21.43" ry="21.43"/>
<text text-anchor="middle" x="883.95" y="-88.25" font-family="Times New Roman,serif" font-size="9.00">935</text>
</g>
<!-- &#45;1&#45;&gt;935 -->
<g id="edge3" class="edge">
<title>&#45;1&#45;&gt;935</title>
<path fill="none" stroke="red" stroke-width="0.41" d="M729.58,-252.41C740.77,-233.43 770.78,-184.88 803.95,-151.2 813.01,-142 838.61,-123.27 858.44,-109.23"/>
<polygon fill="red" stroke="red" stroke-width="0.41" points="860.63,-111.96 866.79,-103.34 856.6,-106.24 860.63,-111.96"/>
</g>
<!-- 938 -->
<g id="node31" class="node">
<title>938</title>
<ellipse fill="white" stroke="black" cx="682.95" cy="-175.94" rx="21.43" ry="21.43"/>
<text text-anchor="middle" x="682.95" y="-173.74" font-family="Times New Roman,serif" font-size="9.00">938</text>
</g>
<!-- &#45;1&#45;&gt;938 -->
<g id="edge4" class="edge">
<title>&#45;1&#45;&gt;938</title>
<path fill="none" stroke="red" stroke-width="0.82" stroke-dasharray="1,5" d="M720.92,-252.44C715.43,-241.52 705.31,-221.4 696.9,-204.68"/>
<polygon fill="red" stroke="red" stroke-width="0.82" points="699.81,-202.68 692.19,-195.32 693.56,-205.83 699.81,-202.68"/>
</g>
<!-- 939 -->
<g id="node32" class="node">
<title>939</title>
<ellipse fill="white" stroke="black" cx="1122.95" cy="-175.94" rx="21.43" ry="21.43"/>
<text text-anchor="middle" x="1122.95" y="-173.74" font-family="Times New Roman,serif" font-size="9.00">939</text>
</g>
<!-- &#45;1&#45;&gt;939 -->
<g id="edge5" class="edge">
<title>&#45;1&#45;&gt;939</title>
<path fill="none" stroke="green" stroke-width="0.29" d="M730.14,-252.05C733.87,-246.77 739.39,-240.29 745.95,-236.69 805.59,-203.96 1012.11,-185.3 1091.51,-179.19"/>
<polygon fill="green" stroke="green" stroke-width="0.29" points="1092.13,-182.66 1101.84,-178.41 1091.61,-175.67 1092.13,-182.66"/>
</g>
<!-- 940 -->
<g id="node33" class="node">
<title>940</title>
<ellipse fill="white" stroke="black" cx="1220.95" cy="-175.94" rx="21.43" ry="21.43"/>
<text text-anchor="middle" x="1220.95" y="-173.74" font-family="Times New Roman,serif" font-size="9.00">940</text>
</g>
<!-- &#45;1&#45;&gt;940 -->
<g id="edge6" class="edge">
<title>&#45;1&#45;&gt;940</title>
<path fill="none" stroke="red" stroke-width="0.57" stroke-dasharray="1,5" d="M729.74,-252.37C733.43,-246.94 739.07,-240.17 745.95,-236.69 827,-195.78 1064.19,-219.81 1152.95,-200.69 1166.13,-197.86 1180.27,-193.2 1192.22,-188.75"/>
<polygon fill="red" stroke="red" stroke-width="0.57" points="1193.6,-191.97 1201.68,-185.11 1191.09,-185.44 1193.6,-191.97"/>
</g>
<!-- &#45;2 -->
<g id="node2" class="node">
<title>&#45;2</title>
<polygon fill="lightgray" stroke="black" points="1009.95,-270.44 985.95,-270.44 985.95,-252.44 1009.95,-252.44 1009.95,-270.44"/>
<text text-anchor="middle" x="997.95" y="-259.24" font-family="Times New Roman,serif" font-size="9.00">&#45;2</text>
</g>
<!-- &#45;2&#45;&gt;929 -->
<g id="edge7" class="edge">
<title>&#45;2&#45;&gt;929</title>
<path fill="none" stroke="red" stroke-width="0.32" stroke-dasharray="1,5" d="M993.13,-252.42C989.43,-247.01 983.79,-240.24 976.95,-236.69 848.35,-169.95 786.95,-255.8 652.95,-200.69 650.58,-199.72 648.25,-198.5 646,-197.14"/>
<polygon fill="red" stroke="red" stroke-width="0.32" points="647.96,-194.24 637.77,-191.33 643.92,-199.96 647.96,-194.24"/>
</g>
<!-- &#45;2&#45;&gt;931 -->
<g id="edge8" class="edge">
<title>&#45;2&#45;&gt;931</title>
<path fill="none" stroke="red" stroke-width="0.21" d="M1003.14,-252.05C1006.87,-246.76 1012.38,-240.28 1018.95,-236.69 1110.5,-186.64 1150.79,-229.94 1250.95,-200.69 1259.71,-198.13 1268.92,-194.48 1277.2,-190.8"/>
<polygon fill="red" stroke="red" stroke-width="0.21" points="1278.8,-193.91 1286.41,-186.54 1275.86,-187.56 1278.8,-193.91"/>
</g>
<!-- &#45;2&#45;&gt;935 -->
<g id="edge9" class="edge">
<title>&#45;2&#45;&gt;935</title>
<path fill="none" stroke="red" stroke-width="0.3" d="M994.1,-252.43C985.06,-233.91 961.28,-186.97 935.95,-151.2 926.74,-138.19 915.21,-124.72 905.36,-113.87"/>
<polygon fill="red" stroke="red" stroke-width="0.3" points="907.88,-111.44 898.53,-106.47 902.74,-116.19 907.88,-111.44"/>
</g>
<!-- &#45;2&#45;&gt;938 -->
<g id="edge10" class="edge">
<title>&#45;2&#45;&gt;938</title>
<path fill="none" stroke="green" stroke-width="0.16" d="M992.71,-252.15C988.95,-246.9 983.43,-240.44 976.95,-236.69 891.35,-187.27 771.1,-178.29 714.61,-176.95"/>
<polygon fill="green" stroke="green" stroke-width="0.16" points="714.57,-173.45 704.51,-176.78 714.45,-180.45 714.57,-173.45"/>
</g>
<!-- &#45;2&#45;&gt;939 -->
<g id="edge11" class="edge">
<title>&#45;2&#45;&gt;939</title>
<path fill="none" stroke="green" stroke-width="0.71" d="M1003.99,-252.36C1007.91,-247.46 1013.32,-241.28 1018.95,-236.69 1042.42,-217.55 1072.8,-200.87 1094.66,-190.03"/>
<polygon fill="green" stroke="green" stroke-width="0.71" points="1096.28,-193.14 1103.75,-185.62 1093.23,-186.84 1096.28,-193.14"/>
</g>
<!-- &#45;2&#45;&gt;940 -->
<g id="edge12" class="edge">
<title>&#45;2&#45;&gt;940</title>
<path fill="none" stroke="green" stroke-width="0.26" d="M1003.27,-252.28C1007.06,-247.09 1012.59,-240.64 1018.95,-236.69 1071.37,-204.22 1094.02,-218.87 1152.95,-200.69 1165.74,-196.75 1179.72,-191.95 1191.66,-187.7"/>
<polygon fill="green" stroke="green" stroke-width="0.26" points="1192.91,-190.97 1201.14,-184.3 1190.55,-184.38 1192.91,-190.97"/>
</g>
<!-- &#45;3 -->
<g id="node3" class="node">
<title>&#45;3</title>
<polygon fill="lightgray" stroke="black" points="464.95,-340.19 440.95,-340.19 440.95,-322.19 464.95,-322.19 464.95,-340.19"/>
<text text-anchor="middle" x="452.95" y="-328.99" font-family="Times New Roman,serif" font-size="9.00">&#45;3</text>
</g>
<!-- 1567 -->
<g id="node27" class="node">
<title>1567</title>
<ellipse fill="white" stroke="black" cx="399.95" cy="-261.44" rx="25" ry="25"/>
<text text-anchor="middle" x="399.95" y="-259.24" font-family="Times New Roman,serif" font-size="9.00">1567</text>
</g>
<!-- &#45;3&#45;&gt;1567 -->
<g id="edge161" class="edge">
<title>&#45;3&#45;&gt;1567</title>
<path fill="none" stroke="green" stroke-width="0.27" d="M446.66,-322.15C440.33,-314.07 430.22,-301.14 421.02,-289.38"/>
<polygon fill="green" stroke="green" stroke-width="0.27" points="423.77,-287.22 414.86,-281.5 418.26,-291.53 423.77,-287.22"/>
</g>
<!-- &#45;3&#45;&gt;929 -->
<g id="edge13" class="edge">
<title>&#45;3&#45;&gt;929</title>
<path fill="none" stroke="green" stroke-width="0.29" d="M440.9,-328.75C388.18,-322.4 179.95,-296.71 170.95,-286.19 156.64,-269.48 156.45,-253.24 170.95,-236.69 184.92,-220.76 491.94,-189.66 591.84,-179.93"/>
<polygon fill="green" stroke="green" stroke-width="0.29" points="592.3,-183.4 601.91,-178.95 591.62,-176.43 592.3,-183.4"/>
</g>
<!-- &#45;3&#45;&gt;931 -->
<g id="edge14" class="edge">
<title>&#45;3&#45;&gt;931</title>
<path fill="none" stroke="red" stroke-width="0.35" stroke-dasharray="1,5" d="M465.11,-330.19C584.1,-330.15 1537.3,-328.46 1577.95,-286.19 1652,-209.19 1422.55,-185.08 1336.32,-178.84"/>
<polygon fill="red" stroke="red" stroke-width="0.35" points="1336.52,-175.34 1326.31,-178.15 1336.04,-182.33 1336.52,-175.34"/>
</g>
<!-- &#45;3&#45;&gt;935 -->
<g id="edge15" class="edge">
<title>&#45;3&#45;&gt;935</title>
<path fill="none" stroke="green" stroke-width="0.54" d="M440.57,-328.98C370.22,-322.11 23.76,-288.2 21.95,-286.19 7.2,-269.86 10.47,-255.46 21.95,-236.69 65.45,-165.56 108.8,-174.2 188.95,-151.2 221.29,-141.92 721.31,-103.72 852.58,-93.8"/>
<polygon fill="green" stroke="green" stroke-width="0.54" points="853.05,-97.28 862.76,-93.04 852.53,-90.3 853.05,-97.28"/>
</g>
<!-- &#45;3&#45;&gt;938 -->
<g id="edge16" class="edge">
<title>&#45;3&#45;&gt;938</title>
<path fill="none" stroke="green" stroke-width="0.18" d="M456,-321.98C463.24,-303.66 483.25,-259.33 514.95,-236.69 566.53,-199.85 596.22,-228.97 652.95,-200.69 655.03,-199.66 657.09,-198.46 659.12,-197.17"/>
<polygon fill="green" stroke="green" stroke-width="0.18" points="661.52,-199.76 667.6,-191.08 657.43,-194.07 661.52,-199.76"/>
</g>
<!-- &#45;3&#45;&gt;939 -->
<g id="edge17" class="edge">
<title>&#45;3&#45;&gt;939</title>
<path fill="none" stroke="red" stroke-width="0.27" d="M465.02,-330.38C552.57,-331.62 1088.2,-337.11 1135.95,-286.19 1156.25,-264.54 1147.12,-228.93 1136.8,-204.28"/>
<polygon fill="red" stroke="red" stroke-width="0.27" points="1139.98,-202.8 1132.7,-195.1 1133.59,-205.66 1139.98,-202.8"/>
</g>
<!-- &#45;3&#45;&gt;940 -->
<g id="edge18" class="edge">
<title>&#45;3&#45;&gt;940</title>
<path fill="none" stroke="green" stroke-width="0.31" stroke-dasharray="1,5" d="M464.99,-330.16C578.95,-329.78 1464.18,-325.58 1501.95,-286.19 1517.18,-270.31 1516.23,-253.42 1501.95,-236.69 1468.78,-197.85 1323.95,-215.09 1274.95,-200.69 1266.19,-198.12 1256.99,-194.46 1248.71,-190.78"/>
<polygon fill="green" stroke="green" stroke-width="0.31" points="1250.04,-187.54 1239.5,-186.52 1247.1,-193.9 1250.04,-187.54"/>
</g>
<!-- &#45;4 -->
<g id="node4" class="node">
<title>&#45;4</title>
<polygon fill="lightgray" stroke="black" points="1093.95,-270.44 1069.95,-270.44 1069.95,-252.44 1093.95,-252.44 1093.95,-270.44"/>
<text text-anchor="middle" x="1081.95" y="-259.24" font-family="Times New Roman,serif" font-size="9.00">&#45;4</text>
</g>
<!-- &#45;4&#45;&gt;929 -->
<g id="edge19" class="edge">
<title>&#45;4&#45;&gt;929</title>
<path fill="none" stroke="green" stroke-width="0.21" d="M1077.16,-252.37C1073.46,-246.94 1067.83,-240.17 1060.95,-236.69 898.43,-154.68 822.08,-268.01 652.95,-200.69 650.57,-199.75 648.23,-198.55 645.97,-197.2"/>
<polygon fill="green" stroke="green" stroke-width="0.21" points="647.93,-194.29 637.73,-191.41 643.91,-200.02 647.93,-194.29"/>
</g>
<!-- &#45;4&#45;&gt;931 -->
<g id="edge20" class="edge">
<title>&#45;4&#45;&gt;931</title>
<path fill="none" stroke="red" stroke-width="0.5" d="M1094.36,-256.41C1122.48,-247.19 1193.08,-223.61 1250.95,-200.69 1259.37,-197.36 1268.41,-193.5 1276.64,-189.87"/>
<polygon fill="red" stroke="red" stroke-width="0.5" points="1278.15,-193.03 1285.85,-185.76 1275.29,-186.64 1278.15,-193.03"/>
</g>
<!-- &#45;4&#45;&gt;935 -->
<g id="edge21" class="edge">
<title>&#45;4&#45;&gt;935</title>
<path fill="none" stroke="red" stroke-width="0.25" stroke-dasharray="1,5" d="M1077.44,-252.23C1066.22,-232.45 1035.16,-181.53 996.95,-151.2 967.05,-127.46 952.19,-133.98 918.95,-115.2 915.69,-113.35 912.34,-111.3 909.06,-109.2"/>
<polygon fill="red" stroke="red" stroke-width="0.25" points="910.95,-106.25 900.68,-103.62 907.06,-112.07 910.95,-106.25"/>
</g>
<!-- &#45;4&#45;&gt;938 -->
<g id="edge22" class="edge">
<title>&#45;4&#45;&gt;938</title>
<path fill="none" stroke="green" stroke-width="0.46" stroke-dasharray="1,5" d="M1076.76,-252.05C1073.03,-246.77 1067.51,-240.29 1060.95,-236.69 1001.14,-203.88 794.08,-185.27 714.47,-179.18"/>
<polygon fill="green" stroke="green" stroke-width="0.46" points="714.35,-175.66 704.11,-178.41 713.82,-182.64 714.35,-175.66"/>
</g>
<!-- &#45;4&#45;&gt;939 -->
<g id="edge23" class="edge">
<title>&#45;4&#45;&gt;939</title>
<path fill="none" stroke="green" stroke-width="0.77" d="M1085.88,-252.44C1091.24,-241.52 1101.12,-221.4 1109.33,-204.68"/>
<polygon fill="green" stroke="green" stroke-width="0.77" points="1112.66,-205.84 1113.93,-195.32 1106.38,-202.75 1112.66,-205.84"/>
</g>
<!-- &#45;4&#45;&gt;940 -->
<g id="edge24" class="edge">
<title>&#45;4&#45;&gt;940</title>
<path fill="none" stroke="green" stroke-width="0.28" d="M1094.28,-253.03C1116.56,-239.65 1163.99,-211.16 1194.07,-193.09"/>
<polygon fill="green" stroke="green" stroke-width="0.28" points="1196.03,-196 1202.8,-187.85 1192.42,-190 1196.03,-196"/>
</g>
<!-- &#45;5 -->
<g id="node5" class="node">
<title>&#45;5</title>
<polygon fill="lightgray" stroke="black" points="1459.95,-270.44 1435.95,-270.44 1435.95,-252.44 1459.95,-252.44 1459.95,-270.44"/>
<text text-anchor="middle" x="1447.95" y="-259.24" font-family="Times New Roman,serif" font-size="9.00">&#45;5</text>
</g>
<!-- 3 -->
<g id="node24" class="node">
<title>3</title>
<ellipse fill="lightblue" stroke="black" cx="1486.95" cy="-14.85" rx="14.7" ry="14.7"/>
<text text-anchor="middle" x="1486.95" y="-12.65" font-family="Times New Roman,serif" font-size="9.00">3</text>
</g>
<!-- &#45;5&#45;&gt;3 -->
<g id="edge147" class="edge">
<title>&#45;5&#45;&gt;3</title>
<path fill="none" stroke="green" stroke-width="0.47" d="M1459.95,-259.09C1486.59,-255.36 1550.37,-242.29 1576.95,-200.69 1609.25,-150.13 1607.41,-117.39 1576.95,-65.7 1562.84,-41.76 1532.65,-28.51 1511.13,-21.8"/>
<polygon fill="green" stroke="green" stroke-width="0.47" points="1511.95,-18.39 1501.37,-19.01 1510.02,-25.12 1511.95,-18.39"/>
</g>
<!-- &#45;5&#45;&gt;929 -->
<g id="edge25" class="edge">
<title>&#45;5&#45;&gt;929</title>
<path fill="none" stroke="green" stroke-width="0.21" d="M1443.2,-252.28C1439.53,-246.81 1433.9,-240.02 1426.95,-236.69 1271.65,-162.32 814.22,-261.04 652.95,-200.69 650.55,-199.8 648.2,-198.63 645.93,-197.3"/>
<polygon fill="green" stroke="green" stroke-width="0.21" points="647.88,-194.4 637.68,-191.56 643.88,-200.14 647.88,-194.4"/>
</g>
<!-- &#45;5&#45;&gt;931 -->
<g id="edge26" class="edge">
<title>&#45;5&#45;&gt;931</title>
<path fill="none" stroke="red" stroke-width="0.42" d="M1442.01,-252.22C1438.13,-247.27 1432.73,-241.1 1426.95,-236.69 1398.3,-214.86 1360.41,-197.82 1334.51,-187.61"/>
<polygon fill="red" stroke="red" stroke-width="0.42" points="1335.46,-184.23 1324.87,-183.92 1332.95,-190.77 1335.46,-184.23"/>
</g>
<!-- &#45;5&#45;&gt;935 -->
<g id="edge27" class="edge">
<title>&#45;5&#45;&gt;935</title>
<path fill="none" stroke="red" stroke-width="0.47" d="M1442.56,-252.23C1428.11,-231.02 1386.13,-174.44 1334.95,-151.2 1194.59,-87.44 1142.09,-140.09 989.95,-115.2 964.32,-111 935.58,-104.45 914.5,-99.28"/>
<polygon fill="red" stroke="red" stroke-width="0.47" points="915.08,-95.82 904.53,-96.81 913.39,-102.61 915.08,-95.82"/>
</g>
<!-- &#45;5&#45;&gt;938 -->
<g id="edge28" class="edge">
<title>&#45;5&#45;&gt;938</title>
<path fill="none" stroke="red" stroke-width="0.64" d="M1443.17,-252.35C1439.48,-246.92 1433.84,-240.14 1426.95,-236.69 1394.57,-220.51 851.89,-187.06 714.41,-178.81"/>
<polygon fill="red" stroke="red" stroke-width="0.64" points="714.34,-175.3 704.15,-178.2 713.92,-182.29 714.34,-175.3"/>
</g>
<!-- &#45;5&#45;&gt;939 -->
<g id="edge29" class="edge">
<title>&#45;5&#45;&gt;939</title>
<path fill="none" stroke="red" stroke-width="0.23" d="M1442.76,-252.04C1439.04,-246.75 1433.52,-240.28 1426.95,-236.69 1333.79,-185.91 1293.92,-226.29 1190.95,-200.69 1177.87,-197.44 1163.74,-192.72 1151.77,-188.33"/>
<polygon fill="red" stroke="red" stroke-width="0.23" points="1152.89,-185.02 1142.3,-184.78 1150.43,-191.57 1152.89,-185.02"/>
</g>
<!-- &#45;5&#45;&gt;940 -->
<g id="edge30" class="edge">
<title>&#45;5&#45;&gt;940</title>
<path fill="none" stroke="red" stroke-width="0.68" d="M1442.66,-252.21C1438.9,-247 1433.37,-240.54 1426.95,-236.69 1367.39,-201.02 1340.77,-222.76 1274.95,-200.69 1266.29,-197.79 1257.12,-194.03 1248.84,-190.36"/>
<polygon fill="red" stroke="red" stroke-width="0.68" points="1250.16,-187.12 1239.61,-186.16 1247.26,-193.49 1250.16,-187.12"/>
</g>
<!-- &#45;6 -->
<g id="node6" class="node">
<title>&#45;6</title>
<polygon fill="lightgray" stroke="black" points="967.95,-270.44 943.95,-270.44 943.95,-252.44 967.95,-252.44 967.95,-270.44"/>
<text text-anchor="middle" x="955.95" y="-259.24" font-family="Times New Roman,serif" font-size="9.00">&#45;6</text>
</g>
<!-- &#45;6&#45;&gt;929 -->
<g id="edge31" class="edge">
<title>&#45;6&#45;&gt;929</title>
<path fill="none" stroke="green" stroke-width="0.69" d="M950.46,-251.99C946.53,-246.68 940.74,-240.19 933.95,-236.69 822.01,-179.05 768.99,-249.55 652.95,-200.69 650.59,-199.7 648.27,-198.47 646.01,-197.09"/>
<polygon fill="green" stroke="green" stroke-width="0.69" points="647.97,-194.19 637.79,-191.27 643.93,-199.91 647.97,-194.19"/>
</g>
<!-- &#45;6&#45;&gt;931 -->
<g id="edge32" class="edge">
<title>&#45;6&#45;&gt;931</title>
<path fill="none" stroke="green" stroke-width="0.88" d="M961.11,-252C964.83,-246.69 970.34,-240.21 976.95,-236.69 1085.4,-179.03 1132.66,-233.75 1250.95,-200.69 1259.74,-198.24 1268.96,-194.61 1277.23,-190.93"/>
<polygon fill="green" stroke="green" stroke-width="0.88" points="1278.85,-194.04 1286.44,-186.65 1275.9,-187.69 1278.85,-194.04"/>
</g>
<!-- &#45;6&#45;&gt;935 -->
<g id="edge33" class="edge">
<title>&#45;6&#45;&gt;935</title>
<path fill="none" stroke="red" stroke-width="0.65" d="M952.9,-252.43C945.95,-234.28 928.27,-188.69 911.95,-151.2 907.34,-140.61 902.02,-129.1 897.26,-119.03"/>
<polygon fill="red" stroke="red" stroke-width="0.65" points="900.38,-117.42 892.92,-109.9 894.05,-120.43 900.38,-117.42"/>
</g>
<!-- &#45;6&#45;&gt;938 -->
<g id="edge34" class="edge">
<title>&#45;6&#45;&gt;938</title>
<path fill="none" stroke="green" stroke-width="0.43" d="M950.33,-252.22C946.35,-247.01 940.55,-240.55 933.95,-236.69 862.78,-195.12 764.25,-182.44 714.46,-178.6"/>
<polygon fill="green" stroke="green" stroke-width="0.43" points="714.53,-175.1 704.31,-177.89 714.04,-182.08 714.53,-175.1"/>
</g>
<!-- &#45;6&#45;&gt;939 -->
<g id="edge35" class="edge">
<title>&#45;6&#45;&gt;939</title>
<path fill="none" stroke="green" stroke-width="0.21" d="M961.79,-252.09C965.63,-247.08 971.03,-240.9 976.95,-236.69 1013.06,-211.05 1061.81,-193.96 1092.82,-184.85"/>
<polygon fill="green" stroke="green" stroke-width="0.21" points="1093.95,-188.17 1102.61,-182.07 1092.04,-181.44 1093.95,-188.17"/>
</g>
<!-- &#45;6&#45;&gt;940 -->
<g id="edge36" class="edge">
<title>&#45;6&#45;&gt;940</title>
<path fill="none" stroke="green" stroke-width="0.26" d="M961.19,-252.15C964.95,-246.91 970.47,-240.44 976.95,-236.69 1046.07,-196.73 1075.98,-221.9 1152.95,-200.69 1165.95,-197.11 1180.06,-192.33 1192.04,-188"/>
<polygon fill="green" stroke="green" stroke-width="0.26" points="1193.36,-191.25 1201.53,-184.51 1190.94,-184.68 1193.36,-191.25"/>
</g>
<!-- &#45;7 -->
<g id="node7" class="node">
<title>&#45;7</title>
<polygon fill="lightgray" stroke="black" points="694.95,-270.44 670.95,-270.44 670.95,-252.44 694.95,-252.44 694.95,-270.44"/>
<text text-anchor="middle" x="682.95" y="-259.24" font-family="Times New Roman,serif" font-size="9.00">&#45;7</text>
</g>
<!-- &#45;7&#45;&gt;929 -->
<g id="edge37" class="edge">
<title>&#45;7&#45;&gt;929</title>
<path fill="none" stroke="red" stroke-width="0.29" stroke-dasharray="1,5" d="M677.2,-252.44C668.95,-240.97 653.42,-219.35 641.08,-202.17"/>
<polygon fill="red" stroke="red" stroke-width="0.29" points="643.65,-199.75 634.97,-193.67 637.96,-203.84 643.65,-199.75"/>
</g>
<!-- &#45;7&#45;&gt;931 -->
<g id="edge38" class="edge">
<title>&#45;7&#45;&gt;931</title>
<path fill="none" stroke="green" stroke-width="0.38" d="M687.72,-252.32C691.4,-246.87 697.03,-240.09 703.95,-236.69 813.31,-183.02 1132.62,-229.65 1250.95,-200.69 1259.82,-198.52 1269.05,-194.99 1277.33,-191.3"/>
<polygon fill="green" stroke="green" stroke-width="0.38" points="1278.97,-194.39 1286.52,-186.97 1275.98,-188.06 1278.97,-194.39"/>
</g>
<!-- &#45;7&#45;&gt;935 -->
<g id="edge39" class="edge">
<title>&#45;7&#45;&gt;935</title>
<path fill="none" stroke="red" stroke-width="0.49" d="M686.68,-252.4C696.27,-232.55 723.67,-180.7 760.95,-151.2 794.08,-124.97 811.71,-135.17 848.95,-115.2 852.25,-113.43 855.62,-111.42 858.91,-109.34"/>
<polygon fill="red" stroke="red" stroke-width="0.49" points="860.9,-112.22 867.3,-103.78 857.03,-106.38 860.9,-112.22"/>
</g>
<!-- &#45;7&#45;&gt;938 -->
<g id="edge40" class="edge">
<title>&#45;7&#45;&gt;938</title>
<path fill="none" stroke="red" stroke-width="0.17" d="M682.95,-252.44C682.95,-242.12 682.95,-223.61 682.95,-207.49"/>
<polygon fill="red" stroke="red" stroke-width="0.17" points="686.45,-207.36 682.95,-197.36 679.45,-207.36 686.45,-207.36"/>
</g>
<!-- &#45;7&#45;&gt;939 -->
<g id="edge41" class="edge">
<title>&#45;7&#45;&gt;939</title>
<path fill="none" stroke="red" stroke-width="0.22" d="M688.12,-252.02C691.84,-246.72 697.36,-240.24 703.95,-236.69 771.26,-200.43 1006.01,-183.64 1091.5,-178.63"/>
<polygon fill="red" stroke="red" stroke-width="0.22" points="1091.84,-182.11 1101.63,-178.05 1091.44,-175.13 1091.84,-182.11"/>
</g>
<!-- &#45;7&#45;&gt;940 -->
<g id="edge42" class="edge">
<title>&#45;7&#45;&gt;940</title>
<path fill="none" stroke="red" stroke-width="0.26" d="M687.73,-252.35C691.42,-246.92 697.06,-240.14 703.95,-236.69 793.49,-191.95 1055.01,-221.36 1152.95,-200.69 1166.14,-197.91 1180.28,-193.26 1192.23,-188.81"/>
<polygon fill="red" stroke="red" stroke-width="0.26" points="1193.62,-192.02 1201.69,-185.16 1191.1,-185.49 1193.62,-192.02"/>
</g>
<!-- &#45;8 -->
<g id="node8" class="node">
<title>&#45;8</title>
<polygon fill="lightgray" stroke="black" points="1051.95,-270.44 1027.95,-270.44 1027.95,-252.44 1051.95,-252.44 1051.95,-270.44"/>
<text text-anchor="middle" x="1039.95" y="-259.24" font-family="Times New Roman,serif" font-size="9.00">&#45;8</text>
</g>
<!-- &#45;8&#45;&gt;929 -->
<g id="edge43" class="edge">
<title>&#45;8&#45;&gt;929</title>
<path fill="none" stroke="red" stroke-width="0.26" d="M1035.15,-252.39C1031.45,-246.97 1025.81,-240.2 1018.95,-236.69 873.4,-162.32 804.51,-261.9 652.95,-200.69 650.58,-199.74 648.24,-198.53 645.98,-197.17"/>
<polygon fill="red" stroke="red" stroke-width="0.26" points="647.94,-194.27 637.75,-191.38 643.91,-199.99 647.94,-194.27"/>
</g>
<!-- &#45;8&#45;&gt;931 -->
<g id="edge44" class="edge">
<title>&#45;8&#45;&gt;931</title>
<path fill="none" stroke="green" stroke-width="0.14" d="M1045.18,-252.12C1048.92,-246.86 1054.44,-240.39 1060.95,-236.69 1135.66,-194.21 1168.86,-226.16 1250.95,-200.69 1259.67,-197.99 1268.86,-194.29 1277.14,-190.61"/>
<polygon fill="green" stroke="green" stroke-width="0.14" points="1278.74,-193.73 1286.36,-186.37 1275.81,-187.37 1278.74,-193.73"/>
</g>
<!-- &#45;8&#45;&gt;935 -->
<g id="edge45" class="edge">
<title>&#45;8&#45;&gt;935</title>
<path fill="none" stroke="green" stroke-width="0.63" stroke-dasharray="1,5" d="M1035.56,-252.39C1024.95,-233.37 996.39,-184.75 963.95,-151.2 954.97,-141.91 929.36,-123.21 909.51,-109.18"/>
<polygon fill="green" stroke="green" stroke-width="0.63" points="911.34,-106.19 901.14,-103.31 907.32,-111.92 911.34,-106.19"/>
</g>
<!-- &#45;8&#45;&gt;938 -->
<g id="edge46" class="edge">
<title>&#45;8&#45;&gt;938</title>
<path fill="none" stroke="green" stroke-width="0.19" d="M1034.73,-252.09C1031,-246.83 1025.48,-240.36 1018.95,-236.69 966.73,-207.39 787.51,-187.11 714.39,-179.88"/>
<polygon fill="green" stroke="green" stroke-width="0.19" points="714.29,-176.35 704,-178.87 713.62,-183.32 714.29,-176.35"/>
</g>
<!-- &#45;8&#45;&gt;939 -->
<g id="edge47" class="edge">
<title>&#45;8&#45;&gt;939</title>
<path fill="none" stroke="red" stroke-width="0.14" d="M1046.79,-252.38C1050.83,-247.72 1056.08,-241.78 1060.95,-236.69 1073.67,-223.41 1088.49,-209.09 1100.45,-197.8"/>
<polygon fill="red" stroke="red" stroke-width="0.14" points="1102.94,-200.26 1107.84,-190.86 1098.15,-195.16 1102.94,-200.26"/>
</g>
<!-- &#45;8&#45;&gt;940 -->
<g id="edge48" class="edge">
<title>&#45;8&#45;&gt;940</title>
<path fill="none" stroke="green" stroke-width="0.25" d="M1045.74,-252.02C1049.57,-246.99 1054.96,-240.81 1060.95,-236.69 1066.59,-232.82 1147.24,-203.48 1191.83,-187.41"/>
<polygon fill="green" stroke="green" stroke-width="0.25" points="1193.05,-190.68 1201.28,-184 1190.68,-184.1 1193.05,-190.68"/>
</g>
<!-- &#45;9 -->
<g id="node9" class="node">
<title>&#45;9</title>
<polygon fill="lightgray" stroke="black" points="358.95,-340.19 334.95,-340.19 334.95,-322.19 358.95,-322.19 358.95,-340.19"/>
<text text-anchor="middle" x="346.95" y="-328.99" font-family="Times New Roman,serif" font-size="9.00">&#45;9</text>
</g>
<!-- &#45;9&#45;&gt;929 -->
<g id="edge49" class="edge">
<title>&#45;9&#45;&gt;929</title>
<path fill="none" stroke="green" stroke-width="0.12" d="M334.59,-330.56C280.3,-331.89 63.81,-334.11 21.95,-286.19 7.47,-269.62 7.16,-252.98 21.95,-236.69 49.78,-206.03 351.74,-204.82 392.95,-200.69 463.98,-193.58 547.32,-184.89 591.58,-180.25"/>
<polygon fill="green" stroke="green" stroke-width="0.12" points="592.13,-183.71 601.71,-179.18 591.4,-176.75 592.13,-183.71"/>
</g>
<!-- &#45;9&#45;&gt;931 -->
<g id="edge50" class="edge">
<title>&#45;9&#45;&gt;931</title>
<path fill="none" stroke="green" stroke-width="0.12" stroke-dasharray="1,5" d="M359.04,-328.82C375.5,-327.01 405.92,-323.86 431.95,-322.19 490.53,-318.44 1447.15,-328.4 1487.95,-286.19 1503.24,-270.37 1500.87,-254.5 1487.95,-236.69 1453.12,-188.69 1378.64,-178.53 1336.22,-176.81"/>
<polygon fill="green" stroke="green" stroke-width="0.12" points="1336.26,-173.31 1326.17,-176.54 1336.07,-180.31 1336.26,-173.31"/>
</g>
<!-- &#45;9&#45;&gt;935 -->
<g id="edge51" class="edge">
<title>&#45;9&#45;&gt;935</title>
<path fill="none" stroke="green" stroke-width="0.21" d="M334.64,-329.53C276.45,-326.3 30.96,-311.26 8.95,-286.19 -24.08,-248.59 48.62,-151.42 48.95,-151.2 49.48,-150.83 700.26,-104.51 852.41,-93.69"/>
<polygon fill="green" stroke="green" stroke-width="0.21" points="852.76,-97.17 862.48,-92.97 852.26,-90.19 852.76,-97.17"/>
</g>
<!-- &#45;9&#45;&gt;938 -->
<g id="edge52" class="edge">
<title>&#45;9&#45;&gt;938</title>
<path fill="none" stroke="red" stroke-width="0.24" d="M345.79,-321.96C343.72,-303.61 341.65,-259.22 365.95,-236.69 413.09,-192.99 593.68,-225.56 652.95,-200.69 655.31,-199.7 657.63,-198.48 659.89,-197.1"/>
<polygon fill="red" stroke="red" stroke-width="0.24" points="661.97,-199.92 668.11,-191.28 657.93,-194.2 661.97,-199.92"/>
</g>
<!-- &#45;9&#45;&gt;939 -->
<g id="edge53" class="edge">
<title>&#45;9&#45;&gt;939</title>
<path fill="none" stroke="red" stroke-width="0.32" d="M359.04,-328.9C375.51,-327.17 405.93,-324.11 431.95,-322.19 506.41,-316.69 1046.9,-335.52 1102.95,-286.19 1124.86,-266.91 1127.85,-232.23 1126.64,-207.11"/>
<polygon fill="red" stroke="red" stroke-width="0.32" points="1130.12,-206.72 1125.9,-197 1123.14,-207.23 1130.12,-206.72"/>
</g>
<!-- &#45;9&#45;&gt;940 -->
<g id="edge54" class="edge">
<title>&#45;9&#45;&gt;940</title>
<path fill="none" stroke="green" stroke-width="0.45" d="M359.04,-328.83C375.5,-327.02 405.92,-323.87 431.95,-322.19 489.48,-318.49 1428.9,-327.65 1468.95,-286.19 1484.23,-270.37 1483.01,-253.61 1468.95,-236.69 1412.88,-169.26 1358.75,-226.52 1274.95,-200.69 1266.23,-198.01 1257.03,-194.31 1248.75,-190.64"/>
<polygon fill="green" stroke="green" stroke-width="0.45" points="1250.08,-187.4 1239.53,-186.39 1247.15,-193.75 1250.08,-187.4"/>
</g>
<!-- 1362 -->
<g id="node36" class="node">
<title>1362</title>
<ellipse fill="white" stroke="black" cx="55.95" cy="-261.44" rx="25" ry="25"/>
<text text-anchor="middle" x="55.95" y="-259.24" font-family="Times New Roman,serif" font-size="9.00">1362</text>
</g>
<!-- &#45;9&#45;&gt;1362 -->
<g id="edge152" class="edge">
<title>&#45;9&#45;&gt;1362</title>
<path fill="none" stroke="red" stroke-width="0.31" d="M334.72,-329.66C297.52,-327.72 182.86,-319.27 94.95,-286.19 91.48,-284.89 87.98,-283.27 84.57,-281.49"/>
<polygon fill="red" stroke="red" stroke-width="0.31" points="86.28,-278.43 75.86,-276.53 82.82,-284.52 86.28,-278.43"/>
</g>
<!-- &#45;10 -->
<g id="node10" class="node">
<title>&#45;10</title>
<polygon fill="lightgray" stroke="black" points="878.45,-270.44 849.45,-270.44 849.45,-252.44 878.45,-252.44 878.45,-270.44"/>
<text text-anchor="middle" x="863.95" y="-259.24" font-family="Times New Roman,serif" font-size="9.00">&#45;10</text>
</g>
<!-- &#45;10&#45;&gt;929 -->
<g id="edge55" class="edge">
<title>&#45;10&#45;&gt;929</title>
<path fill="none" stroke="red" stroke-width="0.19" d="M857.72,-252.13C853.33,-246.88 847,-240.41 839.95,-236.69 765.08,-197.22 729.88,-235.97 652.95,-200.69 650.62,-199.63 648.32,-198.35 646.08,-196.94"/>
<polygon fill="red" stroke="red" stroke-width="0.19" points="648.05,-194.04 637.89,-191.06 643.97,-199.73 648.05,-194.04"/>
</g>
<!-- &#45;10&#45;&gt;931 -->
<g id="edge56" class="edge">
<title>&#45;10&#45;&gt;931</title>
<path fill="none" stroke="red" stroke-width="0.45" d="M869.38,-252.39C873.51,-246.96 879.71,-240.19 886.95,-236.69 1033.33,-165.98 1093.7,-241.93 1250.95,-200.69 1259.78,-198.38 1269,-194.8 1277.28,-191.11"/>
<polygon fill="red" stroke="red" stroke-width="0.45" points="1278.91,-194.21 1286.48,-186.81 1275.94,-187.87 1278.91,-194.21"/>
</g>
<!-- &#45;10&#45;&gt;935 -->
<g id="edge57" class="edge">
<title>&#45;10&#45;&gt;935</title>
<path fill="none" stroke="red" stroke-width="0.23" d="M864.91,-252.29C867.67,-228.99 875.69,-161.22 880.4,-121.47"/>
<polygon fill="red" stroke="red" stroke-width="0.23" points="883.87,-121.88 881.57,-111.54 876.92,-121.06 883.87,-121.88"/>
</g>
<!-- &#45;10&#45;&gt;938 -->
<g id="edge156" class="edge">
<title>&#45;10&#45;&gt;938</title>
<path fill="none" stroke="red" stroke-width="0.28" d="M857.09,-252.07C852.63,-247.06 846.46,-240.88 839.95,-236.69 799.67,-210.77 746.46,-193.52 713.49,-184.48"/>
<polygon fill="red" stroke="red" stroke-width="0.28" points="714.1,-181.02 703.53,-181.83 712.3,-187.79 714.1,-181.02"/>
</g>
<!-- &#45;10&#45;&gt;939 -->
<g id="edge58" class="edge">
<title>&#45;10&#45;&gt;939</title>
<path fill="none" stroke="red" stroke-width="0.17" d="M869.92,-252.26C874.12,-247.06 880.19,-240.6 886.95,-236.69 953.29,-198.29 1044.09,-184.31 1091.39,-179.43"/>
<polygon fill="red" stroke="red" stroke-width="0.17" points="1092,-182.88 1101.62,-178.44 1091.33,-175.92 1092,-182.88"/>
</g>
<!-- &#45;10&#45;&gt;940 -->
<g id="edge59" class="edge">
<title>&#45;10&#45;&gt;940</title>
<path fill="none" stroke="red" stroke-width="0.15" d="M869.78,-252C873.93,-246.7 879.98,-240.21 886.95,-236.69 993.42,-182.88 1036.94,-228.5 1152.95,-200.69 1166.06,-197.55 1180.19,-192.84 1192.15,-188.45"/>
<polygon fill="red" stroke="red" stroke-width="0.15" points="1193.5,-191.68 1201.62,-184.87 1191.03,-185.13 1193.5,-191.68"/>
</g>
<!-- &#45;11 -->
<g id="node11" class="node">
<title>&#45;11</title>
<polygon fill="lightgray" stroke="black" points="1212.45,-340.19 1183.45,-340.19 1183.45,-322.19 1212.45,-322.19 1212.45,-340.19"/>
<text text-anchor="middle" x="1197.95" y="-328.99" font-family="Times New Roman,serif" font-size="9.00">&#45;11</text>
</g>
<!-- &#45;11&#45;&gt;929 -->
<g id="edge60" class="edge">
<title>&#45;11&#45;&gt;929</title>
<path fill="none" stroke="green" stroke-width="0.18" d="M1183.38,-330.11C1063.54,-329.38 244.18,-323.02 208.95,-286.19 193.74,-270.29 194.55,-253.32 208.95,-236.69 221.55,-222.14 497.4,-190.69 591.68,-180.33"/>
<polygon fill="green" stroke="green" stroke-width="0.18" points="592.19,-183.8 601.75,-179.23 591.43,-176.84 592.19,-183.8"/>
</g>
<!-- &#45;11&#45;&gt;931 -->
<g id="edge61" class="edge">
<title>&#45;11&#45;&gt;931</title>
<path fill="none" stroke="green" stroke-width="0.75" d="M1212.8,-329.52C1277.85,-326.43 1535.56,-312.6 1558.95,-286.19 1624.89,-211.73 1417.7,-186.24 1336.31,-179.22"/>
<polygon fill="green" stroke="green" stroke-width="0.75" points="1336.4,-175.72 1326.15,-178.39 1335.82,-182.7 1336.4,-175.72"/>
</g>
<!-- &#45;11&#45;&gt;935 -->
<g id="edge62" class="edge">
<title>&#45;11&#45;&gt;935</title>
<path fill="none" stroke="red" stroke-width="0.2" d="M1183.16,-330.12C1061.51,-329.46 229.73,-323.57 193.95,-286.19 110.15,-198.64 253.19,-176.77 324.95,-151.2 374.83,-133.42 741.88,-102.84 852.49,-93.94"/>
<polygon fill="red" stroke="red" stroke-width="0.2" points="852.98,-97.42 862.66,-93.13 852.42,-90.44 852.98,-97.42"/>
</g>
<!-- &#45;11&#45;&gt;938 -->
<g id="edge63" class="edge">
<title>&#45;11&#45;&gt;938</title>
<path fill="none" stroke="red" stroke-width="0.39" d="M1183.18,-330.36C1091.01,-331.25 597.39,-333.76 552.95,-286.19 537.93,-270.11 540.3,-254.69 552.95,-236.69 580.11,-198.05 611.67,-223.65 652.95,-200.69 654.98,-199.57 657.01,-198.3 659.01,-196.96"/>
<polygon fill="red" stroke="red" stroke-width="0.39" points="661.44,-199.52 667.44,-190.78 657.3,-193.87 661.44,-199.52"/>
</g>
<!-- &#45;11&#45;&gt;939 -->
<g id="edge64" class="edge">
<title>&#45;11&#45;&gt;939</title>
<path fill="none" stroke="red" stroke-width="0.29" d="M1197.11,-321.99C1195.11,-305.16 1189.09,-265.84 1173.95,-236.69 1166.67,-222.67 1155.53,-209.1 1145.52,-198.45"/>
<polygon fill="red" stroke="red" stroke-width="0.29" points="1147.98,-195.96 1138.5,-191.24 1142.97,-200.84 1147.98,-195.96"/>
</g>
<!-- &#45;11&#45;&gt;940 -->
<g id="edge65" class="edge">
<title>&#45;11&#45;&gt;940</title>
<path fill="none" stroke="red" stroke-width="0.23" stroke-dasharray="1,5" d="M1212.86,-329.41C1275.84,-325.97 1517.96,-311.19 1539.95,-286.19 1554.48,-269.67 1554.42,-253.26 1539.95,-236.69 1500.86,-191.93 1332.15,-216.81 1274.95,-200.69 1266.16,-198.22 1256.95,-194.59 1248.67,-190.91"/>
<polygon fill="red" stroke="red" stroke-width="0.23" points="1250.01,-187.67 1239.46,-186.63 1247.06,-194.02 1250.01,-187.67"/>
</g>
<!-- 1343 -->
<g id="node35" class="node">
<title>1343</title>
<ellipse fill="white" stroke="black" cx="1768.95" cy="-261.44" rx="25" ry="25"/>
<text text-anchor="middle" x="1768.95" y="-259.24" font-family="Times New Roman,serif" font-size="9.00">1343</text>
</g>
<!-- &#45;11&#45;&gt;1343 -->
<g id="edge150" class="edge">
<title>&#45;11&#45;&gt;1343</title>
<path fill="none" stroke="green" stroke-width="0.17" d="M1212.53,-329.89C1287.49,-328.21 1629.71,-318.83 1729.95,-286.19 1733.47,-285.04 1737.01,-283.52 1740.44,-281.8"/>
<polygon fill="green" stroke="green" stroke-width="0.17" points="1742.16,-284.85 1749.18,-276.91 1738.74,-278.74 1742.16,-284.85"/>
</g>
<!-- &#45;12 -->
<g id="node12" class="node">
<title>&#45;12</title>
<polygon fill="lightgray" stroke="black" points="1836.45,-340.19 1807.45,-340.19 1807.45,-322.19 1836.45,-322.19 1836.45,-340.19"/>
<text text-anchor="middle" x="1821.95" y="-328.99" font-family="Times New Roman,serif" font-size="9.00">&#45;12</text>
</g>
<!-- 1694 -->
<g id="node26" class="node">
<title>1694</title>
<ellipse fill="white" stroke="black" cx="2018.95" cy="-261.44" rx="25" ry="25"/>
<text text-anchor="middle" x="2018.95" y="-259.24" font-family="Times New Roman,serif" font-size="9.00">1694</text>
</g>
<!-- &#45;12&#45;&gt;1694 -->
<g id="edge165" class="edge">
<title>&#45;12&#45;&gt;1694</title>
<path fill="none" stroke="green" stroke-width="0.47" d="M1836.76,-325.1C1868.3,-314.25 1942.78,-288.64 1986.12,-273.73"/>
<polygon fill="green" stroke="green" stroke-width="0.47" points="1987.33,-277.02 1995.64,-270.46 1985.05,-270.4 1987.33,-277.02"/>
</g>
<!-- &#45;12&#45;&gt;929 -->
<g id="edge66" class="edge">
<title>&#45;12&#45;&gt;929</title>
<path fill="none" stroke="green" stroke-width="0.14" stroke-dasharray="1,5" d="M1807.18,-329.01C1784.55,-327.24 1739.91,-323.94 1701.95,-322.19 1662.48,-320.38 307.53,-314.48 279.95,-286.19 264.59,-270.44 265.79,-253.53 279.95,-236.69 300.03,-212.81 510.85,-188.59 591.66,-180.11"/>
<polygon fill="green" stroke="green" stroke-width="0.14" points="592.15,-183.57 601.73,-179.06 591.43,-176.61 592.15,-183.57"/>
</g>
<!-- &#45;12&#45;&gt;931 -->
<g id="edge67" class="edge">
<title>&#45;12&#45;&gt;931</title>
<path fill="none" stroke="red" stroke-width="0.2" d="M1836.75,-328.47C1885.53,-322.64 2038.96,-303.1 2052.95,-286.19 2066.97,-269.24 2067.87,-252.86 2052.95,-236.69 2003.69,-183.34 1472.84,-177.6 1336.65,-177.01"/>
<polygon fill="red" stroke="red" stroke-width="0.2" points="1336.48,-173.51 1326.47,-176.97 1336.45,-180.51 1336.48,-173.51"/>
</g>
<!-- &#45;12&#45;&gt;935 -->
<g id="edge68" class="edge">
<title>&#45;12&#45;&gt;935</title>
<path fill="none" stroke="red" stroke-width="0.27" d="M1836.69,-328.13C1889.17,-320.71 2064.25,-295.37 2071.95,-286.19 2086.09,-269.34 2082.03,-256.25 2071.95,-236.69 2041.95,-178.48 2013.94,-172.31 1951.95,-151.2 1749.44,-82.23 1202.1,-142.7 989.95,-115.2 964.19,-111.86 935.47,-105.24 914.42,-99.83"/>
<polygon fill="red" stroke="red" stroke-width="0.27" points="915.03,-96.37 904.47,-97.22 913.25,-103.14 915.03,-96.37"/>
</g>
<!-- &#45;12&#45;&gt;938 -->
<g id="edge69" class="edge">
<title>&#45;12&#45;&gt;938</title>
<path fill="none" stroke="green" stroke-width="0.25" d="M1807.18,-329.05C1784.54,-327.33 1739.9,-324.09 1701.95,-322.19 1642.38,-319.21 670.41,-329.07 628.95,-286.19 604.13,-260.53 635.49,-221.23 659.75,-197.43"/>
<polygon fill="green" stroke="green" stroke-width="0.25" points="662.45,-199.69 667.3,-190.28 657.63,-194.61 662.45,-199.69"/>
</g>
<!-- &#45;12&#45;&gt;939 -->
<g id="edge70" class="edge">
<title>&#45;12&#45;&gt;939</title>
<path fill="none" stroke="red" stroke-width="0.22" d="M1807.39,-329.14C1729.75,-323.49 1367.22,-296.65 1345.95,-286.19 1319,-272.94 1325.89,-251.82 1299.95,-236.69 1240.35,-201.93 1209.92,-232.99 1148.95,-200.69 1147.63,-200 1146.33,-199.22 1145.05,-198.38"/>
<polygon fill="red" stroke="red" stroke-width="0.22" points="1147.11,-195.55 1137.07,-192.19 1142.83,-201.08 1147.11,-195.55"/>
</g>
<!-- &#45;12&#45;&gt;940 -->
<g id="edge71" class="edge">
<title>&#45;12&#45;&gt;940</title>
<path fill="none" stroke="green" stroke-width="0.17" d="M1823.16,-322.14C1825.42,-303.76 1828,-258.63 1802.95,-236.69 1758.71,-197.96 1332.05,-214.74 1274.95,-200.69 1266.09,-198.51 1256.85,-194.97 1248.57,-191.28"/>
<polygon fill="green" stroke="green" stroke-width="0.17" points="1249.92,-188.05 1239.38,-186.96 1246.94,-194.38 1249.92,-188.05"/>
</g>
<!-- &#45;13 -->
<g id="node13" class="node">
<title>&#45;13</title>
<polygon fill="lightgray" stroke="black" points="784.45,-270.44 755.45,-270.44 755.45,-252.44 784.45,-252.44 784.45,-270.44"/>
<text text-anchor="middle" x="769.95" y="-259.24" font-family="Times New Roman,serif" font-size="9.00">&#45;13</text>
</g>
<!-- &#45;13&#45;&gt;929 -->
<g id="edge72" class="edge">
<title>&#45;13&#45;&gt;929</title>
<path fill="none" stroke="green" stroke-width="0.31" d="M763.08,-252.08C758.62,-247.08 752.44,-240.9 745.95,-236.69 708.75,-212.6 691.42,-222.7 652.95,-200.69 650.93,-199.54 648.91,-198.26 646.92,-196.91"/>
<polygon fill="green" stroke="green" stroke-width="0.31" points="648.63,-193.82 638.51,-190.7 644.47,-199.46 648.63,-193.82"/>
</g>
<!-- &#45;13&#45;&gt;931 -->
<g id="edge73" class="edge">
<title>&#45;13&#45;&gt;931</title>
<path fill="none" stroke="green" stroke-width="0.38" d="M775.36,-252.34C779.48,-246.9 785.68,-240.12 792.95,-236.69 885.32,-193.22 1151.94,-225.59 1250.95,-200.69 1259.8,-198.47 1269.03,-194.91 1277.31,-191.22"/>
<polygon fill="green" stroke="green" stroke-width="0.38" points="1278.94,-194.32 1286.51,-186.9 1275.97,-187.99 1278.94,-194.32"/>
</g>
<!-- &#45;13&#45;&gt;935 -->
<g id="edge74" class="edge">
<title>&#45;13&#45;&gt;935</title>
<path fill="none" stroke="red" stroke-width="0.45" d="M774.75,-252.35C785.68,-234.03 813.45,-188.11 838.95,-151.2 847.16,-139.31 856.73,-126.47 864.93,-115.75"/>
<polygon fill="red" stroke="red" stroke-width="0.45" points="867.83,-117.72 871.16,-107.67 862.29,-113.45 867.83,-117.72"/>
</g>
<!-- &#45;13&#45;&gt;938 -->
<g id="edge75" class="edge">
<title>&#45;13&#45;&gt;938</title>
<path fill="none" stroke="red" stroke-width="0.18" d="M761.55,-252.05C756.96,-247.48 751.17,-241.75 745.95,-236.69 732.63,-223.79 717.56,-209.48 705.5,-198.11"/>
<polygon fill="red" stroke="red" stroke-width="0.18" points="707.73,-195.41 698.05,-191.1 702.94,-200.5 707.73,-195.41"/>
</g>
<!-- &#45;13&#45;&gt;939 -->
<g id="edge76" class="edge">
<title>&#45;13&#45;&gt;939</title>
<path fill="none" stroke="red" stroke-width="1.17" d="M775.83,-252.1C780,-246.84 786.06,-240.37 792.95,-236.69 892.28,-183.68 1029.86,-176.66 1091.21,-176.4"/>
<polygon fill="red" stroke="red" stroke-width="1.17" points="1091.41,-179.9 1101.41,-176.42 1091.42,-172.9 1091.41,-179.9"/>
</g>
<!-- &#45;13&#45;&gt;940 -->
<g id="edge77" class="edge">
<title>&#45;13&#45;&gt;940</title>
<path fill="none" stroke="green" stroke-width="0.3" stroke-dasharray="1,5" d="M775.38,-252.39C779.51,-246.97 785.72,-240.19 792.95,-236.69 937.7,-166.67 995.95,-235.44 1152.95,-200.69 1166.11,-197.78 1180.25,-193.11 1192.2,-188.68"/>
<polygon fill="green" stroke="green" stroke-width="0.3" points="1193.58,-191.9 1201.66,-185.05 1191.07,-185.36 1193.58,-191.9"/>
</g>
<!-- &#45;14 -->
<g id="node14" class="node">
<title>&#45;14</title>
<polygon fill="lightgray" stroke="black" points="318.45,-270.44 289.45,-270.44 289.45,-252.44 318.45,-252.44 318.45,-270.44"/>
<text text-anchor="middle" x="303.95" y="-259.24" font-family="Times New Roman,serif" font-size="9.00">&#45;14</text>
</g>
<!-- &#45;14&#45;&gt;929 -->
<g id="edge78" class="edge">
<title>&#45;14&#45;&gt;929</title>
<path fill="none" stroke="red" stroke-width="0.45" d="M311.79,-252.12C317.23,-246.87 324.91,-240.4 332.95,-236.69 415.38,-198.72 445.36,-220.41 533.95,-200.69 553.6,-196.32 575.44,-190.51 592.57,-185.73"/>
<polygon fill="red" stroke="red" stroke-width="0.45" points="593.89,-188.99 602.57,-182.9 591.99,-182.25 593.89,-188.99"/>
</g>
<!-- &#45;14&#45;&gt;931 -->
<g id="edge79" class="edge">
<title>&#45;14&#45;&gt;931</title>
<path fill="none" stroke="green" stroke-width="0.5" d="M318.82,-253.17C331.13,-247.54 349.24,-240.14 365.95,-236.69 751.51,-157.24 867.43,-289.48 1250.95,-200.69 1259.84,-198.63 1269.09,-195.13 1277.36,-191.44"/>
<polygon fill="green" stroke="green" stroke-width="0.5" points="1279.01,-194.53 1286.55,-187.09 1276.02,-188.2 1279.01,-194.53"/>
</g>
<!-- &#45;14&#45;&gt;935 -->
<g id="edge80" class="edge">
<title>&#45;14&#45;&gt;935</title>
<path fill="none" stroke="green" stroke-width="0.38" d="M315.53,-252.23C322.86,-247.28 332.67,-241.1 341.95,-236.69 524.65,-149.92 767.5,-108.36 852.77,-95.75"/>
<polygon fill="green" stroke="green" stroke-width="0.38" points="853.43,-99.19 862.83,-94.29 852.43,-92.26 853.43,-99.19"/>
</g>
<!-- &#45;14&#45;&gt;938 -->
<g id="edge81" class="edge">
<title>&#45;14&#45;&gt;938</title>
<path fill="none" stroke="red" stroke-width="0.14" d="M311.25,-252.41C316.67,-247 324.55,-240.23 332.95,-236.69 464.82,-181.08 520.62,-255.21 652.95,-200.69 655.31,-199.72 657.65,-198.5 659.9,-197.13"/>
<polygon fill="red" stroke="red" stroke-width="0.14" points="661.98,-199.95 668.13,-191.33 657.94,-194.23 661.98,-199.95"/>
</g>
<!-- &#45;14&#45;&gt;940 -->
<g id="edge82" class="edge">
<title>&#45;14&#45;&gt;940</title>
<path fill="none" stroke="green" stroke-width="0.39" d="M318.83,-253.19C331.14,-247.57 349.25,-240.18 365.95,-236.69 708.71,-165.16 809.16,-267.12 1152.95,-200.69 1166.19,-198.14 1180.33,-193.52 1192.28,-189.03"/>
<polygon fill="green" stroke="green" stroke-width="0.39" points="1193.68,-192.24 1201.72,-185.34 1191.14,-185.72 1193.68,-192.24"/>
</g>
<!-- 1385 -->
<g id="node38" class="node">
<title>1385</title>
<ellipse fill="white" stroke="black" cx="358.95" cy="-175.94" rx="25" ry="25"/>
<text text-anchor="middle" x="358.95" y="-173.74" font-family="Times New Roman,serif" font-size="9.00">1385</text>
</g>
<!-- &#45;14&#45;&gt;1385 -->
<g id="edge154" class="edge">
<title>&#45;14&#45;&gt;1385</title>
<path fill="none" stroke="green" stroke-width="0.1" d="M309.22,-252.44C316.26,-241.76 329.08,-222.29 339.94,-205.8"/>
<polygon fill="green" stroke="green" stroke-width="0.1" points="343.15,-207.29 345.73,-197.02 337.3,-203.44 343.15,-207.29"/>
</g>
<!-- &#45;15 -->
<g id="node15" class="node">
<title>&#45;15</title>
<polygon fill="lightgray" stroke="black" points="831.45,-270.44 802.45,-270.44 802.45,-252.44 831.45,-252.44 831.45,-270.44"/>
<text text-anchor="middle" x="816.95" y="-259.24" font-family="Times New Roman,serif" font-size="9.00">&#45;15</text>
</g>
<!-- &#45;15&#45;&gt;929 -->
<g id="edge83" class="edge">
<title>&#45;15&#45;&gt;929</title>
<path fill="none" stroke="red" stroke-width="0.11" d="M810.64,-252.27C806.22,-247.08 799.88,-240.63 792.95,-236.69 737.06,-205 710.5,-229.25 652.95,-200.69 650.87,-199.66 648.8,-198.47 646.77,-197.18"/>
<polygon fill="red" stroke="red" stroke-width="0.11" points="648.46,-194.08 638.3,-191.09 644.38,-199.77 648.46,-194.08"/>
</g>
<!-- &#45;15&#45;&gt;931 -->
<g id="edge84" class="edge">
<title>&#45;15&#45;&gt;931</title>
<path fill="none" stroke="green" stroke-width="0.34" d="M822.37,-252.36C826.5,-246.93 832.69,-240.15 839.95,-236.69 1005.51,-157.86 1073.32,-246.21 1250.95,-200.69 1259.79,-198.43 1269.02,-194.86 1277.3,-191.17"/>
<polygon fill="green" stroke="green" stroke-width="0.34" points="1278.93,-194.28 1286.5,-186.86 1275.96,-187.94 1278.93,-194.28"/>
</g>
<!-- &#45;15&#45;&gt;935 -->
<g id="edge85" class="edge">
<title>&#45;15&#45;&gt;935</title>
<path fill="none" stroke="red" stroke-width="0.26" d="M820.18,-252.29C829.55,-228.65 857.08,-159.22 872.73,-119.74"/>
<polygon fill="red" stroke="red" stroke-width="0.26" points="876.01,-120.98 876.44,-110.39 869.5,-118.4 876.01,-120.98"/>
</g>
<!-- &#45;15&#45;&gt;938 -->
<g id="edge86" class="edge">
<title>&#45;15&#45;&gt;938</title>
<path fill="none" stroke="red" stroke-width="0.2" d="M809.88,-252.37C805.35,-247.48 799.16,-241.31 792.95,-236.69 767.15,-217.53 734.45,-200.57 711.44,-189.66"/>
<polygon fill="red" stroke="red" stroke-width="0.2" points="712.75,-186.42 702.21,-185.37 709.8,-192.76 712.75,-186.42"/>
</g>
<!-- &#45;15&#45;&gt;939 -->
<g id="edge87" class="edge">
<title>&#45;15&#45;&gt;939</title>
<path fill="none" stroke="green" stroke-width="0.34" d="M822.87,-252.17C827.05,-246.93 833.12,-240.47 839.95,-236.69 922.77,-190.94 1037,-180.17 1091.53,-177.67"/>
<polygon fill="green" stroke="green" stroke-width="0.34" points="1091.75,-181.17 1101.61,-177.27 1091.48,-174.17 1091.75,-181.17"/>
</g>
<!-- &#45;15&#45;&gt;940 -->
<g id="edge88" class="edge">
<title>&#45;15&#45;&gt;940</title>
<path fill="none" stroke="red" stroke-width="0.13" d="M822.4,-252.42C826.54,-247.02 832.74,-240.25 839.95,-236.69 965.55,-174.78 1016.46,-231.97 1152.95,-200.69 1166.09,-197.68 1180.22,-193 1192.18,-188.58"/>
<polygon fill="red" stroke="red" stroke-width="0.13" points="1193.55,-191.8 1201.65,-184.97 1191.06,-185.26 1193.55,-191.8"/>
</g>
<!-- &#45;16 -->
<g id="node16" class="node">
<title>&#45;16</title>
<polygon fill="lightgray" stroke="black" points="1255.45,-270.44 1226.45,-270.44 1226.45,-252.44 1255.45,-252.44 1255.45,-270.44"/>
<text text-anchor="middle" x="1240.95" y="-259.24" font-family="Times New Roman,serif" font-size="9.00">&#45;16</text>
</g>
<!-- &#45;16&#45;&gt;929 -->
<g id="edge89" class="edge">
<title>&#45;16&#45;&gt;929</title>
<path fill="none" stroke="red" stroke-width="0.35" d="M1226.11,-257.43C1200.9,-252.42 1148.05,-242.37 1102.95,-236.69 1003.41,-224.17 746.31,-237.41 652.95,-200.69 650.57,-199.76 648.23,-198.57 645.96,-197.22"/>
<polygon fill="red" stroke="red" stroke-width="0.35" points="647.92,-194.31 637.72,-191.44 643.9,-200.05 647.92,-194.31"/>
</g>
<!-- &#45;16&#45;&gt;931 -->
<g id="edge90" class="edge">
<title>&#45;16&#45;&gt;931</title>
<path fill="none" stroke="red" stroke-width="0.38" d="M1247.09,-252.44C1256.01,-240.79 1272.96,-218.68 1286.21,-201.39"/>
<polygon fill="red" stroke="red" stroke-width="0.38" points="1289.07,-203.42 1292.37,-193.35 1283.51,-199.16 1289.07,-203.42"/>
</g>
<!-- &#45;16&#45;&gt;938 -->
<g id="edge91" class="edge">
<title>&#45;16&#45;&gt;938</title>
<path fill="none" stroke="green" stroke-width="0.72" d="M1226.07,-257.73C1200.79,-253.17 1147.86,-243.75 1102.95,-236.69 957.92,-213.9 784.1,-190.38 714.25,-181.08"/>
<polygon fill="green" stroke="green" stroke-width="0.72" points="714.33,-177.56 703.96,-179.71 713.41,-184.5 714.33,-177.56"/>
</g>
<!-- &#45;16&#45;&gt;939 -->
<g id="edge92" class="edge">
<title>&#45;16&#45;&gt;939</title>
<path fill="none" stroke="green" stroke-width="0.32" d="M1231.47,-252.28C1225.89,-247.59 1218.64,-241.65 1211.95,-236.69 1188.76,-219.54 1181.88,-216.79 1157.95,-200.69 1154.84,-198.6 1151.58,-196.4 1148.36,-194.22"/>
<polygon fill="green" stroke="green" stroke-width="0.32" points="1150.26,-191.28 1140.02,-188.57 1146.33,-197.08 1150.26,-191.28"/>
</g>
<!-- &#45;16&#45;&gt;940 -->
<g id="edge93" class="edge">
<title>&#45;16&#45;&gt;940</title>
<path fill="none" stroke="green" stroke-width="0.36" d="M1239.03,-252.44C1236.51,-241.89 1231.92,-222.76 1228,-206.4"/>
<polygon fill="green" stroke="green" stroke-width="0.36" points="1231.41,-205.58 1225.67,-196.67 1224.6,-207.21 1231.41,-205.58"/>
</g>
<!-- &#45;17 -->
<g id="node17" class="node">
<title>&#45;17</title>
<polygon fill="lightgray" stroke="black" points="1692.45,-340.19 1663.45,-340.19 1663.45,-322.19 1692.45,-322.19 1692.45,-340.19"/>
<text text-anchor="middle" x="1677.95" y="-328.99" font-family="Times New Roman,serif" font-size="9.00">&#45;17</text>
</g>
<!-- &#45;17&#45;&gt;929 -->
<g id="edge94" class="edge">
<title>&#45;17&#45;&gt;929</title>
<path fill="none" stroke="red" stroke-width="0.14" stroke-dasharray="1,5" d="M1662.99,-329.87C1511.48,-326.65 259.95,-299.6 246.95,-286.19 231.63,-270.4 232.67,-253.43 246.95,-236.69 269.35,-210.45 505.38,-187.27 591.62,-179.61"/>
<polygon fill="red" stroke="red" stroke-width="0.14" points="592.18,-183.08 601.84,-178.71 591.57,-176.1 592.18,-183.08"/>
</g>
<!-- &#45;17&#45;&gt;931 -->
<g id="edge95" class="edge">
<title>&#45;17&#45;&gt;931</title>
<path fill="none" stroke="red" stroke-width="0.28" stroke-dasharray="1,5" d="M1692.69,-330.08C1719.87,-328.97 1777.42,-322.24 1802.95,-286.19 1815.66,-268.24 1817.55,-253.15 1802.95,-236.69 1771.87,-201.66 1441.32,-183.31 1336.59,-178.35"/>
<polygon fill="red" stroke="red" stroke-width="0.28" points="1336.49,-174.84 1326.34,-177.87 1336.17,-181.83 1336.49,-174.84"/>
</g>
<!-- &#45;17&#45;&gt;935 -->
<g id="edge96" class="edge">
<title>&#45;17&#45;&gt;935</title>
<path fill="none" stroke="red" stroke-width="0.38" d="M1692.57,-329.02C1760.3,-323.52 2040.7,-299.97 2052.95,-286.19 2067.57,-269.75 2067.49,-253.2 2052.95,-236.69 1895.79,-58.28 1224.82,-152.16 989.95,-115.2 964.29,-111.16 935.56,-104.59 914.49,-99.38"/>
<polygon fill="red" stroke="red" stroke-width="0.38" points="915.07,-95.92 904.52,-96.88 913.36,-102.71 915.07,-95.92"/>
</g>
<!-- &#45;17&#45;&gt;938 -->
<g id="edge97" class="edge">
<title>&#45;17&#45;&gt;938</title>
<path fill="none" stroke="green" stroke-width="0.41" d="M1663.28,-329.88C1535.14,-327.11 610.43,-306.48 590.95,-286.19 575.71,-270.32 579.97,-255.76 590.95,-236.69 606.85,-209.08 626.61,-218.63 652.95,-200.69 654.87,-199.39 656.82,-198 658.76,-196.56"/>
<polygon fill="green" stroke="green" stroke-width="0.41" points="661.27,-199.06 667.08,-190.2 657.01,-193.5 661.27,-199.06"/>
</g>
<!-- &#45;17&#45;&gt;939 -->
<g id="edge98" class="edge">
<title>&#45;17&#45;&gt;939</title>
<path fill="none" stroke="green" stroke-width="0.52" stroke-dasharray="1,5" d="M1663.05,-329.84C1602.01,-328.17 1371.26,-319.71 1307.95,-286.19 1282.2,-272.56 1289.35,-252.62 1264.95,-236.69 1219.74,-207.19 1195.78,-227.54 1148.95,-200.69 1147.66,-199.95 1146.37,-199.14 1145.11,-198.27"/>
<polygon fill="green" stroke="green" stroke-width="0.52" points="1147.19,-195.45 1137.18,-191.98 1142.84,-200.94 1147.19,-195.45"/>
</g>
<!-- &#45;17&#45;&gt;940 -->
<g id="edge99" class="edge">
<title>&#45;17&#45;&gt;940</title>
<path fill="none" stroke="red" stroke-width="0.34" d="M1670.58,-321.92C1653.24,-303.09 1607.67,-257.07 1558.95,-236.69 1441.56,-187.61 1397.56,-234.66 1274.95,-200.69 1266.15,-198.26 1256.94,-194.64 1248.66,-190.96"/>
<polygon fill="red" stroke="red" stroke-width="0.34" points="1250,-187.72 1239.45,-186.67 1247.04,-194.06 1250,-187.72"/>
</g>
<!-- 1259 -->
<g id="node39" class="node">
<title>1259</title>
<ellipse fill="white" stroke="black" cx="1912.95" cy="-261.44" rx="25" ry="25"/>
<text text-anchor="middle" x="1912.95" y="-259.24" font-family="Times New Roman,serif" font-size="9.00">1259</text>
</g>
<!-- &#45;17&#45;&gt;1259 -->
<g id="edge148" class="edge">
<title>&#45;17&#45;&gt;1259</title>
<path fill="none" stroke="red" stroke-width="0.31" d="M1692.7,-328.55C1726.03,-324.48 1809.28,-312.31 1873.95,-286.19 1877.39,-284.8 1880.87,-283.13 1884.26,-281.32"/>
<polygon fill="red" stroke="red" stroke-width="0.31" points="1886.03,-284.34 1892.96,-276.33 1882.55,-278.27 1886.03,-284.34"/>
</g>
<!-- &#45;18 -->
<g id="node18" class="node">
<title>&#45;18</title>
<polygon fill="lightgray" stroke="black" points="1931.45,-340.19 1902.45,-340.19 1902.45,-322.19 1931.45,-322.19 1931.45,-340.19"/>
<text text-anchor="middle" x="1916.95" y="-328.99" font-family="Times New Roman,serif" font-size="9.00">&#45;18</text>
</g>
<!-- &#45;18&#45;&gt;3 -->
<g id="edge160" class="edge">
<title>&#45;18&#45;&gt;3</title>
<path fill="none" stroke="red" stroke-width="0.41" d="M1931.67,-329.17C1973.11,-325.97 2089.25,-314.59 2111.95,-286.19 2151.9,-236.22 2113.41,-189.22 2061.95,-151.2 1884.16,-19.82 1598.12,-13.73 1512.16,-15.08"/>
<polygon fill="red" stroke="red" stroke-width="0.41" points="1511.96,-11.58 1502.04,-15.29 1512.11,-18.58 1511.96,-11.58"/>
</g>
<!-- &#45;18&#45;&gt;929 -->
<g id="edge100" class="edge">
<title>&#45;18&#45;&gt;929</title>
<path fill="none" stroke="red" stroke-width="1.28" d="M1902.3,-328.18C1887.96,-326.3 1865.5,-323.58 1845.95,-322.19 1779.48,-317.46 698.25,-328.73 646.95,-286.19 624.32,-267.43 620.06,-232.66 620.36,-207.37"/>
<polygon fill="red" stroke="red" stroke-width="1.28" points="623.86,-207.31 620.73,-197.19 616.87,-207.05 623.86,-207.31"/>
</g>
<!-- &#45;18&#45;&gt;931 -->
<g id="edge101" class="edge">
<title>&#45;18&#45;&gt;931</title>
<path fill="none" stroke="red" stroke-width="0.25" d="M1931.67,-328.26C1966.97,-323.31 2054.79,-308.9 2071.95,-286.19 2085.21,-268.64 2086.89,-252.84 2071.95,-236.69 2021.28,-181.92 1474.72,-177.25 1336.54,-176.94"/>
<polygon fill="red" stroke="red" stroke-width="0.25" points="1336.24,-173.44 1326.23,-176.92 1336.23,-180.44 1336.24,-173.44"/>
</g>
<!-- &#45;18&#45;&gt;935 -->
<g id="edge102" class="edge">
<title>&#45;18&#45;&gt;935</title>
<path fill="none" stroke="green" stroke-width="0.17" d="M1931.46,-328.77C1969.6,-324.7 2071.14,-311.64 2090.95,-286.19 2133.52,-231.52 2075.84,-180.28 2012.95,-151.2 1909.72,-103.45 1102.76,-129.69 989.95,-115.2 964.19,-111.89 935.46,-105.26 914.42,-99.85"/>
<polygon fill="green" stroke="green" stroke-width="0.17" points="915.03,-96.39 904.47,-97.23 913.25,-103.16 915.03,-96.39"/>
</g>
<!-- &#45;18&#45;&gt;938 -->
<g id="edge103" class="edge">
<title>&#45;18&#45;&gt;938</title>
<path fill="none" stroke="red" stroke-width="0.67" d="M1902.3,-328.19C1887.96,-326.31 1865.5,-323.59 1845.95,-322.19 1780.31,-317.5 707.77,-333.43 661.95,-286.19 640.72,-264.31 653.65,-227.88 666.69,-203.16"/>
<polygon fill="red" stroke="red" stroke-width="0.67" points="669.81,-204.76 671.62,-194.32 663.7,-201.35 669.81,-204.76"/>
</g>
<!-- &#45;18&#45;&gt;939 -->
<g id="edge104" class="edge">
<title>&#45;18&#45;&gt;939</title>
<path fill="none" stroke="green" stroke-width="0.15" d="M1902.28,-328.39C1887.93,-326.66 1865.46,-324.04 1845.95,-322.19 1742.55,-312.37 1472.72,-332.89 1379.95,-286.19 1353.92,-273.09 1362.2,-251.23 1336.95,-236.69 1263.22,-194.25 1225,-238.82 1148.95,-200.69 1147.62,-200.03 1146.3,-199.27 1145.02,-198.45"/>
<polygon fill="green" stroke="green" stroke-width="0.15" points="1147.07,-195.61 1137,-192.32 1142.82,-201.17 1147.07,-195.61"/>
</g>
<!-- &#45;18&#45;&gt;940 -->
<g id="edge105" class="edge">
<title>&#45;18&#45;&gt;940</title>
<path fill="none" stroke="green" stroke-width="0.14" d="M1924.22,-322.01C1939.21,-304.15 1970.29,-261.31 1946.95,-236.69 1895.51,-182.42 1347.69,-218.03 1274.95,-200.69 1266.07,-198.58 1256.83,-195.06 1248.55,-191.37"/>
<polygon fill="green" stroke="green" stroke-width="0.14" points="1249.9,-188.13 1239.36,-187.03 1246.91,-194.46 1249.9,-188.13"/>
</g>
<!-- &#45;18&#45;&gt;1343 -->
<g id="edge159" class="edge">
<title>&#45;18&#45;&gt;1343</title>
<path fill="none" stroke="red" stroke-width="1.08" d="M1902.22,-323.45C1878.63,-312.65 1831.85,-291.24 1800.48,-276.87"/>
<polygon fill="red" stroke="red" stroke-width="1.08" points="1801.83,-273.64 1791.28,-272.66 1798.91,-280.01 1801.83,-273.64"/>
</g>
<!-- &#45;19 -->
<g id="node19" class="node">
<title>&#45;19</title>
<polygon fill="lightgray" stroke="black" points="925.45,-270.44 896.45,-270.44 896.45,-252.44 925.45,-252.44 925.45,-270.44"/>
<text text-anchor="middle" x="910.95" y="-259.24" font-family="Times New Roman,serif" font-size="9.00">&#45;19</text>
</g>
<!-- &#45;19&#45;&gt;929 -->
<g id="edge106" class="edge">
<title>&#45;19&#45;&gt;929</title>
<path fill="none" stroke="green" stroke-width="0.63" d="M904.77,-252.04C900.4,-246.76 894.07,-240.28 886.95,-236.69 792.96,-189.38 749.4,-242.75 652.95,-200.69 650.6,-199.67 648.29,-198.42 646.04,-197.03"/>
<polygon fill="green" stroke="green" stroke-width="0.63" points="648.01,-194.13 637.83,-191.19 643.95,-199.84 648.01,-194.13"/>
</g>
<!-- &#45;19&#45;&gt;931 -->
<g id="edge107" class="edge">
<title>&#45;19&#45;&gt;931</title>
<path fill="none" stroke="green" stroke-width="0.34" d="M916.71,-252.42C921.06,-247.01 927.55,-240.24 934.95,-236.69 1062.43,-175.62 1114.49,-237.56 1250.95,-200.69 1259.76,-198.31 1268.98,-194.71 1277.26,-191.03"/>
<polygon fill="green" stroke="green" stroke-width="0.34" points="1278.88,-194.13 1286.46,-186.73 1275.92,-187.79 1278.88,-194.13"/>
</g>
<!-- &#45;19&#45;&gt;935 -->
<g id="edge108" class="edge">
<title>&#45;19&#45;&gt;935</title>
<path fill="none" stroke="green" stroke-width="0.33" d="M909.65,-252.29C905.92,-228.99 895.1,-161.22 888.75,-121.47"/>
<polygon fill="green" stroke="green" stroke-width="0.33" points="892.19,-120.86 887.16,-111.54 885.28,-121.97 892.19,-120.86"/>
</g>
<!-- &#45;19&#45;&gt;938 -->
<g id="edge109" class="edge">
<title>&#45;19&#45;&gt;938</title>
<path fill="none" stroke="red" stroke-width="0.7" d="M904.6,-252.35C900.16,-247.19 893.82,-240.74 886.95,-236.69 831.08,-203.77 755.81,-187.9 714.08,-181.18"/>
<polygon fill="red" stroke="red" stroke-width="0.7" points="714.4,-177.68 703.98,-179.62 713.33,-184.6 714.4,-177.68"/>
</g>
<!-- &#45;19&#45;&gt;939 -->
<g id="edge110" class="edge">
<title>&#45;19&#45;&gt;939</title>
<path fill="none" stroke="green" stroke-width="0.1" d="M917.33,-252.4C921.78,-247.26 928.13,-240.82 934.95,-236.69 985.44,-206.16 1053.13,-189.66 1091.99,-182.14"/>
<polygon fill="green" stroke="green" stroke-width="0.1" points="1092.96,-185.52 1102.15,-180.25 1091.68,-178.63 1092.96,-185.52"/>
</g>
<!-- &#45;19&#45;&gt;940 -->
<g id="edge111" class="edge">
<title>&#45;19&#45;&gt;940</title>
<path fill="none" stroke="green" stroke-width="0.1" d="M917.14,-252.07C921.52,-246.79 927.85,-240.32 934.95,-236.69 1022.42,-192.05 1057.8,-224.97 1152.95,-200.69 1166.01,-197.36 1180.13,-192.62 1192.1,-188.25"/>
<polygon fill="green" stroke="green" stroke-width="0.1" points="1193.44,-191.49 1201.58,-184.71 1190.99,-184.93 1193.44,-191.49"/>
</g>
<!-- &#45;20 -->
<g id="node20" class="node">
<title>&#45;20</title>
<polygon fill="lightgray" stroke="black" points="1417.45,-270.44 1388.45,-270.44 1388.45,-252.44 1417.45,-252.44 1417.45,-270.44"/>
<text text-anchor="middle" x="1402.95" y="-259.24" font-family="Times New Roman,serif" font-size="9.00">&#45;20</text>
</g>
<!-- 1 -->
<g id="node22" class="node">
<title>1</title>
<ellipse fill="lightblue" stroke="black" cx="1285.95" cy="-14.85" rx="14.7" ry="14.7"/>
<text text-anchor="middle" x="1285.95" y="-12.65" font-family="Times New Roman,serif" font-size="9.00">1</text>
</g>
<!-- &#45;20&#45;&gt;1 -->
<g id="edge167" class="edge">
<title>&#45;20&#45;&gt;1</title>
<path fill="none" stroke="red" stroke-width="0.52" d="M1410.63,-252.15C1436.27,-223.47 1514.65,-126.91 1467.95,-65.7 1448.86,-40.67 1355.88,-25.13 1310.7,-18.93"/>
<polygon fill="red" stroke="red" stroke-width="0.52" points="1310.94,-15.44 1300.57,-17.59 1310.02,-22.38 1310.94,-15.44"/>
</g>
<!-- &#45;20&#45;&gt;929 -->
<g id="edge112" class="edge">
<title>&#45;20&#45;&gt;929</title>
<path fill="none" stroke="red" stroke-width="0.19" d="M1388.12,-257.33C1362.93,-252.17 1310.11,-241.89 1264.95,-236.69 1129.61,-221.12 780.25,-249.22 652.95,-200.69 650.56,-199.78 648.21,-198.61 645.94,-197.27"/>
<polygon fill="red" stroke="red" stroke-width="0.19" points="647.9,-194.37 637.69,-191.51 643.89,-200.11 647.9,-194.37"/>
</g>
<!-- &#45;20&#45;&gt;931 -->
<g id="edge113" class="edge">
<title>&#45;20&#45;&gt;931</title>
<path fill="none" stroke="red" stroke-width="0.16" d="M1393.55,-252.44C1378.75,-239.82 1349.54,-214.94 1328.71,-197.19"/>
<polygon fill="red" stroke="red" stroke-width="0.16" points="1330.79,-194.37 1320.91,-190.54 1326.25,-199.69 1330.79,-194.37"/>
</g>
<!-- &#45;20&#45;&gt;935 -->
<g id="edge114" class="edge">
<title>&#45;20&#45;&gt;935</title>
<path fill="none" stroke="red" stroke-width="0.44" d="M1395.08,-252.17C1389.64,-246.93 1381.96,-240.46 1373.95,-236.69 1298.96,-201.37 1261.39,-244.38 1190.95,-200.69 1167.38,-186.08 1176.35,-166.09 1152.95,-151.2 1090.36,-111.37 1062.37,-131.31 989.95,-115.2 964.59,-109.56 935.84,-103.11 914.68,-98.36"/>
<polygon fill="red" stroke="red" stroke-width="0.44" points="915.19,-94.88 904.66,-96.11 913.65,-101.71 915.19,-94.88"/>
</g>
<!-- &#45;20&#45;&gt;938 -->
<g id="edge115" class="edge">
<title>&#45;20&#45;&gt;938</title>
<path fill="none" stroke="green" stroke-width="0.48" d="M1388.09,-257.54C1362.86,-252.7 1309.99,-242.87 1264.95,-236.69 1055.33,-207.93 801.49,-186.42 714.19,-179.4"/>
<polygon fill="green" stroke="green" stroke-width="0.48" points="714.4,-175.9 704.15,-178.6 713.84,-182.88 714.4,-175.9"/>
</g>
<!-- &#45;20&#45;&gt;939 -->
<g id="edge116" class="edge">
<title>&#45;20&#45;&gt;939</title>
<path fill="none" stroke="red" stroke-width="0.14" d="M1395.12,-252.09C1389.69,-246.82 1382.01,-240.35 1373.95,-236.69 1285.31,-196.51 1248.31,-236.85 1157.95,-200.69 1154.47,-199.3 1150.99,-197.52 1147.65,-195.56"/>
<polygon fill="red" stroke="red" stroke-width="0.14" points="1149.5,-192.6 1139.21,-190.11 1145.7,-198.48 1149.5,-192.6"/>
</g>
<!-- &#45;20&#45;&gt;940 -->
<g id="edge117" class="edge">
<title>&#45;20&#45;&gt;940</title>
<path fill="none" stroke="green" stroke-width="0.13" d="M1394.38,-252.12C1388.89,-247.12 1381.41,-240.94 1373.95,-236.69 1333.26,-213.53 1318.4,-218.13 1274.95,-200.69 1266.55,-197.32 1257.51,-193.45 1249.27,-189.82"/>
<polygon fill="green" stroke="green" stroke-width="0.13" points="1250.62,-186.59 1240.06,-185.72 1247.77,-192.98 1250.62,-186.59"/>
</g>
<!-- 0 -->
<g id="node21" class="node">
<title>0</title>
<ellipse fill="lightblue" stroke="black" cx="738.95" cy="-14.85" rx="14.7" ry="14.7"/>
<text text-anchor="middle" x="738.95" y="-12.65" font-family="Times New Roman,serif" font-size="9.00">0</text>
</g>
<!-- 2 -->
<g id="node23" class="node">
<title>2</title>
<ellipse fill="lightblue" stroke="black" cx="919.95" cy="-14.85" rx="14.7" ry="14.7"/>
<text text-anchor="middle" x="919.95" y="-12.65" font-family="Times New Roman,serif" font-size="9.00">2</text>
</g>
<!-- 4 -->
<g id="node25" class="node">
<title>4</title>
<ellipse fill="lightblue" stroke="black" cx="1004.95" cy="-14.85" rx="14.7" ry="14.7"/>
<text text-anchor="middle" x="1004.95" y="-12.65" font-family="Times New Roman,serif" font-size="9.00">4</text>
</g>
<!-- 1694&#45;&gt;931 -->
<g id="edge166" class="edge">
<title>1694&#45;&gt;931</title>
<path fill="none" stroke="red" stroke-width="0.33" d="M1999.17,-246C1993.26,-242.36 1986.58,-238.87 1979.95,-236.69 1857.89,-196.57 1452.7,-181.42 1336.41,-177.83"/>
<polygon fill="red" stroke="red" stroke-width="0.33" points="1336.48,-174.34 1326.38,-177.53 1336.27,-181.33 1336.48,-174.34"/>
</g>
<!-- 1567&#45;&gt;938 -->
<g id="edge162" class="edge">
<title>1567&#45;&gt;938</title>
<path fill="none" stroke="red" stroke-width="0.83" d="M419.85,-246.33C425.76,-242.7 432.41,-239.13 438.95,-236.69 529.32,-203.01 564.81,-239.86 652.95,-200.69 655.29,-199.65 657.6,-198.39 659.84,-196.99"/>
<polygon fill="red" stroke="red" stroke-width="0.83" points="661.94,-199.8 668.05,-191.14 657.88,-194.1 661.94,-199.8"/>
</g>
<!-- 929&#45;&gt;0 -->
<g id="edge118" class="edge">
<title>929&#45;&gt;0</title>
<path fill="none" stroke="red" stroke-width="0.22" d="M601.91,-173.07C569.65,-168.93 508.89,-155.87 481.95,-115.2 469.8,-96.86 467.95,-82.67 481.95,-65.7 511.22,-30.2 654.92,-19.67 713.76,-16.82"/>
<polygon fill="red" stroke="red" stroke-width="0.22" points="714.19,-20.31 724.03,-16.36 713.88,-13.31 714.19,-20.31"/>
</g>
<!-- 929&#45;&gt;1 -->
<g id="edge119" class="edge">
<title>929&#45;&gt;1</title>
<path fill="none" stroke="green" stroke-width="0.36" d="M638.82,-161.58C670.82,-134.93 742.53,-76.77 771.95,-65.7 818.11,-48.33 1164.6,-24 1261.08,-17.5"/>
<polygon fill="green" stroke="green" stroke-width="0.36" points="1261.35,-20.99 1271.09,-16.83 1260.88,-14 1261.35,-20.99"/>
</g>
<!-- 929&#45;&gt;2 -->
<g id="edge120" class="edge">
<title>929&#45;&gt;2</title>
<path fill="none" stroke="green" stroke-width="0.28" d="M617.87,-155.2C612.92,-130.92 608.98,-89.93 630.95,-65.7 648.73,-46.09 828.27,-25.45 895.08,-18.39"/>
<polygon fill="green" stroke="green" stroke-width="0.28" points="895.56,-21.86 905.14,-17.34 894.83,-14.9 895.56,-21.86"/>
</g>
<!-- 929&#45;&gt;4 -->
<g id="edge121" class="edge">
<title>929&#45;&gt;4</title>
<path fill="none" stroke="red" stroke-width="0.84" d="M631.59,-156.3C644.28,-131.2 670.48,-87.22 706.95,-65.7 798.71,-11.56 839.26,-49.51 943.95,-29.7 956.08,-27.4 969.46,-24.42 980.6,-21.8"/>
<polygon fill="red" stroke="red" stroke-width="0.84" points="981.55,-25.17 990.47,-19.45 979.93,-18.36 981.55,-25.17"/>
</g>
<!-- 931&#45;&gt;1 -->
<g id="edge122" class="edge">
<title>931&#45;&gt;1</title>
<path fill="none" stroke="green" stroke-width="0.17" stroke-dasharray="1,5" d="M1321.35,-161.97C1333.77,-151.02 1349.86,-134.13 1356.95,-115.2 1364.66,-94.59 1367.09,-85.22 1356.95,-65.7 1346.9,-46.37 1325.55,-32.97 1308.87,-24.97"/>
<polygon fill="green" stroke="green" stroke-width="0.17" points="1310.27,-21.76 1299.71,-20.88 1307.41,-28.15 1310.27,-21.76"/>
</g>
<!-- 931&#45;&gt;3 -->
<g id="edge123" class="edge">
<title>931&#45;&gt;3</title>
<path fill="none" stroke="green" stroke-width="0.1" stroke-dasharray="1,5" d="M1326.32,-175.88C1368.02,-176.4 1459.77,-170.8 1500.95,-115.2 1517.67,-92.62 1507.76,-59.05 1498.14,-37.31"/>
<polygon fill="green" stroke="green" stroke-width="0.1" points="1501.29,-35.77 1493.84,-28.23 1494.96,-38.77 1501.29,-35.77"/>
</g>
<!-- 931&#45;&gt;4 -->
<g id="edge124" class="edge">
<title>931&#45;&gt;4</title>
<path fill="none" stroke="green" stroke-width="0.2" stroke-dasharray="1,5" d="M1293.2,-158.1C1275.41,-133.91 1239.32,-89.62 1197.95,-65.7 1143.42,-34.16 1068.85,-22.27 1030.32,-18.03"/>
<polygon fill="green" stroke="green" stroke-width="0.2" points="1030.31,-14.51 1020.01,-16.99 1029.61,-21.48 1030.31,-14.51"/>
</g>
<!-- 931&#45;&gt;935 -->
<g id="edge163" class="edge">
<title>931&#45;&gt;935</title>
<path fill="none" stroke="red" stroke-width="0.15" d="M1286.43,-165.27C1276.22,-160.33 1263.17,-154.65 1250.95,-151.2 1138.27,-119.32 1105.18,-136.01 989.95,-115.2 964.39,-110.58 935.65,-104.05 914.55,-99.01"/>
<polygon fill="red" stroke="red" stroke-width="0.15" points="915.11,-95.55 904.56,-96.6 913.46,-102.35 915.11,-95.55"/>
</g>
<!-- 1211 -->
<g id="node34" class="node">
<title>1211</title>
<ellipse fill="white" stroke="black" cx="1433.95" cy="-90.45" rx="25" ry="25"/>
<text text-anchor="middle" x="1433.95" y="-88.25" font-family="Times New Roman,serif" font-size="9.00">1211</text>
</g>
<!-- 931&#45;&gt;1211 -->
<g id="edge145" class="edge">
<title>931&#45;&gt;1211</title>
<path fill="none" stroke="red" stroke-width="0.6" stroke-dasharray="1,5" d="M1322.35,-163.68C1343.51,-149.99 1379.55,-126.66 1404.93,-110.23"/>
<polygon fill="red" stroke="red" stroke-width="0.6" points="1406.94,-113.1 1413.43,-104.73 1403.13,-107.23 1406.94,-113.1"/>
</g>
<!-- 935&#45;&gt;0 -->
<g id="edge125" class="edge">
<title>935&#45;&gt;0</title>
<path fill="none" stroke="red" stroke-width="0.22" d="M865.29,-79.98C838.61,-66.43 789.63,-41.57 761.13,-27.11"/>
<polygon fill="red" stroke="red" stroke-width="0.22" points="762.47,-23.86 751.97,-22.46 759.3,-30.11 762.47,-23.86"/>
</g>
<!-- 935&#45;&gt;1 -->
<g id="edge126" class="edge">
<title>935&#45;&gt;1</title>
<path fill="none" stroke="red" stroke-width="0.31" stroke-dasharray="1,5" d="M904.6,-84.48C925.91,-79.43 960.15,-71.54 989.95,-65.7 1090.24,-46.03 1210.58,-27.24 1261.4,-19.53"/>
<polygon fill="red" stroke="red" stroke-width="0.31" points="1262.06,-22.97 1271.42,-18.01 1261.01,-16.05 1262.06,-22.97"/>
</g>
<!-- 935&#45;&gt;2 -->
<g id="edge127" class="edge">
<title>935&#45;&gt;2</title>
<path fill="none" stroke="red" stroke-width="1.35" d="M893.03,-70.88C898.01,-60.7 904.2,-48.05 909.39,-37.43"/>
<polygon fill="red" stroke="red" stroke-width="1.35" points="912.56,-38.92 913.81,-28.4 906.27,-35.84 912.56,-38.92"/>
</g>
<!-- 935&#45;&gt;3 -->
<g id="edge128" class="edge">
<title>935&#45;&gt;3</title>
<path fill="none" stroke="red" stroke-width="1.5" d="M904.52,-84.06C925.78,-78.69 959.97,-70.54 989.95,-65.7 1082.72,-50.71 1374.63,-25.37 1462,-17.95"/>
<polygon fill="red" stroke="red" stroke-width="1.5" points="1462.39,-21.43 1472.06,-17.1 1461.8,-14.45 1462.39,-21.43"/>
</g>
<!-- 935&#45;&gt;4 -->
<g id="edge129" class="edge">
<title>935&#45;&gt;4</title>
<path fill="none" stroke="red" stroke-width="0.78" stroke-dasharray="1,5" d="M901.8,-78.59C923.64,-65.3 960.57,-42.84 983.81,-28.71"/>
<polygon fill="red" stroke="red" stroke-width="0.78" points="985.83,-31.57 992.56,-23.39 982.2,-25.59 985.83,-31.57"/>
</g>
<!-- 938&#45;&gt;0 -->
<g id="edge130" class="edge">
<title>938&#45;&gt;0</title>
<path fill="none" stroke="red" stroke-width="0.11" d="M674.39,-156.42C665.25,-133.74 653.97,-94.76 668.95,-65.7 678.74,-46.7 699.5,-33.35 715.88,-25.28"/>
<polygon fill="red" stroke="red" stroke-width="0.11" points="717.74,-28.28 725.38,-20.94 714.83,-21.92 717.74,-28.28"/>
</g>
<!-- 938&#45;&gt;1 -->
<g id="edge131" class="edge">
<title>938&#45;&gt;1</title>
<path fill="none" stroke="red" stroke-width="1.03" d="M699.07,-161.97C703.78,-158.36 708.99,-154.51 713.95,-151.2 740.43,-133.47 751.16,-135.22 775.95,-115.2 799.08,-96.51 794.44,-79.16 820.95,-65.7 860.39,-45.67 1169.61,-23.62 1260.75,-17.5"/>
<polygon fill="red" stroke="red" stroke-width="1.03" points="1261.24,-20.98 1270.98,-16.82 1260.77,-13.99 1261.24,-20.98"/>
</g>
<!-- 938&#45;&gt;2 -->
<g id="edge132" class="edge">
<title>938&#45;&gt;2</title>
<path fill="none" stroke="red" stroke-width="0.37" d="M688.92,-155.29C697.4,-130.71 715.28,-89.01 744.95,-65.7 789.74,-30.5 858.27,-20.15 894.87,-17.11"/>
<polygon fill="red" stroke="red" stroke-width="0.37" points="895.41,-20.58 905.14,-16.39 894.91,-13.6 895.41,-20.58"/>
</g>
<!-- 938&#45;&gt;3 -->
<g id="edge133" class="edge">
<title>938&#45;&gt;3</title>
<path fill="none" stroke="red" stroke-width="0.64" d="M698.72,-161.39C703.42,-157.76 708.72,-154.06 713.95,-151.2 755.01,-128.7 774.68,-142.17 812.95,-115.2 836.3,-98.74 828.6,-78.86 853.95,-65.7 854.38,-65.47 1345.1,-26.97 1462.12,-17.8"/>
<polygon fill="red" stroke="red" stroke-width="0.64" points="1462.55,-21.27 1472.24,-17 1462,-14.3 1462.55,-21.27"/>
</g>
<!-- 938&#45;&gt;4 -->
<g id="edge134" class="edge">
<title>938&#45;&gt;4</title>
<path fill="none" stroke="red" stroke-width="0.2" d="M697.53,-160.47C709.43,-148.53 726.57,-131.04 740.95,-115.2 760.34,-93.83 758.26,-80.62 782.95,-65.7 845.7,-27.78 872.42,-45.82 943.95,-29.7 955.99,-26.99 969.37,-23.95 980.52,-21.42"/>
<polygon fill="red" stroke="red" stroke-width="0.2" points="981.43,-24.8 990.41,-19.16 979.88,-17.97 981.43,-24.8"/>
</g>
<!-- 939&#45;&gt;0 -->
<g id="edge135" class="edge">
<title>939&#45;&gt;0</title>
<path fill="none" stroke="red" stroke-width="0.51" d="M1102.61,-169.81C1061.87,-159.25 972.03,-134.46 946.95,-115.2 925.98,-99.09 935.31,-81.28 913.95,-65.7 868.15,-32.3 800.58,-21.23 764.26,-17.6"/>
<polygon fill="red" stroke="red" stroke-width="0.51" points="764.32,-14.09 754.04,-16.69 763.7,-21.06 764.32,-14.09"/>
</g>
<!-- 939&#45;&gt;1 -->
<g id="edge136" class="edge">
<title>939&#45;&gt;1</title>
<path fill="none" stroke="red" stroke-width="0.38" d="M1137.7,-160.55C1167.76,-131.21 1235.96,-64.64 1268.3,-33.07"/>
<polygon fill="red" stroke="red" stroke-width="0.38" points="1270.99,-35.34 1275.71,-25.85 1266.11,-30.33 1270.99,-35.34"/>
</g>
<!-- 939&#45;&gt;2 -->
<g id="edge137" class="edge">
<title>939&#45;&gt;2</title>
<path fill="none" stroke="green" stroke-width="0.13" d="M1102.64,-169.53C1074.86,-161.35 1024.52,-143.7 989.95,-115.2 963.57,-93.45 942.55,-59.43 930.66,-37.39"/>
<polygon fill="green" stroke="green" stroke-width="0.13" points="933.73,-35.71 926,-28.47 927.53,-38.95 933.73,-35.71"/>
</g>
<!-- 939&#45;&gt;3 -->
<g id="edge138" class="edge">
<title>939&#45;&gt;3</title>
<path fill="none" stroke="red" stroke-width="0.29" d="M1142.01,-166.62C1203.64,-139.67 1397.46,-54.96 1464.14,-25.82"/>
<polygon fill="red" stroke="red" stroke-width="0.29" points="1465.61,-28.99 1473.37,-21.78 1462.81,-22.58 1465.61,-28.99"/>
</g>
<!-- 939&#45;&gt;4 -->
<g id="edge139" class="edge">
<title>939&#45;&gt;4</title>
<path fill="none" stroke="green" stroke-width="0.46" d="M1114.02,-156.54C1102.64,-133.99 1081.57,-95.13 1057.95,-65.7 1047.97,-53.26 1034.94,-40.97 1024.3,-31.7"/>
<polygon fill="green" stroke="green" stroke-width="0.46" points="1026.27,-28.78 1016.38,-24.97 1021.74,-34.11 1026.27,-28.78"/>
</g>
<!-- 1511 -->
<g id="node37" class="node">
<title>1511</title>
<ellipse fill="white" stroke="black" cx="1023.95" cy="-90.45" rx="25" ry="25"/>
<text text-anchor="middle" x="1023.95" y="-88.25" font-family="Times New Roman,serif" font-size="9.00">1511</text>
</g>
<!-- 939&#45;&gt;1511 -->
<g id="edge157" class="edge">
<title>939&#45;&gt;1511</title>
<path fill="none" stroke="red" stroke-width="0.17" d="M1107.04,-161.53C1091.78,-148.66 1068.45,-128.98 1050.39,-113.75"/>
<polygon fill="red" stroke="red" stroke-width="0.17" points="1052.41,-110.88 1042.51,-107.1 1047.9,-116.23 1052.41,-110.88"/>
</g>
<!-- 940&#45;&gt;0 -->
<g id="edge140" class="edge">
<title>940&#45;&gt;0</title>
<path fill="none" stroke="red" stroke-width="0.18" d="M1203.93,-163.24C1198.24,-159.36 1191.85,-155.06 1185.95,-151.2 1160.88,-134.78 1153.91,-131.77 1128.95,-115.2 1096.9,-93.92 1093.64,-80.03 1057.95,-65.7 1004.23,-44.12 829.53,-24.91 764.04,-18.3"/>
<polygon fill="red" stroke="red" stroke-width="0.18" points="764.12,-14.79 753.82,-17.28 763.42,-21.75 764.12,-14.79"/>
</g>
<!-- 940&#45;&gt;1 -->
<g id="edge141" class="edge">
<title>940&#45;&gt;1</title>
<path fill="none" stroke="red" stroke-width="0.17" stroke-dasharray="1,5" d="M1228.66,-156.07C1240.69,-126.64 1263.86,-69.92 1276.74,-38.39"/>
<polygon fill="red" stroke="red" stroke-width="0.17" points="1280.14,-39.32 1280.68,-28.74 1273.66,-36.67 1280.14,-39.32"/>
</g>
<!-- 940&#45;&gt;2 -->
<g id="edge142" class="edge">
<title>940&#45;&gt;2</title>
<path fill="none" stroke="green" stroke-width="0.23" stroke-dasharray="1,5" d="M1206.85,-160.02C1195.74,-148.11 1180.02,-130.88 1166.95,-115.2 1149.19,-93.89 1152.22,-80.78 1128.95,-65.7 1125.01,-63.15 998.3,-33.85 944.12,-21.39"/>
<polygon fill="green" stroke="green" stroke-width="0.23" points="944.84,-17.97 934.31,-19.14 943.28,-24.79 944.84,-17.97"/>
</g>
<!-- 940&#45;&gt;3 -->
<g id="edge143" class="edge">
<title>940&#45;&gt;3</title>
<path fill="none" stroke="red" stroke-width="0.28" d="M1239.54,-165.5C1249.77,-160.63 1262.81,-154.94 1274.95,-151.2 1358.33,-125.46 1406.11,-176.76 1467.95,-115.2 1487.63,-95.61 1490.25,-62.31 1489.37,-39.72"/>
<polygon fill="red" stroke="red" stroke-width="0.28" points="1492.85,-39.35 1488.72,-29.59 1485.87,-39.8 1492.85,-39.35"/>
</g>
<!-- 940&#45;&gt;4 -->
<g id="edge144" class="edge">
<title>940&#45;&gt;4</title>
<path fill="none" stroke="green" stroke-width="0.2" d="M1216.27,-155C1209.51,-130.49 1194.66,-89.28 1166.95,-65.7 1127.11,-31.8 1064.49,-20.94 1029.93,-17.47"/>
<polygon fill="green" stroke="green" stroke-width="0.2" points="1030.03,-13.97 1019.76,-16.59 1029.42,-20.94 1030.03,-13.97"/>
</g>
<!-- 1211&#45;&gt;1 -->
<g id="edge146" class="edge">
<title>1211&#45;&gt;1</title>
<path fill="none" stroke="red" stroke-width="0.56" d="M1413.16,-76.17C1407.35,-72.62 1400.97,-68.89 1394.95,-65.7 1365.94,-50.3 1331.27,-34.94 1308.95,-25.43"/>
<polygon fill="red" stroke="red" stroke-width="0.56" points="1310.2,-22.15 1299.62,-21.49 1307.47,-28.6 1310.2,-22.15"/>
</g>
<!-- 1343&#45;&gt;940 -->
<g id="edge151" class="edge">
<title>1343&#45;&gt;940</title>
<path fill="none" stroke="green" stroke-width="0.26" d="M1746.03,-251.96C1730.88,-246.72 1710.49,-240.31 1691.95,-236.69 1509.37,-201.08 1455.18,-246.76 1274.95,-200.69 1266.11,-198.43 1256.87,-194.87 1248.6,-191.18"/>
<polygon fill="green" stroke="green" stroke-width="0.26" points="1249.94,-187.94 1239.4,-186.87 1246.97,-194.28 1249.94,-187.94"/>
</g>
<!-- 1362&#45;&gt;929 -->
<g id="edge153" class="edge">
<title>1362&#45;&gt;929</title>
<path fill="none" stroke="green" stroke-width="0.32" stroke-dasharray="1,5" d="M78.92,-252.18C94.08,-247.02 114.48,-240.64 132.95,-236.69 221.62,-217.77 498.47,-189.31 591.84,-180.01"/>
<polygon fill="green" stroke="green" stroke-width="0.32" points="592.19,-183.49 601.8,-179.02 591.5,-176.52 592.19,-183.49"/>
</g>
<!-- 1511&#45;&gt;2 -->
<g id="edge158" class="edge">
<title>1511&#45;&gt;2</title>
<path fill="none" stroke="green" stroke-width="0.16" d="M1003.9,-75.26C985.53,-62.26 958.49,-43.13 940.1,-30.11"/>
<polygon fill="green" stroke="green" stroke-width="0.16" points="942.03,-27.18 931.84,-24.26 937.98,-32.9 942.03,-27.18"/>
</g>
<!-- 1385&#45;&gt;935 -->
<g id="edge155" class="edge">
<title>1385&#45;&gt;935</title>
<path fill="none" stroke="green" stroke-width="0.43" d="M383.39,-170.97C412.56,-166.23 462.81,-158.09 505.95,-151.2 634.91,-130.59 788.67,-106.4 853.13,-96.28"/>
<polygon fill="green" stroke="green" stroke-width="0.43" points="853.71,-99.73 863.05,-94.73 852.62,-92.82 853.71,-99.73"/>
</g>
<!-- 1259&#45;&gt;931 -->
<g id="edge149" class="edge">
<title>1259&#45;&gt;931</title>
<path fill="none" stroke="red" stroke-width="0.24" d="M1893.14,-246.07C1887.23,-242.43 1880.56,-238.93 1873.95,-236.69 1772.84,-202.53 1440.53,-183.62 1336.43,-178.43"/>
<polygon fill="red" stroke="red" stroke-width="0.24" points="1336.41,-174.92 1326.25,-177.93 1336.07,-181.92 1336.41,-174.92"/>
</g>
<!-- 1646 -->
<g id="node40" class="node">
<title>1646</title>
<ellipse fill="white" stroke="black" cx="515.95" cy="-90.45" rx="25" ry="25"/>
<text text-anchor="middle" x="515.95" y="-88.25" font-family="Times New Roman,serif" font-size="9.00">1646</text>
</g>
<!-- 1646&#45;&gt;0 -->
<g id="edge164" class="edge">
<title>1646&#45;&gt;0</title>
<path fill="none" stroke="green" stroke-width="0.86" d="M536.01,-75.75C541.93,-72.12 548.54,-68.45 554.95,-65.7 609.51,-42.26 677.99,-27.19 714.06,-20.27"/>
<polygon fill="green" stroke="green" stroke-width="0.86" points="714.98,-23.66 724.17,-18.38 713.69,-16.78 714.98,-23.66"/>
</g>
</g>
</svg>
