<?xml version="1.0" encoding="UTF-8" standalone="no"?>
<!DOCTYPE svg PUBLIC "-//W3C//DTD SVG 1.1//EN"
 "http://www.w3.org/Graphics/SVG/1.1/DTD/svg11.dtd">
<!-- Generated by graphviz version 2.49.0 (20210828.1703)
 -->
<!-- Pages: 1 -->
<svg width="1397pt" height="249pt"
 viewBox="0.00 0.00 1396.79 248.55" xmlns="http://www.w3.org/2000/svg" xmlns:xlink="http://www.w3.org/1999/xlink">
<g id="graph0" class="graph" transform="scale(1 1) rotate(0) translate(4 244.55)">
<polygon fill="white" stroke="transparent" points="-4,4 -4,-244.55 1392.79,-244.55 1392.79,4 -4,4"/>
<!-- &#45;1 -->
<g id="node1" class="node">
<title>&#45;1</title>
<polygon fill="lightgray" stroke="black" points="160.33,-174.34 136.33,-174.34 136.33,-156.34 160.33,-156.34 160.33,-174.34"/>
<text text-anchor="middle" x="148.33" y="-163.14" font-family="Times New Roman,serif" font-size="9.00">&#45;1</text>
</g>
<!-- 1 -->
<g id="node22" class="node">
<title>1</title>
<ellipse fill="lightblue" stroke="black" cx="544.33" cy="-14.85" rx="14.7" ry="14.7"/>
<text text-anchor="middle" x="544.33" y="-12.65" font-family="Times New Roman,serif" font-size="9.00">1</text>
</g>
<!-- &#45;1&#45;&gt;1 -->
<g id="edge1" class="edge">
<title>&#45;1&#45;&gt;1</title>
<path fill="none" stroke="red" stroke-width="0.13" d="M136.28,-160.72C116.42,-154.04 77.41,-137.66 61.33,-108.12 52.31,-91.56 48.53,-79.54 61.33,-65.7 96.06,-28.14 471.47,-44.86 520.33,-29.7 521.38,-29.37 522.44,-28.99 523.5,-28.57"/>
<polygon fill="red" stroke="red" stroke-width="0.13" points="525.23,-31.62 532.6,-24 522.09,-25.36 525.23,-31.62"/>
</g>
<!-- 2 -->
<g id="node23" class="node">
<title>2</title>
<ellipse fill="lightblue" stroke="black" cx="610.33" cy="-14.85" rx="14.7" ry="14.7"/>
<text text-anchor="middle" x="610.33" y="-12.65" font-family="Times New Roman,serif" font-size="9.00">2</text>
</g>
<!-- &#45;1&#45;&gt;2 -->
<g id="edge2" class="edge">
<title>&#45;1&#45;&gt;2</title>
<path fill="none" stroke="red" stroke-width="0.11" d="M160.55,-157.6C177.71,-147.84 209.49,-128.71 233.33,-108.12 252.49,-91.58 248.88,-77.4 271.33,-65.7 389.24,-4.24 438.55,-58.66 568.33,-29.7 574.47,-28.33 580.99,-26.41 587.01,-24.45"/>
<polygon fill="red" stroke="red" stroke-width="0.11" points="588.21,-27.74 596.52,-21.17 585.93,-21.12 588.21,-27.74"/>
</g>
<!-- 4 -->
<g id="node25" class="node">
<title>4</title>
<ellipse fill="lightblue" stroke="black" cx="496.33" cy="-14.85" rx="14.7" ry="14.7"/>
<text text-anchor="middle" x="496.33" y="-12.65" font-family="Times New Roman,serif" font-size="9.00">4</text>
</g>
<!-- &#45;1&#45;&gt;4 -->
<g id="edge3" class="edge">
<title>&#45;1&#45;&gt;4</title>
<path fill="none" stroke="green" stroke-width="0.12" d="M136.02,-162.85C110.6,-159.04 52.64,-146.37 28.33,-108.12 18.21,-92.21 15.72,-79.72 28.33,-65.7 58.19,-32.49 378.33,-19.65 471.21,-16.6"/>
<polygon fill="green" stroke="green" stroke-width="0.12" points="471.49,-20.1 481.37,-16.28 471.27,-13.1 471.49,-20.1"/>
</g>
<!-- 80 -->
<g id="node29" class="node">
<title>80</title>
<ellipse fill="white" stroke="black" cx="1095.33" cy="-86.91" rx="18.27" ry="18.27"/>
<text text-anchor="middle" x="1095.33" y="-84.71" font-family="Times New Roman,serif" font-size="9.00">80</text>
</g>
<!-- &#45;1&#45;&gt;80 -->
<g id="edge99" class="edge">
<title>&#45;1&#45;&gt;80</title>
<path fill="none" stroke="red" stroke-width="0.5" d="M160.66,-163.68C268.38,-157.95 1045.96,-116.34 1068.33,-108.12 1070.18,-107.44 1072.02,-106.59 1073.81,-105.62"/>
<polygon fill="red" stroke="red" stroke-width="0.5" points="1075.79,-108.51 1082.23,-100.1 1071.95,-102.65 1075.79,-108.51"/>
</g>
<!-- &#45;2 -->
<g id="node2" class="node">
<title>&#45;2</title>
<polygon fill="lightgray" stroke="black" points="224.33,-95.91 200.33,-95.91 200.33,-77.91 224.33,-77.91 224.33,-95.91"/>
<text text-anchor="middle" x="212.33" y="-84.71" font-family="Times New Roman,serif" font-size="9.00">&#45;2</text>
</g>
<!-- 0 -->
<g id="node21" class="node">
<title>0</title>
<ellipse fill="lightblue" stroke="black" cx="690.33" cy="-14.85" rx="14.7" ry="14.7"/>
<text text-anchor="middle" x="690.33" y="-12.65" font-family="Times New Roman,serif" font-size="9.00">0</text>
</g>
<!-- &#45;2&#45;&gt;0 -->
<g id="edge4" class="edge">
<title>&#45;2&#45;&gt;0</title>
<path fill="none" stroke="red" stroke-width="0.33" d="M224.75,-80.71C236.52,-76.01 254.82,-69.29 271.33,-65.7 429.74,-31.2 474.56,-57.23 634.33,-29.7 644.91,-27.87 656.45,-25.15 666.29,-22.6"/>
<polygon fill="red" stroke="red" stroke-width="0.33" points="667.42,-25.92 676.18,-19.95 665.61,-19.16 667.42,-25.92"/>
</g>
<!-- &#45;2&#45;&gt;1 -->
<g id="edge5" class="edge">
<title>&#45;2&#45;&gt;1</title>
<path fill="none" stroke="green" stroke-width="0.36" stroke-dasharray="1,5" d="M220.26,-77.91C225.07,-73.56 231.57,-68.51 238.33,-65.7 355,-17.21 400.6,-70.06 520.33,-29.7 521.2,-29.4 522.09,-29.07 522.97,-28.72"/>
<polygon fill="green" stroke="green" stroke-width="0.36" points="524.69,-31.77 532.07,-24.17 521.56,-25.51 524.69,-31.77"/>
</g>
<!-- &#45;2&#45;&gt;2 -->
<g id="edge6" class="edge">
<title>&#45;2&#45;&gt;2</title>
<path fill="none" stroke="green" stroke-width="0.17" d="M220.24,-77.87C225.04,-73.5 231.54,-68.45 238.33,-65.7 375.08,-10.32 424.14,-60.97 568.33,-29.7 574.48,-28.36 581,-26.46 587.02,-24.5"/>
<polygon fill="green" stroke="green" stroke-width="0.17" points="588.22,-27.78 596.53,-21.21 585.94,-21.17 588.22,-27.78"/>
</g>
<!-- 3 -->
<g id="node24" class="node">
<title>3</title>
<ellipse fill="lightblue" stroke="black" cx="738.33" cy="-14.85" rx="14.7" ry="14.7"/>
<text text-anchor="middle" x="738.33" y="-12.65" font-family="Times New Roman,serif" font-size="9.00">3</text>
</g>
<!-- &#45;2&#45;&gt;3 -->
<g id="edge7" class="edge">
<title>&#45;2&#45;&gt;3</title>
<path fill="none" stroke="green" stroke-width="0.9" d="M224.73,-80.65C236.5,-75.9 254.79,-69.15 271.33,-65.7 464.71,-25.38 525.74,-88.5 714.33,-29.7 715.38,-29.37 716.44,-28.99 717.5,-28.56"/>
<polygon fill="green" stroke="green" stroke-width="0.9" points="719.23,-31.61 726.6,-24 716.09,-25.35 719.23,-31.61"/>
</g>
<!-- &#45;2&#45;&gt;4 -->
<g id="edge8" class="edge">
<title>&#45;2&#45;&gt;4</title>
<path fill="none" stroke="green" stroke-width="0.33" d="M220.79,-77.67C225.57,-73.46 231.87,-68.63 238.33,-65.7 318.3,-29.42 423.89,-19.51 471.35,-16.83"/>
<polygon fill="green" stroke="green" stroke-width="0.33" points="471.53,-20.33 481.34,-16.33 471.17,-13.34 471.53,-20.33"/>
</g>
<!-- &#45;3 -->
<g id="node3" class="node">
<title>&#45;3</title>
<polygon fill="lightgray" stroke="black" points="304.33,-95.91 280.33,-95.91 280.33,-77.91 304.33,-77.91 304.33,-95.91"/>
<text text-anchor="middle" x="292.33" y="-84.71" font-family="Times New Roman,serif" font-size="9.00">&#45;3</text>
</g>
<!-- &#45;3&#45;&gt;0 -->
<g id="edge9" class="edge">
<title>&#45;3&#45;&gt;0</title>
<path fill="none" stroke="red" stroke-width="0.49" d="M298.43,-77.87C302.21,-73.5 307.46,-68.45 313.33,-65.7 443.28,-4.68 493.01,-54.99 634.33,-29.7 644.9,-27.81 656.44,-25.07 666.28,-22.53"/>
<polygon fill="red" stroke="red" stroke-width="0.49" points="667.4,-25.85 676.17,-19.9 665.6,-19.09 667.4,-25.85"/>
</g>
<!-- &#45;3&#45;&gt;1 -->
<g id="edge10" class="edge">
<title>&#45;3&#45;&gt;1</title>
<path fill="none" stroke="red" stroke-width="0.55" d="M298.86,-77.59C302.63,-73.37 307.73,-68.54 313.33,-65.7 396.61,-23.47 432.54,-61.52 520.33,-29.7 521.2,-29.38 522.07,-29.04 522.95,-28.67"/>
<polygon fill="red" stroke="red" stroke-width="0.55" points="524.7,-31.7 532.03,-24.05 521.53,-25.46 524.7,-31.7"/>
</g>
<!-- &#45;3&#45;&gt;2 -->
<g id="edge11" class="edge">
<title>&#45;3&#45;&gt;2</title>
<path fill="none" stroke="red" stroke-width="0.71" d="M298.82,-77.52C302.58,-73.27 307.69,-68.45 313.33,-65.7 416.23,-15.58 456.87,-55.72 568.33,-29.7 574.46,-28.27 580.97,-26.33 586.99,-24.36"/>
<polygon fill="red" stroke="red" stroke-width="0.71" points="588.18,-27.65 596.5,-21.1 585.91,-21.03 588.18,-27.65"/>
</g>
<!-- &#45;3&#45;&gt;3 -->
<g id="edge12" class="edge">
<title>&#45;3&#45;&gt;3</title>
<path fill="none" stroke="green" stroke-width="0.53" d="M298.41,-77.82C302.18,-73.44 307.43,-68.39 313.33,-65.7 476.13,8.56 543.73,-83.68 714.33,-29.7 715.38,-29.36 716.44,-28.98 717.5,-28.55"/>
<polygon fill="green" stroke="green" stroke-width="0.53" points="719.23,-31.6 726.59,-23.97 716.09,-25.34 719.23,-31.6"/>
</g>
<!-- &#45;3&#45;&gt;4 -->
<g id="edge13" class="edge">
<title>&#45;3&#45;&gt;4</title>
<path fill="none" stroke="green" stroke-width="0.26" d="M298.97,-77.8C302.77,-73.63 307.87,-68.8 313.33,-65.7 364.98,-36.39 434.67,-23.64 471.36,-18.66"/>
<polygon fill="green" stroke="green" stroke-width="0.26" points="472.15,-22.09 481.63,-17.35 471.26,-15.14 472.15,-22.09"/>
</g>
<!-- &#45;4 -->
<g id="node4" class="node">
<title>&#45;4</title>
<polygon fill="lightgray" stroke="black" points="346.33,-95.91 322.33,-95.91 322.33,-77.91 346.33,-77.91 346.33,-95.91"/>
<text text-anchor="middle" x="334.33" y="-84.71" font-family="Times New Roman,serif" font-size="9.00">&#45;4</text>
</g>
<!-- &#45;4&#45;&gt;0 -->
<g id="edge14" class="edge">
<title>&#45;4&#45;&gt;0</title>
<path fill="none" stroke="red" stroke-width="0.33" d="M340.45,-77.91C344.24,-73.55 349.49,-68.5 355.33,-65.7 468.05,-11.62 511.44,-52.74 634.33,-29.7 644.88,-27.72 656.42,-24.97 666.26,-22.44"/>
<polygon fill="red" stroke="red" stroke-width="0.33" points="667.38,-25.77 676.15,-19.83 665.59,-19 667.38,-25.77"/>
</g>
<!-- &#45;4&#45;&gt;1 -->
<g id="edge15" class="edge">
<title>&#45;4&#45;&gt;1</title>
<path fill="none" stroke="red" stroke-width="0.32" d="M340.9,-77.69C344.69,-73.49 349.79,-68.65 355.33,-65.7 421.53,-30.34 450.32,-56.78 520.33,-29.7 521.19,-29.36 522.06,-29 522.93,-28.62"/>
<polygon fill="red" stroke="red" stroke-width="0.32" points="524.71,-31.64 531.99,-23.94 521.5,-25.42 524.71,-31.64"/>
</g>
<!-- &#45;4&#45;&gt;2 -->
<g id="edge16" class="edge">
<title>&#45;4&#45;&gt;2</title>
<path fill="none" stroke="green" stroke-width="0.4" d="M340.85,-77.58C344.62,-73.35 349.72,-68.52 355.33,-65.7 441.06,-22.49 475.14,-52.8 568.33,-29.7 574.44,-28.18 580.94,-26.22 586.96,-24.25"/>
<polygon fill="green" stroke="green" stroke-width="0.4" points="588.15,-27.54 596.48,-21 585.89,-20.92 588.15,-27.54"/>
</g>
<!-- &#45;4&#45;&gt;3 -->
<g id="edge17" class="edge">
<title>&#45;4&#45;&gt;3</title>
<path fill="none" stroke="red" stroke-width="0.27" d="M340.42,-77.84C344.2,-73.47 349.45,-68.42 355.33,-65.7 500.88,1.6 561.7,-78.87 714.33,-29.7 715.38,-29.36 716.44,-28.97 717.49,-28.54"/>
<polygon fill="red" stroke="red" stroke-width="0.27" points="719.24,-31.58 726.58,-23.95 716.08,-25.33 719.24,-31.58"/>
</g>
<!-- &#45;4&#45;&gt;4 -->
<g id="edge18" class="edge">
<title>&#45;4&#45;&gt;4</title>
<path fill="none" stroke="green" stroke-width="0.12" d="M341.44,-77.56C345.22,-73.53 350.16,-68.89 355.33,-65.7 392.91,-42.5 442.8,-28.12 472.05,-21.08"/>
<polygon fill="green" stroke="green" stroke-width="0.12" points="472.88,-24.48 481.83,-18.82 471.3,-17.66 472.88,-24.48"/>
</g>
<!-- &#45;5 -->
<g id="node5" class="node">
<title>&#45;5</title>
<polygon fill="lightgray" stroke="black" points="388.33,-95.91 364.33,-95.91 364.33,-77.91 388.33,-77.91 388.33,-95.91"/>
<text text-anchor="middle" x="376.33" y="-84.71" font-family="Times New Roman,serif" font-size="9.00">&#45;5</text>
</g>
<!-- &#45;5&#45;&gt;0 -->
<g id="edge19" class="edge">
<title>&#45;5&#45;&gt;0</title>
<path fill="none" stroke="red" stroke-width="0.21" d="M382.83,-77.55C386.6,-73.31 391.7,-68.48 397.33,-65.7 492.86,-18.54 529.84,-50.51 634.33,-29.7 644.86,-27.6 656.39,-24.83 666.24,-22.32"/>
<polygon fill="red" stroke="red" stroke-width="0.21" points="667.34,-25.65 676.14,-19.74 665.58,-18.88 667.34,-25.65"/>
</g>
<!-- &#45;5&#45;&gt;1 -->
<g id="edge20" class="edge">
<title>&#45;5&#45;&gt;1</title>
<path fill="none" stroke="green" stroke-width="0.11" d="M382.99,-77.84C386.8,-73.69 391.9,-68.85 397.33,-65.7 446.6,-37.12 467.95,-52.09 520.33,-29.7 521.18,-29.33 522.04,-28.95 522.9,-28.54"/>
<polygon fill="green" stroke="green" stroke-width="0.11" points="524.72,-31.54 531.91,-23.76 521.44,-25.35 524.72,-31.54"/>
</g>
<!-- &#45;5&#45;&gt;2 -->
<g id="edge21" class="edge">
<title>&#45;5&#45;&gt;2</title>
<path fill="none" stroke="red" stroke-width="0.23" d="M382.9,-77.67C386.68,-73.47 391.78,-68.63 397.33,-65.7 465.97,-29.36 493.33,-49.89 568.33,-29.7 574.41,-28.06 580.9,-26.05 586.92,-24.08"/>
<polygon fill="red" stroke="red" stroke-width="0.23" points="588.09,-27.38 596.44,-20.86 585.85,-20.74 588.09,-27.38"/>
</g>
<!-- &#45;5&#45;&gt;3 -->
<g id="edge22" class="edge">
<title>&#45;5&#45;&gt;3</title>
<path fill="none" stroke="red" stroke-width="0.32" stroke-dasharray="1,5" d="M382.43,-77.87C386.22,-73.51 391.47,-68.46 397.33,-65.7 525.63,-5.34 579.65,-74.06 714.33,-29.7 715.21,-29.41 716.09,-29.08 716.97,-28.73"/>
<polygon fill="red" stroke="red" stroke-width="0.32" points="718.68,-31.79 726.08,-24.2 715.57,-25.52 718.68,-31.79"/>
</g>
<!-- &#45;5&#45;&gt;4 -->
<g id="edge23" class="edge">
<title>&#45;5&#45;&gt;4</title>
<path fill="none" stroke="green" stroke-width="0.36" d="M383.61,-77.83C387.45,-73.87 392.37,-69.21 397.33,-65.7 421.62,-48.49 452.7,-33.88 473.5,-25.01"/>
<polygon fill="green" stroke="green" stroke-width="0.36" points="474.92,-28.2 482.8,-21.13 472.23,-21.74 474.92,-28.2"/>
</g>
<!-- &#45;6 -->
<g id="node6" class="node">
<title>&#45;6</title>
<polygon fill="lightgray" stroke="black" points="430.33,-95.91 406.33,-95.91 406.33,-77.91 430.33,-77.91 430.33,-95.91"/>
<text text-anchor="middle" x="418.33" y="-84.71" font-family="Times New Roman,serif" font-size="9.00">&#45;6</text>
</g>
<!-- &#45;6&#45;&gt;0 -->
<g id="edge24" class="edge">
<title>&#45;6&#45;&gt;0</title>
<path fill="none" stroke="green" stroke-width="0.28" d="M424.87,-77.62C428.64,-73.4 433.75,-68.57 439.33,-65.7 517.72,-25.44 548.18,-48.29 634.33,-29.7 644.82,-27.43 656.35,-24.64 666.2,-22.15"/>
<polygon fill="green" stroke="green" stroke-width="0.28" points="667.29,-25.49 676.11,-19.61 665.56,-18.7 667.29,-25.49"/>
</g>
<!-- &#45;6&#45;&gt;1 -->
<g id="edge25" class="edge">
<title>&#45;6&#45;&gt;1</title>
<path fill="none" stroke="red" stroke-width="0.11" d="M425.54,-77.73C429.36,-73.74 434.29,-69.09 439.33,-65.7 472.01,-43.71 485.22,-47.57 520.33,-29.7 521.15,-29.28 521.99,-28.84 522.83,-28.4"/>
<polygon fill="red" stroke="red" stroke-width="0.11" points="524.72,-31.35 531.76,-23.43 521.32,-25.23 524.72,-31.35"/>
</g>
<!-- &#45;6&#45;&gt;2 -->
<g id="edge26" class="edge">
<title>&#45;6&#45;&gt;2</title>
<path fill="none" stroke="green" stroke-width="0.11" stroke-dasharray="1,5" d="M424.97,-77.81C428.78,-73.65 433.88,-68.81 439.33,-65.7 491.01,-36.16 511.38,-47.02 568.33,-29.7 574.35,-27.87 580.82,-25.79 586.84,-23.81"/>
<polygon fill="green" stroke="green" stroke-width="0.11" points="588,-27.11 596.38,-20.63 585.79,-20.47 588,-27.11"/>
</g>
<!-- &#45;6&#45;&gt;3 -->
<g id="edge27" class="edge">
<title>&#45;6&#45;&gt;3</title>
<path fill="none" stroke="red" stroke-width="0.16" d="M424.45,-77.91C428.24,-73.56 433.49,-68.51 439.33,-65.7 550.41,-12.28 597.58,-69.27 714.33,-29.7 715.2,-29.4 716.08,-29.07 716.96,-28.71"/>
<polygon fill="red" stroke="red" stroke-width="0.16" points="718.69,-31.76 726.07,-24.16 715.56,-25.5 718.69,-31.76"/>
</g>
<!-- &#45;6&#45;&gt;4 -->
<g id="edge28" class="edge">
<title>&#45;6&#45;&gt;4</title>
<path fill="none" stroke="red" stroke-width="1.16" d="M426.82,-77.56C430.61,-73.88 435.15,-69.53 439.33,-65.7 451.83,-54.22 466.22,-41.65 477.41,-32"/>
<polygon fill="red" stroke="red" stroke-width="1.16" points="479.96,-34.42 485.26,-25.25 475.4,-29.11 479.96,-34.42"/>
</g>
<!-- &#45;7 -->
<g id="node7" class="node">
<title>&#45;7</title>
<polygon fill="lightgray" stroke="black" points="841.33,-95.91 817.33,-95.91 817.33,-77.91 841.33,-77.91 841.33,-95.91"/>
<text text-anchor="middle" x="829.33" y="-84.71" font-family="Times New Roman,serif" font-size="9.00">&#45;7</text>
</g>
<!-- &#45;7&#45;&gt;0 -->
<g id="edge29" class="edge">
<title>&#45;7&#45;&gt;0</title>
<path fill="none" stroke="green" stroke-width="0.35" d="M822.18,-77.62C818.39,-73.6 813.45,-68.96 808.33,-65.7 770.57,-41.71 754.72,-48.94 714.33,-29.7 713.49,-29.3 712.65,-28.88 711.8,-28.45"/>
<polygon fill="green" stroke="green" stroke-width="0.35" points="713.29,-25.28 702.83,-23.56 709.93,-31.42 713.29,-25.28"/>
</g>
<!-- &#45;7&#45;&gt;1 -->
<g id="edge30" class="edge">
<title>&#45;7&#45;&gt;1</title>
<path fill="none" stroke="green" stroke-width="0.29" d="M822.81,-77.57C819.04,-73.33 813.94,-68.5 808.33,-65.7 718.92,-21.01 683.43,-53.42 586.33,-29.7 580.21,-28.2 573.7,-26.25 567.68,-24.27"/>
<polygon fill="green" stroke="green" stroke-width="0.29" points="568.76,-20.94 558.17,-21.02 566.5,-27.57 568.76,-20.94"/>
</g>
<!-- &#45;7&#45;&gt;2 -->
<g id="edge31" class="edge">
<title>&#45;7&#45;&gt;2</title>
<path fill="none" stroke="green" stroke-width="0.59" d="M822.71,-77.76C818.91,-73.58 813.81,-68.74 808.33,-65.7 806.39,-64.63 686.94,-34.88 634.53,-21.86"/>
<polygon fill="green" stroke="green" stroke-width="0.59" points="635.26,-18.43 624.72,-19.42 633.58,-25.23 635.26,-18.43"/>
</g>
<!-- &#45;7&#45;&gt;3 -->
<g id="edge32" class="edge">
<title>&#45;7&#45;&gt;3</title>
<path fill="none" stroke="red" stroke-width="0.39" d="M821.41,-77.75C817.58,-73.95 812.84,-69.45 808.33,-65.7 792.5,-52.57 773.43,-39.13 759.19,-29.52"/>
<polygon fill="red" stroke="red" stroke-width="0.39" points="760.88,-26.44 750.62,-23.8 756.99,-32.26 760.88,-26.44"/>
</g>
<!-- &#45;7&#45;&gt;4 -->
<g id="edge33" class="edge">
<title>&#45;7&#45;&gt;4</title>
<path fill="none" stroke="red" stroke-width="0.12" d="M823.21,-77.9C819.42,-73.54 814.17,-68.49 808.33,-65.7 691.91,-10.13 642.62,-70.75 520.33,-29.7 519.45,-29.4 518.57,-29.08 517.69,-28.72"/>
<polygon fill="red" stroke="red" stroke-width="0.12" points="519.09,-25.51 508.58,-24.17 515.97,-31.77 519.09,-25.51"/>
</g>
<!-- &#45;8 -->
<g id="node8" class="node">
<title>&#45;8</title>
<polygon fill="lightgray" stroke="black" points="883.33,-95.91 859.33,-95.91 859.33,-77.91 883.33,-77.91 883.33,-95.91"/>
<text text-anchor="middle" x="871.33" y="-84.71" font-family="Times New Roman,serif" font-size="9.00">&#45;8</text>
</g>
<!-- &#45;8&#45;&gt;0 -->
<g id="edge34" class="edge">
<title>&#45;8&#45;&gt;0</title>
<path fill="none" stroke="red" stroke-width="0.26" d="M864.7,-77.79C860.89,-73.61 855.8,-68.78 850.33,-65.7 795.84,-35.04 772.13,-53.53 714.33,-29.7 713.47,-29.35 712.61,-28.97 711.74,-28.57"/>
<polygon fill="red" stroke="red" stroke-width="0.26" points="713.19,-25.38 702.71,-23.83 709.94,-31.58 713.19,-25.38"/>
</g>
<!-- &#45;8&#45;&gt;1 -->
<g id="edge35" class="edge">
<title>&#45;8&#45;&gt;1</title>
<path fill="none" stroke="red" stroke-width="0.15" d="M864.84,-77.51C861.08,-73.26 855.97,-68.43 850.33,-65.7 743.74,-14.09 701.71,-56.35 586.33,-29.7 580.19,-28.28 573.68,-26.35 567.66,-24.38"/>
<polygon fill="red" stroke="red" stroke-width="0.15" points="568.74,-21.05 558.15,-21.11 566.47,-27.67 568.74,-21.05"/>
</g>
<!-- &#45;8&#45;&gt;2 -->
<g id="edge36" class="edge">
<title>&#45;8&#45;&gt;2</title>
<path fill="none" stroke="green" stroke-width="0.3" d="M864.77,-77.64C860.99,-73.43 855.89,-68.59 850.33,-65.7 776.41,-27.24 747.69,-47.71 666.33,-29.7 655.84,-27.38 644.32,-24.57 634.46,-22.09"/>
<polygon fill="green" stroke="green" stroke-width="0.3" points="635.11,-18.65 624.55,-19.57 633.38,-25.43 635.11,-18.65"/>
</g>
<!-- &#45;8&#45;&gt;3 -->
<g id="edge37" class="edge">
<title>&#45;8&#45;&gt;3</title>
<path fill="none" stroke="red" stroke-width="0.11" d="M864.11,-77.73C860.29,-73.74 855.36,-69.09 850.33,-65.7 822.03,-46.65 785.26,-31.91 761.72,-23.55"/>
<polygon fill="red" stroke="red" stroke-width="0.11" points="762.81,-20.23 752.21,-20.27 760.52,-26.84 762.81,-20.23"/>
</g>
<!-- &#45;8&#45;&gt;4 -->
<g id="edge38" class="edge">
<title>&#45;8&#45;&gt;4</title>
<path fill="none" stroke="red" stroke-width="0.28" d="M865.23,-77.86C861.44,-73.5 856.19,-68.44 850.33,-65.7 716.69,-3.19 660.56,-75.55 520.33,-29.7 519.45,-29.41 518.56,-29.09 517.68,-28.74"/>
<polygon fill="red" stroke="red" stroke-width="0.28" points="519.08,-25.53 508.57,-24.21 515.97,-31.8 519.08,-25.53"/>
</g>
<!-- &#45;9 -->
<g id="node9" class="node">
<title>&#45;9</title>
<polygon fill="lightgray" stroke="black" points="1011.33,-95.91 987.33,-95.91 987.33,-77.91 1011.33,-77.91 1011.33,-95.91"/>
<text text-anchor="middle" x="999.33" y="-84.71" font-family="Times New Roman,serif" font-size="9.00">&#45;9</text>
</g>
<!-- &#45;9&#45;&gt;0 -->
<g id="edge39" class="edge">
<title>&#45;9&#45;&gt;0</title>
<path fill="none" stroke="green" stroke-width="0.26" d="M990.93,-77.53C986.16,-73.28 979.86,-68.46 973.33,-65.7 866.26,-20.5 824.25,-67.44 714.33,-29.7 713.45,-29.4 712.57,-29.06 711.69,-28.7"/>
<polygon fill="green" stroke="green" stroke-width="0.26" points="713.1,-25.5 702.6,-24.14 709.96,-31.75 713.1,-25.5"/>
</g>
<!-- &#45;9&#45;&gt;1 -->
<g id="edge40" class="edge">
<title>&#45;9&#45;&gt;1</title>
<path fill="none" stroke="green" stroke-width="0.3" d="M986.91,-80.72C975.13,-76.03 956.83,-69.31 940.33,-65.7 785.85,-31.85 741,-62.65 586.33,-29.7 580.17,-28.39 573.65,-26.49 567.63,-24.53"/>
<polygon fill="green" stroke="green" stroke-width="0.3" points="568.71,-21.2 558.12,-21.24 566.42,-27.82 568.71,-21.2"/>
</g>
<!-- &#45;9&#45;&gt;2 -->
<g id="edge41" class="edge">
<title>&#45;9&#45;&gt;2</title>
<path fill="none" stroke="green" stroke-width="0.24" d="M991.41,-77.89C986.6,-73.53 980.1,-68.47 973.33,-65.7 846.2,-13.62 801.5,-54.24 666.33,-29.7 655.76,-27.78 644.22,-25.04 634.38,-22.5"/>
<polygon fill="green" stroke="green" stroke-width="0.24" points="635.05,-19.06 624.49,-19.88 633.26,-25.83 635.05,-19.06"/>
</g>
<!-- &#45;9&#45;&gt;3 -->
<g id="edge42" class="edge">
<title>&#45;9&#45;&gt;3</title>
<path fill="none" stroke="green" stroke-width="0.94" d="M990.85,-77.71C986.06,-73.52 979.76,-68.69 973.33,-65.7 901.67,-32.41 807.38,-21.09 763.19,-17.45"/>
<polygon fill="green" stroke="green" stroke-width="0.94" points="763.32,-13.95 753.08,-16.69 762.79,-20.93 763.32,-13.95"/>
</g>
<!-- &#45;9&#45;&gt;4 -->
<g id="edge43" class="edge">
<title>&#45;9&#45;&gt;4</title>
<path fill="none" stroke="green" stroke-width="0.45" d="M986.92,-80.66C975.15,-75.93 956.85,-69.18 940.33,-65.7 757.01,-27.05 699.06,-85.86 520.33,-29.7 519.27,-29.37 518.21,-28.98 517.16,-28.56"/>
<polygon fill="green" stroke="green" stroke-width="0.45" points="518.56,-25.35 508.06,-23.98 515.42,-31.6 518.56,-25.35"/>
</g>
<!-- &#45;10 -->
<g id="node10" class="node">
<title>&#45;10</title>
<polygon fill="lightgray" stroke="black" points="1102.83,-240.55 1073.83,-240.55 1073.83,-222.55 1102.83,-222.55 1102.83,-240.55"/>
<text text-anchor="middle" x="1088.33" y="-229.35" font-family="Times New Roman,serif" font-size="9.00">&#45;10</text>
</g>
<!-- &#45;10&#45;&gt;0 -->
<g id="edge44" class="edge">
<title>&#45;10&#45;&gt;0</title>
<path fill="none" stroke="red" stroke-width="0.73" d="M1095.58,-222.51C1118.25,-196.41 1183.78,-112.98 1140.33,-65.7 1076.04,4.25 804.98,-58.12 714.33,-29.7 713.27,-29.37 712.21,-28.98 711.16,-28.56"/>
<polygon fill="red" stroke="red" stroke-width="0.73" points="712.56,-25.35 702.06,-23.99 709.42,-31.61 712.56,-25.35"/>
</g>
<!-- &#45;10&#45;&gt;1 -->
<g id="edge45" class="edge">
<title>&#45;10&#45;&gt;1</title>
<path fill="none" stroke="red" stroke-width="0.26" d="M1073.66,-230.52C959.68,-230.19 217.52,-226.5 127.33,-186.55 82.38,-166.64 68.08,-153.57 49.33,-108.12 42.13,-90.69 36.51,-79.53 49.33,-65.7 85,-27.2 470.18,-45.2 520.33,-29.7 521.38,-29.37 522.45,-28.99 523.5,-28.57"/>
<polygon fill="red" stroke="red" stroke-width="0.26" points="525.23,-31.62 532.6,-24.01 522.1,-25.36 525.23,-31.62"/>
</g>
<!-- &#45;10&#45;&gt;2 -->
<g id="edge46" class="edge">
<title>&#45;10&#45;&gt;2</title>
<path fill="none" stroke="red" stroke-width="0.15" d="M1081.12,-222.53C1063.53,-202.98 1017.06,-151.3 978.33,-108.12 961.42,-89.28 962.72,-77.51 940.33,-65.7 831.7,-8.38 787.02,-52.48 666.33,-29.7 655.78,-27.71 644.24,-24.95 634.39,-22.43"/>
<polygon fill="red" stroke="red" stroke-width="0.15" points="635.06,-18.98 624.5,-19.82 633.28,-25.75 635.06,-18.98"/>
</g>
<!-- &#45;10&#45;&gt;3 -->
<g id="edge47" class="edge">
<title>&#45;10&#45;&gt;3</title>
<path fill="none" stroke="green" stroke-width="0.13" d="M1102.92,-230.28C1138.28,-229.05 1230.51,-222.36 1296.33,-186.55 1352.48,-156 1417.73,-112.64 1374.33,-65.7 1332.17,-20.1 875.72,-16.14 763.26,-15.86"/>
<polygon fill="green" stroke="green" stroke-width="0.13" points="763.2,-12.36 753.19,-15.84 763.19,-19.36 763.2,-12.36"/>
</g>
<!-- &#45;10&#45;&gt;4 -->
<g id="edge48" class="edge">
<title>&#45;10&#45;&gt;4</title>
<path fill="none" stroke="red" stroke-width="0.26" d="M1073.79,-230.31C952.4,-228.26 110.92,-213.12 65.33,-186.55 15.25,-157.37 -22.48,-108.75 16.33,-65.7 47.09,-31.58 377.43,-19.33 471.48,-16.52"/>
<polygon fill="red" stroke="red" stroke-width="0.26" points="471.61,-20.02 481.5,-16.23 471.41,-13.03 471.61,-20.02"/>
</g>
<!-- 123 -->
<g id="node30" class="node">
<title>123</title>
<ellipse fill="white" stroke="black" cx="1266.33" cy="-165.34" rx="21.43" ry="21.43"/>
<text text-anchor="middle" x="1266.33" y="-163.14" font-family="Times New Roman,serif" font-size="9.00">123</text>
</g>
<!-- &#45;10&#45;&gt;123 -->
<g id="edge101" class="edge">
<title>&#45;10&#45;&gt;123</title>
<path fill="none" stroke="green" stroke-width="0.52" d="M1102.92,-227.22C1129.23,-220.96 1186.09,-206.27 1231.33,-186.55 1234.04,-185.37 1236.81,-184.03 1239.54,-182.61"/>
<polygon fill="green" stroke="green" stroke-width="0.52" points="1241.5,-185.53 1248.57,-177.63 1238.12,-179.4 1241.5,-185.53"/>
</g>
<!-- &#45;11 -->
<g id="node11" class="node">
<title>&#45;11</title>
<polygon fill="lightgray" stroke="black" points="1058.83,-95.91 1029.83,-95.91 1029.83,-77.91 1058.83,-77.91 1058.83,-95.91"/>
<text text-anchor="middle" x="1044.33" y="-84.71" font-family="Times New Roman,serif" font-size="9.00">&#45;11</text>
</g>
<!-- &#45;11&#45;&gt;0 -->
<g id="edge49" class="edge">
<title>&#45;11&#45;&gt;0</title>
<path fill="none" stroke="red" stroke-width="0.19" d="M1037.13,-77.88C1032.73,-73.52 1026.73,-68.47 1020.33,-65.7 894.66,-11.3 844.3,-72.81 714.33,-29.7 713.45,-29.41 712.57,-29.08 711.69,-28.73"/>
<polygon fill="red" stroke="red" stroke-width="0.19" points="713.09,-25.52 702.58,-24.19 709.97,-31.78 713.09,-25.52"/>
</g>
<!-- &#45;11&#45;&gt;1 -->
<g id="edge50" class="edge">
<title>&#45;11&#45;&gt;1</title>
<path fill="none" stroke="green" stroke-width="0.57" stroke-dasharray="1,5" d="M1037.16,-77.8C1032.77,-73.41 1026.77,-68.36 1020.33,-65.7 841.41,8.13 776,-68.27 586.33,-29.7 580.16,-28.44 573.63,-26.57 567.61,-24.61"/>
<polygon fill="green" stroke="green" stroke-width="0.57" points="568.7,-21.28 558.1,-21.3 566.4,-27.89 568.7,-21.28"/>
</g>
<!-- &#45;11&#45;&gt;2 -->
<g id="edge51" class="edge">
<title>&#45;11&#45;&gt;2</title>
<path fill="none" stroke="green" stroke-width="0.13" d="M1037.14,-77.84C1032.75,-73.47 1026.75,-68.42 1020.33,-65.7 874.71,-4.02 822.14,-56.75 666.33,-29.7 655.75,-27.86 644.21,-25.13 634.37,-22.58"/>
<polygon fill="green" stroke="green" stroke-width="0.13" points="635.05,-19.14 624.48,-19.94 633.23,-25.9 635.05,-19.14"/>
</g>
<!-- &#45;11&#45;&gt;3 -->
<g id="edge52" class="edge">
<title>&#45;11&#45;&gt;3</title>
<path fill="none" stroke="red" stroke-width="0.7" d="M1036.65,-77.61C1032.27,-73.39 1026.45,-68.56 1020.33,-65.7 932.22,-24.49 814.08,-17.15 763.27,-15.98"/>
<polygon fill="red" stroke="red" stroke-width="0.7" points="763.27,-12.48 753.21,-15.82 763.15,-19.48 763.27,-12.48"/>
</g>
<!-- &#45;12 -->
<g id="node12" class="node">
<title>&#45;12</title>
<polygon fill="lightgray" stroke="black" points="477.83,-95.91 448.83,-95.91 448.83,-77.91 477.83,-77.91 477.83,-95.91"/>
<text text-anchor="middle" x="463.33" y="-84.71" font-family="Times New Roman,serif" font-size="9.00">&#45;12</text>
</g>
<!-- &#45;12&#45;&gt;0 -->
<g id="edge53" class="edge">
<title>&#45;12&#45;&gt;0</title>
<path fill="none" stroke="red" stroke-width="0.25" d="M470.7,-77.76C474.9,-73.58 480.48,-68.74 486.33,-65.7 546.38,-34.45 568.58,-45.82 634.33,-29.7 644.76,-27.14 656.27,-24.3 666.14,-21.85"/>
<polygon fill="red" stroke="red" stroke-width="0.25" points="667.2,-25.2 676.06,-19.39 665.51,-18.4 667.2,-25.2"/>
</g>
<!-- &#45;12&#45;&gt;1 -->
<g id="edge54" class="edge">
<title>&#45;12&#45;&gt;1</title>
<path fill="none" stroke="green" stroke-width="0.31" d="M472.71,-77.63C476.87,-73.96 481.83,-69.6 486.33,-65.7 499.39,-54.34 514.19,-41.63 525.57,-31.88"/>
<polygon fill="green" stroke="green" stroke-width="0.31" points="527.85,-34.53 533.18,-25.37 523.3,-29.21 527.85,-34.53"/>
</g>
<!-- &#45;12&#45;&gt;2 -->
<g id="edge55" class="edge">
<title>&#45;12&#45;&gt;2</title>
<path fill="none" stroke="green" stroke-width="0.2" d="M471.3,-77.69C475.5,-73.69 480.89,-69.04 486.33,-65.7 503.73,-54.99 555.86,-35.43 586.71,-24.26"/>
<polygon fill="green" stroke="green" stroke-width="0.2" points="588.05,-27.5 596.28,-20.82 585.68,-20.91 588.05,-27.5"/>
</g>
<!-- &#45;12&#45;&gt;3 -->
<g id="edge56" class="edge">
<title>&#45;12&#45;&gt;3</title>
<path fill="none" stroke="green" stroke-width="0.29" d="M470.61,-77.57C474.78,-73.33 480.36,-68.5 486.33,-65.7 579.2,-22.11 617.61,-63.91 714.33,-29.7 715.2,-29.39 716.08,-29.05 716.95,-28.68"/>
<polygon fill="green" stroke="green" stroke-width="0.29" points="718.7,-31.72 726.04,-24.09 715.54,-25.48 718.7,-31.72"/>
</g>
<!-- &#45;12&#45;&gt;4 -->
<g id="edge57" class="edge">
<title>&#45;12&#45;&gt;4</title>
<path fill="none" stroke="red" stroke-width="0.18" d="M467.11,-77.87C471.69,-68.16 479.58,-51.41 486.01,-37.76"/>
<polygon fill="red" stroke="red" stroke-width="0.18" points="489.27,-39.05 490.36,-28.52 482.93,-36.07 489.27,-39.05"/>
</g>
<!-- &#45;13 -->
<g id="node13" class="node">
<title>&#45;13</title>
<polygon fill="lightgray" stroke="black" points="930.83,-95.91 901.83,-95.91 901.83,-77.91 930.83,-77.91 930.83,-95.91"/>
<text text-anchor="middle" x="916.33" y="-84.71" font-family="Times New Roman,serif" font-size="9.00">&#45;13</text>
</g>
<!-- &#45;13&#45;&gt;0 -->
<g id="edge58" class="edge">
<title>&#45;13&#45;&gt;0</title>
<path fill="none" stroke="red" stroke-width="0.38" d="M908.62,-77.67C904.23,-73.47 898.41,-68.64 892.33,-65.7 819.64,-30.61 789.82,-58.24 714.33,-29.7 713.46,-29.37 712.59,-29.01 711.72,-28.64"/>
<polygon fill="red" stroke="red" stroke-width="0.38" points="713.15,-25.43 702.65,-23.98 709.95,-31.66 713.15,-25.43"/>
</g>
<!-- &#45;13&#45;&gt;1 -->
<g id="edge59" class="edge">
<title>&#45;13&#45;&gt;1</title>
<path fill="none" stroke="red" stroke-width="0.15" d="M909.13,-77.88C904.73,-73.52 898.73,-68.47 892.33,-65.7 766.66,-11.3 720.03,-59.29 586.33,-29.7 580.18,-28.34 573.66,-26.43 567.64,-24.46"/>
<polygon fill="red" stroke="red" stroke-width="0.15" points="568.73,-21.13 558.13,-21.18 566.44,-27.75 568.73,-21.13"/>
</g>
<!-- &#45;13&#45;&gt;2 -->
<g id="edge60" class="edge">
<title>&#45;13&#45;&gt;2</title>
<path fill="none" stroke="green" stroke-width="0.1" d="M908.66,-77.57C904.29,-73.34 898.47,-68.51 892.33,-65.7 799.83,-23.39 766.01,-49.93 666.33,-29.7 655.8,-27.56 644.27,-24.79 634.42,-22.28"/>
<polygon fill="green" stroke="green" stroke-width="0.1" points="635.08,-18.84 624.52,-19.71 633.32,-25.61 635.08,-18.84"/>
</g>
<!-- &#45;13&#45;&gt;3 -->
<g id="edge61" class="edge">
<title>&#45;13&#45;&gt;3</title>
<path fill="none" stroke="green" stroke-width="0.44" d="M908.04,-77.54C903.67,-73.51 898.04,-68.87 892.33,-65.7 849.9,-42.16 794.66,-27.7 763.18,-20.78"/>
<polygon fill="green" stroke="green" stroke-width="0.44" points="763.61,-17.29 753.1,-18.64 762.16,-24.14 763.61,-17.29"/>
</g>
<!-- &#45;13&#45;&gt;4 -->
<g id="edge62" class="edge">
<title>&#45;13&#45;&gt;4</title>
<path fill="none" stroke="red" stroke-width="0.14" d="M909.15,-77.83C904.75,-73.46 898.75,-68.4 892.33,-65.7 739.22,-1.29 678.52,-80.36 520.33,-29.7 519.27,-29.36 518.22,-28.97 517.16,-28.54"/>
<polygon fill="red" stroke="red" stroke-width="0.14" points="518.57,-25.34 508.07,-23.96 515.42,-31.59 518.57,-25.34"/>
</g>
<!-- &#45;14 -->
<g id="node14" class="node">
<title>&#45;14</title>
<polygon fill="lightgray" stroke="black" points="524.83,-95.91 495.83,-95.91 495.83,-77.91 524.83,-77.91 524.83,-95.91"/>
<text text-anchor="middle" x="510.33" y="-84.71" font-family="Times New Roman,serif" font-size="9.00">&#45;14</text>
</g>
<!-- &#45;14&#45;&gt;0 -->
<g id="edge63" class="edge">
<title>&#45;14&#45;&gt;0</title>
<path fill="none" stroke="red" stroke-width="0.4" d="M525.06,-80.18C556.22,-68.05 629.03,-39.71 666.75,-25.03"/>
<polygon fill="red" stroke="red" stroke-width="0.4" points="668.34,-28.16 676.39,-21.27 665.8,-21.64 668.34,-28.16"/>
</g>
<!-- &#45;14&#45;&gt;1 -->
<g id="edge64" class="edge">
<title>&#45;14&#45;&gt;1</title>
<path fill="none" stroke="red" stroke-width="0.63" d="M514.23,-77.87C518.94,-68.16 527.07,-51.41 533.69,-37.76"/>
<polygon fill="red" stroke="red" stroke-width="0.63" points="536.96,-39.04 538.18,-28.52 530.67,-35.99 536.96,-39.04"/>
</g>
<!-- &#45;14&#45;&gt;2 -->
<g id="edge65" class="edge">
<title>&#45;14&#45;&gt;2</title>
<path fill="none" stroke="green" stroke-width="0.31" d="M521.8,-77.87C538.42,-66.23 569.47,-44.48 590.02,-30.08"/>
<polygon fill="green" stroke="green" stroke-width="0.31" points="592.19,-32.83 598.37,-24.23 588.17,-27.1 592.19,-32.83"/>
</g>
<!-- &#45;14&#45;&gt;3 -->
<g id="edge66" class="edge">
<title>&#45;14&#45;&gt;3</title>
<path fill="none" stroke="red" stroke-width="0.46" d="M525.02,-80.81C537.53,-76.55 556.01,-70.42 572.33,-65.7 634.87,-47.6 654.01,-54.2 714.33,-29.7 715.19,-29.35 716.05,-28.98 716.92,-28.58"/>
<polygon fill="red" stroke="red" stroke-width="0.46" points="718.71,-31.59 725.95,-23.86 715.47,-25.39 718.71,-31.59"/>
</g>
<!-- &#45;14&#45;&gt;4 -->
<g id="edge67" class="edge">
<title>&#45;14&#45;&gt;4</title>
<path fill="none" stroke="red" stroke-width="0.43" d="M508.72,-77.87C506.86,-68.57 503.72,-52.83 501.06,-39.53"/>
<polygon fill="red" stroke="red" stroke-width="0.43" points="504.46,-38.68 499.07,-29.56 497.59,-40.05 504.46,-38.68"/>
</g>
<!-- &#45;15 -->
<g id="node15" class="node">
<title>&#45;15</title>
<polygon fill="lightgray" stroke="black" points="610.83,-95.91 581.83,-95.91 581.83,-77.91 610.83,-77.91 610.83,-95.91"/>
<text text-anchor="middle" x="596.33" y="-84.71" font-family="Times New Roman,serif" font-size="9.00">&#45;15</text>
</g>
<!-- &#45;15&#45;&gt;0 -->
<g id="edge68" class="edge">
<title>&#45;15&#45;&gt;0</title>
<path fill="none" stroke="green" stroke-width="0.48" d="M605.09,-77.81C609.3,-74.02 614.48,-69.51 619.33,-65.7 635.74,-52.79 655.2,-39.24 669.59,-29.53"/>
<polygon fill="green" stroke="green" stroke-width="0.48" points="671.86,-32.22 678.23,-23.76 667.97,-26.4 671.86,-32.22"/>
</g>
<!-- &#45;15&#45;&gt;1 -->
<g id="edge69" class="edge">
<title>&#45;15&#45;&gt;1</title>
<path fill="none" stroke="red" stroke-width="0.31" d="M590.36,-77.87C582.76,-67.64 569.37,-49.59 558.98,-35.59"/>
<polygon fill="red" stroke="red" stroke-width="0.31" points="561.75,-33.45 552.98,-27.51 556.13,-37.62 561.75,-33.45"/>
</g>
<!-- &#45;15&#45;&gt;2 -->
<g id="edge70" class="edge">
<title>&#45;15&#45;&gt;2</title>
<path fill="none" stroke="red" stroke-width="0.85" d="M597.93,-77.87C599.79,-68.57 602.94,-52.83 605.6,-39.53"/>
<polygon fill="red" stroke="red" stroke-width="0.85" points="609.06,-40.05 607.59,-29.56 602.2,-38.68 609.06,-40.05"/>
</g>
<!-- &#45;15&#45;&gt;3 -->
<g id="edge71" class="edge">
<title>&#45;15&#45;&gt;3</title>
<path fill="none" stroke="red" stroke-width="0.27" d="M604.28,-77.64C608.47,-73.63 613.86,-68.99 619.33,-65.7 658.02,-42.42 673.53,-49.04 714.33,-29.7 715.16,-29.3 716.01,-28.89 716.86,-28.46"/>
<polygon fill="red" stroke="red" stroke-width="0.27" points="718.72,-31.43 725.83,-23.57 715.37,-25.28 718.72,-31.43"/>
</g>
<!-- &#45;15&#45;&gt;4 -->
<g id="edge72" class="edge">
<title>&#45;15&#45;&gt;4</title>
<path fill="none" stroke="green" stroke-width="0.51" d="M584.86,-77.87C568.23,-66.23 537.19,-44.48 516.64,-30.08"/>
<polygon fill="green" stroke="green" stroke-width="0.51" points="518.48,-27.1 508.28,-24.23 514.47,-32.83 518.48,-27.1"/>
</g>
<!-- &#45;16 -->
<g id="node16" class="node">
<title>&#45;16</title>
<polygon fill="lightgray" stroke="black" points="657.83,-95.91 628.83,-95.91 628.83,-77.91 657.83,-77.91 657.83,-95.91"/>
<text text-anchor="middle" x="643.33" y="-84.71" font-family="Times New Roman,serif" font-size="9.00">&#45;16</text>
</g>
<!-- &#45;16&#45;&gt;0 -->
<g id="edge73" class="edge">
<title>&#45;16&#45;&gt;0</title>
<path fill="none" stroke="red" stroke-width="0.77" d="M648.72,-77.87C655.52,-67.73 667.47,-49.93 676.82,-35.99"/>
<polygon fill="red" stroke="red" stroke-width="0.77" points="679.84,-37.76 682.51,-27.51 674.03,-33.86 679.84,-37.76"/>
</g>
<!-- &#45;16&#45;&gt;1 -->
<g id="edge74" class="edge">
<title>&#45;16&#45;&gt;1</title>
<path fill="none" stroke="green" stroke-width="0.55" d="M634.18,-77.79C629.78,-73.99 624.38,-69.49 619.33,-65.7 601.61,-52.42 580.55,-38.58 565.26,-28.86"/>
<polygon fill="green" stroke="green" stroke-width="0.55" points="566.89,-25.75 556.57,-23.38 563.16,-31.67 566.89,-25.75"/>
</g>
<!-- &#45;16&#45;&gt;2 -->
<g id="edge75" class="edge">
<title>&#45;16&#45;&gt;2</title>
<path fill="none" stroke="green" stroke-width="0.1" stroke-dasharray="1,5" d="M639.54,-77.87C634.96,-68.16 627.07,-51.41 620.65,-37.76"/>
<polygon fill="green" stroke="green" stroke-width="0.1" points="623.72,-36.07 616.29,-28.52 617.39,-39.05 623.72,-36.07"/>
</g>
<!-- &#45;16&#45;&gt;3 -->
<g id="edge76" class="edge">
<title>&#45;16&#45;&gt;3</title>
<path fill="none" stroke="red" stroke-width="0.18" d="M652.08,-77.79C656.29,-74 661.47,-69.5 666.33,-65.7 682.94,-52.72 702.67,-39.18 717.28,-29.49"/>
<polygon fill="red" stroke="red" stroke-width="0.18" points="719.61,-32.14 726.05,-23.73 715.77,-26.29 719.61,-32.14"/>
</g>
<!-- &#45;16&#45;&gt;4 -->
<g id="edge77" class="edge">
<title>&#45;16&#45;&gt;4</title>
<path fill="none" stroke="red" stroke-width="0.43" d="M634.99,-77.63C630.61,-73.62 624.99,-68.97 619.33,-65.7 578.8,-42.26 562.76,-49.47 520.33,-29.7 519.49,-29.31 518.64,-28.9 517.79,-28.47"/>
<polygon fill="red" stroke="red" stroke-width="0.43" points="519.27,-25.29 508.81,-23.6 515.93,-31.45 519.27,-25.29"/>
</g>
<!-- &#45;17 -->
<g id="node17" class="node">
<title>&#45;17</title>
<polygon fill="lightgray" stroke="black" points="704.83,-95.91 675.83,-95.91 675.83,-77.91 704.83,-77.91 704.83,-95.91"/>
<text text-anchor="middle" x="690.33" y="-84.71" font-family="Times New Roman,serif" font-size="9.00">&#45;17</text>
</g>
<!-- &#45;17&#45;&gt;0 -->
<g id="edge78" class="edge">
<title>&#45;17&#45;&gt;0</title>
<path fill="none" stroke="red" stroke-width="0.22" d="M690.33,-77.87C690.33,-68.72 690.33,-53.33 690.33,-40.16"/>
<polygon fill="red" stroke="red" stroke-width="0.22" points="693.83,-39.82 690.33,-29.82 686.83,-39.82 693.83,-39.82"/>
</g>
<!-- &#45;17&#45;&gt;1 -->
<g id="edge79" class="edge">
<title>&#45;17&#45;&gt;1</title>
<path fill="none" stroke="green" stroke-width="0.34" d="M681.94,-77.72C677.54,-73.73 671.92,-69.08 666.33,-65.7 649.09,-55.27 597.84,-35.6 567.53,-24.34"/>
<polygon fill="green" stroke="green" stroke-width="0.34" points="568.72,-21.05 558.13,-20.87 566.3,-27.62 568.72,-21.05"/>
</g>
<!-- &#45;17&#45;&gt;2 -->
<g id="edge80" class="edge">
<title>&#45;17&#45;&gt;2</title>
<path fill="none" stroke="red" stroke-width="0.24" d="M681.15,-77.87C668.5,-66.79 645.41,-46.57 629.03,-32.23"/>
<polygon fill="red" stroke="red" stroke-width="0.24" points="631,-29.31 621.18,-25.35 626.39,-34.57 631,-29.31"/>
</g>
<!-- &#45;17&#45;&gt;3 -->
<g id="edge81" class="edge">
<title>&#45;17&#45;&gt;3</title>
<path fill="none" stroke="red" stroke-width="0.13" stroke-dasharray="1,5" d="M695.83,-77.87C702.78,-67.73 714.98,-49.93 724.53,-35.99"/>
<polygon fill="red" stroke="red" stroke-width="0.13" points="727.58,-37.73 730.34,-27.51 721.8,-33.78 727.58,-37.73"/>
</g>
<!-- &#45;17&#45;&gt;4 -->
<g id="edge82" class="edge">
<title>&#45;17&#45;&gt;4</title>
<path fill="none" stroke="green" stroke-width="0.74" d="M682.57,-77.78C678.17,-73.6 672.35,-68.76 666.33,-65.7 606.77,-35.38 582.33,-54.65 520.33,-29.7 519.47,-29.35 518.6,-28.98 517.74,-28.59"/>
<polygon fill="green" stroke="green" stroke-width="0.74" points="519.18,-25.39 508.69,-23.87 515.94,-31.6 519.18,-25.39"/>
</g>
<!-- &#45;18 -->
<g id="node18" class="node">
<title>&#45;18</title>
<polygon fill="lightgray" stroke="black" points="751.83,-95.91 722.83,-95.91 722.83,-77.91 751.83,-77.91 751.83,-95.91"/>
<text text-anchor="middle" x="737.33" y="-84.71" font-family="Times New Roman,serif" font-size="9.00">&#45;18</text>
</g>
<!-- &#45;18&#45;&gt;0 -->
<g id="edge83" class="edge">
<title>&#45;18&#45;&gt;0</title>
<path fill="none" stroke="green" stroke-width="0.1" stroke-dasharray="1,5" d="M731.94,-77.87C725.13,-67.73 713.19,-49.93 703.84,-35.99"/>
<polygon fill="green" stroke="green" stroke-width="0.1" points="706.63,-33.86 698.15,-27.51 700.81,-37.76 706.63,-33.86"/>
</g>
<!-- &#45;18&#45;&gt;1 -->
<g id="edge84" class="edge">
<title>&#45;18&#45;&gt;1</title>
<path fill="none" stroke="green" stroke-width="0.42" d="M729.52,-77.86C725.11,-73.71 719.29,-68.87 713.33,-65.7 661.51,-38.19 642.42,-46.89 586.33,-29.7 580.31,-27.85 573.84,-25.77 567.82,-23.79"/>
<polygon fill="green" stroke="green" stroke-width="0.42" points="568.87,-20.45 558.28,-20.61 566.66,-27.09 568.87,-20.45"/>
</g>
<!-- &#45;18&#45;&gt;2 -->
<g id="edge85" class="edge">
<title>&#45;18&#45;&gt;2</title>
<path fill="none" stroke="red" stroke-width="0.17" d="M728.85,-77.87C724.43,-73.92 718.81,-69.26 713.33,-65.7 687.28,-48.81 654.66,-33.96 633.19,-24.96"/>
<polygon fill="red" stroke="red" stroke-width="0.17" points="634.48,-21.71 623.9,-21.14 631.82,-28.18 634.48,-21.71"/>
</g>
<!-- &#45;18&#45;&gt;3 -->
<g id="edge86" class="edge">
<title>&#45;18&#45;&gt;3</title>
<path fill="none" stroke="green" stroke-width="0.35" d="M737.44,-77.87C737.57,-68.72 737.79,-53.33 737.98,-40.16"/>
<polygon fill="green" stroke="green" stroke-width="0.35" points="741.48,-39.87 738.13,-29.82 734.49,-39.77 741.48,-39.87"/>
</g>
<!-- &#45;18&#45;&gt;4 -->
<g id="edge87" class="edge">
<title>&#45;18&#45;&gt;4</title>
<path fill="none" stroke="green" stroke-width="0.48" d="M729.63,-77.64C725.25,-73.42 719.43,-68.59 713.33,-65.7 634.46,-28.36 602.18,-59.94 520.33,-29.7 519.46,-29.38 518.58,-29.03 517.71,-28.65"/>
<polygon fill="green" stroke="green" stroke-width="0.48" points="519.14,-25.45 508.64,-24.02 515.95,-31.68 519.14,-25.45"/>
</g>
<!-- &#45;19 -->
<g id="node19" class="node">
<title>&#45;19</title>
<polygon fill="lightgray" stroke="black" points="798.83,-95.91 769.83,-95.91 769.83,-77.91 798.83,-77.91 798.83,-95.91"/>
<text text-anchor="middle" x="784.33" y="-84.71" font-family="Times New Roman,serif" font-size="9.00">&#45;19</text>
</g>
<!-- &#45;19&#45;&gt;0 -->
<g id="edge88" class="edge">
<title>&#45;19&#45;&gt;0</title>
<path fill="none" stroke="green" stroke-width="0.16" d="M775.56,-77.81C771.35,-74.02 766.17,-69.51 761.33,-65.7 744.92,-52.79 725.46,-39.24 711.07,-29.53"/>
<polygon fill="green" stroke="green" stroke-width="0.16" points="712.68,-26.4 702.42,-23.76 708.79,-32.22 712.68,-26.4"/>
</g>
<!-- &#45;19&#45;&gt;1 -->
<g id="edge89" class="edge">
<title>&#45;19&#45;&gt;1</title>
<path fill="none" stroke="green" stroke-width="0.38" d="M776.99,-77.67C772.81,-73.47 767.23,-68.64 761.33,-65.7 690.24,-30.31 663.05,-50.17 586.33,-29.7 580.24,-28.08 573.75,-26.07 567.73,-24.1"/>
<polygon fill="green" stroke="green" stroke-width="0.38" points="568.8,-20.76 558.21,-20.87 566.56,-27.39 568.8,-20.76"/>
</g>
<!-- &#45;19&#45;&gt;2 -->
<g id="edge90" class="edge">
<title>&#45;19&#45;&gt;2</title>
<path fill="none" stroke="red" stroke-width="0.15" d="M776.44,-77.54C772.26,-73.51 766.86,-68.87 761.33,-65.7 739.3,-53.09 671.03,-32.88 634.3,-22.49"/>
<polygon fill="red" stroke="red" stroke-width="0.15" points="634.99,-19.05 624.42,-19.72 633.1,-25.79 634.99,-19.05"/>
</g>
<!-- &#45;19&#45;&gt;3 -->
<g id="edge91" class="edge">
<title>&#45;19&#45;&gt;3</title>
<path fill="none" stroke="green" stroke-width="0.51" d="M779.05,-77.87C772.43,-67.79 760.84,-50.14 751.71,-36.23"/>
<polygon fill="green" stroke="green" stroke-width="0.51" points="754.56,-34.2 746.14,-27.76 748.71,-38.04 754.56,-34.2"/>
</g>
<!-- &#45;19&#45;&gt;4 -->
<g id="edge92" class="edge">
<title>&#45;19&#45;&gt;4</title>
<path fill="none" stroke="red" stroke-width="0.45" d="M777.06,-77.55C772.89,-73.3 767.31,-68.47 761.33,-65.7 663.1,-20.1 622.58,-65.39 520.33,-29.7 519.45,-29.39 518.57,-29.06 517.7,-28.69"/>
<polygon fill="red" stroke="red" stroke-width="0.45" points="519.11,-25.49 508.61,-24.11 515.96,-31.74 519.11,-25.49"/>
</g>
<!-- &#45;20 -->
<g id="node20" class="node">
<title>&#45;20</title>
<polygon fill="lightgray" stroke="black" points="567.83,-174.34 538.83,-174.34 538.83,-156.34 567.83,-156.34 567.83,-174.34"/>
<text text-anchor="middle" x="553.33" y="-163.14" font-family="Times New Roman,serif" font-size="9.00">&#45;20</text>
</g>
<!-- &#45;20&#45;&gt;0 -->
<g id="edge93" class="edge">
<title>&#45;20&#45;&gt;0</title>
<path fill="none" stroke="red" stroke-width="0.18" d="M568,-164.04C653.39,-162.14 1083.92,-150.51 1122.33,-108.12 1134.99,-94.15 1135.06,-79.61 1122.33,-65.7 1060.86,1.43 801.13,-57.09 714.33,-29.7 713.27,-29.37 712.21,-28.98 711.16,-28.56"/>
<polygon fill="red" stroke="red" stroke-width="0.18" points="712.57,-25.35 702.06,-23.98 709.42,-31.6 712.57,-25.35"/>
</g>
<!-- &#45;20&#45;&gt;1 -->
<g id="edge94" class="edge">
<title>&#45;20&#45;&gt;1</title>
<path fill="none" stroke="red" stroke-width="0.56" d="M538.74,-164.67C473.46,-165.81 209.17,-166.72 158.33,-108.12 145.97,-93.88 145.67,-79.68 158.33,-65.7 212.59,-5.77 443.37,-54.46 520.33,-29.7 521.38,-29.36 522.44,-28.97 523.49,-28.54"/>
<polygon fill="red" stroke="red" stroke-width="0.56" points="525.24,-31.58 532.59,-23.95 522.08,-25.33 525.24,-31.58"/>
</g>
<!-- &#45;20&#45;&gt;2 -->
<g id="edge95" class="edge">
<title>&#45;20&#45;&gt;2</title>
<path fill="none" stroke="green" stroke-width="0.2" d="M553.64,-156.3C554.57,-138.99 558.22,-97.22 572.33,-65.7 577.57,-53.99 586.04,-42.49 593.66,-33.49"/>
<polygon fill="green" stroke="green" stroke-width="0.2" points="596.29,-35.81 600.3,-26 591.05,-31.16 596.29,-35.81"/>
</g>
<!-- &#45;20&#45;&gt;3 -->
<g id="edge96" class="edge">
<title>&#45;20&#45;&gt;3</title>
<path fill="none" stroke="green" stroke-width="0.26" d="M567.89,-164.09C654.61,-162.44 1100.56,-151.88 1140.33,-108.12 1153.01,-94.17 1152.81,-79.83 1140.33,-65.7 1115.26,-37.33 847.94,-21.42 763.64,-17.08"/>
<polygon fill="green" stroke="green" stroke-width="0.26" points="763.6,-13.57 753.43,-16.56 763.24,-20.56 763.6,-13.57"/>
</g>
<!-- 43 -->
<g id="node27" class="node">
<title>43</title>
<ellipse fill="white" stroke="black" cx="88.33" cy="-86.91" rx="18.27" ry="18.27"/>
<text text-anchor="middle" x="88.33" y="-84.71" font-family="Times New Roman,serif" font-size="9.00">43</text>
</g>
<!-- &#45;20&#45;&gt;43 -->
<g id="edge97" class="edge">
<title>&#45;20&#45;&gt;43</title>
<path fill="none" stroke="red" stroke-width="0.14" d="M538.59,-164.69C482.35,-165.55 276.49,-164.46 120.33,-108.12 117.33,-107.04 114.33,-105.65 111.42,-104.1"/>
<polygon fill="red" stroke="red" stroke-width="0.14" points="112.98,-100.95 102.61,-98.8 109.37,-106.95 112.98,-100.95"/>
</g>
<!-- 160 -->
<g id="node26" class="node">
<title>160</title>
<ellipse fill="white" stroke="black" cx="1326.33" cy="-86.91" rx="21.43" ry="21.43"/>
<text text-anchor="middle" x="1326.33" y="-84.71" font-family="Times New Roman,serif" font-size="9.00">160</text>
</g>
<!-- 160&#45;&gt;3 -->
<g id="edge104" class="edge">
<title>160&#45;&gt;3</title>
<path fill="none" stroke="green" stroke-width="0.17" d="M1310.32,-72.98C1306,-70.11 1301.18,-67.42 1296.33,-65.7 1195.81,-30.03 857.98,-18.89 763.22,-16.43"/>
<polygon fill="green" stroke="green" stroke-width="0.17" points="763.23,-12.93 753.14,-16.18 763.05,-19.93 763.23,-12.93"/>
</g>
<!-- 43&#45;&gt;4 -->
<g id="edge98" class="edge">
<title>43&#45;&gt;4</title>
<path fill="none" stroke="green" stroke-width="0.34" d="M102.61,-75.04C107.91,-71.51 114.15,-67.94 120.33,-65.7 246.22,-20.09 409.35,-15.48 471.13,-15.52"/>
<polygon fill="green" stroke="green" stroke-width="0.34" points="471.43,-19.02 481.45,-15.57 471.47,-12.02 471.43,-19.02"/>
</g>
<!-- 335 -->
<g id="node28" class="node">
<title>335</title>
<ellipse fill="white" stroke="black" cx="1266.33" cy="-86.91" rx="21.43" ry="21.43"/>
<text text-anchor="middle" x="1266.33" y="-84.71" font-family="Times New Roman,serif" font-size="9.00">335</text>
</g>
<!-- 80&#45;&gt;0 -->
<g id="edge100" class="edge">
<title>80&#45;&gt;0</title>
<path fill="none" stroke="green" stroke-width="0.19" d="M1082.18,-73.85C1078.03,-70.68 1073.24,-67.61 1068.33,-65.7 921,-8.22 864.82,-78.3 714.33,-29.7 713.27,-29.36 712.22,-28.97 711.16,-28.54"/>
<polygon fill="green" stroke="green" stroke-width="0.19" points="712.57,-25.33 702.07,-23.94 709.42,-31.58 712.57,-25.33"/>
</g>
<!-- 123&#45;&gt;1 -->
<g id="edge106" class="edge">
<title>123&#45;&gt;1</title>
<path fill="none" stroke="red" stroke-width="0.24" d="M1244.77,-163.62C1094.62,-158.56 210.16,-127.97 191.33,-108.12 178.35,-94.45 178.74,-79.74 191.33,-65.7 240.42,-10.94 450.43,-52.57 520.33,-29.7 521.21,-29.41 522.09,-29.09 522.97,-28.74"/>
<polygon fill="red" stroke="red" stroke-width="0.24" points="524.68,-31.79 532.08,-24.21 521.57,-25.52 524.68,-31.79"/>
</g>
<!-- 123&#45;&gt;3 -->
<g id="edge102" class="edge">
<title>123&#45;&gt;3</title>
<path fill="none" stroke="green" stroke-width="0.29" stroke-dasharray="1,5" d="M1286.38,-158.3C1308.06,-150.57 1341.5,-134.87 1356.33,-108.12 1365.47,-91.63 1369.11,-79.56 1356.33,-65.7 1315.53,-21.48 874.64,-16.48 763.6,-15.92"/>
<polygon fill="green" stroke="green" stroke-width="0.29" points="763.37,-12.42 753.36,-15.87 763.34,-19.42 763.37,-12.42"/>
</g>
<!-- 123&#45;&gt;160 -->
<g id="edge103" class="edge">
<title>123&#45;&gt;160</title>
<path fill="none" stroke="green" stroke-width="0.26" d="M1279.05,-148.13C1287.25,-137.69 1298.05,-123.93 1307.26,-112.2"/>
<polygon fill="green" stroke="green" stroke-width="0.26" points="1310.2,-114.12 1313.62,-104.1 1304.69,-109.8 1310.2,-114.12"/>
</g>
<!-- 123&#45;&gt;335 -->
<g id="edge105" class="edge">
<title>123&#45;&gt;335</title>
<path fill="none" stroke="red" stroke-width="0.1" d="M1266.33,-143.86C1266.33,-136 1266.33,-126.85 1266.33,-118.26"/>
<polygon fill="red" stroke="red" stroke-width="0.1" points="1269.83,-118.18 1266.33,-108.18 1262.83,-118.18 1269.83,-118.18"/>
</g>
</g>
</svg>
