<?xml version="1.0" encoding="UTF-8" standalone="no"?>
<!DOCTYPE svg PUBLIC "-//W3C//DTD SVG 1.1//EN"
 "http://www.w3.org/Graphics/SVG/1.1/DTD/svg11.dtd">
<!-- Generated by graphviz version 2.49.0 (20210828.1703)
 -->
<!-- Pages: 1 -->
<svg width="1057pt" height="170pt"
 viewBox="0.00 0.00 1056.68 170.12" xmlns="http://www.w3.org/2000/svg" xmlns:xlink="http://www.w3.org/1999/xlink">
<g id="graph0" class="graph" transform="scale(1 1) rotate(0) translate(4 166.12)">
<polygon fill="white" stroke="transparent" points="-4,4 -4,-166.12 1052.68,-166.12 1052.68,4 -4,4"/>
<!-- &#45;1 -->
<g id="node1" class="node">
<title>&#45;1</title>
<polygon fill="lightgray" stroke="black" points="1030.14,-95.91 1006.14,-95.91 1006.14,-77.91 1030.14,-77.91 1030.14,-95.91"/>
<text text-anchor="middle" x="1018.14" y="-84.71" font-family="Times New Roman,serif" font-size="9.00">&#45;1</text>
</g>
<!-- 0 -->
<g id="node21" class="node">
<title>0</title>
<ellipse fill="lightblue" stroke="black" cx="551.14" cy="-14.85" rx="14.7" ry="14.7"/>
<text text-anchor="middle" x="551.14" y="-12.65" font-family="Times New Roman,serif" font-size="9.00">0</text>
</g>
<!-- &#45;1&#45;&gt;0 -->
<g id="edge1" class="edge">
<title>&#45;1&#45;&gt;0</title>
<path fill="none" stroke="green" stroke-width="0.53" d="M1012.06,-77.81C1008.28,-73.43 1003.03,-68.38 997.14,-65.7 826.93,11.54 757.77,-81.32 578.14,-29.7 576.24,-29.15 574.31,-28.47 572.42,-27.7"/>
<polygon fill="green" stroke="green" stroke-width="0.53" points="573.89,-24.53 563.35,-23.39 570.88,-30.85 573.89,-24.53"/>
</g>
<!-- 3 -->
<g id="node24" class="node">
<title>3</title>
<ellipse fill="lightblue" stroke="black" cx="650.14" cy="-14.85" rx="14.7" ry="14.7"/>
<text text-anchor="middle" x="650.14" y="-12.65" font-family="Times New Roman,serif" font-size="9.00">3</text>
</g>
<!-- &#45;1&#45;&gt;3 -->
<g id="edge2" class="edge">
<title>&#45;1&#45;&gt;3</title>
<path fill="none" stroke="green" stroke-width="1.07" d="M1011.64,-77.53C1007.88,-73.28 1002.77,-68.45 997.14,-65.7 940.04,-37.8 745.19,-22.25 675.32,-17.46"/>
<polygon fill="green" stroke="green" stroke-width="1.07" points="675.43,-13.96 665.22,-16.79 674.97,-20.95 675.43,-13.96"/>
</g>
<!-- 4 -->
<g id="node25" class="node">
<title>4</title>
<ellipse fill="lightblue" stroke="black" cx="602.14" cy="-14.85" rx="14.7" ry="14.7"/>
<text text-anchor="middle" x="602.14" y="-12.65" font-family="Times New Roman,serif" font-size="9.00">4</text>
</g>
<!-- &#45;1&#45;&gt;4 -->
<g id="edge3" class="edge">
<title>&#45;1&#45;&gt;4</title>
<path fill="none" stroke="red" stroke-width="0.35" d="M1012.05,-77.84C1008.27,-73.46 1003.02,-68.41 997.14,-65.7 846.66,3.59 783.9,-80.24 626.14,-29.7 625.08,-29.36 624.02,-28.97 622.97,-28.54"/>
<polygon fill="red" stroke="red" stroke-width="0.35" points="624.38,-25.34 613.87,-23.96 621.23,-31.58 624.38,-25.34"/>
</g>
<!-- &#45;2 -->
<g id="node2" class="node">
<title>&#45;2</title>
<polygon fill="lightgray" stroke="black" points="376.14,-95.91 352.14,-95.91 352.14,-77.91 376.14,-77.91 376.14,-95.91"/>
<text text-anchor="middle" x="364.14" y="-84.71" font-family="Times New Roman,serif" font-size="9.00">&#45;2</text>
</g>
<!-- &#45;2&#45;&gt;0 -->
<g id="edge4" class="edge">
<title>&#45;2&#45;&gt;0</title>
<path fill="none" stroke="red" stroke-width="0.19" d="M370.75,-77.76C374.55,-73.58 379.65,-68.75 385.14,-65.7 442.04,-34.07 466.81,-54.2 527.14,-29.7 527.99,-29.35 528.86,-28.98 529.72,-28.58"/>
<polygon fill="red" stroke="red" stroke-width="0.19" points="531.52,-31.59 538.76,-23.86 528.28,-25.39 531.52,-31.59"/>
</g>
<!-- 1 -->
<g id="node22" class="node">
<title>1</title>
<ellipse fill="lightblue" stroke="black" cx="448.14" cy="-14.85" rx="14.7" ry="14.7"/>
<text text-anchor="middle" x="448.14" y="-12.65" font-family="Times New Roman,serif" font-size="9.00">1</text>
</g>
<!-- &#45;2&#45;&gt;1 -->
<g id="edge5" class="edge">
<title>&#45;2&#45;&gt;1</title>
<path fill="none" stroke="green" stroke-width="0.35" d="M372.14,-77.85C375.99,-74.07 380.71,-69.56 385.14,-65.7 399.3,-53.32 416.03,-40.15 428.69,-30.46"/>
<polygon fill="green" stroke="green" stroke-width="0.35" points="430.87,-33.19 436.72,-24.35 426.64,-27.62 430.87,-33.19"/>
</g>
<!-- 2 -->
<g id="node23" class="node">
<title>2</title>
<ellipse fill="lightblue" stroke="black" cx="503.14" cy="-14.85" rx="14.7" ry="14.7"/>
<text text-anchor="middle" x="503.14" y="-12.65" font-family="Times New Roman,serif" font-size="9.00">2</text>
</g>
<!-- &#45;2&#45;&gt;2 -->
<g id="edge6" class="edge">
<title>&#45;2&#45;&gt;2</title>
<path fill="none" stroke="red" stroke-width="0.33" d="M371.32,-77.67C375.12,-73.67 380.05,-69.02 385.14,-65.7 420.15,-42.79 433.69,-46.23 472.14,-29.7 474.88,-28.52 477.75,-27.26 480.59,-26.01"/>
<polygon fill="red" stroke="red" stroke-width="0.33" points="482.19,-29.13 489.9,-21.86 479.34,-22.74 482.19,-29.13"/>
</g>
<!-- &#45;2&#45;&gt;3 -->
<g id="edge7" class="edge">
<title>&#45;2&#45;&gt;3</title>
<path fill="none" stroke="green" stroke-width="0.24" d="M370.64,-77.54C374.4,-73.3 379.51,-68.47 385.14,-65.7 482.31,-17.88 523.89,-65.39 626.14,-29.7 627.01,-29.39 627.89,-29.06 628.77,-28.69"/>
<polygon fill="green" stroke="green" stroke-width="0.24" points="630.5,-31.74 637.86,-24.11 627.35,-25.49 630.5,-31.74"/>
</g>
<!-- &#45;2&#45;&gt;4 -->
<g id="edge8" class="edge">
<title>&#45;2&#45;&gt;4</title>
<path fill="none" stroke="red" stroke-width="0.79" d="M370.68,-77.63C374.46,-73.41 379.56,-68.58 385.14,-65.7 461.5,-26.26 493.84,-57.6 575.14,-29.7 576.81,-29.12 578.52,-28.46 580.21,-27.74"/>
<polygon fill="red" stroke="red" stroke-width="0.79" points="582.06,-30.73 589.56,-23.25 579.03,-24.43 582.06,-30.73"/>
</g>
<!-- &#45;3 -->
<g id="node3" class="node">
<title>&#45;3</title>
<polygon fill="lightgray" stroke="black" points="418.14,-95.91 394.14,-95.91 394.14,-77.91 418.14,-77.91 418.14,-95.91"/>
<text text-anchor="middle" x="406.14" y="-84.71" font-family="Times New Roman,serif" font-size="9.00">&#45;3</text>
</g>
<!-- &#45;3&#45;&gt;0 -->
<g id="edge9" class="edge">
<title>&#45;3&#45;&gt;0</title>
<path fill="none" stroke="red" stroke-width="0.77" d="M413.25,-77.57C417.04,-73.54 421.98,-68.9 427.14,-65.7 467.26,-40.77 484.29,-49.58 527.14,-29.7 527.98,-29.31 528.82,-28.9 529.68,-28.48"/>
<polygon fill="red" stroke="red" stroke-width="0.77" points="531.53,-31.45 538.65,-23.61 528.19,-25.3 531.53,-31.45"/>
</g>
<!-- &#45;3&#45;&gt;1 -->
<g id="edge10" class="edge">
<title>&#45;3&#45;&gt;1</title>
<path fill="none" stroke="green" stroke-width="0.2" stroke-dasharray="1,5" d="M410.95,-77.87C416.91,-67.95 427.26,-50.67 435.53,-36.87"/>
<polygon fill="green" stroke="green" stroke-width="0.2" points="438.71,-38.38 440.85,-28.01 432.7,-34.79 438.71,-38.38"/>
</g>
<!-- &#45;3&#45;&gt;2 -->
<g id="edge11" class="edge">
<title>&#45;3&#45;&gt;2</title>
<path fill="none" stroke="green" stroke-width="0.57" d="M413.99,-77.67C417.8,-73.85 422.55,-69.36 427.14,-65.7 444.6,-51.76 466,-37.99 481.64,-28.47"/>
<polygon fill="green" stroke="green" stroke-width="0.57" points="483.77,-31.27 490.54,-23.12 480.16,-25.27 483.77,-31.27"/>
</g>
<!-- &#45;3&#45;&gt;3 -->
<g id="edge12" class="edge">
<title>&#45;3&#45;&gt;3</title>
<path fill="none" stroke="red" stroke-width="0.43" d="M412.67,-77.61C416.45,-73.39 421.55,-68.56 427.14,-65.7 507.16,-24.78 541.74,-60.62 626.14,-29.7 627,-29.38 627.88,-29.03 628.75,-28.66"/>
<polygon fill="red" stroke="red" stroke-width="0.43" points="630.51,-31.69 637.83,-24.03 627.33,-25.45 630.51,-31.69"/>
</g>
<!-- &#45;3&#45;&gt;4 -->
<g id="edge13" class="edge">
<title>&#45;3&#45;&gt;4</title>
<path fill="none" stroke="green" stroke-width="0.13" d="M412.74,-77.74C416.54,-73.56 421.64,-68.72 427.14,-65.7 486.46,-33.1 511.69,-53.31 575.14,-29.7 576.8,-29.08 578.49,-28.38 580.18,-27.64"/>
<polygon fill="green" stroke="green" stroke-width="0.13" points="582.04,-30.63 589.51,-23.11 578.98,-24.33 582.04,-30.63"/>
</g>
<!-- &#45;4 -->
<g id="node4" class="node">
<title>&#45;4</title>
<polygon fill="lightgray" stroke="black" points="460.14,-95.91 436.14,-95.91 436.14,-77.91 460.14,-77.91 460.14,-95.91"/>
<text text-anchor="middle" x="448.14" y="-84.71" font-family="Times New Roman,serif" font-size="9.00">&#45;4</text>
</g>
<!-- &#45;4&#45;&gt;0 -->
<g id="edge14" class="edge">
<title>&#45;4&#45;&gt;0</title>
<path fill="none" stroke="red" stroke-width="0.4" stroke-dasharray="1,5" d="M458.11,-77.83C462.88,-74.05 468.73,-69.54 474.14,-65.7 492.63,-52.56 514.38,-38.61 530.04,-28.82"/>
<polygon fill="red" stroke="red" stroke-width="0.4" points="532.27,-31.55 538.92,-23.3 528.58,-25.61 532.27,-31.55"/>
</g>
<!-- &#45;4&#45;&gt;1 -->
<g id="edge15" class="edge">
<title>&#45;4&#45;&gt;1</title>
<path fill="none" stroke="green" stroke-width="0.25" d="M448.14,-77.87C448.14,-68.72 448.14,-53.33 448.14,-40.16"/>
<polygon fill="green" stroke="green" stroke-width="0.25" points="451.64,-39.82 448.14,-29.82 444.64,-39.82 451.64,-39.82"/>
</g>
<!-- &#45;4&#45;&gt;2 -->
<g id="edge16" class="edge">
<title>&#45;4&#45;&gt;2</title>
<path fill="none" stroke="green" stroke-width="0.2" d="M454.44,-77.87C462.58,-67.52 476.98,-49.17 488.02,-35.11"/>
<polygon fill="green" stroke="green" stroke-width="0.2" points="490.95,-37.04 494.37,-27.01 485.44,-32.72 490.95,-37.04"/>
</g>
<!-- &#45;4&#45;&gt;3 -->
<g id="edge17" class="edge">
<title>&#45;4&#45;&gt;3</title>
<path fill="none" stroke="green" stroke-width="0.48" d="M460.3,-81.6C472.19,-77.42 490.85,-70.95 507.14,-65.7 559.72,-48.74 575.43,-51.65 626.14,-29.7 626.98,-29.33 627.84,-28.94 628.7,-28.53"/>
<polygon fill="green" stroke="green" stroke-width="0.48" points="630.53,-31.53 637.71,-23.74 627.24,-25.35 630.53,-31.53"/>
</g>
<!-- &#45;4&#45;&gt;4 -->
<g id="edge18" class="edge">
<title>&#45;4&#45;&gt;4</title>
<path fill="none" stroke="green" stroke-width="0.18" d="M460.15,-80.87C482.81,-71.29 533.36,-49.64 575.14,-29.7 576.74,-28.93 578.38,-28.13 580.04,-27.31"/>
<polygon fill="green" stroke="green" stroke-width="0.18" points="581.96,-30.26 589.3,-22.62 578.8,-24.02 581.96,-30.26"/>
</g>
<!-- &#45;5 -->
<g id="node5" class="node">
<title>&#45;5</title>
<polygon fill="lightgray" stroke="black" points="540.14,-95.91 516.14,-95.91 516.14,-77.91 540.14,-77.91 540.14,-95.91"/>
<text text-anchor="middle" x="528.14" y="-84.71" font-family="Times New Roman,serif" font-size="9.00">&#45;5</text>
</g>
<!-- &#45;5&#45;&gt;0 -->
<g id="edge19" class="edge">
<title>&#45;5&#45;&gt;0</title>
<path fill="none" stroke="red" stroke-width="0.85" d="M530.77,-77.87C533.88,-68.42 539.16,-52.32 543.57,-38.89"/>
<polygon fill="red" stroke="red" stroke-width="0.85" points="546.93,-39.89 546.72,-29.29 540.28,-37.7 546.93,-39.89"/>
</g>
<!-- &#45;5&#45;&gt;1 -->
<g id="edge20" class="edge">
<title>&#45;5&#45;&gt;1</title>
<path fill="none" stroke="red" stroke-width="0.12" d="M518.96,-77.87C506.31,-66.79 483.22,-46.57 466.84,-32.23"/>
<polygon fill="red" stroke="red" stroke-width="0.12" points="468.81,-29.31 458.98,-25.35 464.2,-34.57 468.81,-29.31"/>
</g>
<!-- &#45;5&#45;&gt;2 -->
<g id="edge21" class="edge">
<title>&#45;5&#45;&gt;2</title>
<path fill="none" stroke="red" stroke-width="0.78" stroke-dasharray="1,5" d="M525.27,-77.87C521.87,-68.37 516.08,-52.12 511.27,-38.64"/>
<polygon fill="red" stroke="red" stroke-width="0.78" points="514.5,-37.27 507.84,-29.03 507.9,-39.63 514.5,-37.27"/>
</g>
<!-- &#45;5&#45;&gt;3 -->
<g id="edge22" class="edge">
<title>&#45;5&#45;&gt;3</title>
<path fill="none" stroke="green" stroke-width="0.12" d="M535.38,-77.77C539.2,-73.79 544.13,-69.14 549.14,-65.7 580.28,-44.31 592.63,-47.16 626.14,-29.7 626.96,-29.27 627.79,-28.83 628.63,-28.38"/>
<polygon fill="green" stroke="green" stroke-width="0.12" points="630.53,-31.33 637.54,-23.39 627.11,-25.22 630.53,-31.33"/>
</g>
<!-- &#45;5&#45;&gt;4 -->
<g id="edge23" class="edge">
<title>&#45;5&#45;&gt;4</title>
<path fill="none" stroke="green" stroke-width="0.16" d="M536.7,-77.63C540.5,-73.96 545.03,-69.61 549.14,-65.7 560.69,-54.71 573.74,-42.43 584,-32.81"/>
<polygon fill="green" stroke="green" stroke-width="0.16" points="586.64,-35.13 591.54,-25.74 581.85,-30.03 586.64,-35.13"/>
</g>
<!-- &#45;6 -->
<g id="node6" class="node">
<title>&#45;6</title>
<polygon fill="lightgray" stroke="black" points="582.14,-95.91 558.14,-95.91 558.14,-77.91 582.14,-77.91 582.14,-95.91"/>
<text text-anchor="middle" x="570.14" y="-84.71" font-family="Times New Roman,serif" font-size="9.00">&#45;6</text>
</g>
<!-- &#45;6&#45;&gt;0 -->
<g id="edge24" class="edge">
<title>&#45;6&#45;&gt;0</title>
<path fill="none" stroke="green" stroke-width="0.46" d="M567.96,-77.87C565.42,-68.52 561.11,-52.63 557.49,-39.28"/>
<polygon fill="green" stroke="green" stroke-width="0.46" points="560.78,-38.03 554.78,-29.29 554.02,-39.86 560.78,-38.03"/>
</g>
<!-- &#45;6&#45;&gt;1 -->
<g id="edge25" class="edge">
<title>&#45;6&#45;&gt;1</title>
<path fill="none" stroke="red" stroke-width="0.47" stroke-dasharray="1,5" d="M562.86,-77.81C559.03,-73.85 554.1,-69.19 549.14,-65.7 535.65,-56.22 496.11,-37.6 470.69,-26"/>
<polygon fill="red" stroke="red" stroke-width="0.47" points="471.96,-22.73 461.41,-21.78 469.07,-29.1 471.96,-22.73"/>
</g>
<!-- &#45;6&#45;&gt;2 -->
<g id="edge26" class="edge">
<title>&#45;6&#45;&gt;2</title>
<path fill="none" stroke="green" stroke-width="0.37" d="M562.45,-77.87C552.12,-67.08 533.5,-47.6 519.87,-33.35"/>
<polygon fill="green" stroke="green" stroke-width="0.37" points="522.33,-30.86 512.89,-26.05 517.27,-35.7 522.33,-30.86"/>
</g>
<!-- &#45;6&#45;&gt;3 -->
<g id="edge27" class="edge">
<title>&#45;6&#45;&gt;3</title>
<path fill="none" stroke="red" stroke-width="0.2" d="M578.6,-77.52C582.38,-73.84 586.93,-69.49 591.14,-65.7 604.28,-53.85 619.55,-40.97 631.26,-31.27"/>
<polygon fill="red" stroke="red" stroke-width="0.2" points="633.59,-33.89 639.08,-24.83 629.14,-28.48 633.59,-33.89"/>
</g>
<!-- &#45;6&#45;&gt;4 -->
<g id="edge28" class="edge">
<title>&#45;6&#45;&gt;4</title>
<path fill="none" stroke="red" stroke-width="0.44" d="M573.81,-77.87C578.22,-68.21 585.8,-51.6 592.02,-38"/>
<polygon fill="red" stroke="red" stroke-width="0.44" points="595.26,-39.32 596.23,-28.77 588.89,-36.42 595.26,-39.32"/>
</g>
<!-- &#45;7 -->
<g id="node7" class="node">
<title>&#45;7</title>
<polygon fill="lightgray" stroke="black" points="624.14,-95.91 600.14,-95.91 600.14,-77.91 624.14,-77.91 624.14,-95.91"/>
<text text-anchor="middle" x="612.14" y="-84.71" font-family="Times New Roman,serif" font-size="9.00">&#45;7</text>
</g>
<!-- &#45;7&#45;&gt;0 -->
<g id="edge29" class="edge">
<title>&#45;7&#45;&gt;0</title>
<path fill="none" stroke="red" stroke-width="0.17" d="M605.14,-77.87C595.93,-67.3 579.47,-48.39 567.13,-34.22"/>
<polygon fill="red" stroke="red" stroke-width="0.17" points="569.64,-31.77 560.43,-26.53 564.36,-36.37 569.64,-31.77"/>
</g>
<!-- &#45;7&#45;&gt;1 -->
<g id="edge30" class="edge">
<title>&#45;7&#45;&gt;1</title>
<path fill="none" stroke="red" stroke-width="0.18" d="M605.44,-77.9C601.62,-73.76 596.52,-68.92 591.14,-65.7 546.25,-38.88 527.97,-48.39 479.14,-29.7 476.35,-28.63 473.45,-27.45 470.6,-26.23"/>
<polygon fill="red" stroke="red" stroke-width="0.18" points="471.84,-22.95 461.28,-22.1 469,-29.35 471.84,-22.95"/>
</g>
<!-- &#45;7&#45;&gt;2 -->
<g id="edge31" class="edge">
<title>&#45;7&#45;&gt;2</title>
<path fill="none" stroke="red" stroke-width="0.66" d="M604.39,-77.53C600.6,-73.68 595.85,-69.2 591.14,-65.7 564.95,-46.23 555.49,-45.85 527.14,-29.7 526.33,-29.24 525.51,-28.77 524.68,-28.3"/>
<polygon fill="red" stroke="red" stroke-width="0.66" points="526.24,-25.16 515.82,-23.21 522.75,-31.22 526.24,-25.16"/>
</g>
<!-- &#45;7&#45;&gt;3 -->
<g id="edge32" class="edge">
<title>&#45;7&#45;&gt;3</title>
<path fill="none" stroke="red" stroke-width="0.62" d="M616.49,-77.87C621.85,-68 631.14,-50.88 638.6,-37.12"/>
<polygon fill="red" stroke="red" stroke-width="0.62" points="641.71,-38.72 643.4,-28.26 635.56,-35.38 641.71,-38.72"/>
</g>
<!-- &#45;7&#45;&gt;4 -->
<g id="edge33" class="edge">
<title>&#45;7&#45;&gt;4</title>
<path fill="none" stroke="red" stroke-width="0.33" d="M610.99,-77.87C609.67,-68.63 607.44,-53.02 605.55,-39.77"/>
<polygon fill="red" stroke="red" stroke-width="0.33" points="609.01,-39.22 604.13,-29.82 602.08,-40.21 609.01,-39.22"/>
</g>
<!-- &#45;8 -->
<g id="node8" class="node">
<title>&#45;8</title>
<polygon fill="lightgray" stroke="black" points="666.14,-95.91 642.14,-95.91 642.14,-77.91 666.14,-77.91 666.14,-95.91"/>
<text text-anchor="middle" x="654.14" y="-84.71" font-family="Times New Roman,serif" font-size="9.00">&#45;8</text>
</g>
<!-- &#45;8&#45;&gt;0 -->
<g id="edge34" class="edge">
<title>&#45;8&#45;&gt;0</title>
<path fill="none" stroke="red" stroke-width="0.14" d="M646.34,-77.6C642.53,-73.77 637.79,-69.28 633.14,-65.7 613.94,-50.91 590.08,-36.84 573.06,-27.44"/>
<polygon fill="red" stroke="red" stroke-width="0.14" points="574.37,-24.17 563.92,-22.47 571.03,-30.32 574.37,-24.17"/>
</g>
<!-- &#45;8&#45;&gt;1 -->
<g id="edge35" class="edge">
<title>&#45;8&#45;&gt;1</title>
<path fill="none" stroke="red" stroke-width="0.76" d="M647.54,-77.72C643.75,-73.53 638.65,-68.7 633.14,-65.7 571.38,-32.12 545.75,-52.14 479.14,-29.7 476.31,-28.75 473.39,-27.63 470.52,-26.45"/>
<polygon fill="red" stroke="red" stroke-width="0.76" points="471.75,-23.17 461.19,-22.35 468.93,-29.58 471.75,-23.17"/>
</g>
<!-- &#45;8&#45;&gt;2 -->
<g id="edge36" class="edge">
<title>&#45;8&#45;&gt;2</title>
<path fill="none" stroke="green" stroke-width="0.22" d="M647.04,-77.53C643.26,-73.49 638.32,-68.86 633.14,-65.7 590.64,-39.83 572.45,-50.23 527.14,-29.7 526.29,-29.32 525.44,-28.91 524.58,-28.49"/>
<polygon fill="green" stroke="green" stroke-width="0.22" points="526.06,-25.31 515.59,-23.66 522.74,-31.48 526.06,-25.31"/>
</g>
<!-- &#45;8&#45;&gt;3 -->
<g id="edge37" class="edge">
<title>&#45;8&#45;&gt;3</title>
<path fill="none" stroke="green" stroke-width="0.29" d="M653.68,-77.87C653.15,-68.72 652.27,-53.33 651.52,-40.16"/>
<polygon fill="green" stroke="green" stroke-width="0.29" points="655,-39.6 650.93,-29.82 648.01,-40 655,-39.6"/>
</g>
<!-- &#45;8&#45;&gt;4 -->
<g id="edge38" class="edge">
<title>&#45;8&#45;&gt;4</title>
<path fill="none" stroke="green" stroke-width="0.14" d="M648.17,-77.87C640.57,-67.64 627.18,-49.59 616.79,-35.59"/>
<polygon fill="green" stroke="green" stroke-width="0.14" points="619.56,-33.45 610.79,-27.51 613.94,-37.62 619.56,-33.45"/>
</g>
<!-- &#45;9 -->
<g id="node9" class="node">
<title>&#45;9</title>
<polygon fill="lightgray" stroke="black" points="107.14,-95.91 83.14,-95.91 83.14,-77.91 107.14,-77.91 107.14,-95.91"/>
<text text-anchor="middle" x="95.14" y="-84.71" font-family="Times New Roman,serif" font-size="9.00">&#45;9</text>
</g>
<!-- &#45;9&#45;&gt;0 -->
<g id="edge39" class="edge">
<title>&#45;9&#45;&gt;0</title>
<path fill="none" stroke="green" stroke-width="0.33" d="M107.31,-80.89C119.28,-76.18 138.15,-69.33 155.14,-65.7 317.57,-30.96 368.94,-80.36 527.14,-29.7 528.19,-29.36 529.25,-28.97 530.3,-28.54"/>
<polygon fill="green" stroke="green" stroke-width="0.33" points="532.04,-31.59 539.4,-23.96 528.89,-25.34 532.04,-31.59"/>
</g>
<!-- &#45;9&#45;&gt;1 -->
<g id="edge40" class="edge">
<title>&#45;9&#45;&gt;1</title>
<path fill="none" stroke="red" stroke-width="0.42" d="M103.55,-77.57C108.32,-73.33 114.62,-68.5 121.14,-65.7 226.48,-20.4 366.44,-15.44 422.92,-15.45"/>
<polygon fill="red" stroke="red" stroke-width="0.42" points="423.05,-18.95 433.07,-15.51 423.09,-11.95 423.05,-18.95"/>
</g>
<!-- &#45;9&#45;&gt;2 -->
<g id="edge41" class="edge">
<title>&#45;9&#45;&gt;2</title>
<path fill="none" stroke="red" stroke-width="0.8" stroke-dasharray="1,5" d="M103.04,-77.85C107.84,-73.48 114.34,-68.42 121.14,-65.7 266.68,-7.31 320.63,-70.19 472.14,-29.7 475.02,-28.93 477.97,-27.92 480.86,-26.8"/>
<polygon fill="red" stroke="red" stroke-width="0.8" points="482.43,-29.94 490.2,-22.74 479.63,-23.52 482.43,-29.94"/>
</g>
<!-- &#45;10 -->
<g id="node10" class="node">
<title>&#45;10</title>
<polygon fill="lightgray" stroke="black" points="713.64,-95.91 684.64,-95.91 684.64,-77.91 713.64,-77.91 713.64,-95.91"/>
<text text-anchor="middle" x="699.14" y="-84.71" font-family="Times New Roman,serif" font-size="9.00">&#45;10</text>
</g>
<!-- &#45;10&#45;&gt;0 -->
<g id="edge42" class="edge">
<title>&#45;10&#45;&gt;0</title>
<path fill="none" stroke="red" stroke-width="0.14" d="M690.79,-77.65C686.41,-73.64 680.78,-68.99 675.14,-65.7 635.41,-42.54 620.22,-48.22 578.14,-29.7 576.51,-28.98 574.85,-28.22 573.18,-27.42"/>
<polygon fill="red" stroke="red" stroke-width="0.14" points="574.4,-24.12 563.89,-22.79 571.28,-30.39 574.4,-24.12"/>
</g>
<!-- &#45;10&#45;&gt;1 -->
<g id="edge43" class="edge">
<title>&#45;10&#45;&gt;1</title>
<path fill="none" stroke="green" stroke-width="0.23" stroke-dasharray="1,5" d="M691.45,-77.63C687.07,-73.41 681.24,-68.58 675.14,-65.7 595.03,-27.91 563.72,-55.95 479.14,-29.7 476.28,-28.81 473.35,-27.74 470.47,-26.58"/>
<polygon fill="green" stroke="green" stroke-width="0.23" points="471.71,-23.3 461.14,-22.49 468.9,-29.71 471.71,-23.3"/>
</g>
<!-- &#45;10&#45;&gt;2 -->
<g id="edge44" class="edge">
<title>&#45;10&#45;&gt;2</title>
<path fill="none" stroke="red" stroke-width="0.11" d="M691.38,-77.77C686.98,-73.59 681.16,-68.75 675.14,-65.7 614.76,-35.08 589.98,-54.87 527.14,-29.7 526.28,-29.35 525.41,-28.98 524.54,-28.59"/>
<polygon fill="red" stroke="red" stroke-width="0.11" points="525.99,-25.4 515.5,-23.88 522.75,-31.6 525.99,-25.4"/>
</g>
<!-- &#45;10&#45;&gt;3 -->
<g id="edge45" class="edge">
<title>&#45;10&#45;&gt;3</title>
<path fill="none" stroke="green" stroke-width="0.21" d="M693.51,-77.87C686.42,-67.73 673.97,-49.93 664.22,-35.99"/>
<polygon fill="green" stroke="green" stroke-width="0.21" points="666.89,-33.7 658.29,-27.51 661.15,-37.71 666.89,-33.7"/>
</g>
<!-- &#45;10&#45;&gt;4 -->
<g id="edge46" class="edge">
<title>&#45;10&#45;&gt;4</title>
<path fill="none" stroke="red" stroke-width="0.11" d="M689.97,-77.82C685.57,-74.03 680.17,-69.52 675.14,-65.7 657.93,-52.63 637.57,-38.86 622.73,-29.11"/>
<polygon fill="red" stroke="red" stroke-width="0.11" points="624.57,-26.13 614.28,-23.6 620.75,-32 624.57,-26.13"/>
</g>
<!-- &#45;11 -->
<g id="node11" class="node">
<title>&#45;11</title>
<polygon fill="lightgray" stroke="black" points="760.64,-95.91 731.64,-95.91 731.64,-77.91 760.64,-77.91 760.64,-95.91"/>
<text text-anchor="middle" x="746.14" y="-84.71" font-family="Times New Roman,serif" font-size="9.00">&#45;11</text>
</g>
<!-- &#45;11&#45;&gt;0 -->
<g id="edge47" class="edge">
<title>&#45;11&#45;&gt;0</title>
<path fill="none" stroke="green" stroke-width="0.29" d="M738.75,-77.77C734.55,-73.59 728.98,-68.76 723.14,-65.7 664.3,-34.91 640.31,-53.01 578.14,-29.7 576.47,-29.08 574.78,-28.38 573.1,-27.63"/>
<polygon fill="green" stroke="green" stroke-width="0.29" points="574.29,-24.32 563.77,-23.09 571.23,-30.62 574.29,-24.32"/>
</g>
<!-- &#45;11&#45;&gt;1 -->
<g id="edge48" class="edge">
<title>&#45;11&#45;&gt;1</title>
<path fill="none" stroke="red" stroke-width="0.14" d="M738.87,-77.54C734.7,-73.3 729.12,-68.47 723.14,-65.7 623.67,-19.63 584.38,-60.34 479.14,-29.7 476.27,-28.86 473.33,-27.82 470.45,-26.68"/>
<polygon fill="red" stroke="red" stroke-width="0.14" points="471.67,-23.39 461.11,-22.6 468.87,-29.81 471.67,-23.39"/>
</g>
<!-- &#45;11&#45;&gt;2 -->
<g id="edge49" class="edge">
<title>&#45;11&#45;&gt;2</title>
<path fill="none" stroke="red" stroke-width="0.18" d="M738.83,-77.62C734.65,-73.41 729.07,-68.57 723.14,-65.7 643.44,-27.07 610.26,-60.28 527.14,-29.7 526.27,-29.38 525.39,-29.03 524.52,-28.65"/>
<polygon fill="red" stroke="red" stroke-width="0.18" points="525.94,-25.45 515.44,-24.03 522.76,-31.69 525.94,-25.45"/>
</g>
<!-- &#45;11&#45;&gt;3 -->
<g id="edge50" class="edge">
<title>&#45;11&#45;&gt;3</title>
<path fill="none" stroke="green" stroke-width="0.62" d="M737.39,-77.78C733.19,-73.98 728.01,-69.48 723.14,-65.7 706.07,-52.45 685.7,-38.7 670.81,-29"/>
<polygon fill="green" stroke="green" stroke-width="0.62" points="672.64,-26.01 662.34,-23.53 668.84,-31.89 672.64,-26.01"/>
</g>
<!-- &#45;11&#45;&gt;4 -->
<g id="edge51" class="edge">
<title>&#45;11&#45;&gt;4</title>
<path fill="none" stroke="red" stroke-width="0.53" stroke-dasharray="1,5" d="M738.2,-77.63C734.01,-73.61 728.61,-68.97 723.14,-65.7 683.65,-42.13 667.75,-49.26 626.14,-29.7 625.3,-29.3 624.45,-28.89 623.6,-28.46"/>
<polygon fill="red" stroke="red" stroke-width="0.53" points="625.08,-25.29 614.63,-23.59 621.74,-31.44 625.08,-25.29"/>
</g>
<!-- &#45;12 -->
<g id="node12" class="node">
<title>&#45;12</title>
<polygon fill="lightgray" stroke="black" points="325.64,-162.12 296.64,-162.12 296.64,-144.12 325.64,-144.12 325.64,-162.12"/>
<text text-anchor="middle" x="311.14" y="-150.92" font-family="Times New Roman,serif" font-size="9.00">&#45;12</text>
</g>
<!-- &#45;12&#45;&gt;0 -->
<g id="edge52" class="edge">
<title>&#45;12&#45;&gt;0</title>
<path fill="none" stroke="red" stroke-width="0.83" d="M325.75,-150.83C355.01,-147.66 422.03,-137.52 469.14,-108.12 470.17,-107.48 511.25,-61.03 534.86,-34.29"/>
<polygon fill="red" stroke="red" stroke-width="0.83" points="537.57,-36.51 541.56,-26.7 532.32,-31.88 537.57,-36.51"/>
</g>
<!-- &#45;12&#45;&gt;1 -->
<g id="edge53" class="edge">
<title>&#45;12&#45;&gt;1</title>
<path fill="none" stroke="red" stroke-width="0.22" stroke-dasharray="1,5" d="M296.53,-152.57C226.67,-154.29 -66.64,-156.28 14.14,-65.7 41.54,-34.96 334.88,-20.5 423.15,-16.82"/>
<polygon fill="red" stroke="red" stroke-width="0.22" points="423.46,-20.31 433.31,-16.41 423.18,-13.31 423.46,-20.31"/>
</g>
<!-- &#45;12&#45;&gt;2 -->
<g id="edge54" class="edge">
<title>&#45;12&#45;&gt;2</title>
<path fill="none" stroke="green" stroke-width="0.59" stroke-dasharray="1,5" d="M296.58,-150.25C261.23,-145.36 172.46,-131.01 155.14,-108.12 143.75,-93.09 142.58,-79.76 155.14,-65.7 202.35,-12.81 403.74,-48.38 472.14,-29.7 475.01,-28.91 477.97,-27.9 480.85,-26.77"/>
<polygon fill="green" stroke="green" stroke-width="0.59" points="482.42,-29.9 490.19,-22.7 479.62,-23.49 482.42,-29.9"/>
</g>
<!-- &#45;12&#45;&gt;3 -->
<g id="edge55" class="edge">
<title>&#45;12&#45;&gt;3</title>
<path fill="none" stroke="green" stroke-width="0.75" d="M325.78,-151.8C426.52,-149.52 1013.75,-135.09 1039.14,-108.12 1052.06,-94.4 1051.59,-79.85 1039.14,-65.7 1015,-38.27 757.89,-21.79 675.43,-17.18"/>
<polygon fill="green" stroke="green" stroke-width="0.75" points="675.38,-13.68 665.21,-16.62 675,-20.67 675.38,-13.68"/>
</g>
<!-- &#45;12&#45;&gt;4 -->
<g id="edge56" class="edge">
<title>&#45;12&#45;&gt;4</title>
<path fill="none" stroke="green" stroke-width="0.45" stroke-dasharray="1,5" d="M325.72,-152.21C413.59,-152.58 870.03,-152.36 911.14,-108.12 923.97,-94.31 923.6,-79.84 911.14,-65.7 868.92,-17.81 686.64,-50.05 626.14,-29.7 625.26,-29.4 624.38,-29.07 623.5,-28.72"/>
<polygon fill="green" stroke="green" stroke-width="0.45" points="624.9,-25.51 614.39,-24.17 621.77,-31.77 624.9,-25.51"/>
</g>
<!-- 320 -->
<g id="node26" class="node">
<title>320</title>
<ellipse fill="white" stroke="black" cx="44.14" cy="-86.91" rx="21.43" ry="21.43"/>
<text text-anchor="middle" x="44.14" y="-84.71" font-family="Times New Roman,serif" font-size="9.00">320</text>
</g>
<!-- &#45;12&#45;&gt;320 -->
<g id="edge95" class="edge">
<title>&#45;12&#45;&gt;320</title>
<path fill="none" stroke="green" stroke-width="0.22" stroke-dasharray="1,5" d="M296.4,-151.46C258.26,-149.32 153.73,-140.68 74.14,-108.12 72.54,-107.47 70.94,-106.72 69.35,-105.91"/>
<polygon fill="green" stroke="green" stroke-width="0.22" points="70.97,-102.81 60.58,-100.74 67.42,-108.84 70.97,-102.81"/>
</g>
<!-- &#45;13 -->
<g id="node13" class="node">
<title>&#45;13</title>
<polygon fill="lightgray" stroke="black" points="807.64,-95.91 778.64,-95.91 778.64,-77.91 807.64,-77.91 807.64,-95.91"/>
<text text-anchor="middle" x="793.14" y="-84.71" font-family="Times New Roman,serif" font-size="9.00">&#45;13</text>
</g>
<!-- &#45;13&#45;&gt;0 -->
<g id="edge57" class="edge">
<title>&#45;13&#45;&gt;0</title>
<path fill="none" stroke="green" stroke-width="0.17" d="M785.82,-77.63C781.64,-73.42 776.06,-68.58 770.14,-65.7 692.08,-27.69 660.28,-57.8 578.14,-29.7 576.46,-29.12 574.75,-28.46 573.06,-27.74"/>
<polygon fill="green" stroke="green" stroke-width="0.17" points="574.24,-24.43 563.71,-23.25 571.21,-30.74 574.24,-24.43"/>
</g>
<!-- &#45;13&#45;&gt;1 -->
<g id="edge58" class="edge">
<title>&#45;13&#45;&gt;1</title>
<path fill="none" stroke="red" stroke-width="0.22" d="M786.29,-77.9C782.09,-73.54 776.34,-68.49 770.14,-65.7 651.25,-12.32 604.68,-64.66 479.14,-29.7 476.26,-28.9 473.31,-27.87 470.43,-26.74"/>
<polygon fill="red" stroke="red" stroke-width="0.22" points="471.65,-23.46 461.09,-22.67 468.86,-29.88 471.65,-23.46"/>
</g>
<!-- &#45;13&#45;&gt;2 -->
<g id="edge59" class="edge">
<title>&#45;13&#45;&gt;2</title>
<path fill="none" stroke="red" stroke-width="0.49" d="M785.87,-77.54C781.7,-73.3 776.12,-68.47 770.14,-65.7 671.08,-19.78 630.24,-65.62 527.14,-29.7 526.26,-29.39 525.38,-29.06 524.5,-28.69"/>
<polygon fill="red" stroke="red" stroke-width="0.49" points="525.92,-25.49 515.41,-24.11 522.77,-31.74 525.92,-25.49"/>
</g>
<!-- &#45;13&#45;&gt;3 -->
<g id="edge60" class="edge">
<title>&#45;13&#45;&gt;3</title>
<path fill="none" stroke="red" stroke-width="0.28" d="M785.14,-77.72C780.94,-73.72 775.55,-69.07 770.14,-65.7 738.98,-46.28 698.94,-31.4 673.9,-23.14"/>
<polygon fill="red" stroke="red" stroke-width="0.28" points="674.75,-19.74 664.16,-20.01 672.61,-26.4 674.75,-19.74"/>
</g>
<!-- &#45;13&#45;&gt;4 -->
<g id="edge61" class="edge">
<title>&#45;13&#45;&gt;4</title>
<path fill="none" stroke="red" stroke-width="0.24" d="M785.75,-77.77C781.55,-73.6 775.97,-68.76 770.14,-65.7 711.71,-35.06 687.3,-54.42 626.14,-29.7 625.28,-29.35 624.41,-28.98 623.55,-28.58"/>
<polygon fill="red" stroke="red" stroke-width="0.24" points="624.99,-25.39 614.51,-23.86 621.75,-31.6 624.99,-25.39"/>
</g>
<!-- &#45;14 -->
<g id="node14" class="node">
<title>&#45;14</title>
<polygon fill="lightgray" stroke="black" points="854.64,-95.91 825.64,-95.91 825.64,-77.91 854.64,-77.91 854.64,-95.91"/>
<text text-anchor="middle" x="840.14" y="-84.71" font-family="Times New Roman,serif" font-size="9.00">&#45;14</text>
</g>
<!-- &#45;14&#45;&gt;0 -->
<g id="edge62" class="edge">
<title>&#45;14&#45;&gt;0</title>
<path fill="none" stroke="red" stroke-width="0.1" d="M832.86,-77.55C828.7,-73.31 823.11,-68.48 817.14,-65.7 719.73,-20.41 680.38,-62.64 578.14,-29.7 576.25,-29.09 574.35,-28.37 572.46,-27.57"/>
<polygon fill="red" stroke="red" stroke-width="0.1" points="573.94,-24.4 563.41,-23.21 570.9,-30.7 573.94,-24.4"/>
</g>
<!-- &#45;14&#45;&gt;1 -->
<g id="edge63" class="edge">
<title>&#45;14&#45;&gt;1</title>
<path fill="none" stroke="green" stroke-width="0.1" d="M833.31,-77.86C829.12,-73.49 823.37,-68.43 817.14,-65.7 678.8,-4.99 625.01,-68.99 479.14,-29.7 476.25,-28.92 473.3,-27.91 470.41,-26.79"/>
<polygon fill="green" stroke="green" stroke-width="0.1" points="471.64,-23.51 461.07,-22.72 468.85,-29.92 471.64,-23.51"/>
</g>
<!-- &#45;14&#45;&gt;2 -->
<g id="edge64" class="edge">
<title>&#45;14&#45;&gt;2</title>
<path fill="none" stroke="red" stroke-width="0.1" stroke-dasharray="1,5" d="M833.29,-77.9C829.09,-73.54 823.34,-68.49 817.14,-65.7 698.66,-12.47 650.28,-70.98 527.14,-29.7 526.26,-29.4 525.38,-29.08 524.5,-28.72"/>
<polygon fill="red" stroke="red" stroke-width="0.1" points="525.9,-25.51 515.39,-24.18 522.78,-31.77 525.9,-25.51"/>
</g>
<!-- &#45;14&#45;&gt;3 -->
<g id="edge65" class="edge">
<title>&#45;14&#45;&gt;3</title>
<path fill="none" stroke="red" stroke-width="0.22" d="M832.7,-77.88C828.48,-73.73 822.9,-68.89 817.14,-65.7 770.32,-39.78 708.48,-25.88 674.72,-19.77"/>
<polygon fill="red" stroke="red" stroke-width="0.22" points="675.26,-16.31 664.81,-18.05 674.06,-23.2 675.26,-16.31"/>
</g>
<!-- &#45;14&#45;&gt;4 -->
<g id="edge66" class="edge">
<title>&#45;14&#45;&gt;4</title>
<path fill="none" stroke="green" stroke-width="0.77" d="M832.82,-77.64C828.64,-73.42 823.06,-68.59 817.14,-65.7 739.49,-27.84 707.14,-59.71 626.14,-29.7 625.27,-29.38 624.39,-29.03 623.52,-28.65"/>
<polygon fill="green" stroke="green" stroke-width="0.77" points="624.95,-25.45 614.45,-24.01 621.76,-31.68 624.95,-25.45"/>
</g>
<!-- &#45;15 -->
<g id="node15" class="node">
<title>&#45;15</title>
<polygon fill="lightgray" stroke="black" points="901.64,-95.91 872.64,-95.91 872.64,-77.91 901.64,-77.91 901.64,-95.91"/>
<text text-anchor="middle" x="887.14" y="-84.71" font-family="Times New Roman,serif" font-size="9.00">&#45;15</text>
</g>
<!-- &#45;15&#45;&gt;0 -->
<g id="edge67" class="edge">
<title>&#45;15&#45;&gt;0</title>
<path fill="none" stroke="green" stroke-width="0.14" d="M880.29,-77.9C876.09,-73.55 870.34,-68.49 864.14,-65.7 747.32,-13.1 700.54,-67.51 578.14,-29.7 576.25,-29.12 574.33,-28.41 572.44,-27.62"/>
<polygon fill="green" stroke="green" stroke-width="0.14" points="573.92,-24.45 563.39,-23.28 570.89,-30.76 573.92,-24.45"/>
</g>
<!-- &#45;15&#45;&gt;1 -->
<g id="edge68" class="edge">
<title>&#45;15&#45;&gt;1</title>
<path fill="none" stroke="red" stroke-width="0.24" d="M880.32,-77.83C876.13,-73.45 870.38,-68.39 864.14,-65.7 706.32,2.35 645.36,-73.33 479.14,-29.7 476.25,-28.94 473.29,-27.94 470.4,-26.83"/>
<polygon fill="red" stroke="red" stroke-width="0.24" points="471.63,-23.54 461.06,-22.76 468.84,-29.96 471.63,-23.54"/>
</g>
<!-- &#45;15&#45;&gt;2 -->
<g id="edge69" class="edge">
<title>&#45;15&#45;&gt;2</title>
<path fill="none" stroke="green" stroke-width="0.16" d="M880.31,-77.86C876.12,-73.49 870.37,-68.43 864.14,-65.7 726.21,-5.14 670.36,-76.35 527.14,-29.7 526.25,-29.41 525.37,-29.09 524.49,-28.74"/>
<polygon fill="green" stroke="green" stroke-width="0.16" points="525.89,-25.53 515.38,-24.22 522.78,-31.8 525.89,-25.53"/>
</g>
<!-- &#45;15&#45;&gt;3 -->
<g id="edge70" class="edge">
<title>&#45;15&#45;&gt;3</title>
<path fill="none" stroke="green" stroke-width="0.49" d="M879.77,-77.74C875.58,-73.55 870,-68.71 864.14,-65.7 800.92,-33.19 716.34,-21.6 675,-17.69"/>
<polygon fill="green" stroke="green" stroke-width="0.49" points="675.27,-14.2 665,-16.82 674.66,-21.18 675.27,-14.2"/>
</g>
<!-- &#45;15&#45;&gt;4 -->
<g id="edge71" class="edge">
<title>&#45;15&#45;&gt;4</title>
<path fill="none" stroke="red" stroke-width="0.62" d="M879.86,-77.55C875.69,-73.31 870.11,-68.48 864.14,-65.7 767.14,-20.56 727.11,-65.05 626.14,-29.7 625.26,-29.39 624.38,-29.05 623.51,-28.69"/>
<polygon fill="red" stroke="red" stroke-width="0.62" points="624.92,-25.48 614.41,-24.11 621.77,-31.73 624.92,-25.48"/>
</g>
<!-- &#45;16 -->
<g id="node16" class="node">
<title>&#45;16</title>
<polygon fill="lightgray" stroke="black" points="192.64,-95.91 163.64,-95.91 163.64,-77.91 192.64,-77.91 192.64,-95.91"/>
<text text-anchor="middle" x="178.14" y="-84.71" font-family="Times New Roman,serif" font-size="9.00">&#45;16</text>
</g>
<!-- &#45;16&#45;&gt;0 -->
<g id="edge72" class="edge">
<title>&#45;16&#45;&gt;0</title>
<path fill="none" stroke="red" stroke-width="1.26" d="M185.33,-77.87C189.73,-73.5 195.73,-68.45 202.14,-65.7 335.7,-8.42 389.04,-74.98 527.14,-29.7 528.02,-29.41 528.9,-29.09 529.78,-28.74"/>
<polygon fill="red" stroke="red" stroke-width="1.26" points="531.49,-31.79 538.89,-24.21 528.38,-25.52 531.49,-31.79"/>
</g>
<!-- &#45;16&#45;&gt;1 -->
<g id="edge73" class="edge">
<title>&#45;16&#45;&gt;1</title>
<path fill="none" stroke="green" stroke-width="0.27" d="M185.85,-77.67C190.23,-73.47 196.05,-68.64 202.14,-65.7 276.99,-29.54 376.89,-19.59 422.94,-16.87"/>
<polygon fill="green" stroke="green" stroke-width="0.27" points="423.39,-20.35 433.19,-16.33 423.02,-13.36 423.39,-20.35"/>
</g>
<!-- &#45;16&#45;&gt;2 -->
<g id="edge74" class="edge">
<title>&#45;16&#45;&gt;2</title>
<path fill="none" stroke="green" stroke-width="0.13" stroke-dasharray="1,5" d="M185.77,-77.51C190.13,-73.26 195.96,-68.43 202.14,-65.7 312.86,-16.75 355.67,-62.73 472.14,-29.7 475.01,-28.88 477.95,-27.85 480.84,-26.72"/>
<polygon fill="green" stroke="green" stroke-width="0.13" points="482.41,-29.85 490.17,-22.64 479.61,-23.43 482.41,-29.85"/>
</g>
<!-- &#45;16&#45;&gt;3 -->
<g id="edge75" class="edge">
<title>&#45;16&#45;&gt;3</title>
<path fill="none" stroke="red" stroke-width="0.33" stroke-dasharray="1,5" d="M185.3,-77.8C189.69,-73.42 195.69,-68.36 202.14,-65.7 376.89,6.61 445.69,-86.32 626.14,-29.7 627.19,-29.37 628.25,-28.98 629.31,-28.56"/>
<polygon fill="red" stroke="red" stroke-width="0.33" points="631.04,-31.6 638.41,-23.99 627.9,-25.35 631.04,-31.6"/>
</g>
<!-- &#45;16&#45;&gt;4 -->
<g id="edge76" class="edge">
<title>&#45;16&#45;&gt;4</title>
<path fill="none" stroke="green" stroke-width="0.28" stroke-dasharray="1,5" d="M185.31,-77.83C189.71,-73.45 195.71,-68.4 202.14,-65.7 355.66,-1.14 415.31,-76.54 575.14,-29.7 577.03,-29.14 578.95,-28.45 580.85,-27.68"/>
<polygon fill="green" stroke="green" stroke-width="0.28" points="582.39,-30.82 589.91,-23.36 579.38,-24.5 582.39,-30.82"/>
</g>
<!-- &#45;17 -->
<g id="node17" class="node">
<title>&#45;17</title>
<polygon fill="lightgray" stroke="black" points="239.64,-95.91 210.64,-95.91 210.64,-77.91 239.64,-77.91 239.64,-95.91"/>
<text text-anchor="middle" x="225.14" y="-84.71" font-family="Times New Roman,serif" font-size="9.00">&#45;17</text>
</g>
<!-- &#45;17&#45;&gt;0 -->
<g id="edge77" class="edge">
<title>&#45;17&#45;&gt;0</title>
<path fill="none" stroke="green" stroke-width="0.13" d="M232.35,-77.91C236.75,-73.56 242.75,-68.51 249.14,-65.7 363.18,-15.54 409.11,-69.61 527.14,-29.7 528.01,-29.4 528.89,-29.07 529.77,-28.71"/>
<polygon fill="green" stroke="green" stroke-width="0.13" points="531.5,-31.77 538.87,-24.16 528.37,-25.5 531.5,-31.77"/>
</g>
<!-- &#45;17&#45;&gt;1 -->
<g id="edge78" class="edge">
<title>&#45;17&#45;&gt;1</title>
<path fill="none" stroke="green" stroke-width="0.12" d="M232.9,-77.78C237.3,-73.61 243.12,-68.77 249.14,-65.7 307.27,-35.97 384.2,-23.26 423.19,-18.43"/>
<polygon fill="green" stroke="green" stroke-width="0.12" points="423.82,-21.88 433.35,-17.25 423.01,-14.93 423.82,-21.88"/>
</g>
<!-- &#45;17&#45;&gt;2 -->
<g id="edge79" class="edge">
<title>&#45;17&#45;&gt;2</title>
<path fill="none" stroke="red" stroke-width="0.21" d="M232.8,-77.58C237.17,-73.34 243,-68.51 249.14,-65.7 340.39,-23.85 375.94,-58.42 472.14,-29.7 474.99,-28.84 477.94,-27.79 480.81,-26.64"/>
<polygon fill="red" stroke="red" stroke-width="0.21" points="482.39,-29.77 490.15,-22.56 479.58,-23.36 482.39,-29.77"/>
</g>
<!-- &#45;17&#45;&gt;3 -->
<g id="edge80" class="edge">
<title>&#45;17&#45;&gt;3</title>
<path fill="none" stroke="red" stroke-width="1.05" stroke-dasharray="1,5" d="M232.31,-77.83C236.71,-73.45 242.71,-68.4 249.14,-65.7 404.32,-0.53 465.8,-80.93 626.14,-29.7 627.19,-29.36 628.25,-28.97 629.3,-28.55"/>
<polygon fill="red" stroke="red" stroke-width="1.05" points="631.04,-31.59 638.4,-23.96 627.89,-25.34 631.04,-31.59"/>
</g>
<!-- &#45;17&#45;&gt;4 -->
<g id="edge81" class="edge">
<title>&#45;17&#45;&gt;4</title>
<path fill="none" stroke="red" stroke-width="0.28" d="M232.33,-77.87C236.73,-73.5 242.73,-68.45 249.14,-65.7 383.11,-8.27 435.53,-71.66 575.14,-29.7 577.03,-29.13 578.94,-28.43 580.84,-27.65"/>
<polygon fill="red" stroke="red" stroke-width="0.28" points="582.38,-30.79 589.9,-23.32 579.36,-24.48 582.38,-30.79"/>
</g>
<!-- &#45;18 -->
<g id="node18" class="node">
<title>&#45;18</title>
<polygon fill="lightgray" stroke="black" points="987.64,-95.91 958.64,-95.91 958.64,-77.91 987.64,-77.91 987.64,-95.91"/>
<text text-anchor="middle" x="973.14" y="-84.71" font-family="Times New Roman,serif" font-size="9.00">&#45;18</text>
</g>
<!-- &#45;18&#45;&gt;2 -->
<g id="edge82" class="edge">
<title>&#45;18&#45;&gt;2</title>
<path fill="none" stroke="green" stroke-width="0.26" d="M958.6,-80.16C946.19,-75.49 927.76,-69.14 911.14,-65.7 743.29,-30.92 690.46,-81.73 527.14,-29.7 526.08,-29.36 525.02,-28.98 523.97,-28.55"/>
<polygon fill="green" stroke="green" stroke-width="0.26" points="525.38,-25.34 514.87,-23.96 522.23,-31.59 525.38,-25.34"/>
</g>
<!-- &#45;18&#45;&gt;3 -->
<g id="edge83" class="edge">
<title>&#45;18&#45;&gt;3</title>
<path fill="none" stroke="red" stroke-width="0.43" d="M963.83,-77.83C958.43,-73.57 951.29,-68.63 944.14,-65.7 850.17,-27.26 727.64,-18.46 675.45,-16.45"/>
<polygon fill="red" stroke="red" stroke-width="0.43" points="675.25,-12.94 665.14,-16.1 675.02,-19.93 675.25,-12.94"/>
</g>
<!-- &#45;18&#45;&gt;4 -->
<g id="edge84" class="edge">
<title>&#45;18&#45;&gt;4</title>
<path fill="none" stroke="green" stroke-width="0.35" d="M964.15,-77.88C958.73,-73.52 951.48,-68.47 944.14,-65.7 811.05,-15.5 761.24,-74.18 626.14,-29.7 625.26,-29.41 624.37,-29.08 623.49,-28.73"/>
<polygon fill="green" stroke="green" stroke-width="0.35" points="624.89,-25.52 614.38,-24.2 621.78,-31.79 624.89,-25.52"/>
</g>
<!-- &#45;19 -->
<g id="node19" class="node">
<title>&#45;19</title>
<polygon fill="lightgray" stroke="black" points="286.64,-95.91 257.64,-95.91 257.64,-77.91 286.64,-77.91 286.64,-95.91"/>
<text text-anchor="middle" x="272.14" y="-84.71" font-family="Times New Roman,serif" font-size="9.00">&#45;19</text>
</g>
<!-- &#45;19&#45;&gt;0 -->
<g id="edge85" class="edge">
<title>&#45;19&#45;&gt;0</title>
<path fill="none" stroke="red" stroke-width="0.49" d="M279.79,-77.56C284.16,-73.33 289.99,-68.5 296.14,-65.7 390.7,-22.64 429.14,-64.25 527.14,-29.7 528.01,-29.39 528.89,-29.05 529.76,-28.69"/>
<polygon fill="red" stroke="red" stroke-width="0.49" points="531.5,-31.73 538.85,-24.1 528.35,-25.48 531.5,-31.73"/>
</g>
<!-- &#45;19&#45;&gt;1 -->
<g id="edge86" class="edge">
<title>&#45;19&#45;&gt;1</title>
<path fill="none" stroke="green" stroke-width="0.14" d="M280.42,-77.55C284.79,-73.52 290.42,-68.88 296.14,-65.7 338.02,-42.36 392.54,-27.83 423.61,-20.84"/>
<polygon fill="green" stroke="green" stroke-width="0.14" points="424.53,-24.22 433.56,-18.68 423.04,-17.38 424.53,-24.22"/>
</g>
<!-- &#45;19&#45;&gt;2 -->
<g id="edge87" class="edge">
<title>&#45;19&#45;&gt;2</title>
<path fill="none" stroke="red" stroke-width="0.53" d="M279.85,-77.68C284.23,-73.48 290.06,-68.64 296.14,-65.7 368,-30.91 396.12,-54.13 472.14,-29.7 474.98,-28.79 477.91,-27.69 480.78,-26.52"/>
<polygon fill="red" stroke="red" stroke-width="0.53" points="482.36,-29.65 490.11,-22.43 479.55,-23.24 482.36,-29.65"/>
</g>
<!-- &#45;19&#45;&gt;3 -->
<g id="edge88" class="edge">
<title>&#45;19&#45;&gt;3</title>
<path fill="none" stroke="green" stroke-width="0.25" d="M279.33,-77.86C283.72,-73.49 289.72,-68.44 296.14,-65.7 431.78,-7.66 485.9,-75.55 626.14,-29.7 627.02,-29.41 627.9,-29.09 628.78,-28.74"/>
<polygon fill="green" stroke="green" stroke-width="0.25" points="630.49,-31.8 637.89,-24.21 627.38,-25.53 630.49,-31.8"/>
</g>
<!-- &#45;19&#45;&gt;4 -->
<g id="edge89" class="edge">
<title>&#45;19&#45;&gt;4</title>
<path fill="none" stroke="green" stroke-width="0.41" stroke-dasharray="1,5" d="M279.35,-77.91C283.75,-73.56 289.75,-68.5 296.14,-65.7 410.59,-15.39 455.73,-66.78 575.14,-29.7 577.02,-29.11 578.94,-28.4 580.83,-27.61"/>
<polygon fill="green" stroke="green" stroke-width="0.41" points="582.38,-30.75 589.88,-23.27 579.35,-24.44 582.38,-30.75"/>
</g>
<!-- &#45;20 -->
<g id="node20" class="node">
<title>&#45;20</title>
<polygon fill="lightgray" stroke="black" points="333.64,-95.91 304.64,-95.91 304.64,-77.91 333.64,-77.91 333.64,-95.91"/>
<text text-anchor="middle" x="319.14" y="-84.71" font-family="Times New Roman,serif" font-size="9.00">&#45;20</text>
</g>
<!-- &#45;20&#45;&gt;0 -->
<g id="edge90" class="edge">
<title>&#45;20&#45;&gt;0</title>
<path fill="none" stroke="red" stroke-width="0.12" d="M326.84,-77.66C331.22,-73.45 337.04,-68.62 343.14,-65.7 418.29,-29.71 449.1,-58.92 527.14,-29.7 528,-29.37 528.87,-29.02 529.75,-28.64"/>
<polygon fill="red" stroke="red" stroke-width="0.12" points="531.51,-31.67 538.82,-24 528.32,-25.44 531.51,-31.67"/>
</g>
<!-- &#45;20&#45;&gt;1 -->
<g id="edge91" class="edge">
<title>&#45;20&#45;&gt;1</title>
<path fill="none" stroke="red" stroke-width="0.31" d="M327.6,-77.85C332.02,-73.9 337.64,-69.23 343.14,-65.7 369.65,-48.64 402.92,-33.83 424.81,-24.89"/>
<polygon fill="red" stroke="red" stroke-width="0.31" points="426.31,-28.06 434.29,-21.09 423.7,-21.56 426.31,-28.06"/>
</g>
<!-- &#45;20&#45;&gt;2 -->
<g id="edge92" class="edge">
<title>&#45;20&#45;&gt;2</title>
<path fill="none" stroke="green" stroke-width="0.51" stroke-dasharray="1,5" d="M326.93,-77.85C331.34,-73.7 337.16,-68.85 343.14,-65.7 395.77,-37.89 416.14,-49.89 472.14,-29.7 474.94,-28.69 477.85,-27.53 480.71,-26.33"/>
<polygon fill="green" stroke="green" stroke-width="0.51" points="482.3,-29.46 490.04,-22.22 479.47,-23.05 482.3,-29.46"/>
</g>
<!-- &#45;20&#45;&gt;3 -->
<g id="edge93" class="edge">
<title>&#45;20&#45;&gt;3</title>
<path fill="none" stroke="green" stroke-width="0.24" d="M326.35,-77.91C330.75,-73.55 336.75,-68.5 343.14,-65.7 459.25,-14.78 505.98,-70.18 626.14,-29.7 627.01,-29.4 627.89,-29.07 628.77,-28.72"/>
<polygon fill="green" stroke="green" stroke-width="0.24" points="630.5,-31.77 637.88,-24.17 627.37,-25.51 630.5,-31.77"/>
</g>
<!-- &#45;20&#45;&gt;4 -->
<g id="edge94" class="edge">
<title>&#45;20&#45;&gt;4</title>
<path fill="none" stroke="red" stroke-width="0.37" d="M326.79,-77.56C331.16,-73.33 336.99,-68.5 343.14,-65.7 438.11,-22.49 475.89,-61.92 575.14,-29.7 576.82,-29.15 578.53,-28.51 580.23,-27.8"/>
<polygon fill="red" stroke="red" stroke-width="0.37" points="582.07,-30.81 589.59,-23.34 579.05,-24.49 582.07,-30.81"/>
</g>
<!-- 320&#45;&gt;1 -->
<g id="edge96" class="edge">
<title>320&#45;&gt;1</title>
<path fill="none" stroke="red" stroke-width="0.43" d="M60.52,-72.91C64.75,-70.12 69.44,-67.48 74.14,-65.7 198.67,-18.44 361.33,-14.81 422.98,-15.31"/>
<polygon fill="red" stroke="red" stroke-width="0.43" points="423.24,-18.81 433.28,-15.44 423.33,-11.81 423.24,-18.81"/>
</g>
</g>
</svg>
