<?xml version="1.0" encoding="UTF-8" standalone="no"?>
<!DOCTYPE svg PUBLIC "-//W3C//DTD SVG 1.1//EN"
 "http://www.w3.org/Graphics/SVG/1.1/DTD/svg11.dtd">
<!-- Generated by graphviz version 2.49.0 (20210828.1703)
 -->
<!-- Pages: 1 -->
<svg width="1035pt" height="170pt"
 viewBox="0.00 0.00 1034.90 170.12" xmlns="http://www.w3.org/2000/svg" xmlns:xlink="http://www.w3.org/1999/xlink">
<g id="graph0" class="graph" transform="scale(1 1) rotate(0) translate(4 166.12)">
<polygon fill="white" stroke="transparent" points="-4,4 -4,-166.12 1030.9,-166.12 1030.9,4 -4,4"/>
<!-- &#45;1 -->
<g id="node1" class="node">
<title>&#45;1</title>
<polygon fill="lightgray" stroke="black" points="187.35,-95.91 163.35,-95.91 163.35,-77.91 187.35,-77.91 187.35,-95.91"/>
<text text-anchor="middle" x="175.35" y="-84.71" font-family="Times New Roman,serif" font-size="9.00">&#45;1</text>
</g>
<!-- 0 -->
<g id="node21" class="node">
<title>0</title>
<ellipse fill="lightblue" stroke="black" cx="427.35" cy="-14.85" rx="14.7" ry="14.7"/>
<text text-anchor="middle" x="427.35" y="-12.65" font-family="Times New Roman,serif" font-size="9.00">0</text>
</g>
<!-- &#45;1&#45;&gt;0 -->
<g id="edge1" class="edge">
<title>&#45;1&#45;&gt;0</title>
<path fill="none" stroke="red" stroke-width="0.55" d="M181.92,-77.68C185.71,-73.48 190.81,-68.65 196.35,-65.7 264.78,-29.25 358.07,-19.45 402.22,-16.82"/>
<polygon fill="red" stroke="red" stroke-width="0.55" points="402.53,-20.3 412.34,-16.29 402.17,-13.31 402.53,-20.3"/>
</g>
<!-- 1 -->
<g id="node22" class="node">
<title>1</title>
<ellipse fill="lightblue" stroke="black" cx="475.35" cy="-14.85" rx="14.7" ry="14.7"/>
<text text-anchor="middle" x="475.35" y="-12.65" font-family="Times New Roman,serif" font-size="9.00">1</text>
</g>
<!-- &#45;1&#45;&gt;1 -->
<g id="edge2" class="edge">
<title>&#45;1&#45;&gt;1</title>
<path fill="none" stroke="green" stroke-width="0.13" d="M181.84,-77.52C185.6,-73.27 190.71,-68.45 196.35,-65.7 299.25,-15.58 343.14,-66.98 451.35,-29.7 452.22,-29.4 453.1,-29.06 453.98,-28.7"/>
<polygon fill="green" stroke="green" stroke-width="0.13" points="455.71,-31.75 463.08,-24.13 452.57,-25.49 455.71,-31.75"/>
</g>
<!-- 2 -->
<g id="node23" class="node">
<title>2</title>
<ellipse fill="lightblue" stroke="black" cx="523.35" cy="-14.85" rx="14.7" ry="14.7"/>
<text text-anchor="middle" x="523.35" y="-12.65" font-family="Times New Roman,serif" font-size="9.00">2</text>
</g>
<!-- &#45;1&#45;&gt;2 -->
<g id="edge3" class="edge">
<title>&#45;1&#45;&gt;2</title>
<path fill="none" stroke="red" stroke-width="0.12" stroke-dasharray="1,5" d="M181.46,-77.88C185.25,-73.52 190.5,-68.47 196.35,-65.7 318.91,-7.66 370.65,-72.46 499.35,-29.7 500.23,-29.41 501.11,-29.08 501.99,-28.73"/>
<polygon fill="red" stroke="red" stroke-width="0.12" points="503.71,-31.78 511.1,-24.19 500.59,-25.52 503.71,-31.78"/>
</g>
<!-- 3 -->
<g id="node24" class="node">
<title>3</title>
<ellipse fill="lightblue" stroke="black" cx="619.35" cy="-14.85" rx="14.7" ry="14.7"/>
<text text-anchor="middle" x="619.35" y="-12.65" font-family="Times New Roman,serif" font-size="9.00">3</text>
</g>
<!-- &#45;1&#45;&gt;3 -->
<g id="edge4" class="edge">
<title>&#45;1&#45;&gt;3</title>
<path fill="none" stroke="green" stroke-width="0.28" d="M181.43,-77.82C185.21,-73.44 190.46,-68.39 196.35,-65.7 358.33,8.23 425.6,-83.45 595.35,-29.7 596.4,-29.36 597.46,-28.98 598.52,-28.55"/>
<polygon fill="green" stroke="green" stroke-width="0.28" points="600.26,-31.6 607.62,-23.97 597.11,-25.34 600.26,-31.6"/>
</g>
<!-- 4 -->
<g id="node25" class="node">
<title>4</title>
<ellipse fill="lightblue" stroke="black" cx="571.35" cy="-14.85" rx="14.7" ry="14.7"/>
<text text-anchor="middle" x="571.35" y="-12.65" font-family="Times New Roman,serif" font-size="9.00">4</text>
</g>
<!-- &#45;1&#45;&gt;4 -->
<g id="edge5" class="edge">
<title>&#45;1&#45;&gt;4</title>
<path fill="none" stroke="green" stroke-width="0.2" d="M181.44,-77.85C185.22,-73.48 190.47,-68.42 196.35,-65.7 338.61,0.28 398.14,-77.95 547.35,-29.7 548.4,-29.36 549.46,-28.97 550.51,-28.54"/>
<polygon fill="green" stroke="green" stroke-width="0.2" points="552.26,-31.58 559.6,-23.94 549.1,-25.33 552.26,-31.58"/>
</g>
<!-- &#45;2 -->
<g id="node2" class="node">
<title>&#45;2</title>
<polygon fill="lightgray" stroke="black" points="229.35,-95.91 205.35,-95.91 205.35,-77.91 229.35,-77.91 229.35,-95.91"/>
<text text-anchor="middle" x="217.35" y="-84.71" font-family="Times New Roman,serif" font-size="9.00">&#45;2</text>
</g>
<!-- &#45;2&#45;&gt;0 -->
<g id="edge6" class="edge">
<title>&#45;2&#45;&gt;0</title>
<path fill="none" stroke="green" stroke-width="0.5" d="M223.98,-77.78C227.78,-73.61 232.88,-68.77 238.35,-65.7 292.2,-35.43 365.03,-23 402.62,-18.35"/>
<polygon fill="green" stroke="green" stroke-width="0.5" points="403.13,-21.81 412.67,-17.19 402.33,-14.86 403.13,-21.81"/>
</g>
<!-- &#45;2&#45;&gt;1 -->
<g id="edge7" class="edge">
<title>&#45;2&#45;&gt;1</title>
<path fill="none" stroke="red" stroke-width="0.61" d="M223.87,-77.58C227.64,-73.35 232.75,-68.52 238.35,-65.7 324.08,-22.49 361.01,-62.2 451.35,-29.7 452.22,-29.38 453.1,-29.04 453.97,-28.67"/>
<polygon fill="red" stroke="red" stroke-width="0.61" points="455.72,-31.71 463.05,-24.06 452.55,-25.47 455.72,-31.71"/>
</g>
<!-- &#45;2&#45;&gt;2 -->
<g id="edge8" class="edge">
<title>&#45;2&#45;&gt;2</title>
<path fill="none" stroke="red" stroke-width="0.37" d="M223.84,-77.52C227.6,-73.27 232.7,-68.44 238.35,-65.7 343.7,-14.59 388.58,-67.67 499.35,-29.7 500.23,-29.4 501.11,-29.06 501.98,-28.7"/>
<polygon fill="red" stroke="red" stroke-width="0.37" points="503.71,-31.75 511.08,-24.14 500.57,-25.5 503.71,-31.75"/>
</g>
<!-- &#45;2&#45;&gt;3 -->
<g id="edge9" class="edge">
<title>&#45;2&#45;&gt;3</title>
<path fill="none" stroke="red" stroke-width="0.24" d="M223.44,-77.85C227.22,-73.47 232.47,-68.42 238.35,-65.7 383.08,1.27 443.57,-78.64 595.35,-29.7 596.4,-29.36 597.46,-28.97 598.51,-28.54"/>
<polygon fill="red" stroke="red" stroke-width="0.24" points="600.26,-31.58 607.61,-23.95 597.1,-25.33 600.26,-31.58"/>
</g>
<!-- &#45;2&#45;&gt;4 -->
<g id="edge10" class="edge">
<title>&#45;2&#45;&gt;4</title>
<path fill="none" stroke="green" stroke-width="0.88" stroke-dasharray="1,5" d="M223.46,-77.88C227.24,-73.52 232.49,-68.46 238.35,-65.7 363.37,-6.66 416.09,-73.15 547.35,-29.7 548.23,-29.41 549.11,-29.08 549.99,-28.73"/>
<polygon fill="green" stroke="green" stroke-width="0.88" points="551.71,-31.78 559.1,-24.2 548.59,-25.52 551.71,-31.78"/>
</g>
<!-- &#45;3 -->
<g id="node3" class="node">
<title>&#45;3</title>
<polygon fill="lightgray" stroke="black" points="271.35,-95.91 247.35,-95.91 247.35,-77.91 271.35,-77.91 271.35,-95.91"/>
<text text-anchor="middle" x="259.35" y="-84.71" font-family="Times New Roman,serif" font-size="9.00">&#45;3</text>
</g>
<!-- &#45;3&#45;&gt;0 -->
<g id="edge11" class="edge">
<title>&#45;3&#45;&gt;0</title>
<path fill="none" stroke="red" stroke-width="0.39" d="M266.44,-77.53C270.22,-73.49 275.16,-68.85 280.35,-65.7 319.72,-41.74 372.08,-27.55 402.51,-20.76"/>
<polygon fill="red" stroke="red" stroke-width="0.39" points="403.62,-24.11 412.67,-18.6 402.16,-17.26 403.62,-24.11"/>
</g>
<!-- &#45;3&#45;&gt;1 -->
<g id="edge12" class="edge">
<title>&#45;3&#45;&gt;1</title>
<path fill="none" stroke="red" stroke-width="0.28" d="M265.92,-77.67C269.7,-73.47 274.8,-68.63 280.35,-65.7 348.99,-29.36 378.81,-57.45 451.35,-29.7 452.21,-29.37 453.08,-29.01 453.96,-28.63"/>
<polygon fill="red" stroke="red" stroke-width="0.28" points="455.73,-31.65 463.02,-23.96 452.52,-25.43 455.73,-31.65"/>
</g>
<!-- &#45;3&#45;&gt;2 -->
<g id="edge13" class="edge">
<title>&#45;3&#45;&gt;2</title>
<path fill="none" stroke="red" stroke-width="0.26" d="M265.87,-77.57C269.64,-73.34 274.74,-68.51 280.35,-65.7 368.53,-21.5 406.46,-62.89 499.35,-29.7 500.22,-29.39 501.1,-29.04 501.97,-28.68"/>
<polygon fill="red" stroke="red" stroke-width="0.26" points="503.72,-31.72 511.06,-24.07 500.56,-25.47 503.72,-31.72"/>
</g>
<!-- &#45;3&#45;&gt;3 -->
<g id="edge14" class="edge">
<title>&#45;3&#45;&gt;3</title>
<path fill="none" stroke="red" stroke-width="0.15" d="M265.45,-77.87C269.24,-73.51 274.49,-68.46 280.35,-65.7 407.84,-5.67 461.53,-73.83 595.35,-29.7 596.23,-29.41 597.11,-29.08 597.99,-28.73"/>
<polygon fill="red" stroke="red" stroke-width="0.15" points="599.71,-31.79 607.1,-24.2 596.59,-25.52 599.71,-31.79"/>
</g>
<!-- &#45;3&#45;&gt;4 -->
<g id="edge15" class="edge">
<title>&#45;3&#45;&gt;4</title>
<path fill="none" stroke="green" stroke-width="0.16" d="M265.84,-77.51C269.6,-73.26 274.7,-68.43 280.35,-65.7 388.16,-13.6 434.02,-68.35 547.35,-29.7 548.23,-29.4 549.11,-29.07 549.98,-28.71"/>
<polygon fill="green" stroke="green" stroke-width="0.16" points="551.71,-31.76 559.08,-24.15 548.58,-25.5 551.71,-31.76"/>
</g>
<!-- &#45;4 -->
<g id="node4" class="node">
<title>&#45;4</title>
<polygon fill="lightgray" stroke="black" points="313.35,-95.91 289.35,-95.91 289.35,-77.91 313.35,-77.91 313.35,-95.91"/>
<text text-anchor="middle" x="301.35" y="-84.71" font-family="Times New Roman,serif" font-size="9.00">&#45;4</text>
</g>
<!-- &#45;4&#45;&gt;0 -->
<g id="edge16" class="edge">
<title>&#45;4&#45;&gt;0</title>
<path fill="none" stroke="red" stroke-width="0.28" d="M308.6,-77.78C312.43,-73.81 317.35,-69.15 322.35,-65.7 348.43,-47.67 382.05,-33 404.13,-24.35"/>
<polygon fill="red" stroke="red" stroke-width="0.28" points="405.58,-27.54 413.67,-20.7 403.08,-21 405.58,-27.54"/>
</g>
<!-- &#45;4&#45;&gt;1 -->
<g id="edge17" class="edge">
<title>&#45;4&#45;&gt;1</title>
<path fill="none" stroke="green" stroke-width="0.24" d="M308,-77.81C311.8,-73.65 316.9,-68.81 322.35,-65.7 374.03,-36.16 396.47,-52.76 451.35,-29.7 452.2,-29.34 453.06,-28.96 453.93,-28.55"/>
<polygon fill="green" stroke="green" stroke-width="0.24" points="455.74,-31.56 462.95,-23.8 452.47,-25.37 455.74,-31.56"/>
</g>
<!-- &#45;4&#45;&gt;2 -->
<g id="edge18" class="edge">
<title>&#45;4&#45;&gt;2</title>
<path fill="none" stroke="red" stroke-width="0.16" d="M307.91,-77.66C311.69,-73.45 316.79,-68.62 322.35,-65.7 393.43,-28.38 424.28,-58.13 499.35,-29.7 500.22,-29.37 501.09,-29.01 501.96,-28.63"/>
<polygon fill="red" stroke="red" stroke-width="0.16" points="503.73,-31.66 511.02,-23.98 500.53,-25.43 503.73,-31.66"/>
</g>
<!-- &#45;4&#45;&gt;3 -->
<g id="edge19" class="edge">
<title>&#45;4&#45;&gt;3</title>
<path fill="none" stroke="green" stroke-width="0.24" d="M307.83,-77.5C311.59,-73.25 316.7,-68.42 322.35,-65.7 432.62,-12.61 479.46,-69.04 595.35,-29.7 596.23,-29.4 597.11,-29.07 597.99,-28.71"/>
<polygon fill="green" stroke="green" stroke-width="0.24" points="599.71,-31.76 607.09,-24.16 596.58,-25.5 599.71,-31.76"/>
</g>
<!-- &#45;4&#45;&gt;4 -->
<g id="edge20" class="edge">
<title>&#45;4&#45;&gt;4</title>
<path fill="none" stroke="green" stroke-width="0.27" stroke-dasharray="1,5" d="M307.86,-77.56C311.63,-73.33 316.73,-68.5 322.35,-65.7 412.98,-20.51 451.91,-63.57 547.35,-29.7 548.22,-29.39 549.1,-29.05 549.98,-28.68"/>
<polygon fill="green" stroke="green" stroke-width="0.27" points="551.72,-31.72 559.06,-24.08 548.56,-25.47 551.72,-31.72"/>
</g>
<!-- &#45;5 -->
<g id="node5" class="node">
<title>&#45;5</title>
<polygon fill="lightgray" stroke="black" points="355.35,-95.91 331.35,-95.91 331.35,-77.91 355.35,-77.91 355.35,-95.91"/>
<text text-anchor="middle" x="343.35" y="-84.71" font-family="Times New Roman,serif" font-size="9.00">&#45;5</text>
</g>
<!-- &#45;5&#45;&gt;0 -->
<g id="edge21" class="edge">
<title>&#45;5&#45;&gt;0</title>
<path fill="none" stroke="red" stroke-width="0.35" stroke-dasharray="1,5" d="M351.35,-77.85C355.2,-74.07 359.93,-69.56 364.35,-65.7 378.52,-53.32 395.24,-40.15 407.9,-30.46"/>
<polygon fill="red" stroke="red" stroke-width="0.35" points="410.09,-33.19 415.93,-24.35 405.85,-27.62 410.09,-33.19"/>
</g>
<!-- &#45;5&#45;&gt;1 -->
<g id="edge22" class="edge">
<title>&#45;5&#45;&gt;1</title>
<path fill="none" stroke="red" stroke-width="0.26" d="M350.53,-77.67C354.34,-73.67 359.27,-69.02 364.35,-65.7 399.37,-42.79 413.81,-48.2 451.35,-29.7 452.18,-29.29 453.02,-28.86 453.87,-28.43"/>
<polygon fill="red" stroke="red" stroke-width="0.26" points="455.74,-31.39 462.81,-23.5 452.37,-25.26 455.74,-31.39"/>
</g>
<!-- &#45;5&#45;&gt;2 -->
<g id="edge23" class="edge">
<title>&#45;5&#45;&gt;2</title>
<path fill="none" stroke="red" stroke-width="0.11" d="M349.98,-77.79C353.79,-73.62 358.88,-68.78 364.35,-65.7 418.44,-35.2 441.96,-53.42 499.35,-29.7 500.21,-29.34 501.07,-28.97 501.93,-28.57"/>
<polygon fill="red" stroke="red" stroke-width="0.11" points="503.74,-31.57 510.96,-23.82 500.48,-25.38 503.74,-31.57"/>
</g>
<!-- &#45;5&#45;&gt;3 -->
<g id="edge24" class="edge">
<title>&#45;5&#45;&gt;3</title>
<path fill="none" stroke="green" stroke-width="0.28" d="M349.86,-77.56C353.63,-73.32 358.73,-68.49 364.35,-65.7 457.43,-19.53 497.36,-64.25 595.35,-29.7 596.22,-29.39 597.1,-29.05 597.98,-28.69"/>
<polygon fill="green" stroke="green" stroke-width="0.28" points="599.72,-31.73 607.07,-24.1 596.56,-25.48 599.72,-31.73"/>
</g>
<!-- &#45;5&#45;&gt;4 -->
<g id="edge25" class="edge">
<title>&#45;5&#45;&gt;4</title>
<path fill="none" stroke="red" stroke-width="0.33" d="M349.9,-77.64C353.68,-73.43 358.78,-68.6 364.35,-65.7 437.86,-27.4 469.74,-58.81 547.35,-29.7 548.22,-29.37 549.09,-29.02 549.96,-28.64"/>
<polygon fill="red" stroke="red" stroke-width="0.33" points="551.73,-31.67 559.03,-23.99 548.53,-25.44 551.73,-31.67"/>
</g>
<!-- &#45;6 -->
<g id="node6" class="node">
<title>&#45;6</title>
<polygon fill="lightgray" stroke="black" points="397.35,-95.91 373.35,-95.91 373.35,-77.91 397.35,-77.91 397.35,-95.91"/>
<text text-anchor="middle" x="385.35" y="-84.71" font-family="Times New Roman,serif" font-size="9.00">&#45;6</text>
</g>
<!-- &#45;6&#45;&gt;0 -->
<g id="edge26" class="edge">
<title>&#45;6&#45;&gt;0</title>
<path fill="none" stroke="red" stroke-width="0.32" d="M390.17,-77.87C396.12,-67.95 406.47,-50.67 414.75,-36.87"/>
<polygon fill="red" stroke="red" stroke-width="0.32" points="417.92,-38.38 420.06,-28.01 411.92,-34.79 417.92,-38.38"/>
</g>
<!-- &#45;6&#45;&gt;1 -->
<g id="edge27" class="edge">
<title>&#45;6&#45;&gt;1</title>
<path fill="none" stroke="red" stroke-width="0.63" stroke-dasharray="1,5" d="M393.28,-77.76C397.11,-73.96 401.84,-69.46 406.35,-65.7 421.98,-52.64 440.78,-39.2 454.8,-29.56"/>
<polygon fill="red" stroke="red" stroke-width="0.63" points="456.94,-32.34 463.25,-23.83 453.01,-26.55 456.94,-32.34"/>
</g>
<!-- &#45;6&#45;&gt;2 -->
<g id="edge28" class="edge">
<title>&#45;6&#45;&gt;2</title>
<path fill="none" stroke="red" stroke-width="0.38" d="M392.5,-77.62C396.3,-73.61 401.23,-68.96 406.35,-65.7 443.72,-41.86 459.37,-48.83 499.35,-29.7 500.18,-29.3 501.03,-28.88 501.88,-28.45"/>
<polygon fill="red" stroke="red" stroke-width="0.38" points="503.74,-31.42 510.84,-23.55 500.39,-25.28 503.74,-31.42"/>
</g>
<!-- &#45;6&#45;&gt;3 -->
<g id="edge29" class="edge">
<title>&#45;6&#45;&gt;3</title>
<path fill="none" stroke="green" stroke-width="0.3" d="M391.9,-77.63C395.67,-73.41 400.78,-68.58 406.35,-65.7 482.3,-26.42 515.19,-59.49 595.35,-29.7 596.22,-29.38 597.09,-29.02 597.96,-28.65"/>
<polygon fill="green" stroke="green" stroke-width="0.3" points="599.72,-31.68 607.03,-24.01 596.54,-25.45 599.72,-31.68"/>
</g>
<!-- &#45;6&#45;&gt;4 -->
<g id="edge30" class="edge">
<title>&#45;6&#45;&gt;4</title>
<path fill="none" stroke="green" stroke-width="0.29" d="M391.97,-77.77C395.77,-73.59 400.87,-68.75 406.35,-65.7 462.85,-34.23 487.45,-54.09 547.35,-29.7 548.21,-29.35 549.07,-28.97 549.94,-28.58"/>
<polygon fill="green" stroke="green" stroke-width="0.29" points="551.74,-31.59 558.97,-23.85 548.49,-25.39 551.74,-31.59"/>
</g>
<!-- &#45;7 -->
<g id="node7" class="node">
<title>&#45;7</title>
<polygon fill="lightgray" stroke="black" points="439.35,-95.91 415.35,-95.91 415.35,-77.91 439.35,-77.91 439.35,-95.91"/>
<text text-anchor="middle" x="427.35" y="-84.71" font-family="Times New Roman,serif" font-size="9.00">&#45;7</text>
</g>
<!-- &#45;7&#45;&gt;0 -->
<g id="edge31" class="edge">
<title>&#45;7&#45;&gt;0</title>
<path fill="none" stroke="red" stroke-width="0.62" d="M427.35,-77.87C427.35,-68.72 427.35,-53.33 427.35,-40.16"/>
<polygon fill="red" stroke="red" stroke-width="0.62" points="430.85,-39.82 427.35,-29.82 423.85,-39.82 430.85,-39.82"/>
</g>
<!-- &#45;7&#45;&gt;1 -->
<g id="edge32" class="edge">
<title>&#45;7&#45;&gt;1</title>
<path fill="none" stroke="green" stroke-width="0.32" d="M432.86,-77.87C439.8,-67.73 452,-49.93 461.55,-35.99"/>
<polygon fill="green" stroke="green" stroke-width="0.32" points="464.6,-37.73 467.36,-27.51 458.82,-33.78 464.6,-37.73"/>
</g>
<!-- &#45;7&#45;&gt;2 -->
<g id="edge33" class="edge">
<title>&#45;7&#45;&gt;2</title>
<path fill="none" stroke="green" stroke-width="0.16" d="M435.21,-77.69C439.03,-73.87 443.77,-69.37 448.35,-65.7 465.61,-51.84 486.73,-38.06 502.15,-28.51"/>
<polygon fill="green" stroke="green" stroke-width="0.16" points="504.22,-31.35 510.93,-23.15 500.57,-25.37 504.22,-31.35"/>
</g>
<!-- &#45;7&#45;&gt;3 -->
<g id="edge34" class="edge">
<title>&#45;7&#45;&gt;3</title>
<path fill="none" stroke="red" stroke-width="0.15" d="M433.96,-77.75C437.75,-73.56 442.85,-68.72 448.35,-65.7 507.27,-33.26 532.93,-54.76 595.35,-29.7 596.21,-29.35 597.07,-28.98 597.94,-28.59"/>
<polygon fill="red" stroke="red" stroke-width="0.15" points="599.73,-31.6 606.98,-23.88 596.5,-25.4 599.73,-31.6"/>
</g>
<!-- &#45;7&#45;&gt;4 -->
<g id="edge35" class="edge">
<title>&#45;7&#45;&gt;4</title>
<path fill="none" stroke="green" stroke-width="0.49" stroke-dasharray="1,5" d="M434.47,-77.58C438.26,-73.55 443.2,-68.91 448.35,-65.7 488.08,-40.93 504.91,-49.47 547.35,-29.7 548.19,-29.31 549.04,-28.9 549.89,-28.47"/>
<polygon fill="green" stroke="green" stroke-width="0.49" points="551.74,-31.45 558.87,-23.6 548.41,-25.29 551.74,-31.45"/>
</g>
<!-- &#45;8 -->
<g id="node8" class="node">
<title>&#45;8</title>
<polygon fill="lightgray" stroke="black" points="481.35,-95.91 457.35,-95.91 457.35,-77.91 481.35,-77.91 481.35,-95.91"/>
<text text-anchor="middle" x="469.35" y="-84.71" font-family="Times New Roman,serif" font-size="9.00">&#45;8</text>
</g>
<!-- &#45;8&#45;&gt;0 -->
<g id="edge36" class="edge">
<title>&#45;8&#45;&gt;0</title>
<path fill="none" stroke="green" stroke-width="0.12" stroke-dasharray="1,5" d="M464.53,-77.87C458.58,-67.95 448.23,-50.67 439.95,-36.87"/>
<polygon fill="green" stroke="green" stroke-width="0.12" points="442.78,-34.79 434.64,-28.01 436.78,-38.38 442.78,-34.79"/>
</g>
<!-- &#45;8&#45;&gt;1 -->
<g id="edge37" class="edge">
<title>&#45;8&#45;&gt;1</title>
<path fill="none" stroke="green" stroke-width="0.22" d="M470.04,-77.87C470.82,-68.72 472.14,-53.33 473.27,-40.16"/>
<polygon fill="green" stroke="green" stroke-width="0.22" points="476.79,-40.08 474.15,-29.82 469.81,-39.48 476.79,-40.08"/>
</g>
<!-- &#45;8&#45;&gt;2 -->
<g id="edge38" class="edge">
<title>&#45;8&#45;&gt;2</title>
<path fill="none" stroke="red" stroke-width="0.43" d="M475.54,-77.87C483.53,-67.52 497.67,-49.17 508.51,-35.11"/>
<polygon fill="red" stroke="red" stroke-width="0.43" points="511.41,-37.07 514.74,-27.01 505.87,-32.8 511.41,-37.07"/>
</g>
<!-- &#45;8&#45;&gt;3 -->
<g id="edge39" class="edge">
<title>&#45;8&#45;&gt;3</title>
<path fill="none" stroke="green" stroke-width="0.27" d="M481.35,-81.05C503.99,-71.76 554.38,-50.59 595.35,-29.7 596.17,-29.28 597.01,-28.84 597.85,-28.4"/>
<polygon fill="green" stroke="green" stroke-width="0.27" points="599.74,-31.35 606.78,-23.43 596.34,-25.23 599.74,-31.35"/>
</g>
<!-- &#45;8&#45;&gt;4 -->
<g id="edge40" class="edge">
<title>&#45;8&#45;&gt;4</title>
<path fill="none" stroke="red" stroke-width="0.36" stroke-dasharray="1,5" d="M481.05,-77.87C498.1,-66.16 530.01,-44.24 550.97,-29.85"/>
<polygon fill="red" stroke="red" stroke-width="0.36" points="553.21,-32.56 559.47,-24.01 549.25,-26.79 553.21,-32.56"/>
</g>
<!-- &#45;9 -->
<g id="node9" class="node">
<title>&#45;9</title>
<polygon fill="lightgray" stroke="black" points="304.35,-162.12 280.35,-162.12 280.35,-144.12 304.35,-144.12 304.35,-162.12"/>
<text text-anchor="middle" x="292.35" y="-150.92" font-family="Times New Roman,serif" font-size="9.00">&#45;9</text>
</g>
<!-- &#45;9&#45;&gt;0 -->
<g id="edge100" class="edge">
<title>&#45;9&#45;&gt;0</title>
<path fill="none" stroke="green" stroke-width="0.33" d="M280.31,-152.35C217.88,-153.18 -63.36,-152.2 13.35,-65.7 39.29,-36.45 316.27,-21.07 402.12,-16.98"/>
<polygon fill="green" stroke="green" stroke-width="0.33" points="402.45,-20.46 412.27,-16.5 402.12,-13.47 402.45,-20.46"/>
</g>
<!-- &#45;9&#45;&gt;1 -->
<g id="edge41" class="edge">
<title>&#45;9&#45;&gt;1</title>
<path fill="none" stroke="green" stroke-width="0.19" stroke-dasharray="1,5" d="M280.16,-151.95C221.88,-150.74 -22.71,-141.17 46.35,-65.7 107.35,0.96 365.19,-56.92 451.35,-29.7 452.4,-29.37 453.46,-28.98 454.52,-28.55"/>
<polygon fill="green" stroke="green" stroke-width="0.19" points="456.26,-31.6 463.62,-23.98 453.11,-25.35 456.26,-31.6"/>
</g>
<!-- &#45;9&#45;&gt;2 -->
<g id="edge42" class="edge">
<title>&#45;9&#45;&gt;2</title>
<path fill="none" stroke="green" stroke-width="0.23" d="M304.58,-150.95C343.28,-146.99 462.16,-133 490.35,-108.12 510.01,-90.77 517.96,-60.87 521.17,-39.81"/>
<polygon fill="green" stroke="green" stroke-width="0.23" points="524.67,-40.08 522.46,-29.72 517.72,-39.2 524.67,-40.08"/>
</g>
<!-- &#45;9&#45;&gt;3 -->
<g id="edge43" class="edge">
<title>&#45;9&#45;&gt;3</title>
<path fill="none" stroke="green" stroke-width="0.26" d="M304.47,-151.86C397.22,-149.75 991.85,-135.21 1017.35,-108.12 1030.27,-94.39 1029.83,-79.84 1017.35,-65.7 992.54,-37.59 727.88,-21.5 644.41,-17.1"/>
<polygon fill="green" stroke="green" stroke-width="0.26" points="644.47,-13.59 634.3,-16.57 644.11,-20.58 644.47,-13.59"/>
</g>
<!-- &#45;9&#45;&gt;4 -->
<g id="edge44" class="edge">
<title>&#45;9&#45;&gt;4</title>
<path fill="none" stroke="red" stroke-width="0.81" d="M304.45,-151.84C395.85,-149.62 974.53,-134.53 999.35,-108.12 1012.26,-94.38 1012.08,-79.61 999.35,-65.7 938.51,0.8 681.29,-56.86 595.35,-29.7 594.29,-29.37 593.24,-28.98 592.18,-28.55"/>
<polygon fill="red" stroke="red" stroke-width="0.81" points="593.59,-25.34 583.08,-23.98 590.44,-31.6 593.59,-25.34"/>
</g>
<!-- 183 -->
<g id="node26" class="node">
<title>183</title>
<ellipse fill="white" stroke="black" cx="76.35" cy="-86.91" rx="21.43" ry="21.43"/>
<text text-anchor="middle" x="76.35" y="-84.71" font-family="Times New Roman,serif" font-size="9.00">183</text>
</g>
<!-- &#45;9&#45;&gt;183 -->
<g id="edge98" class="edge">
<title>&#45;9&#45;&gt;183</title>
<path fill="none" stroke="red" stroke-width="0.42" d="M280.12,-150.78C249.65,-147.09 168.36,-135.27 106.35,-108.12 104.77,-107.43 103.18,-106.66 101.6,-105.82"/>
<polygon fill="red" stroke="red" stroke-width="0.42" points="103.24,-102.72 92.86,-100.58 99.64,-108.72 103.24,-102.72"/>
</g>
<!-- &#45;10 -->
<g id="node10" class="node">
<title>&#45;10</title>
<polygon fill="lightgray" stroke="black" points="566.85,-95.91 537.85,-95.91 537.85,-77.91 566.85,-77.91 566.85,-95.91"/>
<text text-anchor="middle" x="552.35" y="-84.71" font-family="Times New Roman,serif" font-size="9.00">&#45;10</text>
</g>
<!-- &#45;10&#45;&gt;0 -->
<g id="edge45" class="edge">
<title>&#45;10&#45;&gt;0</title>
<path fill="none" stroke="red" stroke-width="0.24" d="M537.59,-77.79C517.88,-66.92 481.9,-47.01 451.35,-29.7 450.54,-29.24 449.72,-28.78 448.9,-28.3"/>
<polygon fill="red" stroke="red" stroke-width="0.24" points="450.45,-25.16 440.03,-23.22 446.96,-31.23 450.45,-25.16"/>
</g>
<!-- &#45;10&#45;&gt;1 -->
<g id="edge46" class="edge">
<title>&#45;10&#45;&gt;1</title>
<path fill="none" stroke="red" stroke-width="0.31" d="M543.52,-77.87C531.41,-66.86 509.36,-46.8 493.62,-32.47"/>
<polygon fill="red" stroke="red" stroke-width="0.31" points="495.8,-29.72 486.05,-25.58 491.09,-34.9 495.8,-29.72"/>
</g>
<!-- &#45;10&#45;&gt;2 -->
<g id="edge47" class="edge">
<title>&#45;10&#45;&gt;2</title>
<path fill="none" stroke="green" stroke-width="0.25" d="M549.02,-77.87C545.06,-68.31 538.28,-51.93 532.68,-38.4"/>
<polygon fill="green" stroke="green" stroke-width="0.25" points="535.76,-36.67 528.7,-28.77 529.29,-39.35 535.76,-36.67"/>
</g>
<!-- &#45;10&#45;&gt;3 -->
<g id="edge48" class="edge">
<title>&#45;10&#45;&gt;3</title>
<path fill="none" stroke="green" stroke-width="0.56" d="M560.04,-77.87C570.36,-67.08 588.98,-47.6 602.62,-33.35"/>
<polygon fill="green" stroke="green" stroke-width="0.56" points="605.21,-35.7 609.59,-26.05 600.15,-30.86 605.21,-35.7"/>
</g>
<!-- &#45;10&#45;&gt;4 -->
<g id="edge49" class="edge">
<title>&#45;10&#45;&gt;4</title>
<path fill="none" stroke="red" stroke-width="0.22" d="M554.53,-77.87C557.07,-68.52 561.37,-52.63 564.99,-39.28"/>
<polygon fill="red" stroke="red" stroke-width="0.22" points="568.46,-39.86 567.7,-29.29 561.71,-38.03 568.46,-39.86"/>
</g>
<!-- &#45;11 -->
<g id="node11" class="node">
<title>&#45;11</title>
<polygon fill="lightgray" stroke="black" points="144.85,-95.91 115.85,-95.91 115.85,-77.91 144.85,-77.91 144.85,-95.91"/>
<text text-anchor="middle" x="130.35" y="-84.71" font-family="Times New Roman,serif" font-size="9.00">&#45;11</text>
</g>
<!-- &#45;11&#45;&gt;0 -->
<g id="edge50" class="edge">
<title>&#45;11&#45;&gt;0</title>
<path fill="none" stroke="green" stroke-width="0.13" d="M138.04,-77.63C142.42,-73.41 148.24,-68.58 154.35,-65.7 239.04,-25.8 352.44,-17.75 402.18,-16.19"/>
<polygon fill="green" stroke="green" stroke-width="0.13" points="402.42,-19.68 412.33,-15.93 402.25,-12.68 402.42,-19.68"/>
</g>
<!-- &#45;11&#45;&gt;1 -->
<g id="edge51" class="edge">
<title>&#45;11&#45;&gt;1</title>
<path fill="none" stroke="green" stroke-width="0.32" d="M137.55,-77.89C141.96,-73.53 147.96,-68.48 154.35,-65.7 276.28,-12.66 325.22,-71.78 451.35,-29.7 452.23,-29.41 453.11,-29.08 453.99,-28.72"/>
<polygon fill="green" stroke="green" stroke-width="0.32" points="455.71,-31.78 463.1,-24.18 452.58,-25.51 455.71,-31.78"/>
</g>
<!-- &#45;11&#45;&gt;2 -->
<g id="edge52" class="edge">
<title>&#45;11&#45;&gt;2</title>
<path fill="none" stroke="red" stroke-width="0.17" d="M137.54,-77.85C141.93,-73.48 147.93,-68.43 154.35,-65.7 296.23,-5.38 352.71,-77.27 499.35,-29.7 500.4,-29.36 501.46,-28.97 502.51,-28.53"/>
<polygon fill="red" stroke="red" stroke-width="0.17" points="504.26,-31.57 511.6,-23.94 501.1,-25.33 504.26,-31.57"/>
</g>
<!-- &#45;11&#45;&gt;4 -->
<g id="edge53" class="edge">
<title>&#45;11&#45;&gt;4</title>
<path fill="none" stroke="green" stroke-width="0.52" d="M137.52,-77.82C141.92,-73.44 147.92,-68.39 154.35,-65.7 316.2,1.9 380.17,-82.76 547.35,-29.7 548.4,-29.36 549.46,-28.98 550.52,-28.55"/>
<polygon fill="green" stroke="green" stroke-width="0.52" points="552.26,-31.59 559.61,-23.97 549.11,-25.34 552.26,-31.59"/>
</g>
<!-- &#45;12 -->
<g id="node12" class="node">
<title>&#45;12</title>
<polygon fill="lightgray" stroke="black" points="613.85,-95.91 584.85,-95.91 584.85,-77.91 613.85,-77.91 613.85,-95.91"/>
<text text-anchor="middle" x="599.35" y="-84.71" font-family="Times New Roman,serif" font-size="9.00">&#45;12</text>
</g>
<!-- &#45;12&#45;&gt;0 -->
<g id="edge54" class="edge">
<title>&#45;12&#45;&gt;0</title>
<path fill="none" stroke="red" stroke-width="0.51" d="M591.54,-77.87C587.12,-73.73 581.31,-68.89 575.35,-65.7 524.75,-38.63 504.14,-52.2 451.35,-29.7 450.5,-29.34 449.64,-28.95 448.78,-28.54"/>
<polygon fill="red" stroke="red" stroke-width="0.51" points="450.24,-25.36 439.76,-23.77 446.96,-31.54 450.24,-25.36"/>
</g>
<!-- &#45;12&#45;&gt;1 -->
<g id="edge55" class="edge">
<title>&#45;12&#45;&gt;1</title>
<path fill="none" stroke="red" stroke-width="0.13" d="M590.88,-77.85C586.47,-73.89 580.85,-69.23 575.35,-65.7 543.91,-45.49 532.45,-47.05 499.35,-29.7 498.53,-29.27 497.7,-28.82 496.86,-28.37"/>
<polygon fill="red" stroke="red" stroke-width="0.13" points="498.38,-25.21 487.95,-23.37 494.96,-31.32 498.38,-25.21"/>
</g>
<!-- &#45;12&#45;&gt;2 -->
<g id="edge56" class="edge">
<title>&#45;12&#45;&gt;2</title>
<path fill="none" stroke="red" stroke-width="0.11" d="M590.63,-77.87C578.68,-66.86 556.92,-46.8 541.38,-32.47"/>
<polygon fill="red" stroke="red" stroke-width="0.11" points="543.63,-29.79 533.91,-25.58 538.89,-34.93 543.63,-29.79"/>
</g>
<!-- &#45;12&#45;&gt;3 -->
<g id="edge57" class="edge">
<title>&#45;12&#45;&gt;3</title>
<path fill="none" stroke="green" stroke-width="0.21" d="M601.64,-77.87C604.32,-68.52 608.85,-52.63 612.66,-39.28"/>
<polygon fill="green" stroke="green" stroke-width="0.21" points="616.13,-39.87 615.51,-29.29 609.4,-37.95 616.13,-39.87"/>
</g>
<!-- &#45;12&#45;&gt;4 -->
<g id="edge58" class="edge">
<title>&#45;12&#45;&gt;4</title>
<path fill="none" stroke="red" stroke-width="0.13" d="M596.14,-77.87C592.31,-68.31 585.77,-51.93 580.36,-38.4"/>
<polygon fill="red" stroke="red" stroke-width="0.13" points="583.48,-36.76 576.51,-28.77 576.98,-39.36 583.48,-36.76"/>
</g>
<!-- &#45;13 -->
<g id="node13" class="node">
<title>&#45;13</title>
<polygon fill="lightgray" stroke="black" points="660.85,-95.91 631.85,-95.91 631.85,-77.91 660.85,-77.91 660.85,-95.91"/>
<text text-anchor="middle" x="646.35" y="-84.71" font-family="Times New Roman,serif" font-size="9.00">&#45;13</text>
</g>
<!-- &#45;13&#45;&gt;0 -->
<g id="edge59" class="edge">
<title>&#45;13&#45;&gt;0</title>
<path fill="none" stroke="green" stroke-width="0.35" d="M639.01,-77.68C634.83,-73.48 629.25,-68.65 623.35,-65.7 553.49,-30.77 524.31,-57.57 451.35,-29.7 450.48,-29.37 449.61,-29.01 448.74,-28.63"/>
<polygon fill="green" stroke="green" stroke-width="0.35" points="450.17,-25.43 439.68,-23.96 446.97,-31.65 450.17,-25.43"/>
</g>
<!-- &#45;13&#45;&gt;1 -->
<g id="edge60" class="edge">
<title>&#45;13&#45;&gt;1</title>
<path fill="none" stroke="green" stroke-width="0.25" d="M638.92,-77.86C634.71,-73.71 629.13,-68.87 623.35,-65.7 573.04,-38.1 552.14,-52.2 499.35,-29.7 498.5,-29.34 497.64,-28.95 496.78,-28.54"/>
<polygon fill="green" stroke="green" stroke-width="0.25" points="498.24,-25.36 487.76,-23.77 494.96,-31.54 498.24,-25.36"/>
</g>
<!-- &#45;13&#45;&gt;2 -->
<g id="edge61" class="edge">
<title>&#45;13&#45;&gt;2</title>
<path fill="none" stroke="green" stroke-width="0.29" stroke-dasharray="1,5" d="M638.29,-77.83C634.07,-73.86 628.68,-69.2 623.35,-65.7 592.12,-45.16 580.45,-47.05 547.35,-29.7 546.53,-29.27 545.7,-28.82 544.86,-28.37"/>
<polygon fill="green" stroke="green" stroke-width="0.29" points="546.38,-25.21 535.95,-23.37 542.96,-31.32 546.38,-25.21"/>
</g>
<!-- &#45;13&#45;&gt;3 -->
<g id="edge62" class="edge">
<title>&#45;13&#45;&gt;3</title>
<path fill="none" stroke="green" stroke-width="0.58" d="M643.25,-77.87C639.59,-68.37 633.33,-52.12 628.13,-38.64"/>
<polygon fill="green" stroke="green" stroke-width="0.58" points="631.29,-37.11 624.43,-29.03 624.76,-39.62 631.29,-37.11"/>
</g>
<!-- &#45;13&#45;&gt;4 -->
<g id="edge63" class="edge">
<title>&#45;13&#45;&gt;4</title>
<path fill="none" stroke="red" stroke-width="0.62" d="M637.75,-77.87C625.95,-66.86 604.48,-46.8 589.14,-32.47"/>
<polygon fill="red" stroke="red" stroke-width="0.62" points="591.46,-29.85 581.77,-25.58 586.69,-34.97 591.46,-29.85"/>
</g>
<!-- &#45;14 -->
<g id="node14" class="node">
<title>&#45;14</title>
<polygon fill="lightgray" stroke="black" points="707.85,-95.91 678.85,-95.91 678.85,-77.91 707.85,-77.91 707.85,-95.91"/>
<text text-anchor="middle" x="693.35" y="-84.71" font-family="Times New Roman,serif" font-size="9.00">&#45;14</text>
</g>
<!-- &#45;14&#45;&gt;0 -->
<g id="edge64" class="edge">
<title>&#45;14&#45;&gt;0</title>
<path fill="none" stroke="red" stroke-width="0.43" d="M686.06,-77.58C681.89,-73.35 676.31,-68.52 670.35,-65.7 581.19,-23.51 544.24,-62.89 451.35,-29.7 450.48,-29.39 449.6,-29.04 448.73,-28.68"/>
<polygon fill="red" stroke="red" stroke-width="0.43" points="450.14,-25.47 439.64,-24.07 446.98,-31.72 450.14,-25.47"/>
</g>
<!-- &#45;14&#45;&gt;1 -->
<g id="edge65" class="edge">
<title>&#45;14&#45;&gt;1</title>
<path fill="none" stroke="red" stroke-width="0.44" d="M686.01,-77.69C681.82,-73.48 676.24,-68.65 670.35,-65.7 600.9,-30.92 571.89,-57.45 499.35,-29.7 498.48,-29.37 497.61,-29.01 496.74,-28.63"/>
<polygon fill="red" stroke="red" stroke-width="0.44" points="498.18,-25.43 487.68,-23.96 494.97,-31.65 498.18,-25.43"/>
</g>
<!-- &#45;14&#45;&gt;2 -->
<g id="edge66" class="edge">
<title>&#45;14&#45;&gt;2</title>
<path fill="none" stroke="green" stroke-width="0.24" d="M685.92,-77.87C681.7,-73.72 676.13,-68.88 670.35,-65.7 620.44,-38.25 599.72,-52.09 547.35,-29.7 546.5,-29.33 545.64,-28.95 544.78,-28.54"/>
<polygon fill="green" stroke="green" stroke-width="0.24" points="546.24,-25.35 535.76,-23.76 542.96,-31.54 546.24,-25.35"/>
</g>
<!-- &#45;14&#45;&gt;3 -->
<g id="edge67" class="edge">
<title>&#45;14&#45;&gt;3</title>
<path fill="none" stroke="green" stroke-width="0.55" stroke-dasharray="1,5" d="M684.86,-77.87C673.22,-66.86 652.03,-46.8 636.91,-32.47"/>
<polygon fill="green" stroke="green" stroke-width="0.55" points="639.3,-29.92 629.63,-25.58 634.48,-35 639.3,-29.92"/>
</g>
<!-- &#45;14&#45;&gt;4 -->
<g id="edge68" class="edge">
<title>&#45;14&#45;&gt;4</title>
<path fill="none" stroke="red" stroke-width="0.63" d="M685.28,-77.84C681.06,-73.88 675.67,-69.22 670.35,-65.7 639.51,-45.3 628.05,-46.95 595.35,-29.7 594.53,-29.27 593.7,-28.82 592.86,-28.37"/>
<polygon fill="red" stroke="red" stroke-width="0.63" points="594.39,-25.21 583.95,-23.36 590.96,-31.31 594.39,-25.21"/>
</g>
<!-- &#45;15 -->
<g id="node15" class="node">
<title>&#45;15</title>
<polygon fill="lightgray" stroke="black" points="754.85,-95.91 725.85,-95.91 725.85,-77.91 754.85,-77.91 754.85,-95.91"/>
<text text-anchor="middle" x="740.35" y="-84.71" font-family="Times New Roman,serif" font-size="9.00">&#45;15</text>
</g>
<!-- &#45;15&#45;&gt;0 -->
<g id="edge69" class="edge">
<title>&#45;15&#45;&gt;0</title>
<path fill="none" stroke="red" stroke-width="0.36" d="M733.09,-77.51C728.93,-73.26 723.35,-68.43 717.35,-65.7 608.8,-16.21 564.25,-68.24 451.35,-29.7 450.47,-29.4 449.59,-29.07 448.71,-28.71"/>
<polygon fill="red" stroke="red" stroke-width="0.36" points="450.12,-25.5 439.61,-24.15 446.99,-31.76 450.12,-25.5"/>
</g>
<!-- &#45;15&#45;&gt;1 -->
<g id="edge70" class="edge">
<title>&#45;15&#45;&gt;1</title>
<path fill="none" stroke="red" stroke-width="0.13" d="M733.06,-77.58C728.89,-73.35 723.31,-68.52 717.35,-65.7 628.6,-23.66 591.81,-62.77 499.35,-29.7 498.48,-29.39 497.6,-29.04 496.73,-28.68"/>
<polygon fill="red" stroke="red" stroke-width="0.13" points="498.14,-25.47 487.64,-24.07 494.98,-31.71 498.14,-25.47"/>
</g>
<!-- &#45;15&#45;&gt;2 -->
<g id="edge71" class="edge">
<title>&#45;15&#45;&gt;2</title>
<path fill="none" stroke="green" stroke-width="0.1" d="M733.01,-77.69C728.82,-73.49 723.24,-68.65 717.35,-65.7 648.31,-31.08 619.46,-57.34 547.35,-29.7 546.48,-29.37 545.61,-29.01 544.74,-28.62"/>
<polygon fill="green" stroke="green" stroke-width="0.1" points="546.18,-25.43 535.68,-23.96 542.97,-31.65 546.18,-25.43"/>
</g>
<!-- &#45;15&#45;&gt;3 -->
<g id="edge72" class="edge">
<title>&#45;15&#45;&gt;3</title>
<path fill="none" stroke="red" stroke-width="0.77" d="M732.24,-77.89C728.01,-73.94 722.63,-69.28 717.35,-65.7 693.04,-49.22 662.56,-34.55 642.11,-25.46"/>
<polygon fill="red" stroke="red" stroke-width="0.77" points="643.5,-22.25 632.94,-21.46 640.71,-28.67 643.5,-22.25"/>
</g>
<!-- &#45;15&#45;&gt;4 -->
<g id="edge73" class="edge">
<title>&#45;15&#45;&gt;4</title>
<path fill="none" stroke="green" stroke-width="0.49" d="M732.91,-77.87C728.7,-73.72 723.12,-68.88 717.35,-65.7 667.84,-38.4 647.31,-51.98 595.35,-29.7 594.5,-29.33 593.64,-28.95 592.78,-28.54"/>
<polygon fill="green" stroke="green" stroke-width="0.49" points="594.24,-25.35 583.76,-23.76 590.96,-31.54 594.24,-25.35"/>
</g>
<!-- &#45;16 -->
<g id="node16" class="node">
<title>&#45;16</title>
<polygon fill="lightgray" stroke="black" points="801.85,-95.91 772.85,-95.91 772.85,-77.91 801.85,-77.91 801.85,-95.91"/>
<text text-anchor="middle" x="787.35" y="-84.71" font-family="Times New Roman,serif" font-size="9.00">&#45;16</text>
</g>
<!-- &#45;16&#45;&gt;0 -->
<g id="edge74" class="edge">
<title>&#45;16&#45;&gt;0</title>
<path fill="none" stroke="green" stroke-width="0.13" d="M780.51,-77.88C776.32,-73.51 770.57,-68.46 764.35,-65.7 636.36,-8.89 584.32,-73.61 451.35,-29.7 450.47,-29.41 449.59,-29.08 448.71,-28.73"/>
<polygon fill="green" stroke="green" stroke-width="0.13" points="450.11,-25.52 439.6,-24.2 446.99,-31.79 450.11,-25.52"/>
</g>
<!-- &#45;16&#45;&gt;1 -->
<g id="edge75" class="edge">
<title>&#45;16&#45;&gt;1</title>
<path fill="none" stroke="red" stroke-width="0.32" d="M780.09,-77.51C775.93,-73.26 770.35,-68.43 764.35,-65.7 656.21,-16.36 611.83,-68.12 499.35,-29.7 498.47,-29.4 497.59,-29.07 496.71,-28.71"/>
<polygon fill="red" stroke="red" stroke-width="0.32" points="498.12,-25.5 487.62,-24.15 494.99,-31.76 498.12,-25.5"/>
</g>
<!-- &#45;16&#45;&gt;2 -->
<g id="edge76" class="edge">
<title>&#45;16&#45;&gt;2</title>
<path fill="none" stroke="green" stroke-width="0.62" d="M780.06,-77.58C775.89,-73.35 770.31,-68.52 764.35,-65.7 676.01,-23.82 639.39,-62.66 547.35,-29.7 546.48,-29.39 545.6,-29.04 544.73,-28.67"/>
<polygon fill="green" stroke="green" stroke-width="0.62" points="546.14,-25.47 535.64,-24.07 542.98,-31.71 546.14,-25.47"/>
</g>
<!-- &#45;16&#45;&gt;3 -->
<g id="edge77" class="edge">
<title>&#45;16&#45;&gt;3</title>
<path fill="none" stroke="red" stroke-width="0.11" d="M779.44,-77.57C775.26,-73.54 769.87,-68.9 764.35,-65.7 724.98,-42.84 673.51,-28.28 643.67,-21.13"/>
<polygon fill="red" stroke="red" stroke-width="0.11" points="644.25,-17.67 633.72,-18.83 642.67,-24.49 644.25,-17.67"/>
</g>
<!-- &#45;16&#45;&gt;4 -->
<g id="edge78" class="edge">
<title>&#45;16&#45;&gt;4</title>
<path fill="none" stroke="green" stroke-width="0.53" d="M780.01,-77.69C775.82,-73.49 770.24,-68.66 764.35,-65.7 695.72,-31.23 667.04,-57.23 595.35,-29.7 594.48,-29.37 593.61,-29.01 592.74,-28.62"/>
<polygon fill="green" stroke="green" stroke-width="0.53" points="594.18,-25.42 583.69,-23.95 590.97,-31.65 594.18,-25.42"/>
</g>
<!-- &#45;17 -->
<g id="node17" class="node">
<title>&#45;17</title>
<polygon fill="lightgray" stroke="black" points="848.85,-95.91 819.85,-95.91 819.85,-77.91 848.85,-77.91 848.85,-95.91"/>
<text text-anchor="middle" x="834.35" y="-84.71" font-family="Times New Roman,serif" font-size="9.00">&#45;17</text>
</g>
<!-- &#45;17&#45;&gt;0 -->
<g id="edge79" class="edge">
<title>&#45;17&#45;&gt;0</title>
<path fill="none" stroke="red" stroke-width="0.17" stroke-dasharray="1,5" d="M827.53,-77.84C823.34,-73.47 817.59,-68.41 811.35,-65.7 663.9,-1.55 604.41,-78.98 451.35,-29.7 450.3,-29.36 449.24,-28.97 448.19,-28.54"/>
<polygon fill="red" stroke="red" stroke-width="0.17" points="449.6,-25.33 439.09,-23.95 446.44,-31.58 449.6,-25.33"/>
</g>
<!-- &#45;17&#45;&gt;1 -->
<g id="edge80" class="edge">
<title>&#45;17&#45;&gt;1</title>
<path fill="none" stroke="red" stroke-width="0.28" d="M827.51,-77.88C823.32,-73.51 817.57,-68.46 811.35,-65.7 683.78,-9.04 631.89,-73.49 499.35,-29.7 498.47,-29.41 497.59,-29.08 496.71,-28.73"/>
<polygon fill="red" stroke="red" stroke-width="0.28" points="498.11,-25.52 487.6,-24.2 494.99,-31.79 498.11,-25.52"/>
</g>
<!-- &#45;17&#45;&gt;2 -->
<g id="edge81" class="edge">
<title>&#45;17&#45;&gt;2</title>
<path fill="none" stroke="red" stroke-width="0.96" d="M827.09,-77.51C822.93,-73.26 817.35,-68.44 811.35,-65.7 703.62,-16.52 659.4,-68.01 547.35,-29.7 546.47,-29.4 545.59,-29.07 544.71,-28.71"/>
<polygon fill="red" stroke="red" stroke-width="0.96" points="546.12,-25.5 535.62,-24.14 542.99,-31.76 546.12,-25.5"/>
</g>
<!-- &#45;17&#45;&gt;3 -->
<g id="edge82" class="edge">
<title>&#45;17&#45;&gt;3</title>
<path fill="none" stroke="green" stroke-width="0.38" d="M826.96,-77.79C822.75,-73.63 817.17,-68.79 811.35,-65.7 755.96,-36.33 682.27,-23.52 644.3,-18.57"/>
<polygon fill="green" stroke="green" stroke-width="0.38" points="644.51,-15.07 634.16,-17.33 643.66,-22.02 644.51,-15.07"/>
</g>
<!-- &#45;17&#45;&gt;4 -->
<g id="edge83" class="edge">
<title>&#45;17&#45;&gt;4</title>
<path fill="none" stroke="red" stroke-width="0.13" d="M827.06,-77.59C822.89,-73.36 817.3,-68.52 811.35,-65.7 723.42,-23.97 686.96,-62.55 595.35,-29.7 594.48,-29.39 593.6,-29.04 592.73,-28.67"/>
<polygon fill="red" stroke="red" stroke-width="0.13" points="594.14,-25.47 583.64,-24.07 590.98,-31.71 594.14,-25.47"/>
</g>
<!-- &#45;18 -->
<g id="node18" class="node">
<title>&#45;18</title>
<polygon fill="lightgray" stroke="black" points="989.85,-95.91 960.85,-95.91 960.85,-77.91 989.85,-77.91 989.85,-95.91"/>
<text text-anchor="middle" x="975.35" y="-84.71" font-family="Times New Roman,serif" font-size="9.00">&#45;18</text>
</g>
<!-- &#45;18&#45;&gt;1 -->
<g id="edge84" class="edge">
<title>&#45;18&#45;&gt;1</title>
<path fill="none" stroke="green" stroke-width="0.2" d="M968.55,-77.79C964.37,-73.4 958.62,-68.35 952.35,-65.7 766.34,12.98 692.22,-89.64 499.35,-29.7 498.29,-29.37 497.23,-28.99 496.18,-28.57"/>
<polygon fill="green" stroke="green" stroke-width="0.2" points="497.58,-25.36 487.07,-24 494.44,-31.61 497.58,-25.36"/>
</g>
<!-- &#45;18&#45;&gt;2 -->
<g id="edge85" class="edge">
<title>&#45;18&#45;&gt;2</title>
<path fill="none" stroke="green" stroke-width="0.45" d="M968.54,-77.82C964.35,-73.43 958.6,-68.38 952.35,-65.7 786.25,5.48 719.66,-84.14 547.35,-29.7 546.29,-29.37 545.24,-28.98 544.18,-28.55"/>
<polygon fill="green" stroke="green" stroke-width="0.45" points="545.59,-25.35 535.08,-23.98 542.44,-31.6 545.59,-25.35"/>
</g>
<!-- &#45;18&#45;&gt;3 -->
<g id="edge86" class="edge">
<title>&#45;18&#45;&gt;3</title>
<path fill="none" stroke="green" stroke-width="0.2" d="M968.08,-77.55C963.91,-73.3 958.33,-68.48 952.35,-65.7 897.23,-40.1 711.97,-23.2 644.34,-17.75"/>
<polygon fill="green" stroke="green" stroke-width="0.2" points="644.42,-14.25 634.18,-16.95 643.87,-21.23 644.42,-14.25"/>
</g>
<!-- &#45;18&#45;&gt;4 -->
<g id="edge87" class="edge">
<title>&#45;18&#45;&gt;4</title>
<path fill="none" stroke="green" stroke-width="0.31" d="M968.53,-77.84C964.34,-73.47 958.59,-68.42 952.35,-65.7 806.14,-2.02 747.12,-78.64 595.35,-29.7 594.3,-29.36 593.24,-28.97 592.19,-28.54"/>
<polygon fill="green" stroke="green" stroke-width="0.31" points="593.6,-25.33 583.09,-23.95 590.44,-31.58 593.6,-25.33"/>
</g>
<!-- &#45;19 -->
<g id="node19" class="node">
<title>&#45;19</title>
<polygon fill="lightgray" stroke="black" points="895.85,-95.91 866.85,-95.91 866.85,-77.91 895.85,-77.91 895.85,-95.91"/>
<text text-anchor="middle" x="881.35" y="-84.71" font-family="Times New Roman,serif" font-size="9.00">&#45;19</text>
</g>
<!-- &#45;19&#45;&gt;0 -->
<g id="edge88" class="edge">
<title>&#45;19&#45;&gt;0</title>
<path fill="none" stroke="red" stroke-width="0.13" stroke-dasharray="1,5" d="M874.54,-77.81C870.35,-73.43 864.6,-68.38 858.35,-65.7 691.42,5.79 624.52,-84.37 451.35,-29.7 450.29,-29.37 449.23,-28.98 448.18,-28.56"/>
<polygon fill="red" stroke="red" stroke-width="0.13" points="449.59,-25.35 439.08,-23.98 446.44,-31.6 449.59,-25.35"/>
</g>
<!-- &#45;19&#45;&gt;1 -->
<g id="edge89" class="edge">
<title>&#45;19&#45;&gt;1</title>
<path fill="none" stroke="red" stroke-width="0.63" d="M874.53,-77.84C870.34,-73.47 864.59,-68.41 858.35,-65.7 711.31,-1.71 651.98,-78.87 499.35,-29.7 498.3,-29.36 497.24,-28.97 496.19,-28.54"/>
<polygon fill="red" stroke="red" stroke-width="0.63" points="497.6,-25.33 487.09,-23.95 494.44,-31.58 497.6,-25.33"/>
</g>
<!-- &#45;19&#45;&gt;2 -->
<g id="edge90" class="edge">
<title>&#45;19&#45;&gt;2</title>
<path fill="none" stroke="red" stroke-width="0.62" d="M874.51,-77.88C870.32,-73.51 864.57,-68.46 858.35,-65.7 731.19,-9.2 679.46,-73.38 547.35,-29.7 546.47,-29.41 545.59,-29.08 544.71,-28.73"/>
<polygon fill="red" stroke="red" stroke-width="0.62" points="546.11,-25.52 535.6,-24.2 542.99,-31.79 546.11,-25.52"/>
</g>
<!-- &#45;19&#45;&gt;3 -->
<g id="edge91" class="edge">
<title>&#45;19&#45;&gt;3</title>
<path fill="none" stroke="red" stroke-width="0.45" d="M874.01,-77.68C869.83,-73.48 864.25,-68.64 858.35,-65.7 786.19,-29.65 689.24,-19.65 644.23,-16.89"/>
<polygon fill="red" stroke="red" stroke-width="0.45" points="644.38,-13.39 634.2,-16.35 644,-20.38 644.38,-13.39"/>
</g>
<!-- &#45;19&#45;&gt;4 -->
<g id="edge92" class="edge">
<title>&#45;19&#45;&gt;4</title>
<path fill="none" stroke="red" stroke-width="0.27" d="M874.09,-77.52C869.93,-73.27 864.35,-68.44 858.35,-65.7 751.04,-16.68 706.97,-67.9 595.35,-29.7 594.47,-29.4 593.59,-29.07 592.71,-28.71"/>
<polygon fill="red" stroke="red" stroke-width="0.27" points="594.12,-25.5 583.62,-24.14 590.99,-31.75 594.12,-25.5"/>
</g>
<!-- &#45;20 -->
<g id="node20" class="node">
<title>&#45;20</title>
<polygon fill="lightgray" stroke="black" points="942.85,-95.91 913.85,-95.91 913.85,-77.91 942.85,-77.91 942.85,-95.91"/>
<text text-anchor="middle" x="928.35" y="-84.71" font-family="Times New Roman,serif" font-size="9.00">&#45;20</text>
</g>
<!-- &#45;20&#45;&gt;0 -->
<g id="edge93" class="edge">
<title>&#45;20&#45;&gt;0</title>
<path fill="none" stroke="red" stroke-width="0.35" d="M921.55,-77.79C917.37,-73.4 911.62,-68.35 905.35,-65.7 718.92,13.14 644.64,-89.76 451.35,-29.7 450.29,-29.37 449.23,-28.99 448.18,-28.57"/>
<polygon fill="red" stroke="red" stroke-width="0.35" points="449.58,-25.36 439.07,-24 446.44,-31.61 449.58,-25.36"/>
</g>
<!-- &#45;20&#45;&gt;1 -->
<g id="edge94" class="edge">
<title>&#45;20&#45;&gt;1</title>
<path fill="none" stroke="red" stroke-width="0.62" d="M921.54,-77.81C917.35,-73.43 911.6,-68.38 905.35,-65.7 738.83,5.63 672.09,-84.25 499.35,-29.7 498.29,-29.37 497.23,-28.98 496.18,-28.56"/>
<polygon fill="red" stroke="red" stroke-width="0.62" points="497.59,-25.35 487.08,-23.98 494.44,-31.6 497.59,-25.35"/>
</g>
<!-- &#45;20&#45;&gt;2 -->
<g id="edge95" class="edge">
<title>&#45;20&#45;&gt;2</title>
<path fill="none" stroke="red" stroke-width="0.39" d="M921.53,-77.84C917.34,-73.47 911.59,-68.41 905.35,-65.7 758.73,-1.87 699.55,-78.76 547.35,-29.7 546.3,-29.36 545.24,-28.97 544.19,-28.54"/>
<polygon fill="red" stroke="red" stroke-width="0.39" points="545.6,-25.33 535.09,-23.95 542.44,-31.58 545.6,-25.33"/>
</g>
<!-- &#45;20&#45;&gt;3 -->
<g id="edge96" class="edge">
<title>&#45;20&#45;&gt;3</title>
<path fill="none" stroke="green" stroke-width="0.99" stroke-dasharray="1,5" d="M921.05,-77.6C916.88,-73.38 911.29,-68.55 905.35,-65.7 816.42,-23.09 696.38,-16.49 644.72,-15.75"/>
<polygon fill="green" stroke="green" stroke-width="0.99" points="644.52,-12.25 634.49,-15.67 644.46,-19.25 644.52,-12.25"/>
</g>
<!-- &#45;20&#45;&gt;4 -->
<g id="edge97" class="edge">
<title>&#45;20&#45;&gt;4</title>
<path fill="none" stroke="red" stroke-width="0.29" d="M921.51,-77.88C917.32,-73.52 911.57,-68.46 905.35,-65.7 778.6,-9.36 727.03,-73.26 595.35,-29.7 594.47,-29.41 593.59,-29.08 592.71,-28.73"/>
<polygon fill="red" stroke="red" stroke-width="0.29" points="594.11,-25.52 583.6,-24.2 590.99,-31.79 594.11,-25.52"/>
</g>
<!-- 183&#45;&gt;1 -->
<g id="edge99" class="edge">
<title>183&#45;&gt;1</title>
<path fill="none" stroke="green" stroke-width="0.37" d="M92.7,-72.82C96.93,-70.03 101.63,-67.41 106.35,-65.7 251.25,-13.06 304.71,-77.27 451.35,-29.7 452.4,-29.36 453.46,-28.97 454.51,-28.53"/>
<polygon fill="green" stroke="green" stroke-width="0.37" points="456.26,-31.57 463.6,-23.94 453.1,-25.33 456.26,-31.57"/>
</g>
</g>
</svg>
