<?xml version="1.0" encoding="utf-8" standalone="no"?>
<!DOCTYPE svg PUBLIC "-//W3C//DTD SVG 1.1//EN"
  "http://www.w3.org/Graphics/SVG/1.1/DTD/svg11.dtd">
<svg height="345.6pt" version="1.1" viewBox="0 0 460.8 345.6" width="460.8pt" xmlns="http://www.w3.org/2000/svg" xmlns:xlink="http://www.w3.org/1999/xlink">
 <metadata>
  <rdf:RDF xmlns:cc="http://creativecommons.org/ns#" xmlns:dc="http://purl.org/dc/elements/1.1/" xmlns:rdf="http://www.w3.org/1999/02/22-rdf-syntax-ns#">
   <cc:Work>
    <dc:type rdf:resource="http://purl.org/dc/dcmitype/StillImage"/>
    <dc:date>2021-10-16T04:28:05.921304</dc:date>
    <dc:format>image/svg+xml</dc:format>
    <dc:creator>
     <cc:Agent>
      <dc:title>Matplotlib v3.4.3, https://matplotlib.org/</dc:title>
     </cc:Agent>
    </dc:creator>
   </cc:Work>
  </rdf:RDF>
 </metadata>
 <defs>
  <style type="text/css">*{stroke-linecap:butt;stroke-linejoin:round;}</style>
 </defs>
 <g id="figure_1">
  <g id="patch_1">
   <path d="M 0 345.6 
L 460.8 345.6 
L 460.8 0 
L 0 0 
z
" style="fill:#ffffff;"/>
  </g>
  <g id="axes_1">
   <g id="patch_2">
    <path d="M 57.6 307.584 
L 414.72 307.584 
L 414.72 41.472 
L 57.6 41.472 
z
" style="fill:#ffffff;"/>
   </g>
   <g id="PolyCollection_1">
    <path clip-path="url(#p99e1af9757)" d="M 73.832727 290.335125 
L 73.832727 295.488 
L 80.45833 275.815175 
L 87.083933 260.600055 
L 93.709536 258.512719 
L 100.335139 253.248267 
L 106.960742 252.305637 
L 113.586345 255.821256 
L 120.211948 252.915384 
L 126.837551 253.481288 
L 133.463154 253.541809 
L 140.088757 252.502727 
L 146.71436 248.238008 
L 153.339963 251.566071 
L 159.965566 253.620999 
L 166.591169 250.459131 
L 173.216772 247.600279 
L 179.842375 247.064183 
L 186.467978 250.223204 
L 193.093581 250.625516 
L 199.719184 248.507194 
L 206.344787 248.305001 
L 212.97039 244.987999 
L 219.595993 248.88769 
L 226.221596 246.078397 
L 232.847199 247.712081 
L 239.472801 245.520647 
L 246.098404 242.172758 
L 252.724007 246.823584 
L 259.34961 251.826746 
L 265.975213 244.486386 
L 272.600816 249.682403 
L 279.226419 247.866374 
L 285.852022 246.077973 
L 292.477625 244.367753 
L 299.103228 240.362957 
L 305.728831 246.129199 
L 312.354434 248.38742 
L 318.980037 246.690511 
L 325.60564 242.98573 
L 332.231243 247.142112 
L 338.856846 246.150692 
L 345.482449 243.952146 
L 352.108052 250.772386 
L 358.733655 245.651623 
L 365.359258 244.95022 
L 371.984861 244.781645 
L 378.610464 248.303183 
L 385.236067 245.957724 
L 391.86167 245.941782 
L 398.487273 246.675804 
L 398.487273 227.743054 
L 398.487273 227.743054 
L 391.86167 224.732255 
L 385.236067 225.857082 
L 378.610464 224.610429 
L 371.984861 223.990333 
L 365.359258 226.504554 
L 358.733655 232.398892 
L 352.108052 227.496214 
L 345.482449 224.516302 
L 338.856846 224.288667 
L 332.231243 232.921978 
L 325.60564 229.796502 
L 318.980037 227.329824 
L 312.354434 227.679034 
L 305.728831 225.490871 
L 299.103228 227.695862 
L 292.477625 229.333172 
L 285.852022 230.364889 
L 279.226419 225.704679 
L 272.600816 228.24255 
L 265.975213 228.265907 
L 259.34961 226.88774 
L 252.724007 226.765942 
L 246.098404 232.474117 
L 239.472801 227.356871 
L 232.847199 227.824808 
L 226.221596 231.153457 
L 219.595993 226.363109 
L 212.97039 229.868283 
L 206.344787 233.320428 
L 199.719184 230.606561 
L 193.093581 229.792185 
L 186.467978 231.046159 
L 179.842375 234.501936 
L 173.216772 236.189349 
L 166.591169 232.134114 
L 159.965566 237.696825 
L 153.339963 236.71324 
L 146.71436 237.512314 
L 140.088757 239.629385 
L 133.463154 238.930962 
L 126.837551 240.124091 
L 120.211948 241.148574 
L 113.586345 245.567414 
L 106.960742 240.657537 
L 100.335139 243.311741 
L 93.709536 242.76029 
L 87.083933 246.332133 
L 80.45833 257.745987 
L 73.832727 290.335125 
z
" style="fill:#1f77b4;fill-opacity:0.5;"/>
   </g>
   <g id="PolyCollection_2">
    <path clip-path="url(#p99e1af9757)" d="M 73.832727 190.091749 
L 73.832727 204.699167 
L 80.45833 167.484216 
L 87.083933 178.511201 
L 93.709536 169.366835 
L 100.335139 159.909024 
L 106.960742 156.331056 
L 113.586345 163.665139 
L 120.211948 158.879864 
L 126.837551 153.247709 
L 133.463154 158.455907 
L 140.088757 160.12799 
L 146.71436 155.255798 
L 153.339963 160.277091 
L 159.965566 154.433924 
L 166.591169 153.155533 
L 173.216772 148.653946 
L 179.842375 157.237303 
L 186.467978 153.446744 
L 193.093581 147.706329 
L 199.719184 159.290503 
L 206.344787 160.098855 
L 212.97039 155.005572 
L 219.595993 157.025307 
L 226.221596 157.17499 
L 232.847199 158.217303 
L 239.472801 150.599785 
L 246.098404 156.983949 
L 252.724007 147.776118 
L 259.34961 151.903611 
L 265.975213 142.022337 
L 272.600816 145.929948 
L 279.226419 147.827128 
L 285.852022 138.177281 
L 292.477625 137.628889 
L 299.103228 142.3035 
L 305.728831 134.987969 
L 312.354434 143.329978 
L 318.980037 140.969085 
L 325.60564 139.984906 
L 332.231243 105.23058 
L 338.856846 125.619589 
L 345.482449 156.796276 
L 352.108052 103.926319 
L 358.733655 146.393515 
L 365.359258 138.6427 
L 371.984861 155.159256 
L 378.610464 153.702932 
L 385.236067 142.849263 
L 391.86167 150.450425 
L 398.487273 141.415472 
L 398.487273 96.173083 
L 398.487273 96.173083 
L 391.86167 109.16408 
L 385.236067 111.856602 
L 378.610464 117.113343 
L 371.984861 115.027707 
L 365.359258 98.945854 
L 358.733655 109.822701 
L 352.108052 54.872261 
L 345.482449 115.152763 
L 338.856846 64.141185 
L 332.231243 53.568 
L 325.60564 102.008838 
L 318.980037 108.702277 
L 312.354434 105.334483 
L 305.728831 123.116185 
L 299.103228 105.605786 
L 292.477625 123.999418 
L 285.852022 110.109593 
L 279.226419 113.046004 
L 272.600816 113.558695 
L 265.975213 98.209332 
L 259.34961 116.017825 
L 252.724007 119.390142 
L 246.098404 114.713364 
L 239.472801 115.433712 
L 232.847199 122.542116 
L 226.221596 121.318903 
L 219.595993 113.790968 
L 212.97039 112.160688 
L 206.344787 119.401938 
L 199.719184 113.413711 
L 193.093581 117.194405 
L 186.467978 104.783273 
L 179.842375 109.677232 
L 173.216772 104.289843 
L 166.591169 110.990026 
L 159.965566 97.502964 
L 153.339963 115.321962 
L 146.71436 105.869058 
L 140.088757 111.191736 
L 133.463154 120.667299 
L 126.837551 104.856445 
L 120.211948 121.124379 
L 113.586345 128.044324 
L 106.960742 108.317953 
L 100.335139 127.017662 
L 93.709536 142.480641 
L 87.083933 142.650105 
L 80.45833 134.671842 
L 73.832727 190.091749 
z
" style="fill:#ff7f0e;fill-opacity:0.5;"/>
   </g>
   <g id="matplotlib.axis_1">
    <g id="xtick_1">
     <g id="line2d_1">
      <path clip-path="url(#p99e1af9757)" d="M 73.832727 307.584 
L 73.832727 41.472 
" style="fill:none;stroke:#b0b0b0;stroke-linecap:square;stroke-width:0.8;"/>
     </g>
     <g id="line2d_2">
      <defs>
       <path d="M 0 0 
L 0 3.5 
" id="m4318672086" style="stroke:#000000;stroke-width:0.8;"/>
      </defs>
      <g>
       <use style="stroke:#000000;stroke-width:0.8;" x="73.832727" xlink:href="#m4318672086" y="307.584"/>
      </g>
     </g>
     <g id="text_1">
      <!-- 0 -->
      <g transform="translate(70.651477 322.182437)scale(0.1 -0.1)">
       <defs>
        <path d="M 2034 4250 
Q 1547 4250 1301 3770 
Q 1056 3291 1056 2328 
Q 1056 1369 1301 889 
Q 1547 409 2034 409 
Q 2525 409 2770 889 
Q 3016 1369 3016 2328 
Q 3016 3291 2770 3770 
Q 2525 4250 2034 4250 
z
M 2034 4750 
Q 2819 4750 3233 4129 
Q 3647 3509 3647 2328 
Q 3647 1150 3233 529 
Q 2819 -91 2034 -91 
Q 1250 -91 836 529 
Q 422 1150 422 2328 
Q 422 3509 836 4129 
Q 1250 4750 2034 4750 
z
" id="DejaVuSans-30" transform="scale(0.015625)"/>
       </defs>
       <use xlink:href="#DejaVuSans-30"/>
      </g>
     </g>
    </g>
    <g id="xtick_2">
     <g id="line2d_3">
      <path clip-path="url(#p99e1af9757)" d="M 140.088757 307.584 
L 140.088757 41.472 
" style="fill:none;stroke:#b0b0b0;stroke-linecap:square;stroke-width:0.8;"/>
     </g>
     <g id="line2d_4">
      <g>
       <use style="stroke:#000000;stroke-width:0.8;" x="140.088757" xlink:href="#m4318672086" y="307.584"/>
      </g>
     </g>
     <g id="text_2">
      <!-- 10 -->
      <g transform="translate(133.726257 322.182437)scale(0.1 -0.1)">
       <defs>
        <path d="M 794 531 
L 1825 531 
L 1825 4091 
L 703 3866 
L 703 4441 
L 1819 4666 
L 2450 4666 
L 2450 531 
L 3481 531 
L 3481 0 
L 794 0 
L 794 531 
z
" id="DejaVuSans-31" transform="scale(0.015625)"/>
       </defs>
       <use xlink:href="#DejaVuSans-31"/>
       <use x="63.623047" xlink:href="#DejaVuSans-30"/>
      </g>
     </g>
    </g>
    <g id="xtick_3">
     <g id="line2d_5">
      <path clip-path="url(#p99e1af9757)" d="M 206.344787 307.584 
L 206.344787 41.472 
" style="fill:none;stroke:#b0b0b0;stroke-linecap:square;stroke-width:0.8;"/>
     </g>
     <g id="line2d_6">
      <g>
       <use style="stroke:#000000;stroke-width:0.8;" x="206.344787" xlink:href="#m4318672086" y="307.584"/>
      </g>
     </g>
     <g id="text_3">
      <!-- 20 -->
      <g transform="translate(199.982287 322.182437)scale(0.1 -0.1)">
       <defs>
        <path d="M 1228 531 
L 3431 531 
L 3431 0 
L 469 0 
L 469 531 
Q 828 903 1448 1529 
Q 2069 2156 2228 2338 
Q 2531 2678 2651 2914 
Q 2772 3150 2772 3378 
Q 2772 3750 2511 3984 
Q 2250 4219 1831 4219 
Q 1534 4219 1204 4116 
Q 875 4013 500 3803 
L 500 4441 
Q 881 4594 1212 4672 
Q 1544 4750 1819 4750 
Q 2544 4750 2975 4387 
Q 3406 4025 3406 3419 
Q 3406 3131 3298 2873 
Q 3191 2616 2906 2266 
Q 2828 2175 2409 1742 
Q 1991 1309 1228 531 
z
" id="DejaVuSans-32" transform="scale(0.015625)"/>
       </defs>
       <use xlink:href="#DejaVuSans-32"/>
       <use x="63.623047" xlink:href="#DejaVuSans-30"/>
      </g>
     </g>
    </g>
    <g id="xtick_4">
     <g id="line2d_7">
      <path clip-path="url(#p99e1af9757)" d="M 272.600816 307.584 
L 272.600816 41.472 
" style="fill:none;stroke:#b0b0b0;stroke-linecap:square;stroke-width:0.8;"/>
     </g>
     <g id="line2d_8">
      <g>
       <use style="stroke:#000000;stroke-width:0.8;" x="272.600816" xlink:href="#m4318672086" y="307.584"/>
      </g>
     </g>
     <g id="text_4">
      <!-- 30 -->
      <g transform="translate(266.238316 322.182437)scale(0.1 -0.1)">
       <defs>
        <path d="M 2597 2516 
Q 3050 2419 3304 2112 
Q 3559 1806 3559 1356 
Q 3559 666 3084 287 
Q 2609 -91 1734 -91 
Q 1441 -91 1130 -33 
Q 819 25 488 141 
L 488 750 
Q 750 597 1062 519 
Q 1375 441 1716 441 
Q 2309 441 2620 675 
Q 2931 909 2931 1356 
Q 2931 1769 2642 2001 
Q 2353 2234 1838 2234 
L 1294 2234 
L 1294 2753 
L 1863 2753 
Q 2328 2753 2575 2939 
Q 2822 3125 2822 3475 
Q 2822 3834 2567 4026 
Q 2313 4219 1838 4219 
Q 1578 4219 1281 4162 
Q 984 4106 628 3988 
L 628 4550 
Q 988 4650 1302 4700 
Q 1616 4750 1894 4750 
Q 2613 4750 3031 4423 
Q 3450 4097 3450 3541 
Q 3450 3153 3228 2886 
Q 3006 2619 2597 2516 
z
" id="DejaVuSans-33" transform="scale(0.015625)"/>
       </defs>
       <use xlink:href="#DejaVuSans-33"/>
       <use x="63.623047" xlink:href="#DejaVuSans-30"/>
      </g>
     </g>
    </g>
    <g id="xtick_5">
     <g id="line2d_9">
      <path clip-path="url(#p99e1af9757)" d="M 338.856846 307.584 
L 338.856846 41.472 
" style="fill:none;stroke:#b0b0b0;stroke-linecap:square;stroke-width:0.8;"/>
     </g>
     <g id="line2d_10">
      <g>
       <use style="stroke:#000000;stroke-width:0.8;" x="338.856846" xlink:href="#m4318672086" y="307.584"/>
      </g>
     </g>
     <g id="text_5">
      <!-- 40 -->
      <g transform="translate(332.494346 322.182437)scale(0.1 -0.1)">
       <defs>
        <path d="M 2419 4116 
L 825 1625 
L 2419 1625 
L 2419 4116 
z
M 2253 4666 
L 3047 4666 
L 3047 1625 
L 3713 1625 
L 3713 1100 
L 3047 1100 
L 3047 0 
L 2419 0 
L 2419 1100 
L 313 1100 
L 313 1709 
L 2253 4666 
z
" id="DejaVuSans-34" transform="scale(0.015625)"/>
       </defs>
       <use xlink:href="#DejaVuSans-34"/>
       <use x="63.623047" xlink:href="#DejaVuSans-30"/>
      </g>
     </g>
    </g>
    <g id="xtick_6">
     <g id="line2d_11">
      <path clip-path="url(#p99e1af9757)" d="M 405.112876 307.584 
L 405.112876 41.472 
" style="fill:none;stroke:#b0b0b0;stroke-linecap:square;stroke-width:0.8;"/>
     </g>
     <g id="line2d_12">
      <g>
       <use style="stroke:#000000;stroke-width:0.8;" x="405.112876" xlink:href="#m4318672086" y="307.584"/>
      </g>
     </g>
     <g id="text_6">
      <!-- 50 -->
      <g transform="translate(398.750376 322.182437)scale(0.1 -0.1)">
       <defs>
        <path d="M 691 4666 
L 3169 4666 
L 3169 4134 
L 1269 4134 
L 1269 2991 
Q 1406 3038 1543 3061 
Q 1681 3084 1819 3084 
Q 2600 3084 3056 2656 
Q 3513 2228 3513 1497 
Q 3513 744 3044 326 
Q 2575 -91 1722 -91 
Q 1428 -91 1123 -41 
Q 819 9 494 109 
L 494 744 
Q 775 591 1075 516 
Q 1375 441 1709 441 
Q 2250 441 2565 725 
Q 2881 1009 2881 1497 
Q 2881 1984 2565 2268 
Q 2250 2553 1709 2553 
Q 1456 2553 1204 2497 
Q 953 2441 691 2322 
L 691 4666 
z
" id="DejaVuSans-35" transform="scale(0.015625)"/>
       </defs>
       <use xlink:href="#DejaVuSans-35"/>
       <use x="63.623047" xlink:href="#DejaVuSans-30"/>
      </g>
     </g>
    </g>
    <g id="text_7">
     <!-- Generation -->
     <g transform="translate(208.267031 335.860562)scale(0.1 -0.1)">
      <defs>
       <path d="M 3809 666 
L 3809 1919 
L 2778 1919 
L 2778 2438 
L 4434 2438 
L 4434 434 
Q 4069 175 3628 42 
Q 3188 -91 2688 -91 
Q 1594 -91 976 548 
Q 359 1188 359 2328 
Q 359 3472 976 4111 
Q 1594 4750 2688 4750 
Q 3144 4750 3555 4637 
Q 3966 4525 4313 4306 
L 4313 3634 
Q 3963 3931 3569 4081 
Q 3175 4231 2741 4231 
Q 1884 4231 1454 3753 
Q 1025 3275 1025 2328 
Q 1025 1384 1454 906 
Q 1884 428 2741 428 
Q 3075 428 3337 486 
Q 3600 544 3809 666 
z
" id="DejaVuSans-47" transform="scale(0.015625)"/>
       <path d="M 3597 1894 
L 3597 1613 
L 953 1613 
Q 991 1019 1311 708 
Q 1631 397 2203 397 
Q 2534 397 2845 478 
Q 3156 559 3463 722 
L 3463 178 
Q 3153 47 2828 -22 
Q 2503 -91 2169 -91 
Q 1331 -91 842 396 
Q 353 884 353 1716 
Q 353 2575 817 3079 
Q 1281 3584 2069 3584 
Q 2775 3584 3186 3129 
Q 3597 2675 3597 1894 
z
M 3022 2063 
Q 3016 2534 2758 2815 
Q 2500 3097 2075 3097 
Q 1594 3097 1305 2825 
Q 1016 2553 972 2059 
L 3022 2063 
z
" id="DejaVuSans-65" transform="scale(0.015625)"/>
       <path d="M 3513 2113 
L 3513 0 
L 2938 0 
L 2938 2094 
Q 2938 2591 2744 2837 
Q 2550 3084 2163 3084 
Q 1697 3084 1428 2787 
Q 1159 2491 1159 1978 
L 1159 0 
L 581 0 
L 581 3500 
L 1159 3500 
L 1159 2956 
Q 1366 3272 1645 3428 
Q 1925 3584 2291 3584 
Q 2894 3584 3203 3211 
Q 3513 2838 3513 2113 
z
" id="DejaVuSans-6e" transform="scale(0.015625)"/>
       <path d="M 2631 2963 
Q 2534 3019 2420 3045 
Q 2306 3072 2169 3072 
Q 1681 3072 1420 2755 
Q 1159 2438 1159 1844 
L 1159 0 
L 581 0 
L 581 3500 
L 1159 3500 
L 1159 2956 
Q 1341 3275 1631 3429 
Q 1922 3584 2338 3584 
Q 2397 3584 2469 3576 
Q 2541 3569 2628 3553 
L 2631 2963 
z
" id="DejaVuSans-72" transform="scale(0.015625)"/>
       <path d="M 2194 1759 
Q 1497 1759 1228 1600 
Q 959 1441 959 1056 
Q 959 750 1161 570 
Q 1363 391 1709 391 
Q 2188 391 2477 730 
Q 2766 1069 2766 1631 
L 2766 1759 
L 2194 1759 
z
M 3341 1997 
L 3341 0 
L 2766 0 
L 2766 531 
Q 2569 213 2275 61 
Q 1981 -91 1556 -91 
Q 1019 -91 701 211 
Q 384 513 384 1019 
Q 384 1609 779 1909 
Q 1175 2209 1959 2209 
L 2766 2209 
L 2766 2266 
Q 2766 2663 2505 2880 
Q 2244 3097 1772 3097 
Q 1472 3097 1187 3025 
Q 903 2953 641 2809 
L 641 3341 
Q 956 3463 1253 3523 
Q 1550 3584 1831 3584 
Q 2591 3584 2966 3190 
Q 3341 2797 3341 1997 
z
" id="DejaVuSans-61" transform="scale(0.015625)"/>
       <path d="M 1172 4494 
L 1172 3500 
L 2356 3500 
L 2356 3053 
L 1172 3053 
L 1172 1153 
Q 1172 725 1289 603 
Q 1406 481 1766 481 
L 2356 481 
L 2356 0 
L 1766 0 
Q 1100 0 847 248 
Q 594 497 594 1153 
L 594 3053 
L 172 3053 
L 172 3500 
L 594 3500 
L 594 4494 
L 1172 4494 
z
" id="DejaVuSans-74" transform="scale(0.015625)"/>
       <path d="M 603 3500 
L 1178 3500 
L 1178 0 
L 603 0 
L 603 3500 
z
M 603 4863 
L 1178 4863 
L 1178 4134 
L 603 4134 
L 603 4863 
z
" id="DejaVuSans-69" transform="scale(0.015625)"/>
       <path d="M 1959 3097 
Q 1497 3097 1228 2736 
Q 959 2375 959 1747 
Q 959 1119 1226 758 
Q 1494 397 1959 397 
Q 2419 397 2687 759 
Q 2956 1122 2956 1747 
Q 2956 2369 2687 2733 
Q 2419 3097 1959 3097 
z
M 1959 3584 
Q 2709 3584 3137 3096 
Q 3566 2609 3566 1747 
Q 3566 888 3137 398 
Q 2709 -91 1959 -91 
Q 1206 -91 779 398 
Q 353 888 353 1747 
Q 353 2609 779 3096 
Q 1206 3584 1959 3584 
z
" id="DejaVuSans-6f" transform="scale(0.015625)"/>
      </defs>
      <use xlink:href="#DejaVuSans-47"/>
      <use x="77.490234" xlink:href="#DejaVuSans-65"/>
      <use x="139.013672" xlink:href="#DejaVuSans-6e"/>
      <use x="202.392578" xlink:href="#DejaVuSans-65"/>
      <use x="263.916016" xlink:href="#DejaVuSans-72"/>
      <use x="305.029297" xlink:href="#DejaVuSans-61"/>
      <use x="366.308594" xlink:href="#DejaVuSans-74"/>
      <use x="405.517578" xlink:href="#DejaVuSans-69"/>
      <use x="433.300781" xlink:href="#DejaVuSans-6f"/>
      <use x="494.482422" xlink:href="#DejaVuSans-6e"/>
     </g>
    </g>
   </g>
   <g id="matplotlib.axis_2">
    <g id="ytick_1">
     <g id="line2d_13">
      <path clip-path="url(#p99e1af9757)" d="M 57.6 303.120024 
L 414.72 303.120024 
" style="fill:none;stroke:#b0b0b0;stroke-linecap:square;stroke-width:0.8;"/>
     </g>
     <g id="line2d_14">
      <defs>
       <path d="M 0 0 
L -3.5 0 
" id="m8ec05c38c1" style="stroke:#000000;stroke-width:0.8;"/>
      </defs>
      <g>
       <use style="stroke:#000000;stroke-width:0.8;" x="57.6" xlink:href="#m8ec05c38c1" y="303.120024"/>
      </g>
     </g>
     <g id="text_8">
      <!-- −3 -->
      <g transform="translate(35.857813 306.919243)scale(0.1 -0.1)">
       <defs>
        <path d="M 678 2272 
L 4684 2272 
L 4684 1741 
L 678 1741 
L 678 2272 
z
" id="DejaVuSans-2212" transform="scale(0.015625)"/>
       </defs>
       <use xlink:href="#DejaVuSans-2212"/>
       <use x="83.789062" xlink:href="#DejaVuSans-33"/>
      </g>
     </g>
    </g>
    <g id="ytick_2">
     <g id="line2d_15">
      <path clip-path="url(#p99e1af9757)" d="M 57.6 271.65438 
L 414.72 271.65438 
" style="fill:none;stroke:#b0b0b0;stroke-linecap:square;stroke-width:0.8;"/>
     </g>
     <g id="line2d_16">
      <g>
       <use style="stroke:#000000;stroke-width:0.8;" x="57.6" xlink:href="#m8ec05c38c1" y="271.65438"/>
      </g>
     </g>
     <g id="text_9">
      <!-- −2 -->
      <g transform="translate(35.857813 275.453598)scale(0.1 -0.1)">
       <use xlink:href="#DejaVuSans-2212"/>
       <use x="83.789062" xlink:href="#DejaVuSans-32"/>
      </g>
     </g>
    </g>
    <g id="ytick_3">
     <g id="line2d_17">
      <path clip-path="url(#p99e1af9757)" d="M 57.6 240.188735 
L 414.72 240.188735 
" style="fill:none;stroke:#b0b0b0;stroke-linecap:square;stroke-width:0.8;"/>
     </g>
     <g id="line2d_18">
      <g>
       <use style="stroke:#000000;stroke-width:0.8;" x="57.6" xlink:href="#m8ec05c38c1" y="240.188735"/>
      </g>
     </g>
     <g id="text_10">
      <!-- −1 -->
      <g transform="translate(35.857813 243.987954)scale(0.1 -0.1)">
       <use xlink:href="#DejaVuSans-2212"/>
       <use x="83.789062" xlink:href="#DejaVuSans-31"/>
      </g>
     </g>
    </g>
    <g id="ytick_4">
     <g id="line2d_19">
      <path clip-path="url(#p99e1af9757)" d="M 57.6 208.72309 
L 414.72 208.72309 
" style="fill:none;stroke:#b0b0b0;stroke-linecap:square;stroke-width:0.8;"/>
     </g>
     <g id="line2d_20">
      <g>
       <use style="stroke:#000000;stroke-width:0.8;" x="57.6" xlink:href="#m8ec05c38c1" y="208.72309"/>
      </g>
     </g>
     <g id="text_11">
      <!-- 0 -->
      <g transform="translate(44.2375 212.522309)scale(0.1 -0.1)">
       <use xlink:href="#DejaVuSans-30"/>
      </g>
     </g>
    </g>
    <g id="ytick_5">
     <g id="line2d_21">
      <path clip-path="url(#p99e1af9757)" d="M 57.6 177.257445 
L 414.72 177.257445 
" style="fill:none;stroke:#b0b0b0;stroke-linecap:square;stroke-width:0.8;"/>
     </g>
     <g id="line2d_22">
      <g>
       <use style="stroke:#000000;stroke-width:0.8;" x="57.6" xlink:href="#m8ec05c38c1" y="177.257445"/>
      </g>
     </g>
     <g id="text_12">
      <!-- 1 -->
      <g transform="translate(44.2375 181.056664)scale(0.1 -0.1)">
       <use xlink:href="#DejaVuSans-31"/>
      </g>
     </g>
    </g>
    <g id="ytick_6">
     <g id="line2d_23">
      <path clip-path="url(#p99e1af9757)" d="M 57.6 145.7918 
L 414.72 145.7918 
" style="fill:none;stroke:#b0b0b0;stroke-linecap:square;stroke-width:0.8;"/>
     </g>
     <g id="line2d_24">
      <g>
       <use style="stroke:#000000;stroke-width:0.8;" x="57.6" xlink:href="#m8ec05c38c1" y="145.7918"/>
      </g>
     </g>
     <g id="text_13">
      <!-- 2 -->
      <g transform="translate(44.2375 149.591019)scale(0.1 -0.1)">
       <use xlink:href="#DejaVuSans-32"/>
      </g>
     </g>
    </g>
    <g id="ytick_7">
     <g id="line2d_25">
      <path clip-path="url(#p99e1af9757)" d="M 57.6 114.326156 
L 414.72 114.326156 
" style="fill:none;stroke:#b0b0b0;stroke-linecap:square;stroke-width:0.8;"/>
     </g>
     <g id="line2d_26">
      <g>
       <use style="stroke:#000000;stroke-width:0.8;" x="57.6" xlink:href="#m8ec05c38c1" y="114.326156"/>
      </g>
     </g>
     <g id="text_14">
      <!-- 3 -->
      <g transform="translate(44.2375 118.125374)scale(0.1 -0.1)">
       <use xlink:href="#DejaVuSans-33"/>
      </g>
     </g>
    </g>
    <g id="ytick_8">
     <g id="line2d_27">
      <path clip-path="url(#p99e1af9757)" d="M 57.6 82.860511 
L 414.72 82.860511 
" style="fill:none;stroke:#b0b0b0;stroke-linecap:square;stroke-width:0.8;"/>
     </g>
     <g id="line2d_28">
      <g>
       <use style="stroke:#000000;stroke-width:0.8;" x="57.6" xlink:href="#m8ec05c38c1" y="82.860511"/>
      </g>
     </g>
     <g id="text_15">
      <!-- 4 -->
      <g transform="translate(44.2375 86.65973)scale(0.1 -0.1)">
       <use xlink:href="#DejaVuSans-34"/>
      </g>
     </g>
    </g>
    <g id="ytick_9">
     <g id="line2d_29">
      <path clip-path="url(#p99e1af9757)" d="M 57.6 51.394866 
L 414.72 51.394866 
" style="fill:none;stroke:#b0b0b0;stroke-linecap:square;stroke-width:0.8;"/>
     </g>
     <g id="line2d_30">
      <g>
       <use style="stroke:#000000;stroke-width:0.8;" x="57.6" xlink:href="#m8ec05c38c1" y="51.394866"/>
      </g>
     </g>
     <g id="text_16">
      <!-- 5 -->
      <g transform="translate(44.2375 55.194085)scale(0.1 -0.1)">
       <use xlink:href="#DejaVuSans-35"/>
      </g>
     </g>
    </g>
    <g id="text_17">
     <!-- Fitness -->
     <g transform="translate(29.778125 191.845187)rotate(-90)scale(0.1 -0.1)">
      <defs>
       <path d="M 628 4666 
L 3309 4666 
L 3309 4134 
L 1259 4134 
L 1259 2759 
L 3109 2759 
L 3109 2228 
L 1259 2228 
L 1259 0 
L 628 0 
L 628 4666 
z
" id="DejaVuSans-46" transform="scale(0.015625)"/>
       <path d="M 2834 3397 
L 2834 2853 
Q 2591 2978 2328 3040 
Q 2066 3103 1784 3103 
Q 1356 3103 1142 2972 
Q 928 2841 928 2578 
Q 928 2378 1081 2264 
Q 1234 2150 1697 2047 
L 1894 2003 
Q 2506 1872 2764 1633 
Q 3022 1394 3022 966 
Q 3022 478 2636 193 
Q 2250 -91 1575 -91 
Q 1294 -91 989 -36 
Q 684 19 347 128 
L 347 722 
Q 666 556 975 473 
Q 1284 391 1588 391 
Q 1994 391 2212 530 
Q 2431 669 2431 922 
Q 2431 1156 2273 1281 
Q 2116 1406 1581 1522 
L 1381 1569 
Q 847 1681 609 1914 
Q 372 2147 372 2553 
Q 372 3047 722 3315 
Q 1072 3584 1716 3584 
Q 2034 3584 2315 3537 
Q 2597 3491 2834 3397 
z
" id="DejaVuSans-73" transform="scale(0.015625)"/>
      </defs>
      <use xlink:href="#DejaVuSans-46"/>
      <use x="50.269531" xlink:href="#DejaVuSans-69"/>
      <use x="78.052734" xlink:href="#DejaVuSans-74"/>
      <use x="117.261719" xlink:href="#DejaVuSans-6e"/>
      <use x="180.640625" xlink:href="#DejaVuSans-65"/>
      <use x="242.164062" xlink:href="#DejaVuSans-73"/>
      <use x="294.263672" xlink:href="#DejaVuSans-73"/>
     </g>
    </g>
   </g>
   <g id="line2d_31">
    <path clip-path="url(#p99e1af9757)" d="M 73.832727 292.911562 
L 80.45833 266.780581 
L 87.083933 253.466094 
L 93.709536 250.636505 
L 100.335139 248.280004 
L 106.960742 246.481587 
L 113.586345 250.694335 
L 120.211948 247.031979 
L 126.837551 246.802689 
L 133.463154 246.236385 
L 140.088757 246.066056 
L 146.71436 242.875161 
L 153.339963 244.139656 
L 159.965566 245.658912 
L 166.591169 241.296623 
L 173.216772 241.894814 
L 179.842375 240.783059 
L 186.467978 240.634682 
L 193.093581 240.20885 
L 199.719184 239.556877 
L 206.344787 240.812715 
L 212.97039 237.428141 
L 219.595993 237.625399 
L 226.221596 238.615927 
L 232.847199 237.768445 
L 239.472801 236.438759 
L 246.098404 237.323438 
L 252.724007 236.794763 
L 259.34961 239.357243 
L 265.975213 236.376147 
L 272.600816 238.962477 
L 279.226419 236.785526 
L 285.852022 238.221431 
L 292.477625 236.850462 
L 299.103228 234.02941 
L 305.728831 235.810035 
L 312.354434 238.033227 
L 318.980037 237.010167 
L 325.60564 236.391116 
L 332.231243 240.032045 
L 338.856846 235.21968 
L 345.482449 234.234224 
L 352.108052 239.1343 
L 358.733655 239.025258 
L 365.359258 235.727387 
L 371.984861 234.385989 
L 378.610464 236.456806 
L 385.236067 235.907403 
L 391.86167 235.337019 
L 398.487273 237.209429 
" style="fill:none;stroke:#0000ff;stroke-linecap:square;stroke-width:1.5;"/>
   </g>
   <g id="line2d_32">
    <path clip-path="url(#p99e1af9757)" d="M 73.832727 197.395458 
L 80.45833 151.078029 
L 87.083933 160.580653 
L 93.709536 155.923738 
L 100.335139 143.463343 
L 106.960742 132.324504 
L 113.586345 145.854732 
L 120.211948 140.002122 
L 126.837551 129.052077 
L 133.463154 139.561603 
L 140.088757 135.659863 
L 146.71436 130.562428 
L 153.339963 137.799527 
L 159.965566 125.968444 
L 166.591169 132.072779 
L 173.216772 126.471894 
L 179.842375 133.457268 
L 186.467978 129.115009 
L 193.093581 132.450367 
L 199.719184 136.352107 
L 206.344787 139.750397 
L 212.97039 133.58313 
L 219.595993 135.408138 
L 226.221596 139.246946 
L 232.847199 140.37971 
L 239.472801 133.016749 
L 246.098404 135.848657 
L 252.724007 133.58313 
L 259.34961 133.960718 
L 265.975213 120.115834 
L 272.600816 129.744322 
L 279.226419 130.436566 
L 285.852022 124.143437 
L 292.477625 130.814153 
L 299.103228 123.954643 
L 305.728831 129.052077 
L 312.354434 124.332231 
L 318.980037 124.835681 
L 325.60564 120.996872 
L 332.231243 79.39929 
L 338.856846 94.880387 
L 345.482449 135.974519 
L 352.108052 79.39929 
L 358.733655 128.108108 
L 365.359258 118.794277 
L 371.984861 135.093481 
L 378.610464 135.408138 
L 385.236067 127.352933 
L 391.86167 129.807253 
L 398.487273 118.794277 
" style="fill:none;stroke:#ff0000;stroke-linecap:square;stroke-width:1.5;"/>
   </g>
   <g id="patch_3">
    <path d="M 57.6 307.584 
L 57.6 41.472 
" style="fill:none;stroke:#000000;stroke-linecap:square;stroke-linejoin:miter;stroke-width:0.8;"/>
   </g>
   <g id="patch_4">
    <path d="M 414.72 307.584 
L 414.72 41.472 
" style="fill:none;stroke:#000000;stroke-linecap:square;stroke-linejoin:miter;stroke-width:0.8;"/>
   </g>
   <g id="patch_5">
    <path d="M 57.6 307.584 
L 414.72 307.584 
" style="fill:none;stroke:#000000;stroke-linecap:square;stroke-linejoin:miter;stroke-width:0.8;"/>
   </g>
   <g id="patch_6">
    <path d="M 57.6 41.472 
L 414.72 41.472 
" style="fill:none;stroke:#000000;stroke-linecap:square;stroke-linejoin:miter;stroke-width:0.8;"/>
   </g>
   <g id="text_18">
    <!-- Population's mean and maximum fitness -->
    <g transform="translate(113.826562 35.472)scale(0.12 -0.12)">
     <defs>
      <path d="M 1259 4147 
L 1259 2394 
L 2053 2394 
Q 2494 2394 2734 2622 
Q 2975 2850 2975 3272 
Q 2975 3691 2734 3919 
Q 2494 4147 2053 4147 
L 1259 4147 
z
M 628 4666 
L 2053 4666 
Q 2838 4666 3239 4311 
Q 3641 3956 3641 3272 
Q 3641 2581 3239 2228 
Q 2838 1875 2053 1875 
L 1259 1875 
L 1259 0 
L 628 0 
L 628 4666 
z
" id="DejaVuSans-50" transform="scale(0.015625)"/>
      <path d="M 1159 525 
L 1159 -1331 
L 581 -1331 
L 581 3500 
L 1159 3500 
L 1159 2969 
Q 1341 3281 1617 3432 
Q 1894 3584 2278 3584 
Q 2916 3584 3314 3078 
Q 3713 2572 3713 1747 
Q 3713 922 3314 415 
Q 2916 -91 2278 -91 
Q 1894 -91 1617 61 
Q 1341 213 1159 525 
z
M 3116 1747 
Q 3116 2381 2855 2742 
Q 2594 3103 2138 3103 
Q 1681 3103 1420 2742 
Q 1159 2381 1159 1747 
Q 1159 1113 1420 752 
Q 1681 391 2138 391 
Q 2594 391 2855 752 
Q 3116 1113 3116 1747 
z
" id="DejaVuSans-70" transform="scale(0.015625)"/>
      <path d="M 544 1381 
L 544 3500 
L 1119 3500 
L 1119 1403 
Q 1119 906 1312 657 
Q 1506 409 1894 409 
Q 2359 409 2629 706 
Q 2900 1003 2900 1516 
L 2900 3500 
L 3475 3500 
L 3475 0 
L 2900 0 
L 2900 538 
Q 2691 219 2414 64 
Q 2138 -91 1772 -91 
Q 1169 -91 856 284 
Q 544 659 544 1381 
z
M 1991 3584 
L 1991 3584 
z
" id="DejaVuSans-75" transform="scale(0.015625)"/>
      <path d="M 603 4863 
L 1178 4863 
L 1178 0 
L 603 0 
L 603 4863 
z
" id="DejaVuSans-6c" transform="scale(0.015625)"/>
      <path d="M 1147 4666 
L 1147 2931 
L 616 2931 
L 616 4666 
L 1147 4666 
z
" id="DejaVuSans-27" transform="scale(0.015625)"/>
      <path id="DejaVuSans-20" transform="scale(0.015625)"/>
      <path d="M 3328 2828 
Q 3544 3216 3844 3400 
Q 4144 3584 4550 3584 
Q 5097 3584 5394 3201 
Q 5691 2819 5691 2113 
L 5691 0 
L 5113 0 
L 5113 2094 
Q 5113 2597 4934 2840 
Q 4756 3084 4391 3084 
Q 3944 3084 3684 2787 
Q 3425 2491 3425 1978 
L 3425 0 
L 2847 0 
L 2847 2094 
Q 2847 2600 2669 2842 
Q 2491 3084 2119 3084 
Q 1678 3084 1418 2786 
Q 1159 2488 1159 1978 
L 1159 0 
L 581 0 
L 581 3500 
L 1159 3500 
L 1159 2956 
Q 1356 3278 1631 3431 
Q 1906 3584 2284 3584 
Q 2666 3584 2933 3390 
Q 3200 3197 3328 2828 
z
" id="DejaVuSans-6d" transform="scale(0.015625)"/>
      <path d="M 2906 2969 
L 2906 4863 
L 3481 4863 
L 3481 0 
L 2906 0 
L 2906 525 
Q 2725 213 2448 61 
Q 2172 -91 1784 -91 
Q 1150 -91 751 415 
Q 353 922 353 1747 
Q 353 2572 751 3078 
Q 1150 3584 1784 3584 
Q 2172 3584 2448 3432 
Q 2725 3281 2906 2969 
z
M 947 1747 
Q 947 1113 1208 752 
Q 1469 391 1925 391 
Q 2381 391 2643 752 
Q 2906 1113 2906 1747 
Q 2906 2381 2643 2742 
Q 2381 3103 1925 3103 
Q 1469 3103 1208 2742 
Q 947 2381 947 1747 
z
" id="DejaVuSans-64" transform="scale(0.015625)"/>
      <path d="M 3513 3500 
L 2247 1797 
L 3578 0 
L 2900 0 
L 1881 1375 
L 863 0 
L 184 0 
L 1544 1831 
L 300 3500 
L 978 3500 
L 1906 2253 
L 2834 3500 
L 3513 3500 
z
" id="DejaVuSans-78" transform="scale(0.015625)"/>
      <path d="M 2375 4863 
L 2375 4384 
L 1825 4384 
Q 1516 4384 1395 4259 
Q 1275 4134 1275 3809 
L 1275 3500 
L 2222 3500 
L 2222 3053 
L 1275 3053 
L 1275 0 
L 697 0 
L 697 3053 
L 147 3053 
L 147 3500 
L 697 3500 
L 697 3744 
Q 697 4328 969 4595 
Q 1241 4863 1831 4863 
L 2375 4863 
z
" id="DejaVuSans-66" transform="scale(0.015625)"/>
     </defs>
     <use xlink:href="#DejaVuSans-50"/>
     <use x="56.677734" xlink:href="#DejaVuSans-6f"/>
     <use x="117.859375" xlink:href="#DejaVuSans-70"/>
     <use x="181.335938" xlink:href="#DejaVuSans-75"/>
     <use x="244.714844" xlink:href="#DejaVuSans-6c"/>
     <use x="272.498047" xlink:href="#DejaVuSans-61"/>
     <use x="333.777344" xlink:href="#DejaVuSans-74"/>
     <use x="372.986328" xlink:href="#DejaVuSans-69"/>
     <use x="400.769531" xlink:href="#DejaVuSans-6f"/>
     <use x="461.951172" xlink:href="#DejaVuSans-6e"/>
     <use x="525.330078" xlink:href="#DejaVuSans-27"/>
     <use x="552.820312" xlink:href="#DejaVuSans-73"/>
     <use x="604.919922" xlink:href="#DejaVuSans-20"/>
     <use x="636.707031" xlink:href="#DejaVuSans-6d"/>
     <use x="734.119141" xlink:href="#DejaVuSans-65"/>
     <use x="795.642578" xlink:href="#DejaVuSans-61"/>
     <use x="856.921875" xlink:href="#DejaVuSans-6e"/>
     <use x="920.300781" xlink:href="#DejaVuSans-20"/>
     <use x="952.087891" xlink:href="#DejaVuSans-61"/>
     <use x="1013.367188" xlink:href="#DejaVuSans-6e"/>
     <use x="1076.746094" xlink:href="#DejaVuSans-64"/>
     <use x="1140.222656" xlink:href="#DejaVuSans-20"/>
     <use x="1172.009766" xlink:href="#DejaVuSans-6d"/>
     <use x="1269.421875" xlink:href="#DejaVuSans-61"/>
     <use x="1330.701172" xlink:href="#DejaVuSans-78"/>
     <use x="1389.880859" xlink:href="#DejaVuSans-69"/>
     <use x="1417.664062" xlink:href="#DejaVuSans-6d"/>
     <use x="1515.076172" xlink:href="#DejaVuSans-75"/>
     <use x="1578.455078" xlink:href="#DejaVuSans-6d"/>
     <use x="1675.867188" xlink:href="#DejaVuSans-20"/>
     <use x="1707.654297" xlink:href="#DejaVuSans-66"/>
     <use x="1742.859375" xlink:href="#DejaVuSans-69"/>
     <use x="1770.642578" xlink:href="#DejaVuSans-74"/>
     <use x="1809.851562" xlink:href="#DejaVuSans-6e"/>
     <use x="1873.230469" xlink:href="#DejaVuSans-65"/>
     <use x="1934.753906" xlink:href="#DejaVuSans-73"/>
     <use x="1986.853516" xlink:href="#DejaVuSans-73"/>
    </g>
   </g>
   <g id="legend_1">
    <g id="patch_7">
     <path d="M 348.473125 78.82825 
L 407.72 78.82825 
Q 409.72 78.82825 409.72 76.82825 
L 409.72 48.472 
Q 409.72 46.472 407.72 46.472 
L 348.473125 46.472 
Q 346.473125 46.472 346.473125 48.472 
L 346.473125 76.82825 
Q 346.473125 78.82825 348.473125 78.82825 
z
" style="fill:#ffffff;opacity:0.8;stroke:#cccccc;stroke-linejoin:miter;"/>
    </g>
    <g id="line2d_33">
     <path d="M 350.473125 54.570437 
L 370.473125 54.570437 
" style="fill:none;stroke:#0000ff;stroke-linecap:square;stroke-width:1.5;"/>
    </g>
    <g id="line2d_34"/>
    <g id="text_19">
     <!-- Mean -->
     <g transform="translate(378.473125 58.070437)scale(0.1 -0.1)">
      <defs>
       <path d="M 628 4666 
L 1569 4666 
L 2759 1491 
L 3956 4666 
L 4897 4666 
L 4897 0 
L 4281 0 
L 4281 4097 
L 3078 897 
L 2444 897 
L 1241 4097 
L 1241 0 
L 628 0 
L 628 4666 
z
" id="DejaVuSans-4d" transform="scale(0.015625)"/>
      </defs>
      <use xlink:href="#DejaVuSans-4d"/>
      <use x="86.279297" xlink:href="#DejaVuSans-65"/>
      <use x="147.802734" xlink:href="#DejaVuSans-61"/>
      <use x="209.082031" xlink:href="#DejaVuSans-6e"/>
     </g>
    </g>
    <g id="line2d_35">
     <path d="M 350.473125 69.248562 
L 370.473125 69.248562 
" style="fill:none;stroke:#ff0000;stroke-linecap:square;stroke-width:1.5;"/>
    </g>
    <g id="line2d_36"/>
    <g id="text_20">
     <!-- Max. -->
     <g transform="translate(378.473125 72.748562)scale(0.1 -0.1)">
      <defs>
       <path d="M 684 794 
L 1344 794 
L 1344 0 
L 684 0 
L 684 794 
z
" id="DejaVuSans-2e" transform="scale(0.015625)"/>
      </defs>
      <use xlink:href="#DejaVuSans-4d"/>
      <use x="86.279297" xlink:href="#DejaVuSans-61"/>
      <use x="147.558594" xlink:href="#DejaVuSans-78"/>
      <use x="206.738281" xlink:href="#DejaVuSans-2e"/>
     </g>
    </g>
   </g>
  </g>
 </g>
 <defs>
  <clipPath id="p99e1af9757">
   <rect height="266.112" width="357.12" x="57.6" y="41.472"/>
  </clipPath>
 </defs>
</svg>
