<?xml version="1.0" encoding="UTF-8" standalone="no"?>
<!DOCTYPE svg PUBLIC "-//W3C//DTD SVG 1.1//EN"
 "http://www.w3.org/Graphics/SVG/1.1/DTD/svg11.dtd">
<!-- Generated by graphviz version 2.49.0 (20210828.1703)
 -->
<!-- Pages: 1 -->
<svg width="1148pt" height="170pt"
 viewBox="0.00 0.00 1147.81 170.12" xmlns="http://www.w3.org/2000/svg" xmlns:xlink="http://www.w3.org/1999/xlink">
<g id="graph0" class="graph" transform="scale(1 1) rotate(0) translate(4 166.12)">
<polygon fill="white" stroke="transparent" points="-4,4 -4,-166.12 1143.81,-166.12 1143.81,4 -4,4"/>
<!-- &#45;1 -->
<g id="node1" class="node">
<title>&#45;1</title>
<polygon fill="lightgray" stroke="black" points="434.54,-95.91 410.54,-95.91 410.54,-77.91 434.54,-77.91 434.54,-95.91"/>
<text text-anchor="middle" x="422.54" y="-84.71" font-family="Times New Roman,serif" font-size="9.00">&#45;1</text>
</g>
<!-- 0 -->
<g id="node21" class="node">
<title>0</title>
<ellipse fill="lightblue" stroke="black" cx="548.54" cy="-14.85" rx="14.7" ry="14.7"/>
<text text-anchor="middle" x="548.54" y="-12.65" font-family="Times New Roman,serif" font-size="9.00">0</text>
</g>
<!-- &#45;1&#45;&gt;0 -->
<g id="edge1" class="edge">
<title>&#45;1&#45;&gt;0</title>
<path fill="none" stroke="red" stroke-width="0.14" d="M429.75,-77.73C433.57,-73.74 438.5,-69.09 443.54,-65.7 476.22,-43.71 489.43,-47.57 524.54,-29.7 525.36,-29.28 526.2,-28.84 527.04,-28.4"/>
<polygon fill="red" stroke="red" stroke-width="0.14" points="528.93,-31.35 535.97,-23.43 525.53,-25.23 528.93,-31.35"/>
</g>
<!-- 1 -->
<g id="node22" class="node">
<title>1</title>
<ellipse fill="lightblue" stroke="black" cx="375.54" cy="-14.85" rx="14.7" ry="14.7"/>
<text text-anchor="middle" x="375.54" y="-12.65" font-family="Times New Roman,serif" font-size="9.00">1</text>
</g>
<!-- &#45;1&#45;&gt;1 -->
<g id="edge2" class="edge">
<title>&#45;1&#45;&gt;1</title>
<path fill="none" stroke="green" stroke-width="0.17" stroke-dasharray="1,5" d="M417.14,-77.87C410.34,-67.73 398.4,-49.93 389.05,-35.99"/>
<polygon fill="green" stroke="green" stroke-width="0.17" points="391.83,-33.86 383.36,-27.51 386.02,-37.76 391.83,-33.86"/>
</g>
<!-- 2 -->
<g id="node23" class="node">
<title>2</title>
<ellipse fill="lightblue" stroke="black" cx="423.54" cy="-14.85" rx="14.7" ry="14.7"/>
<text text-anchor="middle" x="423.54" y="-12.65" font-family="Times New Roman,serif" font-size="9.00">2</text>
</g>
<!-- &#45;1&#45;&gt;2 -->
<g id="edge3" class="edge">
<title>&#45;1&#45;&gt;2</title>
<path fill="none" stroke="green" stroke-width="0.14" d="M422.65,-77.87C422.78,-68.72 423,-53.33 423.19,-40.16"/>
<polygon fill="green" stroke="green" stroke-width="0.14" points="426.69,-39.87 423.34,-29.82 419.69,-39.77 426.69,-39.87"/>
</g>
<!-- 3 -->
<g id="node24" class="node">
<title>3</title>
<ellipse fill="lightblue" stroke="black" cx="613.54" cy="-14.85" rx="14.7" ry="14.7"/>
<text text-anchor="middle" x="613.54" y="-12.65" font-family="Times New Roman,serif" font-size="9.00">3</text>
</g>
<!-- &#45;1&#45;&gt;3 -->
<g id="edge4" class="edge">
<title>&#45;1&#45;&gt;3</title>
<path fill="none" stroke="red" stroke-width="0.14" d="M429.18,-77.81C432.99,-73.65 438.09,-68.81 443.54,-65.7 495.22,-36.16 515.65,-47.23 572.54,-29.7 578.19,-27.96 584.25,-25.97 589.92,-24.07"/>
<polygon fill="red" stroke="red" stroke-width="0.14" points="591.22,-27.32 599.55,-20.78 588.96,-20.7 591.22,-27.32"/>
</g>
<!-- 4 -->
<g id="node25" class="node">
<title>4</title>
<ellipse fill="lightblue" stroke="black" cx="500.54" cy="-14.85" rx="14.7" ry="14.7"/>
<text text-anchor="middle" x="500.54" y="-12.65" font-family="Times New Roman,serif" font-size="9.00">4</text>
</g>
<!-- &#45;1&#45;&gt;4 -->
<g id="edge5" class="edge">
<title>&#45;1&#45;&gt;4</title>
<path fill="none" stroke="red" stroke-width="0.47" d="M431.03,-77.56C434.82,-73.88 439.36,-69.53 443.54,-65.7 456.04,-54.22 470.43,-41.65 481.62,-32"/>
<polygon fill="red" stroke="red" stroke-width="0.47" points="484.17,-34.42 489.47,-25.25 479.61,-29.11 484.17,-34.42"/>
</g>
<!-- &#45;2 -->
<g id="node2" class="node">
<title>&#45;2</title>
<polygon fill="lightgray" stroke="black" points="863.54,-95.91 839.54,-95.91 839.54,-77.91 863.54,-77.91 863.54,-95.91"/>
<text text-anchor="middle" x="851.54" y="-84.71" font-family="Times New Roman,serif" font-size="9.00">&#45;2</text>
</g>
<!-- &#45;2&#45;&gt;0 -->
<g id="edge6" class="edge">
<title>&#45;2&#45;&gt;0</title>
<path fill="none" stroke="green" stroke-width="0.21" d="M845.03,-77.54C841.27,-73.3 836.17,-68.47 830.54,-65.7 733.36,-17.88 694.81,-55.13 589.54,-29.7 583.69,-28.29 577.5,-26.41 571.74,-24.49"/>
<polygon fill="green" stroke="green" stroke-width="0.21" points="572.62,-21.08 562.03,-21.08 570.31,-27.69 572.62,-21.08"/>
</g>
<!-- &#45;2&#45;&gt;2 -->
<g id="edge7" class="edge">
<title>&#45;2&#45;&gt;2</title>
<path fill="none" stroke="red" stroke-width="0.46" d="M845.44,-77.85C841.66,-73.47 836.41,-68.42 830.54,-65.7 687.04,0.78 632.17,-57.77 476.54,-29.7 466.98,-27.98 456.62,-25.42 447.62,-22.98"/>
<polygon fill="red" stroke="red" stroke-width="0.46" points="448.37,-19.56 437.8,-20.22 446.48,-26.3 448.37,-19.56"/>
</g>
<!-- &#45;2&#45;&gt;3 -->
<g id="edge8" class="edge">
<title>&#45;2&#45;&gt;3</title>
<path fill="none" stroke="green" stroke-width="0.27" d="M844.95,-77.71C841.15,-73.52 836.05,-68.69 830.54,-65.7 767.03,-31.33 680.66,-20.58 638.61,-17.27"/>
<polygon fill="green" stroke="green" stroke-width="0.27" points="638.67,-13.77 628.44,-16.55 638.17,-20.75 638.67,-13.77"/>
</g>
<!-- &#45;2&#45;&gt;4 -->
<g id="edge9" class="edge">
<title>&#45;2&#45;&gt;4</title>
<path fill="none" stroke="green" stroke-width="0.14" d="M845.43,-77.88C841.64,-73.52 836.39,-68.47 830.54,-65.7 706.74,-7.16 654.51,-72.81 524.54,-29.7 523.66,-29.41 522.77,-29.08 521.89,-28.73"/>
<polygon fill="green" stroke="green" stroke-width="0.14" points="523.3,-25.52 512.79,-24.19 520.18,-31.78 523.3,-25.52"/>
</g>
<!-- &#45;3 -->
<g id="node3" class="node">
<title>&#45;3</title>
<polygon fill="lightgray" stroke="black" points="476.54,-95.91 452.54,-95.91 452.54,-77.91 476.54,-77.91 476.54,-95.91"/>
<text text-anchor="middle" x="464.54" y="-84.71" font-family="Times New Roman,serif" font-size="9.00">&#45;3</text>
</g>
<!-- &#45;3&#45;&gt;0 -->
<g id="edge10" class="edge">
<title>&#45;3&#45;&gt;0</title>
<path fill="none" stroke="red" stroke-width="0.32" d="M472.54,-77.85C476.39,-74.07 481.12,-69.56 485.54,-65.7 499.71,-53.32 516.43,-40.15 529.09,-30.46"/>
<polygon fill="red" stroke="red" stroke-width="0.32" points="531.27,-33.19 537.12,-24.35 527.04,-27.62 531.27,-33.19"/>
</g>
<!-- &#45;3&#45;&gt;1 -->
<g id="edge11" class="edge">
<title>&#45;3&#45;&gt;1</title>
<path fill="none" stroke="green" stroke-width="0.2" d="M456.59,-77.78C452.76,-73.98 448.03,-69.48 443.54,-65.7 428.1,-52.71 409.58,-39.26 395.76,-29.61"/>
<polygon fill="green" stroke="green" stroke-width="0.2" points="397.66,-26.67 387.45,-23.86 393.68,-32.42 397.66,-26.67"/>
</g>
<!-- &#45;3&#45;&gt;2 -->
<g id="edge12" class="edge">
<title>&#45;3&#45;&gt;2</title>
<path fill="none" stroke="green" stroke-width="0.52" d="M459.83,-77.87C454.02,-67.95 443.92,-50.67 435.84,-36.87"/>
<polygon fill="green" stroke="green" stroke-width="0.52" points="438.72,-34.87 430.65,-28.01 432.68,-38.41 438.72,-34.87"/>
</g>
<!-- &#45;3&#45;&gt;3 -->
<g id="edge13" class="edge">
<title>&#45;3&#45;&gt;3</title>
<path fill="none" stroke="green" stroke-width="0.21" d="M471.69,-77.63C475.49,-73.62 480.42,-68.97 485.54,-65.7 503.32,-54.33 557.7,-34.85 589.57,-23.91"/>
<polygon fill="green" stroke="green" stroke-width="0.21" points="591.09,-27.09 599.43,-20.56 588.83,-20.47 591.09,-27.09"/>
</g>
<!-- &#45;3&#45;&gt;4 -->
<g id="edge14" class="edge">
<title>&#45;3&#45;&gt;4</title>
<path fill="none" stroke="green" stroke-width="0.35" d="M468.67,-77.87C473.69,-68.1 482.37,-51.21 489.4,-37.52"/>
<polygon fill="green" stroke="green" stroke-width="0.35" points="492.7,-38.76 494.16,-28.26 486.48,-35.56 492.7,-38.76"/>
</g>
<!-- &#45;4 -->
<g id="node4" class="node">
<title>&#45;4</title>
<polygon fill="lightgray" stroke="black" points="726.54,-95.91 702.54,-95.91 702.54,-77.91 726.54,-77.91 726.54,-95.91"/>
<text text-anchor="middle" x="714.54" y="-84.71" font-family="Times New Roman,serif" font-size="9.00">&#45;4</text>
</g>
<!-- &#45;4&#45;&gt;0 -->
<g id="edge15" class="edge">
<title>&#45;4&#45;&gt;0</title>
<path fill="none" stroke="red" stroke-width="0.61" d="M705.41,-77.65C700.64,-73.64 694.55,-69 688.54,-65.7 678.04,-59.95 609.21,-36.34 572.12,-23.79"/>
<polygon fill="red" stroke="red" stroke-width="0.61" points="573.17,-20.45 562.58,-20.57 570.93,-27.08 573.17,-20.45"/>
</g>
<!-- &#45;4&#45;&gt;1 -->
<g id="edge16" class="edge">
<title>&#45;4&#45;&gt;1</title>
<path fill="none" stroke="green" stroke-width="1.11" d="M702.53,-81.04C690.75,-76.45 672.17,-69.68 655.54,-65.7 543.79,-38.96 508.18,-67.1 399.54,-29.7 398.66,-29.4 397.78,-29.06 396.9,-28.7"/>
<polygon fill="green" stroke="green" stroke-width="1.11" points="398.31,-25.49 387.81,-24.13 395.17,-31.75 398.31,-25.49"/>
</g>
<!-- &#45;4&#45;&gt;2 -->
<g id="edge17" class="edge">
<title>&#45;4&#45;&gt;2</title>
<path fill="none" stroke="green" stroke-width="0.34" d="M702.48,-81.26C690.65,-76.82 672.05,-70.17 655.54,-65.7 577.21,-44.5 555.6,-47.96 476.54,-29.7 467.08,-27.51 456.74,-24.87 447.72,-22.48"/>
<polygon fill="green" stroke="green" stroke-width="0.34" points="448.44,-19.05 437.88,-19.83 446.63,-25.81 448.44,-19.05"/>
</g>
<!-- &#45;4&#45;&gt;3 -->
<g id="edge18" class="edge">
<title>&#45;4&#45;&gt;3</title>
<path fill="none" stroke="green" stroke-width="0.5" d="M704.54,-77.86C699.76,-74.09 693.92,-69.57 688.54,-65.7 670.57,-52.77 649.53,-38.89 634.31,-29.07"/>
<polygon fill="green" stroke="green" stroke-width="0.5" points="635.98,-25.98 625.67,-23.52 632.2,-31.87 635.98,-25.98"/>
</g>
<!-- &#45;4&#45;&gt;4 -->
<g id="edge19" class="edge">
<title>&#45;4&#45;&gt;4</title>
<path fill="none" stroke="red" stroke-width="0.1" d="M706.05,-77.73C701.26,-73.54 694.96,-68.71 688.54,-65.7 620.97,-34.02 594.12,-56.67 524.54,-29.7 523.67,-29.36 522.8,-29 521.93,-28.62"/>
<polygon fill="red" stroke="red" stroke-width="0.1" points="523.37,-25.42 512.88,-23.94 520.16,-31.64 523.37,-25.42"/>
</g>
<!-- &#45;5 -->
<g id="node5" class="node">
<title>&#45;5</title>
<polygon fill="lightgray" stroke="black" points="518.54,-95.91 494.54,-95.91 494.54,-77.91 518.54,-77.91 518.54,-95.91"/>
<text text-anchor="middle" x="506.54" y="-84.71" font-family="Times New Roman,serif" font-size="9.00">&#45;5</text>
</g>
<!-- &#45;5&#45;&gt;0 -->
<g id="edge20" class="edge">
<title>&#45;5&#45;&gt;0</title>
<path fill="none" stroke="green" stroke-width="0.21" d="M511.35,-77.87C517.31,-67.95 527.66,-50.67 535.93,-36.87"/>
<polygon fill="green" stroke="green" stroke-width="0.21" points="539.11,-38.38 541.25,-28.01 533.1,-34.79 539.11,-38.38"/>
</g>
<!-- &#45;5&#45;&gt;1 -->
<g id="edge21" class="edge">
<title>&#45;5&#45;&gt;1</title>
<path fill="none" stroke="green" stroke-width="0.55" d="M499.35,-77.68C495.54,-73.68 490.61,-69.03 485.54,-65.7 450.91,-42.94 436.67,-48.09 399.54,-29.7 398.71,-29.29 397.87,-28.86 397.02,-28.42"/>
<polygon fill="green" stroke="green" stroke-width="0.55" points="398.52,-25.25 388.08,-23.49 395.14,-31.38 398.52,-25.25"/>
</g>
<!-- &#45;5&#45;&gt;2 -->
<g id="edge22" class="edge">
<title>&#45;5&#45;&gt;2</title>
<path fill="none" stroke="green" stroke-width="0.24" d="M498.52,-77.87C494.67,-74.09 489.94,-69.58 485.54,-65.7 471.85,-53.66 455.8,-40.78 443.46,-31.13"/>
<polygon fill="green" stroke="green" stroke-width="0.24" points="445.26,-28.1 435.22,-24.74 440.97,-33.63 445.26,-28.1"/>
</g>
<!-- &#45;5&#45;&gt;3 -->
<g id="edge23" class="edge">
<title>&#45;5&#45;&gt;3</title>
<path fill="none" stroke="green" stroke-width="0.19" d="M514.3,-77.56C518.1,-73.71 522.85,-69.23 527.54,-65.7 547.89,-50.36 573.37,-36.13 591.3,-26.84"/>
<polygon fill="green" stroke="green" stroke-width="0.19" points="593.08,-29.86 600.4,-22.2 589.9,-23.62 593.08,-29.86"/>
</g>
<!-- &#45;5&#45;&gt;4 -->
<g id="edge24" class="edge">
<title>&#45;5&#45;&gt;4</title>
<path fill="none" stroke="red" stroke-width="0.61" d="M505.85,-77.87C505.06,-68.72 503.75,-53.33 502.62,-40.16"/>
<polygon fill="red" stroke="red" stroke-width="0.61" points="506.07,-39.48 501.73,-29.82 499.1,-40.08 506.07,-39.48"/>
</g>
<!-- &#45;6 -->
<g id="node6" class="node">
<title>&#45;6</title>
<polygon fill="lightgray" stroke="black" points="560.54,-95.91 536.54,-95.91 536.54,-77.91 560.54,-77.91 560.54,-95.91"/>
<text text-anchor="middle" x="548.54" y="-84.71" font-family="Times New Roman,serif" font-size="9.00">&#45;6</text>
</g>
<!-- &#45;6&#45;&gt;0 -->
<g id="edge25" class="edge">
<title>&#45;6&#45;&gt;0</title>
<path fill="none" stroke="red" stroke-width="0.23" d="M548.54,-77.87C548.54,-68.72 548.54,-53.33 548.54,-40.16"/>
<polygon fill="red" stroke="red" stroke-width="0.23" points="552.04,-39.82 548.54,-29.82 545.04,-39.82 552.04,-39.82"/>
</g>
<!-- &#45;6&#45;&gt;1 -->
<g id="edge26" class="edge">
<title>&#45;6&#45;&gt;1</title>
<path fill="none" stroke="green" stroke-width="0.26" d="M541.89,-77.82C538.08,-73.66 532.98,-68.82 527.54,-65.7 476.26,-36.32 454,-52.64 399.54,-29.7 398.68,-29.34 397.82,-28.96 396.96,-28.55"/>
<polygon fill="green" stroke="green" stroke-width="0.26" points="398.42,-25.36 387.94,-23.79 395.15,-31.55 398.42,-25.36"/>
</g>
<!-- &#45;6&#45;&gt;2 -->
<g id="edge27" class="edge">
<title>&#45;6&#45;&gt;2</title>
<path fill="none" stroke="red" stroke-width="0.25" d="M541.28,-77.79C537.45,-73.82 532.53,-69.16 527.54,-65.7 501.83,-47.86 468.76,-33.23 446.89,-24.53"/>
<polygon fill="red" stroke="red" stroke-width="0.25" points="448.01,-21.21 437.42,-20.86 445.48,-27.74 448.01,-21.21"/>
</g>
<!-- &#45;6&#45;&gt;3 -->
<g id="edge28" class="edge">
<title>&#45;6&#45;&gt;3</title>
<path fill="none" stroke="red" stroke-width="0.37" stroke-dasharray="1,5" d="M555.99,-77.87C565.8,-67.3 583.34,-48.39 596.49,-34.22"/>
<polygon fill="red" stroke="red" stroke-width="0.37" points="599.39,-36.24 603.63,-26.53 594.26,-31.48 599.39,-36.24"/>
</g>
<!-- &#45;6&#45;&gt;4 -->
<g id="edge29" class="edge">
<title>&#45;6&#45;&gt;4</title>
<path fill="none" stroke="red" stroke-width="0.61" stroke-dasharray="1,5" d="M543.03,-77.87C536.08,-67.73 523.88,-49.93 514.33,-35.99"/>
<polygon fill="red" stroke="red" stroke-width="0.61" points="517.06,-33.78 508.52,-27.51 511.29,-37.73 517.06,-33.78"/>
</g>
<!-- &#45;7 -->
<g id="node7" class="node">
<title>&#45;7</title>
<polygon fill="lightgray" stroke="black" points="113.54,-95.91 89.54,-95.91 89.54,-77.91 113.54,-77.91 113.54,-95.91"/>
<text text-anchor="middle" x="101.54" y="-84.71" font-family="Times New Roman,serif" font-size="9.00">&#45;7</text>
</g>
<!-- &#45;7&#45;&gt;0 -->
<g id="edge30" class="edge">
<title>&#45;7&#45;&gt;0</title>
<path fill="none" stroke="green" stroke-width="0.27" d="M107.62,-77.82C111.39,-73.44 116.64,-68.39 122.54,-65.7 285.75,8.72 353.51,-83.8 524.54,-29.7 525.59,-29.36 526.65,-28.98 527.7,-28.55"/>
<polygon fill="green" stroke="green" stroke-width="0.27" points="529.44,-31.6 536.8,-23.97 526.3,-25.34 529.44,-31.6"/>
</g>
<!-- &#45;7&#45;&gt;1 -->
<g id="edge31" class="edge">
<title>&#45;7&#45;&gt;1</title>
<path fill="none" stroke="red" stroke-width="0.2" d="M108.09,-77.64C111.87,-73.43 116.97,-68.6 122.54,-65.7 198.8,-25.95 303.07,-17.79 350.37,-16.19"/>
<polygon fill="red" stroke="red" stroke-width="0.2" points="350.7,-19.68 360.61,-15.92 350.52,-12.68 350.7,-19.68"/>
</g>
<!-- &#45;7&#45;&gt;2 -->
<g id="edge32" class="edge">
<title>&#45;7&#45;&gt;2</title>
<path fill="none" stroke="red" stroke-width="0.14" d="M107.66,-77.91C111.45,-73.56 116.7,-68.5 122.54,-65.7 234.44,-11.95 281.94,-69.49 399.54,-29.7 400.41,-29.4 401.29,-29.07 402.17,-28.71"/>
<polygon fill="red" stroke="red" stroke-width="0.14" points="403.9,-31.76 411.28,-24.16 400.77,-25.5 403.9,-31.76"/>
</g>
<!-- &#45;7&#45;&gt;4 -->
<g id="edge33" class="edge">
<title>&#45;7&#45;&gt;4</title>
<path fill="none" stroke="green" stroke-width="0.69" stroke-dasharray="1,5" d="M107.64,-77.87C111.42,-73.5 116.67,-68.45 122.54,-65.7 254.13,-4.02 304.63,-56.14 447.54,-29.7 457.08,-27.93 467.44,-25.37 476.45,-22.93"/>
<polygon fill="green" stroke="green" stroke-width="0.69" points="477.58,-26.25 486.27,-20.18 475.69,-19.51 477.58,-26.25"/>
</g>
<!-- &#45;8 -->
<g id="node8" class="node">
<title>&#45;8</title>
<polygon fill="lightgray" stroke="black" points="991.54,-95.91 967.54,-95.91 967.54,-77.91 991.54,-77.91 991.54,-95.91"/>
<text text-anchor="middle" x="979.54" y="-84.71" font-family="Times New Roman,serif" font-size="9.00">&#45;8</text>
</g>
<!-- &#45;8&#45;&gt;0 -->
<g id="edge34" class="edge">
<title>&#45;8&#45;&gt;0</title>
<path fill="none" stroke="red" stroke-width="0.35" d="M971.63,-77.84C966.83,-73.46 960.33,-68.41 953.54,-65.7 802.55,-5.44 748.46,-63.93 589.54,-29.7 583.66,-28.43 577.45,-26.61 571.7,-24.69"/>
<polygon fill="red" stroke="red" stroke-width="0.35" points="572.58,-21.29 561.99,-21.26 570.24,-27.89 572.58,-21.29"/>
</g>
<!-- &#45;8&#45;&gt;3 -->
<g id="edge35" class="edge">
<title>&#45;8&#45;&gt;3</title>
<path fill="none" stroke="red" stroke-width="0.14" d="M971.13,-77.55C966.36,-73.31 960.06,-68.48 953.54,-65.7 843.21,-18.64 696.48,-14.75 638.56,-15.25"/>
<polygon fill="red" stroke="red" stroke-width="0.14" points="638.46,-11.75 628.51,-15.39 638.55,-18.75 638.46,-11.75"/>
</g>
<!-- &#45;8&#45;&gt;4 -->
<g id="edge36" class="edge">
<title>&#45;8&#45;&gt;4</title>
<path fill="none" stroke="green" stroke-width="0.43" d="M967.12,-80.68C955.35,-75.96 937.05,-69.23 920.54,-65.7 747.71,-28.8 693,-83.11 524.54,-29.7 523.48,-29.36 522.42,-28.98 521.37,-28.55"/>
<polygon fill="green" stroke="green" stroke-width="0.43" points="522.78,-25.34 512.27,-23.97 519.63,-31.59 522.78,-25.34"/>
</g>
<!-- &#45;9 -->
<g id="node9" class="node">
<title>&#45;9</title>
<polygon fill="lightgray" stroke="black" points="297.54,-95.91 273.54,-95.91 273.54,-77.91 297.54,-77.91 297.54,-95.91"/>
<text text-anchor="middle" x="285.54" y="-84.71" font-family="Times New Roman,serif" font-size="9.00">&#45;9</text>
</g>
<!-- &#45;9&#45;&gt;0 -->
<g id="edge37" class="edge">
<title>&#45;9&#45;&gt;0</title>
<path fill="none" stroke="red" stroke-width="0.14" d="M292.06,-77.58C295.83,-73.34 300.93,-68.51 306.54,-65.7 394.31,-21.66 432.07,-62.77 524.54,-29.7 525.41,-29.39 526.28,-29.04 527.16,-28.68"/>
<polygon fill="red" stroke="red" stroke-width="0.14" points="528.91,-31.71 536.24,-24.07 525.74,-25.47 528.91,-31.71"/>
</g>
<!-- &#45;9&#45;&gt;1 -->
<g id="edge38" class="edge">
<title>&#45;9&#45;&gt;1</title>
<path fill="none" stroke="green" stroke-width="0.34" d="M293.47,-77.76C297.3,-73.96 302.03,-69.46 306.54,-65.7 322.17,-52.64 340.96,-39.2 354.99,-29.56"/>
<polygon fill="green" stroke="green" stroke-width="0.34" points="357.13,-32.34 363.44,-23.83 353.2,-26.55 357.13,-32.34"/>
</g>
<!-- &#45;9&#45;&gt;2 -->
<g id="edge39" class="edge">
<title>&#45;9&#45;&gt;2</title>
<path fill="none" stroke="red" stroke-width="0.16" d="M292.68,-77.62C296.48,-73.61 301.42,-68.96 306.54,-65.7 343.9,-41.86 359.56,-48.83 399.54,-29.7 400.37,-29.3 401.22,-28.88 402.07,-28.45"/>
<polygon fill="red" stroke="red" stroke-width="0.16" points="403.93,-31.42 411.03,-23.55 400.57,-25.28 403.93,-31.42"/>
</g>
<!-- &#45;9&#45;&gt;3 -->
<g id="edge40" class="edge">
<title>&#45;9&#45;&gt;3</title>
<path fill="none" stroke="green" stroke-width="0.31" d="M292.02,-77.51C295.78,-73.26 300.89,-68.43 306.54,-65.7 413.94,-13.76 456.38,-56.91 572.54,-29.7 578.39,-28.33 584.59,-26.46 590.34,-24.54"/>
<polygon fill="green" stroke="green" stroke-width="0.31" points="591.78,-27.75 600.06,-21.13 589.46,-21.14 591.78,-27.75"/>
</g>
<!-- &#45;9&#45;&gt;4 -->
<g id="edge41" class="edge">
<title>&#45;9&#45;&gt;4</title>
<path fill="none" stroke="green" stroke-width="0.69" d="M292.16,-77.77C295.96,-73.59 301.05,-68.75 306.54,-65.7 363.04,-34.23 384.91,-45.87 447.54,-29.7 456.93,-27.27 467.26,-24.58 476.29,-22.22"/>
<polygon fill="green" stroke="green" stroke-width="0.69" points="477.36,-25.55 486.15,-19.63 475.58,-18.78 477.36,-25.55"/>
</g>
<!-- &#45;10 -->
<g id="node10" class="node">
<title>&#45;10</title>
<polygon fill="lightgray" stroke="black" points="646.04,-95.91 617.04,-95.91 617.04,-77.91 646.04,-77.91 646.04,-95.91"/>
<text text-anchor="middle" x="631.54" y="-84.71" font-family="Times New Roman,serif" font-size="9.00">&#45;10</text>
</g>
<!-- &#45;10&#45;&gt;0 -->
<g id="edge42" class="edge">
<title>&#45;10&#45;&gt;0</title>
<path fill="none" stroke="red" stroke-width="0.62" d="M622.02,-77.87C608.7,-66.63 584.22,-45.97 567.2,-31.6"/>
<polygon fill="red" stroke="red" stroke-width="0.62" points="569.42,-28.9 559.52,-25.12 564.9,-34.25 569.42,-28.9"/>
</g>
<!-- &#45;10&#45;&gt;1 -->
<g id="edge43" class="edge">
<title>&#45;10&#45;&gt;1</title>
<path fill="none" stroke="green" stroke-width="0.33" d="M616.89,-80.65C604.41,-76.28 585.94,-70.1 569.54,-65.7 494.94,-45.7 471.65,-57.34 399.54,-29.7 398.67,-29.37 397.8,-29.01 396.93,-28.62"/>
<polygon fill="green" stroke="green" stroke-width="0.33" points="398.36,-25.43 387.87,-23.96 395.16,-31.65 398.36,-25.43"/>
</g>
<!-- &#45;10&#45;&gt;2 -->
<g id="edge44" class="edge">
<title>&#45;10&#45;&gt;2</title>
<path fill="none" stroke="red" stroke-width="0.41" stroke-dasharray="1,5" d="M616.91,-80.99C581.37,-69.01 490.23,-38.32 446.99,-23.75"/>
<polygon fill="red" stroke="red" stroke-width="0.41" points="447.92,-20.37 437.32,-20.49 445.68,-27 447.92,-20.37"/>
</g>
<!-- &#45;10&#45;&gt;3 -->
<g id="edge45" class="edge">
<title>&#45;10&#45;&gt;3</title>
<path fill="none" stroke="green" stroke-width="0.46" d="M629.47,-77.87C627.07,-68.52 622.99,-52.63 619.56,-39.28"/>
<polygon fill="green" stroke="green" stroke-width="0.46" points="622.87,-38.11 616.99,-29.29 616.09,-39.85 622.87,-38.11"/>
</g>
<!-- &#45;10&#45;&gt;4 -->
<g id="edge46" class="edge">
<title>&#45;10&#45;&gt;4</title>
<path fill="none" stroke="red" stroke-width="0.25" stroke-dasharray="1,5" d="M620.82,-77.76C615.47,-73.88 608.82,-69.3 602.54,-65.7 569.41,-46.71 558.44,-47.26 524.54,-29.7 523.71,-29.27 522.88,-28.83 522.04,-28.38"/>
<polygon fill="red" stroke="red" stroke-width="0.25" points="523.56,-25.22 513.12,-23.4 520.14,-31.33 523.56,-25.22"/>
</g>
<!-- &#45;11 -->
<g id="node11" class="node">
<title>&#45;11</title>
<polygon fill="lightgray" stroke="black" points="774.04,-95.91 745.04,-95.91 745.04,-77.91 774.04,-77.91 774.04,-95.91"/>
<text text-anchor="middle" x="759.54" y="-84.71" font-family="Times New Roman,serif" font-size="9.00">&#45;11</text>
</g>
<!-- &#45;11&#45;&gt;0 -->
<g id="edge47" class="edge">
<title>&#45;11&#45;&gt;0</title>
<path fill="none" stroke="green" stroke-width="0.32" d="M751.78,-77.78C747.38,-73.6 741.56,-68.76 735.54,-65.7 675.98,-35.38 653.7,-48.41 589.54,-29.7 583.86,-28.04 577.79,-26.09 572.12,-24.19"/>
<polygon fill="green" stroke="green" stroke-width="0.32" points="573.08,-20.82 562.49,-20.89 570.81,-27.44 573.08,-20.82"/>
</g>
<!-- &#45;11&#45;&gt;1 -->
<g id="edge48" class="edge">
<title>&#45;11&#45;&gt;1</title>
<path fill="none" stroke="red" stroke-width="0.1" d="M752.35,-77.86C747.95,-73.49 741.95,-68.44 735.54,-65.7 597.4,-6.75 542.33,-76.24 399.54,-29.7 398.66,-29.41 397.77,-29.09 396.89,-28.74"/>
<polygon fill="red" stroke="red" stroke-width="0.1" points="398.29,-25.53 387.78,-24.22 395.18,-31.8 398.29,-25.53"/>
</g>
<!-- &#45;11&#45;&gt;2 -->
<g id="edge49" class="edge">
<title>&#45;11&#45;&gt;2</title>
<path fill="none" stroke="red" stroke-width="0.21" d="M751.9,-77.52C747.53,-73.28 741.71,-68.45 735.54,-65.7 629.37,-18.41 590.51,-52.43 476.54,-29.7 467.02,-27.8 456.66,-25.21 447.66,-22.79"/>
<polygon fill="red" stroke="red" stroke-width="0.21" points="448.4,-19.36 437.83,-20.07 446.53,-26.11 448.4,-19.36"/>
</g>
<!-- &#45;11&#45;&gt;3 -->
<g id="edge50" class="edge">
<title>&#45;11&#45;&gt;3</title>
<path fill="none" stroke="red" stroke-width="0.16" d="M751.15,-77.72C746.75,-73.73 741.13,-69.08 735.54,-65.7 703.53,-46.34 662.65,-31.38 637.28,-23.09"/>
<polygon fill="red" stroke="red" stroke-width="0.16" points="638.34,-19.75 627.74,-20.05 636.21,-26.42 638.34,-19.75"/>
</g>
<!-- &#45;11&#45;&gt;4 -->
<g id="edge51" class="edge">
<title>&#45;11&#45;&gt;4</title>
<path fill="none" stroke="green" stroke-width="0.21" d="M751.86,-77.6C747.49,-73.37 741.66,-68.54 735.54,-65.7 649.24,-25.65 614.03,-61.98 524.54,-29.7 523.67,-29.38 522.79,-29.04 521.91,-28.67"/>
<polygon fill="green" stroke="green" stroke-width="0.21" points="523.33,-25.46 512.83,-24.06 520.17,-31.71 523.33,-25.46"/>
</g>
<!-- &#45;12 -->
<g id="node12" class="node">
<title>&#45;12</title>
<polygon fill="lightgray" stroke="black" points="161.04,-95.91 132.04,-95.91 132.04,-77.91 161.04,-77.91 161.04,-95.91"/>
<text text-anchor="middle" x="146.54" y="-84.71" font-family="Times New Roman,serif" font-size="9.00">&#45;12</text>
</g>
<!-- &#45;12&#45;&gt;0 -->
<g id="edge52" class="edge">
<title>&#45;12&#45;&gt;0</title>
<path fill="none" stroke="red" stroke-width="0.15" d="M153.36,-77.84C157.55,-73.47 163.3,-68.42 169.54,-65.7 314.91,-2.33 373.62,-78.41 524.54,-29.7 525.59,-29.36 526.65,-28.97 527.7,-28.54"/>
<polygon fill="red" stroke="red" stroke-width="0.15" points="529.45,-31.58 536.79,-23.94 526.29,-25.33 529.45,-31.58"/>
</g>
<!-- &#45;12&#45;&gt;1 -->
<g id="edge53" class="edge">
<title>&#45;12&#45;&gt;1</title>
<path fill="none" stroke="red" stroke-width="0.48" d="M153.91,-77.76C158.11,-73.58 163.69,-68.74 169.54,-65.7 229.95,-34.31 310.65,-22.25 350.75,-17.98"/>
<polygon fill="red" stroke="red" stroke-width="0.48" points="351.1,-21.46 360.71,-16.99 350.41,-14.5 351.1,-21.46"/>
</g>
<!-- &#45;12&#45;&gt;2 -->
<g id="edge54" class="edge">
<title>&#45;12&#45;&gt;2</title>
<path fill="none" stroke="green" stroke-width="0.57" d="M153.81,-77.56C157.98,-73.32 163.57,-68.5 169.54,-65.7 263.23,-21.8 301.97,-64.14 399.54,-29.7 400.41,-29.39 401.29,-29.05 402.16,-28.68"/>
<polygon fill="green" stroke="green" stroke-width="0.57" points="403.9,-31.73 411.25,-24.09 400.75,-25.48 403.9,-31.73"/>
</g>
<!-- &#45;12&#45;&gt;3 -->
<g id="edge55" class="edge">
<title>&#45;12&#45;&gt;3</title>
<path fill="none" stroke="green" stroke-width="0.43" d="M153.35,-77.82C157.53,-73.43 163.28,-68.38 169.54,-65.7 334.81,5.16 396.57,-66.73 572.54,-29.7 578.42,-28.46 584.63,-26.64 590.39,-24.73"/>
<polygon fill="green" stroke="green" stroke-width="0.43" points="591.84,-27.93 600.09,-21.29 589.5,-21.33 591.84,-27.93"/>
</g>
<!-- &#45;12&#45;&gt;4 -->
<g id="edge56" class="edge">
<title>&#45;12&#45;&gt;4</title>
<path fill="none" stroke="red" stroke-width="0.28" stroke-dasharray="1,5" d="M153.39,-77.91C157.59,-73.56 163.34,-68.5 169.54,-65.7 283.05,-14.34 325.24,-53.5 447.54,-29.7 457.06,-27.84 467.42,-25.27 476.43,-22.84"/>
<polygon fill="red" stroke="red" stroke-width="0.28" points="477.56,-26.16 486.25,-20.11 475.68,-19.41 477.56,-26.16"/>
</g>
<!-- &#45;13 -->
<g id="node13" class="node">
<title>&#45;13</title>
<polygon fill="lightgray" stroke="black" points="208.04,-95.91 179.04,-95.91 179.04,-77.91 208.04,-77.91 208.04,-95.91"/>
<text text-anchor="middle" x="193.54" y="-84.71" font-family="Times New Roman,serif" font-size="9.00">&#45;13</text>
</g>
<!-- &#45;13&#45;&gt;0 -->
<g id="edge57" class="edge">
<title>&#45;13&#45;&gt;0</title>
<path fill="none" stroke="red" stroke-width="0.24" d="M200.37,-77.88C204.57,-73.52 210.32,-68.46 216.54,-65.7 342.45,-9.67 393.71,-73.03 524.54,-29.7 525.42,-29.41 526.3,-29.08 527.18,-28.73"/>
<polygon fill="red" stroke="red" stroke-width="0.24" points="528.89,-31.78 536.29,-24.19 525.77,-25.52 528.89,-31.78"/>
</g>
<!-- &#45;13&#45;&gt;1 -->
<g id="edge58" class="edge">
<title>&#45;13&#45;&gt;1</title>
<path fill="none" stroke="green" stroke-width="0.13" d="M200.99,-77.91C205.22,-73.77 210.79,-68.93 216.54,-65.7 260.48,-40.98 318.29,-26.81 350.72,-20.29"/>
<polygon fill="green" stroke="green" stroke-width="0.13" points="351.53,-23.7 360.68,-18.36 350.2,-16.82 351.53,-23.7"/>
</g>
<!-- &#45;13&#45;&gt;2 -->
<g id="edge59" class="edge">
<title>&#45;13&#45;&gt;2</title>
<path fill="none" stroke="green" stroke-width="0.2" d="M200.86,-77.65C205.04,-73.44 210.62,-68.61 216.54,-65.7 290.9,-29.08 321.92,-58.81 399.54,-29.7 400.4,-29.37 401.28,-29.02 402.15,-28.64"/>
<polygon fill="green" stroke="green" stroke-width="0.2" points="403.91,-31.67 411.22,-23.99 400.72,-25.44 403.91,-31.67"/>
</g>
<!-- &#45;13&#45;&gt;3 -->
<g id="edge60" class="edge">
<title>&#45;13&#45;&gt;3</title>
<path fill="none" stroke="red" stroke-width="0.22" d="M200.36,-77.84C204.55,-73.47 210.3,-68.42 216.54,-65.7 362.33,-2.18 417.11,-63.36 572.54,-29.7 578.41,-28.43 584.62,-26.6 590.38,-24.68"/>
<polygon fill="red" stroke="red" stroke-width="0.22" points="591.83,-27.88 600.09,-21.25 589.49,-21.28 591.83,-27.88"/>
</g>
<!-- &#45;13&#45;&gt;4 -->
<g id="edge61" class="edge">
<title>&#45;13&#45;&gt;4</title>
<path fill="none" stroke="red" stroke-width="0.71" d="M200.81,-77.56C204.98,-73.32 210.57,-68.49 216.54,-65.7 310.64,-21.65 345.81,-50.86 447.54,-29.7 457.04,-27.72 467.39,-25.12 476.4,-22.71"/>
<polygon fill="red" stroke="red" stroke-width="0.71" points="477.52,-26.03 486.23,-20.01 475.66,-19.28 477.52,-26.03"/>
</g>
<!-- &#45;14 -->
<g id="node14" class="node">
<title>&#45;14</title>
<polygon fill="lightgray" stroke="black" points="911.04,-95.91 882.04,-95.91 882.04,-77.91 911.04,-77.91 911.04,-95.91"/>
<text text-anchor="middle" x="896.54" y="-84.71" font-family="Times New Roman,serif" font-size="9.00">&#45;14</text>
</g>
<!-- &#45;14&#45;&gt;0 -->
<g id="edge62" class="edge">
<title>&#45;14&#45;&gt;0</title>
<path fill="none" stroke="red" stroke-width="0.71" d="M889.33,-77.91C884.92,-73.55 878.92,-68.5 872.54,-65.7 756.42,-14.78 713.1,-58.13 589.54,-29.7 583.68,-28.35 577.48,-26.49 571.72,-24.58"/>
<polygon fill="red" stroke="red" stroke-width="0.71" points="572.6,-21.18 562.01,-21.16 570.28,-27.78 572.6,-21.18"/>
</g>
<!-- &#45;14&#45;&gt;2 -->
<g id="edge63" class="edge">
<title>&#45;14&#45;&gt;2</title>
<path fill="none" stroke="red" stroke-width="0.39" stroke-dasharray="1,5" d="M889.36,-77.82C884.97,-73.44 878.97,-68.38 872.54,-65.7 709.44,2.36 650.62,-60.14 476.54,-29.7 466.98,-28.03 456.61,-25.49 447.61,-23.04"/>
<polygon fill="red" stroke="red" stroke-width="0.39" points="448.37,-19.61 437.79,-20.26 446.46,-26.35 448.37,-19.61"/>
</g>
<!-- &#45;14&#45;&gt;3 -->
<g id="edge64" class="edge">
<title>&#45;14&#45;&gt;3</title>
<path fill="none" stroke="green" stroke-width="0.39" d="M888.84,-77.65C884.45,-73.44 878.63,-68.61 872.54,-65.7 792.78,-27.66 686.1,-18.64 638.4,-16.51"/>
<polygon fill="green" stroke="green" stroke-width="0.39" points="638.5,-13.01 628.37,-16.13 638.23,-20 638.5,-13.01"/>
</g>
<!-- &#45;15 -->
<g id="node15" class="node">
<title>&#45;15</title>
<polygon fill="lightgray" stroke="black" points="255.04,-95.91 226.04,-95.91 226.04,-77.91 255.04,-77.91 255.04,-95.91"/>
<text text-anchor="middle" x="240.54" y="-84.71" font-family="Times New Roman,serif" font-size="9.00">&#45;15</text>
</g>
<!-- &#45;15&#45;&gt;0 -->
<g id="edge65" class="edge">
<title>&#45;15&#45;&gt;0</title>
<path fill="none" stroke="green" stroke-width="0.3" d="M248.18,-77.52C252.54,-73.27 258.37,-68.45 264.54,-65.7 371.11,-18.26 414.19,-67.55 524.54,-29.7 525.41,-29.4 526.29,-29.06 527.17,-28.7"/>
<polygon fill="green" stroke="green" stroke-width="0.3" points="528.9,-31.75 536.27,-24.14 525.76,-25.5 528.9,-31.75"/>
</g>
<!-- &#45;15&#45;&gt;1 -->
<g id="edge66" class="edge">
<title>&#45;15&#45;&gt;1</title>
<path fill="none" stroke="green" stroke-width="0.56" d="M248.97,-77.8C253.38,-73.84 259,-69.18 264.54,-65.7 292.92,-47.86 328.77,-32.98 351.92,-24.25"/>
<polygon fill="green" stroke="green" stroke-width="0.56" points="353.42,-27.43 361.59,-20.68 351,-20.86 353.42,-27.43"/>
</g>
<!-- &#45;15&#45;&gt;2 -->
<g id="edge67" class="edge">
<title>&#45;15&#45;&gt;2</title>
<path fill="none" stroke="red" stroke-width="0.24" d="M248.32,-77.82C252.73,-73.66 258.55,-68.82 264.54,-65.7 319.61,-37.01 342.15,-53.42 399.54,-29.7 400.39,-29.34 401.26,-28.97 402.12,-28.57"/>
<polygon fill="red" stroke="red" stroke-width="0.24" points="403.92,-31.57 411.15,-23.82 400.67,-25.38 403.92,-31.57"/>
</g>
<!-- &#45;15&#45;&gt;3 -->
<g id="edge68" class="edge">
<title>&#45;15&#45;&gt;3</title>
<path fill="none" stroke="red" stroke-width="0.29" d="M247.74,-77.88C252.14,-73.52 258.14,-68.47 264.54,-65.7 391.04,-10.99 438.07,-59.92 572.54,-29.7 578.4,-28.38 584.6,-26.53 590.36,-24.62"/>
<polygon fill="red" stroke="red" stroke-width="0.29" points="591.81,-27.82 600.07,-21.19 589.48,-21.22 591.81,-27.82"/>
</g>
<!-- &#45;15&#45;&gt;4 -->
<g id="edge69" class="edge">
<title>&#45;15&#45;&gt;4</title>
<path fill="none" stroke="red" stroke-width="0.29" d="M248.24,-77.66C252.62,-73.45 258.45,-68.62 264.54,-65.7 339.28,-29.86 366.73,-48.19 447.54,-29.7 457,-27.53 467.34,-24.89 476.36,-22.5"/>
<polygon fill="red" stroke="red" stroke-width="0.29" points="477.45,-25.83 486.2,-19.85 475.63,-19.07 477.45,-25.83"/>
</g>
<!-- &#45;16 -->
<g id="node16" class="node">
<title>&#45;16</title>
<polygon fill="lightgray" stroke="black" points="821.04,-95.91 792.04,-95.91 792.04,-77.91 821.04,-77.91 821.04,-95.91"/>
<text text-anchor="middle" x="806.54" y="-84.71" font-family="Times New Roman,serif" font-size="9.00">&#45;16</text>
</g>
<!-- &#45;16&#45;&gt;0 -->
<g id="edge70" class="edge">
<title>&#45;16&#45;&gt;0</title>
<path fill="none" stroke="green" stroke-width="0.32" d="M799.23,-77.63C795.05,-73.41 789.47,-68.58 783.54,-65.7 704.66,-27.38 674.4,-51.79 589.54,-29.7 583.81,-28.21 577.73,-26.32 572.05,-24.43"/>
<polygon fill="green" stroke="green" stroke-width="0.32" points="573.02,-21.06 562.43,-21.09 570.73,-27.68 573.02,-21.06"/>
</g>
<!-- &#45;16&#45;&gt;1 -->
<g id="edge71" class="edge">
<title>&#45;16&#45;&gt;1</title>
<path fill="none" stroke="red" stroke-width="0.11" d="M799.72,-77.83C795.53,-73.45 789.78,-68.39 783.54,-65.7 626.14,2.19 562.86,-81.73 399.54,-29.7 398.48,-29.36 397.42,-28.98 396.37,-28.55"/>
<polygon fill="red" stroke="red" stroke-width="0.11" points="397.78,-25.34 387.27,-23.96 394.63,-31.59 397.78,-25.34"/>
</g>
<!-- &#45;16&#45;&gt;3 -->
<g id="edge72" class="edge">
<title>&#45;16&#45;&gt;3</title>
<path fill="none" stroke="red" stroke-width="0.59" d="M799.1,-77.87C794.89,-73.72 789.31,-68.88 783.54,-65.7 735.88,-39.47 672.93,-25.69 638.57,-19.68"/>
<polygon fill="red" stroke="red" stroke-width="0.59" points="638.91,-16.19 628.47,-17.99 637.76,-23.09 638.91,-16.19"/>
</g>
<!-- &#45;16&#45;&gt;4 -->
<g id="edge73" class="edge">
<title>&#45;16&#45;&gt;4</title>
<path fill="none" stroke="green" stroke-width="0.25" stroke-dasharray="1,5" d="M799.28,-77.52C795.11,-73.27 789.53,-68.44 783.54,-65.7 677.88,-17.3 634.46,-67.44 524.54,-29.7 523.66,-29.4 522.78,-29.06 521.9,-28.7"/>
<polygon fill="green" stroke="green" stroke-width="0.25" points="523.31,-25.5 512.81,-24.14 520.17,-31.75 523.31,-25.5"/>
</g>
<!-- &#45;17 -->
<g id="node17" class="node">
<title>&#45;17</title>
<polygon fill="lightgray" stroke="black" points="1083.04,-162.12 1054.04,-162.12 1054.04,-144.12 1083.04,-144.12 1083.04,-162.12"/>
<text text-anchor="middle" x="1068.54" y="-150.92" font-family="Times New Roman,serif" font-size="9.00">&#45;17</text>
</g>
<!-- &#45;17&#45;&gt;0 -->
<g id="edge74" class="edge">
<title>&#45;17&#45;&gt;0</title>
<path fill="none" stroke="green" stroke-width="0.29" d="M1075.98,-144.12C1090.6,-127.43 1119.87,-88.59 1098.54,-65.7 1059.89,-24.22 645.12,-40.86 589.54,-29.7 583.64,-28.52 577.43,-26.72 571.67,-24.81"/>
<polygon fill="green" stroke="green" stroke-width="0.29" points="572.56,-21.41 561.96,-21.35 570.21,-28 572.56,-21.41"/>
</g>
<!-- &#45;17&#45;&gt;1 -->
<g id="edge75" class="edge">
<title>&#45;17&#45;&gt;1</title>
<path fill="none" stroke="red" stroke-width="0.48" stroke-dasharray="1,5" d="M1053.94,-151.61C932.17,-147.33 89.34,-117.33 80.54,-108.12 0.41,-24.35 265.59,-16.25 350.35,-15.77"/>
<polygon fill="red" stroke="red" stroke-width="0.48" points="350.42,-19.27 360.41,-15.74 350.4,-12.27 350.42,-19.27"/>
</g>
<!-- &#45;17&#45;&gt;3 -->
<g id="edge76" class="edge">
<title>&#45;17&#45;&gt;3</title>
<path fill="none" stroke="green" stroke-width="0.28" d="M1083.18,-146.68C1098.41,-140.13 1121.42,-127.53 1131.54,-108.12 1140.25,-91.4 1144.22,-79.66 1131.54,-65.7 1098.05,-28.83 737.95,-18.49 638.72,-16.33"/>
<polygon fill="green" stroke="green" stroke-width="0.28" points="638.52,-12.83 628.45,-16.12 638.37,-19.83 638.52,-12.83"/>
</g>
<!-- &#45;17&#45;&gt;4 -->
<g id="edge77" class="edge">
<title>&#45;17&#45;&gt;4</title>
<path fill="none" stroke="red" stroke-width="0.55" stroke-dasharray="1,5" d="M1053.87,-151.78C992.7,-150.11 758.12,-141.63 693.54,-108.12 671.07,-96.47 677.06,-79.02 655.54,-65.7 604.2,-33.92 580.25,-52.98 524.54,-29.7 523.68,-29.34 522.82,-28.96 521.96,-28.56"/>
<polygon fill="red" stroke="red" stroke-width="0.55" points="523.41,-25.37 512.93,-23.81 520.15,-31.56 523.41,-25.37"/>
</g>
<!-- 170 -->
<g id="node26" class="node">
<title>170</title>
<ellipse fill="white" stroke="black" cx="1068.54" cy="-86.91" rx="21.43" ry="21.43"/>
<text text-anchor="middle" x="1068.54" y="-84.71" font-family="Times New Roman,serif" font-size="9.00">170</text>
</g>
<!-- &#45;17&#45;&gt;170 -->
<g id="edge93" class="edge">
<title>&#45;17&#45;&gt;170</title>
<path fill="none" stroke="red" stroke-width="0.33" d="M1068.54,-143.99C1068.54,-137.45 1068.54,-127.82 1068.54,-118.38"/>
<polygon fill="red" stroke="red" stroke-width="0.33" points="1072.04,-118.37 1068.54,-108.37 1065.04,-118.37 1072.04,-118.37"/>
</g>
<!-- &#45;18 -->
<g id="node18" class="node">
<title>&#45;18</title>
<polygon fill="lightgray" stroke="black" points="392.04,-95.91 363.04,-95.91 363.04,-77.91 392.04,-77.91 392.04,-95.91"/>
<text text-anchor="middle" x="377.54" y="-84.71" font-family="Times New Roman,serif" font-size="9.00">&#45;18</text>
</g>
<!-- &#45;18&#45;&gt;0 -->
<g id="edge78" class="edge">
<title>&#45;18&#45;&gt;0</title>
<path fill="none" stroke="red" stroke-width="0.19" d="M385.35,-77.88C389.77,-73.73 395.58,-68.89 401.54,-65.7 451.73,-38.77 472.16,-52.09 524.54,-29.7 525.39,-29.33 526.25,-28.95 527.11,-28.54"/>
<polygon fill="red" stroke="red" stroke-width="0.19" points="528.93,-31.54 536.12,-23.76 525.65,-25.35 528.93,-31.54"/>
</g>
<!-- &#45;18&#45;&gt;1 -->
<g id="edge79" class="edge">
<title>&#45;18&#45;&gt;1</title>
<path fill="none" stroke="green" stroke-width="0.69" d="M377.31,-77.87C377.05,-68.72 376.61,-53.33 376.23,-40.16"/>
<polygon fill="green" stroke="green" stroke-width="0.69" points="379.72,-39.72 375.94,-29.82 372.72,-39.92 379.72,-39.72"/>
</g>
<!-- &#45;18&#45;&gt;2 -->
<g id="edge80" class="edge">
<title>&#45;18&#45;&gt;2</title>
<path fill="none" stroke="green" stroke-width="0.27" d="M382.81,-77.87C389.43,-67.79 401.03,-50.14 410.15,-36.23"/>
<polygon fill="green" stroke="green" stroke-width="0.27" points="413.16,-38.04 415.72,-27.76 407.3,-34.2 413.16,-38.04"/>
</g>
<!-- &#45;18&#45;&gt;3 -->
<g id="edge81" class="edge">
<title>&#45;18&#45;&gt;3</title>
<path fill="none" stroke="red" stroke-width="0.14" d="M385.26,-77.69C389.64,-73.49 395.46,-68.66 401.54,-65.7 471.34,-31.66 497.61,-50.16 572.54,-29.7 578.24,-28.14 584.32,-26.23 590,-24.33"/>
<polygon fill="red" stroke="red" stroke-width="0.14" points="591.31,-27.58 599.62,-21.01 589.03,-20.96 591.31,-27.58"/>
</g>
<!-- &#45;18&#45;&gt;4 -->
<g id="edge82" class="edge">
<title>&#45;18&#45;&gt;4</title>
<path fill="none" stroke="red" stroke-width="0.13" d="M386.04,-77.91C390.47,-73.96 396.08,-69.3 401.54,-65.7 426.38,-49.31 457.35,-34.52 477.97,-25.39"/>
<polygon fill="red" stroke="red" stroke-width="0.13" points="479.41,-28.58 487.19,-21.38 476.62,-22.16 479.41,-28.58"/>
</g>
<!-- &#45;19 -->
<g id="node19" class="node">
<title>&#45;19</title>
<polygon fill="lightgray" stroke="black" points="779.04,-162.12 750.04,-162.12 750.04,-144.12 779.04,-144.12 779.04,-162.12"/>
<text text-anchor="middle" x="764.54" y="-150.92" font-family="Times New Roman,serif" font-size="9.00">&#45;19</text>
</g>
<!-- &#45;19&#45;&gt;0 -->
<g id="edge83" class="edge">
<title>&#45;19&#45;&gt;0</title>
<path fill="none" stroke="red" stroke-width="0.52" d="M779.09,-150.25C814.44,-145.36 903.21,-131.01 920.54,-108.12 931.92,-93.09 933.13,-79.73 920.54,-65.7 871.13,-10.62 661.79,-45.63 589.54,-29.7 583.67,-28.4 577.46,-26.57 571.7,-24.65"/>
<polygon fill="red" stroke="red" stroke-width="0.52" points="572.59,-21.25 561.99,-21.22 570.26,-27.85 572.59,-21.25"/>
</g>
<!-- &#45;19&#45;&gt;1 -->
<g id="edge84" class="edge">
<title>&#45;19&#45;&gt;1</title>
<path fill="none" stroke="red" stroke-width="0.42" stroke-dasharray="1,5" d="M750.01,-151.84C647.48,-149.75 35.95,-136.12 9.54,-108.12 -3.4,-94.41 -2.86,-79.9 9.54,-65.7 54.16,-14.59 275.05,-13.91 350.35,-15.22"/>
<polygon fill="red" stroke="red" stroke-width="0.42" points="350.29,-18.71 360.36,-15.42 350.43,-11.72 350.29,-18.71"/>
</g>
<!-- &#45;19&#45;&gt;2 -->
<g id="edge85" class="edge">
<title>&#45;19&#45;&gt;2</title>
<path fill="none" stroke="red" stroke-width="0.17" d="M749.81,-152.35C654.54,-153.67 127.9,-158.63 80.54,-108.12 67.64,-94.37 67.97,-79.76 80.54,-65.7 128.07,-12.5 331.77,-52 399.54,-29.7 400.42,-29.41 401.3,-29.08 402.18,-28.73"/>
<polygon fill="red" stroke="red" stroke-width="0.17" points="403.89,-31.79 411.29,-24.2 400.78,-25.52 403.89,-31.79"/>
</g>
<!-- &#45;19&#45;&gt;3 -->
<g id="edge86" class="edge">
<title>&#45;19&#45;&gt;3</title>
<path fill="none" stroke="green" stroke-width="0.91" d="M779.3,-151.81C840.05,-150.01 1064.51,-138.44 1000.54,-65.7 976.53,-38.4 720.74,-21.84 638.7,-17.2"/>
<polygon fill="green" stroke="green" stroke-width="0.91" points="638.71,-13.69 628.53,-16.63 638.32,-20.68 638.71,-13.69"/>
</g>
<!-- &#45;19&#45;&gt;4 -->
<g id="edge87" class="edge">
<title>&#45;19&#45;&gt;4</title>
<path fill="none" stroke="green" stroke-width="0.34" d="M749.7,-150.66C720.65,-147.24 655.04,-136.71 608.54,-108.12 586.72,-94.71 588.68,-82.71 569.54,-65.7 554.31,-52.17 535.48,-38.76 521.34,-29.26"/>
<polygon fill="green" stroke="green" stroke-width="0.34" points="523.08,-26.22 512.81,-23.62 519.22,-32.06 523.08,-26.22"/>
</g>
<!-- &#45;19&#45;&gt;170 -->
<g id="edge95" class="edge">
<title>&#45;19&#45;&gt;170</title>
<path fill="none" stroke="green" stroke-width="0.43" d="M779.29,-151.57C820.62,-149.62 940.62,-141.3 1033.54,-108.12 1036.48,-107.07 1039.46,-105.78 1042.38,-104.35"/>
<polygon fill="green" stroke="green" stroke-width="0.43" points="1044.21,-107.34 1051.33,-99.5 1040.87,-101.18 1044.21,-107.34"/>
</g>
<!-- &#45;20 -->
<g id="node20" class="node">
<title>&#45;20</title>
<polygon fill="lightgray" stroke="black" points="345.04,-95.91 316.04,-95.91 316.04,-77.91 345.04,-77.91 345.04,-95.91"/>
<text text-anchor="middle" x="330.54" y="-84.71" font-family="Times New Roman,serif" font-size="9.00">&#45;20</text>
</g>
<!-- &#45;20&#45;&gt;0 -->
<g id="edge88" class="edge">
<title>&#45;20&#45;&gt;0</title>
<path fill="none" stroke="green" stroke-width="0.25" d="M337.87,-77.69C342.06,-73.48 347.64,-68.65 353.54,-65.7 422.98,-30.92 452,-57.45 524.54,-29.7 525.4,-29.37 526.27,-29.01 527.14,-28.63"/>
<polygon fill="green" stroke="green" stroke-width="0.25" points="528.92,-31.65 536.2,-23.96 525.71,-25.43 528.92,-31.65"/>
</g>
<!-- &#45;20&#45;&gt;1 -->
<g id="edge89" class="edge">
<title>&#45;20&#45;&gt;1</title>
<path fill="none" stroke="red" stroke-width="0.36" d="M335.7,-77.87C342.18,-67.79 353.52,-50.14 362.44,-36.23"/>
<polygon fill="red" stroke="red" stroke-width="0.36" points="365.43,-38.06 367.89,-27.76 359.54,-34.28 365.43,-38.06"/>
</g>
<!-- &#45;20&#45;&gt;2 -->
<g id="edge90" class="edge">
<title>&#45;20&#45;&gt;2</title>
<path fill="none" stroke="green" stroke-width="0.38" stroke-dasharray="1,5" d="M339.31,-77.82C343.53,-74.04 348.7,-69.53 353.54,-65.7 369.65,-52.93 388.7,-39.46 402.86,-29.75"/>
<polygon fill="green" stroke="green" stroke-width="0.38" points="405.08,-32.47 411.37,-23.95 401.14,-26.69 405.08,-32.47"/>
</g>
<!-- &#45;20&#45;&gt;3 -->
<g id="edge91" class="edge">
<title>&#45;20&#45;&gt;3</title>
<path fill="none" stroke="red" stroke-width="0.35" d="M337.82,-77.58C342,-73.35 347.58,-68.52 353.54,-65.7 442.7,-23.51 476.83,-53.56 572.54,-29.7 578.28,-28.27 584.37,-26.41 590.05,-24.51"/>
<polygon fill="red" stroke="red" stroke-width="0.35" points="591.37,-27.76 599.66,-21.16 589.07,-21.15 591.37,-27.76"/>
</g>
<!-- &#45;20&#45;&gt;4 -->
<g id="edge92" class="edge">
<title>&#45;20&#45;&gt;4</title>
<path fill="none" stroke="green" stroke-width="0.16" stroke-dasharray="1,5" d="M338.44,-77.56C342.61,-73.53 348.01,-68.89 353.54,-65.7 374.88,-53.37 440.79,-33.2 476.67,-22.7"/>
<polygon fill="green" stroke="green" stroke-width="0.16" points="477.72,-26.04 486.34,-19.89 475.76,-19.32 477.72,-26.04"/>
</g>
<!-- 170&#45;&gt;3 -->
<g id="edge94" class="edge">
<title>170&#45;&gt;3</title>
<path fill="none" stroke="green" stroke-width="0.45" d="M1051.39,-74.16C1045.91,-70.92 1039.66,-67.73 1033.54,-65.7 889.94,-17.96 705.37,-14.78 638.84,-15.35"/>
<polygon fill="green" stroke="green" stroke-width="0.45" points="638.47,-11.86 628.51,-15.48 638.55,-18.85 638.47,-11.86"/>
</g>
</g>
</svg>
