<?xml version="1.0" encoding="UTF-8" standalone="no"?>
<!DOCTYPE svg PUBLIC "-//W3C//DTD SVG 1.1//EN"
 "http://www.w3.org/Graphics/SVG/1.1/DTD/svg11.dtd">
<!-- Generated by graphviz version 2.49.0 (20210828.1703)
 -->
<!-- Pages: 1 -->
<svg width="888pt" height="92pt"
 viewBox="0.00 0.00 888.00 91.70" xmlns="http://www.w3.org/2000/svg" xmlns:xlink="http://www.w3.org/1999/xlink">
<g id="graph0" class="graph" transform="scale(1 1) rotate(0) translate(4 87.7)">
<polygon fill="white" stroke="transparent" points="-4,4 -4,-87.7 884,-87.7 884,4 -4,4"/>
<!-- &#45;1 -->
<g id="node1" class="node">
<title>&#45;1</title>
<polygon fill="lightgray" stroke="black" points="349.5,-83.7 325.5,-83.7 325.5,-65.7 349.5,-65.7 349.5,-83.7"/>
<text text-anchor="middle" x="337.5" y="-72.5" font-family="Times New Roman,serif" font-size="9.00">&#45;1</text>
</g>
<!-- 0 -->
<g id="node21" class="node">
<title>0</title>
<ellipse fill="lightblue" stroke="black" cx="442.5" cy="-14.85" rx="14.7" ry="14.7"/>
<text text-anchor="middle" x="442.5" y="-12.65" font-family="Times New Roman,serif" font-size="9.00">0</text>
</g>
<!-- &#45;1&#45;&gt;0 -->
<g id="edge1" class="edge">
<title>&#45;1&#45;&gt;0</title>
<path fill="none" stroke="red" stroke-width="0.58" d="M349.63,-67.24C365.52,-58.74 394.2,-43.3 418.5,-29.7 419.31,-29.25 420.13,-28.78 420.96,-28.31"/>
<polygon fill="red" stroke="red" stroke-width="0.58" points="422.89,-31.24 429.83,-23.24 419.41,-25.17 422.89,-31.24"/>
</g>
<!-- 1 -->
<g id="node22" class="node">
<title>1</title>
<ellipse fill="lightblue" stroke="black" cx="346.5" cy="-14.85" rx="14.7" ry="14.7"/>
<text text-anchor="middle" x="346.5" y="-12.65" font-family="Times New Roman,serif" font-size="9.00">1</text>
</g>
<!-- &#45;1&#45;&gt;1 -->
<g id="edge2" class="edge">
<title>&#45;1&#45;&gt;1</title>
<path fill="none" stroke="red" stroke-width="0.32" d="M338.75,-65.65C339.8,-58.89 341.36,-48.86 342.81,-39.57"/>
<polygon fill="red" stroke="red" stroke-width="0.32" points="346.28,-40.02 344.36,-29.6 339.36,-38.95 346.28,-40.02"/>
</g>
<!-- 2 -->
<g id="node23" class="node">
<title>2</title>
<ellipse fill="lightblue" stroke="black" cx="490.5" cy="-14.85" rx="14.7" ry="14.7"/>
<text text-anchor="middle" x="490.5" y="-12.65" font-family="Times New Roman,serif" font-size="9.00">2</text>
</g>
<!-- &#45;1&#45;&gt;2 -->
<g id="edge3" class="edge">
<title>&#45;1&#45;&gt;2</title>
<path fill="none" stroke="green" stroke-width="0.24" stroke-dasharray="1,5" d="M349.9,-68.87C352.72,-67.81 355.71,-66.7 358.5,-65.7 406.15,-48.69 420.35,-50.45 466.5,-29.7 467.34,-29.32 468.2,-28.92 469.05,-28.5"/>
<polygon fill="green" stroke="green" stroke-width="0.24" points="470.89,-31.49 478.05,-23.67 467.58,-25.32 470.89,-31.49"/>
</g>
<!-- 3 -->
<g id="node24" class="node">
<title>3</title>
<ellipse fill="lightblue" stroke="black" cx="538.5" cy="-14.85" rx="14.7" ry="14.7"/>
<text text-anchor="middle" x="538.5" y="-12.65" font-family="Times New Roman,serif" font-size="9.00">3</text>
</g>
<!-- &#45;1&#45;&gt;3 -->
<g id="edge4" class="edge">
<title>&#45;1&#45;&gt;3</title>
<path fill="none" stroke="red" stroke-width="0.91" d="M349.84,-68.68C352.66,-67.62 355.66,-66.56 358.5,-65.7 426.57,-44.98 448.29,-55.77 514.5,-29.7 515.36,-29.36 516.23,-28.99 517.1,-28.6"/>
<polygon fill="red" stroke="red" stroke-width="0.91" points="518.88,-31.62 526.15,-23.91 515.66,-25.41 518.88,-31.62"/>
</g>
<!-- 4 -->
<g id="node25" class="node">
<title>4</title>
<ellipse fill="lightblue" stroke="black" cx="394.5" cy="-14.85" rx="14.7" ry="14.7"/>
<text text-anchor="middle" x="394.5" y="-12.65" font-family="Times New Roman,serif" font-size="9.00">4</text>
</g>
<!-- &#45;1&#45;&gt;4 -->
<g id="edge5" class="edge">
<title>&#45;1&#45;&gt;4</title>
<path fill="none" stroke="red" stroke-width="0.13" d="M345.43,-65.65C353.6,-57.36 366.6,-44.16 377.17,-33.44"/>
<polygon fill="red" stroke="red" stroke-width="0.13" points="379.81,-35.75 384.33,-26.17 374.82,-30.83 379.81,-35.75"/>
</g>
<!-- &#45;2 -->
<g id="node2" class="node">
<title>&#45;2</title>
<polygon fill="lightgray" stroke="black" points="71.5,-83.7 47.5,-83.7 47.5,-65.7 71.5,-65.7 71.5,-83.7"/>
<text text-anchor="middle" x="59.5" y="-72.5" font-family="Times New Roman,serif" font-size="9.00">&#45;2</text>
</g>
<!-- &#45;2&#45;&gt;0 -->
<g id="edge6" class="edge">
<title>&#45;2&#45;&gt;0</title>
<path fill="none" stroke="red" stroke-width="0.22" stroke-dasharray="1,5" d="M71.91,-68.59C75,-67.49 78.33,-66.43 81.5,-65.7 228.25,-31.71 275.28,-76.35 418.5,-29.7 419.38,-29.41 420.26,-29.09 421.15,-28.74"/>
<polygon fill="red" stroke="red" stroke-width="0.22" points="422.85,-31.8 430.26,-24.22 419.74,-25.53 422.85,-31.8"/>
</g>
<!-- &#45;2&#45;&gt;1 -->
<g id="edge7" class="edge">
<title>&#45;2&#45;&gt;1</title>
<path fill="none" stroke="red" stroke-width="0.31" d="M71.95,-68.77C75.04,-67.66 78.36,-66.56 81.5,-65.7 168.42,-41.89 274.46,-25.7 321.72,-19.13"/>
<polygon fill="red" stroke="red" stroke-width="0.31" points="322.22,-22.6 331.66,-17.78 321.28,-15.66 322.22,-22.6"/>
</g>
<!-- &#45;2&#45;&gt;2 -->
<g id="edge8" class="edge">
<title>&#45;2&#45;&gt;2</title>
<path fill="none" stroke="red" stroke-width="0.65" d="M71.9,-68.56C74.99,-67.46 78.33,-66.41 81.5,-65.7 249.18,-28.03 302.75,-81.85 466.5,-29.7 467.55,-29.36 468.61,-28.98 469.67,-28.55"/>
<polygon fill="red" stroke="red" stroke-width="0.65" points="471.41,-31.59 478.76,-23.96 468.26,-25.34 471.41,-31.59"/>
</g>
<!-- &#45;2&#45;&gt;4 -->
<g id="edge9" class="edge">
<title>&#45;2&#45;&gt;4</title>
<path fill="none" stroke="green" stroke-width="0.33" d="M71.92,-68.63C75.01,-67.53 78.34,-66.46 81.5,-65.7 207.34,-35.39 247.78,-70.86 370.5,-29.7 371.38,-29.4 372.26,-29.08 373.14,-28.72"/>
<polygon fill="green" stroke="green" stroke-width="0.33" points="374.86,-31.77 382.24,-24.17 371.73,-25.51 374.86,-31.77"/>
</g>
<!-- &#45;3 -->
<g id="node3" class="node">
<title>&#45;3</title>
<polygon fill="lightgray" stroke="black" points="391.5,-83.7 367.5,-83.7 367.5,-65.7 391.5,-65.7 391.5,-83.7"/>
<text text-anchor="middle" x="379.5" y="-72.5" font-family="Times New Roman,serif" font-size="9.00">&#45;3</text>
</g>
<!-- &#45;3&#45;&gt;0 -->
<g id="edge10" class="edge">
<title>&#45;3&#45;&gt;0</title>
<path fill="none" stroke="red" stroke-width="0.92" d="M388.26,-65.65C397.49,-57.18 412.3,-43.58 424.11,-32.73"/>
<polygon fill="red" stroke="red" stroke-width="0.92" points="426.71,-35.1 431.71,-25.76 421.97,-29.95 426.71,-35.1"/>
</g>
<!-- &#45;3&#45;&gt;1 -->
<g id="edge11" class="edge">
<title>&#45;3&#45;&gt;1</title>
<path fill="none" stroke="green" stroke-width="0.42" d="M374.91,-65.65C370.72,-58.31 364.35,-47.13 358.69,-37.22"/>
<polygon fill="green" stroke="green" stroke-width="0.42" points="361.58,-35.23 353.59,-28.28 355.5,-38.7 361.58,-35.23"/>
</g>
<!-- &#45;3&#45;&gt;2 -->
<g id="edge12" class="edge">
<title>&#45;3&#45;&gt;2</title>
<path fill="none" stroke="green" stroke-width="0.35" d="M391.71,-67.79C408.65,-59.53 440.15,-43.95 466.5,-29.7 467.31,-29.26 468.14,-28.81 468.98,-28.34"/>
<polygon fill="green" stroke="green" stroke-width="0.35" points="470.89,-31.28 477.87,-23.31 467.44,-25.19 470.89,-31.28"/>
</g>
<!-- &#45;3&#45;&gt;3 -->
<g id="edge90" class="edge">
<title>&#45;3&#45;&gt;3</title>
<path fill="none" stroke="red" stroke-width="0.51" d="M391.89,-68.84C394.71,-67.77 397.7,-66.67 400.5,-65.7 450.68,-48.23 465.87,-51.1 514.5,-29.7 515.35,-29.33 516.2,-28.93 517.06,-28.52"/>
<polygon fill="red" stroke="red" stroke-width="0.51" points="518.89,-31.51 526.06,-23.71 515.59,-25.33 518.89,-31.51"/>
</g>
<!-- &#45;3&#45;&gt;4 -->
<g id="edge13" class="edge">
<title>&#45;3&#45;&gt;4</title>
<path fill="none" stroke="green" stroke-width="0.11" d="M381.59,-65.65C383.34,-58.89 385.94,-48.86 388.35,-39.57"/>
<polygon fill="green" stroke="green" stroke-width="0.11" points="391.81,-40.16 390.93,-29.6 385.04,-38.41 391.81,-40.16"/>
</g>
<!-- &#45;4 -->
<g id="node4" class="node">
<title>&#45;4</title>
<polygon fill="lightgray" stroke="black" points="433.5,-83.7 409.5,-83.7 409.5,-65.7 433.5,-65.7 433.5,-83.7"/>
<text text-anchor="middle" x="421.5" y="-72.5" font-family="Times New Roman,serif" font-size="9.00">&#45;4</text>
</g>
<!-- &#45;4&#45;&gt;0 -->
<g id="edge14" class="edge">
<title>&#45;4&#45;&gt;0</title>
<path fill="none" stroke="green" stroke-width="0.17" d="M424.42,-65.65C426.96,-58.65 430.78,-48.15 434.25,-38.59"/>
<polygon fill="green" stroke="green" stroke-width="0.17" points="437.55,-39.75 437.67,-29.16 430.97,-37.36 437.55,-39.75"/>
</g>
<!-- &#45;4&#45;&gt;1 -->
<g id="edge15" class="edge">
<title>&#45;4&#45;&gt;1</title>
<path fill="none" stroke="green" stroke-width="0.36" d="M411.07,-65.65C399.47,-56.71 380.47,-42.05 366.08,-30.95"/>
<polygon fill="green" stroke="green" stroke-width="0.36" points="367.88,-27.92 357.82,-24.58 363.6,-33.46 367.88,-27.92"/>
</g>
<!-- &#45;4&#45;&gt;2 -->
<g id="edge16" class="edge">
<title>&#45;4&#45;&gt;2</title>
<path fill="none" stroke="red" stroke-width="0.11" d="M431.09,-65.65C441.54,-56.89 458.52,-42.66 471.65,-31.65"/>
<polygon fill="red" stroke="red" stroke-width="0.11" points="474.21,-34.07 479.62,-24.97 469.71,-28.71 474.21,-34.07"/>
</g>
<!-- &#45;4&#45;&gt;3 -->
<g id="edge89" class="edge">
<title>&#45;4&#45;&gt;3</title>
<path fill="none" stroke="red" stroke-width="0.1" d="M433.69,-68.31C451.61,-60.31 486.02,-44.62 514.5,-29.7 515.32,-29.27 516.15,-28.83 516.99,-28.37"/>
<polygon fill="red" stroke="red" stroke-width="0.1" points="518.89,-31.32 525.9,-23.38 515.47,-25.21 518.89,-31.32"/>
</g>
<!-- &#45;4&#45;&gt;4 -->
<g id="edge17" class="edge">
<title>&#45;4&#45;&gt;4</title>
<path fill="none" stroke="red" stroke-width="0.66" d="M417.75,-65.65C414.4,-58.48 409.34,-47.64 404.8,-37.91"/>
<polygon fill="red" stroke="red" stroke-width="0.66" points="407.91,-36.3 400.5,-28.71 401.56,-39.26 407.91,-36.3"/>
</g>
<!-- &#45;5 -->
<g id="node5" class="node">
<title>&#45;5</title>
<polygon fill="lightgray" stroke="black" points="475.5,-83.7 451.5,-83.7 451.5,-65.7 475.5,-65.7 475.5,-83.7"/>
<text text-anchor="middle" x="463.5" y="-72.5" font-family="Times New Roman,serif" font-size="9.00">&#45;5</text>
</g>
<!-- &#45;5&#45;&gt;0 -->
<g id="edge18" class="edge">
<title>&#45;5&#45;&gt;0</title>
<path fill="none" stroke="green" stroke-width="0.11" d="M460.58,-65.65C458.04,-58.65 454.22,-48.15 450.75,-38.59"/>
<polygon fill="green" stroke="green" stroke-width="0.11" points="454.03,-37.36 447.33,-29.16 447.45,-39.75 454.03,-37.36"/>
</g>
<!-- &#45;5&#45;&gt;1 -->
<g id="edge19" class="edge">
<title>&#45;5&#45;&gt;1</title>
<path fill="none" stroke="green" stroke-width="0.1" d="M451.31,-68.31C433.39,-60.31 398.98,-44.62 370.5,-29.7 369.68,-29.27 368.85,-28.83 368.01,-28.37"/>
<polygon fill="green" stroke="green" stroke-width="0.1" points="369.53,-25.21 359.1,-23.38 366.11,-31.32 369.53,-25.21"/>
</g>
<!-- &#45;5&#45;&gt;2 -->
<g id="edge20" class="edge">
<title>&#45;5&#45;&gt;2</title>
<path fill="none" stroke="green" stroke-width="0.71" d="M467.25,-65.65C470.6,-58.48 475.66,-47.64 480.2,-37.91"/>
<polygon fill="green" stroke="green" stroke-width="0.71" points="483.44,-39.26 484.5,-28.71 477.09,-36.3 483.44,-39.26"/>
</g>
<!-- &#45;5&#45;&gt;3 -->
<g id="edge21" class="edge">
<title>&#45;5&#45;&gt;3</title>
<path fill="none" stroke="green" stroke-width="0.49" stroke-dasharray="1,5" d="M473.93,-65.65C485.53,-56.71 504.53,-42.05 518.92,-30.95"/>
<polygon fill="green" stroke="green" stroke-width="0.49" points="521.4,-33.46 527.18,-24.58 517.12,-27.92 521.4,-33.46"/>
</g>
<!-- &#45;5&#45;&gt;4 -->
<g id="edge22" class="edge">
<title>&#45;5&#45;&gt;4</title>
<path fill="none" stroke="red" stroke-width="0.11" d="M453.91,-65.65C443.46,-56.89 426.48,-42.66 413.35,-31.65"/>
<polygon fill="red" stroke="red" stroke-width="0.11" points="415.29,-28.71 405.38,-24.97 410.79,-34.07 415.29,-28.71"/>
</g>
<!-- &#45;6 -->
<g id="node6" class="node">
<title>&#45;6</title>
<polygon fill="lightgray" stroke="black" points="790.5,-83.7 766.5,-83.7 766.5,-65.7 790.5,-65.7 790.5,-83.7"/>
<text text-anchor="middle" x="778.5" y="-72.5" font-family="Times New Roman,serif" font-size="9.00">&#45;6</text>
</g>
<!-- &#45;6&#45;&gt;0 -->
<g id="edge23" class="edge">
<title>&#45;6&#45;&gt;0</title>
<path fill="none" stroke="red" stroke-width="0.28" d="M766.22,-68.46C763.4,-67.41 760.38,-66.41 757.5,-65.7 631.03,-34.27 590.07,-71.09 466.5,-29.7 465.62,-29.4 464.74,-29.08 463.86,-28.72"/>
<polygon fill="red" stroke="red" stroke-width="0.28" points="465.27,-25.51 454.76,-24.18 462.14,-31.77 465.27,-25.51"/>
</g>
<!-- &#45;6&#45;&gt;3 -->
<g id="edge24" class="edge">
<title>&#45;6&#45;&gt;3</title>
<path fill="none" stroke="green" stroke-width="0.35" d="M766.16,-68.67C763.34,-67.61 760.34,-66.56 757.5,-65.7 687.95,-44.65 603.61,-27.83 562.87,-20.24"/>
<polygon fill="green" stroke="green" stroke-width="0.35" points="563.5,-16.79 553.03,-18.43 562.23,-23.68 563.5,-16.79"/>
</g>
<!-- &#45;6&#45;&gt;4 -->
<g id="edge25" class="edge">
<title>&#45;6&#45;&gt;4</title>
<path fill="none" stroke="green" stroke-width="0.48" d="M766.23,-68.42C763.41,-67.37 760.38,-66.39 757.5,-65.7 610.15,-30.44 562.58,-76.58 418.5,-29.7 417.62,-29.41 416.74,-29.09 415.85,-28.74"/>
<polygon fill="green" stroke="green" stroke-width="0.48" points="417.25,-25.53 406.74,-24.22 414.15,-31.8 417.25,-25.53"/>
</g>
<!-- &#45;7 -->
<g id="node7" class="node">
<title>&#45;7</title>
<polygon fill="lightgray" stroke="black" points="832.5,-83.7 808.5,-83.7 808.5,-65.7 832.5,-65.7 832.5,-83.7"/>
<text text-anchor="middle" x="820.5" y="-72.5" font-family="Times New Roman,serif" font-size="9.00">&#45;7</text>
</g>
<!-- &#45;7&#45;&gt;0 -->
<g id="edge26" class="edge">
<title>&#45;7&#45;&gt;0</title>
<path fill="none" stroke="green" stroke-width="0.67" d="M808.23,-68.42C805.41,-67.38 802.38,-66.39 799.5,-65.7 654.76,-30.92 608.01,-75.89 466.5,-29.7 465.62,-29.41 464.74,-29.09 463.85,-28.74"/>
<polygon fill="green" stroke="green" stroke-width="0.67" points="465.26,-25.53 454.74,-24.22 462.14,-31.8 465.26,-25.53"/>
</g>
<!-- &#45;7&#45;&gt;2 -->
<g id="edge27" class="edge">
<title>&#45;7&#45;&gt;2</title>
<path fill="none" stroke="red" stroke-width="0.26" d="M808.22,-68.46C805.4,-67.41 802.38,-66.42 799.5,-65.7 675.63,-34.75 635.51,-70.41 514.5,-29.7 513.62,-29.4 512.74,-29.07 511.86,-28.72"/>
<polygon fill="red" stroke="red" stroke-width="0.26" points="513.27,-25.51 502.76,-24.17 510.14,-31.77 513.27,-25.51"/>
</g>
<!-- &#45;7&#45;&gt;3 -->
<g id="edge28" class="edge">
<title>&#45;7&#45;&gt;3</title>
<path fill="none" stroke="green" stroke-width="0.88" d="M808.18,-68.59C805.36,-67.54 802.35,-66.51 799.5,-65.7 714.24,-41.52 609.97,-25.56 563.23,-19.1"/>
<polygon fill="green" stroke="green" stroke-width="0.88" points="563.52,-15.6 553.14,-17.73 562.58,-22.54 563.52,-15.6"/>
</g>
<!-- &#45;7&#45;&gt;4 -->
<g id="edge29" class="edge">
<title>&#45;7&#45;&gt;4</title>
<path fill="none" stroke="green" stroke-width="0.48" d="M808.24,-68.39C805.41,-67.35 802.39,-66.37 799.5,-65.7 633.86,-27.07 580.54,-81.39 418.5,-29.7 417.45,-29.36 416.39,-28.97 415.33,-28.55"/>
<polygon fill="green" stroke="green" stroke-width="0.48" points="416.74,-25.34 406.24,-23.96 413.59,-31.59 416.74,-25.34"/>
</g>
<!-- &#45;8 -->
<g id="node8" class="node">
<title>&#45;8</title>
<polygon fill="lightgray" stroke="black" points="517.5,-83.7 493.5,-83.7 493.5,-65.7 517.5,-65.7 517.5,-83.7"/>
<text text-anchor="middle" x="505.5" y="-72.5" font-family="Times New Roman,serif" font-size="9.00">&#45;8</text>
</g>
<!-- &#45;8&#45;&gt;0 -->
<g id="edge30" class="edge">
<title>&#45;8&#45;&gt;0</title>
<path fill="none" stroke="green" stroke-width="0.29" d="M496.74,-65.65C487.51,-57.18 472.7,-43.58 460.89,-32.73"/>
<polygon fill="green" stroke="green" stroke-width="0.29" points="463.03,-29.95 453.29,-25.76 458.29,-35.1 463.03,-29.95"/>
</g>
<!-- &#45;8&#45;&gt;1 -->
<g id="edge31" class="edge">
<title>&#45;8&#45;&gt;1</title>
<path fill="none" stroke="green" stroke-width="0.87" d="M493.11,-68.84C490.29,-67.77 487.3,-66.67 484.5,-65.7 434.32,-48.23 419.13,-51.1 370.5,-29.7 369.65,-29.33 368.8,-28.93 367.94,-28.52"/>
<polygon fill="green" stroke="green" stroke-width="0.87" points="369.41,-25.33 358.94,-23.71 366.11,-31.51 369.41,-25.33"/>
</g>
<!-- &#45;8&#45;&gt;2 -->
<g id="edge32" class="edge">
<title>&#45;8&#45;&gt;2</title>
<path fill="none" stroke="red" stroke-width="0.13" stroke-dasharray="1,5" d="M503.41,-65.65C501.66,-58.89 499.06,-48.86 496.65,-39.57"/>
<polygon fill="red" stroke="red" stroke-width="0.13" points="499.96,-38.41 494.07,-29.6 493.19,-40.16 499.96,-38.41"/>
</g>
<!-- &#45;8&#45;&gt;3 -->
<g id="edge33" class="edge">
<title>&#45;8&#45;&gt;3</title>
<path fill="none" stroke="red" stroke-width="0.12" d="M510.09,-65.65C514.28,-58.31 520.65,-47.13 526.31,-37.22"/>
<polygon fill="red" stroke="red" stroke-width="0.12" points="529.5,-38.7 531.41,-28.28 523.42,-35.23 529.5,-38.7"/>
</g>
<!-- &#45;8&#45;&gt;4 -->
<g id="edge34" class="edge">
<title>&#45;8&#45;&gt;4</title>
<path fill="none" stroke="red" stroke-width="0.14" d="M493.29,-67.79C476.35,-59.53 444.85,-43.95 418.5,-29.7 417.69,-29.26 416.86,-28.81 416.02,-28.34"/>
<polygon fill="red" stroke="red" stroke-width="0.14" points="417.56,-25.19 407.13,-23.31 414.11,-31.28 417.56,-25.19"/>
</g>
<!-- &#45;9 -->
<g id="node9" class="node">
<title>&#45;9</title>
<polygon fill="lightgray" stroke="black" points="559.5,-83.7 535.5,-83.7 535.5,-65.7 559.5,-65.7 559.5,-83.7"/>
<text text-anchor="middle" x="547.5" y="-72.5" font-family="Times New Roman,serif" font-size="9.00">&#45;9</text>
</g>
<!-- &#45;9&#45;&gt;0 -->
<g id="edge35" class="edge">
<title>&#45;9&#45;&gt;0</title>
<path fill="none" stroke="green" stroke-width="0.15" d="M535.37,-67.24C519.48,-58.74 490.8,-43.3 466.5,-29.7 465.69,-29.25 464.87,-28.78 464.04,-28.31"/>
<polygon fill="green" stroke="green" stroke-width="0.15" points="465.59,-25.17 455.17,-23.24 462.11,-31.24 465.59,-25.17"/>
</g>
<!-- &#45;9&#45;&gt;1 -->
<g id="edge36" class="edge">
<title>&#45;9&#45;&gt;1</title>
<path fill="none" stroke="green" stroke-width="0.3" d="M535.16,-68.68C532.34,-67.62 529.34,-66.56 526.5,-65.7 458.43,-44.98 436.71,-55.77 370.5,-29.7 369.64,-29.36 368.77,-28.99 367.9,-28.6"/>
<polygon fill="green" stroke="green" stroke-width="0.3" points="369.34,-25.41 358.85,-23.91 366.12,-31.62 369.34,-25.41"/>
</g>
<!-- &#45;9&#45;&gt;2 -->
<g id="edge37" class="edge">
<title>&#45;9&#45;&gt;2</title>
<path fill="none" stroke="red" stroke-width="0.13" d="M539.57,-65.65C531.4,-57.36 518.4,-44.16 507.83,-33.44"/>
<polygon fill="red" stroke="red" stroke-width="0.13" points="510.18,-30.83 500.67,-26.17 505.19,-35.75 510.18,-30.83"/>
</g>
<!-- &#45;9&#45;&gt;3 -->
<g id="edge38" class="edge">
<title>&#45;9&#45;&gt;3</title>
<path fill="none" stroke="green" stroke-width="0.18" d="M546.25,-65.65C545.2,-58.89 543.64,-48.86 542.19,-39.57"/>
<polygon fill="green" stroke="green" stroke-width="0.18" points="545.64,-38.95 540.64,-29.6 538.72,-40.02 545.64,-38.95"/>
</g>
<!-- &#45;9&#45;&gt;4 -->
<g id="edge39" class="edge">
<title>&#45;9&#45;&gt;4</title>
<path fill="none" stroke="green" stroke-width="0.64" stroke-dasharray="1,5" d="M535.1,-68.87C532.28,-67.81 529.29,-66.7 526.5,-65.7 478.85,-48.69 464.65,-50.45 418.5,-29.7 417.66,-29.32 416.8,-28.92 415.95,-28.5"/>
<polygon fill="green" stroke="green" stroke-width="0.64" points="417.42,-25.32 406.95,-23.67 414.11,-31.49 417.42,-25.32"/>
</g>
<!-- &#45;10 -->
<g id="node10" class="node">
<title>&#45;10</title>
<polygon fill="lightgray" stroke="black" points="607,-83.7 578,-83.7 578,-65.7 607,-65.7 607,-83.7"/>
<text text-anchor="middle" x="592.5" y="-72.5" font-family="Times New Roman,serif" font-size="9.00">&#45;10</text>
</g>
<!-- &#45;10&#45;&gt;0 -->
<g id="edge40" class="edge">
<title>&#45;10&#45;&gt;0</title>
<path fill="none" stroke="red" stroke-width="0.25" d="M577.63,-68.68C546.6,-58.18 476.93,-34.48 466.5,-29.7 465.66,-29.31 464.81,-28.91 463.95,-28.49"/>
<polygon fill="red" stroke="red" stroke-width="0.25" points="465.43,-25.31 454.97,-23.64 462.11,-31.47 465.43,-25.31"/>
</g>
<!-- &#45;10&#45;&gt;1 -->
<g id="edge41" class="edge">
<title>&#45;10&#45;&gt;1</title>
<path fill="none" stroke="green" stroke-width="0.41" d="M577.88,-68.46C574.8,-67.46 571.56,-66.48 568.5,-65.7 481.86,-43.5 454.47,-60.5 370.5,-29.7 369.63,-29.38 368.76,-29.03 367.88,-28.66"/>
<polygon fill="green" stroke="green" stroke-width="0.41" points="369.31,-25.45 358.81,-24.03 366.13,-31.69 369.31,-25.45"/>
</g>
<!-- &#45;10&#45;&gt;2 -->
<g id="edge42" class="edge">
<title>&#45;10&#45;&gt;2</title>
<path fill="none" stroke="green" stroke-width="0.24" d="M578.1,-65.63C562.43,-56.84 536.65,-42.33 514.5,-29.7 513.7,-29.24 512.88,-28.77 512.05,-28.3"/>
<polygon fill="green" stroke="green" stroke-width="0.24" points="513.6,-25.15 503.19,-23.2 510.12,-31.22 513.6,-25.15"/>
</g>
<!-- &#45;10&#45;&gt;3 -->
<g id="edge43" class="edge">
<title>&#45;10&#45;&gt;3</title>
<path fill="none" stroke="green" stroke-width="0.14" d="M584.99,-65.65C577.32,-57.44 565.17,-44.42 555.21,-33.75"/>
<polygon fill="green" stroke="green" stroke-width="0.14" points="557.51,-31.09 548.13,-26.17 552.4,-35.86 557.51,-31.09"/>
</g>
<!-- &#45;10&#45;&gt;4 -->
<g id="edge44" class="edge">
<title>&#45;10&#45;&gt;4</title>
<path fill="none" stroke="red" stroke-width="0.16" stroke-dasharray="1,5" d="M577.84,-68.59C574.77,-67.58 571.54,-66.57 568.5,-65.7 502.58,-46.84 482.18,-55.09 418.5,-29.7 417.64,-29.36 416.77,-28.99 415.91,-28.6"/>
<polygon fill="red" stroke="red" stroke-width="0.16" points="417.35,-25.4 406.86,-23.89 414.12,-31.61 417.35,-25.4"/>
</g>
<!-- &#45;11 -->
<g id="node11" class="node">
<title>&#45;11</title>
<polygon fill="lightgray" stroke="black" points="654,-83.7 625,-83.7 625,-65.7 654,-65.7 654,-83.7"/>
<text text-anchor="middle" x="639.5" y="-72.5" font-family="Times New Roman,serif" font-size="9.00">&#45;11</text>
</g>
<!-- &#45;11&#45;&gt;0 -->
<g id="edge45" class="edge">
<title>&#45;11&#45;&gt;0</title>
<path fill="none" stroke="green" stroke-width="0.35" d="M624.97,-68.4C622.17,-67.45 619.26,-66.51 616.5,-65.7 550.71,-46.41 530.18,-55.09 466.5,-29.7 465.64,-29.36 464.77,-28.99 463.91,-28.6"/>
<polygon fill="green" stroke="green" stroke-width="0.35" points="465.35,-25.4 454.86,-23.89 462.12,-31.61 465.35,-25.4"/>
</g>
<!-- &#45;11&#45;&gt;1 -->
<g id="edge46" class="edge">
<title>&#45;11&#45;&gt;1</title>
<path fill="none" stroke="red" stroke-width="0.53" d="M624.53,-68.03C621.88,-67.16 619.13,-66.34 616.5,-65.7 509.17,-39.43 474.88,-65.96 370.5,-29.7 369.63,-29.39 368.75,-29.06 367.87,-28.7"/>
<polygon fill="red" stroke="red" stroke-width="0.53" points="369.28,-25.49 358.78,-24.12 366.13,-31.74 369.28,-25.49"/>
</g>
<!-- &#45;11&#45;&gt;2 -->
<g id="edge47" class="edge">
<title>&#45;11&#45;&gt;2</title>
<path fill="none" stroke="green" stroke-width="0.65" d="M624.55,-68.48C591.94,-57.08 517.11,-30.9 514.5,-29.7 513.66,-29.31 512.81,-28.9 511.95,-28.48"/>
<polygon fill="green" stroke="green" stroke-width="0.65" points="513.43,-25.3 502.97,-23.63 510.11,-31.46 513.43,-25.3"/>
</g>
<!-- &#45;11&#45;&gt;3 -->
<g id="edge48" class="edge">
<title>&#45;11&#45;&gt;3</title>
<path fill="none" stroke="green" stroke-width="0.1" d="M625.46,-65.65C608.5,-55.94 579.81,-39.51 560.04,-28.19"/>
<polygon fill="green" stroke="green" stroke-width="0.1" points="561.57,-25.03 551.15,-23.1 558.09,-31.1 561.57,-25.03"/>
</g>
<!-- &#45;11&#45;&gt;4 -->
<g id="edge49" class="edge">
<title>&#45;11&#45;&gt;4</title>
<path fill="none" stroke="red" stroke-width="0.35" d="M624.51,-68.11C621.86,-67.23 619.12,-66.39 616.5,-65.7 530,-42.94 502.47,-60.5 418.5,-29.7 417.63,-29.38 416.76,-29.03 415.88,-28.66"/>
<polygon fill="red" stroke="red" stroke-width="0.35" points="417.31,-25.45 406.81,-24.03 414.13,-31.69 417.31,-25.45"/>
</g>
<!-- &#45;12 -->
<g id="node12" class="node">
<title>&#45;12</title>
<polygon fill="lightgray" stroke="black" points="29,-83.7 0,-83.7 0,-65.7 29,-65.7 29,-83.7"/>
<text text-anchor="middle" x="14.5" y="-72.5" font-family="Times New Roman,serif" font-size="9.00">&#45;12</text>
</g>
<!-- &#45;12&#45;&gt;0 -->
<g id="edge50" class="edge">
<title>&#45;12&#45;&gt;0</title>
<path fill="none" stroke="green" stroke-width="0.3" d="M29.08,-68.25C32.15,-67.27 35.41,-66.35 38.5,-65.7 204.48,-30.65 256.89,-81.27 418.5,-29.7 419.55,-29.36 420.61,-28.97 421.67,-28.55"/>
<polygon fill="green" stroke="green" stroke-width="0.3" points="423.41,-31.59 430.76,-23.96 420.26,-25.34 423.41,-31.59"/>
</g>
<!-- &#45;12&#45;&gt;1 -->
<g id="edge51" class="edge">
<title>&#45;12&#45;&gt;1</title>
<path fill="none" stroke="green" stroke-width="0.62" d="M29.11,-68.41C32.19,-67.42 35.43,-66.45 38.5,-65.7 142.12,-40.22 268.64,-24.44 321.46,-18.51"/>
<polygon fill="green" stroke="green" stroke-width="0.62" points="322.03,-21.97 331.58,-17.4 321.26,-15.01 322.03,-21.97"/>
</g>
<!-- &#45;12&#45;&gt;4 -->
<g id="edge52" class="edge">
<title>&#45;12&#45;&gt;4</title>
<path fill="none" stroke="green" stroke-width="0.75" d="M29.08,-68.29C32.16,-67.3 35.41,-66.37 38.5,-65.7 183.51,-34.05 229.41,-75.78 370.5,-29.7 371.38,-29.41 372.26,-29.09 373.15,-28.74"/>
<polygon fill="green" stroke="green" stroke-width="0.75" points="374.86,-31.8 382.26,-24.22 371.74,-25.53 374.86,-31.8"/>
</g>
<!-- &#45;13 -->
<g id="node13" class="node">
<title>&#45;13</title>
<polygon fill="lightgray" stroke="black" points="880,-83.7 851,-83.7 851,-65.7 880,-65.7 880,-83.7"/>
<text text-anchor="middle" x="865.5" y="-72.5" font-family="Times New Roman,serif" font-size="9.00">&#45;13</text>
</g>
<!-- &#45;13&#45;&gt;0 -->
<g id="edge53" class="edge">
<title>&#45;13&#45;&gt;0</title>
<path fill="none" stroke="red" stroke-width="0.24" stroke-dasharray="1,5" d="M850.92,-68.26C847.85,-67.27 844.59,-66.35 841.5,-65.7 677.7,-31 625.98,-80.7 466.5,-29.7 465.45,-29.36 464.39,-28.97 463.33,-28.55"/>
<polygon fill="red" stroke="red" stroke-width="0.24" points="464.74,-25.34 454.24,-23.96 461.59,-31.59 464.74,-25.34"/>
</g>
<!-- &#45;13&#45;&gt;2 -->
<g id="edge54" class="edge">
<title>&#45;13&#45;&gt;2</title>
<path fill="none" stroke="green" stroke-width="0.34" stroke-dasharray="1,5" d="M850.91,-68.29C847.84,-67.3 844.59,-66.38 841.5,-65.7 698.68,-34.4 653.45,-75.21 514.5,-29.7 513.62,-29.41 512.74,-29.09 511.86,-28.74"/>
<polygon fill="green" stroke="green" stroke-width="0.34" points="513.26,-25.52 502.74,-24.21 510.14,-31.79 513.26,-25.52"/>
</g>
<!-- &#45;13&#45;&gt;3 -->
<g id="edge55" class="edge">
<title>&#45;13&#45;&gt;3</title>
<path fill="none" stroke="green" stroke-width="0.21" d="M850.89,-68.42C847.81,-67.42 844.57,-66.46 841.5,-65.7 739.55,-40.49 615.09,-24.56 563.13,-18.56"/>
<polygon fill="green" stroke="green" stroke-width="0.21" points="563.5,-15.08 553.17,-17.43 562.71,-22.03 563.5,-15.08"/>
</g>
<!-- &#45;14 -->
<g id="node14" class="node">
<title>&#45;14</title>
<polygon fill="lightgray" stroke="black" points="701,-83.7 672,-83.7 672,-65.7 701,-65.7 701,-83.7"/>
<text text-anchor="middle" x="686.5" y="-72.5" font-family="Times New Roman,serif" font-size="9.00">&#45;14</text>
</g>
<!-- &#45;14&#45;&gt;0 -->
<g id="edge56" class="edge">
<title>&#45;14&#45;&gt;0</title>
<path fill="none" stroke="red" stroke-width="0.12" d="M671.51,-68.11C668.86,-67.23 666.12,-66.39 663.5,-65.7 577.43,-43.01 550.05,-60.39 466.5,-29.7 465.63,-29.38 464.76,-29.03 463.88,-28.66"/>
<polygon fill="red" stroke="red" stroke-width="0.12" points="465.31,-25.45 454.81,-24.03 462.13,-31.69 465.31,-25.45"/>
</g>
<!-- &#45;14&#45;&gt;1 -->
<g id="edge57" class="edge">
<title>&#45;14&#45;&gt;1</title>
<path fill="none" stroke="red" stroke-width="0.16" d="M671.54,-67.98C668.89,-67.12 666.14,-66.31 663.5,-65.7 535.71,-35.98 494.92,-71.32 370.5,-29.7 369.62,-29.4 368.74,-29.08 367.86,-28.72"/>
<polygon fill="red" stroke="red" stroke-width="0.16" points="369.27,-25.51 358.75,-24.18 366.14,-31.78 369.27,-25.51"/>
</g>
<!-- &#45;14&#45;&gt;2 -->
<g id="edge58" class="edge">
<title>&#45;14&#45;&gt;2</title>
<path fill="none" stroke="red" stroke-width="0.12" d="M671.97,-68.4C669.17,-67.45 666.26,-66.51 663.5,-65.7 598.14,-46.48 577.76,-54.98 514.5,-29.7 513.64,-29.35 512.77,-28.98 511.91,-28.59"/>
<polygon fill="red" stroke="red" stroke-width="0.12" points="513.35,-25.4 502.86,-23.88 510.12,-31.61 513.35,-25.4"/>
</g>
<!-- &#45;14&#45;&gt;3 -->
<g id="edge59" class="edge">
<title>&#45;14&#45;&gt;3</title>
<path fill="none" stroke="green" stroke-width="0.75" d="M671.77,-67.94C646.02,-57.88 592.64,-37.01 561.82,-24.96"/>
<polygon fill="green" stroke="green" stroke-width="0.75" points="562.9,-21.63 552.31,-21.25 560.35,-28.15 562.9,-21.63"/>
</g>
<!-- &#45;14&#45;&gt;4 -->
<g id="edge60" class="edge">
<title>&#45;14&#45;&gt;4</title>
<path fill="none" stroke="red" stroke-width="0.44" d="M671.53,-68.04C668.88,-67.16 666.13,-66.34 663.5,-65.7 556.6,-39.5 522.45,-65.84 418.5,-29.7 417.63,-29.39 416.75,-29.06 415.87,-28.69"/>
<polygon fill="red" stroke="red" stroke-width="0.44" points="417.28,-25.49 406.78,-24.12 414.13,-31.74 417.28,-25.49"/>
</g>
<!-- &#45;15 -->
<g id="node15" class="node">
<title>&#45;15</title>
<polygon fill="lightgray" stroke="black" points="748,-83.7 719,-83.7 719,-65.7 748,-65.7 748,-83.7"/>
<text text-anchor="middle" x="733.5" y="-72.5" font-family="Times New Roman,serif" font-size="9.00">&#45;15</text>
</g>
<!-- &#45;15&#45;&gt;0 -->
<g id="edge61" class="edge">
<title>&#45;15&#45;&gt;0</title>
<path fill="none" stroke="red" stroke-width="0.46" d="M718.53,-68.04C715.88,-67.17 713.13,-66.34 710.5,-65.7 604.04,-39.58 570.03,-65.73 466.5,-29.7 465.63,-29.39 464.75,-29.06 463.87,-28.69"/>
<polygon fill="red" stroke="red" stroke-width="0.46" points="465.28,-25.49 454.78,-24.12 462.13,-31.74 465.28,-25.49"/>
</g>
<!-- &#45;15&#45;&gt;1 -->
<g id="edge62" class="edge">
<title>&#45;15&#45;&gt;1</title>
<path fill="none" stroke="green" stroke-width="0.76" d="M718.55,-67.95C715.9,-67.08 713.14,-66.29 710.5,-65.7 562.21,-32.52 515.01,-76.69 370.5,-29.7 369.45,-29.36 368.39,-28.96 367.34,-28.53"/>
<polygon fill="green" stroke="green" stroke-width="0.76" points="368.75,-25.32 358.25,-23.93 365.59,-31.57 368.75,-25.32"/>
</g>
<!-- &#45;15&#45;&gt;2 -->
<g id="edge63" class="edge">
<title>&#45;15&#45;&gt;2</title>
<path fill="none" stroke="green" stroke-width="0.51" d="M718.51,-68.11C715.86,-67.23 713.12,-66.39 710.5,-65.7 624.87,-43.08 597.62,-60.28 514.5,-29.7 513.63,-29.38 512.76,-29.03 511.88,-28.65"/>
<polygon fill="green" stroke="green" stroke-width="0.51" points="513.31,-25.45 502.81,-24.03 510.13,-31.69 513.31,-25.45"/>
</g>
<!-- &#45;15&#45;&gt;3 -->
<g id="edge64" class="edge">
<title>&#45;15&#45;&gt;3</title>
<path fill="none" stroke="green" stroke-width="0.55" stroke-dasharray="1,5" d="M718.94,-68.5C716.15,-67.54 713.24,-66.57 710.5,-65.7 658.11,-49.01 596.01,-31.59 562.63,-22.41"/>
<polygon fill="green" stroke="green" stroke-width="0.55" points="563.42,-19 552.85,-19.73 561.57,-25.75 563.42,-19"/>
</g>
<!-- &#45;15&#45;&gt;4 -->
<g id="edge65" class="edge">
<title>&#45;15&#45;&gt;4</title>
<path fill="none" stroke="green" stroke-width="0.22" d="M718.54,-67.98C715.89,-67.12 713.14,-66.31 710.5,-65.7 583.14,-36.05 542.5,-71.21 418.5,-29.7 417.62,-29.4 416.74,-29.08 415.86,-28.72"/>
<polygon fill="green" stroke="green" stroke-width="0.22" points="417.27,-25.51 406.76,-24.18 414.14,-31.77 417.27,-25.51"/>
</g>
<!-- &#45;16 -->
<g id="node16" class="node">
<title>&#45;16</title>
<polygon fill="lightgray" stroke="black" points="166,-83.7 137,-83.7 137,-65.7 166,-65.7 166,-83.7"/>
<text text-anchor="middle" x="151.5" y="-72.5" font-family="Times New Roman,serif" font-size="9.00">&#45;16</text>
</g>
<!-- &#45;16&#45;&gt;0 -->
<g id="edge66" class="edge">
<title>&#45;16&#45;&gt;0</title>
<path fill="none" stroke="red" stroke-width="0.29" d="M166.11,-68.38C169.18,-67.39 172.42,-66.43 175.5,-65.7 281.69,-40.34 315.4,-65.62 418.5,-29.7 419.37,-29.39 420.25,-29.06 421.13,-28.69"/>
<polygon fill="red" stroke="red" stroke-width="0.29" points="422.87,-31.74 430.22,-24.11 419.72,-25.49 422.87,-31.74"/>
</g>
<!-- &#45;16&#45;&gt;1 -->
<g id="edge67" class="edge">
<title>&#45;16&#45;&gt;1</title>
<path fill="none" stroke="red" stroke-width="0.23" d="M166.19,-68.7C169.26,-67.69 172.48,-66.64 175.5,-65.7 227.7,-49.4 289.39,-31.83 322.54,-22.52"/>
<polygon fill="red" stroke="red" stroke-width="0.23" points="323.57,-25.87 332.26,-19.8 321.68,-19.13 323.57,-25.87"/>
</g>
<!-- &#45;16&#45;&gt;2 -->
<g id="edge68" class="edge">
<title>&#45;16&#45;&gt;2</title>
<path fill="none" stroke="green" stroke-width="0.16" stroke-dasharray="1,5" d="M166.09,-68.32C169.17,-67.33 172.42,-66.4 175.5,-65.7 302.61,-36.95 342.93,-71.09 466.5,-29.7 467.38,-29.4 468.26,-29.08 469.14,-28.72"/>
<polygon fill="green" stroke="green" stroke-width="0.16" points="470.86,-31.77 478.24,-24.18 467.73,-25.51 470.86,-31.77"/>
</g>
<!-- &#45;16&#45;&gt;3 -->
<g id="edge69" class="edge">
<title>&#45;16&#45;&gt;3</title>
<path fill="none" stroke="green" stroke-width="0.14" d="M166.08,-68.28C169.16,-67.3 172.41,-66.37 175.5,-65.7 323.56,-33.55 370.42,-76.58 514.5,-29.7 515.38,-29.41 516.26,-29.09 517.15,-28.74"/>
<polygon fill="green" stroke="green" stroke-width="0.14" points="518.85,-31.8 526.26,-24.22 515.75,-25.53 518.85,-31.8"/>
</g>
<!-- &#45;16&#45;&gt;4 -->
<g id="edge70" class="edge">
<title>&#45;16&#45;&gt;4</title>
<path fill="none" stroke="green" stroke-width="0.41" d="M166.13,-68.46C169.2,-67.47 172.44,-66.49 175.5,-65.7 260.84,-43.71 287.8,-60.16 370.5,-29.7 371.37,-29.38 372.24,-29.03 373.12,-28.65"/>
<polygon fill="green" stroke="green" stroke-width="0.41" points="374.87,-31.69 382.19,-24.02 371.69,-25.45 374.87,-31.69"/>
</g>
<!-- &#45;17 -->
<g id="node17" class="node">
<title>&#45;17</title>
<polygon fill="lightgray" stroke="black" points="213,-83.7 184,-83.7 184,-65.7 213,-65.7 213,-83.7"/>
<text text-anchor="middle" x="198.5" y="-72.5" font-family="Times New Roman,serif" font-size="9.00">&#45;17</text>
</g>
<!-- &#45;17&#45;&gt;0 -->
<g id="edge71" class="edge">
<title>&#45;17&#45;&gt;0</title>
<path fill="none" stroke="red" stroke-width="0.13" d="M213.13,-68.46C216.2,-67.46 219.44,-66.49 222.5,-65.7 308.28,-43.64 335.38,-60.28 418.5,-29.7 419.37,-29.38 420.24,-29.03 421.12,-28.65"/>
<polygon fill="red" stroke="red" stroke-width="0.13" points="422.87,-31.69 430.19,-24.03 419.69,-25.45 422.87,-31.69"/>
</g>
<!-- &#45;17&#45;&gt;1 -->
<g id="edge72" class="edge">
<title>&#45;17&#45;&gt;1</title>
<path fill="none" stroke="green" stroke-width="0.8" d="M213.23,-67.94C238.98,-57.88 292.36,-37.01 323.18,-24.96"/>
<polygon fill="green" stroke="green" stroke-width="0.8" points="324.65,-28.15 332.69,-21.25 322.1,-21.63 324.65,-28.15"/>
</g>
<!-- &#45;17&#45;&gt;2 -->
<g id="edge73" class="edge">
<title>&#45;17&#45;&gt;2</title>
<path fill="none" stroke="green" stroke-width="0.51" stroke-dasharray="1,5" d="M213.11,-68.38C216.18,-67.39 219.42,-66.43 222.5,-65.7 329.13,-40.27 362.97,-65.73 466.5,-29.7 467.37,-29.39 468.25,-29.06 469.13,-28.69"/>
<polygon fill="green" stroke="green" stroke-width="0.51" points="470.87,-31.74 478.22,-24.12 467.72,-25.49 470.87,-31.74"/>
</g>
<!-- &#45;17&#45;&gt;3 -->
<g id="edge74" class="edge">
<title>&#45;17&#45;&gt;3</title>
<path fill="none" stroke="red" stroke-width="0.74" d="M213.09,-68.32C216.17,-67.33 219.42,-66.4 222.5,-65.7 350.05,-36.88 390.5,-71.21 514.5,-29.7 515.38,-29.4 516.26,-29.08 517.14,-28.72"/>
<polygon fill="red" stroke="red" stroke-width="0.74" points="518.86,-31.77 526.24,-24.18 515.73,-25.51 518.86,-31.77"/>
</g>
<!-- &#45;17&#45;&gt;4 -->
<g id="edge75" class="edge">
<title>&#45;17&#45;&gt;4</title>
<path fill="none" stroke="red" stroke-width="0.18" d="M213.16,-68.6C216.23,-67.59 219.46,-66.57 222.5,-65.7 287.56,-46.98 307.66,-54.87 370.5,-29.7 371.36,-29.35 372.23,-28.98 373.09,-28.59"/>
<polygon fill="red" stroke="red" stroke-width="0.18" points="374.88,-31.6 382.14,-23.88 371.65,-25.4 374.88,-31.6"/>
</g>
<!-- &#45;18 -->
<g id="node18" class="node">
<title>&#45;18</title>
<polygon fill="lightgray" stroke="black" points="260,-83.7 231,-83.7 231,-65.7 260,-65.7 260,-83.7"/>
<text text-anchor="middle" x="245.5" y="-72.5" font-family="Times New Roman,serif" font-size="9.00">&#45;18</text>
</g>
<!-- &#45;18&#45;&gt;0 -->
<g id="edge76" class="edge">
<title>&#45;18&#45;&gt;0</title>
<path fill="none" stroke="green" stroke-width="0.24" d="M260.16,-68.59C263.23,-67.58 266.46,-66.57 269.5,-65.7 334.99,-46.91 355.24,-54.98 418.5,-29.7 419.36,-29.35 420.23,-28.98 421.09,-28.59"/>
<polygon fill="green" stroke="green" stroke-width="0.24" points="422.88,-31.61 430.14,-23.88 419.65,-25.4 422.88,-31.61"/>
</g>
<!-- &#45;18&#45;&gt;1 -->
<g id="edge77" class="edge">
<title>&#45;18&#45;&gt;1</title>
<path fill="none" stroke="green" stroke-width="0.17" d="M259.54,-65.65C276.5,-55.94 305.19,-39.51 324.96,-28.19"/>
<polygon fill="green" stroke="green" stroke-width="0.17" points="326.91,-31.1 333.85,-23.1 323.43,-25.03 326.91,-31.1"/>
</g>
<!-- &#45;18&#45;&gt;2 -->
<g id="edge78" class="edge">
<title>&#45;18&#45;&gt;2</title>
<path fill="none" stroke="green" stroke-width="0.41" d="M260.13,-68.46C263.2,-67.46 266.44,-66.48 269.5,-65.7 355.71,-43.57 382.95,-60.39 466.5,-29.7 467.37,-29.38 468.24,-29.03 469.12,-28.66"/>
<polygon fill="green" stroke="green" stroke-width="0.41" points="470.87,-31.69 478.19,-24.03 467.69,-25.45 470.87,-31.69"/>
</g>
<!-- &#45;18&#45;&gt;3 -->
<g id="edge79" class="edge">
<title>&#45;18&#45;&gt;3</title>
<path fill="none" stroke="red" stroke-width="0.39" d="M260.11,-68.38C263.18,-67.38 266.42,-66.43 269.5,-65.7 376.56,-40.2 410.55,-65.84 514.5,-29.7 515.37,-29.39 516.25,-29.06 517.13,-28.69"/>
<polygon fill="red" stroke="red" stroke-width="0.39" points="518.87,-31.74 526.22,-24.12 515.72,-25.49 518.87,-31.74"/>
</g>
<!-- &#45;18&#45;&gt;4 -->
<g id="edge80" class="edge">
<title>&#45;18&#45;&gt;4</title>
<path fill="none" stroke="green" stroke-width="0.33" d="M260.25,-68.68C291.04,-58.18 360.15,-34.46 370.5,-29.7 371.34,-29.31 372.19,-28.9 373.05,-28.48"/>
<polygon fill="green" stroke="green" stroke-width="0.33" points="374.89,-31.46 382.03,-23.63 371.57,-25.3 374.89,-31.46"/>
</g>
<!-- &#45;19 -->
<g id="node19" class="node">
<title>&#45;19</title>
<polygon fill="lightgray" stroke="black" points="307,-83.7 278,-83.7 278,-65.7 307,-65.7 307,-83.7"/>
<text text-anchor="middle" x="292.5" y="-72.5" font-family="Times New Roman,serif" font-size="9.00">&#45;19</text>
</g>
<!-- &#45;19&#45;&gt;0 -->
<g id="edge81" class="edge">
<title>&#45;19&#45;&gt;0</title>
<path fill="none" stroke="red" stroke-width="0.32" d="M307.37,-68.68C338.4,-58.18 408.07,-34.48 418.5,-29.7 419.34,-29.31 420.19,-28.91 421.05,-28.49"/>
<polygon fill="red" stroke="red" stroke-width="0.32" points="422.89,-31.47 430.03,-23.64 419.57,-25.31 422.89,-31.47"/>
</g>
<!-- &#45;19&#45;&gt;1 -->
<g id="edge82" class="edge">
<title>&#45;19&#45;&gt;1</title>
<path fill="none" stroke="green" stroke-width="0.4" d="M300.01,-65.65C307.68,-57.44 319.83,-44.42 329.79,-33.75"/>
<polygon fill="green" stroke="green" stroke-width="0.4" points="332.6,-35.86 336.87,-26.17 327.49,-31.09 332.6,-35.86"/>
</g>
<!-- &#45;19&#45;&gt;2 -->
<g id="edge83" class="edge">
<title>&#45;19&#45;&gt;2</title>
<path fill="none" stroke="red" stroke-width="0.4" d="M307.16,-68.59C310.23,-67.58 313.46,-66.57 316.5,-65.7 382.42,-46.84 402.82,-55.09 466.5,-29.7 467.36,-29.36 468.23,-28.99 469.09,-28.6"/>
<polygon fill="red" stroke="red" stroke-width="0.4" points="470.88,-31.61 478.14,-23.89 467.65,-25.4 470.88,-31.61"/>
</g>
<!-- &#45;19&#45;&gt;3 -->
<g id="edge84" class="edge">
<title>&#45;19&#45;&gt;3</title>
<path fill="none" stroke="green" stroke-width="0.29" d="M307.12,-68.46C310.2,-67.46 313.44,-66.48 316.5,-65.7 403.14,-43.5 430.53,-60.5 514.5,-29.7 515.37,-29.38 516.24,-29.03 517.12,-28.66"/>
<polygon fill="green" stroke="green" stroke-width="0.29" points="518.87,-31.69 526.19,-24.03 515.69,-25.45 518.87,-31.69"/>
</g>
<!-- &#45;19&#45;&gt;4 -->
<g id="edge85" class="edge">
<title>&#45;19&#45;&gt;4</title>
<path fill="none" stroke="red" stroke-width="0.38" d="M306.9,-65.63C322.57,-56.84 348.35,-42.33 370.5,-29.7 371.3,-29.24 372.12,-28.77 372.95,-28.3"/>
<polygon fill="red" stroke="red" stroke-width="0.38" points="374.88,-31.22 381.81,-23.2 371.4,-25.15 374.88,-31.22"/>
</g>
<!-- &#45;20 -->
<g id="node20" class="node">
<title>&#45;20</title>
<polygon fill="lightgray" stroke="black" points="119,-83.7 90,-83.7 90,-65.7 119,-65.7 119,-83.7"/>
<text text-anchor="middle" x="104.5" y="-72.5" font-family="Times New Roman,serif" font-size="9.00">&#45;20</text>
</g>
<!-- &#45;20&#45;&gt;0 -->
<g id="edge86" class="edge">
<title>&#45;20&#45;&gt;0</title>
<path fill="none" stroke="red" stroke-width="0.14" d="M119.09,-68.32C122.17,-67.33 125.42,-66.4 128.5,-65.7 255.17,-37.02 295.36,-70.98 418.5,-29.7 419.38,-29.4 420.26,-29.08 421.14,-28.72"/>
<polygon fill="red" stroke="red" stroke-width="0.14" points="422.86,-31.77 430.24,-24.18 419.73,-25.51 422.86,-31.77"/>
</g>
<!-- &#45;20&#45;&gt;1 -->
<g id="edge87" class="edge">
<title>&#45;20&#45;&gt;1</title>
<path fill="none" stroke="green" stroke-width="0.23" d="M119.15,-68.56C122.22,-67.56 125.46,-66.55 128.5,-65.7 198.01,-46.21 281.56,-28.73 322.08,-20.63"/>
<polygon fill="green" stroke="green" stroke-width="0.23" points="322.97,-24.02 332.1,-18.64 321.61,-17.15 322.97,-24.02"/>
</g>
<!-- &#45;20&#45;&gt;2 -->
<g id="edge88" class="edge">
<title>&#45;20&#45;&gt;2</title>
<path fill="none" stroke="green" stroke-width="0.75" d="M119.08,-68.28C122.16,-67.3 125.41,-66.37 128.5,-65.7 276.13,-33.63 322.85,-76.47 466.5,-29.7 467.38,-29.41 468.26,-29.09 469.15,-28.74"/>
<polygon fill="green" stroke="green" stroke-width="0.75" points="470.85,-31.8 478.26,-24.22 467.74,-25.53 470.85,-31.8"/>
</g>
</g>
</svg>
