<?xml version="1.0" encoding="UTF-8" standalone="no"?>
<!DOCTYPE svg PUBLIC "-//W3C//DTD SVG 1.1//EN"
 "http://www.w3.org/Graphics/SVG/1.1/DTD/svg11.dtd">
<!-- Generated by graphviz version 2.49.0 (20210828.1703)
 -->
<!-- Pages: 1 -->
<svg width="947pt" height="236pt"
 viewBox="0.00 0.00 947.23 235.82" xmlns="http://www.w3.org/2000/svg" xmlns:xlink="http://www.w3.org/1999/xlink">
<g id="graph0" class="graph" transform="scale(1 1) rotate(0) translate(4 231.82)">
<polygon fill="white" stroke="transparent" points="-4,4 -4,-231.82 943.23,-231.82 943.23,4 -4,4"/>
<!-- &#45;1 -->
<g id="node1" class="node">
<title>&#45;1</title>
<polygon fill="lightgray" stroke="black" points="83.73,-227.82 59.73,-227.82 59.73,-209.82 83.73,-209.82 83.73,-227.82"/>
<text text-anchor="middle" x="71.73" y="-216.62" font-family="Times New Roman,serif" font-size="9.00">&#45;1</text>
</g>
<!-- 0 -->
<g id="node21" class="node">
<title>0</title>
<ellipse fill="lightblue" stroke="black" cx="463.73" cy="-158.97" rx="14.7" ry="14.7"/>
<text text-anchor="middle" x="463.73" y="-156.77" font-family="Times New Roman,serif" font-size="9.00">0</text>
</g>
<!-- &#45;1&#45;&gt;0 -->
<g id="edge1" class="edge">
<title>&#45;1&#45;&gt;0</title>
<path fill="none" stroke="red" stroke-width="0.21" d="M84.01,-212.57C86.83,-211.52 89.85,-210.53 92.73,-209.82 227.03,-176.96 265.42,-196.93 401.73,-173.82 414.26,-171.7 428.07,-168.68 439.46,-166.01"/>
<polygon fill="red" stroke="red" stroke-width="0.21" points="440.63,-169.33 449.54,-163.59 438.99,-162.52 440.63,-169.33"/>
</g>
<!-- 1 -->
<g id="node22" class="node">
<title>1</title>
<ellipse fill="lightblue" stroke="black" cx="420.73" cy="-14.85" rx="14.7" ry="14.7"/>
<text text-anchor="middle" x="420.73" y="-12.65" font-family="Times New Roman,serif" font-size="9.00">1</text>
</g>
<!-- &#45;1&#45;&gt;1 -->
<g id="edge2" class="edge">
<title>&#45;1&#45;&gt;1</title>
<path fill="none" stroke="red" stroke-width="0.47" d="M63.23,-209.52C38.89,-184.78 -26.88,-110.45 12.73,-65.7 38.28,-36.84 311.26,-21.19 395.87,-17"/>
<polygon fill="red" stroke="red" stroke-width="0.47" points="396.06,-20.5 405.88,-16.52 395.72,-13.51 396.06,-20.5"/>
</g>
<!-- 3 -->
<g id="node24" class="node">
<title>3</title>
<ellipse fill="lightblue" stroke="black" cx="597.73" cy="-158.97" rx="14.7" ry="14.7"/>
<text text-anchor="middle" x="597.73" y="-156.77" font-family="Times New Roman,serif" font-size="9.00">3</text>
</g>
<!-- &#45;1&#45;&gt;3 -->
<g id="edge3" class="edge">
<title>&#45;1&#45;&gt;3</title>
<path fill="none" stroke="green" stroke-width="0.26" d="M83.99,-212.49C86.82,-211.45 89.84,-210.48 92.73,-209.82 285.4,-166.23 340.43,-203.43 535.73,-173.82 548.43,-171.9 562.39,-168.86 573.85,-166.12"/>
<polygon fill="green" stroke="green" stroke-width="0.26" points="574.69,-169.52 583.56,-163.73 573.01,-162.72 574.69,-169.52"/>
</g>
<!-- 4 -->
<g id="node25" class="node">
<title>4</title>
<ellipse fill="lightblue" stroke="black" cx="377.73" cy="-158.97" rx="14.7" ry="14.7"/>
<text text-anchor="middle" x="377.73" y="-156.77" font-family="Times New Roman,serif" font-size="9.00">4</text>
</g>
<!-- &#45;1&#45;&gt;4 -->
<g id="edge4" class="edge">
<title>&#45;1&#45;&gt;4</title>
<path fill="none" stroke="red" stroke-width="0.22" d="M84.04,-212.69C86.86,-211.63 89.88,-210.61 92.73,-209.82 187.06,-183.86 302.83,-168.55 352.81,-162.71"/>
<polygon fill="red" stroke="red" stroke-width="0.22" points="353.45,-166.16 362.98,-161.55 352.65,-159.21 353.45,-166.16"/>
</g>
<!-- 323 -->
<g id="node26" class="node">
<title>323</title>
<ellipse fill="white" stroke="black" cx="57.73" cy="-86.91" rx="21.43" ry="21.43"/>
<text text-anchor="middle" x="57.73" y="-84.71" font-family="Times New Roman,serif" font-size="9.00">323</text>
</g>
<!-- &#45;1&#45;&gt;323 -->
<g id="edge97" class="edge">
<title>&#45;1&#45;&gt;323</title>
<path fill="none" stroke="red" stroke-width="0.22" d="M67.53,-209.66C63.33,-201.02 57.17,-186.87 54.73,-173.82 51.35,-155.65 51.94,-134.95 53.45,-118.42"/>
<polygon fill="red" stroke="red" stroke-width="0.22" points="56.96,-118.55 54.55,-108.23 50,-117.8 56.96,-118.55"/>
</g>
<!-- &#45;2 -->
<g id="node2" class="node">
<title>&#45;2</title>
<polygon fill="lightgray" stroke="black" points="125.73,-227.82 101.73,-227.82 101.73,-209.82 125.73,-209.82 125.73,-227.82"/>
<text text-anchor="middle" x="113.73" y="-216.62" font-family="Times New Roman,serif" font-size="9.00">&#45;2</text>
</g>
<!-- &#45;2&#45;&gt;0 -->
<g id="edge5" class="edge">
<title>&#45;2&#45;&gt;0</title>
<path fill="none" stroke="red" stroke-width="0.22" d="M126.02,-212.6C128.84,-211.56 131.86,-210.55 134.73,-209.82 250.78,-180.32 283.86,-194.89 401.73,-173.82 414.24,-171.59 428.04,-168.56 439.45,-165.91"/>
<polygon fill="red" stroke="red" stroke-width="0.22" points="440.6,-169.23 449.52,-163.51 438.98,-162.42 440.6,-169.23"/>
</g>
<!-- &#45;2&#45;&gt;1 -->
<g id="edge6" class="edge">
<title>&#45;2&#45;&gt;1</title>
<path fill="none" stroke="green" stroke-width="0.12" d="M102.32,-209.48C70.47,-185.24 -14.39,-113.5 27.73,-65.7 52.19,-37.95 313.03,-21.64 395.73,-17.13"/>
<polygon fill="green" stroke="green" stroke-width="0.12" points="396.17,-20.62 405.97,-16.59 395.79,-13.63 396.17,-20.62"/>
</g>
<!-- 2 -->
<g id="node23" class="node">
<title>2</title>
<ellipse fill="lightblue" stroke="black" cx="511.73" cy="-158.97" rx="14.7" ry="14.7"/>
<text text-anchor="middle" x="511.73" y="-156.77" font-family="Times New Roman,serif" font-size="9.00">2</text>
</g>
<!-- &#45;2&#45;&gt;2 -->
<g id="edge7" class="edge">
<title>&#45;2&#45;&gt;2</title>
<path fill="none" stroke="red" stroke-width="0.65" d="M126,-212.53C128.83,-211.49 131.85,-210.51 134.73,-209.82 288.18,-173.44 337.67,-222.31 487.73,-173.82 488.79,-173.48 489.85,-173.09 490.9,-172.66"/>
<polygon fill="red" stroke="red" stroke-width="0.65" points="492.64,-175.7 499.99,-168.07 489.49,-169.45 492.64,-175.7"/>
</g>
<!-- &#45;2&#45;&gt;4 -->
<g id="edge8" class="edge">
<title>&#45;2&#45;&gt;4</title>
<path fill="none" stroke="red" stroke-width="0.14" d="M126.06,-212.75C128.88,-211.69 131.89,-210.65 134.73,-209.82 213.07,-187.03 308.54,-170.67 352.89,-163.71"/>
<polygon fill="red" stroke="red" stroke-width="0.14" points="353.67,-167.13 363.02,-162.14 352.6,-160.21 353.67,-167.13"/>
</g>
<!-- &#45;3 -->
<g id="node3" class="node">
<title>&#45;3</title>
<polygon fill="lightgray" stroke="black" points="215.73,-227.82 191.73,-227.82 191.73,-209.82 215.73,-209.82 215.73,-227.82"/>
<text text-anchor="middle" x="203.73" y="-216.62" font-family="Times New Roman,serif" font-size="9.00">&#45;3</text>
</g>
<!-- &#45;3&#45;&gt;0 -->
<g id="edge9" class="edge">
<title>&#45;3&#45;&gt;0</title>
<path fill="none" stroke="red" stroke-width="0.28" d="M216.06,-212.75C218.88,-211.69 221.89,-210.65 224.73,-209.82 301.83,-187.46 323.22,-190.57 401.73,-173.82 414.16,-171.17 427.96,-168.1 439.37,-165.53"/>
<polygon fill="red" stroke="red" stroke-width="0.28" points="440.49,-168.86 449.47,-163.24 438.94,-162.04 440.49,-168.86"/>
</g>
<!-- &#45;3&#45;&gt;1 -->
<g id="edge10" class="edge">
<title>&#45;3&#45;&gt;1</title>
<path fill="none" stroke="green" stroke-width="0.34" d="M204.73,-209.53C208.23,-184.16 222.21,-106.81 266.73,-65.7 303.09,-32.13 362.3,-21.15 395.72,-17.57"/>
<polygon fill="green" stroke="green" stroke-width="0.34" points="396.36,-21.03 405.99,-16.62 395.71,-14.06 396.36,-21.03"/>
</g>
<!-- &#45;3&#45;&gt;2 -->
<g id="edge11" class="edge">
<title>&#45;3&#45;&gt;2</title>
<path fill="none" stroke="red" stroke-width="0.12" d="M216.02,-212.61C218.84,-211.56 221.86,-210.56 224.73,-209.82 339.05,-180.63 376.11,-212.02 487.73,-173.82 488.61,-173.52 489.49,-173.19 490.37,-172.83"/>
<polygon fill="red" stroke="red" stroke-width="0.12" points="492.1,-175.88 499.47,-168.27 488.96,-169.62 492.1,-175.88"/>
</g>
<!-- &#45;3&#45;&gt;3 -->
<g id="edge12" class="edge">
<title>&#45;3&#45;&gt;3</title>
<path fill="none" stroke="green" stroke-width="0.25" stroke-dasharray="1,5" d="M216.01,-212.56C218.83,-211.52 221.85,-210.53 224.73,-209.82 359.9,-176.8 398.54,-197.02 535.73,-173.82 548.26,-171.71 562.07,-168.69 573.47,-166.01"/>
<polygon fill="green" stroke="green" stroke-width="0.25" points="574.63,-169.33 583.54,-163.59 572.99,-162.53 574.63,-169.33"/>
</g>
<!-- &#45;3&#45;&gt;4 -->
<g id="edge13" class="edge">
<title>&#45;3&#45;&gt;4</title>
<path fill="none" stroke="green" stroke-width="0.17" d="M216.13,-212.98C218.95,-211.92 221.94,-210.81 224.73,-209.82 270.21,-193.76 323.94,-176.69 354.1,-167.28"/>
<polygon fill="green" stroke="green" stroke-width="0.17" points="355.23,-170.59 363.73,-164.28 353.15,-163.91 355.23,-170.59"/>
</g>
<!-- &#45;4 -->
<g id="node4" class="node">
<title>&#45;4</title>
<polygon fill="lightgray" stroke="black" points="849.73,-227.82 825.73,-227.82 825.73,-209.82 849.73,-209.82 849.73,-227.82"/>
<text text-anchor="middle" x="837.73" y="-216.62" font-family="Times New Roman,serif" font-size="9.00">&#45;4</text>
</g>
<!-- &#45;4&#45;&gt;1 -->
<g id="edge14" class="edge">
<title>&#45;4&#45;&gt;1</title>
<path fill="none" stroke="red" stroke-width="1.19" stroke-dasharray="1,5" d="M835.34,-209.48C827.33,-183.28 798.86,-102.23 743.73,-65.7 694.67,-33.19 513.02,-20.63 445.89,-17.04"/>
<polygon fill="red" stroke="red" stroke-width="1.19" points="445.95,-13.54 435.78,-16.52 445.59,-20.53 445.95,-13.54"/>
</g>
<!-- &#45;4&#45;&gt;2 -->
<g id="edge15" class="edge">
<title>&#45;4&#45;&gt;2</title>
<path fill="none" stroke="red" stroke-width="0.43" d="M825.31,-212.81C822.22,-211.7 818.89,-210.62 815.73,-209.82 710.33,-183.11 680.64,-193.69 573.73,-173.82 561.24,-171.5 547.44,-168.47 536.04,-165.83"/>
<polygon fill="red" stroke="red" stroke-width="0.43" points="536.49,-162.34 525.96,-163.46 534.89,-169.15 536.49,-162.34"/>
</g>
<!-- &#45;4&#45;&gt;3 -->
<g id="edge16" class="edge">
<title>&#45;4&#45;&gt;3</title>
<path fill="none" stroke="green" stroke-width="0.35" stroke-dasharray="1,5" d="M825.72,-213.15C822.5,-211.98 819.01,-210.79 815.73,-209.82 746.49,-189.4 662.82,-172.35 622.22,-164.54"/>
<polygon fill="green" stroke="green" stroke-width="0.35" points="622.66,-161.06 612.18,-162.63 621.35,-167.94 622.66,-161.06"/>
</g>
<!-- &#45;4&#45;&gt;4 -->
<g id="edge17" class="edge">
<title>&#45;4&#45;&gt;4</title>
<path fill="none" stroke="red" stroke-width="0.17" stroke-dasharray="1,5" d="M825.33,-212.69C822.24,-211.59 818.91,-210.54 815.73,-209.82 651.98,-172.84 605.53,-200.17 439.73,-173.82 427.19,-171.83 413.38,-168.83 401.99,-166.13"/>
<polygon fill="red" stroke="red" stroke-width="0.17" points="402.47,-162.64 391.92,-163.67 400.81,-169.44 402.47,-162.64"/>
</g>
<!-- &#45;5 -->
<g id="node5" class="node">
<title>&#45;5</title>
<polygon fill="lightgray" stroke="black" points="891.73,-227.82 867.73,-227.82 867.73,-209.82 891.73,-209.82 891.73,-227.82"/>
<text text-anchor="middle" x="879.73" y="-216.62" font-family="Times New Roman,serif" font-size="9.00">&#45;5</text>
</g>
<!-- &#45;5&#45;&gt;0 -->
<g id="edge18" class="edge">
<title>&#45;5&#45;&gt;0</title>
<path fill="none" stroke="green" stroke-width="0.17" stroke-dasharray="1,5" d="M867.47,-212.52C864.65,-211.48 861.62,-210.5 858.73,-209.82 697.45,-172 645.5,-224.37 487.73,-173.82 486.68,-173.49 485.62,-173.1 484.57,-172.67"/>
<polygon fill="green" stroke="green" stroke-width="0.17" points="485.98,-169.46 475.47,-168.08 482.83,-175.71 485.98,-169.46"/>
</g>
<!-- &#45;5&#45;&gt;1 -->
<g id="edge19" class="edge">
<title>&#45;5&#45;&gt;1</title>
<path fill="none" stroke="red" stroke-width="0.67" d="M877.11,-209.8C868.16,-183.86 836.16,-101.82 778.73,-65.7 723.02,-30.65 518.22,-19.57 446.08,-16.71"/>
<polygon fill="red" stroke="red" stroke-width="0.67" points="445.81,-13.2 435.69,-16.32 445.55,-20.19 445.81,-13.2"/>
</g>
<!-- &#45;5&#45;&gt;2 -->
<g id="edge20" class="edge">
<title>&#45;5&#45;&gt;2</title>
<path fill="none" stroke="green" stroke-width="0.34" d="M867.46,-212.59C864.63,-211.54 861.61,-210.54 858.73,-209.82 734.87,-178.88 699.51,-195.76 573.73,-173.82 561.22,-171.64 547.41,-168.62 536.01,-165.95"/>
<polygon fill="green" stroke="green" stroke-width="0.34" points="536.48,-162.47 525.94,-163.55 534.85,-169.27 536.48,-162.47"/>
</g>
<!-- &#45;5&#45;&gt;3 -->
<g id="edge21" class="edge">
<title>&#45;5&#45;&gt;3</title>
<path fill="none" stroke="red" stroke-width="0.35" d="M867.42,-212.72C864.6,-211.67 861.59,-210.63 858.73,-209.82 773.48,-185.64 669.21,-169.68 622.47,-163.22"/>
<polygon fill="red" stroke="red" stroke-width="0.35" points="622.75,-159.73 612.37,-161.85 621.81,-166.67 622.75,-159.73"/>
</g>
<!-- &#45;6 -->
<g id="node6" class="node">
<title>&#45;6</title>
<polygon fill="lightgray" stroke="black" points="257.73,-227.82 233.73,-227.82 233.73,-209.82 257.73,-209.82 257.73,-227.82"/>
<text text-anchor="middle" x="245.73" y="-216.62" font-family="Times New Roman,serif" font-size="9.00">&#45;6</text>
</g>
<!-- &#45;6&#45;&gt;0 -->
<g id="edge22" class="edge">
<title>&#45;6&#45;&gt;0</title>
<path fill="none" stroke="green" stroke-width="0.19" d="M258.09,-212.84C260.91,-211.78 263.91,-210.72 266.73,-209.82 299.2,-199.57 394.71,-176.44 439.73,-165.68"/>
<polygon fill="green" stroke="green" stroke-width="0.19" points="440.61,-169.07 449.53,-163.34 438.99,-162.26 440.61,-169.07"/>
</g>
<!-- &#45;6&#45;&gt;1 -->
<g id="edge23" class="edge">
<title>&#45;6&#45;&gt;1</title>
<path fill="none" stroke="green" stroke-width="0.58" d="M246.15,-209.69C247.83,-184.79 256.22,-108.66 296.73,-65.7 323.29,-37.53 367.91,-24.91 395.76,-19.53"/>
<polygon fill="green" stroke="green" stroke-width="0.58" points="396.64,-22.93 405.88,-17.75 395.43,-16.03 396.64,-22.93"/>
</g>
<!-- &#45;6&#45;&gt;2 -->
<g id="edge24" class="edge">
<title>&#45;6&#45;&gt;2</title>
<path fill="none" stroke="green" stroke-width="0.2" d="M258.03,-212.66C260.86,-211.61 263.87,-210.59 266.73,-209.82 362.84,-183.98 394,-207.24 487.73,-173.82 488.61,-173.51 489.48,-173.17 490.36,-172.8"/>
<polygon fill="green" stroke="green" stroke-width="0.2" points="492.1,-175.84 499.44,-168.2 488.94,-169.6 492.1,-175.84"/>
</g>
<!-- &#45;6&#45;&gt;3 -->
<g id="edge25" class="edge">
<title>&#45;6&#45;&gt;3</title>
<path fill="none" stroke="green" stroke-width="0.46" d="M258.02,-212.6C260.84,-211.55 263.86,-210.55 266.73,-209.82 383.65,-180.16 416.99,-194.99 535.73,-173.82 548.24,-171.59 562.05,-168.57 573.45,-165.91"/>
<polygon fill="green" stroke="green" stroke-width="0.46" points="574.6,-169.23 583.52,-163.52 572.98,-162.42 574.6,-169.23"/>
</g>
<!-- &#45;6&#45;&gt;4 -->
<g id="edge26" class="edge">
<title>&#45;6&#45;&gt;4</title>
<path fill="none" stroke="green" stroke-width="0.59" d="M257.92,-212.48C279.97,-202.82 326.84,-182.28 354.97,-169.95"/>
<polygon fill="green" stroke="green" stroke-width="0.59" points="356.66,-173.03 364.41,-165.81 353.85,-166.62 356.66,-173.03"/>
</g>
<!-- &#45;7 -->
<g id="node7" class="node">
<title>&#45;7</title>
<polygon fill="lightgray" stroke="black" points="299.73,-227.82 275.73,-227.82 275.73,-209.82 299.73,-209.82 299.73,-227.82"/>
<text text-anchor="middle" x="287.73" y="-216.62" font-family="Times New Roman,serif" font-size="9.00">&#45;7</text>
</g>
<!-- &#45;7&#45;&gt;0 -->
<g id="edge27" class="edge">
<title>&#45;7&#45;&gt;0</title>
<path fill="none" stroke="green" stroke-width="0.58" d="M300.13,-212.98C302.95,-211.91 305.94,-210.81 308.73,-209.82 354.78,-193.66 409.22,-176.63 439.78,-167.25"/>
<polygon fill="green" stroke="green" stroke-width="0.58" points="441.01,-170.53 449.55,-164.26 438.96,-163.84 441.01,-170.53"/>
</g>
<!-- &#45;7&#45;&gt;1 -->
<g id="edge28" class="edge">
<title>&#45;7&#45;&gt;1</title>
<path fill="none" stroke="green" stroke-width="0.14" d="M287.19,-209.55C286.01,-184.87 285.73,-110.71 320.73,-65.7 339.63,-41.4 373.53,-28.07 396.57,-21.45"/>
<polygon fill="green" stroke="green" stroke-width="0.14" points="397.53,-24.81 406.29,-18.86 395.73,-18.05 397.53,-24.81"/>
</g>
<!-- &#45;7&#45;&gt;2 -->
<g id="edge29" class="edge">
<title>&#45;7&#45;&gt;2</title>
<path fill="none" stroke="red" stroke-width="0.13" d="M300.06,-212.74C302.88,-211.69 305.89,-210.65 308.73,-209.82 386.7,-187.3 411.81,-202.48 487.73,-173.82 488.6,-173.5 489.47,-173.14 490.34,-172.76"/>
<polygon fill="red" stroke="red" stroke-width="0.13" points="492.11,-175.79 499.41,-168.11 488.92,-169.56 492.11,-175.79"/>
</g>
<!-- &#45;7&#45;&gt;3 -->
<g id="edge30" class="edge">
<title>&#45;7&#45;&gt;3</title>
<path fill="none" stroke="green" stroke-width="0.83" d="M300.03,-212.65C302.86,-211.6 305.87,-210.59 308.73,-209.82 407.43,-183.5 435.4,-192.97 535.73,-173.82 548.21,-171.44 562.02,-168.4 573.42,-165.77"/>
<polygon fill="green" stroke="green" stroke-width="0.83" points="574.56,-169.1 583.5,-163.42 572.97,-162.29 574.56,-169.1"/>
</g>
<!-- &#45;7&#45;&gt;4 -->
<g id="edge31" class="edge">
<title>&#45;7&#45;&gt;4</title>
<path fill="none" stroke="red" stroke-width="0.23" d="M299.87,-210.02C314.5,-200.62 339.31,-184.67 357,-173.3"/>
<polygon fill="red" stroke="red" stroke-width="0.23" points="358.98,-176.19 365.5,-167.84 355.2,-170.3 358.98,-176.19"/>
</g>
<!-- &#45;8 -->
<g id="node8" class="node">
<title>&#45;8</title>
<polygon fill="lightgray" stroke="black" points="341.73,-227.82 317.73,-227.82 317.73,-209.82 341.73,-209.82 341.73,-227.82"/>
<text text-anchor="middle" x="329.73" y="-216.62" font-family="Times New Roman,serif" font-size="9.00">&#45;8</text>
</g>
<!-- &#45;8&#45;&gt;0 -->
<g id="edge32" class="edge">
<title>&#45;8&#45;&gt;0</title>
<path fill="none" stroke="red" stroke-width="0.17" d="M342.1,-212.48C364.59,-202.78 412.48,-182.1 441,-169.79"/>
<polygon fill="red" stroke="red" stroke-width="0.17" points="442.42,-172.99 450.21,-165.81 439.64,-166.56 442.42,-172.99"/>
</g>
<!-- &#45;8&#45;&gt;1 -->
<g id="edge33" class="edge">
<title>&#45;8&#45;&gt;1</title>
<path fill="none" stroke="red" stroke-width="0.29" d="M327.88,-209.81C322.81,-185.86 310.91,-113.53 339.73,-65.7 352.52,-44.48 378.14,-31.01 397.16,-23.49"/>
<polygon fill="red" stroke="red" stroke-width="0.29" points="398.48,-26.74 406.66,-20.01 396.07,-20.17 398.48,-26.74"/>
</g>
<!-- &#45;8&#45;&gt;2 -->
<g id="edge34" class="edge">
<title>&#45;8&#45;&gt;2</title>
<path fill="none" stroke="green" stroke-width="0.68" d="M342.09,-212.86C344.91,-211.8 347.91,-210.73 350.73,-209.82 410.68,-190.59 429.51,-197.77 487.73,-173.82 488.59,-173.47 489.45,-173.09 490.32,-172.7"/>
<polygon fill="green" stroke="green" stroke-width="0.68" points="492.12,-175.7 499.35,-167.96 488.87,-169.5 492.12,-175.7"/>
</g>
<!-- &#45;8&#45;&gt;3 -->
<g id="edge35" class="edge">
<title>&#45;8&#45;&gt;3</title>
<path fill="none" stroke="green" stroke-width="0.24" d="M342.05,-212.73C344.87,-211.67 347.88,-210.64 350.73,-209.82 431.28,-186.83 453.74,-190.96 535.73,-173.82 548.17,-171.23 561.97,-168.16 573.38,-165.58"/>
<polygon fill="green" stroke="green" stroke-width="0.24" points="574.5,-168.91 583.48,-163.28 572.95,-162.09 574.5,-168.91"/>
</g>
<!-- &#45;8&#45;&gt;4 -->
<g id="edge36" class="edge">
<title>&#45;8&#45;&gt;4</title>
<path fill="none" stroke="green" stroke-width="0.28" stroke-dasharray="1,5" d="M336.41,-209.78C342.99,-201.84 353.31,-189.41 361.98,-178.96"/>
<polygon fill="green" stroke="green" stroke-width="0.28" points="364.8,-181.05 368.49,-171.12 359.41,-176.58 364.8,-181.05"/>
</g>
<!-- &#45;9 -->
<g id="node9" class="node">
<title>&#45;9</title>
<polygon fill="lightgray" stroke="black" points="383.73,-227.82 359.73,-227.82 359.73,-209.82 383.73,-209.82 383.73,-227.82"/>
<text text-anchor="middle" x="371.73" y="-216.62" font-family="Times New Roman,serif" font-size="9.00">&#45;9</text>
</g>
<!-- &#45;9&#45;&gt;0 -->
<g id="edge37" class="edge">
<title>&#45;9&#45;&gt;0</title>
<path fill="none" stroke="green" stroke-width="0.15" d="M383.76,-210.26C398.76,-200.83 424.65,-184.55 442.9,-173.07"/>
<polygon fill="green" stroke="green" stroke-width="0.15" points="444.81,-176.01 451.41,-167.72 441.08,-170.08 444.81,-176.01"/>
</g>
<!-- &#45;9&#45;&gt;1 -->
<g id="edge38" class="edge">
<title>&#45;9&#45;&gt;1</title>
<path fill="none" stroke="green" stroke-width="0.21" stroke-dasharray="1,5" d="M365.34,-209.64C359.19,-201.2 350.33,-187.41 346.73,-173.82 334.32,-126.86 338.13,-107.59 362.73,-65.7 371.61,-50.59 386.75,-37.81 399.33,-28.98"/>
<polygon fill="green" stroke="green" stroke-width="0.21" points="401.53,-31.71 407.92,-23.26 397.66,-25.89 401.53,-31.71"/>
</g>
<!-- &#45;9&#45;&gt;2 -->
<g id="edge39" class="edge">
<title>&#45;9&#45;&gt;2</title>
<path fill="none" stroke="red" stroke-width="0.26" d="M384.17,-213.08C386.99,-212.01 389.96,-210.88 392.73,-209.82 434.94,-193.79 446.94,-193.17 487.73,-173.82 488.57,-173.43 489.42,-173.01 490.27,-172.58"/>
<polygon fill="red" stroke="red" stroke-width="0.26" points="492.13,-175.55 499.23,-167.7 488.78,-169.41 492.13,-175.55"/>
</g>
<!-- &#45;9&#45;&gt;3 -->
<g id="edge40" class="edge">
<title>&#45;9&#45;&gt;3</title>
<path fill="none" stroke="red" stroke-width="0.35" d="M384.08,-212.82C386.9,-211.77 389.9,-210.7 392.73,-209.82 426.65,-199.29 526.79,-176.11 573.38,-165.49"/>
<polygon fill="red" stroke="red" stroke-width="0.35" points="574.26,-168.88 583.24,-163.25 572.71,-162.05 574.26,-168.88"/>
</g>
<!-- &#45;9&#45;&gt;4 -->
<g id="edge41" class="edge">
<title>&#45;9&#45;&gt;4</title>
<path fill="none" stroke="green" stroke-width="0.44" d="M372.57,-209.78C373.25,-203.17 374.26,-193.46 375.21,-184.36"/>
<polygon fill="green" stroke="green" stroke-width="0.44" points="378.71,-184.49 376.26,-174.18 371.75,-183.77 378.71,-184.49"/>
</g>
<!-- &#45;10 -->
<g id="node10" class="node">
<title>&#45;10</title>
<polygon fill="lightgray" stroke="black" points="431.23,-227.82 402.23,-227.82 402.23,-209.82 431.23,-209.82 431.23,-227.82"/>
<text text-anchor="middle" x="416.73" y="-216.62" font-family="Times New Roman,serif" font-size="9.00">&#45;10</text>
</g>
<!-- &#45;10&#45;&gt;0 -->
<g id="edge42" class="edge">
<title>&#45;10&#45;&gt;0</title>
<path fill="none" stroke="red" stroke-width="0.15" d="M423.27,-209.78C429.72,-201.84 439.82,-189.41 448.31,-178.96"/>
<polygon fill="red" stroke="red" stroke-width="0.15" points="451.09,-181.09 454.68,-171.12 445.66,-176.67 451.09,-181.09"/>
</g>
<!-- &#45;10&#45;&gt;1 -->
<g id="edge43" class="edge">
<title>&#45;10&#45;&gt;1</title>
<path fill="none" stroke="red" stroke-width="0.21" d="M402.09,-212.38C386.86,-205.83 363.85,-193.22 353.73,-173.82 347.63,-162.12 350.59,-156.94 353.73,-144.12 363.88,-102.8 389.92,-60.01 406.39,-35.78"/>
<polygon fill="red" stroke="red" stroke-width="0.21" points="409.35,-37.66 412.18,-27.45 403.6,-33.66 409.35,-37.66"/>
</g>
<!-- &#45;10&#45;&gt;2 -->
<g id="edge44" class="edge">
<title>&#45;10&#45;&gt;2</title>
<path fill="none" stroke="green" stroke-width="0.32" d="M429.94,-209.78C445.65,-200.22 472.05,-184.14 490.6,-172.84"/>
<polygon fill="green" stroke="green" stroke-width="0.32" points="492.52,-175.77 499.24,-167.58 488.88,-169.79 492.52,-175.77"/>
</g>
<!-- &#45;10&#45;&gt;3 -->
<g id="edge45" class="edge">
<title>&#45;10&#45;&gt;3</title>
<path fill="none" stroke="red" stroke-width="0.23" d="M431.31,-212.68C434.1,-211.72 437.01,-210.73 439.73,-209.82 487.11,-194.11 542.86,-176.8 573.86,-167.27"/>
<polygon fill="red" stroke="red" stroke-width="0.23" points="575.21,-170.52 583.74,-164.24 573.15,-163.82 575.21,-170.52"/>
</g>
<!-- &#45;10&#45;&gt;4 -->
<g id="edge46" class="edge">
<title>&#45;10&#45;&gt;4</title>
<path fill="none" stroke="red" stroke-width="0.35" d="M411.31,-209.78C406.2,-202.19 398.31,-190.5 391.47,-180.35"/>
<polygon fill="red" stroke="red" stroke-width="0.35" points="394.31,-178.3 385.82,-171.97 388.51,-182.22 394.31,-178.3"/>
</g>
<!-- &#45;11 -->
<g id="node11" class="node">
<title>&#45;11</title>
<polygon fill="lightgray" stroke="black" points="478.23,-227.82 449.23,-227.82 449.23,-209.82 478.23,-209.82 478.23,-227.82"/>
<text text-anchor="middle" x="463.73" y="-216.62" font-family="Times New Roman,serif" font-size="9.00">&#45;11</text>
</g>
<!-- &#45;11&#45;&gt;0 -->
<g id="edge47" class="edge">
<title>&#45;11&#45;&gt;0</title>
<path fill="none" stroke="green" stroke-width="0.19" d="M463.73,-209.78C463.73,-203.17 463.73,-193.46 463.73,-184.36"/>
<polygon fill="green" stroke="green" stroke-width="0.19" points="467.24,-184.18 463.73,-174.18 460.24,-184.18 467.24,-184.18"/>
</g>
<!-- &#45;11&#45;&gt;1 -->
<g id="edge48" class="edge">
<title>&#45;11&#45;&gt;1</title>
<path fill="none" stroke="red" stroke-width="0.17" d="M458.14,-209.81C452.5,-201.3 444.03,-187.25 439.73,-173.82 425.06,-127.93 421.56,-71.23 420.82,-39.76"/>
<polygon fill="red" stroke="red" stroke-width="0.17" points="424.32,-39.69 420.66,-29.74 417.32,-39.8 424.32,-39.69"/>
</g>
<!-- &#45;11&#45;&gt;2 -->
<g id="edge49" class="edge">
<title>&#45;11&#45;&gt;2</title>
<path fill="none" stroke="red" stroke-width="0.38" d="M470.41,-209.78C476.99,-201.84 487.31,-189.41 495.98,-178.96"/>
<polygon fill="red" stroke="red" stroke-width="0.38" points="498.8,-181.05 502.49,-171.12 493.41,-176.58 498.8,-181.05"/>
</g>
<!-- &#45;11&#45;&gt;3 -->
<g id="edge50" class="edge">
<title>&#45;11&#45;&gt;3</title>
<path fill="none" stroke="green" stroke-width="0.34" stroke-dasharray="1,5" d="M478.33,-211.52C501.65,-201.46 547.49,-181.67 575.09,-169.75"/>
<polygon fill="green" stroke="green" stroke-width="0.34" points="576.56,-172.93 584.36,-165.75 573.79,-166.5 576.56,-172.93"/>
</g>
<!-- &#45;11&#45;&gt;4 -->
<g id="edge51" class="edge">
<title>&#45;11&#45;&gt;4</title>
<path fill="none" stroke="red" stroke-width="0.88" d="M451.78,-209.78C437.91,-200.45 414.83,-184.93 398.12,-173.69"/>
<polygon fill="red" stroke="red" stroke-width="0.88" points="399.84,-170.63 389.59,-167.95 395.94,-176.44 399.84,-170.63"/>
</g>
<!-- &#45;12 -->
<g id="node12" class="node">
<title>&#45;12</title>
<polygon fill="lightgray" stroke="black" points="525.23,-227.82 496.23,-227.82 496.23,-209.82 525.23,-209.82 525.23,-227.82"/>
<text text-anchor="middle" x="510.73" y="-216.62" font-family="Times New Roman,serif" font-size="9.00">&#45;12</text>
</g>
<!-- &#45;12&#45;&gt;0 -->
<g id="edge52" class="edge">
<title>&#45;12&#45;&gt;0</title>
<path fill="none" stroke="green" stroke-width="0.14" d="M504.2,-209.78C497.75,-201.84 487.65,-189.41 479.16,-178.96"/>
<polygon fill="green" stroke="green" stroke-width="0.14" points="481.81,-176.67 472.79,-171.12 476.38,-181.09 481.81,-176.67"/>
</g>
<!-- &#45;12&#45;&gt;1 -->
<g id="edge53" class="edge">
<title>&#45;12&#45;&gt;1</title>
<path fill="none" stroke="red" stroke-width="1" d="M517.33,-209.57C527.45,-195.87 544.72,-167.6 535.73,-144.12 516.64,-94.22 468.18,-51.49 440.65,-30.23"/>
<polygon fill="red" stroke="red" stroke-width="1" points="442.6,-27.32 432.51,-24.1 438.39,-32.91 442.6,-27.32"/>
</g>
<!-- &#45;12&#45;&gt;2 -->
<g id="edge54" class="edge">
<title>&#45;12&#45;&gt;2</title>
<path fill="none" stroke="red" stroke-width="0.11" d="M510.87,-209.78C510.99,-203.17 511.16,-193.46 511.31,-184.36"/>
<polygon fill="red" stroke="red" stroke-width="0.11" points="514.82,-184.24 511.49,-174.18 507.82,-184.12 514.82,-184.24"/>
</g>
<!-- &#45;12&#45;&gt;3 -->
<g id="edge55" class="edge">
<title>&#45;12&#45;&gt;3</title>
<path fill="none" stroke="red" stroke-width="0.28" d="M522.83,-209.78C536.86,-200.45 560.21,-184.93 577.11,-173.69"/>
<polygon fill="red" stroke="red" stroke-width="0.28" points="579.35,-176.4 585.74,-167.95 575.48,-170.57 579.35,-176.4"/>
</g>
<!-- &#45;12&#45;&gt;4 -->
<g id="edge56" class="edge">
<title>&#45;12&#45;&gt;4</title>
<path fill="none" stroke="red" stroke-width="0.35" d="M495.99,-211.41C472.86,-201.35 427.87,-181.78 400.54,-169.89"/>
<polygon fill="red" stroke="red" stroke-width="0.35" points="401.91,-166.67 391.34,-165.89 399.12,-173.09 401.91,-166.67"/>
</g>
<!-- &#45;13 -->
<g id="node13" class="node">
<title>&#45;13</title>
<polygon fill="lightgray" stroke="black" points="572.23,-227.82 543.23,-227.82 543.23,-209.82 572.23,-209.82 572.23,-227.82"/>
<text text-anchor="middle" x="557.73" y="-216.62" font-family="Times New Roman,serif" font-size="9.00">&#45;13</text>
</g>
<!-- &#45;13&#45;&gt;0 -->
<g id="edge57" class="edge">
<title>&#45;13&#45;&gt;0</title>
<path fill="none" stroke="green" stroke-width="0.26" d="M544.66,-209.78C529.13,-200.22 503,-184.14 484.65,-172.84"/>
<polygon fill="green" stroke="green" stroke-width="0.26" points="486.45,-169.84 476.1,-167.58 482.78,-175.8 486.45,-169.84"/>
</g>
<!-- &#45;13&#45;&gt;1 -->
<g id="edge58" class="edge">
<title>&#45;13&#45;&gt;1</title>
<path fill="none" stroke="green" stroke-width="0.17" d="M572.32,-212.56C587.78,-206.1 611.38,-193.51 621.73,-173.82 627.88,-162.14 627.75,-155.87 621.73,-144.12 585.29,-73.01 489.53,-36.21 444.62,-22.41"/>
<polygon fill="green" stroke="green" stroke-width="0.17" points="445.44,-19 434.86,-19.53 443.46,-25.71 445.44,-19"/>
</g>
<!-- &#45;13&#45;&gt;2 -->
<g id="edge59" class="edge">
<title>&#45;13&#45;&gt;2</title>
<path fill="none" stroke="red" stroke-width="0.24" stroke-dasharray="1,5" d="M551.34,-209.78C545.03,-201.84 535.14,-189.41 526.83,-178.96"/>
<polygon fill="red" stroke="red" stroke-width="0.24" points="529.56,-176.77 520.6,-171.12 524.08,-181.12 529.56,-176.77"/>
</g>
<!-- &#45;13&#45;&gt;3 -->
<g id="edge60" class="edge">
<title>&#45;13&#45;&gt;3</title>
<path fill="none" stroke="red" stroke-width="0.32" d="M563.3,-209.78C568.61,-202.1 576.83,-190.2 583.91,-179.96"/>
<polygon fill="red" stroke="red" stroke-width="0.32" points="586.93,-181.76 589.74,-171.54 581.17,-177.78 586.93,-181.76"/>
</g>
<!-- &#45;13&#45;&gt;4 -->
<g id="edge61" class="edge">
<title>&#45;13&#45;&gt;4</title>
<path fill="none" stroke="red" stroke-width="0.39" stroke-dasharray="1,5" d="M543.02,-212.89C539.95,-211.87 536.74,-210.8 533.73,-209.82 487.07,-194.59 432.4,-177.23 401.74,-167.54"/>
<polygon fill="red" stroke="red" stroke-width="0.39" points="402.54,-164.13 391.95,-164.45 400.43,-170.8 402.54,-164.13"/>
</g>
<!-- &#45;14 -->
<g id="node14" class="node">
<title>&#45;14</title>
<polygon fill="lightgray" stroke="black" points="619.23,-227.82 590.23,-227.82 590.23,-209.82 619.23,-209.82 619.23,-227.82"/>
<text text-anchor="middle" x="604.73" y="-216.62" font-family="Times New Roman,serif" font-size="9.00">&#45;14</text>
</g>
<!-- &#45;14&#45;&gt;0 -->
<g id="edge62" class="edge">
<title>&#45;14&#45;&gt;0</title>
<path fill="none" stroke="green" stroke-width="0.38" d="M589.99,-212.62C562.97,-203.02 506.57,-182.73 487.73,-173.82 486.9,-173.43 486.05,-173.01 485.2,-172.58"/>
<polygon fill="green" stroke="green" stroke-width="0.38" points="486.69,-169.41 476.23,-167.7 483.34,-175.56 486.69,-169.41"/>
</g>
<!-- &#45;14&#45;&gt;1 -->
<g id="edge63" class="edge">
<title>&#45;14&#45;&gt;1</title>
<path fill="none" stroke="green" stroke-width="0.23" d="M613.7,-209.76C622.01,-201.64 633.81,-188.26 638.73,-173.82 643,-161.33 642.65,-156.73 638.73,-144.12 626.17,-103.71 618.89,-90.68 584.73,-65.7 542.25,-34.63 480.19,-22.7 445.88,-18.29"/>
<polygon fill="green" stroke="green" stroke-width="0.23" points="446.12,-14.79 435.78,-17.11 445.31,-21.74 446.12,-14.79"/>
</g>
<!-- &#45;14&#45;&gt;2 -->
<g id="edge64" class="edge">
<title>&#45;14&#45;&gt;2</title>
<path fill="none" stroke="red" stroke-width="0.28" d="M591.8,-209.78C576.5,-200.26 550.82,-184.29 532.67,-173"/>
<polygon fill="red" stroke="red" stroke-width="0.28" points="534.3,-169.89 523.96,-167.58 530.61,-175.84 534.3,-169.89"/>
</g>
<!-- &#45;14&#45;&gt;3 -->
<g id="edge65" class="edge">
<title>&#45;14&#45;&gt;3</title>
<path fill="none" stroke="red" stroke-width="0.1" d="M603.76,-209.78C602.96,-203.17 601.79,-193.46 600.69,-184.36"/>
<polygon fill="red" stroke="red" stroke-width="0.1" points="604.13,-183.69 599.45,-174.18 597.18,-184.53 604.13,-183.69"/>
</g>
<!-- &#45;14&#45;&gt;4 -->
<g id="edge66" class="edge">
<title>&#45;14&#45;&gt;4</title>
<path fill="none" stroke="green" stroke-width="0.36" d="M590.07,-212.73C587,-211.72 583.77,-210.7 580.73,-209.82 516.95,-191.39 440.66,-173.85 402.31,-165.33"/>
<polygon fill="green" stroke="green" stroke-width="0.36" points="402.63,-161.82 392.12,-163.08 401.13,-168.66 402.63,-161.82"/>
</g>
<!-- &#45;15 -->
<g id="node15" class="node">
<title>&#45;15</title>
<polygon fill="lightgray" stroke="black" points="666.23,-227.82 637.23,-227.82 637.23,-209.82 666.23,-209.82 666.23,-227.82"/>
<text text-anchor="middle" x="651.73" y="-216.62" font-family="Times New Roman,serif" font-size="9.00">&#45;15</text>
</g>
<!-- &#45;15&#45;&gt;0 -->
<g id="edge67" class="edge">
<title>&#45;15&#45;&gt;0</title>
<path fill="none" stroke="red" stroke-width="0.18" d="M637.06,-212.75C633.99,-211.74 630.77,-210.72 627.73,-209.82 566.11,-191.65 547.22,-198.1 487.73,-173.82 486.88,-173.47 486.01,-173.1 485.15,-172.7"/>
<polygon fill="red" stroke="red" stroke-width="0.18" points="486.6,-169.51 476.11,-167.97 483.35,-175.71 486.6,-169.51"/>
</g>
<!-- &#45;15&#45;&gt;1 -->
<g id="edge68" class="edge">
<title>&#45;15&#45;&gt;1</title>
<path fill="none" stroke="red" stroke-width="0.19" d="M652.45,-209.72C653.2,-200.9 654.31,-186.37 654.73,-173.82 656.46,-123.2 657.68,-98.08 618.73,-65.7 568.17,-23.66 486.93,-16.37 446.01,-15.54"/>
<polygon fill="red" stroke="red" stroke-width="0.19" points="445.86,-12.04 435.83,-15.46 445.8,-19.04 445.86,-12.04"/>
</g>
<!-- &#45;15&#45;&gt;2 -->
<g id="edge69" class="edge">
<title>&#45;15&#45;&gt;2</title>
<path fill="none" stroke="green" stroke-width="0.36" d="M637.02,-211.74C612.65,-201.67 563.75,-181.47 534.77,-169.49"/>
<polygon fill="green" stroke="green" stroke-width="0.36" points="536.01,-166.22 525.43,-165.63 533.33,-172.69 536.01,-166.22"/>
</g>
<!-- &#45;15&#45;&gt;3 -->
<g id="edge70" class="edge">
<title>&#45;15&#45;&gt;3</title>
<path fill="none" stroke="green" stroke-width="0.22" d="M644.23,-209.78C636.56,-201.57 624.4,-188.54 614.44,-177.87"/>
<polygon fill="green" stroke="green" stroke-width="0.22" points="616.75,-175.21 607.37,-170.29 611.63,-179.99 616.75,-175.21"/>
</g>
<!-- &#45;15&#45;&gt;4 -->
<g id="edge71" class="edge">
<title>&#45;15&#45;&gt;4</title>
<path fill="none" stroke="red" stroke-width="0.16" d="M637.1,-212.6C634.03,-211.6 630.79,-210.62 627.73,-209.82 545.42,-188.32 523.04,-191.1 439.73,-173.82 427.3,-171.24 413.5,-168.18 402.08,-165.59"/>
<polygon fill="red" stroke="red" stroke-width="0.16" points="402.52,-162.1 391.99,-163.29 400.96,-168.93 402.52,-162.1"/>
</g>
<!-- &#45;16 -->
<g id="node16" class="node">
<title>&#45;16</title>
<polygon fill="lightgray" stroke="black" points="713.23,-227.82 684.23,-227.82 684.23,-209.82 713.23,-209.82 713.23,-227.82"/>
<text text-anchor="middle" x="698.73" y="-216.62" font-family="Times New Roman,serif" font-size="9.00">&#45;16</text>
</g>
<!-- &#45;16&#45;&gt;0 -->
<g id="edge72" class="edge">
<title>&#45;16&#45;&gt;0</title>
<path fill="none" stroke="red" stroke-width="1.72" d="M684.1,-212.61C681.03,-211.61 677.79,-210.62 674.73,-209.82 592.86,-188.39 567.04,-203.38 487.73,-173.82 486.87,-173.5 485.99,-173.15 485.12,-172.77"/>
<polygon fill="red" stroke="red" stroke-width="1.72" points="486.55,-169.57 476.05,-168.13 483.36,-175.8 486.55,-169.57"/>
</g>
<!-- &#45;16&#45;&gt;1 -->
<g id="edge73" class="edge">
<title>&#45;16&#45;&gt;1</title>
<path fill="none" stroke="red" stroke-width="0.55" d="M698.7,-209.75C698.12,-184.34 692.69,-105.37 648.73,-65.7 618.9,-38.77 498.38,-23.64 445.65,-18.2"/>
<polygon fill="red" stroke="red" stroke-width="0.55" points="445.78,-14.69 435.48,-17.18 445.08,-21.66 445.78,-14.69"/>
</g>
<!-- &#45;16&#45;&gt;2 -->
<g id="edge74" class="edge">
<title>&#45;16&#45;&gt;2</title>
<path fill="none" stroke="green" stroke-width="0.31" d="M684.03,-212.86C680.96,-211.84 677.75,-210.79 674.73,-209.82 625.35,-194.04 567.22,-176.52 535.44,-167.02"/>
<polygon fill="green" stroke="green" stroke-width="0.31" points="536.31,-163.63 525.73,-164.12 534.31,-170.34 536.31,-163.63"/>
</g>
<!-- &#45;16&#45;&gt;3 -->
<g id="edge75" class="edge">
<title>&#45;16&#45;&gt;3</title>
<path fill="none" stroke="green" stroke-width="0.73" stroke-dasharray="1,5" d="M684.69,-209.78C667.74,-200.07 639.04,-183.63 619.28,-172.31"/>
<polygon fill="green" stroke="green" stroke-width="0.73" points="620.8,-169.15 610.39,-167.22 617.32,-175.23 620.8,-169.15"/>
</g>
<!-- &#45;16&#45;&gt;4 -->
<g id="edge76" class="edge">
<title>&#45;16&#45;&gt;4</title>
<path fill="none" stroke="green" stroke-width="0.21" d="M684.13,-212.52C681.05,-211.52 677.81,-210.57 674.73,-209.82 572.02,-185.03 543.58,-193.35 439.73,-173.82 427.25,-171.48 413.45,-168.44 402.04,-165.8"/>
<polygon fill="green" stroke="green" stroke-width="0.21" points="402.5,-162.32 391.96,-163.44 400.9,-169.13 402.5,-162.32"/>
</g>
<!-- &#45;17 -->
<g id="node17" class="node">
<title>&#45;17</title>
<polygon fill="lightgray" stroke="black" points="807.23,-227.82 778.23,-227.82 778.23,-209.82 807.23,-209.82 807.23,-227.82"/>
<text text-anchor="middle" x="792.73" y="-216.62" font-family="Times New Roman,serif" font-size="9.00">&#45;17</text>
</g>
<!-- &#45;17&#45;&gt;0 -->
<g id="edge77" class="edge">
<title>&#45;17&#45;&gt;0</title>
<path fill="none" stroke="green" stroke-width="0.25" d="M778.14,-212.46C775.06,-211.47 771.82,-210.53 768.73,-209.82 645.99,-181.78 607.04,-214.07 487.73,-173.82 486.86,-173.53 485.98,-173.2 485.1,-172.84"/>
<polygon fill="green" stroke="green" stroke-width="0.25" points="486.5,-169.63 475.99,-168.29 483.37,-175.89 486.5,-169.63"/>
</g>
<!-- &#45;17&#45;&gt;1 -->
<g id="edge78" class="edge">
<title>&#45;17&#45;&gt;1</title>
<path fill="none" stroke="green" stroke-width="0.41" d="M790.91,-209.55C784.7,-183.54 761.85,-102.99 709.73,-65.7 667.35,-35.37 507.96,-21.67 445.79,-17.4"/>
<polygon fill="green" stroke="green" stroke-width="0.41" points="445.89,-13.9 435.69,-16.73 445.43,-20.88 445.89,-13.9"/>
</g>
<!-- &#45;17&#45;&gt;3 -->
<g id="edge79" class="edge">
<title>&#45;17&#45;&gt;3</title>
<path fill="none" stroke="green" stroke-width="0.25" d="M778.04,-212.83C774.97,-211.81 771.75,-210.77 768.73,-209.82 716.53,-193.52 654.84,-175.95 621.69,-166.65"/>
<polygon fill="green" stroke="green" stroke-width="0.25" points="622.55,-163.25 611.98,-163.93 620.66,-169.99 622.55,-163.25"/>
</g>
<!-- &#45;17&#45;&gt;4 -->
<g id="edge80" class="edge">
<title>&#45;17&#45;&gt;4</title>
<path fill="none" stroke="green" stroke-width="0.88" d="M778.15,-212.41C775.07,-211.43 771.82,-210.5 768.73,-209.82 625.04,-178.39 584.85,-197.89 439.73,-173.82 427.2,-171.74 413.4,-168.73 402,-166.05"/>
<polygon fill="green" stroke="green" stroke-width="0.88" points="402.47,-162.56 391.93,-163.62 400.83,-169.37 402.47,-162.56"/>
</g>
<!-- &#45;18 -->
<g id="node18" class="node">
<title>&#45;18</title>
<polygon fill="lightgray" stroke="black" points="939.23,-227.82 910.23,-227.82 910.23,-209.82 939.23,-209.82 939.23,-227.82"/>
<text text-anchor="middle" x="924.73" y="-216.62" font-family="Times New Roman,serif" font-size="9.00">&#45;18</text>
</g>
<!-- &#45;18&#45;&gt;0 -->
<g id="edge81" class="edge">
<title>&#45;18&#45;&gt;0</title>
<path fill="none" stroke="red" stroke-width="0.14" d="M910.16,-212.36C907.08,-211.38 903.83,-210.47 900.73,-209.82 720.32,-172.43 663.47,-229.18 487.73,-173.82 486.68,-173.49 485.62,-173.11 484.57,-172.68"/>
<polygon fill="red" stroke="red" stroke-width="0.14" points="485.97,-169.47 475.47,-168.11 482.83,-175.73 485.97,-169.47"/>
</g>
<!-- &#45;18&#45;&gt;1 -->
<g id="edge82" class="edge">
<title>&#45;18&#45;&gt;1</title>
<path fill="none" stroke="red" stroke-width="1.04" d="M921.67,-209.76C911.29,-183.68 874.72,-101.28 814.73,-65.7 751.85,-28.41 522.77,-18.69 446,-16.45"/>
<polygon fill="red" stroke="red" stroke-width="1.04" points="445.91,-12.95 435.82,-16.18 445.72,-19.95 445.91,-12.95"/>
</g>
<!-- &#45;18&#45;&gt;2 -->
<g id="edge83" class="edge">
<title>&#45;18&#45;&gt;2</title>
<path fill="none" stroke="red" stroke-width="0.14" d="M910.15,-212.41C907.07,-211.43 903.82,-210.5 900.73,-209.82 757.91,-178.53 717.97,-197.8 573.73,-173.82 561.2,-171.74 547.4,-168.73 536,-166.04"/>
<polygon fill="red" stroke="red" stroke-width="0.14" points="536.47,-162.56 525.93,-163.61 534.83,-169.36 536.47,-162.56"/>
</g>
<!-- &#45;18&#45;&gt;3 -->
<g id="edge84" class="edge">
<title>&#45;18&#45;&gt;3</title>
<path fill="none" stroke="green" stroke-width="0.2" d="M910.12,-212.54C907.05,-211.55 903.8,-210.58 900.73,-209.82 798.79,-184.62 674.33,-168.69 622.36,-162.68"/>
<polygon fill="green" stroke="green" stroke-width="0.2" points="622.74,-159.2 612.41,-161.55 621.95,-166.16 622.74,-159.2"/>
</g>
<!-- &#45;19 -->
<g id="node19" class="node">
<title>&#45;19</title>
<polygon fill="lightgray" stroke="black" points="173.23,-227.82 144.23,-227.82 144.23,-209.82 173.23,-209.82 173.23,-227.82"/>
<text text-anchor="middle" x="158.73" y="-216.62" font-family="Times New Roman,serif" font-size="9.00">&#45;19</text>
</g>
<!-- &#45;19&#45;&gt;0 -->
<g id="edge85" class="edge">
<title>&#45;19&#45;&gt;0</title>
<path fill="none" stroke="red" stroke-width="0.1" d="M173.35,-212.54C176.42,-211.55 179.67,-210.58 182.73,-209.82 278.49,-186.15 304.9,-192.58 401.73,-173.82 414.21,-171.41 428.01,-168.36 439.42,-165.74"/>
<polygon fill="red" stroke="red" stroke-width="0.1" points="440.55,-169.07 449.5,-163.4 438.97,-162.25 440.55,-169.07"/>
</g>
<!-- &#45;19&#45;&gt;1 -->
<g id="edge86" class="edge">
<title>&#45;19&#45;&gt;1</title>
<path fill="none" stroke="green" stroke-width="0.41" d="M160.21,-209.75C165.28,-184.37 184.43,-105.45 232.73,-65.7 280.53,-26.36 356.29,-17.8 395.45,-16.11"/>
<polygon fill="green" stroke="green" stroke-width="0.41" points="395.8,-19.6 405.69,-15.79 395.58,-12.6 395.8,-19.6"/>
</g>
<!-- &#45;19&#45;&gt;2 -->
<g id="edge87" class="edge">
<title>&#45;19&#45;&gt;2</title>
<path fill="none" stroke="red" stroke-width="0.44" d="M173.32,-212.43C176.4,-211.45 179.65,-210.51 182.73,-209.82 315.95,-180.09 358.19,-216.82 487.73,-173.82 488.61,-173.53 489.5,-173.21 490.38,-172.85"/>
<polygon fill="red" stroke="red" stroke-width="0.44" points="492.09,-175.91 499.48,-168.32 488.97,-169.64 492.09,-175.91"/>
</g>
<!-- &#45;19&#45;&gt;3 -->
<g id="edge88" class="edge">
<title>&#45;19&#45;&gt;3</title>
<path fill="none" stroke="green" stroke-width="0.82" d="M173.32,-212.4C176.39,-211.41 179.64,-210.49 182.73,-209.82 336.92,-176.69 380.06,-199.06 535.73,-173.82 548.28,-171.79 562.08,-168.78 573.48,-166.09"/>
<polygon fill="green" stroke="green" stroke-width="0.82" points="574.65,-169.41 583.54,-163.65 573,-162.6 574.65,-169.41"/>
</g>
<!-- &#45;19&#45;&gt;4 -->
<g id="edge89" class="edge">
<title>&#45;19&#45;&gt;4</title>
<path fill="none" stroke="green" stroke-width="0.49" d="M173.41,-212.75C176.48,-211.74 179.7,-210.72 182.73,-209.82 243.76,-191.88 316.59,-174.25 353.59,-165.56"/>
<polygon fill="green" stroke="green" stroke-width="0.49" points="354.51,-168.94 363.45,-163.26 352.91,-162.12 354.51,-168.94"/>
</g>
<!-- &#45;19&#45;&gt;323 -->
<g id="edge95" class="edge">
<title>&#45;19&#45;&gt;323</title>
<path fill="none" stroke="red" stroke-width="0.21" d="M144.01,-211.24C129.25,-203.97 106.76,-191 92.73,-173.82 79.36,-157.45 70.5,-135.29 65.04,-117.57"/>
<polygon fill="red" stroke="red" stroke-width="0.21" points="68.34,-116.37 62.21,-107.73 61.61,-118.31 68.34,-116.37"/>
</g>
<!-- &#45;20 -->
<g id="node20" class="node">
<title>&#45;20</title>
<polygon fill="lightgray" stroke="black" points="760.23,-227.82 731.23,-227.82 731.23,-209.82 760.23,-209.82 760.23,-227.82"/>
<text text-anchor="middle" x="745.73" y="-216.62" font-family="Times New Roman,serif" font-size="9.00">&#45;20</text>
</g>
<!-- &#45;20&#45;&gt;0 -->
<g id="edge90" class="edge">
<title>&#45;20&#45;&gt;0</title>
<path fill="none" stroke="red" stroke-width="0.26" d="M731.13,-212.52C728.05,-211.52 724.81,-210.57 721.73,-209.82 619.46,-185.1 587,-208.72 487.73,-173.82 486.86,-173.52 485.98,-173.18 485.11,-172.81"/>
<polygon fill="red" stroke="red" stroke-width="0.26" points="486.52,-169.61 476.02,-168.23 483.37,-175.86 486.52,-169.61"/>
</g>
<!-- &#45;20&#45;&gt;1 -->
<g id="edge91" class="edge">
<title>&#45;20&#45;&gt;1</title>
<path fill="none" stroke="red" stroke-width="0.3" d="M744.71,-209.63C741.02,-183.88 725.99,-104.01 677.73,-65.7 641.79,-37.16 502.58,-22.62 445.43,-17.76"/>
<polygon fill="red" stroke="red" stroke-width="0.3" points="445.71,-14.27 435.46,-16.94 445.13,-21.25 445.71,-14.27"/>
</g>
<!-- &#45;20&#45;&gt;2 -->
<g id="edge92" class="edge">
<title>&#45;20&#45;&gt;2</title>
<path fill="none" stroke="green" stroke-width="0.16" d="M731.08,-212.71C728.01,-211.7 724.78,-210.69 721.73,-209.82 686.71,-199.85 583.82,-176.29 536.3,-165.52"/>
<polygon fill="green" stroke="green" stroke-width="0.16" points="536.79,-162.04 526.27,-163.25 535.25,-168.87 536.79,-162.04"/>
</g>
<!-- &#45;20&#45;&gt;3 -->
<g id="edge93" class="edge">
<title>&#45;20&#45;&gt;3</title>
<path fill="none" stroke="green" stroke-width="0.55" d="M731,-212.07C705.25,-202 651.87,-181.13 621.06,-169.09"/>
<polygon fill="green" stroke="green" stroke-width="0.55" points="622.13,-165.75 611.54,-165.37 619.58,-172.27 622.13,-165.75"/>
</g>
<!-- &#45;20&#45;&gt;4 -->
<g id="edge94" class="edge">
<title>&#45;20&#45;&gt;4</title>
<path fill="none" stroke="red" stroke-width="0.19" d="M731.14,-212.46C728.07,-211.47 724.82,-210.53 721.73,-209.82 598.55,-181.71 564.19,-195.62 439.73,-173.82 427.22,-171.63 413.42,-168.61 402.02,-165.95"/>
<polygon fill="red" stroke="red" stroke-width="0.19" points="402.48,-162.46 391.94,-163.54 400.86,-169.27 402.48,-162.46"/>
</g>
<!-- 2&#45;&gt;323 -->
<g id="edge98" class="edge">
<title>2&#45;&gt;323</title>
<path fill="none" stroke="green" stroke-width="0.32" d="M499.47,-149.66C495.83,-147.54 491.74,-145.48 487.73,-144.12 344.63,-95.64 161.62,-88.63 89.23,-87.86"/>
<polygon fill="green" stroke="green" stroke-width="0.32" points="89,-84.36 78.98,-87.79 88.95,-91.36 89,-84.36"/>
</g>
<!-- 323&#45;&gt;1 -->
<g id="edge96" class="edge">
<title>323&#45;&gt;1</title>
<path fill="none" stroke="green" stroke-width="0.34" d="M74.92,-74.28C80.41,-71.05 86.64,-67.83 92.73,-65.7 201.27,-27.64 340.05,-18.62 395.86,-16.5"/>
<polygon fill="green" stroke="green" stroke-width="0.34" points="396,-20 405.88,-16.16 395.77,-13 396,-20"/>
</g>
</g>
</svg>
