<?xml version="1.0" encoding="UTF-8" standalone="no"?>
<!DOCTYPE svg PUBLIC "-//W3C//DTD SVG 1.1//EN"
 "http://www.w3.org/Graphics/SVG/1.1/DTD/svg11.dtd">
<!-- Generated by graphviz version 2.49.0 (20210828.1703)
 -->
<!-- Pages: 1 -->
<svg width="889pt" height="92pt"
 viewBox="0.00 0.00 889.00 91.70" xmlns="http://www.w3.org/2000/svg" xmlns:xlink="http://www.w3.org/1999/xlink">
<g id="graph0" class="graph" transform="scale(1 1) rotate(0) translate(4 87.7)">
<polygon fill="white" stroke="transparent" points="-4,4 -4,-87.7 885,-87.7 885,4 -4,4"/>
<!-- &#45;1 -->
<g id="node1" class="node">
<title>&#45;1</title>
<polygon fill="lightgray" stroke="black" points="118.5,-83.7 94.5,-83.7 94.5,-65.7 118.5,-65.7 118.5,-83.7"/>
<text text-anchor="middle" x="106.5" y="-72.5" font-family="Times New Roman,serif" font-size="9.00">&#45;1</text>
</g>
<!-- 0 -->
<g id="node21" class="node">
<title>0</title>
<ellipse fill="lightblue" stroke="black" cx="417.5" cy="-14.85" rx="14.7" ry="14.7"/>
<text text-anchor="middle" x="417.5" y="-12.65" font-family="Times New Roman,serif" font-size="9.00">0</text>
</g>
<!-- &#45;1&#45;&gt;0 -->
<g id="edge1" class="edge">
<title>&#45;1&#45;&gt;0</title>
<path fill="none" stroke="red" stroke-width="0.2" d="M118.78,-68.48C121.61,-67.43 124.63,-66.43 127.5,-65.7 243.11,-36.27 280.6,-68.24 393.5,-29.7 394.38,-29.4 395.26,-29.07 396.14,-28.71"/>
<polygon fill="red" stroke="red" stroke-width="0.2" points="397.86,-31.76 405.23,-24.15 394.73,-25.5 397.86,-31.76"/>
</g>
<!-- 1 -->
<g id="node22" class="node">
<title>1</title>
<ellipse fill="lightblue" stroke="black" cx="369.5" cy="-14.85" rx="14.7" ry="14.7"/>
<text text-anchor="middle" x="369.5" y="-12.65" font-family="Times New Roman,serif" font-size="9.00">1</text>
</g>
<!-- &#45;1&#45;&gt;1 -->
<g id="edge2" class="edge">
<title>&#45;1&#45;&gt;1</title>
<path fill="none" stroke="red" stroke-width="0.99" d="M118.82,-68.63C121.65,-67.57 124.65,-66.53 127.5,-65.7 205.52,-42.96 300.59,-26.58 344.75,-19.6"/>
<polygon fill="red" stroke="red" stroke-width="0.99" points="345.5,-23.02 354.84,-18.02 344.42,-16.1 345.5,-23.02"/>
</g>
<!-- 3 -->
<g id="node24" class="node">
<title>3</title>
<ellipse fill="lightblue" stroke="black" cx="561.5" cy="-14.85" rx="14.7" ry="14.7"/>
<text text-anchor="middle" x="561.5" y="-12.65" font-family="Times New Roman,serif" font-size="9.00">3</text>
</g>
<!-- &#45;1&#45;&gt;3 -->
<g id="edge3" class="edge">
<title>&#45;1&#45;&gt;3</title>
<path fill="none" stroke="red" stroke-width="0.34" d="M118.76,-68.38C121.59,-67.34 124.61,-66.36 127.5,-65.7 305.78,-24.75 363.05,-84.71 537.5,-29.7 538.56,-29.37 539.61,-28.98 540.67,-28.56"/>
<polygon fill="red" stroke="red" stroke-width="0.34" points="542.41,-31.6 549.77,-23.98 539.26,-25.35 542.41,-31.6"/>
</g>
<!-- 4 -->
<g id="node25" class="node">
<title>4</title>
<ellipse fill="lightblue" stroke="black" cx="465.5" cy="-14.85" rx="14.7" ry="14.7"/>
<text text-anchor="middle" x="465.5" y="-12.65" font-family="Times New Roman,serif" font-size="9.00">4</text>
</g>
<!-- &#45;1&#45;&gt;4 -->
<g id="edge4" class="edge">
<title>&#45;1&#45;&gt;4</title>
<path fill="none" stroke="red" stroke-width="0.44" d="M118.77,-68.44C121.6,-67.39 124.62,-66.4 127.5,-65.7 263.97,-32.44 308.11,-73.72 441.5,-29.7 442.38,-29.41 443.26,-29.08 444.14,-28.73"/>
<polygon fill="red" stroke="red" stroke-width="0.44" points="445.86,-31.79 453.25,-24.2 442.74,-25.52 445.86,-31.79"/>
</g>
<!-- &#45;2 -->
<g id="node2" class="node">
<title>&#45;2</title>
<polygon fill="lightgray" stroke="black" points="396.5,-83.7 372.5,-83.7 372.5,-65.7 396.5,-65.7 396.5,-83.7"/>
<text text-anchor="middle" x="384.5" y="-72.5" font-family="Times New Roman,serif" font-size="9.00">&#45;2</text>
</g>
<!-- &#45;2&#45;&gt;0 -->
<g id="edge5" class="edge">
<title>&#45;2&#45;&gt;0</title>
<path fill="none" stroke="red" stroke-width="0.67" d="M389.09,-65.65C393.28,-58.31 399.65,-47.13 405.31,-37.22"/>
<polygon fill="red" stroke="red" stroke-width="0.67" points="408.5,-38.7 410.41,-28.28 402.42,-35.23 408.5,-38.7"/>
</g>
<!-- &#45;2&#45;&gt;1 -->
<g id="edge6" class="edge">
<title>&#45;2&#45;&gt;1</title>
<path fill="none" stroke="red" stroke-width="0.16" d="M382.41,-65.65C380.66,-58.89 378.06,-48.86 375.65,-39.57"/>
<polygon fill="red" stroke="red" stroke-width="0.16" points="378.96,-38.41 373.07,-29.6 372.19,-40.16 378.96,-38.41"/>
</g>
<!-- 2 -->
<g id="node23" class="node">
<title>2</title>
<ellipse fill="lightblue" stroke="black" cx="513.5" cy="-14.85" rx="14.7" ry="14.7"/>
<text text-anchor="middle" x="513.5" y="-12.65" font-family="Times New Roman,serif" font-size="9.00">2</text>
</g>
<!-- &#45;2&#45;&gt;2 -->
<g id="edge7" class="edge">
<title>&#45;2&#45;&gt;2</title>
<path fill="none" stroke="green" stroke-width="0.43" d="M396.69,-69.17C416.49,-61.68 456.74,-45.93 489.5,-29.7 490.33,-29.29 491.17,-28.86 492.02,-28.42"/>
<polygon fill="green" stroke="green" stroke-width="0.43" points="493.89,-31.38 500.96,-23.49 490.51,-25.25 493.89,-31.38"/>
</g>
<!-- &#45;2&#45;&gt;3 -->
<g id="edge8" class="edge">
<title>&#45;2&#45;&gt;3</title>
<path fill="none" stroke="green" stroke-width="0.23" d="M396.54,-69.12C399.76,-67.95 403.25,-66.73 406.5,-65.7 464.03,-47.37 481.79,-52.98 537.5,-29.7 538.35,-29.34 539.22,-28.96 540.08,-28.56"/>
<polygon fill="green" stroke="green" stroke-width="0.23" points="541.89,-31.56 549.1,-23.81 538.63,-25.37 541.89,-31.56"/>
</g>
<!-- &#45;2&#45;&gt;4 -->
<g id="edge9" class="edge">
<title>&#45;2&#45;&gt;4</title>
<path fill="none" stroke="red" stroke-width="0.35" d="M395.76,-65.65C408.55,-56.52 429.68,-41.43 445.33,-30.26"/>
<polygon fill="red" stroke="red" stroke-width="0.35" points="447.7,-32.86 453.81,-24.2 443.64,-27.16 447.7,-32.86"/>
</g>
<!-- &#45;3 -->
<g id="node3" class="node">
<title>&#45;3</title>
<polygon fill="lightgray" stroke="black" points="833.5,-83.7 809.5,-83.7 809.5,-65.7 833.5,-65.7 833.5,-83.7"/>
<text text-anchor="middle" x="821.5" y="-72.5" font-family="Times New Roman,serif" font-size="9.00">&#45;3</text>
</g>
<!-- &#45;3&#45;&gt;1 -->
<g id="edge10" class="edge">
<title>&#45;3&#45;&gt;1</title>
<path fill="none" stroke="red" stroke-width="0.47" d="M809.24,-68.38C806.41,-67.34 803.39,-66.36 800.5,-65.7 623.53,-24.99 566.67,-84.37 393.5,-29.7 392.44,-29.37 391.39,-28.98 390.33,-28.56"/>
<polygon fill="red" stroke="red" stroke-width="0.47" points="391.74,-25.35 381.23,-23.98 388.59,-31.6 391.74,-25.35"/>
</g>
<!-- &#45;3&#45;&gt;2 -->
<g id="edge11" class="edge">
<title>&#45;3&#45;&gt;2</title>
<path fill="none" stroke="red" stroke-width="0.12" d="M809.21,-68.48C806.39,-67.44 803.37,-66.43 800.5,-65.7 686.19,-36.51 649.12,-67.9 537.5,-29.7 536.62,-29.4 535.74,-29.07 534.87,-28.71"/>
<polygon fill="red" stroke="red" stroke-width="0.12" points="536.27,-25.5 525.77,-24.14 533.14,-31.75 536.27,-25.5"/>
</g>
<!-- &#45;3&#45;&gt;3 -->
<g id="edge12" class="edge">
<title>&#45;3&#45;&gt;3</title>
<path fill="none" stroke="green" stroke-width="0.13" d="M809.17,-68.63C806.35,-67.58 803.35,-66.53 800.5,-65.7 723.62,-43.19 630,-26.75 586.26,-19.68"/>
<polygon fill="green" stroke="green" stroke-width="0.13" points="586.67,-16.2 576.25,-18.09 585.57,-23.12 586.67,-16.2"/>
</g>
<!-- &#45;3&#45;&gt;4 -->
<g id="edge13" class="edge">
<title>&#45;3&#45;&gt;4</title>
<path fill="none" stroke="green" stroke-width="0.6" d="M809.23,-68.44C806.4,-67.39 803.38,-66.4 800.5,-65.7 665.33,-32.68 621.61,-73.38 489.5,-29.7 488.62,-29.41 487.74,-29.08 486.86,-28.73"/>
<polygon fill="green" stroke="green" stroke-width="0.6" points="488.26,-25.52 477.75,-24.2 485.14,-31.79 488.26,-25.52"/>
</g>
<!-- &#45;4 -->
<g id="node4" class="node">
<title>&#45;4</title>
<polygon fill="lightgray" stroke="black" points="486.5,-83.7 462.5,-83.7 462.5,-65.7 486.5,-65.7 486.5,-83.7"/>
<text text-anchor="middle" x="474.5" y="-72.5" font-family="Times New Roman,serif" font-size="9.00">&#45;4</text>
</g>
<!-- &#45;4&#45;&gt;0 -->
<g id="edge14" class="edge">
<title>&#45;4&#45;&gt;0</title>
<path fill="none" stroke="green" stroke-width="0.6" d="M466.57,-65.65C458.4,-57.36 445.4,-44.16 434.83,-33.44"/>
<polygon fill="green" stroke="green" stroke-width="0.6" points="437.18,-30.83 427.67,-26.17 432.19,-35.75 437.18,-30.83"/>
</g>
<!-- &#45;4&#45;&gt;1 -->
<g id="edge15" class="edge">
<title>&#45;4&#45;&gt;1</title>
<path fill="none" stroke="red" stroke-width="0.68" d="M462.37,-67.24C446.48,-58.74 417.8,-43.3 393.5,-29.7 392.69,-29.25 391.87,-28.78 391.04,-28.31"/>
<polygon fill="red" stroke="red" stroke-width="0.68" points="392.59,-25.17 382.17,-23.24 389.11,-31.24 392.59,-25.17"/>
</g>
<!-- &#45;4&#45;&gt;2 -->
<g id="edge16" class="edge">
<title>&#45;4&#45;&gt;2</title>
<path fill="none" stroke="green" stroke-width="0.57" d="M479.92,-65.65C485.04,-58.07 492.92,-46.37 499.76,-36.22"/>
<polygon fill="green" stroke="green" stroke-width="0.57" points="502.73,-38.09 505.41,-27.84 496.92,-34.18 502.73,-38.09"/>
</g>
<!-- &#45;4&#45;&gt;3 -->
<g id="edge17" class="edge">
<title>&#45;4&#45;&gt;3</title>
<path fill="none" stroke="green" stroke-width="0.41" d="M486.6,-65.65C500.62,-56.33 523.97,-40.8 540.88,-29.56"/>
<polygon fill="green" stroke="green" stroke-width="0.41" points="543.12,-32.28 549.51,-23.82 539.24,-26.45 543.12,-32.28"/>
</g>
<!-- &#45;4&#45;&gt;4 -->
<g id="edge18" class="edge">
<title>&#45;4&#45;&gt;4</title>
<path fill="none" stroke="green" stroke-width="0.75" d="M473.25,-65.65C472.2,-58.89 470.64,-48.86 469.19,-39.57"/>
<polygon fill="green" stroke="green" stroke-width="0.75" points="472.64,-38.95 467.64,-29.6 465.72,-40.02 472.64,-38.95"/>
</g>
<!-- &#45;5 -->
<g id="node5" class="node">
<title>&#45;5</title>
<polygon fill="lightgray" stroke="black" points="528.5,-83.7 504.5,-83.7 504.5,-65.7 528.5,-65.7 528.5,-83.7"/>
<text text-anchor="middle" x="516.5" y="-72.5" font-family="Times New Roman,serif" font-size="9.00">&#45;5</text>
</g>
<!-- &#45;5&#45;&gt;0 -->
<g id="edge19" class="edge">
<title>&#45;5&#45;&gt;0</title>
<path fill="none" stroke="red" stroke-width="0.28" d="M504.36,-66.61C488.05,-57.07 458.79,-39.98 438.78,-28.28"/>
<polygon fill="red" stroke="red" stroke-width="0.28" points="440.45,-25.21 430.05,-23.18 436.92,-31.25 440.45,-25.21"/>
</g>
<!-- &#45;5&#45;&gt;1 -->
<g id="edge20" class="edge">
<title>&#45;5&#45;&gt;1</title>
<path fill="none" stroke="red" stroke-width="0.69" d="M504.08,-68.91C501.27,-67.84 498.28,-66.72 495.5,-65.7 450.37,-49.14 437.17,-49.8 393.5,-29.7 392.66,-29.31 391.81,-28.9 390.95,-28.48"/>
<polygon fill="red" stroke="red" stroke-width="0.69" points="392.43,-25.3 381.97,-23.63 389.11,-31.46 392.43,-25.3"/>
</g>
<!-- &#45;5&#45;&gt;2 -->
<g id="edge21" class="edge">
<title>&#45;5&#45;&gt;2</title>
<path fill="none" stroke="green" stroke-width="0.17" d="M516.08,-65.65C515.74,-59.05 515.24,-49.33 514.76,-40.23"/>
<polygon fill="green" stroke="green" stroke-width="0.17" points="518.25,-39.86 514.24,-30.06 511.26,-40.22 518.25,-39.86"/>
</g>
<!-- &#45;5&#45;&gt;3 -->
<g id="edge22" class="edge">
<title>&#45;5&#45;&gt;3</title>
<path fill="none" stroke="green" stroke-width="0.24" d="M522.76,-65.65C528.87,-57.8 538.41,-45.53 546.49,-35.14"/>
<polygon fill="green" stroke="green" stroke-width="0.24" points="549.45,-37.04 552.83,-26.99 543.93,-32.74 549.45,-37.04"/>
</g>
<!-- &#45;5&#45;&gt;4 -->
<g id="edge23" class="edge">
<title>&#45;5&#45;&gt;4</title>
<path fill="none" stroke="red" stroke-width="0.88" d="M509.41,-65.65C502.25,-57.54 490.96,-44.73 481.62,-34.13"/>
<polygon fill="red" stroke="red" stroke-width="0.88" points="484.2,-31.76 474.96,-26.58 478.95,-36.39 484.2,-31.76"/>
</g>
<!-- &#45;6 -->
<g id="node6" class="node">
<title>&#45;6</title>
<polygon fill="lightgray" stroke="black" points="570.5,-83.7 546.5,-83.7 546.5,-65.7 570.5,-65.7 570.5,-83.7"/>
<text text-anchor="middle" x="558.5" y="-72.5" font-family="Times New Roman,serif" font-size="9.00">&#45;6</text>
</g>
<!-- &#45;6&#45;&gt;0 -->
<g id="edge24" class="edge">
<title>&#45;6&#45;&gt;0</title>
<path fill="none" stroke="red" stroke-width="0.58" d="M546.07,-68.95C543.25,-67.88 540.27,-66.75 537.5,-65.7 494.88,-49.59 482.71,-49.15 441.5,-29.7 440.66,-29.3 439.82,-28.89 438.96,-28.46"/>
<polygon fill="red" stroke="red" stroke-width="0.58" points="440.45,-25.29 430,-23.58 437.11,-31.43 440.45,-25.29"/>
</g>
<!-- &#45;6&#45;&gt;1 -->
<g id="edge25" class="edge">
<title>&#45;6&#45;&gt;1</title>
<path fill="none" stroke="red" stroke-width="0.24" d="M546.15,-68.71C543.33,-67.65 540.33,-66.59 537.5,-65.7 474.56,-45.92 454.66,-54.42 393.5,-29.7 392.64,-29.35 391.78,-28.98 390.91,-28.58"/>
<polygon fill="red" stroke="red" stroke-width="0.24" points="392.36,-25.39 381.87,-23.86 389.11,-31.6 392.36,-25.39"/>
</g>
<!-- &#45;6&#45;&gt;2 -->
<g id="edge26" class="edge">
<title>&#45;6&#45;&gt;2</title>
<path fill="none" stroke="green" stroke-width="0.16" d="M552.24,-65.65C546.13,-57.8 536.59,-45.53 528.51,-35.14"/>
<polygon fill="green" stroke="green" stroke-width="0.16" points="531.07,-32.74 522.17,-26.99 525.55,-37.04 531.07,-32.74"/>
</g>
<!-- &#45;6&#45;&gt;3 -->
<g id="edge27" class="edge">
<title>&#45;6&#45;&gt;3</title>
<path fill="none" stroke="red" stroke-width="0.2" d="M558.92,-65.65C559.26,-59.05 559.76,-49.33 560.24,-40.23"/>
<polygon fill="red" stroke="red" stroke-width="0.2" points="563.74,-40.22 560.76,-30.06 556.75,-39.86 563.74,-40.22"/>
</g>
<!-- &#45;6&#45;&gt;4 -->
<g id="edge28" class="edge">
<title>&#45;6&#45;&gt;4</title>
<path fill="none" stroke="red" stroke-width="0.32" stroke-dasharray="1,5" d="M546.34,-66.14C531.09,-56.65 504.72,-40.24 486.25,-28.76"/>
<polygon fill="red" stroke="red" stroke-width="0.32" points="488,-25.72 477.66,-23.41 484.3,-31.67 488,-25.72"/>
</g>
<!-- &#45;7 -->
<g id="node7" class="node">
<title>&#45;7</title>
<polygon fill="lightgray" stroke="black" points="612.5,-83.7 588.5,-83.7 588.5,-65.7 612.5,-65.7 612.5,-83.7"/>
<text text-anchor="middle" x="600.5" y="-72.5" font-family="Times New Roman,serif" font-size="9.00">&#45;7</text>
</g>
<!-- &#45;7&#45;&gt;0 -->
<g id="edge29" class="edge">
<title>&#45;7&#45;&gt;0</title>
<path fill="none" stroke="red" stroke-width="0.12" d="M588.14,-68.73C585.32,-67.67 582.32,-66.6 579.5,-65.7 519.13,-46.39 500.14,-53.75 441.5,-29.7 440.64,-29.35 439.78,-28.97 438.92,-28.57"/>
<polygon fill="red" stroke="red" stroke-width="0.12" points="440.36,-25.38 429.88,-23.84 437.11,-31.58 440.36,-25.38"/>
</g>
<!-- &#45;7&#45;&gt;1 -->
<g id="edge30" class="edge">
<title>&#45;7&#45;&gt;1</title>
<path fill="none" stroke="red" stroke-width="0.45" d="M588.18,-68.6C585.36,-67.55 582.35,-66.51 579.5,-65.7 498.52,-42.62 472.38,-59.15 393.5,-29.7 392.63,-29.37 391.76,-29.02 390.89,-28.64"/>
<polygon fill="red" stroke="red" stroke-width="0.45" points="392.31,-25.44 381.82,-24 389.12,-31.67 392.31,-25.44"/>
</g>
<!-- &#45;7&#45;&gt;2 -->
<g id="edge31" class="edge">
<title>&#45;7&#45;&gt;2</title>
<path fill="none" stroke="green" stroke-width="0.47" d="M588.4,-65.65C574.38,-56.33 551.03,-40.8 534.12,-29.56"/>
<polygon fill="green" stroke="green" stroke-width="0.47" points="535.76,-26.45 525.49,-23.82 531.88,-32.28 535.76,-26.45"/>
</g>
<!-- &#45;7&#45;&gt;3 -->
<g id="edge32" class="edge">
<title>&#45;7&#45;&gt;3</title>
<path fill="none" stroke="green" stroke-width="0.46" d="M595.08,-65.65C589.96,-58.07 582.08,-46.37 575.24,-36.22"/>
<polygon fill="green" stroke="green" stroke-width="0.46" points="578.08,-34.18 569.59,-27.84 572.27,-38.09 578.08,-34.18"/>
</g>
<!-- &#45;7&#45;&gt;4 -->
<g id="edge33" class="edge">
<title>&#45;7&#45;&gt;4</title>
<path fill="none" stroke="red" stroke-width="0.25" d="M588.23,-68.95C561.33,-58.53 498.83,-34.21 489.5,-29.7 488.67,-29.3 487.82,-28.87 486.97,-28.44"/>
<polygon fill="red" stroke="red" stroke-width="0.25" points="488.47,-25.27 478.02,-23.53 485.11,-31.41 488.47,-25.27"/>
</g>
<!-- &#45;8 -->
<g id="node8" class="node">
<title>&#45;8</title>
<polygon fill="lightgray" stroke="black" points="654.5,-83.7 630.5,-83.7 630.5,-65.7 654.5,-65.7 654.5,-83.7"/>
<text text-anchor="middle" x="642.5" y="-72.5" font-family="Times New Roman,serif" font-size="9.00">&#45;8</text>
</g>
<!-- &#45;8&#45;&gt;0 -->
<g id="edge34" class="edge">
<title>&#45;8&#45;&gt;0</title>
<path fill="none" stroke="green" stroke-width="0.25" d="M630.18,-68.61C627.36,-67.56 624.35,-66.52 621.5,-65.7 543.11,-43.1 517.84,-58.47 441.5,-29.7 440.63,-29.37 439.76,-29.02 438.89,-28.64"/>
<polygon fill="green" stroke="green" stroke-width="0.25" points="440.32,-25.44 429.82,-23.99 437.12,-31.66 440.32,-25.44"/>
</g>
<!-- &#45;8&#45;&gt;1 -->
<g id="edge35" class="edge">
<title>&#45;8&#45;&gt;1</title>
<path fill="none" stroke="red" stroke-width="0.17" d="M630.2,-68.53C627.38,-67.48 624.37,-66.46 621.5,-65.7 522.37,-39.3 490.22,-63.91 393.5,-29.7 392.63,-29.39 391.75,-29.05 390.87,-28.68"/>
<polygon fill="red" stroke="red" stroke-width="0.17" points="392.29,-25.48 381.79,-24.09 389.13,-31.72 392.29,-25.48"/>
</g>
<!-- &#45;8&#45;&gt;2 -->
<g id="edge36" class="edge">
<title>&#45;8&#45;&gt;2</title>
<path fill="none" stroke="red" stroke-width="0.77" d="M630.4,-68.85C606.65,-59.31 554.77,-38.26 537.5,-29.7 536.67,-29.29 535.83,-28.86 534.98,-28.42"/>
<polygon fill="red" stroke="red" stroke-width="0.77" points="536.49,-25.25 526.04,-23.49 533.11,-31.38 536.49,-25.25"/>
</g>
<!-- &#45;8&#45;&gt;3 -->
<g id="edge37" class="edge">
<title>&#45;8&#45;&gt;3</title>
<path fill="none" stroke="green" stroke-width="0.85" d="M631.24,-65.65C618.45,-56.52 597.32,-41.43 581.67,-30.26"/>
<polygon fill="green" stroke="green" stroke-width="0.85" points="583.36,-27.16 573.19,-24.2 579.3,-32.86 583.36,-27.16"/>
</g>
<!-- &#45;8&#45;&gt;4 -->
<g id="edge38" class="edge">
<title>&#45;8&#45;&gt;4</title>
<path fill="none" stroke="red" stroke-width="0.71" d="M630.13,-68.76C627.32,-67.7 624.32,-66.62 621.5,-65.7 563.68,-46.85 545.63,-53.09 489.5,-29.7 488.65,-29.34 487.78,-28.96 486.92,-28.56"/>
<polygon fill="red" stroke="red" stroke-width="0.71" points="488.37,-25.37 477.89,-23.81 485.11,-31.57 488.37,-25.37"/>
</g>
<!-- &#45;9 -->
<g id="node9" class="node">
<title>&#45;9</title>
<polygon fill="lightgray" stroke="black" points="696.5,-83.7 672.5,-83.7 672.5,-65.7 696.5,-65.7 696.5,-83.7"/>
<text text-anchor="middle" x="684.5" y="-72.5" font-family="Times New Roman,serif" font-size="9.00">&#45;9</text>
</g>
<!-- &#45;9&#45;&gt;0 -->
<g id="edge39" class="edge">
<title>&#45;9&#45;&gt;0</title>
<path fill="none" stroke="red" stroke-width="0.17" d="M672.2,-68.54C669.38,-67.49 666.36,-66.47 663.5,-65.7 566.97,-39.77 535.66,-63.23 441.5,-29.7 440.63,-29.39 439.75,-29.05 438.87,-28.68"/>
<polygon fill="red" stroke="red" stroke-width="0.17" points="440.29,-25.47 429.79,-24.08 437.13,-31.72 440.29,-25.47"/>
</g>
<!-- &#45;9&#45;&gt;1 -->
<g id="edge40" class="edge">
<title>&#45;9&#45;&gt;1</title>
<path fill="none" stroke="green" stroke-width="0.57" d="M672.22,-68.48C669.39,-67.43 666.37,-66.43 663.5,-65.7 546.15,-35.95 508.11,-68.69 393.5,-29.7 392.62,-29.4 391.74,-29.07 390.86,-28.71"/>
<polygon fill="green" stroke="green" stroke-width="0.57" points="392.27,-25.5 381.76,-24.15 389.14,-31.76 392.27,-25.5"/>
</g>
<!-- &#45;9&#45;&gt;2 -->
<g id="edge41" class="edge">
<title>&#45;9&#45;&gt;2</title>
<path fill="none" stroke="green" stroke-width="0.48" d="M672.13,-68.78C669.31,-67.72 666.31,-66.63 663.5,-65.7 608.24,-47.31 591.12,-52.42 537.5,-29.7 536.65,-29.34 535.79,-28.95 534.93,-28.55"/>
<polygon fill="green" stroke="green" stroke-width="0.48" points="536.38,-25.36 525.91,-23.78 533.11,-31.55 536.38,-25.36"/>
</g>
<!-- &#45;9&#45;&gt;3 -->
<g id="edge42" class="edge">
<title>&#45;9&#45;&gt;3</title>
<path fill="none" stroke="red" stroke-width="0.2" d="M672.26,-67.94C651.67,-58.26 609.85,-38.59 583.9,-26.38"/>
<polygon fill="red" stroke="red" stroke-width="0.2" points="585.34,-23.2 574.81,-22.11 582.37,-29.53 585.34,-23.2"/>
</g>
<!-- &#45;9&#45;&gt;4 -->
<g id="edge43" class="edge">
<title>&#45;9&#45;&gt;4</title>
<path fill="none" stroke="red" stroke-width="0.19" d="M672.18,-68.63C669.35,-67.57 666.35,-66.53 663.5,-65.7 587.69,-43.57 563.31,-57.79 489.5,-29.7 488.63,-29.37 487.76,-29.01 486.89,-28.63"/>
<polygon fill="red" stroke="red" stroke-width="0.19" points="488.32,-25.43 477.83,-23.97 485.12,-31.66 488.32,-25.43"/>
</g>
<!-- &#45;10 -->
<g id="node10" class="node">
<title>&#45;10</title>
<polygon fill="lightgray" stroke="black" points="881,-83.7 852,-83.7 852,-65.7 881,-65.7 881,-83.7"/>
<text text-anchor="middle" x="866.5" y="-72.5" font-family="Times New Roman,serif" font-size="9.00">&#45;10</text>
</g>
<!-- &#45;10&#45;&gt;0 -->
<g id="edge44" class="edge">
<title>&#45;10&#45;&gt;0</title>
<path fill="none" stroke="red" stroke-width="0.79" d="M851.93,-68.24C848.85,-67.26 845.6,-66.34 842.5,-65.7 667.33,-29.16 612.1,-83.68 441.5,-29.7 440.45,-29.36 439.39,-28.98 438.33,-28.55"/>
<polygon fill="red" stroke="red" stroke-width="0.79" points="439.74,-25.34 429.23,-23.97 436.59,-31.6 439.74,-25.34"/>
</g>
<!-- &#45;10&#45;&gt;2 -->
<g id="edge45" class="edge">
<title>&#45;10&#45;&gt;2</title>
<path fill="none" stroke="red" stroke-width="0.36" d="M851.91,-68.31C848.84,-67.32 845.59,-66.39 842.5,-65.7 709.28,-35.96 667.05,-72.69 537.5,-29.7 536.62,-29.41 535.74,-29.08 534.86,-28.73"/>
<polygon fill="red" stroke="red" stroke-width="0.36" points="536.26,-25.52 525.75,-24.19 533.14,-31.78 536.26,-25.52"/>
</g>
<!-- &#45;10&#45;&gt;3 -->
<g id="edge46" class="edge">
<title>&#45;10&#45;&gt;3</title>
<path fill="none" stroke="red" stroke-width="0.2" stroke-dasharray="1,5" d="M851.88,-68.45C848.8,-67.45 845.57,-66.48 842.5,-65.7 749.19,-42.01 635.65,-25.56 586.34,-19.01"/>
<polygon fill="red" stroke="red" stroke-width="0.2" points="586.66,-15.52 576.29,-17.7 585.75,-22.46 586.66,-15.52"/>
</g>
<!-- &#45;10&#45;&gt;4 -->
<g id="edge47" class="edge">
<title>&#45;10&#45;&gt;4</title>
<path fill="none" stroke="red" stroke-width="0.2" d="M851.92,-68.27C848.84,-67.29 845.59,-66.36 842.5,-65.7 688.32,-32.56 639.56,-78.18 489.5,-29.7 488.45,-29.36 487.39,-28.97 486.34,-28.54"/>
<polygon fill="red" stroke="red" stroke-width="0.2" points="487.75,-25.33 477.24,-23.94 484.59,-31.58 487.75,-25.33"/>
</g>
<!-- &#45;11 -->
<g id="node11" class="node">
<title>&#45;11</title>
<polygon fill="lightgray" stroke="black" points="744,-83.7 715,-83.7 715,-65.7 744,-65.7 744,-83.7"/>
<text text-anchor="middle" x="729.5" y="-72.5" font-family="Times New Roman,serif" font-size="9.00">&#45;11</text>
</g>
<!-- &#45;11&#45;&gt;0 -->
<g id="edge48" class="edge">
<title>&#45;11&#45;&gt;0</title>
<path fill="none" stroke="green" stroke-width="0.25" d="M714.9,-68.35C711.83,-67.36 708.58,-66.42 705.5,-65.7 590.16,-38.86 553.55,-68.01 441.5,-29.7 440.62,-29.4 439.74,-29.07 438.87,-28.71"/>
<polygon fill="green" stroke="green" stroke-width="0.25" points="440.27,-25.5 429.77,-24.14 437.14,-31.76 440.27,-25.5"/>
</g>
<!-- &#45;11&#45;&gt;1 -->
<g id="edge49" class="edge">
<title>&#45;11&#45;&gt;1</title>
<path fill="none" stroke="red" stroke-width="0.14" d="M714.91,-68.3C711.84,-67.32 708.59,-66.38 705.5,-65.7 569.23,-35.47 526.04,-73.49 393.5,-29.7 392.62,-29.41 391.74,-29.08 390.86,-28.73"/>
<polygon fill="red" stroke="red" stroke-width="0.14" points="392.26,-25.52 381.75,-24.2 389.14,-31.79 392.26,-25.52"/>
</g>
<!-- &#45;11&#45;&gt;2 -->
<g id="edge50" class="edge">
<title>&#45;11&#45;&gt;2</title>
<path fill="none" stroke="green" stroke-width="0.56" d="M714.86,-68.53C711.78,-67.53 708.55,-66.53 705.5,-65.7 631.83,-45.59 608.77,-57.12 537.5,-29.7 536.64,-29.37 535.77,-29.01 534.9,-28.62"/>
<polygon fill="green" stroke="green" stroke-width="0.56" points="536.33,-25.42 525.84,-23.95 533.12,-31.64 536.33,-25.42"/>
</g>
<!-- &#45;11&#45;&gt;3 -->
<g id="edge51" class="edge">
<title>&#45;11&#45;&gt;3</title>
<path fill="none" stroke="green" stroke-width="0.2" d="M714.88,-68.67C685.68,-58.61 619.88,-35.95 584.71,-23.84"/>
<polygon fill="green" stroke="green" stroke-width="0.2" points="585.85,-20.53 575.25,-20.59 583.57,-27.15 585.85,-20.53"/>
</g>
<!-- &#45;11&#45;&gt;4 -->
<g id="edge52" class="edge">
<title>&#45;11&#45;&gt;4</title>
<path fill="none" stroke="green" stroke-width="0.92" stroke-dasharray="1,5" d="M714.88,-68.42C711.81,-67.43 708.57,-66.46 705.5,-65.7 611.05,-42.24 581.11,-62.55 489.5,-29.7 488.63,-29.39 487.75,-29.04 486.88,-28.67"/>
<polygon fill="green" stroke="green" stroke-width="0.92" points="488.3,-25.47 477.79,-24.07 485.13,-31.71 488.3,-25.47"/>
</g>
<!-- &#45;12 -->
<g id="node12" class="node">
<title>&#45;12</title>
<polygon fill="lightgray" stroke="black" points="791,-83.7 762,-83.7 762,-65.7 791,-65.7 791,-83.7"/>
<text text-anchor="middle" x="776.5" y="-72.5" font-family="Times New Roman,serif" font-size="9.00">&#45;12</text>
</g>
<!-- &#45;12&#45;&gt;0 -->
<g id="edge53" class="edge">
<title>&#45;12&#45;&gt;0</title>
<path fill="none" stroke="red" stroke-width="0.38" d="M761.54,-67.97C758.89,-67.1 756.14,-66.3 753.5,-65.7 617.43,-34.58 574.04,-73.49 441.5,-29.7 440.62,-29.41 439.74,-29.08 438.86,-28.73"/>
<polygon fill="red" stroke="red" stroke-width="0.38" points="440.26,-25.52 429.75,-24.2 437.14,-31.79 440.26,-25.52"/>
</g>
<!-- &#45;12&#45;&gt;1 -->
<g id="edge54" class="edge">
<title>&#45;12&#45;&gt;1</title>
<path fill="none" stroke="green" stroke-width="0.18" d="M761.55,-67.93C758.9,-67.07 756.14,-66.28 753.5,-65.7 596.48,-31.05 546.56,-78.98 393.5,-29.7 392.45,-29.36 391.39,-28.97 390.34,-28.54"/>
<polygon fill="green" stroke="green" stroke-width="0.18" points="391.75,-25.33 381.24,-23.95 388.59,-31.58 391.75,-25.33"/>
</g>
<!-- &#45;12&#45;&gt;2 -->
<g id="edge55" class="edge">
<title>&#45;12&#45;&gt;2</title>
<path fill="none" stroke="red" stroke-width="0.86" d="M761.52,-68.08C758.87,-67.2 756.12,-66.37 753.5,-65.7 659.2,-41.63 629.11,-62.55 537.5,-29.7 536.63,-29.39 535.75,-29.04 534.88,-28.67"/>
<polygon fill="red" stroke="red" stroke-width="0.86" points="536.3,-25.47 525.79,-24.07 533.13,-31.71 536.3,-25.47"/>
</g>
<!-- &#45;12&#45;&gt;3 -->
<g id="edge56" class="edge">
<title>&#45;12&#45;&gt;3</title>
<path fill="none" stroke="red" stroke-width="0.27" d="M761.96,-68.44C759.16,-67.49 756.25,-66.53 753.5,-65.7 693.81,-47.6 622.47,-30.16 585.85,-21.5"/>
<polygon fill="red" stroke="red" stroke-width="0.27" points="586.6,-18.08 576.06,-19.21 585,-24.9 586.6,-18.08"/>
</g>
<!-- &#45;12&#45;&gt;4 -->
<g id="edge57" class="edge">
<title>&#45;12&#45;&gt;4</title>
<path fill="none" stroke="red" stroke-width="0.36" d="M761.53,-68.01C758.88,-67.14 756.13,-66.33 753.5,-65.7 638.34,-38.11 601.55,-68.01 489.5,-29.7 488.62,-29.4 487.74,-29.07 486.87,-28.71"/>
<polygon fill="red" stroke="red" stroke-width="0.36" points="488.27,-25.5 477.77,-24.14 485.14,-31.76 488.27,-25.5"/>
</g>
<!-- &#45;13 -->
<g id="node13" class="node">
<title>&#45;13</title>
<polygon fill="lightgray" stroke="black" points="29,-83.7 0,-83.7 0,-65.7 29,-65.7 29,-83.7"/>
<text text-anchor="middle" x="14.5" y="-72.5" font-family="Times New Roman,serif" font-size="9.00">&#45;13</text>
</g>
<!-- &#45;13&#45;&gt;0 -->
<g id="edge58" class="edge">
<title>&#45;13&#45;&gt;0</title>
<path fill="none" stroke="red" stroke-width="0.63" d="M29.45,-67.93C32.1,-67.08 34.86,-66.28 37.5,-65.7 192.77,-31.34 242.15,-78.53 393.5,-29.7 394.55,-29.36 395.61,-28.97 396.66,-28.54"/>
<polygon fill="red" stroke="red" stroke-width="0.63" points="398.41,-31.58 405.76,-23.95 395.25,-25.33 398.41,-31.58"/>
</g>
<!-- &#45;13&#45;&gt;1 -->
<g id="edge59" class="edge">
<title>&#45;13&#45;&gt;1</title>
<path fill="none" stroke="red" stroke-width="0.69" d="M29.47,-68.04C32.12,-67.17 34.87,-66.35 37.5,-65.7 150.5,-37.82 289.22,-23.1 344.78,-17.98"/>
<polygon fill="red" stroke="red" stroke-width="0.69" points="345.1,-21.46 354.75,-17.08 344.47,-14.49 345.1,-21.46"/>
</g>
<!-- &#45;13&#45;&gt;2 -->
<g id="edge60" class="edge">
<title>&#45;13&#45;&gt;2</title>
<path fill="none" stroke="red" stroke-width="0.24" d="M29.44,-67.89C32.09,-67.03 34.85,-66.25 37.5,-65.7 234.72,-24.26 297.06,-89.53 489.5,-29.7 490.56,-29.37 491.62,-28.99 492.67,-28.57"/>
<polygon fill="red" stroke="red" stroke-width="0.24" points="494.41,-31.61 501.77,-24 491.27,-25.36 494.41,-31.61"/>
</g>
<!-- &#45;13&#45;&gt;4 -->
<g id="edge61" class="edge">
<title>&#45;13&#45;&gt;4</title>
<path fill="none" stroke="red" stroke-width="0.63" d="M29.44,-67.91C32.09,-67.05 34.85,-66.27 37.5,-65.7 213.74,-27.8 269.61,-84.02 441.5,-29.7 442.56,-29.37 443.61,-28.98 444.67,-28.55"/>
<polygon fill="red" stroke="red" stroke-width="0.63" points="446.41,-31.6 453.77,-23.98 443.26,-25.34 446.41,-31.6"/>
</g>
<!-- &#45;14 -->
<g id="node14" class="node">
<title>&#45;14</title>
<polygon fill="lightgray" stroke="black" points="76,-83.7 47,-83.7 47,-65.7 76,-65.7 76,-83.7"/>
<text text-anchor="middle" x="61.5" y="-72.5" font-family="Times New Roman,serif" font-size="9.00">&#45;14</text>
</g>
<!-- &#45;14&#45;&gt;0 -->
<g id="edge62" class="edge">
<title>&#45;14&#45;&gt;0</title>
<path fill="none" stroke="green" stroke-width="0.11" d="M76.09,-68.31C79.16,-67.32 82.41,-66.39 85.5,-65.7 220.03,-35.75 262.67,-73.03 393.5,-29.7 394.38,-29.41 395.26,-29.08 396.14,-28.73"/>
<polygon fill="green" stroke="green" stroke-width="0.11" points="397.86,-31.78 405.25,-24.19 394.74,-25.52 397.86,-31.78"/>
</g>
<!-- &#45;14&#45;&gt;1 -->
<g id="edge63" class="edge">
<title>&#45;14&#45;&gt;1</title>
<path fill="none" stroke="red" stroke-width="0.22" d="M76.12,-68.44C79.19,-67.45 82.43,-66.47 85.5,-65.7 180.02,-41.79 295.11,-25.41 344.75,-18.94"/>
<polygon fill="red" stroke="red" stroke-width="0.22" points="345.38,-22.38 354.86,-17.64 344.49,-15.44 345.38,-22.38"/>
</g>
<!-- &#45;14&#45;&gt;2 -->
<g id="edge64" class="edge">
<title>&#45;14&#45;&gt;2</title>
<path fill="none" stroke="green" stroke-width="0.18" d="M76.07,-68.24C79.15,-67.26 82.4,-66.34 85.5,-65.7 261.98,-28.95 317.61,-84.02 489.5,-29.7 490.56,-29.37 491.61,-28.98 492.67,-28.55"/>
<polygon fill="green" stroke="green" stroke-width="0.18" points="494.41,-31.6 501.77,-23.98 491.26,-25.34 494.41,-31.6"/>
</g>
<!-- &#45;14&#45;&gt;4 -->
<g id="edge65" class="edge">
<title>&#45;14&#45;&gt;4</title>
<path fill="none" stroke="red" stroke-width="0.23" stroke-dasharray="1,5" d="M76.08,-68.27C79.16,-67.28 82.41,-66.36 85.5,-65.7 240.99,-32.35 290.15,-78.53 441.5,-29.7 442.55,-29.36 443.61,-28.97 444.66,-28.54"/>
<polygon fill="red" stroke="red" stroke-width="0.23" points="446.41,-31.58 453.76,-23.95 443.25,-25.33 446.41,-31.58"/>
</g>
<!-- &#45;15 -->
<g id="node15" class="node">
<title>&#45;15</title>
<polygon fill="lightgray" stroke="black" points="166,-83.7 137,-83.7 137,-65.7 166,-65.7 166,-83.7"/>
<text text-anchor="middle" x="151.5" y="-72.5" font-family="Times New Roman,serif" font-size="9.00">&#45;15</text>
</g>
<!-- &#45;15&#45;&gt;0 -->
<g id="edge66" class="edge">
<title>&#45;15&#45;&gt;0</title>
<path fill="none" stroke="red" stroke-width="0.21" stroke-dasharray="1,5" d="M166.48,-68.07C169.13,-67.2 171.88,-66.36 174.5,-65.7 270.1,-41.41 300.61,-62.89 393.5,-29.7 394.37,-29.39 395.25,-29.04 396.12,-28.68"/>
<polygon fill="red" stroke="red" stroke-width="0.21" points="397.87,-31.72 405.21,-24.07 394.71,-25.47 397.87,-31.72"/>
</g>
<!-- &#45;15&#45;&gt;1 -->
<g id="edge67" class="edge">
<title>&#45;15&#45;&gt;1</title>
<path fill="none" stroke="green" stroke-width="0.13" d="M166.04,-68.43C168.83,-67.48 171.75,-66.53 174.5,-65.7 235.41,-47.36 308.29,-29.9 345.32,-21.34"/>
<polygon fill="green" stroke="green" stroke-width="0.13" points="346.23,-24.72 355.2,-19.07 344.67,-17.9 346.23,-24.72"/>
</g>
<!-- &#45;15&#45;&gt;2 -->
<g id="edge68" class="edge">
<title>&#45;15&#45;&gt;2</title>
<path fill="none" stroke="green" stroke-width="0.45" d="M166.45,-67.96C169.11,-67.1 171.86,-66.3 174.5,-65.7 311.88,-34.36 355.68,-73.83 489.5,-29.7 490.38,-29.41 491.26,-29.08 492.14,-28.73"/>
<polygon fill="green" stroke="green" stroke-width="0.45" points="493.86,-31.79 501.25,-24.2 490.74,-25.52 493.86,-31.79"/>
</g>
<!-- &#45;15&#45;&gt;3 -->
<g id="edge69" class="edge">
<title>&#45;15&#45;&gt;3</title>
<path fill="none" stroke="red" stroke-width="0.29" d="M166.45,-67.93C169.1,-67.07 171.86,-66.28 174.5,-65.7 332.83,-30.83 383.16,-79.33 537.5,-29.7 538.55,-29.36 539.61,-28.97 540.66,-28.54"/>
<polygon fill="red" stroke="red" stroke-width="0.29" points="542.41,-31.58 549.76,-23.95 539.25,-25.33 542.41,-31.58"/>
</g>
<!-- &#45;15&#45;&gt;4 -->
<g id="edge70" class="edge">
<title>&#45;15&#45;&gt;4</title>
<path fill="none" stroke="red" stroke-width="0.59" d="M166.47,-68.01C169.11,-67.14 171.87,-66.33 174.5,-65.7 290.97,-37.89 328.17,-68.35 441.5,-29.7 442.38,-29.4 443.26,-29.07 444.14,-28.71"/>
<polygon fill="red" stroke="red" stroke-width="0.59" points="445.86,-31.76 453.23,-24.15 442.73,-25.5 445.86,-31.76"/>
</g>
<!-- &#45;16 -->
<g id="node16" class="node">
<title>&#45;16</title>
<polygon fill="lightgray" stroke="black" points="213,-83.7 184,-83.7 184,-65.7 213,-65.7 213,-83.7"/>
<text text-anchor="middle" x="198.5" y="-72.5" font-family="Times New Roman,serif" font-size="9.00">&#45;16</text>
</g>
<!-- &#45;16&#45;&gt;0 -->
<g id="edge71" class="edge">
<title>&#45;16&#45;&gt;0</title>
<path fill="none" stroke="red" stroke-width="0.25" d="M213.01,-68.33C215.81,-67.39 218.73,-66.47 221.5,-65.7 296.76,-44.83 320.54,-57.57 393.5,-29.7 394.37,-29.37 395.24,-29.01 396.11,-28.63"/>
<polygon fill="red" stroke="red" stroke-width="0.25" points="397.88,-31.65 405.17,-23.96 394.67,-25.43 397.88,-31.65"/>
</g>
<!-- &#45;16&#45;&gt;1 -->
<g id="edge72" class="edge">
<title>&#45;16&#45;&gt;1</title>
<path fill="none" stroke="red" stroke-width="0.36" d="M213.09,-68.6C215.88,-67.63 218.78,-66.63 221.5,-65.7 265.36,-50.68 316.66,-33.49 345.89,-23.72"/>
<polygon fill="red" stroke="red" stroke-width="0.36" points="347.23,-26.96 355.61,-20.48 345.02,-20.32 347.23,-26.96"/>
</g>
<!-- &#45;16&#45;&gt;2 -->
<g id="edge73" class="edge">
<title>&#45;16&#45;&gt;2</title>
<path fill="none" stroke="red" stroke-width="0.72" d="M213.46,-68.01C216.11,-67.14 218.87,-66.33 221.5,-65.7 338.4,-37.82 375.74,-68.47 489.5,-29.7 490.38,-29.4 491.26,-29.07 492.14,-28.71"/>
<polygon fill="red" stroke="red" stroke-width="0.72" points="493.86,-31.76 501.24,-24.15 490.73,-25.5 493.86,-31.76"/>
</g>
<!-- &#45;16&#45;&gt;3 -->
<g id="edge74" class="edge">
<title>&#45;16&#45;&gt;3</title>
<path fill="none" stroke="red" stroke-width="0.14" d="M213.45,-67.96C216.11,-67.1 218.86,-66.3 221.5,-65.7 359.32,-34.29 403.25,-73.95 537.5,-29.7 538.38,-29.41 539.26,-29.08 540.14,-28.73"/>
<polygon fill="red" stroke="red" stroke-width="0.14" points="541.86,-31.79 549.25,-24.2 538.74,-25.52 541.86,-31.79"/>
</g>
<!-- &#45;16&#45;&gt;4 -->
<g id="edge75" class="edge">
<title>&#45;16&#45;&gt;4</title>
<path fill="none" stroke="red" stroke-width="0.1" d="M213.48,-68.07C216.13,-67.2 218.88,-66.36 221.5,-65.7 317.54,-41.33 348.19,-63 441.5,-29.7 442.37,-29.39 443.25,-29.04 444.12,-28.68"/>
<polygon fill="red" stroke="red" stroke-width="0.1" points="445.87,-31.72 453.21,-24.08 442.71,-25.47 445.87,-31.72"/>
</g>
<!-- &#45;17 -->
<g id="node17" class="node">
<title>&#45;17</title>
<polygon fill="lightgray" stroke="black" points="260,-83.7 231,-83.7 231,-65.7 260,-65.7 260,-83.7"/>
<text text-anchor="middle" x="245.5" y="-72.5" font-family="Times New Roman,serif" font-size="9.00">&#45;17</text>
</g>
<!-- &#45;17&#45;&gt;0 -->
<g id="edge76" class="edge">
<title>&#45;17&#45;&gt;0</title>
<path fill="none" stroke="red" stroke-width="0.97" d="M260.06,-68.5C262.85,-67.54 265.76,-66.57 268.5,-65.7 323.6,-48.2 340.29,-52.31 393.5,-29.7 394.35,-29.34 395.21,-28.95 396.07,-28.55"/>
<polygon fill="red" stroke="red" stroke-width="0.97" points="397.89,-31.54 405.09,-23.77 394.62,-25.36 397.89,-31.54"/>
</g>
<!-- &#45;17&#45;&gt;1 -->
<g id="edge77" class="edge">
<title>&#45;17&#45;&gt;1</title>
<path fill="none" stroke="red" stroke-width="0.49" d="M260.21,-66.84C281.73,-56.79 321.97,-38.02 347.16,-26.27"/>
<polygon fill="red" stroke="red" stroke-width="0.49" points="348.73,-29.4 356.31,-22 345.77,-23.06 348.73,-29.4"/>
</g>
<!-- &#45;17&#45;&gt;2 -->
<g id="edge78" class="edge">
<title>&#45;17&#45;&gt;2</title>
<path fill="none" stroke="red" stroke-width="0.75" d="M260.48,-68.07C263.13,-67.2 265.88,-66.36 268.5,-65.7 364.97,-41.26 395.76,-63.11 489.5,-29.7 490.37,-29.39 491.25,-29.05 492.12,-28.68"/>
<polygon fill="red" stroke="red" stroke-width="0.75" points="493.87,-31.72 501.21,-24.08 490.71,-25.47 493.87,-31.72"/>
</g>
<!-- &#45;17&#45;&gt;3 -->
<g id="edge79" class="edge">
<title>&#45;17&#45;&gt;3</title>
<path fill="none" stroke="green" stroke-width="0.54" d="M260.46,-68.01C263.11,-67.14 265.87,-66.33 268.5,-65.7 385.84,-37.74 423.32,-68.58 537.5,-29.7 538.38,-29.4 539.26,-29.07 540.14,-28.71"/>
<polygon fill="green" stroke="green" stroke-width="0.54" points="541.86,-31.76 549.24,-24.15 538.73,-25.5 541.86,-31.76"/>
</g>
<!-- &#45;17&#45;&gt;4 -->
<g id="edge80" class="edge">
<title>&#45;17&#45;&gt;4</title>
<path fill="none" stroke="green" stroke-width="0.16" d="M260.01,-68.33C262.81,-67.39 265.73,-66.47 268.5,-65.7 344.19,-44.75 368.12,-57.68 441.5,-29.7 442.37,-29.37 443.24,-29.01 444.11,-28.63"/>
<polygon fill="green" stroke="green" stroke-width="0.16" points="445.88,-31.65 453.17,-23.97 442.68,-25.43 445.88,-31.65"/>
</g>
<!-- &#45;18 -->
<g id="node18" class="node">
<title>&#45;18</title>
<polygon fill="lightgray" stroke="black" points="307,-83.7 278,-83.7 278,-65.7 307,-65.7 307,-83.7"/>
<text text-anchor="middle" x="292.5" y="-72.5" font-family="Times New Roman,serif" font-size="9.00">&#45;18</text>
</g>
<!-- &#45;18&#45;&gt;0 -->
<g id="edge81" class="edge">
<title>&#45;18&#45;&gt;0</title>
<path fill="none" stroke="green" stroke-width="0.43" d="M307.12,-67.93C326.98,-59.97 363.44,-44.86 393.5,-29.7 394.33,-29.28 395.17,-28.85 396.01,-28.41"/>
<polygon fill="green" stroke="green" stroke-width="0.43" points="397.89,-31.36 404.94,-23.45 394.5,-25.24 397.89,-31.36"/>
</g>
<!-- &#45;18&#45;&gt;1 -->
<g id="edge82" class="edge">
<title>&#45;18&#45;&gt;1</title>
<path fill="none" stroke="green" stroke-width="0.16" d="M303.21,-65.65C315.23,-56.62 334.99,-41.78 349.82,-30.64"/>
<polygon fill="green" stroke="green" stroke-width="0.16" points="351.99,-33.39 357.88,-24.58 347.78,-27.79 351.99,-33.39"/>
</g>
<!-- &#45;18&#45;&gt;2 -->
<g id="edge83" class="edge">
<title>&#45;18&#45;&gt;2</title>
<path fill="none" stroke="green" stroke-width="0.71" d="M307.01,-68.33C309.81,-67.39 312.73,-66.46 315.5,-65.7 391.62,-44.68 415.69,-57.79 489.5,-29.7 490.37,-29.37 491.24,-29.01 492.11,-28.63"/>
<polygon fill="green" stroke="green" stroke-width="0.71" points="493.88,-31.66 501.17,-23.97 490.68,-25.43 493.88,-31.66"/>
</g>
<!-- &#45;18&#45;&gt;3 -->
<g id="edge84" class="edge">
<title>&#45;18&#45;&gt;3</title>
<path fill="none" stroke="green" stroke-width="0.26" d="M307.48,-68.07C310.13,-67.19 312.88,-66.36 315.5,-65.7 412.4,-41.19 443.34,-63.23 537.5,-29.7 538.37,-29.39 539.25,-29.05 540.13,-28.68"/>
<polygon fill="green" stroke="green" stroke-width="0.26" points="541.87,-31.72 549.21,-24.08 538.71,-25.47 541.87,-31.72"/>
</g>
<!-- &#45;18&#45;&gt;4 -->
<g id="edge85" class="edge">
<title>&#45;18&#45;&gt;4</title>
<path fill="none" stroke="red" stroke-width="0.11" d="M307.06,-68.5C309.85,-67.54 312.76,-66.57 315.5,-65.7 371.03,-48.12 387.88,-52.42 441.5,-29.7 442.35,-29.34 443.21,-28.95 444.07,-28.55"/>
<polygon fill="red" stroke="red" stroke-width="0.11" points="445.89,-31.55 453.09,-23.78 442.62,-25.36 445.89,-31.55"/>
</g>
<!-- &#45;19 -->
<g id="node19" class="node">
<title>&#45;19</title>
<polygon fill="lightgray" stroke="black" points="444,-83.7 415,-83.7 415,-65.7 444,-65.7 444,-83.7"/>
<text text-anchor="middle" x="429.5" y="-72.5" font-family="Times New Roman,serif" font-size="9.00">&#45;19</text>
</g>
<!-- &#45;19&#45;&gt;0 -->
<g id="edge86" class="edge">
<title>&#45;19&#45;&gt;0</title>
<path fill="none" stroke="red" stroke-width="0.19" d="M427.83,-65.65C426.43,-58.89 424.35,-48.86 422.42,-39.57"/>
<polygon fill="red" stroke="red" stroke-width="0.19" points="425.81,-38.69 420.35,-29.6 418.96,-40.11 425.81,-38.69"/>
</g>
<!-- &#45;19&#45;&gt;1 -->
<g id="edge87" class="edge">
<title>&#45;19&#45;&gt;1</title>
<path fill="none" stroke="green" stroke-width="0.43" d="M421.16,-65.65C412.37,-57.18 398.26,-43.58 387.01,-32.73"/>
<polygon fill="green" stroke="green" stroke-width="0.43" points="389.41,-30.18 379.78,-25.76 384.55,-35.22 389.41,-30.18"/>
</g>
<!-- &#45;19&#45;&gt;2 -->
<g id="edge88" class="edge">
<title>&#45;19&#45;&gt;2</title>
<path fill="none" stroke="red" stroke-width="0.66" d="M441.18,-65.65C454.64,-56.38 477.01,-40.98 493.31,-29.75"/>
<polygon fill="red" stroke="red" stroke-width="0.66" points="495.4,-32.57 501.65,-24.01 491.43,-26.8 495.4,-32.57"/>
</g>
<!-- &#45;19&#45;&gt;3 -->
<g id="edge89" class="edge">
<title>&#45;19&#45;&gt;3</title>
<path fill="none" stroke="green" stroke-width="0.53" d="M444.1,-68.47C465.12,-60.79 504.95,-45.63 537.5,-29.7 538.33,-29.29 539.17,-28.87 540.02,-28.43"/>
<polygon fill="green" stroke="green" stroke-width="0.53" points="541.89,-31.39 548.97,-23.51 538.52,-25.26 541.89,-31.39"/>
</g>
<!-- &#45;20 -->
<g id="node20" class="node">
<title>&#45;20</title>
<polygon fill="lightgray" stroke="black" points="354,-83.7 325,-83.7 325,-65.7 354,-65.7 354,-83.7"/>
<text text-anchor="middle" x="339.5" y="-72.5" font-family="Times New Roman,serif" font-size="9.00">&#45;20</text>
</g>
<!-- &#45;20&#45;&gt;0 -->
<g id="edge90" class="edge">
<title>&#45;20&#45;&gt;0</title>
<path fill="none" stroke="red" stroke-width="0.14" stroke-dasharray="1,5" d="M350.35,-65.65C362.59,-56.57 382.77,-41.61 397.82,-30.45"/>
<polygon fill="red" stroke="red" stroke-width="0.14" points="400.04,-33.16 405.99,-24.39 395.87,-27.53 400.04,-33.16"/>
</g>
<!-- &#45;20&#45;&gt;1 -->
<g id="edge91" class="edge">
<title>&#45;20&#45;&gt;1</title>
<path fill="none" stroke="red" stroke-width="0.27" d="M343.67,-65.65C347.48,-58.31 353.28,-47.13 358.42,-37.22"/>
<polygon fill="red" stroke="red" stroke-width="0.27" points="361.56,-38.77 363.06,-28.28 355.34,-35.54 361.56,-38.77"/>
</g>
<!-- &#45;20&#45;&gt;2 -->
<g id="edge92" class="edge">
<title>&#45;20&#45;&gt;2</title>
<path fill="none" stroke="red" stroke-width="0.14" stroke-dasharray="1,5" d="M354.19,-68.69C357.26,-67.67 360.48,-66.63 363.5,-65.7 419.14,-48.49 435.88,-52.42 489.5,-29.7 490.35,-29.34 491.21,-28.95 492.07,-28.55"/>
<polygon fill="red" stroke="red" stroke-width="0.14" points="493.89,-31.55 501.09,-23.78 490.62,-25.36 493.89,-31.55"/>
</g>
<!-- &#45;20&#45;&gt;3 -->
<g id="edge93" class="edge">
<title>&#45;20&#45;&gt;3</title>
<path fill="none" stroke="red" stroke-width="0.61" d="M354.14,-68.51C357.21,-67.51 360.45,-66.52 363.5,-65.7 439.76,-45.18 463.69,-57.79 537.5,-29.7 538.37,-29.37 539.24,-29.01 540.11,-28.63"/>
<polygon fill="red" stroke="red" stroke-width="0.61" points="541.88,-31.66 549.17,-23.97 538.68,-25.43 541.88,-31.66"/>
</g>
<!-- &#45;20&#45;&gt;4 -->
<g id="edge94" class="edge">
<title>&#45;20&#45;&gt;4</title>
<path fill="none" stroke="red" stroke-width="0.33" d="M354.27,-67.96C374.33,-60.01 411.17,-44.93 441.5,-29.7 442.33,-29.28 443.17,-28.85 444.01,-28.41"/>
<polygon fill="red" stroke="red" stroke-width="0.33" points="445.89,-31.37 452.95,-23.46 442.5,-25.24 445.89,-31.37"/>
</g>
</g>
</svg>
