<?xml version="1.0" encoding="UTF-8" standalone="no"?>
<!DOCTYPE svg PUBLIC "-//W3C//DTD SVG 1.1//EN"
 "http://www.w3.org/Graphics/SVG/1.1/DTD/svg11.dtd">
<!-- Generated by graphviz version 2.49.0 (20210828.1703)
 -->
<!-- Pages: 1 -->
<svg width="886pt" height="92pt"
 viewBox="0.00 0.00 886.00 91.70" xmlns="http://www.w3.org/2000/svg" xmlns:xlink="http://www.w3.org/1999/xlink">
<g id="graph0" class="graph" transform="scale(1 1) rotate(0) translate(4 87.7)">
<polygon fill="white" stroke="transparent" points="-4,4 -4,-87.7 882,-87.7 882,4 -4,4"/>
<!-- &#45;1 -->
<g id="node1" class="node">
<title>&#45;1</title>
<polygon fill="lightgray" stroke="black" points="668,-83.7 644,-83.7 644,-65.7 668,-65.7 668,-83.7"/>
<text text-anchor="middle" x="656" y="-72.5" font-family="Times New Roman,serif" font-size="9.00">&#45;1</text>
</g>
<!-- 0 -->
<g id="node21" class="node">
<title>0</title>
<ellipse fill="lightblue" stroke="black" cx="542" cy="-14.85" rx="14.7" ry="14.7"/>
<text text-anchor="middle" x="542" y="-12.65" font-family="Times New Roman,serif" font-size="9.00">0</text>
</g>
<!-- &#45;1&#45;&gt;0 -->
<g id="edge1" class="edge">
<title>&#45;1&#45;&gt;0</title>
<path fill="none" stroke="green" stroke-width="0.88" d="M643.8,-67.51C624.82,-57.88 587.93,-39.16 564.16,-27.09"/>
<polygon fill="green" stroke="green" stroke-width="0.88" points="565.66,-23.93 555.16,-22.53 562.49,-30.17 565.66,-23.93"/>
</g>
<!-- 1 -->
<g id="node22" class="node">
<title>1</title>
<ellipse fill="lightblue" stroke="black" cx="350" cy="-14.85" rx="14.7" ry="14.7"/>
<text text-anchor="middle" x="350" y="-12.65" font-family="Times New Roman,serif" font-size="9.00">1</text>
</g>
<!-- &#45;1&#45;&gt;1 -->
<g id="edge2" class="edge">
<title>&#45;1&#45;&gt;1</title>
<path fill="none" stroke="red" stroke-width="0.2" d="M643.71,-68.49C640.89,-67.44 637.87,-66.43 635,-65.7 521.56,-36.67 484.77,-67.67 374,-29.7 373.12,-29.4 372.24,-29.06 371.37,-28.7"/>
<polygon fill="red" stroke="red" stroke-width="0.2" points="372.78,-25.5 362.27,-24.14 369.64,-31.75 372.78,-25.5"/>
</g>
<!-- 2 -->
<g id="node23" class="node">
<title>2</title>
<ellipse fill="lightblue" stroke="black" cx="398" cy="-14.85" rx="14.7" ry="14.7"/>
<text text-anchor="middle" x="398" y="-12.65" font-family="Times New Roman,serif" font-size="9.00">2</text>
</g>
<!-- &#45;1&#45;&gt;2 -->
<g id="edge3" class="edge">
<title>&#45;1&#45;&gt;2</title>
<path fill="none" stroke="green" stroke-width="0.32" d="M643.7,-68.55C640.87,-67.5 637.86,-66.48 635,-65.7 542.36,-40.49 512.34,-62.2 422,-29.7 421.13,-29.38 420.25,-29.04 419.38,-28.67"/>
<polygon fill="green" stroke="green" stroke-width="0.32" points="420.8,-25.47 410.3,-24.06 417.63,-31.71 420.8,-25.47"/>
</g>
<!-- 3 -->
<g id="node24" class="node">
<title>3</title>
<ellipse fill="lightblue" stroke="black" cx="446" cy="-14.85" rx="14.7" ry="14.7"/>
<text text-anchor="middle" x="446" y="-12.65" font-family="Times New Roman,serif" font-size="9.00">3</text>
</g>
<!-- &#45;1&#45;&gt;3 -->
<g id="edge4" class="edge">
<title>&#45;1&#45;&gt;3</title>
<path fill="none" stroke="red" stroke-width="0.41" d="M643.67,-68.65C640.85,-67.59 637.84,-66.54 635,-65.7 563.06,-44.28 540,-56.78 470,-29.7 469.14,-29.36 468.27,-29 467.4,-28.62"/>
<polygon fill="red" stroke="red" stroke-width="0.41" points="468.83,-25.42 458.34,-23.94 465.62,-31.64 468.83,-25.42"/>
</g>
<!-- 4 -->
<g id="node25" class="node">
<title>4</title>
<ellipse fill="lightblue" stroke="black" cx="494" cy="-14.85" rx="14.7" ry="14.7"/>
<text text-anchor="middle" x="494" y="-12.65" font-family="Times New Roman,serif" font-size="9.00">4</text>
</g>
<!-- &#45;1&#45;&gt;4 -->
<g id="edge5" class="edge">
<title>&#45;1&#45;&gt;4</title>
<path fill="none" stroke="red" stroke-width="0.6" d="M643.61,-68.83C640.79,-67.76 637.8,-66.66 635,-65.7 583.55,-48 567.88,-51.43 518,-29.7 517.15,-29.33 516.29,-28.94 515.44,-28.53"/>
<polygon fill="red" stroke="red" stroke-width="0.6" points="516.9,-25.34 506.43,-23.73 513.61,-31.52 516.9,-25.34"/>
</g>
<!-- &#45;2 -->
<g id="node2" class="node">
<title>&#45;2</title>
<polygon fill="lightgray" stroke="black" points="710,-83.7 686,-83.7 686,-65.7 710,-65.7 710,-83.7"/>
<text text-anchor="middle" x="698" y="-72.5" font-family="Times New Roman,serif" font-size="9.00">&#45;2</text>
</g>
<!-- &#45;2&#45;&gt;0 -->
<g id="edge6" class="edge">
<title>&#45;2&#45;&gt;0</title>
<path fill="none" stroke="green" stroke-width="0.13" d="M685.57,-68.94C682.75,-67.87 679.78,-66.74 677,-65.7 637.97,-51.06 592.47,-34.33 565.51,-24.45"/>
<polygon fill="green" stroke="green" stroke-width="0.13" points="566.41,-21.05 555.82,-20.9 564,-27.62 566.41,-21.05"/>
</g>
<!-- &#45;2&#45;&gt;1 -->
<g id="edge7" class="edge">
<title>&#45;2&#45;&gt;1</title>
<path fill="none" stroke="red" stroke-width="0.61" d="M685.72,-68.45C682.9,-67.4 679.88,-66.41 677,-65.7 545.31,-33.32 502.69,-72.46 374,-29.7 373.12,-29.41 372.24,-29.08 371.36,-28.73"/>
<polygon fill="red" stroke="red" stroke-width="0.61" points="372.76,-25.52 362.25,-24.19 369.64,-31.78 372.76,-25.52"/>
</g>
<!-- &#45;2&#45;&gt;2 -->
<g id="edge8" class="edge">
<title>&#45;2&#45;&gt;2</title>
<path fill="none" stroke="green" stroke-width="0.17" d="M685.71,-68.49C682.89,-67.44 679.87,-66.44 677,-65.7 566.16,-37.15 530.21,-66.98 422,-29.7 421.12,-29.4 420.24,-29.06 419.37,-28.7"/>
<polygon fill="green" stroke="green" stroke-width="0.17" points="420.78,-25.49 410.27,-24.13 417.64,-31.75 420.78,-25.49"/>
</g>
<!-- &#45;2&#45;&gt;3 -->
<g id="edge9" class="edge">
<title>&#45;2&#45;&gt;3</title>
<path fill="none" stroke="red" stroke-width="0.39" d="M685.69,-68.56C682.87,-67.51 679.86,-66.48 677,-65.7 586.95,-40.96 557.79,-61.52 470,-29.7 469.13,-29.38 468.25,-29.04 467.38,-28.67"/>
<polygon fill="red" stroke="red" stroke-width="0.39" points="468.8,-25.46 458.3,-24.05 465.63,-31.7 468.8,-25.46"/>
</g>
<!-- &#45;2&#45;&gt;4 -->
<g id="edge10" class="edge">
<title>&#45;2&#45;&gt;4</title>
<path fill="none" stroke="red" stroke-width="0.26" d="M685.66,-68.67C682.84,-67.61 679.84,-66.56 677,-65.7 607.64,-44.75 585.47,-56.1 518,-29.7 517.14,-29.36 516.27,-29 515.4,-28.61"/>
<polygon fill="red" stroke="red" stroke-width="0.26" points="516.84,-25.41 506.35,-23.92 513.62,-31.63 516.84,-25.41"/>
</g>
<!-- &#45;3 -->
<g id="node3" class="node">
<title>&#45;3</title>
<polygon fill="lightgray" stroke="black" points="752,-83.7 728,-83.7 728,-65.7 752,-65.7 752,-83.7"/>
<text text-anchor="middle" x="740" y="-72.5" font-family="Times New Roman,serif" font-size="9.00">&#45;3</text>
</g>
<!-- &#45;3&#45;&gt;0 -->
<g id="edge11" class="edge">
<title>&#45;3&#45;&gt;0</title>
<path fill="none" stroke="red" stroke-width="0.12" d="M727.63,-68.78C724.81,-67.71 721.82,-66.63 719,-65.7 665.12,-47.89 600.72,-30.78 566.39,-21.98"/>
<polygon fill="red" stroke="red" stroke-width="0.12" points="566.91,-18.5 556.36,-19.43 565.18,-25.28 566.91,-18.5"/>
</g>
<!-- &#45;3&#45;&gt;1 -->
<g id="edge12" class="edge">
<title>&#45;3&#45;&gt;1</title>
<path fill="none" stroke="red" stroke-width="0.17" d="M727.73,-68.41C724.91,-67.37 721.88,-66.39 719,-65.7 569.03,-29.96 520.64,-77.27 374,-29.7 372.95,-29.36 371.89,-28.97 370.84,-28.53"/>
<polygon fill="red" stroke="red" stroke-width="0.17" points="372.25,-25.33 361.75,-23.94 369.09,-31.57 372.25,-25.33"/>
</g>
<!-- &#45;3&#45;&gt;2 -->
<g id="edge13" class="edge">
<title>&#45;3&#45;&gt;2</title>
<path fill="none" stroke="red" stroke-width="0.5" d="M727.72,-68.45C724.9,-67.4 721.88,-66.41 719,-65.7 589.92,-33.79 548.13,-71.78 422,-29.7 421.12,-29.41 420.24,-29.08 419.36,-28.72"/>
<polygon fill="red" stroke="red" stroke-width="0.5" points="420.76,-25.51 410.25,-24.18 417.64,-31.78 420.76,-25.51"/>
</g>
<!-- &#45;3&#45;&gt;3 -->
<g id="edge14" class="edge">
<title>&#45;3&#45;&gt;3</title>
<path fill="none" stroke="red" stroke-width="0.17" d="M727.71,-68.5C724.89,-67.45 721.87,-66.44 719,-65.7 610.76,-37.62 575.66,-66.3 470,-29.7 469.12,-29.4 468.25,-29.06 467.37,-28.7"/>
<polygon fill="red" stroke="red" stroke-width="0.17" points="468.78,-25.49 458.27,-24.12 465.63,-31.74 468.78,-25.49"/>
</g>
<!-- &#45;3&#45;&gt;4 -->
<g id="edge15" class="edge">
<title>&#45;3&#45;&gt;4</title>
<path fill="none" stroke="red" stroke-width="0.87" stroke-dasharray="1,5" d="M727.69,-68.57C724.87,-67.52 721.86,-66.49 719,-65.7 631.55,-41.44 603.24,-60.84 518,-29.7 517.13,-29.38 516.26,-29.03 515.38,-28.66"/>
<polygon fill="red" stroke="red" stroke-width="0.87" points="516.8,-25.46 506.3,-24.04 513.63,-31.69 516.8,-25.46"/>
</g>
<!-- &#45;4 -->
<g id="node4" class="node">
<title>&#45;4</title>
<polygon fill="lightgray" stroke="black" points="794,-83.7 770,-83.7 770,-65.7 794,-65.7 794,-83.7"/>
<text text-anchor="middle" x="782" y="-72.5" font-family="Times New Roman,serif" font-size="9.00">&#45;4</text>
</g>
<!-- &#45;4&#45;&gt;0 -->
<g id="edge16" class="edge">
<title>&#45;4&#45;&gt;0</title>
<path fill="none" stroke="red" stroke-width="0.11" d="M769.66,-68.67C766.84,-67.61 763.84,-66.56 761,-65.7 691.45,-44.65 607.11,-27.83 566.37,-20.24"/>
<polygon fill="red" stroke="red" stroke-width="0.11" points="567,-16.79 556.53,-18.43 565.73,-23.68 567,-16.79"/>
</g>
<!-- &#45;4&#45;&gt;1 -->
<g id="edge17" class="edge">
<title>&#45;4&#45;&gt;1</title>
<path fill="none" stroke="red" stroke-width="0.61" d="M769.74,-68.39C766.91,-67.35 763.89,-66.37 761,-65.7 592.74,-26.59 538.61,-82.08 374,-29.7 372.95,-29.36 371.89,-28.98 370.83,-28.55"/>
<polygon fill="red" stroke="red" stroke-width="0.61" points="372.24,-25.34 361.74,-23.97 369.09,-31.59 372.24,-25.34"/>
</g>
<!-- &#45;4&#45;&gt;2 -->
<g id="edge18" class="edge">
<title>&#45;4&#45;&gt;2</title>
<path fill="none" stroke="green" stroke-width="0.48" d="M769.73,-68.42C766.91,-67.37 763.88,-66.39 761,-65.7 613.65,-30.44 566.08,-76.58 422,-29.7 421.12,-29.41 420.24,-29.09 419.35,-28.74"/>
<polygon fill="green" stroke="green" stroke-width="0.48" points="420.75,-25.53 410.24,-24.22 417.65,-31.8 420.75,-25.53"/>
</g>
<!-- &#45;4&#45;&gt;3 -->
<g id="edge19" class="edge">
<title>&#45;4&#45;&gt;3</title>
<path fill="none" stroke="green" stroke-width="0.83" d="M769.72,-68.46C766.9,-67.41 763.88,-66.41 761,-65.7 634.53,-34.27 593.57,-71.09 470,-29.7 469.12,-29.4 468.24,-29.08 467.36,-28.72"/>
<polygon fill="green" stroke="green" stroke-width="0.83" points="468.77,-25.51 458.26,-24.18 465.64,-31.77 468.77,-25.51"/>
</g>
<!-- &#45;4&#45;&gt;4 -->
<g id="edge20" class="edge">
<title>&#45;4&#45;&gt;4</title>
<path fill="none" stroke="green" stroke-width="0.42" d="M769.71,-68.51C766.89,-67.46 763.87,-66.45 761,-65.7 655.37,-38.1 621.1,-65.62 518,-29.7 517.13,-29.39 516.25,-29.06 515.37,-28.69"/>
<polygon fill="green" stroke="green" stroke-width="0.42" points="516.78,-25.49 506.28,-24.11 513.63,-31.74 516.78,-25.49"/>
</g>
<!-- &#45;5 -->
<g id="node5" class="node">
<title>&#45;5</title>
<polygon fill="lightgray" stroke="black" points="836,-83.7 812,-83.7 812,-65.7 836,-65.7 836,-83.7"/>
<text text-anchor="middle" x="824" y="-72.5" font-family="Times New Roman,serif" font-size="9.00">&#45;5</text>
</g>
<!-- &#45;5&#45;&gt;0 -->
<g id="edge21" class="edge">
<title>&#45;5&#45;&gt;0</title>
<path fill="none" stroke="green" stroke-width="0.2" d="M811.68,-68.59C808.86,-67.54 805.85,-66.51 803,-65.7 717.74,-41.52 613.47,-25.56 566.73,-19.1"/>
<polygon fill="green" stroke="green" stroke-width="0.2" points="567.02,-15.6 556.64,-17.73 566.08,-22.54 567.02,-15.6"/>
</g>
<!-- &#45;5&#45;&gt;1 -->
<g id="edge22" class="edge">
<title>&#45;5&#45;&gt;1</title>
<path fill="none" stroke="green" stroke-width="0.12" d="M811.74,-68.37C808.92,-67.33 805.89,-66.36 803,-65.7 616.44,-23.22 556.59,-86.89 374,-29.7 372.94,-29.37 371.88,-28.98 370.83,-28.56"/>
<polygon fill="green" stroke="green" stroke-width="0.12" points="372.24,-25.35 361.73,-23.99 369.09,-31.61 372.24,-25.35"/>
</g>
<!-- &#45;5&#45;&gt;2 -->
<g id="edge23" class="edge">
<title>&#45;5&#45;&gt;2</title>
<path fill="none" stroke="red" stroke-width="0.34" d="M811.74,-68.39C808.91,-67.35 805.89,-66.37 803,-65.7 637.36,-27.07 584.04,-81.39 422,-29.7 420.95,-29.36 419.89,-28.97 418.83,-28.55"/>
<polygon fill="red" stroke="red" stroke-width="0.34" points="420.24,-25.34 409.74,-23.96 417.09,-31.59 420.24,-25.34"/>
</g>
<!-- &#45;5&#45;&gt;3 -->
<g id="edge24" class="edge">
<title>&#45;5&#45;&gt;3</title>
<path fill="none" stroke="green" stroke-width="0.33" d="M811.73,-68.42C808.91,-67.38 805.88,-66.39 803,-65.7 658.26,-30.92 611.51,-75.89 470,-29.7 469.12,-29.41 468.24,-29.09 467.35,-28.74"/>
<polygon fill="green" stroke="green" stroke-width="0.33" points="468.76,-25.53 458.24,-24.22 465.64,-31.8 468.76,-25.53"/>
</g>
<!-- &#45;5&#45;&gt;4 -->
<g id="edge25" class="edge">
<title>&#45;5&#45;&gt;4</title>
<path fill="none" stroke="green" stroke-width="0.87" stroke-dasharray="1,5" d="M811.72,-68.46C808.9,-67.41 805.88,-66.42 803,-65.7 679.13,-34.75 639.01,-70.41 518,-29.7 517.12,-29.4 516.24,-29.07 515.36,-28.72"/>
<polygon fill="green" stroke="green" stroke-width="0.87" points="516.77,-25.51 506.26,-24.17 513.64,-31.77 516.77,-25.51"/>
</g>
<!-- &#45;6 -->
<g id="node6" class="node">
<title>&#45;6</title>
<polygon fill="lightgray" stroke="black" points="878,-83.7 854,-83.7 854,-65.7 878,-65.7 878,-83.7"/>
<text text-anchor="middle" x="866" y="-72.5" font-family="Times New Roman,serif" font-size="9.00">&#45;6</text>
</g>
<!-- &#45;6&#45;&gt;0 -->
<g id="edge26" class="edge">
<title>&#45;6&#45;&gt;0</title>
<path fill="none" stroke="green" stroke-width="0.49" stroke-dasharray="1,5" d="M853.7,-68.54C850.88,-67.49 847.86,-66.47 845,-65.7 743.61,-38.34 618.85,-23.57 566.72,-18.21"/>
<polygon fill="green" stroke="green" stroke-width="0.49" points="567.03,-14.73 556.73,-17.21 566.33,-21.69 567.03,-14.73"/>
</g>
<!-- &#45;6&#45;&gt;1 -->
<g id="edge27" class="edge">
<title>&#45;6&#45;&gt;1</title>
<path fill="none" stroke="green" stroke-width="0.57" d="M853.75,-68.36C850.92,-67.31 847.89,-66.35 845,-65.7 640.12,-19.86 574.58,-91.71 374,-29.7 372.94,-29.37 371.88,-28.99 370.83,-28.57"/>
<polygon fill="green" stroke="green" stroke-width="0.57" points="372.23,-25.36 361.72,-24.01 369.1,-31.62 372.23,-25.36"/>
</g>
<!-- &#45;6&#45;&gt;2 -->
<g id="edge28" class="edge">
<title>&#45;6&#45;&gt;2</title>
<path fill="none" stroke="green" stroke-width="0.12" d="M853.74,-68.37C850.92,-67.33 847.89,-66.36 845,-65.7 661.05,-23.71 602.02,-86.2 422,-29.7 420.94,-29.37 419.88,-28.98 418.83,-28.56"/>
<polygon fill="green" stroke="green" stroke-width="0.12" points="420.24,-25.35 409.73,-23.99 417.09,-31.6 420.24,-25.35"/>
</g>
<!-- &#45;6&#45;&gt;3 -->
<g id="edge29" class="edge">
<title>&#45;6&#45;&gt;3</title>
<path fill="none" stroke="green" stroke-width="0.54" d="M853.74,-68.4C850.91,-67.35 847.89,-66.37 845,-65.7 681.97,-27.55 629.48,-80.7 470,-29.7 468.95,-29.36 467.89,-28.97 466.83,-28.55"/>
<polygon fill="green" stroke="green" stroke-width="0.54" points="468.24,-25.34 457.74,-23.96 465.09,-31.59 468.24,-25.34"/>
</g>
<!-- &#45;6&#45;&gt;4 -->
<g id="edge30" class="edge">
<title>&#45;6&#45;&gt;4</title>
<path fill="none" stroke="green" stroke-width="0.25" stroke-dasharray="1,5" d="M853.73,-68.43C850.9,-67.38 847.88,-66.39 845,-65.7 702.87,-31.4 656.95,-75.21 518,-29.7 517.12,-29.41 516.24,-29.09 515.36,-28.74"/>
<polygon fill="green" stroke="green" stroke-width="0.25" points="516.76,-25.52 506.24,-24.21 513.64,-31.79 516.76,-25.52"/>
</g>
<!-- &#45;7 -->
<g id="node7" class="node">
<title>&#45;7</title>
<polygon fill="lightgray" stroke="black" points="24,-83.7 0,-83.7 0,-65.7 24,-65.7 24,-83.7"/>
<text text-anchor="middle" x="12" y="-72.5" font-family="Times New Roman,serif" font-size="9.00">&#45;7</text>
</g>
<!-- &#45;7&#45;&gt;0 -->
<g id="edge31" class="edge">
<title>&#45;7&#45;&gt;0</title>
<path fill="none" stroke="red" stroke-width="0.81" d="M24.25,-68.35C27.08,-67.31 30.11,-66.34 33,-65.7 243.98,-18.73 311.42,-93.31 518,-29.7 519.06,-29.37 520.12,-28.99 521.17,-28.57"/>
<polygon fill="red" stroke="red" stroke-width="0.81" points="522.9,-31.62 530.28,-24.01 519.77,-25.36 522.9,-31.62"/>
</g>
<!-- &#45;7&#45;&gt;1 -->
<g id="edge32" class="edge">
<title>&#45;7&#45;&gt;1</title>
<path fill="none" stroke="red" stroke-width="0.61" d="M24.3,-68.53C27.12,-67.48 30.13,-66.46 33,-65.7 139.78,-37.29 271.38,-22.98 325.25,-17.97"/>
<polygon fill="red" stroke="red" stroke-width="0.61" points="325.6,-21.46 335.24,-17.07 324.97,-14.49 325.6,-21.46"/>
</g>
<!-- &#45;7&#45;&gt;2 -->
<g id="edge33" class="edge">
<title>&#45;7&#45;&gt;2</title>
<path fill="none" stroke="red" stroke-width="0.26" d="M24.27,-68.42C27.09,-67.37 30.12,-66.39 33,-65.7 181.22,-30.28 229.07,-76.81 374,-29.7 375.05,-29.36 376.11,-28.96 377.16,-28.53"/>
<polygon fill="red" stroke="red" stroke-width="0.26" points="378.91,-31.57 386.25,-23.93 375.75,-25.32 378.91,-31.57"/>
</g>
<!-- &#45;7&#45;&gt;3 -->
<g id="edge34" class="edge">
<title>&#45;7&#45;&gt;3</title>
<path fill="none" stroke="red" stroke-width="0.19" stroke-dasharray="1,5" d="M24.26,-68.39C27.09,-67.35 30.11,-66.37 33,-65.7 202.13,-26.43 256.53,-82.31 422,-29.7 423.05,-29.36 424.11,-28.98 425.17,-28.55"/>
<polygon fill="red" stroke="red" stroke-width="0.19" points="426.91,-31.59 434.26,-23.97 423.76,-25.34 426.91,-31.59"/>
</g>
<!-- &#45;7&#45;&gt;4 -->
<g id="edge35" class="edge">
<title>&#45;7&#45;&gt;4</title>
<path fill="none" stroke="green" stroke-width="0.6" d="M24.26,-68.37C27.08,-67.33 30.11,-66.35 33,-65.7 223.05,-22.58 283.98,-87.81 470,-29.7 471.06,-29.37 472.12,-28.99 473.17,-28.56"/>
<polygon fill="green" stroke="green" stroke-width="0.6" points="474.91,-31.61 482.27,-23.99 471.76,-25.35 474.91,-31.61"/>
</g>
<!-- &#45;8 -->
<g id="node8" class="node">
<title>&#45;8</title>
<polygon fill="lightgray" stroke="black" points="66,-83.7 42,-83.7 42,-65.7 66,-65.7 66,-83.7"/>
<text text-anchor="middle" x="54" y="-72.5" font-family="Times New Roman,serif" font-size="9.00">&#45;8</text>
</g>
<!-- &#45;8&#45;&gt;0 -->
<g id="edge36" class="edge">
<title>&#45;8&#45;&gt;0</title>
<path fill="none" stroke="red" stroke-width="0.56" d="M66.26,-68.37C69.08,-67.32 72.11,-66.35 75,-65.7 267.67,-22.1 329.42,-88.5 518,-29.7 519.06,-29.37 520.12,-28.99 521.17,-28.56"/>
<polygon fill="red" stroke="red" stroke-width="0.56" points="522.91,-31.61 530.27,-24 519.77,-25.35 522.91,-31.61"/>
</g>
<!-- &#45;8&#45;&gt;1 -->
<g id="edge37" class="edge">
<title>&#45;8&#45;&gt;1</title>
<path fill="none" stroke="red" stroke-width="0.17" stroke-dasharray="1,5" d="M66.31,-68.58C69.13,-67.52 72.14,-66.49 75,-65.7 165.41,-40.51 276.2,-24.93 324.95,-18.81"/>
<polygon fill="red" stroke="red" stroke-width="0.17" points="325.68,-22.25 335.18,-17.56 324.82,-15.3 325.68,-22.25"/>
</g>
<!-- &#45;8&#45;&gt;2 -->
<g id="edge38" class="edge">
<title>&#45;8&#45;&gt;2</title>
<path fill="none" stroke="green" stroke-width="0.33" d="M66.28,-68.45C69.1,-67.4 72.12,-66.41 75,-65.7 204.95,-33.64 247.01,-72.01 374,-29.7 374.88,-29.41 375.76,-29.08 376.64,-28.72"/>
<polygon fill="green" stroke="green" stroke-width="0.33" points="378.36,-31.78 385.75,-24.19 375.24,-25.51 378.36,-31.78"/>
</g>
<!-- &#45;8&#45;&gt;3 -->
<g id="edge39" class="edge">
<title>&#45;8&#45;&gt;3</title>
<path fill="none" stroke="red" stroke-width="0.56" stroke-dasharray="1,5" d="M66.27,-68.41C69.09,-67.37 72.12,-66.39 75,-65.7 225.84,-29.8 274.5,-77.5 422,-29.7 423.05,-29.36 424.11,-28.97 425.16,-28.54"/>
<polygon fill="red" stroke="red" stroke-width="0.56" points="426.91,-31.57 434.25,-23.94 423.75,-25.33 426.91,-31.57"/>
</g>
<!-- &#45;8&#45;&gt;4 -->
<g id="edge40" class="edge">
<title>&#45;8&#45;&gt;4</title>
<path fill="none" stroke="red" stroke-width="0.54" d="M66.26,-68.39C69.09,-67.34 72.11,-66.37 75,-65.7 246.74,-25.95 301.97,-82.99 470,-29.7 471.05,-29.36 472.11,-28.98 473.17,-28.55"/>
<polygon fill="red" stroke="red" stroke-width="0.54" points="474.91,-31.59 482.27,-23.97 471.76,-25.34 474.91,-31.59"/>
</g>
<!-- &#45;9 -->
<g id="node9" class="node">
<title>&#45;9</title>
<polygon fill="lightgray" stroke="black" points="108,-83.7 84,-83.7 84,-65.7 108,-65.7 108,-83.7"/>
<text text-anchor="middle" x="96" y="-72.5" font-family="Times New Roman,serif" font-size="9.00">&#45;9</text>
</g>
<!-- &#45;9&#45;&gt;0 -->
<g id="edge41" class="edge">
<title>&#45;9&#45;&gt;0</title>
<path fill="none" stroke="red" stroke-width="0.19" stroke-dasharray="1,5" d="M108.26,-68.38C111.09,-67.34 114.11,-66.37 117,-65.7 291.36,-25.47 347.4,-83.68 518,-29.7 519.05,-29.36 520.11,-28.98 521.17,-28.55"/>
<polygon fill="red" stroke="red" stroke-width="0.19" points="522.91,-31.6 530.27,-23.97 519.76,-25.34 522.91,-31.6"/>
</g>
<!-- &#45;9&#45;&gt;1 -->
<g id="edge42" class="edge">
<title>&#45;9&#45;&gt;1</title>
<path fill="none" stroke="red" stroke-width="0.2" d="M108.33,-68.64C111.15,-67.59 114.16,-66.54 117,-65.7 191.63,-43.64 282.4,-27.08 325.29,-19.85"/>
<polygon fill="red" stroke="red" stroke-width="0.2" points="326.06,-23.27 335.35,-18.18 324.92,-16.37 326.06,-23.27"/>
</g>
<!-- &#45;9&#45;&gt;2 -->
<g id="edge43" class="edge">
<title>&#45;9&#45;&gt;2</title>
<path fill="none" stroke="green" stroke-width="0.12" stroke-dasharray="1,5" d="M108.29,-68.49C111.11,-67.44 114.13,-66.44 117,-65.7 228.71,-36.99 264.93,-67.21 374,-29.7 374.88,-29.4 375.76,-29.06 376.63,-28.7"/>
<polygon fill="green" stroke="green" stroke-width="0.12" points="378.36,-31.75 385.73,-24.14 375.22,-25.49 378.36,-31.75"/>
</g>
<!-- &#45;9&#45;&gt;3 -->
<g id="edge44" class="edge">
<title>&#45;9&#45;&gt;3</title>
<path fill="none" stroke="red" stroke-width="0.33" d="M108.28,-68.44C111.1,-67.4 114.12,-66.41 117,-65.7 249.56,-33.16 292.45,-72.69 422,-29.7 422.88,-29.41 423.76,-29.08 424.64,-28.73"/>
<polygon fill="red" stroke="red" stroke-width="0.33" points="426.36,-31.78 433.75,-24.19 423.24,-25.52 426.36,-31.78"/>
</g>
<!-- &#45;9&#45;&gt;4 -->
<g id="edge45" class="edge">
<title>&#45;9&#45;&gt;4</title>
<path fill="none" stroke="red" stroke-width="0.15" stroke-dasharray="1,5" d="M108.27,-68.41C111.09,-67.37 114.11,-66.38 117,-65.7 270.45,-29.32 319.94,-78.18 470,-29.7 471.05,-29.36 472.11,-28.97 473.16,-28.54"/>
<polygon fill="red" stroke="red" stroke-width="0.15" points="474.91,-31.58 482.26,-23.94 471.75,-25.33 474.91,-31.58"/>
</g>
<!-- &#45;10 -->
<g id="node10" class="node">
<title>&#45;10</title>
<polygon fill="lightgray" stroke="black" points="155.5,-83.7 126.5,-83.7 126.5,-65.7 155.5,-65.7 155.5,-83.7"/>
<text text-anchor="middle" x="141" y="-72.5" font-family="Times New Roman,serif" font-size="9.00">&#45;10</text>
</g>
<!-- &#45;10&#45;&gt;0 -->
<g id="edge46" class="edge">
<title>&#45;10&#45;&gt;0</title>
<path fill="none" stroke="green" stroke-width="0.56" d="M155.95,-67.94C158.6,-67.08 161.36,-66.28 164,-65.7 318.4,-31.49 367.51,-78.3 518,-29.7 519.05,-29.36 520.11,-28.97 521.16,-28.54"/>
<polygon fill="green" stroke="green" stroke-width="0.56" points="522.91,-31.58 530.26,-23.94 519.75,-25.33 522.91,-31.58"/>
</g>
<!-- &#45;10&#45;&gt;1 -->
<g id="edge47" class="edge">
<title>&#45;10&#45;&gt;1</title>
<path fill="none" stroke="green" stroke-width="0.17" d="M155.55,-68.46C158.34,-67.5 161.25,-66.54 164,-65.7 221.34,-48.07 289.68,-30.66 325.43,-21.83"/>
<polygon fill="green" stroke="green" stroke-width="0.17" points="326.55,-25.16 335.43,-19.37 324.88,-18.36 326.55,-25.16"/>
</g>
<!-- &#45;10&#45;&gt;2 -->
<g id="edge48" class="edge">
<title>&#45;10&#45;&gt;2</title>
<path fill="none" stroke="red" stroke-width="0.13" d="M155.98,-68.09C158.63,-67.21 161.38,-66.37 164,-65.7 255.7,-42.06 284.94,-61.86 374,-29.7 374.87,-29.38 375.75,-29.04 376.62,-28.67"/>
<polygon fill="red" stroke="red" stroke-width="0.13" points="378.37,-31.71 385.7,-24.06 375.2,-25.46 378.37,-31.71"/>
</g>
<!-- &#45;10&#45;&gt;3 -->
<g id="edge49" class="edge">
<title>&#45;10&#45;&gt;3</title>
<path fill="none" stroke="green" stroke-width="0.35" d="M155.97,-68.02C158.62,-67.15 161.37,-66.33 164,-65.7 276.55,-38.55 312.51,-67.33 422,-29.7 422.88,-29.4 423.76,-29.06 424.63,-28.7"/>
<polygon fill="green" stroke="green" stroke-width="0.35" points="426.36,-31.75 433.73,-24.14 423.22,-25.49 426.36,-31.75"/>
</g>
<!-- &#45;10&#45;&gt;4 -->
<g id="edge50" class="edge">
<title>&#45;10&#45;&gt;4</title>
<path fill="none" stroke="red" stroke-width="0.78" d="M155.96,-67.97C158.61,-67.11 161.36,-66.3 164,-65.7 297.46,-35.02 340.02,-72.81 470,-29.7 470.88,-29.41 471.76,-29.08 472.64,-28.73"/>
<polygon fill="red" stroke="red" stroke-width="0.78" points="474.36,-31.78 481.75,-24.19 471.24,-25.52 474.36,-31.78"/>
</g>
<!-- &#45;11 -->
<g id="node11" class="node">
<title>&#45;11</title>
<polygon fill="lightgray" stroke="black" points="202.5,-83.7 173.5,-83.7 173.5,-65.7 202.5,-65.7 202.5,-83.7"/>
<text text-anchor="middle" x="188" y="-72.5" font-family="Times New Roman,serif" font-size="9.00">&#45;11</text>
</g>
<!-- &#45;11&#45;&gt;0 -->
<g id="edge51" class="edge">
<title>&#45;11&#45;&gt;0</title>
<path fill="none" stroke="red" stroke-width="0.34" d="M202.96,-67.97C205.61,-67.11 208.36,-66.3 211,-65.7 344.89,-34.95 387.6,-72.92 518,-29.7 518.88,-29.41 519.76,-29.08 520.64,-28.73"/>
<polygon fill="red" stroke="red" stroke-width="0.34" points="522.36,-31.78 529.75,-24.19 519.24,-25.52 522.36,-31.78"/>
</g>
<!-- &#45;11&#45;&gt;1 -->
<g id="edge52" class="edge">
<title>&#45;11&#45;&gt;1</title>
<path fill="none" stroke="red" stroke-width="0.1" d="M202.66,-68.46C230.75,-58.43 292.39,-36.42 326.36,-24.29"/>
<polygon fill="red" stroke="red" stroke-width="0.1" points="327.71,-27.53 335.95,-20.87 325.36,-20.93 327.71,-27.53"/>
</g>
<!-- &#45;11&#45;&gt;2 -->
<g id="edge53" class="edge">
<title>&#45;11&#45;&gt;2</title>
<path fill="none" stroke="green" stroke-width="0.73" d="M202.52,-68.36C205.31,-67.41 208.23,-66.48 211,-65.7 282.38,-45.48 304.84,-56.55 374,-29.7 374.86,-29.36 375.73,-29 376.6,-28.62"/>
<polygon fill="green" stroke="green" stroke-width="0.73" points="378.38,-31.64 385.66,-23.93 375.17,-25.42 378.38,-31.64"/>
</g>
<!-- &#45;11&#45;&gt;3 -->
<g id="edge54" class="edge">
<title>&#45;11&#45;&gt;3</title>
<path fill="none" stroke="red" stroke-width="0.46" d="M202.98,-68.09C205.63,-67.21 208.38,-66.37 211,-65.7 303.13,-41.99 332.51,-61.98 422,-29.7 422.87,-29.38 423.75,-29.04 424.62,-28.67"/>
<polygon fill="red" stroke="red" stroke-width="0.46" points="426.37,-31.71 433.7,-24.06 423.2,-25.46 426.37,-31.71"/>
</g>
<!-- &#45;11&#45;&gt;4 -->
<g id="edge55" class="edge">
<title>&#45;11&#45;&gt;4</title>
<path fill="none" stroke="red" stroke-width="0.34" d="M202.97,-68.02C205.62,-67.15 208.37,-66.33 211,-65.7 323.98,-38.48 360.08,-67.44 470,-29.7 470.88,-29.4 471.76,-29.06 472.63,-28.7"/>
<polygon fill="red" stroke="red" stroke-width="0.34" points="474.36,-31.75 481.73,-24.14 471.22,-25.5 474.36,-31.75"/>
</g>
<!-- &#45;12 -->
<g id="node12" class="node">
<title>&#45;12</title>
<polygon fill="lightgray" stroke="black" points="249.5,-83.7 220.5,-83.7 220.5,-65.7 249.5,-65.7 249.5,-83.7"/>
<text text-anchor="middle" x="235" y="-72.5" font-family="Times New Roman,serif" font-size="9.00">&#45;12</text>
</g>
<!-- &#45;12&#45;&gt;0 -->
<g id="edge56" class="edge">
<title>&#45;12&#45;&gt;0</title>
<path fill="none" stroke="green" stroke-width="0.22" d="M249.97,-68.02C252.62,-67.15 255.37,-66.33 258,-65.7 371.42,-38.4 407.65,-67.55 518,-29.7 518.88,-29.4 519.76,-29.06 520.63,-28.7"/>
<polygon fill="green" stroke="green" stroke-width="0.22" points="522.36,-31.75 529.73,-24.14 519.22,-25.5 522.36,-31.75"/>
</g>
<!-- &#45;12&#45;&gt;1 -->
<g id="edge57" class="edge">
<title>&#45;12&#45;&gt;1</title>
<path fill="none" stroke="red" stroke-width="0.17" d="M249.56,-66.37C269.34,-56.42 304.87,-38.55 327.93,-26.95"/>
<polygon fill="red" stroke="red" stroke-width="0.17" points="329.61,-30.02 336.97,-22.4 326.46,-23.77 329.61,-30.02"/>
</g>
<!-- &#45;12&#45;&gt;2 -->
<g id="edge58" class="edge">
<title>&#45;12&#45;&gt;2</title>
<path fill="none" stroke="red" stroke-width="0.66" d="M249.58,-68.55C252.37,-67.58 255.27,-66.6 258,-65.7 309.28,-48.83 324.54,-51.32 374,-29.7 374.85,-29.33 375.71,-28.93 376.56,-28.52"/>
<polygon fill="red" stroke="red" stroke-width="0.66" points="378.39,-31.52 385.57,-23.72 375.1,-25.34 378.39,-31.52"/>
</g>
<!-- &#45;12&#45;&gt;3 -->
<g id="edge59" class="edge">
<title>&#45;12&#45;&gt;3</title>
<path fill="none" stroke="red" stroke-width="0.19" d="M249.52,-68.36C252.31,-67.41 255.23,-66.48 258,-65.7 329.81,-45.4 352.42,-56.67 422,-29.7 422.86,-29.36 423.73,-29 424.6,-28.62"/>
<polygon fill="red" stroke="red" stroke-width="0.19" points="426.38,-31.64 433.66,-23.94 423.17,-25.42 426.38,-31.64"/>
</g>
<!-- &#45;12&#45;&gt;4 -->
<g id="edge60" class="edge">
<title>&#45;12&#45;&gt;4</title>
<path fill="none" stroke="green" stroke-width="0.25" d="M249.98,-68.08C252.63,-67.21 255.38,-66.37 258,-65.7 350.57,-41.92 380.09,-62.09 470,-29.7 470.87,-29.38 471.75,-29.04 472.62,-28.67"/>
<polygon fill="green" stroke="green" stroke-width="0.25" points="474.37,-31.71 481.7,-24.06 471.2,-25.47 474.37,-31.71"/>
</g>
<!-- &#45;13 -->
<g id="node13" class="node">
<title>&#45;13</title>
<polygon fill="lightgray" stroke="black" points="296.5,-83.7 267.5,-83.7 267.5,-65.7 296.5,-65.7 296.5,-83.7"/>
<text text-anchor="middle" x="282" y="-72.5" font-family="Times New Roman,serif" font-size="9.00">&#45;13</text>
</g>
<!-- &#45;13&#45;&gt;0 -->
<g id="edge61" class="edge">
<title>&#45;13&#45;&gt;0</title>
<path fill="none" stroke="red" stroke-width="0.31" d="M296.98,-68.08C299.63,-67.21 302.38,-66.37 305,-65.7 398,-41.84 427.66,-62.2 518,-29.7 518.87,-29.38 519.75,-29.04 520.62,-28.67"/>
<polygon fill="red" stroke="red" stroke-width="0.31" points="522.37,-31.71 529.7,-24.06 519.2,-25.47 522.37,-31.71"/>
</g>
<!-- &#45;13&#45;&gt;1 -->
<g id="edge62" class="edge">
<title>&#45;13&#45;&gt;1</title>
<path fill="none" stroke="red" stroke-width="0.25" d="M291.46,-65.65C301.63,-57 318.1,-42.99 330.97,-32.03"/>
<polygon fill="red" stroke="red" stroke-width="0.25" points="333.47,-34.51 338.82,-25.36 328.93,-29.18 333.47,-34.51"/>
</g>
<!-- &#45;13&#45;&gt;2 -->
<g id="edge63" class="edge">
<title>&#45;13&#45;&gt;2</title>
<path fill="none" stroke="red" stroke-width="0.19" stroke-dasharray="1,5" d="M296.51,-67.18C314.79,-58.87 347.06,-43.89 374,-29.7 374.82,-29.27 375.65,-28.82 376.49,-28.37"/>
<polygon fill="red" stroke="red" stroke-width="0.19" points="378.39,-31.31 385.4,-23.37 374.96,-25.21 378.39,-31.31"/>
</g>
<!-- &#45;13&#45;&gt;3 -->
<g id="edge64" class="edge">
<title>&#45;13&#45;&gt;3</title>
<path fill="none" stroke="red" stroke-width="0.5" d="M296.57,-68.54C299.36,-67.58 302.27,-66.59 305,-65.7 356.7,-48.76 372.12,-51.43 422,-29.7 422.85,-29.33 423.71,-28.94 424.56,-28.53"/>
<polygon fill="red" stroke="red" stroke-width="0.5" points="426.39,-31.52 433.57,-23.73 423.1,-25.34 426.39,-31.52"/>
</g>
<!-- &#45;13&#45;&gt;4 -->
<g id="edge65" class="edge">
<title>&#45;13&#45;&gt;4</title>
<path fill="none" stroke="red" stroke-width="0.26" d="M296.52,-68.35C299.31,-67.41 302.23,-66.48 305,-65.7 377.24,-45.33 400,-56.78 470,-29.7 470.86,-29.36 471.73,-29 472.6,-28.62"/>
<polygon fill="red" stroke="red" stroke-width="0.26" points="474.38,-31.64 481.66,-23.94 471.17,-25.42 474.38,-31.64"/>
</g>
<!-- &#45;14 -->
<g id="node14" class="node">
<title>&#45;14</title>
<polygon fill="lightgray" stroke="black" points="343.5,-83.7 314.5,-83.7 314.5,-65.7 343.5,-65.7 343.5,-83.7"/>
<text text-anchor="middle" x="329" y="-72.5" font-family="Times New Roman,serif" font-size="9.00">&#45;14</text>
</g>
<!-- &#45;14&#45;&gt;0 -->
<g id="edge66" class="edge">
<title>&#45;14&#45;&gt;0</title>
<path fill="none" stroke="red" stroke-width="0.47" d="M343.52,-68.35C346.31,-67.41 349.23,-66.48 352,-65.7 424.67,-45.26 447.57,-56.89 518,-29.7 518.86,-29.36 519.73,-29 520.6,-28.62"/>
<polygon fill="red" stroke="red" stroke-width="0.47" points="522.38,-31.64 529.66,-23.94 519.17,-25.42 522.38,-31.64"/>
</g>
<!-- &#45;14&#45;&gt;1 -->
<g id="edge67" class="edge">
<title>&#45;14&#45;&gt;1</title>
<path fill="none" stroke="red" stroke-width="0.19" d="M331.92,-65.65C334.46,-58.65 338.28,-48.15 341.75,-38.59"/>
<polygon fill="red" stroke="red" stroke-width="0.19" points="345.05,-39.75 345.17,-29.16 338.47,-37.36 345.05,-39.75"/>
</g>
<!-- &#45;14&#45;&gt;2 -->
<g id="edge68" class="edge">
<title>&#45;14&#45;&gt;2</title>
<path fill="none" stroke="green" stroke-width="0.46" d="M338.59,-65.65C349.04,-56.89 366.02,-42.66 379.15,-31.65"/>
<polygon fill="green" stroke="green" stroke-width="0.46" points="381.71,-34.07 387.12,-24.97 377.21,-28.71 381.71,-34.07"/>
</g>
<!-- &#45;14&#45;&gt;3 -->
<g id="edge69" class="edge">
<title>&#45;14&#45;&gt;3</title>
<path fill="none" stroke="green" stroke-width="0.49" stroke-dasharray="1,5" d="M343.68,-67.2C362.16,-58.92 394.79,-43.96 422,-29.7 422.82,-29.27 423.65,-28.83 424.49,-28.37"/>
<polygon fill="green" stroke="green" stroke-width="0.49" points="426.39,-31.32 433.4,-23.38 422.97,-25.21 426.39,-31.32"/>
</g>
<!-- &#45;14&#45;&gt;4 -->
<g id="edge70" class="edge">
<title>&#45;14&#45;&gt;4</title>
<path fill="none" stroke="red" stroke-width="0.37" d="M343.57,-68.53C346.36,-67.57 349.27,-66.59 352,-65.7 404.13,-48.69 419.71,-51.54 470,-29.7 470.85,-29.33 471.71,-28.94 472.57,-28.53"/>
<polygon fill="red" stroke="red" stroke-width="0.37" points="474.39,-31.52 481.57,-23.74 471.1,-25.34 474.39,-31.52"/>
</g>
<!-- &#45;15 -->
<g id="node15" class="node">
<title>&#45;15</title>
<polygon fill="lightgray" stroke="black" points="390.5,-83.7 361.5,-83.7 361.5,-65.7 390.5,-65.7 390.5,-83.7"/>
<text text-anchor="middle" x="376" y="-72.5" font-family="Times New Roman,serif" font-size="9.00">&#45;15</text>
</g>
<!-- &#45;15&#45;&gt;0 -->
<g id="edge71" class="edge">
<title>&#45;15&#45;&gt;0</title>
<path fill="none" stroke="red" stroke-width="0.6" d="M390.57,-68.53C393.36,-67.57 396.27,-66.59 399,-65.7 451.55,-48.62 467.29,-51.65 518,-29.7 518.85,-29.33 519.71,-28.94 520.57,-28.53"/>
<polygon fill="red" stroke="red" stroke-width="0.6" points="522.39,-31.53 529.58,-23.74 519.1,-25.35 522.39,-31.53"/>
</g>
<!-- &#45;15&#45;&gt;1 -->
<g id="edge72" class="edge">
<title>&#45;15&#45;&gt;1</title>
<path fill="none" stroke="red" stroke-width="0.16" d="M372.38,-65.65C369.16,-58.48 364.29,-47.64 359.91,-37.91"/>
<polygon fill="red" stroke="red" stroke-width="0.16" points="363.07,-36.4 355.78,-28.71 356.69,-39.27 363.07,-36.4"/>
</g>
<!-- &#45;15&#45;&gt;2 -->
<g id="edge73" class="edge">
<title>&#45;15&#45;&gt;2</title>
<path fill="none" stroke="red" stroke-width="0.21" d="M379.06,-65.65C381.72,-58.65 385.72,-48.15 389.35,-38.59"/>
<polygon fill="red" stroke="red" stroke-width="0.21" points="392.66,-39.75 392.94,-29.16 386.11,-37.26 392.66,-39.75"/>
</g>
<!-- &#45;15&#45;&gt;3 -->
<g id="edge74" class="edge">
<title>&#45;15&#45;&gt;3</title>
<path fill="none" stroke="green" stroke-width="0.43" d="M385.73,-65.65C396.33,-56.89 413.56,-42.66 426.88,-31.65"/>
<polygon fill="green" stroke="green" stroke-width="0.43" points="429.49,-34.04 434.97,-24.97 425.03,-28.64 429.49,-34.04"/>
</g>
<!-- &#45;15&#45;&gt;4 -->
<g id="edge75" class="edge">
<title>&#45;15&#45;&gt;4</title>
<path fill="none" stroke="green" stroke-width="0.2" d="M390.52,-67.37C409.15,-59.14 442.36,-44.11 470,-29.7 470.82,-29.27 471.65,-28.83 472.49,-28.38"/>
<polygon fill="green" stroke="green" stroke-width="0.2" points="474.39,-31.32 481.41,-23.39 470.97,-25.22 474.39,-31.32"/>
</g>
<!-- &#45;16 -->
<g id="node16" class="node">
<title>&#45;16</title>
<polygon fill="lightgray" stroke="black" points="437.5,-83.7 408.5,-83.7 408.5,-65.7 437.5,-65.7 437.5,-83.7"/>
<text text-anchor="middle" x="423" y="-72.5" font-family="Times New Roman,serif" font-size="9.00">&#45;16</text>
</g>
<!-- &#45;16&#45;&gt;0 -->
<g id="edge76" class="edge">
<title>&#45;16&#45;&gt;0</title>
<path fill="none" stroke="green" stroke-width="0.1" d="M437.68,-67.39C456.52,-59.18 490.09,-44.18 518,-29.7 518.82,-29.27 519.66,-28.83 520.5,-28.38"/>
<polygon fill="green" stroke="green" stroke-width="0.1" points="522.39,-31.33 529.41,-23.4 518.98,-25.22 522.39,-31.33"/>
</g>
<!-- &#45;16&#45;&gt;1 -->
<g id="edge77" class="edge">
<title>&#45;16&#45;&gt;1</title>
<path fill="none" stroke="red" stroke-width="0.39" stroke-dasharray="1,5" d="M412.85,-65.65C401.69,-56.81 383.49,-42.39 369.54,-31.34"/>
<polygon fill="red" stroke="red" stroke-width="0.39" points="371.52,-28.44 361.51,-24.97 367.17,-33.92 371.52,-28.44"/>
</g>
<!-- &#45;16&#45;&gt;2 -->
<g id="edge78" class="edge">
<title>&#45;16&#45;&gt;2</title>
<path fill="none" stroke="red" stroke-width="0.34" d="M419.52,-65.65C416.42,-58.48 411.74,-47.64 407.53,-37.91"/>
<polygon fill="red" stroke="red" stroke-width="0.34" points="410.74,-36.51 403.56,-28.71 404.31,-39.28 410.74,-36.51"/>
</g>
<!-- &#45;16&#45;&gt;3 -->
<g id="edge79" class="edge">
<title>&#45;16&#45;&gt;3</title>
<path fill="none" stroke="green" stroke-width="0.49" stroke-dasharray="1,5" d="M426.2,-65.65C428.98,-58.65 433.16,-48.15 436.96,-38.59"/>
<polygon fill="green" stroke="green" stroke-width="0.49" points="440.27,-39.74 440.71,-29.16 433.76,-37.16 440.27,-39.74"/>
</g>
<!-- &#45;16&#45;&gt;4 -->
<g id="edge80" class="edge">
<title>&#45;16&#45;&gt;4</title>
<path fill="none" stroke="red" stroke-width="0.56" d="M432.87,-65.65C443.73,-56.81 461.43,-42.39 474.99,-31.34"/>
<polygon fill="red" stroke="red" stroke-width="0.56" points="477.27,-34 482.81,-24.97 472.85,-28.57 477.27,-34"/>
</g>
<!-- &#45;17 -->
<g id="node17" class="node">
<title>&#45;17</title>
<polygon fill="lightgray" stroke="black" points="484.5,-83.7 455.5,-83.7 455.5,-65.7 484.5,-65.7 484.5,-83.7"/>
<text text-anchor="middle" x="470" y="-72.5" font-family="Times New Roman,serif" font-size="9.00">&#45;17</text>
</g>
<!-- &#45;17&#45;&gt;0 -->
<g id="edge81" class="edge">
<title>&#45;17&#45;&gt;0</title>
<path fill="none" stroke="red" stroke-width="0.77" d="M480.01,-65.65C491.02,-56.81 508.97,-42.39 522.73,-31.34"/>
<polygon fill="red" stroke="red" stroke-width="0.77" points="525.05,-33.96 530.65,-24.97 520.66,-28.5 525.05,-33.96"/>
</g>
<!-- &#45;17&#45;&gt;1 -->
<g id="edge82" class="edge">
<title>&#45;17&#45;&gt;1</title>
<path fill="none" stroke="red" stroke-width="0.35" d="M455.49,-67.55C436.51,-59.4 402.35,-44.33 374,-29.7 373.18,-29.27 372.34,-28.83 371.5,-28.39"/>
<polygon fill="red" stroke="red" stroke-width="0.35" points="373.02,-25.22 362.58,-23.41 369.61,-31.34 373.02,-25.22"/>
</g>
<!-- &#45;17&#45;&gt;2 -->
<g id="edge83" class="edge">
<title>&#45;17&#45;&gt;2</title>
<path fill="none" stroke="green" stroke-width="0.15" d="M459.99,-65.65C448.98,-56.81 431.03,-42.39 417.27,-31.34"/>
<polygon fill="green" stroke="green" stroke-width="0.15" points="419.34,-28.5 409.35,-24.97 414.95,-33.96 419.34,-28.5"/>
</g>
<!-- &#45;17&#45;&gt;3 -->
<g id="edge84" class="edge">
<title>&#45;17&#45;&gt;3</title>
<path fill="none" stroke="red" stroke-width="0.18" d="M466.66,-65.65C463.72,-58.56 459.28,-47.87 455.28,-38.21"/>
<polygon fill="red" stroke="red" stroke-width="0.18" points="458.4,-36.61 451.34,-28.71 451.94,-39.29 458.4,-36.61"/>
</g>
<!-- &#45;17&#45;&gt;4 -->
<g id="edge85" class="edge">
<title>&#45;17&#45;&gt;4</title>
<path fill="none" stroke="red" stroke-width="0.1" d="M473.34,-65.65C476.28,-58.56 480.72,-47.87 484.72,-38.21"/>
<polygon fill="red" stroke="red" stroke-width="0.1" points="488.06,-39.29 488.66,-28.71 481.6,-36.61 488.06,-39.29"/>
</g>
<!-- &#45;18 -->
<g id="node18" class="node">
<title>&#45;18</title>
<polygon fill="lightgray" stroke="black" points="531.5,-83.7 502.5,-83.7 502.5,-65.7 531.5,-65.7 531.5,-83.7"/>
<text text-anchor="middle" x="517" y="-72.5" font-family="Times New Roman,serif" font-size="9.00">&#45;18</text>
</g>
<!-- &#45;18&#45;&gt;0 -->
<g id="edge86" class="edge">
<title>&#45;18&#45;&gt;0</title>
<path fill="none" stroke="green" stroke-width="0.25" d="M520.48,-65.65C523.58,-58.48 528.26,-47.64 532.47,-37.91"/>
<polygon fill="green" stroke="green" stroke-width="0.25" points="535.69,-39.28 536.44,-28.71 529.26,-36.51 535.69,-39.28"/>
</g>
<!-- &#45;18&#45;&gt;1 -->
<g id="edge87" class="edge">
<title>&#45;18&#45;&gt;1</title>
<path fill="none" stroke="red" stroke-width="0.99" d="M502.43,-68.52C499.64,-67.56 496.74,-66.58 494,-65.7 441.03,-48.55 425.12,-51.76 374,-29.7 373.15,-29.33 372.29,-28.94 371.43,-28.53"/>
<polygon fill="red" stroke="red" stroke-width="0.99" points="372.89,-25.35 362.42,-23.75 369.61,-31.53 372.89,-25.35"/>
</g>
<!-- &#45;18&#45;&gt;2 -->
<g id="edge88" class="edge">
<title>&#45;18&#45;&gt;2</title>
<path fill="none" stroke="green" stroke-width="0.19" d="M502.32,-67.39C483.48,-59.18 449.91,-44.18 422,-29.7 421.18,-29.27 420.34,-28.83 419.5,-28.38"/>
<polygon fill="green" stroke="green" stroke-width="0.19" points="421.02,-25.22 410.59,-23.4 417.61,-31.33 421.02,-25.22"/>
</g>
<!-- &#45;18&#45;&gt;3 -->
<g id="edge89" class="edge">
<title>&#45;18&#45;&gt;3</title>
<path fill="none" stroke="green" stroke-width="0.43" d="M507.13,-65.65C496.27,-56.81 478.57,-42.39 465.01,-31.34"/>
<polygon fill="green" stroke="green" stroke-width="0.43" points="467.15,-28.57 457.19,-24.97 462.73,-34 467.15,-28.57"/>
</g>
<!-- &#45;18&#45;&gt;4 -->
<g id="edge90" class="edge">
<title>&#45;18&#45;&gt;4</title>
<path fill="none" stroke="red" stroke-width="0.49" d="M513.8,-65.65C511.02,-58.65 506.84,-48.15 503.04,-38.59"/>
<polygon fill="red" stroke="red" stroke-width="0.49" points="506.24,-37.16 499.29,-29.16 499.73,-39.74 506.24,-37.16"/>
</g>
<!-- &#45;19 -->
<g id="node19" class="node">
<title>&#45;19</title>
<polygon fill="lightgray" stroke="black" points="578.5,-83.7 549.5,-83.7 549.5,-65.7 578.5,-65.7 578.5,-83.7"/>
<text text-anchor="middle" x="564" y="-72.5" font-family="Times New Roman,serif" font-size="9.00">&#45;19</text>
</g>
<!-- &#45;19&#45;&gt;0 -->
<g id="edge91" class="edge">
<title>&#45;19&#45;&gt;0</title>
<path fill="none" stroke="red" stroke-width="0.37" d="M560.94,-65.65C558.28,-58.65 554.28,-48.15 550.65,-38.59"/>
<polygon fill="red" stroke="red" stroke-width="0.37" points="553.89,-37.26 547.06,-29.16 547.34,-39.75 553.89,-37.26"/>
</g>
<!-- &#45;19&#45;&gt;1 -->
<g id="edge92" class="edge">
<title>&#45;19&#45;&gt;1</title>
<path fill="none" stroke="green" stroke-width="0.45" d="M549.48,-68.35C546.69,-67.4 543.77,-66.48 541,-65.7 467.9,-45.19 444.85,-57 374,-29.7 373.14,-29.37 372.27,-29 371.4,-28.62"/>
<polygon fill="green" stroke="green" stroke-width="0.45" points="372.83,-25.42 362.34,-23.95 369.62,-31.64 372.83,-25.42"/>
</g>
<!-- &#45;19&#45;&gt;2 -->
<g id="edge93" class="edge">
<title>&#45;19&#45;&gt;2</title>
<path fill="none" stroke="red" stroke-width="0.88" d="M549.43,-68.53C546.64,-67.57 543.73,-66.59 541,-65.7 488.45,-48.62 472.71,-51.65 422,-29.7 421.15,-29.33 420.29,-28.94 419.43,-28.53"/>
<polygon fill="red" stroke="red" stroke-width="0.88" points="420.9,-25.35 410.42,-23.74 417.61,-31.53 420.9,-25.35"/>
</g>
<!-- &#45;19&#45;&gt;3 -->
<g id="edge94" class="edge">
<title>&#45;19&#45;&gt;3</title>
<path fill="none" stroke="green" stroke-width="0.83" d="M549.48,-67.37C530.85,-59.14 497.64,-44.11 470,-29.7 469.18,-29.27 468.35,-28.83 467.51,-28.38"/>
<polygon fill="green" stroke="green" stroke-width="0.83" points="469.03,-25.22 458.59,-23.39 465.61,-31.32 469.03,-25.22"/>
</g>
<!-- &#45;19&#45;&gt;4 -->
<g id="edge95" class="edge">
<title>&#45;19&#45;&gt;4</title>
<path fill="none" stroke="green" stroke-width="0.34" d="M554.27,-65.65C543.67,-56.89 526.44,-42.66 513.12,-31.65"/>
<polygon fill="green" stroke="green" stroke-width="0.34" points="514.97,-28.64 505.03,-24.97 510.51,-34.04 514.97,-28.64"/>
</g>
<!-- &#45;20 -->
<g id="node20" class="node">
<title>&#45;20</title>
<polygon fill="lightgray" stroke="black" points="625.5,-83.7 596.5,-83.7 596.5,-65.7 625.5,-65.7 625.5,-83.7"/>
<text text-anchor="middle" x="611" y="-72.5" font-family="Times New Roman,serif" font-size="9.00">&#45;20</text>
</g>
<!-- &#45;20&#45;&gt;0 -->
<g id="edge96" class="edge">
<title>&#45;20&#45;&gt;0</title>
<path fill="none" stroke="green" stroke-width="0.28" stroke-dasharray="1,5" d="M601.41,-65.65C590.96,-56.89 573.98,-42.66 560.85,-31.65"/>
<polygon fill="green" stroke="green" stroke-width="0.28" points="562.79,-28.71 552.88,-24.97 558.29,-34.07 562.79,-28.71"/>
</g>
<!-- &#45;20&#45;&gt;1 -->
<g id="edge97" class="edge">
<title>&#45;20&#45;&gt;1</title>
<path fill="none" stroke="red" stroke-width="0.26" stroke-dasharray="1,5" d="M596.02,-68.08C593.37,-67.21 590.62,-66.37 588,-65.7 494.57,-41.77 464.76,-62.32 374,-29.7 373.13,-29.39 372.25,-29.04 371.38,-28.67"/>
<polygon fill="red" stroke="red" stroke-width="0.26" points="372.8,-25.47 362.29,-24.06 369.63,-31.71 372.8,-25.47"/>
</g>
<!-- &#45;20&#45;&gt;2 -->
<g id="edge98" class="edge">
<title>&#45;20&#45;&gt;2</title>
<path fill="none" stroke="green" stroke-width="0.23" d="M596.48,-68.35C593.69,-67.41 590.77,-66.48 588,-65.7 515.33,-45.26 492.43,-56.89 422,-29.7 421.14,-29.36 420.27,-29 419.4,-28.62"/>
<polygon fill="green" stroke="green" stroke-width="0.23" points="420.83,-25.42 410.34,-23.94 417.62,-31.64 420.83,-25.42"/>
</g>
<!-- &#45;20&#45;&gt;3 -->
<g id="edge99" class="edge">
<title>&#45;20&#45;&gt;3</title>
<path fill="none" stroke="green" stroke-width="0.39" stroke-dasharray="1,5" d="M596.43,-68.53C593.64,-67.57 590.73,-66.59 588,-65.7 535.87,-48.69 520.29,-51.54 470,-29.7 469.15,-29.33 468.29,-28.94 467.43,-28.53"/>
<polygon fill="green" stroke="green" stroke-width="0.39" points="468.9,-25.34 458.43,-23.74 465.61,-31.52 468.9,-25.34"/>
</g>
<!-- &#45;20&#45;&gt;4 -->
<g id="edge100" class="edge">
<title>&#45;20&#45;&gt;4</title>
<path fill="none" stroke="red" stroke-width="0.3" d="M596.32,-67.2C577.84,-58.92 545.21,-43.96 518,-29.7 517.18,-29.27 516.35,-28.83 515.51,-28.37"/>
<polygon fill="red" stroke="red" stroke-width="0.3" points="517.03,-25.21 506.6,-23.38 513.61,-31.32 517.03,-25.21"/>
</g>
</g>
</svg>
