<?xml version="1.0" encoding="UTF-8" standalone="no"?>
<!DOCTYPE svg PUBLIC "-//W3C//DTD SVG 1.1//EN"
 "http://www.w3.org/Graphics/SVG/1.1/DTD/svg11.dtd">
<!-- Generated by graphviz version 2.49.0 (20210828.1703)
 -->
<!-- Pages: 1 -->
<svg width="1970pt" height="348pt"
 viewBox="0.00 0.00 1970.50 348.19" xmlns="http://www.w3.org/2000/svg" xmlns:xlink="http://www.w3.org/1999/xlink">
<g id="graph0" class="graph" transform="scale(1 1) rotate(0) translate(4 344.19)">
<polygon fill="white" stroke="transparent" points="-4,4 -4,-344.19 1966.5,-344.19 1966.5,4 -4,4"/>
<!-- &#45;1 -->
<g id="node1" class="node">
<title>&#45;1</title>
<polygon fill="lightgray" stroke="black" points="1148.75,-340.19 1124.75,-340.19 1124.75,-322.19 1148.75,-322.19 1148.75,-340.19"/>
<text text-anchor="middle" x="1136.75" y="-328.99" font-family="Times New Roman,serif" font-size="9.00">&#45;1</text>
</g>
<!-- 704 -->
<g id="node26" class="node">
<title>704</title>
<ellipse fill="white" stroke="black" cx="742.75" cy="-175.94" rx="21.43" ry="21.43"/>
<text text-anchor="middle" x="742.75" y="-173.74" font-family="Times New Roman,serif" font-size="9.00">704</text>
</g>
<!-- &#45;1&#45;&gt;704 -->
<g id="edge3" class="edge">
<title>&#45;1&#45;&gt;704</title>
<path fill="none" stroke="green" stroke-width="0.91" d="M1124.58,-329.94C1030.14,-327.97 417.03,-314.07 390.75,-286.19 375.66,-270.18 376.08,-253.09 390.75,-236.69 438.75,-183.03 646.17,-228.1 712.75,-200.69 715.11,-199.72 717.45,-198.5 719.7,-197.14"/>
<polygon fill="green" stroke="green" stroke-width="0.91" points="721.78,-199.95 727.93,-191.33 717.74,-194.23 721.78,-199.95"/>
</g>
<!-- 705 -->
<g id="node27" class="node">
<title>705</title>
<ellipse fill="white" stroke="black" cx="1042.75" cy="-175.94" rx="21.43" ry="21.43"/>
<text text-anchor="middle" x="1042.75" y="-173.74" font-family="Times New Roman,serif" font-size="9.00">705</text>
</g>
<!-- &#45;1&#45;&gt;705 -->
<g id="edge4" class="edge">
<title>&#45;1&#45;&gt;705</title>
<path fill="none" stroke="green" stroke-width="0.12" d="M1149.07,-329.89C1216.23,-328.1 1536.1,-317.94 1564.75,-286.19 1579.49,-269.86 1579.39,-253.11 1564.75,-236.69 1531.91,-199.88 1181.85,-182.62 1074.12,-178.15"/>
<polygon fill="green" stroke="green" stroke-width="0.12" points="1074.03,-174.65 1063.9,-177.74 1073.75,-181.64 1074.03,-174.65"/>
</g>
<!-- 707 -->
<g id="node28" class="node">
<title>707</title>
<ellipse fill="white" stroke="black" cx="982.75" cy="-175.94" rx="21.43" ry="21.43"/>
<text text-anchor="middle" x="982.75" y="-173.74" font-family="Times New Roman,serif" font-size="9.00">707</text>
</g>
<!-- &#45;1&#45;&gt;707 -->
<g id="edge5" class="edge">
<title>&#45;1&#45;&gt;707</title>
<path fill="none" stroke="red" stroke-width="0.1" d="M1148.77,-329.61C1207.88,-326.66 1465.67,-312.33 1488.75,-286.19 1503.31,-269.7 1503.71,-252.82 1488.75,-236.69 1416.62,-158.91 1111.55,-239.31 1012.75,-200.69 1010.37,-199.76 1008.02,-198.57 1005.76,-197.23"/>
<polygon fill="red" stroke="red" stroke-width="0.1" points="1007.72,-194.32 997.52,-191.45 1003.7,-200.06 1007.72,-194.32"/>
</g>
<!-- 708 -->
<g id="node29" class="node">
<title>708</title>
<ellipse fill="white" stroke="black" cx="922.75" cy="-175.94" rx="21.43" ry="21.43"/>
<text text-anchor="middle" x="922.75" y="-173.74" font-family="Times New Roman,serif" font-size="9.00">708</text>
</g>
<!-- &#45;1&#45;&gt;708 -->
<g id="edge6" class="edge">
<title>&#45;1&#45;&gt;708</title>
<path fill="none" stroke="red" stroke-width="0.39" d="M1148.84,-329.56C1189.43,-327.15 1319.71,-317.09 1344.75,-286.19 1358.6,-269.1 1359.58,-252.94 1344.75,-236.69 1285.79,-172.07 1033.97,-233.19 952.75,-200.69 950.37,-199.74 948.04,-198.54 945.78,-197.19"/>
<polygon fill="red" stroke="red" stroke-width="0.39" points="947.73,-194.28 937.54,-191.4 943.71,-200.01 947.73,-194.28"/>
</g>
<!-- 709 -->
<g id="node30" class="node">
<title>709</title>
<ellipse fill="white" stroke="black" cx="862.75" cy="-175.94" rx="21.43" ry="21.43"/>
<text text-anchor="middle" x="862.75" y="-173.74" font-family="Times New Roman,serif" font-size="9.00">709</text>
</g>
<!-- &#45;1&#45;&gt;709 -->
<g id="edge7" class="edge">
<title>&#45;1&#45;&gt;709</title>
<path fill="none" stroke="red" stroke-width="0.14" stroke-dasharray="1,5" d="M1124.73,-327.97C1101.73,-323.29 1050.59,-310.76 1014.75,-286.19 990.71,-269.72 995.1,-254.13 971.75,-236.69 940.84,-213.6 925.67,-220.82 892.75,-200.69 890.77,-199.48 888.77,-198.16 886.8,-196.78"/>
<polygon fill="red" stroke="red" stroke-width="0.14" points="888.52,-193.7 878.42,-190.51 884.33,-199.31 888.52,-193.7"/>
</g>
<!-- 1692 -->
<g id="node36" class="node">
<title>1692</title>
<ellipse fill="white" stroke="black" cx="1421.75" cy="-261.44" rx="25" ry="25"/>
<text text-anchor="middle" x="1421.75" y="-259.24" font-family="Times New Roman,serif" font-size="9.00">1692</text>
</g>
<!-- &#45;1&#45;&gt;1692 -->
<g id="edge174" class="edge">
<title>&#45;1&#45;&gt;1692</title>
<path fill="none" stroke="green" stroke-width="0.14" d="M1148.94,-329.6C1185.53,-327.48 1297.14,-318.61 1382.75,-286.19 1386.21,-284.88 1389.72,-283.25 1393.12,-281.47"/>
<polygon fill="green" stroke="green" stroke-width="0.14" points="1394.88,-284.5 1401.83,-276.51 1391.41,-278.42 1394.88,-284.5"/>
</g>
<!-- 701 -->
<g id="node37" class="node">
<title>701</title>
<ellipse fill="white" stroke="black" cx="802.75" cy="-175.94" rx="21.43" ry="21.43"/>
<text text-anchor="middle" x="802.75" y="-173.74" font-family="Times New Roman,serif" font-size="9.00">701</text>
</g>
<!-- &#45;1&#45;&gt;701 -->
<g id="edge1" class="edge">
<title>&#45;1&#45;&gt;701</title>
<path fill="none" stroke="green" stroke-width="0.57" d="M1124.53,-329.93C1031.01,-327.85 431.46,-313.5 405.75,-286.19 390.67,-270.17 390.97,-252.99 405.75,-236.69 460.79,-175.99 696.76,-231.37 772.75,-200.69 775.12,-199.74 777.46,-198.53 779.72,-197.17"/>
<polygon fill="green" stroke="green" stroke-width="0.57" points="781.79,-199.99 787.95,-191.38 777.76,-194.27 781.79,-199.99"/>
</g>
<!-- 702 -->
<g id="node38" class="node">
<title>702</title>
<ellipse fill="white" stroke="black" cx="682.75" cy="-175.94" rx="21.43" ry="21.43"/>
<text text-anchor="middle" x="682.75" y="-173.74" font-family="Times New Roman,serif" font-size="9.00">702</text>
</g>
<!-- &#45;1&#45;&gt;702 -->
<g id="edge2" class="edge">
<title>&#45;1&#45;&gt;702</title>
<path fill="none" stroke="red" stroke-width="0.3" d="M1124.55,-330.08C1018.02,-329.09 248.64,-320.7 215.75,-286.19 200.57,-270.27 200.85,-252.87 215.75,-236.69 281.76,-165.02 562.11,-236.46 652.75,-200.69 655.13,-199.75 657.47,-198.56 659.73,-197.21"/>
<polygon fill="red" stroke="red" stroke-width="0.3" points="661.79,-200.04 667.97,-191.43 657.77,-194.31 661.79,-200.04"/>
</g>
<!-- &#45;2 -->
<g id="node2" class="node">
<title>&#45;2</title>
<polygon fill="lightgray" stroke="black" points="1721.75,-340.19 1697.75,-340.19 1697.75,-322.19 1721.75,-322.19 1721.75,-340.19"/>
<text text-anchor="middle" x="1709.75" y="-328.99" font-family="Times New Roman,serif" font-size="9.00">&#45;2</text>
</g>
<!-- &#45;2&#45;&gt;704 -->
<g id="edge8" class="edge">
<title>&#45;2&#45;&gt;704</title>
<path fill="none" stroke="red" stroke-width="0.37" stroke-dasharray="1,5" d="M1697.69,-329.89C1568.84,-326.65 450.31,-298.16 438.75,-286.19 423.46,-270.37 424.24,-253.23 438.75,-236.69 479.25,-190.53 656.19,-224.62 712.75,-200.69 715.1,-199.7 717.43,-198.46 719.68,-197.09"/>
<polygon fill="red" stroke="red" stroke-width="0.37" points="721.77,-199.9 727.9,-191.26 717.72,-194.19 721.77,-199.9"/>
</g>
<!-- &#45;2&#45;&gt;705 -->
<g id="edge9" class="edge">
<title>&#45;2&#45;&gt;705</title>
<path fill="none" stroke="red" stroke-width="0.77" d="M1721.89,-328.53C1754.67,-323.76 1843.71,-308.91 1860.75,-286.19 1873.95,-268.59 1875.73,-252.81 1860.75,-236.69 1847.09,-222 1223.57,-186.87 1074.51,-178.68"/>
<polygon fill="red" stroke="red" stroke-width="0.77" points="1074.4,-175.17 1064.23,-178.11 1074.02,-182.15 1074.4,-175.17"/>
</g>
<!-- &#45;2&#45;&gt;707 -->
<g id="edge10" class="edge">
<title>&#45;2&#45;&gt;707</title>
<path fill="none" stroke="red" stroke-width="0.2" stroke-dasharray="1,5" d="M1721.95,-327.59C1740.45,-322.92 1774.99,-311.16 1789.75,-286.19 1800.95,-267.25 1804.94,-252.6 1789.75,-236.69 1730.07,-174.18 1093.7,-230.97 1012.75,-200.69 1010.35,-199.8 1008,-198.63 1005.73,-197.3"/>
<polygon fill="red" stroke="red" stroke-width="0.2" points="1007.68,-194.4 997.48,-191.56 1003.68,-200.14 1007.68,-194.4"/>
</g>
<!-- &#45;2&#45;&gt;708 -->
<g id="edge11" class="edge">
<title>&#45;2&#45;&gt;708</title>
<path fill="none" stroke="green" stroke-width="0.54" d="M1697.4,-323.7C1663.07,-306.02 1563.14,-256.97 1473.75,-236.69 1247.39,-185.34 1169.21,-284.48 952.75,-200.69 950.36,-199.77 948.02,-198.59 945.75,-197.24"/>
<polygon fill="green" stroke="green" stroke-width="0.54" points="947.71,-194.34 937.51,-191.48 943.7,-200.08 947.71,-194.34"/>
</g>
<!-- &#45;2&#45;&gt;709 -->
<g id="edge12" class="edge">
<title>&#45;2&#45;&gt;709</title>
<path fill="none" stroke="green" stroke-width="0.12" d="M1697.71,-329.9C1615.84,-327.86 1142.37,-314.86 1085.75,-286.19 1060.01,-273.16 1068.34,-251.79 1043.75,-236.69 984.95,-200.6 954.82,-230.82 892.75,-200.69 890.66,-199.68 888.58,-198.5 886.55,-197.22"/>
<polygon fill="green" stroke="green" stroke-width="0.12" points="888.24,-194.12 878.07,-191.15 884.17,-199.82 888.24,-194.12"/>
</g>
<!-- 1499 -->
<g id="node35" class="node">
<title>1499</title>
<ellipse fill="white" stroke="black" cx="1755.75" cy="-261.44" rx="25" ry="25"/>
<text text-anchor="middle" x="1755.75" y="-259.24" font-family="Times New Roman,serif" font-size="9.00">1499</text>
</g>
<!-- &#45;2&#45;&gt;1499 -->
<g id="edge168" class="edge">
<title>&#45;2&#45;&gt;1499</title>
<path fill="none" stroke="green" stroke-width="0.44" d="M1715.21,-322.15C1720.48,-314.39 1728.78,-302.16 1736.5,-290.79"/>
<polygon fill="green" stroke="green" stroke-width="0.44" points="1739.51,-292.59 1742.23,-282.35 1733.72,-288.66 1739.51,-292.59"/>
</g>
<!-- &#45;3 -->
<g id="node3" class="node">
<title>&#45;3</title>
<polygon fill="lightgray" stroke="black" points="1118.75,-270.44 1094.75,-270.44 1094.75,-252.44 1118.75,-252.44 1118.75,-270.44"/>
<text text-anchor="middle" x="1106.75" y="-259.24" font-family="Times New Roman,serif" font-size="9.00">&#45;3</text>
</g>
<!-- &#45;3&#45;&gt;704 -->
<g id="edge15" class="edge">
<title>&#45;3&#45;&gt;704</title>
<path fill="none" stroke="green" stroke-width="0.23" d="M1094.62,-258.31C1035.08,-247.86 776.55,-202.41 772.75,-200.69 770.42,-199.64 768.11,-198.37 765.87,-196.97"/>
<polygon fill="green" stroke="green" stroke-width="0.23" points="767.84,-194.07 757.67,-191.1 763.76,-199.77 767.84,-194.07"/>
</g>
<!-- &#45;3&#45;&gt;705 -->
<g id="edge16" class="edge">
<title>&#45;3&#45;&gt;705</title>
<path fill="none" stroke="green" stroke-width="0.55" d="M1100.61,-252.44C1091.69,-240.79 1074.74,-218.68 1061.48,-201.39"/>
<polygon fill="green" stroke="green" stroke-width="0.55" points="1064.19,-199.16 1055.32,-193.35 1058.63,-203.42 1064.19,-199.16"/>
</g>
<!-- &#45;3&#45;&gt;707 -->
<g id="edge17" class="edge">
<title>&#45;3&#45;&gt;707</title>
<path fill="none" stroke="red" stroke-width="0.19" d="M1099,-252.39C1094.05,-247.51 1087.35,-241.34 1080.75,-236.69 1052.79,-217 1041.39,-219.38 1012.75,-200.69 1010.81,-199.42 1008.83,-198.06 1006.88,-196.65"/>
<polygon fill="red" stroke="red" stroke-width="0.19" points="1008.62,-193.58 998.54,-190.32 1004.39,-199.16 1008.62,-193.58"/>
</g>
<!-- &#45;3&#45;&gt;708 -->
<g id="edge18" class="edge">
<title>&#45;3&#45;&gt;708</title>
<path fill="none" stroke="red" stroke-width="0.36" d="M1099.76,-252.34C1094.9,-247.18 1088.02,-240.73 1080.75,-236.69 1029.09,-207.99 1005.39,-227.56 952.75,-200.69 950.68,-199.64 948.62,-198.43 946.6,-197.13"/>
<polygon fill="red" stroke="red" stroke-width="0.36" points="948.29,-194.03 938.13,-191.02 944.2,-199.71 948.29,-194.03"/>
</g>
<!-- &#45;3&#45;&gt;709 -->
<g id="edge19" class="edge">
<title>&#45;3&#45;&gt;709</title>
<path fill="none" stroke="green" stroke-width="0.22" stroke-dasharray="1,5" d="M1099.87,-252.14C1095.05,-246.89 1088.18,-240.42 1080.75,-236.69 1004.7,-198.57 970.1,-236.11 892.75,-200.69 890.42,-199.63 888.12,-198.35 885.88,-196.94"/>
<polygon fill="green" stroke="green" stroke-width="0.22" points="887.85,-194.04 877.68,-191.06 883.77,-199.73 887.85,-194.04"/>
</g>
<!-- &#45;3&#45;&gt;701 -->
<g id="edge13" class="edge">
<title>&#45;3&#45;&gt;701</title>
<path fill="none" stroke="green" stroke-width="0.29" d="M1094.49,-258.11C1044.44,-248.53 857.12,-212.23 832.75,-200.69 830.44,-199.6 828.14,-198.3 825.91,-196.87"/>
<polygon fill="green" stroke="green" stroke-width="0.29" points="827.88,-193.98 817.72,-190.97 823.79,-199.66 827.88,-193.98"/>
</g>
<!-- &#45;3&#45;&gt;702 -->
<g id="edge14" class="edge">
<title>&#45;3&#45;&gt;702</title>
<path fill="none" stroke="green" stroke-width="0.44" d="M1094.49,-258.13C1070.81,-253.71 1017.12,-243.83 971.75,-236.69 856.94,-218.62 819.62,-246.36 712.75,-200.69 710.4,-199.69 708.07,-198.45 705.82,-197.07"/>
<polygon fill="green" stroke="green" stroke-width="0.44" points="707.79,-194.17 697.61,-191.24 703.74,-199.88 707.79,-194.17"/>
</g>
<!-- &#45;4 -->
<g id="node4" class="node">
<title>&#45;4</title>
<polygon fill="lightgray" stroke="black" points="1160.75,-270.44 1136.75,-270.44 1136.75,-252.44 1160.75,-252.44 1160.75,-270.44"/>
<text text-anchor="middle" x="1148.75" y="-259.24" font-family="Times New Roman,serif" font-size="9.00">&#45;4</text>
</g>
<!-- &#45;4&#45;&gt;704 -->
<g id="edge22" class="edge">
<title>&#45;4&#45;&gt;704</title>
<path fill="none" stroke="red" stroke-width="0.46" d="M1143.94,-252.4C1140.24,-246.98 1134.6,-240.21 1127.75,-236.69 986.64,-164.32 919.71,-260.3 772.75,-200.69 770.38,-199.73 768.04,-198.52 765.79,-197.16"/>
<polygon fill="red" stroke="red" stroke-width="0.46" points="767.74,-194.26 757.55,-191.37 763.71,-199.98 767.74,-194.26"/>
</g>
<!-- &#45;4&#45;&gt;705 -->
<g id="edge23" class="edge">
<title>&#45;4&#45;&gt;705</title>
<path fill="none" stroke="red" stroke-width="0.11" d="M1142.19,-252.09C1138.25,-247.33 1133,-241.39 1127.75,-236.69 1109.43,-220.31 1086.53,-204.44 1069.12,-193.18"/>
<polygon fill="red" stroke="red" stroke-width="0.11" points="1070.88,-190.15 1060.57,-187.73 1067.12,-196.06 1070.88,-190.15"/>
</g>
<!-- &#45;4&#45;&gt;707 -->
<g id="edge24" class="edge">
<title>&#45;4&#45;&gt;707</title>
<path fill="none" stroke="green" stroke-width="0.29" d="M1143.37,-252.36C1139.56,-247.21 1134.03,-240.76 1127.75,-236.69 1082.81,-207.56 1060.09,-225.73 1012.75,-200.69 1010.7,-199.61 1008.65,-198.38 1006.64,-197.06"/>
<polygon fill="green" stroke="green" stroke-width="0.29" points="1008.33,-193.97 998.19,-190.92 1004.22,-199.63 1008.33,-193.97"/>
</g>
<!-- &#45;4&#45;&gt;708 -->
<g id="edge25" class="edge">
<title>&#45;4&#45;&gt;708</title>
<path fill="none" stroke="red" stroke-width="0.19" d="M1143.5,-252.15C1139.75,-246.91 1134.23,-240.44 1127.75,-236.69 1059.03,-196.91 1024.72,-234.25 952.75,-200.69 950.43,-199.61 948.13,-198.32 945.9,-196.9"/>
<polygon fill="red" stroke="red" stroke-width="0.19" points="947.87,-194.01 937.71,-191.01 943.78,-199.69 947.87,-194.01"/>
</g>
<!-- &#45;4&#45;&gt;709 -->
<g id="edge26" class="edge">
<title>&#45;4&#45;&gt;709</title>
<path fill="none" stroke="green" stroke-width="0.25" d="M1143.56,-252.04C1139.84,-246.76 1134.32,-240.28 1127.75,-236.69 1034.99,-186.09 989.62,-242.89 892.75,-200.69 890.4,-199.67 888.09,-198.42 885.84,-197.03"/>
<polygon fill="green" stroke="green" stroke-width="0.25" points="887.8,-194.13 877.63,-191.19 883.75,-199.84 887.8,-194.13"/>
</g>
<!-- &#45;4&#45;&gt;701 -->
<g id="edge20" class="edge">
<title>&#45;4&#45;&gt;701</title>
<path fill="none" stroke="green" stroke-width="0.35" d="M1143.92,-252.44C1140.21,-247.05 1134.57,-240.28 1127.75,-236.69 1010.84,-175.22 954.63,-251.58 832.75,-200.69 830.39,-199.71 828.06,-198.48 825.81,-197.11"/>
<polygon fill="green" stroke="green" stroke-width="0.35" points="827.77,-194.21 817.58,-191.29 823.73,-199.93 827.77,-194.21"/>
</g>
<!-- &#45;4&#45;&gt;702 -->
<g id="edge21" class="edge">
<title>&#45;4&#45;&gt;702</title>
<path fill="none" stroke="red" stroke-width="0.5" d="M1143.96,-252.37C1140.27,-246.94 1134.63,-240.16 1127.75,-236.69 962.41,-153.4 884.81,-269.03 712.75,-200.69 710.37,-199.75 708.03,-198.55 705.77,-197.2"/>
<polygon fill="red" stroke="red" stroke-width="0.5" points="707.73,-194.3 697.53,-191.42 703.71,-200.03 707.73,-194.3"/>
</g>
<!-- &#45;5 -->
<g id="node5" class="node">
<title>&#45;5</title>
<polygon fill="lightgray" stroke="black" points="604.75,-270.44 580.75,-270.44 580.75,-252.44 604.75,-252.44 604.75,-270.44"/>
<text text-anchor="middle" x="592.75" y="-259.24" font-family="Times New Roman,serif" font-size="9.00">&#45;5</text>
</g>
<!-- &#45;5&#45;&gt;704 -->
<g id="edge29" class="edge">
<title>&#45;5&#45;&gt;704</title>
<path fill="none" stroke="red" stroke-width="0.12" stroke-dasharray="1,5" d="M598.53,-252C602.35,-246.97 607.74,-240.78 613.75,-236.69 652.45,-210.34 671.87,-223.52 712.75,-200.69 714.78,-199.56 716.81,-198.3 718.81,-196.96"/>
<polygon fill="red" stroke="red" stroke-width="0.12" points="721.24,-199.51 727.23,-190.77 717.1,-193.87 721.24,-199.51"/>
</g>
<!-- &#45;5&#45;&gt;705 -->
<g id="edge30" class="edge">
<title>&#45;5&#45;&gt;705</title>
<path fill="none" stroke="red" stroke-width="0.69" d="M597.54,-252.38C601.24,-246.95 606.87,-240.17 613.75,-236.69 772.63,-156.32 847.38,-266.7 1012.75,-200.69 1015.12,-199.75 1017.46,-198.55 1019.72,-197.19"/>
<polygon fill="red" stroke="red" stroke-width="0.69" points="1021.79,-200.02 1027.96,-191.4 1017.77,-194.29 1021.79,-200.02"/>
</g>
<!-- &#45;5&#45;&gt;707 -->
<g id="edge31" class="edge">
<title>&#45;5&#45;&gt;707</title>
<path fill="none" stroke="green" stroke-width="0.28" d="M597.56,-252.41C601.26,-247 606.9,-240.23 613.75,-236.69 748.4,-167.23 812.48,-257.98 952.75,-200.69 955.12,-199.73 957.45,-198.51 959.71,-197.15"/>
<polygon fill="green" stroke="green" stroke-width="0.28" points="961.78,-199.97 967.94,-191.35 957.75,-194.25 961.78,-199.97"/>
</g>
<!-- &#45;5&#45;&gt;708 -->
<g id="edge32" class="edge">
<title>&#45;5&#45;&gt;708</title>
<path fill="none" stroke="red" stroke-width="0.24" d="M597.91,-251.99C601.62,-246.68 607.14,-240.2 613.75,-236.69 724.21,-178.12 777.54,-249.26 892.75,-200.69 895.11,-199.7 897.43,-198.47 899.68,-197.09"/>
<polygon fill="red" stroke="red" stroke-width="0.24" points="901.77,-199.91 907.91,-191.27 897.72,-194.19 901.77,-199.91"/>
</g>
<!-- &#45;5&#45;&gt;709 -->
<g id="edge33" class="edge">
<title>&#45;5&#45;&gt;709</title>
<path fill="none" stroke="green" stroke-width="0.1" d="M597.95,-252.07C601.68,-246.79 607.2,-240.31 613.75,-236.69 700.08,-188.98 742.53,-240.58 832.75,-200.69 835.09,-199.66 837.4,-198.4 839.65,-197"/>
<polygon fill="green" stroke="green" stroke-width="0.1" points="841.74,-199.81 847.85,-191.15 837.68,-194.11 841.74,-199.81"/>
</g>
<!-- &#45;5&#45;&gt;701 -->
<g id="edge27" class="edge">
<title>&#45;5&#45;&gt;701</title>
<path fill="none" stroke="green" stroke-width="0.37" d="M598.02,-252.19C601.78,-246.97 607.31,-240.51 613.75,-236.69 676.09,-199.77 707.39,-231.96 772.75,-200.69 774.84,-199.69 776.92,-198.52 778.96,-197.25"/>
<polygon fill="green" stroke="green" stroke-width="0.37" points="781.34,-199.85 787.45,-191.19 777.27,-194.15 781.34,-199.85"/>
</g>
<!-- &#45;5&#45;&gt;702 -->
<g id="edge28" class="edge">
<title>&#45;5&#45;&gt;702</title>
<path fill="none" stroke="green" stroke-width="0.28" d="M599.49,-252.28C603.49,-247.59 608.74,-241.65 613.75,-236.69 628.02,-222.57 645.07,-207.79 658.65,-196.47"/>
<polygon fill="green" stroke="green" stroke-width="0.28" points="661.12,-198.96 666.6,-189.9 656.66,-193.57 661.12,-198.96"/>
</g>
<!-- &#45;6 -->
<g id="node6" class="node">
<title>&#45;6</title>
<polygon fill="lightgray" stroke="black" points="646.75,-270.44 622.75,-270.44 622.75,-252.44 646.75,-252.44 646.75,-270.44"/>
<text text-anchor="middle" x="634.75" y="-259.24" font-family="Times New Roman,serif" font-size="9.00">&#45;6</text>
</g>
<!-- &#45;6&#45;&gt;704 -->
<g id="edge36" class="edge">
<title>&#45;6&#45;&gt;704</title>
<path fill="none" stroke="red" stroke-width="0.51" d="M640.86,-252.44C644.81,-247.57 650.22,-241.4 655.75,-236.69 678.57,-217.28 688.3,-218.02 712.75,-200.69 714.64,-199.35 716.58,-197.93 718.51,-196.49"/>
<polygon fill="red" stroke="red" stroke-width="0.51" points="721.02,-198.97 726.8,-190.08 716.74,-193.43 721.02,-198.97"/>
</g>
<!-- &#45;6&#45;&gt;705 -->
<g id="edge37" class="edge">
<title>&#45;6&#45;&gt;705</title>
<path fill="none" stroke="red" stroke-width="0.42" d="M639.55,-252.4C643.25,-246.98 648.89,-240.21 655.75,-236.69 797.67,-163.96 864.95,-260.59 1012.75,-200.69 1015.12,-199.73 1017.45,-198.52 1019.71,-197.16"/>
<polygon fill="red" stroke="red" stroke-width="0.42" points="1021.78,-199.99 1027.95,-191.37 1017.75,-194.26 1021.78,-199.99"/>
</g>
<!-- &#45;6&#45;&gt;707 -->
<g id="edge38" class="edge">
<title>&#45;6&#45;&gt;707</title>
<path fill="none" stroke="green" stroke-width="0.34" d="M639.57,-252.44C643.29,-247.04 648.93,-240.28 655.75,-236.69 773.46,-174.86 830.03,-251.87 952.75,-200.69 955.11,-199.71 957.44,-198.48 959.69,-197.11"/>
<polygon fill="green" stroke="green" stroke-width="0.34" points="961.77,-199.93 967.92,-191.3 957.73,-194.21 961.77,-199.93"/>
</g>
<!-- &#45;6&#45;&gt;708 -->
<g id="edge39" class="edge">
<title>&#45;6&#45;&gt;708</title>
<path fill="none" stroke="red" stroke-width="0.63" d="M639.93,-252.04C643.66,-246.75 649.18,-240.27 655.75,-236.69 749.31,-185.73 795.04,-243.18 892.75,-200.69 895.09,-199.67 897.41,-198.42 899.66,-197.04"/>
<polygon fill="red" stroke="red" stroke-width="0.63" points="901.75,-199.84 907.87,-191.19 897.7,-194.14 901.75,-199.84"/>
</g>
<!-- &#45;6&#45;&gt;709 -->
<g id="edge40" class="edge">
<title>&#45;6&#45;&gt;709</title>
<path fill="none" stroke="red" stroke-width="0.36" d="M639.99,-252.15C643.75,-246.91 649.27,-240.44 655.75,-236.69 725.27,-196.55 759.95,-234.53 832.75,-200.69 835.07,-199.62 837.37,-198.32 839.6,-196.91"/>
<polygon fill="red" stroke="red" stroke-width="0.36" points="841.72,-199.7 847.8,-191.02 837.63,-194.01 841.72,-199.7"/>
</g>
<!-- &#45;6&#45;&gt;701 -->
<g id="edge34" class="edge">
<title>&#45;6&#45;&gt;701</title>
<path fill="none" stroke="red" stroke-width="0.65" d="M640.12,-252.35C643.92,-247.2 649.46,-240.75 655.75,-236.69 701.48,-207.21 724.59,-226.01 772.75,-200.69 774.8,-199.61 776.86,-198.39 778.87,-197.07"/>
<polygon fill="red" stroke="red" stroke-width="0.65" points="781.28,-199.64 787.32,-190.94 777.17,-193.98 781.28,-199.64"/>
</g>
<!-- &#45;6&#45;&gt;702 -->
<g id="edge35" class="edge">
<title>&#45;6&#45;&gt;702</title>
<path fill="none" stroke="green" stroke-width="0.14" d="M639.35,-252.44C645.77,-241.28 657.7,-220.51 667.44,-203.58"/>
<polygon fill="green" stroke="green" stroke-width="0.14" points="670.62,-205.07 672.57,-194.66 664.55,-201.58 670.62,-205.07"/>
</g>
<!-- &#45;7 -->
<g id="node7" class="node">
<title>&#45;7</title>
<polygon fill="lightgray" stroke="black" points="688.75,-270.44 664.75,-270.44 664.75,-252.44 688.75,-252.44 688.75,-270.44"/>
<text text-anchor="middle" x="676.75" y="-259.24" font-family="Times New Roman,serif" font-size="9.00">&#45;7</text>
</g>
<!-- &#45;7&#45;&gt;704 -->
<g id="edge43" class="edge">
<title>&#45;7&#45;&gt;704</title>
<path fill="none" stroke="green" stroke-width="0.24" d="M683.08,-252.44C692.34,-240.72 709.97,-218.41 723.68,-201.08"/>
<polygon fill="green" stroke="green" stroke-width="0.24" points="726.58,-203.05 730.03,-193.03 721.09,-198.7 726.58,-203.05"/>
</g>
<!-- &#45;7&#45;&gt;705 -->
<g id="edge44" class="edge">
<title>&#45;7&#45;&gt;705</title>
<path fill="none" stroke="red" stroke-width="0.18" d="M681.57,-252.43C685.28,-247.02 690.92,-240.25 697.75,-236.69 822.72,-171.59 882.51,-254.49 1012.75,-200.69 1015.11,-199.72 1017.44,-198.5 1019.7,-197.13"/>
<polygon fill="red" stroke="red" stroke-width="0.18" points="1021.78,-199.95 1027.93,-191.32 1017.74,-194.23 1021.78,-199.95"/>
</g>
<!-- &#45;7&#45;&gt;707 -->
<g id="edge45" class="edge">
<title>&#45;7&#45;&gt;707</title>
<path fill="none" stroke="green" stroke-width="0.38" d="M681.92,-252.02C685.64,-246.72 691.16,-240.24 697.75,-236.69 798.55,-182.47 847.55,-245.78 952.75,-200.69 955.1,-199.69 957.42,-198.44 959.67,-197.06"/>
<polygon fill="green" stroke="green" stroke-width="0.38" points="961.76,-199.87 967.89,-191.23 957.71,-194.16 961.76,-199.87"/>
</g>
<!-- &#45;7&#45;&gt;708 -->
<g id="edge46" class="edge">
<title>&#45;7&#45;&gt;708</title>
<path fill="none" stroke="red" stroke-width="0.96" d="M681.97,-252.11C685.71,-246.85 691.23,-240.38 697.75,-236.69 774.46,-193.31 812.5,-237.12 892.75,-200.69 895.08,-199.64 897.38,-198.36 899.62,-196.95"/>
<polygon fill="red" stroke="red" stroke-width="0.96" points="901.73,-199.75 907.82,-191.08 897.66,-194.06 901.73,-199.75"/>
</g>
<!-- &#45;7&#45;&gt;709 -->
<g id="edge47" class="edge">
<title>&#45;7&#45;&gt;709</title>
<path fill="none" stroke="green" stroke-width="0.75" d="M682.07,-252.27C685.85,-247.09 691.38,-240.63 697.75,-236.69 750.57,-204.04 777.25,-228.54 832.75,-200.69 834.82,-199.65 836.89,-198.45 838.91,-197.16"/>
<polygon fill="green" stroke="green" stroke-width="0.75" points="841.31,-199.74 847.39,-191.06 837.22,-194.06 841.31,-199.74"/>
</g>
<!-- &#45;7&#45;&gt;701 -->
<g id="edge41" class="edge">
<title>&#45;7&#45;&gt;701</title>
<path fill="none" stroke="green" stroke-width="0.17" stroke-dasharray="1,5" d="M682.68,-252.21C686.55,-247.25 691.95,-241.07 697.75,-236.69 727.25,-214.4 741.39,-220.29 772.75,-200.69 774.72,-199.46 776.71,-198.13 778.68,-196.74"/>
<polygon fill="green" stroke="green" stroke-width="0.17" points="781.15,-199.25 787.04,-190.45 776.94,-193.66 781.15,-199.25"/>
</g>
<!-- &#45;7&#45;&gt;702 -->
<g id="edge42" class="edge">
<title>&#45;7&#45;&gt;702</title>
<path fill="none" stroke="green" stroke-width="0.18" d="M677.32,-252.44C678.07,-242.12 679.4,-223.61 680.55,-207.49"/>
<polygon fill="green" stroke="green" stroke-width="0.18" points="684.06,-207.59 681.28,-197.36 677.07,-207.08 684.06,-207.59"/>
</g>
<!-- &#45;8 -->
<g id="node8" class="node">
<title>&#45;8</title>
<polygon fill="lightgray" stroke="black" points="730.75,-270.44 706.75,-270.44 706.75,-252.44 730.75,-252.44 730.75,-270.44"/>
<text text-anchor="middle" x="718.75" y="-259.24" font-family="Times New Roman,serif" font-size="9.00">&#45;8</text>
</g>
<!-- &#45;8&#45;&gt;704 -->
<g id="edge50" class="edge">
<title>&#45;8&#45;&gt;704</title>
<path fill="none" stroke="green" stroke-width="0.79" d="M721.05,-252.44C724.08,-241.89 729.58,-222.76 734.28,-206.4"/>
<polygon fill="green" stroke="green" stroke-width="0.79" points="737.68,-207.25 737.08,-196.67 730.95,-205.32 737.68,-207.25"/>
</g>
<!-- &#45;8&#45;&gt;705 -->
<g id="edge51" class="edge">
<title>&#45;8&#45;&gt;705</title>
<path fill="none" stroke="red" stroke-width="0.22" d="M724.24,-252C728.18,-246.69 733.96,-240.21 740.75,-236.69 849.05,-180.64 900.46,-248.25 1012.75,-200.69 1015.1,-199.7 1017.43,-198.46 1019.68,-197.08"/>
<polygon fill="red" stroke="red" stroke-width="0.22" points="1021.77,-199.9 1027.9,-191.26 1017.72,-194.18 1021.77,-199.9"/>
</g>
<!-- &#45;8&#45;&gt;707 -->
<g id="edge52" class="edge">
<title>&#45;8&#45;&gt;707</title>
<path fill="none" stroke="green" stroke-width="0.29" d="M724.29,-252.08C728.24,-246.81 734.03,-240.33 740.75,-236.69 824.81,-191.22 865.44,-239.57 952.75,-200.69 955.09,-199.65 957.4,-198.39 959.64,-196.99"/>
<polygon fill="green" stroke="green" stroke-width="0.29" points="961.74,-199.79 967.85,-191.13 957.67,-194.09 961.74,-199.79"/>
</g>
<!-- &#45;8&#45;&gt;708 -->
<g id="edge53" class="edge">
<title>&#45;8&#45;&gt;708</title>
<path fill="none" stroke="red" stroke-width="0.12" d="M724.37,-252.22C728.35,-247.01 734.15,-240.54 740.75,-236.69 800.72,-201.71 830.27,-230.96 892.75,-200.69 894.84,-199.68 896.91,-198.5 898.94,-197.22"/>
<polygon fill="red" stroke="red" stroke-width="0.12" points="901.33,-199.82 907.43,-191.16 897.26,-194.13 901.33,-199.82"/>
</g>
<!-- &#45;8&#45;&gt;709 -->
<g id="edge54" class="edge">
<title>&#45;8&#45;&gt;709</title>
<path fill="none" stroke="red" stroke-width="0.21" d="M724.92,-252.07C728.96,-247.06 734.62,-240.87 740.75,-236.69 777.03,-211.96 794.67,-222.56 832.75,-200.69 834.76,-199.54 836.78,-198.26 838.77,-196.9"/>
<polygon fill="red" stroke="red" stroke-width="0.21" points="841.22,-199.45 847.18,-190.69 837.06,-193.82 841.22,-199.45"/>
</g>
<!-- &#45;8&#45;&gt;701 -->
<g id="edge48" class="edge">
<title>&#45;8&#45;&gt;701</title>
<path fill="none" stroke="green" stroke-width="0.2" d="M725.97,-252.42C730.21,-247.77 735.71,-241.83 740.75,-236.69 753.63,-223.56 768.45,-209.25 780.37,-197.92"/>
<polygon fill="green" stroke="green" stroke-width="0.2" points="782.88,-200.37 787.74,-190.96 778.07,-195.29 782.88,-200.37"/>
</g>
<!-- &#45;8&#45;&gt;702 -->
<g id="edge49" class="edge">
<title>&#45;8&#45;&gt;702</title>
<path fill="none" stroke="red" stroke-width="0.58" d="M715.3,-252.44C710.62,-241.59 702.02,-221.65 694.84,-204.99"/>
<polygon fill="red" stroke="red" stroke-width="0.58" points="697.99,-203.45 690.82,-195.66 691.56,-206.22 697.99,-203.45"/>
</g>
<!-- &#45;9 -->
<g id="node9" class="node">
<title>&#45;9</title>
<polygon fill="lightgray" stroke="black" points="820.75,-270.44 796.75,-270.44 796.75,-252.44 820.75,-252.44 820.75,-270.44"/>
<text text-anchor="middle" x="808.75" y="-259.24" font-family="Times New Roman,serif" font-size="9.00">&#45;9</text>
</g>
<!-- &#45;9&#45;&gt;704 -->
<g id="edge57" class="edge">
<title>&#45;9&#45;&gt;704</title>
<path fill="none" stroke="green" stroke-width="0.53" d="M802.42,-252.44C793.16,-240.72 775.53,-218.41 761.82,-201.08"/>
<polygon fill="green" stroke="green" stroke-width="0.53" points="764.41,-198.7 755.46,-193.03 758.92,-203.05 764.41,-198.7"/>
</g>
<!-- &#45;9&#45;&gt;705 -->
<g id="edge58" class="edge">
<title>&#45;9&#45;&gt;705</title>
<path fill="none" stroke="green" stroke-width="0.1" d="M814.32,-252.14C818.28,-246.89 824.08,-240.42 830.75,-236.69 902.73,-196.48 937.88,-235.25 1012.75,-200.69 1015.07,-199.62 1017.37,-198.34 1019.61,-196.92"/>
<polygon fill="green" stroke="green" stroke-width="0.1" points="1021.72,-199.71 1027.8,-191.04 1017.64,-194.03 1021.72,-199.71"/>
</g>
<!-- &#45;9&#45;&gt;707 -->
<g id="edge59" class="edge">
<title>&#45;9&#45;&gt;707</title>
<path fill="none" stroke="green" stroke-width="0.12" d="M814.44,-252.34C818.45,-247.17 824.25,-240.72 830.75,-236.69 878.79,-206.89 902.56,-226.71 952.75,-200.69 954.81,-199.63 956.87,-198.41 958.88,-197.1"/>
<polygon fill="green" stroke="green" stroke-width="0.12" points="961.29,-199.67 967.34,-190.98 957.19,-194 961.29,-199.67"/>
</g>
<!-- &#45;9&#45;&gt;708 -->
<g id="edge60" class="edge">
<title>&#45;9&#45;&gt;708</title>
<path fill="none" stroke="green" stroke-width="0.13" d="M815.16,-252.39C819.29,-247.5 824.96,-241.33 830.75,-236.69 855.63,-216.79 866.41,-218.63 892.75,-200.69 894.67,-199.39 896.62,-198 898.56,-196.56"/>
<polygon fill="green" stroke="green" stroke-width="0.13" points="901.07,-199.06 906.88,-190.2 896.81,-193.5 901.07,-199.06"/>
</g>
<!-- &#45;9&#45;&gt;709 -->
<g id="edge61" class="edge">
<title>&#45;9&#45;&gt;709</title>
<path fill="none" stroke="green" stroke-width="0.4" d="M813.93,-252.44C821.25,-241.1 834.99,-219.87 846.03,-202.8"/>
<polygon fill="green" stroke="green" stroke-width="0.4" points="849.02,-204.62 851.51,-194.33 843.14,-200.82 849.02,-204.62"/>
</g>
<!-- &#45;9&#45;&gt;701 -->
<g id="edge55" class="edge">
<title>&#45;9&#45;&gt;701</title>
<path fill="none" stroke="green" stroke-width="0.36" d="M808.17,-252.44C807.43,-242.12 806.1,-223.61 804.94,-207.49"/>
<polygon fill="green" stroke="green" stroke-width="0.36" points="808.42,-207.08 804.22,-197.36 801.44,-207.59 808.42,-207.08"/>
</g>
<!-- &#45;9&#45;&gt;702 -->
<g id="edge56" class="edge">
<title>&#45;9&#45;&gt;702</title>
<path fill="none" stroke="green" stroke-width="0.19" d="M802.82,-252.21C798.95,-247.25 793.54,-241.07 787.75,-236.69 758.25,-214.4 744.1,-220.29 712.75,-200.69 710.78,-199.46 708.79,-198.13 706.82,-196.74"/>
<polygon fill="green" stroke="green" stroke-width="0.19" points="708.55,-193.66 698.46,-190.45 704.35,-199.25 708.55,-193.66"/>
</g>
<!-- &#45;10 -->
<g id="node10" class="node">
<title>&#45;10</title>
<polygon fill="lightgray" stroke="black" points="1208.25,-270.44 1179.25,-270.44 1179.25,-252.44 1208.25,-252.44 1208.25,-270.44"/>
<text text-anchor="middle" x="1193.75" y="-259.24" font-family="Times New Roman,serif" font-size="9.00">&#45;10</text>
</g>
<!-- &#45;10&#45;&gt;704 -->
<g id="edge63" class="edge">
<title>&#45;10&#45;&gt;704</title>
<path fill="none" stroke="red" stroke-width="0.23" d="M1188.01,-252.36C1183.67,-246.93 1177.19,-240.15 1169.75,-236.69 1009.1,-161.99 937.28,-266.41 772.75,-200.69 770.37,-199.74 768.03,-198.54 765.77,-197.19"/>
<polygon fill="red" stroke="red" stroke-width="0.23" points="767.73,-194.29 757.54,-191.4 763.71,-200.02 767.73,-194.29"/>
</g>
<!-- &#45;10&#45;&gt;705 -->
<g id="edge64" class="edge">
<title>&#45;10&#45;&gt;705</title>
<path fill="none" stroke="red" stroke-width="0.24" d="M1186.78,-252.24C1182.27,-247.3 1176.09,-241.13 1169.75,-236.69 1138.93,-215.16 1099.13,-197.88 1072.37,-187.55"/>
<polygon fill="red" stroke="red" stroke-width="0.24" points="1073.39,-184.19 1062.79,-183.93 1070.91,-190.74 1073.39,-184.19"/>
</g>
<!-- &#45;10&#45;&gt;707 -->
<g id="edge65" class="edge">
<title>&#45;10&#45;&gt;707</title>
<path fill="none" stroke="red" stroke-width="0.49" d="M1187.48,-252.21C1183.07,-247 1176.73,-240.53 1169.75,-236.69 1107.02,-202.2 1077.29,-231.67 1012.75,-200.69 1010.66,-199.69 1008.58,-198.52 1006.54,-197.24"/>
<polygon fill="red" stroke="red" stroke-width="0.49" points="1008.23,-194.14 998.05,-191.18 1004.16,-199.84 1008.23,-194.14"/>
</g>
<!-- &#45;10&#45;&gt;708 -->
<g id="edge66" class="edge">
<title>&#45;10&#45;&gt;708</title>
<path fill="none" stroke="red" stroke-width="0.19" d="M1187.55,-252.07C1183.18,-246.8 1176.85,-240.32 1169.75,-236.69 1082.69,-192.22 1042.13,-240.29 952.75,-200.69 950.41,-199.66 948.1,-198.4 945.85,-197"/>
<polygon fill="red" stroke="red" stroke-width="0.19" points="947.82,-194.1 937.65,-191.15 943.75,-199.8 947.82,-194.1"/>
</g>
<!-- &#45;10&#45;&gt;709 -->
<g id="edge67" class="edge">
<title>&#45;10&#45;&gt;709</title>
<path fill="none" stroke="green" stroke-width="0.3" d="M1187.59,-251.99C1183.24,-246.68 1176.91,-240.19 1169.75,-236.69 1058.22,-182.17 1007.12,-248.97 892.75,-200.69 890.39,-199.7 888.07,-198.47 885.82,-197.09"/>
<polygon fill="green" stroke="green" stroke-width="0.3" points="887.78,-194.19 877.59,-191.27 883.73,-199.9 887.78,-194.19"/>
</g>
<!-- &#45;10&#45;&gt;702 -->
<g id="edge62" class="edge">
<title>&#45;10&#45;&gt;702</title>
<path fill="none" stroke="green" stroke-width="0.36" d="M1188.03,-252.34C1183.69,-246.89 1177.21,-240.11 1169.75,-236.69 984.5,-151.88 902.4,-275.15 712.75,-200.69 710.37,-199.76 708.03,-198.57 705.76,-197.22"/>
<polygon fill="green" stroke="green" stroke-width="0.36" points="707.72,-194.32 697.52,-191.44 703.7,-200.05 707.72,-194.32"/>
</g>
<!-- &#45;11 -->
<g id="node11" class="node">
<title>&#45;11</title>
<polygon fill="lightgray" stroke="black" points="778.25,-270.44 749.25,-270.44 749.25,-252.44 778.25,-252.44 778.25,-270.44"/>
<text text-anchor="middle" x="763.75" y="-259.24" font-family="Times New Roman,serif" font-size="9.00">&#45;11</text>
</g>
<!-- &#45;11&#45;&gt;704 -->
<g id="edge70" class="edge">
<title>&#45;11&#45;&gt;704</title>
<path fill="none" stroke="green" stroke-width="0.21" d="M761.74,-252.44C759.08,-241.89 754.27,-222.76 750.16,-206.4"/>
<polygon fill="green" stroke="green" stroke-width="0.21" points="753.54,-205.52 747.71,-196.67 746.76,-207.22 753.54,-205.52"/>
</g>
<!-- &#45;11&#45;&gt;705 -->
<g id="edge71" class="edge">
<title>&#45;11&#45;&gt;705</title>
<path fill="none" stroke="red" stroke-width="0.74" d="M769.94,-252.06C774.31,-246.78 780.64,-240.3 787.75,-236.69 878.07,-190.88 920.04,-241.44 1012.75,-200.69 1015.09,-199.66 1017.41,-198.41 1019.65,-197.02"/>
<polygon fill="red" stroke="red" stroke-width="0.74" points="1021.75,-199.82 1027.86,-191.16 1017.69,-194.12 1021.75,-199.82"/>
</g>
<!-- &#45;11&#45;&gt;707 -->
<g id="edge72" class="edge">
<title>&#45;11&#45;&gt;707</title>
<path fill="none" stroke="red" stroke-width="0.36" d="M770.01,-252.19C774.41,-246.96 780.74,-240.5 787.75,-236.69 853.71,-200.87 884.91,-232.81 952.75,-200.69 955.06,-199.6 957.35,-198.3 959.59,-196.87"/>
<polygon fill="red" stroke="red" stroke-width="0.36" points="961.71,-199.66 967.77,-190.97 957.61,-193.98 961.71,-199.66"/>
</g>
<!-- &#45;11&#45;&gt;708 -->
<g id="edge73" class="edge">
<title>&#45;11&#45;&gt;708</title>
<path fill="none" stroke="green" stroke-width="0.19" d="M770.56,-252C775,-246.96 781.17,-240.77 787.75,-236.69 829.67,-210.69 849.45,-224.34 892.75,-200.69 894.79,-199.58 896.83,-198.33 898.83,-197"/>
<polygon fill="green" stroke="green" stroke-width="0.19" points="901.26,-199.56 907.26,-190.83 897.13,-193.91 901.26,-199.56"/>
</g>
<!-- &#45;11&#45;&gt;709 -->
<g id="edge74" class="edge">
<title>&#45;11&#45;&gt;709</title>
<path fill="none" stroke="green" stroke-width="0.28" d="M771.54,-252.31C776.14,-247.61 782.14,-241.68 787.75,-236.69 790.18,-234.53 817.59,-212.75 838.57,-196.1"/>
<polygon fill="green" stroke="green" stroke-width="0.28" points="840.86,-198.76 846.52,-189.8 836.51,-193.27 840.86,-198.76"/>
</g>
<!-- &#45;11&#45;&gt;701 -->
<g id="edge68" class="edge">
<title>&#45;11&#45;&gt;701</title>
<path fill="none" stroke="red" stroke-width="0.28" d="M767.49,-252.44C772.56,-241.59 781.87,-221.65 789.65,-204.99"/>
<polygon fill="red" stroke="red" stroke-width="0.28" points="792.95,-206.2 794.01,-195.66 786.61,-203.23 792.95,-206.2"/>
</g>
<!-- &#45;11&#45;&gt;702 -->
<g id="edge69" class="edge">
<title>&#45;11&#45;&gt;702</title>
<path fill="none" stroke="red" stroke-width="0.33" d="M755.98,-252.44C744.24,-240.33 721.53,-216.92 704.5,-199.36"/>
<polygon fill="red" stroke="red" stroke-width="0.33" points="706.6,-196.51 697.13,-191.77 701.58,-201.38 706.6,-196.51"/>
</g>
<!-- &#45;12 -->
<g id="node12" class="node">
<title>&#45;12</title>
<polygon fill="lightgray" stroke="black" points="524.25,-270.44 495.25,-270.44 495.25,-252.44 524.25,-252.44 524.25,-270.44"/>
<text text-anchor="middle" x="509.75" y="-259.24" font-family="Times New Roman,serif" font-size="9.00">&#45;12</text>
</g>
<!-- &#45;12&#45;&gt;704 -->
<g id="edge77" class="edge">
<title>&#45;12&#45;&gt;704</title>
<path fill="none" stroke="red" stroke-width="0.24" d="M517.63,-252.19C523.08,-246.97 530.76,-240.5 538.75,-236.69 610.03,-202.69 641.19,-234.1 712.75,-200.69 715.07,-199.61 717.36,-198.32 719.6,-196.9"/>
<polygon fill="red" stroke="red" stroke-width="0.24" points="721.72,-199.69 727.79,-191.01 717.63,-194.01 721.72,-199.69"/>
</g>
<!-- &#45;12&#45;&gt;707 -->
<g id="edge78" class="edge">
<title>&#45;12&#45;&gt;707</title>
<path fill="none" stroke="red" stroke-width="0.12" d="M524.67,-253.4C537.01,-247.91 555.14,-240.58 571.75,-236.69 737.36,-197.92 794.92,-264.08 952.75,-200.69 955.12,-199.74 957.46,-198.54 959.72,-197.18"/>
<polygon fill="red" stroke="red" stroke-width="0.12" points="961.79,-200 967.95,-191.39 957.76,-194.28 961.79,-200"/>
</g>
<!-- &#45;12&#45;&gt;708 -->
<g id="edge79" class="edge">
<title>&#45;12&#45;&gt;708</title>
<path fill="none" stroke="red" stroke-width="0.25" d="M524.69,-253.48C537.04,-248.03 555.17,-240.73 571.75,-236.69 711.24,-202.74 760,-255.36 892.75,-200.69 895.11,-199.72 897.45,-198.5 899.7,-197.13"/>
<polygon fill="red" stroke="red" stroke-width="0.25" points="901.78,-199.95 907.93,-191.33 897.74,-194.23 901.78,-199.95"/>
</g>
<!-- &#45;12&#45;&gt;709 -->
<g id="edge80" class="edge">
<title>&#45;12&#45;&gt;709</title>
<path fill="none" stroke="red" stroke-width="0.79" stroke-dasharray="1,5" d="M517.06,-252.44C522.48,-247.04 530.37,-240.27 538.75,-236.69 659.79,-184.94 711.28,-251.44 832.75,-200.69 835.11,-199.71 837.44,-198.48 839.69,-197.11"/>
<polygon fill="red" stroke="red" stroke-width="0.79" points="841.77,-199.92 847.92,-191.29 837.73,-194.21 841.77,-199.92"/>
</g>
<!-- &#45;12&#45;&gt;701 -->
<g id="edge75" class="edge">
<title>&#45;12&#45;&gt;701</title>
<path fill="none" stroke="green" stroke-width="0.14" d="M517.56,-252.06C522.99,-246.77 530.67,-240.3 538.75,-236.69 634.85,-193.84 676.29,-242.75 772.75,-200.69 775.09,-199.67 777.41,-198.42 779.66,-197.03"/>
<polygon fill="green" stroke="green" stroke-width="0.14" points="781.75,-199.84 787.87,-191.19 777.69,-194.13 781.75,-199.84"/>
</g>
<!-- &#45;12&#45;&gt;702 -->
<g id="edge76" class="edge">
<title>&#45;12&#45;&gt;702</title>
<path fill="none" stroke="red" stroke-width="0.13" d="M518.25,-252C523.72,-246.97 531.19,-240.78 538.75,-236.69 585.48,-211.41 605.81,-225.59 652.75,-200.69 654.8,-199.61 656.85,-198.37 658.86,-197.05"/>
<polygon fill="red" stroke="red" stroke-width="0.13" points="661.28,-199.62 667.31,-190.91 657.16,-193.96 661.28,-199.62"/>
</g>
<!-- &#45;13 -->
<g id="node13" class="node">
<title>&#45;13</title>
<polygon fill="lightgray" stroke="black" points="477.25,-270.44 448.25,-270.44 448.25,-252.44 477.25,-252.44 477.25,-270.44"/>
<text text-anchor="middle" x="462.75" y="-259.24" font-family="Times New Roman,serif" font-size="9.00">&#45;13</text>
</g>
<!-- &#45;13&#45;&gt;704 -->
<g id="edge83" class="edge">
<title>&#45;13&#45;&gt;704</title>
<path fill="none" stroke="red" stroke-width="0.26" d="M468.61,-252.05C472.76,-246.77 478.82,-240.29 485.75,-236.69 576.39,-189.58 619.21,-241.73 712.75,-200.69 715.09,-199.67 717.41,-198.41 719.65,-197.02"/>
<polygon fill="red" stroke="red" stroke-width="0.26" points="721.75,-199.82 727.86,-191.17 717.69,-194.12 721.75,-199.82"/>
</g>
<!-- &#45;13&#45;&gt;707 -->
<g id="edge84" class="edge">
<title>&#45;13&#45;&gt;707</title>
<path fill="none" stroke="green" stroke-width="0.29" d="M468.16,-252.34C472.28,-246.89 478.48,-240.11 485.75,-236.69 674.17,-148.18 758.91,-276.61 952.75,-200.69 955.13,-199.76 957.47,-198.57 959.74,-197.22"/>
<polygon fill="green" stroke="green" stroke-width="0.29" points="961.8,-200.05 967.98,-191.45 957.78,-194.32 961.8,-200.05"/>
</g>
<!-- &#45;13&#45;&gt;708 -->
<g id="edge85" class="edge">
<title>&#45;13&#45;&gt;708</title>
<path fill="none" stroke="red" stroke-width="0.56" stroke-dasharray="1,5" d="M468.17,-252.36C472.3,-246.93 478.5,-240.15 485.75,-236.69 649.67,-158.55 724.03,-267.87 892.75,-200.69 895.12,-199.75 897.46,-198.55 899.73,-197.19"/>
<polygon fill="red" stroke="red" stroke-width="0.56" points="901.79,-200.02 907.96,-191.41 897.77,-194.29 901.79,-200.02"/>
</g>
<!-- &#45;13&#45;&gt;709 -->
<g id="edge86" class="edge">
<title>&#45;13&#45;&gt;709</title>
<path fill="none" stroke="red" stroke-width="0.3" d="M468.18,-252.4C472.32,-246.98 478.52,-240.21 485.75,-236.69 625.2,-168.92 689.14,-259.14 832.75,-200.69 835.12,-199.73 837.45,-198.52 839.71,-197.16"/>
<polygon fill="red" stroke="red" stroke-width="0.3" points="841.78,-199.98 847.94,-191.36 837.75,-194.25 841.78,-199.98"/>
</g>
<!-- &#45;13&#45;&gt;701 -->
<g id="edge81" class="edge">
<title>&#45;13&#45;&gt;701</title>
<path fill="none" stroke="green" stroke-width="0.29" d="M468.57,-251.98C472.71,-246.67 478.76,-240.18 485.75,-236.69 600.76,-179.26 654.2,-250.42 772.75,-200.69 775.11,-199.7 777.43,-198.48 779.69,-197.1"/>
<polygon fill="green" stroke="green" stroke-width="0.29" points="781.77,-199.92 787.91,-191.28 777.73,-194.2 781.77,-199.92"/>
</g>
<!-- &#45;13&#45;&gt;702 -->
<g id="edge82" class="edge">
<title>&#45;13&#45;&gt;702</title>
<path fill="none" stroke="red" stroke-width="0.43" d="M468.67,-252.18C472.86,-246.95 478.92,-240.48 485.75,-236.69 552.13,-199.84 584.08,-233.1 652.75,-200.69 655.06,-199.6 657.36,-198.3 659.59,-196.88"/>
<polygon fill="red" stroke="red" stroke-width="0.43" points="661.71,-199.67 667.78,-190.98 657.62,-193.99 661.71,-199.67"/>
</g>
<!-- &#45;14 -->
<g id="node14" class="node">
<title>&#45;14</title>
<polygon fill="lightgray" stroke="black" points="1302.25,-270.44 1273.25,-270.44 1273.25,-252.44 1302.25,-252.44 1302.25,-270.44"/>
<text text-anchor="middle" x="1287.75" y="-259.24" font-family="Times New Roman,serif" font-size="9.00">&#45;14</text>
</g>
<!-- &#45;14&#45;&gt;704 -->
<g id="edge88" class="edge">
<title>&#45;14&#45;&gt;704</title>
<path fill="none" stroke="red" stroke-width="0.61" d="M1282.35,-252.33C1278.22,-246.88 1272.03,-240.1 1264.75,-236.69 1066.12,-143.86 977.06,-280.25 772.75,-200.69 770.37,-199.77 768.02,-198.58 765.76,-197.23"/>
<polygon fill="red" stroke="red" stroke-width="0.61" points="767.71,-194.33 757.51,-191.46 763.7,-200.07 767.71,-194.33"/>
</g>
<!-- &#45;14&#45;&gt;705 -->
<g id="edge89" class="edge">
<title>&#45;14&#45;&gt;705</title>
<path fill="none" stroke="red" stroke-width="0.62" d="M1281.76,-252.29C1277.55,-247.11 1271.48,-240.65 1264.75,-236.69 1202.98,-200.32 1118.61,-185.58 1073.76,-180.01"/>
<polygon fill="red" stroke="red" stroke-width="0.62" points="1074.1,-176.53 1063.76,-178.85 1073.29,-183.48 1074.1,-176.53"/>
</g>
<!-- &#45;14&#45;&gt;707 -->
<g id="edge90" class="edge">
<title>&#45;14&#45;&gt;707</title>
<path fill="none" stroke="green" stroke-width="0.15" d="M1281.91,-252.02C1277.76,-246.72 1271.7,-240.24 1264.75,-236.69 1163.96,-185.29 1116.7,-245.35 1012.75,-200.69 1010.4,-199.68 1008.08,-198.44 1005.83,-197.06"/>
<polygon fill="green" stroke="green" stroke-width="0.15" points="1007.79,-194.16 997.61,-191.22 1003.74,-199.87 1007.79,-194.16"/>
</g>
<!-- &#45;14&#45;&gt;708 -->
<g id="edge91" class="edge">
<title>&#45;14&#45;&gt;708</title>
<path fill="none" stroke="red" stroke-width="0.15" d="M1282.3,-252.42C1278.16,-247.02 1271.96,-240.25 1264.75,-236.69 1139.56,-174.96 1081.73,-254.05 952.75,-200.69 950.39,-199.72 948.05,-198.5 945.8,-197.13"/>
<polygon fill="red" stroke="red" stroke-width="0.15" points="947.76,-194.23 937.57,-191.32 943.72,-199.94 947.76,-194.23"/>
</g>
<!-- &#45;14&#45;&gt;709 -->
<g id="edge92" class="edge">
<title>&#45;14&#45;&gt;709</title>
<path fill="none" stroke="green" stroke-width="0.15" d="M1282.32,-252.38C1278.19,-246.96 1271.99,-240.18 1264.75,-236.69 1115.1,-164.6 1046.82,-262.77 892.75,-200.69 890.38,-199.74 888.04,-198.53 885.78,-197.17"/>
<polygon fill="green" stroke="green" stroke-width="0.15" points="887.74,-194.27 877.55,-191.38 883.71,-200 887.74,-194.27"/>
</g>
<!-- &#45;14&#45;&gt;701 -->
<g id="edge87" class="edge">
<title>&#45;14&#45;&gt;701</title>
<path fill="none" stroke="green" stroke-width="0.44" d="M1282.33,-252.35C1278.21,-246.91 1272.01,-240.13 1264.75,-236.69 1090.62,-154.23 1011.93,-271.51 832.75,-200.69 830.37,-199.75 828.03,-198.56 825.77,-197.21"/>
<polygon fill="green" stroke="green" stroke-width="0.44" points="827.72,-194.31 817.53,-191.43 823.7,-200.04 827.72,-194.31"/>
</g>
<!-- &#45;15 -->
<g id="node15" class="node">
<title>&#45;15</title>
<polygon fill="lightgray" stroke="black" points="868.25,-270.44 839.25,-270.44 839.25,-252.44 868.25,-252.44 868.25,-270.44"/>
<text text-anchor="middle" x="853.75" y="-259.24" font-family="Times New Roman,serif" font-size="9.00">&#45;15</text>
</g>
<!-- &#45;15&#45;&gt;704 -->
<g id="edge95" class="edge">
<title>&#45;15&#45;&gt;704</title>
<path fill="none" stroke="red" stroke-width="0.14" d="M846.15,-252.07C841.62,-247.3 835.62,-241.36 829.75,-236.69 806.3,-218.05 797.2,-218.02 772.75,-200.69 770.86,-199.35 768.92,-197.93 766.99,-196.49"/>
<polygon fill="red" stroke="red" stroke-width="0.14" points="768.75,-193.43 758.7,-190.08 764.48,-198.97 768.75,-193.43"/>
</g>
<!-- &#45;15&#45;&gt;705 -->
<g id="edge96" class="edge">
<title>&#45;15&#45;&gt;705</title>
<path fill="none" stroke="green" stroke-width="0.69" d="M860.07,-252.29C864.49,-247.11 870.83,-240.66 877.75,-236.69 931.63,-205.82 957.25,-228.54 1012.75,-200.69 1014.82,-199.65 1016.89,-198.45 1018.91,-197.16"/>
<polygon fill="green" stroke="green" stroke-width="0.69" points="1021.31,-199.74 1027.39,-191.06 1017.22,-194.06 1021.31,-199.74"/>
</g>
<!-- &#45;15&#45;&gt;707 -->
<g id="edge97" class="edge">
<title>&#45;15&#45;&gt;707</title>
<path fill="none" stroke="red" stroke-width="0.28" d="M860.73,-252.26C865.24,-247.33 871.42,-241.15 877.75,-236.69 907.97,-215.4 921.39,-220.29 952.75,-200.69 954.72,-199.46 956.71,-198.13 958.68,-196.74"/>
<polygon fill="red" stroke="red" stroke-width="0.28" points="961.15,-199.25 967.04,-190.45 956.94,-193.66 961.15,-199.25"/>
</g>
<!-- &#45;15&#45;&gt;708 -->
<g id="edge98" class="edge">
<title>&#45;15&#45;&gt;708</title>
<path fill="none" stroke="green" stroke-width="0.46" stroke-dasharray="1,5" d="M860.36,-252.44C870.1,-240.65 888.7,-218.15 903.07,-200.76"/>
<polygon fill="green" stroke="green" stroke-width="0.46" points="906.05,-202.65 909.72,-192.71 900.65,-198.19 906.05,-202.65"/>
</g>
<!-- &#45;15&#45;&gt;709 -->
<g id="edge99" class="edge">
<title>&#45;15&#45;&gt;709</title>
<path fill="none" stroke="green" stroke-width="0.35" d="M854.61,-252.44C855.72,-242.12 857.72,-223.61 859.46,-207.49"/>
<polygon fill="green" stroke="green" stroke-width="0.35" points="862.96,-207.68 860.55,-197.36 856,-206.93 862.96,-207.68"/>
</g>
<!-- &#45;15&#45;&gt;701 -->
<g id="edge93" class="edge">
<title>&#45;15&#45;&gt;701</title>
<path fill="none" stroke="red" stroke-width="0.42" d="M848.86,-252.44C842,-241.21 829.2,-220.26 818.83,-203.27"/>
<polygon fill="red" stroke="red" stroke-width="0.42" points="821.56,-201.04 813.37,-194.33 815.59,-204.68 821.56,-201.04"/>
</g>
<!-- &#45;15&#45;&gt;702 -->
<g id="edge94" class="edge">
<title>&#45;15&#45;&gt;702</title>
<path fill="none" stroke="red" stroke-width="0.44" d="M847.38,-252.38C842.94,-247.23 836.59,-240.79 829.75,-236.69 783.07,-208.75 760.9,-226.01 712.75,-200.69 710.69,-199.61 708.64,-198.39 706.63,-197.07"/>
<polygon fill="red" stroke="red" stroke-width="0.44" points="708.33,-193.98 698.18,-190.94 704.21,-199.64 708.33,-193.98"/>
</g>
<!-- &#45;16 -->
<g id="node16" class="node">
<title>&#45;16</title>
<polygon fill="lightgray" stroke="black" points="915.25,-270.44 886.25,-270.44 886.25,-252.44 915.25,-252.44 915.25,-270.44"/>
<text text-anchor="middle" x="900.75" y="-259.24" font-family="Times New Roman,serif" font-size="9.00">&#45;16</text>
</g>
<!-- &#45;16&#45;&gt;704 -->
<g id="edge102" class="edge">
<title>&#45;16&#45;&gt;704</title>
<path fill="none" stroke="red" stroke-width="0.44" d="M894.67,-252.44C890.42,-247.32 884.34,-240.88 877.75,-236.69 836.1,-210.24 816.04,-224.34 772.75,-200.69 770.71,-199.58 768.67,-198.33 766.67,-197"/>
<polygon fill="red" stroke="red" stroke-width="0.44" points="768.37,-193.91 758.23,-190.83 764.24,-199.56 768.37,-193.91"/>
</g>
<!-- &#45;16&#45;&gt;705 -->
<g id="edge103" class="edge">
<title>&#45;16&#45;&gt;705</title>
<path fill="none" stroke="green" stroke-width="0.23" stroke-dasharray="1,5" d="M907.64,-252.13C912.12,-247.14 918.29,-240.96 924.75,-236.69 960,-213.39 976.27,-222.02 1012.75,-200.69 1014.75,-199.52 1016.77,-198.23 1018.75,-196.87"/>
<polygon fill="green" stroke="green" stroke-width="0.23" points="1021.21,-199.41 1027.16,-190.64 1017.04,-193.78 1021.21,-199.41"/>
</g>
<!-- &#45;16&#45;&gt;707 -->
<g id="edge104" class="edge">
<title>&#45;16&#45;&gt;707</title>
<path fill="none" stroke="green" stroke-width="0.19" d="M908.61,-252.44C920.5,-240.33 943.49,-216.92 960.73,-199.36"/>
<polygon fill="green" stroke="green" stroke-width="0.19" points="963.68,-201.36 968.19,-191.77 958.69,-196.45 963.68,-201.36"/>
</g>
<!-- &#45;16&#45;&gt;708 -->
<g id="edge105" class="edge">
<title>&#45;16&#45;&gt;708</title>
<path fill="none" stroke="red" stroke-width="0.44" d="M902.86,-252.44C905.64,-241.89 910.68,-222.76 914.99,-206.4"/>
<polygon fill="red" stroke="red" stroke-width="0.44" points="918.39,-207.23 917.55,-196.67 911.62,-205.45 918.39,-207.23"/>
</g>
<!-- &#45;16&#45;&gt;709 -->
<g id="edge106" class="edge">
<title>&#45;16&#45;&gt;709</title>
<path fill="none" stroke="green" stroke-width="0.57" d="M897.11,-252.44C892.17,-241.59 883.1,-221.65 875.51,-204.99"/>
<polygon fill="green" stroke="green" stroke-width="0.57" points="878.59,-203.31 871.26,-195.66 872.22,-206.21 878.59,-203.31"/>
</g>
<!-- &#45;16&#45;&gt;701 -->
<g id="edge100" class="edge">
<title>&#45;16&#45;&gt;701</title>
<path fill="none" stroke="green" stroke-width="0.1" stroke-dasharray="1,5" d="M893.33,-252.27C888.94,-247.57 883.19,-241.63 877.75,-236.69 875.34,-234.51 847.93,-212.73 826.94,-196.09"/>
<polygon fill="green" stroke="green" stroke-width="0.1" points="829,-193.26 818.99,-189.8 824.65,-198.75 829,-193.26"/>
</g>
<!-- &#45;16&#45;&gt;702 -->
<g id="edge101" class="edge">
<title>&#45;16&#45;&gt;702</title>
<path fill="none" stroke="red" stroke-width="0.2" d="M894.82,-252.18C890.63,-246.96 884.57,-240.49 877.75,-236.69 812.17,-200.18 780.59,-232.81 712.75,-200.69 710.44,-199.6 708.14,-198.3 705.91,-196.87"/>
<polygon fill="red" stroke="red" stroke-width="0.2" points="707.88,-193.98 697.73,-190.97 703.79,-199.66 707.88,-193.98"/>
</g>
<!-- &#45;17 -->
<g id="node17" class="node">
<title>&#45;17</title>
<polygon fill="lightgray" stroke="black" points="962.25,-270.44 933.25,-270.44 933.25,-252.44 962.25,-252.44 962.25,-270.44"/>
<text text-anchor="middle" x="947.75" y="-259.24" font-family="Times New Roman,serif" font-size="9.00">&#45;17</text>
</g>
<!-- &#45;17&#45;&gt;704 -->
<g id="edge109" class="edge">
<title>&#45;17&#45;&gt;704</title>
<path fill="none" stroke="red" stroke-width="0.22" d="M941.8,-252.22C937.6,-247.01 931.53,-240.55 924.75,-236.69 864.4,-202.38 835.23,-230.96 772.75,-200.69 770.66,-199.68 768.58,-198.5 766.55,-197.22"/>
<polygon fill="red" stroke="red" stroke-width="0.22" points="768.24,-194.13 758.06,-191.16 764.17,-199.82 768.24,-194.13"/>
</g>
<!-- &#45;17&#45;&gt;705 -->
<g id="edge110" class="edge">
<title>&#45;17&#45;&gt;705</title>
<path fill="none" stroke="red" stroke-width="0.15" d="M956.86,-252.44C971.21,-239.82 999.52,-214.94 1019.71,-197.19"/>
<polygon fill="red" stroke="red" stroke-width="0.15" points="1022.07,-199.78 1027.28,-190.54 1017.45,-194.52 1022.07,-199.78"/>
</g>
<!-- &#45;17&#45;&gt;707 -->
<g id="edge111" class="edge">
<title>&#45;17&#45;&gt;707</title>
<path fill="none" stroke="green" stroke-width="0.2" d="M951.1,-252.44C955.65,-241.59 964.01,-221.65 970.99,-204.99"/>
<polygon fill="green" stroke="green" stroke-width="0.2" points="974.27,-206.23 974.91,-195.66 967.81,-203.53 974.27,-206.23"/>
</g>
<!-- &#45;17&#45;&gt;708 -->
<g id="edge112" class="edge">
<title>&#45;17&#45;&gt;708</title>
<path fill="none" stroke="red" stroke-width="0.19" d="M945.35,-252.44C942.19,-241.89 936.47,-222.76 931.57,-206.4"/>
<polygon fill="red" stroke="red" stroke-width="0.19" points="934.88,-205.25 928.66,-196.67 928.17,-207.26 934.88,-205.25"/>
</g>
<!-- &#45;17&#45;&gt;709 -->
<g id="edge113" class="edge">
<title>&#45;17&#45;&gt;709</title>
<path fill="none" stroke="red" stroke-width="0.52" d="M939.73,-252.02C935.34,-247.45 929.79,-241.72 924.75,-236.69 911.73,-223.7 896.9,-209.4 885.01,-198.04"/>
<polygon fill="red" stroke="red" stroke-width="0.52" points="887.32,-195.41 877.67,-191.05 882.5,-200.48 887.32,-195.41"/>
</g>
<!-- &#45;17&#45;&gt;701 -->
<g id="edge107" class="edge">
<title>&#45;17&#45;&gt;701</title>
<path fill="none" stroke="red" stroke-width="0.15" d="M941.23,-252.08C936.97,-247.07 931.06,-240.89 924.75,-236.69 888.2,-212.37 870.82,-222.56 832.75,-200.69 830.74,-199.54 828.71,-198.26 826.72,-196.9"/>
<polygon fill="red" stroke="red" stroke-width="0.15" points="828.44,-193.82 818.31,-190.69 824.28,-199.45 828.44,-193.82"/>
</g>
<!-- &#45;17&#45;&gt;702 -->
<g id="edge108" class="edge">
<title>&#45;17&#45;&gt;702</title>
<path fill="none" stroke="green" stroke-width="0.29" d="M941.88,-252.08C937.71,-246.81 931.66,-240.33 924.75,-236.69 840.19,-192.15 800.06,-239.57 712.75,-200.69 710.41,-199.65 708.1,-198.39 705.86,-196.99"/>
<polygon fill="green" stroke="green" stroke-width="0.29" points="707.82,-194.09 697.65,-191.13 703.76,-199.79 707.82,-194.09"/>
</g>
<!-- &#45;18 -->
<g id="node18" class="node">
<title>&#45;18</title>
<polygon fill="lightgray" stroke="black" points="1255.25,-270.44 1226.25,-270.44 1226.25,-252.44 1255.25,-252.44 1255.25,-270.44"/>
<text text-anchor="middle" x="1240.75" y="-259.24" font-family="Times New Roman,serif" font-size="9.00">&#45;18</text>
</g>
<!-- &#45;18&#45;&gt;705 -->
<g id="edge116" class="edge">
<title>&#45;18&#45;&gt;705</title>
<path fill="none" stroke="red" stroke-width="0.23" d="M1234.67,-252.44C1230.42,-247.32 1224.34,-240.87 1217.75,-236.69 1171.85,-207.58 1110.13,-190.85 1073.58,-182.85"/>
<polygon fill="red" stroke="red" stroke-width="0.23" points="1074.04,-179.37 1063.54,-180.73 1072.6,-186.22 1074.04,-179.37"/>
</g>
<!-- &#45;18&#45;&gt;707 -->
<g id="edge117" class="edge">
<title>&#45;18&#45;&gt;707</title>
<path fill="none" stroke="red" stroke-width="0.17" d="M1234.87,-252.09C1230.71,-246.82 1224.64,-240.35 1217.75,-236.69 1136.03,-193.35 1097.15,-238.56 1012.75,-200.69 1010.42,-199.65 1008.11,-198.38 1005.86,-196.98"/>
<polygon fill="red" stroke="red" stroke-width="0.17" points="1007.83,-194.08 997.66,-191.11 1003.76,-199.78 1007.83,-194.08"/>
</g>
<!-- &#45;18&#45;&gt;708 -->
<g id="edge118" class="edge">
<title>&#45;18&#45;&gt;708</title>
<path fill="none" stroke="green" stroke-width="0.1" d="M1234.92,-252C1230.77,-246.7 1224.71,-240.22 1217.75,-236.69 1111.68,-183.05 1062.12,-247.23 952.75,-200.69 950.4,-199.69 948.07,-198.45 945.82,-197.08"/>
<polygon fill="green" stroke="green" stroke-width="0.1" points="947.78,-194.18 937.6,-191.25 943.73,-199.89 947.78,-194.18"/>
</g>
<!-- &#45;18&#45;&gt;709 -->
<g id="edge119" class="edge">
<title>&#45;18&#45;&gt;709</title>
<path fill="none" stroke="green" stroke-width="0.76" d="M1235.31,-252.41C1231.17,-247 1224.96,-240.23 1217.75,-236.69 1087.26,-172.71 1027.17,-255.94 892.75,-200.69 890.38,-199.72 888.05,-198.5 885.79,-197.14"/>
<polygon fill="green" stroke="green" stroke-width="0.76" points="887.75,-194.24 877.57,-191.33 883.72,-199.96 887.75,-194.24"/>
</g>
<!-- &#45;18&#45;&gt;701 -->
<g id="edge114" class="edge">
<title>&#45;18&#45;&gt;701</title>
<path fill="none" stroke="green" stroke-width="0.13" d="M1235.32,-252.37C1231.19,-246.95 1224.99,-240.17 1217.75,-236.69 1062.8,-162.36 992.26,-264.67 832.75,-200.69 830.38,-199.74 828.04,-198.54 825.78,-197.18"/>
<polygon fill="green" stroke="green" stroke-width="0.13" points="827.74,-194.28 817.54,-191.39 823.71,-200.01 827.74,-194.28"/>
</g>
<!-- &#45;18&#45;&gt;702 -->
<g id="edge115" class="edge">
<title>&#45;18&#45;&gt;702</title>
<path fill="none" stroke="green" stroke-width="0.42" d="M1235.35,-252.32C1231.23,-246.87 1225.03,-240.09 1217.75,-236.69 1013.81,-141.61 922.5,-282.14 712.75,-200.69 710.36,-199.77 708.02,-198.58 705.75,-197.24"/>
<polygon fill="green" stroke="green" stroke-width="0.42" points="707.71,-194.34 697.51,-191.47 703.7,-200.07 707.71,-194.34"/>
</g>
<!-- &#45;19 -->
<g id="node19" class="node">
<title>&#45;19</title>
<polygon fill="lightgray" stroke="black" points="387.25,-340.19 358.25,-340.19 358.25,-322.19 387.25,-322.19 387.25,-340.19"/>
<text text-anchor="middle" x="372.75" y="-328.99" font-family="Times New Roman,serif" font-size="9.00">&#45;19</text>
</g>
<!-- &#45;19&#45;&gt;704 -->
<g id="edge122" class="edge">
<title>&#45;19&#45;&gt;704</title>
<path fill="none" stroke="green" stroke-width="0.45" d="M358.03,-329.17C316.59,-325.97 200.45,-314.59 177.75,-286.19 164.01,-269.01 162.72,-252.76 177.75,-236.69 218.44,-193.17 657.17,-222.15 712.75,-200.69 715.13,-199.77 717.48,-198.59 719.75,-197.25"/>
<polygon fill="green" stroke="green" stroke-width="0.45" points="721.8,-200.08 727.99,-191.48 717.79,-194.35 721.8,-200.08"/>
</g>
<!-- &#45;19&#45;&gt;705 -->
<g id="edge123" class="edge">
<title>&#45;19&#45;&gt;705</title>
<path fill="none" stroke="red" stroke-width="0.19" d="M387.34,-330.18C514.79,-330 1435.24,-327.31 1474.75,-286.19 1489.99,-270.33 1489.2,-253.28 1474.75,-236.69 1422.48,-176.69 1164.78,-174.94 1074.26,-176.24"/>
<polygon fill="red" stroke="red" stroke-width="0.19" points="1074.01,-172.74 1064.07,-176.41 1074.13,-179.74 1074.01,-172.74"/>
</g>
<!-- &#45;19&#45;&gt;707 -->
<g id="edge124" class="edge">
<title>&#45;19&#45;&gt;707</title>
<path fill="none" stroke="red" stroke-width="0.21" stroke-dasharray="1,5" d="M387.48,-330.17C514.24,-329.9 1416.98,-326.57 1455.75,-286.19 1470.99,-270.32 1470.66,-252.87 1455.75,-236.69 1388.8,-164.08 1104.64,-236.9 1012.75,-200.69 1010.37,-199.76 1008.03,-198.56 1005.76,-197.21"/>
<polygon fill="red" stroke="red" stroke-width="0.21" points="1007.72,-194.31 997.52,-191.44 1003.7,-200.04 1007.72,-194.31"/>
</g>
<!-- &#45;19&#45;&gt;708 -->
<g id="edge125" class="edge">
<title>&#45;19&#45;&gt;708</title>
<path fill="none" stroke="red" stroke-width="0.23" d="M387.31,-330.07C503.64,-329.08 1278.41,-321.13 1311.75,-286.19 1326.94,-270.28 1326.51,-253.01 1311.75,-236.69 1257.96,-177.24 1027.06,-230.79 952.75,-200.69 950.38,-199.73 948.04,-198.53 945.78,-197.16"/>
<polygon fill="red" stroke="red" stroke-width="0.23" points="947.74,-194.26 937.55,-191.37 943.71,-199.99 947.74,-194.26"/>
</g>
<!-- &#45;19&#45;&gt;709 -->
<g id="edge126" class="edge">
<title>&#45;19&#45;&gt;709</title>
<path fill="none" stroke="red" stroke-width="0.16" d="M387.7,-329.18C417.61,-326.52 485.94,-317.25 532.75,-286.19 556.08,-270.7 547.45,-250.62 571.75,-236.69 673.35,-178.48 725.05,-246.65 832.75,-200.69 835.1,-199.69 837.42,-198.45 839.67,-197.07"/>
<polygon fill="red" stroke="red" stroke-width="0.16" points="841.76,-199.88 847.89,-191.24 837.71,-194.17 841.76,-199.88"/>
</g>
<!-- 1582 -->
<g id="node32" class="node">
<title>1582</title>
<ellipse fill="white" stroke="black" cx="24.75" cy="-261.44" rx="25" ry="25"/>
<text text-anchor="middle" x="24.75" y="-259.24" font-family="Times New Roman,serif" font-size="9.00">1582</text>
</g>
<!-- &#45;19&#45;&gt;1582 -->
<g id="edge170" class="edge">
<title>&#45;19&#45;&gt;1582</title>
<path fill="none" stroke="green" stroke-width="0.49" d="M358.09,-330.17C312.83,-329.69 171.89,-324.96 63.75,-286.19 60.26,-284.94 56.74,-283.35 53.33,-281.6"/>
<polygon fill="green" stroke="green" stroke-width="0.49" points="55.03,-278.54 44.61,-276.66 51.59,-284.63 55.03,-278.54"/>
</g>
<!-- &#45;19&#45;&gt;701 -->
<g id="edge120" class="edge">
<title>&#45;19&#45;&gt;701</title>
<path fill="none" stroke="red" stroke-width="1.45" d="M371.44,-321.92C369.05,-303.48 366.27,-258.92 390.75,-236.69 453.87,-179.37 693.62,-232.46 772.75,-200.69 775.12,-199.74 777.46,-198.54 779.72,-197.18"/>
<polygon fill="red" stroke="red" stroke-width="1.45" points="781.79,-200 787.96,-191.39 777.76,-194.28 781.79,-200"/>
</g>
<!-- &#45;19&#45;&gt;702 -->
<g id="edge121" class="edge">
<title>&#45;19&#45;&gt;702</title>
<path fill="none" stroke="green" stroke-width="0.19" stroke-dasharray="1,5" d="M357.98,-330C291.36,-328.66 25.36,-318.24 101.75,-236.69 143.69,-191.92 595.49,-222.73 652.75,-200.69 655.14,-199.77 657.48,-198.6 659.75,-197.25"/>
<polygon fill="green" stroke="green" stroke-width="0.19" points="661.8,-200.09 667.99,-191.49 657.79,-194.35 661.8,-200.09"/>
</g>
<!-- &#45;20 -->
<g id="node20" class="node">
<title>&#45;20</title>
<polygon fill="lightgray" stroke="black" points="1387.25,-340.19 1358.25,-340.19 1358.25,-322.19 1387.25,-322.19 1387.25,-340.19"/>
<text text-anchor="middle" x="1372.75" y="-328.99" font-family="Times New Roman,serif" font-size="9.00">&#45;20</text>
</g>
<!-- &#45;20&#45;&gt;704 -->
<g id="edge129" class="edge">
<title>&#45;20&#45;&gt;704</title>
<path fill="none" stroke="red" stroke-width="0.34" d="M1358.22,-329.62C1235.2,-324.81 372.23,-290.88 367.75,-286.19 352.54,-270.3 353.02,-253.04 367.75,-236.69 419.35,-179.43 641.36,-229.77 712.75,-200.69 715.12,-199.73 717.45,-198.52 719.71,-197.15"/>
<polygon fill="red" stroke="red" stroke-width="0.34" points="721.78,-199.98 727.94,-191.36 717.75,-194.25 721.78,-199.98"/>
</g>
<!-- &#45;20&#45;&gt;705 -->
<g id="edge130" class="edge">
<title>&#45;20&#45;&gt;705</title>
<path fill="none" stroke="red" stroke-width="0.13" d="M1387.45,-329.78C1458.31,-327.65 1762.23,-316.76 1789.75,-286.19 1804.47,-269.84 1804.67,-252.86 1789.75,-236.69 1765.07,-209.96 1213.17,-184.33 1074.26,-178.28"/>
<polygon fill="red" stroke="red" stroke-width="0.13" points="1074.04,-174.77 1063.9,-177.83 1073.74,-181.76 1074.04,-174.77"/>
</g>
<!-- &#45;20&#45;&gt;707 -->
<g id="edge131" class="edge">
<title>&#45;20&#45;&gt;707</title>
<path fill="none" stroke="green" stroke-width="0.54" d="M1387.37,-329.95C1453.34,-328.39 1716.7,-317.13 1640.75,-236.69 1592.76,-185.88 1078.08,-225.54 1012.75,-200.69 1010.36,-199.78 1008.01,-198.61 1005.74,-197.27"/>
<polygon fill="green" stroke="green" stroke-width="0.54" points="1007.7,-194.37 997.49,-191.52 1003.69,-200.11 1007.7,-194.37"/>
</g>
<!-- &#45;20&#45;&gt;708 -->
<g id="edge132" class="edge">
<title>&#45;20&#45;&gt;708</title>
<path fill="none" stroke="green" stroke-width="0.42" d="M1387.33,-327.27C1406.89,-322.49 1440.87,-310.93 1455.75,-286.19 1467.09,-267.34 1470.74,-252.79 1455.75,-236.69 1417.57,-195.68 1004.98,-220.98 952.75,-200.69 950.36,-199.77 948.02,-198.58 945.75,-197.24"/>
<polygon fill="green" stroke="green" stroke-width="0.42" points="947.71,-194.34 937.51,-191.47 943.7,-200.07 947.71,-194.34"/>
</g>
<!-- &#45;20&#45;&gt;709 -->
<g id="edge133" class="edge">
<title>&#45;20&#45;&gt;709</title>
<path fill="none" stroke="green" stroke-width="0.55" d="M1358.04,-329.47C1302.68,-326.58 1107.23,-314.51 1052.75,-286.19 1026.1,-272.34 1032.13,-252.75 1006.75,-236.69 961.84,-208.29 939.69,-225.59 892.75,-200.69 890.7,-199.61 888.65,-198.37 886.64,-197.05"/>
<polygon fill="green" stroke="green" stroke-width="0.55" points="888.34,-193.96 878.19,-190.91 884.22,-199.62 888.34,-193.96"/>
</g>
<!-- 1323 -->
<g id="node31" class="node">
<title>1323</title>
<ellipse fill="white" stroke="black" cx="1937.75" cy="-261.44" rx="25" ry="25"/>
<text text-anchor="middle" x="1937.75" y="-259.24" font-family="Times New Roman,serif" font-size="9.00">1323</text>
</g>
<!-- &#45;20&#45;&gt;1323 -->
<g id="edge164" class="edge">
<title>&#45;20&#45;&gt;1323</title>
<path fill="none" stroke="red" stroke-width="0.21" d="M1387.58,-329.32C1444.3,-325.84 1652.78,-311.98 1822.75,-286.19 1850.19,-282.03 1880.97,-275.58 1903.78,-270.45"/>
<polygon fill="red" stroke="red" stroke-width="0.21" points="1904.68,-273.83 1913.65,-268.2 1903.13,-267.01 1904.68,-273.83"/>
</g>
<!-- &#45;20&#45;&gt;701 -->
<g id="edge127" class="edge">
<title>&#45;20&#45;&gt;701</title>
<path fill="none" stroke="red" stroke-width="0.19" stroke-dasharray="1,5" d="M1358.21,-329.64C1240.48,-325.19 447.05,-294.89 438.75,-286.19 423.56,-270.27 424.05,-253.06 438.75,-236.69 488.63,-181.15 703.66,-228.97 772.75,-200.69 775.12,-199.72 777.45,-198.51 779.71,-197.15"/>
<polygon fill="red" stroke="red" stroke-width="0.19" points="781.78,-199.97 787.94,-191.34 777.75,-194.24 781.78,-199.97"/>
</g>
<!-- &#45;20&#45;&gt;702 -->
<g id="edge128" class="edge">
<title>&#45;20&#45;&gt;702</title>
<path fill="none" stroke="green" stroke-width="0.84" stroke-dasharray="1,5" d="M1358.01,-329.62C1233.15,-324.82 357.3,-290.95 352.75,-286.19 337.53,-270.3 338.15,-253.15 352.75,-236.69 397.31,-186.47 590.76,-226.5 652.75,-200.69 655.11,-199.71 657.44,-198.49 659.69,-197.11"/>
<polygon fill="green" stroke="green" stroke-width="0.84" points="661.77,-199.93 667.92,-191.3 657.73,-194.21 661.77,-199.93"/>
</g>
<!-- 0 -->
<g id="node21" class="node">
<title>0</title>
<ellipse fill="lightblue" stroke="black" cx="757.75" cy="-14.85" rx="14.7" ry="14.7"/>
<text text-anchor="middle" x="757.75" y="-12.65" font-family="Times New Roman,serif" font-size="9.00">0</text>
</g>
<!-- 1 -->
<g id="node22" class="node">
<title>1</title>
<ellipse fill="lightblue" stroke="black" cx="800.75" cy="-90.45" rx="14.7" ry="14.7"/>
<text text-anchor="middle" x="800.75" y="-88.25" font-family="Times New Roman,serif" font-size="9.00">1</text>
</g>
<!-- 2 -->
<g id="node23" class="node">
<title>2</title>
<ellipse fill="lightblue" stroke="black" cx="982.75" cy="-90.45" rx="14.7" ry="14.7"/>
<text text-anchor="middle" x="982.75" y="-88.25" font-family="Times New Roman,serif" font-size="9.00">2</text>
</g>
<!-- 3 -->
<g id="node24" class="node">
<title>3</title>
<ellipse fill="lightblue" stroke="black" cx="934.75" cy="-90.45" rx="14.7" ry="14.7"/>
<text text-anchor="middle" x="934.75" y="-88.25" font-family="Times New Roman,serif" font-size="9.00">3</text>
</g>
<!-- 4 -->
<g id="node25" class="node">
<title>4</title>
<ellipse fill="lightblue" stroke="black" cx="848.75" cy="-90.45" rx="14.7" ry="14.7"/>
<text text-anchor="middle" x="848.75" y="-88.25" font-family="Times New Roman,serif" font-size="9.00">4</text>
</g>
<!-- 704&#45;&gt;0 -->
<g id="edge142" class="edge">
<title>704&#45;&gt;0</title>
<path fill="none" stroke="green" stroke-width="0.37" d="M741.34,-154.69C740.19,-132.67 739.36,-96.49 743.75,-65.7 745.01,-56.81 747.42,-47.28 749.89,-38.95"/>
<polygon fill="green" stroke="green" stroke-width="0.37" points="753.3,-39.77 752.96,-29.18 746.62,-37.67 753.3,-39.77"/>
</g>
<!-- 704&#45;&gt;1 -->
<g id="edge143" class="edge">
<title>704&#45;&gt;1</title>
<path fill="none" stroke="green" stroke-width="0.32" d="M754.49,-158.05C763.77,-144.68 776.77,-125.96 786.63,-111.78"/>
<polygon fill="green" stroke="green" stroke-width="0.32" points="789.75,-113.42 792.58,-103.21 784,-109.42 789.75,-113.42"/>
</g>
<!-- 704&#45;&gt;3 -->
<g id="edge144" class="edge">
<title>704&#45;&gt;3</title>
<path fill="none" stroke="red" stroke-width="0.47" stroke-dasharray="1,5" d="M758.26,-161.11C762.73,-157.56 767.76,-153.97 772.75,-151.2 814.03,-128.24 828.47,-131.65 872.75,-115.2 885.62,-110.42 899.93,-104.94 911.56,-100.46"/>
<polygon fill="red" stroke="red" stroke-width="0.47" points="912.93,-103.68 920.99,-96.81 910.4,-97.15 912.93,-103.68"/>
</g>
<!-- 704&#45;&gt;4 -->
<g id="edge145" class="edge">
<title>704&#45;&gt;4</title>
<path fill="none" stroke="green" stroke-width="0.34" d="M758.79,-161.93C763.27,-158.39 768.16,-154.6 772.75,-151.2 795.34,-134.46 803.12,-133.15 824.75,-115.2 827.03,-113.3 829.35,-111.23 831.6,-109.12"/>
<polygon fill="green" stroke="green" stroke-width="0.34" points="834.15,-111.52 838.84,-102.03 829.25,-106.52 834.15,-111.52"/>
</g>
<!-- 705&#45;&gt;1 -->
<g id="edge146" class="edge">
<title>705&#45;&gt;1</title>
<path fill="none" stroke="green" stroke-width="0.19" d="M1027.81,-160.83C1023.27,-157.2 1018.06,-153.63 1012.75,-151.2 935.4,-115.78 900.02,-154.83 824.75,-115.2 822.03,-113.76 819.41,-111.92 816.97,-109.89"/>
<polygon fill="green" stroke="green" stroke-width="0.19" points="819.09,-107.07 809.47,-102.63 814.22,-112.1 819.09,-107.07"/>
</g>
<!-- 705&#45;&gt;3 -->
<g id="edge147" class="edge">
<title>705&#45;&gt;3</title>
<path fill="none" stroke="red" stroke-width="0.51" d="M1026.74,-161.88C1022.27,-158.34 1017.37,-154.56 1012.75,-151.2 989.42,-134.23 981.1,-133.42 958.75,-115.2 956.45,-113.32 954.12,-111.26 951.86,-109.16"/>
<polygon fill="red" stroke="red" stroke-width="0.51" points="954.22,-106.56 944.62,-102.07 949.32,-111.56 954.22,-106.56"/>
</g>
<!-- 705&#45;&gt;4 -->
<g id="edge148" class="edge">
<title>705&#45;&gt;4</title>
<path fill="none" stroke="green" stroke-width="0.94" d="M1027.25,-161.09C1022.78,-157.54 1017.75,-153.96 1012.75,-151.2 970.66,-127.96 955.87,-131.8 910.75,-115.2 897.86,-110.46 883.55,-104.99 871.92,-100.49"/>
<polygon fill="green" stroke="green" stroke-width="0.94" points="873.09,-97.19 862.5,-96.83 870.56,-103.71 873.09,-97.19"/>
</g>
<!-- 707&#45;&gt;0 -->
<g id="edge149" class="edge">
<title>707&#45;&gt;0</title>
<path fill="none" stroke="green" stroke-width="0.35" d="M997.17,-159.97C1017.18,-137.36 1048.38,-94.15 1024.75,-65.7 994.12,-28.82 843.69,-19.08 783.1,-16.63"/>
<polygon fill="green" stroke="green" stroke-width="0.35" points="783.01,-13.12 772.88,-16.25 782.75,-20.12 783.01,-13.12"/>
</g>
<!-- 707&#45;&gt;1 -->
<g id="edge150" class="edge">
<title>707&#45;&gt;1</title>
<path fill="none" stroke="green" stroke-width="0.24" d="M967.36,-160.87C962.89,-157.33 957.84,-153.79 952.75,-151.2 900.11,-124.33 875.82,-144.93 824.75,-115.2 822.09,-113.65 819.51,-111.74 817.09,-109.67"/>
<polygon fill="green" stroke="green" stroke-width="0.24" points="819.21,-106.86 809.6,-102.4 814.34,-111.88 819.21,-106.86"/>
</g>
<!-- 707&#45;&gt;2 -->
<g id="edge151" class="edge">
<title>707&#45;&gt;2</title>
<path fill="none" stroke="green" stroke-width="0.37" d="M982.75,-154.3C982.75,-142.5 982.75,-127.64 982.75,-115.34"/>
<polygon fill="green" stroke="green" stroke-width="0.37" points="986.25,-115.32 982.75,-105.32 979.25,-115.32 986.25,-115.32"/>
</g>
<!-- 707&#45;&gt;3 -->
<g id="edge152" class="edge">
<title>707&#45;&gt;3</title>
<path fill="none" stroke="green" stroke-width="0.91" d="M972.57,-157.24C965.06,-144.17 954.8,-126.33 946.87,-112.53"/>
<polygon fill="green" stroke="green" stroke-width="0.91" points="949.82,-110.65 941.81,-103.72 943.76,-114.14 949.82,-110.65"/>
</g>
<!-- 707&#45;&gt;4 -->
<g id="edge153" class="edge">
<title>707&#45;&gt;4</title>
<path fill="none" stroke="green" stroke-width="0.11" d="M966.89,-161.68C962.42,-158.13 957.48,-154.4 952.75,-151.2 925.39,-132.66 891.99,-114.14 870.55,-102.75"/>
<polygon fill="green" stroke="green" stroke-width="0.11" points="872.08,-99.6 861.6,-98.04 868.82,-105.79 872.08,-99.6"/>
</g>
<!-- 708&#45;&gt;0 -->
<g id="edge154" class="edge">
<title>708&#45;&gt;0</title>
<path fill="none" stroke="green" stroke-width="0.53" d="M938.75,-161.88C943.23,-158.34 948.13,-154.56 952.75,-151.2 976.08,-134.23 993.14,-140.63 1006.75,-115.2 1017.13,-95.8 1020.69,-82.71 1006.75,-65.7 978.52,-31.26 839.83,-20.13 782.56,-16.97"/>
<polygon fill="green" stroke="green" stroke-width="0.53" points="782.72,-13.48 772.55,-16.46 782.36,-20.47 782.72,-13.48"/>
</g>
<!-- 708&#45;&gt;1 -->
<g id="edge155" class="edge">
<title>708&#45;&gt;1</title>
<path fill="none" stroke="red" stroke-width="0.47" d="M906.96,-161.57C902.49,-158.02 897.53,-154.32 892.75,-151.2 864.11,-132.51 852.31,-135.44 824.75,-115.2 822.36,-113.44 819.97,-111.45 817.69,-109.39"/>
<polygon fill="red" stroke="red" stroke-width="0.47" points="820.03,-106.78 810.42,-102.32 815.15,-111.8 820.03,-106.78"/>
</g>
<!-- 708&#45;&gt;2 -->
<g id="edge156" class="edge">
<title>708&#45;&gt;2</title>
<path fill="none" stroke="red" stroke-width="0.53" d="M934.89,-158.05C944.65,-144.47 958.36,-125.39 968.61,-111.12"/>
<polygon fill="red" stroke="red" stroke-width="0.53" points="971.48,-113.12 974.48,-102.96 965.8,-109.04 971.48,-113.12"/>
</g>
<!-- 708&#45;&gt;3 -->
<g id="edge157" class="edge">
<title>708&#45;&gt;3</title>
<path fill="none" stroke="green" stroke-width="0.19" d="M925.65,-154.73C927.36,-142.86 929.53,-127.79 931.32,-115.34"/>
<polygon fill="green" stroke="green" stroke-width="0.19" points="934.81,-115.61 932.77,-105.21 927.88,-114.61 934.81,-115.61"/>
</g>
<!-- 708&#45;&gt;4 -->
<g id="edge158" class="edge">
<title>708&#45;&gt;4</title>
<path fill="none" stroke="green" stroke-width="0.34" d="M909.18,-159.63C896.78,-145.65 878.44,-124.94 865.21,-110.02"/>
<polygon fill="green" stroke="green" stroke-width="0.34" points="867.71,-107.57 858.46,-102.41 862.47,-112.21 867.71,-107.57"/>
</g>
<!-- 709&#45;&gt;0 -->
<g id="edge159" class="edge">
<title>709&#45;&gt;0</title>
<path fill="none" stroke="red" stroke-width="1.33" d="M871.08,-156.22C880.03,-132.99 890.73,-93.08 872.75,-65.7 852.82,-35.35 810.02,-23.38 782.62,-18.73"/>
<polygon fill="red" stroke="red" stroke-width="1.33" points="783.03,-15.25 772.62,-17.24 781.99,-22.18 783.03,-15.25"/>
</g>
<!-- 709&#45;&gt;1 -->
<g id="edge160" class="edge">
<title>709&#45;&gt;1</title>
<path fill="none" stroke="red" stroke-width="0.4" d="M850.5,-158.45C840.45,-144.91 826.18,-125.69 815.5,-111.31"/>
<polygon fill="red" stroke="red" stroke-width="0.4" points="818.15,-109.02 809.38,-103.07 812.53,-113.19 818.15,-109.02"/>
</g>
<!-- 709&#45;&gt;2 -->
<g id="edge161" class="edge">
<title>709&#45;&gt;2</title>
<path fill="none" stroke="green" stroke-width="0.22" d="M878.56,-161.61C883.04,-158.06 887.98,-154.35 892.75,-151.2 920.62,-132.76 931.94,-135.14 958.75,-115.2 961.13,-113.42 963.51,-111.42 965.79,-109.36"/>
<polygon fill="green" stroke="green" stroke-width="0.22" points="968.32,-111.77 973.05,-102.29 963.44,-106.76 968.32,-111.77"/>
</g>
<!-- 709&#45;&gt;3 -->
<g id="edge162" class="edge">
<title>709&#45;&gt;3</title>
<path fill="none" stroke="red" stroke-width="0.31" d="M876.29,-159.24C888.28,-145.34 905.79,-125.02 918.53,-110.26"/>
<polygon fill="red" stroke="red" stroke-width="0.31" points="921.51,-112.16 925.39,-102.3 916.21,-107.59 921.51,-112.16"/>
</g>
<!-- 709&#45;&gt;4 -->
<g id="edge163" class="edge">
<title>709&#45;&gt;4</title>
<path fill="none" stroke="green" stroke-width="0.82" d="M859.36,-154.73C857.37,-142.86 854.84,-127.79 852.75,-115.34"/>
<polygon fill="green" stroke="green" stroke-width="0.82" points="856.16,-114.49 851.06,-105.21 849.26,-115.65 856.16,-114.49"/>
</g>
<!-- 1323&#45;&gt;2 -->
<g id="edge167" class="edge">
<title>1323&#45;&gt;2</title>
<path fill="none" stroke="green" stroke-width="0.75" d="M1915.58,-249.97C1904.95,-245.31 1891.9,-240.12 1879.75,-236.69 1542.07,-141.57 1114.19,-102.11 1007.63,-93.38"/>
<polygon fill="green" stroke="green" stroke-width="0.75" points="1007.79,-89.88 997.54,-92.57 1007.22,-96.86 1007.79,-89.88"/>
</g>
<!-- 1323&#45;&gt;705 -->
<g id="edge165" class="edge">
<title>1323&#45;&gt;705</title>
<path fill="none" stroke="red" stroke-width="0.19" d="M1917.99,-245.92C1912.08,-242.28 1905.4,-238.81 1898.75,-236.69 1858.72,-223.94 1224.45,-187.26 1074.39,-178.73"/>
<polygon fill="red" stroke="red" stroke-width="0.19" points="1074.24,-175.22 1064.05,-178.15 1073.84,-182.21 1074.24,-175.22"/>
</g>
<!-- 1582&#45;&gt;702 -->
<g id="edge171" class="edge">
<title>1582&#45;&gt;702</title>
<path fill="none" stroke="green" stroke-width="0.77" d="M44.49,-245.88C50.4,-242.24 57.09,-238.78 63.75,-236.69 313.99,-158.19 407.79,-294.39 652.75,-200.69 655.14,-199.78 657.49,-198.6 659.75,-197.27"/>
<polygon fill="green" stroke="green" stroke-width="0.77" points="661.81,-200.1 668,-191.51 657.8,-194.36 661.81,-200.1"/>
</g>
<!-- 1683 -->
<g id="node33" class="node">
<title>1683</title>
<ellipse fill="white" stroke="black" cx="666.75" cy="-90.45" rx="25" ry="25"/>
<text text-anchor="middle" x="666.75" y="-88.25" font-family="Times New Roman,serif" font-size="9.00">1683</text>
</g>
<!-- 1683&#45;&gt;0 -->
<g id="edge173" class="edge">
<title>1683&#45;&gt;0</title>
<path fill="none" stroke="red" stroke-width="0.58" d="M685.6,-74.2C701.15,-61.62 723.11,-43.86 738.71,-31.25"/>
<polygon fill="red" stroke="red" stroke-width="0.58" points="741.07,-33.84 746.64,-24.83 736.67,-28.4 741.07,-33.84"/>
</g>
<!-- 1400 -->
<g id="node34" class="node">
<title>1400</title>
<ellipse fill="white" stroke="black" cx="618.75" cy="-175.94" rx="25" ry="25"/>
<text text-anchor="middle" x="618.75" y="-173.74" font-family="Times New Roman,serif" font-size="9.00">1400</text>
</g>
<!-- 1400&#45;&gt;1 -->
<g id="edge166" class="edge">
<title>1400&#45;&gt;1</title>
<path fill="none" stroke="red" stroke-width="0.56" d="M638.04,-160.35C642.73,-157.12 647.81,-153.87 652.75,-151.2 694.81,-128.4 747.45,-109.18 777.27,-99.08"/>
<polygon fill="red" stroke="red" stroke-width="0.56" points="778.43,-102.38 786.81,-95.89 776.22,-95.74 778.43,-102.38"/>
</g>
<!-- 1499&#45;&gt;707 -->
<g id="edge169" class="edge">
<title>1499&#45;&gt;707</title>
<path fill="none" stroke="red" stroke-width="0.13" d="M1736.02,-245.84C1730.11,-242.2 1723.42,-238.75 1716.75,-236.69 1567.05,-190.55 1159.34,-255.93 1012.75,-200.69 1010.36,-199.79 1008,-198.62 1005.73,-197.29"/>
<polygon fill="red" stroke="red" stroke-width="0.13" points="1007.69,-194.39 997.48,-191.54 1003.69,-200.13 1007.69,-194.39"/>
</g>
<!-- 1692&#45;&gt;708 -->
<g id="edge175" class="edge">
<title>1692&#45;&gt;708</title>
<path fill="none" stroke="red" stroke-width="0.16" d="M1401.97,-245.98C1396.06,-242.34 1389.38,-238.86 1382.75,-236.69 1200.42,-177.23 1131.09,-271.22 952.75,-200.69 950.37,-199.75 948.03,-198.56 945.77,-197.21"/>
<polygon fill="red" stroke="red" stroke-width="0.16" points="947.72,-194.3 937.53,-191.43 943.7,-200.04 947.72,-194.3"/>
</g>
<!-- 701&#45;&gt;0 -->
<g id="edge134" class="edge">
<title>701&#45;&gt;0</title>
<path fill="none" stroke="red" stroke-width="0.39" d="M793.59,-156.78C788.04,-145.14 781.19,-129.57 776.75,-115.2 768.97,-90.02 763.78,-60.23 760.82,-39.88"/>
<polygon fill="red" stroke="red" stroke-width="0.39" points="764.28,-39.33 759.44,-29.91 757.35,-40.29 764.28,-39.33"/>
</g>
<!-- 701&#45;&gt;1 -->
<g id="edge135" class="edge">
<title>701&#45;&gt;1</title>
<path fill="none" stroke="green" stroke-width="0.18" d="M802.26,-154.73C801.98,-142.94 801.62,-127.98 801.33,-115.57"/>
<polygon fill="green" stroke="green" stroke-width="0.18" points="804.82,-115.38 801.08,-105.46 797.83,-115.54 804.82,-115.38"/>
</g>
<!-- 701&#45;&gt;3 -->
<g id="edge136" class="edge">
<title>701&#45;&gt;3</title>
<path fill="none" stroke="green" stroke-width="0.68" d="M818.63,-161.7C823.1,-158.16 828.03,-154.42 832.75,-151.2 859.37,-133 891.73,-114.63 912.76,-103.16"/>
<polygon fill="green" stroke="green" stroke-width="0.68" points="914.7,-106.09 921.84,-98.25 911.38,-99.93 914.7,-106.09"/>
</g>
<!-- 701&#45;&gt;4 -->
<g id="edge137" class="edge">
<title>701&#45;&gt;4</title>
<path fill="none" stroke="red" stroke-width="0.15" d="M812.73,-156.83C819.83,-143.94 829.4,-126.56 836.89,-112.97"/>
<polygon fill="red" stroke="red" stroke-width="0.15" points="840.16,-114.3 841.92,-103.85 834.02,-110.92 840.16,-114.3"/>
</g>
<!-- 702&#45;&gt;0 -->
<g id="edge138" class="edge">
<title>702&#45;&gt;0</title>
<path fill="none" stroke="green" stroke-width="0.37" d="M666.72,-161.61C654.81,-150.58 639.49,-133.76 632.75,-115.2 625.24,-94.52 620.41,-83.91 632.75,-65.7 655.16,-32.63 703.41,-21.5 732.97,-17.75"/>
<polygon fill="green" stroke="green" stroke-width="0.37" points="733.37,-21.23 742.94,-16.68 732.62,-14.27 733.37,-21.23"/>
</g>
<!-- 702&#45;&gt;1 -->
<g id="edge139" class="edge">
<title>702&#45;&gt;1</title>
<path fill="none" stroke="green" stroke-width="0.32" d="M698.77,-161.91C703.25,-158.36 708.14,-154.58 712.75,-151.2 735.32,-134.64 762.01,-116.74 780.03,-104.89"/>
<polygon fill="green" stroke="green" stroke-width="0.32" points="782.15,-107.69 788.6,-99.29 778.31,-101.84 782.15,-107.69"/>
</g>
<!-- 702&#45;&gt;2 -->
<g id="edge140" class="edge">
<title>702&#45;&gt;2</title>
<path fill="none" stroke="green" stroke-width="0.23" stroke-dasharray="1,5" d="M697.62,-160.68C702.16,-157.04 707.38,-153.51 712.75,-151.2 814.2,-107.41 859.87,-164.52 958.75,-115.2 961.5,-113.82 964.14,-112.01 966.58,-110.01"/>
<polygon fill="green" stroke="green" stroke-width="0.23" points="969.33,-112.22 974.09,-102.75 964.46,-107.19 969.33,-112.22"/>
</g>
<!-- 702&#45;&gt;4 -->
<g id="edge141" class="edge">
<title>702&#45;&gt;4</title>
<path fill="none" stroke="red" stroke-width="0.41" d="M698.2,-160.99C702.67,-157.45 707.71,-153.89 712.75,-151.2 758.87,-126.57 780.05,-142.33 824.75,-115.2 827.29,-113.66 829.76,-111.8 832.09,-109.8"/>
<polygon fill="red" stroke="red" stroke-width="0.41" points="834.6,-112.24 839.39,-102.79 829.75,-107.2 834.6,-112.24"/>
</g>
<!-- 702&#45;&gt;1683 -->
<g id="edge172" class="edge">
<title>702&#45;&gt;1683</title>
<path fill="none" stroke="green" stroke-width="0.32" d="M678.88,-154.73C677.17,-145.85 675.13,-135.17 673.21,-125.14"/>
<polygon fill="green" stroke="green" stroke-width="0.32" points="676.59,-124.19 671.27,-115.03 669.71,-125.51 676.59,-124.19"/>
</g>
</g>
</svg>
