<?xml version="1.0" encoding="UTF-8" standalone="no"?>
<!DOCTYPE svg PUBLIC "-//W3C//DTD SVG 1.1//EN"
 "http://www.w3.org/Graphics/SVG/1.1/DTD/svg11.dtd">
<!-- Generated by graphviz version 2.43.0 (0)
 -->
<!-- Title: %3 Pages: 1 -->
<svg width="1203pt" height="368pt"
 viewBox="0.00 0.00 1203.45 367.99" xmlns="http://www.w3.org/2000/svg" xmlns:xlink="http://www.w3.org/1999/xlink">
<g id="graph0" class="graph" transform="scale(1 1) rotate(0) translate(4 363.99)">
<title>%3</title>
<polygon fill="white" stroke="transparent" points="-4,4 -4,-363.99 1199.45,-363.99 1199.45,4 -4,4"/>
<!-- &#45;1 -->
<g id="node1" class="node">
<title>&#45;1</title>
<polygon fill="lightgray" stroke="black" points="290.59,-359.99 264.59,-359.99 264.59,-341.99 290.59,-341.99 290.59,-359.99"/>
<text text-anchor="middle" x="277.59" y="-348.79" font-family="Times,serif" font-size="9.00">&#45;1</text>
</g>
<!-- 389 -->
<g id="node26" class="node">
<title>389</title>
<ellipse fill="white" stroke="black" cx="760.59" cy="-187.26" rx="25" ry="25"/>
<text text-anchor="middle" x="760.59" y="-185.06" font-family="Times,serif" font-size="9.00">389</text>
</g>
<!-- &#45;1&#45;&gt;389 -->
<g id="edge65" class="edge">
<title>&#45;1&#45;&gt;389</title>
<path fill="none" stroke="red" stroke-width="0.41" d="M290.67,-349.83C396.67,-348.49 1111.9,-338.28 1142.59,-305.99 1160.34,-287.31 1159.85,-267.14 1142.59,-248.01 1090.36,-190.12 866.46,-239.71 793.59,-212.01 791.71,-211.29 789.84,-210.44 788,-209.5"/>
<polygon fill="red" stroke="red" stroke-width="0.41" points="789.52,-206.33 779.15,-204.14 785.89,-212.32 789.52,-206.33"/>
</g>
<!-- 390 -->
<g id="node27" class="node">
<title>390</title>
<ellipse fill="white" stroke="black" cx="626.59" cy="-187.26" rx="25" ry="25"/>
<text text-anchor="middle" x="626.59" y="-185.06" font-family="Times,serif" font-size="9.00">390</text>
</g>
<!-- &#45;1&#45;&gt;390 -->
<g id="edge51" class="edge">
<title>&#45;1&#45;&gt;390</title>
<path fill="none" stroke="green" stroke-width="0.13" d="M276.26,-341.9C273.6,-322.49 269.93,-273.02 296.59,-248.01 345.07,-202.51 531.66,-236.19 593.59,-212.01 595.46,-211.28 597.33,-210.41 599.16,-209.46"/>
<polygon fill="green" stroke="green" stroke-width="0.13" points="601.28,-212.27 608,-204.08 597.64,-206.29 601.28,-212.27"/>
</g>
<!-- 391 -->
<g id="node28" class="node">
<title>391</title>
<ellipse fill="white" stroke="black" cx="425.59" cy="-187.26" rx="25" ry="25"/>
<text text-anchor="middle" x="425.59" y="-185.06" font-family="Times,serif" font-size="9.00">391</text>
</g>
<!-- &#45;1&#45;&gt;391 -->
<g id="edge19" class="edge">
<title>&#45;1&#45;&gt;391</title>
<path fill="none" stroke="red" stroke-width="0.14" d="M264.31,-349.94C215.29,-349.43 45.53,-344.86 12.59,-305.99 -4.08,-286.33 -4.28,-267.49 12.59,-248.01 61.56,-191.43 300.41,-187.26 390.82,-187.75"/>
<polygon fill="red" stroke="red" stroke-width="0.14" points="390.81,-191.25 400.84,-187.83 390.87,-184.25 390.81,-191.25"/>
</g>
<!-- 393 -->
<g id="node29" class="node">
<title>393</title>
<ellipse fill="white" stroke="black" cx="693.59" cy="-187.26" rx="25" ry="25"/>
<text text-anchor="middle" x="693.59" y="-185.06" font-family="Times,serif" font-size="9.00">393</text>
</g>
<!-- &#45;1&#45;&gt;393 -->
<g id="edge25" class="edge">
<title>&#45;1&#45;&gt;393</title>
<path fill="none" stroke="red" stroke-width="0.31" d="M290.75,-349.71C387.43,-347.57 984.88,-333.28 1010.59,-305.99 1028.25,-287.23 1027.62,-267.34 1010.59,-248.01 968.53,-200.28 785.78,-235.3 726.59,-212.01 724.71,-211.27 722.85,-210.4 721.02,-209.44"/>
<polygon fill="red" stroke="red" stroke-width="0.31" points="722.54,-206.28 712.18,-204.06 718.9,-212.25 722.54,-206.28"/>
</g>
<!-- 395 -->
<g id="node30" class="node">
<title>395</title>
<ellipse fill="white" stroke="black" cx="894.59" cy="-187.26" rx="25" ry="25"/>
<text text-anchor="middle" x="894.59" y="-185.06" font-family="Times,serif" font-size="9.00">395</text>
</g>
<!-- &#45;1&#45;&gt;395 -->
<g id="edge130" class="edge">
<title>&#45;1&#45;&gt;395</title>
<path fill="none" stroke="red" stroke-width="0.26" d="M290.92,-349.86C400.59,-348.73 1150.41,-339.77 1182.59,-305.99 1200.36,-287.33 1198.85,-267.99 1182.59,-248.01 1151.01,-209.2 999.05,-194.8 929.49,-190.17"/>
<polygon fill="red" stroke="red" stroke-width="0.26" points="929.66,-186.68 919.45,-189.54 929.21,-193.66 929.66,-186.68"/>
</g>
<!-- 396 -->
<g id="node31" class="node">
<title>396</title>
<ellipse fill="white" stroke="black" cx="827.59" cy="-187.26" rx="25" ry="25"/>
<text text-anchor="middle" x="827.59" y="-185.06" font-family="Times,serif" font-size="9.00">396</text>
</g>
<!-- &#45;1&#45;&gt;396 -->
<g id="edge89" class="edge">
<title>&#45;1&#45;&gt;396</title>
<path fill="none" stroke="red" stroke-width="1.14" d="M290.63,-349.85C397.87,-348.62 1131.14,-339.04 1162.59,-305.99 1180.35,-287.32 1179.7,-267.28 1162.59,-248.01 1117.71,-197.47 923.57,-236.52 860.59,-212.01 858.71,-211.28 856.85,-210.42 855.01,-209.46"/>
<polygon fill="red" stroke="red" stroke-width="1.14" points="856.54,-206.29 846.17,-204.08 852.9,-212.27 856.54,-206.29"/>
</g>
<!-- 398 -->
<g id="node32" class="node">
<title>398</title>
<ellipse fill="white" stroke="black" cx="559.59" cy="-187.26" rx="25" ry="25"/>
<text text-anchor="middle" x="559.59" y="-185.06" font-family="Times,serif" font-size="9.00">398</text>
</g>
<!-- &#45;1&#45;&gt;398 -->
<g id="edge192" class="edge">
<title>&#45;1&#45;&gt;398</title>
<path fill="none" stroke="red" stroke-width="0.39" d="M264.21,-349.37C239.56,-347.42 187.4,-339.36 164.59,-305.99 150.04,-284.72 147.29,-267.11 164.59,-248.01 218.85,-188.08 450.97,-240.6 526.59,-212.01 528.47,-211.3 530.34,-210.45 532.18,-209.5"/>
<polygon fill="red" stroke="red" stroke-width="0.39" points="534.28,-212.33 541.03,-204.16 530.66,-206.33 534.28,-212.33"/>
</g>
<!-- 399 -->
<g id="node33" class="node">
<title>399</title>
<ellipse fill="white" stroke="black" cx="492.59" cy="-187.26" rx="25" ry="25"/>
<text text-anchor="middle" x="492.59" y="-185.06" font-family="Times,serif" font-size="9.00">399</text>
</g>
<!-- &#45;1&#45;&gt;399 -->
<g id="edge161" class="edge">
<title>&#45;1&#45;&gt;399</title>
<path fill="none" stroke="green" stroke-width="0.32" d="M264.22,-350.7C234.51,-351.44 163.17,-348.49 131.59,-305.99 116.22,-285.31 114.39,-267.2 131.59,-248.01 180.53,-193.4 391.13,-238.29 459.59,-212.01 461.46,-211.29 463.33,-210.43 465.17,-209.48"/>
<polygon fill="green" stroke="green" stroke-width="0.32" points="467.28,-212.3 474.01,-204.12 463.65,-206.31 467.28,-212.3"/>
</g>
<!-- 1491 -->
<g id="node34" class="node">
<title>1491</title>
<ellipse fill="white" stroke="black" cx="50.59" cy="-277" rx="28.98" ry="28.98"/>
<text text-anchor="middle" x="50.59" y="-274.8" font-family="Times,serif" font-size="9.00">1491</text>
</g>
<!-- &#45;1&#45;&gt;1491 -->
<g id="edge36" class="edge">
<title>&#45;1&#45;&gt;1491</title>
<path fill="none" stroke="red" stroke-width="0.45" d="M264.16,-348.38C233.08,-344.31 154.24,-332.06 93.59,-305.99 89.72,-304.33 85.82,-302.33 82.02,-300.17"/>
<polygon fill="red" stroke="red" stroke-width="0.45" points="83.79,-297.14 73.43,-294.93 80.14,-303.12 83.79,-297.14"/>
</g>
<!-- &#45;2 -->
<g id="node2" class="node">
<title>&#45;2</title>
<polygon fill="lightgray" stroke="black" points="375.59,-286 349.59,-286 349.59,-268 375.59,-268 375.59,-286"/>
<text text-anchor="middle" x="362.59" y="-274.8" font-family="Times,serif" font-size="9.00">&#45;2</text>
</g>
<!-- &#45;2&#45;&gt;390 -->
<g id="edge78" class="edge">
<title>&#45;2&#45;&gt;390</title>
<path fill="none" stroke="green" stroke-width="0.16" d="M366.83,-267.76C370.6,-261.32 376.73,-252.69 384.59,-248.01 465.55,-199.74 506.67,-248.47 593.59,-212.01 595.44,-211.23 597.29,-210.33 599.12,-209.35"/>
<polygon fill="green" stroke="green" stroke-width="0.16" points="601.26,-212.13 607.92,-203.89 597.58,-206.18 601.26,-212.13"/>
</g>
<!-- &#45;2&#45;&gt;391 -->
<g id="edge136" class="edge">
<title>&#45;2&#45;&gt;391</title>
<path fill="none" stroke="red" stroke-width="0.41" d="M368.4,-267.9C376.78,-256.23 392.65,-234.12 405.56,-216.16"/>
<polygon fill="red" stroke="red" stroke-width="0.41" points="408.62,-217.9 411.6,-207.73 402.93,-213.81 408.62,-217.9"/>
</g>
<!-- &#45;2&#45;&gt;393 -->
<g id="edge100" class="edge">
<title>&#45;2&#45;&gt;393</title>
<path fill="none" stroke="red" stroke-width="0.9" d="M366.63,-267.93C370.36,-261.41 376.53,-252.59 384.59,-248.01 492.11,-186.84 545.56,-257.52 660.59,-212.01 662.46,-211.27 664.32,-210.4 666.15,-209.44"/>
<polygon fill="red" stroke="red" stroke-width="0.9" points="668.27,-212.24 674.98,-204.04 664.63,-206.27 668.27,-212.24"/>
</g>
<!-- &#45;2&#45;&gt;395 -->
<g id="edge181" class="edge">
<title>&#45;2&#45;&gt;395</title>
<path fill="none" stroke="red" stroke-width="0.4" d="M366.57,-267.82C370.26,-261.23 376.41,-252.37 384.59,-248.01 478.38,-197.98 761.71,-248.41 861.59,-212.01 863.48,-211.32 865.35,-210.49 867.2,-209.56"/>
<polygon fill="red" stroke="red" stroke-width="0.4" points="869.28,-212.39 876.06,-204.25 865.68,-206.39 869.28,-212.39"/>
</g>
<!-- &#45;2&#45;&gt;396 -->
<g id="edge125" class="edge">
<title>&#45;2&#45;&gt;396</title>
<path fill="none" stroke="green" stroke-width="0.21" d="M366.58,-267.85C370.28,-261.27 376.43,-252.42 384.59,-248.01 545.46,-160.93 623.11,-275.71 794.59,-212.01 796.47,-211.31 798.35,-210.47 800.19,-209.53"/>
<polygon fill="green" stroke="green" stroke-width="0.21" points="802.28,-212.36 809.04,-204.2 798.67,-206.36 802.28,-212.36"/>
</g>
<!-- &#45;2&#45;&gt;398 -->
<g id="edge166" class="edge">
<title>&#45;2&#45;&gt;398</title>
<path fill="none" stroke="green" stroke-width="0.35" d="M366.93,-267.92C370.76,-261.57 376.92,-252.99 384.59,-248.01 439.17,-212.52 467.57,-239.51 526.59,-212.01 528.41,-211.16 530.24,-210.2 532.04,-209.18"/>
<polygon fill="green" stroke="green" stroke-width="0.35" points="534.24,-211.93 540.8,-203.61 530.48,-206.02 534.24,-211.93"/>
</g>
<!-- &#45;2&#45;&gt;399 -->
<g id="edge29" class="edge">
<title>&#45;2&#45;&gt;399</title>
<path fill="none" stroke="green" stroke-width="0.23" d="M367.55,-267.81C371.55,-261.74 377.64,-253.58 384.59,-248.01 413.43,-224.87 427.79,-230.88 459.59,-212.01 461.27,-211.01 462.98,-209.95 464.68,-208.85"/>
<polygon fill="green" stroke="green" stroke-width="0.23" points="466.76,-211.67 473.08,-203.16 462.83,-205.87 466.76,-211.67"/>
</g>
<!-- &#45;3 -->
<g id="node3" class="node">
<title>&#45;3</title>
<polygon fill="lightgray" stroke="black" points="819.59,-286 793.59,-286 793.59,-268 819.59,-268 819.59,-286"/>
<text text-anchor="middle" x="806.59" y="-274.8" font-family="Times,serif" font-size="9.00">&#45;3</text>
</g>
<!-- &#45;3&#45;&gt;389 -->
<g id="edge38" class="edge">
<title>&#45;3&#45;&gt;389</title>
<path fill="none" stroke="green" stroke-width="0.24" d="M802.34,-267.9C796.52,-256.81 785.75,-236.26 776.61,-218.82"/>
<polygon fill="green" stroke="green" stroke-width="0.24" points="779.48,-216.76 771.74,-209.53 773.28,-220.01 779.48,-216.76"/>
</g>
<!-- &#45;3&#45;&gt;390 -->
<g id="edge175" class="edge">
<title>&#45;3&#45;&gt;390</title>
<path fill="none" stroke="green" stroke-width="0.46" d="M802.2,-267.98C798.34,-261.67 792.17,-253.12 784.59,-248.01 736.63,-215.72 711.59,-237.26 659.59,-212.01 657.78,-211.13 655.96,-210.15 654.16,-209.11"/>
<polygon fill="green" stroke="green" stroke-width="0.46" points="655.74,-205.96 645.43,-203.49 651.95,-211.85 655.74,-205.96"/>
</g>
<!-- &#45;3&#45;&gt;391 -->
<g id="edge110" class="edge">
<title>&#45;3&#45;&gt;391</title>
<path fill="none" stroke="green" stroke-width="0.19" d="M802.56,-267.89C798.85,-261.35 792.69,-252.51 784.59,-248.01 657.18,-177.19 594.65,-264.3 458.59,-212.01 456.71,-211.29 454.84,-210.43 453,-209.48"/>
<polygon fill="green" stroke="green" stroke-width="0.19" points="454.53,-206.31 444.16,-204.12 450.9,-212.3 454.53,-206.31"/>
</g>
<!-- &#45;3&#45;&gt;393 -->
<g id="edge191" class="edge">
<title>&#45;3&#45;&gt;393</title>
<path fill="none" stroke="green" stroke-width="0.2" d="M801.27,-267.77C797.18,-261.83 791.13,-253.86 784.59,-248.01 761.98,-227.77 751.8,-228.88 726.59,-212.01 724.96,-210.92 723.3,-209.79 721.62,-208.63"/>
<polygon fill="green" stroke="green" stroke-width="0.2" points="723.52,-205.69 713.33,-202.8 719.49,-211.41 723.52,-205.69"/>
</g>
<!-- &#45;3&#45;&gt;395 -->
<g id="edge71" class="edge">
<title>&#45;3&#45;&gt;395</title>
<path fill="none" stroke="red" stroke-width="0.33" d="M812.41,-267.86C816.66,-262.11 822.68,-254.34 828.59,-248.01 840.87,-234.84 855.64,-221.29 868.09,-210.42"/>
<polygon fill="red" stroke="red" stroke-width="0.33" points="870.59,-212.88 875.88,-203.7 866.02,-207.58 870.59,-212.88"/>
</g>
<!-- &#45;3&#45;&gt;396 -->
<g id="edge7" class="edge">
<title>&#45;3&#45;&gt;396</title>
<path fill="none" stroke="red" stroke-width="0.17" d="M808.52,-267.9C811.03,-257.43 815.55,-238.55 819.56,-221.8"/>
<polygon fill="red" stroke="red" stroke-width="0.17" points="823.04,-222.28 821.97,-211.74 816.23,-220.65 823.04,-222.28"/>
</g>
<!-- &#45;3&#45;&gt;398 -->
<g id="edge87" class="edge">
<title>&#45;3&#45;&gt;398</title>
<path fill="none" stroke="green" stroke-width="0.19" d="M802.32,-267.79C798.54,-261.36 792.41,-252.75 784.59,-248.01 710.34,-203 672.4,-246.18 592.59,-212.01 590.74,-211.22 588.89,-210.31 587.07,-209.31"/>
<polygon fill="green" stroke="green" stroke-width="0.19" points="588.61,-206.15 578.27,-203.84 584.91,-212.09 588.61,-206.15"/>
</g>
<!-- &#45;3&#45;&gt;399 -->
<g id="edge24" class="edge">
<title>&#45;3&#45;&gt;399</title>
<path fill="none" stroke="green" stroke-width="0.58" d="M802.53,-267.95C798.8,-261.44 792.63,-252.63 784.59,-248.01 683.81,-190.12 633.47,-255.22 525.59,-212.01 523.72,-211.26 521.86,-210.38 520.03,-209.42"/>
<polygon fill="green" stroke="green" stroke-width="0.58" points="521.56,-206.25 511.2,-204.01 517.9,-212.22 521.56,-206.25"/>
</g>
<!-- &#45;4 -->
<g id="node4" class="node">
<title>&#45;4</title>
<polygon fill="lightgray" stroke="black" points="331.59,-286 305.59,-286 305.59,-268 331.59,-268 331.59,-286"/>
<text text-anchor="middle" x="318.59" y="-274.8" font-family="Times,serif" font-size="9.00">&#45;4</text>
</g>
<!-- &#45;4&#45;&gt;389 -->
<g id="edge54" class="edge">
<title>&#45;4&#45;&gt;389</title>
<path fill="none" stroke="red" stroke-width="0.24" d="M322.59,-267.86C326.29,-261.29 332.44,-252.44 340.59,-248.01 492.29,-165.38 565.81,-272.58 727.59,-212.01 729.47,-211.3 731.34,-210.46 733.19,-209.52"/>
<polygon fill="red" stroke="red" stroke-width="0.24" points="735.28,-212.34 742.04,-204.18 731.67,-206.35 735.28,-212.34"/>
</g>
<!-- &#45;4&#45;&gt;390 -->
<g id="edge108" class="edge">
<title>&#45;4&#45;&gt;390</title>
<path fill="none" stroke="red" stroke-width="0.65" d="M322.65,-267.96C326.38,-261.45 332.55,-252.64 340.59,-248.01 438.98,-191.28 488.22,-254.41 593.59,-212.01 595.45,-211.26 597.31,-210.38 599.14,-209.41"/>
<polygon fill="red" stroke="red" stroke-width="0.65" points="601.27,-212.21 607.97,-204 597.61,-206.24 601.27,-212.21"/>
</g>
<!-- &#45;4&#45;&gt;391 -->
<g id="edge173" class="edge">
<title>&#45;4&#45;&gt;391</title>
<path fill="none" stroke="red" stroke-width="0.2" d="M324,-267.88C328.14,-262 334.22,-254.05 340.59,-248.01 357.42,-232.05 378.79,-217.05 395.89,-206.07"/>
<polygon fill="red" stroke="red" stroke-width="0.2" points="397.8,-209 404.39,-200.71 394.07,-203.08 397.8,-209"/>
</g>
<!-- &#45;4&#45;&gt;393 -->
<g id="edge6" class="edge">
<title>&#45;4&#45;&gt;393</title>
<path fill="none" stroke="green" stroke-width="0.37" d="M322.61,-267.9C326.33,-261.35 332.49,-252.52 340.59,-248.01 465.61,-178.35 527.04,-263.48 660.59,-212.01 662.46,-211.28 664.33,-210.43 666.17,-209.48"/>
<polygon fill="green" stroke="green" stroke-width="0.37" points="668.28,-212.29 675.01,-204.11 664.64,-206.31 668.28,-212.29"/>
</g>
<!-- &#45;4&#45;&gt;396 -->
<g id="edge93" class="edge">
<title>&#45;4&#45;&gt;396</title>
<path fill="none" stroke="green" stroke-width="0.69" d="M322.58,-267.83C326.27,-261.24 332.41,-252.39 340.59,-248.01 429.79,-200.21 699.57,-246.85 794.59,-212.01 796.48,-211.31 798.35,-210.48 800.2,-209.55"/>
<polygon fill="green" stroke="green" stroke-width="0.69" points="802.28,-212.38 809.06,-204.23 798.68,-206.38 802.28,-212.38"/>
</g>
<!-- &#45;4&#45;&gt;398 -->
<g id="edge23" class="edge">
<title>&#45;4&#45;&gt;398</title>
<path fill="none" stroke="green" stroke-width="0.48" d="M322.86,-267.8C326.65,-261.38 332.78,-252.77 340.59,-248.01 412.46,-204.15 449.28,-245.38 526.59,-212.01 528.43,-211.21 530.28,-210.3 532.1,-209.3"/>
<polygon fill="green" stroke="green" stroke-width="0.48" points="534.26,-212.08 540.89,-203.82 530.55,-206.14 534.26,-212.08"/>
</g>
<!-- &#45;4&#45;&gt;399 -->
<g id="edge85" class="edge">
<title>&#45;4&#45;&gt;399</title>
<path fill="none" stroke="green" stroke-width="0.28" d="M323.15,-267.75C327.03,-261.49 333.13,-253.1 340.59,-248.01 386.22,-216.84 410.04,-236.48 459.59,-212.01 461.39,-211.12 463.2,-210.13 465,-209.08"/>
<polygon fill="green" stroke="green" stroke-width="0.28" points="467.22,-211.81 473.72,-203.45 463.42,-205.93 467.22,-211.81"/>
</g>
<!-- &#45;5 -->
<g id="node5" class="node">
<title>&#45;5</title>
<polygon fill="lightgray" stroke="black" points="199.59,-286 173.59,-286 173.59,-268 199.59,-268 199.59,-286"/>
<text text-anchor="middle" x="186.59" y="-274.8" font-family="Times,serif" font-size="9.00">&#45;5</text>
</g>
<!-- 4 -->
<g id="node25" class="node">
<title>4</title>
<ellipse fill="lightblue" stroke="black" cx="538.59" cy="-97.52" rx="16.03" ry="16.03"/>
<text text-anchor="middle" x="538.59" y="-95.32" font-family="Times,serif" font-size="9.00">4</text>
</g>
<!-- &#45;5&#45;&gt;4 -->
<g id="edge119" class="edge">
<title>&#45;5&#45;&gt;4</title>
<path fill="none" stroke="red" stroke-width="0.41" d="M191.53,-267.79C195.53,-261.71 201.62,-253.54 208.59,-248.01 307.6,-169.42 454.56,-122.09 513.14,-105.37"/>
<polygon fill="red" stroke="red" stroke-width="0.41" points="514.33,-108.67 523.02,-102.61 512.44,-101.93 514.33,-108.67"/>
</g>
<!-- &#45;5&#45;&gt;389 -->
<g id="edge11" class="edge">
<title>&#45;5&#45;&gt;389</title>
<path fill="none" stroke="green" stroke-width="0.39" d="M190.56,-267.81C194.25,-261.21 200.39,-252.35 208.59,-248.01 310.76,-193.91 618.85,-251.27 727.59,-212.01 729.48,-211.32 731.36,-210.5 733.21,-209.57"/>
<polygon fill="green" stroke="green" stroke-width="0.39" points="735.28,-212.41 742.07,-204.27 731.69,-206.4 735.28,-212.41"/>
</g>
<!-- &#45;5&#45;&gt;390 -->
<g id="edge193" class="edge">
<title>&#45;5&#45;&gt;390</title>
<path fill="none" stroke="green" stroke-width="0.54" d="M190.59,-267.86C194.29,-261.29 200.45,-252.44 208.59,-248.01 359.49,-165.77 432.66,-272.31 593.59,-212.01 595.47,-211.3 597.34,-210.46 599.19,-209.52"/>
<polygon fill="green" stroke="green" stroke-width="0.54" points="601.28,-212.34 608.04,-204.18 597.67,-206.35 601.28,-212.34"/>
</g>
<!-- &#45;5&#45;&gt;391 -->
<g id="edge128" class="edge">
<title>&#45;5&#45;&gt;391</title>
<path fill="none" stroke="green" stroke-width="0.35" d="M190.96,-267.96C194.81,-261.64 200.97,-253.07 208.59,-248.01 238.64,-228.03 338.27,-205.78 391.45,-194.93"/>
<polygon fill="green" stroke="green" stroke-width="0.35" points="392.32,-198.33 401.43,-192.92 390.93,-191.47 392.32,-198.33"/>
</g>
<!-- &#45;5&#45;&gt;393 -->
<g id="edge77" class="edge">
<title>&#45;5&#45;&gt;393</title>
<path fill="none" stroke="green" stroke-width="0.35" d="M190.58,-267.83C194.27,-261.24 200.42,-252.39 208.59,-248.01 297.39,-200.4 565.99,-246.71 660.59,-212.01 662.48,-211.31 664.35,-210.48 666.2,-209.55"/>
<polygon fill="green" stroke="green" stroke-width="0.35" points="668.28,-212.38 675.05,-204.23 664.68,-206.38 668.28,-212.38"/>
</g>
<!-- &#45;5&#45;&gt;398 -->
<g id="edge98" class="edge">
<title>&#45;5&#45;&gt;398</title>
<path fill="none" stroke="red" stroke-width="0.35" d="M190.61,-267.9C194.33,-261.36 200.49,-252.52 208.59,-248.01 332.81,-178.73 393.89,-263.21 526.59,-212.01 528.46,-211.28 530.33,-210.43 532.17,-209.47"/>
<polygon fill="red" stroke="red" stroke-width="0.35" points="534.28,-212.29 541.01,-204.11 530.64,-206.31 534.28,-212.29"/>
</g>
<!-- &#45;5&#45;&gt;399 -->
<g id="edge44" class="edge">
<title>&#45;5&#45;&gt;399</title>
<path fill="none" stroke="green" stroke-width="0.15" d="M190.65,-267.96C194.38,-261.46 200.56,-252.64 208.59,-248.01 306.19,-191.66 355.06,-254.14 459.59,-212.01 461.45,-211.26 463.31,-210.38 465.14,-209.41"/>
<polygon fill="green" stroke="green" stroke-width="0.15" points="467.27,-212.21 473.96,-204 463.61,-206.24 467.27,-212.21"/>
</g>
<!-- &#45;6 -->
<g id="node6" class="node">
<title>&#45;6</title>
<polygon fill="lightgray" stroke="black" points="863.59,-286 837.59,-286 837.59,-268 863.59,-268 863.59,-286"/>
<text text-anchor="middle" x="850.59" y="-274.8" font-family="Times,serif" font-size="9.00">&#45;6</text>
</g>
<!-- &#45;6&#45;&gt;389 -->
<g id="edge129" class="edge">
<title>&#45;6&#45;&gt;389</title>
<path fill="none" stroke="green" stroke-width="0.14" stroke-dasharray="1,5" d="M844.79,-267.84C840.56,-262.07 834.54,-254.29 828.59,-248.01 815.79,-234.49 800.28,-220.7 787.31,-209.77"/>
<polygon fill="green" stroke="green" stroke-width="0.14" points="789.53,-207.07 779.61,-203.37 785.06,-212.45 789.53,-207.07"/>
</g>
<!-- &#45;6&#45;&gt;390 -->
<g id="edge150" class="edge">
<title>&#45;6&#45;&gt;390</title>
<path fill="none" stroke="red" stroke-width="0.45" d="M846.29,-267.84C842.49,-261.44 836.35,-252.85 828.59,-248.01 763.41,-207.39 729.81,-243.1 659.59,-212.01 657.75,-211.19 655.91,-210.27 654.09,-209.26"/>
<polygon fill="red" stroke="red" stroke-width="0.45" points="655.64,-206.1 645.31,-203.75 651.92,-212.03 655.64,-206.1"/>
</g>
<!-- &#45;6&#45;&gt;391 -->
<g id="edge12" class="edge">
<title>&#45;6&#45;&gt;391</title>
<path fill="none" stroke="red" stroke-width="0.37" d="M846.58,-267.87C842.87,-261.3 836.72,-252.46 828.59,-248.01 683.66,-168.67 613.19,-270.27 458.59,-212.01 456.7,-211.3 454.83,-210.45 452.99,-209.51"/>
<polygon fill="red" stroke="red" stroke-width="0.37" points="454.51,-206.34 444.14,-204.16 450.89,-212.33 454.51,-206.34"/>
</g>
<!-- &#45;6&#45;&gt;393 -->
<g id="edge70" class="edge">
<title>&#45;6&#45;&gt;393</title>
<path fill="none" stroke="red" stroke-width="0.59" d="M845.95,-267.85C842.05,-261.63 835.92,-253.27 828.59,-248.01 789.52,-220 769.19,-234.27 726.59,-212.01 724.8,-211.08 723.01,-210.06 721.23,-208.98"/>
<polygon fill="red" stroke="red" stroke-width="0.59" points="722.82,-205.84 712.54,-203.29 718.98,-211.7 722.82,-205.84"/>
</g>
<!-- &#45;6&#45;&gt;395 -->
<g id="edge146" class="edge">
<title>&#45;6&#45;&gt;395</title>
<path fill="none" stroke="red" stroke-width="0.16" d="M854.65,-267.9C860.18,-256.88 870.38,-236.53 879.09,-219.16"/>
<polygon fill="red" stroke="red" stroke-width="0.16" points="882.38,-220.4 883.74,-209.89 876.13,-217.26 882.38,-220.4"/>
</g>
<!-- &#45;6&#45;&gt;396 -->
<g id="edge162" class="edge">
<title>&#45;6&#45;&gt;396</title>
<path fill="none" stroke="green" stroke-width="0.32" d="M848.46,-267.9C845.7,-257.36 840.7,-238.3 836.29,-221.47"/>
<polygon fill="green" stroke="green" stroke-width="0.32" points="839.57,-220.15 833.64,-211.37 832.79,-221.93 839.57,-220.15"/>
</g>
<!-- &#45;6&#45;&gt;398 -->
<g id="edge40" class="edge">
<title>&#45;6&#45;&gt;398</title>
<path fill="none" stroke="red" stroke-width="0.18" d="M846.51,-267.98C842.77,-261.49 836.6,-252.68 828.59,-248.01 736.94,-194.55 690.82,-252.11 592.59,-212.01 590.72,-211.25 588.87,-210.36 587.04,-209.39"/>
<polygon fill="red" stroke="red" stroke-width="0.18" points="588.57,-206.22 578.22,-203.96 584.9,-212.19 588.57,-206.22"/>
</g>
<!-- &#45;6&#45;&gt;399 -->
<g id="edge95" class="edge">
<title>&#45;6&#45;&gt;399</title>
<path fill="none" stroke="green" stroke-width="1.16" d="M846.55,-267.91C842.84,-261.38 836.67,-252.55 828.59,-248.01 710.33,-181.63 651.97,-261.18 525.59,-212.01 523.71,-211.28 521.85,-210.42 520.01,-209.46"/>
<polygon fill="green" stroke="green" stroke-width="1.16" points="521.54,-206.29 511.17,-204.09 517.9,-212.27 521.54,-206.29"/>
</g>
<!-- &#45;7 -->
<g id="node7" class="node">
<title>&#45;7</title>
<polygon fill="lightgray" stroke="black" points="907.59,-286 881.59,-286 881.59,-268 907.59,-268 907.59,-286"/>
<text text-anchor="middle" x="894.59" y="-274.8" font-family="Times,serif" font-size="9.00">&#45;7</text>
</g>
<!-- &#45;7&#45;&gt;389 -->
<g id="edge90" class="edge">
<title>&#45;7&#45;&gt;389</title>
<path fill="none" stroke="green" stroke-width="0.23" d="M889.66,-267.77C885.67,-261.68 879.58,-253.51 872.59,-248.01 842.25,-224.16 826.96,-231.37 793.59,-212.01 791.85,-211 790.09,-209.92 788.33,-208.8"/>
<polygon fill="green" stroke="green" stroke-width="0.23" points="789.95,-205.67 779.71,-202.98 786.04,-211.47 789.95,-205.67"/>
</g>
<!-- &#45;7&#45;&gt;390 -->
<g id="edge33" class="edge">
<title>&#45;7&#45;&gt;390</title>
<path fill="none" stroke="red" stroke-width="0.43" d="M890.34,-267.75C886.58,-261.3 880.45,-252.68 872.59,-248.01 790.04,-198.97 748.18,-249.01 659.59,-212.01 657.73,-211.23 655.88,-210.33 654.05,-209.35"/>
<polygon fill="red" stroke="red" stroke-width="0.43" points="655.59,-206.19 645.25,-203.9 651.91,-212.14 655.59,-206.19"/>
</g>
<!-- &#45;7&#45;&gt;391 -->
<g id="edge170" class="edge">
<title>&#45;7&#45;&gt;391</title>
<path fill="none" stroke="red" stroke-width="0.37" d="M890.59,-267.84C886.89,-261.27 880.74,-252.42 872.59,-248.01 710.12,-160.16 631.75,-276.25 458.59,-212.01 456.7,-211.31 454.83,-210.47 452.98,-209.53"/>
<polygon fill="red" stroke="red" stroke-width="0.37" points="454.5,-206.36 444.13,-204.2 450.89,-212.36 454.5,-206.36"/>
</g>
<!-- &#45;7&#45;&gt;393 -->
<g id="edge137" class="edge">
<title>&#45;7&#45;&gt;393</title>
<path fill="none" stroke="green" stroke-width="0.13" d="M890.25,-267.91C886.42,-261.55 880.27,-252.97 872.59,-248.01 816.44,-211.76 787.26,-240.04 726.59,-212.01 724.76,-211.16 722.93,-210.21 721.12,-209.19"/>
<polygon fill="green" stroke="green" stroke-width="0.13" points="722.68,-206.04 712.37,-203.63 718.93,-211.95 722.68,-206.04"/>
</g>
<!-- &#45;7&#45;&gt;395 -->
<g id="edge17" class="edge">
<title>&#45;7&#45;&gt;395</title>
<path fill="none" stroke="green" stroke-width="0.33" d="M894.59,-267.9C894.59,-257.5 894.59,-238.81 894.59,-222.14"/>
<polygon fill="green" stroke="green" stroke-width="0.33" points="898.09,-222.12 894.59,-212.12 891.09,-222.12 898.09,-222.12"/>
</g>
<!-- &#45;7&#45;&gt;396 -->
<g id="edge46" class="edge">
<title>&#45;7&#45;&gt;396</title>
<path fill="none" stroke="green" stroke-width="0.15" d="M888.4,-267.9C879.36,-256.06 862.09,-233.44 848.26,-215.33"/>
<polygon fill="green" stroke="green" stroke-width="0.15" points="851.04,-213.2 842.19,-207.38 845.47,-217.45 851.04,-213.2"/>
</g>
<!-- &#45;7&#45;&gt;398 -->
<g id="edge116" class="edge">
<title>&#45;7&#45;&gt;398</title>
<path fill="none" stroke="red" stroke-width="0.31" stroke-dasharray="1,5" d="M890.54,-267.93C886.82,-261.41 880.65,-252.58 872.59,-248.01 763.47,-186.07 709.3,-258.06 592.59,-212.01 590.72,-211.27 588.85,-210.4 587.02,-209.44"/>
<polygon fill="red" stroke="red" stroke-width="0.31" points="588.55,-206.27 578.19,-204.05 584.9,-212.25 588.55,-206.27"/>
</g>
<!-- &#45;7&#45;&gt;399 -->
<g id="edge66" class="edge">
<title>&#45;7&#45;&gt;399</title>
<path fill="none" stroke="green" stroke-width="0.38" d="M890.57,-267.88C886.86,-261.33 880.71,-252.48 872.59,-248.01 736.82,-173.12 670.5,-267.15 525.59,-212.01 523.71,-211.29 521.84,-210.44 520,-209.49"/>
<polygon fill="green" stroke="green" stroke-width="0.38" points="521.52,-206.33 511.15,-204.14 517.89,-212.31 521.52,-206.33"/>
</g>
<!-- &#45;8 -->
<g id="node8" class="node">
<title>&#45;8</title>
<polygon fill="lightgray" stroke="black" points="1083.59,-286 1057.59,-286 1057.59,-268 1083.59,-268 1083.59,-286"/>
<text text-anchor="middle" x="1070.59" y="-274.8" font-family="Times,serif" font-size="9.00">&#45;8</text>
</g>
<!-- &#45;8&#45;&gt;389 -->
<g id="edge102" class="edge">
<title>&#45;8&#45;&gt;389</title>
<path fill="none" stroke="green" stroke-width="0.16" stroke-dasharray="1,5" d="M1065.17,-267.95C1060.32,-261.44 1052.6,-252.62 1043.59,-248.01 943.67,-196.85 897.69,-254 793.59,-212.01 791.72,-211.25 789.86,-210.38 788.03,-209.41"/>
<polygon fill="green" stroke="green" stroke-width="0.16" points="789.56,-206.24 779.21,-203.99 785.9,-212.21 789.56,-206.24"/>
</g>
<!-- &#45;8&#45;&gt;390 -->
<g id="edge167" class="edge">
<title>&#45;8&#45;&gt;390</title>
<path fill="none" stroke="green" stroke-width="0.32" d="M1057.26,-268.19C1045.42,-261.65 1027.43,-252.66 1010.59,-248.01 859.42,-206.28 806.19,-267.69 659.59,-212.01 657.71,-211.29 655.84,-210.44 654,-209.5"/>
<polygon fill="green" stroke="green" stroke-width="0.32" points="655.52,-206.33 645.15,-204.15 651.89,-212.32 655.52,-206.33"/>
</g>
<!-- &#45;8&#45;&gt;391 -->
<g id="edge31" class="edge">
<title>&#45;8&#45;&gt;391</title>
<path fill="none" stroke="green" stroke-width="0.22" d="M1057.31,-268.04C1045.49,-261.4 1027.51,-252.34 1010.59,-248.01 772.42,-186.99 690,-295.03 458.59,-212.01 456.69,-211.33 454.81,-210.51 452.96,-209.58"/>
<polygon fill="green" stroke="green" stroke-width="0.22" points="454.48,-206.41 444.1,-204.28 450.89,-212.42 454.48,-206.41"/>
</g>
<!-- &#45;8&#45;&gt;393 -->
<g id="edge96" class="edge">
<title>&#45;8&#45;&gt;393</title>
<path fill="none" stroke="red" stroke-width="0.24" d="M1065.2,-267.88C1060.38,-261.33 1052.67,-252.49 1043.59,-248.01 916.42,-185.28 858.87,-263.08 726.59,-212.01 724.71,-211.28 722.84,-210.43 721,-209.47"/>
<polygon fill="red" stroke="red" stroke-width="0.24" points="722.53,-206.3 712.17,-204.11 718.9,-212.29 722.53,-206.3"/>
</g>
<!-- &#45;8&#45;&gt;395 -->
<g id="edge160" class="edge">
<title>&#45;8&#45;&gt;395</title>
<path fill="none" stroke="green" stroke-width="0.18" d="M1064.24,-267.73C1059.19,-261.61 1051.65,-253.44 1043.59,-248.01 1007.39,-223.64 959.74,-206.73 928.18,-197.27"/>
<polygon fill="green" stroke="green" stroke-width="0.18" points="929.12,-193.9 918.54,-194.46 927.16,-200.62 929.12,-193.9"/>
</g>
<!-- &#45;8&#45;&gt;396 -->
<g id="edge5" class="edge">
<title>&#45;8&#45;&gt;396</title>
<path fill="none" stroke="red" stroke-width="0.11" d="M1064.91,-267.81C1060.01,-261.4 1052.36,-252.79 1043.59,-248.01 970.8,-208.35 936.64,-244.97 860.59,-212.01 858.74,-211.21 856.9,-210.29 855.08,-209.29"/>
<polygon fill="red" stroke="red" stroke-width="0.11" points="856.62,-206.13 846.29,-203.81 852.92,-212.07 856.62,-206.13"/>
</g>
<!-- &#45;8&#45;&gt;398 -->
<g id="edge61" class="edge">
<title>&#45;8&#45;&gt;398</title>
<path fill="none" stroke="red" stroke-width="0.39" d="M1057.28,-268.13C1045.45,-261.54 1027.47,-252.52 1010.59,-248.01 830.45,-199.85 767.43,-276.8 592.59,-212.01 590.7,-211.31 588.83,-210.47 586.98,-209.53"/>
<polygon fill="red" stroke="red" stroke-width="0.39" points="588.5,-206.36 578.13,-204.21 584.89,-212.36 588.5,-206.36"/>
</g>
<!-- &#45;9 -->
<g id="node9" class="node">
<title>&#45;9</title>
<polygon fill="lightgray" stroke="black" points="951.59,-286 925.59,-286 925.59,-268 951.59,-268 951.59,-286"/>
<text text-anchor="middle" x="938.59" y="-274.8" font-family="Times,serif" font-size="9.00">&#45;9</text>
</g>
<!-- &#45;9&#45;&gt;389 -->
<g id="edge28" class="edge">
<title>&#45;9&#45;&gt;389</title>
<path fill="none" stroke="red" stroke-width="0.45" d="M934.19,-267.99C930.33,-261.69 924.16,-253.13 916.59,-248.01 869.41,-216.09 844.77,-237 793.59,-212.01 791.78,-211.12 789.96,-210.14 788.17,-209.1"/>
<polygon fill="red" stroke="red" stroke-width="0.45" points="789.74,-205.95 779.44,-203.48 785.95,-211.83 789.74,-205.95"/>
</g>
<!-- &#45;9&#45;&gt;390 -->
<g id="edge13" class="edge">
<title>&#45;9&#45;&gt;390</title>
<path fill="none" stroke="green" stroke-width="0.71" d="M934.53,-267.95C930.8,-261.45 924.62,-252.63 916.59,-248.01 816.61,-190.51 766.63,-254.95 659.59,-212.01 657.72,-211.26 655.86,-210.38 654.03,-209.42"/>
<polygon fill="green" stroke="green" stroke-width="0.71" points="655.56,-206.25 645.2,-204.01 651.9,-212.22 655.56,-206.25"/>
</g>
<!-- &#45;9&#45;&gt;391 -->
<g id="edge152" class="edge">
<title>&#45;9&#45;&gt;391</title>
<path fill="none" stroke="red" stroke-width="1.44" d="M934.6,-267.83C930.91,-261.24 924.76,-252.38 916.59,-248.01 826.58,-199.82 554.45,-247.12 458.59,-212.01 456.7,-211.32 454.82,-210.48 452.98,-209.55"/>
<polygon fill="red" stroke="red" stroke-width="1.44" points="454.49,-206.38 444.12,-204.23 450.89,-212.38 454.49,-206.38"/>
</g>
<!-- &#45;9&#45;&gt;393 -->
<g id="edge180" class="edge">
<title>&#45;9&#45;&gt;393</title>
<path fill="none" stroke="red" stroke-width="0.25" d="M934.32,-267.79C930.54,-261.37 924.4,-252.76 916.59,-248.01 843.13,-203.38 805.56,-245.91 726.59,-212.01 724.74,-211.21 722.89,-210.3 721.07,-209.31"/>
<polygon fill="red" stroke="red" stroke-width="0.25" points="722.62,-206.15 712.28,-203.83 718.91,-212.09 722.62,-206.15"/>
</g>
<!-- &#45;9&#45;&gt;395 -->
<g id="edge99" class="edge">
<title>&#45;9&#45;&gt;395</title>
<path fill="none" stroke="green" stroke-width="0.16" d="M934.53,-267.9C929,-256.88 918.79,-236.53 910.08,-219.16"/>
<polygon fill="green" stroke="green" stroke-width="0.16" points="913.05,-217.26 905.43,-209.89 906.79,-220.4 913.05,-217.26"/>
</g>
<!-- &#45;9&#45;&gt;396 -->
<g id="edge196" class="edge">
<title>&#45;9&#45;&gt;396</title>
<path fill="none" stroke="green" stroke-width="0.49" d="M933.25,-267.8C929.14,-261.88 923.08,-253.91 916.59,-248.01 894.7,-228.1 885.05,-228.65 860.59,-212.01 858.97,-210.91 857.31,-209.76 855.65,-208.6"/>
<polygon fill="green" stroke="green" stroke-width="0.49" points="857.55,-205.66 847.36,-202.75 853.51,-211.38 857.55,-205.66"/>
</g>
<!-- &#45;9&#45;&gt;398 -->
<g id="edge114" class="edge">
<title>&#45;9&#45;&gt;398</title>
<path fill="none" stroke="green" stroke-width="0.15" stroke-dasharray="1,5" d="M934.56,-267.89C930.85,-261.35 924.69,-252.51 916.59,-248.01 789.97,-177.57 727.81,-264.03 592.59,-212.01 590.71,-211.28 588.84,-210.43 587,-209.48"/>
<polygon fill="green" stroke="green" stroke-width="0.15" points="588.53,-206.31 578.16,-204.11 584.9,-212.29 588.53,-206.31"/>
</g>
<!-- &#45;9&#45;&gt;399 -->
<g id="edge64" class="edge">
<title>&#45;9&#45;&gt;399</title>
<path fill="none" stroke="red" stroke-width="0.2" d="M934.58,-267.85C930.88,-261.29 924.73,-252.44 916.59,-248.01 763.29,-164.61 689.05,-273.12 525.59,-212.01 523.7,-211.3 521.83,-210.46 519.99,-209.52"/>
<polygon fill="red" stroke="red" stroke-width="0.2" points="521.51,-206.35 511.14,-204.18 517.89,-212.34 521.51,-206.35"/>
</g>
<!-- &#45;10 -->
<g id="node10" class="node">
<title>&#45;10</title>
<polygon fill="lightgray" stroke="black" points="1001.59,-286 969.59,-286 969.59,-268 1001.59,-268 1001.59,-286"/>
<text text-anchor="middle" x="985.59" y="-274.8" font-family="Times,serif" font-size="9.00">&#45;10</text>
</g>
<!-- &#45;10&#45;&gt;389 -->
<g id="edge127" class="edge">
<title>&#45;10&#45;&gt;389</title>
<path fill="none" stroke="red" stroke-width="0.23" d="M980.44,-267.85C975.97,-261.46 968.92,-252.86 960.59,-248.01 894.96,-209.82 862.97,-242.83 793.59,-212.01 791.75,-211.19 789.91,-210.26 788.1,-209.25"/>
<polygon fill="red" stroke="red" stroke-width="0.23" points="789.65,-206.1 779.32,-203.74 785.92,-212.02 789.65,-206.1"/>
</g>
<!-- &#45;10&#45;&gt;390 -->
<g id="edge147" class="edge">
<title>&#45;10&#45;&gt;390</title>
<path fill="none" stroke="green" stroke-width="0.44" d="M980.74,-267.9C976.35,-261.36 969.25,-252.52 960.59,-248.01 841.11,-185.74 785.13,-260.91 659.59,-212.01 657.71,-211.28 655.85,-210.42 654.01,-209.46"/>
<polygon fill="green" stroke="green" stroke-width="0.44" points="655.54,-206.29 645.17,-204.08 651.9,-212.27 655.54,-206.29"/>
</g>
<!-- &#45;10&#45;&gt;391 -->
<g id="edge8" class="edge">
<title>&#45;10&#45;&gt;391</title>
<path fill="none" stroke="green" stroke-width="0.15" d="M980.79,-267.79C976.43,-261.19 969.36,-252.32 960.59,-248.01 860.21,-198.69 563.74,-250.12 458.59,-212.01 456.7,-211.32 454.82,-210.49 452.97,-209.57"/>
<polygon fill="green" stroke="green" stroke-width="0.15" points="454.49,-206.39 444.11,-204.26 450.89,-212.4 454.49,-206.39"/>
</g>
<!-- &#45;10&#45;&gt;393 -->
<g id="edge195" class="edge">
<title>&#45;10&#45;&gt;393</title>
<path fill="none" stroke="green" stroke-width="0.24" d="M980.7,-267.97C976.28,-261.48 969.18,-252.67 960.59,-248.01 868.1,-197.82 823.98,-251.84 726.59,-212.01 724.72,-211.25 722.87,-210.36 721.04,-209.39"/>
<polygon fill="green" stroke="green" stroke-width="0.24" points="722.57,-206.22 712.22,-203.96 718.9,-212.18 722.57,-206.22"/>
</g>
<!-- &#45;10&#45;&gt;395 -->
<g id="edge197" class="edge">
<title>&#45;10&#45;&gt;395</title>
<path fill="none" stroke="green" stroke-width="0.25" d="M978.8,-267.95C973.89,-262.24 967.02,-254.48 960.59,-248.01 947.9,-235.23 933.09,-221.71 920.72,-210.77"/>
<polygon fill="green" stroke="green" stroke-width="0.25" points="922.82,-207.95 912.99,-203.99 918.2,-213.21 922.82,-207.95"/>
</g>
<!-- &#45;10&#45;&gt;396 -->
<g id="edge139" class="edge">
<title>&#45;10&#45;&gt;396</title>
<path fill="none" stroke="green" stroke-width="0.15" d="M979.88,-267.63C975.3,-261.46 968.36,-253.26 960.59,-248.01 921.43,-221.58 902.38,-234.02 860.59,-212.01 858.81,-211.07 857.01,-210.05 855.23,-208.97"/>
<polygon fill="green" stroke="green" stroke-width="0.15" points="856.83,-205.83 846.55,-203.26 852.98,-211.68 856.83,-205.83"/>
</g>
<!-- &#45;10&#45;&gt;398 -->
<g id="edge135" class="edge">
<title>&#45;10&#45;&gt;398</title>
<path fill="none" stroke="green" stroke-width="0.26" d="M980.76,-267.85C976.39,-261.28 969.3,-252.43 960.59,-248.01 814.04,-173.63 746.35,-270 592.59,-212.01 590.7,-211.3 588.83,-210.45 586.99,-209.51"/>
<polygon fill="green" stroke="green" stroke-width="0.26" points="588.51,-206.34 578.14,-204.16 584.89,-212.33 588.51,-206.34"/>
</g>
<!-- &#45;10&#45;&gt;399 -->
<g id="edge18" class="edge">
<title>&#45;10&#45;&gt;399</title>
<path fill="none" stroke="green" stroke-width="0.53" d="M980.78,-267.82C976.41,-261.23 969.33,-252.37 960.59,-248.01 786.95,-161.51 707.61,-279.11 525.59,-212.01 523.7,-211.31 521.82,-210.48 519.98,-209.54"/>
<polygon fill="green" stroke="green" stroke-width="0.53" points="521.5,-206.37 511.12,-204.22 517.89,-212.37 521.5,-206.37"/>
</g>
<!-- &#45;11 -->
<g id="node11" class="node">
<title>&#45;11</title>
<polygon fill="lightgray" stroke="black" points="249.59,-286 217.59,-286 217.59,-268 249.59,-268 249.59,-286"/>
<text text-anchor="middle" x="233.59" y="-274.8" font-family="Times,serif" font-size="9.00">&#45;11</text>
</g>
<!-- &#45;11&#45;&gt;389 -->
<g id="edge104" class="edge">
<title>&#45;11&#45;&gt;389</title>
<path fill="none" stroke="green" stroke-width="0.15" d="M247.85,-268C260.31,-261.42 279.08,-252.49 296.59,-248.01 482.8,-200.32 547.25,-278.56 727.59,-212.01 729.47,-211.31 731.35,-210.47 733.19,-209.54"/>
<polygon fill="green" stroke="green" stroke-width="0.15" points="735.28,-212.37 742.05,-204.22 731.68,-206.37 735.28,-212.37"/>
</g>
<!-- &#45;11&#45;&gt;390 -->
<g id="edge49" class="edge">
<title>&#45;11&#45;&gt;390</title>
<path fill="none" stroke="green" stroke-width="0.29" d="M239.76,-267.87C245.24,-261.3 253.87,-252.46 263.59,-248.01 397.71,-186.54 455.83,-264.84 593.59,-212.01 595.46,-211.29 597.33,-210.43 599.17,-209.48"/>
<polygon fill="green" stroke="green" stroke-width="0.29" points="601.28,-212.3 608.01,-204.12 597.65,-206.31 601.28,-212.3"/>
</g>
<!-- &#45;11&#45;&gt;391 -->
<g id="edge184" class="edge">
<title>&#45;11&#45;&gt;391</title>
<path fill="none" stroke="red" stroke-width="0.34" d="M240.77,-267.7C246.45,-261.57 254.85,-253.39 263.59,-248.01 304.53,-222.79 357.77,-205.72 391.82,-196.48"/>
<polygon fill="red" stroke="red" stroke-width="0.34" points="392.96,-199.8 401.73,-193.87 391.17,-193.03 392.96,-199.8"/>
</g>
<!-- &#45;11&#45;&gt;393 -->
<g id="edge47" class="edge">
<title>&#45;11&#45;&gt;393</title>
<path fill="none" stroke="red" stroke-width="0.51" d="M248.12,-267.93C260.58,-261.42 279.23,-252.59 296.59,-248.01 453.76,-206.47 508.51,-269.46 660.59,-212.01 662.47,-211.3 664.34,-210.45 666.18,-209.51"/>
<polygon fill="red" stroke="red" stroke-width="0.51" points="668.28,-212.33 675.03,-204.16 664.66,-206.34 668.28,-212.33"/>
</g>
<!-- &#45;11&#45;&gt;396 -->
<g id="edge67" class="edge">
<title>&#45;11&#45;&gt;396</title>
<path fill="none" stroke="green" stroke-width="1.16" d="M247.84,-267.95C260.29,-261.34 279.05,-252.39 296.59,-248.01 511.86,-194.15 585.98,-287.68 794.59,-212.01 796.48,-211.32 798.36,-210.49 800.2,-209.56"/>
<polygon fill="green" stroke="green" stroke-width="1.16" points="802.28,-212.4 809.06,-204.26 798.69,-206.39 802.28,-212.4"/>
</g>
<!-- &#45;11&#45;&gt;398 -->
<g id="edge138" class="edge">
<title>&#45;11&#45;&gt;398</title>
<path fill="none" stroke="green" stroke-width="0.39" stroke-dasharray="1,5" d="M239.79,-267.93C245.29,-261.41 253.93,-252.59 263.59,-248.01 370.16,-197.39 417.02,-255.76 526.59,-212.01 528.45,-211.26 530.32,-210.39 532.15,-209.42"/>
<polygon fill="green" stroke="green" stroke-width="0.39" points="534.27,-212.23 540.97,-204.02 530.62,-206.26 534.27,-212.23"/>
</g>
<!-- &#45;11&#45;&gt;399 -->
<g id="edge79" class="edge">
<title>&#45;11&#45;&gt;399</title>
<path fill="none" stroke="red" stroke-width="0.58" d="M240.07,-267.79C245.61,-261.36 254.17,-252.75 263.59,-248.01 342.7,-208.2 378.1,-246.72 459.59,-212.01 461.44,-211.22 463.29,-210.31 465.11,-209.32"/>
<polygon fill="red" stroke="red" stroke-width="0.58" points="467.26,-212.1 473.9,-203.85 463.56,-206.16 467.26,-212.1"/>
</g>
<!-- &#45;12 -->
<g id="node12" class="node">
<title>&#45;12</title>
<polygon fill="lightgray" stroke="black" points="1133.59,-286 1101.59,-286 1101.59,-268 1133.59,-268 1133.59,-286"/>
<text text-anchor="middle" x="1117.59" y="-274.8" font-family="Times,serif" font-size="9.00">&#45;12</text>
</g>
<!-- 1 -->
<g id="node22" class="node">
<title>1</title>
<ellipse fill="lightblue" stroke="black" cx="800.59" cy="-16.26" rx="16.03" ry="16.03"/>
<text text-anchor="middle" x="800.59" y="-14.06" font-family="Times,serif" font-size="9.00">1</text>
</g>
<!-- &#45;12&#45;&gt;1 -->
<g id="edge74" class="edge">
<title>&#45;12&#45;&gt;1</title>
<path fill="none" stroke="red" stroke-width="0.29" d="M1112.73,-267.99C1093.9,-237.62 1022.57,-128.23 936.59,-68.53 902.22,-44.66 855.32,-30.21 826.53,-22.98"/>
<polygon fill="red" stroke="red" stroke-width="0.29" points="826.99,-19.49 816.45,-20.56 825.36,-26.3 826.99,-19.49"/>
</g>
<!-- &#45;12&#45;&gt;389 -->
<g id="edge118" class="edge">
<title>&#45;12&#45;&gt;389</title>
<path fill="none" stroke="green" stroke-width="0.5" d="M1112.73,-267.9C1108.35,-261.36 1101.25,-252.53 1092.59,-248.01 973.91,-186.1 918.29,-260.63 793.59,-212.01 791.71,-211.28 789.85,-210.41 788.01,-209.46"/>
<polygon fill="green" stroke="green" stroke-width="0.5" points="789.54,-206.29 779.18,-204.08 785.9,-212.27 789.54,-206.29"/>
</g>
<!-- &#45;12&#45;&gt;390 -->
<g id="edge183" class="edge">
<title>&#45;12&#45;&gt;390</title>
<path fill="none" stroke="red" stroke-width="0.34" d="M1112.78,-267.82C1108.41,-261.23 1101.33,-252.37 1092.59,-248.01 919.76,-161.87 840.76,-278.84 659.59,-212.01 657.7,-211.31 655.82,-210.48 653.98,-209.54"/>
<polygon fill="red" stroke="red" stroke-width="0.34" points="655.5,-206.37 645.12,-204.22 651.89,-212.37 655.5,-206.37"/>
</g>
<!-- &#45;12&#45;&gt;391 -->
<g id="edge48" class="edge">
<title>&#45;12&#45;&gt;391</title>
<path fill="none" stroke="green" stroke-width="0.15" d="M1112.81,-267.76C1108.46,-261.13 1101.39,-252.25 1092.59,-248.01 965.47,-186.72 591.61,-259.1 458.59,-212.01 456.69,-211.34 454.81,-210.52 452.96,-209.6"/>
<polygon fill="green" stroke="green" stroke-width="0.15" points="454.47,-206.43 444.09,-204.32 450.89,-212.44 454.47,-206.43"/>
</g>
<!-- &#45;12&#45;&gt;393 -->
<g id="edge63" class="edge">
<title>&#45;12&#45;&gt;393</title>
<path fill="none" stroke="green" stroke-width="0.45" d="M1112.76,-267.85C1108.39,-261.28 1101.3,-252.43 1092.59,-248.01 946.85,-173.99 879.51,-269.73 726.59,-212.01 724.7,-211.3 722.83,-210.45 720.99,-209.51"/>
<polygon fill="green" stroke="green" stroke-width="0.45" points="722.51,-206.34 712.14,-204.16 718.89,-212.33 722.51,-206.34"/>
</g>
<!-- &#45;12&#45;&gt;395 -->
<g id="edge179" class="edge">
<title>&#45;12&#45;&gt;395</title>
<path fill="none" stroke="red" stroke-width="0.22" d="M1112.15,-267.77C1107.61,-261.51 1100.61,-253.12 1092.59,-248.01 1041.09,-215.18 970.62,-199.6 929.12,-192.84"/>
<polygon fill="red" stroke="red" stroke-width="0.22" points="929.64,-189.38 919.22,-191.3 928.57,-196.3 929.64,-189.38"/>
</g>
<!-- &#45;12&#45;&gt;396 -->
<g id="edge156" class="edge">
<title>&#45;12&#45;&gt;396</title>
<path fill="none" stroke="red" stroke-width="0.24" stroke-dasharray="1,5" d="M1112.69,-267.98C1108.28,-261.48 1101.17,-252.67 1092.59,-248.01 1000.91,-198.18 957.14,-251.57 860.59,-212.01 858.73,-211.24 856.87,-210.36 855.04,-209.38"/>
<polygon fill="red" stroke="red" stroke-width="0.24" points="856.58,-206.22 846.23,-203.95 852.91,-212.18 856.58,-206.22"/>
</g>
<!-- &#45;12&#45;&gt;399 -->
<g id="edge134" class="edge">
<title>&#45;12&#45;&gt;399</title>
<path fill="none" stroke="green" stroke-width="0.1" d="M1112.8,-267.77C1108.45,-261.16 1101.38,-252.28 1092.59,-248.01 979.04,-192.8 644.46,-254.54 525.59,-212.01 523.69,-211.33 521.81,-210.51 519.96,-209.58"/>
<polygon fill="green" stroke="green" stroke-width="0.1" points="521.48,-206.41 511.1,-204.29 517.89,-212.42 521.48,-206.41"/>
</g>
<!-- &#45;13 -->
<g id="node13" class="node">
<title>&#45;13</title>
<polygon fill="lightgray" stroke="black" points="425.59,-286 393.59,-286 393.59,-268 425.59,-268 425.59,-286"/>
<text text-anchor="middle" x="409.59" y="-274.8" font-family="Times,serif" font-size="9.00">&#45;13</text>
</g>
<!-- &#45;13&#45;&gt;389 -->
<g id="edge83" class="edge">
<title>&#45;13&#45;&gt;389</title>
<path fill="none" stroke="green" stroke-width="0.27" d="M414.44,-267.91C418.83,-261.37 425.93,-252.54 434.59,-248.01 550.84,-187.19 605.41,-259.82 727.59,-212.01 729.46,-211.27 731.33,-210.41 733.16,-209.45"/>
<polygon fill="green" stroke="green" stroke-width="0.27" points="735.28,-212.26 741.99,-204.07 731.63,-206.29 735.28,-212.26"/>
</g>
<!-- &#45;13&#45;&gt;390 -->
<g id="edge69" class="edge">
<title>&#45;13&#45;&gt;390</title>
<path fill="none" stroke="green" stroke-width="0.21" d="M414.74,-267.87C419.22,-261.49 426.28,-252.9 434.59,-248.01 497.02,-211.24 527.52,-241.77 593.59,-212.01 595.42,-211.18 597.26,-210.24 599.07,-209.23"/>
<polygon fill="green" stroke="green" stroke-width="0.21" points="601.25,-212 607.84,-203.7 597.51,-206.07 601.25,-212"/>
</g>
<!-- &#45;13&#45;&gt;391 -->
<g id="edge3" class="edge">
<title>&#45;13&#45;&gt;391</title>
<path fill="none" stroke="green" stroke-width="0.33" d="M411.06,-267.9C412.97,-257.43 416.42,-238.55 419.47,-221.8"/>
<polygon fill="green" stroke="green" stroke-width="0.33" points="422.95,-222.21 421.3,-211.74 416.07,-220.95 422.95,-222.21"/>
</g>
<!-- &#45;13&#45;&gt;393 -->
<g id="edge123" class="edge">
<title>&#45;13&#45;&gt;393</title>
<path fill="none" stroke="red" stroke-width="0.12" stroke-dasharray="1,5" d="M414.48,-267.99C418.9,-261.5 426.01,-252.69 434.59,-248.01 523.85,-199.26 566.55,-250.76 660.59,-212.01 662.45,-211.24 664.3,-210.35 666.13,-209.37"/>
<polygon fill="red" stroke="red" stroke-width="0.12" points="668.27,-212.17 674.94,-203.94 664.59,-206.21 668.27,-212.17"/>
</g>
<!-- &#45;13&#45;&gt;395 -->
<g id="edge53" class="edge">
<title>&#45;13&#45;&gt;395</title>
<path fill="none" stroke="green" stroke-width="0.34" d="M414.4,-267.82C418.76,-261.23 425.84,-252.37 434.59,-248.01 604.99,-162.95 682.94,-278.02 861.59,-212.01 863.47,-211.31 865.35,-210.47 867.19,-209.54"/>
<polygon fill="green" stroke="green" stroke-width="0.34" points="869.28,-212.37 876.05,-204.21 865.67,-206.37 869.28,-212.37"/>
</g>
<!-- &#45;13&#45;&gt;396 -->
<g id="edge35" class="edge">
<title>&#45;13&#45;&gt;396</title>
<path fill="none" stroke="red" stroke-width="0.31" d="M414.42,-267.86C418.79,-261.29 425.88,-252.44 434.59,-248.01 577.9,-175.08 644.19,-268.91 794.59,-212.01 796.47,-211.3 798.34,-210.45 800.18,-209.5"/>
<polygon fill="red" stroke="red" stroke-width="0.31" points="802.28,-212.32 809.03,-204.15 798.66,-206.33 802.28,-212.32"/>
</g>
<!-- &#45;13&#45;&gt;398 -->
<g id="edge157" class="edge">
<title>&#45;13&#45;&gt;398</title>
<path fill="none" stroke="green" stroke-width="0.12" d="M415.33,-267.69C419.94,-261.55 426.88,-253.36 434.59,-248.01 470.64,-222.95 488.02,-233 526.59,-212.01 528.35,-211.05 530.14,-210 531.91,-208.91"/>
<polygon fill="green" stroke="green" stroke-width="0.12" points="534.17,-211.61 540.57,-203.17 530.3,-205.78 534.17,-211.61"/>
</g>
<!-- &#45;13&#45;&gt;399 -->
<g id="edge91" class="edge">
<title>&#45;13&#45;&gt;399</title>
<path fill="none" stroke="red" stroke-width="0.41" stroke-dasharray="1,5" d="M416.94,-267.59C421.87,-261.99 428.55,-254.49 434.59,-248.01 445.53,-236.26 457.89,-223.46 468.38,-212.73"/>
<polygon fill="red" stroke="red" stroke-width="0.41" points="471.14,-214.92 475.64,-205.33 466.14,-210.02 471.14,-214.92"/>
</g>
<!-- &#45;14 -->
<g id="node14" class="node">
<title>&#45;14</title>
<polygon fill="lightgray" stroke="black" points="475.59,-286 443.59,-286 443.59,-268 475.59,-268 475.59,-286"/>
<text text-anchor="middle" x="459.59" y="-274.8" font-family="Times,serif" font-size="9.00">&#45;14</text>
</g>
<!-- &#45;14&#45;&gt;389 -->
<g id="edge4" class="edge">
<title>&#45;14&#45;&gt;389</title>
<path fill="none" stroke="red" stroke-width="0.48" d="M464.47,-267.96C468.88,-261.46 475.98,-252.64 484.59,-248.01 580.69,-196.2 626.42,-253.05 727.59,-212.01 729.45,-211.25 731.31,-210.37 733.14,-209.4"/>
<polygon fill="red" stroke="red" stroke-width="0.48" points="735.27,-212.2 741.96,-203.98 731.61,-206.23 735.27,-212.2"/>
</g>
<!-- &#45;14&#45;&gt;390 -->
<g id="edge22" class="edge">
<title>&#45;14&#45;&gt;390</title>
<path fill="none" stroke="red" stroke-width="0.13" d="M465.06,-267.82C469.62,-261.59 476.63,-253.22 484.59,-248.01 527.25,-220.03 548.13,-235.18 593.59,-212.01 595.38,-211.09 597.18,-210.09 598.97,-209.03"/>
<polygon fill="red" stroke="red" stroke-width="0.13" points="601.2,-211.75 607.67,-203.36 597.38,-205.88 601.2,-211.75"/>
</g>
<!-- &#45;14&#45;&gt;391 -->
<g id="edge169" class="edge">
<title>&#45;14&#45;&gt;391</title>
<path fill="none" stroke="red" stroke-width="0.31" d="M456.45,-267.9C452.27,-257.12 444.64,-237.42 438.01,-220.31"/>
<polygon fill="red" stroke="red" stroke-width="0.31" points="441.13,-218.69 434.25,-210.63 434.6,-221.22 441.13,-218.69"/>
</g>
<!-- &#45;14&#45;&gt;393 -->
<g id="edge159" class="edge">
<title>&#45;14&#45;&gt;393</title>
<path fill="none" stroke="red" stroke-width="0.18" d="M464.72,-267.82C469.18,-261.42 476.23,-252.81 484.59,-248.01 553.8,-208.21 587.45,-244.04 660.59,-212.01 662.43,-211.2 664.27,-210.28 666.09,-209.28"/>
<polygon fill="red" stroke="red" stroke-width="0.18" points="668.25,-212.05 674.87,-203.78 664.54,-206.12 668.25,-212.05"/>
</g>
<!-- &#45;14&#45;&gt;395 -->
<g id="edge37" class="edge">
<title>&#45;14&#45;&gt;395</title>
<path fill="none" stroke="green" stroke-width="0.71" d="M464.41,-267.85C468.78,-261.27 475.87,-252.42 484.59,-248.01 634.77,-172 704.03,-271.22 861.59,-212.01 863.47,-211.3 865.34,-210.45 867.18,-209.51"/>
<polygon fill="green" stroke="green" stroke-width="0.71" points="869.28,-212.34 876.03,-204.17 865.66,-206.34 869.28,-212.34"/>
</g>
<!-- &#45;14&#45;&gt;396 -->
<g id="edge57" class="edge">
<title>&#45;14&#45;&gt;396</title>
<path fill="none" stroke="red" stroke-width="0.19" d="M464.43,-267.89C468.82,-261.35 475.91,-252.51 484.59,-248.01 607.7,-184.12 665.25,-262.13 794.59,-212.01 796.46,-211.28 798.33,-210.42 800.17,-209.47"/>
<polygon fill="red" stroke="red" stroke-width="0.19" points="802.28,-212.28 809,-204.1 798.64,-206.3 802.28,-212.28"/>
</g>
<!-- &#45;14&#45;&gt;398 -->
<g id="edge126" class="edge">
<title>&#45;14&#45;&gt;398</title>
<path fill="none" stroke="green" stroke-width="0.4" stroke-dasharray="1,5" d="M466.25,-267.82C471.1,-262.06 477.96,-254.27 484.59,-248.01 499.35,-234.05 517.09,-219.82 531.6,-208.75"/>
<polygon fill="green" stroke="green" stroke-width="0.4" points="533.85,-211.44 539.73,-202.62 529.64,-205.85 533.85,-211.44"/>
</g>
<!-- &#45;14&#45;&gt;399 -->
<g id="edge190" class="edge">
<title>&#45;14&#45;&gt;399</title>
<path fill="none" stroke="red" stroke-width="0.89" d="M462.63,-267.9C466.69,-257.12 474.1,-237.42 480.53,-220.31"/>
<polygon fill="red" stroke="red" stroke-width="0.89" points="483.93,-221.22 484.17,-210.63 477.38,-218.75 483.93,-221.22"/>
</g>
<!-- &#45;15 -->
<g id="node15" class="node">
<title>&#45;15</title>
<polygon fill="lightgray" stroke="black" points="525.59,-286 493.59,-286 493.59,-268 525.59,-268 525.59,-286"/>
<text text-anchor="middle" x="509.59" y="-274.8" font-family="Times,serif" font-size="9.00">&#45;15</text>
</g>
<!-- &#45;15&#45;&gt;389 -->
<g id="edge163" class="edge">
<title>&#45;15&#45;&gt;389</title>
<path fill="none" stroke="red" stroke-width="0.21" d="M514.7,-267.78C519.14,-261.36 526.19,-252.74 534.59,-248.01 610.61,-205.17 647.36,-246.32 727.59,-212.01 729.44,-211.22 731.28,-210.31 733.1,-209.32"/>
<polygon fill="red" stroke="red" stroke-width="0.21" points="735.26,-212.1 741.9,-203.84 731.56,-206.15 735.26,-212.1"/>
</g>
<!-- &#45;15&#45;&gt;390 -->
<g id="edge97" class="edge">
<title>&#45;15&#45;&gt;390</title>
<path fill="none" stroke="red" stroke-width="0.36" d="M515.82,-267.81C520.56,-261.9 527.48,-253.93 534.59,-248.01 558.18,-228.34 567.99,-228.99 593.59,-212.01 595.22,-210.92 596.88,-209.8 598.56,-208.65"/>
<polygon fill="red" stroke="red" stroke-width="0.36" points="600.69,-211.43 606.86,-202.82 596.67,-205.7 600.69,-211.43"/>
</g>
<!-- &#45;15&#45;&gt;391 -->
<g id="edge42" class="edge">
<title>&#45;15&#45;&gt;391</title>
<path fill="none" stroke="red" stroke-width="0.56" d="M502.26,-267.57C497.33,-261.96 490.65,-254.47 484.59,-248.01 473.4,-236.09 460.69,-223.15 449.94,-212.37"/>
<polygon fill="red" stroke="red" stroke-width="0.56" points="452.41,-209.88 442.86,-205.29 447.46,-214.84 452.41,-209.88"/>
</g>
<!-- &#45;15&#45;&gt;393 -->
<g id="edge30" class="edge">
<title>&#45;15&#45;&gt;393</title>
<path fill="none" stroke="red" stroke-width="0.16" d="M514.82,-267.99C519.34,-261.68 526.42,-253.13 534.59,-248.01 583.93,-217.07 608.17,-237.39 660.59,-212.01 662.4,-211.13 664.21,-210.15 666.01,-209.11"/>
<polygon fill="red" stroke="red" stroke-width="0.16" points="668.22,-211.85 674.75,-203.5 664.44,-205.96 668.22,-211.85"/>
</g>
<!-- &#45;15&#45;&gt;395 -->
<g id="edge101" class="edge">
<title>&#45;15&#45;&gt;395</title>
<path fill="none" stroke="red" stroke-width="0.11" d="M514.43,-267.88C518.81,-261.32 525.9,-252.48 534.59,-248.01 664.56,-181.05 725.1,-264.43 861.59,-212.01 863.46,-211.29 865.33,-210.43 867.17,-209.48"/>
<polygon fill="red" stroke="red" stroke-width="0.11" points="869.28,-212.3 876.01,-204.12 865.65,-206.31 869.28,-212.3"/>
</g>
<!-- &#45;15&#45;&gt;396 -->
<g id="edge92" class="edge">
<title>&#45;15&#45;&gt;396</title>
<path fill="none" stroke="green" stroke-width="0.96" d="M514.46,-267.94C518.86,-261.42 525.96,-252.6 534.59,-248.01 637.54,-193.14 686.28,-255.35 794.59,-212.01 796.45,-211.26 798.32,-210.38 800.15,-209.42"/>
<polygon fill="green" stroke="green" stroke-width="0.96" points="802.27,-212.22 808.97,-204.01 798.62,-206.25 802.27,-212.22"/>
</g>
<!-- &#45;15&#45;&gt;398 -->
<g id="edge14" class="edge">
<title>&#45;15&#45;&gt;398</title>
<path fill="none" stroke="red" stroke-width="0.46" d="M514.2,-267.9C520.62,-256.63 532.6,-235.61 542.64,-217.99"/>
<polygon fill="red" stroke="red" stroke-width="0.46" points="545.76,-219.58 547.67,-209.16 539.68,-216.12 545.76,-219.58"/>
</g>
<!-- &#45;15&#45;&gt;399 -->
<g id="edge153" class="edge">
<title>&#45;15&#45;&gt;399</title>
<path fill="none" stroke="red" stroke-width="0.75" d="M508.02,-267.9C505.99,-257.43 502.33,-238.55 499.09,-221.8"/>
<polygon fill="red" stroke="red" stroke-width="0.75" points="502.48,-220.89 497.14,-211.74 495.6,-222.23 502.48,-220.89"/>
</g>
<!-- &#45;16 -->
<g id="node16" class="node">
<title>&#45;16</title>
<polygon fill="lightgray" stroke="black" points="575.59,-286 543.59,-286 543.59,-268 575.59,-268 575.59,-286"/>
<text text-anchor="middle" x="559.59" y="-274.8" font-family="Times,serif" font-size="9.00">&#45;16</text>
</g>
<!-- &#45;16&#45;&gt;389 -->
<g id="edge176" class="edge">
<title>&#45;16&#45;&gt;389</title>
<path fill="none" stroke="red" stroke-width="0.16" stroke-dasharray="1,5" d="M564.78,-267.92C569.27,-261.58 576.34,-253 584.59,-248.01 640.66,-214.08 668.16,-239.64 727.59,-212.01 729.41,-211.16 731.24,-210.21 733.04,-209.18"/>
<polygon fill="red" stroke="red" stroke-width="0.16" points="735.24,-211.93 741.8,-203.62 731.48,-206.03 735.24,-211.93"/>
</g>
<!-- &#45;16&#45;&gt;390 -->
<g id="edge39" class="edge">
<title>&#45;16&#45;&gt;390</title>
<path fill="none" stroke="red" stroke-width="0.28" d="M565.77,-267.9C574.82,-256.06 592.08,-233.44 605.92,-215.33"/>
<polygon fill="red" stroke="red" stroke-width="0.28" points="608.7,-217.45 611.99,-207.38 603.14,-213.2 608.7,-217.45"/>
</g>
<!-- &#45;16&#45;&gt;391 -->
<g id="edge94" class="edge">
<title>&#45;16&#45;&gt;391</title>
<path fill="none" stroke="red" stroke-width="0.12" d="M553.73,-267.84C549.07,-261.78 542.1,-253.63 534.59,-248.01 504.65,-225.62 490.78,-231 458.59,-212.01 456.9,-211.01 455.19,-209.95 453.48,-208.86"/>
<polygon fill="red" stroke="red" stroke-width="0.12" points="455.33,-205.88 445.09,-203.18 451.41,-211.68 455.33,-205.88"/>
</g>
<!-- &#45;16&#45;&gt;393 -->
<g id="edge43" class="edge">
<title>&#45;16&#45;&gt;393</title>
<path fill="none" stroke="red" stroke-width="0.19" d="M565.44,-267.84C570.1,-261.78 577.07,-253.63 584.59,-248.01 614.52,-225.62 628.4,-231 660.59,-212.01 662.27,-211.01 663.98,-209.95 665.69,-208.86"/>
<polygon fill="red" stroke="red" stroke-width="0.19" points="667.76,-211.68 674.09,-203.18 663.84,-205.88 667.76,-211.68"/>
</g>
<!-- &#45;16&#45;&gt;395 -->
<g id="edge164" class="edge">
<title>&#45;16&#45;&gt;395</title>
<path fill="none" stroke="green" stroke-width="0.96" d="M564.45,-267.92C568.85,-261.39 575.94,-252.57 584.59,-248.01 694.39,-190.07 746.14,-257.65 861.59,-212.01 863.46,-211.27 865.32,-210.4 867.15,-209.44"/>
<polygon fill="green" stroke="green" stroke-width="0.96" points="869.27,-212.24 875.98,-204.05 865.63,-206.27 869.27,-212.24"/>
</g>
<!-- &#45;16&#45;&gt;396 -->
<g id="edge26" class="edge">
<title>&#45;16&#45;&gt;396</title>
<path fill="none" stroke="red" stroke-width="0.35" d="M564.68,-267.75C569.11,-261.3 576.15,-252.68 584.59,-248.01 667.43,-202.13 707.25,-248.6 794.59,-212.01 796.44,-211.23 798.29,-210.33 800.12,-209.35"/>
<polygon fill="red" stroke="red" stroke-width="0.35" points="802.26,-212.14 808.92,-203.9 798.58,-206.18 802.26,-212.14"/>
</g>
<!-- &#45;16&#45;&gt;398 -->
<g id="edge149" class="edge">
<title>&#45;16&#45;&gt;398</title>
<path fill="none" stroke="red" stroke-width="0.14" d="M559.59,-267.9C559.59,-257.5 559.59,-238.81 559.59,-222.14"/>
<polygon fill="red" stroke="red" stroke-width="0.14" points="563.09,-222.12 559.59,-212.12 556.09,-222.12 563.09,-222.12"/>
</g>
<!-- &#45;16&#45;&gt;399 -->
<g id="edge10" class="edge">
<title>&#45;16&#45;&gt;399</title>
<path fill="none" stroke="red" stroke-width="0.4" d="M553.4,-267.9C544.36,-256.06 527.09,-233.44 513.26,-215.33"/>
<polygon fill="red" stroke="red" stroke-width="0.4" points="516.04,-213.2 507.19,-207.38 510.47,-217.45 516.04,-213.2"/>
</g>
<!-- &#45;17 -->
<g id="node17" class="node">
<title>&#45;17</title>
<polygon fill="lightgray" stroke="black" points="625.59,-286 593.59,-286 593.59,-268 625.59,-268 625.59,-286"/>
<text text-anchor="middle" x="609.59" y="-274.8" font-family="Times,serif" font-size="9.00">&#45;17</text>
</g>
<!-- &#45;17&#45;&gt;389 -->
<g id="edge86" class="edge">
<title>&#45;17&#45;&gt;389</title>
<path fill="none" stroke="green" stroke-width="0.21" d="M615.33,-267.68C619.93,-261.54 626.87,-253.35 634.59,-248.01 671.03,-222.78 688.62,-233.12 727.59,-212.01 729.36,-211.05 731.14,-210.01 732.91,-208.92"/>
<polygon fill="green" stroke="green" stroke-width="0.21" points="735.17,-211.62 741.58,-203.18 731.31,-205.78 735.17,-211.62"/>
</g>
<!-- &#45;17&#45;&gt;390 -->
<g id="edge182" class="edge">
<title>&#45;17&#45;&gt;390</title>
<path fill="none" stroke="red" stroke-width="0.38" d="M611.16,-267.9C613.18,-257.43 616.84,-238.55 620.09,-221.8"/>
<polygon fill="red" stroke="red" stroke-width="0.38" points="623.57,-222.23 622.04,-211.74 616.7,-220.89 623.57,-222.23"/>
</g>
<!-- &#45;17&#45;&gt;391 -->
<g id="edge117" class="edge">
<title>&#45;17&#45;&gt;391</title>
<path fill="none" stroke="red" stroke-width="0.2" d="M604.35,-267.99C599.84,-261.68 592.76,-253.13 584.59,-248.01 535.24,-217.07 511,-237.39 458.59,-212.01 456.78,-211.13 454.96,-210.15 453.16,-209.11"/>
<polygon fill="red" stroke="red" stroke-width="0.2" points="454.73,-205.96 444.43,-203.5 450.95,-211.85 454.73,-205.96"/>
</g>
<!-- &#45;17&#45;&gt;393 -->
<g id="edge132" class="edge">
<title>&#45;17&#45;&gt;393</title>
<path fill="none" stroke="red" stroke-width="0.1" d="M616.92,-267.57C621.84,-261.96 628.52,-254.47 634.59,-248.01 645.78,-236.09 658.48,-223.15 669.23,-212.37"/>
<polygon fill="red" stroke="red" stroke-width="0.1" points="671.72,-214.84 676.32,-205.29 666.77,-209.88 671.72,-214.84"/>
</g>
<!-- &#45;17&#45;&gt;395 -->
<g id="edge140" class="edge">
<title>&#45;17&#45;&gt;395</title>
<path fill="none" stroke="red" stroke-width="0.31" d="M614.48,-267.98C618.9,-261.49 626.01,-252.69 634.59,-248.01 724.25,-199.08 767.13,-250.89 861.59,-212.01 863.45,-211.24 865.3,-210.35 867.13,-209.38"/>
<polygon fill="red" stroke="red" stroke-width="0.31" points="869.27,-212.17 875.94,-203.94 865.59,-206.21 869.27,-212.17"/>
</g>
<!-- &#45;17&#45;&gt;396 -->
<g id="edge154" class="edge">
<title>&#45;17&#45;&gt;396</title>
<path fill="none" stroke="green" stroke-width="0.62" d="M614.74,-267.87C619.22,-261.49 626.27,-252.89 634.59,-248.01 697.42,-211.06 728.11,-241.9 794.59,-212.01 796.42,-211.18 798.26,-210.25 800.07,-209.24"/>
<polygon fill="green" stroke="green" stroke-width="0.62" points="802.25,-212 808.84,-203.71 798.52,-206.08 802.25,-212"/>
</g>
<!-- &#45;17&#45;&gt;398 -->
<g id="edge76" class="edge">
<title>&#45;17&#45;&gt;398</title>
<path fill="none" stroke="green" stroke-width="0.16" d="M604.97,-267.9C598.55,-256.63 586.57,-235.61 576.53,-217.99"/>
<polygon fill="green" stroke="green" stroke-width="0.16" points="579.49,-216.12 571.5,-209.16 573.41,-219.58 579.49,-216.12"/>
</g>
<!-- &#45;17&#45;&gt;399 -->
<g id="edge15" class="edge">
<title>&#45;17&#45;&gt;399</title>
<path fill="none" stroke="red" stroke-width="0.27" d="M603.36,-267.81C598.61,-261.9 591.69,-253.93 584.59,-248.01 560.99,-228.34 551.18,-228.99 525.59,-212.01 523.95,-210.92 522.29,-209.8 520.62,-208.65"/>
<polygon fill="red" stroke="red" stroke-width="0.27" points="522.51,-205.7 512.31,-202.82 518.49,-211.43 522.51,-205.7"/>
</g>
<!-- &#45;18 -->
<g id="node18" class="node">
<title>&#45;18</title>
<polygon fill="lightgray" stroke="black" points="675.59,-286 643.59,-286 643.59,-268 675.59,-268 675.59,-286"/>
<text text-anchor="middle" x="659.59" y="-274.8" font-family="Times,serif" font-size="9.00">&#45;18</text>
</g>
<!-- &#45;18&#45;&gt;389 -->
<g id="edge2" class="edge">
<title>&#45;18&#45;&gt;389</title>
<path fill="none" stroke="green" stroke-width="0.62" stroke-dasharray="1,5" d="M666.24,-267.81C671.08,-262.04 677.94,-254.25 684.59,-248.01 699.62,-233.89 717.73,-219.56 732.5,-208.47"/>
<polygon fill="green" stroke="green" stroke-width="0.62" points="734.82,-211.11 740.77,-202.34 730.65,-205.49 734.82,-211.11"/>
</g>
<!-- &#45;18&#45;&gt;390 -->
<g id="edge20" class="edge">
<title>&#45;18&#45;&gt;390</title>
<path fill="none" stroke="red" stroke-width="0.38" d="M656.54,-267.9C652.49,-257.12 645.08,-237.42 638.64,-220.31"/>
<polygon fill="red" stroke="red" stroke-width="0.38" points="641.8,-218.75 635,-210.63 635.24,-221.22 641.8,-218.75"/>
</g>
<!-- &#45;18&#45;&gt;391 -->
<g id="edge81" class="edge">
<title>&#45;18&#45;&gt;391</title>
<path fill="none" stroke="red" stroke-width="0.18" stroke-dasharray="1,5" d="M654.46,-267.82C650,-261.42 642.95,-252.81 634.59,-248.01 565.37,-208.21 531.72,-244.04 458.59,-212.01 456.74,-211.2 454.9,-210.28 453.08,-209.28"/>
<polygon fill="red" stroke="red" stroke-width="0.18" points="454.63,-206.12 444.3,-203.78 450.92,-212.05 454.63,-206.12"/>
</g>
<!-- &#45;18&#45;&gt;393 -->
<g id="edge50" class="edge">
<title>&#45;18&#45;&gt;393</title>
<path fill="none" stroke="green" stroke-width="0.45" d="M662.72,-267.9C666.9,-257.12 674.54,-237.42 681.17,-220.31"/>
<polygon fill="green" stroke="green" stroke-width="0.45" points="684.57,-221.22 684.92,-210.63 678.04,-218.69 684.57,-221.22"/>
</g>
<!-- &#45;18&#45;&gt;395 -->
<g id="edge120" class="edge">
<title>&#45;18&#45;&gt;395</title>
<path fill="none" stroke="red" stroke-width="0.27" d="M664.72,-267.82C669.17,-261.41 676.22,-252.81 684.59,-248.01 754.2,-208.03 788.03,-244.17 861.59,-212.01 863.43,-211.2 865.27,-210.28 867.09,-209.28"/>
<polygon fill="red" stroke="red" stroke-width="0.27" points="869.25,-212.05 875.88,-203.78 865.54,-206.12 869.25,-212.05"/>
</g>
<!-- &#45;18&#45;&gt;396 -->
<g id="edge34" class="edge">
<title>&#45;18&#45;&gt;396</title>
<path fill="none" stroke="green" stroke-width="0.11" d="M665.06,-267.82C669.61,-261.59 676.62,-253.21 684.59,-248.01 727.64,-219.86 748.72,-235.31 794.59,-212.01 796.38,-211.1 798.18,-210.09 799.97,-209.03"/>
<polygon fill="green" stroke="green" stroke-width="0.11" points="802.2,-211.75 808.68,-203.37 798.39,-205.89 802.2,-211.75"/>
</g>
<!-- &#45;18&#45;&gt;398 -->
<g id="edge106" class="edge">
<title>&#45;18&#45;&gt;398</title>
<path fill="none" stroke="red" stroke-width="0.14" d="M652.92,-267.82C648.07,-262.06 641.22,-254.27 634.59,-248.01 619.82,-234.05 602.09,-219.82 587.57,-208.75"/>
<polygon fill="red" stroke="red" stroke-width="0.14" points="589.54,-205.85 579.44,-202.62 585.32,-211.44 589.54,-205.85"/>
</g>
<!-- &#45;18&#45;&gt;399 -->
<g id="edge171" class="edge">
<title>&#45;18&#45;&gt;399</title>
<path fill="none" stroke="red" stroke-width="0.49" d="M654.11,-267.82C649.55,-261.59 642.54,-253.22 634.59,-248.01 591.92,-220.03 571.04,-235.18 525.59,-212.01 523.79,-211.09 521.99,-210.09 520.2,-209.03"/>
<polygon fill="red" stroke="red" stroke-width="0.49" points="521.79,-205.88 511.5,-203.36 517.97,-211.75 521.79,-205.88"/>
</g>
<!-- &#45;19 -->
<g id="node19" class="node">
<title>&#45;19</title>
<polygon fill="lightgray" stroke="black" points="725.59,-286 693.59,-286 693.59,-268 725.59,-268 725.59,-286"/>
<text text-anchor="middle" x="709.59" y="-274.8" font-family="Times,serif" font-size="9.00">&#45;19</text>
</g>
<!-- &#45;19&#45;&gt;389 -->
<g id="edge178" class="edge">
<title>&#45;19&#45;&gt;389</title>
<path fill="none" stroke="green" stroke-width="0.29" d="M714.29,-267.9C720.84,-256.63 733.06,-235.61 743.3,-217.99"/>
<polygon fill="green" stroke="green" stroke-width="0.29" points="746.44,-219.57 748.44,-209.16 740.38,-216.05 746.44,-219.57"/>
</g>
<!-- &#45;19&#45;&gt;390 -->
<g id="edge113" class="edge">
<title>&#45;19&#45;&gt;390</title>
<path fill="none" stroke="green" stroke-width="0.4" d="M702.24,-267.59C697.3,-261.99 690.63,-254.49 684.59,-248.01 673.65,-236.26 661.28,-223.46 650.79,-212.73"/>
<polygon fill="green" stroke="green" stroke-width="0.4" points="653.03,-210.02 643.53,-205.33 648.04,-214.92 653.03,-210.02"/>
</g>
<!-- &#45;19&#45;&gt;391 -->
<g id="edge62" class="edge">
<title>&#45;19&#45;&gt;391</title>
<path fill="none" stroke="green" stroke-width="0.52" d="M704.69,-267.99C700.27,-261.5 693.16,-252.69 684.59,-248.01 595.32,-199.26 552.63,-250.76 458.59,-212.01 456.73,-211.24 454.87,-210.35 453.04,-209.37"/>
<polygon fill="green" stroke="green" stroke-width="0.52" points="454.58,-206.21 444.23,-203.94 450.91,-212.17 454.58,-206.21"/>
</g>
<!-- &#45;19&#45;&gt;393 -->
<g id="edge133" class="edge">
<title>&#45;19&#45;&gt;393</title>
<path fill="none" stroke="green" stroke-width="0.33" d="M708.11,-267.9C706.2,-257.43 702.76,-238.55 699.7,-221.8"/>
<polygon fill="green" stroke="green" stroke-width="0.33" points="703.11,-220.95 697.87,-211.74 696.22,-222.21 703.11,-220.95"/>
</g>
<!-- &#45;19&#45;&gt;395 -->
<g id="edge16" class="edge">
<title>&#45;19&#45;&gt;395</title>
<path fill="none" stroke="red" stroke-width="0.85" d="M714.82,-267.99C719.33,-261.68 726.41,-253.12 734.59,-248.01 784.32,-216.89 808.76,-237.53 861.59,-212.01 863.4,-211.13 865.22,-210.16 867.01,-209.12"/>
<polygon fill="red" stroke="red" stroke-width="0.85" points="869.22,-211.86 875.75,-203.51 865.44,-205.97 869.22,-211.86"/>
</g>
<!-- &#45;19&#45;&gt;396 -->
<g id="edge103" class="edge">
<title>&#45;19&#45;&gt;396</title>
<path fill="none" stroke="red" stroke-width="0.19" d="M715.8,-267.8C720.55,-261.87 727.46,-253.9 734.59,-248.01 758.55,-228.19 768.61,-229.1 794.59,-212.01 796.22,-210.93 797.89,-209.81 799.57,-208.66"/>
<polygon fill="red" stroke="red" stroke-width="0.19" points="801.69,-211.45 807.88,-202.85 797.68,-205.71 801.69,-211.45"/>
</g>
<!-- &#45;19&#45;&gt;398 -->
<g id="edge32" class="edge">
<title>&#45;19&#45;&gt;398</title>
<path fill="none" stroke="green" stroke-width="0.72" d="M703.84,-267.69C699.24,-261.55 692.29,-253.36 684.59,-248.01 648.53,-222.95 631.15,-233 592.59,-212.01 590.82,-211.05 589.04,-210 587.26,-208.91"/>
<polygon fill="green" stroke="green" stroke-width="0.72" points="588.87,-205.78 578.6,-203.17 585,-211.61 588.87,-205.78"/>
</g>
<!-- &#45;19&#45;&gt;399 -->
<g id="edge168" class="edge">
<title>&#45;19&#45;&gt;399</title>
<path fill="none" stroke="red" stroke-width="0.28" d="M704.43,-267.87C699.95,-261.49 692.9,-252.9 684.59,-248.01 622.15,-211.24 591.65,-241.77 525.59,-212.01 523.75,-211.18 521.92,-210.24 520.11,-209.23"/>
<polygon fill="red" stroke="red" stroke-width="0.28" points="521.66,-206.07 511.33,-203.7 517.93,-212 521.66,-206.07"/>
</g>
<!-- &#45;20 -->
<g id="node20" class="node">
<title>&#45;20</title>
<polygon fill="lightgray" stroke="black" points="775.59,-286 743.59,-286 743.59,-268 775.59,-268 775.59,-286"/>
<text text-anchor="middle" x="759.59" y="-274.8" font-family="Times,serif" font-size="9.00">&#45;20</text>
</g>
<!-- &#45;20&#45;&gt;389 -->
<g id="edge194" class="edge">
<title>&#45;20&#45;&gt;389</title>
<path fill="none" stroke="red" stroke-width="0.5" d="M759.68,-267.9C759.8,-257.5 760.01,-238.81 760.2,-222.14"/>
<polygon fill="red" stroke="red" stroke-width="0.5" points="763.7,-222.16 760.31,-212.12 756.7,-222.08 763.7,-222.16"/>
</g>
<!-- &#45;20&#45;&gt;390 -->
<g id="edge59" class="edge">
<title>&#45;20&#45;&gt;390</title>
<path fill="none" stroke="green" stroke-width="0.41" d="M753.72,-267.85C749.06,-261.8 742.09,-253.65 734.59,-248.01 705.03,-225.79 691.38,-230.88 659.59,-212.01 657.9,-211.01 656.2,-209.95 654.49,-208.85"/>
<polygon fill="green" stroke="green" stroke-width="0.41" points="656.34,-205.87 646.1,-203.16 652.41,-211.67 656.34,-205.87"/>
</g>
<!-- &#45;20&#45;&gt;391 -->
<g id="edge111" class="edge">
<title>&#45;20&#45;&gt;391</title>
<path fill="none" stroke="green" stroke-width="0.19" d="M754.72,-267.92C750.33,-261.4 743.23,-252.57 734.59,-248.01 625.19,-190.25 573.62,-257.52 458.59,-212.01 456.72,-211.27 454.85,-210.4 453.02,-209.44"/>
<polygon fill="green" stroke="green" stroke-width="0.19" points="454.55,-206.27 444.19,-204.04 450.9,-212.24 454.55,-206.27"/>
</g>
<!-- &#45;20&#45;&gt;393 -->
<g id="edge151" class="edge">
<title>&#45;20&#45;&gt;393</title>
<path fill="none" stroke="red" stroke-width="0.54" d="M753.5,-267.9C744.72,-256.23 728.09,-234.12 714.57,-216.16"/>
<polygon fill="red" stroke="red" stroke-width="0.54" points="717.04,-213.62 708.23,-207.73 711.45,-217.83 717.04,-213.62"/>
</g>
<!-- &#45;20&#45;&gt;395 -->
<g id="edge73" class="edge">
<title>&#45;20&#45;&gt;395</title>
<path fill="none" stroke="red" stroke-width="0.3" d="M765.43,-267.83C770.09,-261.76 777.06,-253.61 784.59,-248.01 814.9,-225.46 829,-231.12 861.59,-212.01 863.28,-211.02 864.99,-209.96 866.7,-208.87"/>
<polygon fill="red" stroke="red" stroke-width="0.3" points="868.77,-211.69 875.1,-203.19 864.85,-205.89 868.77,-211.69"/>
</g>
<!-- &#45;20&#45;&gt;396 -->
<g id="edge45" class="edge">
<title>&#45;20&#45;&gt;396</title>
<path fill="none" stroke="red" stroke-width="0.12" d="M765.86,-267.9C775.04,-256.06 792.57,-233.44 806.61,-215.33"/>
<polygon fill="red" stroke="red" stroke-width="0.12" points="809.41,-217.43 812.77,-207.38 803.88,-213.14 809.41,-217.43"/>
</g>
<!-- &#45;20&#45;&gt;398 -->
<g id="edge165" class="edge">
<title>&#45;20&#45;&gt;398</title>
<path fill="none" stroke="red" stroke-width="0.14" d="M754.4,-267.93C749.9,-261.58 742.83,-253.01 734.59,-248.01 678.91,-214.25 651.6,-239.51 592.59,-212.01 590.76,-211.16 588.94,-210.2 587.13,-209.18"/>
<polygon fill="red" stroke="red" stroke-width="0.14" points="588.69,-206.02 578.38,-203.61 584.94,-211.93 588.69,-206.02"/>
</g>
<!-- &#45;20&#45;&gt;399 -->
<g id="edge27" class="edge">
<title>&#45;20&#45;&gt;399</title>
<path fill="none" stroke="green" stroke-width="0.26" d="M754.5,-267.75C750.06,-261.31 743.02,-252.68 734.59,-248.01 652.15,-202.31 612.51,-248.47 525.59,-212.01 523.73,-211.23 521.88,-210.33 520.06,-209.35"/>
<polygon fill="green" stroke="green" stroke-width="0.26" points="521.6,-206.18 511.25,-203.89 517.91,-212.13 521.6,-206.18"/>
</g>
<!-- 0 -->
<g id="node21" class="node">
<title>0</title>
<ellipse fill="lightblue" stroke="black" cx="728.59" cy="-97.52" rx="16.03" ry="16.03"/>
<text text-anchor="middle" x="728.59" y="-95.32" font-family="Times,serif" font-size="9.00">0</text>
</g>
<!-- 2 -->
<g id="node23" class="node">
<title>2</title>
<ellipse fill="lightblue" stroke="black" cx="589.59" cy="-97.52" rx="16.03" ry="16.03"/>
<text text-anchor="middle" x="589.59" y="-95.32" font-family="Times,serif" font-size="9.00">2</text>
</g>
<!-- 3 -->
<g id="node24" class="node">
<title>3</title>
<ellipse fill="lightblue" stroke="black" cx="677.59" cy="-97.52" rx="16.03" ry="16.03"/>
<text text-anchor="middle" x="677.59" y="-95.32" font-family="Times,serif" font-size="9.00">3</text>
</g>
<!-- 389&#45;&gt;0 -->
<g id="edge172" class="edge">
<title>389&#45;&gt;0</title>
<path fill="none" stroke="green" stroke-width="0.74" d="M752.35,-163.66C747.76,-151.08 742.05,-135.42 737.37,-122.61"/>
<polygon fill="green" stroke="green" stroke-width="0.74" points="740.6,-121.25 733.89,-113.06 734.03,-123.65 740.6,-121.25"/>
</g>
<!-- 389&#45;&gt;1 -->
<g id="edge107" class="edge">
<title>389&#45;&gt;1</title>
<path fill="none" stroke="green" stroke-width="0.36" d="M780.11,-171.38C784.45,-168.3 789.1,-165.19 793.59,-162.51 824.99,-143.76 848.19,-157.52 867.59,-126.51 881.25,-104.66 879,-91.63 867.59,-68.53 858.62,-50.37 839.78,-36.87 824.36,-28.29"/>
<polygon fill="green" stroke="green" stroke-width="0.36" points="825.81,-25.1 815.32,-23.59 822.58,-31.31 825.81,-25.1"/>
</g>
<!-- 389&#45;&gt;2 -->
<g id="edge52" class="edge">
<title>389&#45;&gt;2</title>
<path fill="none" stroke="red" stroke-width="0.31" d="M741.1,-171.31C736.76,-168.24 732.1,-165.15 727.59,-162.51 717.11,-156.39 650.59,-126.09 613.87,-109.48"/>
<polygon fill="red" stroke="red" stroke-width="0.31" points="614.93,-106.11 604.37,-105.18 612.04,-112.49 614.93,-106.11"/>
</g>
<!-- 389&#45;&gt;3 -->
<g id="edge185" class="edge">
<title>389&#45;&gt;3</title>
<path fill="none" stroke="red" stroke-width="0.62" d="M743.81,-168.8C732.43,-156.92 717.05,-140.81 703.59,-126.51 700.8,-123.55 697.86,-120.41 695,-117.33"/>
<polygon fill="red" stroke="red" stroke-width="0.62" points="697.55,-114.94 688.18,-109.99 692.42,-119.7 697.55,-114.94"/>
</g>
<!-- 389&#45;&gt;4 -->
<g id="edge122" class="edge">
<title>389&#45;&gt;4</title>
<path fill="none" stroke="green" stroke-width="0.21" d="M741.85,-170.79C737.38,-167.68 732.48,-164.7 727.59,-162.51 659.86,-132.22 628.98,-163.36 564.59,-126.51 561,-124.46 557.62,-121.74 554.55,-118.81"/>
<polygon fill="green" stroke="green" stroke-width="0.21" points="557.01,-116.31 547.65,-111.33 551.86,-121.06 557.01,-116.31"/>
</g>
<!-- 390&#45;&gt;0 -->
<g id="edge82" class="edge">
<title>390&#45;&gt;0</title>
<path fill="none" stroke="red" stroke-width="0.15" d="M646.32,-172.08C662.07,-160.44 684.44,-143.22 702.59,-126.51 705.58,-123.76 708.62,-120.72 711.53,-117.69"/>
<polygon fill="red" stroke="red" stroke-width="0.15" points="714.11,-120.06 718.35,-110.35 708.98,-115.29 714.11,-120.06"/>
</g>
<!-- 390&#45;&gt;1 -->
<g id="edge142" class="edge">
<title>390&#45;&gt;1</title>
<path fill="none" stroke="red" stroke-width="0.33" d="M625.4,-162.46C625.41,-136.28 629.48,-94.48 652.59,-68.53 683.77,-33.49 740.13,-22.4 773.58,-18.88"/>
<polygon fill="red" stroke="red" stroke-width="0.33" points="774.32,-22.33 783.97,-17.96 773.7,-15.36 774.32,-22.33"/>
</g>
<!-- 390&#45;&gt;2 -->
<g id="edge158" class="edge">
<title>390&#45;&gt;2</title>
<path fill="none" stroke="red" stroke-width="0.31" d="M617.25,-164.12C611.83,-151.25 604.99,-135.05 599.48,-121.97"/>
<polygon fill="red" stroke="red" stroke-width="0.31" points="602.67,-120.54 595.56,-112.68 596.22,-123.26 602.67,-120.54"/>
</g>
<!-- 390&#45;&gt;3 -->
<g id="edge21" class="edge">
<title>390&#45;&gt;3</title>
<path fill="none" stroke="green" stroke-width="0.15" d="M638.67,-165.47C646.48,-152.04 656.62,-134.59 664.59,-120.87"/>
<polygon fill="green" stroke="green" stroke-width="0.15" points="667.71,-122.47 669.71,-112.06 661.66,-118.95 667.71,-122.47"/>
</g>
<!-- 390&#45;&gt;4 -->
<g id="edge121" class="edge">
<title>390&#45;&gt;4</title>
<path fill="none" stroke="green" stroke-width="0.14" d="M608.96,-169.77C596.42,-157.91 579.25,-141.44 564.59,-126.51 561.74,-123.61 558.77,-120.5 555.89,-117.44"/>
<polygon fill="green" stroke="green" stroke-width="0.14" points="558.44,-115.04 549.07,-110.09 553.31,-119.8 558.44,-115.04"/>
</g>
<!-- 391&#45;&gt;0 -->
<g id="edge188" class="edge">
<title>391&#45;&gt;0</title>
<path fill="none" stroke="green" stroke-width="0.11" d="M444.21,-170.54C448.69,-167.44 453.62,-164.53 458.59,-162.51 560.18,-121.33 605.58,-177.55 702.59,-126.51 706.31,-124.55 709.78,-121.84 712.91,-118.88"/>
<polygon fill="green" stroke="green" stroke-width="0.11" points="715.71,-121 719.87,-111.26 710.54,-116.28 715.71,-121"/>
</g>
<!-- 391&#45;&gt;1 -->
<g id="edge186" class="edge">
<title>391&#45;&gt;1</title>
<path fill="none" stroke="red" stroke-width="0.15" d="M429.15,-162.69C434.59,-135.49 447.67,-91.56 477.59,-68.53 524.03,-32.77 705.64,-21.35 774.19,-18.26"/>
<polygon fill="red" stroke="red" stroke-width="0.15" points="774.35,-21.76 784.19,-17.84 774.05,-14.77 774.35,-21.76"/>
</g>
<!-- 391&#45;&gt;2 -->
<g id="edge109" class="edge">
<title>391&#45;&gt;2</title>
<path fill="none" stroke="red" stroke-width="0.23" d="M444.52,-171.2C448.98,-168.07 453.82,-164.97 458.59,-162.51 502.41,-139.86 522.22,-153.39 563.59,-126.51 567.05,-124.26 570.37,-121.44 573.41,-118.47"/>
<polygon fill="red" stroke="red" stroke-width="0.23" points="576.1,-120.72 580.31,-111 570.96,-115.97 576.1,-120.72"/>
</g>
<!-- 391&#45;&gt;3 -->
<g id="edge55" class="edge">
<title>391&#45;&gt;3</title>
<path fill="none" stroke="green" stroke-width="0.17" d="M444.34,-170.83C448.81,-167.72 453.7,-164.72 458.59,-162.51 523.4,-133.15 547.1,-149.06 614.59,-126.51 628.07,-122.01 642.6,-115.66 654.3,-110.14"/>
<polygon fill="green" stroke="green" stroke-width="0.17" points="655.89,-113.26 663.39,-105.77 652.86,-106.96 655.89,-113.26"/>
</g>
<!-- 391&#45;&gt;4 -->
<g id="edge144" class="edge">
<title>391&#45;&gt;4</title>
<path fill="none" stroke="red" stroke-width="0.14" d="M444.76,-171.37C465.12,-155.56 497.2,-130.65 518.07,-114.45"/>
<polygon fill="red" stroke="red" stroke-width="0.14" points="520.24,-117.19 525.99,-108.3 515.95,-111.66 520.24,-117.19"/>
</g>
<!-- 393&#45;&gt;0 -->
<g id="edge68" class="edge">
<title>393&#45;&gt;0</title>
<path fill="none" stroke="green" stroke-width="0.98" d="M702.42,-164.12C707.47,-151.46 713.81,-135.57 718.98,-122.6"/>
<polygon fill="green" stroke="green" stroke-width="0.98" points="722.38,-123.53 722.83,-112.95 715.88,-120.94 722.38,-123.53"/>
</g>
<!-- 393&#45;&gt;1 -->
<g id="edge1" class="edge">
<title>393&#45;&gt;1</title>
<path fill="none" stroke="red" stroke-width="0.29" stroke-dasharray="1,5" d="M712.53,-170.82C725.4,-159.57 742.1,-143.41 753.59,-126.51 771.8,-99.71 785.35,-64.7 793.11,-41.63"/>
<polygon fill="red" stroke="red" stroke-width="0.29" points="796.49,-42.53 796.26,-31.94 789.84,-40.37 796.49,-42.53"/>
</g>
<!-- 393&#45;&gt;2 -->
<g id="edge141" class="edge">
<title>393&#45;&gt;2</title>
<path fill="none" stroke="red" stroke-width="0.23" d="M674.99,-170.57C656.47,-154.94 628.13,-131.04 609.24,-115.1"/>
<polygon fill="red" stroke="red" stroke-width="0.23" points="611.44,-112.38 601.54,-108.6 606.93,-117.73 611.44,-112.38"/>
</g>
<!-- 393&#45;&gt;3 -->
<g id="edge80" class="edge">
<title>393&#45;&gt;3</title>
<path fill="none" stroke="green" stroke-width="0.17" d="M689.3,-162.75C687.11,-150.73 684.44,-136.1 682.2,-123.84"/>
<polygon fill="green" stroke="green" stroke-width="0.17" points="685.61,-123.01 680.37,-113.8 678.72,-124.27 685.61,-123.01"/>
</g>
<!-- 393&#45;&gt;4 -->
<g id="edge105" class="edge">
<title>393&#45;&gt;4</title>
<path fill="none" stroke="green" stroke-width="0.34" d="M674.6,-171.3C670.15,-168.16 665.32,-165.04 660.59,-162.51 620.41,-141.01 602.44,-151.88 564.59,-126.51 561.15,-124.21 557.85,-121.37 554.82,-118.39"/>
<polygon fill="green" stroke="green" stroke-width="0.34" points="557.27,-115.89 547.91,-110.92 552.13,-120.64 557.27,-115.89"/>
</g>
<!-- 1348 -->
<g id="node35" class="node">
<title>1348</title>
<ellipse fill="white" stroke="black" cx="829.59" cy="-97.52" rx="28.98" ry="28.98"/>
<text text-anchor="middle" x="829.59" y="-95.32" font-family="Times,serif" font-size="9.00">1348</text>
</g>
<!-- 393&#45;&gt;1348 -->
<g id="edge131" class="edge">
<title>393&#45;&gt;1348</title>
<path fill="none" stroke="red" stroke-width="0.35" d="M713.29,-171.67C717.63,-168.58 722.22,-165.38 726.59,-162.51 752.56,-145.41 760.22,-143 786.59,-126.51 789.97,-124.39 793.49,-122.16 797,-119.91"/>
<polygon fill="red" stroke="red" stroke-width="0.35" points="799.08,-122.73 805.58,-114.37 795.28,-116.85 799.08,-122.73"/>
</g>
<!-- 395&#45;&gt;0 -->
<g id="edge84" class="edge">
<title>395&#45;&gt;0</title>
<path fill="none" stroke="red" stroke-width="0.37" d="M875.07,-171.36C870.73,-168.29 866.08,-165.18 861.59,-162.51 841.92,-150.83 785,-124.32 752.35,-109.34"/>
<polygon fill="red" stroke="red" stroke-width="0.37" points="753.62,-106.07 743.07,-105.09 750.7,-112.44 753.62,-106.07"/>
</g>
<!-- 395&#45;&gt;1 -->
<g id="edge115" class="edge">
<title>395&#45;&gt;1</title>
<path fill="none" stroke="red" stroke-width="0.25" d="M907.24,-165.8C920.87,-140.86 938.15,-98.35 918.59,-68.53 898.27,-37.56 854.77,-25.2 826.64,-20.34"/>
<polygon fill="red" stroke="red" stroke-width="0.25" points="827.1,-16.87 816.69,-18.82 826.05,-23.79 827.1,-16.87"/>
</g>
<!-- 395&#45;&gt;2 -->
<g id="edge155" class="edge">
<title>395&#45;&gt;2</title>
<path fill="none" stroke="green" stroke-width="0.79" d="M875.92,-170.62C871.45,-167.52 866.53,-164.58 861.59,-162.51 774.67,-126.05 742.79,-153.85 652.59,-126.51 638.99,-122.39 624.45,-116.07 612.77,-110.47"/>
<polygon fill="green" stroke="green" stroke-width="0.79" points="614.23,-107.29 603.71,-106.01 611.13,-113.57 614.23,-107.29"/>
</g>
<!-- 395&#45;&gt;3 -->
<g id="edge143" class="edge">
<title>395&#45;&gt;3</title>
<path fill="none" stroke="green" stroke-width="0.57" d="M875.84,-170.82C871.37,-167.71 866.48,-164.72 861.59,-162.51 795.94,-132.88 765.98,-162.49 703.59,-126.51 700,-124.44 696.63,-121.72 693.56,-118.79"/>
<polygon fill="green" stroke="green" stroke-width="0.57" points="696.02,-116.29 686.67,-111.31 690.87,-121.04 696.02,-116.29"/>
</g>
<!-- 395&#45;&gt;4 -->
<g id="edge124" class="edge">
<title>395&#45;&gt;4</title>
<path fill="none" stroke="green" stroke-width="0.34" d="M876,-170.44C871.52,-167.35 866.58,-164.46 861.59,-162.51 737.73,-114.15 683.05,-186.9 564.59,-126.51 560.84,-124.6 557.35,-121.92 554.23,-118.96"/>
<polygon fill="green" stroke="green" stroke-width="0.34" points="556.59,-116.36 547.26,-111.34 551.42,-121.08 556.59,-116.36"/>
</g>
<!-- 396&#45;&gt;0 -->
<g id="edge189" class="edge">
<title>396&#45;&gt;0</title>
<path fill="none" stroke="green" stroke-width="0.17" d="M809.43,-170.17C792,-154.72 765.77,-131.47 747.95,-115.68"/>
<polygon fill="green" stroke="green" stroke-width="0.17" points="750.22,-113.02 740.42,-109 745.58,-118.26 750.22,-113.02"/>
</g>
<!-- 396&#45;&gt;1 -->
<g id="edge56" class="edge">
<title>396&#45;&gt;1</title>
<path fill="none" stroke="green" stroke-width="0.39" d="M847.23,-171.57C867.85,-155.95 897.68,-132.65 900.59,-126.51 911.62,-103.22 914.02,-90.52 900.59,-68.53 884.55,-42.28 850.33,-28.92 826.41,-22.53"/>
<polygon fill="green" stroke="green" stroke-width="0.39" points="827.11,-19.09 816.57,-20.13 825.45,-25.89 827.11,-19.09"/>
</g>
<!-- 396&#45;&gt;3 -->
<g id="edge174" class="edge">
<title>396&#45;&gt;3</title>
<path fill="none" stroke="green" stroke-width="0.23" d="M808.57,-171.36C804.11,-168.22 799.29,-165.08 794.59,-162.51 756.42,-141.65 739.5,-151.05 703.59,-126.51 700.17,-124.18 696.88,-121.32 693.85,-118.33"/>
<polygon fill="green" stroke="green" stroke-width="0.23" points="696.31,-115.83 686.95,-110.86 691.16,-120.58 696.31,-115.83"/>
</g>
<!-- 396&#45;&gt;4 -->
<g id="edge145" class="edge">
<title>396&#45;&gt;4</title>
<path fill="none" stroke="green" stroke-width="0.15" d="M808.95,-170.57C804.47,-167.47 799.55,-164.55 794.59,-162.51 698.87,-123.22 655.94,-175.09 564.59,-126.51 560.94,-124.57 557.52,-121.91 554.44,-119"/>
<polygon fill="green" stroke="green" stroke-width="0.15" points="556.9,-116.5 547.55,-111.52 551.75,-121.25 556.9,-116.5"/>
</g>
<!-- 398&#45;&gt;0 -->
<g id="edge9" class="edge">
<title>398&#45;&gt;0</title>
<path fill="none" stroke="green" stroke-width="0.17" d="M578.49,-171.15C582.95,-168.02 587.8,-164.94 592.59,-162.51 638.45,-139.21 659.26,-154.24 702.59,-126.51 706.07,-124.28 709.4,-121.48 712.44,-118.51"/>
<polygon fill="green" stroke="green" stroke-width="0.17" points="715.13,-120.76 719.34,-111.04 709.99,-116.01 715.13,-120.76"/>
</g>
<!-- 398&#45;&gt;1 -->
<g id="edge72" class="edge">
<title>398&#45;&gt;1</title>
<path fill="none" stroke="green" stroke-width="0.52" d="M542.76,-168.89C520.91,-144.2 488.37,-98.65 513.59,-68.53 546.76,-28.9 709.6,-19.88 774.15,-17.84"/>
<polygon fill="green" stroke="green" stroke-width="0.52" points="774.43,-21.34 784.33,-17.56 774.23,-14.34 774.43,-21.34"/>
</g>
<!-- 398&#45;&gt;2 -->
<g id="edge88" class="edge">
<title>398&#45;&gt;2</title>
<path fill="none" stroke="green" stroke-width="0.14" stroke-dasharray="1,5" d="M567.31,-163.66C571.61,-151.08 576.97,-135.42 581.35,-122.61"/>
<polygon fill="green" stroke="green" stroke-width="0.14" points="584.69,-123.65 584.62,-113.06 578.07,-121.39 584.69,-123.65"/>
</g>
<!-- 398&#45;&gt;3 -->
<g id="edge148" class="edge">
<title>398&#45;&gt;3</title>
<path fill="none" stroke="red" stroke-width="0.18" d="M579.07,-171.77C600.47,-155.86 634.72,-130.4 656.67,-114.07"/>
<polygon fill="red" stroke="red" stroke-width="0.18" points="659.04,-116.67 664.98,-107.89 654.87,-111.05 659.04,-116.67"/>
</g>
<!-- 398&#45;&gt;4 -->
<g id="edge58" class="edge">
<title>398&#45;&gt;4</title>
<path fill="none" stroke="red" stroke-width="0.22" stroke-dasharray="1,5" d="M553.96,-162.75C551.06,-150.65 547.54,-135.91 544.59,-123.6"/>
<polygon fill="red" stroke="red" stroke-width="0.22" points="547.91,-122.45 542.18,-113.54 541.1,-124.08 547.91,-122.45"/>
</g>
<!-- 399&#45;&gt;0 -->
<g id="edge112" class="edge">
<title>399&#45;&gt;0</title>
<path fill="none" stroke="red" stroke-width="0.52" d="M511.3,-170.73C515.77,-167.63 520.67,-164.66 525.59,-162.51 599.14,-130.35 632.58,-165.8 702.59,-126.51 706.19,-124.49 709.58,-121.79 712.65,-118.86"/>
<polygon fill="red" stroke="red" stroke-width="0.52" points="715.34,-121.11 719.55,-111.39 710.2,-116.36 715.34,-121.11"/>
</g>
<!-- 399&#45;&gt;1 -->
<g id="edge60" class="edge">
<title>399&#45;&gt;1</title>
<path fill="none" stroke="green" stroke-width="0.43" d="M486.36,-163.17C480.79,-136.84 476.63,-94.14 499.59,-68.53 535.87,-28.05 707.19,-19.53 773.91,-17.74"/>
<polygon fill="green" stroke="green" stroke-width="0.43" points="774.12,-21.23 784.04,-17.5 773.95,-14.23 774.12,-21.23"/>
</g>
<!-- 399&#45;&gt;2 -->
<g id="edge41" class="edge">
<title>399&#45;&gt;2</title>
<path fill="none" stroke="red" stroke-width="0.44" d="M511.82,-171.14C526.42,-159.41 546.79,-142.51 563.59,-126.51 566.53,-123.71 569.55,-120.65 572.45,-117.61"/>
<polygon fill="red" stroke="red" stroke-width="0.44" points="575.03,-119.97 579.27,-110.26 569.9,-115.21 575.03,-119.97"/>
</g>
<!-- 399&#45;&gt;3 -->
<g id="edge177" class="edge">
<title>399&#45;&gt;3</title>
<path fill="none" stroke="red" stroke-width="0.23" d="M511.62,-171.39C516.07,-168.25 520.89,-165.1 525.59,-162.51 562.95,-141.9 575.31,-143.17 614.59,-126.51 627.67,-120.96 642.17,-114.53 653.96,-109.24"/>
<polygon fill="red" stroke="red" stroke-width="0.23" points="655.46,-112.41 663.13,-105.11 652.58,-106.03 655.46,-112.41"/>
</g>
<!-- 399&#45;&gt;4 -->
<g id="edge75" class="edge">
<title>399&#45;&gt;4</title>
<path fill="none" stroke="red" stroke-width="0.74" d="M503.72,-165.02C510.65,-151.8 519.57,-134.8 526.65,-121.29"/>
<polygon fill="red" stroke="red" stroke-width="0.74" points="529.88,-122.67 531.42,-112.19 523.68,-119.42 529.88,-122.67"/>
</g>
<!-- 1491&#45;&gt;391 -->
<g id="edge187" class="edge">
<title>1491&#45;&gt;391</title>
<path fill="none" stroke="green" stroke-width="0.38" d="M73.32,-258.81C79.61,-254.73 86.63,-250.77 93.59,-248.01 196.51,-207.19 328.49,-194.07 390.47,-190"/>
<polygon fill="green" stroke="green" stroke-width="0.38" points="390.74,-193.5 400.51,-189.39 390.31,-186.51 390.74,-193.5"/>
</g>
<!-- 1348&#45;&gt;1 -->
<g id="edge198" class="edge">
<title>1348&#45;&gt;1</title>
<path fill="none" stroke="green" stroke-width="0.63" d="M819.93,-70.13C816.53,-60.84 812.73,-50.45 809.4,-41.36"/>
<polygon fill="green" stroke="green" stroke-width="0.63" points="812.62,-39.96 805.89,-31.77 806.04,-42.36 812.62,-39.96"/>
</g>
</g>
</svg>
