<?xml version="1.0" encoding="UTF-8" standalone="no"?>
<!DOCTYPE svg PUBLIC "-//W3C//DTD SVG 1.1//EN"
 "http://www.w3.org/Graphics/SVG/1.1/DTD/svg11.dtd">
<!-- Generated by graphviz version 2.43.0 (0)
 -->
<!-- Title: %3 Pages: 1 -->
<svg width="1050pt" height="180pt"
 viewBox="0.00 0.00 1050.16 180.02" xmlns="http://www.w3.org/2000/svg" xmlns:xlink="http://www.w3.org/1999/xlink">
<g id="graph0" class="graph" transform="scale(1 1) rotate(0) translate(4 176.02)">
<title>%3</title>
<polygon fill="white" stroke="transparent" points="-4,4 -4,-176.02 1046.16,-176.02 1046.16,4 -4,4"/>
<!-- &#45;1 -->
<g id="node1" class="node">
<title>&#45;1</title>
<polygon fill="lightgray" stroke="black" points="289.02,-102.28 263.02,-102.28 263.02,-84.28 289.02,-84.28 289.02,-102.28"/>
<text text-anchor="middle" x="276.02" y="-91.08" font-family="Times,serif" font-size="9.00">&#45;1</text>
</g>
<!-- 0 -->
<g id="node21" class="node">
<title>0</title>
<ellipse fill="lightblue" stroke="black" cx="470.02" cy="-16.26" rx="16.03" ry="16.03"/>
<text text-anchor="middle" x="470.02" y="-14.06" font-family="Times,serif" font-size="9.00">0</text>
</g>
<!-- &#45;1&#45;&gt;0 -->
<g id="edge1" class="edge">
<title>&#45;1&#45;&gt;0</title>
<path fill="none" stroke="red" stroke-width="0.19" d="M281.71,-84.18C285.73,-79.02 291.53,-72.57 298.02,-68.53 344.53,-39.58 408.28,-26.22 443.65,-20.68"/>
<polygon fill="red" stroke="red" stroke-width="0.19" points="444.29,-24.13 453.67,-19.21 443.27,-17.2 444.29,-24.13"/>
</g>
<!-- 2 -->
<g id="node23" class="node">
<title>2</title>
<ellipse fill="lightblue" stroke="black" cx="521.02" cy="-16.26" rx="16.03" ry="16.03"/>
<text text-anchor="middle" x="521.02" y="-14.06" font-family="Times,serif" font-size="9.00">2</text>
</g>
<!-- &#45;1&#45;&gt;2 -->
<g id="edge39" class="edge">
<title>&#45;1&#45;&gt;2</title>
<path fill="none" stroke="green" stroke-width="0.16" d="M281.57,-83.94C285.53,-78.68 291.32,-72.21 298.02,-68.53 376.04,-25.69 411.59,-63.53 495.02,-32.53 496.26,-32.07 497.51,-31.55 498.76,-30.98"/>
<polygon fill="green" stroke="green" stroke-width="0.16" points="500.76,-33.89 507.97,-26.12 497.49,-27.69 500.76,-33.89"/>
</g>
<!-- 3 -->
<g id="node24" class="node">
<title>3</title>
<ellipse fill="lightblue" stroke="black" cx="674.02" cy="-16.26" rx="16.03" ry="16.03"/>
<text text-anchor="middle" x="674.02" y="-14.06" font-family="Times,serif" font-size="9.00">3</text>
</g>
<!-- &#45;1&#45;&gt;3 -->
<g id="edge71" class="edge">
<title>&#45;1&#45;&gt;3</title>
<path fill="none" stroke="green" stroke-width="0.13" d="M281.14,-84.23C285.06,-78.81 290.98,-72.04 298.02,-68.53 437.93,1.32 499.42,-81.22 648.02,-32.53 649.28,-32.11 650.54,-31.63 651.8,-31.1"/>
<polygon fill="green" stroke="green" stroke-width="0.13" points="653.76,-34.03 661.05,-26.34 650.55,-27.81 653.76,-34.03"/>
</g>
<!-- 4 -->
<g id="node25" class="node">
<title>4</title>
<ellipse fill="lightblue" stroke="black" cx="623.02" cy="-16.26" rx="16.03" ry="16.03"/>
<text text-anchor="middle" x="623.02" y="-14.06" font-family="Times,serif" font-size="9.00">4</text>
</g>
<!-- &#45;1&#45;&gt;4 -->
<g id="edge22" class="edge">
<title>&#45;1&#45;&gt;4</title>
<path fill="none" stroke="green" stroke-width="0.52" d="M281.16,-84.27C285.09,-78.87 291.01,-72.1 298.02,-68.53 417.25,-7.7 470.19,-75.31 597.02,-32.53 598.27,-32.1 599.54,-31.61 600.79,-31.08"/>
<polygon fill="green" stroke="green" stroke-width="0.52" points="602.76,-34 610.03,-26.29 599.54,-27.78 602.76,-34"/>
</g>
<!-- &#45;2 -->
<g id="node2" class="node">
<title>&#45;2</title>
<polygon fill="lightgray" stroke="black" points="953.02,-102.28 927.02,-102.28 927.02,-84.28 953.02,-84.28 953.02,-102.28"/>
<text text-anchor="middle" x="940.02" y="-91.08" font-family="Times,serif" font-size="9.00">&#45;2</text>
</g>
<!-- 1 -->
<g id="node22" class="node">
<title>1</title>
<ellipse fill="lightblue" stroke="black" cx="572.02" cy="-16.26" rx="16.03" ry="16.03"/>
<text text-anchor="middle" x="572.02" y="-14.06" font-family="Times,serif" font-size="9.00">1</text>
</g>
<!-- &#45;2&#45;&gt;1 -->
<g id="edge30" class="edge">
<title>&#45;2&#45;&gt;1</title>
<path fill="none" stroke="green" stroke-width="0.4" d="M934.89,-84.25C930.96,-78.85 925.04,-72.08 918.02,-68.53 790.28,-3.99 733.81,-77.74 598.02,-32.53 596.76,-32.11 595.5,-31.62 594.24,-31.09"/>
<polygon fill="green" stroke="green" stroke-width="0.4" points="595.49,-27.79 585,-26.32 592.28,-34.01 595.49,-27.79"/>
</g>
<!-- &#45;2&#45;&gt;2 -->
<g id="edge38" class="edge">
<title>&#45;2&#45;&gt;2</title>
<path fill="none" stroke="green" stroke-width="0.38" d="M934.9,-84.22C930.99,-78.8 925.07,-72.02 918.02,-68.53 769.59,5.04 704.59,-83.66 547.02,-32.53 545.76,-32.12 544.49,-31.64 543.24,-31.11"/>
<polygon fill="green" stroke="green" stroke-width="0.38" points="544.48,-27.82 533.99,-26.36 541.28,-34.04 544.48,-27.82"/>
</g>
<!-- &#45;2&#45;&gt;3 -->
<g id="edge19" class="edge">
<title>&#45;2&#45;&gt;3</title>
<path fill="none" stroke="green" stroke-width="1.02" d="M934.43,-84C930.46,-78.76 924.67,-72.29 918.02,-68.53 846.71,-28.14 747.43,-19.45 700.54,-17.67"/>
<polygon fill="green" stroke="green" stroke-width="1.02" points="700.42,-14.16 690.32,-17.36 700.21,-21.16 700.42,-14.16"/>
</g>
<!-- &#45;2&#45;&gt;4 -->
<g id="edge42" class="edge">
<title>&#45;2&#45;&gt;4</title>
<path fill="none" stroke="red" stroke-width="0.17" d="M934.52,-83.83C930.59,-78.53 924.8,-72.05 918.02,-68.53 810.93,-13.01 763.06,-71.84 649.02,-32.53 647.77,-32.1 646.51,-31.6 645.25,-31.06"/>
<polygon fill="red" stroke="red" stroke-width="0.17" points="646.51,-27.76 636.02,-26.26 643.28,-33.97 646.51,-27.76"/>
</g>
<!-- &#45;3 -->
<g id="node3" class="node">
<title>&#45;3</title>
<polygon fill="lightgray" stroke="black" points="683.02,-102.28 657.02,-102.28 657.02,-84.28 683.02,-84.28 683.02,-102.28"/>
<text text-anchor="middle" x="670.02" y="-91.08" font-family="Times,serif" font-size="9.00">&#45;3</text>
</g>
<!-- &#45;3&#45;&gt;0 -->
<g id="edge45" class="edge">
<title>&#45;3&#45;&gt;0</title>
<path fill="none" stroke="red" stroke-width="0.33" d="M664.4,-84.05C660.42,-78.84 654.62,-72.38 648.02,-68.53 588.05,-33.55 560.45,-58.39 496.02,-32.53 494.79,-32.03 493.55,-31.49 492.31,-30.91"/>
<polygon fill="red" stroke="red" stroke-width="0.33" points="493.59,-27.62 483.12,-25.98 490.28,-33.79 493.59,-27.62"/>
</g>
<!-- &#45;3&#45;&gt;1 -->
<g id="edge13" class="edge">
<title>&#45;3&#45;&gt;1</title>
<path fill="none" stroke="green" stroke-width="1.2" d="M663.12,-83.91C658.98,-79.15 653.48,-73.21 648.02,-68.53 631.31,-54.2 610.47,-40.4 594.84,-30.73"/>
<polygon fill="green" stroke="green" stroke-width="1.2" points="596.23,-27.48 585.87,-25.27 592.6,-33.46 596.23,-27.48"/>
</g>
<!-- &#45;3&#45;&gt;2 -->
<g id="edge82" class="edge">
<title>&#45;3&#45;&gt;2</title>
<path fill="none" stroke="red" stroke-width="0.17" d="M663.89,-83.83C659.87,-78.8 654.21,-72.61 648.02,-68.53 608.24,-42.29 590.2,-52.68 547.02,-32.53 545.84,-31.98 544.65,-31.39 543.46,-30.79"/>
<polygon fill="red" stroke="red" stroke-width="0.17" points="544.97,-27.62 534.52,-25.84 541.58,-33.74 544.97,-27.62"/>
</g>
<!-- &#45;3&#45;&gt;3 -->
<g id="edge52" class="edge">
<title>&#45;3&#45;&gt;3</title>
<path fill="none" stroke="red" stroke-width="0.24" d="M670.45,-84.25C670.97,-74.49 671.87,-57.54 672.64,-43.13"/>
<polygon fill="red" stroke="red" stroke-width="0.24" points="676.15,-42.94 673.19,-32.77 669.16,-42.57 676.15,-42.94"/>
</g>
<!-- &#45;3&#45;&gt;4 -->
<g id="edge23" class="edge">
<title>&#45;3&#45;&gt;4</title>
<path fill="none" stroke="red" stroke-width="0.13" stroke-dasharray="1,5" d="M664.99,-84.25C658.32,-73.61 646.29,-54.41 636.82,-39.29"/>
<polygon fill="red" stroke="red" stroke-width="0.13" points="639.6,-37.13 631.32,-30.51 633.66,-40.84 639.6,-37.13"/>
</g>
<!-- &#45;4 -->
<g id="node4" class="node">
<title>&#45;4</title>
<polygon fill="lightgray" stroke="black" points="727.02,-102.28 701.02,-102.28 701.02,-84.28 727.02,-84.28 727.02,-102.28"/>
<text text-anchor="middle" x="714.02" y="-91.08" font-family="Times,serif" font-size="9.00">&#45;4</text>
</g>
<!-- &#45;4&#45;&gt;0 -->
<g id="edge88" class="edge">
<title>&#45;4&#45;&gt;0</title>
<path fill="none" stroke="green" stroke-width="0.42" d="M708.46,-83.94C704.51,-78.68 698.72,-72.21 692.02,-68.53 614.4,-25.86 579.03,-63.42 496.02,-32.53 494.78,-32.06 493.53,-31.54 492.28,-30.98"/>
<polygon fill="green" stroke="green" stroke-width="0.42" points="493.55,-27.69 483.07,-26.12 490.28,-33.88 493.55,-27.69"/>
</g>
<!-- &#45;4&#45;&gt;1 -->
<g id="edge21" class="edge">
<title>&#45;4&#45;&gt;1</title>
<path fill="none" stroke="red" stroke-width="0.32" d="M707.86,-83.88C703.82,-78.87 698.16,-72.68 692.02,-68.53 654.96,-43.46 638.33,-51.92 598.02,-32.53 596.85,-31.97 595.67,-31.37 594.48,-30.75"/>
<polygon fill="red" stroke="red" stroke-width="0.32" points="595.99,-27.59 585.55,-25.78 592.58,-33.7 595.99,-27.59"/>
</g>
<!-- &#45;4&#45;&gt;2 -->
<g id="edge51" class="edge">
<title>&#45;4&#45;&gt;2</title>
<path fill="none" stroke="red" stroke-width="0.12" d="M708.39,-84.08C704.4,-78.87 698.6,-72.41 692.02,-68.53 634.84,-34.76 608.51,-57.59 547.02,-32.53 545.79,-32.03 544.55,-31.48 543.32,-30.89"/>
<polygon fill="red" stroke="red" stroke-width="0.12" points="544.6,-27.61 534.13,-25.95 541.28,-33.77 544.6,-27.61"/>
</g>
<!-- &#45;4&#45;&gt;3 -->
<g id="edge81" class="edge">
<title>&#45;4&#45;&gt;3</title>
<path fill="none" stroke="red" stroke-width="0.33" d="M709.74,-84.25C704.18,-73.83 694.26,-55.22 686.28,-40.25"/>
<polygon fill="red" stroke="red" stroke-width="0.33" points="689.17,-38.24 681.38,-31.07 683,-41.54 689.17,-38.24"/>
</g>
<!-- &#45;4&#45;&gt;4 -->
<g id="edge70" class="edge">
<title>&#45;4&#45;&gt;4</title>
<path fill="none" stroke="green" stroke-width="0.52" d="M707.03,-84C702.87,-79.27 697.37,-73.33 692.02,-68.53 677.08,-55.12 658.78,-41.65 644.79,-31.88"/>
<polygon fill="green" stroke="green" stroke-width="0.52" points="646.51,-28.82 636.29,-26.03 642.54,-34.59 646.51,-28.82"/>
</g>
<!-- &#45;5 -->
<g id="node5" class="node">
<title>&#45;5</title>
<polygon fill="lightgray" stroke="black" points="771.02,-102.28 745.02,-102.28 745.02,-84.28 771.02,-84.28 771.02,-102.28"/>
<text text-anchor="middle" x="758.02" y="-91.08" font-family="Times,serif" font-size="9.00">&#45;5</text>
</g>
<!-- &#45;5&#45;&gt;0 -->
<g id="edge37" class="edge">
<title>&#45;5&#45;&gt;0</title>
<path fill="none" stroke="green" stroke-width="0.32" d="M752.5,-83.87C748.56,-78.58 742.78,-72.1 736.02,-68.53 640.66,-18.12 597.71,-68.48 496.02,-32.53 494.77,-32.09 493.51,-31.58 492.26,-31.03"/>
<polygon fill="green" stroke="green" stroke-width="0.32" points="493.52,-27.74 483.04,-26.21 490.28,-33.94 493.52,-27.74"/>
</g>
<!-- &#45;5&#45;&gt;1 -->
<g id="edge9" class="edge">
<title>&#45;5&#45;&gt;1</title>
<path fill="none" stroke="green" stroke-width="0.4" d="M752.37,-84.1C748.38,-78.91 742.58,-72.45 736.02,-68.53 681.63,-35.97 656.57,-56.8 598.02,-32.53 596.79,-32.02 595.56,-31.46 594.32,-30.87"/>
<polygon fill="green" stroke="green" stroke-width="0.4" points="595.61,-27.59 585.15,-25.92 592.28,-33.75 595.61,-27.59"/>
</g>
<!-- &#45;5&#45;&gt;2 -->
<g id="edge94" class="edge">
<title>&#45;5&#45;&gt;2</title>
<path fill="none" stroke="red" stroke-width="0.69" d="M752.46,-83.95C748.5,-78.7 742.7,-72.23 736.02,-68.53 661.22,-27.09 627.06,-62.61 547.02,-32.53 545.78,-32.06 544.53,-31.54 543.28,-30.97"/>
<polygon fill="red" stroke="red" stroke-width="0.69" points="544.55,-27.68 534.08,-26.1 541.28,-33.87 544.55,-27.68"/>
</g>
<!-- &#45;5&#45;&gt;3 -->
<g id="edge68" class="edge">
<title>&#45;5&#45;&gt;3</title>
<path fill="none" stroke="green" stroke-width="0.37" d="M750.94,-84.11C746.75,-79.41 741.25,-73.47 736.02,-68.53 722.82,-56.05 707.04,-43.03 694.7,-33.23"/>
<polygon fill="green" stroke="green" stroke-width="0.37" points="696.81,-30.43 686.78,-27.01 692.48,-35.94 696.81,-30.43"/>
</g>
<!-- &#45;5&#45;&gt;4 -->
<g id="edge60" class="edge">
<title>&#45;5&#45;&gt;4</title>
<path fill="none" stroke="red" stroke-width="0.28" stroke-dasharray="1,5" d="M751.82,-83.94C747.77,-78.95 742.11,-72.76 736.02,-68.53 701.67,-44.62 686.49,-51.16 649.02,-32.53 647.86,-31.95 646.68,-31.34 645.5,-30.71"/>
<polygon fill="red" stroke="red" stroke-width="0.28" points="647.02,-27.55 636.59,-25.71 643.59,-33.66 647.02,-27.55"/>
</g>
<!-- &#45;6 -->
<g id="node6" class="node">
<title>&#45;6</title>
<polygon fill="lightgray" stroke="black" points="815.02,-102.28 789.02,-102.28 789.02,-84.28 815.02,-84.28 815.02,-102.28"/>
<text text-anchor="middle" x="802.02" y="-91.08" font-family="Times,serif" font-size="9.00">&#45;6</text>
</g>
<!-- &#45;6&#45;&gt;0 -->
<g id="edge80" class="edge">
<title>&#45;6&#45;&gt;0</title>
<path fill="none" stroke="red" stroke-width="0.48" stroke-dasharray="1,5" d="M796.53,-83.82C792.6,-78.51 786.82,-72.02 780.02,-68.53 666.86,-10.36 616.45,-73.57 496.02,-32.53 494.76,-32.1 493.5,-31.61 492.25,-31.07"/>
<polygon fill="red" stroke="red" stroke-width="0.48" points="493.5,-27.77 483.01,-26.28 490.28,-33.99 493.5,-27.77"/>
</g>
<!-- &#45;6&#45;&gt;1 -->
<g id="edge12" class="edge">
<title>&#45;6&#45;&gt;1</title>
<path fill="none" stroke="green" stroke-width="0.66" d="M796.45,-83.97C792.48,-78.72 786.69,-72.25 780.02,-68.53 708.03,-28.31 675.1,-61.81 598.02,-32.53 596.78,-32.06 595.53,-31.53 594.29,-30.96"/>
<polygon fill="green" stroke="green" stroke-width="0.66" points="595.56,-27.67 585.08,-26.08 592.28,-33.86 595.56,-27.67"/>
</g>
<!-- &#45;6&#45;&gt;2 -->
<g id="edge18" class="edge">
<title>&#45;6&#45;&gt;2</title>
<path fill="none" stroke="green" stroke-width="0.24" stroke-dasharray="1,5" d="M796.5,-83.88C792.56,-78.59 786.77,-72.11 780.02,-68.53 687.49,-19.36 645.73,-67.68 547.02,-32.53 545.77,-32.08 544.51,-31.58 543.27,-31.03"/>
<polygon fill="green" stroke="green" stroke-width="0.24" points="544.52,-27.73 534.04,-26.2 541.28,-33.94 544.52,-27.73"/>
</g>
<!-- &#45;6&#45;&gt;3 -->
<g id="edge49" class="edge">
<title>&#45;6&#45;&gt;3</title>
<path fill="none" stroke="green" stroke-width="0.7" d="M795.73,-84.06C791.64,-79.12 785.98,-72.94 780.02,-68.53 754.65,-49.76 721.34,-34.99 698.88,-26.21"/>
<polygon fill="green" stroke="green" stroke-width="0.7" points="699.99,-22.89 689.4,-22.61 697.5,-29.43 699.99,-22.89"/>
</g>
<!-- &#45;6&#45;&gt;4 -->
<g id="edge61" class="edge">
<title>&#45;6&#45;&gt;4</title>
<path fill="none" stroke="red" stroke-width="0.77" d="M796.35,-84.13C792.35,-78.95 786.55,-72.5 780.02,-68.53 728.41,-37.18 704.64,-56.01 649.02,-32.53 647.8,-32.01 646.56,-31.45 645.33,-30.85"/>
<polygon fill="red" stroke="red" stroke-width="0.77" points="646.62,-27.57 636.16,-25.88 643.29,-33.73 646.62,-27.57"/>
</g>
<!-- &#45;7 -->
<g id="node7" class="node">
<title>&#45;7</title>
<polygon fill="lightgray" stroke="black" points="859.02,-102.28 833.02,-102.28 833.02,-84.28 859.02,-84.28 859.02,-102.28"/>
<text text-anchor="middle" x="846.02" y="-91.08" font-family="Times,serif" font-size="9.00">&#45;7</text>
</g>
<!-- &#45;7&#45;&gt;0 -->
<g id="edge29" class="edge">
<title>&#45;7&#45;&gt;0</title>
<path fill="none" stroke="red" stroke-width="0.29" d="M840.89,-84.25C836.97,-78.84 831.05,-72.07 824.02,-68.53 693.03,-2.57 635.22,-78.67 496.02,-32.53 494.76,-32.11 493.5,-31.63 492.24,-31.09"/>
<polygon fill="red" stroke="red" stroke-width="0.29" points="493.49,-27.8 483,-26.32 490.28,-34.02 493.49,-27.8"/>
</g>
<!-- &#45;7&#45;&gt;1 -->
<g id="edge93" class="edge">
<title>&#45;7&#45;&gt;1</title>
<path fill="none" stroke="green" stroke-width="0.25" d="M840.49,-83.89C836.55,-78.61 830.76,-72.13 824.02,-68.53 734.31,-20.59 693.76,-66.87 598.02,-32.53 596.77,-32.08 595.52,-31.57 594.27,-31.02"/>
<polygon fill="green" stroke="green" stroke-width="0.25" points="595.53,-27.73 585.04,-26.19 592.28,-33.93 595.53,-27.73"/>
</g>
<!-- &#45;7&#45;&gt;2 -->
<g id="edge66" class="edge">
<title>&#45;7&#45;&gt;2</title>
<path fill="none" stroke="green" stroke-width="0.25" stroke-dasharray="1,5" d="M840.53,-83.82C836.6,-78.52 830.81,-72.03 824.02,-68.53 713.7,-11.59 664.46,-72.76 547.02,-32.53 545.77,-32.1 544.51,-31.6 543.25,-31.06"/>
<polygon fill="green" stroke="green" stroke-width="0.25" points="544.5,-27.77 534.02,-26.27 541.28,-33.98 544.5,-27.77"/>
</g>
<!-- &#45;7&#45;&gt;3 -->
<g id="edge35" class="edge">
<title>&#45;7&#45;&gt;3</title>
<path fill="none" stroke="red" stroke-width="0.17" stroke-dasharray="1,5" d="M840.27,-84.26C836.24,-79.14 830.43,-72.69 824.02,-68.53 784.8,-43.03 731.54,-28.79 700.17,-22.1"/>
<polygon fill="red" stroke="red" stroke-width="0.17" points="700.54,-18.61 690.05,-20.05 699.15,-25.47 700.54,-18.61"/>
</g>
<!-- &#45;7&#45;&gt;4 -->
<g id="edge47" class="edge">
<title>&#45;7&#45;&gt;4</title>
<path fill="none" stroke="red" stroke-width="0.34" d="M840.44,-83.99C836.47,-78.75 830.68,-72.28 824.02,-68.53 754.84,-29.54 723.14,-61.01 649.02,-32.53 647.78,-32.05 646.54,-31.52 645.29,-30.95"/>
<polygon fill="red" stroke="red" stroke-width="0.34" points="646.56,-27.66 636.09,-26.06 643.28,-33.84 646.56,-27.66"/>
</g>
<!-- &#45;8 -->
<g id="node8" class="node">
<title>&#45;8</title>
<polygon fill="lightgray" stroke="black" points="201.02,-102.28 175.02,-102.28 175.02,-84.28 201.02,-84.28 201.02,-102.28"/>
<text text-anchor="middle" x="188.02" y="-91.08" font-family="Times,serif" font-size="9.00">&#45;8</text>
</g>
<!-- &#45;8&#45;&gt;0 -->
<g id="edge76" class="edge">
<title>&#45;8&#45;&gt;0</title>
<path fill="none" stroke="green" stroke-width="0.59" d="M193.59,-83.97C197.55,-78.72 203.34,-72.25 210.02,-68.53 286.96,-25.58 394.29,-18.2 443.48,-17.21"/>
<polygon fill="green" stroke="green" stroke-width="0.59" points="443.65,-20.71 453.61,-17.08 443.57,-13.71 443.65,-20.71"/>
</g>
<!-- &#45;8&#45;&gt;1 -->
<g id="edge6" class="edge">
<title>&#45;8&#45;&gt;1</title>
<path fill="none" stroke="red" stroke-width="0.16" d="M193.14,-84.24C197.07,-78.83 202.99,-72.06 210.02,-68.53 344.25,-1.16 403.4,-79.6 546.02,-32.53 547.28,-32.11 548.54,-31.63 549.8,-31.1"/>
<polygon fill="red" stroke="red" stroke-width="0.16" points="551.76,-34.02 559.04,-26.33 548.55,-27.8 551.76,-34.02"/>
</g>
<!-- &#45;8&#45;&gt;2 -->
<g id="edge34" class="edge">
<title>&#45;8&#45;&gt;2</title>
<path fill="none" stroke="red" stroke-width="0.68" d="M193.51,-83.82C197.44,-78.5 203.22,-72.02 210.02,-68.53 323.58,-10.18 374.16,-73.69 495.02,-32.53 496.27,-32.1 497.53,-31.61 498.79,-31.07"/>
<polygon fill="red" stroke="red" stroke-width="0.68" points="500.76,-33.99 508.02,-26.28 497.54,-27.77 500.76,-33.99"/>
</g>
<!-- &#45;8&#45;&gt;3 -->
<g id="edge65" class="edge">
<title>&#45;8&#45;&gt;3</title>
<path fill="none" stroke="green" stroke-width="0.24" d="M193.12,-84.19C197.03,-78.75 202.94,-71.97 210.02,-68.53 385.66,16.93 461.79,-91.45 648.02,-32.53 649.28,-32.13 650.55,-31.66 651.81,-31.14"/>
<polygon fill="green" stroke="green" stroke-width="0.24" points="653.76,-34.07 661.06,-26.4 650.57,-27.84 653.76,-34.07"/>
</g>
<!-- &#45;8&#45;&gt;4 -->
<g id="edge92" class="edge">
<title>&#45;8&#45;&gt;4</title>
<path fill="none" stroke="red" stroke-width="0.35" d="M193.13,-84.21C197.04,-78.78 202.96,-72.01 210.02,-68.53 364.94,7.88 432.61,-85.52 597.02,-32.53 598.28,-32.12 599.55,-31.65 600.8,-31.12"/>
<polygon fill="red" stroke="red" stroke-width="0.35" points="602.76,-34.05 610.06,-26.37 599.56,-27.82 602.76,-34.05"/>
</g>
<!-- &#45;9 -->
<g id="node9" class="node">
<title>&#45;9</title>
<polygon fill="lightgray" stroke="black" points="245.02,-102.28 219.02,-102.28 219.02,-84.28 245.02,-84.28 245.02,-102.28"/>
<text text-anchor="middle" x="232.02" y="-91.08" font-family="Times,serif" font-size="9.00">&#45;9</text>
</g>
<!-- &#45;9&#45;&gt;0 -->
<g id="edge87" class="edge">
<title>&#45;9&#45;&gt;0</title>
<path fill="none" stroke="green" stroke-width="0.37" stroke-dasharray="1,5" d="M237.64,-84.05C241.62,-78.84 247.42,-72.38 254.02,-68.53 315.57,-32.6 400.89,-21.83 443.53,-18.62"/>
<polygon fill="green" stroke="green" stroke-width="0.37" points="443.91,-22.1 453.66,-17.94 443.45,-15.12 443.91,-22.1"/>
</g>
<!-- &#45;9&#45;&gt;1 -->
<g id="edge62" class="edge">
<title>&#45;9&#45;&gt;1</title>
<path fill="none" stroke="red" stroke-width="0.7" d="M237.16,-84.27C241.09,-78.88 247.01,-72.11 254.02,-68.53 370.41,-8.94 422.18,-74.5 546.02,-32.53 547.27,-32.1 548.53,-31.61 549.79,-31.07"/>
<polygon fill="red" stroke="red" stroke-width="0.7" points="551.76,-33.99 559.03,-26.29 548.54,-27.78 551.76,-33.99"/>
</g>
<!-- &#45;9&#45;&gt;2 -->
<g id="edge50" class="edge">
<title>&#45;9&#45;&gt;2</title>
<path fill="none" stroke="red" stroke-width="1" d="M237.53,-83.87C241.47,-78.58 247.26,-72.1 254.02,-68.53 349.78,-17.95 392.9,-68.6 495.02,-32.53 496.27,-32.09 497.52,-31.58 498.77,-31.03"/>
<polygon fill="red" stroke="red" stroke-width="1" points="500.76,-33.95 508,-26.21 497.52,-27.74 500.76,-33.95"/>
</g>
<!-- &#45;9&#45;&gt;3 -->
<g id="edge20" class="edge">
<title>&#45;9&#45;&gt;3</title>
<path fill="none" stroke="green" stroke-width="0.23" d="M237.13,-84.21C241.04,-78.78 246.96,-72 254.02,-68.53 411.79,9.12 480.61,-86.33 648.02,-32.53 649.28,-32.12 650.55,-31.65 651.8,-31.12"/>
<polygon fill="green" stroke="green" stroke-width="0.23" points="653.76,-34.05 661.06,-26.38 650.56,-27.82 653.76,-34.05"/>
</g>
<!-- &#45;9&#45;&gt;4 -->
<g id="edge69" class="edge">
<title>&#45;9&#45;&gt;4</title>
<path fill="none" stroke="green" stroke-width="0.45" d="M237.14,-84.24C241.06,-78.82 246.98,-72.05 254.02,-68.53 391.09,0.08 451.41,-80.41 597.02,-32.53 598.28,-32.11 599.54,-31.63 600.8,-31.1"/>
<polygon fill="green" stroke="green" stroke-width="0.45" points="602.76,-34.03 610.04,-26.34 599.55,-27.8 602.76,-34.03"/>
</g>
<!-- &#45;10 -->
<g id="node10" class="node">
<title>&#45;10</title>
<polygon fill="lightgray" stroke="black" points="339.02,-102.28 307.02,-102.28 307.02,-84.28 339.02,-84.28 339.02,-102.28"/>
<text text-anchor="middle" x="323.02" y="-91.08" font-family="Times,serif" font-size="9.00">&#45;10</text>
</g>
<!-- &#45;10&#45;&gt;0 -->
<g id="edge36" class="edge">
<title>&#45;10&#45;&gt;0</title>
<path fill="none" stroke="red" stroke-width="0.12" d="M330.28,-84C334.96,-79.03 341.4,-72.85 348.02,-68.53 378.95,-48.31 419.17,-33.26 444.8,-24.87"/>
<polygon fill="red" stroke="red" stroke-width="0.12" points="446.03,-28.15 454.5,-21.78 443.91,-21.48 446.03,-28.15"/>
</g>
<!-- &#45;10&#45;&gt;1 -->
<g id="edge67" class="edge">
<title>&#45;10&#45;&gt;1</title>
<path fill="none" stroke="red" stroke-width="0.3" d="M329.56,-83.94C334.16,-78.68 340.76,-72.21 348.02,-68.53 427.77,-28.04 462.16,-63.65 546.02,-32.53 547.26,-32.07 548.51,-31.55 549.76,-30.99"/>
<polygon fill="red" stroke="red" stroke-width="0.3" points="551.76,-33.89 558.97,-26.13 548.49,-27.7 551.76,-33.89"/>
</g>
<!-- &#45;10&#45;&gt;2 -->
<g id="edge77" class="edge">
<title>&#45;10&#45;&gt;2</title>
<path fill="none" stroke="red" stroke-width="0.15" stroke-dasharray="1,5" d="M329.64,-84.09C334.26,-78.89 340.87,-72.43 348.02,-68.53 407.05,-36.28 432.69,-57.82 495.02,-32.53 496.25,-32.03 497.49,-31.48 498.72,-30.9"/>
<polygon fill="red" stroke="red" stroke-width="0.15" points="500.75,-33.78 507.91,-25.96 497.44,-27.61 500.75,-33.78"/>
</g>
<!-- &#45;10&#45;&gt;3 -->
<g id="edge8" class="edge">
<title>&#45;10&#45;&gt;3</title>
<path fill="none" stroke="green" stroke-width="0.38" d="M329.09,-84.26C333.67,-78.86 340.43,-72.09 348.02,-68.53 469.54,-11.38 520.76,-75.42 648.02,-32.53 649.27,-32.1 650.54,-31.61 651.79,-31.08"/>
<polygon fill="green" stroke="green" stroke-width="0.38" points="653.76,-34 661.03,-26.3 650.54,-27.78 653.76,-34"/>
</g>
<!-- &#45;10&#45;&gt;4 -->
<g id="edge58" class="edge">
<title>&#45;10&#45;&gt;4</title>
<path fill="none" stroke="green" stroke-width="0.1" d="M329.52,-83.86C334.1,-78.56 340.69,-72.08 348.02,-68.53 448.62,-19.72 491.5,-69.52 597.02,-32.53 598.27,-32.09 599.53,-31.59 600.78,-31.04"/>
<polygon fill="green" stroke="green" stroke-width="0.1" points="602.76,-33.95 610.01,-26.23 599.52,-27.75 602.76,-33.95"/>
</g>
<!-- &#45;11 -->
<g id="node11" class="node">
<title>&#45;11</title>
<polygon fill="lightgray" stroke="black" points="389.02,-102.28 357.02,-102.28 357.02,-84.28 389.02,-84.28 389.02,-102.28"/>
<text text-anchor="middle" x="373.02" y="-91.08" font-family="Times,serif" font-size="9.00">&#45;11</text>
</g>
<!-- &#45;11&#45;&gt;0 -->
<g id="edge79" class="edge">
<title>&#45;11&#45;&gt;0</title>
<path fill="none" stroke="green" stroke-width="0.25" stroke-dasharray="1,5" d="M381.08,-84.06C385.85,-79.34 392.1,-73.4 398.02,-68.53 414.2,-55.19 433.62,-41.49 448.21,-31.61"/>
<polygon fill="green" stroke="green" stroke-width="0.25" points="450.24,-34.46 456.6,-25.99 446.34,-28.65 450.24,-34.46"/>
</g>
<!-- &#45;11&#45;&gt;1 -->
<g id="edge48" class="edge">
<title>&#45;11&#45;&gt;1</title>
<path fill="none" stroke="red" stroke-width="0.13" d="M379.64,-84.08C384.26,-78.88 390.87,-72.42 398.02,-68.53 457.45,-36.12 483.27,-57.93 546.02,-32.53 547.25,-32.03 548.49,-31.48 549.72,-30.9"/>
<polygon fill="red" stroke="red" stroke-width="0.13" points="551.75,-33.78 558.91,-25.96 548.44,-27.61 551.75,-33.78"/>
</g>
<!-- &#45;11&#45;&gt;2 -->
<g id="edge17" class="edge">
<title>&#45;11&#45;&gt;2</title>
<path fill="none" stroke="red" stroke-width="0.3" d="M380.21,-83.9C384.88,-78.89 391.31,-72.71 398.02,-68.53 437.04,-44.2 453.48,-52.24 495.02,-32.53 496.19,-31.97 497.38,-31.38 498.57,-30.77"/>
<polygon fill="red" stroke="red" stroke-width="0.3" points="500.46,-33.72 507.5,-25.8 497.06,-27.6 500.46,-33.72"/>
</g>
<!-- &#45;11&#45;&gt;3 -->
<g id="edge86" class="edge">
<title>&#45;11&#45;&gt;3</title>
<path fill="none" stroke="green" stroke-width="0.2" d="M379.52,-83.85C384.09,-78.56 390.69,-72.08 398.02,-68.53 499.03,-19.56 542.07,-69.64 648.02,-32.53 649.27,-32.09 650.53,-31.59 651.78,-31.04"/>
<polygon fill="green" stroke="green" stroke-width="0.2" points="653.76,-33.96 661.01,-26.23 650.52,-27.75 653.76,-33.96"/>
</g>
<!-- &#45;11&#45;&gt;4 -->
<g id="edge59" class="edge">
<title>&#45;11&#45;&gt;4</title>
<path fill="none" stroke="red" stroke-width="0.4" d="M379.56,-83.94C384.16,-78.68 390.76,-72.21 398.02,-68.53 478.18,-27.87 512.74,-63.76 597.02,-32.53 598.26,-32.07 599.51,-31.55 600.76,-30.99"/>
<polygon fill="red" stroke="red" stroke-width="0.4" points="602.76,-33.89 609.97,-26.13 599.49,-27.7 602.76,-33.89"/>
</g>
<!-- &#45;12 -->
<g id="node12" class="node">
<title>&#45;12</title>
<polygon fill="lightgray" stroke="black" points="1003.02,-102.28 971.02,-102.28 971.02,-84.28 1003.02,-84.28 1003.02,-102.28"/>
<text text-anchor="middle" x="987.02" y="-91.08" font-family="Times,serif" font-size="9.00">&#45;12</text>
</g>
<!-- &#45;12&#45;&gt;1 -->
<g id="edge57" class="edge">
<title>&#45;12&#45;&gt;1</title>
<path fill="none" stroke="red" stroke-width="0.41" stroke-dasharray="1,5" d="M980.97,-84.21C976.4,-78.79 969.64,-72.01 962.02,-68.53 814.19,-0.88 752.6,-82.85 598.02,-32.53 596.76,-32.12 595.49,-31.64 594.24,-31.11"/>
<polygon fill="red" stroke="red" stroke-width="0.41" points="595.48,-27.81 584.99,-26.35 592.28,-34.04 595.48,-27.81"/>
</g>
<!-- &#45;12&#45;&gt;3 -->
<g id="edge16" class="edge">
<title>&#45;12&#45;&gt;3</title>
<path fill="none" stroke="green" stroke-width="0.29" d="M980.48,-83.93C975.89,-78.67 969.28,-72.2 962.02,-68.53 873.79,-23.94 753.22,-17.52 700.51,-17"/>
<polygon fill="green" stroke="green" stroke-width="0.29" points="700.33,-13.5 690.32,-16.97 700.31,-20.5 700.33,-13.5"/>
</g>
<!-- &#45;12&#45;&gt;4 -->
<g id="edge7" class="edge">
<title>&#45;12&#45;&gt;4</title>
<path fill="none" stroke="green" stroke-width="0.49" d="M980.95,-84.25C976.38,-78.84 969.61,-72.07 962.02,-68.53 835.16,-9.25 781.82,-76.93 649.02,-32.53 647.76,-32.11 646.5,-31.62 645.25,-31.09"/>
<polygon fill="green" stroke="green" stroke-width="0.49" points="646.49,-27.79 636,-26.31 643.28,-34.01 646.49,-27.79"/>
</g>
<!-- &#45;13 -->
<g id="node13" class="node">
<title>&#45;13</title>
<polygon fill="lightgray" stroke="black" points="439.02,-102.28 407.02,-102.28 407.02,-84.28 439.02,-84.28 439.02,-102.28"/>
<text text-anchor="middle" x="423.02" y="-91.08" font-family="Times,serif" font-size="9.00">&#45;13</text>
</g>
<!-- &#45;13&#45;&gt;0 -->
<g id="edge75" class="edge">
<title>&#45;13&#45;&gt;0</title>
<path fill="none" stroke="red" stroke-width="0.62" d="M428.05,-84.25C434.72,-73.61 446.74,-54.41 456.22,-39.29"/>
<polygon fill="red" stroke="red" stroke-width="0.62" points="459.37,-40.84 461.72,-30.51 453.44,-37.13 459.37,-40.84"/>
</g>
<!-- &#45;13&#45;&gt;1 -->
<g id="edge44" class="edge">
<title>&#45;13&#45;&gt;1</title>
<path fill="none" stroke="green" stroke-width="0.22" d="M430.21,-83.89C434.87,-78.88 441.31,-72.7 448.02,-68.53 487.43,-44.04 504.07,-52.35 546.02,-32.53 547.19,-31.97 548.38,-31.38 549.57,-30.77"/>
<polygon fill="green" stroke="green" stroke-width="0.22" points="551.46,-33.73 558.5,-25.81 548.06,-27.6 551.46,-33.73"/>
</g>
<!-- &#45;13&#45;&gt;2 -->
<g id="edge33" class="edge">
<title>&#45;13&#45;&gt;2</title>
<path fill="none" stroke="green" stroke-width="0.25" d="M431.07,-84.04C435.84,-79.32 442.09,-73.38 448.02,-68.53 464.49,-55.04 484.32,-41.26 499.16,-31.38"/>
<polygon fill="green" stroke="green" stroke-width="0.25" points="501.24,-34.2 507.67,-25.78 497.39,-28.35 501.24,-34.2"/>
</g>
<!-- &#45;13&#45;&gt;3 -->
<g id="edge5" class="edge">
<title>&#45;13&#45;&gt;3</title>
<path fill="none" stroke="green" stroke-width="0.19" stroke-dasharray="1,5" d="M429.56,-83.94C434.15,-78.68 440.76,-72.21 448.02,-68.53 528.59,-27.71 563.32,-63.88 648.02,-32.53 649.26,-32.07 650.51,-31.55 651.76,-30.99"/>
<polygon fill="green" stroke="green" stroke-width="0.19" points="653.76,-33.89 660.97,-26.13 650.49,-27.7 653.76,-33.89"/>
</g>
<!-- &#45;13&#45;&gt;4 -->
<g id="edge91" class="edge">
<title>&#45;13&#45;&gt;4</title>
<path fill="none" stroke="green" stroke-width="1.3" d="M429.63,-84.08C434.26,-78.88 440.87,-72.42 448.02,-68.53 507.86,-35.96 533.85,-58.05 597.02,-32.53 598.25,-32.03 599.49,-31.48 600.72,-30.9"/>
<polygon fill="green" stroke="green" stroke-width="1.3" points="602.75,-33.78 609.91,-25.97 599.44,-27.61 602.75,-33.78"/>
</g>
<!-- &#45;14 -->
<g id="node14" class="node">
<title>&#45;14</title>
<polygon fill="lightgray" stroke="black" points="157.02,-102.28 125.02,-102.28 125.02,-84.28 157.02,-84.28 157.02,-102.28"/>
<text text-anchor="middle" x="141.02" y="-91.08" font-family="Times,serif" font-size="9.00">&#45;14</text>
</g>
<!-- &#45;14&#45;&gt;0 -->
<g id="edge15" class="edge">
<title>&#45;14&#45;&gt;0</title>
<path fill="none" stroke="red" stroke-width="0.73" d="M147.55,-83.91C152.13,-78.64 158.74,-72.17 166.02,-68.53 259.86,-21.64 388.2,-16.5 443.21,-16.66"/>
<polygon fill="red" stroke="red" stroke-width="0.73" points="443.47,-20.17 453.5,-16.76 443.53,-13.17 443.47,-20.17"/>
</g>
<!-- &#45;14&#45;&gt;1 -->
<g id="edge46" class="edge">
<title>&#45;14&#45;&gt;1</title>
<path fill="none" stroke="green" stroke-width="0.41" d="M147.07,-84.2C151.63,-78.78 158.39,-72 166.02,-68.53 320.42,1.75 384.6,-84.71 546.02,-32.53 547.28,-32.12 548.54,-31.64 549.8,-31.12"/>
<polygon fill="green" stroke="green" stroke-width="0.41" points="551.76,-34.05 559.05,-26.37 548.56,-27.82 551.76,-34.05"/>
</g>
<!-- &#45;14&#45;&gt;2 -->
<g id="edge55" class="edge">
<title>&#45;14&#45;&gt;2</title>
<path fill="none" stroke="green" stroke-width="0.46" d="M147.08,-84.24C151.65,-78.83 158.42,-72.05 166.02,-68.53 299.45,-6.62 355.39,-78.79 495.02,-32.53 496.28,-32.11 497.54,-31.63 498.79,-31.09"/>
<polygon fill="green" stroke="green" stroke-width="0.46" points="500.76,-34.02 508.04,-26.33 497.55,-27.8 500.76,-34.02"/>
</g>
<!-- &#45;15 -->
<g id="node15" class="node">
<title>&#45;15</title>
<polygon fill="lightgray" stroke="black" points="489.02,-102.28 457.02,-102.28 457.02,-84.28 489.02,-84.28 489.02,-102.28"/>
<text text-anchor="middle" x="473.02" y="-91.08" font-family="Times,serif" font-size="9.00">&#45;15</text>
</g>
<!-- &#45;15&#45;&gt;0 -->
<g id="edge64" class="edge">
<title>&#45;15&#45;&gt;0</title>
<path fill="none" stroke="green" stroke-width="0.27" d="M472.7,-84.25C472.31,-74.49 471.63,-57.54 471.05,-43.13"/>
<polygon fill="green" stroke="green" stroke-width="0.27" points="474.54,-42.62 470.64,-32.77 467.54,-42.9 474.54,-42.62"/>
</g>
<!-- &#45;15&#45;&gt;1 -->
<g id="edge32" class="edge">
<title>&#45;15&#45;&gt;1</title>
<path fill="none" stroke="red" stroke-width="0.38" d="M481.06,-84.03C485.82,-79.3 492.07,-73.36 498.02,-68.53 514.69,-54.97 534.79,-41.19 549.84,-31.34"/>
<polygon fill="red" stroke="red" stroke-width="0.38" points="551.98,-34.12 558.47,-25.75 548.18,-28.24 551.98,-34.12"/>
</g>
<!-- &#45;15&#45;&gt;2 -->
<g id="edge3" class="edge">
<title>&#45;15&#45;&gt;2</title>
<path fill="none" stroke="green" stroke-width="1.22" d="M478.16,-84.25C484.96,-73.61 497.25,-54.41 506.92,-39.29"/>
<polygon fill="green" stroke="green" stroke-width="1.22" points="510.1,-40.82 512.54,-30.51 504.2,-37.05 510.1,-40.82"/>
</g>
<!-- &#45;15&#45;&gt;3 -->
<g id="edge73" class="edge">
<title>&#45;15&#45;&gt;3</title>
<path fill="none" stroke="green" stroke-width="0.68" d="M479.63,-84.07C484.26,-78.87 490.86,-72.41 498.02,-68.53 558.26,-35.8 584.43,-58.16 648.02,-32.53 649.25,-32.03 650.49,-31.48 651.72,-30.9"/>
<polygon fill="green" stroke="green" stroke-width="0.68" points="653.75,-33.78 660.91,-25.97 650.44,-27.62 653.75,-33.78"/>
</g>
<!-- &#45;15&#45;&gt;4 -->
<g id="edge83" class="edge">
<title>&#45;15&#45;&gt;4</title>
<path fill="none" stroke="green" stroke-width="0.14" d="M480.2,-83.89C484.86,-78.87 491.3,-72.69 498.02,-68.53 537.83,-43.89 554.66,-52.46 597.02,-32.53 598.19,-31.98 599.38,-31.39 600.57,-30.78"/>
<polygon fill="green" stroke="green" stroke-width="0.14" points="602.46,-33.73 609.51,-25.82 599.06,-27.61 602.46,-33.73"/>
</g>
<!-- &#45;16 -->
<g id="node16" class="node">
<title>&#45;16</title>
<polygon fill="lightgray" stroke="black" points="539.02,-102.28 507.02,-102.28 507.02,-84.28 539.02,-84.28 539.02,-102.28"/>
<text text-anchor="middle" x="523.02" y="-91.08" font-family="Times,serif" font-size="9.00">&#45;16</text>
</g>
<!-- &#45;16&#45;&gt;0 -->
<g id="edge10" class="edge">
<title>&#45;16&#45;&gt;0</title>
<path fill="none" stroke="red" stroke-width="0.13" d="M517.35,-84.25C509.67,-73.38 495.68,-53.59 484.9,-38.33"/>
<polygon fill="red" stroke="red" stroke-width="0.13" points="487.62,-36.11 478.99,-29.97 481.91,-40.15 487.62,-36.11"/>
</g>
<!-- &#45;16&#45;&gt;1 -->
<g id="edge40" class="edge">
<title>&#45;16&#45;&gt;1</title>
<path fill="none" stroke="red" stroke-width="0.53" d="M528.26,-84.25C535.25,-73.54 547.9,-54.19 557.8,-39.02"/>
<polygon fill="red" stroke="red" stroke-width="0.53" points="561,-40.52 563.54,-30.24 555.14,-36.7 561,-40.52"/>
</g>
<!-- &#45;16&#45;&gt;2 -->
<g id="edge72" class="edge">
<title>&#45;16&#45;&gt;2</title>
<path fill="none" stroke="red" stroke-width="0.13" d="M522.8,-84.25C522.54,-74.49 522.09,-57.54 521.71,-43.13"/>
<polygon fill="red" stroke="red" stroke-width="0.13" points="525.2,-42.68 521.43,-32.77 518.2,-42.86 525.2,-42.68"/>
</g>
<!-- &#45;16&#45;&gt;3 -->
<g id="edge2" class="edge">
<title>&#45;16&#45;&gt;3</title>
<path fill="none" stroke="green" stroke-width="0.16" stroke-dasharray="1,5" d="M530.2,-83.88C534.86,-78.86 541.29,-72.68 548.02,-68.53 588.22,-43.73 605.24,-52.57 648.02,-32.53 649.19,-31.98 650.38,-31.39 651.57,-30.78"/>
<polygon fill="green" stroke="green" stroke-width="0.16" points="653.46,-33.74 660.51,-25.83 650.07,-27.61 653.46,-33.74"/>
</g>
<!-- &#45;16&#45;&gt;4 -->
<g id="edge31" class="edge">
<title>&#45;16&#45;&gt;4</title>
<path fill="none" stroke="green" stroke-width="0.65" d="M531.05,-84.01C535.81,-79.28 542.06,-73.34 548.02,-68.53 564.98,-54.82 585.51,-40.96 600.79,-31.11"/>
<polygon fill="green" stroke="green" stroke-width="0.65" points="603,-33.86 609.55,-25.54 599.24,-27.95 603,-33.86"/>
</g>
<!-- &#45;17 -->
<g id="node17" class="node">
<title>&#45;17</title>
<polygon fill="lightgray" stroke="black" points="589.02,-102.28 557.02,-102.28 557.02,-84.28 589.02,-84.28 589.02,-102.28"/>
<text text-anchor="middle" x="573.02" y="-91.08" font-family="Times,serif" font-size="9.00">&#45;17</text>
</g>
<!-- &#45;17&#45;&gt;0 -->
<g id="edge26" class="edge">
<title>&#45;17&#45;&gt;0</title>
<path fill="none" stroke="red" stroke-width="0.33" d="M565.02,-83.97C560.27,-79.23 554.02,-73.29 548.02,-68.53 530.19,-54.38 508.45,-40.33 492.45,-30.53"/>
<polygon fill="red" stroke="red" stroke-width="0.33" points="494.14,-27.46 483.77,-25.27 490.52,-33.44 494.14,-27.46"/>
</g>
<!-- &#45;17&#45;&gt;1 -->
<g id="edge78" class="edge">
<title>&#45;17&#45;&gt;1</title>
<path fill="none" stroke="red" stroke-width="0.3" d="M572.91,-84.25C572.78,-74.49 572.56,-57.54 572.36,-43.13"/>
<polygon fill="red" stroke="red" stroke-width="0.3" points="575.86,-42.72 572.23,-32.77 568.86,-42.82 575.86,-42.72"/>
</g>
<!-- &#45;17&#45;&gt;2 -->
<g id="edge85" class="edge">
<title>&#45;17&#45;&gt;2</title>
<path fill="none" stroke="green" stroke-width="0.76" d="M567.45,-84.25C559.92,-73.38 546.2,-53.59 535.62,-38.33"/>
<polygon fill="green" stroke="green" stroke-width="0.76" points="538.4,-36.19 529.82,-29.97 532.65,-40.18 538.4,-36.19"/>
</g>
<!-- &#45;17&#45;&gt;3 -->
<g id="edge56" class="edge">
<title>&#45;17&#45;&gt;3</title>
<path fill="none" stroke="red" stroke-width="0.38" d="M581.04,-84C585.79,-79.26 592.04,-73.32 598.02,-68.53 615.18,-54.75 635.98,-40.89 651.48,-31.07"/>
<polygon fill="red" stroke="red" stroke-width="0.38" points="653.74,-33.78 660.36,-25.51 650.03,-27.85 653.74,-33.78"/>
</g>
<!-- &#45;17&#45;&gt;4 -->
<g id="edge28" class="edge">
<title>&#45;17&#45;&gt;4</title>
<path fill="none" stroke="green" stroke-width="0.1" d="M578.37,-84.25C585.57,-73.44 598.65,-53.82 608.8,-38.59"/>
<polygon fill="green" stroke="green" stroke-width="0.1" points="611.74,-40.5 614.37,-30.24 605.91,-36.62 611.74,-40.5"/>
</g>
<!-- &#45;18 -->
<g id="node18" class="node">
<title>&#45;18</title>
<polygon fill="lightgray" stroke="black" points="639.02,-102.28 607.02,-102.28 607.02,-84.28 639.02,-84.28 639.02,-102.28"/>
<text text-anchor="middle" x="623.02" y="-91.08" font-family="Times,serif" font-size="9.00">&#45;18</text>
</g>
<!-- &#45;18&#45;&gt;0 -->
<g id="edge74" class="edge">
<title>&#45;18&#45;&gt;0</title>
<path fill="none" stroke="red" stroke-width="0.26" d="M615.85,-83.86C611.19,-78.84 604.76,-72.65 598.02,-68.53 557.02,-43.42 539.61,-52.79 496.02,-32.53 494.84,-31.98 493.65,-31.4 492.46,-30.79"/>
<polygon fill="red" stroke="red" stroke-width="0.26" points="493.96,-27.62 483.52,-25.85 490.58,-33.75 493.96,-27.62"/>
</g>
<!-- &#45;18&#45;&gt;1 -->
<g id="edge4" class="edge">
<title>&#45;18&#45;&gt;1</title>
<path fill="none" stroke="green" stroke-width="0.41" d="M617.56,-84.25C610.21,-73.44 596.87,-53.82 586.52,-38.59"/>
<polygon fill="green" stroke="green" stroke-width="0.41" points="589.36,-36.54 580.84,-30.24 583.57,-40.48 589.36,-36.54"/>
</g>
<!-- &#45;18&#45;&gt;2 -->
<g id="edge11" class="edge">
<title>&#45;18&#45;&gt;2</title>
<path fill="none" stroke="red" stroke-width="0.16" d="M615.01,-83.99C610.26,-79.24 604.01,-73.31 598.02,-68.53 580.39,-54.46 558.93,-40.4 543.15,-30.57"/>
<polygon fill="red" stroke="red" stroke-width="0.16" points="544.94,-27.56 534.58,-25.31 541.27,-33.52 544.94,-27.56"/>
</g>
<!-- &#45;18&#45;&gt;3 -->
<g id="edge43" class="edge">
<title>&#45;18&#45;&gt;3</title>
<path fill="none" stroke="red" stroke-width="0.32" d="M628.48,-84.25C635.82,-73.44 649.16,-53.82 659.52,-38.59"/>
<polygon fill="red" stroke="red" stroke-width="0.32" points="662.47,-40.48 665.2,-30.24 656.68,-36.54 662.47,-40.48"/>
</g>
<!-- &#45;18&#45;&gt;4 -->
<g id="edge89" class="edge">
<title>&#45;18&#45;&gt;4</title>
<path fill="none" stroke="green" stroke-width="0.64" d="M623.02,-84.25C623.02,-74.49 623.02,-57.54 623.02,-43.13"/>
<polygon fill="green" stroke="green" stroke-width="0.64" points="626.52,-42.77 623.02,-32.77 619.52,-42.77 626.52,-42.77"/>
</g>
<!-- &#45;19 -->
<g id="node19" class="node">
<title>&#45;19</title>
<polygon fill="lightgray" stroke="black" points="909.02,-102.28 877.02,-102.28 877.02,-84.28 909.02,-84.28 909.02,-102.28"/>
<text text-anchor="middle" x="893.02" y="-91.08" font-family="Times,serif" font-size="9.00">&#45;19</text>
</g>
<!-- &#45;19&#45;&gt;0 -->
<g id="edge14" class="edge">
<title>&#45;19&#45;&gt;0</title>
<path fill="none" stroke="red" stroke-width="0.44" d="M886.97,-84.21C882.41,-78.78 875.64,-72.01 868.02,-68.53 716.9,0.43 654.02,-83.78 496.02,-32.53 494.76,-32.12 493.49,-31.64 492.24,-31.11"/>
<polygon fill="red" stroke="red" stroke-width="0.44" points="493.48,-27.82 482.99,-26.36 490.28,-34.04 493.48,-27.82"/>
</g>
<!-- &#45;19&#45;&gt;1 -->
<g id="edge84" class="edge">
<title>&#45;19&#45;&gt;1</title>
<path fill="none" stroke="green" stroke-width="0.25" d="M886.53,-83.83C881.96,-78.52 875.36,-72.04 868.02,-68.53 758.81,-16.29 712.48,-71.95 598.02,-32.53 596.77,-32.1 595.51,-31.6 594.25,-31.06"/>
<polygon fill="green" stroke="green" stroke-width="0.25" points="595.51,-27.76 585.02,-26.26 592.28,-33.98 595.51,-27.76"/>
</g>
<!-- &#45;19&#45;&gt;3 -->
<g id="edge25" class="edge">
<title>&#45;19&#45;&gt;3</title>
<path fill="none" stroke="red" stroke-width="0.15" d="M886.38,-84.13C881.74,-78.95 875.13,-72.49 868.02,-68.53 812.96,-37.8 738.79,-24.9 700.05,-19.97"/>
<polygon fill="red" stroke="red" stroke-width="0.15" points="700.45,-16.5 690.11,-18.79 699.62,-23.45 700.45,-16.5"/>
</g>
<!-- &#45;19&#45;&gt;4 -->
<g id="edge90" class="edge">
<title>&#45;19&#45;&gt;4</title>
<path fill="none" stroke="green" stroke-width="0.43" d="M886.49,-83.9C881.91,-78.63 875.31,-72.15 868.02,-68.53 779.69,-24.62 741.78,-66.06 649.02,-32.53 647.77,-32.08 646.52,-31.57 645.27,-31.01"/>
<polygon fill="green" stroke="green" stroke-width="0.43" points="646.53,-27.72 636.05,-26.17 643.28,-33.92 646.53,-27.72"/>
</g>
<!-- &#45;20 -->
<g id="node20" class="node">
<title>&#45;20</title>
<polygon fill="lightgray" stroke="black" points="113.02,-172.02 81.02,-172.02 81.02,-154.02 113.02,-154.02 113.02,-172.02"/>
<text text-anchor="middle" x="97.02" y="-160.82" font-family="Times,serif" font-size="9.00">&#45;20</text>
</g>
<!-- &#45;20&#45;&gt;0 -->
<g id="edge63" class="edge">
<title>&#45;20&#45;&gt;0</title>
<path fill="none" stroke="red" stroke-width="0.61" stroke-dasharray="1,5" d="M80.71,-159.1C60.09,-154.42 25.44,-143.11 10.02,-118.02 -1.5,-99.28 -4.65,-84.92 10.02,-68.53 39.14,-35.98 350.52,-21.74 443.77,-18.19"/>
<polygon fill="red" stroke="red" stroke-width="0.61" points="443.93,-21.69 453.79,-17.82 443.67,-14.69 443.93,-21.69"/>
</g>
<!-- &#45;20&#45;&gt;2 -->
<g id="edge24" class="edge">
<title>&#45;20&#45;&gt;2</title>
<path fill="none" stroke="green" stroke-width="0.43" d="M95.84,-154.01C93.67,-135.73 91.26,-90.79 116.02,-68.53 178.92,-11.95 414.52,-58.56 495.02,-32.53 496.28,-32.12 497.54,-31.64 498.8,-31.12"/>
<polygon fill="green" stroke="green" stroke-width="0.43" points="500.76,-34.05 508.05,-26.37 497.56,-27.82 500.76,-34.05"/>
</g>
<!-- &#45;20&#45;&gt;3 -->
<g id="edge53" class="edge">
<title>&#45;20&#45;&gt;3</title>
<path fill="none" stroke="green" stroke-width="0.57" d="M113.39,-161.89C235.33,-160.8 998.03,-152.6 1031.02,-118.02 1046.2,-102.11 1045.43,-85.15 1031.02,-68.53 988.02,-18.92 775.95,-16.18 700.62,-16.82"/>
<polygon fill="green" stroke="green" stroke-width="0.57" points="700.5,-13.32 690.54,-16.93 700.57,-20.32 700.5,-13.32"/>
</g>
<!-- &#45;20&#45;&gt;4 -->
<g id="edge41" class="edge">
<title>&#45;20&#45;&gt;4</title>
<path fill="none" stroke="green" stroke-width="0.29" d="M113.06,-161.88C232.52,-160.69 979.72,-151.91 1012.02,-118.02 1027.2,-102.1 1026.79,-84.83 1012.02,-68.53 957.6,-8.45 726.1,-57.63 649.02,-32.53 647.76,-32.12 646.49,-31.64 645.24,-31.11"/>
<polygon fill="green" stroke="green" stroke-width="0.29" points="646.48,-27.81 635.99,-26.35 643.28,-34.04 646.48,-27.81"/>
</g>
<!-- 500 -->
<g id="node26" class="node">
<title>500</title>
<ellipse fill="white" stroke="black" cx="44.02" cy="-93.28" rx="25" ry="25"/>
<text text-anchor="middle" x="44.02" y="-91.08" font-family="Times,serif" font-size="9.00">500</text>
</g>
<!-- &#45;20&#45;&gt;500 -->
<g id="edge54" class="edge">
<title>&#45;20&#45;&gt;500</title>
<path fill="none" stroke="green" stroke-width="0.26" d="M90.73,-153.99C84.4,-145.9 74.29,-132.97 65.09,-121.21"/>
<polygon fill="green" stroke="green" stroke-width="0.26" points="67.84,-119.05 58.93,-113.33 62.33,-123.36 67.84,-119.05"/>
</g>
<!-- 500&#45;&gt;0 -->
<g id="edge27" class="edge">
<title>500&#45;&gt;0</title>
<path fill="none" stroke="red" stroke-width="0.67" d="M63.86,-78.02C69.78,-74.38 76.44,-70.85 83.02,-68.53 212.61,-22.78 379.7,-17.34 443.59,-17.06"/>
<polygon fill="red" stroke="red" stroke-width="0.67" points="443.61,-20.56 453.61,-17.05 443.61,-13.56 443.61,-20.56"/>
</g>
</g>
</svg>
