<?xml version="1.0" encoding="UTF-8" standalone="no"?>
<!DOCTYPE svg PUBLIC "-//W3C//DTD SVG 1.1//EN"
 "http://www.w3.org/Graphics/SVG/1.1/DTD/svg11.dtd">
<!-- Generated by graphviz version 2.49.0 (20210828.1703)
 -->
<!-- Pages: 1 -->
<svg width="888pt" height="92pt"
 viewBox="0.00 0.00 887.50 91.70" xmlns="http://www.w3.org/2000/svg" xmlns:xlink="http://www.w3.org/1999/xlink">
<g id="graph0" class="graph" transform="scale(1 1) rotate(0) translate(4 87.7)">
<polygon fill="white" stroke="transparent" points="-4,4 -4,-87.7 883.5,-87.7 883.5,4 -4,4"/>
<!-- &#45;1 -->
<g id="node1" class="node">
<title>&#45;1</title>
<polygon fill="lightgray" stroke="black" points="654,-83.7 630,-83.7 630,-65.7 654,-65.7 654,-83.7"/>
<text text-anchor="middle" x="642" y="-72.5" font-family="Times New Roman,serif" font-size="9.00">&#45;1</text>
</g>
<!-- 0 -->
<g id="node21" class="node">
<title>0</title>
<ellipse fill="lightblue" stroke="black" cx="359" cy="-14.85" rx="14.7" ry="14.7"/>
<text text-anchor="middle" x="359" y="-12.65" font-family="Times New Roman,serif" font-size="9.00">0</text>
</g>
<!-- &#45;1&#45;&gt;0 -->
<g id="edge1" class="edge">
<title>&#45;1&#45;&gt;0</title>
<path fill="none" stroke="red" stroke-width="0.35" d="M629.71,-68.51C626.88,-67.46 623.87,-66.45 621,-65.7 517.53,-38.5 483.97,-65.05 383,-29.7 382.13,-29.39 381.25,-29.05 380.37,-28.69"/>
<polygon fill="red" stroke="red" stroke-width="0.35" points="381.78,-25.48 371.28,-24.11 378.63,-31.73 381.78,-25.48"/>
</g>
<!-- 1 -->
<g id="node22" class="node">
<title>1</title>
<ellipse fill="lightblue" stroke="black" cx="407" cy="-14.85" rx="14.7" ry="14.7"/>
<text text-anchor="middle" x="407" y="-12.65" font-family="Times New Roman,serif" font-size="9.00">1</text>
</g>
<!-- &#45;1&#45;&gt;1 -->
<g id="edge2" class="edge">
<title>&#45;1&#45;&gt;1</title>
<path fill="none" stroke="red" stroke-width="0.39" d="M629.69,-68.59C626.86,-67.54 623.85,-66.51 621,-65.7 538.3,-42.31 511.58,-59.6 431,-29.7 430.13,-29.38 429.26,-29.02 428.39,-28.65"/>
<polygon fill="red" stroke="red" stroke-width="0.39" points="429.81,-25.45 419.31,-24.01 426.62,-31.68 429.81,-25.45"/>
</g>
<!-- 2 -->
<g id="node23" class="node">
<title>2</title>
<ellipse fill="lightblue" stroke="black" cx="551" cy="-14.85" rx="14.7" ry="14.7"/>
<text text-anchor="middle" x="551" y="-12.65" font-family="Times New Roman,serif" font-size="9.00">2</text>
</g>
<!-- &#45;1&#45;&gt;2 -->
<g id="edge3" class="edge">
<title>&#45;1&#45;&gt;2</title>
<path fill="none" stroke="red" stroke-width="0.32" d="M629.73,-65.9C614.85,-56.44 589.57,-40.37 571.67,-28.99"/>
<polygon fill="red" stroke="red" stroke-width="0.32" points="573.4,-25.94 563.08,-23.53 569.64,-31.85 573.4,-25.94"/>
</g>
<!-- 3 -->
<g id="node24" class="node">
<title>3</title>
<ellipse fill="lightblue" stroke="black" cx="503" cy="-14.85" rx="14.7" ry="14.7"/>
<text text-anchor="middle" x="503" y="-12.65" font-family="Times New Roman,serif" font-size="9.00">3</text>
</g>
<!-- &#45;1&#45;&gt;3 -->
<g id="edge4" class="edge">
<title>&#45;1&#45;&gt;3</title>
<path fill="none" stroke="red" stroke-width="0.25" d="M629.85,-69.06C600.53,-57.88 528.23,-30.28 527,-29.7 526.16,-29.3 525.32,-28.88 524.47,-28.45"/>
<polygon fill="red" stroke="red" stroke-width="0.25" points="525.96,-25.28 515.5,-23.56 522.61,-31.42 525.96,-25.28"/>
</g>
<!-- 4 -->
<g id="node25" class="node">
<title>4</title>
<ellipse fill="lightblue" stroke="black" cx="455" cy="-14.85" rx="14.7" ry="14.7"/>
<text text-anchor="middle" x="455" y="-12.65" font-family="Times New Roman,serif" font-size="9.00">4</text>
</g>
<!-- &#45;1&#45;&gt;4 -->
<g id="edge5" class="edge">
<title>&#45;1&#45;&gt;4</title>
<path fill="none" stroke="green" stroke-width="0.24" d="M629.65,-68.72C626.83,-67.66 623.83,-66.59 621,-65.7 558.92,-46.08 539.32,-54.2 479,-29.7 478.14,-29.35 477.28,-28.98 476.41,-28.58"/>
<polygon fill="green" stroke="green" stroke-width="0.24" points="477.86,-25.39 467.37,-23.86 474.61,-31.59 477.86,-25.39"/>
</g>
<!-- &#45;2 -->
<g id="node2" class="node">
<title>&#45;2</title>
<polygon fill="lightgray" stroke="black" points="66,-83.7 42,-83.7 42,-65.7 66,-65.7 66,-83.7"/>
<text text-anchor="middle" x="54" y="-72.5" font-family="Times New Roman,serif" font-size="9.00">&#45;2</text>
</g>
<!-- &#45;2&#45;&gt;0 -->
<g id="edge6" class="edge">
<title>&#45;2&#45;&gt;0</title>
<path fill="none" stroke="red" stroke-width="0.3" d="M66.31,-68.56C69.13,-67.51 72.14,-66.49 75,-65.7 169,-39.8 284.36,-24.45 334.16,-18.6"/>
<polygon fill="red" stroke="red" stroke-width="0.3" points="334.77,-22.05 344.3,-17.43 333.97,-15.09 334.77,-22.05"/>
</g>
<!-- &#45;2&#45;&gt;1 -->
<g id="edge7" class="edge">
<title>&#45;2&#45;&gt;1</title>
<path fill="none" stroke="red" stroke-width="0.32" d="M66.27,-68.44C69.1,-67.4 72.12,-66.4 75,-65.7 208.87,-32.92 252.17,-73.03 383,-29.7 383.88,-29.41 384.76,-29.08 385.64,-28.73"/>
<polygon fill="red" stroke="red" stroke-width="0.32" points="387.36,-31.78 394.75,-24.19 384.24,-25.52 387.36,-31.78"/>
</g>
<!-- &#45;2&#45;&gt;3 -->
<g id="edge8" class="edge">
<title>&#45;2&#45;&gt;3</title>
<path fill="none" stroke="green" stroke-width="0.25" d="M66.26,-68.38C69.09,-67.34 72.11,-66.36 75,-65.7 250.67,-25.23 307.11,-84.02 479,-29.7 480.06,-29.37 481.11,-28.98 482.17,-28.55"/>
<polygon fill="green" stroke="green" stroke-width="0.25" points="483.91,-31.6 491.27,-23.98 480.76,-25.34 483.91,-31.6"/>
</g>
<!-- &#45;2&#45;&gt;4 -->
<g id="edge9" class="edge">
<title>&#45;2&#45;&gt;4</title>
<path fill="none" stroke="green" stroke-width="0.32" stroke-dasharray="1,5" d="M66.27,-68.41C69.09,-67.36 72.11,-66.38 75,-65.7 229.75,-29.07 279.65,-78.53 431,-29.7 432.05,-29.36 433.11,-28.97 434.16,-28.54"/>
<polygon fill="green" stroke="green" stroke-width="0.32" points="435.91,-31.58 443.26,-23.95 432.75,-25.33 435.91,-31.58"/>
</g>
<!-- &#45;3 -->
<g id="node3" class="node">
<title>&#45;3</title>
<polygon fill="lightgray" stroke="black" points="24,-83.7 0,-83.7 0,-65.7 24,-65.7 24,-83.7"/>
<text text-anchor="middle" x="12" y="-72.5" font-family="Times New Roman,serif" font-size="9.00">&#45;3</text>
</g>
<!-- &#45;3&#45;&gt;0 -->
<g id="edge10" class="edge">
<title>&#45;3&#45;&gt;0</title>
<path fill="none" stroke="red" stroke-width="0.14" d="M24.29,-68.52C27.12,-67.47 30.13,-66.45 33,-65.7 143.06,-36.67 278.78,-22.67 333.93,-17.86"/>
<polygon fill="red" stroke="red" stroke-width="0.14" points="334.48,-21.32 344.15,-16.99 333.89,-14.35 334.48,-21.32"/>
</g>
<!-- &#45;3&#45;&gt;1 -->
<g id="edge11" class="edge">
<title>&#45;3&#45;&gt;1</title>
<path fill="none" stroke="red" stroke-width="0.34" d="M24.27,-68.41C27.09,-67.37 30.12,-66.38 33,-65.7 185.14,-29.56 234.22,-77.84 383,-29.7 384.05,-29.36 385.11,-28.97 386.16,-28.54"/>
<polygon fill="red" stroke="red" stroke-width="0.34" points="387.91,-31.58 395.26,-23.94 384.75,-25.33 387.91,-31.58"/>
</g>
<!-- &#45;3&#45;&gt;4 -->
<g id="edge12" class="edge">
<title>&#45;3&#45;&gt;4</title>
<path fill="none" stroke="green" stroke-width="0.17" d="M24.26,-68.39C27.09,-67.34 30.11,-66.37 33,-65.7 206.05,-25.71 261.68,-83.34 431,-29.7 432.05,-29.36 433.11,-28.98 434.17,-28.55"/>
<polygon fill="green" stroke="green" stroke-width="0.17" points="435.91,-31.6 443.27,-23.97 432.76,-25.34 435.91,-31.6"/>
</g>
<!-- &#45;4 -->
<g id="node4" class="node">
<title>&#45;4</title>
<polygon fill="lightgray" stroke="black" points="696,-83.7 672,-83.7 672,-65.7 696,-65.7 696,-83.7"/>
<text text-anchor="middle" x="684" y="-72.5" font-family="Times New Roman,serif" font-size="9.00">&#45;4</text>
</g>
<!-- &#45;4&#45;&gt;0 -->
<g id="edge13" class="edge">
<title>&#45;4&#45;&gt;0</title>
<path fill="none" stroke="red" stroke-width="0.55" d="M671.72,-68.47C668.9,-67.42 665.88,-66.42 663,-65.7 541.31,-35.15 501.88,-69.84 383,-29.7 382.12,-29.4 381.24,-29.07 380.36,-28.72"/>
<polygon fill="red" stroke="red" stroke-width="0.55" points="381.77,-25.51 371.26,-24.16 378.64,-31.77 381.77,-25.51"/>
</g>
<!-- &#45;4&#45;&gt;1 -->
<g id="edge14" class="edge">
<title>&#45;4&#45;&gt;1</title>
<path fill="none" stroke="green" stroke-width="0.11" d="M671.7,-68.52C668.88,-67.47 665.87,-66.46 663,-65.7 562.13,-38.98 529.42,-64.36 431,-29.7 430.13,-29.39 429.25,-29.05 428.37,-28.69"/>
<polygon fill="green" stroke="green" stroke-width="0.11" points="429.79,-25.48 419.28,-24.1 426.63,-31.73 429.79,-25.48"/>
</g>
<!-- &#45;4&#45;&gt;2 -->
<g id="edge15" class="edge">
<title>&#45;4&#45;&gt;2</title>
<path fill="none" stroke="red" stroke-width="0.13" stroke-dasharray="1,5" d="M671.73,-68.36C649.5,-58.69 602.28,-38.16 573.93,-25.82"/>
<polygon fill="red" stroke="red" stroke-width="0.13" points="574.99,-22.47 564.42,-21.69 572.2,-28.89 574.99,-22.47"/>
</g>
<!-- &#45;4&#45;&gt;3 -->
<g id="edge16" class="edge">
<title>&#45;4&#45;&gt;3</title>
<path fill="none" stroke="green" stroke-width="0.3" d="M671.64,-68.74C668.82,-67.68 665.82,-66.61 663,-65.7 603.48,-46.54 584.81,-53.53 527,-29.7 526.14,-29.35 525.28,-28.97 524.42,-28.57"/>
<polygon fill="green" stroke="green" stroke-width="0.3" points="525.87,-25.38 515.39,-23.83 522.61,-31.58 525.87,-25.38"/>
</g>
<!-- &#45;4&#45;&gt;4 -->
<g id="edge17" class="edge">
<title>&#45;4&#45;&gt;4</title>
<path fill="none" stroke="green" stroke-width="0.69" d="M671.68,-68.6C668.86,-67.55 665.85,-66.51 663,-65.7 582.88,-42.78 557.04,-58.92 479,-29.7 478.13,-29.37 477.26,-29.02 476.39,-28.64"/>
<polygon fill="green" stroke="green" stroke-width="0.69" points="477.82,-25.44 467.32,-24 474.62,-31.67 477.82,-25.44"/>
</g>
<!-- &#45;5 -->
<g id="node5" class="node">
<title>&#45;5</title>
<polygon fill="lightgray" stroke="black" points="738,-83.7 714,-83.7 714,-65.7 738,-65.7 738,-83.7"/>
<text text-anchor="middle" x="726" y="-72.5" font-family="Times New Roman,serif" font-size="9.00">&#45;5</text>
</g>
<!-- &#45;5&#45;&gt;0 -->
<g id="edge18" class="edge">
<title>&#45;5&#45;&gt;0</title>
<path fill="none" stroke="red" stroke-width="0.43" d="M713.73,-68.43C710.9,-67.39 707.88,-66.4 705,-65.7 565.04,-31.8 519.81,-74.64 383,-29.7 382.12,-29.41 381.24,-29.09 380.36,-28.73"/>
<polygon fill="red" stroke="red" stroke-width="0.43" points="381.76,-25.52 371.25,-24.21 378.64,-31.79 381.76,-25.52"/>
</g>
<!-- &#45;5&#45;&gt;1 -->
<g id="edge19" class="edge">
<title>&#45;5&#45;&gt;1</title>
<path fill="none" stroke="red" stroke-width="0.12" d="M713.72,-68.47C710.89,-67.42 707.87,-66.42 705,-65.7 585.91,-35.63 547.32,-69.15 431,-29.7 430.12,-29.4 429.24,-29.07 428.36,-28.71"/>
<polygon fill="red" stroke="red" stroke-width="0.12" points="429.77,-25.5 419.26,-24.16 426.64,-31.76 429.77,-25.5"/>
</g>
<!-- &#45;5&#45;&gt;2 -->
<g id="edge20" class="edge">
<title>&#45;5&#45;&gt;2</title>
<path fill="none" stroke="green" stroke-width="0.36" d="M713.6,-68.86C710.78,-67.79 707.8,-66.68 705,-65.7 659.24,-49.59 605.16,-32.53 574.79,-23.14"/>
<polygon fill="green" stroke="green" stroke-width="0.36" points="575.68,-19.75 565.09,-20.15 573.62,-26.44 575.68,-19.75"/>
</g>
<!-- &#45;5&#45;&gt;3 -->
<g id="edge21" class="edge">
<title>&#45;5&#45;&gt;3</title>
<path fill="none" stroke="green" stroke-width="0.4" d="M713.68,-68.62C710.86,-67.56 707.85,-66.52 705,-65.7 627.47,-43.26 602.5,-58.24 527,-29.7 526.13,-29.37 525.26,-29.01 524.39,-28.64"/>
<polygon fill="green" stroke="green" stroke-width="0.4" points="525.82,-25.43 515.33,-23.98 522.62,-31.66 525.82,-25.43"/>
</g>
<!-- &#45;5&#45;&gt;4 -->
<g id="edge22" class="edge">
<title>&#45;5&#45;&gt;4</title>
<path fill="none" stroke="red" stroke-width="0.31" stroke-dasharray="1,5" d="M713.7,-68.53C710.88,-67.48 707.86,-66.46 705,-65.7 606.73,-39.46 574.87,-63.68 479,-29.7 478.13,-29.39 477.25,-29.05 476.37,-28.68"/>
<polygon fill="red" stroke="red" stroke-width="0.31" points="477.79,-25.48 467.29,-24.09 474.63,-31.72 477.79,-25.48"/>
</g>
<!-- &#45;6 -->
<g id="node6" class="node">
<title>&#45;6</title>
<polygon fill="lightgray" stroke="black" points="108,-83.7 84,-83.7 84,-65.7 108,-65.7 108,-83.7"/>
<text text-anchor="middle" x="96" y="-72.5" font-family="Times New Roman,serif" font-size="9.00">&#45;6</text>
</g>
<!-- &#45;6&#45;&gt;0 -->
<g id="edge23" class="edge">
<title>&#45;6&#45;&gt;0</title>
<path fill="none" stroke="red" stroke-width="0.32" d="M108,-68.98C111.22,-67.81 114.72,-66.63 118,-65.7 195.87,-43.61 290.47,-26.92 334.39,-19.73"/>
<polygon fill="red" stroke="red" stroke-width="0.32" points="335.11,-23.16 344.43,-18.11 334,-16.25 335.11,-23.16"/>
</g>
<!-- &#45;6&#45;&gt;1 -->
<g id="edge24" class="edge">
<title>&#45;6&#45;&gt;1</title>
<path fill="none" stroke="red" stroke-width="0.19" d="M108.42,-68.66C111.51,-67.55 114.84,-66.48 118,-65.7 233.4,-37.23 270.52,-68.12 383,-29.7 383.88,-29.4 384.76,-29.07 385.64,-28.71"/>
<polygon fill="red" stroke="red" stroke-width="0.19" points="387.36,-31.76 394.73,-24.15 384.23,-25.5 387.36,-31.76"/>
</g>
<!-- &#45;6&#45;&gt;3 -->
<g id="edge25" class="edge">
<title>&#45;6&#45;&gt;3</title>
<path fill="none" stroke="green" stroke-width="0.28" d="M108.4,-68.58C111.49,-67.47 114.83,-66.42 118,-65.7 275.21,-29.87 325.51,-79.1 479,-29.7 480.05,-29.36 481.11,-28.97 482.16,-28.54"/>
<polygon fill="green" stroke="green" stroke-width="0.28" points="483.91,-31.58 491.26,-23.95 480.75,-25.33 483.91,-31.58"/>
</g>
<!-- &#45;6&#45;&gt;4 -->
<g id="edge26" class="edge">
<title>&#45;6&#45;&gt;4</title>
<path fill="none" stroke="red" stroke-width="0.37" d="M108.41,-68.61C111.5,-67.51 114.84,-66.44 118,-65.7 254.29,-33.55 298.03,-73.61 431,-29.7 431.88,-29.41 432.76,-29.08 433.64,-28.73"/>
<polygon fill="red" stroke="red" stroke-width="0.37" points="435.36,-31.79 442.75,-24.2 432.24,-25.52 435.36,-31.79"/>
</g>
<!-- &#45;7 -->
<g id="node7" class="node">
<title>&#45;7</title>
<polygon fill="lightgray" stroke="black" points="198,-83.7 174,-83.7 174,-65.7 198,-65.7 198,-83.7"/>
<text text-anchor="middle" x="186" y="-72.5" font-family="Times New Roman,serif" font-size="9.00">&#45;7</text>
</g>
<!-- &#45;7&#45;&gt;0 -->
<g id="edge27" class="edge">
<title>&#45;7&#45;&gt;0</title>
<path fill="none" stroke="green" stroke-width="0.19" stroke-dasharray="1,5" d="M198.4,-68.86C201.22,-67.8 204.21,-66.69 207,-65.7 252.19,-49.69 305.56,-32.6 335.52,-23.17"/>
<polygon fill="green" stroke="green" stroke-width="0.19" points="336.6,-26.5 345.09,-20.17 334.5,-19.82 336.6,-26.5"/>
</g>
<!-- &#45;7&#45;&gt;1 -->
<g id="edge28" class="edge">
<title>&#45;7&#45;&gt;1</title>
<path fill="none" stroke="green" stroke-width="0.12" d="M198.32,-68.62C201.15,-67.57 204.15,-66.53 207,-65.7 283.67,-43.41 308.35,-58.02 383,-29.7 383.87,-29.37 384.74,-29.01 385.61,-28.63"/>
<polygon fill="green" stroke="green" stroke-width="0.12" points="387.38,-31.66 394.67,-23.97 384.18,-25.43 387.38,-31.66"/>
</g>
<!-- &#45;7&#45;&gt;2 -->
<g id="edge29" class="edge">
<title>&#45;7&#45;&gt;2</title>
<path fill="none" stroke="green" stroke-width="0.12" d="M198.27,-68.43C201.1,-67.39 204.12,-66.4 207,-65.7 346.08,-31.96 391.04,-74.41 527,-29.7 527.88,-29.41 528.76,-29.09 529.64,-28.73"/>
<polygon fill="green" stroke="green" stroke-width="0.12" points="531.36,-31.79 538.75,-24.21 528.24,-25.52 531.36,-31.79"/>
</g>
<!-- &#45;7&#45;&gt;3 -->
<g id="edge30" class="edge">
<title>&#45;7&#45;&gt;3</title>
<path fill="none" stroke="green" stroke-width="0.33" d="M198.28,-68.47C201.11,-67.43 204.13,-66.43 207,-65.7 325.22,-35.79 363.54,-68.92 479,-29.7 479.88,-29.4 480.76,-29.07 481.64,-28.71"/>
<polygon fill="green" stroke="green" stroke-width="0.33" points="483.36,-31.76 490.74,-24.15 480.23,-25.5 483.36,-31.76"/>
</g>
<!-- &#45;7&#45;&gt;4 -->
<g id="edge31" class="edge">
<title>&#45;7&#45;&gt;4</title>
<path fill="none" stroke="red" stroke-width="0.13" d="M198.3,-68.53C201.12,-67.48 204.14,-66.47 207,-65.7 304.4,-39.61 335.99,-63.45 431,-29.7 431.87,-29.39 432.75,-29.05 433.63,-28.68"/>
<polygon fill="red" stroke="red" stroke-width="0.13" points="435.37,-31.72 442.71,-24.08 432.21,-25.47 435.37,-31.72"/>
</g>
<!-- &#45;8 -->
<g id="node8" class="node">
<title>&#45;8</title>
<polygon fill="lightgray" stroke="black" points="282,-83.7 258,-83.7 258,-65.7 282,-65.7 282,-83.7"/>
<text text-anchor="middle" x="270" y="-72.5" font-family="Times New Roman,serif" font-size="9.00">&#45;8</text>
</g>
<!-- &#45;8&#45;&gt;0 -->
<g id="edge32" class="edge">
<title>&#45;8&#45;&gt;0</title>
<path fill="none" stroke="red" stroke-width="0.3" d="M282,-65.9C296.47,-56.49 321.01,-40.55 338.49,-29.18"/>
<polygon fill="red" stroke="red" stroke-width="0.3" points="340.43,-32.1 346.9,-23.71 336.61,-26.23 340.43,-32.1"/>
</g>
<!-- &#45;8&#45;&gt;1 -->
<g id="edge33" class="edge">
<title>&#45;8&#45;&gt;1</title>
<path fill="none" stroke="green" stroke-width="0.44" d="M282.26,-69.19C307.47,-59.89 364.3,-38.67 383,-29.7 383.83,-29.3 384.68,-28.88 385.53,-28.45"/>
<polygon fill="green" stroke="green" stroke-width="0.44" points="387.39,-31.42 394.49,-23.55 384.04,-25.27 387.39,-31.42"/>
</g>
<!-- &#45;8&#45;&gt;2 -->
<g id="edge34" class="edge">
<title>&#45;8&#45;&gt;2</title>
<path fill="none" stroke="green" stroke-width="0.21" stroke-dasharray="1,5" d="M282.43,-68.7C285.52,-67.59 288.85,-66.5 292,-65.7 394.37,-39.52 427.3,-64.71 527,-29.7 527.87,-29.39 528.75,-29.05 529.63,-28.69"/>
<polygon fill="green" stroke="green" stroke-width="0.21" points="531.37,-31.73 538.72,-24.1 528.21,-25.48 531.37,-31.73"/>
</g>
<!-- &#45;8&#45;&gt;3 -->
<g id="edge35" class="edge">
<title>&#45;8&#45;&gt;3</title>
<path fill="none" stroke="red" stroke-width="0.36" stroke-dasharray="1,5" d="M282.45,-68.78C285.54,-67.67 288.87,-66.56 292,-65.7 373.58,-43.17 399.69,-59.26 479,-29.7 479.87,-29.38 480.74,-29.02 481.61,-28.65"/>
<polygon fill="red" stroke="red" stroke-width="0.36" points="483.38,-31.68 490.68,-24 480.19,-25.44 483.38,-31.68"/>
</g>
<!-- &#45;8&#45;&gt;4 -->
<g id="edge36" class="edge">
<title>&#45;8&#45;&gt;4</title>
<path fill="none" stroke="green" stroke-width="0.63" d="M282.03,-69.09C285.25,-67.92 288.74,-66.71 292,-65.7 352.95,-46.77 371.94,-53.87 431,-29.7 431.86,-29.35 432.72,-28.97 433.59,-28.58"/>
<polygon fill="green" stroke="green" stroke-width="0.63" points="435.39,-31.58 442.62,-23.84 432.14,-25.38 435.39,-31.58"/>
</g>
<!-- &#45;9 -->
<g id="node9" class="node">
<title>&#45;9</title>
<polygon fill="lightgray" stroke="black" points="240,-83.7 216,-83.7 216,-65.7 240,-65.7 240,-83.7"/>
<text text-anchor="middle" x="228" y="-72.5" font-family="Times New Roman,serif" font-size="9.00">&#45;9</text>
</g>
<!-- &#45;9&#45;&gt;0 -->
<g id="edge37" class="edge">
<title>&#45;9&#45;&gt;0</title>
<path fill="none" stroke="red" stroke-width="0.47" d="M240.09,-68.36C261.98,-58.69 308.49,-38.16 336.41,-25.82"/>
<polygon fill="red" stroke="red" stroke-width="0.47" points="338.04,-28.93 345.78,-21.69 335.22,-22.53 338.04,-28.93"/>
</g>
<!-- &#45;9&#45;&gt;1 -->
<g id="edge38" class="edge">
<title>&#45;9&#45;&gt;1</title>
<path fill="none" stroke="green" stroke-width="0.59" stroke-dasharray="1,5" d="M240.36,-68.75C243.18,-67.69 246.18,-66.61 249,-65.7 307.67,-46.7 326.03,-53.31 383,-29.7 383.86,-29.34 384.72,-28.96 385.58,-28.57"/>
<polygon fill="green" stroke="green" stroke-width="0.59" points="387.39,-31.57 394.61,-23.82 384.13,-25.37 387.39,-31.57"/>
</g>
<!-- &#45;9&#45;&gt;2 -->
<g id="edge39" class="edge">
<title>&#45;9&#45;&gt;2</title>
<path fill="none" stroke="green" stroke-width="0.39" d="M240.28,-68.47C243.11,-67.42 246.12,-66.42 249,-65.7 369.82,-35.31 408.98,-69.61 527,-29.7 527.88,-29.4 528.76,-29.07 529.64,-28.71"/>
<polygon fill="green" stroke="green" stroke-width="0.39" points="531.36,-31.77 538.74,-24.16 528.23,-25.5 531.36,-31.77"/>
</g>
<!-- &#45;9&#45;&gt;3 -->
<g id="edge40" class="edge">
<title>&#45;9&#45;&gt;3</title>
<path fill="none" stroke="red" stroke-width="0.54" stroke-dasharray="1,5" d="M240.3,-68.52C243.12,-67.47 246.13,-66.46 249,-65.7 349,-39.14 381.43,-64.14 479,-29.7 479.87,-29.39 480.75,-29.05 481.63,-28.68"/>
<polygon fill="red" stroke="red" stroke-width="0.54" points="483.37,-31.73 490.72,-24.09 480.21,-25.48 483.37,-31.73"/>
</g>
<!-- &#45;10 -->
<g id="node10" class="node">
<title>&#45;10</title>
<polygon fill="lightgray" stroke="black" points="329.5,-83.7 300.5,-83.7 300.5,-65.7 329.5,-65.7 329.5,-83.7"/>
<text text-anchor="middle" x="315" y="-72.5" font-family="Times New Roman,serif" font-size="9.00">&#45;10</text>
</g>
<!-- &#45;10&#45;&gt;0 -->
<g id="edge41" class="edge">
<title>&#45;10&#45;&gt;0</title>
<path fill="none" stroke="green" stroke-width="0.19" d="M321.12,-65.65C327.02,-57.89 336.19,-45.84 344.03,-35.53"/>
<polygon fill="green" stroke="green" stroke-width="0.19" points="346.93,-37.5 350.2,-27.42 341.36,-33.26 346.93,-37.5"/>
</g>
<!-- &#45;10&#45;&gt;1 -->
<g id="edge42" class="edge">
<title>&#45;10&#45;&gt;1</title>
<path fill="none" stroke="green" stroke-width="0.97" d="M327.79,-65.65C342.84,-56.19 368.05,-40.34 385.99,-29.06"/>
<polygon fill="green" stroke="green" stroke-width="0.97" points="388.01,-31.93 394.61,-23.64 384.28,-26 388.01,-31.93"/>
</g>
<!-- &#45;10&#45;&gt;2 -->
<g id="edge43" class="edge">
<title>&#45;10&#45;&gt;2</title>
<path fill="none" stroke="green" stroke-width="0.4" d="M329.63,-68.48C332.7,-67.48 335.94,-66.5 339,-65.7 421.31,-44.2 447.27,-59.37 527,-29.7 527.87,-29.38 528.74,-29.02 529.61,-28.65"/>
<polygon fill="green" stroke="green" stroke-width="0.4" points="531.38,-31.68 538.68,-24.01 528.19,-25.44 531.38,-31.68"/>
</g>
<!-- &#45;10&#45;&gt;3 -->
<g id="edge44" class="edge">
<title>&#45;10&#45;&gt;3</title>
<path fill="none" stroke="green" stroke-width="0.48" stroke-dasharray="1,5" d="M329.67,-68.63C332.74,-67.62 335.97,-66.59 339,-65.7 400.62,-47.53 419.52,-53.98 479,-29.7 479.86,-29.35 480.72,-28.97 481.59,-28.58"/>
<polygon fill="green" stroke="green" stroke-width="0.48" points="483.39,-31.59 490.62,-23.85 480.14,-25.38 483.39,-31.59"/>
</g>
<!-- &#45;10&#45;&gt;4 -->
<g id="edge45" class="edge">
<title>&#45;10&#45;&gt;4</title>
<path fill="none" stroke="green" stroke-width="0.55" d="M329.62,-68.49C356.41,-58.88 412.32,-38.56 431,-29.7 431.84,-29.3 432.68,-28.89 433.53,-28.46"/>
<polygon fill="green" stroke="green" stroke-width="0.55" points="435.39,-31.43 442.5,-23.57 432.04,-25.28 435.39,-31.43"/>
</g>
<!-- &#45;11 -->
<g id="node11" class="node">
<title>&#45;11</title>
<polygon fill="lightgray" stroke="black" points="376.5,-83.7 347.5,-83.7 347.5,-65.7 376.5,-65.7 376.5,-83.7"/>
<text text-anchor="middle" x="362" y="-72.5" font-family="Times New Roman,serif" font-size="9.00">&#45;11</text>
</g>
<!-- &#45;11&#45;&gt;0 -->
<g id="edge46" class="edge">
<title>&#45;11&#45;&gt;0</title>
<path fill="none" stroke="red" stroke-width="0.31" d="M361.58,-65.65C361.24,-59.05 360.74,-49.33 360.26,-40.23"/>
<polygon fill="red" stroke="red" stroke-width="0.31" points="363.75,-39.86 359.74,-30.06 356.76,-40.22 363.75,-39.86"/>
</g>
<!-- &#45;11&#45;&gt;1 -->
<g id="edge47" class="edge">
<title>&#45;11&#45;&gt;1</title>
<path fill="none" stroke="red" stroke-width="0.16" stroke-dasharray="1,5" d="M368.26,-65.65C374.37,-57.8 383.91,-45.53 391.99,-35.14"/>
<polygon fill="red" stroke="red" stroke-width="0.16" points="394.95,-37.04 398.33,-26.99 389.43,-32.74 394.95,-37.04"/>
</g>
<!-- &#45;11&#45;&gt;2 -->
<g id="edge48" class="edge">
<title>&#45;11&#45;&gt;2</title>
<path fill="none" stroke="green" stroke-width="0.43" d="M376.67,-68.62C379.74,-67.61 382.97,-66.59 386,-65.7 448.05,-47.46 467.1,-54.09 527,-29.7 527.86,-29.35 528.72,-28.97 529.59,-28.58"/>
<polygon fill="green" stroke="green" stroke-width="0.43" points="531.39,-31.59 538.62,-23.85 528.14,-25.39 531.39,-31.59"/>
</g>
<!-- &#45;11&#45;&gt;3 -->
<g id="edge49" class="edge">
<title>&#45;11&#45;&gt;3</title>
<path fill="none" stroke="green" stroke-width="0.23" stroke-dasharray="1,5" d="M376.75,-68.49C403.77,-58.9 460.16,-38.6 479,-29.7 479.84,-29.3 480.68,-28.89 481.53,-28.46"/>
<polygon fill="green" stroke="green" stroke-width="0.23" points="483.39,-31.43 490.5,-23.58 480.05,-25.29 483.39,-31.43"/>
</g>
<!-- &#45;11&#45;&gt;4 -->
<g id="edge50" class="edge">
<title>&#45;11&#45;&gt;4</title>
<path fill="none" stroke="green" stroke-width="0.21" d="M374.93,-65.65C390.23,-56.14 415.91,-40.16 434.06,-28.87"/>
<polygon fill="green" stroke="green" stroke-width="0.21" points="436.13,-31.71 442.77,-23.46 432.43,-25.77 436.13,-31.71"/>
</g>
<!-- &#45;12 -->
<g id="node12" class="node">
<title>&#45;12</title>
<polygon fill="lightgray" stroke="black" points="785.5,-83.7 756.5,-83.7 756.5,-65.7 785.5,-65.7 785.5,-83.7"/>
<text text-anchor="middle" x="771" y="-72.5" font-family="Times New Roman,serif" font-size="9.00">&#45;12</text>
</g>
<!-- &#45;12&#45;&gt;1 -->
<g id="edge51" class="edge">
<title>&#45;12&#45;&gt;1</title>
<path fill="none" stroke="green" stroke-width="0.66" d="M756.41,-68.3C753.34,-67.31 750.09,-66.38 747,-65.7 608.98,-35.18 565.25,-73.95 431,-29.7 430.12,-29.41 429.24,-29.08 428.36,-28.73"/>
<polygon fill="green" stroke="green" stroke-width="0.66" points="429.76,-25.52 419.25,-24.2 426.64,-31.79 429.76,-25.52"/>
</g>
<!-- &#45;12&#45;&gt;2 -->
<g id="edge52" class="edge">
<title>&#45;12&#45;&gt;2</title>
<path fill="none" stroke="red" stroke-width="0.35" d="M756.33,-68.62C753.26,-67.61 750.03,-66.59 747,-65.7 685.67,-47.7 612.46,-30.1 575.27,-21.42"/>
<polygon fill="red" stroke="red" stroke-width="0.35" points="575.89,-17.97 565.36,-19.12 574.31,-24.79 575.89,-17.97"/>
</g>
<!-- &#45;12&#45;&gt;3 -->
<g id="edge53" class="edge">
<title>&#45;12&#45;&gt;3</title>
<path fill="none" stroke="red" stroke-width="0.17" stroke-dasharray="1,5" d="M756.39,-68.42C753.31,-67.42 750.07,-66.46 747,-65.7 650.81,-41.96 620.31,-63 527,-29.7 526.13,-29.39 525.25,-29.04 524.38,-28.68"/>
<polygon fill="red" stroke="red" stroke-width="0.17" points="525.79,-25.47 515.29,-24.08 522.63,-31.72 525.79,-25.47"/>
</g>
<!-- &#45;12&#45;&gt;4 -->
<g id="edge54" class="edge">
<title>&#45;12&#45;&gt;4</title>
<path fill="none" stroke="green" stroke-width="0.47" d="M756.4,-68.35C753.33,-67.36 750.08,-66.41 747,-65.7 629.92,-38.58 592.76,-68.47 479,-29.7 478.12,-29.4 477.24,-29.07 476.36,-28.71"/>
<polygon fill="green" stroke="green" stroke-width="0.47" points="477.77,-25.5 467.26,-24.15 474.64,-31.76 477.77,-25.5"/>
</g>
<!-- &#45;13 -->
<g id="node13" class="node">
<title>&#45;13</title>
<polygon fill="lightgray" stroke="black" points="423.5,-83.7 394.5,-83.7 394.5,-65.7 423.5,-65.7 423.5,-83.7"/>
<text text-anchor="middle" x="409" y="-72.5" font-family="Times New Roman,serif" font-size="9.00">&#45;13</text>
</g>
<!-- &#45;13&#45;&gt;0 -->
<g id="edge55" class="edge">
<title>&#45;13&#45;&gt;0</title>
<path fill="none" stroke="red" stroke-width="0.25" d="M402.05,-65.65C395.1,-57.62 384.18,-44.98 375.07,-34.45"/>
<polygon fill="red" stroke="red" stroke-width="0.25" points="377.46,-31.85 368.27,-26.58 372.16,-36.43 377.46,-31.85"/>
</g>
<!-- &#45;13&#45;&gt;1 -->
<g id="edge56" class="edge">
<title>&#45;13&#45;&gt;1</title>
<path fill="none" stroke="red" stroke-width="0.15" d="M408.72,-65.65C408.49,-59.05 408.16,-49.33 407.84,-40.23"/>
<polygon fill="red" stroke="red" stroke-width="0.15" points="411.33,-39.93 407.49,-30.06 404.34,-40.17 411.33,-39.93"/>
</g>
<!-- &#45;13&#45;&gt;2 -->
<g id="edge57" class="edge">
<title>&#45;13&#45;&gt;2</title>
<path fill="none" stroke="green" stroke-width="0.8" d="M423.88,-68.5C451.13,-58.92 508.01,-38.64 527,-29.7 527.84,-29.3 528.69,-28.89 529.54,-28.46"/>
<polygon fill="green" stroke="green" stroke-width="0.8" points="531.39,-31.44 538.51,-23.58 528.05,-25.29 531.39,-31.44"/>
</g>
<!-- &#45;13&#45;&gt;3 -->
<g id="edge58" class="edge">
<title>&#45;13&#45;&gt;3</title>
<path fill="none" stroke="red" stroke-width="0.38" d="M422.07,-65.65C437.61,-56.09 463.73,-40.01 482.09,-28.72"/>
<polygon fill="red" stroke="red" stroke-width="0.38" points="483.96,-31.68 490.64,-23.46 480.29,-25.72 483.96,-31.68"/>
</g>
<!-- &#45;13&#45;&gt;4 -->
<g id="edge59" class="edge">
<title>&#45;13&#45;&gt;4</title>
<path fill="none" stroke="red" stroke-width="0.44" d="M415.4,-65.65C421.71,-57.72 431.59,-45.29 439.9,-34.83"/>
<polygon fill="red" stroke="red" stroke-width="0.44" points="442.65,-37 446.14,-26.99 437.17,-32.64 442.65,-37"/>
</g>
<!-- &#45;14 -->
<g id="node14" class="node">
<title>&#45;14</title>
<polygon fill="lightgray" stroke="black" points="832.5,-83.7 803.5,-83.7 803.5,-65.7 832.5,-65.7 832.5,-83.7"/>
<text text-anchor="middle" x="818" y="-72.5" font-family="Times New Roman,serif" font-size="9.00">&#45;14</text>
</g>
<!-- &#45;14&#45;&gt;1 -->
<g id="edge60" class="edge">
<title>&#45;14&#45;&gt;1</title>
<path fill="none" stroke="green" stroke-width="0.64" d="M803.05,-67.93C800.4,-67.07 797.64,-66.28 795,-65.7 636.23,-30.75 585.77,-79.44 431,-29.7 429.95,-29.36 428.89,-28.97 427.84,-28.54"/>
<polygon fill="green" stroke="green" stroke-width="0.64" points="429.25,-25.33 418.74,-23.95 426.09,-31.58 429.25,-25.33"/>
</g>
<!-- &#45;14&#45;&gt;2 -->
<g id="edge61" class="edge">
<title>&#45;14&#45;&gt;2</title>
<path fill="none" stroke="red" stroke-width="0.24" d="M803.49,-68.32C800.69,-67.38 797.77,-66.46 795,-65.7 716.02,-44 620.31,-27.12 575.89,-19.81"/>
<polygon fill="red" stroke="red" stroke-width="0.24" points="576.17,-16.31 565.74,-18.16 575.05,-23.21 576.17,-16.31"/>
</g>
<!-- &#45;14&#45;&gt;3 -->
<g id="edge62" class="edge">
<title>&#45;14&#45;&gt;3</title>
<path fill="none" stroke="red" stroke-width="0.11" d="M803.04,-68.01C800.39,-67.14 797.63,-66.33 795,-65.7 678.1,-37.82 640.76,-68.47 527,-29.7 526.12,-29.4 525.24,-29.07 524.36,-28.71"/>
<polygon fill="red" stroke="red" stroke-width="0.11" points="525.77,-25.5 515.26,-24.15 522.64,-31.76 525.77,-25.5"/>
</g>
<!-- &#45;14&#45;&gt;4 -->
<g id="edge63" class="edge">
<title>&#45;14&#45;&gt;4</title>
<path fill="none" stroke="green" stroke-width="0.74" stroke-dasharray="1,5" d="M803.05,-67.96C800.39,-67.1 797.64,-66.3 795,-65.7 657.18,-34.29 613.25,-73.95 479,-29.7 478.12,-29.41 477.24,-29.08 476.36,-28.73"/>
<polygon fill="green" stroke="green" stroke-width="0.74" points="477.76,-25.52 467.25,-24.2 474.64,-31.79 477.76,-25.52"/>
</g>
<!-- &#45;15 -->
<g id="node15" class="node">
<title>&#45;15</title>
<polygon fill="lightgray" stroke="black" points="155.5,-83.7 126.5,-83.7 126.5,-65.7 155.5,-65.7 155.5,-83.7"/>
<text text-anchor="middle" x="141" y="-72.5" font-family="Times New Roman,serif" font-size="9.00">&#45;15</text>
</g>
<!-- &#45;15&#45;&gt;0 -->
<g id="edge64" class="edge">
<title>&#45;15&#45;&gt;0</title>
<path fill="none" stroke="green" stroke-width="0.17" d="M155.67,-68.63C158.74,-67.62 161.97,-66.59 165,-65.7 225.41,-47.89 297.45,-30.33 334.42,-21.58"/>
<polygon fill="green" stroke="green" stroke-width="0.17" points="335.37,-24.95 344.3,-19.25 333.77,-18.14 335.37,-24.95"/>
</g>
<!-- &#45;15&#45;&gt;1 -->
<g id="edge65" class="edge">
<title>&#45;15&#45;&gt;1</title>
<path fill="none" stroke="red" stroke-width="0.28" d="M155.62,-68.42C158.69,-67.42 161.93,-66.46 165,-65.7 260.32,-42.1 290.54,-62.77 383,-29.7 383.87,-29.39 384.75,-29.04 385.62,-28.68"/>
<polygon fill="red" stroke="red" stroke-width="0.28" points="387.37,-31.71 394.71,-24.07 384.21,-25.47 387.37,-31.71"/>
</g>
<!-- &#45;15&#45;&gt;2 -->
<g id="edge66" class="edge">
<title>&#45;15&#45;&gt;2</title>
<path fill="none" stroke="red" stroke-width="0.3" d="M155.58,-68.26C158.66,-67.28 161.91,-66.36 165,-65.7 323.12,-31.93 373.09,-79.21 527,-29.7 528.05,-29.36 529.11,-28.97 530.16,-28.54"/>
<polygon fill="red" stroke="red" stroke-width="0.3" points="531.91,-31.58 539.26,-23.95 528.75,-25.33 531.91,-31.58"/>
</g>
<!-- &#45;16 -->
<g id="node16" class="node">
<title>&#45;16</title>
<polygon fill="lightgray" stroke="black" points="470.5,-83.7 441.5,-83.7 441.5,-65.7 470.5,-65.7 470.5,-83.7"/>
<text text-anchor="middle" x="456" y="-72.5" font-family="Times New Roman,serif" font-size="9.00">&#45;16</text>
</g>
<!-- &#45;16&#45;&gt;0 -->
<g id="edge67" class="edge">
<title>&#45;16&#45;&gt;0</title>
<path fill="none" stroke="red" stroke-width="0.29" d="M442.51,-65.65C426.39,-56.04 399.22,-39.84 380.26,-28.53"/>
<polygon fill="red" stroke="red" stroke-width="0.29" points="381.83,-25.39 371.45,-23.28 378.25,-31.4 381.83,-25.39"/>
</g>
<!-- &#45;16&#45;&gt;1 -->
<g id="edge68" class="edge">
<title>&#45;16&#45;&gt;1</title>
<path fill="none" stroke="green" stroke-width="0.87" d="M449.19,-65.65C442.46,-57.72 431.94,-45.29 423.08,-34.83"/>
<polygon fill="green" stroke="green" stroke-width="0.87" points="425.57,-32.36 416.44,-26.99 420.23,-36.89 425.57,-32.36"/>
</g>
<!-- &#45;16&#45;&gt;2 -->
<g id="edge69" class="edge">
<title>&#45;16&#45;&gt;2</title>
<path fill="none" stroke="green" stroke-width="0.28" stroke-dasharray="1,5" d="M469.21,-65.65C484.91,-56.09 511.32,-40.01 529.87,-28.72"/>
<polygon fill="green" stroke="green" stroke-width="0.28" points="531.79,-31.65 538.51,-23.46 528.15,-25.67 531.79,-31.65"/>
</g>
<!-- &#45;16&#45;&gt;3 -->
<g id="edge70" class="edge">
<title>&#45;16&#45;&gt;3</title>
<path fill="none" stroke="red" stroke-width="0.27" d="M462.54,-65.65C468.98,-57.72 479.08,-45.29 487.58,-34.83"/>
<polygon fill="red" stroke="red" stroke-width="0.27" points="490.36,-36.96 493.94,-26.99 484.92,-32.55 490.36,-36.96"/>
</g>
<!-- &#45;16&#45;&gt;4 -->
<g id="edge71" class="edge">
<title>&#45;16&#45;&gt;4</title>
<path fill="none" stroke="red" stroke-width="1.39" d="M455.86,-65.65C455.75,-59.05 455.58,-49.33 455.42,-40.23"/>
<polygon fill="red" stroke="red" stroke-width="1.39" points="458.92,-39.99 455.25,-30.06 451.92,-40.12 458.92,-39.99"/>
</g>
<!-- &#45;17 -->
<g id="node17" class="node">
<title>&#45;17</title>
<polygon fill="lightgray" stroke="black" points="517.5,-83.7 488.5,-83.7 488.5,-65.7 517.5,-65.7 517.5,-83.7"/>
<text text-anchor="middle" x="503" y="-72.5" font-family="Times New Roman,serif" font-size="9.00">&#45;17</text>
</g>
<!-- &#45;17&#45;&gt;0 -->
<g id="edge72" class="edge">
<title>&#45;17&#45;&gt;0</title>
<path fill="none" stroke="red" stroke-width="0.37" d="M488.39,-68.5C458.62,-57.89 392.9,-34.33 383,-29.7 382.16,-29.31 381.31,-28.89 380.46,-28.47"/>
<polygon fill="red" stroke="red" stroke-width="0.37" points="381.95,-25.29 371.49,-23.6 378.61,-31.44 381.95,-25.29"/>
</g>
<!-- &#45;17&#45;&gt;1 -->
<g id="edge73" class="edge">
<title>&#45;17&#45;&gt;1</title>
<path fill="none" stroke="green" stroke-width="0.58" d="M489.65,-65.65C473.7,-56.04 446.81,-39.84 428.04,-28.53"/>
<polygon fill="green" stroke="green" stroke-width="0.58" points="429.69,-25.44 419.32,-23.28 426.08,-31.43 429.69,-25.44"/>
</g>
<!-- &#45;17&#45;&gt;2 -->
<g id="edge74" class="edge">
<title>&#45;17&#45;&gt;2</title>
<path fill="none" stroke="green" stroke-width="0.41" d="M509.67,-65.65C516.26,-57.72 526.57,-45.29 535.25,-34.83"/>
<polygon fill="green" stroke="green" stroke-width="0.41" points="538.06,-36.93 541.75,-26.99 532.67,-32.46 538.06,-36.93"/>
</g>
<!-- &#45;17&#45;&gt;3 -->
<g id="edge75" class="edge">
<title>&#45;17&#45;&gt;3</title>
<path fill="none" stroke="red" stroke-width="0.55" stroke-dasharray="1,5" d="M503,-65.65C503,-59.05 503,-49.33 503,-40.23"/>
<polygon fill="red" stroke="red" stroke-width="0.55" points="506.5,-40.06 503,-30.06 499.5,-40.06 506.5,-40.06"/>
</g>
<!-- &#45;17&#45;&gt;4 -->
<g id="edge76" class="edge">
<title>&#45;17&#45;&gt;4</title>
<path fill="none" stroke="green" stroke-width="0.16" d="M496.33,-65.65C489.74,-57.72 479.43,-45.29 470.75,-34.83"/>
<polygon fill="green" stroke="green" stroke-width="0.16" points="473.33,-32.46 464.25,-26.99 467.94,-36.93 473.33,-32.46"/>
</g>
<!-- &#45;18 -->
<g id="node18" class="node">
<title>&#45;18</title>
<polygon fill="lightgray" stroke="black" points="564.5,-83.7 535.5,-83.7 535.5,-65.7 564.5,-65.7 564.5,-83.7"/>
<text text-anchor="middle" x="550" y="-72.5" font-family="Times New Roman,serif" font-size="9.00">&#45;18</text>
</g>
<!-- &#45;18&#45;&gt;0 -->
<g id="edge77" class="edge">
<title>&#45;18&#45;&gt;0</title>
<path fill="none" stroke="red" stroke-width="0.72" d="M535.46,-68.42C532.67,-67.47 529.75,-66.52 527,-65.7 463.78,-46.84 444.16,-54.42 383,-29.7 382.14,-29.35 381.28,-28.98 380.41,-28.58"/>
<polygon fill="red" stroke="red" stroke-width="0.72" points="381.86,-25.39 371.37,-23.86 378.61,-31.6 381.86,-25.39"/>
</g>
<!-- &#45;18&#45;&gt;1 -->
<g id="edge78" class="edge">
<title>&#45;18&#45;&gt;1</title>
<path fill="none" stroke="green" stroke-width="0.13" d="M535.06,-68.34C505.34,-57.64 440.77,-34.28 431,-29.7 430.16,-29.31 429.31,-28.89 428.46,-28.47"/>
<polygon fill="green" stroke="green" stroke-width="0.13" points="429.95,-25.29 419.49,-23.59 426.61,-31.44 429.95,-25.29"/>
</g>
<!-- &#45;18&#45;&gt;2 -->
<g id="edge79" class="edge">
<title>&#45;18&#45;&gt;2</title>
<path fill="none" stroke="green" stroke-width="0.44" d="M550.14,-65.65C550.25,-59.05 550.42,-49.33 550.58,-40.23"/>
<polygon fill="green" stroke="green" stroke-width="0.44" points="554.08,-40.12 550.75,-30.06 547.08,-39.99 554.08,-40.12"/>
</g>
<!-- &#45;18&#45;&gt;3 -->
<g id="edge80" class="edge">
<title>&#45;18&#45;&gt;3</title>
<path fill="none" stroke="red" stroke-width="0.48" d="M543.46,-65.65C537.02,-57.72 526.92,-45.29 518.42,-34.83"/>
<polygon fill="red" stroke="red" stroke-width="0.48" points="521.08,-32.55 512.06,-26.99 515.64,-36.96 521.08,-32.55"/>
</g>
<!-- &#45;18&#45;&gt;4 -->
<g id="edge81" class="edge">
<title>&#45;18&#45;&gt;4</title>
<path fill="none" stroke="green" stroke-width="0.14" d="M536.79,-65.65C521.09,-56.09 494.68,-40.01 476.13,-28.72"/>
<polygon fill="green" stroke="green" stroke-width="0.14" points="477.85,-25.67 467.49,-23.46 474.21,-31.65 477.85,-25.67"/>
</g>
<!-- &#45;19 -->
<g id="node19" class="node">
<title>&#45;19</title>
<polygon fill="lightgray" stroke="black" points="879.5,-83.7 850.5,-83.7 850.5,-65.7 879.5,-65.7 879.5,-83.7"/>
<text text-anchor="middle" x="865" y="-72.5" font-family="Times New Roman,serif" font-size="9.00">&#45;19</text>
</g>
<!-- &#45;19&#45;&gt;2 -->
<g id="edge82" class="edge">
<title>&#45;19&#45;&gt;2</title>
<path fill="none" stroke="green" stroke-width="0.34" d="M850.02,-68.09C847.37,-67.21 844.62,-66.37 842,-65.7 744.89,-40.68 626.25,-24.78 575.71,-18.68"/>
<polygon fill="green" stroke="green" stroke-width="0.34" points="576.06,-15.2 565.71,-17.5 575.23,-22.15 576.06,-15.2"/>
</g>
<!-- &#45;19&#45;&gt;3 -->
<g id="edge83" class="edge">
<title>&#45;19&#45;&gt;3</title>
<path fill="none" stroke="red" stroke-width="0.15" d="M850.05,-67.96C847.39,-67.1 844.64,-66.3 842,-65.7 704.62,-34.36 660.82,-73.83 527,-29.7 526.12,-29.41 525.24,-29.08 524.36,-28.73"/>
<polygon fill="red" stroke="red" stroke-width="0.15" points="525.76,-25.52 515.25,-24.2 522.64,-31.79 525.76,-25.52"/>
</g>
<!-- &#45;19&#45;&gt;4 -->
<g id="edge84" class="edge">
<title>&#45;19&#45;&gt;4</title>
<path fill="none" stroke="green" stroke-width="0.12" d="M850.05,-67.93C847.4,-67.07 844.64,-66.28 842,-65.7 683.67,-30.83 633.34,-79.33 479,-29.7 477.95,-29.36 476.89,-28.97 475.84,-28.54"/>
<polygon fill="green" stroke="green" stroke-width="0.12" points="477.25,-25.33 466.74,-23.95 474.09,-31.58 477.25,-25.33"/>
</g>
<!-- &#45;20 -->
<g id="node20" class="node">
<title>&#45;20</title>
<polygon fill="lightgray" stroke="black" points="611.5,-83.7 582.5,-83.7 582.5,-65.7 611.5,-65.7 611.5,-83.7"/>
<text text-anchor="middle" x="597" y="-72.5" font-family="Times New Roman,serif" font-size="9.00">&#45;20</text>
</g>
<!-- &#45;20&#45;&gt;0 -->
<g id="edge85" class="edge">
<title>&#45;20&#45;&gt;0</title>
<path fill="none" stroke="red" stroke-width="0.23" d="M582.01,-68.12C579.36,-67.24 576.61,-66.4 574,-65.7 490.53,-43.45 464,-59.71 383,-29.7 382.13,-29.38 381.26,-29.03 380.39,-28.65"/>
<polygon fill="red" stroke="red" stroke-width="0.23" points="381.81,-25.45 371.31,-24.01 378.63,-31.68 381.81,-25.45"/>
</g>
<!-- &#45;20&#45;&gt;1 -->
<g id="edge86" class="edge">
<title>&#45;20&#45;&gt;1</title>
<path fill="none" stroke="green" stroke-width="0.15" d="M582.46,-68.43C579.67,-67.47 576.75,-66.52 574,-65.7 511.21,-46.91 491.74,-54.31 431,-29.7 430.14,-29.35 429.28,-28.98 428.41,-28.58"/>
<polygon fill="green" stroke="green" stroke-width="0.15" points="429.86,-25.39 419.37,-23.86 426.61,-31.59 429.86,-25.39"/>
</g>
<!-- &#45;20&#45;&gt;2 -->
<g id="edge87" class="edge">
<title>&#45;20&#45;&gt;2</title>
<path fill="none" stroke="green" stroke-width="0.24" d="M590.6,-65.65C584.29,-57.72 574.41,-45.29 566.1,-34.83"/>
<polygon fill="green" stroke="green" stroke-width="0.24" points="568.83,-32.64 559.86,-26.99 563.35,-37 568.83,-32.64"/>
</g>
<!-- &#45;20&#45;&gt;3 -->
<g id="edge89" class="edge">
<title>&#45;20&#45;&gt;3</title>
<path fill="none" stroke="green" stroke-width="0.4" d="M583.93,-65.65C568.39,-56.09 542.27,-40.01 523.91,-28.72"/>
<polygon fill="green" stroke="green" stroke-width="0.4" points="525.71,-25.72 515.36,-23.46 522.04,-31.68 525.71,-25.72"/>
</g>
<!-- &#45;20&#45;&gt;4 -->
<g id="edge88" class="edge">
<title>&#45;20&#45;&gt;4</title>
<path fill="none" stroke="green" stroke-width="0.35" d="M582.12,-68.5C554.87,-58.92 497.99,-38.64 479,-29.7 478.16,-29.3 477.31,-28.89 476.46,-28.46"/>
<polygon fill="green" stroke="green" stroke-width="0.35" points="477.95,-25.29 467.49,-23.58 474.61,-31.44 477.95,-25.29"/>
</g>
</g>
</svg>
