<?xml version="1.0" encoding="UTF-8" standalone="no"?>
<!DOCTYPE svg PUBLIC "-//W3C//DTD SVG 1.1//EN"
 "http://www.w3.org/Graphics/SVG/1.1/DTD/svg11.dtd">
<!-- Generated by graphviz version 2.49.0 (20210828.1703)
 -->
<!-- Pages: 1 -->
<svg width="2470pt" height="263pt"
 viewBox="0.00 0.00 2470.43 262.69" xmlns="http://www.w3.org/2000/svg" xmlns:xlink="http://www.w3.org/1999/xlink">
<g id="graph0" class="graph" transform="scale(1 1) rotate(0) translate(4 258.69)">
<polygon fill="white" stroke="transparent" points="-4,4 -4,-258.69 2466.43,-258.69 2466.43,4 -4,4"/>
<!-- &#45;1 -->
<g id="node1" class="node">
<title>&#45;1</title>
<polygon fill="lightgray" stroke="black" points="1452.24,-254.69 1428.24,-254.69 1428.24,-236.69 1452.24,-236.69 1452.24,-254.69"/>
<text text-anchor="middle" x="1440.24" y="-243.49" font-family="Times New Roman,serif" font-size="9.00">&#45;1</text>
</g>
<!-- 427 -->
<g id="node28" class="node">
<title>427</title>
<ellipse fill="white" stroke="black" cx="1530.24" cy="-175.94" rx="21.43" ry="21.43"/>
<text text-anchor="middle" x="1530.24" y="-173.74" font-family="Times New Roman,serif" font-size="9.00">427</text>
</g>
<!-- &#45;1&#45;&gt;427 -->
<g id="edge1" class="edge">
<title>&#45;1&#45;&gt;427</title>
<path fill="none" stroke="green" stroke-width="0.38" d="M1450.92,-236.66C1464.28,-226.6 1487.59,-209.05 1505.49,-195.57"/>
<polygon fill="green" stroke="green" stroke-width="0.38" points="1507.9,-198.14 1513.78,-189.33 1503.69,-192.55 1507.9,-198.14"/>
</g>
<!-- 428 -->
<g id="node29" class="node">
<title>428</title>
<ellipse fill="white" stroke="black" cx="1274.24" cy="-175.94" rx="21.43" ry="21.43"/>
<text text-anchor="middle" x="1274.24" y="-173.74" font-family="Times New Roman,serif" font-size="9.00">428</text>
</g>
<!-- &#45;1&#45;&gt;428 -->
<g id="edge2" class="edge">
<title>&#45;1&#45;&gt;428</title>
<path fill="none" stroke="red" stroke-width="0.33" d="M1427.85,-239.83C1425.03,-238.76 1422.04,-237.66 1419.24,-236.69 1368.63,-219.15 1351.58,-225.73 1304.24,-200.69 1302.19,-199.61 1300.14,-198.38 1298.12,-197.06"/>
<polygon fill="red" stroke="red" stroke-width="0.33" points="1299.82,-193.97 1289.67,-190.92 1295.71,-199.63 1299.82,-193.97"/>
</g>
<!-- 429 -->
<g id="node30" class="node">
<title>429</title>
<ellipse fill="white" stroke="black" cx="1432.24" cy="-175.94" rx="21.43" ry="21.43"/>
<text text-anchor="middle" x="1432.24" y="-173.74" font-family="Times New Roman,serif" font-size="9.00">429</text>
</g>
<!-- &#45;1&#45;&gt;429 -->
<g id="edge3" class="edge">
<title>&#45;1&#45;&gt;429</title>
<path fill="none" stroke="green" stroke-width="0.4" d="M1439.29,-236.66C1438.42,-229.32 1437.09,-218.02 1435.81,-207.21"/>
<polygon fill="green" stroke="green" stroke-width="0.4" points="1439.27,-206.66 1434.62,-197.14 1432.32,-207.48 1439.27,-206.66"/>
</g>
<!-- 430 -->
<g id="node31" class="node">
<title>430</title>
<ellipse fill="white" stroke="black" cx="1793.24" cy="-90.45" rx="21.43" ry="21.43"/>
<text text-anchor="middle" x="1793.24" y="-88.25" font-family="Times New Roman,serif" font-size="9.00">430</text>
</g>
<!-- &#45;1&#45;&gt;430 -->
<g id="edge4" class="edge">
<title>&#45;1&#45;&gt;430</title>
<path fill="none" stroke="green" stroke-width="0.11" d="M1452.53,-239.5C1455.35,-238.45 1458.37,-237.44 1461.24,-236.69 1568.17,-208.86 1611.6,-256.04 1707.24,-200.69 1740.17,-181.63 1765.16,-144.62 1779.49,-119"/>
<polygon fill="green" stroke="green" stroke-width="0.11" points="1782.61,-120.58 1784.29,-110.12 1776.45,-117.26 1782.61,-120.58"/>
</g>
<!-- 431 -->
<g id="node32" class="node">
<title>431</title>
<ellipse fill="white" stroke="black" cx="1334.24" cy="-175.94" rx="21.43" ry="21.43"/>
<text text-anchor="middle" x="1334.24" y="-173.74" font-family="Times New Roman,serif" font-size="9.00">431</text>
</g>
<!-- &#45;1&#45;&gt;431 -->
<g id="edge5" class="edge">
<title>&#45;1&#45;&gt;431</title>
<path fill="none" stroke="green" stroke-width="0.4" d="M1428.08,-236.92C1411.71,-226.46 1382.15,-207.57 1360.57,-193.78"/>
<polygon fill="green" stroke="green" stroke-width="0.4" points="1362.19,-190.65 1351.88,-188.22 1358.42,-196.55 1362.19,-190.65"/>
</g>
<!-- 433 -->
<g id="node33" class="node">
<title>433</title>
<ellipse fill="white" stroke="black" cx="1011.24" cy="-90.45" rx="21.43" ry="21.43"/>
<text text-anchor="middle" x="1011.24" y="-88.25" font-family="Times New Roman,serif" font-size="9.00">433</text>
</g>
<!-- &#45;1&#45;&gt;433 -->
<g id="edge6" class="edge">
<title>&#45;1&#45;&gt;433</title>
<path fill="none" stroke="red" stroke-width="0.21" d="M1427.91,-239.62C1425.09,-238.56 1422.08,-237.52 1419.24,-236.69 1343,-214.49 1317.09,-232.29 1244.24,-200.69 1209.28,-185.53 1207.97,-168.91 1174.24,-151.2 1129.98,-127.96 1074.66,-109.76 1041.18,-99.81"/>
<polygon fill="red" stroke="red" stroke-width="0.21" points="1042.11,-96.44 1031.53,-97 1040.15,-103.16 1042.11,-96.44"/>
</g>
<!-- 435 -->
<g id="node34" class="node">
<title>435</title>
<ellipse fill="white" stroke="black" cx="951.24" cy="-90.45" rx="21.43" ry="21.43"/>
<text text-anchor="middle" x="951.24" y="-88.25" font-family="Times New Roman,serif" font-size="9.00">435</text>
</g>
<!-- &#45;1&#45;&gt;435 -->
<g id="edge7" class="edge">
<title>&#45;1&#45;&gt;435</title>
<path fill="none" stroke="green" stroke-width="0.38" d="M1427.95,-239.5C1425.12,-238.45 1422.11,-237.44 1419.24,-236.69 1312.3,-208.86 1279.37,-231.46 1173.24,-200.69 1083.52,-174.69 1061.15,-163.56 981.24,-115.2 979.25,-113.99 977.25,-112.68 975.27,-111.3"/>
<polygon fill="green" stroke="green" stroke-width="0.38" points="977,-108.22 966.89,-105.04 972.81,-113.83 977,-108.22"/>
</g>
<!-- 436 -->
<g id="node35" class="node">
<title>436</title>
<ellipse fill="white" stroke="black" cx="1932.24" cy="-175.94" rx="21.43" ry="21.43"/>
<text text-anchor="middle" x="1932.24" y="-173.74" font-family="Times New Roman,serif" font-size="9.00">436</text>
</g>
<!-- &#45;1&#45;&gt;436 -->
<g id="edge8" class="edge">
<title>&#45;1&#45;&gt;436</title>
<path fill="none" stroke="green" stroke-width="0.57" d="M1452.51,-239.43C1455.33,-238.38 1458.36,-237.39 1461.24,-236.69 1601.19,-202.79 1640.54,-220.03 1783.24,-200.69 1824.1,-195.16 1871.06,-187.45 1901.16,-182.33"/>
<polygon fill="green" stroke="green" stroke-width="0.57" points="1901.8,-185.77 1911.06,-180.64 1900.62,-178.87 1901.8,-185.77"/>
</g>
<!-- &#45;2 -->
<g id="node2" class="node">
<title>&#45;2</title>
<polygon fill="lightgray" stroke="black" points="542.24,-254.69 518.24,-254.69 518.24,-236.69 542.24,-236.69 542.24,-254.69"/>
<text text-anchor="middle" x="530.24" y="-243.49" font-family="Times New Roman,serif" font-size="9.00">&#45;2</text>
</g>
<!-- &#45;2&#45;&gt;428 -->
<g id="edge9" class="edge">
<title>&#45;2&#45;&gt;428</title>
<path fill="none" stroke="red" stroke-width="0.25" d="M542.53,-243.57C626.33,-235.94 1114.04,-191.53 1242.98,-179.79"/>
<polygon fill="red" stroke="red" stroke-width="0.25" points="1243.34,-183.27 1252.98,-178.88 1242.71,-176.3 1243.34,-183.27"/>
</g>
<!-- &#45;2&#45;&gt;429 -->
<g id="edge10" class="edge">
<title>&#45;2&#45;&gt;429</title>
<path fill="none" stroke="green" stroke-width="0.2" d="M542.49,-244.52C632.83,-243.19 1196.9,-233.63 1364.24,-200.69 1377.47,-198.09 1391.61,-193.47 1403.56,-188.99"/>
<polygon fill="green" stroke="green" stroke-width="0.2" points="1404.96,-192.2 1413.01,-185.31 1402.42,-185.68 1404.96,-192.2"/>
</g>
<!-- &#45;2&#45;&gt;430 -->
<g id="edge11" class="edge">
<title>&#45;2&#45;&gt;430</title>
<path fill="none" stroke="red" stroke-width="0.31" d="M518.1,-243.03C485.31,-238.26 396.28,-223.41 379.24,-200.69 366.04,-183.1 364.01,-167.08 379.24,-151.2 391.63,-138.27 1554.82,-99.31 1761.89,-92.48"/>
<polygon fill="red" stroke="red" stroke-width="0.31" points="1762.19,-95.97 1772.07,-92.14 1761.96,-88.97 1762.19,-95.97"/>
</g>
<!-- &#45;2&#45;&gt;431 -->
<g id="edge12" class="edge">
<title>&#45;2&#45;&gt;431</title>
<path fill="none" stroke="red" stroke-width="0.71" d="M542.31,-244.45C634.85,-242.5 1230.01,-228.9 1304.24,-200.69 1306.63,-199.78 1308.98,-198.61 1311.25,-197.28"/>
<polygon fill="red" stroke="red" stroke-width="0.71" points="1313.3,-200.11 1319.49,-191.52 1309.29,-194.37 1313.3,-200.11"/>
</g>
<!-- &#45;2&#45;&gt;433 -->
<g id="edge13" class="edge">
<title>&#45;2&#45;&gt;433</title>
<path fill="none" stroke="red" stroke-width="0.14" stroke-dasharray="1,5" d="M517.84,-244.53C445.68,-243.47 81.81,-236.38 49.24,-200.69 34.41,-184.44 33.99,-167.05 49.24,-151.2 121.09,-76.52 884.03,-151.13 981.24,-115.2 983.64,-114.31 985.99,-113.15 988.26,-111.83"/>
<polygon fill="red" stroke="red" stroke-width="0.14" points="990.31,-114.67 996.52,-106.09 986.31,-108.92 990.31,-114.67"/>
</g>
<!-- &#45;2&#45;&gt;435 -->
<g id="edge14" class="edge">
<title>&#45;2&#45;&gt;435</title>
<path fill="none" stroke="red" stroke-width="0.15" stroke-dasharray="1,5" d="M517.86,-244.62C442.43,-244.05 46.65,-239.23 11.24,-200.69 -3.65,-184.49 -3.82,-167.24 11.24,-151.2 43.03,-117.32 759.28,-96.5 919.6,-92.26"/>
<polygon fill="red" stroke="red" stroke-width="0.15" points="919.85,-95.75 929.75,-91.99 919.66,-88.75 919.85,-95.75"/>
</g>
<!-- &#45;3 -->
<g id="node3" class="node">
<title>&#45;3</title>
<polygon fill="lightgray" stroke="black" points="1494.24,-254.69 1470.24,-254.69 1470.24,-236.69 1494.24,-236.69 1494.24,-254.69"/>
<text text-anchor="middle" x="1482.24" y="-243.49" font-family="Times New Roman,serif" font-size="9.00">&#45;3</text>
</g>
<!-- &#45;3&#45;&gt;427 -->
<g id="edge15" class="edge">
<title>&#45;3&#45;&gt;427</title>
<path fill="none" stroke="red" stroke-width="0.85" d="M1487.93,-236.66C1493.93,-228.19 1503.67,-214.44 1512.3,-202.26"/>
<polygon fill="red" stroke="red" stroke-width="0.85" points="1515.39,-203.95 1518.32,-193.77 1509.68,-199.91 1515.39,-203.95"/>
</g>
<!-- &#45;3&#45;&gt;428 -->
<g id="edge16" class="edge">
<title>&#45;3&#45;&gt;428</title>
<path fill="none" stroke="red" stroke-width="0.26" d="M1469.9,-239.67C1467.08,-238.61 1464.07,-237.55 1461.24,-236.69 1392.73,-215.9 1368.78,-231.67 1304.24,-200.69 1302.15,-199.69 1300.07,-198.52 1298.03,-197.24"/>
<polygon fill="red" stroke="red" stroke-width="0.26" points="1299.72,-194.14 1289.54,-191.18 1295.65,-199.84 1299.72,-194.14"/>
</g>
<!-- &#45;3&#45;&gt;429 -->
<g id="edge17" class="edge">
<title>&#45;3&#45;&gt;429</title>
<path fill="none" stroke="red" stroke-width="0.15" d="M1476.31,-236.66C1469.96,-228.06 1459.57,-213.98 1450.48,-201.66"/>
<polygon fill="red" stroke="red" stroke-width="0.15" points="1453.21,-199.47 1444.45,-193.5 1447.58,-203.62 1453.21,-199.47"/>
</g>
<!-- &#45;3&#45;&gt;430 -->
<g id="edge18" class="edge">
<title>&#45;3&#45;&gt;430</title>
<path fill="none" stroke="green" stroke-width="0.34" d="M1494.66,-239.64C1497.75,-238.53 1501.08,-237.46 1504.24,-236.69 1564.98,-221.92 1739.86,-245.71 1783.24,-200.69 1803.13,-180.05 1803.09,-145.92 1799.68,-121.3"/>
<polygon fill="green" stroke="green" stroke-width="0.34" points="1803.12,-120.7 1798.06,-111.4 1796.22,-121.83 1803.12,-120.7"/>
</g>
<!-- &#45;3&#45;&gt;431 -->
<g id="edge19" class="edge">
<title>&#45;3&#45;&gt;431</title>
<path fill="none" stroke="green" stroke-width="0.31" stroke-dasharray="1,5" d="M1470.13,-239.15C1446.85,-228.5 1395.31,-204.9 1362.82,-190.03"/>
<polygon fill="green" stroke="green" stroke-width="0.31" points="1363.95,-186.7 1353.4,-185.72 1361.04,-193.06 1363.95,-186.7"/>
</g>
<!-- &#45;3&#45;&gt;435 -->
<g id="edge20" class="edge">
<title>&#45;3&#45;&gt;435</title>
<path fill="none" stroke="red" stroke-width="0.12" d="M1469.94,-239.54C1467.11,-238.49 1464.1,-237.47 1461.24,-236.69 1366.87,-211.16 1338.33,-227.23 1244.24,-200.69 1187.92,-184.81 1177.82,-169.48 1122.24,-151.2 1060.8,-130.99 1039.2,-143.9 981.24,-115.2 979.16,-114.17 977.09,-112.97 975.06,-111.69"/>
<polygon fill="red" stroke="red" stroke-width="0.12" points="976.75,-108.59 966.58,-105.6 972.67,-114.28 976.75,-108.59"/>
</g>
<!-- &#45;3&#45;&gt;436 -->
<g id="edge21" class="edge">
<title>&#45;3&#45;&gt;436</title>
<path fill="none" stroke="red" stroke-width="0.18" stroke-dasharray="1,5" d="M1494.65,-239.6C1497.74,-238.5 1501.07,-237.44 1504.24,-236.69 1642.27,-204.24 1681.3,-223.55 1821.24,-200.69 1848.61,-196.22 1879.42,-189.49 1901.63,-184.34"/>
<polygon fill="red" stroke="red" stroke-width="0.18" points="1902.55,-187.71 1911.49,-182.02 1900.95,-180.9 1902.55,-187.71"/>
</g>
<!-- &#45;4 -->
<g id="node4" class="node">
<title>&#45;4</title>
<polygon fill="lightgray" stroke="black" points="1320.24,-254.69 1296.24,-254.69 1296.24,-236.69 1320.24,-236.69 1320.24,-254.69"/>
<text text-anchor="middle" x="1308.24" y="-243.49" font-family="Times New Roman,serif" font-size="9.00">&#45;4</text>
</g>
<!-- &#45;4&#45;&gt;427 -->
<g id="edge22" class="edge">
<title>&#45;4&#45;&gt;427</title>
<path fill="none" stroke="green" stroke-width="0.59" stroke-dasharray="1,5" d="M1320.28,-240.11C1323.5,-238.94 1326.98,-237.73 1330.24,-236.69 1388.19,-218.29 1404.16,-218.73 1462.24,-200.69 1475.02,-196.72 1489,-191.92 1500.94,-187.68"/>
<polygon fill="green" stroke="green" stroke-width="0.59" points="1502.19,-190.95 1510.42,-184.27 1499.83,-184.36 1502.19,-190.95"/>
</g>
<!-- &#45;4&#45;&gt;428 -->
<g id="edge23" class="edge">
<title>&#45;4&#45;&gt;428</title>
<path fill="none" stroke="red" stroke-width="0.32" d="M1304.2,-236.66C1300.18,-228.64 1293.77,-215.86 1287.9,-204.18"/>
<polygon fill="red" stroke="red" stroke-width="0.32" points="1290.99,-202.52 1283.38,-195.15 1284.73,-205.66 1290.99,-202.52"/>
</g>
<!-- &#45;4&#45;&gt;429 -->
<g id="edge24" class="edge">
<title>&#45;4&#45;&gt;429</title>
<path fill="none" stroke="green" stroke-width="0.5" d="M1320.31,-239.36C1337.69,-231.55 1370.58,-216.23 1397.24,-200.69 1400.47,-198.81 1403.81,-196.73 1407.08,-194.61"/>
<polygon fill="green" stroke="green" stroke-width="0.5" points="1409.08,-197.49 1415.45,-189.02 1405.19,-191.66 1409.08,-197.49"/>
</g>
<!-- &#45;4&#45;&gt;430 -->
<g id="edge25" class="edge">
<title>&#45;4&#45;&gt;430</title>
<path fill="none" stroke="red" stroke-width="0.56" d="M1320.54,-236.39C1332.39,-228.09 1350.5,-214.58 1364.24,-200.69 1383.74,-180.97 1378.36,-165.31 1402.24,-151.2 1433.17,-132.91 1674.81,-104.59 1762,-94.87"/>
<polygon fill="red" stroke="red" stroke-width="0.56" points="1762.53,-98.33 1772.08,-93.75 1761.75,-91.37 1762.53,-98.33"/>
</g>
<!-- &#45;4&#45;&gt;431 -->
<g id="edge26" class="edge">
<title>&#45;4&#45;&gt;431</title>
<path fill="none" stroke="green" stroke-width="0.14" d="M1311.32,-236.66C1314.28,-228.96 1318.91,-216.87 1323.25,-205.59"/>
<polygon fill="green" stroke="green" stroke-width="0.14" points="1326.61,-206.59 1326.92,-196 1320.07,-204.08 1326.61,-206.59"/>
</g>
<!-- &#45;4&#45;&gt;433 -->
<g id="edge27" class="edge">
<title>&#45;4&#45;&gt;433</title>
<path fill="none" stroke="green" stroke-width="0.51" d="M1295.95,-239.47C1293.13,-238.43 1290.11,-237.42 1287.24,-236.69 1229.43,-221.98 1062.49,-243.77 1021.24,-200.69 1001.41,-179.99 1001.44,-145.87 1004.83,-121.27"/>
<polygon fill="green" stroke="green" stroke-width="0.51" points="1008.29,-121.81 1006.44,-111.37 1001.38,-120.68 1008.29,-121.81"/>
</g>
<!-- &#45;4&#45;&gt;435 -->
<g id="edge28" class="edge">
<title>&#45;4&#45;&gt;435</title>
<path fill="none" stroke="green" stroke-width="0.59" d="M1295.98,-239.37C1293.15,-238.33 1290.13,-237.35 1287.24,-236.69 1241.8,-226.3 900.75,-235.04 869.24,-200.69 854.36,-184.48 859.26,-170.8 869.24,-151.2 880.37,-129.3 903.71,-113.53 922.65,-103.71"/>
<polygon fill="green" stroke="green" stroke-width="0.59" points="924.34,-106.78 931.79,-99.24 921.27,-100.49 924.34,-106.78"/>
</g>
<!-- &#45;4&#45;&gt;436 -->
<g id="edge29" class="edge">
<title>&#45;4&#45;&gt;436</title>
<path fill="none" stroke="red" stroke-width="0.43" d="M1320.64,-239.57C1323.73,-238.47 1327.07,-237.42 1330.24,-236.69 1440.88,-211.5 1793.63,-186.27 1900.96,-179.01"/>
<polygon fill="red" stroke="red" stroke-width="0.43" points="1901.38,-182.49 1911.13,-178.33 1900.91,-175.51 1901.38,-182.49"/>
</g>
<!-- &#45;5 -->
<g id="node5" class="node">
<title>&#45;5</title>
<polygon fill="lightgray" stroke="black" points="1410.24,-254.69 1386.24,-254.69 1386.24,-236.69 1410.24,-236.69 1410.24,-254.69"/>
<text text-anchor="middle" x="1398.24" y="-243.49" font-family="Times New Roman,serif" font-size="9.00">&#45;5</text>
</g>
<!-- &#45;5&#45;&gt;427 -->
<g id="edge30" class="edge">
<title>&#45;5&#45;&gt;427</title>
<path fill="none" stroke="red" stroke-width="0.2" d="M1410.42,-238.44C1431.18,-227.79 1473.91,-205.85 1502.33,-191.27"/>
<polygon fill="red" stroke="red" stroke-width="0.2" points="1504.06,-194.31 1511.36,-186.63 1500.87,-188.09 1504.06,-194.31"/>
</g>
<!-- &#45;5&#45;&gt;428 -->
<g id="edge31" class="edge">
<title>&#45;5&#45;&gt;428</title>
<path fill="none" stroke="red" stroke-width="0.68" d="M1386.21,-240.11C1367.87,-232.9 1332.13,-217.94 1304.24,-200.69 1302.26,-199.47 1300.27,-198.14 1298.3,-196.76"/>
<polygon fill="red" stroke="red" stroke-width="0.68" points="1300.03,-193.68 1289.93,-190.48 1295.83,-199.28 1300.03,-193.68"/>
</g>
<!-- &#45;5&#45;&gt;429 -->
<g id="edge32" class="edge">
<title>&#45;5&#45;&gt;429</title>
<path fill="none" stroke="red" stroke-width="0.29" d="M1402.27,-236.66C1406.3,-228.64 1412.71,-215.86 1418.57,-204.18"/>
<polygon fill="red" stroke="red" stroke-width="0.29" points="1421.74,-205.66 1423.1,-195.15 1415.49,-202.52 1421.74,-205.66"/>
</g>
<!-- &#45;5&#45;&gt;430 -->
<g id="edge33" class="edge">
<title>&#45;5&#45;&gt;430</title>
<path fill="none" stroke="red" stroke-width="0.91" d="M1410.53,-239.49C1413.35,-238.44 1416.37,-237.44 1419.24,-236.69 1527.91,-208.54 1572.35,-257.4 1669.24,-200.69 1693.17,-186.68 1687.17,-170.34 1707.24,-151.2 1725.16,-134.1 1748.37,-118.28 1766.16,-107.22"/>
<polygon fill="red" stroke="red" stroke-width="0.91" points="1768.19,-110.08 1774.91,-101.88 1764.55,-104.1 1768.19,-110.08"/>
</g>
<!-- &#45;5&#45;&gt;431 -->
<g id="edge34" class="edge">
<title>&#45;5&#45;&gt;431</title>
<path fill="none" stroke="green" stroke-width="0.14" d="M1390.64,-236.66C1382.03,-227.54 1367.62,-212.28 1355.52,-199.47"/>
<polygon fill="green" stroke="green" stroke-width="0.14" points="1357.77,-196.76 1348.36,-191.89 1352.68,-201.56 1357.77,-196.76"/>
</g>
<!-- &#45;5&#45;&gt;433 -->
<g id="edge35" class="edge">
<title>&#45;5&#45;&gt;433</title>
<path fill="none" stroke="red" stroke-width="0.75" d="M1385.91,-239.64C1383.09,-238.59 1380.08,-237.54 1377.24,-236.69 1304.87,-215.2 1281.98,-227.06 1211.24,-200.69 1145.1,-176.05 1074.03,-132.7 1037.01,-108.69"/>
<polygon fill="red" stroke="red" stroke-width="0.75" points="1038.64,-105.57 1028.35,-103.02 1034.8,-111.43 1038.64,-105.57"/>
</g>
<!-- &#45;5&#45;&gt;435 -->
<g id="edge36" class="edge">
<title>&#45;5&#45;&gt;435</title>
<path fill="none" stroke="red" stroke-width="0.12" d="M1385.96,-239.43C1383.14,-238.38 1380.12,-237.39 1377.24,-236.69 1239.02,-203.11 1187.19,-262.81 1059.24,-200.69 1020.22,-181.75 987.19,-142.79 968.29,-116.89"/>
<polygon fill="red" stroke="red" stroke-width="0.12" points="971.08,-114.78 962.43,-108.65 965.38,-118.83 971.08,-114.78"/>
</g>
<!-- &#45;5&#45;&gt;436 -->
<g id="edge37" class="edge">
<title>&#45;5&#45;&gt;436</title>
<path fill="none" stroke="green" stroke-width="0.69" d="M1410.51,-239.44C1413.34,-238.39 1416.36,-237.4 1419.24,-236.69 1442.79,-230.93 1792.84,-192.24 1900.78,-180.39"/>
<polygon fill="green" stroke="green" stroke-width="0.69" points="1901.47,-183.84 1911.02,-179.27 1900.7,-176.88 1901.47,-183.84"/>
</g>
<!-- &#45;6 -->
<g id="node6" class="node">
<title>&#45;6</title>
<polygon fill="lightgray" stroke="black" points="1584.24,-254.69 1560.24,-254.69 1560.24,-236.69 1584.24,-236.69 1584.24,-254.69"/>
<text text-anchor="middle" x="1572.24" y="-243.49" font-family="Times New Roman,serif" font-size="9.00">&#45;6</text>
</g>
<!-- &#45;6&#45;&gt;427 -->
<g id="edge38" class="edge">
<title>&#45;6&#45;&gt;427</title>
<path fill="none" stroke="red" stroke-width="0.35" d="M1567.25,-236.66C1562.13,-228.39 1553.87,-215.07 1546.45,-203.1"/>
<polygon fill="red" stroke="red" stroke-width="0.35" points="1549.25,-200.98 1541.01,-194.32 1543.3,-204.66 1549.25,-200.98"/>
</g>
<!-- &#45;6&#45;&gt;428 -->
<g id="edge39" class="edge">
<title>&#45;6&#45;&gt;428</title>
<path fill="none" stroke="green" stroke-width="0.45" d="M1559.95,-239.5C1557.12,-238.45 1554.11,-237.44 1551.24,-236.69 1443.87,-208.78 1406.11,-244.63 1304.24,-200.69 1301.89,-199.68 1299.57,-198.44 1297.32,-197.05"/>
<polygon fill="green" stroke="green" stroke-width="0.45" points="1299.28,-194.15 1289.1,-191.21 1295.23,-199.86 1299.28,-194.15"/>
</g>
<!-- &#45;6&#45;&gt;429 -->
<g id="edge40" class="edge">
<title>&#45;6&#45;&gt;429</title>
<path fill="none" stroke="green" stroke-width="0.43" d="M1559.81,-238.68C1537.59,-227.93 1490.53,-205.15 1460.2,-190.48"/>
<polygon fill="green" stroke="green" stroke-width="0.43" points="1461.52,-187.23 1450.99,-186.02 1458.47,-193.53 1461.52,-187.23"/>
</g>
<!-- &#45;6&#45;&gt;430 -->
<g id="edge41" class="edge">
<title>&#45;6&#45;&gt;430</title>
<path fill="none" stroke="green" stroke-width="0.38" d="M1584.66,-239.65C1587.75,-238.55 1591.08,-237.47 1594.24,-236.69 1651.94,-222.46 1820.14,-245.46 1859.24,-200.69 1873.71,-184.12 1868.16,-171.3 1859.24,-151.2 1854.74,-141.06 1834.54,-123.51 1817.66,-110.04"/>
<polygon fill="green" stroke="green" stroke-width="0.38" points="1819.75,-107.24 1809.72,-103.81 1815.43,-112.74 1819.75,-107.24"/>
</g>
<!-- &#45;6&#45;&gt;431 -->
<g id="edge42" class="edge">
<title>&#45;6&#45;&gt;431</title>
<path fill="none" stroke="green" stroke-width="0.15" d="M1559.89,-239.69C1557.07,-238.63 1554.07,-237.57 1551.24,-236.69 1486.16,-216.53 1467.59,-219.95 1402.24,-200.69 1389.4,-196.91 1375.41,-192.14 1363.48,-187.87"/>
<polygon fill="green" stroke="green" stroke-width="0.15" points="1364.6,-184.55 1354,-184.43 1362.21,-191.13 1364.6,-184.55"/>
</g>
<!-- &#45;6&#45;&gt;435 -->
<g id="edge43" class="edge">
<title>&#45;6&#45;&gt;435</title>
<path fill="none" stroke="green" stroke-width="0.16" d="M1574.2,-236.44C1578.01,-218.05 1584.13,-173.57 1560.24,-151.2 1513.19,-107.14 1041.43,-138.26 981.24,-115.2 978.85,-114.28 976.5,-113.1 974.23,-111.76"/>
<polygon fill="green" stroke="green" stroke-width="0.16" points="976.19,-108.86 965.99,-106 972.18,-114.6 976.19,-108.86"/>
</g>
<!-- &#45;6&#45;&gt;436 -->
<g id="edge44" class="edge">
<title>&#45;6&#45;&gt;436</title>
<path fill="none" stroke="red" stroke-width="0.51" d="M1584.65,-239.62C1587.74,-238.51 1591.07,-237.45 1594.24,-236.69 1726.17,-205.31 1770.18,-248.11 1897.24,-200.69 1900.75,-199.38 1904.25,-197.65 1907.6,-195.72"/>
<polygon fill="red" stroke="red" stroke-width="0.51" points="1909.53,-198.64 1916.05,-190.29 1905.75,-192.75 1909.53,-198.64"/>
</g>
<!-- &#45;7 -->
<g id="node7" class="node">
<title>&#45;7</title>
<polygon fill="lightgray" stroke="black" points="1099.24,-254.69 1075.24,-254.69 1075.24,-236.69 1099.24,-236.69 1099.24,-254.69"/>
<text text-anchor="middle" x="1087.24" y="-243.49" font-family="Times New Roman,serif" font-size="9.00">&#45;7</text>
</g>
<!-- &#45;7&#45;&gt;427 -->
<g id="edge45" class="edge">
<title>&#45;7&#45;&gt;427</title>
<path fill="none" stroke="green" stroke-width="0.44" stroke-dasharray="1,5" d="M1099.5,-239.4C1102.33,-238.36 1105.35,-237.38 1108.24,-236.69 1262.12,-200.23 1307.86,-235 1462.24,-200.69 1475.4,-197.77 1489.53,-193.1 1501.49,-188.66"/>
<polygon fill="green" stroke="green" stroke-width="0.44" points="1502.86,-191.89 1510.95,-185.04 1500.36,-185.35 1502.86,-191.89"/>
</g>
<!-- &#45;7&#45;&gt;428 -->
<g id="edge46" class="edge">
<title>&#45;7&#45;&gt;428</title>
<path fill="none" stroke="red" stroke-width="0.34" d="M1099.66,-239.92C1102.48,-238.85 1105.46,-237.72 1108.24,-236.69 1156,-219 1211.76,-199.08 1244.97,-187.29"/>
<polygon fill="red" stroke="red" stroke-width="0.34" points="1246.26,-190.55 1254.52,-183.91 1243.92,-183.95 1246.26,-190.55"/>
</g>
<!-- &#45;7&#45;&gt;429 -->
<g id="edge47" class="edge">
<title>&#45;7&#45;&gt;429</title>
<path fill="none" stroke="red" stroke-width="0.39" d="M1099.52,-239.49C1102.35,-238.44 1105.37,-237.43 1108.24,-236.69 1219.51,-208.06 1252.58,-227.77 1364.24,-200.69 1377.34,-197.52 1391.47,-192.8 1403.43,-188.41"/>
<polygon fill="red" stroke="red" stroke-width="0.39" points="1404.78,-191.64 1412.9,-184.84 1402.31,-185.09 1404.78,-191.64"/>
</g>
<!-- &#45;7&#45;&gt;430 -->
<g id="edge48" class="edge">
<title>&#45;7&#45;&gt;430</title>
<path fill="none" stroke="red" stroke-width="0.51" d="M1074.99,-239.3C1072.17,-238.27 1069.14,-237.31 1066.24,-236.69 994.72,-221.5 459.5,-253.79 409.24,-200.69 394.11,-184.72 394.02,-167.08 409.24,-151.2 421.35,-138.55 1557.48,-99.44 1761.91,-92.51"/>
<polygon fill="red" stroke="red" stroke-width="0.51" points="1762.1,-96 1771.98,-92.16 1761.86,-89 1762.1,-96"/>
</g>
<!-- &#45;7&#45;&gt;431 -->
<g id="edge49" class="edge">
<title>&#45;7&#45;&gt;431</title>
<path fill="none" stroke="green" stroke-width="0.32" d="M1099.55,-239.57C1102.37,-238.52 1105.38,-237.49 1108.24,-236.69 1193.53,-212.83 1223.57,-237.26 1304.24,-200.69 1306.57,-199.64 1308.87,-198.36 1311.11,-196.96"/>
<polygon fill="green" stroke="green" stroke-width="0.32" points="1313.22,-199.75 1319.31,-191.09 1309.15,-194.06 1313.22,-199.75"/>
</g>
<!-- &#45;7&#45;&gt;433 -->
<g id="edge50" class="edge">
<title>&#45;7&#45;&gt;433</title>
<path fill="none" stroke="red" stroke-width="0.59" stroke-dasharray="1,5" d="M1075,-239.29C1072.17,-238.25 1069.14,-237.3 1066.24,-236.69 984.46,-219.61 372.88,-261.16 315.24,-200.69 300.06,-184.77 300.11,-167.17 315.24,-151.2 366.21,-97.4 911.93,-141.43 981.24,-115.2 983.63,-114.29 985.98,-113.12 988.25,-111.79"/>
<polygon fill="red" stroke="red" stroke-width="0.59" points="990.3,-114.62 996.5,-106.03 986.29,-108.88 990.3,-114.62"/>
</g>
<!-- &#45;7&#45;&gt;435 -->
<g id="edge51" class="edge">
<title>&#45;7&#45;&gt;435</title>
<path fill="none" stroke="red" stroke-width="0.3" d="M1075,-239.29C1072.17,-238.25 1069.14,-237.3 1066.24,-236.69 982.82,-219.31 359.06,-262.34 300.24,-200.69 285.05,-184.78 285.41,-167.45 300.24,-151.2 342.42,-104.96 795.19,-94.04 919.71,-91.91"/>
<polygon fill="red" stroke="red" stroke-width="0.3" points="919.8,-95.41 929.74,-91.74 919.68,-88.41 919.8,-95.41"/>
</g>
<!-- &#45;8 -->
<g id="node8" class="node">
<title>&#45;8</title>
<polygon fill="lightgray" stroke="black" points="1278.24,-254.69 1254.24,-254.69 1254.24,-236.69 1278.24,-236.69 1278.24,-254.69"/>
<text text-anchor="middle" x="1266.24" y="-243.49" font-family="Times New Roman,serif" font-size="9.00">&#45;8</text>
</g>
<!-- &#45;8&#45;&gt;427 -->
<g id="edge52" class="edge">
<title>&#45;8&#45;&gt;427</title>
<path fill="none" stroke="red" stroke-width="0.36" d="M1278.56,-239.62C1281.38,-238.56 1284.39,-237.52 1287.24,-236.69 1363.48,-214.49 1385.7,-221.83 1462.24,-200.69 1475.23,-197.1 1489.34,-192.33 1501.32,-188"/>
<polygon fill="red" stroke="red" stroke-width="0.36" points="1502.64,-191.24 1510.82,-184.5 1500.22,-184.67 1502.64,-191.24"/>
</g>
<!-- &#45;8&#45;&gt;428 -->
<g id="edge53" class="edge">
<title>&#45;8&#45;&gt;428</title>
<path fill="none" stroke="red" stroke-width="0.33" d="M1267.19,-236.66C1268.05,-229.32 1269.39,-218.02 1270.66,-207.21"/>
<polygon fill="red" stroke="red" stroke-width="0.33" points="1274.16,-207.48 1271.85,-197.14 1267.2,-206.66 1274.16,-207.48"/>
</g>
<!-- &#45;8&#45;&gt;429 -->
<g id="edge54" class="edge">
<title>&#45;8&#45;&gt;429</title>
<path fill="none" stroke="green" stroke-width="1.14" d="M1278.44,-239.71C1304.52,-229.07 1366.28,-203.87 1403.11,-188.83"/>
<polygon fill="green" stroke="green" stroke-width="1.14" points="1404.85,-191.9 1412.79,-184.88 1402.21,-185.42 1404.85,-191.9"/>
</g>
<!-- &#45;8&#45;&gt;430 -->
<g id="edge55" class="edge">
<title>&#45;8&#45;&gt;430</title>
<path fill="none" stroke="red" stroke-width="0.28" d="M1260.16,-236.53C1247.66,-218.69 1222.08,-175.9 1244.24,-151.2 1279.01,-112.43 1650.19,-96.43 1761.72,-92.47"/>
<polygon fill="red" stroke="red" stroke-width="0.28" points="1762.11,-95.96 1771.98,-92.12 1761.86,-88.97 1762.11,-95.96"/>
</g>
<!-- &#45;8&#45;&gt;431 -->
<g id="edge56" class="edge">
<title>&#45;8&#45;&gt;431</title>
<path fill="none" stroke="red" stroke-width="0.42" d="M1274.3,-236.66C1283.6,-227.4 1299.26,-211.8 1312.24,-198.87"/>
<polygon fill="red" stroke="red" stroke-width="0.42" points="1314.89,-201.16 1319.5,-191.63 1309.95,-196.21 1314.89,-201.16"/>
</g>
<!-- &#45;8&#45;&gt;433 -->
<g id="edge57" class="edge">
<title>&#45;8&#45;&gt;433</title>
<path fill="none" stroke="red" stroke-width="0.12" stroke-dasharray="1,5" d="M1253.97,-239.41C1251.14,-238.37 1248.12,-237.38 1245.24,-236.69 1171.78,-219.1 957.74,-256.86 907.24,-200.69 892.53,-184.33 895.57,-169.85 907.24,-151.2 926.63,-120.19 950.27,-134.66 981.24,-115.2 983.2,-113.96 985.19,-112.62 987.16,-111.23"/>
<polygon fill="red" stroke="red" stroke-width="0.12" points="989.63,-113.74 995.52,-104.93 985.42,-108.15 989.63,-113.74"/>
</g>
<!-- &#45;8&#45;&gt;435 -->
<g id="edge58" class="edge">
<title>&#45;8&#45;&gt;435</title>
<path fill="none" stroke="green" stroke-width="0.26" d="M1253.98,-239.34C1251.16,-238.3 1248.13,-237.34 1245.24,-236.69 1191.95,-224.85 792.4,-240.68 755.24,-200.69 740.26,-184.58 742.14,-168.87 755.24,-151.2 793.36,-99.72 874.82,-91.1 919.8,-90.51"/>
<polygon fill="green" stroke="green" stroke-width="0.26" points="919.87,-94.01 929.87,-90.51 919.87,-87.01 919.87,-94.01"/>
</g>
<!-- &#45;8&#45;&gt;436 -->
<g id="edge59" class="edge">
<title>&#45;8&#45;&gt;436</title>
<path fill="none" stroke="green" stroke-width="0.22" d="M1278.5,-239.38C1281.33,-238.34 1284.35,-237.36 1287.24,-236.69 1406.36,-209.03 1788.6,-185.25 1900.92,-178.72"/>
<polygon fill="green" stroke="green" stroke-width="0.22" points="1901.15,-182.21 1910.93,-178.14 1900.74,-175.22 1901.15,-182.21"/>
</g>
<!-- &#45;9 -->
<g id="node9" class="node">
<title>&#45;9</title>
<polygon fill="lightgray" stroke="black" points="1141.24,-254.69 1117.24,-254.69 1117.24,-236.69 1141.24,-236.69 1141.24,-254.69"/>
<text text-anchor="middle" x="1129.24" y="-243.49" font-family="Times New Roman,serif" font-size="9.00">&#45;9</text>
</g>
<!-- 1411 -->
<g id="node26" class="node">
<title>1411</title>
<ellipse fill="white" stroke="black" cx="458.24" cy="-175.94" rx="25" ry="25"/>
<text text-anchor="middle" x="458.24" y="-173.74" font-family="Times New Roman,serif" font-size="9.00">1411</text>
</g>
<!-- &#45;9&#45;&gt;1411 -->
<g id="edge189" class="edge">
<title>&#45;9&#45;&gt;1411</title>
<path fill="none" stroke="green" stroke-width="0.33" d="M1116.99,-239.31C1114.17,-238.27 1111.14,-237.32 1108.24,-236.69 842.27,-179.61 756.88,-281.84 497.24,-200.69 493.7,-199.59 490.15,-198.09 486.72,-196.39"/>
<polygon fill="green" stroke="green" stroke-width="0.33" points="488.42,-193.33 477.98,-191.52 485.01,-199.44 488.42,-193.33"/>
</g>
<!-- &#45;9&#45;&gt;427 -->
<g id="edge60" class="edge">
<title>&#45;9&#45;&gt;427</title>
<path fill="none" stroke="green" stroke-width="0.25" d="M1141.65,-239.61C1144.74,-238.5 1148.07,-237.44 1151.24,-236.69 1286.65,-204.7 1326.62,-231.82 1462.24,-200.69 1475.38,-197.68 1489.51,-192.99 1501.47,-188.57"/>
<polygon fill="green" stroke="green" stroke-width="0.25" points="1502.83,-191.8 1510.93,-184.97 1500.34,-185.26 1502.83,-191.8"/>
</g>
<!-- &#45;9&#45;&gt;428 -->
<g id="edge61" class="edge">
<title>&#45;9&#45;&gt;428</title>
<path fill="none" stroke="green" stroke-width="0.15" d="M1141.6,-238.92C1164.56,-228.19 1214.34,-204.93 1245.96,-190.16"/>
<polygon fill="green" stroke="green" stroke-width="0.15" points="1247.56,-193.27 1255.14,-185.87 1244.6,-186.93 1247.56,-193.27"/>
</g>
<!-- &#45;9&#45;&gt;429 -->
<g id="edge62" class="edge">
<title>&#45;9&#45;&gt;429</title>
<path fill="none" stroke="green" stroke-width="0.56" stroke-dasharray="1,5" d="M1141.68,-239.73C1144.77,-238.62 1148.09,-237.52 1151.24,-236.69 1244.07,-212.19 1271.25,-224.61 1364.24,-200.69 1377.29,-197.34 1391.41,-192.59 1403.39,-188.23"/>
<polygon fill="green" stroke="green" stroke-width="0.56" points="1404.72,-191.47 1412.87,-184.69 1402.27,-184.91 1404.72,-191.47"/>
</g>
<!-- &#45;9&#45;&gt;430 -->
<g id="edge63" class="edge">
<title>&#45;9&#45;&gt;430</title>
<path fill="none" stroke="green" stroke-width="0.52" d="M1116.99,-239.3C1114.17,-238.26 1111.14,-237.31 1108.24,-236.69 1033.78,-220.96 476.62,-255.9 424.24,-200.69 409.1,-184.73 409.02,-167.09 424.24,-151.2 436.21,-138.69 1558.85,-99.51 1761.93,-92.52"/>
<polygon fill="green" stroke="green" stroke-width="0.52" points="1762.06,-96.02 1771.94,-92.18 1761.82,-89.02 1762.06,-96.02"/>
</g>
<!-- &#45;9&#45;&gt;431 -->
<g id="edge64" class="edge">
<title>&#45;9&#45;&gt;431</title>
<path fill="none" stroke="green" stroke-width="0.68" d="M1141.26,-240.03C1144.47,-238.87 1147.97,-237.67 1151.24,-236.69 1218.18,-216.72 1241.35,-231.1 1304.24,-200.69 1306.33,-199.68 1308.4,-198.51 1310.44,-197.23"/>
<polygon fill="green" stroke="green" stroke-width="0.68" points="1312.82,-199.82 1318.92,-191.16 1308.75,-194.13 1312.82,-199.82"/>
</g>
<!-- &#45;9&#45;&gt;433 -->
<g id="edge65" class="edge">
<title>&#45;9&#45;&gt;433</title>
<path fill="none" stroke="red" stroke-width="0.63" d="M1116.99,-239.29C1114.17,-238.26 1111.14,-237.3 1108.24,-236.69 1030.17,-220.29 446.21,-258.49 391.24,-200.69 376.08,-184.75 376.16,-167.22 391.24,-151.2 436.24,-103.36 919.89,-138.66 981.24,-115.2 983.63,-114.28 985.97,-113.11 988.24,-111.77"/>
<polygon fill="red" stroke="red" stroke-width="0.63" points="990.29,-114.6 996.49,-106.01 986.29,-108.86 990.29,-114.6"/>
</g>
<!-- &#45;9&#45;&gt;435 -->
<g id="edge66" class="edge">
<title>&#45;9&#45;&gt;435</title>
<path fill="none" stroke="red" stroke-width="0.67" stroke-dasharray="1,5" d="M1117,-239.29C1114.17,-238.25 1111.14,-237.3 1108.24,-236.69 1028.54,-219.99 432.39,-259.67 376.24,-200.69 361.07,-184.76 361.51,-167.54 376.24,-151.2 412.9,-110.53 804.83,-95.78 919.75,-92.31"/>
<polygon fill="red" stroke="red" stroke-width="0.67" points="920.09,-95.8 929.98,-92.01 919.88,-88.8 920.09,-95.8"/>
</g>
<!-- &#45;9&#45;&gt;436 -->
<g id="edge67" class="edge">
<title>&#45;9&#45;&gt;436</title>
<path fill="none" stroke="red" stroke-width="0.27" d="M1141.63,-239.52C1144.72,-238.42 1148.06,-237.38 1151.24,-236.69 1225.41,-220.68 1763.96,-187.17 1900.72,-178.85"/>
<polygon fill="red" stroke="red" stroke-width="0.27" points="1901.16,-182.33 1910.93,-178.23 1900.74,-175.34 1901.16,-182.33"/>
</g>
<!-- &#45;10 -->
<g id="node10" class="node">
<title>&#45;10</title>
<polygon fill="lightgray" stroke="black" points="1188.74,-254.69 1159.74,-254.69 1159.74,-236.69 1188.74,-236.69 1188.74,-254.69"/>
<text text-anchor="middle" x="1174.24" y="-243.49" font-family="Times New Roman,serif" font-size="9.00">&#45;10</text>
</g>
<!-- &#45;10&#45;&gt;1411 -->
<g id="edge191" class="edge">
<title>&#45;10&#45;&gt;1411</title>
<path fill="none" stroke="red" stroke-width="0.42" d="M1159.68,-239.15C1156.6,-238.18 1153.34,-237.29 1150.24,-236.69 864.72,-182.25 774.83,-286.87 497.24,-200.69 493.7,-199.59 490.15,-198.11 486.72,-196.4"/>
<polygon fill="red" stroke="red" stroke-width="0.42" points="488.41,-193.34 477.97,-191.53 485,-199.46 488.41,-193.34"/>
</g>
<!-- &#45;10&#45;&gt;427 -->
<g id="edge68" class="edge">
<title>&#45;10&#45;&gt;427</title>
<path fill="none" stroke="red" stroke-width="0.44" d="M1188.84,-239.35C1191.91,-238.36 1195.16,-237.41 1198.24,-236.69 1313.57,-209.85 1347.09,-228.35 1462.24,-200.69 1475.35,-197.54 1489.47,-192.84 1501.44,-188.44"/>
<polygon fill="red" stroke="red" stroke-width="0.44" points="1502.79,-191.67 1510.91,-184.86 1500.32,-185.12 1502.79,-191.67"/>
</g>
<!-- &#45;10&#45;&gt;428 -->
<g id="edge69" class="edge">
<title>&#45;10&#45;&gt;428</title>
<path fill="none" stroke="green" stroke-width="0.16" d="M1186.1,-236.66C1201.42,-226.27 1228.51,-207.92 1248.63,-194.3"/>
<polygon fill="green" stroke="green" stroke-width="0.16" points="1250.72,-197.1 1257.04,-188.6 1246.79,-191.31 1250.72,-197.1"/>
</g>
<!-- &#45;10&#45;&gt;429 -->
<g id="edge70" class="edge">
<title>&#45;10&#45;&gt;429</title>
<path fill="none" stroke="green" stroke-width="0.42" d="M1188.88,-239.53C1191.96,-238.53 1195.19,-237.53 1198.24,-236.69 1271.04,-216.73 1291.58,-221.18 1364.24,-200.69 1377.21,-197.04 1391.32,-192.25 1403.3,-187.93"/>
<polygon fill="green" stroke="green" stroke-width="0.42" points="1404.62,-191.17 1412.8,-184.45 1402.21,-184.6 1404.62,-191.17"/>
</g>
<!-- &#45;10&#45;&gt;430 -->
<g id="edge71" class="edge">
<title>&#45;10&#45;&gt;430</title>
<path fill="none" stroke="red" stroke-width="0.27" d="M1174.66,-236.54C1176.11,-217.96 1182.46,-172.43 1210.24,-151.2 1254.33,-117.49 1646.84,-97.83 1761.76,-92.77"/>
<polygon fill="red" stroke="red" stroke-width="0.27" points="1762.16,-96.25 1771.99,-92.32 1761.85,-89.26 1762.16,-96.25"/>
</g>
<!-- &#45;10&#45;&gt;431 -->
<g id="edge72" class="edge">
<title>&#45;10&#45;&gt;431</title>
<path fill="none" stroke="red" stroke-width="0.52" d="M1188.8,-239.84C1222.18,-228.69 1301.59,-202.13 1304.24,-200.69 1306.28,-199.58 1308.32,-198.34 1310.32,-197.01"/>
<polygon fill="red" stroke="red" stroke-width="0.52" points="1312.75,-199.57 1318.76,-190.84 1308.62,-193.92 1312.75,-199.57"/>
</g>
<!-- &#45;10&#45;&gt;433 -->
<g id="edge73" class="edge">
<title>&#45;10&#45;&gt;433</title>
<path fill="none" stroke="red" stroke-width="0.61" stroke-dasharray="1,5" d="M1159.67,-239.18C1156.6,-238.2 1153.34,-237.3 1150.24,-236.69 1090.8,-225.02 647.63,-244.92 606.24,-200.69 591.2,-184.63 591.44,-167.48 606.24,-151.2 662.53,-89.24 903.58,-146.45 981.24,-115.2 983.61,-114.24 985.95,-113.04 988.21,-111.68"/>
<polygon fill="red" stroke="red" stroke-width="0.61" points="990.28,-114.5 996.44,-105.89 986.25,-108.78 990.28,-114.5"/>
</g>
<!-- &#45;10&#45;&gt;435 -->
<g id="edge74" class="edge">
<title>&#45;10&#45;&gt;435</title>
<path fill="none" stroke="green" stroke-width="0.61" d="M1159.68,-239.16C1156.6,-238.19 1153.34,-237.29 1150.24,-236.69 1083.02,-223.76 582.2,-250.49 535.24,-200.69 520.14,-184.69 520.83,-167.82 535.24,-151.2 585.24,-93.5 831.48,-90.21 919.71,-90.93"/>
<polygon fill="green" stroke="green" stroke-width="0.61" points="919.87,-94.43 929.9,-91.03 919.94,-87.43 919.87,-94.43"/>
</g>
<!-- &#45;10&#45;&gt;436 -->
<g id="edge75" class="edge">
<title>&#45;10&#45;&gt;436</title>
<path fill="none" stroke="green" stroke-width="0.36" d="M1188.81,-239.22C1191.89,-238.24 1195.14,-237.33 1198.24,-236.69 1267.84,-222.48 1769.82,-187.91 1900.96,-179.04"/>
<polygon fill="green" stroke="green" stroke-width="0.36" points="1901.38,-182.52 1911.12,-178.36 1900.91,-175.54 1901.38,-182.52"/>
</g>
<!-- 1278 -->
<g id="node36" class="node">
<title>1278</title>
<ellipse fill="white" stroke="black" cx="640.24" cy="-175.94" rx="25" ry="25"/>
<text text-anchor="middle" x="640.24" y="-173.74" font-family="Times New Roman,serif" font-size="9.00">1278</text>
</g>
<!-- &#45;10&#45;&gt;1278 -->
<g id="edge186" class="edge">
<title>&#45;10&#45;&gt;1278</title>
<path fill="none" stroke="green" stroke-width="0.55" d="M1159.67,-239.2C1156.59,-238.22 1153.34,-237.32 1150.24,-236.69 944.44,-195.19 879.07,-265.06 679.24,-200.69 675.71,-199.56 672.17,-198.04 668.74,-196.33"/>
<polygon fill="green" stroke="green" stroke-width="0.55" points="670.44,-193.27 660,-191.44 667.02,-199.38 670.44,-193.27"/>
</g>
<!-- &#45;11 -->
<g id="node11" class="node">
<title>&#45;11</title>
<polygon fill="lightgray" stroke="black" points="1946.74,-254.69 1917.74,-254.69 1917.74,-236.69 1946.74,-236.69 1946.74,-254.69"/>
<text text-anchor="middle" x="1932.24" y="-243.49" font-family="Times New Roman,serif" font-size="9.00">&#45;11</text>
</g>
<!-- &#45;11&#45;&gt;427 -->
<g id="edge76" class="edge">
<title>&#45;11&#45;&gt;427</title>
<path fill="none" stroke="green" stroke-width="0.17" d="M1917.51,-240.86C1911.82,-239.45 1905.25,-237.91 1899.24,-236.69 1774.76,-211.57 1624.98,-189.94 1561.31,-181.15"/>
<polygon fill="green" stroke="green" stroke-width="0.17" points="1561.53,-177.65 1551.15,-179.75 1560.58,-184.58 1561.53,-177.65"/>
</g>
<!-- &#45;11&#45;&gt;429 -->
<g id="edge77" class="edge">
<title>&#45;11&#45;&gt;429</title>
<path fill="none" stroke="green" stroke-width="0.67" d="M1917.55,-240.64C1911.87,-239.2 1905.29,-237.69 1899.24,-236.69 1723.57,-207.64 1674.27,-238.33 1500.24,-200.69 1487.06,-197.84 1472.92,-193.18 1460.97,-188.74"/>
<polygon fill="green" stroke="green" stroke-width="0.67" points="1462.1,-185.43 1451.51,-185.11 1459.59,-191.96 1462.1,-185.43"/>
</g>
<!-- &#45;11&#45;&gt;430 -->
<g id="edge78" class="edge">
<title>&#45;11&#45;&gt;430</title>
<path fill="none" stroke="red" stroke-width="0.19" d="M1946.9,-244.6C2027.71,-243.95 2416.17,-238.86 2451.24,-200.69 2466.12,-184.49 2466.19,-167.33 2451.24,-151.2 2415.17,-112.3 2028,-120.63 1975.24,-115.2 1922.01,-109.71 1860.3,-101.21 1824.14,-96"/>
<polygon fill="red" stroke="red" stroke-width="0.19" points="1824.61,-92.53 1814.21,-94.56 1823.61,-99.46 1824.61,-92.53"/>
</g>
<!-- &#45;11&#45;&gt;431 -->
<g id="edge79" class="edge">
<title>&#45;11&#45;&gt;431</title>
<path fill="none" stroke="red" stroke-width="0.17" d="M1917.56,-240.58C1911.88,-239.14 1905.29,-237.64 1899.24,-236.69 1680.43,-202.49 1619.11,-245.59 1402.24,-200.69 1389.04,-197.96 1374.89,-193.32 1362.94,-188.86"/>
<polygon fill="red" stroke="red" stroke-width="0.17" points="1364.08,-185.54 1353.49,-185.2 1361.55,-192.07 1364.08,-185.54"/>
</g>
<!-- &#45;11&#45;&gt;433 -->
<g id="edge80" class="edge">
<title>&#45;11&#45;&gt;433</title>
<path fill="none" stroke="green" stroke-width="0.38" d="M1946.87,-244.38C2020.25,-242.66 2345.8,-233.2 2375.24,-200.69 2390,-184.39 2390.45,-167.09 2375.24,-151.2 2363.32,-138.74 1245.88,-99.56 1042.73,-92.53"/>
<polygon fill="green" stroke="green" stroke-width="0.38" points="1042.58,-89.02 1032.46,-92.18 1042.34,-96.02 1042.58,-89.02"/>
</g>
<!-- &#45;11&#45;&gt;435 -->
<g id="edge81" class="edge">
<title>&#45;11&#45;&gt;435</title>
<path fill="none" stroke="red" stroke-width="0.33" d="M1946.82,-240.03C1963.19,-233.91 1988.95,-221.44 2000.24,-200.69 2010.75,-181.37 2015.52,-167.02 2000.24,-151.2 1960.9,-110.44 1034.4,-134.75 981.24,-115.2 978.84,-114.31 976.48,-113.16 974.21,-111.83"/>
<polygon fill="red" stroke="red" stroke-width="0.33" points="976.16,-108.93 965.95,-106.1 972.17,-114.68 976.16,-108.93"/>
</g>
<!-- &#45;11&#45;&gt;436 -->
<g id="edge82" class="edge">
<title>&#45;11&#45;&gt;436</title>
<path fill="none" stroke="red" stroke-width="0.13" stroke-dasharray="1,5" d="M1932.24,-236.66C1932.24,-229.38 1932.24,-218.18 1932.24,-207.44"/>
<polygon fill="red" stroke="red" stroke-width="0.13" points="1935.74,-207.43 1932.24,-197.43 1928.74,-207.43 1935.74,-207.43"/>
</g>
<!-- &#45;12 -->
<g id="node12" class="node">
<title>&#45;12</title>
<polygon fill="lightgray" stroke="black" points="1889.74,-254.69 1860.74,-254.69 1860.74,-236.69 1889.74,-236.69 1889.74,-254.69"/>
<text text-anchor="middle" x="1875.24" y="-243.49" font-family="Times New Roman,serif" font-size="9.00">&#45;12</text>
</g>
<!-- &#45;12&#45;&gt;427 -->
<g id="edge83" class="edge">
<title>&#45;12&#45;&gt;427</title>
<path fill="none" stroke="green" stroke-width="0.28" stroke-dasharray="1,5" d="M1860.41,-241.78C1808.28,-231.54 1632.64,-197.05 1561.03,-182.99"/>
<polygon fill="green" stroke="green" stroke-width="0.28" points="1561.34,-179.48 1550.85,-180.99 1559.99,-186.35 1561.34,-179.48"/>
</g>
<!-- &#45;12&#45;&gt;428 -->
<g id="edge84" class="edge">
<title>&#45;12&#45;&gt;428</title>
<path fill="none" stroke="green" stroke-width="0.13" d="M1860.58,-241.53C1852.29,-239.85 1841.73,-237.9 1832.24,-236.69 1715.56,-221.91 1413.93,-243.09 1304.24,-200.69 1301.85,-199.77 1299.51,-198.59 1297.24,-197.25"/>
<polygon fill="green" stroke="green" stroke-width="0.13" points="1299.2,-194.34 1289,-191.48 1295.18,-200.08 1299.2,-194.34"/>
</g>
<!-- &#45;12&#45;&gt;429 -->
<g id="edge85" class="edge">
<title>&#45;12&#45;&gt;429</title>
<path fill="none" stroke="green" stroke-width="0.62" d="M1860.56,-241.68C1852.27,-240.04 1841.7,-238.09 1832.24,-236.69 1685.4,-215.1 1645.02,-233.37 1500.24,-200.69 1487.09,-197.72 1472.95,-193.04 1460.99,-188.62"/>
<polygon fill="green" stroke="green" stroke-width="0.62" points="1462.12,-185.31 1451.53,-185.01 1459.63,-191.84 1462.12,-185.31"/>
</g>
<!-- &#45;12&#45;&gt;430 -->
<g id="edge86" class="edge">
<title>&#45;12&#45;&gt;430</title>
<path fill="none" stroke="green" stroke-width="0.14" d="M1890.04,-240.71C1895.97,-239.25 1902.89,-237.7 1909.24,-236.69 1956.37,-229.21 2304.94,-235.82 2337.24,-200.69 2352.13,-184.5 2352,-167.5 2337.24,-151.2 2310.11,-121.23 2015.39,-119.81 1975.24,-115.2 1922.08,-109.09 1860.35,-100.77 1824.17,-95.78"/>
<polygon fill="green" stroke="green" stroke-width="0.14" points="1824.62,-92.31 1814.23,-94.4 1823.65,-99.24 1824.62,-92.31"/>
</g>
<!-- &#45;12&#45;&gt;433 -->
<g id="edge87" class="edge">
<title>&#45;12&#45;&gt;433</title>
<path fill="none" stroke="green" stroke-width="0.16" d="M1889.92,-241.25C1925,-232.88 2011.33,-211.38 2019.24,-200.69 2032.32,-183.01 2034.33,-167.21 2019.24,-151.2 1984.9,-114.76 1208.9,-95.77 1042.48,-92.11"/>
<polygon fill="green" stroke="green" stroke-width="0.16" points="1042.49,-88.61 1032.42,-91.89 1042.34,-95.6 1042.49,-88.61"/>
</g>
<!-- &#45;12&#45;&gt;436 -->
<g id="edge88" class="edge">
<title>&#45;12&#45;&gt;436</title>
<path fill="none" stroke="green" stroke-width="0.14" d="M1882,-236.66C1889.45,-227.8 1901.78,-213.14 1912.36,-200.57"/>
<polygon fill="green" stroke="green" stroke-width="0.14" points="1915.23,-202.59 1918.99,-192.69 1909.88,-198.09 1915.23,-202.59"/>
</g>
<!-- &#45;13 -->
<g id="node13" class="node">
<title>&#45;13</title>
<polygon fill="lightgray" stroke="black" points="1235.74,-254.69 1206.74,-254.69 1206.74,-236.69 1235.74,-236.69 1235.74,-254.69"/>
<text text-anchor="middle" x="1221.24" y="-243.49" font-family="Times New Roman,serif" font-size="9.00">&#45;13</text>
</g>
<!-- &#45;13&#45;&gt;427 -->
<g id="edge89" class="edge">
<title>&#45;13&#45;&gt;427</title>
<path fill="none" stroke="red" stroke-width="0.23" d="M1235.85,-239.42C1238.93,-238.42 1242.17,-237.45 1245.24,-236.69 1340.13,-213.16 1367.52,-224.9 1462.24,-200.69 1475.3,-197.36 1489.42,-192.62 1501.39,-188.25"/>
<polygon fill="red" stroke="red" stroke-width="0.23" points="1502.73,-191.49 1510.87,-184.71 1500.28,-184.93 1502.73,-191.49"/>
</g>
<!-- &#45;13&#45;&gt;428 -->
<g id="edge90" class="edge">
<title>&#45;13&#45;&gt;428</title>
<path fill="none" stroke="green" stroke-width="0.85" d="M1227.53,-236.66C1234.3,-228 1245.41,-213.8 1255.09,-201.42"/>
<polygon fill="green" stroke="green" stroke-width="0.85" points="1258.1,-203.26 1261.5,-193.23 1252.58,-198.95 1258.1,-203.26"/>
</g>
<!-- &#45;13&#45;&gt;429 -->
<g id="edge91" class="edge">
<title>&#45;13&#45;&gt;429</title>
<path fill="none" stroke="green" stroke-width="0.2" d="M1235.94,-239.72C1239.01,-238.7 1242.22,-237.65 1245.24,-236.69 1297.9,-219.96 1311.7,-217.81 1364.24,-200.69 1376.96,-196.55 1390.93,-191.72 1402.89,-187.5"/>
<polygon fill="green" stroke="green" stroke-width="0.2" points="1404.12,-190.77 1412.38,-184.13 1401.78,-184.18 1404.12,-190.77"/>
</g>
<!-- &#45;13&#45;&gt;430 -->
<g id="edge92" class="edge">
<title>&#45;13&#45;&gt;430</title>
<path fill="none" stroke="green" stroke-width="0.15" d="M1219.15,-236.54C1215.03,-218.36 1208.14,-174.28 1231.24,-151.2 1269.01,-113.44 1649.05,-96.69 1761.84,-92.52"/>
<polygon fill="green" stroke="green" stroke-width="0.15" points="1762.04,-96.02 1771.9,-92.16 1761.78,-89.02 1762.04,-96.02"/>
</g>
<!-- &#45;13&#45;&gt;431 -->
<g id="edge93" class="edge">
<title>&#45;13&#45;&gt;431</title>
<path fill="none" stroke="green" stroke-width="0.56" stroke-dasharray="1,5" d="M1235.79,-237.98C1252.72,-229.94 1281.3,-215.68 1304.24,-200.69 1306.18,-199.42 1308.15,-198.06 1310.11,-196.65"/>
<polygon fill="green" stroke="green" stroke-width="0.56" points="1312.6,-199.15 1318.45,-190.32 1308.37,-193.58 1312.6,-199.15"/>
</g>
<!-- &#45;13&#45;&gt;433 -->
<g id="edge94" class="edge">
<title>&#45;13&#45;&gt;433</title>
<path fill="none" stroke="green" stroke-width="0.58" d="M1206.29,-238.92C1203.64,-238.06 1200.88,-237.27 1198.24,-236.69 1118.2,-219.11 886.28,-261.4 831.24,-200.69 816.46,-184.4 817.62,-168.47 831.24,-151.2 873.68,-97.36 919.58,-145.18 981.24,-115.2 983.32,-114.18 985.4,-113 987.43,-111.72"/>
<polygon fill="green" stroke="green" stroke-width="0.58" points="989.82,-114.32 995.92,-105.65 985.75,-108.62 989.82,-114.32"/>
</g>
<!-- &#45;13&#45;&gt;435 -->
<g id="edge95" class="edge">
<title>&#45;13&#45;&gt;435</title>
<path fill="none" stroke="red" stroke-width="0.76" d="M1206.31,-238.84C1203.65,-237.99 1200.89,-237.22 1198.24,-236.69 1133.62,-223.75 651.4,-248.68 606.24,-200.69 513.91,-102.58 818.32,-92.18 919.61,-91.39"/>
<polygon fill="red" stroke="red" stroke-width="0.76" points="919.86,-94.89 929.84,-91.34 919.82,-87.89 919.86,-94.89"/>
</g>
<!-- &#45;13&#45;&gt;436 -->
<g id="edge96" class="edge">
<title>&#45;13&#45;&gt;436</title>
<path fill="none" stroke="green" stroke-width="0.19" d="M1235.81,-239.23C1238.89,-238.25 1242.14,-237.33 1245.24,-236.69 1373.42,-210.14 1783.88,-185.36 1900.86,-178.69"/>
<polygon fill="green" stroke="green" stroke-width="0.19" points="1901.15,-182.18 1910.93,-178.12 1900.75,-175.19 1901.15,-182.18"/>
</g>
<!-- &#45;13&#45;&gt;1278 -->
<g id="edge192" class="edge">
<title>&#45;13&#45;&gt;1278</title>
<path fill="none" stroke="green" stroke-width="0.14" d="M1206.3,-238.86C1203.65,-238.01 1200.89,-237.24 1198.24,-236.69 971.72,-190.3 899.57,-270.81 679.24,-200.69 675.71,-199.57 672.16,-198.06 668.73,-196.35"/>
<polygon fill="green" stroke="green" stroke-width="0.14" points="670.43,-193.29 659.99,-191.47 667.01,-199.4 670.43,-193.29"/>
</g>
<!-- &#45;14 -->
<g id="node14" class="node">
<title>&#45;14</title>
<polygon fill="lightgray" stroke="black" points="1631.74,-254.69 1602.74,-254.69 1602.74,-236.69 1631.74,-236.69 1631.74,-254.69"/>
<text text-anchor="middle" x="1617.24" y="-243.49" font-family="Times New Roman,serif" font-size="9.00">&#45;14</text>
</g>
<!-- &#45;14&#45;&gt;427 -->
<g id="edge97" class="edge">
<title>&#45;14&#45;&gt;427</title>
<path fill="none" stroke="red" stroke-width="0.25" d="M1606.92,-236.66C1594.15,-226.72 1572,-209.47 1554.78,-196.06"/>
<polygon fill="red" stroke="red" stroke-width="0.25" points="1556.83,-193.21 1546.79,-189.83 1552.52,-198.74 1556.83,-193.21"/>
</g>
<!-- &#45;14&#45;&gt;428 -->
<g id="edge98" class="edge">
<title>&#45;14&#45;&gt;428</title>
<path fill="none" stroke="red" stroke-width="0.23" stroke-dasharray="1,5" d="M1602.64,-239.32C1599.57,-238.33 1596.32,-237.39 1593.24,-236.69 1467,-208.09 1423.62,-250.71 1304.24,-200.69 1301.88,-199.71 1299.55,-198.48 1297.3,-197.1"/>
<polygon fill="red" stroke="red" stroke-width="0.23" points="1299.26,-194.2 1289.07,-191.29 1295.22,-199.92 1299.26,-194.2"/>
</g>
<!-- &#45;14&#45;&gt;429 -->
<g id="edge99" class="edge">
<title>&#45;14&#45;&gt;429</title>
<path fill="none" stroke="red" stroke-width="0.16" stroke-dasharray="1,5" d="M1602.72,-239.38C1572.33,-228.25 1501.52,-202.32 1461.37,-187.61"/>
<polygon fill="red" stroke="red" stroke-width="0.16" points="1462.46,-184.29 1451.87,-184.13 1460.05,-190.86 1462.46,-184.29"/>
</g>
<!-- &#45;14&#45;&gt;430 -->
<g id="edge100" class="edge">
<title>&#45;14&#45;&gt;430</title>
<path fill="none" stroke="green" stroke-width="0.2" d="M1631.82,-239.29C1634.9,-238.3 1638.15,-237.37 1641.24,-236.69 1711.34,-221.26 1914.39,-254.2 1962.24,-200.69 1976.9,-184.29 1974.94,-169.16 1962.24,-151.2 1931.05,-107.09 1864.45,-95.33 1824.81,-92.32"/>
<polygon fill="green" stroke="green" stroke-width="0.2" points="1824.83,-88.82 1814.63,-91.7 1824.4,-95.81 1824.83,-88.82"/>
</g>
<!-- &#45;14&#45;&gt;431 -->
<g id="edge101" class="edge">
<title>&#45;14&#45;&gt;431</title>
<path fill="none" stroke="green" stroke-width="0.13" d="M1602.61,-239.47C1599.54,-238.47 1596.3,-237.49 1593.24,-236.69 1509.63,-214.99 1485.69,-223 1402.24,-200.69 1389.21,-197.21 1375.1,-192.45 1363.12,-188.11"/>
<polygon fill="green" stroke="green" stroke-width="0.13" points="1364.23,-184.78 1353.63,-184.59 1361.8,-191.35 1364.23,-184.78"/>
</g>
<!-- &#45;14&#45;&gt;433 -->
<g id="edge102" class="edge">
<title>&#45;14&#45;&gt;433</title>
<path fill="none" stroke="red" stroke-width="0.21" d="M1622.28,-236.45C1632.56,-218.46 1653.2,-175.37 1631.24,-151.2 1591.32,-107.25 1163.58,-94.73 1042.82,-92.06"/>
<polygon fill="red" stroke="red" stroke-width="0.21" points="1042.82,-88.56 1032.74,-91.85 1042.67,-95.56 1042.82,-88.56"/>
</g>
<!-- &#45;14&#45;&gt;435 -->
<g id="edge103" class="edge">
<title>&#45;14&#45;&gt;435</title>
<path fill="none" stroke="green" stroke-width="0.28" d="M1616.97,-236.47C1615.85,-217.73 1610.26,-171.9 1582.24,-151.2 1474.62,-71.7 1106.23,-162.92 981.24,-115.2 978.85,-114.28 976.5,-113.11 974.23,-111.77"/>
<polygon fill="green" stroke="green" stroke-width="0.28" points="976.19,-108.87 965.98,-106.01 972.18,-114.61 976.19,-108.87"/>
</g>
<!-- &#45;14&#45;&gt;436 -->
<g id="edge104" class="edge">
<title>&#45;14&#45;&gt;436</title>
<path fill="none" stroke="red" stroke-width="0.29" d="M1631.84,-239.36C1634.91,-238.37 1638.16,-237.42 1641.24,-236.69 1753.09,-210.42 1790.03,-242.02 1897.24,-200.69 1900.73,-199.35 1904.22,-197.59 1907.57,-195.65"/>
<polygon fill="red" stroke="red" stroke-width="0.29" points="1909.51,-198.57 1916.02,-190.21 1905.72,-192.68 1909.51,-198.57"/>
</g>
<!-- &#45;15 -->
<g id="node15" class="node">
<title>&#45;15</title>
<polygon fill="lightgray" stroke="black" points="1541.74,-254.69 1512.74,-254.69 1512.74,-236.69 1541.74,-236.69 1541.74,-254.69"/>
<text text-anchor="middle" x="1527.24" y="-243.49" font-family="Times New Roman,serif" font-size="9.00">&#45;15</text>
</g>
<!-- &#45;15&#45;&gt;427 -->
<g id="edge105" class="edge">
<title>&#45;15&#45;&gt;427</title>
<path fill="none" stroke="red" stroke-width="0.18" d="M1527.59,-236.66C1527.92,-229.32 1528.42,-218.02 1528.9,-207.21"/>
<polygon fill="red" stroke="red" stroke-width="0.18" points="1532.4,-207.29 1529.34,-197.14 1525.4,-206.98 1532.4,-207.29"/>
</g>
<!-- &#45;15&#45;&gt;428 -->
<g id="edge106" class="edge">
<title>&#45;15&#45;&gt;428</title>
<path fill="none" stroke="red" stroke-width="0.42" d="M1512.61,-239.45C1509.54,-238.45 1506.3,-237.48 1503.24,-236.69 1416.16,-214.43 1386.15,-237.69 1304.24,-200.69 1301.91,-199.64 1299.6,-198.37 1297.36,-196.96"/>
<polygon fill="red" stroke="red" stroke-width="0.42" points="1299.33,-194.07 1289.16,-191.09 1295.25,-199.76 1299.33,-194.07"/>
</g>
<!-- &#45;15&#45;&gt;429 -->
<g id="edge107" class="edge">
<title>&#45;15&#45;&gt;429</title>
<path fill="none" stroke="red" stroke-width="0.16" d="M1515.97,-236.66C1501.65,-226.44 1476.51,-208.52 1457.5,-194.96"/>
<polygon fill="red" stroke="red" stroke-width="0.16" points="1459.44,-192.04 1449.26,-189.09 1455.37,-197.74 1459.44,-192.04"/>
</g>
<!-- &#45;15&#45;&gt;430 -->
<g id="edge108" class="edge">
<title>&#45;15&#45;&gt;430</title>
<path fill="none" stroke="red" stroke-width="0.17" d="M1541.83,-239.34C1544.91,-238.35 1548.16,-237.41 1551.24,-236.69 1610.21,-223.06 1781.36,-246.24 1821.24,-200.69 1841.71,-177.31 1826.03,-140.93 1811.16,-116.65"/>
<polygon fill="red" stroke="red" stroke-width="0.17" points="1813.94,-114.5 1805.58,-108 1808.06,-118.3 1813.94,-114.5"/>
</g>
<!-- &#45;15&#45;&gt;431 -->
<g id="edge109" class="edge">
<title>&#45;15&#45;&gt;431</title>
<path fill="none" stroke="green" stroke-width="0.22" d="M1512.73,-239.6C1481.15,-228.51 1405.63,-202 1363.64,-187.27"/>
<polygon fill="green" stroke="green" stroke-width="0.22" points="1364.58,-183.89 1353.99,-183.88 1362.26,-190.49 1364.58,-183.89"/>
</g>
<!-- &#45;15&#45;&gt;433 -->
<g id="edge110" class="edge">
<title>&#45;15&#45;&gt;433</title>
<path fill="none" stroke="green" stroke-width="0.44" d="M1522.16,-236.63C1508.44,-214.93 1471.01,-156.55 1462.24,-151.2 1426.37,-129.33 1138.57,-102.54 1042.4,-94.11"/>
<polygon fill="green" stroke="green" stroke-width="0.44" points="1042.68,-90.62 1032.42,-93.24 1042.08,-97.6 1042.68,-90.62"/>
</g>
<!-- &#45;16 -->
<g id="node16" class="node">
<title>&#45;16</title>
<polygon fill="lightgray" stroke="black" points="1735.74,-254.69 1706.74,-254.69 1706.74,-236.69 1735.74,-236.69 1735.74,-254.69"/>
<text text-anchor="middle" x="1721.24" y="-243.49" font-family="Times New Roman,serif" font-size="9.00">&#45;16</text>
</g>
<!-- &#45;16&#45;&gt;427 -->
<g id="edge111" class="edge">
<title>&#45;16&#45;&gt;427</title>
<path fill="none" stroke="red" stroke-width="0.5" d="M1706.57,-239.49C1675.17,-228.35 1600.98,-202.04 1559.54,-187.34"/>
<polygon fill="red" stroke="red" stroke-width="0.5" points="1560.59,-184 1549.99,-183.95 1558.25,-190.59 1560.59,-184"/>
</g>
<!-- &#45;16&#45;&gt;428 -->
<g id="edge112" class="edge">
<title>&#45;16&#45;&gt;428</title>
<path fill="none" stroke="green" stroke-width="0.32" d="M1706.55,-240.65C1700.86,-239.21 1694.28,-237.7 1688.24,-236.69 1519.17,-208.43 1463.33,-264.52 1304.24,-200.69 1301.86,-199.74 1299.53,-198.54 1297.27,-197.18"/>
<polygon fill="green" stroke="green" stroke-width="0.32" points="1299.22,-194.28 1289.03,-191.39 1295.2,-200.01 1299.22,-194.28"/>
</g>
<!-- &#45;16&#45;&gt;429 -->
<g id="edge113" class="edge">
<title>&#45;16&#45;&gt;429</title>
<path fill="none" stroke="red" stroke-width="0.32" d="M1706.49,-240.96C1700.8,-239.56 1694.23,-237.99 1688.24,-236.69 1605.1,-218.67 1582.39,-222.78 1500.24,-200.69 1487.22,-197.19 1473.1,-192.43 1461.13,-188.09"/>
<polygon fill="red" stroke="red" stroke-width="0.32" points="1462.23,-184.76 1451.64,-184.58 1459.8,-191.33 1462.23,-184.76"/>
</g>
<!-- &#45;16&#45;&gt;430 -->
<g id="edge114" class="edge">
<title>&#45;16&#45;&gt;430</title>
<path fill="none" stroke="green" stroke-width="0.37" d="M1735.96,-242.71C1748.93,-240.99 1768.31,-238.51 1785.24,-236.69 1829.61,-231.93 2155.13,-233.63 2185.24,-200.69 2200.08,-184.46 2199.57,-167.88 2185.24,-151.2 2179.31,-144.3 1915.91,-108.06 1824.27,-95.63"/>
<polygon fill="green" stroke="green" stroke-width="0.37" points="1824.6,-92.14 1814.22,-94.27 1823.66,-99.08 1824.6,-92.14"/>
</g>
<!-- &#45;16&#45;&gt;431 -->
<g id="edge115" class="edge">
<title>&#45;16&#45;&gt;431</title>
<path fill="none" stroke="red" stroke-width="0.18" d="M1706.53,-240.75C1700.84,-239.33 1694.27,-237.8 1688.24,-236.69 1562.23,-213.56 1526.96,-229.98 1402.24,-200.69 1389.11,-197.61 1374.98,-192.91 1363.02,-188.51"/>
<polygon fill="red" stroke="red" stroke-width="0.18" points="1364.14,-185.19 1353.55,-184.92 1361.66,-191.74 1364.14,-185.19"/>
</g>
<!-- &#45;16&#45;&gt;433 -->
<g id="edge116" class="edge">
<title>&#45;16&#45;&gt;433</title>
<path fill="none" stroke="green" stroke-width="0.44" d="M1735.82,-242.75C1789.47,-235.55 1973.17,-210.24 1981.24,-200.69 1995.44,-183.89 1996.31,-167.22 1981.24,-151.2 1948.33,-116.2 1206.14,-96.18 1042.83,-92.19"/>
<polygon fill="green" stroke="green" stroke-width="0.44" points="1042.59,-88.68 1032.5,-91.94 1042.42,-95.68 1042.59,-88.68"/>
</g>
<!-- &#45;16&#45;&gt;435 -->
<g id="edge117" class="edge">
<title>&#45;16&#45;&gt;435</title>
<path fill="none" stroke="red" stroke-width="0.33" d="M1735.8,-242.56C1786.82,-235.01 1954.85,-209.55 1962.24,-200.69 1976.33,-183.8 1977.51,-167.03 1962.24,-151.2 1886.54,-72.67 1083.58,-152.92 981.24,-115.2 978.84,-114.31 976.48,-113.16 974.21,-111.83"/>
<polygon fill="red" stroke="red" stroke-width="0.33" points="976.16,-108.93 965.95,-106.09 972.17,-114.67 976.16,-108.93"/>
</g>
<!-- &#45;16&#45;&gt;436 -->
<g id="edge118" class="edge">
<title>&#45;16&#45;&gt;436</title>
<path fill="none" stroke="red" stroke-width="0.33" d="M1735.95,-242.8C1766.91,-238.43 1840.6,-226.03 1897.24,-200.69 1900.66,-199.16 1904.1,-197.3 1907.43,-195.3"/>
<polygon fill="red" stroke="red" stroke-width="0.33" points="1909.39,-198.2 1915.85,-189.81 1905.56,-192.34 1909.39,-198.2"/>
</g>
<!-- &#45;17 -->
<g id="node17" class="node">
<title>&#45;17</title>
<polygon fill="lightgray" stroke="black" points="1367.74,-254.69 1338.74,-254.69 1338.74,-236.69 1367.74,-236.69 1367.74,-254.69"/>
<text text-anchor="middle" x="1353.24" y="-243.49" font-family="Times New Roman,serif" font-size="9.00">&#45;17</text>
</g>
<!-- &#45;17&#45;&gt;427 -->
<g id="edge119" class="edge">
<title>&#45;17&#45;&gt;427</title>
<path fill="none" stroke="red" stroke-width="0.3" d="M1368.02,-239.03C1397.24,-227.85 1462.82,-202.75 1501.05,-188.12"/>
<polygon fill="red" stroke="red" stroke-width="0.3" points="1502.51,-191.31 1510.59,-184.46 1500,-184.77 1502.51,-191.31"/>
</g>
<!-- &#45;17&#45;&gt;428 -->
<g id="edge120" class="edge">
<title>&#45;17&#45;&gt;428</title>
<path fill="none" stroke="red" stroke-width="0.37" d="M1343.86,-236.66C1332.52,-226.93 1313.01,-210.19 1297.52,-196.91"/>
<polygon fill="red" stroke="red" stroke-width="0.37" points="1299.72,-194.19 1289.85,-190.34 1295.17,-199.5 1299.72,-194.19"/>
</g>
<!-- &#45;17&#45;&gt;429 -->
<g id="edge121" class="edge">
<title>&#45;17&#45;&gt;429</title>
<path fill="none" stroke="green" stroke-width="0.7" d="M1362.61,-236.66C1373.96,-226.93 1393.47,-210.19 1408.96,-196.91"/>
<polygon fill="green" stroke="green" stroke-width="0.7" points="1411.31,-199.5 1416.62,-190.34 1406.75,-194.19 1411.31,-199.5"/>
</g>
<!-- &#45;17&#45;&gt;430 -->
<g id="edge122" class="edge">
<title>&#45;17&#45;&gt;430</title>
<path fill="none" stroke="green" stroke-width="0.17" d="M1367.87,-239.49C1370.94,-238.49 1374.18,-237.5 1377.24,-236.69 1457.39,-215.54 1481.41,-226.34 1560.24,-200.69 1581.67,-193.72 1723.87,-124.86 1744.24,-115.2 1750.89,-112.04 1758.04,-108.6 1764.76,-105.35"/>
<polygon fill="green" stroke="green" stroke-width="0.17" points="1766.72,-108.28 1774.19,-100.77 1763.67,-101.99 1766.72,-108.28"/>
</g>
<!-- &#45;17&#45;&gt;431 -->
<g id="edge123" class="edge">
<title>&#45;17&#45;&gt;431</title>
<path fill="none" stroke="green" stroke-width="0.12" d="M1350.98,-236.66C1348.88,-229.14 1345.6,-217.45 1342.5,-206.4"/>
<polygon fill="green" stroke="green" stroke-width="0.12" points="1345.81,-205.25 1339.74,-196.57 1339.07,-207.14 1345.81,-205.25"/>
</g>
<!-- &#45;17&#45;&gt;433 -->
<g id="edge124" class="edge">
<title>&#45;17&#45;&gt;433</title>
<path fill="none" stroke="green" stroke-width="0.24" d="M1338.63,-239.39C1335.55,-238.4 1332.31,-237.44 1329.24,-236.69 1227.83,-212.11 1187.32,-253.35 1097.24,-200.69 1064.39,-181.49 1039.38,-144.51 1025.02,-118.93"/>
<polygon fill="green" stroke="green" stroke-width="0.24" points="1028.06,-117.2 1020.21,-110.08 1021.91,-120.54 1028.06,-117.2"/>
</g>
<!-- &#45;17&#45;&gt;435 -->
<g id="edge125" class="edge">
<title>&#45;17&#45;&gt;435</title>
<path fill="none" stroke="green" stroke-width="0.55" d="M1338.66,-239.25C1335.58,-238.26 1332.33,-237.35 1329.24,-236.69 1245.37,-219.03 1002.94,-264.06 945.24,-200.69 925.68,-179.22 931.63,-144.41 939.59,-119.87"/>
<polygon fill="green" stroke="green" stroke-width="0.55" points="942.92,-120.97 942.94,-110.37 936.31,-118.64 942.92,-120.97"/>
</g>
<!-- &#45;17&#45;&gt;436 -->
<g id="edge126" class="edge">
<title>&#45;17&#45;&gt;436</title>
<path fill="none" stroke="red" stroke-width="0.23" d="M1367.82,-239.28C1370.9,-238.29 1374.15,-237.37 1377.24,-236.69 1428.61,-225.5 1791.75,-190.35 1901.13,-179.9"/>
<polygon fill="red" stroke="red" stroke-width="0.23" points="1901.57,-183.37 1911.19,-178.94 1900.91,-176.41 1901.57,-183.37"/>
</g>
<!-- &#45;18 -->
<g id="node18" class="node">
<title>&#45;18</title>
<polygon fill="lightgray" stroke="black" points="1822.74,-254.69 1793.74,-254.69 1793.74,-236.69 1822.74,-236.69 1822.74,-254.69"/>
<text text-anchor="middle" x="1808.24" y="-243.49" font-family="Times New Roman,serif" font-size="9.00">&#45;18</text>
</g>
<!-- &#45;18&#45;&gt;427 -->
<g id="edge127" class="edge">
<title>&#45;18&#45;&gt;427</title>
<path fill="none" stroke="red" stroke-width="0.3" d="M1793.68,-241.15C1750.16,-230.54 1620.33,-198.9 1560.74,-184.38"/>
<polygon fill="red" stroke="red" stroke-width="0.3" points="1561.35,-180.92 1550.8,-181.96 1559.69,-187.72 1561.35,-180.92"/>
</g>
<!-- &#45;18&#45;&gt;428 -->
<g id="edge128" class="edge">
<title>&#45;18&#45;&gt;428</title>
<path fill="none" stroke="red" stroke-width="0.4" stroke-dasharray="1,5" d="M1793.49,-242.63C1780.74,-240.89 1761.8,-238.42 1745.24,-236.69 1647.44,-226.5 1395.71,-236.76 1304.24,-200.69 1301.86,-199.76 1299.52,-198.56 1297.25,-197.21"/>
<polygon fill="red" stroke="red" stroke-width="0.4" points="1299.21,-194.31 1289.01,-191.43 1295.19,-200.04 1299.21,-194.31"/>
</g>
<!-- &#45;18&#45;&gt;429 -->
<g id="edge129" class="edge">
<title>&#45;18&#45;&gt;429</title>
<path fill="none" stroke="green" stroke-width="0.26" d="M1793.39,-242.74C1735.82,-235.17 1529.1,-207.72 1500.24,-200.69 1487.14,-197.5 1473.01,-192.79 1461.05,-188.4"/>
<polygon fill="green" stroke="green" stroke-width="0.26" points="1462.17,-185.08 1451.57,-184.83 1459.7,-191.63 1462.17,-185.08"/>
</g>
<!-- &#45;18&#45;&gt;430 -->
<g id="edge130" class="edge">
<title>&#45;18&#45;&gt;430</title>
<path fill="none" stroke="red" stroke-width="0.22" d="M1822.85,-241.69C1831.39,-240.02 1842.39,-238.02 1852.24,-236.69 1897.45,-230.61 2230.43,-234.34 2261.24,-200.69 2276.1,-184.47 2275.79,-167.69 2261.24,-151.2 2218.86,-103.16 2038.77,-123.34 1975.24,-115.2 1922.16,-108.39 1860.41,-100.3 1824.2,-95.53"/>
<polygon fill="red" stroke="red" stroke-width="0.22" points="1824.62,-92.06 1814.25,-94.22 1823.71,-99 1824.62,-92.06"/>
</g>
<!-- &#45;18&#45;&gt;431 -->
<g id="edge131" class="edge">
<title>&#45;18&#45;&gt;431</title>
<path fill="none" stroke="red" stroke-width="0.3" d="M1793.74,-242.76C1780.97,-241.08 1761.88,-238.62 1745.24,-236.69 1592.98,-219.04 1551.82,-234.19 1402.24,-200.69 1389.08,-197.75 1374.95,-193.07 1362.99,-188.64"/>
<polygon fill="red" stroke="red" stroke-width="0.3" points="1364.12,-185.33 1353.53,-185.03 1361.62,-191.87 1364.12,-185.33"/>
</g>
<!-- &#45;18&#45;&gt;433 -->
<g id="edge132" class="edge">
<title>&#45;18&#45;&gt;433</title>
<path fill="none" stroke="red" stroke-width="0.2" d="M1822.8,-241.87C1866.62,-233.3 1994.59,-207.78 2000.24,-200.69 2013.95,-183.49 2015.32,-167.21 2000.24,-151.2 1966.63,-115.5 1208.33,-95.99 1042.91,-92.15"/>
<polygon fill="red" stroke="red" stroke-width="0.2" points="1042.54,-88.64 1032.47,-91.91 1042.38,-95.64 1042.54,-88.64"/>
</g>
<!-- &#45;18&#45;&gt;435 -->
<g id="edge133" class="edge">
<title>&#45;18&#45;&gt;435</title>
<path fill="none" stroke="green" stroke-width="0.12" stroke-dasharray="1,5" d="M1822.87,-242.03C1862.8,-234.61 1971.32,-213.45 1981.24,-200.69 1994.74,-183.33 1996.51,-167.03 1981.24,-151.2 1942.64,-111.19 1033.41,-134.4 981.24,-115.2 978.84,-114.31 976.48,-113.16 974.21,-111.83"/>
<polygon fill="green" stroke="green" stroke-width="0.12" points="976.16,-108.93 965.95,-106.1 972.17,-114.68 976.16,-108.93"/>
</g>
<!-- &#45;18&#45;&gt;436 -->
<g id="edge134" class="edge">
<title>&#45;18&#45;&gt;436</title>
<path fill="none" stroke="red" stroke-width="0.31" d="M1823.05,-238.13C1840.98,-230.01 1871.92,-215.45 1897.24,-200.69 1900.47,-198.81 1903.81,-196.73 1907.08,-194.61"/>
<polygon fill="red" stroke="red" stroke-width="0.31" points="1909.08,-197.49 1915.45,-189.02 1905.19,-191.66 1909.08,-197.49"/>
</g>
<!-- &#45;19 -->
<g id="node19" class="node">
<title>&#45;19</title>
<polygon fill="lightgray" stroke="black" points="1678.74,-254.69 1649.74,-254.69 1649.74,-236.69 1678.74,-236.69 1678.74,-254.69"/>
<text text-anchor="middle" x="1664.24" y="-243.49" font-family="Times New Roman,serif" font-size="9.00">&#45;19</text>
</g>
<!-- &#45;19&#45;&gt;427 -->
<g id="edge135" class="edge">
<title>&#45;19&#45;&gt;427</title>
<path fill="none" stroke="red" stroke-width="0.59" d="M1649.64,-237.31C1627.8,-226.27 1586.2,-205.24 1558.33,-191.15"/>
<polygon fill="red" stroke="red" stroke-width="0.59" points="1559.61,-187.87 1549.1,-186.48 1556.45,-194.12 1559.61,-187.87"/>
</g>
<!-- &#45;19&#45;&gt;428 -->
<g id="edge136" class="edge">
<title>&#45;19&#45;&gt;428</title>
<path fill="none" stroke="red" stroke-width="0.81" d="M1649.29,-238.94C1646.64,-238.08 1643.88,-237.29 1641.24,-236.69 1494.26,-203.74 1443.67,-257.68 1304.24,-200.69 1301.87,-199.73 1299.54,-198.51 1297.28,-197.15"/>
<polygon fill="red" stroke="red" stroke-width="0.81" points="1299.24,-194.25 1289.05,-191.35 1295.21,-199.97 1299.24,-194.25"/>
</g>
<!-- &#45;19&#45;&gt;429 -->
<g id="edge137" class="edge">
<title>&#45;19&#45;&gt;429</title>
<path fill="none" stroke="green" stroke-width="0.24" d="M1649.7,-239.43C1646.9,-238.47 1643.99,-237.52 1641.24,-236.69 1579.3,-218.05 1562.16,-219.37 1500.24,-200.69 1487.42,-196.83 1473.44,-192.04 1461.5,-187.78"/>
<polygon fill="green" stroke="green" stroke-width="0.24" points="1462.62,-184.47 1452.03,-184.36 1460.24,-191.05 1462.62,-184.47"/>
</g>
<!-- &#45;19&#45;&gt;430 -->
<g id="edge138" class="edge">
<title>&#45;19&#45;&gt;430</title>
<path fill="none" stroke="red" stroke-width="0.47" d="M1679.04,-240.72C1684.97,-239.26 1691.89,-237.71 1698.24,-236.69 1743.5,-229.42 2078.27,-234.49 2109.24,-200.69 2124.1,-184.47 2123.27,-168.13 2109.24,-151.2 2091.03,-129.23 1900.47,-104.25 1824.37,-95.08"/>
<polygon fill="red" stroke="red" stroke-width="0.47" points="1824.77,-91.6 1814.42,-93.89 1823.94,-98.55 1824.77,-91.6"/>
</g>
<!-- &#45;19&#45;&gt;431 -->
<g id="edge139" class="edge">
<title>&#45;19&#45;&gt;431</title>
<path fill="none" stroke="green" stroke-width="0.31" d="M1649.26,-239.04C1646.62,-238.17 1643.86,-237.34 1641.24,-236.69 1536.95,-210.94 1506.51,-226.51 1402.24,-200.69 1389.15,-197.45 1375.03,-192.73 1363.06,-188.35"/>
<polygon fill="green" stroke="green" stroke-width="0.31" points="1364.18,-185.03 1353.58,-184.79 1361.71,-191.58 1364.18,-185.03"/>
</g>
<!-- &#45;19&#45;&gt;433 -->
<g id="edge140" class="edge">
<title>&#45;19&#45;&gt;433</title>
<path fill="none" stroke="green" stroke-width="0.48" d="M1679.07,-240.88C1685,-239.44 1691.92,-237.87 1698.24,-236.69 1756.46,-225.9 1923.3,-245.3 1962.24,-200.69 1976.7,-184.12 1977.3,-167.23 1962.24,-151.2 1930.03,-116.9 1203.88,-96.37 1042.73,-92.23"/>
<polygon fill="green" stroke="green" stroke-width="0.48" points="1042.62,-88.72 1032.53,-91.97 1042.44,-95.72 1042.62,-88.72"/>
</g>
<!-- &#45;19&#45;&gt;436 -->
<g id="edge141" class="edge">
<title>&#45;19&#45;&gt;436</title>
<path fill="none" stroke="green" stroke-width="0.59" d="M1678.76,-241.1C1684.77,-239.66 1691.83,-238.03 1698.24,-236.69 1786.23,-218.39 1814.02,-234.66 1897.24,-200.69 1900.7,-199.28 1904.18,-197.48 1907.52,-195.52"/>
<polygon fill="green" stroke="green" stroke-width="0.59" points="1909.47,-198.43 1915.96,-190.06 1905.66,-192.55 1909.47,-198.43"/>
</g>
<!-- &#45;20 -->
<g id="node20" class="node">
<title>&#45;20</title>
<polygon fill="lightgray" stroke="black" points="1056.74,-254.69 1027.74,-254.69 1027.74,-236.69 1056.74,-236.69 1056.74,-254.69"/>
<text text-anchor="middle" x="1042.24" y="-243.49" font-family="Times New Roman,serif" font-size="9.00">&#45;20</text>
</g>
<!-- 0 -->
<g id="node21" class="node">
<title>0</title>
<ellipse fill="lightblue" stroke="black" cx="1136.24" cy="-14.85" rx="14.7" ry="14.7"/>
<text text-anchor="middle" x="1136.24" y="-12.65" font-family="Times New Roman,serif" font-size="9.00">0</text>
</g>
<!-- &#45;20&#45;&gt;0 -->
<g id="edge190" class="edge">
<title>&#45;20&#45;&gt;0</title>
<path fill="none" stroke="green" stroke-width="0.14" d="M1027.41,-244.57C910.7,-243.52 143.29,-235.34 110.24,-200.69 95.05,-184.78 95.73,-167.74 110.24,-151.2 178.7,-73.11 960.44,-25.67 1111.17,-17.21"/>
<polygon fill="green" stroke="green" stroke-width="0.14" points="1111.49,-20.7 1121.28,-16.65 1111.1,-13.71 1111.49,-20.7"/>
</g>
<!-- &#45;20&#45;&gt;427 -->
<g id="edge142" class="edge">
<title>&#45;20&#45;&gt;427</title>
<path fill="none" stroke="red" stroke-width="0.65" stroke-dasharray="1,5" d="M1056.81,-239.24C1059.89,-238.26 1063.14,-237.34 1066.24,-236.69 1239.22,-200.51 1289.52,-238.11 1462.24,-200.69 1475.41,-197.84 1489.55,-193.18 1501.51,-188.74"/>
<polygon fill="red" stroke="red" stroke-width="0.65" points="1502.88,-191.96 1510.96,-185.1 1500.37,-185.42 1502.88,-191.96"/>
</g>
<!-- &#45;20&#45;&gt;428 -->
<g id="edge143" class="edge">
<title>&#45;20&#45;&gt;428</title>
<path fill="none" stroke="green" stroke-width="0.38" d="M1056.93,-239.69C1060,-238.67 1063.22,-237.63 1066.24,-236.69 1129.12,-217.19 1203.38,-196.39 1243.98,-185.21"/>
<polygon fill="green" stroke="green" stroke-width="0.38" points="1245.07,-188.54 1253.78,-182.51 1243.21,-181.79 1245.07,-188.54"/>
</g>
<!-- &#45;20&#45;&gt;429 -->
<g id="edge144" class="edge">
<title>&#45;20&#45;&gt;429</title>
<path fill="none" stroke="green" stroke-width="0.25" d="M1056.83,-239.31C1059.9,-238.32 1063.15,-237.39 1066.24,-236.69 1196.4,-207.45 1234.29,-230.86 1364.24,-200.69 1377.37,-197.64 1391.5,-192.95 1403.46,-188.54"/>
<polygon fill="green" stroke="green" stroke-width="0.25" points="1404.82,-191.77 1412.93,-184.94 1402.34,-185.22 1404.82,-191.77"/>
</g>
<!-- &#45;20&#45;&gt;430 -->
<g id="edge145" class="edge">
<title>&#45;20&#45;&gt;430</title>
<path fill="none" stroke="red" stroke-width="0.38" d="M1027.69,-244.86C935.87,-245.78 438.94,-248.53 394.24,-200.69 379.22,-184.62 379.02,-167.08 394.24,-151.2 406.49,-138.41 1556.13,-99.38 1761.9,-92.49"/>
<polygon fill="red" stroke="red" stroke-width="0.38" points="1762.15,-95.98 1772.02,-92.15 1761.91,-88.99 1762.15,-95.98"/>
</g>
<!-- &#45;20&#45;&gt;431 -->
<g id="edge146" class="edge">
<title>&#45;20&#45;&gt;431</title>
<path fill="none" stroke="green" stroke-width="0.5" d="M1056.84,-239.38C1059.92,-238.39 1063.16,-237.43 1066.24,-236.69 1170.25,-211.69 1206.12,-243.32 1304.24,-200.69 1306.58,-199.67 1308.9,-198.42 1311.15,-197.04"/>
<polygon fill="green" stroke="green" stroke-width="0.5" points="1313.24,-199.84 1319.36,-191.19 1309.18,-194.14 1313.24,-199.84"/>
</g>
<!-- &#45;20&#45;&gt;433 -->
<g id="edge147" class="edge">
<title>&#45;20&#45;&gt;433</title>
<path fill="none" stroke="red" stroke-width="0.35" d="M1027.49,-244.49C917.68,-242.93 230.87,-231.91 201.24,-200.69 186.09,-184.74 186.04,-167.11 201.24,-151.2 261.15,-88.45 899.98,-145.59 981.24,-115.2 983.63,-114.3 985.99,-113.14 988.26,-111.81"/>
<polygon fill="red" stroke="red" stroke-width="0.35" points="990.3,-114.65 996.51,-106.06 986.3,-108.9 990.3,-114.65"/>
</g>
<!-- &#45;20&#45;&gt;435 -->
<g id="edge148" class="edge">
<title>&#45;20&#45;&gt;435</title>
<path fill="none" stroke="green" stroke-width="0.32" d="M1027.65,-244.56C912.81,-243.44 157.75,-234.8 125.24,-200.69 110.06,-184.77 110.25,-167.3 125.24,-151.2 180.24,-92.07 774.78,-90.7 919.58,-91.26"/>
<polygon fill="green" stroke="green" stroke-width="0.32" points="919.95,-94.76 929.96,-91.3 919.98,-87.76 919.95,-94.76"/>
</g>
<!-- &#45;20&#45;&gt;436 -->
<g id="edge149" class="edge">
<title>&#45;20&#45;&gt;436</title>
<path fill="none" stroke="green" stroke-width="0.32" d="M1056.8,-239.19C1059.88,-238.21 1063.14,-237.31 1066.24,-236.69 1087.15,-232.56 1747.91,-189.04 1900.86,-179"/>
<polygon fill="green" stroke="green" stroke-width="0.32" points="1901.22,-182.48 1910.97,-178.34 1900.77,-175.5 1901.22,-182.48"/>
</g>
<!-- 1 -->
<g id="node22" class="node">
<title>1</title>
<ellipse fill="lightblue" stroke="black" cx="1592.24" cy="-14.85" rx="14.7" ry="14.7"/>
<text text-anchor="middle" x="1592.24" y="-12.65" font-family="Times New Roman,serif" font-size="9.00">1</text>
</g>
<!-- 2 -->
<g id="node23" class="node">
<title>2</title>
<ellipse fill="lightblue" stroke="black" cx="1383.24" cy="-14.85" rx="14.7" ry="14.7"/>
<text text-anchor="middle" x="1383.24" y="-12.65" font-family="Times New Roman,serif" font-size="9.00">2</text>
</g>
<!-- 3 -->
<g id="node24" class="node">
<title>3</title>
<ellipse fill="lightblue" stroke="black" cx="1744.24" cy="-14.85" rx="14.7" ry="14.7"/>
<text text-anchor="middle" x="1744.24" y="-12.65" font-family="Times New Roman,serif" font-size="9.00">3</text>
</g>
<!-- 4 -->
<g id="node25" class="node">
<title>4</title>
<ellipse fill="lightblue" stroke="black" cx="1245.24" cy="-14.85" rx="14.7" ry="14.7"/>
<text text-anchor="middle" x="1245.24" y="-12.65" font-family="Times New Roman,serif" font-size="9.00">4</text>
</g>
<!-- 1575 -->
<g id="node27" class="node">
<title>1575</title>
<ellipse fill="white" stroke="black" cx="2009.24" cy="-90.45" rx="25" ry="25"/>
<text text-anchor="middle" x="2009.24" y="-88.25" font-family="Times New Roman,serif" font-size="9.00">1575</text>
</g>
<!-- 1575&#45;&gt;3 -->
<g id="edge194" class="edge">
<title>1575&#45;&gt;3</title>
<path fill="none" stroke="green" stroke-width="0.48" d="M1989.26,-75.55C1983.34,-71.92 1976.71,-68.3 1970.24,-65.7 1900.27,-37.59 1811.44,-23.9 1768.99,-18.6"/>
<polygon fill="green" stroke="green" stroke-width="0.48" points="1769.35,-15.12 1759.01,-17.4 1768.52,-22.07 1769.35,-15.12"/>
</g>
<!-- 427&#45;&gt;0 -->
<g id="edge150" class="edge">
<title>427&#45;&gt;0</title>
<path fill="none" stroke="green" stroke-width="0.16" d="M1513.63,-162.54C1507.97,-158.62 1501.48,-154.46 1495.24,-151.2 1375.22,-88.42 1219.36,-39.98 1160.32,-22.7"/>
<polygon fill="green" stroke="green" stroke-width="0.16" points="1161.03,-19.27 1150.45,-19.85 1159.09,-25.99 1161.03,-19.27"/>
</g>
<!-- 427&#45;&gt;1 -->
<g id="edge151" class="edge">
<title>427&#45;&gt;1</title>
<path fill="none" stroke="red" stroke-width="0.25" d="M1549.33,-166.23C1567.75,-156.65 1594.5,-139.35 1606.24,-115.2 1618.21,-90.56 1610.19,-58.7 1602.22,-37.79"/>
<polygon fill="red" stroke="red" stroke-width="0.25" points="1605.44,-36.41 1598.4,-28.48 1598.96,-39.06 1605.44,-36.41"/>
</g>
<!-- 427&#45;&gt;2 -->
<g id="edge152" class="edge">
<title>427&#45;&gt;2</title>
<path fill="none" stroke="green" stroke-width="0.19" d="M1536.49,-155.53C1542.79,-131.95 1549.13,-92.06 1530.24,-65.7 1502.33,-26.76 1442.3,-17.86 1408.22,-16.06"/>
<polygon fill="green" stroke="green" stroke-width="0.19" points="1408.25,-12.56 1398.13,-15.7 1408,-19.56 1408.25,-12.56"/>
</g>
<!-- 427&#45;&gt;3 -->
<g id="edge153" class="edge">
<title>427&#45;&gt;3</title>
<path fill="none" stroke="green" stroke-width="0.36" d="M1551.14,-171.05C1595.48,-162.38 1696.8,-140.27 1720.24,-115.2 1739.2,-94.9 1743.95,-62.28 1744.77,-39.99"/>
<polygon fill="green" stroke="green" stroke-width="0.36" points="1748.28,-39.73 1744.9,-29.69 1741.28,-39.64 1748.28,-39.73"/>
</g>
<!-- 427&#45;&gt;4 -->
<g id="edge154" class="edge">
<title>427&#45;&gt;4</title>
<path fill="none" stroke="green" stroke-width="0.49" d="M1529.05,-154.71C1526.47,-129.92 1518.26,-88.41 1492.24,-65.7 1475.44,-51.04 1328.83,-28.13 1269.75,-19.39"/>
<polygon fill="green" stroke="green" stroke-width="0.49" points="1270.19,-15.92 1259.79,-17.93 1269.18,-22.85 1270.19,-15.92"/>
</g>
<!-- 428&#45;&gt;0 -->
<g id="edge155" class="edge">
<title>428&#45;&gt;0</title>
<path fill="none" stroke="red" stroke-width="0.32" stroke-dasharray="1,5" d="M1256.98,-163.25C1232.01,-146.3 1188.61,-116.76 1187.24,-115.2 1167.21,-92.43 1152.61,-60.4 1144.29,-38.92"/>
<polygon fill="red" stroke="red" stroke-width="0.32" points="1147.48,-37.46 1140.71,-29.31 1140.92,-39.91 1147.48,-37.46"/>
</g>
<!-- 428&#45;&gt;1 -->
<g id="edge156" class="edge">
<title>428&#45;&gt;1</title>
<path fill="none" stroke="green" stroke-width="0.18" d="M1286.66,-158.45C1305.76,-134.3 1344.74,-89.57 1388.24,-65.7 1447.25,-33.31 1527.26,-21.71 1567.28,-17.76"/>
<polygon fill="green" stroke="green" stroke-width="0.18" points="1567.81,-21.23 1577.45,-16.84 1567.18,-14.26 1567.81,-21.23"/>
</g>
<!-- 428&#45;&gt;2 -->
<g id="edge157" class="edge">
<title>428&#45;&gt;2</title>
<path fill="none" stroke="red" stroke-width="0.26" stroke-dasharray="1,5" d="M1268.34,-155.43C1262.53,-132.1 1256.81,-92.83 1274.24,-65.7 1292.72,-36.92 1332.4,-24.55 1358.44,-19.38"/>
<polygon fill="red" stroke="red" stroke-width="0.26" points="1359.1,-22.82 1368.33,-17.63 1357.88,-15.92 1359.1,-22.82"/>
</g>
<!-- 428&#45;&gt;3 -->
<g id="edge158" class="edge">
<title>428&#45;&gt;3</title>
<path fill="none" stroke="green" stroke-width="0.46" stroke-dasharray="1,5" d="M1289.96,-161.47C1294.44,-157.93 1299.41,-154.25 1304.24,-151.2 1322.45,-139.7 1457.8,-72.49 1478.24,-65.7 1564.27,-37.09 1671.74,-23.29 1719.45,-18.22"/>
<polygon fill="green" stroke="green" stroke-width="0.46" points="1719.88,-21.7 1729.47,-17.2 1719.17,-14.74 1719.88,-21.7"/>
</g>
<!-- 428&#45;&gt;4 -->
<g id="edge159" class="edge">
<title>428&#45;&gt;4</title>
<path fill="none" stroke="green" stroke-width="0.21" d="M1257.19,-162.77C1235.78,-147.3 1201.45,-121.8 1198.24,-115.2 1188.62,-95.41 1190.12,-86.14 1198.24,-65.7 1203.78,-51.74 1215.29,-39.43 1225.53,-30.53"/>
<polygon fill="green" stroke="green" stroke-width="0.21" points="1227.8,-33.19 1233.33,-24.16 1223.37,-27.77 1227.8,-33.19"/>
</g>
<!-- 428&#45;&gt;435 -->
<g id="edge195" class="edge">
<title>428&#45;&gt;435</title>
<path fill="none" stroke="green" stroke-width="0.41" d="M1254.64,-167.67C1240.08,-162.48 1219.63,-155.66 1201.24,-151.2 1104.96,-127.8 1071.87,-155.23 981.24,-115.2 978.9,-114.16 976.58,-112.9 974.34,-111.51"/>
<polygon fill="green" stroke="green" stroke-width="0.41" points="976.31,-108.61 966.13,-105.66 972.24,-114.31 976.31,-108.61"/>
</g>
<!-- 429&#45;&gt;0 -->
<g id="edge160" class="edge">
<title>429&#45;&gt;0</title>
<path fill="none" stroke="green" stroke-width="0.13" d="M1412.82,-166.91C1386.94,-156.02 1339.94,-135.59 1301.24,-115.2 1247.89,-87.09 1187.82,-49.28 1156.97,-29.39"/>
<polygon fill="green" stroke="green" stroke-width="0.13" points="1158.68,-26.32 1148.38,-23.82 1154.87,-32.19 1158.68,-26.32"/>
</g>
<!-- 429&#45;&gt;2 -->
<g id="edge161" class="edge">
<title>429&#45;&gt;2</title>
<path fill="none" stroke="green" stroke-width="0.25" d="M1426.23,-155.44C1417.18,-126.06 1400.1,-70.58 1390.41,-39.14"/>
<polygon fill="green" stroke="green" stroke-width="0.25" points="1393.72,-37.99 1387.43,-29.47 1387.03,-40.05 1393.72,-37.99"/>
</g>
<!-- 429&#45;&gt;3 -->
<g id="edge162" class="edge">
<title>429&#45;&gt;3</title>
<path fill="none" stroke="red" stroke-width="0.42" d="M1451.65,-167.35C1465.13,-162.27 1483.59,-155.73 1500.24,-151.2 1579.8,-129.55 1614.37,-162.03 1682.24,-115.2 1696.63,-105.26 1719.68,-63.82 1733.25,-37.7"/>
<polygon fill="red" stroke="red" stroke-width="0.42" points="1736.5,-39.03 1737.95,-28.54 1730.27,-35.84 1736.5,-39.03"/>
</g>
<!-- 429&#45;&gt;4 -->
<g id="edge163" class="edge">
<title>429&#45;&gt;4</title>
<path fill="none" stroke="green" stroke-width="0.23" d="M1416.29,-161.38C1381.95,-132.16 1301.12,-63.39 1264.21,-31.99"/>
<polygon fill="green" stroke="green" stroke-width="0.23" points="1266.11,-29.01 1256.23,-25.2 1261.58,-34.35 1266.11,-29.01"/>
</g>
<!-- 430&#45;&gt;0 -->
<g id="edge164" class="edge">
<title>430&#45;&gt;0</title>
<path fill="none" stroke="green" stroke-width="0.1" d="M1772.15,-87.69C1697.06,-81.32 1435.75,-58.35 1221.24,-29.7 1200.94,-26.99 1178.02,-23.21 1161.1,-20.29"/>
<polygon fill="green" stroke="green" stroke-width="0.1" points="1161.39,-16.78 1150.94,-18.51 1160.19,-23.68 1161.39,-16.78"/>
</g>
<!-- 430&#45;&gt;1 -->
<g id="edge165" class="edge">
<title>430&#45;&gt;1</title>
<path fill="none" stroke="green" stroke-width="0.26" d="M1773.6,-82.26C1736.25,-68.58 1655.16,-38.89 1615.3,-24.29"/>
<polygon fill="green" stroke="green" stroke-width="0.26" points="1616.48,-21 1605.89,-20.85 1614.07,-27.57 1616.48,-21"/>
</g>
<!-- 430&#45;&gt;2 -->
<g id="edge166" class="edge">
<title>430&#45;&gt;2</title>
<path fill="none" stroke="red" stroke-width="0.25" d="M1772.34,-85.7C1703.27,-73.3 1482.47,-33.66 1408.02,-20.3"/>
<polygon fill="red" stroke="red" stroke-width="0.25" points="1408.21,-16.78 1397.75,-18.45 1406.98,-23.67 1408.21,-16.78"/>
</g>
<!-- 430&#45;&gt;3 -->
<g id="edge167" class="edge">
<title>430&#45;&gt;3</title>
<path fill="none" stroke="red" stroke-width="0.64" d="M1781.87,-72.38C1774.64,-61.52 1765.25,-47.41 1757.66,-36.01"/>
<polygon fill="red" stroke="red" stroke-width="0.64" points="1760.48,-33.94 1752.03,-27.55 1754.66,-37.82 1760.48,-33.94"/>
</g>
<!-- 430&#45;&gt;4 -->
<g id="edge168" class="edge">
<title>430&#45;&gt;4</title>
<path fill="none" stroke="green" stroke-width="0.21" d="M1772.09,-86.61C1685.99,-75.04 1362.06,-31.54 1269.86,-19.16"/>
<polygon fill="green" stroke="green" stroke-width="0.21" points="1270.17,-15.67 1259.8,-17.8 1269.24,-22.6 1270.17,-15.67"/>
</g>
<!-- 431&#45;&gt;0 -->
<g id="edge169" class="edge">
<title>431&#45;&gt;0</title>
<path fill="none" stroke="red" stroke-width="0.51" d="M1318.9,-160.77C1314.43,-157.23 1309.36,-153.72 1304.24,-151.2 1245.05,-122.07 1206.7,-162.03 1160.24,-115.2 1140.58,-95.39 1136.02,-62.42 1135.42,-39.94"/>
<polygon fill="red" stroke="red" stroke-width="0.51" points="1138.92,-39.85 1135.4,-29.85 1131.92,-39.86 1138.92,-39.85"/>
</g>
<!-- 431&#45;&gt;1 -->
<g id="edge170" class="edge">
<title>431&#45;&gt;1</title>
<path fill="none" stroke="green" stroke-width="0.68" stroke-dasharray="1,5" d="M1351.21,-163.17C1356.9,-159.3 1363.31,-155.01 1369.24,-151.2 1442.29,-104.29 1530.98,-51.74 1570.92,-28.3"/>
<polygon fill="green" stroke="green" stroke-width="0.68" points="1572.91,-31.19 1579.77,-23.11 1569.37,-25.15 1572.91,-31.19"/>
</g>
<!-- 431&#45;&gt;2 -->
<g id="edge171" class="edge">
<title>431&#45;&gt;2</title>
<path fill="none" stroke="green" stroke-width="0.45" d="M1340.25,-155.44C1349.29,-126.06 1366.38,-70.58 1376.07,-39.14"/>
<polygon fill="green" stroke="green" stroke-width="0.45" points="1379.45,-40.05 1379.04,-29.47 1372.76,-37.99 1379.45,-40.05"/>
</g>
<!-- 431&#45;&gt;3 -->
<g id="edge172" class="edge">
<title>431&#45;&gt;3</title>
<path fill="none" stroke="red" stroke-width="0.19" d="M1350.73,-162.32C1356.39,-158.39 1362.9,-154.28 1369.24,-151.2 1416.65,-128.16 1432.47,-132.55 1482.24,-115.2 1571.3,-84.15 1675.75,-43.14 1721.19,-25.07"/>
<polygon fill="red" stroke="red" stroke-width="0.19" points="1722.7,-28.23 1730.69,-21.28 1720.11,-21.73 1722.7,-28.23"/>
</g>
<!-- 431&#45;&gt;4 -->
<g id="edge173" class="edge">
<title>431&#45;&gt;4</title>
<path fill="none" stroke="red" stroke-width="0.12" d="M1324.2,-157C1307.64,-127.4 1274.67,-68.46 1257.02,-36.92"/>
<polygon fill="red" stroke="red" stroke-width="0.12" points="1260.01,-35.09 1252.08,-28.07 1253.9,-38.51 1260.01,-35.09"/>
</g>
<!-- 433&#45;&gt;0 -->
<g id="edge174" class="edge">
<title>433&#45;&gt;0</title>
<path fill="none" stroke="green" stroke-width="0.19" d="M1028.12,-77.54C1033.81,-73.65 1040.23,-69.39 1046.24,-65.7 1068.94,-51.75 1095.75,-37.13 1114.17,-27.36"/>
<polygon fill="green" stroke="green" stroke-width="0.19" points="1116,-30.35 1123.21,-22.59 1112.73,-24.16 1116,-30.35"/>
</g>
<!-- 433&#45;&gt;1 -->
<g id="edge175" class="edge">
<title>433&#45;&gt;1</title>
<path fill="none" stroke="green" stroke-width="0.11" d="M1032.26,-86.78C1121.78,-75.44 1471.06,-31.2 1567.47,-18.99"/>
<polygon fill="green" stroke="green" stroke-width="0.11" points="1567.98,-22.45 1577.46,-17.72 1567.1,-15.51 1567.98,-22.45"/>
</g>
<!-- 433&#45;&gt;2 -->
<g id="edge176" class="edge">
<title>433&#45;&gt;2</title>
<path fill="none" stroke="green" stroke-width="0.54" d="M1032.03,-85.33C1096.09,-72.66 1290.16,-34.26 1358.84,-20.68"/>
<polygon fill="green" stroke="green" stroke-width="0.54" points="1359.61,-24.09 1368.74,-18.72 1358.25,-17.22 1359.61,-24.09"/>
</g>
<!-- 433&#45;&gt;4 -->
<g id="edge177" class="edge">
<title>433&#45;&gt;4</title>
<path fill="none" stroke="red" stroke-width="0.3" d="M1031.35,-82.82C1046,-78.01 1066.33,-71.38 1084.24,-65.7 1132.85,-50.27 1189.9,-32.74 1221.36,-23.13"/>
<polygon fill="red" stroke="red" stroke-width="0.3" points="1222.46,-26.45 1231,-20.18 1220.42,-19.75 1222.46,-26.45"/>
</g>
<!-- 435&#45;&gt;0 -->
<g id="edge178" class="edge">
<title>435&#45;&gt;0</title>
<path fill="none" stroke="red" stroke-width="0.39" d="M966.69,-75.5C971.16,-71.95 976.2,-68.39 981.24,-65.7 1024.51,-42.6 1080.34,-27.91 1111.82,-20.84"/>
<polygon fill="red" stroke="red" stroke-width="0.39" points="1112.85,-24.2 1121.88,-18.66 1111.36,-17.36 1112.85,-24.2"/>
</g>
<!-- 435&#45;&gt;2 -->
<g id="edge179" class="edge">
<title>435&#45;&gt;2</title>
<path fill="none" stroke="red" stroke-width="0.28" d="M966.07,-75.1C970.62,-71.47 975.85,-67.96 981.24,-65.7 983.44,-64.78 1271.31,-29.53 1358.5,-18.87"/>
<polygon fill="red" stroke="red" stroke-width="0.28" points="1359.04,-22.33 1368.54,-17.64 1358.19,-15.38 1359.04,-22.33"/>
</g>
<!-- 435&#45;&gt;4 -->
<g id="edge180" class="edge">
<title>435&#45;&gt;4</title>
<path fill="none" stroke="red" stroke-width="0.48" stroke-dasharray="1,5" d="M966.17,-75.32C970.71,-71.69 975.92,-68.13 981.24,-65.7 1003,-55.77 1159.47,-29.73 1220.73,-19.79"/>
<polygon fill="red" stroke="red" stroke-width="0.48" points="1221.37,-23.23 1230.69,-18.18 1220.26,-16.32 1221.37,-23.23"/>
</g>
<!-- 436&#45;&gt;0 -->
<g id="edge181" class="edge">
<title>436&#45;&gt;0</title>
<path fill="none" stroke="green" stroke-width="0.19" stroke-dasharray="1,5" d="M1914.64,-163.52C1898.35,-152.4 1874.01,-134.42 1856.24,-115.2 1838.29,-95.78 1846.17,-78.86 1823.24,-65.7 1765.13,-32.33 1287.84,-37.1 1221.24,-29.7 1200.76,-27.42 1177.7,-23.58 1160.77,-20.52"/>
<polygon fill="green" stroke="green" stroke-width="0.19" points="1161.08,-17.02 1150.61,-18.65 1159.81,-23.91 1161.08,-17.02"/>
</g>
<!-- 436&#45;&gt;1 -->
<g id="edge182" class="edge">
<title>436&#45;&gt;1</title>
<path fill="none" stroke="green" stroke-width="0.14" stroke-dasharray="1,5" d="M1939,-155.77C1946.15,-131.69 1953.69,-90.53 1932.24,-65.7 1921.87,-53.71 1694.35,-27.26 1617.4,-18.63"/>
<polygon fill="green" stroke="green" stroke-width="0.14" points="1617.51,-15.12 1607.19,-17.49 1616.74,-22.08 1617.51,-15.12"/>
</g>
<!-- 436&#45;&gt;2 -->
<g id="edge183" class="edge">
<title>436&#45;&gt;2</title>
<path fill="none" stroke="green" stroke-width="0.52" d="M1931.45,-154.71C1929.3,-129.52 1921.54,-87.18 1894.24,-65.7 1884.54,-58.07 1509.25,-26.34 1408.12,-17.91"/>
<polygon fill="green" stroke="green" stroke-width="0.52" points="1408.19,-14.41 1397.94,-17.06 1407.61,-21.38 1408.19,-14.41"/>
</g>
<!-- 436&#45;&gt;3 -->
<g id="edge184" class="edge">
<title>436&#45;&gt;3</title>
<path fill="none" stroke="green" stroke-width="0.58" stroke-dasharray="1,5" d="M1953.1,-170.54C1979.45,-163.74 2023.71,-147.89 2043.24,-115.2 2054.52,-96.31 2057.46,-82.48 2043.24,-65.7 2008.11,-24.23 1835.02,-17.23 1769.46,-16.07"/>
<polygon fill="green" stroke="green" stroke-width="0.58" points="1769.26,-12.57 1759.21,-15.92 1769.16,-19.56 1769.26,-12.57"/>
</g>
<!-- 436&#45;&gt;4 -->
<g id="edge185" class="edge">
<title>436&#45;&gt;4</title>
<path fill="none" stroke="green" stroke-width="0.27" d="M1921.29,-157.52C1902.63,-128.07 1865.72,-71.1 1856.24,-65.7 1760.01,-10.9 1469.45,-40.38 1359.24,-29.7 1328.4,-26.71 1293,-22.25 1269.93,-19.2"/>
<polygon fill="green" stroke="green" stroke-width="0.27" points="1270.34,-15.72 1259.97,-17.87 1269.42,-22.66 1270.34,-15.72"/>
</g>
<!-- 436&#45;&gt;1575 -->
<g id="edge193" class="edge">
<title>436&#45;&gt;1575</title>
<path fill="none" stroke="green" stroke-width="0.41" d="M1946.36,-159.63C1957.42,-147.63 1973.05,-130.69 1985.95,-116.69"/>
<polygon fill="green" stroke="green" stroke-width="0.41" points="1988.59,-119 1992.8,-109.27 1983.45,-114.25 1988.59,-119"/>
</g>
<!-- 436&#45;&gt;430 -->
<g id="edge188" class="edge">
<title>436&#45;&gt;430</title>
<path fill="none" stroke="red" stroke-width="0.27" d="M1915.4,-162.95C1909.72,-159.05 1903.29,-154.81 1897.24,-151.2 1867.54,-133.46 1857.93,-132.94 1828.24,-115.2 1825.02,-113.28 1821.7,-111.18 1818.44,-109.05"/>
<polygon fill="red" stroke="red" stroke-width="0.27" points="1820.33,-106.1 1810.07,-103.44 1816.43,-111.92 1820.33,-106.1"/>
</g>
<!-- 1278&#45;&gt;433 -->
<g id="edge187" class="edge">
<title>1278&#45;&gt;433</title>
<path fill="none" stroke="green" stroke-width="0.85" d="M663.56,-166.66C678.69,-161.56 698.93,-155.24 717.24,-151.2 832.87,-125.66 872.28,-161.59 981.24,-115.2 983.59,-114.19 985.91,-112.96 988.16,-111.58"/>
<polygon fill="green" stroke="green" stroke-width="0.85" points="990.25,-114.39 996.38,-105.75 986.2,-108.68 990.25,-114.39"/>
</g>
</g>
</svg>
